# Blender 4.5.3 LTS
# www.blender.org
mtllib 1.mtl
o Cube.003
v -0.513454 -0.032958 0.159678
v -0.513454 -0.019098 0.173538
v -0.527314 -0.019098 0.159678
v -0.513454 0.019098 0.173538
v -0.513454 0.032958 0.159678
v -0.527314 0.019098 0.159678
v -0.513454 -0.032958 -0.159678
v -0.527314 -0.019098 -0.159678
v -0.513454 -0.019098 -0.173538
v -0.513454 0.032958 -0.159678
v -0.513454 0.019098 -0.173538
v -0.527314 0.019098 -0.159678
v 0.513454 -0.032958 0.159678
v 0.527314 -0.019098 0.159678
v 0.513454 -0.019098 0.173538
v 0.513454 0.032958 0.159678
v 0.513454 0.019098 0.173538
v 0.527314 0.019098 0.159678
v 0.513454 -0.019098 -0.173538
v 0.527314 -0.019098 -0.159678
v 0.513454 -0.032958 -0.159678
v 0.513454 0.019098 -0.173538
v 0.513454 0.032958 -0.159678
v 0.527314 0.019098 -0.159678
v -0.419799 -0.046527 -0.133406
v -0.426190 -0.032958 -0.162278
v -0.405687 -0.046731 -0.147373
v -0.383367 -0.046731 -0.147373
v -0.357535 -0.032958 -0.162278
v -0.369253 -0.046591 -0.133413
v 0.383367 -0.046731 -0.147373
v 0.369253 -0.046591 -0.133413
v 0.357535 -0.032958 -0.162278
v 0.405687 -0.046731 -0.147373
v 0.426190 -0.032958 -0.162278
v 0.419799 -0.046527 -0.133406
v 0.432497 0.019098 -0.173538
v 0.432497 0.032958 -0.159678
v 0.351228 0.032958 -0.159678
v 0.351228 0.019098 -0.173538
v -0.351228 0.019098 -0.173538
v -0.351228 0.032958 -0.159678
v -0.432497 0.032958 -0.159678
v -0.432497 0.019098 -0.173538
v 0.419799 -0.046527 0.133406
v 0.426190 -0.032958 0.162278
v 0.405687 -0.046731 0.147373
v 0.383367 -0.046731 0.147373
v 0.357535 -0.032958 0.162278
v 0.369253 -0.046591 0.133413
v -0.383367 -0.046731 0.147373
v -0.369253 -0.046591 0.133413
v -0.357535 -0.032958 0.162278
v -0.405687 -0.046731 0.147373
v -0.426190 -0.032958 0.162278
v -0.419799 -0.046527 0.133406
v -0.432497 0.019098 0.173538
v -0.432497 0.032958 0.159678
v -0.351228 0.032958 0.159678
v -0.351228 0.019098 0.173538
v 0.351228 0.019098 0.173538
v 0.351228 0.032958 0.159678
v 0.432497 0.032958 0.159678
v 0.432497 0.019098 0.173538
v 0.351228 -0.032958 -0.159678
v 0.351228 -0.019098 -0.173538
v 0.432497 -0.019098 -0.173538
v 0.432497 -0.032958 -0.159678
v 0.432497 -0.032958 0.159678
v 0.432497 -0.019098 0.173538
v 0.351228 -0.019098 0.173538
v 0.351228 -0.032958 0.159678
v -0.351228 -0.032958 0.159678
v -0.351228 -0.019098 0.173538
v -0.432497 -0.019098 0.173538
v -0.432497 -0.032958 0.159678
v -0.432497 -0.032958 -0.159678
v -0.432497 -0.019098 -0.173538
v -0.351228 -0.019098 -0.173538
v -0.351228 -0.032958 -0.159678
v 0.419867 -0.245851 -0.169855
v 0.422164 -0.259624 -0.157550
v 0.405805 -0.245991 -0.155925
v 0.447185 -0.245851 -0.169855
v 0.461382 -0.246055 -0.155933
v 0.450349 -0.259624 -0.157550
v 0.461382 -0.246055 0.155933
v 0.447185 -0.245851 0.169855
v 0.450349 -0.259624 0.157550
v 0.419867 -0.245851 0.169855
v 0.405805 -0.245991 0.155925
v 0.422164 -0.259624 0.157550
v -0.419867 -0.245851 0.169855
v -0.422164 -0.259624 0.157550
v -0.405805 -0.245991 0.155925
v -0.447185 -0.245851 0.169855
v -0.461382 -0.246055 0.155933
v -0.450349 -0.259624 0.157550
v -0.461382 -0.246055 -0.155933
v -0.447185 -0.245851 -0.169855
v -0.450349 -0.259624 -0.157550
v -0.419867 -0.245851 -0.169855
v -0.405805 -0.245991 -0.155925
v -0.422164 -0.259624 -0.157550
vn -0.5774 -0.5773 0.5773
vn -0.5774 0.5773 0.5773
vn -0.5774 -0.5773 -0.5773
vn -0.5774 0.5773 -0.5773
vn 0.5774 -0.5773 0.5773
vn 0.5774 0.5773 0.5773
vn 0.5774 -0.5773 -0.5773
vn 0.5774 0.5773 -0.5773
vn -0.3449 -0.8766 -0.3356
vn 0.3072 -0.9026 -0.3016
vn -0.3072 -0.9026 -0.3016
vn 0.3449 -0.8766 -0.3356
vn 0.3449 -0.8766 0.3356
vn -0.3072 -0.9026 0.3016
vn 0.3072 -0.9026 0.3016
vn -0.3449 -0.8766 0.3356
vn -0.5587 -0.6025 -0.5700
vn 0.6278 -0.4334 -0.6466
vn 0.6278 -0.4334 0.6466
vn -0.5587 -0.6025 0.5700
vn 0.5587 -0.6025 0.5700
vn -0.6278 -0.4334 0.6466
vn -0.6278 -0.4334 -0.6466
vn 0.5587 -0.6025 -0.5700
vn -0.7071 -0.7071 -0.0000
vn -0.7071 -0.0000 0.7071
vn -0.7071 0.7071 -0.0000
vn -0.7071 -0.0000 -0.7071
vn 0.7071 -0.0000 -0.7071
vn 0.7071 -0.7071 -0.0000
vn 0.7071 0.7071 -0.0000
vn 0.7071 -0.0000 0.7071
vn -0.0000 0.7071 -0.7071
vn -0.0000 0.7071 0.7071
vn -0.0000 -0.7071 -0.7071
vn -0.0000 -0.7071 0.7071
vn -0.0000 -0.7344 -0.6787
vn 0.9047 -0.4261 -0.0000
vn -0.0000 -0.7344 0.6787
vn -0.7584 -0.6518 -0.0000
vn -0.9047 -0.4261 -0.0000
vn 0.7584 -0.6518 -0.0000
vn -0.0000 -0.6663 -0.7457
vn 0.7759 -0.6309 -0.0000
vn -0.0000 -0.6663 0.7457
vn -0.6402 -0.7682 -0.0000
vn -0.7759 -0.6309 -0.0000
vn 0.6402 -0.7682 -0.0000
vn -0.7027 -0.0487 0.7099
vn 0.6844 0.2211 0.6947
vn 0.6844 0.2211 -0.6947
vn -0.7027 -0.0487 -0.7099
vn 0.7027 -0.0487 0.7099
vn 0.7027 -0.0487 -0.7099
vn -0.6844 0.2211 -0.6947
vn -0.6844 0.2211 0.6947
vn -0.0000 -1.0000 -0.0000
vn -1.0000 -0.0000 -0.0000
vn -0.0000 -0.0000 1.0000
vn -0.0000 1.0000 -0.0000
vn -0.0000 -0.0000 -1.0000
vn 1.0000 -0.0000 -0.0000
vn -0.9790 0.2040 -0.0000
vn -0.0000 0.1122 -0.9937
vn 0.9836 -0.1803 -0.0000
vn -0.9836 -0.1803 -0.0000
vn 0.9790 0.2040 -0.0000
vn -0.0000 0.1122 0.9937
vt 0.128285 0.740017
vt 0.128285 0.750000
vt 0.125000 0.740017
vt 0.572434 0.996714
vt 0.625000 0.996714
vt 0.572434 1.000000
vt 0.128285 0.509983
vt 0.125000 0.509983
vt 0.128285 0.500000
vt 0.625000 0.242920
vt 0.572434 0.253285
vt 0.572434 0.240102
vt 0.371714 0.740017
vt 0.427115 0.740017
vt 0.425219 0.753147
vt 0.628268 0.740086
vt 0.572434 0.753285
vt 0.572434 0.740102
vt 0.427566 0.496715
vt 0.427566 0.509898
vt 0.371885 0.509297
vt 0.572434 0.496714
vt 0.628268 0.509914
vt 0.572434 0.509898
vt 0.151157 0.514832
vt 0.148972 0.501495
vt 0.154476 0.503680
vt 0.159745 0.503680
vt 0.165246 0.501495
vt 0.163061 0.514832
vt 0.340255 0.503680
vt 0.336939 0.514832
vt 0.334754 0.501495
vt 0.345524 0.503680
vt 0.351028 0.501495
vt 0.348843 0.514832
vt 0.348843 0.735168
vt 0.351028 0.748505
vt 0.345524 0.746320
vt 0.340255 0.746320
vt 0.334754 0.748505
vt 0.336939 0.735168
vt 0.159745 0.746319
vt 0.163061 0.735168
vt 0.165246 0.748505
vt 0.154476 0.746319
vt 0.148972 0.748505
vt 0.151157 0.735168
vt 0.339970 0.503680
vt 0.339890 0.513490
vt 0.336939 0.513865
vt 0.345809 0.503680
vt 0.348843 0.513864
vt 0.345892 0.513490
vt 0.348843 0.736136
vt 0.345809 0.746319
vt 0.345892 0.736510
vt 0.339970 0.746320
vt 0.336939 0.736135
vt 0.339890 0.736510
vt 0.160030 0.746320
vt 0.160110 0.736510
vt 0.163061 0.736135
vt 0.154191 0.746320
vt 0.151157 0.736136
vt 0.154108 0.736510
vt 0.151157 0.513864
vt 0.154191 0.503680
vt 0.154108 0.513490
vt 0.160030 0.503680
vt 0.163061 0.513865
vt 0.160110 0.513490
vt 0.427566 0.000000
vt 0.572434 0.000000
vt 0.572434 0.009983
vt 0.427566 0.009983
vt 0.625000 0.009983
vt 0.427566 0.253285
vt 0.427566 0.240017
vt 0.572434 0.291741
vt 0.572434 0.272476
vt 0.625000 0.272476
vt 0.625000 0.291741
vt 0.572434 0.977523
vt 0.572434 0.958259
vt 0.625000 0.958259
vt 0.625000 0.977523
vt 0.572434 0.791741
vt 0.572434 0.772476
vt 0.625000 0.772476
vt 0.625000 0.791741
vt 0.572434 0.477524
vt 0.572434 0.458259
vt 0.625000 0.458259
vt 0.625000 0.477524
vt 0.427566 0.458259
vt 0.427566 0.477524
vt 0.375000 0.477524
vt 0.375000 0.458259
vt 0.352524 0.750000
vt 0.333259 0.750000
vt 0.333259 0.740077
vt 0.352524 0.740482
vt 0.166741 0.750000
vt 0.147476 0.750000
vt 0.147476 0.740482
vt 0.166741 0.740077
vt 0.427566 0.272477
vt 0.427566 0.291741
vt 0.375000 0.291741
vt 0.375000 0.272476
vt 0.375000 0.253285
vt 0.147476 0.509927
vt 0.427566 0.977524
vt 0.427566 0.958259
vt 0.427566 0.791741
vt 0.427566 0.772477
vt 0.427566 0.996715
vt 0.852523 0.740017
vt 0.833259 0.740017
vt 0.666741 0.740017
vt 0.647476 0.740017
vt 0.647476 0.509983
vt 0.666741 0.509983
vt 0.833259 0.509983
vt 0.852523 0.509983
vt 0.871715 0.509983
vt 0.871715 0.740017
vt 0.352524 0.509927
vt 0.166741 0.509976
vt 0.333259 0.509976
s 0
f 1/1/1 2/2/1 3/3/1
f 4/4/2 5/5/2 6/6/2
f 7/7/3 8/8/3 9/9/3
f 10/10/4 11/11/4 12/12/4
f 13/13/5 14/14/5 15/15/5
f 16/16/6 17/17/6 18/18/6
f 19/19/7 20/20/7 21/21/7
f 22/22/8 23/23/8 24/24/8
f 25/25/9 26/26/9 27/27/9
f 28/28/10 29/29/10 30/30/10
f 31/31/11 32/32/11 33/33/11
f 34/34/12 35/35/12 36/36/12
f 45/37/13 46/38/13 47/39/13
f 48/40/14 49/41/14 50/42/14
f 51/43/15 52/44/15 53/45/15
f 54/46/16 55/47/16 56/48/16
f 81/49/17 82/50/17 83/51/17
f 84/52/18 85/53/18 86/54/18
f 87/55/19 88/56/19 89/57/19
f 90/58/20 91/59/20 92/60/20
f 93/61/21 94/62/21 95/63/21
f 96/64/22 97/65/22 98/66/22
f 99/67/23 100/68/23 101/69/23
f 102/70/24 103/71/24 104/72/24
f 7/7/25 1/1/25 3/3/25 8/8/25
f 2/73/26 4/74/26 6/75/26 3/76/26
f 5/77/27 10/10/27 12/12/27 6/75/27
f 11/11/28 9/78/28 8/79/28 12/12/28
f 24/24/29 20/20/29 19/19/29 22/22/29
f 13/13/30 21/21/30 20/20/30 14/14/30
f 23/23/31 16/16/31 18/18/31 24/24/31
f 17/17/32 15/15/32 14/14/32 18/18/32
f 41/80/33 44/81/33 43/82/33 42/83/33
f 57/84/34 60/85/34 59/86/34 58/87/34
f 61/88/34 64/89/34 63/90/34 62/91/34
f 37/92/33 40/93/33 39/94/33 38/95/33
f 66/96/35 67/97/35 68/98/35 65/99/35
f 70/100/36 71/101/36 72/102/36 69/103/36
f 74/104/36 75/105/36 76/106/36 73/107/36
f 78/108/35 79/109/35 80/110/35 77/111/35
f 42/83/33 39/94/33 40/93/33 41/80/33
f 65/99/35 80/110/35 79/109/35 66/96/35
f 77/111/35 7/112/35 9/78/35 78/108/35
f 10/10/33 43/82/33 44/81/33 11/11/33
f 71/101/36 74/104/36 73/107/36 72/102/36
f 75/105/36 2/2/36 1/1/36 76/106/36
f 21/21/35 68/98/35 67/97/35 19/19/35
f 38/95/33 23/23/33 22/22/33 37/92/33
f 15/15/36 70/100/36 69/103/36 13/13/36
f 60/85/34 61/88/34 62/91/34 59/86/34
f 64/89/34 17/17/34 16/16/34 63/90/34
f 4/4/34 57/84/34 58/87/34 5/5/34
f 33/33/37 35/35/37 34/34/37 31/31/37
f 35/35/38 46/38/38 45/37/38 36/36/38
f 46/38/39 49/41/39 48/40/39 47/39/39
f 49/41/40 33/33/40 32/32/40 50/42/40
f 53/45/39 55/47/39 54/46/39 51/43/39
f 55/47/41 26/26/41 25/25/41 56/48/41
f 26/26/37 29/29/37 28/28/37 27/27/37
f 29/29/42 53/45/42 52/44/42 30/30/42
f 81/49/43 84/52/43 86/54/43 82/50/43
f 85/53/44 87/55/44 89/57/44 86/54/44
f 88/56/45 90/58/45 92/60/45 89/57/45
f 91/59/46 83/51/46 82/50/46 92/60/46
f 93/61/45 96/64/45 98/66/45 94/62/45
f 97/65/47 99/67/47 101/69/47 98/66/47
f 100/68/43 102/70/43 104/72/43 101/69/43
f 103/71/48 95/63/48 94/62/48 104/72/48
f 50/42/49 91/59/49 90/58/49 48/40/49
f 87/55/50 45/37/50 47/39/50 88/56/50
f 36/36/51 85/53/51 84/52/51 34/34/51
f 83/51/52 32/32/52 31/31/52 81/49/52
f 51/43/53 93/61/53 95/63/53 52/44/53
f 102/70/54 28/28/54 30/30/54 103/71/54
f 27/27/55 100/68/55 99/67/55 25/25/55
f 96/64/56 54/46/56 56/48/56 97/65/56
f 7/7/57 77/113/57 76/106/57 1/1/57
f 3/76/58 6/75/58 12/12/58 8/79/58
f 75/114/59 74/115/59 71/116/59 70/117/59 15/15/59 17/17/59 64/89/59 61/88/59 60/85/59 57/84/59 4/4/59 2/118/59
f 58/119/60 59/120/60 62/121/60 63/122/60 16/16/60 23/23/60 38/123/60 39/124/60 42/125/60 43/126/60 10/127/60 5/128/60
f 67/97/61 66/96/61 79/109/61 78/108/61 9/78/61 11/11/61 44/81/61 41/80/61 40/93/61 37/92/61 22/22/61 19/19/61
f 68/129/57 21/21/57 13/13/57 69/103/57
f 20/20/62 24/24/62 18/18/62 14/14/62
f 56/48/63 25/25/63 99/67/63 97/65/63
f 26/26/57 55/47/57 76/106/57 77/113/57
f 27/27/64 28/28/64 102/70/64 100/68/64
f 29/29/60 26/26/60 77/113/60 80/130/60
f 30/30/65 52/44/65 95/63/65 103/71/65
f 53/45/57 29/29/57 80/130/57 73/107/57
f 35/35/60 33/33/60 65/131/60 68/129/60
f 50/42/66 32/32/66 83/51/66 91/59/66
f 31/31/64 34/34/64 84/52/64 81/49/64
f 33/33/57 49/41/57 72/102/57 65/131/57
f 36/36/67 45/37/67 87/55/67 85/53/67
f 46/38/57 35/35/57 68/129/57 69/103/57
f 47/39/68 48/40/68 90/58/68 88/56/68
f 49/41/60 46/38/60 69/103/60 72/102/60
f 51/43/68 54/46/68 96/64/68 93/61/68
f 55/47/60 53/45/60 73/107/60 76/106/60
f 65/131/57 72/102/57 73/107/57 80/130/57
f 86/54/57 89/57/57 92/60/57 82/50/57
f 98/66/57 101/69/57 104/72/57 94/62/57
