# Blender 4.5.3 LTS
# www.blender.org
mtllib 2.mtl
o Cube
v -0.278375 -0.091071 0.278375
v -0.278375 -0.059593 0.309854
v -0.309854 -0.059593 0.278375
v -0.213489 0.164231 0.181889
v -0.245001 0.120037 0.202375
v -0.202375 0.120037 0.245001
v -0.181889 0.164231 0.213489
v -0.278375 -0.091071 -0.278375
v -0.309854 -0.059593 -0.278375
v -0.278375 -0.059593 -0.309854
v -0.213489 0.164231 -0.181889
v -0.181889 0.164231 -0.213489
v -0.202375 0.120037 -0.245001
v -0.245001 0.120037 -0.202375
v 0.278375 -0.091071 0.278375
v 0.309854 -0.059593 0.278375
v 0.278375 -0.059593 0.309854
v 0.213489 0.164231 0.181889
v 0.181889 0.164231 0.213489
v 0.202375 0.120037 0.245001
v 0.245001 0.120037 0.202375
v 0.278375 -0.091071 -0.278375
v 0.278375 -0.059593 -0.309854
v 0.309854 -0.059593 -0.278375
v 0.181889 0.164231 -0.213489
v 0.213489 0.164231 -0.181889
v 0.245001 0.120037 -0.202375
v 0.202375 0.120037 -0.245001
v -0.278375 0.059593 0.309854
v -0.238485 0.103909 0.281112
v -0.281112 0.103909 0.238485
v -0.309854 0.059593 0.278375
v -0.281112 0.103909 -0.238485
v -0.238485 0.103909 -0.281112
v -0.278375 0.059593 -0.309854
v -0.309854 0.059593 -0.278375
v 0.238485 0.103909 -0.281112
v 0.281112 0.103909 -0.238485
v 0.309854 0.059593 -0.278375
v 0.278375 0.059593 -0.309854
v 0.281112 0.103909 0.238485
v 0.238485 0.103909 0.281112
v 0.278375 0.059593 0.309854
v 0.309854 0.059593 0.278375
v -0.123940 0.978376 0.086755
v -0.146503 0.922542 0.114903
v -0.114903 0.922542 0.146503
v -0.086755 0.978376 0.123940
v -0.123940 0.978376 -0.086755
v -0.086755 0.978376 -0.123940
v -0.114903 0.922542 -0.146503
v -0.146503 0.922542 -0.114903
v 0.086755 0.978376 -0.123940
v 0.123940 0.978376 -0.086755
v 0.146503 0.922542 -0.114903
v 0.114903 0.922542 -0.146503
v 0.123940 0.978376 0.086755
v 0.086755 0.978376 0.123940
v 0.114903 0.922542 0.146503
v 0.146503 0.922542 0.114903
v -0.051272 1.068238 0.014088
v -0.014088 1.068238 0.051272
v -0.000000 1.092715 0.000000
v -0.051272 1.068238 -0.014088
v -0.000000 1.092715 -0.000000
v -0.014088 1.068238 -0.051272
v 0.014088 1.068238 -0.051272
v 0.000000 1.092715 -0.000000
v 0.051272 1.068238 -0.014088
v 0.051272 1.068238 0.014088
v 0.000000 1.092715 0.000000
v 0.014088 1.068238 0.051272
vn -0.5773 -0.5774 0.5774
vn -0.5436 0.6396 0.5436
vn -0.5773 -0.5774 -0.5774
vn -0.5436 0.6396 -0.5436
vn 0.5773 -0.5774 0.5774
vn 0.5436 0.6396 0.5436
vn 0.5773 -0.5774 -0.5774
vn 0.5436 0.6396 -0.5436
vn -0.4768 0.7384 0.4768
vn -0.4768 0.7384 -0.4768
vn 0.4768 0.7384 -0.4768
vn 0.4768 0.7384 0.4768
vn -0.5950 0.5404 0.5950
vn -0.5950 0.5404 -0.5950
vn 0.5950 0.5404 -0.5950
vn 0.5950 0.5404 0.5950
vn -0.3309 0.8837 0.3309
vn -0.3309 0.8837 -0.3309
vn 0.3309 0.8837 -0.3309
vn 0.3309 0.8837 0.3309
vn -0.7071 -0.7071 -0.0000
vn -0.7071 -0.0000 0.7071
vn -0.8390 0.5441 -0.0000
vn -0.7071 -0.0000 -0.7071
vn -0.0000 -0.7071 -0.7071
vn -0.0000 0.5441 -0.8390
vn 0.7071 -0.0000 -0.7071
vn 0.7071 -0.7071 -0.0000
vn 0.8390 0.5441 -0.0000
vn 0.7071 -0.0000 0.7071
vn -0.0000 -0.7071 0.7071
vn -0.0000 0.5441 0.8390
vn -0.8142 0.5806 -0.0000
vn -0.0000 0.5806 -0.8142
vn 0.8142 0.5806 -0.0000
vn -0.0000 0.5806 0.8142
vn -0.2130 0.9536 0.2130
vn -0.2130 0.9536 -0.2130
vn 0.2130 0.9536 -0.2130
vn 0.2130 0.9536 0.2130
vn -0.9272 0.3747 -0.0000
vn -0.0000 0.3747 -0.9272
vn 0.9272 0.3747 -0.0000
vn -0.0000 0.3747 0.9272
vn -0.7017 0.1240 -0.7017
vn 0.7017 0.1240 -0.7017
vn 0.7017 0.1240 0.7017
vn -0.7017 0.1240 0.7017
vn -0.4308 0.9024 -0.0000
vn -0.0000 0.9024 -0.4308
vn 0.4308 0.9024 -0.0000
vn -0.0000 0.9024 0.4308
vn 0.4655 0.7528 -0.4655
vn 0.4655 0.7528 0.4655
vn -0.4655 0.7528 0.4655
vn -0.4655 0.7528 -0.4655
vn -0.0000 -1.0000 -0.0000
vn -1.0000 -0.0000 -0.0000
vn -0.0000 -0.0000 1.0000
vn -0.9961 0.0880 -0.0000
vn -0.4078 0.9131 -0.0000
vn -0.0000 0.0880 0.9961
vn -0.0000 0.9131 0.4078
vn -0.0000 -0.0000 -1.0000
vn -0.0000 0.9131 -0.4078
vn -0.0000 0.0880 -0.9961
vn 1.0000 -0.0000 -0.0000
vn 0.9961 0.0880 -0.0000
vn 0.4078 0.9131 -0.0000
vn -0.7776 0.6288 -0.0000
vn -0.0000 0.6288 0.7776
vn -0.0000 0.6288 -0.7776
vn 0.7776 0.6288 -0.0000
vn -0.0000 1.0000 -0.0000
vt 0.137699 0.737301
vt 0.137699 0.750000
vt 0.125000 0.737301
vt 0.837242 0.698951
vt 0.848837 0.706641
vt 0.831641 0.723837
vt 0.823951 0.712242
vt 0.137699 0.512699
vt 0.125000 0.512699
vt 0.137699 0.500000
vt 0.837242 0.551049
vt 0.823951 0.537758
vt 0.831641 0.526163
vt 0.848837 0.543359
vt 0.362301 0.737301
vt 0.417825 0.737301
vt 0.403473 0.759352
vt 0.662758 0.698951
vt 0.676049 0.712242
vt 0.668359 0.723837
vt 0.651163 0.706641
vt 0.362301 0.512699
vt 0.403473 0.490648
vt 0.417825 0.512699
vt 0.676049 0.537758
vt 0.662758 0.551049
vt 0.651163 0.543359
vt 0.668359 0.526163
vt 0.581794 0.000000
vt 0.625000 0.011595
vt 0.625000 0.028791
vt 0.581794 0.012699
vt 0.625000 0.221209
vt 0.625000 0.274268
vt 0.581794 0.262272
vt 0.581794 0.237301
vt 0.636573 0.487442
vt 0.635818 0.526086
vt 0.581794 0.512272
vt 0.581794 0.487301
vt 0.635818 0.723914
vt 0.636573 0.762558
vt 0.581794 0.762699
vt 0.581794 0.737728
vt 0.837242 0.685497
vt 0.837242 0.694011
vt 0.819011 0.712242
vt 0.810497 0.712242
vt 0.837242 0.564503
vt 0.810497 0.537758
vt 0.819011 0.537758
vt 0.837242 0.555989
vt 0.689504 0.537758
vt 0.662758 0.564503
vt 0.662758 0.555989
vt 0.680989 0.537758
vt 0.662758 0.685497
vt 0.689503 0.712242
vt 0.680989 0.712242
vt 0.662758 0.694011
vt 0.837242 0.653401
vt 0.778401 0.712242
vt 0.750000 0.625000
vt 0.837242 0.596599
vt 0.778401 0.537758
vt 0.721599 0.537758
vt 0.750000 0.625000
vt 0.662758 0.596599
vt 0.662758 0.653401
vt 0.721599 0.712242
vt 0.418206 0.000000
vt 0.418206 0.012699
vt 0.418206 0.262699
vt 0.418206 0.237301
vt 0.625000 0.971209
vt 0.581794 0.987301
vt 0.846209 0.738405
vt 0.863405 0.721209
vt 0.846209 0.511595
vt 0.863405 0.528791
vt 0.418206 0.987301
s 0
f 1/1/1 2/2/1 3/3/1
f 4/4/2 5/5/2 6/6/2 7/7/2
f 8/8/3 9/9/3 10/10/3
f 11/11/4 12/12/4 13/13/4 14/14/4
f 15/15/5 16/16/5 17/17/5
f 18/18/6 19/19/6 20/20/6 21/21/6
f 22/22/7 23/23/7 24/24/7
f 25/25/8 26/26/8 27/27/8 28/28/8
f 29/29/9 30/30/9 31/31/9 32/32/9
f 33/33/10 34/34/10 35/35/10 36/36/10
f 37/37/11 38/38/11 39/39/11 40/40/11
f 41/41/12 42/42/12 43/43/12 44/44/12
f 45/45/13 46/46/13 47/47/13 48/48/13
f 49/49/14 50/50/14 51/51/14 52/52/14
f 53/53/15 54/54/15 55/55/15 56/56/15
f 57/57/16 58/58/16 59/59/16 60/60/16
f 61/61/17 62/62/17 63/63/17
f 64/64/18 65/63/18 66/65/18
f 67/66/19 68/67/19 69/68/19
f 70/69/20 71/67/20 72/70/20
f 8/8/21 1/1/21 3/3/21 9/9/21
f 2/71/22 29/29/22 32/32/22 3/72/22
f 31/31/23 33/33/23 36/36/23 32/32/23
f 35/35/24 10/73/24 9/74/24 36/36/24
f 22/22/25 8/8/25 10/10/25 23/23/25
f 34/34/26 37/37/26 40/40/26 35/35/26
f 39/39/27 24/24/27 23/23/27 40/40/27
f 15/15/28 22/22/28 24/24/28 16/16/28
f 38/38/29 41/41/29 44/44/29 39/39/29
f 43/43/30 17/17/30 16/16/30 44/44/30
f 1/1/31 15/15/31 17/17/31 2/2/31
f 42/42/32 30/75/32 29/76/32 43/43/32
f 4/4/33 11/11/33 14/14/33 5/5/33
f 12/12/34 25/25/34 28/28/34 13/13/34
f 26/26/35 18/18/35 21/21/35 27/27/35
f 19/19/36 7/7/36 6/6/36 20/20/36
f 30/77/37 6/6/37 5/5/37 31/78/37
f 13/13/38 34/79/38 33/80/38 14/14/38
f 27/27/39 38/38/39 37/37/39 28/28/39
f 20/20/40 42/42/40 41/41/40 21/21/40
f 45/45/41 49/49/41 52/52/41 46/46/41
f 50/50/42 53/53/42 56/56/42 51/51/42
f 54/54/43 57/57/43 60/60/43 55/55/43
f 58/58/44 48/48/44 47/47/44 59/59/44
f 11/11/45 52/52/45 51/51/45 12/12/45
f 55/55/46 26/26/46 25/25/46 56/56/46
f 59/59/47 19/19/47 18/18/47 60/60/47
f 7/7/48 47/47/48 46/46/48 4/4/48
f 63/63/49 65/63/49 64/64/49 61/61/49
f 65/63/50 68/67/50 67/66/50 66/65/50
f 68/67/51 71/67/51 70/69/51 69/68/51
f 71/67/52 63/63/52 62/62/52 72/70/52
f 53/53/53 67/66/53 69/68/53 54/54/53
f 72/70/54 58/58/54 57/57/54 70/69/54
f 48/48/55 62/62/55 61/61/55 45/45/55
f 66/65/56 50/50/56 49/49/56 64/64/56
f 8/8/57 22/22/57 15/15/57 1/1/57
f 3/72/58 32/32/58 36/36/58 9/74/58
f 17/17/59 43/43/59 29/76/59 2/81/59
f 11/11/60 4/4/60 46/46/60 52/52/60
f 5/5/61 14/14/61 33/80/61 31/78/61
f 7/7/62 19/19/62 59/59/62 47/47/62
f 20/20/63 6/6/63 30/77/63 42/42/63
f 10/73/64 35/35/64 40/40/64 23/23/64
f 13/13/65 28/28/65 37/37/65 34/79/65
f 25/25/66 12/12/66 51/51/66 56/56/66
f 24/24/67 39/39/67 44/44/67 16/16/67
f 18/18/68 26/26/68 55/55/68 60/60/68
f 27/27/69 21/21/69 41/41/69 38/38/69
f 49/49/70 45/45/70 61/61/70 64/64/70
f 48/48/71 58/58/71 72/70/71 62/62/71
f 53/53/72 50/50/72 66/65/72 67/66/72
f 57/57/73 54/54/73 69/68/73 70/69/73
f 68/67/74 65/63/74 63/63/74 71/67/74
