# Blender 4.5.3 LTS
# www.blender.org
mtllib 3.mtl
o Cube.006
v -0.207089 -0.003345 0.207089
v -0.207089 0.005734 0.216168
v -0.216168 0.005734 0.207089
v -0.207089 0.419913 0.216168
v -0.207089 0.428992 0.207089
v -0.216168 0.419913 0.207089
v -0.216168 0.005734 -0.207089
v -0.207089 0.005734 -0.216168
v -0.207089 -0.003345 -0.207089
v -0.207089 0.428992 -0.207089
v -0.207089 0.419913 -0.216168
v -0.216168 0.419913 -0.207089
v 0.216168 0.005734 0.207089
v 0.207089 0.005734 0.216168
v 0.207089 -0.003345 0.207089
v 0.207089 0.428992 0.207089
v 0.207089 0.419913 0.216168
v 0.216168 0.419913 0.207089
v 0.207089 0.005734 -0.216168
v 0.216168 0.005734 -0.207089
v 0.207089 -0.003345 -0.207089
v 0.207089 0.428992 -0.207089
v 0.216168 0.419913 -0.207089
v 0.207089 0.419913 -0.216168
v -0.207089 0.065216 0.156686
v -0.207089 0.056137 0.147607
v -0.216168 0.047058 0.165766
v -0.207089 0.360431 0.156686
v -0.216168 0.378589 0.165766
v -0.207089 0.369510 0.147607
v -0.207089 0.369510 -0.147607
v -0.216168 0.378589 -0.165766
v -0.207089 0.360431 -0.156686
v -0.207089 0.056137 -0.147607
v -0.207089 0.065216 -0.156686
v -0.216168 0.047058 -0.165766
v -0.156686 0.065216 -0.207089
v -0.147607 0.056137 -0.207089
v -0.165766 0.047058 -0.216168
v -0.156686 0.360431 -0.207089
v -0.165766 0.378589 -0.216168
v -0.147607 0.369510 -0.207089
v 0.147607 0.369510 -0.207089
v 0.165766 0.378589 -0.216168
v 0.156686 0.360431 -0.207089
v 0.147607 0.056137 -0.207089
v 0.156686 0.065216 -0.207089
v 0.165766 0.047058 -0.216168
v 0.207089 0.065216 -0.156686
v 0.207089 0.056137 -0.147607
v 0.216168 0.047058 -0.165766
v 0.207089 0.360431 -0.156686
v 0.216168 0.378589 -0.165766
v 0.207089 0.369510 -0.147607
v 0.207089 0.369510 0.147607
v 0.216168 0.378589 0.165766
v 0.207089 0.360431 0.156686
v 0.207089 0.056137 0.147607
v 0.207089 0.065216 0.156686
v 0.216168 0.047058 0.165766
v 0.156686 0.065216 0.207089
v 0.147607 0.056137 0.207089
v 0.165766 0.047058 0.216168
v 0.156686 0.360431 0.207089
v 0.165766 0.378589 0.216168
v 0.147607 0.369510 0.207089
v -0.147607 0.369510 0.207089
v -0.165766 0.378589 0.216168
v -0.156686 0.360431 0.207089
v -0.147607 0.056137 0.207089
v -0.156686 0.065216 0.207089
v -0.165766 0.047058 0.216168
v -0.147607 0.005734 -0.156686
v -0.156686 0.005734 -0.147607
v -0.165766 -0.003345 -0.165766
v 0.147607 0.005734 -0.156686
v 0.165766 -0.003345 -0.165766
v 0.156686 0.005734 -0.147607
v 0.156686 0.005734 0.147607
v 0.165766 -0.003345 0.165766
v 0.147607 0.005734 0.156686
v -0.156686 0.005734 0.147607
v -0.147607 0.005734 0.156686
v -0.165766 -0.003345 0.165766
v 0.147607 0.419913 -0.156686
v 0.156686 0.419913 -0.147607
v 0.165766 0.428992 -0.165766
v -0.147607 0.419913 -0.156686
v -0.165766 0.428992 -0.165766
v -0.156686 0.419913 -0.147607
v -0.156686 0.419913 0.147607
v -0.165766 0.428992 0.165766
v -0.147607 0.419913 0.156686
v 0.156686 0.419913 0.147607
v 0.147607 0.419913 0.156686
v 0.165766 0.428992 0.165766
v -0.190111 0.065216 0.156686
v -0.181032 0.065216 0.147607
v -0.190111 0.056137 0.147607
v -0.190111 0.360431 0.156686
v -0.190111 0.369510 0.147607
v -0.181032 0.360431 0.147607
v -0.190111 0.056137 -0.147607
v -0.181032 0.065216 -0.147607
v -0.190111 0.065216 -0.156686
v -0.190111 0.369510 -0.147607
v -0.190111 0.360431 -0.156686
v -0.181032 0.360431 -0.147607
v -0.156686 0.360431 -0.190111
v -0.147607 0.369510 -0.190111
v -0.147607 0.360431 -0.181032
v -0.156686 0.065216 -0.190111
v -0.147607 0.065216 -0.181032
v -0.147607 0.056137 -0.190111
v 0.147607 0.056137 -0.190111
v 0.147607 0.065216 -0.181032
v 0.156686 0.065216 -0.190111
v 0.147607 0.369510 -0.190111
v 0.156686 0.360431 -0.190111
v 0.147607 0.360431 -0.181032
v 0.190111 0.360431 -0.156686
v 0.190111 0.369510 -0.147607
v 0.181032 0.360431 -0.147607
v 0.190111 0.065216 -0.156686
v 0.181032 0.065216 -0.147607
v 0.190111 0.056137 -0.147607
v 0.190111 0.056137 0.147607
v 0.181032 0.065216 0.147607
v 0.190111 0.065216 0.156686
v 0.190111 0.369510 0.147607
v 0.190111 0.360431 0.156686
v 0.181032 0.360431 0.147607
v 0.156686 0.360431 0.190111
v 0.147607 0.369510 0.190111
v 0.147607 0.360431 0.181032
v 0.156686 0.065216 0.190111
v 0.147607 0.065216 0.181032
v 0.147607 0.056137 0.190111
v -0.147607 0.056137 0.190111
v -0.147607 0.065216 0.181032
v -0.156686 0.065216 0.190111
v -0.147607 0.369510 0.190111
v -0.156686 0.360431 0.190111
v -0.147607 0.360431 0.181032
v 0.147607 0.022713 -0.156686
v 0.156686 0.022713 -0.147607
v 0.147607 0.031792 -0.147607
v -0.147607 0.022713 -0.156686
v -0.147607 0.031792 -0.147607
v -0.156686 0.022713 -0.147607
v -0.156686 0.022713 0.147607
v -0.147607 0.031792 0.147607
v -0.147607 0.022713 0.156686
v 0.156686 0.022713 0.147607
v 0.147607 0.022713 0.156686
v 0.147607 0.031792 0.147607
v -0.147607 0.402935 -0.156686
v -0.156686 0.402935 -0.147607
v -0.147607 0.393856 -0.147607
v 0.147607 0.402935 -0.156686
v 0.147607 0.393856 -0.147607
v 0.156686 0.402935 -0.147607
v 0.156686 0.402935 0.147607
v 0.147607 0.393856 0.147607
v 0.147607 0.402935 0.156686
v -0.156686 0.402935 0.147607
v -0.147607 0.402935 0.156686
v -0.147607 0.393856 0.147607
vn -0.5774 -0.5774 0.5774
vn -0.5774 0.5774 0.5774
vn -0.5774 -0.5774 -0.5774
vn -0.5774 0.5774 -0.5774
vn 0.5774 -0.5774 0.5774
vn 0.5774 0.5774 0.5774
vn 0.5774 -0.5774 -0.5774
vn 0.5774 0.5774 -0.5774
vn -0.9045 0.3015 -0.3015
vn -0.9045 -0.3015 -0.3015
vn -0.9045 -0.3015 0.3015
vn -0.9045 0.3015 0.3015
vn 0.3015 0.3015 -0.9045
vn 0.3015 -0.3015 -0.9045
vn -0.3015 -0.3015 -0.9045
vn -0.3015 0.3015 -0.9045
vn 0.9045 0.3015 0.3015
vn 0.9045 -0.3015 0.3015
vn 0.9045 -0.3015 -0.3015
vn 0.9045 0.3015 -0.3015
vn -0.3015 0.3015 0.9045
vn -0.3015 -0.3015 0.9045
vn 0.3015 -0.3015 0.9045
vn 0.3015 0.3015 0.9045
vn 0.3015 -0.9045 0.3015
vn -0.3015 -0.9045 0.3015
vn -0.3015 -0.9045 -0.3015
vn 0.3015 -0.9045 -0.3015
vn -0.3015 0.9045 0.3015
vn 0.3015 0.9045 0.3015
vn 0.3015 0.9045 -0.3015
vn -0.3015 0.9045 -0.3015
vn -0.5774 0.5774 -0.5773
vn -0.5774 -0.5774 -0.5773
vn -0.5774 0.5774 0.5773
vn -0.5774 -0.5774 0.5773
vn 0.5774 -0.5773 -0.5774
vn 0.5774 0.5773 -0.5774
vn -0.5774 0.5773 -0.5774
vn -0.5774 -0.5773 -0.5774
vn 0.5774 -0.5774 0.5773
vn 0.5774 0.5774 0.5773
vn 0.5774 0.5774 -0.5773
vn 0.5774 -0.5774 -0.5773
vn -0.5774 -0.5773 0.5774
vn -0.5774 0.5773 0.5774
vn 0.5774 0.5773 0.5774
vn 0.5774 -0.5773 0.5774
vn -0.5773 -0.5774 0.5774
vn 0.5773 -0.5774 0.5774
vn 0.5773 -0.5774 -0.5774
vn -0.5773 -0.5774 -0.5774
vn 0.5773 0.5774 0.5774
vn -0.5773 0.5774 0.5774
vn -0.5773 0.5774 -0.5774
vn 0.5773 0.5774 -0.5774
vn -0.7071 -0.7071 -0.0000
vn -0.7071 -0.0000 0.7071
vn -0.7071 0.7071 -0.0000
vn -0.7071 -0.0000 -0.7071
vn -0.0000 -0.7071 -0.7071
vn -0.0000 0.7071 -0.7071
vn 0.7071 -0.0000 -0.7071
vn 0.7071 -0.7071 -0.0000
vn 0.7071 0.7071 -0.0000
vn 0.7071 -0.0000 0.7071
vn -0.0000 -0.7071 0.7071
vn -0.0000 0.7071 0.7071
vn -0.0000 -1.0000 -0.0000
vn -1.0000 -0.0000 -0.0000
vn -0.0000 -0.0000 1.0000
vn -0.0000 1.0000 -0.0000
vn -0.0000 -0.0000 -1.0000
vn 1.0000 -0.0000 -0.0000
vt 0.130250 0.744750
vt 0.130215 0.749965
vt 0.125000 0.744750
vt 0.619750 0.000000
vt 0.624965 0.005215
vt 0.619750 0.005250
vt 0.125000 0.505250
vt 0.130215 0.500035
vt 0.130250 0.505250
vt 0.624983 0.249982
vt 0.619750 0.255241
vt 0.619750 0.244750
vt 0.380236 0.744755
vt 0.378887 0.754569
vt 0.369750 0.744750
vt 0.629564 0.746108
vt 0.619750 0.755250
vt 0.619750 0.744759
vt 0.378887 0.495431
vt 0.380236 0.505245
vt 0.369750 0.505250
vt 0.629564 0.503892
vt 0.619750 0.505241
vt 0.619750 0.494750
vt 0.414646 0.034396
vt 0.409396 0.039646
vt 0.404146 0.029146
vt 0.585354 0.034396
vt 0.595854 0.029146
vt 0.590604 0.039646
vt 0.590604 0.210354
vt 0.595854 0.220854
vt 0.585354 0.215604
vt 0.409396 0.210354
vt 0.414646 0.215604
vt 0.404146 0.220854
vt 0.414646 0.284396
vt 0.409396 0.289646
vt 0.404146 0.279146
vt 0.585354 0.284396
vt 0.595854 0.279146
vt 0.590604 0.289646
vt 0.590604 0.460354
vt 0.595854 0.470854
vt 0.585354 0.465604
vt 0.409396 0.460354
vt 0.414646 0.465604
vt 0.404146 0.470854
vt 0.414646 0.534396
vt 0.409396 0.539646
vt 0.404146 0.529146
vt 0.585354 0.534396
vt 0.595854 0.529146
vt 0.590604 0.539646
vt 0.590604 0.710354
vt 0.595854 0.720854
vt 0.585354 0.715604
vt 0.409396 0.710354
vt 0.414646 0.715605
vt 0.404146 0.720855
vt 0.414646 0.784396
vt 0.409396 0.789646
vt 0.404146 0.779146
vt 0.585354 0.784396
vt 0.595854 0.779146
vt 0.590604 0.789645
vt 0.590604 0.960354
vt 0.595854 0.970854
vt 0.585355 0.965605
vt 0.409396 0.960354
vt 0.414646 0.965605
vt 0.404146 0.970855
vt 0.164646 0.534396
vt 0.159396 0.539646
vt 0.154146 0.529146
vt 0.335354 0.534396
vt 0.345854 0.529146
vt 0.340604 0.539646
vt 0.340604 0.710354
vt 0.345854 0.720854
vt 0.335354 0.715604
vt 0.159396 0.710354
vt 0.164646 0.715604
vt 0.154146 0.720855
vt 0.664646 0.534396
vt 0.659396 0.539646
vt 0.654145 0.529146
vt 0.835354 0.534396
vt 0.845854 0.529146
vt 0.840604 0.539646
vt 0.840604 0.710354
vt 0.845855 0.720854
vt 0.835354 0.715604
vt 0.659396 0.710354
vt 0.664646 0.715604
vt 0.654146 0.720855
vt 0.414646 0.034396
vt 0.414646 0.039646
vt 0.409396 0.039646
vt 0.585354 0.034396
vt 0.590604 0.039646
vt 0.585355 0.039646
vt 0.409396 0.210354
vt 0.414646 0.210354
vt 0.414646 0.215604
vt 0.590604 0.210354
vt 0.585354 0.215604
vt 0.585354 0.210354
vt 0.585355 0.284396
vt 0.590604 0.289646
vt 0.585355 0.289646
vt 0.414646 0.284396
vt 0.414646 0.289646
vt 0.409396 0.289646
vt 0.409396 0.460355
vt 0.414646 0.460355
vt 0.414646 0.465605
vt 0.590604 0.460354
vt 0.585355 0.465604
vt 0.585354 0.460354
vt 0.585354 0.534396
vt 0.590604 0.539646
vt 0.585355 0.539646
vt 0.414646 0.534396
vt 0.414646 0.539646
vt 0.409396 0.539646
vt 0.409396 0.710355
vt 0.414646 0.710355
vt 0.414646 0.715605
vt 0.590604 0.710354
vt 0.585354 0.715604
vt 0.585354 0.710354
vt 0.585355 0.784396
vt 0.590604 0.789646
vt 0.585355 0.789646
vt 0.414646 0.784396
vt 0.414646 0.789646
vt 0.409396 0.789646
vt 0.409396 0.960355
vt 0.414646 0.960355
vt 0.414646 0.965605
vt 0.590604 0.960354
vt 0.585354 0.965605
vt 0.585355 0.960354
vt 0.335354 0.534396
vt 0.340604 0.539646
vt 0.335354 0.539646
vt 0.164646 0.534396
vt 0.164646 0.539646
vt 0.159396 0.539646
vt 0.159396 0.710354
vt 0.164646 0.710355
vt 0.164646 0.715604
vt 0.340604 0.710354
vt 0.335354 0.715604
vt 0.335354 0.710354
vt 0.835355 0.534396
vt 0.840604 0.539646
vt 0.835354 0.539646
vt 0.664646 0.534396
vt 0.664646 0.539646
vt 0.659396 0.539646
vt 0.659396 0.710355
vt 0.664646 0.710355
vt 0.664646 0.715604
vt 0.840604 0.710354
vt 0.835355 0.715604
vt 0.835354 0.710354
vt 0.380250 0.000000
vt 0.380250 0.005250
vt 0.380250 0.255250
vt 0.380250 0.244750
vt 0.625000 0.994750
vt 0.619750 0.994750
vt 0.380250 0.994750
vt 0.869750 0.744750
vt 0.869750 0.505250
s 0
f 1/1/1 2/2/1 3/3/1
f 4/4/2 5/5/2 6/6/2
f 7/7/3 8/8/3 9/9/3
f 10/10/4 11/11/4 12/12/4
f 13/13/5 14/14/5 15/15/5
f 16/16/6 17/17/6 18/18/6
f 19/19/7 20/20/7 21/21/7
f 22/22/8 23/23/8 24/24/8
f 25/25/9 26/26/9 27/27/9
f 28/28/10 29/29/10 30/30/10
f 31/31/11 32/32/11 33/33/11
f 34/34/12 35/35/12 36/36/12
f 37/37/13 38/38/13 39/39/13
f 40/40/14 41/41/14 42/42/14
f 43/43/15 44/44/15 45/45/15
f 46/46/16 47/47/16 48/48/16
f 49/49/17 50/50/17 51/51/17
f 52/52/18 53/53/18 54/54/18
f 55/55/19 56/56/19 57/57/19
f 58/58/20 59/59/20 60/60/20
f 61/61/21 62/62/21 63/63/21
f 64/64/22 65/65/22 66/66/22
f 67/67/23 68/68/23 69/69/23
f 70/70/24 71/71/24 72/72/24
f 73/73/25 74/74/25 75/75/25
f 76/76/26 77/77/26 78/78/26
f 79/79/27 80/80/27 81/81/27
f 82/82/28 83/83/28 84/84/28
f 85/85/29 86/86/29 87/87/29
f 88/88/30 89/89/30 90/90/30
f 91/91/31 92/92/31 93/93/31
f 94/94/32 95/95/32 96/96/32
f 97/97/33 98/98/33 99/99/33
f 100/100/34 101/101/34 102/102/34
f 103/103/35 104/104/35 105/105/35
f 106/106/36 107/107/36 108/108/36
f 109/109/37 110/110/37 111/111/37
f 112/112/38 113/113/38 114/114/38
f 115/115/39 116/116/39 117/117/39
f 118/118/40 119/119/40 120/120/40
f 121/121/41 122/122/41 123/123/41
f 124/124/42 125/125/42 126/126/42
f 127/127/43 128/128/43 129/129/43
f 130/130/44 131/131/44 132/132/44
f 133/133/45 134/134/45 135/135/45
f 136/136/46 137/137/46 138/138/46
f 139/139/47 140/140/47 141/141/47
f 142/142/48 143/143/48 144/144/48
f 145/145/49 146/146/49 147/147/49
f 148/148/50 149/149/50 150/150/50
f 151/151/51 152/152/51 153/153/51
f 154/154/52 155/155/52 156/156/52
f 157/157/53 158/158/53 159/159/53
f 160/160/54 161/161/54 162/162/54
f 163/163/55 164/164/55 165/165/55
f 166/166/56 167/167/56 168/168/56
f 9/9/57 1/1/57 3/3/57 7/7/57
f 2/169/58 4/4/58 6/6/58 3/170/58
f 5/5/59 10/10/59 12/12/59 6/6/59
f 11/11/60 8/171/60 7/172/60 12/12/60
f 21/21/61 9/9/61 8/8/61 19/19/61
f 10/10/62 22/22/62 24/24/62 11/11/62
f 23/23/63 20/20/63 19/19/63 24/24/63
f 15/15/64 21/21/64 20/20/64 13/13/64
f 22/22/65 16/16/65 18/18/65 23/23/65
f 17/17/66 14/14/66 13/13/66 18/18/66
f 1/1/67 15/15/67 14/14/67 2/2/67
f 16/16/68 5/173/68 4/174/68 17/17/68
f 27/27/60 29/29/60 28/28/60 25/25/60
f 36/36/59 27/27/59 26/26/59 34/34/59
f 29/29/57 32/32/57 31/31/57 30/30/57
f 32/32/58 36/36/58 35/35/58 33/33/58
f 40/40/63 37/37/63 39/39/63 41/41/63
f 48/48/62 39/39/62 38/38/62 46/46/62
f 41/41/61 44/44/61 43/43/61 42/42/61
f 44/44/60 48/48/60 47/47/60 45/45/60
f 52/52/66 49/49/66 51/51/66 53/53/66
f 60/60/65 51/51/65 50/50/65 58/58/65
f 53/53/64 56/56/64 55/55/64 54/54/64
f 56/56/63 60/60/63 59/59/63 57/57/63
f 64/64/58 61/61/58 63/63/58 65/65/58
f 72/72/68 63/63/68 62/62/68 70/70/68
f 65/65/67 68/68/67 67/67/67 66/66/67
f 71/71/66 69/69/66 68/68/66 72/72/66
f 76/76/67 73/73/67 75/75/67 77/77/67
f 74/74/64 82/82/64 84/84/64 75/75/64
f 79/79/57 78/78/57 77/77/57 80/80/57
f 83/83/61 81/81/61 80/80/61 84/84/61
f 88/88/68 85/85/68 87/87/68 89/89/68
f 86/86/59 94/94/59 96/96/59 87/87/59
f 91/91/65 90/90/65 89/89/65 92/92/65
f 95/95/62 93/93/62 92/92/62 96/96/62
f 97/97/60 100/100/60 102/102/60 98/98/60
f 103/103/59 99/99/59 98/98/59 104/104/59
f 101/101/57 106/106/57 108/108/57 102/102/57
f 107/107/58 105/105/58 104/104/58 108/108/58
f 111/111/63 113/113/63 112/112/63 109/109/63
f 115/115/62 114/114/62 113/113/62 116/116/62
f 110/110/61 118/118/61 120/120/61 111/111/61
f 119/119/60 117/117/60 116/116/60 120/120/60
f 123/123/66 125/125/66 124/124/66 121/121/66
f 127/127/65 126/126/65 125/125/65 128/128/65
f 122/122/64 130/130/64 132/132/64 123/123/64
f 131/131/63 129/129/63 128/128/63 132/132/63
f 135/135/58 137/137/58 136/136/58 133/133/58
f 139/139/68 138/138/68 137/137/68 140/140/68
f 134/134/67 142/142/67 144/144/67 135/135/67
f 140/140/66 144/144/66 143/143/66 141/141/66
f 147/147/67 149/149/67 148/148/67 145/145/67
f 149/149/64 152/152/64 151/151/64 150/150/64
f 156/156/57 147/147/57 146/146/57 154/154/57
f 152/152/61 156/156/61 155/155/61 153/153/61
f 159/159/68 161/161/68 160/160/68 157/157/68
f 161/161/59 164/164/59 163/163/59 162/162/59
f 168/168/65 159/159/65 158/158/65 166/166/65
f 164/164/62 168/168/62 167/167/62 165/165/62
f 94/94/60 163/163/60 165/165/60 95/95/60
f 166/166/63 91/91/63 93/93/63 167/167/63
f 30/30/61 101/101/61 100/100/61 28/28/61
f 99/99/62 26/26/62 25/25/62 97/97/62
f 42/42/64 110/110/64 109/109/64 40/40/64
f 114/114/65 38/38/65 37/37/65 112/112/65
f 105/105/68 35/35/68 34/34/68 103/103/68
f 54/54/67 122/122/67 121/121/67 52/52/67
f 126/126/68 50/50/68 49/49/68 124/124/68
f 117/117/59 47/47/59 46/46/59 115/115/59
f 66/66/57 134/134/57 133/133/57 64/64/57
f 138/138/59 62/62/59 61/61/59 136/136/59
f 33/33/67 107/107/67 106/106/67 31/31/67
f 129/129/62 59/59/62 58/58/62 127/127/62
f 78/78/58 146/146/58 145/145/58 76/76/58
f 150/150/66 74/74/66 73/73/66 148/148/66
f 45/45/57 119/119/57 118/118/57 43/43/57
f 141/141/65 71/71/65 70/70/65 139/139/65
f 90/90/66 158/158/66 157/157/66 88/88/66
f 162/162/58 86/86/58 85/85/58 160/160/58
f 57/57/61 131/131/61 130/130/61 55/55/61
f 153/153/63 83/83/63 82/82/63 151/151/63
f 69/69/64 143/143/64 142/142/64 67/67/64
f 81/81/60 155/155/60 154/154/60 79/79/60
f 1/1/69 9/9/69 75/75/69 84/84/69
f 3/170/70 6/6/70 29/29/70 27/27/70
f 2/175/71 14/14/71 63/63/71 72/72/71
f 7/172/70 3/170/70 27/27/70 36/36/70
f 4/174/71 2/175/71 72/72/71 68/68/71
f 15/15/69 1/1/69 84/84/69 80/80/69
f 6/6/70 12/12/70 32/32/70 29/29/70
f 5/176/72 16/16/72 96/96/72 92/92/72
f 17/17/71 4/174/71 68/68/71 65/65/71
f 10/177/72 5/176/72 92/92/72 89/89/72
f 8/171/73 11/11/73 41/41/73 39/39/73
f 9/9/69 21/21/69 77/77/69 75/75/69
f 12/12/70 7/172/70 36/36/70 32/32/70
f 19/19/73 8/171/73 39/39/73 48/48/73
f 11/11/73 24/24/73 44/44/73 41/41/73
f 22/22/72 10/177/72 89/89/72 87/87/72
f 21/21/69 15/15/69 80/80/69 77/77/69
f 13/13/74 20/20/74 51/51/74 60/60/74
f 14/14/71 17/17/71 65/65/71 63/63/71
f 18/18/74 13/13/74 60/60/74 56/56/74
f 16/16/72 22/22/72 87/87/72 96/96/72
f 23/23/74 18/18/74 56/56/74 53/53/74
f 20/20/74 23/23/74 53/53/74 51/51/74
f 24/24/73 19/19/73 48/48/73 44/44/73
f 34/34/72 26/26/72 99/99/72 103/103/72
f 25/25/73 28/28/73 100/100/73 97/97/73
f 30/30/69 31/31/69 106/106/69 101/101/69
f 33/33/71 35/35/71 105/105/71 107/107/71
f 46/46/72 38/38/72 114/114/72 115/115/72
f 37/37/74 40/40/74 109/109/74 112/112/74
f 42/42/69 43/43/69 118/118/69 110/110/69
f 45/45/70 47/47/70 117/117/70 119/119/70
f 58/58/72 50/50/72 126/126/72 127/127/72
f 49/49/71 52/52/71 121/121/71 124/124/71
f 54/54/69 55/55/69 130/130/69 122/122/69
f 57/57/73 59/59/73 129/129/73 131/131/73
f 61/61/70 64/64/70 133/133/70 136/136/70
f 70/70/72 62/62/72 138/138/72 139/139/72
f 66/66/69 67/67/69 142/142/69 134/134/69
f 69/69/74 71/71/74 141/141/74 143/143/74
f 73/73/71 76/76/71 145/145/71 148/148/71
f 82/82/74 74/74/74 150/150/74 151/151/74
f 78/78/70 79/79/70 154/154/70 146/146/70
f 81/81/73 83/83/73 153/153/73 155/155/73
f 85/85/71 88/88/71 157/157/71 160/160/71
f 94/94/70 86/86/70 162/162/70 163/163/70
f 90/90/74 91/91/74 166/166/74 158/158/74
f 93/93/73 95/95/73 165/165/73 167/167/73
f 98/98/70 102/102/70 108/108/70 104/104/70
f 113/113/73 111/111/73 120/120/73 116/116/73
f 125/125/74 123/123/74 132/132/74 128/128/74
f 137/137/71 135/135/71 144/144/71 140/140/71
f 149/149/69 147/147/69 156/156/69 152/152/69
f 161/161/72 159/159/72 168/168/72 164/164/72
