mtllib SM_Cross_LOD3@000002909DC60F00.mtl
g SM_Cross_LOD3@000002909DC60F00
#Vertices 41
#Indices 66
#Section 0 Offset 0 NumIndices 66 MaterialIndex 0 MI_MetalTile_A_03
v -1.937308 3.234237 -0.095321 0.000000 0.000000 1.000000 1.000000
v -0.151101 3.339425 0.138260 0.000000 0.000000 1.000000 1.000000
v -0.167730 3.436345 -0.145580 0.000000 0.000000 1.000000 1.000000
v 0.168132 3.434757 0.145346 0.000000 0.000000 1.000000 1.000000
v 1.935821 3.232789 0.093660 0.000000 0.000000 1.000000 1.000000
v 0.150221 3.340668 -0.138632 0.000000 0.000000 1.000000 1.000000
v 0.168132 3.434757 0.145346 0.000000 0.000000 1.000000 1.000000
v 0.207649 4.510032 -0.039282 0.000000 0.000000 1.000000 1.000000
v 0.150221 3.340668 -0.138632 0.000000 0.000000 1.000000 1.000000
v 0.150221 3.340668 -0.138632 0.000000 0.000000 1.000000 1.000000
v 0.118085 -0.000148 0.118222 0.000000 0.000000 1.000000 1.000000
v 0.111815 0.000255 -0.112313 0.000000 0.000000 1.000000 1.000000
v -0.151101 3.339425 0.138260 0.000000 0.000000 1.000000 1.000000
v -1.937308 3.234237 -0.095321 0.000000 0.000000 1.000000 1.000000
v -1.895247 3.484721 0.109846 0.000000 0.000000 1.000000 1.000000
v -0.111817 0.000254 0.112312 0.000000 0.000000 1.000000 1.000000
v 0.118085 -0.000148 0.118222 0.000000 0.000000 1.000000 1.000000
v 0.168132 3.434757 0.145346 0.000000 0.000000 1.000000 1.000000
v -0.216242 4.552580 0.085887 0.000000 0.000000 1.000000 1.000000
v 0.207649 4.510032 -0.039282 0.000000 0.000000 1.000000 1.000000
v 1.897556 3.485440 -0.109508 0.000000 0.000000 1.000000 1.000000
v 0.150221 3.340668 -0.138632 0.000000 0.000000 1.000000 1.000000
v 1.935821 3.232789 0.093660 0.000000 0.000000 1.000000 1.000000
v -0.118088 -0.000147 -0.118221 0.000000 0.000000 1.000000 1.000000
v 0.111815 0.000255 -0.112313 0.000000 0.000000 1.000000 1.000000
v -0.167730 3.436345 -0.145580 0.000000 0.000000 1.000000 1.000000
v 0.207649 4.510032 -0.039282 0.000000 0.000000 1.000000 1.000000
v -0.216242 4.552580 0.085887 0.000000 0.000000 1.000000 1.000000
v -0.151101 3.339425 0.138260 0.000000 0.000000 1.000000 1.000000
v -1.895247 3.484721 0.109846 0.000000 0.000000 1.000000 1.000000
v -0.167730 3.436345 -0.145580 0.000000 0.000000 1.000000 1.000000
v -1.937308 3.234237 -0.095321 0.000000 0.000000 1.000000 1.000000
v 1.897556 3.485440 -0.109508 0.000000 0.000000 1.000000 1.000000
v 0.168132 3.434757 0.145346 0.000000 0.000000 1.000000 1.000000
v 0.150221 3.340668 -0.138632 0.000000 0.000000 1.000000 1.000000
v 1.935821 3.232789 0.093660 0.000000 0.000000 1.000000 1.000000
v -0.167730 3.436345 -0.145580 0.000000 0.000000 1.000000 1.000000
v -0.216242 4.552580 0.085887 0.000000 0.000000 1.000000 1.000000
v -0.151101 3.339425 0.138260 0.000000 0.000000 1.000000 1.000000
v -0.118088 -0.000147 -0.118221 0.000000 0.000000 1.000000 1.000000
v -0.111817 0.000254 0.112312 0.000000 0.000000 1.000000 1.000000
vt 0.242065 0.602295
vt 0.414307 0.602295
vt 0.411865 0.602295
vt 0.445068 0.602295
vt 0.614746 0.602295
vt 0.442871 0.602295
vt 0.440674 0.616211
vt 0.440674 0.719482
vt 0.440674 0.607666
vt 0.440674 0.607178
vt 0.440674 0.286133
vt 0.440674 0.286133
vt 0.687012 0.353516
vt 0.568359 0.347168
vt 0.571289 0.363281
vt 0.689453 0.132324
vt 0.704590 0.132324
vt 0.708008 0.359863
vt 0.683594 0.434570
vt 0.710938 0.431152
vt 0.610840 0.621094
vt 0.443115 0.607178
vt 0.614746 0.597656
vt 0.417236 0.286133
vt 0.439209 0.286133
vt 0.412354 0.616211
vt 0.447754 0.719727
vt 0.412109 0.724121
vt 0.414307 0.621826
vt 0.246338 0.621826
vt 0.412354 0.621826
vt 0.241821 0.621826
vt 0.610840 0.621826
vt 0.444824 0.621826
vt 0.442627 0.621826
vt 0.615234 0.621826
vt 0.416504 0.616211
vt 0.416504 0.723145
vt 0.416504 0.606934
vt 0.416504 0.286133
vt 0.416504 0.286133
vt1 0.242065 0.602295
vt1 0.414307 0.602295
vt1 0.411865 0.602295
vt1 0.445068 0.602295
vt1 0.614746 0.602295
vt1 0.442871 0.602295
vt1 0.440674 0.616211
vt1 0.440674 0.719482
vt1 0.440674 0.607666
vt1 0.440674 0.607178
vt1 0.440674 0.286133
vt1 0.440674 0.286133
vt1 0.687012 0.353516
vt1 0.568359 0.347168
vt1 0.571289 0.363281
vt1 0.689453 0.132324
vt1 0.704590 0.132324
vt1 0.708008 0.359863
vt1 0.683594 0.434570
vt1 0.710938 0.431152
vt1 0.610840 0.621094
vt1 0.443115 0.607178
vt1 0.614746 0.597656
vt1 0.417236 0.286133
vt1 0.439209 0.286133
vt1 0.412354 0.616211
vt1 0.447754 0.719727
vt1 0.412109 0.724121
vt1 0.414307 0.621826
vt1 0.246338 0.621826
vt1 0.412354 0.621826
vt1 0.241821 0.621826
vt1 0.610840 0.621826
vt1 0.444824 0.621826
vt1 0.442627 0.621826
vt1 0.615234 0.621826
vt1 0.416504 0.616211
vt1 0.416504 0.723145
vt1 0.416504 0.606934
vt1 0.416504 0.286133
vt1 0.416504 0.286133
vn 0.000000 -1.000000 0.000000
vn 0.000000 -1.000000 0.000000
vn 0.000000 -1.000000 0.000000
vn 0.000000 -1.000000 0.000000
vn 0.000000 -1.000000 0.000000
vn 0.000000 -1.000000 0.000000
vn 1.000000 0.000000 0.000000
vn 1.000000 0.000000 0.000000
vn 1.000000 0.000000 0.000000
vn 1.000000 0.000000 0.000000
vn 1.000000 0.000000 0.000000
vn 1.000000 0.000000 0.000000
vn 0.000000 0.000000 1.000000
vn 0.000000 0.000000 1.000000
vn 0.000000 0.000000 1.000000
vn 0.000000 0.000000 1.000000
vn 0.000000 0.000000 1.000000
vn 0.000000 0.000000 1.000000
vn 0.000000 0.000000 1.000000
vn 0.000000 0.000000 1.000000
vn 0.000000 -0.000000 -1.000000
vn 0.000000 -0.000000 -1.000000
vn 0.000000 -0.000000 -1.000000
vn 0.000000 -0.000000 -1.000000
vn 0.000000 -0.000000 -1.000000
vn 0.000000 -0.000000 -1.000000
vn 0.000000 -0.000000 -1.000000
vn 0.000000 -0.000000 -1.000000
vn 0.000000 1.000000 -0.000000
vn 0.000000 1.000000 -0.000000
vn 0.000000 1.000000 -0.000000
vn 0.000000 1.000000 -0.000000
vn 0.000000 1.000000 -0.000000
vn 0.000000 1.000000 -0.000000
vn 0.000000 1.000000 -0.000000
vn 0.000000 1.000000 -0.000000
vn -1.000000 0.000000 0.000000
vn -1.000000 0.000000 0.000000
vn -1.000000 0.000000 0.000000
vn -1.000000 0.000000 0.000000
vn -1.000000 0.000000 0.000000
tan 0.000000 0.000000 1.000000 1.000000
tan 0.000000 0.000000 1.000000 1.000000
tan 0.000000 0.000000 1.000000 1.000000
tan 0.000000 0.000000 1.000000 1.000000
tan 0.000000 0.000000 1.000000 1.000000
tan 0.000000 0.000000 1.000000 1.000000
tan 0.000000 0.000000 0.000000 1.000000
tan 0.000000 0.000000 0.000000 1.000000
tan 0.000000 0.000000 0.000000 1.000000
tan 0.000000 0.000000 0.000000 1.000000
tan 0.000000 0.000000 0.000000 1.000000
tan 0.000000 0.000000 0.000000 1.000000
tan 0.000000 -1.000000 0.000000 1.000000
tan 0.000000 -1.000000 0.000000 1.000000
tan 0.000000 -1.000000 0.000000 1.000000
tan 0.000000 -1.000000 0.000000 1.000000
tan 0.000000 -1.000000 0.000000 1.000000
tan 0.000000 -1.000000 0.000000 1.000000
tan 0.000000 -1.000000 0.000000 1.000000
tan 0.000000 -1.000000 0.000000 1.000000
tan 0.000000 -1.000000 0.000000 1.000000
tan 0.000000 -1.000000 0.000000 1.000000
tan 0.000000 -1.000000 0.000000 1.000000
tan 0.000000 -1.000000 0.000000 1.000000
tan 0.000000 -1.000000 0.000000 1.000000
tan 0.000000 -1.000000 0.000000 1.000000
tan 0.000000 -1.000000 0.000000 1.000000
tan 0.000000 -1.000000 0.000000 1.000000
tan 0.000000 -0.000000 -1.000000 1.000000
tan 0.000000 -0.000000 -1.000000 1.000000
tan 0.000000 -0.000000 -1.000000 1.000000
tan 0.000000 -0.000000 -1.000000 1.000000
tan 0.000000 -0.000000 -1.000000 1.000000
tan 0.000000 -0.000000 -1.000000 1.000000
tan 0.000000 -0.000000 -1.000000 1.000000
tan 0.000000 -0.000000 -1.000000 1.000000
tan 0.000000 0.000000 0.000000 1.000000
tan 0.000000 0.000000 0.000000 1.000000
tan 0.000000 0.000000 0.000000 1.000000
tan 0.000000 0.000000 0.000000 1.000000
tan 0.000000 0.000000 0.000000 1.000000
f 3/3/3 2/2/2 1/1/1
f 6/6/6 5/5/5 4/4/4
f 9/9/9 8/8/8 7/7/7
f 7/7/7 11/11/11 10/10/10
f 12/12/12 10/10/10 11/11/11
f 15/15/15 14/14/14 13/13/13
f 17/17/17 13/13/13 16/16/16
f 18/18/18 13/13/13 17/17/17
f 13/13/13 18/18/18 19/19/19
f 20/20/20 19/19/19 18/18/18
f 23/23/23 22/22/22 21/21/21
f 25/25/25 24/24/24 22/22/22
f 26/26/26 22/22/22 24/24/24
f 22/22/22 26/26/26 27/27/27
f 27/27/27 26/26/26 28/28/28
f 31/31/31 30/30/30 29/29/29
f 30/30/30 31/31/31 32/32/32
f 35/35/35 34/34/34 33/33/33
f 36/36/36 33/33/33 34/34/34
f 39/39/39 38/38/38 37/37/37
f 39/39/39 37/37/37 40/40/40
f 41/41/41 39/39/39 40/40/40
