mtllib SM_Cross_LOD1@000002909DC60F00.mtl
g SM_Cross_LOD1@000002909DC60F00
#Vertices 164
#Indices 270
#Section 0 Offset 0 NumIndices 270 MaterialIndex 0 MI_MetalTile_A_03
v 0.175094 3.290209 0.074905 0.000000 0.000000 1.000000 1.000000
v 0.126114 3.290154 -0.074658 0.000000 0.000000 1.000000 1.000000
v 0.124999 3.241061 0.075852 0.000000 0.000000 1.000000 1.000000
v -0.125345 4.442604 -0.077170 0.000000 0.000000 1.000000 1.000000
v -0.073960 4.405990 -0.125001 0.000000 0.000000 1.000000 1.000000
v 0.125830 4.438139 -0.073948 0.000000 0.000000 1.000000 1.000000
v 0.075884 4.411538 -0.124569 0.000000 0.000000 1.000000 1.000000
v -1.897088 3.444733 -0.125334 0.000000 0.000000 1.000000 1.000000
v -1.859095 3.494394 -0.073959 0.000000 0.000000 1.000000 1.000000
v -1.889637 3.445652 0.124329 0.000000 0.000000 1.000000 1.000000
v -1.859095 3.494394 0.073958 0.000000 0.000000 1.000000 1.000000
v 1.889994 3.443971 0.125625 0.000000 0.000000 1.000000 1.000000
v 1.859095 3.494394 0.073958 0.000000 0.000000 1.000000 1.000000
v 1.894998 3.446469 -0.123911 0.000000 0.000000 1.000000 1.000000
v 1.859095 3.494394 -0.073959 0.000000 0.000000 1.000000 1.000000
v 0.125830 4.438139 -0.073948 0.000000 0.000000 1.000000 1.000000
v 0.124469 4.442029 0.076786 0.000000 0.000000 1.000000 1.000000
v -0.125345 4.442604 -0.077170 0.000000 0.000000 1.000000 1.000000
v -0.125874 4.438048 0.073967 0.000000 0.000000 1.000000 1.000000
v -1.897088 3.444733 -0.125334 0.000000 0.000000 1.000000 1.000000
v -1.897485 3.340036 0.125128 0.000000 0.000000 1.000000 1.000000
v -1.889636 3.338919 -0.124400 0.000000 0.000000 1.000000 1.000000
v -1.889637 3.445652 0.124329 0.000000 0.000000 1.000000 1.000000
v 1.894998 3.446469 -0.123911 0.000000 0.000000 1.000000 1.000000
v 1.896818 3.339758 -0.125499 0.000000 0.000000 1.000000 1.000000
v 1.889994 3.443971 0.125625 0.000000 0.000000 1.000000 1.000000
v 1.889634 3.338919 0.124400 0.000000 0.000000 1.000000 1.000000
v -0.075886 4.411538 0.124568 0.000000 0.000000 1.000000 1.000000
v -0.125874 4.438048 0.073967 0.000000 0.000000 1.000000 1.000000
v 0.073958 4.405990 0.124999 0.000000 0.000000 1.000000 1.000000
v 0.124469 4.442029 0.076786 0.000000 0.000000 1.000000 1.000000
v -1.859095 3.290209 -0.073959 0.000000 0.000000 1.000000 1.000000
v -1.889636 3.338919 -0.124400 0.000000 0.000000 1.000000 1.000000
v -1.859095 3.290209 0.073958 0.000000 0.000000 1.000000 1.000000
v -1.897485 3.340036 0.125128 0.000000 0.000000 1.000000 1.000000
v 1.859095 3.290209 0.073958 0.000000 0.000000 1.000000 1.000000
v 1.889634 3.338919 0.124400 0.000000 0.000000 1.000000 1.000000
v 1.859095 3.290209 -0.073959 0.000000 0.000000 1.000000 1.000000
v 1.896818 3.339758 -0.125499 0.000000 0.000000 1.000000 1.000000
v -0.124836 3.285948 -0.074251 0.000000 0.000000 1.000000 1.000000
v -0.073960 -0.000000 -0.125000 0.000000 0.000000 1.000000 1.000000
v -0.078008 3.334407 -0.124463 0.000000 0.000000 1.000000 1.000000
v -0.125001 -0.000000 -0.073959 0.000000 0.000000 1.000000 1.000000
v -1.889636 3.338919 -0.124400 0.000000 0.000000 1.000000 1.000000
v -0.124836 3.285948 -0.074251 0.000000 0.000000 1.000000 1.000000
v -0.078008 3.334407 -0.124463 0.000000 0.000000 1.000000 1.000000
v -1.859095 3.290209 -0.073959 0.000000 0.000000 1.000000 1.000000
v 0.076244 3.338992 -0.124833 0.000000 0.000000 1.000000 1.000000
v 0.073958 -0.000000 -0.125000 0.000000 0.000000 1.000000 1.000000
v 0.126114 3.290154 -0.074658 0.000000 0.000000 1.000000 1.000000
v 0.124999 -0.000000 -0.073959 0.000000 0.000000 1.000000 1.000000
v 0.126114 3.290154 -0.074658 0.000000 0.000000 1.000000 1.000000
v 1.896818 3.339758 -0.125499 0.000000 0.000000 1.000000 1.000000
v 0.076244 3.338992 -0.124833 0.000000 0.000000 1.000000 1.000000
v 1.859095 3.290209 -0.073959 0.000000 0.000000 1.000000 1.000000
v -0.084532 3.445205 0.124703 0.000000 0.000000 1.000000 1.000000
v -1.889637 3.445652 0.124329 0.000000 0.000000 1.000000 1.000000
v -0.134154 3.492810 0.074615 0.000000 0.000000 1.000000 1.000000
v -1.859095 3.494394 0.073958 0.000000 0.000000 1.000000 1.000000
v -0.134154 3.492810 0.074615 0.000000 0.000000 1.000000 1.000000
v -0.075886 4.411538 0.124568 0.000000 0.000000 1.000000 1.000000
v -0.084532 3.445205 0.124703 0.000000 0.000000 1.000000 1.000000
v -0.125874 4.438048 0.073967 0.000000 0.000000 1.000000 1.000000
v -1.897485 3.340036 0.125128 0.000000 0.000000 1.000000 1.000000
v -0.126116 3.290152 0.074656 0.000000 0.000000 1.000000 1.000000
v -1.859095 3.290209 0.073958 0.000000 0.000000 1.000000 1.000000
v -0.076246 3.338992 0.124832 0.000000 0.000000 1.000000 1.000000
v -0.125001 0.000000 0.073959 0.000000 0.000000 1.000000 1.000000
v -0.126116 3.290152 0.074656 0.000000 0.000000 1.000000 1.000000
v -0.073960 0.000000 0.125000 0.000000 0.000000 1.000000 1.000000
v -0.076246 3.338992 0.124832 0.000000 0.000000 1.000000 1.000000
v -0.133410 3.492033 -0.073153 0.000000 0.000000 1.000000 1.000000
v -1.897088 3.444733 -0.125334 0.000000 0.000000 1.000000 1.000000
v -0.082715 3.445349 -0.124670 0.000000 0.000000 1.000000 1.000000
v -1.859095 3.494394 -0.073959 0.000000 0.000000 1.000000 1.000000
v -0.125345 4.442604 -0.077170 0.000000 0.000000 1.000000 1.000000
v -0.133410 3.492033 -0.073153 0.000000 0.000000 1.000000 1.000000
v -0.073960 4.405990 -0.125001 0.000000 0.000000 1.000000 1.000000
v -0.082715 3.445349 -0.124670 0.000000 0.000000 1.000000 1.000000
v 1.889994 3.443971 0.125625 0.000000 0.000000 1.000000 1.000000
v 0.133476 3.492013 0.073159 0.000000 0.000000 1.000000 1.000000
v 1.859095 3.494394 0.073958 0.000000 0.000000 1.000000 1.000000
v 0.082709 3.445370 0.124653 0.000000 0.000000 1.000000 1.000000
v 0.082709 3.445370 0.124653 0.000000 0.000000 1.000000 1.000000
v 0.073958 4.405990 0.124999 0.000000 0.000000 1.000000 1.000000
v 0.133476 3.492013 0.073159 0.000000 0.000000 1.000000 1.000000
v 0.124469 4.442029 0.076786 0.000000 0.000000 1.000000 1.000000
v 0.159891 3.339554 0.125000 0.000000 0.000000 1.000000 1.000000
v 1.889634 3.338919 0.124400 0.000000 0.000000 1.000000 1.000000
v 0.175094 3.290209 0.074905 0.000000 0.000000 1.000000 1.000000
v 1.859095 3.290209 0.073958 0.000000 0.000000 1.000000 1.000000
v 0.073958 0.000000 0.125000 0.000000 0.000000 1.000000 1.000000
v 0.124999 3.241061 0.075852 0.000000 0.000000 1.000000 1.000000
v 0.124999 0.000000 0.073959 0.000000 0.000000 1.000000 1.000000
v 0.075451 3.287243 0.124792 0.000000 0.000000 1.000000 1.000000
v 1.894998 3.446469 -0.123911 0.000000 0.000000 1.000000 1.000000
v 0.134145 3.492807 -0.074621 0.000000 0.000000 1.000000 1.000000
v 0.084526 3.445259 -0.124700 0.000000 0.000000 1.000000 1.000000
v 1.859095 3.494394 -0.073959 0.000000 0.000000 1.000000 1.000000
v 0.075884 4.411538 -0.124569 0.000000 0.000000 1.000000 1.000000
v 0.134145 3.492807 -0.074621 0.000000 0.000000 1.000000 1.000000
v 0.125830 4.438139 -0.073948 0.000000 0.000000 1.000000 1.000000
v 0.084526 3.445259 -0.124700 0.000000 0.000000 1.000000 1.000000
v 0.124999 0.000000 0.073959 0.000000 0.000000 1.000000 1.000000
v 0.126114 3.290154 -0.074658 0.000000 0.000000 1.000000 1.000000
v 0.124999 -0.000000 -0.073959 0.000000 0.000000 1.000000 1.000000
v 0.124999 3.241061 0.075852 0.000000 0.000000 1.000000 1.000000
v -0.125001 -0.000000 -0.073959 0.000000 0.000000 1.000000 1.000000
v -0.124836 3.285948 -0.074251 0.000000 0.000000 1.000000 1.000000
v -0.126116 3.290152 0.074656 0.000000 0.000000 1.000000 1.000000
v -0.125001 0.000000 0.073959 0.000000 0.000000 1.000000 1.000000
v -0.133410 3.492033 -0.073153 0.000000 0.000000 1.000000 1.000000
v -0.125874 4.438048 0.073967 0.000000 0.000000 1.000000 1.000000
v -0.134154 3.492810 0.074615 0.000000 0.000000 1.000000 1.000000
v -0.125345 4.442604 -0.077170 0.000000 0.000000 1.000000 1.000000
v 0.133476 3.492013 0.073159 0.000000 0.000000 1.000000 1.000000
v 0.125830 4.438139 -0.073948 0.000000 0.000000 1.000000 1.000000
v 0.134145 3.492807 -0.074621 0.000000 0.000000 1.000000 1.000000
v 0.124469 4.442029 0.076786 0.000000 0.000000 1.000000 1.000000
v -1.859095 3.290209 -0.073959 0.000000 0.000000 1.000000 1.000000
v -0.126116 3.290152 0.074656 0.000000 0.000000 1.000000 1.000000
v -0.124836 3.285948 -0.074251 0.000000 0.000000 1.000000 1.000000
v -1.859095 3.290209 0.073958 0.000000 0.000000 1.000000 1.000000
v -0.134154 3.492810 0.074615 0.000000 0.000000 1.000000 1.000000
v -1.859095 3.494394 0.073958 0.000000 0.000000 1.000000 1.000000
v -0.133410 3.492033 -0.073153 0.000000 0.000000 1.000000 1.000000
v -1.859095 3.494394 -0.073959 0.000000 0.000000 1.000000 1.000000
v 0.175094 3.290209 0.074905 0.000000 0.000000 1.000000 1.000000
v 1.859095 3.290209 0.073958 0.000000 0.000000 1.000000 1.000000
v 0.126114 3.290154 -0.074658 0.000000 0.000000 1.000000 1.000000
v 1.859095 3.290209 -0.073959 0.000000 0.000000 1.000000 1.000000
v 1.859095 3.494394 -0.073959 0.000000 0.000000 1.000000 1.000000
v 0.133476 3.492013 0.073159 0.000000 0.000000 1.000000 1.000000
v 0.134145 3.492807 -0.074621 0.000000 0.000000 1.000000 1.000000
v 1.859095 3.494394 0.073958 0.000000 0.000000 1.000000 1.000000
v 0.124999 3.241061 0.075852 0.000000 0.000000 1.000000 1.000000
v 0.075451 3.287243 0.124792 0.000000 0.000000 1.000000 1.000000
v 0.175094 3.290209 0.074905 0.000000 0.000000 1.000000 1.000000
v 0.159891 3.339554 0.125000 0.000000 0.000000 1.000000 1.000000
v 1.889634 3.338919 0.124400 0.000000 0.000000 1.000000 1.000000
v 0.159891 3.339554 0.125000 0.000000 0.000000 1.000000 1.000000
v 1.889994 3.443971 0.125625 0.000000 0.000000 1.000000 1.000000
v 0.082709 3.445370 0.124653 0.000000 0.000000 1.000000 1.000000
v 0.075451 3.287243 0.124792 0.000000 0.000000 1.000000 1.000000
v -0.075886 4.411538 0.124568 0.000000 0.000000 1.000000 1.000000
v 0.073958 4.405990 0.124999 0.000000 0.000000 1.000000 1.000000
v -0.084532 3.445205 0.124703 0.000000 0.000000 1.000000 1.000000
v -1.897485 3.340036 0.125128 0.000000 0.000000 1.000000 1.000000
v -1.889637 3.445652 0.124329 0.000000 0.000000 1.000000 1.000000
v -0.076246 3.338992 0.124832 0.000000 0.000000 1.000000 1.000000
v 0.073958 0.000000 0.125000 0.000000 0.000000 1.000000 1.000000
v -0.073960 0.000000 0.125000 0.000000 0.000000 1.000000 1.000000
v 0.076244 3.338992 -0.124833 0.000000 0.000000 1.000000 1.000000
v -0.073960 -0.000000 -0.125000 0.000000 0.000000 1.000000 1.000000
v 0.073958 -0.000000 -0.125000 0.000000 0.000000 1.000000 1.000000
v -0.078008 3.334407 -0.124463 0.000000 0.000000 1.000000 1.000000
v -1.897088 3.444733 -0.125334 0.000000 0.000000 1.000000 1.000000
v -1.889636 3.338919 -0.124400 0.000000 0.000000 1.000000 1.000000
v -0.082715 3.445349 -0.124670 0.000000 0.000000 1.000000 1.000000
v 0.084526 3.445259 -0.124700 0.000000 0.000000 1.000000 1.000000
v 1.896818 3.339758 -0.125499 0.000000 0.000000 1.000000 1.000000
v 1.894998 3.446469 -0.123911 0.000000 0.000000 1.000000 1.000000
v 0.075884 4.411538 -0.124569 0.000000 0.000000 1.000000 1.000000
v -0.073960 4.405990 -0.125001 0.000000 0.000000 1.000000 1.000000
vt 0.445312 0.602295
vt 0.443115 0.599854
vt 0.440674 0.597412
vt 0.416748 0.713623
vt 0.421387 0.709473
vt 0.440430 0.713623
vt 0.435791 0.709717
vt 0.245605 0.617676
vt 0.249756 0.621826
vt 0.245972 0.618164
vt 0.249756 0.621826
vt 0.611328 0.617920
vt 0.607422 0.621826
vt 0.611328 0.617676
vt 0.607422 0.621826
vt 0.440430 0.714355
vt 0.440430 0.714355
vt 0.416504 0.714355
vt 0.416504 0.714355
vt 0.244873 0.616943
vt 0.244873 0.606934
vt 0.244873 0.606934
vt 0.244873 0.617188
vt 0.612305 0.617188
vt 0.612305 0.607178
vt 0.612305 0.616943
vt 0.612305 0.606934
vt 0.691895 0.424316
vt 0.688477 0.427246
vt 0.701660 0.424316
vt 0.705078 0.427246
vt 0.249756 0.602295
vt 0.245972 0.605957
vt 0.249756 0.602295
vt 0.245605 0.606445
vt 0.607422 0.602295
vt 0.610840 0.605957
vt 0.607422 0.602295
vt 0.611328 0.606445
vt 0.416504 0.601807
vt 0.421387 0.286133
vt 0.421143 0.606445
vt 0.416504 0.286133
vt 0.246826 0.606934
vt 0.416504 0.602051
vt 0.421143 0.606689
vt 0.249756 0.602295
vt 0.435791 0.606934
vt 0.435547 0.286133
vt 0.440674 0.602295
vt 0.440674 0.286133
vt 0.440674 0.602295
vt 0.610840 0.607178
vt 0.435791 0.606934
vt 0.607422 0.602295
vt 0.691406 0.360840
vt 0.571777 0.360840
vt 0.687988 0.363770
vt 0.573730 0.363770
vt 0.688477 0.363770
vt 0.691895 0.424805
vt 0.691406 0.360840
vt 0.688477 0.426270
vt 0.571289 0.353516
vt 0.688477 0.350586
vt 0.573730 0.350586
vt 0.691895 0.353516
vt 0.688477 0.132324
vt 0.688477 0.350586
vt 0.691895 0.132324
vt 0.691895 0.353516
vt 0.415771 0.621826
vt 0.246216 0.616943
vt 0.420654 0.617188
vt 0.249756 0.621826
vt 0.416748 0.713135
vt 0.416016 0.621582
vt 0.421387 0.709473
vt 0.420898 0.617188
vt 0.822266 0.360352
vt 0.705566 0.363770
vt 0.820312 0.363770
vt 0.702637 0.360840
vt 0.702148 0.360840
vt 0.701660 0.424316
vt 0.705566 0.363770
vt 0.705078 0.426758
vt 0.707520 0.353516
vt 0.822266 0.353516
vt 0.708496 0.350586
vt 0.820312 0.350586
vt 0.701660 0.132324
vt 0.705078 0.347168
vt 0.705078 0.132324
vt 0.702148 0.350098
vt 0.610840 0.617188
vt 0.441406 0.621826
vt 0.436768 0.617188
vt 0.607422 0.621826
vt 0.435791 0.709961
vt 0.441162 0.621826
vt 0.440674 0.712646
vt 0.436523 0.617188
vt 0.440674 0.286133
vt 0.440674 0.602295
vt 0.440674 0.286133
vt 0.440674 0.597412
vt 0.416504 0.286133
vt 0.416504 0.601807
vt 0.416504 0.602295
vt 0.416504 0.286133
vt 0.416504 0.621582
vt 0.416504 0.712646
vt 0.416504 0.621826
vt 0.416504 0.713135
vt 0.440674 0.621582
vt 0.440674 0.712646
vt 0.440674 0.621826
vt 0.440674 0.712891
vt 0.249756 0.602295
vt 0.416504 0.602295
vt 0.416504 0.602295
vt 0.249756 0.602295
vt 0.415527 0.621826
vt 0.249756 0.621826
vt 0.415771 0.621826
vt 0.249756 0.621826
vt 0.445312 0.602295
vt 0.607422 0.602295
vt 0.440674 0.602295
vt 0.607422 0.602295
vt 0.607422 0.621826
vt 0.441406 0.621826
vt 0.441406 0.621826
vt 0.607422 0.621826
vt 0.705078 0.347168
vt 0.701660 0.350586
vt 0.708496 0.350586
vt 0.707520 0.353516
vt 0.822266 0.353516
vt 0.707520 0.353516
vt 0.822266 0.360840
vt 0.702637 0.360840
vt 0.702148 0.350098
vt 0.691895 0.424805
vt 0.701660 0.424316
vt 0.691406 0.360840
vt 0.571289 0.353516
vt 0.571777 0.360840
vt 0.691895 0.353516
vt 0.701660 0.132324
vt 0.691895 0.132324
vt 0.435791 0.606934
vt 0.421387 0.286133
vt 0.435547 0.286133
vt 0.421143 0.606445
vt 0.246216 0.617188
vt 0.246826 0.606934
vt 0.420654 0.617188
vt 0.436768 0.617188
vt 0.610840 0.606934
vt 0.610840 0.617188
vt 0.435791 0.709961
vt 0.421387 0.709473
vt1 0.445312 0.602295
vt1 0.443115 0.599854
vt1 0.440674 0.597412
vt1 0.416748 0.713623
vt1 0.421387 0.709473
vt1 0.440430 0.713623
vt1 0.435791 0.709717
vt1 0.245605 0.617676
vt1 0.249756 0.621826
vt1 0.245972 0.618164
vt1 0.249756 0.621826
vt1 0.611328 0.617920
vt1 0.607422 0.621826
vt1 0.611328 0.617676
vt1 0.607422 0.621826
vt1 0.440430 0.714355
vt1 0.440430 0.714355
vt1 0.416504 0.714355
vt1 0.416504 0.714355
vt1 0.244873 0.616943
vt1 0.244873 0.606934
vt1 0.244873 0.606934
vt1 0.244873 0.617188
vt1 0.612305 0.617188
vt1 0.612305 0.607178
vt1 0.612305 0.616943
vt1 0.612305 0.606934
vt1 0.691895 0.424316
vt1 0.688477 0.427246
vt1 0.701660 0.424316
vt1 0.705078 0.427246
vt1 0.249756 0.602295
vt1 0.245972 0.605957
vt1 0.249756 0.602295
vt1 0.245605 0.606445
vt1 0.607422 0.602295
vt1 0.610840 0.605957
vt1 0.607422 0.602295
vt1 0.611328 0.606445
vt1 0.416504 0.601807
vt1 0.421387 0.286133
vt1 0.421143 0.606445
vt1 0.416504 0.286133
vt1 0.246826 0.606934
vt1 0.416504 0.602051
vt1 0.421143 0.606689
vt1 0.249756 0.602295
vt1 0.435791 0.606934
vt1 0.435547 0.286133
vt1 0.440674 0.602295
vt1 0.440674 0.286133
vt1 0.440674 0.602295
vt1 0.610840 0.607178
vt1 0.435791 0.606934
vt1 0.607422 0.602295
vt1 0.691406 0.360840
vt1 0.571777 0.360840
vt1 0.687988 0.363770
vt1 0.573730 0.363770
vt1 0.688477 0.363770
vt1 0.691895 0.424805
vt1 0.691406 0.360840
vt1 0.688477 0.426270
vt1 0.571289 0.353516
vt1 0.688477 0.350586
vt1 0.573730 0.350586
vt1 0.691895 0.353516
vt1 0.688477 0.132324
vt1 0.688477 0.350586
vt1 0.691895 0.132324
vt1 0.691895 0.353516
vt1 0.415771 0.621826
vt1 0.246216 0.616943
vt1 0.420654 0.617188
vt1 0.249756 0.621826
vt1 0.416748 0.713135
vt1 0.416016 0.621582
vt1 0.421387 0.709473
vt1 0.420898 0.617188
vt1 0.822266 0.360352
vt1 0.705566 0.363770
vt1 0.820312 0.363770
vt1 0.702637 0.360840
vt1 0.702148 0.360840
vt1 0.701660 0.424316
vt1 0.705566 0.363770
vt1 0.705078 0.426758
vt1 0.707520 0.353516
vt1 0.822266 0.353516
vt1 0.708496 0.350586
vt1 0.820312 0.350586
vt1 0.701660 0.132324
vt1 0.705078 0.347168
vt1 0.705078 0.132324
vt1 0.702148 0.350098
vt1 0.610840 0.617188
vt1 0.441406 0.621826
vt1 0.436768 0.617188
vt1 0.607422 0.621826
vt1 0.435791 0.709961
vt1 0.441162 0.621826
vt1 0.440674 0.712646
vt1 0.436523 0.617188
vt1 0.440674 0.286133
vt1 0.440674 0.602295
vt1 0.440674 0.286133
vt1 0.440674 0.597412
vt1 0.416504 0.286133
vt1 0.416504 0.601807
vt1 0.416504 0.602295
vt1 0.416504 0.286133
vt1 0.416504 0.621582
vt1 0.416504 0.712646
vt1 0.416504 0.621826
vt1 0.416504 0.713135
vt1 0.440674 0.621582
vt1 0.440674 0.712646
vt1 0.440674 0.621826
vt1 0.440674 0.712891
vt1 0.249756 0.602295
vt1 0.416504 0.602295
vt1 0.416504 0.602295
vt1 0.249756 0.602295
vt1 0.415527 0.621826
vt1 0.249756 0.621826
vt1 0.415771 0.621826
vt1 0.249756 0.621826
vt1 0.445312 0.602295
vt1 0.607422 0.602295
vt1 0.440674 0.602295
vt1 0.607422 0.602295
vt1 0.607422 0.621826
vt1 0.441406 0.621826
vt1 0.441406 0.621826
vt1 0.607422 0.621826
vt1 0.705078 0.347168
vt1 0.701660 0.350586
vt1 0.708496 0.350586
vt1 0.707520 0.353516
vt1 0.822266 0.353516
vt1 0.707520 0.353516
vt1 0.822266 0.360840
vt1 0.702637 0.360840
vt1 0.702148 0.350098
vt1 0.691895 0.424805
vt1 0.701660 0.424316
vt1 0.691406 0.360840
vt1 0.571289 0.353516
vt1 0.571777 0.360840
vt1 0.691895 0.353516
vt1 0.701660 0.132324
vt1 0.691895 0.132324
vt1 0.435791 0.606934
vt1 0.421387 0.286133
vt1 0.435547 0.286133
vt1 0.421143 0.606445
vt1 0.246216 0.617188
vt1 0.246826 0.606934
vt1 0.420654 0.617188
vt1 0.436768 0.617188
vt1 0.610840 0.606934
vt1 0.610840 0.617188
vt1 0.435791 0.709961
vt1 0.421387 0.709473
vn 0.700787 -0.708661 0.000000
vn 0.700787 -0.708661 0.000000
vn 0.700787 -0.708661 0.000000
vn 0.000000 0.708661 -0.708661
vn 0.000000 0.708661 -0.708661
vn 0.000000 0.708661 -0.708661
vn 0.000000 0.708661 -0.708661
vn -0.708661 0.708661 -0.000000
vn -0.708661 0.708661 -0.000000
vn -0.708661 0.708661 -0.000000
vn -0.708661 0.708661 -0.000000
vn 0.708661 0.708661 -0.000000
vn 0.708661 0.708661 -0.000000
vn 0.708661 0.708661 -0.000000
vn 0.708661 0.708661 -0.000000
vn 0.000000 1.000000 -0.000000
vn 0.000000 1.000000 -0.000000
vn 0.000000 1.000000 -0.000000
vn 0.000000 1.000000 -0.000000
vn -1.000000 0.000000 0.000000
vn -1.000000 0.000000 0.000000
vn -1.000000 0.000000 0.000000
vn -1.000000 0.000000 0.000000
vn 1.000000 0.000000 0.000000
vn 1.000000 0.000000 0.000000
vn 1.000000 0.000000 0.000000
vn 1.000000 0.000000 0.000000
vn 0.000000 0.708661 0.708661
vn 0.000000 0.708661 0.708661
vn 0.000000 0.708661 0.708661
vn 0.000000 0.708661 0.708661
vn -0.708661 -0.708661 0.000000
vn -0.708661 -0.708661 0.000000
vn -0.708661 -0.708661 0.000000
vn -0.708661 -0.708661 0.000000
vn 0.708661 -0.708661 0.000000
vn 0.708661 -0.708661 0.000000
vn 0.708661 -0.708661 0.000000
vn 0.708661 -0.708661 0.000000
vn -0.708661 -0.000000 -0.708661
vn -0.708661 -0.000000 -0.708661
vn -0.708661 -0.000000 -0.708661
vn -0.708661 -0.000000 -0.708661
vn 0.000000 -0.708661 -0.700787
vn 0.000000 -0.708661 -0.700787
vn 0.000000 -0.708661 -0.700787
vn 0.000000 -0.708661 -0.700787
vn 0.669291 -0.055118 -0.740157
vn 0.700787 -0.000000 -0.708661
vn 0.692913 -0.023622 -0.724409
vn 0.700787 -0.000000 -0.708661
vn 0.000000 -0.708661 -0.700787
vn 0.000000 -0.708661 -0.700787
vn 0.000000 -0.708661 -0.700787
vn 0.000000 -0.708661 -0.700787
vn 0.000000 0.708661 0.700787
vn 0.000000 0.708661 0.700787
vn 0.000000 0.708661 0.700787
vn 0.000000 0.708661 0.700787
vn -0.661417 0.078740 0.748031
vn -0.708661 0.000000 0.708661
vn -0.606299 0.157480 0.779527
vn -0.708661 0.000000 0.708661
vn 0.000000 -0.708661 0.700787
vn 0.000000 -0.708661 0.700787
vn 0.000000 -0.708661 0.700787
vn 0.000000 -0.708661 0.700787
vn -0.700787 0.000000 0.708661
vn -0.692913 -0.023622 0.724409
vn -0.700787 0.000000 0.708661
vn -0.669291 -0.055118 0.740157
vn 0.000000 0.708661 -0.700787
vn 0.000000 0.708661 -0.700787
vn 0.000000 0.708661 -0.700787
vn 0.000000 0.708661 -0.700787
vn -0.700787 -0.007874 -0.708661
vn -0.661417 0.078740 -0.748031
vn -0.700787 -0.000000 -0.708661
vn -0.606299 0.157480 -0.779527
vn 0.000000 0.708661 0.700787
vn 0.000000 0.708661 0.700787
vn 0.000000 0.708661 0.700787
vn 0.000000 0.708661 0.700787
vn 0.606299 0.157480 0.779527
vn 0.700787 0.000000 0.708661
vn 0.661417 0.078740 0.748031
vn 0.700787 -0.007874 0.708661
vn 0.000000 -0.708661 0.700787
vn 0.000000 -0.708661 0.700787
vn 0.000000 -0.708661 0.700787
vn 0.000000 -0.708661 0.700787
vn 0.708661 0.000000 0.708661
vn 0.708661 0.000000 0.708661
vn 0.708661 0.000000 0.708661
vn 0.708661 0.000000 0.708661
vn 0.000000 0.708661 -0.700787
vn 0.000000 0.708661 -0.700787
vn 0.000000 0.708661 -0.700787
vn 0.000000 0.708661 -0.700787
vn 0.708661 -0.000000 -0.708661
vn 0.661417 0.078740 -0.748031
vn 0.708661 -0.000000 -0.708661
vn 0.606299 0.157480 -0.779527
vn 1.000000 0.000000 0.000000
vn 1.000000 0.000000 0.000000
vn 1.000000 0.000000 0.000000
vn 1.000000 0.000000 0.000000
vn -1.000000 0.000000 0.000000
vn -1.000000 0.000000 0.000000
vn -1.000000 0.000000 0.000000
vn -1.000000 0.000000 0.000000
vn -1.000000 0.000000 0.000000
vn -1.000000 0.000000 0.000000
vn -1.000000 0.000000 0.000000
vn -1.000000 0.000000 0.000000
vn 1.000000 0.000000 0.000000
vn 1.000000 0.000000 0.000000
vn 1.000000 0.000000 0.000000
vn 1.000000 0.000000 0.000000
vn 0.000000 -1.000000 0.000000
vn 0.000000 -1.000000 0.000000
vn 0.000000 -1.000000 0.000000
vn 0.000000 -1.000000 0.000000
vn 0.000000 1.000000 -0.000000
vn 0.000000 1.000000 -0.000000
vn 0.000000 1.000000 -0.000000
vn 0.000000 1.000000 -0.000000
vn 0.000000 -1.000000 0.000000
vn 0.000000 -1.000000 0.000000
vn 0.000000 -1.000000 0.000000
vn 0.000000 -1.000000 0.000000
vn 0.000000 1.000000 -0.000000
vn 0.000000 1.000000 -0.000000
vn 0.000000 1.000000 -0.000000
vn 0.000000 1.000000 -0.000000
vn 0.393701 -0.393701 0.826772
vn 0.393701 -0.393701 0.826772
vn 0.393701 -0.393701 0.826772
vn 0.393701 -0.393701 0.826772
vn 0.000000 0.000000 1.000000
vn 0.000000 0.000000 1.000000
vn 0.000000 0.000000 1.000000
vn 0.000000 0.000000 1.000000
vn 0.000000 0.000000 1.000000
vn 0.000000 0.000000 1.000000
vn 0.000000 0.000000 1.000000
vn 0.000000 0.000000 1.000000
vn 0.000000 0.000000 1.000000
vn 0.000000 0.000000 1.000000
vn 0.000000 0.000000 1.000000
vn 0.000000 0.000000 1.000000
vn 0.000000 0.000000 1.000000
vn 0.000000 -0.000000 -1.000000
vn 0.000000 -0.000000 -1.000000
vn 0.000000 -0.000000 -1.000000
vn 0.000000 -0.000000 -1.000000
vn 0.000000 -0.000000 -1.000000
vn 0.000000 -0.000000 -1.000000
vn 0.000000 -0.000000 -1.000000
vn 0.000000 -0.000000 -1.000000
vn 0.000000 -0.000000 -1.000000
vn 0.000000 -0.000000 -1.000000
vn 0.000000 -0.000000 -1.000000
vn 0.000000 -0.000000 -1.000000
tan -0.708661 -0.700787 0.000000 1.000000
tan -0.686341 -0.678715 -0.178560 1.000000
tan -0.708661 -0.700787 0.000000 1.000000
tan 0.000000 -0.708661 -0.708661 1.000000
tan 0.000000 -0.708661 -0.708661 1.000000
tan 0.000000 -0.708661 -0.708661 1.000000
tan 0.000000 -0.708661 -0.708661 1.000000
tan -0.262261 -0.262261 -0.658441 1.000000
tan 0.000000 -0.000000 -0.708661 1.000000
tan -0.703081 -0.703081 -0.072540 1.000000
tan -0.708661 -0.708661 0.000000 1.000000
tan 0.703081 -0.703081 -0.061380 1.000000
tan 0.708661 -0.708661 0.000000 1.000000
tan 0.262261 -0.262261 -0.658441 1.000000
tan 0.000000 -0.000000 -0.708661 1.000000
tan 0.000000 -0.000000 -1.000000 1.000000
tan 0.000000 -0.000000 -1.000000 1.000000
tan 0.000000 -0.000000 -1.000000 1.000000
tan 0.000000 -0.000000 -1.000000 1.000000
tan 0.000000 0.000000 0.000000 1.000000
tan 0.000000 0.000000 0.000000 1.000000
tan 0.000000 0.000000 0.000000 1.000000
tan 0.000000 0.000000 0.000000 1.000000
tan 0.000000 0.000000 0.000000 1.000000
tan 0.000000 0.000000 0.000000 1.000000
tan 0.000000 0.000000 0.000000 1.000000
tan 0.000000 0.000000 0.000000 1.000000
tan 0.000000 -0.708661 0.708661 1.000000
tan 0.000000 -0.708661 0.708661 1.000000
tan 0.000000 -0.708661 0.708661 1.000000
tan 0.000000 -0.708661 0.708661 1.000000
tan 0.708661 -0.708661 0.000000 1.000000
tan 0.703081 -0.703081 -0.072540 1.000000
tan 0.000000 0.000000 0.708661 1.000000
tan -0.262261 0.262261 0.658441 1.000000
tan -0.708661 -0.708661 0.000000 1.000000
tan -0.703081 -0.703081 0.072540 1.000000
tan 0.000000 0.000000 0.708661 1.000000
tan -0.262261 -0.262260 0.658441 1.000000
tan 0.000000 -0.998822 0.000000 1.000000
tan 0.000000 -1.004402 0.000000 1.000000
tan 0.000000 -0.998822 0.000000 1.000000
tan 0.000000 -1.004402 0.000000 1.000000
tan -0.011098 -0.700787 0.708661 1.000000
tan 0.000000 -0.700787 0.708661 1.000000
tan 0.000000 -0.700787 0.708661 1.000000
tan -0.033294 -0.700787 0.708661 1.000000
tan -0.027342 -0.978920 0.048174 1.000000
tan 0.000000 -0.998946 0.000000 1.000000
tan -0.008990 -0.995722 0.023870 1.000000
tan 0.000000 -0.998946 0.000000 1.000000
tan 0.000000 -0.700787 0.708661 1.000000
tan 0.011098 -0.700787 0.708661 1.000000
tan 0.000000 -0.700787 0.708661 1.000000
tan 0.033294 -0.700787 0.708661 1.000000
tan 0.000000 -0.700787 0.708661 1.000000
tan 0.011098 -0.700787 0.708661 1.000000
tan 0.000000 -0.700787 0.708661 1.000000
tan 0.033294 -0.700787 0.708661 1.000000
tan -0.021390 -0.976006 0.083824 1.000000
tan 0.000000 -1.004402 0.000000 1.000000
tan -0.034720 -0.894786 0.153760 1.000000
tan 0.000000 -0.998822 0.000000 1.000000
tan -0.011098 -0.700787 -0.708661 1.000000
tan 0.000000 -0.700787 -0.708661 1.000000
tan -0.033294 -0.700787 -0.708661 1.000000
tan 0.000000 -0.700787 -0.708661 1.000000
tan 0.000000 -0.998946 0.000000 1.000000
tan 0.008990 -0.995722 -0.023870 1.000000
tan 0.000000 -0.998946 0.000000 1.000000
tan 0.027342 -0.978920 -0.048174 1.000000
tan 0.000000 -0.700787 -0.708661 1.000000
tan 0.011098 -0.700787 -0.708661 1.000000
tan 0.000000 -0.700787 -0.708661 1.000000
tan 0.033294 -0.700787 -0.708661 1.000000
tan 0.005332 -0.993490 0.005766 1.000000
tan -0.019530 -0.972162 -0.085064 1.000000
tan 0.000000 -0.998946 0.000000 1.000000
tan -0.033480 -0.890012 -0.153760 1.000000
tan -0.011098 -0.700787 0.708661 1.000000
tan 0.000000 -0.700787 0.708661 1.000000
tan -0.033294 -0.700787 0.708661 1.000000
tan 0.000000 -0.700787 0.708661 1.000000
tan 0.033480 -0.890012 0.153760 1.000000
tan 0.000000 -0.998946 0.000000 1.000000
tan 0.019530 -0.972162 0.085064 1.000000
tan -0.005332 -0.993490 -0.005766 1.000000
tan 0.000000 -0.700787 -0.708661 1.000000
tan 0.011098 -0.700787 -0.708661 1.000000
tan 0.000000 -0.700787 -0.708661 1.000000
tan 0.033294 -0.700787 -0.708661 1.000000
tan 0.000000 -1.004402 0.000000 1.000000
tan 0.000000 -1.004402 0.000000 1.000000
tan 0.000000 -1.004402 0.000000 1.000000
tan 0.000000 -0.998822 0.000000 1.000000
tan -0.011098 -0.700787 -0.708661 1.000000
tan 0.000000 -0.700787 -0.708661 1.000000
tan 0.000000 -0.700787 -0.708661 1.000000
tan -0.033294 -0.700787 -0.708661 1.000000
tan 0.000000 -1.004402 0.000000 1.000000
tan 0.021390 -0.976006 -0.083824 1.000000
tan 0.000000 -0.998822 0.000000 1.000000
tan 0.034720 -0.894786 -0.153760 1.000000
tan 0.000000 0.000000 0.000000 1.000000
tan 0.000000 0.000000 0.000000 1.000000
tan 0.000000 0.000000 0.000000 1.000000
tan 0.000000 0.000000 0.000000 1.000000
tan 0.000000 0.000000 0.000000 1.000000
tan 0.000000 0.000000 0.000000 1.000000
tan 0.000000 0.000000 0.000000 1.000000
tan 0.000000 0.000000 0.000000 1.000000
tan 0.000000 0.000000 0.000000 1.000000
tan 0.000000 0.000000 0.000000 1.000000
tan 0.000000 0.000000 0.000000 1.000000
tan 0.000000 0.000000 0.000000 1.000000
tan 0.000000 0.000000 0.000000 1.000000
tan 0.000000 0.000000 0.000000 1.000000
tan 0.000000 0.000000 0.000000 1.000000
tan 0.000000 0.000000 0.000000 1.000000
tan 0.000000 0.000000 1.000000 1.000000
tan 0.000000 0.000000 1.000000 1.000000
tan 0.000000 0.000000 1.000000 1.000000
tan 0.000000 0.000000 1.000000 1.000000
tan 0.000000 -0.000000 -1.000000 1.000000
tan 0.000000 -0.000000 -1.000000 1.000000
tan 0.000000 -0.000000 -1.000000 1.000000
tan 0.000000 -0.000000 -1.000000 1.000000
tan 0.000000 0.000000 1.000000 1.000000
tan 0.000000 0.000000 1.000000 1.000000
tan 0.000000 0.000000 1.000000 1.000000
tan 0.000000 0.000000 1.000000 1.000000
tan 0.000000 -0.000000 -1.000000 1.000000
tan 0.000000 -0.000000 -1.000000 1.000000
tan 0.000000 -0.000000 -1.000000 1.000000
tan 0.000000 -0.000000 -1.000000 1.000000
tan -0.097340 -0.885052 -0.375101 1.000000
tan -0.079980 -0.848162 -0.365801 1.000000
tan -0.013020 -0.878852 -0.412301 1.000000
tan 0.045260 -0.872652 -0.437101 1.000000
tan 0.000000 -1.000000 0.000000 1.000000
tan 0.000000 -1.000000 0.000000 1.000000
tan 0.000000 -1.000000 0.000000 1.000000
tan 0.000000 -1.000000 0.000000 1.000000
tan 0.000000 -1.000000 0.000000 1.000000
tan 0.000000 -1.000000 0.000000 1.000000
tan 0.000000 -1.000000 0.000000 1.000000
tan 0.000000 -1.000000 0.000000 1.000000
tan 0.000000 -1.000000 0.000000 1.000000
tan 0.000000 -1.000000 0.000000 1.000000
tan 0.000000 -1.000000 0.000000 1.000000
tan 0.000000 -1.000000 0.000000 1.000000
tan 0.000000 -1.000000 0.000000 1.000000
tan 0.000000 -1.000000 0.000000 1.000000
tan 0.000000 -1.000000 0.000000 1.000000
tan 0.000000 -1.000000 0.000000 1.000000
tan 0.000000 -1.000000 0.000000 1.000000
tan 0.000000 -1.000000 0.000000 1.000000
tan 0.000000 -1.000000 0.000000 1.000000
tan 0.000000 -1.000000 0.000000 1.000000
tan 0.000000 -1.000000 0.000000 1.000000
tan 0.000000 -1.000000 0.000000 1.000000
tan 0.000000 -1.000000 0.000000 1.000000
tan 0.000000 -1.000000 0.000000 1.000000
tan 0.000000 -1.000000 0.000000 1.000000
f 3/3/3 2/2/2 1/1/1
f 6/6/6 5/5/5 4/4/4
f 6/6/6 7/7/7 5/5/5
f 10/10/10 9/9/9 8/8/8
f 11/11/11 9/9/9 10/10/10
f 14/14/14 13/13/13 12/12/12
f 14/14/14 15/15/15 13/13/13
f 18/18/18 17/17/17 16/16/16
f 19/19/19 17/17/17 18/18/18
f 22/22/22 21/21/21 20/20/20
f 23/23/23 20/20/20 21/21/21
f 26/26/26 25/25/25 24/24/24
f 26/26/26 27/27/27 25/25/25
f 30/30/30 29/29/29 28/28/28
f 30/30/30 31/31/31 29/29/29
f 34/34/34 33/33/33 32/32/32
f 35/35/35 33/33/33 34/34/34
f 38/38/38 37/37/37 36/36/36
f 38/38/38 39/39/39 37/37/37
f 42/42/42 41/41/41 40/40/40
f 43/43/43 40/40/40 41/41/41
f 46/46/46 45/45/45 44/44/44
f 47/47/47 44/44/44 45/45/45
f 50/50/50 49/49/49 48/48/48
f 51/51/51 49/49/49 50/50/50
f 54/54/54 53/53/53 52/52/52
f 55/55/55 52/52/52 53/53/53
f 58/58/58 57/57/57 56/56/56
f 57/57/57 58/58/58 59/59/59
f 62/62/62 61/61/61 60/60/60
f 63/63/63 60/60/60 61/61/61
f 66/66/66 65/65/65 64/64/64
f 67/67/67 64/64/64 65/65/65
f 70/70/70 69/69/69 68/68/68
f 71/71/71 69/69/69 70/70/70
f 74/74/74 73/73/73 72/72/72
f 75/75/75 72/72/72 73/73/73
f 78/78/78 77/77/77 76/76/76
f 79/79/79 77/77/77 78/78/78
f 82/82/82 81/81/81 80/80/80
f 83/83/83 80/80/80 81/81/81
f 86/86/86 85/85/85 84/84/84
f 87/87/87 85/85/85 86/86/86
f 90/90/90 89/89/89 88/88/88
f 89/89/89 90/90/90 91/91/91
f 94/94/94 93/93/93 92/92/92
f 95/95/95 92/92/92 93/93/93
f 98/98/98 97/97/97 96/96/96
f 99/99/99 96/96/96 97/97/97
f 102/102/102 101/101/101 100/100/100
f 103/103/103 100/100/100 101/101/101
f 106/106/106 105/105/105 104/104/104
f 107/107/107 104/104/104 105/105/105
f 110/110/110 109/109/109 108/108/108
f 111/111/111 110/110/110 108/108/108
f 114/114/114 113/113/113 112/112/112
f 115/115/115 112/112/112 113/113/113
f 118/118/118 117/117/117 116/116/116
f 119/119/119 116/116/116 117/117/117
f 122/122/122 121/121/121 120/120/120
f 123/123/123 120/120/120 121/121/121
f 126/126/126 125/125/125 124/124/124
f 125/125/125 126/126/126 127/127/127
f 130/130/130 129/129/129 128/128/128
f 129/129/129 130/130/130 131/131/131
f 134/134/134 133/133/133 132/132/132
f 135/135/135 132/132/132 133/133/133
f 138/138/138 137/137/137 136/136/136
f 139/139/139 137/137/137 138/138/138
f 142/142/142 141/141/141 140/140/140
f 141/141/141 142/142/142 143/143/143
f 143/143/143 144/144/144 141/141/141
f 146/146/146 145/145/145 143/143/143
f 147/147/147 143/143/143 145/145/145
f 143/143/143 147/147/147 144/144/144
f 149/149/149 148/148/148 147/147/147
f 150/150/150 147/147/147 148/148/148
f 147/147/147 150/150/150 144/144/144
f 144/144/144 150/150/150 151/151/151
f 151/151/151 150/150/150 152/152/152
f 155/155/155 154/154/154 153/153/153
f 156/156/156 153/153/153 154/154/154
f 158/158/158 157/157/157 156/156/156
f 159/159/159 156/156/156 157/157/157
f 153/153/153 156/156/156 160/160/160
f 156/156/156 159/159/159 160/160/160
f 160/160/160 161/161/161 153/153/153
f 161/161/161 160/160/160 162/162/162
f 160/160/160 159/159/159 163/163/163
f 163/163/163 159/159/159 164/164/164
