mtllib SM_Curtain_Rod_02_LOD3@000002909DC4F200.mtl
g SM_Curtain_Rod_02_LOD3@000002909DC4F200
#Vertices 38
#Indices 90
#Section 0 Offset 0 NumIndices 90 MaterialIndex 0 MI_MetalTile_A_03
v 0.000000 6.994435 0.669781 1.000000 1.000000 1.000000 1.000000
v -2.520470 7.008605 0.667104 1.000000 1.000000 1.000000 1.000000
v 0.000000 6.954236 0.578687 1.000000 1.000000 1.000000 1.000000
v -2.558606 6.920991 0.577171 1.000000 1.000000 1.000000 1.000000
v -0.000000 6.862670 0.637923 1.000000 1.000000 1.000000 1.000000
v -2.553446 6.859281 0.666916 1.000000 1.000000 1.000000 1.000000
v -0.000000 6.926109 0.729301 1.000000 1.000000 1.000000 1.000000
v -2.505014 6.941628 0.723372 1.000000 1.000000 1.000000 1.000000
v -2.520470 7.008605 0.667104 1.000000 1.000000 1.000000 1.000000
v 0.000000 6.994435 0.669781 1.000000 1.000000 1.000000 1.000000
v -4.406066 6.998173 2.563099 1.000000 1.000000 1.000000 1.000000
v -2.520470 7.008605 0.667104 1.000000 1.000000 1.000000 1.000000
v -2.505014 6.941628 0.723372 1.000000 1.000000 1.000000 1.000000
v -4.380855 6.869339 2.588714 1.000000 1.000000 1.000000 1.000000
v -2.553446 6.859281 0.666916 1.000000 1.000000 1.000000 1.000000
v -4.482451 6.944942 2.486479 1.000000 1.000000 1.000000 1.000000
v -2.558606 6.920991 0.577171 1.000000 1.000000 1.000000 1.000000
v -2.520470 7.008605 0.667104 1.000000 1.000000 1.000000 1.000000
v -4.406066 6.998173 2.563099 1.000000 1.000000 1.000000 1.000000
v 0.000000 6.954236 0.578687 1.000000 1.000000 1.000000 1.000000
v 2.520470 7.008605 0.667104 1.000000 1.000000 1.000000 1.000000
v 0.000000 6.994435 0.669781 1.000000 1.000000 1.000000 1.000000
v 2.558606 6.920991 0.577171 1.000000 1.000000 1.000000 1.000000
v -0.000000 6.862670 0.637923 1.000000 1.000000 1.000000 1.000000
v 2.553445 6.859281 0.666916 1.000000 1.000000 1.000000 1.000000
v -0.000000 6.926109 0.729301 1.000000 1.000000 1.000000 1.000000
v 2.505014 6.941628 0.723372 1.000000 1.000000 1.000000 1.000000
v 2.520470 7.008605 0.667104 1.000000 1.000000 1.000000 1.000000
v 0.000000 6.994435 0.669781 1.000000 1.000000 1.000000 1.000000
v 4.406066 6.998173 2.563099 1.000000 1.000000 1.000000 1.000000
v 2.505014 6.941628 0.723372 1.000000 1.000000 1.000000 1.000000
v 2.520470 7.008605 0.667104 1.000000 1.000000 1.000000 1.000000
v 4.380855 6.869339 2.588714 1.000000 1.000000 1.000000 1.000000
v 2.553445 6.859281 0.666916 1.000000 1.000000 1.000000 1.000000
v 4.482451 6.944942 2.486479 1.000000 1.000000 1.000000 1.000000
v 2.558606 6.920991 0.577171 1.000000 1.000000 1.000000 1.000000
v 2.520470 7.008605 0.667104 1.000000 1.000000 1.000000 1.000000
v 4.406066 6.998173 2.563099 1.000000 1.000000 1.000000 1.000000
vt 0.624512 0.688477
vt 0.621094 0.309570
vt 0.561523 0.688477
vt 0.541992 0.303711
vt 0.494141 0.688477
vt 0.478516 0.304688
vt 0.428223 0.688477
vt 0.419922 0.312012
vt 0.367920 0.309570
vt 0.375000 0.688477
vt 0.374023 0.312500
vt 0.367676 0.693604
vt 0.420166 0.689697
vt 0.458984 0.312500
vt 0.489746 0.690430
vt 0.553711 0.312988
vt 0.546387 0.698975
vt 0.625488 0.693604
vt 0.624512 0.312500
vt 0.561523 0.688477
vt 0.621094 0.309570
vt 0.624512 0.688477
vt 0.541992 0.303711
vt 0.494141 0.688477
vt 0.478516 0.304688
vt 0.428223 0.688477
vt 0.419922 0.312012
vt 0.367920 0.309570
vt 0.375000 0.688477
vt 0.374023 0.312500
vt 0.420166 0.689697
vt 0.367676 0.693604
vt 0.458984 0.312500
vt 0.489746 0.690430
vt 0.553711 0.312988
vt 0.546387 0.698975
vt 0.625488 0.693604
vt 0.624512 0.312500
vt1 0.688965 0.991936
vt1 0.687012 0.057129
vt1 0.651367 0.991943
vt1 0.640137 0.042969
vt1 0.611328 0.991943
vt1 0.602051 0.044922
vt1 0.571777 0.991928
vt1 0.566895 0.062988
vt1 0.536133 0.057129
vt1 0.540039 0.991936
vt1 0.007610 0.013672
vt1 0.003822 1.005344
vt1 0.034912 0.994690
vt1 0.057892 0.013672
vt1 0.076111 0.996738
vt1 0.114136 0.013672
vt1 0.109741 1.018890
vt1 0.156494 1.005352
vt1 0.155884 0.013672
vt1 0.474121 0.991943
vt1 0.509277 0.057129
vt1 0.511719 0.991936
vt1 0.462646 0.042969
vt1 0.434082 0.991943
vt1 0.424561 0.044922
vt1 0.394531 0.991928
vt1 0.389648 0.062988
vt1 0.358643 0.057129
vt1 0.362793 0.991936
vt1 0.184937 0.013672
vt1 0.212280 0.994690
vt1 0.181152 1.005344
vt1 0.235229 0.013672
vt1 0.253418 0.996738
vt1 0.291504 0.013672
vt1 0.287109 1.018890
vt1 0.333984 1.005352
vt1 0.333252 0.013672
vn 0.000000 0.952756 0.307086
vn 0.000000 1.000000 0.062992
vn 0.000000 0.275590 -0.960630
vn 0.000000 -0.228347 -0.976378
vn 0.000000 -0.984252 -0.173228
vn 0.000000 -0.968504 0.244095
vn 0.000000 -0.086614 1.000000
vn 0.000000 0.125984 0.992126
vn 0.000000 0.984252 0.196850
vn 0.000000 0.952756 0.307086
vn 0.212598 0.952756 0.204724
vn 0.133858 0.984252 0.133858
vn 0.700787 0.118110 0.700787
vn 0.456693 -0.763779 0.456693
vn -0.055118 -1.000000 -0.055118
vn -0.700787 0.133858 -0.700787
vn -0.708661 0.039370 -0.708661
vn 0.165354 0.968504 0.165354
vn 0.188976 0.960630 0.188976
vn 0.000000 0.275590 -0.960630
vn 0.000000 1.000000 0.062992
vn 0.000000 0.952756 0.307086
vn 0.000000 -0.228347 -0.976378
vn 0.000000 -0.984252 -0.173228
vn 0.000000 -0.968504 0.244095
vn 0.000000 -0.086614 1.000000
vn 0.000000 0.125984 0.992126
vn 0.000000 0.984252 0.196850
vn 0.000000 0.952756 0.307086
vn -0.212598 0.952756 0.204724
vn -0.700787 0.118110 0.700787
vn -0.133858 0.984252 0.133858
vn -0.456693 -0.763779 0.456693
vn 0.055118 -1.000000 -0.055118
vn 0.700787 0.133858 -0.700787
vn 0.708661 0.039370 -0.708661
vn -0.165354 0.968504 0.165354
vn -0.188976 0.960630 0.188976
tan -0.962428 0.000000 0.000000 1.000000
tan -1.000000 0.000000 0.000000 1.000000
tan -0.969310 0.000000 0.000000 1.000000
tan -0.976378 0.000000 0.000000 1.000000
tan -0.984252 0.000000 0.000000 1.000000
tan -0.966582 0.000000 0.000000 1.000000
tan -1.000000 0.000000 0.000000 1.000000
tan -0.992126 0.000000 0.000000 1.000000
tan -0.982702 0.000000 0.000000 1.000000
tan -0.962428 0.000000 0.000000 1.000000
tan -0.675181 0.005580 0.675181 1.000000
tan -0.696447 0.000000 0.696447 1.000000
tan -0.703701 0.000000 0.703701 1.000000
tan -0.638291 0.000000 0.638291 1.000000
tan -0.708661 0.000434 0.700787 1.000000
tan -0.706863 0.000000 0.706863 1.000000
tan -0.708041 0.000000 0.708041 1.000000
tan -0.686341 0.000000 0.686341 1.000000
tan -0.682249 0.000000 0.682249 1.000000
tan 0.969310 0.000000 0.000000 1.000000
tan 1.000000 0.000000 0.000000 1.000000
tan 0.962428 0.000000 0.000000 1.000000
tan 0.976378 0.000000 0.000000 1.000000
tan 0.984252 0.000000 0.000000 1.000000
tan 0.966582 0.000000 0.000000 1.000000
tan 1.000000 0.000000 0.000000 1.000000
tan 0.992126 0.000000 0.000000 1.000000
tan 0.982702 0.000000 0.000000 1.000000
tan 0.962428 0.000000 0.000000 1.000000
tan 0.675181 0.005580 0.675181 1.000000
tan 0.703701 0.000000 0.703701 1.000000
tan 0.696447 0.000000 0.696447 1.000000
tan 0.638291 0.000000 0.638291 1.000000
tan 0.708661 0.000434 0.700787 1.000000
tan 0.706863 0.000000 0.706863 1.000000
tan 0.708041 0.000000 0.708041 1.000000
tan 0.686341 0.000000 0.686341 1.000000
tan 0.682249 0.000000 0.682249 1.000000
f 3/3/3 2/2/2 1/1/1
f 4/4/4 2/2/2 3/3/3
f 5/5/5 4/4/4 3/3/3
f 6/6/6 4/4/4 5/5/5
f 7/7/7 6/6/6 5/5/5
f 8/8/8 6/6/6 7/7/7
f 8/8/8 7/7/7 9/9/9
f 10/10/10 9/9/9 7/7/7
f 13/13/13 12/12/12 11/11/11
f 11/11/11 14/14/14 13/13/13
f 15/15/15 13/13/13 14/14/14
f 14/14/14 16/16/16 15/15/15
f 17/17/17 15/15/15 16/16/16
f 18/18/18 17/17/17 16/16/16
f 16/16/16 19/19/19 18/18/18
f 22/22/22 21/21/21 20/20/20
f 21/21/21 23/23/23 20/20/20
f 24/24/24 20/20/20 23/23/23
f 23/23/23 25/25/25 24/24/24
f 26/26/26 24/24/24 25/25/25
f 25/25/25 27/27/27 26/26/26
f 28/28/28 26/26/26 27/27/27
f 26/26/26 28/28/28 29/29/29
f 32/32/32 31/31/31 30/30/30
f 33/33/33 30/30/30 31/31/31
f 34/34/34 33/33/33 31/31/31
f 33/33/33 34/34/34 35/35/35
f 36/36/36 35/35/35 34/34/34
f 36/36/36 37/37/37 35/35/35
f 38/38/38 35/35/35 37/37/37
