mtllib SM_Curtain_Rod_01_LOD2@000002909DC4EB00.mtl
g SM_Curtain_Rod_01_LOD2@000002909DC4EB00
#Vertices 116
#Indices 240
#Section 0 Offset 0 NumIndices 240 MaterialIndex 0 MI_MetalTile_A_03
v -2.602119 6.965599 0.641012 1.000000 1.000000 1.000000 1.000000
v -2.498743 6.992662 0.615165 1.000000 1.000000 1.000000 1.000000
v -2.525084 6.999347 0.673514 1.000000 1.000000 1.000000 1.000000
v -2.602119 6.965599 0.641012 1.000000 1.000000 1.000000 1.000000
v -2.498413 6.943454 0.585864 1.000000 1.000000 1.000000 1.000000
v -2.498743 6.992662 0.615165 1.000000 1.000000 1.000000 1.000000
v -2.498413 6.943454 0.585864 1.000000 1.000000 1.000000 1.000000
v -2.602119 6.965599 0.641012 1.000000 1.000000 1.000000 1.000000
v -2.605308 6.922945 0.636479 1.000000 1.000000 1.000000 1.000000
v -2.498413 6.943454 0.585864 1.000000 1.000000 1.000000 1.000000
v -2.605308 6.922945 0.636479 1.000000 1.000000 1.000000 1.000000
v -2.496447 6.900155 0.592196 1.000000 1.000000 1.000000 1.000000
v -2.496447 6.900155 0.592196 1.000000 1.000000 1.000000 1.000000
v -2.605308 6.922945 0.636479 1.000000 1.000000 1.000000 1.000000
v -2.582973 6.874886 0.658270 1.000000 1.000000 1.000000 1.000000
v -2.582973 6.874886 0.658270 1.000000 1.000000 1.000000 1.000000
v -2.514734 6.869260 0.675488 1.000000 1.000000 1.000000 1.000000
v -2.496447 6.900155 0.592196 1.000000 1.000000 1.000000 1.000000
v 2.525084 6.999347 0.673514 1.000000 1.000000 1.000000 1.000000
v 2.498743 6.992662 0.615165 1.000000 1.000000 1.000000 1.000000
v 2.602119 6.965599 0.641012 1.000000 1.000000 1.000000 1.000000
v 2.498413 6.943454 0.585864 1.000000 1.000000 1.000000 1.000000
v 2.602119 6.965599 0.641012 1.000000 1.000000 1.000000 1.000000
v 2.498743 6.992662 0.615165 1.000000 1.000000 1.000000 1.000000
v 2.602119 6.965599 0.641012 1.000000 1.000000 1.000000 1.000000
v 2.498413 6.943454 0.585864 1.000000 1.000000 1.000000 1.000000
v 2.605308 6.922945 0.636479 1.000000 1.000000 1.000000 1.000000
v 2.496447 6.900155 0.592196 1.000000 1.000000 1.000000 1.000000
v 2.605308 6.922945 0.636479 1.000000 1.000000 1.000000 1.000000
v 2.498413 6.943454 0.585864 1.000000 1.000000 1.000000 1.000000
v 2.605308 6.922945 0.636479 1.000000 1.000000 1.000000 1.000000
v 2.496447 6.900155 0.592196 1.000000 1.000000 1.000000 1.000000
v 2.582973 6.874886 0.658270 1.000000 1.000000 1.000000 1.000000
v 2.514734 6.869261 0.675488 1.000000 1.000000 1.000000 1.000000
v 2.582973 6.874886 0.658270 1.000000 1.000000 1.000000 1.000000
v 2.496447 6.900155 0.592196 1.000000 1.000000 1.000000 1.000000
v -5.283505 5.930016 2.453176 1.000000 1.000000 1.000000 1.000000
v -7.145208 5.930016 4.321879 1.000000 1.000000 1.000000 1.000000
v -7.184661 5.927147 4.282283 1.000000 1.000000 1.000000 1.000000
v -5.331443 5.919584 2.405096 1.000000 1.000000 1.000000 1.000000
v -7.205312 5.863054 4.261550 1.000000 1.000000 1.000000 1.000000
v -5.340762 5.846708 2.395691 1.000000 1.000000 1.000000 1.000000
v -7.179132 5.805692 4.287845 1.000000 1.000000 1.000000 1.000000
v -5.304546 5.800042 2.432039 1.000000 1.000000 1.000000 1.000000
v -7.128032 5.818900 4.339136 1.000000 1.000000 1.000000 1.000000
v -5.243239 5.865036 2.493533 1.000000 1.000000 1.000000 1.000000
v -7.112355 5.888195 4.354824 1.000000 1.000000 1.000000 1.000000
v -7.145208 5.930016 4.321879 1.000000 1.000000 1.000000 1.000000
v -5.283505 5.930016 2.453176 1.000000 1.000000 1.000000 1.000000
v -2.525084 6.999347 0.673514 1.000000 1.000000 1.000000 1.000000
v -4.406066 6.998173 2.563099 1.000000 1.000000 1.000000 1.000000
v -4.454993 6.977503 2.513991 1.000000 1.000000 1.000000 1.000000
v -2.602119 6.965599 0.641012 1.000000 1.000000 1.000000 1.000000
v -4.465499 6.904913 2.503464 1.000000 1.000000 1.000000 1.000000
v -2.605308 6.922945 0.636479 1.000000 1.000000 1.000000 1.000000
v -2.582973 6.874886 0.658270 1.000000 1.000000 1.000000 1.000000
v -4.404091 6.863787 2.565177 1.000000 1.000000 1.000000 1.000000
v -2.514734 6.869260 0.675488 1.000000 1.000000 1.000000 1.000000
v -2.505014 6.941628 0.723372 1.000000 1.000000 1.000000 1.000000
v -4.373753 6.947754 2.595532 1.000000 1.000000 1.000000 1.000000
v -4.406066 6.998173 2.563099 1.000000 1.000000 1.000000 1.000000
v -2.525084 6.999347 0.673514 1.000000 1.000000 1.000000 1.000000
v 0.000000 6.994435 0.669781 1.000000 1.000000 1.000000 1.000000
v 2.525084 6.999347 0.673514 1.000000 1.000000 1.000000 1.000000
v 0.000000 6.966373 0.709677 1.000000 1.000000 1.000000 1.000000
v 2.505014 6.941628 0.723372 1.000000 1.000000 1.000000 1.000000
v 0.000000 6.899364 0.707960 1.000000 1.000000 1.000000 1.000000
v 2.514734 6.869261 0.675488 1.000000 1.000000 1.000000 1.000000
v 0.000000 6.862670 0.637923 1.000000 1.000000 1.000000 1.000000
v 2.496447 6.900155 0.592196 1.000000 1.000000 1.000000 1.000000
v 0.000000 6.919819 0.586392 1.000000 1.000000 1.000000 1.000000
v 2.498413 6.943454 0.585864 1.000000 1.000000 1.000000 1.000000
v 0.000000 6.984856 0.603986 1.000000 1.000000 1.000000 1.000000
v 2.498743 6.992662 0.615165 1.000000 1.000000 1.000000 1.000000
v 0.000000 6.994435 0.669781 1.000000 1.000000 1.000000 1.000000
v 2.525084 6.999347 0.673514 1.000000 1.000000 1.000000 1.000000
v 5.283505 5.930016 2.453176 1.000000 1.000000 1.000000 1.000000
v 7.184662 5.927147 4.282283 1.000000 1.000000 1.000000 1.000000
v 7.145208 5.930016 4.321879 1.000000 1.000000 1.000000 1.000000
v 5.331443 5.919583 2.405096 1.000000 1.000000 1.000000 1.000000
v 7.205313 5.863054 4.261550 1.000000 1.000000 1.000000 1.000000
v 5.340761 5.846708 2.395691 1.000000 1.000000 1.000000 1.000000
v 7.179132 5.805691 4.287845 1.000000 1.000000 1.000000 1.000000
v 5.304545 5.800042 2.432039 1.000000 1.000000 1.000000 1.000000
v 7.128032 5.818900 4.339135 1.000000 1.000000 1.000000 1.000000
v 5.243239 5.865036 2.493533 1.000000 1.000000 1.000000 1.000000
v 7.112355 5.888195 4.354824 1.000000 1.000000 1.000000 1.000000
v 7.145208 5.930016 4.321879 1.000000 1.000000 1.000000 1.000000
v 5.283505 5.930016 2.453176 1.000000 1.000000 1.000000 1.000000
v 0.000000 6.966373 0.709677 1.000000 1.000000 1.000000 1.000000
v -2.525084 6.999347 0.673514 1.000000 1.000000 1.000000 1.000000
v 0.000000 6.994435 0.669781 1.000000 1.000000 1.000000 1.000000
v -2.505014 6.941628 0.723372 1.000000 1.000000 1.000000 1.000000
v 0.000000 6.899364 0.707960 1.000000 1.000000 1.000000 1.000000
v -2.514734 6.869260 0.675488 1.000000 1.000000 1.000000 1.000000
v 0.000000 6.862670 0.637923 1.000000 1.000000 1.000000 1.000000
v -2.496447 6.900155 0.592196 1.000000 1.000000 1.000000 1.000000
v 0.000000 6.919819 0.586392 1.000000 1.000000 1.000000 1.000000
v -2.498413 6.943454 0.585864 1.000000 1.000000 1.000000 1.000000
v 0.000000 6.984856 0.603986 1.000000 1.000000 1.000000 1.000000
v -2.498743 6.992662 0.615165 1.000000 1.000000 1.000000 1.000000
v 0.000000 6.994435 0.669781 1.000000 1.000000 1.000000 1.000000
v -2.525084 6.999347 0.673514 1.000000 1.000000 1.000000 1.000000
v 2.525084 6.999347 0.673514 1.000000 1.000000 1.000000 1.000000
v 4.454993 6.977503 2.513991 1.000000 1.000000 1.000000 1.000000
v 4.406066 6.998173 2.563099 1.000000 1.000000 1.000000 1.000000
v 2.602119 6.965599 0.641012 1.000000 1.000000 1.000000 1.000000
v 4.465499 6.904913 2.503464 1.000000 1.000000 1.000000 1.000000
v 2.605308 6.922945 0.636479 1.000000 1.000000 1.000000 1.000000
v 2.582973 6.874886 0.658270 1.000000 1.000000 1.000000 1.000000
v 4.404091 6.863787 2.565177 1.000000 1.000000 1.000000 1.000000
v 2.514734 6.869261 0.675488 1.000000 1.000000 1.000000 1.000000
v 2.505014 6.941628 0.723372 1.000000 1.000000 1.000000 1.000000
v 4.373753 6.947754 2.595532 1.000000 1.000000 1.000000 1.000000
v 4.406066 6.998173 2.563099 1.000000 1.000000 1.000000 1.000000
v 2.525084 6.999347 0.673514 1.000000 1.000000 1.000000 1.000000
vt 0.570312 0.720459
vt 0.591797 0.290527
vt 0.616211 0.545898
vt 0.570312 0.707275
vt 0.556152 0.305176
vt 0.591309 0.318848
vt 0.556152 0.307129
vt 0.570312 0.698486
vt 0.543457 0.694336
vt 0.556152 0.308594
vt 0.543457 0.698975
vt 0.528809 0.304688
vt 0.528320 0.302246
vt 0.543457 0.697266
vt 0.507812 0.675781
vt 0.507324 0.691406
vt 0.479980 0.415527
vt 0.527832 0.292969
vt 0.616211 0.545898
vt 0.591797 0.290527
vt 0.570312 0.720459
vt 0.556152 0.305176
vt 0.570312 0.707275
vt 0.591309 0.318848
vt 0.570312 0.698486
vt 0.556152 0.307129
vt 0.543457 0.694336
vt 0.528809 0.304688
vt 0.543457 0.698975
vt 0.556152 0.308594
vt 0.543457 0.697266
vt 0.528320 0.302246
vt 0.507812 0.675781
vt 0.479980 0.415527
vt 0.507324 0.691406
vt 0.527832 0.292969
vt 0.624512 0.688477
vt 0.624512 0.312500
vt 0.589844 0.312500
vt 0.582031 0.688477
vt 0.546387 0.312500
vt 0.536133 0.688477
vt 0.504395 0.312500
vt 0.493408 0.688477
vt 0.458496 0.312500
vt 0.426758 0.688477
vt 0.413574 0.312988
vt 0.375000 0.312500
vt 0.375000 0.688477
vt 0.623535 0.692627
vt 0.624512 0.312500
vt 0.578613 0.312500
vt 0.569824 0.687988
vt 0.533203 0.312500
vt 0.543457 0.688232
vt 0.507324 0.688232
vt 0.474365 0.312500
vt 0.470703 0.693359
vt 0.420166 0.689697
vt 0.416504 0.312988
vt 0.374023 0.312500
vt 0.372559 0.692627
vt 0.375000 0.688477
vt 0.374756 0.309082
vt 0.404785 0.688477
vt 0.419922 0.312012
vt 0.446045 0.688477
vt 0.472656 0.310547
vt 0.494141 0.688477
vt 0.528809 0.313477
vt 0.541504 0.688477
vt 0.556152 0.312988
vt 0.583496 0.688477
vt 0.590820 0.312988
vt 0.624512 0.688477
vt 0.626953 0.309082
vt 0.624512 0.688477
vt 0.589844 0.312500
vt 0.624512 0.312500
vt 0.582031 0.688477
vt 0.546387 0.312500
vt 0.536133 0.688477
vt 0.504395 0.312500
vt 0.493408 0.688477
vt 0.458496 0.312500
vt 0.426758 0.688477
vt 0.413574 0.312988
vt 0.375000 0.312500
vt 0.375000 0.688477
vt 0.404785 0.688477
vt 0.374756 0.309082
vt 0.375000 0.688477
vt 0.419922 0.312012
vt 0.446045 0.688477
vt 0.472656 0.310547
vt 0.494141 0.688477
vt 0.528809 0.313477
vt 0.541504 0.688477
vt 0.556152 0.312988
vt 0.583496 0.688477
vt 0.590820 0.312988
vt 0.624512 0.688477
vt 0.626953 0.309082
vt 0.623535 0.692627
vt 0.578613 0.312500
vt 0.624512 0.312500
vt 0.569824 0.687988
vt 0.533203 0.312500
vt 0.543457 0.688232
vt 0.507324 0.688232
vt 0.474365 0.312500
vt 0.470703 0.693359
vt 0.420166 0.689697
vt 0.416504 0.312988
vt 0.374023 0.312500
vt 0.372559 0.692627
vt1 0.944824 0.058594
vt1 0.957031 0.031250
vt1 0.971680 0.047363
vt1 0.944336 0.058105
vt1 0.936523 0.032227
vt1 0.957031 0.033203
vt1 0.936523 0.032227
vt1 0.944336 0.057129
vt1 0.928711 0.057129
vt1 0.936035 0.032227
vt1 0.928711 0.057129
vt1 0.920410 0.032227
vt1 0.919922 0.031738
vt1 0.928711 0.057129
vt1 0.908203 0.055664
vt1 0.907715 0.056641
vt1 0.891602 0.039062
vt1 0.919922 0.031250
vt1 0.793945 0.047363
vt1 0.779785 0.031250
vt1 0.767090 0.058594
vt1 0.758789 0.032227
vt1 0.767090 0.058105
vt1 0.779297 0.033203
vt1 0.767090 0.057129
vt1 0.758789 0.032227
vt1 0.751465 0.057129
vt1 0.743164 0.032227
vt1 0.751465 0.057129
vt1 0.758789 0.032227
vt1 0.751465 0.057129
vt1 0.742676 0.031738
vt1 0.730957 0.055664
vt1 0.714355 0.039062
vt1 0.730469 0.056641
vt1 0.742676 0.031250
vt1 0.637207 0.991936
vt1 0.637207 0.030762
vt1 0.617188 0.030762
vt1 0.612305 0.991928
vt1 0.591309 0.030762
vt1 0.585449 0.991943
vt1 0.566895 0.030762
vt1 0.560547 0.991943
vt1 0.540527 0.030762
vt1 0.521973 0.991951
vt1 0.514160 0.030762
vt1 0.491699 0.030762
vt1 0.491699 0.991936
vt1 0.152710 1.002275
vt1 0.153320 0.030762
vt1 0.126709 0.030762
vt1 0.121643 0.990761
vt1 0.100281 0.030762
vt1 0.106262 0.991104
vt1 0.085144 0.991272
vt1 0.065918 0.030762
vt1 0.063843 1.004436
vt1 0.034454 0.994640
vt1 0.032318 0.030762
vt1 0.007618 0.030762
vt1 0.006699 1.002279
vt1 0.830566 0.991936
vt1 0.830078 0.071777
vt1 0.848145 0.991936
vt1 0.856934 0.079102
vt1 0.872070 0.991936
vt1 0.887695 0.075684
vt1 0.900391 0.991943
vt1 0.920898 0.082520
vt1 0.928223 0.991936
vt1 0.936523 0.081543
vt1 0.952637 0.991936
vt1 0.957031 0.081543
vt1 0.977051 0.991936
vt1 0.978516 0.071777
vt1 0.476074 0.991936
vt1 0.455811 0.030762
vt1 0.476074 0.030762
vt1 0.451172 0.991928
vt1 0.430420 0.030762
vt1 0.424561 0.991943
vt1 0.406006 0.030762
vt1 0.399658 0.991943
vt1 0.379150 0.030762
vt1 0.360840 0.991951
vt1 0.353027 0.030762
vt1 0.330566 0.030762
vt1 0.330566 0.991936
vt1 0.670410 0.991936
vt1 0.652832 0.071777
vt1 0.652832 0.991936
vt1 0.679199 0.079102
vt1 0.694824 0.991936
vt1 0.710449 0.075684
vt1 0.723145 0.991943
vt1 0.743164 0.082520
vt1 0.750488 0.991936
vt1 0.759277 0.081543
vt1 0.775391 0.991936
vt1 0.779785 0.081543
vt1 0.799316 0.991936
vt1 0.800781 0.071777
vt1 0.313965 1.002275
vt1 0.287842 0.030762
vt1 0.314453 0.030762
vt1 0.282959 0.990761
vt1 0.261475 0.030762
vt1 0.267334 0.991104
vt1 0.246460 0.991272
vt1 0.227173 0.030762
vt1 0.225098 1.004436
vt1 0.195679 0.994640
vt1 0.193604 0.030762
vt1 0.168823 0.030762
vt1 0.167969 1.002279
vn -0.212598 0.874016 -0.433071
vn -0.212598 0.874016 -0.433071
vn -0.212598 0.874016 -0.433071
vn -0.393701 0.425197 -0.818898
vn -0.393701 0.425197 -0.818898
vn -0.393701 0.425197 -0.818898
vn -0.425197 0.141732 -0.889764
vn -0.425197 0.141732 -0.889764
vn -0.425197 0.141732 -0.889764
vn -0.425197 -0.141732 -0.889764
vn -0.425197 -0.141732 -0.889764
vn -0.425197 -0.141732 -0.889764
vn -0.393701 -0.425197 -0.818897
vn -0.393701 -0.425197 -0.818897
vn -0.393701 -0.425197 -0.818897
vn -0.212598 -0.874016 -0.433071
vn -0.212598 -0.874016 -0.433071
vn -0.212598 -0.874016 -0.433071
vn 0.212598 0.874016 -0.433071
vn 0.212598 0.874016 -0.433071
vn 0.212598 0.874016 -0.433071
vn 0.393701 0.425197 -0.818898
vn 0.393701 0.425197 -0.818898
vn 0.393701 0.425197 -0.818898
vn 0.425197 0.141732 -0.889764
vn 0.425197 0.141732 -0.889764
vn 0.425197 0.141732 -0.889764
vn 0.425197 -0.141732 -0.889764
vn 0.425197 -0.141732 -0.889764
vn 0.425197 -0.141732 -0.889764
vn 0.393701 -0.425197 -0.818897
vn 0.393701 -0.425197 -0.818897
vn 0.393701 -0.425197 -0.818897
vn 0.212598 -0.874016 -0.433071
vn 0.212598 -0.874016 -0.433071
vn 0.212598 -0.874016 -0.433071
vn 0.220472 0.952756 0.220472
vn 0.220472 0.952756 0.220472
vn -0.377953 0.842520 -0.377953
vn -0.496063 0.716535 -0.496063
vn -0.708661 -0.086614 -0.700787
vn -0.669291 -0.330709 -0.669291
vn -0.299213 -0.905512 -0.299212
vn -0.102362 -0.992126 -0.102362
vn 0.472441 -0.740157 0.472441
vn 0.708661 -0.055118 0.708661
vn 0.685039 0.267717 0.677165
vn 0.220472 0.952756 0.220472
vn 0.220472 0.952756 0.220472
vn 0.149606 0.976378 0.149606
vn 0.188976 0.960630 0.188976
vn -0.535433 0.661417 -0.527559
vn -0.622047 0.480315 -0.622047
vn -0.645669 -0.401575 -0.645669
vn -0.700787 -0.157480 -0.692913
vn -0.338583 -0.881890 -0.338583
vn 0.228346 -0.944882 0.228347
vn 0.307087 -0.897638 0.307087
vn 0.700787 0.118110 0.700787
vn 0.692913 0.204724 0.692913
vn 0.212598 0.952756 0.204724
vn 0.188976 0.960630 0.188976
vn 0.000000 0.952756 0.307086
vn 0.000000 0.952756 0.307086
vn 0.000000 0.480315 0.874016
vn 0.000000 0.125984 0.992126
vn 0.000000 -0.503937 0.858268
vn 0.000000 -0.937008 0.346457
vn 0.000000 -0.984252 -0.173228
vn 0.000000 -0.503937 -0.866142
vn 0.000000 -0.204724 -0.976378
vn 0.000000 0.157480 -0.984252
vn 0.000000 0.748031 -0.669291
vn 0.000000 0.866142 -0.503937
vn 0.000000 0.952756 0.307086
vn 0.000000 0.937008 0.354331
vn -0.220472 0.952756 0.220472
vn 0.377953 0.842520 -0.377953
vn -0.220472 0.952756 0.220472
vn 0.496063 0.716535 -0.496063
vn 0.708661 -0.086614 -0.700787
vn 0.669291 -0.330709 -0.669291
vn 0.299213 -0.905512 -0.299212
vn 0.102362 -0.992126 -0.102362
vn -0.472441 -0.740157 0.472441
vn -0.708661 -0.055118 0.708661
vn -0.685039 0.267717 0.677165
vn -0.220472 0.952756 0.220472
vn -0.220472 0.952756 0.220472
vn 0.000000 0.480315 0.874016
vn 0.000000 0.952756 0.307086
vn 0.000000 0.952756 0.307086
vn 0.000000 0.125984 0.992126
vn 0.000000 -0.503937 0.858268
vn 0.000000 -0.937008 0.346457
vn 0.000000 -0.984252 -0.173228
vn 0.000000 -0.503937 -0.866142
vn 0.000000 -0.204724 -0.976378
vn 0.000000 0.157480 -0.984252
vn 0.000000 0.748031 -0.669291
vn 0.000000 0.866142 -0.503937
vn 0.000000 0.952756 0.307086
vn 0.000000 0.937008 0.354331
vn -0.149606 0.976378 0.149606
vn 0.535433 0.661417 -0.527559
vn -0.188976 0.960630 0.188976
vn 0.622047 0.480315 -0.622047
vn 0.645669 -0.401575 -0.645669
vn 0.700787 -0.157480 -0.692913
vn 0.338583 -0.881890 -0.338583
vn -0.228346 -0.944882 0.228347
vn -0.307087 -0.897638 0.307087
vn -0.700787 0.118110 0.700787
vn -0.692913 0.204724 0.692913
vn -0.212598 0.952756 0.204724
vn -0.188976 0.960630 0.188976
tan 0.612437 -0.162998 -0.629611 1.000000
tan 0.880836 0.209188 -0.010230 1.000000
tan 0.560853 -0.195176 -0.669229 1.000000
tan 0.780706 -0.277761 -0.519561 1.000000
tan 0.852626 -0.014384 -0.417385 1.000000
tan 0.832290 0.057536 -0.370265 1.000000
tan 0.890880 -0.003658 -0.426313 1.000000
tan 0.890880 -0.059706 -0.435241 1.000000
tan 0.890880 -0.066712 -0.436357 1.000000
tan 0.890880 0.010664 -0.427429 1.000000
tan 0.890880 0.059706 -0.435241 1.000000
tan 0.890880 -0.010354 -0.424081 1.000000
tan 0.845682 -0.018352 -0.397049 1.000000
tan 0.787650 0.278256 -0.523157 1.000000
tan 0.793354 0.213032 -0.492033 1.000000
tan 0.522971 0.225680 -0.712195 1.000000
tan 0.729432 0.066340 -0.491971 1.000000
tan 0.860190 -0.303057 0.189348 1.000000
tan -0.560853 -0.195176 -0.669229 1.000000
tan -0.880836 0.209188 -0.010230 1.000000
tan -0.612437 -0.162998 -0.629611 1.000000
tan -0.852626 -0.014384 -0.417385 1.000000
tan -0.780706 -0.277761 -0.519561 1.000000
tan -0.832290 0.057536 -0.370265 1.000000
tan -0.890880 -0.059706 -0.435241 1.000000
tan -0.890880 -0.003658 -0.426313 1.000000
tan -0.890880 -0.066712 -0.436357 1.000000
tan -0.890880 -0.010354 -0.424081 1.000000
tan -0.890880 0.059706 -0.435241 1.000000
tan -0.890880 0.010664 -0.427429 1.000000
tan -0.787650 0.278256 -0.523157 1.000000
tan -0.845682 -0.018352 -0.397049 1.000000
tan -0.793354 0.213032 -0.492033 1.000000
tan -0.729432 0.066340 -0.491971 1.000000
tan -0.522971 0.225680 -0.712195 1.000000
tan -0.860190 -0.303057 0.189348 1.000000
tan -0.682125 0.000000 0.682125 1.000000
tan -0.682125 0.000000 0.682125 1.000000
tan -0.641701 -0.002976 0.635067 1.000000
tan -0.686155 -0.003906 0.680513 1.000000
tan -0.702151 0.000124 0.710025 1.000000
tan -0.697873 0.005270 0.695269 1.000000
tan -0.644057 0.000000 0.644057 1.000000
tan -0.703081 0.000000 0.703081 1.000000
tan -0.629797 -0.003720 0.623969 1.000000
tan -0.710831 0.000000 0.710831 1.000000
tan -0.702337 0.006386 0.707979 1.000000
tan -0.682125 0.000000 0.682125 1.000000
tan -0.682125 0.000000 0.682125 1.000000
tan -0.693099 0.000000 0.693099 1.000000
tan -0.682249 0.000000 0.682249 1.000000
tan -0.691735 -0.008680 0.691177 1.000000
tan -0.709653 -0.004898 0.705871 1.000000
tan -0.704259 0.005084 0.701097 1.000000
tan -0.695393 0.000124 0.703267 1.000000
tan -0.640957 0.002666 0.634013 1.000000
tan -0.669601 0.000000 0.669601 1.000000
tan -0.631285 -0.002418 0.624217 1.000000
tan -0.703701 0.000000 0.703701 1.000000
tan -0.705189 0.000000 0.705189 1.000000
tan -0.675181 0.005580 0.675181 1.000000
tan -0.679273 0.000000 0.679273 1.000000
tan 0.962428 0.000000 0.000000 1.000000
tan 0.952756 0.000000 0.000000 1.000000
tan 0.916300 0.000000 0.000000 1.000000
tan 0.992126 0.000000 0.000000 1.000000
tan 0.897948 0.000000 0.000000 1.000000
tan 0.939736 0.000000 0.000000 1.000000
tan 0.984252 0.000000 0.000000 1.000000
tan 0.914874 0.000000 0.000000 1.000000
tan 0.976378 0.000000 0.000000 1.000000
tan 0.984252 0.000000 0.000000 1.000000
tan 1.004402 0.000000 0.000000 1.000000
tan 0.918842 0.000000 0.000000 1.000000
tan 0.962428 0.000000 0.000000 1.000000
tan 0.939798 0.000000 0.000000 1.000000
tan 0.682125 0.000000 0.682125 1.000000
tan 0.641701 -0.002976 0.635067 1.000000
tan 0.682125 0.000000 0.682125 1.000000
tan 0.686155 -0.003906 0.680513 1.000000
tan 0.702151 0.000124 0.710025 1.000000
tan 0.697873 0.005270 0.695269 1.000000
tan 0.644057 0.000000 0.644057 1.000000
tan 0.703081 0.000000 0.703081 1.000000
tan 0.629797 -0.003720 0.623969 1.000000
tan 0.710831 0.000000 0.710831 1.000000
tan 0.702337 0.006386 0.707979 1.000000
tan 0.682125 0.000000 0.682125 1.000000
tan 0.682125 0.000000 0.682125 1.000000
tan -0.916300 0.000000 0.000000 1.000000
tan -0.952756 0.000000 0.000000 1.000000
tan -0.962428 0.000000 0.000000 1.000000
tan -0.992126 0.000000 0.000000 1.000000
tan -0.897948 0.000000 0.000000 1.000000
tan -0.939736 0.000000 0.000000 1.000000
tan -0.984252 0.000000 0.000000 1.000000
tan -0.914874 0.000000 0.000000 1.000000
tan -0.976378 0.000000 0.000000 1.000000
tan -0.984252 0.000000 0.000000 1.000000
tan -1.004402 0.000000 0.000000 1.000000
tan -0.918842 0.000000 0.000000 1.000000
tan -0.962428 0.000000 0.000000 1.000000
tan -0.939798 0.000000 0.000000 1.000000
tan 0.693099 0.000000 0.693099 1.000000
tan 0.691735 -0.008680 0.691177 1.000000
tan 0.682249 0.000000 0.682249 1.000000
tan 0.709653 -0.004898 0.705871 1.000000
tan 0.704259 0.005084 0.701097 1.000000
tan 0.695393 0.000124 0.703267 1.000000
tan 0.640957 0.002666 0.634013 1.000000
tan 0.669601 0.000000 0.669601 1.000000
tan 0.631285 -0.002418 0.624217 1.000000
tan 0.703701 0.000000 0.703701 1.000000
tan 0.705189 0.000000 0.705189 1.000000
tan 0.675181 0.005580 0.675181 1.000000
tan 0.679273 0.000000 0.679273 1.000000
f 3/3/3 2/2/2 1/1/1
f 6/6/6 5/5/5 4/4/4
f 9/9/9 8/8/8 7/7/7
f 12/12/12 11/11/11 10/10/10
f 15/15/15 14/14/14 13/13/13
f 18/18/18 17/17/17 16/16/16
f 21/21/21 20/20/20 19/19/19
f 24/24/24 23/23/23 22/22/22
f 27/27/27 26/26/26 25/25/25
f 30/30/30 29/29/29 28/28/28
f 33/33/33 32/32/32 31/31/31
f 36/36/36 35/35/35 34/34/34
f 39/39/39 38/38/38 37/37/37
f 37/37/37 40/40/40 39/39/39
f 41/41/41 39/39/39 40/40/40
f 42/42/42 41/41/41 40/40/40
f 43/43/43 41/41/41 42/42/42
f 42/42/42 44/44/44 43/43/43
f 45/45/45 43/43/43 44/44/44
f 44/44/44 46/46/46 45/45/45
f 47/47/47 45/45/45 46/46/46
f 48/48/48 47/47/47 46/46/46
f 46/46/46 49/49/49 48/48/48
f 52/52/52 51/51/51 50/50/50
f 50/50/50 53/53/53 52/52/52
f 52/52/52 53/53/53 54/54/54
f 55/55/55 54/54/54 53/53/53
f 55/55/55 56/56/56 54/54/54
f 57/57/57 54/54/54 56/56/56
f 56/56/56 58/58/58 57/57/57
f 58/58/58 59/59/59 57/57/57
f 60/60/60 57/57/57 59/59/59
f 61/61/61 60/60/60 59/59/59
f 59/59/59 62/62/62 61/61/61
f 65/65/65 64/64/64 63/63/63
f 64/64/64 65/65/65 66/66/66
f 65/65/65 67/67/67 66/66/66
f 68/68/68 66/66/66 67/67/67
f 67/67/67 69/69/69 68/68/68
f 70/70/70 68/68/68 69/69/69
f 69/69/69 71/71/71 70/70/70
f 72/72/72 70/70/70 71/71/71
f 71/71/71 73/73/73 72/72/72
f 74/74/74 72/72/72 73/73/73
f 75/75/75 74/74/74 73/73/73
f 74/74/74 75/75/75 76/76/76
f 79/79/79 78/78/78 77/77/77
f 80/80/80 77/77/77 78/78/78
f 78/78/78 81/81/81 80/80/80
f 80/80/80 81/81/81 82/82/82
f 83/83/83 82/82/82 81/81/81
f 82/82/82 83/83/83 84/84/84
f 85/85/85 84/84/84 83/83/83
f 84/84/84 85/85/85 86/86/86
f 87/87/87 86/86/86 85/85/85
f 87/87/87 88/88/88 86/86/86
f 89/89/89 86/86/86 88/88/88
f 92/92/92 91/91/91 90/90/90
f 93/93/93 90/90/90 91/91/91
f 90/90/90 93/93/93 94/94/94
f 93/93/93 95/95/95 94/94/94
f 94/94/94 95/95/95 96/96/96
f 95/95/95 97/97/97 96/96/96
f 96/96/96 97/97/97 98/98/98
f 97/97/97 99/99/99 98/98/98
f 98/98/98 99/99/99 100/100/100
f 99/99/99 101/101/101 100/100/100
f 100/100/100 101/101/101 102/102/102
f 103/103/103 102/102/102 101/101/101
f 106/106/106 105/105/105 104/104/104
f 107/107/107 104/104/104 105/105/105
f 105/105/105 108/108/108 107/107/107
f 107/107/107 108/108/108 109/109/109
f 109/109/109 108/108/108 110/110/110
f 111/111/111 110/110/110 108/108/108
f 110/110/110 111/111/111 112/112/112
f 112/112/112 111/111/111 113/113/113
f 114/114/114 113/113/113 111/111/111
f 114/114/114 115/115/115 113/113/113
f 116/116/116 113/113/113 115/115/115
