mtllib SM_Curtain_Rod_01@000002909DC4EB00.mtl
g SM_Curtain_Rod_01@000002909DC4EB00
#Vertices 412
#Indices 960
#Section 0 Offset 0 NumIndices 960 MaterialIndex 0 MI_MetalTile_A_03
v -2.544940 6.994435 0.693819 1.000000 1.000000 1.000000 1.000000
v -2.500000 6.985310 0.687691 1.000000 1.000000 1.000000 1.000000
v -2.532463 6.985310 0.706343 1.000000 1.000000 1.000000 1.000000
v -2.500000 6.994435 0.669781 1.000000 1.000000 1.000000 1.000000
v -2.558770 6.997580 0.679937 1.000000 1.000000 1.000000 1.000000
v -2.500000 6.994435 0.669781 1.000000 1.000000 1.000000 1.000000
v -2.544940 6.994435 0.693819 1.000000 1.000000 1.000000 1.000000
v -2.500000 6.997580 0.649927 1.000000 1.000000 1.000000 1.000000
v -2.572600 6.994435 0.666054 1.000000 1.000000 1.000000 1.000000
v -2.500000 6.997580 0.649927 1.000000 1.000000 1.000000 1.000000
v -2.558770 6.997580 0.679937 1.000000 1.000000 1.000000 1.000000
v -2.500000 6.994435 0.630074 1.000000 1.000000 1.000000 1.000000
v -2.585077 6.985310 0.653531 1.000000 1.000000 1.000000 1.000000
v -2.500000 6.985310 0.612164 1.000000 1.000000 1.000000 1.000000
v -2.500000 6.994435 0.630074 1.000000 1.000000 1.000000 1.000000
v -2.572600 6.994435 0.666054 1.000000 1.000000 1.000000 1.000000
v -2.594979 6.971096 0.643592 1.000000 1.000000 1.000000 1.000000
v -2.500000 6.971096 0.597951 1.000000 1.000000 1.000000 1.000000
v -2.500000 6.985310 0.612164 1.000000 1.000000 1.000000 1.000000
v -2.585077 6.985310 0.653531 1.000000 1.000000 1.000000 1.000000
v -2.594979 6.971096 0.643592 1.000000 1.000000 1.000000 1.000000
v -2.500000 6.953186 0.588825 1.000000 1.000000 1.000000 1.000000
v -2.500000 6.971096 0.597951 1.000000 1.000000 1.000000 1.000000
v -2.601336 6.953186 0.637211 1.000000 1.000000 1.000000 1.000000
v -2.601336 6.953186 0.637211 1.000000 1.000000 1.000000 1.000000
v -2.500000 6.933332 0.585681 1.000000 1.000000 1.000000 1.000000
v -2.500000 6.953186 0.588825 1.000000 1.000000 1.000000 1.000000
v -2.603527 6.933332 0.635012 1.000000 1.000000 1.000000 1.000000
v -2.601336 6.913479 0.637211 1.000000 1.000000 1.000000 1.000000
v -2.500000 6.933332 0.585681 1.000000 1.000000 1.000000 1.000000
v -2.603527 6.933332 0.635012 1.000000 1.000000 1.000000 1.000000
v -2.500000 6.913479 0.588825 1.000000 1.000000 1.000000 1.000000
v -2.500000 6.913479 0.588825 1.000000 1.000000 1.000000 1.000000
v -2.601336 6.913479 0.637211 1.000000 1.000000 1.000000 1.000000
v -2.594979 6.895570 0.643592 1.000000 1.000000 1.000000 1.000000
v -2.500000 6.895570 0.597951 1.000000 1.000000 1.000000 1.000000
v -2.594979 6.895570 0.643592 1.000000 1.000000 1.000000 1.000000
v -2.500000 6.881356 0.612164 1.000000 1.000000 1.000000 1.000000
v -2.500000 6.895570 0.597951 1.000000 1.000000 1.000000 1.000000
v -2.585077 6.881356 0.653531 1.000000 1.000000 1.000000 1.000000
v -2.585077 6.881356 0.653531 1.000000 1.000000 1.000000 1.000000
v -2.500000 6.872231 0.630074 1.000000 1.000000 1.000000 1.000000
v -2.500000 6.881356 0.612164 1.000000 1.000000 1.000000 1.000000
v -2.572600 6.872231 0.666054 1.000000 1.000000 1.000000 1.000000
v -2.572600 6.872231 0.666054 1.000000 1.000000 1.000000 1.000000
v -2.500000 6.869086 0.649927 1.000000 1.000000 1.000000 1.000000
v -2.500000 6.872231 0.630074 1.000000 1.000000 1.000000 1.000000
v -2.558770 6.869086 0.679937 1.000000 1.000000 1.000000 1.000000
v -2.558770 6.869086 0.679937 1.000000 1.000000 1.000000 1.000000
v -2.500000 6.872231 0.669781 1.000000 1.000000 1.000000 1.000000
v -2.500000 6.869086 0.649927 1.000000 1.000000 1.000000 1.000000
v -2.544940 6.872231 0.693819 1.000000 1.000000 1.000000 1.000000
v -2.544940 6.872231 0.693819 1.000000 1.000000 1.000000 1.000000
v -2.500000 6.881356 0.687691 1.000000 1.000000 1.000000 1.000000
v -2.500000 6.872231 0.669781 1.000000 1.000000 1.000000 1.000000
v -2.532463 6.881356 0.706343 1.000000 1.000000 1.000000 1.000000
v -2.532463 6.881356 0.706343 1.000000 1.000000 1.000000 1.000000
v -2.500000 6.895570 0.701904 1.000000 1.000000 1.000000 1.000000
v -2.500000 6.881356 0.687691 1.000000 1.000000 1.000000 1.000000
v -2.522562 6.895570 0.716282 1.000000 1.000000 1.000000 1.000000
v -2.522562 6.895570 0.716282 1.000000 1.000000 1.000000 1.000000
v -2.516204 6.913479 0.722663 1.000000 1.000000 1.000000 1.000000
v -2.500000 6.895570 0.701904 1.000000 1.000000 1.000000 1.000000
v -2.500000 6.913479 0.711030 1.000000 1.000000 1.000000 1.000000
v -2.514014 6.933332 0.724861 1.000000 1.000000 1.000000 1.000000
v -2.500000 6.913479 0.711030 1.000000 1.000000 1.000000 1.000000
v -2.516204 6.913479 0.722663 1.000000 1.000000 1.000000 1.000000
v -2.500000 6.933332 0.714174 1.000000 1.000000 1.000000 1.000000
v -2.514014 6.933332 0.724861 1.000000 1.000000 1.000000 1.000000
v -2.500000 6.953186 0.711030 1.000000 1.000000 1.000000 1.000000
v -2.500000 6.933332 0.714174 1.000000 1.000000 1.000000 1.000000
v -2.516204 6.953186 0.722663 1.000000 1.000000 1.000000 1.000000
v -2.516204 6.953186 0.722663 1.000000 1.000000 1.000000 1.000000
v -2.500000 6.971096 0.701904 1.000000 1.000000 1.000000 1.000000
v -2.500000 6.953186 0.711030 1.000000 1.000000 1.000000 1.000000
v -2.522562 6.971096 0.716282 1.000000 1.000000 1.000000 1.000000
v -2.532463 6.985310 0.706343 1.000000 1.000000 1.000000 1.000000
v -2.500000 6.971096 0.701904 1.000000 1.000000 1.000000 1.000000
v -2.522562 6.971096 0.716282 1.000000 1.000000 1.000000 1.000000
v -2.500000 6.985310 0.687691 1.000000 1.000000 1.000000 1.000000
v 2.544940 6.994435 0.693819 1.000000 1.000000 1.000000 1.000000
v 2.500000 6.985310 0.687691 1.000000 1.000000 1.000000 1.000000
v 2.500000 6.994435 0.669781 1.000000 1.000000 1.000000 1.000000
v 2.532463 6.985310 0.706343 1.000000 1.000000 1.000000 1.000000
v 2.558770 6.997580 0.679937 1.000000 1.000000 1.000000 1.000000
v 2.500000 6.994435 0.669781 1.000000 1.000000 1.000000 1.000000
v 2.500000 6.997580 0.649927 1.000000 1.000000 1.000000 1.000000
v 2.544940 6.994435 0.693819 1.000000 1.000000 1.000000 1.000000
v 2.572600 6.994435 0.666054 1.000000 1.000000 1.000000 1.000000
v 2.500000 6.997580 0.649927 1.000000 1.000000 1.000000 1.000000
v 2.500000 6.994435 0.630074 1.000000 1.000000 1.000000 1.000000
v 2.558770 6.997580 0.679937 1.000000 1.000000 1.000000 1.000000
v 2.585077 6.985310 0.653531 1.000000 1.000000 1.000000 1.000000
v 2.500000 6.994435 0.630074 1.000000 1.000000 1.000000 1.000000
v 2.500000 6.985310 0.612164 1.000000 1.000000 1.000000 1.000000
v 2.572600 6.994435 0.666054 1.000000 1.000000 1.000000 1.000000
v 2.594979 6.971096 0.643592 1.000000 1.000000 1.000000 1.000000
v 2.500000 6.985310 0.612164 1.000000 1.000000 1.000000 1.000000
v 2.500000 6.971096 0.597951 1.000000 1.000000 1.000000 1.000000
v 2.585077 6.985310 0.653531 1.000000 1.000000 1.000000 1.000000
v 2.500000 6.953186 0.588825 1.000000 1.000000 1.000000 1.000000
v 2.594979 6.971096 0.643592 1.000000 1.000000 1.000000 1.000000
v 2.500000 6.971096 0.597951 1.000000 1.000000 1.000000 1.000000
v 2.601336 6.953186 0.637211 1.000000 1.000000 1.000000 1.000000
v 2.500000 6.933332 0.585681 1.000000 1.000000 1.000000 1.000000
v 2.601336 6.953186 0.637211 1.000000 1.000000 1.000000 1.000000
v 2.500000 6.953186 0.588825 1.000000 1.000000 1.000000 1.000000
v 2.603527 6.933332 0.635012 1.000000 1.000000 1.000000 1.000000
v 2.500000 6.913479 0.588825 1.000000 1.000000 1.000000 1.000000
v 2.601336 6.913479 0.637211 1.000000 1.000000 1.000000 1.000000
v 2.500000 6.933332 0.585681 1.000000 1.000000 1.000000 1.000000
v 2.603527 6.933332 0.635012 1.000000 1.000000 1.000000 1.000000
v 2.500000 6.895570 0.597951 1.000000 1.000000 1.000000 1.000000
v 2.594979 6.895570 0.643592 1.000000 1.000000 1.000000 1.000000
v 2.500000 6.913479 0.588825 1.000000 1.000000 1.000000 1.000000
v 2.601336 6.913479 0.637211 1.000000 1.000000 1.000000 1.000000
v 2.594979 6.895570 0.643592 1.000000 1.000000 1.000000 1.000000
v 2.500000 6.881356 0.612164 1.000000 1.000000 1.000000 1.000000
v 2.585077 6.881356 0.653531 1.000000 1.000000 1.000000 1.000000
v 2.500000 6.895570 0.597951 1.000000 1.000000 1.000000 1.000000
v 2.585077 6.881356 0.653531 1.000000 1.000000 1.000000 1.000000
v 2.500000 6.872231 0.630074 1.000000 1.000000 1.000000 1.000000
v 2.572600 6.872231 0.666054 1.000000 1.000000 1.000000 1.000000
v 2.500000 6.881356 0.612164 1.000000 1.000000 1.000000 1.000000
v 2.572600 6.872231 0.666054 1.000000 1.000000 1.000000 1.000000
v 2.500000 6.869086 0.649927 1.000000 1.000000 1.000000 1.000000
v 2.558770 6.869086 0.679937 1.000000 1.000000 1.000000 1.000000
v 2.500000 6.872231 0.630074 1.000000 1.000000 1.000000 1.000000
v 2.558770 6.869086 0.679937 1.000000 1.000000 1.000000 1.000000
v 2.500000 6.872231 0.669781 1.000000 1.000000 1.000000 1.000000
v 2.544940 6.872231 0.693819 1.000000 1.000000 1.000000 1.000000
v 2.500000 6.869086 0.649927 1.000000 1.000000 1.000000 1.000000
v 2.544940 6.872231 0.693819 1.000000 1.000000 1.000000 1.000000
v 2.500000 6.881356 0.687691 1.000000 1.000000 1.000000 1.000000
v 2.532463 6.881356 0.706343 1.000000 1.000000 1.000000 1.000000
v 2.500000 6.872231 0.669781 1.000000 1.000000 1.000000 1.000000
v 2.532463 6.881356 0.706343 1.000000 1.000000 1.000000 1.000000
v 2.500000 6.895570 0.701904 1.000000 1.000000 1.000000 1.000000
v 2.522562 6.895570 0.716282 1.000000 1.000000 1.000000 1.000000
v 2.500000 6.881356 0.687691 1.000000 1.000000 1.000000 1.000000
v 2.522562 6.895570 0.716282 1.000000 1.000000 1.000000 1.000000
v 2.500000 6.895570 0.701904 1.000000 1.000000 1.000000 1.000000
v 2.516204 6.913479 0.722663 1.000000 1.000000 1.000000 1.000000
v 2.500000 6.913479 0.711030 1.000000 1.000000 1.000000 1.000000
v 2.516204 6.913479 0.722663 1.000000 1.000000 1.000000 1.000000
v 2.500000 6.913479 0.711030 1.000000 1.000000 1.000000 1.000000
v 2.514014 6.933332 0.724861 1.000000 1.000000 1.000000 1.000000
v 2.500000 6.933332 0.714174 1.000000 1.000000 1.000000 1.000000
v 2.514014 6.933332 0.724861 1.000000 1.000000 1.000000 1.000000
v 2.500000 6.953186 0.711030 1.000000 1.000000 1.000000 1.000000
v 2.516204 6.953186 0.722663 1.000000 1.000000 1.000000 1.000000
v 2.500000 6.933332 0.714174 1.000000 1.000000 1.000000 1.000000
v 2.500000 6.971096 0.701904 1.000000 1.000000 1.000000 1.000000
v 2.516204 6.953186 0.722663 1.000000 1.000000 1.000000 1.000000
v 2.500000 6.953186 0.711030 1.000000 1.000000 1.000000 1.000000
v 2.522562 6.971096 0.716282 1.000000 1.000000 1.000000 1.000000
v 2.532463 6.985310 0.706343 1.000000 1.000000 1.000000 1.000000
v 2.500000 6.971096 0.701904 1.000000 1.000000 1.000000 1.000000
v 2.500000 6.985310 0.687691 1.000000 1.000000 1.000000 1.000000
v 2.522562 6.971096 0.716282 1.000000 1.000000 1.000000 1.000000
v -7.145208 5.930016 4.321879 1.000000 1.000000 1.000000 1.000000
v -5.283505 5.930016 2.453176 1.000000 1.000000 1.000000 1.000000
v -5.271029 5.920890 2.465700 1.000000 1.000000 1.000000 1.000000
v -7.132730 5.920890 4.334403 1.000000 1.000000 1.000000 1.000000
v -5.261127 5.906676 2.475639 1.000000 1.000000 1.000000 1.000000
v -7.122830 5.906676 4.344341 1.000000 1.000000 1.000000 1.000000
v -5.254770 5.888767 2.482020 1.000000 1.000000 1.000000 1.000000
v -7.116473 5.888767 4.350722 1.000000 1.000000 1.000000 1.000000
v -5.252579 5.868914 2.484219 1.000000 1.000000 1.000000 1.000000
v -7.114282 5.868914 4.352921 1.000000 1.000000 1.000000 1.000000
v -7.116473 5.849060 4.350722 1.000000 1.000000 1.000000 1.000000
v -5.254770 5.849060 2.482020 1.000000 1.000000 1.000000 1.000000
v -7.122830 5.831150 4.344341 1.000000 1.000000 1.000000 1.000000
v -5.261127 5.831150 2.475639 1.000000 1.000000 1.000000 1.000000
v -7.132730 5.816936 4.334403 1.000000 1.000000 1.000000 1.000000
v -5.271029 5.816936 2.465700 1.000000 1.000000 1.000000 1.000000
v -7.145208 5.807811 4.321879 1.000000 1.000000 1.000000 1.000000
v -5.283505 5.807811 2.453176 1.000000 1.000000 1.000000 1.000000
v -7.159038 5.804667 4.307996 1.000000 1.000000 1.000000 1.000000
v -5.297336 5.804667 2.439294 1.000000 1.000000 1.000000 1.000000
v -7.172869 5.807811 4.294114 1.000000 1.000000 1.000000 1.000000
v -5.311166 5.807811 2.425412 1.000000 1.000000 1.000000 1.000000
v -7.185346 5.816936 4.281590 1.000000 1.000000 1.000000 1.000000
v -5.323642 5.816936 2.412888 1.000000 1.000000 1.000000 1.000000
v -7.195246 5.831150 4.271651 1.000000 1.000000 1.000000 1.000000
v -5.333544 5.831150 2.402949 1.000000 1.000000 1.000000 1.000000
v -7.201604 5.849060 4.265271 1.000000 1.000000 1.000000 1.000000
v -5.339901 5.849060 2.396568 1.000000 1.000000 1.000000 1.000000
v -7.203795 5.868914 4.263072 1.000000 1.000000 1.000000 1.000000
v -5.342092 5.868914 2.394369 1.000000 1.000000 1.000000 1.000000
v -5.339901 5.888767 2.396568 1.000000 1.000000 1.000000 1.000000
v -7.201604 5.888767 4.265271 1.000000 1.000000 1.000000 1.000000
v -5.333544 5.906676 2.402949 1.000000 1.000000 1.000000 1.000000
v -7.195246 5.906676 4.271651 1.000000 1.000000 1.000000 1.000000
v -5.323642 5.920890 2.412888 1.000000 1.000000 1.000000 1.000000
v -7.185346 5.920890 4.281590 1.000000 1.000000 1.000000 1.000000
v -5.311166 5.930016 2.425412 1.000000 1.000000 1.000000 1.000000
v -7.172869 5.930016 4.294114 1.000000 1.000000 1.000000 1.000000
v -5.297336 5.933160 2.439294 1.000000 1.000000 1.000000 1.000000
v -7.159038 5.933160 4.307996 1.000000 1.000000 1.000000 1.000000
v -5.283505 5.930016 2.453176 1.000000 1.000000 1.000000 1.000000
v -7.145208 5.930016 4.321879 1.000000 1.000000 1.000000 1.000000
v -4.406643 6.994435 2.562521 1.000000 1.000000 1.000000 1.000000
v -2.544940 6.994435 0.693819 1.000000 1.000000 1.000000 1.000000
v -2.532463 6.985310 0.706343 1.000000 1.000000 1.000000 1.000000
v -4.394166 6.985310 2.575045 1.000000 1.000000 1.000000 1.000000
v -2.522562 6.971096 0.716282 1.000000 1.000000 1.000000 1.000000
v -4.384264 6.971096 2.584984 1.000000 1.000000 1.000000 1.000000
v -2.516204 6.953186 0.722663 1.000000 1.000000 1.000000 1.000000
v -4.377908 6.953187 2.591365 1.000000 1.000000 1.000000 1.000000
v -2.514014 6.933332 0.724861 1.000000 1.000000 1.000000 1.000000
v -4.375717 6.933333 2.593564 1.000000 1.000000 1.000000 1.000000
v -4.377908 6.913480 2.591365 1.000000 1.000000 1.000000 1.000000
v -2.516204 6.913479 0.722663 1.000000 1.000000 1.000000 1.000000
v -4.384264 6.895570 2.584984 1.000000 1.000000 1.000000 1.000000
v -2.522562 6.895570 0.716282 1.000000 1.000000 1.000000 1.000000
v -4.394166 6.881356 2.575045 1.000000 1.000000 1.000000 1.000000
v -2.532463 6.881356 0.706343 1.000000 1.000000 1.000000 1.000000
v -4.406643 6.872231 2.562521 1.000000 1.000000 1.000000 1.000000
v -2.544940 6.872231 0.693819 1.000000 1.000000 1.000000 1.000000
v -4.420473 6.869086 2.548639 1.000000 1.000000 1.000000 1.000000
v -2.558770 6.869086 0.679937 1.000000 1.000000 1.000000 1.000000
v -4.434304 6.872231 2.534757 1.000000 1.000000 1.000000 1.000000
v -2.572600 6.872231 0.666054 1.000000 1.000000 1.000000 1.000000
v -4.446780 6.881356 2.522233 1.000000 1.000000 1.000000 1.000000
v -2.585077 6.881356 0.653531 1.000000 1.000000 1.000000 1.000000
v -4.456682 6.895570 2.512294 1.000000 1.000000 1.000000 1.000000
v -2.594979 6.895570 0.643592 1.000000 1.000000 1.000000 1.000000
v -4.463039 6.913480 2.505913 1.000000 1.000000 1.000000 1.000000
v -2.601336 6.913479 0.637211 1.000000 1.000000 1.000000 1.000000
v -4.465230 6.933333 2.503715 1.000000 1.000000 1.000000 1.000000
v -2.603527 6.933332 0.635012 1.000000 1.000000 1.000000 1.000000
v -2.601336 6.953186 0.637211 1.000000 1.000000 1.000000 1.000000
v -4.463039 6.953187 2.505913 1.000000 1.000000 1.000000 1.000000
v -2.594979 6.971096 0.643592 1.000000 1.000000 1.000000 1.000000
v -4.456682 6.971096 2.512294 1.000000 1.000000 1.000000 1.000000
v -2.585077 6.985310 0.653531 1.000000 1.000000 1.000000 1.000000
v -4.446780 6.985310 2.522233 1.000000 1.000000 1.000000 1.000000
v -2.572600 6.994435 0.666054 1.000000 1.000000 1.000000 1.000000
v -4.434304 6.994435 2.534757 1.000000 1.000000 1.000000 1.000000
v -2.558770 6.997580 0.679937 1.000000 1.000000 1.000000 1.000000
v -4.420473 6.997580 2.548639 1.000000 1.000000 1.000000 1.000000
v -2.544940 6.994435 0.693819 1.000000 1.000000 1.000000 1.000000
v -4.406643 6.994435 2.562521 1.000000 1.000000 1.000000 1.000000
v 0.000000 6.994435 0.669781 1.000000 1.000000 1.000000 1.000000
v 2.500000 6.994435 0.669781 1.000000 1.000000 1.000000 1.000000
v 0.000000 6.985310 0.687691 1.000000 1.000000 1.000000 1.000000
v 2.500000 6.985310 0.687691 1.000000 1.000000 1.000000 1.000000
v 0.000000 6.971096 0.701904 1.000000 1.000000 1.000000 1.000000
v 2.500000 6.971096 0.701904 1.000000 1.000000 1.000000 1.000000
v 0.000000 6.953186 0.711030 1.000000 1.000000 1.000000 1.000000
v 2.500000 6.953186 0.711030 1.000000 1.000000 1.000000 1.000000
v 0.000000 6.933332 0.714174 1.000000 1.000000 1.000000 1.000000
v 2.500000 6.933332 0.714174 1.000000 1.000000 1.000000 1.000000
v 0.000000 6.913479 0.711030 1.000000 1.000000 1.000000 1.000000
v 2.500000 6.913479 0.711030 1.000000 1.000000 1.000000 1.000000
v 0.000000 6.895570 0.701904 1.000000 1.000000 1.000000 1.000000
v 2.500000 6.895570 0.701904 1.000000 1.000000 1.000000 1.000000
v 0.000000 6.881356 0.687691 1.000000 1.000000 1.000000 1.000000
v 2.500000 6.881356 0.687691 1.000000 1.000000 1.000000 1.000000
v 0.000000 6.872231 0.669781 1.000000 1.000000 1.000000 1.000000
v 2.500000 6.872231 0.669781 1.000000 1.000000 1.000000 1.000000
v 0.000000 6.869086 0.649927 1.000000 1.000000 1.000000 1.000000
v 2.500000 6.869086 0.649927 1.000000 1.000000 1.000000 1.000000
v 0.000000 6.872231 0.630074 1.000000 1.000000 1.000000 1.000000
v 2.500000 6.872231 0.630074 1.000000 1.000000 1.000000 1.000000
v 0.000000 6.881356 0.612164 1.000000 1.000000 1.000000 1.000000
v 2.500000 6.881356 0.612164 1.000000 1.000000 1.000000 1.000000
v 0.000000 6.895570 0.597951 1.000000 1.000000 1.000000 1.000000
v 2.500000 6.895570 0.597951 1.000000 1.000000 1.000000 1.000000
v 0.000000 6.913479 0.588825 1.000000 1.000000 1.000000 1.000000
v 2.500000 6.913479 0.588825 1.000000 1.000000 1.000000 1.000000
v 0.000000 6.933332 0.585681 1.000000 1.000000 1.000000 1.000000
v 2.500000 6.933332 0.585681 1.000000 1.000000 1.000000 1.000000
v 0.000000 6.953186 0.588825 1.000000 1.000000 1.000000 1.000000
v 2.500000 6.953186 0.588825 1.000000 1.000000 1.000000 1.000000
v 0.000000 6.971096 0.597951 1.000000 1.000000 1.000000 1.000000
v 2.500000 6.971096 0.597951 1.000000 1.000000 1.000000 1.000000
v 0.000000 6.985310 0.612164 1.000000 1.000000 1.000000 1.000000
v 2.500000 6.985310 0.612164 1.000000 1.000000 1.000000 1.000000
v 0.000000 6.994435 0.630074 1.000000 1.000000 1.000000 1.000000
v 2.500000 6.994435 0.630074 1.000000 1.000000 1.000000 1.000000
v 0.000000 6.997580 0.649927 1.000000 1.000000 1.000000 1.000000
v 2.500000 6.997580 0.649927 1.000000 1.000000 1.000000 1.000000
v 0.000000 6.994435 0.669781 1.000000 1.000000 1.000000 1.000000
v 2.500000 6.994435 0.669781 1.000000 1.000000 1.000000 1.000000
v 7.145208 5.930016 4.321879 1.000000 1.000000 1.000000 1.000000
v 5.271029 5.920890 2.465700 1.000000 1.000000 1.000000 1.000000
v 5.283505 5.930016 2.453176 1.000000 1.000000 1.000000 1.000000
v 7.132731 5.920890 4.334403 1.000000 1.000000 1.000000 1.000000
v 5.261127 5.906676 2.475639 1.000000 1.000000 1.000000 1.000000
v 7.122829 5.906676 4.344341 1.000000 1.000000 1.000000 1.000000
v 5.254770 5.888767 2.482020 1.000000 1.000000 1.000000 1.000000
v 7.116473 5.888767 4.350722 1.000000 1.000000 1.000000 1.000000
v 5.252579 5.868914 2.484219 1.000000 1.000000 1.000000 1.000000
v 7.114282 5.868914 4.352921 1.000000 1.000000 1.000000 1.000000
v 7.116473 5.849060 4.350722 1.000000 1.000000 1.000000 1.000000
v 5.254770 5.849060 2.482020 1.000000 1.000000 1.000000 1.000000
v 7.122829 5.831150 4.344341 1.000000 1.000000 1.000000 1.000000
v 5.261127 5.831150 2.475639 1.000000 1.000000 1.000000 1.000000
v 7.132731 5.816936 4.334403 1.000000 1.000000 1.000000 1.000000
v 5.271029 5.816936 2.465700 1.000000 1.000000 1.000000 1.000000
v 7.145208 5.807811 4.321879 1.000000 1.000000 1.000000 1.000000
v 5.283505 5.807811 2.453176 1.000000 1.000000 1.000000 1.000000
v 7.159039 5.804667 4.307996 1.000000 1.000000 1.000000 1.000000
v 5.297335 5.804667 2.439294 1.000000 1.000000 1.000000 1.000000
v 7.172869 5.807811 4.294114 1.000000 1.000000 1.000000 1.000000
v 5.311166 5.807811 2.425412 1.000000 1.000000 1.000000 1.000000
v 7.185345 5.816936 4.281590 1.000000 1.000000 1.000000 1.000000
v 5.323642 5.816936 2.412888 1.000000 1.000000 1.000000 1.000000
v 7.195247 5.831150 4.271651 1.000000 1.000000 1.000000 1.000000
v 5.333544 5.831150 2.402949 1.000000 1.000000 1.000000 1.000000
v 7.201604 5.849060 4.265271 1.000000 1.000000 1.000000 1.000000
v 5.339901 5.849060 2.396568 1.000000 1.000000 1.000000 1.000000
v 7.203795 5.868914 4.263072 1.000000 1.000000 1.000000 1.000000
v 5.342092 5.868914 2.394369 1.000000 1.000000 1.000000 1.000000
v 5.339901 5.888767 2.396568 1.000000 1.000000 1.000000 1.000000
v 7.201604 5.888767 4.265271 1.000000 1.000000 1.000000 1.000000
v 5.333544 5.906676 2.402949 1.000000 1.000000 1.000000 1.000000
v 7.195247 5.906676 4.271651 1.000000 1.000000 1.000000 1.000000
v 5.323642 5.920890 2.412888 1.000000 1.000000 1.000000 1.000000
v 7.185345 5.920890 4.281590 1.000000 1.000000 1.000000 1.000000
v 5.311166 5.930016 2.425412 1.000000 1.000000 1.000000 1.000000
v 7.172869 5.930016 4.294114 1.000000 1.000000 1.000000 1.000000
v 5.297335 5.933160 2.439294 1.000000 1.000000 1.000000 1.000000
v 7.159039 5.933160 4.307996 1.000000 1.000000 1.000000 1.000000
v 5.283505 5.930016 2.453176 1.000000 1.000000 1.000000 1.000000
v 7.145208 5.930016 4.321879 1.000000 1.000000 1.000000 1.000000
v 0.000000 6.985310 0.687691 1.000000 1.000000 1.000000 1.000000
v -2.500000 6.994435 0.669781 1.000000 1.000000 1.000000 1.000000
v 0.000000 6.994435 0.669781 1.000000 1.000000 1.000000 1.000000
v -2.500000 6.985310 0.687691 1.000000 1.000000 1.000000 1.000000
v 0.000000 6.971096 0.701904 1.000000 1.000000 1.000000 1.000000
v -2.500000 6.971096 0.701904 1.000000 1.000000 1.000000 1.000000
v 0.000000 6.953186 0.711030 1.000000 1.000000 1.000000 1.000000
v -2.500000 6.953186 0.711030 1.000000 1.000000 1.000000 1.000000
v 0.000000 6.933332 0.714174 1.000000 1.000000 1.000000 1.000000
v -2.500000 6.933332 0.714174 1.000000 1.000000 1.000000 1.000000
v 0.000000 6.913479 0.711030 1.000000 1.000000 1.000000 1.000000
v -2.500000 6.913479 0.711030 1.000000 1.000000 1.000000 1.000000
v 0.000000 6.895570 0.701904 1.000000 1.000000 1.000000 1.000000
v -2.500000 6.895570 0.701904 1.000000 1.000000 1.000000 1.000000
v 0.000000 6.881356 0.687691 1.000000 1.000000 1.000000 1.000000
v -2.500000 6.881356 0.687691 1.000000 1.000000 1.000000 1.000000
v 0.000000 6.872231 0.669781 1.000000 1.000000 1.000000 1.000000
v -2.500000 6.872231 0.669781 1.000000 1.000000 1.000000 1.000000
v 0.000000 6.869086 0.649927 1.000000 1.000000 1.000000 1.000000
v -2.500000 6.869086 0.649927 1.000000 1.000000 1.000000 1.000000
v 0.000000 6.872231 0.630074 1.000000 1.000000 1.000000 1.000000
v -2.500000 6.872231 0.630074 1.000000 1.000000 1.000000 1.000000
v 0.000000 6.881356 0.612164 1.000000 1.000000 1.000000 1.000000
v -2.500000 6.881356 0.612164 1.000000 1.000000 1.000000 1.000000
v 0.000000 6.895570 0.597951 1.000000 1.000000 1.000000 1.000000
v -2.500000 6.895570 0.597951 1.000000 1.000000 1.000000 1.000000
v 0.000000 6.913479 0.588825 1.000000 1.000000 1.000000 1.000000
v -2.500000 6.913479 0.588825 1.000000 1.000000 1.000000 1.000000
v 0.000000 6.933332 0.585681 1.000000 1.000000 1.000000 1.000000
v -2.500000 6.933332 0.585681 1.000000 1.000000 1.000000 1.000000
v 0.000000 6.953186 0.588825 1.000000 1.000000 1.000000 1.000000
v -2.500000 6.953186 0.588825 1.000000 1.000000 1.000000 1.000000
v 0.000000 6.971096 0.597951 1.000000 1.000000 1.000000 1.000000
v -2.500000 6.971096 0.597951 1.000000 1.000000 1.000000 1.000000
v 0.000000 6.985310 0.612164 1.000000 1.000000 1.000000 1.000000
v -2.500000 6.985310 0.612164 1.000000 1.000000 1.000000 1.000000
v 0.000000 6.994435 0.630074 1.000000 1.000000 1.000000 1.000000
v -2.500000 6.994435 0.630074 1.000000 1.000000 1.000000 1.000000
v 0.000000 6.997580 0.649927 1.000000 1.000000 1.000000 1.000000
v -2.500000 6.997580 0.649927 1.000000 1.000000 1.000000 1.000000
v 0.000000 6.994435 0.669781 1.000000 1.000000 1.000000 1.000000
v -2.500000 6.994435 0.669781 1.000000 1.000000 1.000000 1.000000
v 4.406643 6.994435 2.562521 1.000000 1.000000 1.000000 1.000000
v 2.532463 6.985310 0.706343 1.000000 1.000000 1.000000 1.000000
v 2.544940 6.994435 0.693819 1.000000 1.000000 1.000000 1.000000
v 4.394166 6.985310 2.575045 1.000000 1.000000 1.000000 1.000000
v 2.522562 6.971096 0.716282 1.000000 1.000000 1.000000 1.000000
v 4.384264 6.971096 2.584984 1.000000 1.000000 1.000000 1.000000
v 2.516204 6.953186 0.722663 1.000000 1.000000 1.000000 1.000000
v 4.377908 6.953187 2.591365 1.000000 1.000000 1.000000 1.000000
v 2.514014 6.933332 0.724861 1.000000 1.000000 1.000000 1.000000
v 4.375717 6.933333 2.593564 1.000000 1.000000 1.000000 1.000000
v 4.377908 6.913480 2.591365 1.000000 1.000000 1.000000 1.000000
v 2.516204 6.913479 0.722663 1.000000 1.000000 1.000000 1.000000
v 4.384264 6.895570 2.584984 1.000000 1.000000 1.000000 1.000000
v 2.522562 6.895570 0.716282 1.000000 1.000000 1.000000 1.000000
v 4.394166 6.881356 2.575045 1.000000 1.000000 1.000000 1.000000
v 2.532463 6.881356 0.706343 1.000000 1.000000 1.000000 1.000000
v 4.406643 6.872231 2.562521 1.000000 1.000000 1.000000 1.000000
v 2.544940 6.872231 0.693819 1.000000 1.000000 1.000000 1.000000
v 4.420473 6.869086 2.548639 1.000000 1.000000 1.000000 1.000000
v 2.558770 6.869086 0.679937 1.000000 1.000000 1.000000 1.000000
v 4.434304 6.872231 2.534757 1.000000 1.000000 1.000000 1.000000
v 2.572600 6.872231 0.666054 1.000000 1.000000 1.000000 1.000000
v 4.446780 6.881356 2.522233 1.000000 1.000000 1.000000 1.000000
v 2.585077 6.881356 0.653531 1.000000 1.000000 1.000000 1.000000
v 4.456682 6.895570 2.512294 1.000000 1.000000 1.000000 1.000000
v 2.594979 6.895570 0.643592 1.000000 1.000000 1.000000 1.000000
v 4.463039 6.913480 2.505913 1.000000 1.000000 1.000000 1.000000
v 2.601336 6.913479 0.637211 1.000000 1.000000 1.000000 1.000000
v 4.465230 6.933333 2.503715 1.000000 1.000000 1.000000 1.000000
v 2.603527 6.933332 0.635012 1.000000 1.000000 1.000000 1.000000
v 2.601336 6.953186 0.637211 1.000000 1.000000 1.000000 1.000000
v 4.463039 6.953187 2.505913 1.000000 1.000000 1.000000 1.000000
v 2.594979 6.971096 0.643592 1.000000 1.000000 1.000000 1.000000
v 4.456682 6.971096 2.512294 1.000000 1.000000 1.000000 1.000000
v 2.585077 6.985310 0.653531 1.000000 1.000000 1.000000 1.000000
v 4.446780 6.985310 2.522233 1.000000 1.000000 1.000000 1.000000
v 2.572600 6.994435 0.666054 1.000000 1.000000 1.000000 1.000000
v 4.434304 6.994435 2.534757 1.000000 1.000000 1.000000 1.000000
v 2.558770 6.997580 0.679937 1.000000 1.000000 1.000000 1.000000
v 4.420473 6.997580 2.548639 1.000000 1.000000 1.000000 1.000000
v 2.544940 6.994435 0.693819 1.000000 1.000000 1.000000 1.000000
v 4.406643 6.994435 2.562521 1.000000 1.000000 1.000000 1.000000
vt 0.375000 0.688477
vt 0.387451 0.312500
vt 0.387451 0.688477
vt 0.375000 0.312500
vt 0.612305 0.688477
vt 0.624512 0.312500
vt 0.624512 0.688477
vt 0.612305 0.312500
vt 0.599609 0.688477
vt 0.612305 0.312500
vt 0.612305 0.688477
vt 0.599609 0.312500
vt 0.587402 0.688477
vt 0.587402 0.312500
vt 0.599609 0.312500
vt 0.599609 0.688477
vt 0.574707 0.688477
vt 0.574707 0.312500
vt 0.587402 0.312500
vt 0.587402 0.688477
vt 0.574707 0.688477
vt 0.562012 0.312500
vt 0.574707 0.312500
vt 0.562012 0.688477
vt 0.562012 0.688477
vt 0.549805 0.312500
vt 0.562012 0.312500
vt 0.549805 0.688477
vt 0.537109 0.688477
vt 0.549805 0.312500
vt 0.549805 0.688477
vt 0.537109 0.312500
vt 0.537109 0.312500
vt 0.537109 0.688477
vt 0.524902 0.688477
vt 0.524902 0.312500
vt 0.524902 0.688477
vt 0.512207 0.312500
vt 0.524902 0.312500
vt 0.512207 0.688477
vt 0.512207 0.688477
vt 0.499756 0.312500
vt 0.512207 0.312500
vt 0.499756 0.688477
vt 0.499756 0.688477
vt 0.487305 0.312500
vt 0.499756 0.312500
vt 0.487305 0.688477
vt 0.487305 0.688477
vt 0.474854 0.312500
vt 0.487305 0.312500
vt 0.474854 0.688477
vt 0.474854 0.688477
vt 0.462402 0.312500
vt 0.474854 0.312500
vt 0.462402 0.688477
vt 0.462402 0.688477
vt 0.449951 0.312500
vt 0.462402 0.312500
vt 0.449951 0.688477
vt 0.449951 0.688477
vt 0.437256 0.688477
vt 0.449951 0.312500
vt 0.437256 0.312500
vt 0.424805 0.688477
vt 0.437256 0.312500
vt 0.437256 0.688477
vt 0.424805 0.312500
vt 0.424805 0.688477
vt 0.412354 0.312500
vt 0.424805 0.312500
vt 0.412354 0.688477
vt 0.412354 0.688477
vt 0.399902 0.312500
vt 0.412354 0.312500
vt 0.399902 0.688477
vt 0.387451 0.688477
vt 0.399902 0.312500
vt 0.399902 0.688477
vt 0.387451 0.312500
vt 0.375000 0.688477
vt 0.387451 0.312500
vt 0.375000 0.312500
vt 0.387451 0.688477
vt 0.612305 0.688477
vt 0.624512 0.312500
vt 0.612305 0.312500
vt 0.624512 0.688477
vt 0.599609 0.688477
vt 0.612305 0.312500
vt 0.599609 0.312500
vt 0.612305 0.688477
vt 0.587402 0.688477
vt 0.599609 0.312500
vt 0.587402 0.312500
vt 0.599609 0.688477
vt 0.574707 0.688477
vt 0.587402 0.312500
vt 0.574707 0.312500
vt 0.587402 0.688477
vt 0.562012 0.312500
vt 0.574707 0.688477
vt 0.574707 0.312500
vt 0.562012 0.688477
vt 0.549805 0.312500
vt 0.562012 0.688477
vt 0.562012 0.312500
vt 0.549805 0.688477
vt 0.537109 0.312500
vt 0.537109 0.688477
vt 0.549805 0.312500
vt 0.549805 0.688477
vt 0.524902 0.312500
vt 0.524902 0.688477
vt 0.537109 0.312500
vt 0.537109 0.688477
vt 0.524902 0.688477
vt 0.512207 0.312500
vt 0.512207 0.688477
vt 0.524902 0.312500
vt 0.512207 0.688477
vt 0.499756 0.312500
vt 0.499756 0.688477
vt 0.512207 0.312500
vt 0.499756 0.688477
vt 0.487305 0.312500
vt 0.487305 0.688477
vt 0.499756 0.312500
vt 0.487305 0.688477
vt 0.474854 0.312500
vt 0.474854 0.688477
vt 0.487305 0.312500
vt 0.474854 0.688477
vt 0.462402 0.312500
vt 0.462402 0.688477
vt 0.474854 0.312500
vt 0.462402 0.688477
vt 0.449951 0.312500
vt 0.449951 0.688477
vt 0.462402 0.312500
vt 0.449951 0.688477
vt 0.449951 0.312500
vt 0.437256 0.688477
vt 0.437256 0.312500
vt 0.437256 0.688477
vt 0.437256 0.312500
vt 0.424805 0.688477
vt 0.424805 0.312500
vt 0.424805 0.688477
vt 0.412354 0.312500
vt 0.412354 0.688477
vt 0.424805 0.312500
vt 0.399902 0.312500
vt 0.412354 0.688477
vt 0.412354 0.312500
vt 0.399902 0.688477
vt 0.387451 0.688477
vt 0.399902 0.312500
vt 0.387451 0.312500
vt 0.399902 0.688477
vt 0.375000 0.312500
vt 0.375000 0.688477
vt 0.387451 0.688477
vt 0.387451 0.312500
vt 0.399902 0.688477
vt 0.399902 0.312500
vt 0.412354 0.688477
vt 0.412354 0.312500
vt 0.424805 0.688477
vt 0.424805 0.312500
vt 0.437256 0.312500
vt 0.437256 0.688477
vt 0.449951 0.312500
vt 0.449951 0.688477
vt 0.462402 0.312500
vt 0.462402 0.688477
vt 0.474854 0.312500
vt 0.474854 0.688477
vt 0.487305 0.312500
vt 0.487305 0.688477
vt 0.499756 0.312500
vt 0.499756 0.688477
vt 0.512207 0.312500
vt 0.512207 0.688477
vt 0.524902 0.312500
vt 0.524902 0.688477
vt 0.537109 0.312500
vt 0.537109 0.688477
vt 0.549805 0.312500
vt 0.549805 0.688477
vt 0.562012 0.688477
vt 0.562012 0.312500
vt 0.574707 0.688477
vt 0.574707 0.312500
vt 0.587402 0.688477
vt 0.587402 0.312500
vt 0.599609 0.688477
vt 0.599609 0.312500
vt 0.612305 0.688477
vt 0.612305 0.312500
vt 0.624512 0.688477
vt 0.624512 0.312500
vt 0.375000 0.312500
vt 0.375000 0.688477
vt 0.387451 0.688477
vt 0.387451 0.312500
vt 0.399902 0.688477
vt 0.399902 0.312500
vt 0.412354 0.688477
vt 0.412354 0.312500
vt 0.424805 0.688477
vt 0.424805 0.312500
vt 0.437256 0.312500
vt 0.437256 0.688477
vt 0.449951 0.312500
vt 0.449951 0.688477
vt 0.462402 0.312500
vt 0.462402 0.688477
vt 0.474854 0.312500
vt 0.474854 0.688477
vt 0.487305 0.312500
vt 0.487305 0.688477
vt 0.499756 0.312500
vt 0.499756 0.688477
vt 0.512207 0.312500
vt 0.512207 0.688477
vt 0.524902 0.312500
vt 0.524902 0.688477
vt 0.537109 0.312500
vt 0.537109 0.688477
vt 0.549805 0.312500
vt 0.549805 0.688477
vt 0.562012 0.688477
vt 0.562012 0.312500
vt 0.574707 0.688477
vt 0.574707 0.312500
vt 0.587402 0.688477
vt 0.587402 0.312500
vt 0.599609 0.688477
vt 0.599609 0.312500
vt 0.612305 0.688477
vt 0.612305 0.312500
vt 0.624512 0.688477
vt 0.624512 0.312500
vt 0.375000 0.688477
vt 0.375000 0.312500
vt 0.387451 0.688477
vt 0.387451 0.312500
vt 0.399902 0.688477
vt 0.399902 0.312500
vt 0.412354 0.688477
vt 0.412354 0.312500
vt 0.424805 0.688477
vt 0.424805 0.312500
vt 0.437256 0.688477
vt 0.437256 0.312500
vt 0.449951 0.688477
vt 0.449951 0.312500
vt 0.462402 0.688477
vt 0.462402 0.312500
vt 0.474854 0.688477
vt 0.474854 0.312500
vt 0.487305 0.688477
vt 0.487305 0.312500
vt 0.499756 0.688477
vt 0.499756 0.312500
vt 0.512207 0.688477
vt 0.512207 0.312500
vt 0.524902 0.688477
vt 0.524902 0.312500
vt 0.537109 0.688477
vt 0.537109 0.312500
vt 0.549805 0.688477
vt 0.549805 0.312500
vt 0.562012 0.688477
vt 0.562012 0.312500
vt 0.574707 0.688477
vt 0.574707 0.312500
vt 0.587402 0.688477
vt 0.587402 0.312500
vt 0.599609 0.688477
vt 0.599609 0.312500
vt 0.612305 0.688477
vt 0.612305 0.312500
vt 0.624512 0.688477
vt 0.624512 0.312500
vt 0.375000 0.312500
vt 0.387451 0.688477
vt 0.375000 0.688477
vt 0.387451 0.312500
vt 0.399902 0.688477
vt 0.399902 0.312500
vt 0.412354 0.688477
vt 0.412354 0.312500
vt 0.424805 0.688477
vt 0.424805 0.312500
vt 0.437256 0.312500
vt 0.437256 0.688477
vt 0.449951 0.312500
vt 0.449951 0.688477
vt 0.462402 0.312500
vt 0.462402 0.688477
vt 0.474854 0.312500
vt 0.474854 0.688477
vt 0.487305 0.312500
vt 0.487305 0.688477
vt 0.499756 0.312500
vt 0.499756 0.688477
vt 0.512207 0.312500
vt 0.512207 0.688477
vt 0.524902 0.312500
vt 0.524902 0.688477
vt 0.537109 0.312500
vt 0.537109 0.688477
vt 0.549805 0.312500
vt 0.549805 0.688477
vt 0.562012 0.688477
vt 0.562012 0.312500
vt 0.574707 0.688477
vt 0.574707 0.312500
vt 0.587402 0.688477
vt 0.587402 0.312500
vt 0.599609 0.688477
vt 0.599609 0.312500
vt 0.612305 0.688477
vt 0.612305 0.312500
vt 0.624512 0.688477
vt 0.624512 0.312500
vt 0.387451 0.688477
vt 0.375000 0.312500
vt 0.375000 0.688477
vt 0.387451 0.312500
vt 0.399902 0.688477
vt 0.399902 0.312500
vt 0.412354 0.688477
vt 0.412354 0.312500
vt 0.424805 0.688477
vt 0.424805 0.312500
vt 0.437256 0.688477
vt 0.437256 0.312500
vt 0.449951 0.688477
vt 0.449951 0.312500
vt 0.462402 0.688477
vt 0.462402 0.312500
vt 0.474854 0.688477
vt 0.474854 0.312500
vt 0.487305 0.688477
vt 0.487305 0.312500
vt 0.499756 0.688477
vt 0.499756 0.312500
vt 0.512207 0.688477
vt 0.512207 0.312500
vt 0.524902 0.688477
vt 0.524902 0.312500
vt 0.537109 0.688477
vt 0.537109 0.312500
vt 0.549805 0.688477
vt 0.549805 0.312500
vt 0.562012 0.688477
vt 0.562012 0.312500
vt 0.574707 0.688477
vt 0.574707 0.312500
vt 0.587402 0.688477
vt 0.587402 0.312500
vt 0.599609 0.688477
vt 0.599609 0.312500
vt 0.612305 0.688477
vt 0.612305 0.312500
vt 0.624512 0.688477
vt 0.624512 0.312500
vt 0.375000 0.312500
vt 0.387451 0.688477
vt 0.375000 0.688477
vt 0.387451 0.312500
vt 0.399902 0.688477
vt 0.399902 0.312500
vt 0.412354 0.688477
vt 0.412354 0.312500
vt 0.424805 0.688477
vt 0.424805 0.312500
vt 0.437256 0.312500
vt 0.437256 0.688477
vt 0.449951 0.312500
vt 0.449951 0.688477
vt 0.462402 0.312500
vt 0.462402 0.688477
vt 0.474854 0.312500
vt 0.474854 0.688477
vt 0.487305 0.312500
vt 0.487305 0.688477
vt 0.499756 0.312500
vt 0.499756 0.688477
vt 0.512207 0.312500
vt 0.512207 0.688477
vt 0.524902 0.312500
vt 0.524902 0.688477
vt 0.537109 0.312500
vt 0.537109 0.688477
vt 0.549805 0.312500
vt 0.549805 0.688477
vt 0.562012 0.688477
vt 0.562012 0.312500
vt 0.574707 0.688477
vt 0.574707 0.312500
vt 0.587402 0.688477
vt 0.587402 0.312500
vt 0.599609 0.688477
vt 0.599609 0.312500
vt 0.612305 0.688477
vt 0.612305 0.312500
vt 0.624512 0.688477
vt 0.624512 0.312500
vt1 0.830566 0.056641
vt1 0.837891 0.032715
vt1 0.837891 0.056641
vt1 0.830566 0.032715
vt1 0.969238 0.056641
vt1 0.976562 0.032715
vt1 0.976562 0.056641
vt1 0.969238 0.032715
vt1 0.961914 0.056641
vt1 0.969238 0.032715
vt1 0.969238 0.056641
vt1 0.961914 0.032715
vt1 0.954590 0.056641
vt1 0.954590 0.032715
vt1 0.961914 0.032715
vt1 0.961914 0.056641
vt1 0.947266 0.056641
vt1 0.947266 0.032715
vt1 0.954590 0.032715
vt1 0.954590 0.056641
vt1 0.947266 0.056641
vt1 0.939941 0.032715
vt1 0.947266 0.032715
vt1 0.939941 0.056641
vt1 0.939941 0.056641
vt1 0.932617 0.032715
vt1 0.939941 0.032715
vt1 0.932617 0.056641
vt1 0.925293 0.056641
vt1 0.932617 0.032715
vt1 0.932617 0.056641
vt1 0.925293 0.032715
vt1 0.925293 0.032715
vt1 0.925293 0.056641
vt1 0.917969 0.056641
vt1 0.917969 0.032715
vt1 0.917969 0.056641
vt1 0.910645 0.032715
vt1 0.917969 0.032715
vt1 0.910645 0.056641
vt1 0.910645 0.056641
vt1 0.903320 0.032715
vt1 0.910645 0.032715
vt1 0.903320 0.056641
vt1 0.903320 0.056641
vt1 0.895996 0.032715
vt1 0.903320 0.032715
vt1 0.895996 0.056641
vt1 0.895996 0.056641
vt1 0.888672 0.032715
vt1 0.895996 0.032715
vt1 0.888672 0.056641
vt1 0.888672 0.056641
vt1 0.881348 0.032715
vt1 0.888672 0.032715
vt1 0.881348 0.056641
vt1 0.881348 0.056641
vt1 0.874023 0.032715
vt1 0.881348 0.032715
vt1 0.874023 0.056641
vt1 0.874023 0.056641
vt1 0.866699 0.056641
vt1 0.874023 0.032715
vt1 0.866699 0.032715
vt1 0.859375 0.056641
vt1 0.866699 0.032715
vt1 0.866699 0.056641
vt1 0.859375 0.032715
vt1 0.859375 0.056641
vt1 0.852539 0.032715
vt1 0.859375 0.032715
vt1 0.852539 0.056641
vt1 0.852539 0.056641
vt1 0.845215 0.032715
vt1 0.852539 0.032715
vt1 0.845215 0.056641
vt1 0.837891 0.056641
vt1 0.845215 0.032715
vt1 0.845215 0.056641
vt1 0.837891 0.032715
vt1 0.652832 0.056641
vt1 0.660156 0.032715
vt1 0.652832 0.032715
vt1 0.660156 0.056641
vt1 0.791504 0.056641
vt1 0.798828 0.032715
vt1 0.791504 0.032715
vt1 0.798828 0.056641
vt1 0.784180 0.056641
vt1 0.791504 0.032715
vt1 0.784180 0.032715
vt1 0.791504 0.056641
vt1 0.777344 0.056641
vt1 0.784180 0.032715
vt1 0.777344 0.032715
vt1 0.784180 0.056641
vt1 0.770020 0.056641
vt1 0.777344 0.032715
vt1 0.770020 0.032715
vt1 0.777344 0.056641
vt1 0.762695 0.032715
vt1 0.770020 0.056641
vt1 0.770020 0.032715
vt1 0.762695 0.056641
vt1 0.755371 0.032715
vt1 0.762695 0.056641
vt1 0.762695 0.032715
vt1 0.755371 0.056641
vt1 0.748047 0.032715
vt1 0.748047 0.056641
vt1 0.755371 0.032715
vt1 0.755371 0.056641
vt1 0.740723 0.032715
vt1 0.740723 0.056641
vt1 0.748047 0.032715
vt1 0.748047 0.056641
vt1 0.740723 0.056641
vt1 0.733398 0.032715
vt1 0.733398 0.056641
vt1 0.740723 0.032715
vt1 0.733398 0.056641
vt1 0.726074 0.032715
vt1 0.726074 0.056641
vt1 0.733398 0.032715
vt1 0.726074 0.056641
vt1 0.718750 0.032715
vt1 0.718750 0.056641
vt1 0.726074 0.032715
vt1 0.718750 0.056641
vt1 0.711426 0.032715
vt1 0.711426 0.056641
vt1 0.718750 0.032715
vt1 0.711426 0.056641
vt1 0.704102 0.032715
vt1 0.704102 0.056641
vt1 0.711426 0.032715
vt1 0.704102 0.056641
vt1 0.696777 0.032715
vt1 0.696777 0.056641
vt1 0.704102 0.032715
vt1 0.696777 0.056641
vt1 0.696777 0.032715
vt1 0.689453 0.056641
vt1 0.689453 0.032715
vt1 0.689453 0.056641
vt1 0.689453 0.032715
vt1 0.682129 0.056641
vt1 0.682129 0.032715
vt1 0.682129 0.056641
vt1 0.674805 0.032715
vt1 0.674805 0.056641
vt1 0.682129 0.032715
vt1 0.667480 0.032715
vt1 0.674805 0.056641
vt1 0.674805 0.032715
vt1 0.667480 0.056641
vt1 0.660156 0.056641
vt1 0.667480 0.032715
vt1 0.660156 0.032715
vt1 0.667480 0.056641
vt1 0.491699 0.030762
vt1 0.491699 0.991936
vt1 0.499023 0.991936
vt1 0.499023 0.030762
vt1 0.506348 0.991936
vt1 0.506348 0.030762
vt1 0.513672 0.991936
vt1 0.513672 0.030762
vt1 0.520996 0.991936
vt1 0.520996 0.030762
vt1 0.528320 0.030762
vt1 0.528320 0.991936
vt1 0.535156 0.030762
vt1 0.535156 0.991936
vt1 0.542480 0.030762
vt1 0.542480 0.991936
vt1 0.549805 0.030762
vt1 0.549805 0.991936
vt1 0.557129 0.030762
vt1 0.557129 0.991936
vt1 0.564453 0.030762
vt1 0.564453 0.991936
vt1 0.571777 0.030762
vt1 0.571777 0.991936
vt1 0.579102 0.030762
vt1 0.579102 0.991936
vt1 0.586426 0.030762
vt1 0.586426 0.991936
vt1 0.593750 0.030762
vt1 0.593750 0.991936
vt1 0.601074 0.991936
vt1 0.601074 0.030762
vt1 0.607910 0.991936
vt1 0.607910 0.030762
vt1 0.615234 0.991936
vt1 0.615234 0.030762
vt1 0.622559 0.991936
vt1 0.622559 0.030762
vt1 0.629883 0.991936
vt1 0.629883 0.030762
vt1 0.637207 0.991936
vt1 0.637207 0.030762
vt1 0.008064 0.030762
vt1 0.008064 0.991936
vt1 0.015335 0.991936
vt1 0.015335 0.030762
vt1 0.022614 0.991936
vt1 0.022614 0.030762
vt1 0.029892 0.991936
vt1 0.029892 0.030762
vt1 0.037170 0.991936
vt1 0.037170 0.030762
vt1 0.044434 0.030762
vt1 0.044434 0.991936
vt1 0.051727 0.030762
vt1 0.051727 0.991936
vt1 0.058990 0.030762
vt1 0.058990 0.991936
vt1 0.066284 0.030762
vt1 0.066284 0.991936
vt1 0.073547 0.030762
vt1 0.073547 0.991936
vt1 0.080811 0.030762
vt1 0.080811 0.991936
vt1 0.088074 0.030762
vt1 0.088074 0.991936
vt1 0.095398 0.030762
vt1 0.095398 0.991936
vt1 0.102661 0.030762
vt1 0.102661 0.991936
vt1 0.109924 0.030762
vt1 0.109924 0.991936
vt1 0.117188 0.991936
vt1 0.117188 0.030762
vt1 0.124451 0.991936
vt1 0.124451 0.030762
vt1 0.131714 0.991936
vt1 0.131714 0.030762
vt1 0.139038 0.991936
vt1 0.139038 0.030762
vt1 0.146240 0.991936
vt1 0.146240 0.030762
vt1 0.153564 0.991936
vt1 0.153564 0.030762
vt1 0.830566 0.991936
vt1 0.830566 0.081055
vt1 0.837891 0.991936
vt1 0.837891 0.081055
vt1 0.845215 0.991936
vt1 0.845215 0.081055
vt1 0.852539 0.991936
vt1 0.852539 0.081055
vt1 0.859863 0.991936
vt1 0.859863 0.081055
vt1 0.867188 0.991936
vt1 0.867188 0.081055
vt1 0.874512 0.991936
vt1 0.874512 0.081055
vt1 0.881836 0.991936
vt1 0.881836 0.081055
vt1 0.889160 0.991936
vt1 0.889160 0.081055
vt1 0.896484 0.991936
vt1 0.896484 0.081055
vt1 0.903809 0.991936
vt1 0.903809 0.081055
vt1 0.911133 0.991936
vt1 0.911133 0.081055
vt1 0.918457 0.991936
vt1 0.918457 0.081055
vt1 0.925781 0.991936
vt1 0.925781 0.081055
vt1 0.933105 0.991936
vt1 0.933105 0.081055
vt1 0.940430 0.991936
vt1 0.940430 0.081055
vt1 0.947754 0.991936
vt1 0.947754 0.081055
vt1 0.955078 0.991936
vt1 0.955078 0.081055
vt1 0.962402 0.991936
vt1 0.962402 0.081055
vt1 0.969727 0.991936
vt1 0.969727 0.081055
vt1 0.977051 0.991936
vt1 0.977051 0.081055
vt1 0.330566 0.030762
vt1 0.337891 0.991936
vt1 0.330566 0.991936
vt1 0.337891 0.030762
vt1 0.344971 0.991936
vt1 0.344971 0.030762
vt1 0.352295 0.991936
vt1 0.352295 0.030762
vt1 0.359619 0.991936
vt1 0.359619 0.030762
vt1 0.366943 0.030762
vt1 0.366943 0.991936
vt1 0.374268 0.030762
vt1 0.374268 0.991936
vt1 0.381348 0.030762
vt1 0.381348 0.991936
vt1 0.388672 0.030762
vt1 0.388672 0.991936
vt1 0.395996 0.030762
vt1 0.395996 0.991936
vt1 0.403320 0.030762
vt1 0.403320 0.991936
vt1 0.410645 0.030762
vt1 0.410645 0.991936
vt1 0.417969 0.030762
vt1 0.417969 0.991936
vt1 0.425049 0.030762
vt1 0.425049 0.991936
vt1 0.432373 0.030762
vt1 0.432373 0.991936
vt1 0.439697 0.991936
vt1 0.439697 0.030762
vt1 0.447021 0.991936
vt1 0.447021 0.030762
vt1 0.454346 0.991936
vt1 0.454346 0.030762
vt1 0.461426 0.991936
vt1 0.461426 0.030762
vt1 0.468750 0.991936
vt1 0.468750 0.030762
vt1 0.476074 0.991936
vt1 0.476074 0.030762
vt1 0.660156 0.991936
vt1 0.652832 0.081055
vt1 0.652832 0.991936
vt1 0.660156 0.081055
vt1 0.667480 0.991936
vt1 0.667480 0.081055
vt1 0.674805 0.991936
vt1 0.674805 0.081055
vt1 0.682129 0.991936
vt1 0.682129 0.081055
vt1 0.689453 0.991936
vt1 0.689453 0.081055
vt1 0.696777 0.991936
vt1 0.696777 0.081055
vt1 0.704102 0.991936
vt1 0.704102 0.081055
vt1 0.711426 0.991936
vt1 0.711426 0.081055
vt1 0.718750 0.991936
vt1 0.718750 0.081055
vt1 0.726074 0.991936
vt1 0.726074 0.081055
vt1 0.733398 0.991936
vt1 0.733398 0.081055
vt1 0.740723 0.991936
vt1 0.740723 0.081055
vt1 0.748047 0.991936
vt1 0.748047 0.081055
vt1 0.755371 0.991936
vt1 0.755371 0.081055
vt1 0.762695 0.991936
vt1 0.762695 0.081055
vt1 0.770020 0.991936
vt1 0.770020 0.081055
vt1 0.777344 0.991936
vt1 0.777344 0.081055
vt1 0.784668 0.991936
vt1 0.784668 0.081055
vt1 0.791992 0.991936
vt1 0.791992 0.081055
vt1 0.799316 0.991936
vt1 0.799316 0.081055
vt1 0.169312 0.030762
vt1 0.176514 0.991936
vt1 0.169312 0.991936
vt1 0.176514 0.030762
vt1 0.183838 0.991936
vt1 0.183838 0.030762
vt1 0.191162 0.991936
vt1 0.191162 0.030762
vt1 0.198364 0.991936
vt1 0.198364 0.030762
vt1 0.205688 0.030762
vt1 0.205688 0.991936
vt1 0.213013 0.030762
vt1 0.213013 0.991936
vt1 0.220215 0.030762
vt1 0.220215 0.991936
vt1 0.227539 0.030762
vt1 0.227539 0.991936
vt1 0.234741 0.030762
vt1 0.234741 0.991936
vt1 0.242065 0.030762
vt1 0.242065 0.991936
vt1 0.249390 0.030762
vt1 0.249390 0.991936
vt1 0.256592 0.030762
vt1 0.256592 0.991936
vt1 0.263916 0.030762
vt1 0.263916 0.991936
vt1 0.271240 0.030762
vt1 0.271240 0.991936
vt1 0.278320 0.991936
vt1 0.278320 0.030762
vt1 0.285645 0.991936
vt1 0.285645 0.030762
vt1 0.292969 0.991936
vt1 0.292969 0.030762
vt1 0.300293 0.991936
vt1 0.300293 0.030762
vt1 0.307617 0.991936
vt1 0.307617 0.030762
vt1 0.314697 0.991936
vt1 0.314697 0.030762
vn 0.236220 0.874016 0.425197
vn 0.236220 0.874016 0.425197
vn 0.236220 0.874016 0.425197
vn 0.236220 0.874016 0.425197
vn 0.078740 0.984252 0.149606
vn 0.078740 0.984252 0.149606
vn 0.078740 0.984252 0.149606
vn 0.078740 0.984252 0.149606
vn -0.078740 0.984252 -0.149606
vn -0.078740 0.984252 -0.149606
vn -0.078740 0.984252 -0.149606
vn -0.078740 0.984252 -0.149606
vn -0.212598 0.874016 -0.433071
vn -0.212598 0.874016 -0.433071
vn -0.212598 0.874016 -0.433071
vn -0.212598 0.874016 -0.433071
vn -0.322835 0.677165 -0.661417
vn -0.322835 0.677165 -0.661417
vn -0.322835 0.677165 -0.661417
vn -0.322835 0.677165 -0.661417
vn -0.393701 0.425197 -0.818898
vn -0.393701 0.425197 -0.818898
vn -0.393701 0.425197 -0.818898
vn -0.393701 0.425197 -0.818898
vn -0.425197 0.141732 -0.889764
vn -0.425197 0.141732 -0.889764
vn -0.425197 0.141732 -0.889764
vn -0.425197 0.141732 -0.889764
vn -0.425197 -0.141732 -0.889764
vn -0.425197 -0.141732 -0.889764
vn -0.425197 -0.141732 -0.889764
vn -0.425197 -0.141732 -0.889764
vn -0.393701 -0.425197 -0.818897
vn -0.393701 -0.425197 -0.818897
vn -0.393701 -0.425197 -0.818897
vn -0.393701 -0.425197 -0.818897
vn -0.322835 -0.677165 -0.661417
vn -0.322835 -0.677165 -0.661417
vn -0.322835 -0.677165 -0.661417
vn -0.322835 -0.677165 -0.661417
vn -0.212598 -0.874016 -0.433071
vn -0.212598 -0.874016 -0.433071
vn -0.212598 -0.874016 -0.433071
vn -0.212598 -0.874016 -0.433071
vn -0.078740 -0.984252 -0.149606
vn -0.078740 -0.984252 -0.149606
vn -0.078740 -0.984252 -0.149606
vn -0.078740 -0.984252 -0.149606
vn 0.078740 -0.984252 0.149606
vn 0.078740 -0.984252 0.149606
vn 0.078740 -0.984252 0.149606
vn 0.078740 -0.984252 0.149606
vn 0.236220 -0.874016 0.425197
vn 0.236220 -0.874016 0.425197
vn 0.236220 -0.874016 0.425197
vn 0.236220 -0.874016 0.425197
vn 0.377953 -0.669291 0.637795
vn 0.377953 -0.669291 0.637795
vn 0.377953 -0.669291 0.637795
vn 0.377953 -0.669291 0.637795
vn 0.503937 -0.417323 0.755905
vn 0.503937 -0.417323 0.755905
vn 0.503937 -0.417323 0.755905
vn 0.503937 -0.417323 0.755905
vn 0.590551 -0.141732 0.795275
vn 0.590551 -0.141732 0.795275
vn 0.590551 -0.141732 0.795275
vn 0.590551 -0.141732 0.795275
vn 0.590551 0.141732 0.795275
vn 0.590551 0.141732 0.795275
vn 0.590551 0.141732 0.795275
vn 0.590551 0.141732 0.795275
vn 0.503937 0.417323 0.755905
vn 0.503937 0.417323 0.755905
vn 0.503937 0.417323 0.755905
vn 0.503937 0.417323 0.755905
vn 0.377953 0.669291 0.637795
vn 0.377953 0.669291 0.637795
vn 0.377953 0.669291 0.637795
vn 0.377953 0.669291 0.637795
vn -0.236220 0.874016 0.425197
vn -0.236220 0.874016 0.425197
vn -0.236220 0.874016 0.425197
vn -0.236220 0.874016 0.425197
vn -0.078740 0.984252 0.149606
vn -0.078740 0.984252 0.149606
vn -0.078740 0.984252 0.149606
vn -0.078740 0.984252 0.149606
vn 0.078740 0.984252 -0.149606
vn 0.078740 0.984252 -0.149606
vn 0.078740 0.984252 -0.149606
vn 0.078740 0.984252 -0.149606
vn 0.212598 0.874016 -0.433071
vn 0.212598 0.874016 -0.433071
vn 0.212598 0.874016 -0.433071
vn 0.212598 0.874016 -0.433071
vn 0.322835 0.677165 -0.661417
vn 0.322835 0.677165 -0.661417
vn 0.322835 0.677165 -0.661417
vn 0.322835 0.677165 -0.661417
vn 0.393701 0.425197 -0.818898
vn 0.393701 0.425197 -0.818898
vn 0.393701 0.425197 -0.818898
vn 0.393701 0.425197 -0.818898
vn 0.425197 0.141732 -0.889764
vn 0.425197 0.141732 -0.889764
vn 0.425197 0.141732 -0.889764
vn 0.425197 0.141732 -0.889764
vn 0.425197 -0.141732 -0.889764
vn 0.425197 -0.141732 -0.889764
vn 0.425197 -0.141732 -0.889764
vn 0.425197 -0.141732 -0.889764
vn 0.393701 -0.425197 -0.818897
vn 0.393701 -0.425197 -0.818897
vn 0.393701 -0.425197 -0.818897
vn 0.393701 -0.425197 -0.818897
vn 0.322835 -0.677165 -0.661417
vn 0.322835 -0.677165 -0.661417
vn 0.322835 -0.677165 -0.661417
vn 0.322835 -0.677165 -0.661417
vn 0.212598 -0.874016 -0.433071
vn 0.212598 -0.874016 -0.433071
vn 0.212598 -0.874016 -0.433071
vn 0.212598 -0.874016 -0.433071
vn 0.078740 -0.984252 -0.149606
vn 0.078740 -0.984252 -0.149606
vn 0.078740 -0.984252 -0.149606
vn 0.078740 -0.984252 -0.149606
vn -0.078740 -0.984252 0.149606
vn -0.078740 -0.984252 0.149606
vn -0.078740 -0.984252 0.149606
vn -0.078740 -0.984252 0.149606
vn -0.236220 -0.874016 0.425197
vn -0.236220 -0.874016 0.425197
vn -0.236220 -0.874016 0.425197
vn -0.236220 -0.874016 0.425197
vn -0.377953 -0.669291 0.637795
vn -0.377953 -0.669291 0.637795
vn -0.377953 -0.669291 0.637795
vn -0.377953 -0.669291 0.637795
vn -0.503937 -0.417323 0.755905
vn -0.503937 -0.417323 0.755905
vn -0.503937 -0.417323 0.755905
vn -0.503937 -0.417323 0.755905
vn -0.590551 -0.141732 0.795275
vn -0.590551 -0.141732 0.795275
vn -0.590551 -0.141732 0.795275
vn -0.590551 -0.141732 0.795275
vn -0.590551 0.141732 0.795275
vn -0.590551 0.141732 0.795275
vn -0.590551 0.141732 0.795275
vn -0.590551 0.141732 0.795275
vn -0.503937 0.417323 0.755905
vn -0.503937 0.417323 0.755905
vn -0.503937 0.417323 0.755905
vn -0.503937 0.417323 0.755905
vn -0.377953 0.669291 0.637795
vn -0.377953 0.669291 0.637795
vn -0.377953 0.669291 0.637795
vn -0.377953 0.669291 0.637795
vn 0.220472 0.952756 0.220472
vn 0.220472 0.952756 0.220472
vn 0.417323 0.803150 0.417323
vn 0.417323 0.803150 0.417323
vn 0.574803 0.582677 0.574803
vn 0.574803 0.582677 0.574803
vn 0.677165 0.307087 0.669291
vn 0.677165 0.307087 0.669291
vn 0.708661 0.000000 0.708661
vn 0.708661 0.000000 0.708661
vn 0.677165 -0.307086 0.669291
vn 0.677165 -0.307086 0.669291
vn 0.574803 -0.582677 0.574803
vn 0.574803 -0.582677 0.574803
vn 0.417323 -0.803149 0.417323
vn 0.417323 -0.803149 0.417323
vn 0.220472 -0.952756 0.220473
vn 0.220472 -0.952756 0.220473
vn 0.000000 -1.000000 0.000000
vn 0.000000 -1.000000 0.000000
vn -0.220472 -0.952756 -0.220472
vn -0.220472 -0.952756 -0.220472
vn -0.417323 -0.803150 -0.417323
vn -0.417323 -0.803150 -0.417323
vn -0.574803 -0.582677 -0.574803
vn -0.574803 -0.582677 -0.574803
vn -0.677165 -0.307087 -0.669291
vn -0.677165 -0.307087 -0.669291
vn -0.708661 -0.000000 -0.708661
vn -0.708661 -0.000000 -0.708661
vn -0.677165 0.307086 -0.669291
vn -0.677165 0.307086 -0.669291
vn -0.574803 0.582677 -0.574803
vn -0.574803 0.582677 -0.574803
vn -0.417323 0.803149 -0.417323
vn -0.417323 0.803149 -0.417323
vn -0.220472 0.952756 -0.220473
vn -0.220472 0.952756 -0.220473
vn 0.000000 1.000000 -0.000000
vn 0.000000 1.000000 -0.000000
vn 0.220472 0.952756 0.220472
vn 0.220472 0.952756 0.220472
vn 0.220472 0.952756 0.220472
vn 0.220472 0.952756 0.220472
vn 0.417323 0.803150 0.417323
vn 0.417323 0.803150 0.417323
vn 0.574803 0.582677 0.574803
vn 0.574803 0.582677 0.574803
vn 0.677165 0.307087 0.669291
vn 0.677165 0.307087 0.669291
vn 0.708661 0.000000 0.708661
vn 0.708661 0.000000 0.708661
vn 0.677165 -0.307086 0.669291
vn 0.677165 -0.307086 0.669291
vn 0.574803 -0.582677 0.574803
vn 0.574803 -0.582677 0.574803
vn 0.417323 -0.803149 0.417323
vn 0.417323 -0.803149 0.417323
vn 0.220472 -0.952756 0.220473
vn 0.220472 -0.952756 0.220473
vn 0.000000 -1.000000 0.000000
vn 0.000000 -1.000000 0.000000
vn -0.220472 -0.952756 -0.220472
vn -0.220472 -0.952756 -0.220472
vn -0.417323 -0.803150 -0.417323
vn -0.417323 -0.803150 -0.417323
vn -0.574803 -0.582677 -0.574803
vn -0.574803 -0.582677 -0.574803
vn -0.677165 -0.307087 -0.669291
vn -0.677165 -0.307087 -0.669291
vn -0.708661 -0.000000 -0.708661
vn -0.708661 -0.000000 -0.708661
vn -0.677165 0.307086 -0.669291
vn -0.677165 0.307086 -0.669291
vn -0.574803 0.582677 -0.574803
vn -0.574803 0.582677 -0.574803
vn -0.417323 0.803149 -0.417323
vn -0.417323 0.803149 -0.417323
vn -0.220472 0.952756 -0.220473
vn -0.220472 0.952756 -0.220473
vn 0.000000 1.000000 -0.000000
vn 0.000000 1.000000 -0.000000
vn 0.220472 0.952756 0.220472
vn 0.220472 0.952756 0.220472
vn 0.000000 0.952756 0.307086
vn 0.000000 0.952756 0.307086
vn 0.000000 0.811024 0.590551
vn 0.000000 0.811024 0.590551
vn 0.000000 0.590551 0.811023
vn 0.000000 0.590551 0.811023
vn 0.000000 0.307087 0.952756
vn 0.000000 0.307087 0.952756
vn 0.000000 0.000000 1.000000
vn 0.000000 0.000000 1.000000
vn 0.000000 -0.307086 0.952756
vn 0.000000 -0.307086 0.952756
vn 0.000000 -0.590551 0.811024
vn 0.000000 -0.590551 0.811024
vn 0.000000 -0.811023 0.590551
vn 0.000000 -0.811023 0.590551
vn 0.000000 -0.952756 0.307087
vn 0.000000 -0.952756 0.307087
vn 0.000000 -1.000000 0.000000
vn 0.000000 -1.000000 0.000000
vn 0.000000 -0.952756 -0.307086
vn 0.000000 -0.952756 -0.307086
vn 0.000000 -0.811024 -0.590551
vn 0.000000 -0.811024 -0.590551
vn 0.000000 -0.590551 -0.811023
vn 0.000000 -0.590551 -0.811023
vn 0.000000 -0.307087 -0.952756
vn 0.000000 -0.307087 -0.952756
vn 0.000000 -0.000000 -1.000000
vn 0.000000 -0.000000 -1.000000
vn 0.000000 0.307086 -0.952756
vn 0.000000 0.307086 -0.952756
vn 0.000000 0.590551 -0.811024
vn 0.000000 0.590551 -0.811024
vn 0.000000 0.811023 -0.590551
vn 0.000000 0.811023 -0.590551
vn 0.000000 0.952756 -0.307087
vn 0.000000 0.952756 -0.307087
vn 0.000000 1.000000 -0.000000
vn 0.000000 1.000000 -0.000000
vn 0.000000 0.952756 0.307086
vn 0.000000 0.952756 0.307086
vn -0.220472 0.952756 0.220472
vn -0.417323 0.803150 0.417323
vn -0.220472 0.952756 0.220472
vn -0.417323 0.803150 0.417323
vn -0.574803 0.582677 0.574803
vn -0.574803 0.582677 0.574803
vn -0.677165 0.307087 0.669291
vn -0.677165 0.307087 0.669291
vn -0.708661 0.000000 0.708661
vn -0.708661 0.000000 0.708661
vn -0.677165 -0.307086 0.669291
vn -0.677165 -0.307086 0.669291
vn -0.574803 -0.582677 0.574803
vn -0.574803 -0.582677 0.574803
vn -0.417323 -0.803149 0.417323
vn -0.417323 -0.803149 0.417323
vn -0.220472 -0.952756 0.220473
vn -0.220472 -0.952756 0.220473
vn 0.000000 -1.000000 0.000000
vn 0.000000 -1.000000 0.000000
vn 0.220472 -0.952756 -0.220472
vn 0.220472 -0.952756 -0.220472
vn 0.417323 -0.803150 -0.417323
vn 0.417323 -0.803150 -0.417323
vn 0.574803 -0.582677 -0.574803
vn 0.574803 -0.582677 -0.574803
vn 0.677165 -0.307087 -0.669291
vn 0.677165 -0.307087 -0.669291
vn 0.708661 -0.000000 -0.708661
vn 0.708661 -0.000000 -0.708661
vn 0.677165 0.307086 -0.669291
vn 0.677165 0.307086 -0.669291
vn 0.574803 0.582677 -0.574803
vn 0.574803 0.582677 -0.574803
vn 0.417323 0.803149 -0.417323
vn 0.417323 0.803149 -0.417323
vn 0.220472 0.952756 -0.220473
vn 0.220472 0.952756 -0.220473
vn 0.000000 1.000000 -0.000000
vn 0.000000 1.000000 -0.000000
vn -0.220472 0.952756 0.220472
vn -0.220472 0.952756 0.220472
vn 0.000000 0.811024 0.590551
vn 0.000000 0.952756 0.307086
vn 0.000000 0.952756 0.307086
vn 0.000000 0.811024 0.590551
vn 0.000000 0.590551 0.811023
vn 0.000000 0.590551 0.811023
vn 0.000000 0.307087 0.952756
vn 0.000000 0.307087 0.952756
vn 0.000000 0.000000 1.000000
vn 0.000000 0.000000 1.000000
vn 0.000000 -0.307086 0.952756
vn 0.000000 -0.307086 0.952756
vn 0.000000 -0.590551 0.811024
vn 0.000000 -0.590551 0.811024
vn 0.000000 -0.811023 0.590551
vn 0.000000 -0.811023 0.590551
vn 0.000000 -0.952756 0.307087
vn 0.000000 -0.952756 0.307087
vn 0.000000 -1.000000 0.000000
vn 0.000000 -1.000000 0.000000
vn 0.000000 -0.952756 -0.307086
vn 0.000000 -0.952756 -0.307086
vn 0.000000 -0.811024 -0.590551
vn 0.000000 -0.811024 -0.590551
vn 0.000000 -0.590551 -0.811023
vn 0.000000 -0.590551 -0.811023
vn 0.000000 -0.307087 -0.952756
vn 0.000000 -0.307087 -0.952756
vn 0.000000 -0.000000 -1.000000
vn 0.000000 -0.000000 -1.000000
vn 0.000000 0.307086 -0.952756
vn 0.000000 0.307086 -0.952756
vn 0.000000 0.590551 -0.811024
vn 0.000000 0.590551 -0.811024
vn 0.000000 0.811023 -0.590551
vn 0.000000 0.811023 -0.590551
vn 0.000000 0.952756 -0.307087
vn 0.000000 0.952756 -0.307087
vn 0.000000 1.000000 -0.000000
vn 0.000000 1.000000 -0.000000
vn 0.000000 0.952756 0.307086
vn 0.000000 0.952756 0.307086
vn -0.220472 0.952756 0.220472
vn -0.417323 0.803150 0.417323
vn -0.220472 0.952756 0.220472
vn -0.417323 0.803150 0.417323
vn -0.574803 0.582677 0.574803
vn -0.574803 0.582677 0.574803
vn -0.677165 0.307087 0.669291
vn -0.677165 0.307087 0.669291
vn -0.708661 0.000000 0.708661
vn -0.708661 0.000000 0.708661
vn -0.677165 -0.307086 0.669291
vn -0.677165 -0.307086 0.669291
vn -0.574803 -0.582677 0.574803
vn -0.574803 -0.582677 0.574803
vn -0.417323 -0.803149 0.417323
vn -0.417323 -0.803149 0.417323
vn -0.220472 -0.952756 0.220473
vn -0.220472 -0.952756 0.220473
vn 0.000000 -1.000000 0.000000
vn 0.000000 -1.000000 0.000000
vn 0.220472 -0.952756 -0.220472
vn 0.220472 -0.952756 -0.220472
vn 0.417323 -0.803150 -0.417323
vn 0.417323 -0.803150 -0.417323
vn 0.574803 -0.582677 -0.574803
vn 0.574803 -0.582677 -0.574803
vn 0.677165 -0.307087 -0.669291
vn 0.677165 -0.307087 -0.669291
vn 0.708661 -0.000000 -0.708661
vn 0.708661 -0.000000 -0.708661
vn 0.677165 0.307086 -0.669291
vn 0.677165 0.307086 -0.669291
vn 0.574803 0.582677 -0.574803
vn 0.574803 0.582677 -0.574803
vn 0.417323 0.803149 -0.417323
vn 0.417323 0.803149 -0.417323
vn 0.220472 0.952756 -0.220473
vn 0.220472 0.952756 -0.220473
vn 0.000000 1.000000 -0.000000
vn 0.000000 1.000000 -0.000000
vn -0.220472 0.952756 0.220472
vn -0.220472 0.952756 0.220472
tan 0.861368 0.017484 -0.514477 1.000000
tan 0.961436 -0.146196 -0.233616 1.000000
tan 0.744560 0.117552 -0.655279 1.000000
tan 0.972038 -0.212040 -0.104160 1.000000
tan 0.824168 0.019778 -0.563891 1.000000
tan 0.992312 -0.059830 -0.128650 1.000000
tan 0.714489 0.048484 -0.695021 1.000000
tan 0.998884 -0.078120 -0.011780 1.000000
tan 0.807490 -0.025730 -0.594271 1.000000
tan 0.992312 0.063364 -0.105400 1.000000
tan 0.714489 -0.048484 -0.695021 1.000000
tan 0.998884 0.078120 -0.011780 1.000000
tan 0.813628 -0.087978 -0.576973 1.000000
tan 0.978920 0.190836 -0.095418 1.000000
tan 0.968566 0.156798 -0.159030 1.000000
tan 0.751751 -0.135470 -0.642445 1.000000
tan 0.841714 -0.113584 -0.527125 1.000000
tan 0.948726 0.231322 -0.226238 1.000000
tan 0.948478 0.189782 -0.268647 1.000000
tan 0.804514 -0.170500 -0.567239 1.000000
tan 0.875690 -0.101928 -0.473929 1.000000
tan 0.922562 0.134912 -0.373489 1.000000
tan 0.922810 0.179800 -0.350301 1.000000
tan 0.868994 -0.133920 -0.487321 1.000000
tan 0.898382 -0.037200 -0.435241 1.000000
tan 0.903962 0.049600 -0.424081 1.000000
tan 0.898072 0.066960 -0.418501 1.000000
tan 0.898382 -0.051212 -0.437473 1.000000
tan 0.898382 0.037200 -0.435241 1.000000
tan 0.903962 -0.049600 -0.424081 1.000000
tan 0.898382 0.051212 -0.437473 1.000000
tan 0.898072 -0.066960 -0.418501 1.000000
tan 0.922562 -0.134912 -0.373489 1.000000
tan 0.868994 0.133920 -0.487321 1.000000
tan 0.875690 0.101928 -0.473929 1.000000
tan 0.922810 -0.179800 -0.350301 1.000000
tan 0.841714 0.113584 -0.527125 1.000000
tan 0.948478 -0.189782 -0.268646 1.000000
tan 0.948726 -0.231322 -0.226238 1.000000
tan 0.804514 0.170500 -0.567239 1.000000
tan 0.813628 0.087978 -0.576973 1.000000
tan 0.968566 -0.156798 -0.159030 1.000000
tan 0.978920 -0.190836 -0.095418 1.000000
tan 0.751751 0.135470 -0.642445 1.000000
tan 0.807490 0.025730 -0.594271 1.000000
tan 0.992312 -0.063364 -0.105400 1.000000
tan 0.998884 -0.078120 -0.011780 1.000000
tan 0.714489 0.048484 -0.695021 1.000000
tan 0.824168 -0.019778 -0.563891 1.000000
tan 0.992312 0.059830 -0.128650 1.000000
tan 0.998884 0.078120 -0.011780 1.000000
tan 0.714489 -0.048484 -0.695021 1.000000
tan 0.861368 -0.017484 -0.514477 1.000000
tan 0.961436 0.146196 -0.233616 1.000000
tan 0.972038 0.212040 -0.104160 1.000000
tan 0.744560 -0.117552 -0.655279 1.000000
tan 0.872590 0.030318 -0.485275 1.000000
tan 0.909976 0.152520 -0.379193 1.000000
tan 0.926778 0.268770 -0.267159 1.000000
tan 0.788518 -0.129828 -0.603509 1.000000
tan 0.809350 -0.075392 -0.581189 1.000000
tan 0.838924 0.043648 -0.535185 1.000000
tan 0.848782 0.073408 -0.525327 1.000000
tan 0.863786 0.226176 -0.450989 1.000000
tan 0.807986 0.035216 -0.593713 1.000000
tan 0.807986 0.035216 -0.593713 1.000000
tan 0.803522 -0.020956 -0.600409 1.000000
tan 0.806188 0.091388 -0.582367 1.000000
tan 0.807986 -0.035216 -0.593713 1.000000
tan 0.807986 -0.035216 -0.593713 1.000000
tan 0.806188 -0.091388 -0.582367 1.000000
tan 0.803522 0.020956 -0.600409 1.000000
tan 0.838924 -0.043648 -0.535185 1.000000
tan 0.848782 -0.073408 -0.525327 1.000000
tan 0.863786 -0.226177 -0.450989 1.000000
tan 0.809350 0.075392 -0.581189 1.000000
tan 0.872590 -0.030318 -0.485275 1.000000
tan 0.909976 -0.152520 -0.379193 1.000000
tan 0.788518 0.129828 -0.603509 1.000000
tan 0.926778 -0.268771 -0.267158 1.000000
tan -0.861368 0.017484 -0.514477 1.000000
tan -0.961436 -0.146196 -0.233616 1.000000
tan -0.972038 -0.212040 -0.104160 1.000000
tan -0.744560 0.117552 -0.655279 1.000000
tan -0.824168 0.019778 -0.563891 1.000000
tan -0.992312 -0.059830 -0.128650 1.000000
tan -0.998884 -0.078120 -0.011780 1.000000
tan -0.714489 0.048484 -0.695021 1.000000
tan -0.807490 -0.025730 -0.594271 1.000000
tan -0.992312 0.063364 -0.105400 1.000000
tan -0.998884 0.078120 -0.011780 1.000000
tan -0.714489 -0.048484 -0.695021 1.000000
tan -0.813628 -0.087978 -0.576973 1.000000
tan -0.968566 0.156798 -0.159030 1.000000
tan -0.978920 0.190836 -0.095418 1.000000
tan -0.751751 -0.135470 -0.642445 1.000000
tan -0.841714 -0.113584 -0.527125 1.000000
tan -0.948478 0.189782 -0.268647 1.000000
tan -0.948726 0.231322 -0.226238 1.000000
tan -0.804514 -0.170500 -0.567239 1.000000
tan -0.922562 0.134912 -0.373489 1.000000
tan -0.875690 -0.101928 -0.473929 1.000000
tan -0.922810 0.179800 -0.350301 1.000000
tan -0.868994 -0.133920 -0.487321 1.000000
tan -0.903962 0.049600 -0.424081 1.000000
tan -0.898382 -0.037200 -0.435241 1.000000
tan -0.898072 0.066960 -0.418501 1.000000
tan -0.898382 -0.051212 -0.437473 1.000000
tan -0.898072 -0.066960 -0.418501 1.000000
tan -0.898382 0.037200 -0.435241 1.000000
tan -0.903962 -0.049600 -0.424081 1.000000
tan -0.898382 0.051212 -0.437473 1.000000
tan -0.922810 -0.179800 -0.350301 1.000000
tan -0.875690 0.101928 -0.473929 1.000000
tan -0.922562 -0.134912 -0.373489 1.000000
tan -0.868994 0.133920 -0.487321 1.000000
tan -0.841714 0.113584 -0.527125 1.000000
tan -0.948478 -0.189782 -0.268646 1.000000
tan -0.804514 0.170500 -0.567239 1.000000
tan -0.948726 -0.231322 -0.226238 1.000000
tan -0.813628 0.087978 -0.576973 1.000000
tan -0.968566 -0.156798 -0.159030 1.000000
tan -0.751751 0.135470 -0.642445 1.000000
tan -0.978920 -0.190836 -0.095418 1.000000
tan -0.807490 0.025730 -0.594271 1.000000
tan -0.992312 -0.063364 -0.105400 1.000000
tan -0.714489 0.048484 -0.695021 1.000000
tan -0.998884 -0.078120 -0.011780 1.000000
tan -0.824168 -0.019778 -0.563891 1.000000
tan -0.992312 0.059830 -0.128650 1.000000
tan -0.714489 -0.048484 -0.695021 1.000000
tan -0.998884 0.078120 -0.011780 1.000000
tan -0.861368 -0.017484 -0.514477 1.000000
tan -0.961436 0.146196 -0.233616 1.000000
tan -0.744560 -0.117552 -0.655279 1.000000
tan -0.972038 0.212040 -0.104160 1.000000
tan -0.872590 0.030318 -0.485275 1.000000
tan -0.909976 0.152520 -0.379193 1.000000
tan -0.788518 -0.129828 -0.603509 1.000000
tan -0.926778 0.268770 -0.267159 1.000000
tan -0.809350 -0.075392 -0.581189 1.000000
tan -0.848782 0.073408 -0.525327 1.000000
tan -0.838924 0.043648 -0.535185 1.000000
tan -0.863786 0.226176 -0.450989 1.000000
tan -0.803522 -0.020956 -0.600409 1.000000
tan -0.807986 0.035216 -0.593713 1.000000
tan -0.807986 0.035216 -0.593713 1.000000
tan -0.806188 0.091388 -0.582367 1.000000
tan -0.807986 -0.035216 -0.593713 1.000000
tan -0.807986 -0.035216 -0.593713 1.000000
tan -0.803522 0.020956 -0.600409 1.000000
tan -0.806188 -0.091388 -0.582367 1.000000
tan -0.848782 -0.073408 -0.525327 1.000000
tan -0.838924 -0.043648 -0.535185 1.000000
tan -0.863786 -0.226177 -0.450989 1.000000
tan -0.809350 0.075392 -0.581189 1.000000
tan -0.872590 -0.030318 -0.485275 1.000000
tan -0.909976 -0.152520 -0.379193 1.000000
tan -0.926778 -0.268771 -0.267158 1.000000
tan -0.788518 0.129828 -0.603509 1.000000
tan -0.707111 0.000000 0.707111 1.000000
tan -0.707111 0.000000 0.707111 1.000000
tan -0.701779 0.000000 0.701779 1.000000
tan -0.701779 0.000000 0.701779 1.000000
tan -0.704755 0.000000 0.704755 1.000000
tan -0.704755 0.000000 0.704755 1.000000
tan -0.702957 0.001674 0.710459 1.000000
tan -0.702957 0.001674 0.710459 1.000000
tan -0.708661 0.000000 0.708661 1.000000
tan -0.708661 0.000000 0.708661 1.000000
tan -0.702957 -0.001674 0.710459 1.000000
tan -0.702957 -0.001674 0.710459 1.000000
tan -0.704755 0.000000 0.704755 1.000000
tan -0.704755 0.000000 0.704755 1.000000
tan -0.701779 0.000000 0.701779 1.000000
tan -0.701779 0.000000 0.701779 1.000000
tan -0.707111 0.000000 0.707111 1.000000
tan -0.707111 0.000000 0.707111 1.000000
tan -0.708661 0.000000 0.708661 1.000000
tan -0.708661 0.000000 0.708661 1.000000
tan -0.707111 0.000000 0.707111 1.000000
tan -0.707111 0.000000 0.707111 1.000000
tan -0.701779 0.000000 0.701779 1.000000
tan -0.701779 0.000000 0.701779 1.000000
tan -0.704755 0.000000 0.704755 1.000000
tan -0.704755 0.000000 0.704755 1.000000
tan -0.702957 0.001674 0.710459 1.000000
tan -0.702957 0.001674 0.710459 1.000000
tan -0.708661 0.000000 0.708661 1.000000
tan -0.708661 0.000000 0.708661 1.000000
tan -0.702957 -0.001674 0.710459 1.000000
tan -0.702957 -0.001674 0.710459 1.000000
tan -0.704755 0.000000 0.704755 1.000000
tan -0.704755 0.000000 0.704755 1.000000
tan -0.701779 0.000000 0.701779 1.000000
tan -0.701779 0.000000 0.701779 1.000000
tan -0.707111 0.000000 0.707111 1.000000
tan -0.707111 0.000000 0.707111 1.000000
tan -0.708661 0.000000 0.708661 1.000000
tan -0.708661 0.000000 0.708661 1.000000
tan -0.707111 0.000000 0.707111 1.000000
tan -0.707111 0.000000 0.707111 1.000000
tan -0.707111 0.000000 0.707111 1.000000
tan -0.707111 0.000000 0.707111 1.000000
tan -0.701779 0.000000 0.701779 1.000000
tan -0.701779 0.000000 0.701779 1.000000
tan -0.704755 0.000000 0.704755 1.000000
tan -0.704755 0.000000 0.704755 1.000000
tan -0.702957 0.001674 0.710459 1.000000
tan -0.702957 0.001674 0.710459 1.000000
tan -0.708661 0.000000 0.708661 1.000000
tan -0.708661 0.000000 0.708661 1.000000
tan -0.702957 -0.001674 0.710459 1.000000
tan -0.702957 -0.001674 0.710459 1.000000
tan -0.704755 0.000000 0.704755 1.000000
tan -0.704755 0.000000 0.704755 1.000000
tan -0.701779 0.000000 0.701779 1.000000
tan -0.701779 0.000000 0.701779 1.000000
tan -0.707111 0.000000 0.707111 1.000000
tan -0.707111 0.000000 0.707111 1.000000
tan -0.708661 0.000000 0.708661 1.000000
tan -0.708661 0.000000 0.708661 1.000000
tan -0.707111 0.000000 0.707111 1.000000
tan -0.707111 0.000000 0.707111 1.000000
tan -0.701779 0.000000 0.701779 1.000000
tan -0.701779 0.000000 0.701779 1.000000
tan -0.704755 0.000000 0.704755 1.000000
tan -0.704755 0.000000 0.704755 1.000000
tan -0.702957 0.001674 0.710459 1.000000
tan -0.702957 0.001674 0.710459 1.000000
tan -0.708661 0.000000 0.708661 1.000000
tan -0.708661 0.000000 0.708661 1.000000
tan -0.702957 -0.001674 0.710459 1.000000
tan -0.702957 -0.001674 0.710459 1.000000
tan -0.704755 0.000000 0.704755 1.000000
tan -0.704755 0.000000 0.704755 1.000000
tan -0.701779 0.000000 0.701779 1.000000
tan -0.701779 0.000000 0.701779 1.000000
tan -0.707111 0.000000 0.707111 1.000000
tan -0.707111 0.000000 0.707111 1.000000
tan -0.708661 0.000000 0.708661 1.000000
tan -0.708661 0.000000 0.708661 1.000000
tan -0.707111 0.000000 0.707111 1.000000
tan -0.707111 0.000000 0.707111 1.000000
tan 1.002046 0.000000 0.000000 1.000000
tan 1.002046 0.000000 0.000000 1.000000
tan 1.006510 0.000000 0.000000 1.000000
tan 1.006510 0.000000 0.000000 1.000000
tan 1.006510 0.000000 0.000000 1.000000
tan 1.006510 0.000000 0.000000 1.000000
tan 1.002046 0.000000 0.000000 1.000000
tan 1.002046 0.000000 0.000000 1.000000
tan 1.000000 0.000000 0.000000 1.000000
tan 1.000000 0.000000 0.000000 1.000000
tan 1.002046 0.000000 0.000000 1.000000
tan 1.002046 0.000000 0.000000 1.000000
tan 1.006510 0.000000 0.000000 1.000000
tan 1.006510 0.000000 0.000000 1.000000
tan 1.006510 0.000000 0.000000 1.000000
tan 1.006510 0.000000 0.000000 1.000000
tan 1.002046 0.000000 0.000000 1.000000
tan 1.002046 0.000000 0.000000 1.000000
tan 1.000000 0.000000 0.000000 1.000000
tan 1.000000 0.000000 0.000000 1.000000
tan 1.002046 0.000000 0.000000 1.000000
tan 1.002046 0.000000 0.000000 1.000000
tan 1.006510 0.000000 0.000000 1.000000
tan 1.006510 0.000000 0.000000 1.000000
tan 1.006510 0.000000 0.000000 1.000000
tan 1.006510 0.000000 0.000000 1.000000
tan 1.002046 0.000000 0.000000 1.000000
tan 1.002046 0.000000 0.000000 1.000000
tan 1.000000 0.000000 0.000000 1.000000
tan 1.000000 0.000000 0.000000 1.000000
tan 1.002046 0.000000 0.000000 1.000000
tan 1.002046 0.000000 0.000000 1.000000
tan 1.006510 0.000000 0.000000 1.000000
tan 1.006510 0.000000 0.000000 1.000000
tan 1.006510 0.000000 0.000000 1.000000
tan 1.006510 0.000000 0.000000 1.000000
tan 1.002046 0.000000 0.000000 1.000000
tan 1.002046 0.000000 0.000000 1.000000
tan 1.000000 0.000000 0.000000 1.000000
tan 1.000000 0.000000 0.000000 1.000000
tan 1.002046 0.000000 0.000000 1.000000
tan 1.002046 0.000000 0.000000 1.000000
tan 0.707111 0.000000 0.707111 1.000000
tan 0.701779 0.000000 0.701779 1.000000
tan 0.707111 0.000000 0.707111 1.000000
tan 0.701779 0.000000 0.701779 1.000000
tan 0.704755 0.000000 0.704755 1.000000
tan 0.704755 0.000000 0.704755 1.000000
tan 0.702957 0.001674 0.710459 1.000000
tan 0.702957 0.001674 0.710459 1.000000
tan 0.708661 0.000000 0.708661 1.000000
tan 0.708661 0.000000 0.708661 1.000000
tan 0.702957 -0.001674 0.710459 1.000000
tan 0.702957 -0.001674 0.710459 1.000000
tan 0.704755 0.000000 0.704755 1.000000
tan 0.704755 0.000000 0.704755 1.000000
tan 0.701779 0.000000 0.701779 1.000000
tan 0.701779 0.000000 0.701779 1.000000
tan 0.707111 0.000000 0.707111 1.000000
tan 0.707111 0.000000 0.707111 1.000000
tan 0.708661 0.000000 0.708661 1.000000
tan 0.708661 0.000000 0.708661 1.000000
tan 0.707111 0.000000 0.707111 1.000000
tan 0.707111 0.000000 0.707111 1.000000
tan 0.701779 0.000000 0.701779 1.000000
tan 0.701779 0.000000 0.701779 1.000000
tan 0.704755 0.000000 0.704755 1.000000
tan 0.704755 0.000000 0.704755 1.000000
tan 0.702957 0.001674 0.710459 1.000000
tan 0.702957 0.001674 0.710459 1.000000
tan 0.708661 0.000000 0.708661 1.000000
tan 0.708661 0.000000 0.708661 1.000000
tan 0.702957 -0.001674 0.710459 1.000000
tan 0.702957 -0.001674 0.710459 1.000000
tan 0.704755 0.000000 0.704755 1.000000
tan 0.704755 0.000000 0.704755 1.000000
tan 0.701779 0.000000 0.701779 1.000000
tan 0.701779 0.000000 0.701779 1.000000
tan 0.707111 0.000000 0.707111 1.000000
tan 0.707111 0.000000 0.707111 1.000000
tan 0.708661 0.000000 0.708661 1.000000
tan 0.708661 0.000000 0.708661 1.000000
tan 0.707111 0.000000 0.707111 1.000000
tan 0.707111 0.000000 0.707111 1.000000
tan -1.006510 0.000000 0.000000 1.000000
tan -1.002046 0.000000 0.000000 1.000000
tan -1.002046 0.000000 0.000000 1.000000
tan -1.006510 0.000000 0.000000 1.000000
tan -1.006510 0.000000 0.000000 1.000000
tan -1.006510 0.000000 0.000000 1.000000
tan -1.002046 0.000000 0.000000 1.000000
tan -1.002046 0.000000 0.000000 1.000000
tan -1.000000 0.000000 0.000000 1.000000
tan -1.000000 0.000000 0.000000 1.000000
tan -1.002046 0.000000 0.000000 1.000000
tan -1.002046 0.000000 0.000000 1.000000
tan -1.006510 0.000000 0.000000 1.000000
tan -1.006510 0.000000 0.000000 1.000000
tan -1.006510 0.000000 0.000000 1.000000
tan -1.006510 0.000000 0.000000 1.000000
tan -1.002046 0.000000 0.000000 1.000000
tan -1.002046 0.000000 0.000000 1.000000
tan -1.000000 0.000000 0.000000 1.000000
tan -1.000000 0.000000 0.000000 1.000000
tan -1.002046 0.000000 0.000000 1.000000
tan -1.002046 0.000000 0.000000 1.000000
tan -1.006510 0.000000 0.000000 1.000000
tan -1.006510 0.000000 0.000000 1.000000
tan -1.006510 0.000000 0.000000 1.000000
tan -1.006510 0.000000 0.000000 1.000000
tan -1.002046 0.000000 0.000000 1.000000
tan -1.002046 0.000000 0.000000 1.000000
tan -1.000000 0.000000 0.000000 1.000000
tan -1.000000 0.000000 0.000000 1.000000
tan -1.002046 0.000000 0.000000 1.000000
tan -1.002046 0.000000 0.000000 1.000000
tan -1.006510 0.000000 0.000000 1.000000
tan -1.006510 0.000000 0.000000 1.000000
tan -1.006510 0.000000 0.000000 1.000000
tan -1.006510 0.000000 0.000000 1.000000
tan -1.002046 0.000000 0.000000 1.000000
tan -1.002046 0.000000 0.000000 1.000000
tan -1.000000 0.000000 0.000000 1.000000
tan -1.000000 0.000000 0.000000 1.000000
tan -1.002046 0.000000 0.000000 1.000000
tan -1.002046 0.000000 0.000000 1.000000
tan 0.707111 0.000000 0.707111 1.000000
tan 0.701779 0.000000 0.701779 1.000000
tan 0.707111 0.000000 0.707111 1.000000
tan 0.701779 0.000000 0.701779 1.000000
tan 0.704755 0.000000 0.704755 1.000000
tan 0.704755 0.000000 0.704755 1.000000
tan 0.702957 0.001674 0.710459 1.000000
tan 0.702957 0.001674 0.710459 1.000000
tan 0.708661 0.000000 0.708661 1.000000
tan 0.708661 0.000000 0.708661 1.000000
tan 0.702957 -0.001674 0.710459 1.000000
tan 0.702957 -0.001674 0.710459 1.000000
tan 0.704755 0.000000 0.704755 1.000000
tan 0.704755 0.000000 0.704755 1.000000
tan 0.701779 0.000000 0.701779 1.000000
tan 0.701779 0.000000 0.701779 1.000000
tan 0.707111 0.000000 0.707111 1.000000
tan 0.707111 0.000000 0.707111 1.000000
tan 0.708661 0.000000 0.708661 1.000000
tan 0.708661 0.000000 0.708661 1.000000
tan 0.707111 0.000000 0.707111 1.000000
tan 0.707111 0.000000 0.707111 1.000000
tan 0.701779 0.000000 0.701779 1.000000
tan 0.701779 0.000000 0.701779 1.000000
tan 0.704755 0.000000 0.704755 1.000000
tan 0.704755 0.000000 0.704755 1.000000
tan 0.702957 0.001674 0.710459 1.000000
tan 0.702957 0.001674 0.710459 1.000000
tan 0.708661 0.000000 0.708661 1.000000
tan 0.708661 0.000000 0.708661 1.000000
tan 0.702957 -0.001674 0.710459 1.000000
tan 0.702957 -0.001674 0.710459 1.000000
tan 0.704755 0.000000 0.704755 1.000000
tan 0.704755 0.000000 0.704755 1.000000
tan 0.701779 0.000000 0.701779 1.000000
tan 0.701779 0.000000 0.701779 1.000000
tan 0.707111 0.000000 0.707111 1.000000
tan 0.707111 0.000000 0.707111 1.000000
tan 0.708661 0.000000 0.708661 1.000000
tan 0.708661 0.000000 0.708661 1.000000
tan 0.707111 0.000000 0.707111 1.000000
tan 0.707111 0.000000 0.707111 1.000000
f 3/3/3 2/2/2 1/1/1
f 2/2/2 4/4/4 1/1/1
f 7/7/7 6/6/6 5/5/5
f 6/6/6 8/8/8 5/5/5
f 11/11/11 10/10/10 9/9/9
f 10/10/10 12/12/12 9/9/9
f 15/15/15 14/14/14 13/13/13
f 16/16/16 15/15/15 13/13/13
f 19/19/19 18/18/18 17/17/17
f 20/20/20 19/19/19 17/17/17
f 23/23/23 22/22/22 21/21/21
f 24/24/24 21/21/21 22/22/22
f 27/27/27 26/26/26 25/25/25
f 28/28/28 25/25/25 26/26/26
f 31/31/31 30/30/30 29/29/29
f 32/32/32 29/29/29 30/30/30
f 35/35/35 34/34/34 33/33/33
f 36/36/36 35/35/35 33/33/33
f 39/39/39 38/38/38 37/37/37
f 40/40/40 37/37/37 38/38/38
f 43/43/43 42/42/42 41/41/41
f 44/44/44 41/41/41 42/42/42
f 47/47/47 46/46/46 45/45/45
f 48/48/48 45/45/45 46/46/46
f 51/51/51 50/50/50 49/49/49
f 52/52/52 49/49/49 50/50/50
f 55/55/55 54/54/54 53/53/53
f 56/56/56 53/53/53 54/54/54
f 59/59/59 58/58/58 57/57/57
f 60/60/60 57/57/57 58/58/58
f 63/63/63 62/62/62 61/61/61
f 64/64/64 62/62/62 63/63/63
f 67/67/67 66/66/66 65/65/65
f 68/68/68 65/65/65 66/66/66
f 71/71/71 70/70/70 69/69/69
f 72/72/72 69/69/69 70/70/70
f 75/75/75 74/74/74 73/73/73
f 76/76/76 73/73/73 74/74/74
f 79/79/79 78/78/78 77/77/77
f 78/78/78 80/80/80 77/77/77
f 83/83/83 82/82/82 81/81/81
f 81/81/81 82/82/82 84/84/84
f 87/87/87 86/86/86 85/85/85
f 85/85/85 86/86/86 88/88/88
f 91/91/91 90/90/90 89/89/89
f 89/89/89 90/90/90 92/92/92
f 95/95/95 94/94/94 93/93/93
f 93/93/93 94/94/94 96/96/96
f 99/99/99 98/98/98 97/97/97
f 97/97/97 98/98/98 100/100/100
f 103/103/103 102/102/102 101/101/101
f 104/104/104 101/101/101 102/102/102
f 107/107/107 106/106/106 105/105/105
f 108/108/108 105/105/105 106/106/106
f 111/111/111 110/110/110 109/109/109
f 110/110/110 111/111/111 112/112/112
f 115/115/115 114/114/114 113/113/113
f 114/114/114 115/115/115 116/116/116
f 119/119/119 118/118/118 117/117/117
f 120/120/120 117/117/117 118/118/118
f 123/123/123 122/122/122 121/121/121
f 124/124/124 121/121/121 122/122/122
f 127/127/127 126/126/126 125/125/125
f 128/128/128 125/125/125 126/126/126
f 131/131/131 130/130/130 129/129/129
f 132/132/132 129/129/129 130/130/130
f 135/135/135 134/134/134 133/133/133
f 136/136/136 133/133/133 134/134/134
f 139/139/139 138/138/138 137/137/137
f 140/140/140 137/137/137 138/138/138
f 143/143/143 142/142/142 141/141/141
f 143/143/143 144/144/144 142/142/142
f 147/147/147 146/146/146 145/145/145
f 147/147/147 148/148/148 146/146/146
f 151/151/151 150/150/150 149/149/149
f 152/152/152 149/149/149 150/150/150
f 155/155/155 154/154/154 153/153/153
f 156/156/156 153/153/153 154/154/154
f 159/159/159 158/158/158 157/157/157
f 157/157/157 158/158/158 160/160/160
f 163/163/163 162/162/162 161/161/161
f 161/161/161 164/164/164 163/163/163
f 165/165/165 163/163/163 164/164/164
f 164/164/164 166/166/166 165/165/165
f 165/165/165 166/166/166 167/167/167
f 166/166/166 168/168/168 167/167/167
f 167/167/167 168/168/168 169/169/169
f 170/170/170 169/169/169 168/168/168
f 170/170/170 171/171/171 169/169/169
f 172/172/172 169/169/169 171/171/171
f 171/171/171 173/173/173 172/172/172
f 174/174/174 172/172/172 173/173/173
f 173/173/173 175/175/175 174/174/174
f 176/176/176 174/174/174 175/175/175
f 175/175/175 177/177/177 176/176/176
f 178/178/178 176/176/176 177/177/177
f 177/177/177 179/179/179 178/178/178
f 180/180/180 178/178/178 179/179/179
f 179/179/179 181/181/181 180/180/180
f 182/182/182 180/180/180 181/181/181
f 181/181/181 183/183/183 182/182/182
f 184/184/184 182/182/182 183/183/183
f 183/183/183 185/185/185 184/184/184
f 186/186/186 184/184/184 185/185/185
f 185/185/185 187/187/187 186/186/186
f 188/188/188 186/186/186 187/187/187
f 187/187/187 189/189/189 188/188/188
f 190/190/190 188/188/188 189/189/189
f 190/190/190 189/189/189 191/191/191
f 192/192/192 191/191/191 189/189/189
f 191/191/191 192/192/192 193/193/193
f 192/192/192 194/194/194 193/193/193
f 195/195/195 193/193/193 194/194/194
f 194/194/194 196/196/196 195/195/195
f 197/197/197 195/195/195 196/196/196
f 196/196/196 198/198/198 197/197/197
f 199/199/199 197/197/197 198/198/198
f 198/198/198 200/200/200 199/199/199
f 201/201/201 199/199/199 200/200/200
f 200/200/200 202/202/202 201/201/201
f 205/205/205 204/204/204 203/203/203
f 203/203/203 206/206/206 205/205/205
f 207/207/207 205/205/205 206/206/206
f 206/206/206 208/208/208 207/207/207
f 207/207/207 208/208/208 209/209/209
f 208/208/208 210/210/210 209/209/209
f 209/209/209 210/210/210 211/211/211
f 212/212/212 211/211/211 210/210/210
f 212/212/212 213/213/213 211/211/211
f 214/214/214 211/211/211 213/213/213
f 213/213/213 215/215/215 214/214/214
f 216/216/216 214/214/214 215/215/215
f 215/215/215 217/217/217 216/216/216
f 218/218/218 216/216/216 217/217/217
f 217/217/217 219/219/219 218/218/218
f 220/220/220 218/218/218 219/219/219
f 219/219/219 221/221/221 220/220/220
f 222/222/222 220/220/220 221/221/221
f 221/221/221 223/223/223 222/222/222
f 224/224/224 222/222/222 223/223/223
f 223/223/223 225/225/225 224/224/224
f 226/226/226 224/224/224 225/225/225
f 225/225/225 227/227/227 226/226/226
f 228/228/228 226/226/226 227/227/227
f 227/227/227 229/229/229 228/228/228
f 230/230/230 228/228/228 229/229/229
f 229/229/229 231/231/231 230/230/230
f 232/232/232 230/230/230 231/231/231
f 232/232/232 231/231/231 233/233/233
f 234/234/234 233/233/233 231/231/231
f 233/233/233 234/234/234 235/235/235
f 234/234/234 236/236/236 235/235/235
f 237/237/237 235/235/235 236/236/236
f 236/236/236 238/238/238 237/237/237
f 239/239/239 237/237/237 238/238/238
f 238/238/238 240/240/240 239/239/239
f 241/241/241 239/239/239 240/240/240
f 240/240/240 242/242/242 241/241/241
f 243/243/243 241/241/241 242/242/242
f 242/242/242 244/244/244 243/243/243
f 247/247/247 246/246/246 245/245/245
f 246/246/246 247/247/247 248/248/248
f 247/247/247 249/249/249 248/248/248
f 250/250/250 248/248/248 249/249/249
f 249/249/249 251/251/251 250/250/250
f 252/252/252 250/250/250 251/251/251
f 251/251/251 253/253/253 252/252/252
f 254/254/254 252/252/252 253/253/253
f 253/253/253 255/255/255 254/254/254
f 256/256/256 254/254/254 255/255/255
f 255/255/255 257/257/257 256/256/256
f 258/258/258 256/256/256 257/257/257
f 257/257/257 259/259/259 258/258/258
f 260/260/260 258/258/258 259/259/259
f 259/259/259 261/261/261 260/260/260
f 262/262/262 260/260/260 261/261/261
f 261/261/261 263/263/263 262/262/262
f 264/264/264 262/262/262 263/263/263
f 263/263/263 265/265/265 264/264/264
f 266/266/266 264/264/264 265/265/265
f 265/265/265 267/267/267 266/266/266
f 268/268/268 266/266/266 267/267/267
f 267/267/267 269/269/269 268/268/268
f 270/270/270 268/268/268 269/269/269
f 269/269/269 271/271/271 270/270/270
f 272/272/272 270/270/270 271/271/271
f 271/271/271 273/273/273 272/272/272
f 274/274/274 272/272/272 273/273/273
f 273/273/273 275/275/275 274/274/274
f 276/276/276 274/274/274 275/275/275
f 275/275/275 277/277/277 276/276/276
f 278/278/278 276/276/276 277/277/277
f 277/277/277 279/279/279 278/278/278
f 280/280/280 278/278/278 279/279/279
f 281/281/281 280/280/280 279/279/279
f 280/280/280 281/281/281 282/282/282
f 283/283/283 282/282/282 281/281/281
f 282/282/282 283/283/283 284/284/284
f 285/285/285 284/284/284 283/283/283
f 284/284/284 285/285/285 286/286/286
f 289/289/289 288/288/288 287/287/287
f 290/290/290 287/287/287 288/288/288
f 288/288/288 291/291/291 290/290/290
f 292/292/292 290/290/290 291/291/291
f 293/293/293 292/292/292 291/291/291
f 294/294/294 292/292/292 293/293/293
f 295/295/295 294/294/294 293/293/293
f 296/296/296 294/294/294 295/295/295
f 296/296/296 295/295/295 297/297/297
f 298/298/298 297/297/297 295/295/295
f 297/297/297 298/298/298 299/299/299
f 300/300/300 299/299/299 298/298/298
f 299/299/299 300/300/300 301/301/301
f 302/302/302 301/301/301 300/300/300
f 301/301/301 302/302/302 303/303/303
f 304/304/304 303/303/303 302/302/302
f 303/303/303 304/304/304 305/305/305
f 306/306/306 305/305/305 304/304/304
f 305/305/305 306/306/306 307/307/307
f 308/308/308 307/307/307 306/306/306
f 307/307/307 308/308/308 309/309/309
f 310/310/310 309/309/309 308/308/308
f 309/309/309 310/310/310 311/311/311
f 312/312/312 311/311/311 310/310/310
f 311/311/311 312/312/312 313/313/313
f 314/314/314 313/313/313 312/312/312
f 313/313/313 314/314/314 315/315/315
f 316/316/316 315/315/315 314/314/314
f 317/317/317 315/315/315 316/316/316
f 318/318/318 315/315/315 317/317/317
f 319/319/319 318/318/318 317/317/317
f 320/320/320 318/318/318 319/319/319
f 319/319/319 321/321/321 320/320/320
f 322/322/322 320/320/320 321/321/321
f 321/321/321 323/323/323 322/322/322
f 324/324/324 322/322/322 323/323/323
f 323/323/323 325/325/325 324/324/324
f 326/326/326 324/324/324 325/325/325
f 325/325/325 327/327/327 326/326/326
f 328/328/328 326/326/326 327/327/327
f 331/331/331 330/330/330 329/329/329
f 332/332/332 329/329/329 330/330/330
f 329/329/329 332/332/332 333/333/333
f 332/332/332 334/334/334 333/333/333
f 333/333/333 334/334/334 335/335/335
f 334/334/334 336/336/336 335/335/335
f 335/335/335 336/336/336 337/337/337
f 336/336/336 338/338/338 337/337/337
f 337/337/337 338/338/338 339/339/339
f 338/338/338 340/340/340 339/339/339
f 339/339/339 340/340/340 341/341/341
f 340/340/340 342/342/342 341/341/341
f 341/341/341 342/342/342 343/343/343
f 342/342/342 344/344/344 343/343/343
f 343/343/343 344/344/344 345/345/345
f 344/344/344 346/346/346 345/345/345
f 345/345/345 346/346/346 347/347/347
f 346/346/346 348/348/348 347/347/347
f 347/347/347 348/348/348 349/349/349
f 348/348/348 350/350/350 349/349/349
f 349/349/349 350/350/350 351/351/351
f 350/350/350 352/352/352 351/351/351
f 351/351/351 352/352/352 353/353/353
f 352/352/352 354/354/354 353/353/353
f 353/353/353 354/354/354 355/355/355
f 354/354/354 356/356/356 355/355/355
f 355/355/355 356/356/356 357/357/357
f 356/356/356 358/358/358 357/357/357
f 357/357/357 358/358/358 359/359/359
f 358/358/358 360/360/360 359/359/359
f 359/359/359 360/360/360 361/361/361
f 360/360/360 362/362/362 361/361/361
f 361/361/361 362/362/362 363/363/363
f 362/362/362 364/364/364 363/363/363
f 363/363/363 364/364/364 365/365/365
f 366/366/366 365/365/365 364/364/364
f 365/365/365 366/366/366 367/367/367
f 368/368/368 367/367/367 366/366/366
f 367/367/367 368/368/368 369/369/369
f 370/370/370 369/369/369 368/368/368
f 373/373/373 372/372/372 371/371/371
f 374/374/374 371/371/371 372/372/372
f 372/372/372 375/375/375 374/374/374
f 376/376/376 374/374/374 375/375/375
f 377/377/377 376/376/376 375/375/375
f 378/378/378 376/376/376 377/377/377
f 379/379/379 378/378/378 377/377/377
f 380/380/380 378/378/378 379/379/379
f 380/380/380 379/379/379 381/381/381
f 382/382/382 381/381/381 379/379/379
f 381/381/381 382/382/382 383/383/383
f 384/384/384 383/383/383 382/382/382
f 383/383/383 384/384/384 385/385/385
f 386/386/386 385/385/385 384/384/384
f 385/385/385 386/386/386 387/387/387
f 388/388/388 387/387/387 386/386/386
f 387/387/387 388/388/388 389/389/389
f 390/390/390 389/389/389 388/388/388
f 389/389/389 390/390/390 391/391/391
f 392/392/392 391/391/391 390/390/390
f 391/391/391 392/392/392 393/393/393
f 394/394/394 393/393/393 392/392/392
f 393/393/393 394/394/394 395/395/395
f 396/396/396 395/395/395 394/394/394
f 395/395/395 396/396/396 397/397/397
f 398/398/398 397/397/397 396/396/396
f 397/397/397 398/398/398 399/399/399
f 400/400/400 399/399/399 398/398/398
f 401/401/401 399/399/399 400/400/400
f 402/402/402 399/399/399 401/401/401
f 403/403/403 402/402/402 401/401/401
f 404/404/404 402/402/402 403/403/403
f 403/403/403 405/405/405 404/404/404
f 406/406/406 404/404/404 405/405/405
f 405/405/405 407/407/407 406/406/406
f 408/408/408 406/406/406 407/407/407
f 407/407/407 409/409/409 408/408/408
f 410/410/410 408/408/408 409/409/409
f 409/409/409 411/411/411 410/410/410
f 412/412/412 410/410/410 411/411/411
