mtllib SM_Curtain_Rod_01_LOD1@000002909DC4EB00.mtl
g SM_Curtain_Rod_01_LOD1@000002909DC4EB00
#Vertices 218
#Indices 480
#Section 0 Offset 0 NumIndices 480 MaterialIndex 0 MI_MetalTile_A_03
v -2.536015 6.875230 0.700025 1.000000 1.000000 1.000000 1.000000
v -2.509600 6.905746 0.711005 1.000000 1.000000 1.000000 1.000000
v -2.500553 6.875194 0.678918 1.000000 1.000000 1.000000 1.000000
v -2.500557 6.979761 0.696374 1.000000 1.000000 1.000000 1.000000
v -2.507785 6.943525 0.716458 1.000000 1.000000 1.000000 1.000000
v -2.524718 6.979025 0.711478 1.000000 1.000000 1.000000 1.000000
v 2.594979 6.895570 0.643592 1.000000 1.000000 1.000000 1.000000
v 2.498878 6.887874 0.602947 1.000000 1.000000 1.000000 1.000000
v 2.585077 6.881356 0.653531 1.000000 1.000000 1.000000 1.000000
v 2.509600 6.905746 0.711005 1.000000 1.000000 1.000000 1.000000
v 2.536015 6.875230 0.700025 1.000000 1.000000 1.000000 1.000000
v 2.500553 6.875194 0.678918 1.000000 1.000000 1.000000 1.000000
v 2.507785 6.943525 0.716458 1.000000 1.000000 1.000000 1.000000
v 2.500557 6.979761 0.696374 1.000000 1.000000 1.000000 1.000000
v 2.524718 6.979025 0.711478 1.000000 1.000000 1.000000 1.000000
v -2.544940 6.994435 0.693819 1.000000 1.000000 1.000000 1.000000
v -2.500557 6.979761 0.696374 1.000000 1.000000 1.000000 1.000000
v -2.524718 6.979025 0.711478 1.000000 1.000000 1.000000 1.000000
v -2.500000 6.994435 0.669781 1.000000 1.000000 1.000000 1.000000
v -2.564430 6.998186 0.671665 1.000000 1.000000 1.000000 1.000000
v -2.500000 6.994435 0.669781 1.000000 1.000000 1.000000 1.000000
v -2.544940 6.994435 0.693819 1.000000 1.000000 1.000000 1.000000
v -2.500014 6.997722 0.638946 1.000000 1.000000 1.000000 1.000000
v -2.589592 6.980063 0.647014 1.000000 1.000000 1.000000 1.000000
v -2.499183 6.979230 0.603300 1.000000 1.000000 1.000000 1.000000
v -2.500014 6.997722 0.638946 1.000000 1.000000 1.000000 1.000000
v -2.564430 6.998186 0.671665 1.000000 1.000000 1.000000 1.000000
v -2.589592 6.980063 0.647014 1.000000 1.000000 1.000000 1.000000
v -2.500000 6.953186 0.588825 1.000000 1.000000 1.000000 1.000000
v -2.499183 6.979230 0.603300 1.000000 1.000000 1.000000 1.000000
v -2.601336 6.953186 0.637211 1.000000 1.000000 1.000000 1.000000
v -2.601336 6.953186 0.637211 1.000000 1.000000 1.000000 1.000000
v -2.500000 6.933332 0.585681 1.000000 1.000000 1.000000 1.000000
v -2.500000 6.953186 0.588825 1.000000 1.000000 1.000000 1.000000
v -2.603527 6.933332 0.635012 1.000000 1.000000 1.000000 1.000000
v -2.601336 6.913479 0.637211 1.000000 1.000000 1.000000 1.000000
v -2.500000 6.933332 0.585681 1.000000 1.000000 1.000000 1.000000
v -2.603527 6.933332 0.635012 1.000000 1.000000 1.000000 1.000000
v -2.500000 6.913479 0.588825 1.000000 1.000000 1.000000 1.000000
v -2.500000 6.913479 0.588825 1.000000 1.000000 1.000000 1.000000
v -2.601336 6.913479 0.637211 1.000000 1.000000 1.000000 1.000000
v -2.589582 6.886611 0.647006 1.000000 1.000000 1.000000 1.000000
v -2.498878 6.887874 0.602947 1.000000 1.000000 1.000000 1.000000
v -2.589582 6.886611 0.647006 1.000000 1.000000 1.000000 1.000000
v -2.500013 6.869387 0.639052 1.000000 1.000000 1.000000 1.000000
v -2.498878 6.887874 0.602947 1.000000 1.000000 1.000000 1.000000
v -2.564479 6.868250 0.672000 1.000000 1.000000 1.000000 1.000000
v -2.564479 6.868250 0.672000 1.000000 1.000000 1.000000 1.000000
v -2.500553 6.875194 0.678918 1.000000 1.000000 1.000000 1.000000
v -2.500013 6.869387 0.639052 1.000000 1.000000 1.000000 1.000000
v -2.536015 6.875230 0.700025 1.000000 1.000000 1.000000 1.000000
v 2.544940 6.994435 0.693819 1.000000 1.000000 1.000000 1.000000
v 2.500557 6.979761 0.696374 1.000000 1.000000 1.000000 1.000000
v 2.500000 6.994435 0.669781 1.000000 1.000000 1.000000 1.000000
v 2.524718 6.979025 0.711478 1.000000 1.000000 1.000000 1.000000
v 2.564430 6.998186 0.671665 1.000000 1.000000 1.000000 1.000000
v 2.500000 6.994435 0.669781 1.000000 1.000000 1.000000 1.000000
v 2.500014 6.997722 0.638946 1.000000 1.000000 1.000000 1.000000
v 2.544940 6.994435 0.693819 1.000000 1.000000 1.000000 1.000000
v 2.589592 6.980063 0.647014 1.000000 1.000000 1.000000 1.000000
v 2.500014 6.997722 0.638946 1.000000 1.000000 1.000000 1.000000
v 2.499183 6.979230 0.603300 1.000000 1.000000 1.000000 1.000000
v 2.564430 6.998186 0.671665 1.000000 1.000000 1.000000 1.000000
v 2.500000 6.953186 0.588825 1.000000 1.000000 1.000000 1.000000
v 2.589592 6.980063 0.647014 1.000000 1.000000 1.000000 1.000000
v 2.499183 6.979230 0.603300 1.000000 1.000000 1.000000 1.000000
v 2.601336 6.953186 0.637211 1.000000 1.000000 1.000000 1.000000
v 2.500000 6.933332 0.585681 1.000000 1.000000 1.000000 1.000000
v 2.601336 6.953186 0.637211 1.000000 1.000000 1.000000 1.000000
v 2.500000 6.953186 0.588825 1.000000 1.000000 1.000000 1.000000
v 2.603527 6.933332 0.635012 1.000000 1.000000 1.000000 1.000000
v 2.500000 6.913479 0.588825 1.000000 1.000000 1.000000 1.000000
v 2.601336 6.913479 0.637211 1.000000 1.000000 1.000000 1.000000
v 2.500000 6.933332 0.585681 1.000000 1.000000 1.000000 1.000000
v 2.603527 6.933332 0.635012 1.000000 1.000000 1.000000 1.000000
v 2.498878 6.887874 0.602947 1.000000 1.000000 1.000000 1.000000
v 2.594979 6.895570 0.643592 1.000000 1.000000 1.000000 1.000000
v 2.500000 6.913479 0.588825 1.000000 1.000000 1.000000 1.000000
v 2.601336 6.913479 0.637211 1.000000 1.000000 1.000000 1.000000
v 2.585077 6.881356 0.653531 1.000000 1.000000 1.000000 1.000000
v 2.500013 6.869387 0.639052 1.000000 1.000000 1.000000 1.000000
v 2.564479 6.868250 0.672000 1.000000 1.000000 1.000000 1.000000
v 2.498878 6.887874 0.602947 1.000000 1.000000 1.000000 1.000000
v 2.564479 6.868250 0.672000 1.000000 1.000000 1.000000 1.000000
v 2.500553 6.875194 0.678918 1.000000 1.000000 1.000000 1.000000
v 2.536015 6.875230 0.700025 1.000000 1.000000 1.000000 1.000000
v 2.500013 6.869387 0.639052 1.000000 1.000000 1.000000 1.000000
v -5.283505 5.930016 2.453176 1.000000 1.000000 1.000000 1.000000
v -7.145208 5.930016 4.321879 1.000000 1.000000 1.000000 1.000000
v -7.170146 5.932817 4.296846 1.000000 1.000000 1.000000 1.000000
v -5.312954 5.931759 2.423628 1.000000 1.000000 1.000000 1.000000
v -7.195246 5.906676 4.271651 1.000000 1.000000 1.000000 1.000000
v -5.337657 5.898721 2.398815 1.000000 1.000000 1.000000 1.000000
v -7.205312 5.863054 4.261550 1.000000 1.000000 1.000000 1.000000
v -5.340762 5.846708 2.395691 1.000000 1.000000 1.000000 1.000000
v -7.190085 5.821632 4.276832 1.000000 1.000000 1.000000 1.000000
v -5.317296 5.811090 2.419255 1.000000 1.000000 1.000000 1.000000
v -7.165833 5.804546 4.301183 1.000000 1.000000 1.000000 1.000000
v -5.291090 5.804087 2.445560 1.000000 1.000000 1.000000 1.000000
v -7.128032 5.818900 4.339136 1.000000 1.000000 1.000000 1.000000
v -5.258689 5.831273 2.478085 1.000000 1.000000 1.000000 1.000000
v -7.113214 5.873156 4.353992 1.000000 1.000000 1.000000 1.000000
v -5.254512 5.898981 2.482269 1.000000 1.000000 1.000000 1.000000
v -7.125561 5.912785 4.341599 1.000000 1.000000 1.000000 1.000000
v -7.145208 5.930016 4.321879 1.000000 1.000000 1.000000 1.000000
v -5.283505 5.930016 2.453176 1.000000 1.000000 1.000000 1.000000
v -4.406643 6.994435 2.562521 1.000000 1.000000 1.000000 1.000000
v -2.544940 6.994435 0.693819 1.000000 1.000000 1.000000 1.000000
v -2.524718 6.979025 0.711478 1.000000 1.000000 1.000000 1.000000
v -4.386827 6.977009 2.582413 1.000000 1.000000 1.000000 1.000000
v -2.507785 6.943525 0.716458 1.000000 1.000000 1.000000 1.000000
v -4.374458 6.931139 2.594830 1.000000 1.000000 1.000000 1.000000
v -2.509600 6.905746 0.711005 1.000000 1.000000 1.000000 1.000000
v -4.392596 6.879999 2.576623 1.000000 1.000000 1.000000 1.000000
v -2.536015 6.875230 0.700025 1.000000 1.000000 1.000000 1.000000
v -4.426265 6.868892 2.542825 1.000000 1.000000 1.000000 1.000000
v -2.564479 6.868250 0.672000 1.000000 1.000000 1.000000 1.000000
v -4.454993 6.889163 2.513991 1.000000 1.000000 1.000000 1.000000
v -2.589582 6.886611 0.647006 1.000000 1.000000 1.000000 1.000000
v -2.601336 6.913479 0.637211 1.000000 1.000000 1.000000 1.000000
v -4.465230 6.933333 2.503715 1.000000 1.000000 1.000000 1.000000
v -2.603527 6.933332 0.635012 1.000000 1.000000 1.000000 1.000000
v -2.601336 6.953186 0.637211 1.000000 1.000000 1.000000 1.000000
v -4.454993 6.977503 2.513991 1.000000 1.000000 1.000000 1.000000
v -2.589592 6.980063 0.647014 1.000000 1.000000 1.000000 1.000000
v -2.564430 6.998186 0.671665 1.000000 1.000000 1.000000 1.000000
v -4.426265 6.997775 2.542825 1.000000 1.000000 1.000000 1.000000
v -2.544940 6.994435 0.693819 1.000000 1.000000 1.000000 1.000000
v -4.406643 6.994435 2.562521 1.000000 1.000000 1.000000 1.000000
v 0.000000 6.994435 0.669781 1.000000 1.000000 1.000000 1.000000
v 2.500000 6.994435 0.669781 1.000000 1.000000 1.000000 1.000000
v -0.000000 6.980451 0.694946 1.000000 1.000000 1.000000 1.000000
v 2.500557 6.979761 0.696374 1.000000 1.000000 1.000000 1.000000
v 0.000000 6.946846 0.713463 1.000000 1.000000 1.000000 1.000000
v 2.507785 6.943525 0.716458 1.000000 1.000000 1.000000 1.000000
v 0.000000 6.899364 0.707960 1.000000 1.000000 1.000000 1.000000
v 2.509600 6.905746 0.711005 1.000000 1.000000 1.000000 1.000000
v 2.500553 6.875194 0.678918 1.000000 1.000000 1.000000 1.000000
v -0.000000 6.869797 0.663441 1.000000 1.000000 1.000000 1.000000
v 2.500013 6.869387 0.639052 1.000000 1.000000 1.000000 1.000000
v 0.000000 6.875809 0.615966 1.000000 1.000000 1.000000 1.000000
v 2.498878 6.887874 0.602947 1.000000 1.000000 1.000000 1.000000
v 0.000000 6.919819 0.586392 1.000000 1.000000 1.000000 1.000000
v 2.500000 6.913479 0.588825 1.000000 1.000000 1.000000 1.000000
v 2.500000 6.933332 0.585681 1.000000 1.000000 1.000000 1.000000
v 0.000000 6.967293 0.592403 1.000000 1.000000 1.000000 1.000000
v 2.500000 6.953186 0.588825 1.000000 1.000000 1.000000 1.000000
v 2.499183 6.979230 0.603300 1.000000 1.000000 1.000000 1.000000
v -0.000000 6.996869 0.636413 1.000000 1.000000 1.000000 1.000000
v 2.500014 6.997722 0.638946 1.000000 1.000000 1.000000 1.000000
v 0.000000 6.994435 0.669781 1.000000 1.000000 1.000000 1.000000
v 2.500000 6.994435 0.669781 1.000000 1.000000 1.000000 1.000000
v 5.283505 5.930016 2.453176 1.000000 1.000000 1.000000 1.000000
v 7.170146 5.932817 4.296847 1.000000 1.000000 1.000000 1.000000
v 7.145208 5.930016 4.321879 1.000000 1.000000 1.000000 1.000000
v 5.312954 5.931759 2.423628 1.000000 1.000000 1.000000 1.000000
v 7.195247 5.906676 4.271651 1.000000 1.000000 1.000000 1.000000
v 5.337657 5.898720 2.398814 1.000000 1.000000 1.000000 1.000000
v 7.205313 5.863054 4.261550 1.000000 1.000000 1.000000 1.000000
v 5.340761 5.846708 2.395691 1.000000 1.000000 1.000000 1.000000
v 7.190085 5.821632 4.276832 1.000000 1.000000 1.000000 1.000000
v 5.317296 5.811090 2.419255 1.000000 1.000000 1.000000 1.000000
v 7.165833 5.804546 4.301183 1.000000 1.000000 1.000000 1.000000
v 5.291090 5.804087 2.445560 1.000000 1.000000 1.000000 1.000000
v 7.128032 5.818900 4.339135 1.000000 1.000000 1.000000 1.000000
v 5.258689 5.831273 2.478085 1.000000 1.000000 1.000000 1.000000
v 7.113214 5.873156 4.353992 1.000000 1.000000 1.000000 1.000000
v 5.254512 5.898981 2.482269 1.000000 1.000000 1.000000 1.000000
v 7.125560 5.912784 4.341599 1.000000 1.000000 1.000000 1.000000
v 7.145208 5.930016 4.321879 1.000000 1.000000 1.000000 1.000000
v 5.283505 5.930016 2.453176 1.000000 1.000000 1.000000 1.000000
v -0.000000 6.980451 0.694946 1.000000 1.000000 1.000000 1.000000
v -2.500000 6.994435 0.669781 1.000000 1.000000 1.000000 1.000000
v 0.000000 6.994435 0.669781 1.000000 1.000000 1.000000 1.000000
v -2.500557 6.979761 0.696374 1.000000 1.000000 1.000000 1.000000
v 0.000000 6.946846 0.713463 1.000000 1.000000 1.000000 1.000000
v -2.507785 6.943525 0.716458 1.000000 1.000000 1.000000 1.000000
v 0.000000 6.899364 0.707960 1.000000 1.000000 1.000000 1.000000
v -2.509600 6.905746 0.711005 1.000000 1.000000 1.000000 1.000000
v -2.500553 6.875194 0.678918 1.000000 1.000000 1.000000 1.000000
v -0.000000 6.869797 0.663441 1.000000 1.000000 1.000000 1.000000
v -2.500013 6.869387 0.639052 1.000000 1.000000 1.000000 1.000000
v 0.000000 6.875809 0.615966 1.000000 1.000000 1.000000 1.000000
v -2.498878 6.887874 0.602947 1.000000 1.000000 1.000000 1.000000
v 0.000000 6.919819 0.586392 1.000000 1.000000 1.000000 1.000000
v -2.500000 6.913479 0.588825 1.000000 1.000000 1.000000 1.000000
v -2.500000 6.933332 0.585681 1.000000 1.000000 1.000000 1.000000
v 0.000000 6.967293 0.592403 1.000000 1.000000 1.000000 1.000000
v -2.500000 6.953186 0.588825 1.000000 1.000000 1.000000 1.000000
v -2.499183 6.979230 0.603300 1.000000 1.000000 1.000000 1.000000
v -0.000000 6.996869 0.636413 1.000000 1.000000 1.000000 1.000000
v -2.500014 6.997722 0.638946 1.000000 1.000000 1.000000 1.000000
v 0.000000 6.994435 0.669781 1.000000 1.000000 1.000000 1.000000
v -2.500000 6.994435 0.669781 1.000000 1.000000 1.000000 1.000000
v 4.406643 6.994435 2.562521 1.000000 1.000000 1.000000 1.000000
v 2.524718 6.979025 0.711478 1.000000 1.000000 1.000000 1.000000
v 2.544940 6.994435 0.693819 1.000000 1.000000 1.000000 1.000000
v 4.386827 6.977009 2.582413 1.000000 1.000000 1.000000 1.000000
v 2.507785 6.943525 0.716458 1.000000 1.000000 1.000000 1.000000
v 4.374458 6.931139 2.594830 1.000000 1.000000 1.000000 1.000000
v 2.509600 6.905746 0.711005 1.000000 1.000000 1.000000 1.000000
v 4.392596 6.879999 2.576623 1.000000 1.000000 1.000000 1.000000
v 2.536015 6.875230 0.700025 1.000000 1.000000 1.000000 1.000000
v 4.426265 6.868892 2.542825 1.000000 1.000000 1.000000 1.000000
v 2.564479 6.868250 0.672000 1.000000 1.000000 1.000000 1.000000
v 4.454993 6.889163 2.513991 1.000000 1.000000 1.000000 1.000000
v 2.585077 6.881356 0.653531 1.000000 1.000000 1.000000 1.000000
v 2.594979 6.895570 0.643592 1.000000 1.000000 1.000000 1.000000
v 2.601336 6.913479 0.637211 1.000000 1.000000 1.000000 1.000000
v 4.465230 6.933333 2.503715 1.000000 1.000000 1.000000 1.000000
v 2.603527 6.933332 0.635012 1.000000 1.000000 1.000000 1.000000
v 2.601336 6.953186 0.637211 1.000000 1.000000 1.000000 1.000000
v 4.454993 6.977503 2.513991 1.000000 1.000000 1.000000 1.000000
v 2.589592 6.980063 0.647014 1.000000 1.000000 1.000000 1.000000
v 2.564430 6.998186 0.671665 1.000000 1.000000 1.000000 1.000000
v 4.426265 6.997775 2.542825 1.000000 1.000000 1.000000 1.000000
v 2.544940 6.994435 0.693819 1.000000 1.000000 1.000000 1.000000
v 4.406643 6.994435 2.562521 1.000000 1.000000 1.000000 1.000000
vt 0.468506 0.696533
vt 0.443848 0.461426
vt 0.468750 0.299805
vt 0.393555 0.288574
vt 0.417969 0.489258
vt 0.394043 0.677246
vt 0.524902 0.688477
vt 0.519043 0.299316
vt 0.512207 0.688477
vt 0.443848 0.461426
vt 0.468506 0.696533
vt 0.468750 0.299805
vt 0.417969 0.489258
vt 0.393555 0.288574
vt 0.394043 0.677246
vt 0.375000 0.688477
vt 0.393555 0.344727
vt 0.394043 0.668213
vt 0.375000 0.312500
vt 0.605469 0.707031
vt 0.624512 0.312500
vt 0.624512 0.688477
vt 0.605469 0.312012
vt 0.581055 0.695557
vt 0.581055 0.305664
vt 0.605469 0.327148
vt 0.605957 0.678467
vt 0.581543 0.674561
vt 0.562012 0.312500
vt 0.581055 0.311523
vt 0.562012 0.688477
vt 0.562012 0.688477
vt 0.549805 0.312500
vt 0.562012 0.312500
vt 0.549805 0.688477
vt 0.537109 0.688477
vt 0.549805 0.312500
vt 0.549805 0.688477
vt 0.537109 0.312500
vt 0.537109 0.312500
vt 0.537109 0.688477
vt 0.518066 0.674561
vt 0.519043 0.310547
vt 0.518555 0.695557
vt 0.494385 0.327637
vt 0.519043 0.304199
vt 0.493408 0.679932
vt 0.493896 0.702393
vt 0.469238 0.338379
vt 0.493896 0.303223
vt 0.468262 0.672363
vt 0.375000 0.688477
vt 0.393555 0.344727
vt 0.375000 0.312500
vt 0.394043 0.668213
vt 0.605469 0.707031
vt 0.624512 0.312500
vt 0.605469 0.312012
vt 0.624512 0.688477
vt 0.581055 0.695557
vt 0.605469 0.327148
vt 0.581055 0.305664
vt 0.605957 0.678467
vt 0.562012 0.312500
vt 0.581543 0.674561
vt 0.581055 0.311523
vt 0.562012 0.688477
vt 0.549805 0.312500
vt 0.562012 0.688477
vt 0.562012 0.312500
vt 0.549805 0.688477
vt 0.537109 0.312500
vt 0.537109 0.688477
vt 0.549805 0.312500
vt 0.549805 0.688477
vt 0.519043 0.310547
vt 0.524902 0.688477
vt 0.537109 0.312500
vt 0.537109 0.688477
vt 0.512207 0.688477
vt 0.494385 0.327637
vt 0.493408 0.679932
vt 0.519043 0.304199
vt 0.493896 0.702393
vt 0.469238 0.338379
vt 0.468262 0.672363
vt 0.493896 0.303223
vt 0.624512 0.688477
vt 0.624512 0.312500
vt 0.602539 0.312500
vt 0.598633 0.688477
vt 0.574707 0.312500
vt 0.568848 0.688477
vt 0.546387 0.312500
vt 0.536133 0.688477
vt 0.517578 0.312988
vt 0.505371 0.688477
vt 0.493408 0.312500
vt 0.481934 0.688477
vt 0.458496 0.312500
vt 0.448730 0.688477
vt 0.422363 0.312988
vt 0.406738 0.688477
vt 0.395508 0.312988
vt 0.375000 0.312500
vt 0.375000 0.688477
vt 0.375000 0.312500
vt 0.375000 0.688477
vt 0.394287 0.688721
vt 0.395508 0.312500
vt 0.418457 0.689941
vt 0.426270 0.312500
vt 0.442627 0.690430
vt 0.461670 0.312500
vt 0.468018 0.688721
vt 0.492432 0.312988
vt 0.493164 0.688721
vt 0.520996 0.312500
vt 0.518066 0.688721
vt 0.537109 0.688477
vt 0.549805 0.312500
vt 0.549805 0.688477
vt 0.562012 0.688477
vt 0.578613 0.312500
vt 0.581543 0.688721
vt 0.606445 0.688721
vt 0.606934 0.312988
vt 0.624512 0.688477
vt 0.624512 0.312500
vt 0.375000 0.688477
vt 0.375000 0.312500
vt 0.392822 0.688477
vt 0.393555 0.312500
vt 0.416504 0.688477
vt 0.418701 0.311523
vt 0.446045 0.688477
vt 0.441650 0.311523
vt 0.468994 0.312500
vt 0.479004 0.688477
vt 0.494141 0.312500
vt 0.508789 0.688477
vt 0.519043 0.312988
vt 0.541504 0.688477
vt 0.537109 0.312500
vt 0.549805 0.312500
vt 0.571289 0.688477
vt 0.562012 0.312500
vt 0.580566 0.312988
vt 0.604004 0.688477
vt 0.605469 0.312500
vt 0.624512 0.688477
vt 0.624512 0.312500
vt 0.624512 0.688477
vt 0.602539 0.312500
vt 0.624512 0.312500
vt 0.598633 0.688477
vt 0.574707 0.312500
vt 0.568848 0.688477
vt 0.546387 0.312500
vt 0.536133 0.688477
vt 0.517578 0.312988
vt 0.505371 0.688477
vt 0.493408 0.312500
vt 0.481934 0.688477
vt 0.458496 0.312500
vt 0.448730 0.688477
vt 0.422363 0.312988
vt 0.406738 0.688477
vt 0.395508 0.312988
vt 0.375000 0.312500
vt 0.375000 0.688477
vt 0.392822 0.688477
vt 0.375000 0.312500
vt 0.375000 0.688477
vt 0.393555 0.312500
vt 0.416504 0.688477
vt 0.418701 0.311523
vt 0.446045 0.688477
vt 0.441650 0.311523
vt 0.468994 0.312500
vt 0.479004 0.688477
vt 0.494141 0.312500
vt 0.508789 0.688477
vt 0.519043 0.312988
vt 0.541504 0.688477
vt 0.537109 0.312500
vt 0.549805 0.312500
vt 0.571289 0.688477
vt 0.562012 0.312500
vt 0.580566 0.312988
vt 0.604004 0.688477
vt 0.605469 0.312500
vt 0.624512 0.688477
vt 0.624512 0.312500
vt 0.375000 0.312500
vt 0.394287 0.688721
vt 0.375000 0.688477
vt 0.395508 0.312500
vt 0.418457 0.689941
vt 0.426270 0.312500
vt 0.442627 0.690430
vt 0.461670 0.312500
vt 0.468018 0.688721
vt 0.492432 0.312988
vt 0.493164 0.688721
vt 0.520996 0.312500
vt 0.512207 0.688477
vt 0.524902 0.688477
vt 0.537109 0.688477
vt 0.549805 0.312500
vt 0.549805 0.688477
vt 0.562012 0.688477
vt 0.578613 0.312500
vt 0.581543 0.688721
vt 0.606445 0.688721
vt 0.606934 0.312988
vt 0.624512 0.688477
vt 0.624512 0.312500
vt1 0.885254 0.057129
vt1 0.870605 0.041992
vt1 0.885254 0.031738
vt1 0.841309 0.031250
vt1 0.855469 0.043945
vt1 0.841797 0.056152
vt1 0.740723 0.056641
vt1 0.737305 0.031738
vt1 0.733398 0.056641
vt1 0.693359 0.041992
vt1 0.707520 0.057129
vt1 0.708008 0.031738
vt1 0.678223 0.043945
vt1 0.664062 0.031250
vt1 0.664062 0.056152
vt1 0.830566 0.056641
vt1 0.841309 0.034668
vt1 0.841797 0.055176
vt1 0.830566 0.032715
vt1 0.965332 0.058105
vt1 0.976562 0.032715
vt1 0.976562 0.056641
vt1 0.965332 0.032715
vt1 0.950684 0.057129
vt1 0.950684 0.032227
vt1 0.965332 0.033691
vt1 0.965332 0.056152
vt1 0.951172 0.055664
vt1 0.939941 0.032715
vt1 0.950684 0.032715
vt1 0.939941 0.056641
vt1 0.939941 0.056641
vt1 0.932617 0.032715
vt1 0.939941 0.032715
vt1 0.932617 0.056641
vt1 0.925293 0.056641
vt1 0.932617 0.032715
vt1 0.932617 0.056641
vt1 0.925293 0.032715
vt1 0.925293 0.032715
vt1 0.925293 0.056641
vt1 0.914062 0.055664
vt1 0.914551 0.032715
vt1 0.914551 0.057129
vt1 0.899902 0.033691
vt1 0.914551 0.032227
vt1 0.899902 0.056152
vt1 0.899902 0.057617
vt1 0.885742 0.034180
vt1 0.899902 0.032227
vt1 0.884766 0.055664
vt1 0.652832 0.056641
vt1 0.664062 0.034668
vt1 0.652832 0.032715
vt1 0.664062 0.055176
vt1 0.787598 0.058105
vt1 0.798828 0.032715
vt1 0.787598 0.032715
vt1 0.798828 0.056641
vt1 0.773438 0.057129
vt1 0.787598 0.033691
vt1 0.773438 0.032227
vt1 0.788086 0.056152
vt1 0.762695 0.032715
vt1 0.773438 0.055664
vt1 0.773438 0.032715
vt1 0.762695 0.056641
vt1 0.755371 0.032715
vt1 0.762695 0.056641
vt1 0.762695 0.032715
vt1 0.755371 0.056641
vt1 0.748047 0.032715
vt1 0.748047 0.056641
vt1 0.755371 0.032715
vt1 0.755371 0.056641
vt1 0.737305 0.032715
vt1 0.740723 0.056641
vt1 0.748047 0.032715
vt1 0.748047 0.056641
vt1 0.733398 0.056641
vt1 0.722656 0.033691
vt1 0.722168 0.056152
vt1 0.737305 0.032227
vt1 0.722656 0.057617
vt1 0.708008 0.034180
vt1 0.707520 0.055664
vt1 0.722656 0.032227
vt1 0.637207 0.991936
vt1 0.637207 0.030762
vt1 0.624512 0.030762
vt1 0.622070 0.991936
vt1 0.607910 0.030762
vt1 0.604492 0.991943
vt1 0.591309 0.030762
vt1 0.585449 0.991943
vt1 0.574707 0.030762
vt1 0.567871 0.991943
vt1 0.560547 0.030762
vt1 0.554199 0.991943
vt1 0.540527 0.030762
vt1 0.534668 0.991936
vt1 0.519531 0.030762
vt1 0.510254 0.991943
vt1 0.503418 0.030762
vt1 0.491699 0.030762
vt1 0.491699 0.991936
vt1 0.008064 0.030762
vt1 0.008064 0.991936
vt1 0.019318 0.992615
vt1 0.020126 0.030762
vt1 0.033417 0.995708
vt1 0.037933 0.030762
vt1 0.047516 0.996641
vt1 0.058624 0.030762
vt1 0.062256 0.992645
vt1 0.076538 0.030762
vt1 0.076965 0.992504
vt1 0.093079 0.030762
vt1 0.091431 0.992451
vt1 0.102661 0.991936
vt1 0.109924 0.030762
vt1 0.109924 0.991936
vt1 0.117188 0.991936
vt1 0.126709 0.030762
vt1 0.128418 0.992447
vt1 0.142822 0.992603
vt1 0.143311 0.030762
vt1 0.153564 0.991936
vt1 0.153564 0.030762
vt1 0.830566 0.991936
vt1 0.830566 0.081055
vt1 0.840820 0.991936
vt1 0.841309 0.081055
vt1 0.854980 0.991936
vt1 0.855957 0.078125
vt1 0.872070 0.991936
vt1 0.869629 0.077637
vt1 0.885742 0.081055
vt1 0.891602 0.991936
vt1 0.900391 0.081055
vt1 0.908691 0.991943
vt1 0.915039 0.081543
vt1 0.928223 0.991936
vt1 0.925781 0.081055
vt1 0.933105 0.081055
vt1 0.945312 0.991943
vt1 0.940430 0.081055
vt1 0.951172 0.081543
vt1 0.964844 0.991936
vt1 0.965820 0.081055
vt1 0.977051 0.991936
vt1 0.977051 0.081055
vt1 0.476074 0.991936
vt1 0.463135 0.030762
vt1 0.476074 0.030762
vt1 0.460938 0.991936
vt1 0.447021 0.030762
vt1 0.443359 0.991943
vt1 0.430420 0.030762
vt1 0.424561 0.991943
vt1 0.413574 0.030762
vt1 0.406738 0.991943
vt1 0.399414 0.030762
vt1 0.392822 0.991943
vt1 0.379150 0.030762
vt1 0.373535 0.991936
vt1 0.358154 0.030762
vt1 0.349121 0.991943
vt1 0.342529 0.030762
vt1 0.330566 0.030762
vt1 0.330566 0.991936
vt1 0.663574 0.991936
vt1 0.652832 0.081055
vt1 0.652832 0.991936
vt1 0.664062 0.081055
vt1 0.677246 0.991936
vt1 0.678711 0.078125
vt1 0.694824 0.991936
vt1 0.691895 0.077637
vt1 0.708008 0.081055
vt1 0.713867 0.991936
vt1 0.722656 0.081055
vt1 0.731445 0.991943
vt1 0.737793 0.081543
vt1 0.750488 0.991936
vt1 0.748047 0.081055
vt1 0.755371 0.081055
vt1 0.768066 0.991943
vt1 0.762695 0.081055
vt1 0.773438 0.081543
vt1 0.787109 0.991936
vt1 0.788086 0.081055
vt1 0.799316 0.991936
vt1 0.799316 0.081055
vt1 0.169312 0.030762
vt1 0.180542 0.992615
vt1 0.169312 0.991936
vt1 0.181396 0.030762
vt1 0.194702 0.995708
vt1 0.199219 0.030762
vt1 0.208740 0.996641
vt1 0.219849 0.030762
vt1 0.223511 0.992645
vt1 0.237793 0.030762
vt1 0.238281 0.992504
vt1 0.254395 0.030762
vt1 0.249390 0.991936
vt1 0.256592 0.991936
vt1 0.263916 0.991936
vt1 0.271240 0.030762
vt1 0.271240 0.991936
vt1 0.278320 0.991936
vt1 0.287842 0.030762
vt1 0.289551 0.992447
vt1 0.303955 0.992603
vt1 0.304443 0.030762
vt1 0.314697 0.991936
vt1 0.314697 0.030762
vn 0.377953 -0.669291 0.637795
vn 0.377953 -0.669291 0.637795
vn 0.377953 -0.669291 0.637795
vn 0.503937 0.417323 0.755905
vn 0.503937 0.417323 0.755905
vn 0.503937 0.417323 0.755905
vn 0.322835 -0.677165 -0.661417
vn 0.322835 -0.677165 -0.661417
vn 0.322835 -0.677165 -0.661417
vn -0.377953 -0.669291 0.637795
vn -0.377953 -0.669291 0.637795
vn -0.377953 -0.669291 0.637795
vn -0.503937 0.417323 0.755905
vn -0.503937 0.417323 0.755905
vn -0.503937 0.417323 0.755905
vn 0.236220 0.874016 0.425197
vn 0.236220 0.874016 0.425197
vn 0.236220 0.874016 0.425197
vn 0.236220 0.874016 0.425197
vn 0.078740 0.984252 0.149606
vn 0.078740 0.984252 0.149606
vn 0.078740 0.984252 0.149606
vn 0.078740 0.984252 0.149606
vn -0.212598 0.874016 -0.433071
vn -0.212598 0.874016 -0.433071
vn -0.212598 0.874016 -0.433071
vn -0.212598 0.874016 -0.433071
vn -0.393701 0.425197 -0.818898
vn -0.393701 0.425197 -0.818898
vn -0.393701 0.425197 -0.818898
vn -0.393701 0.425197 -0.818898
vn -0.425197 0.141732 -0.889764
vn -0.425197 0.141732 -0.889764
vn -0.425197 0.141732 -0.889764
vn -0.425197 0.141732 -0.889764
vn -0.425197 -0.141732 -0.889764
vn -0.425197 -0.141732 -0.889764
vn -0.425197 -0.141732 -0.889764
vn -0.425197 -0.141732 -0.889764
vn -0.393701 -0.425197 -0.818897
vn -0.393701 -0.425197 -0.818897
vn -0.393701 -0.425197 -0.818897
vn -0.393701 -0.425197 -0.818897
vn -0.212598 -0.874016 -0.433071
vn -0.212598 -0.874016 -0.433071
vn -0.212598 -0.874016 -0.433071
vn -0.212598 -0.874016 -0.433071
vn 0.078740 -0.984252 0.149606
vn 0.078740 -0.984252 0.149606
vn 0.078740 -0.984252 0.149606
vn 0.078740 -0.984252 0.149606
vn -0.236220 0.874016 0.425197
vn -0.236220 0.874016 0.425197
vn -0.236220 0.874016 0.425197
vn -0.236220 0.874016 0.425197
vn -0.078740 0.984252 0.149606
vn -0.078740 0.984252 0.149606
vn -0.078740 0.984252 0.149606
vn -0.078740 0.984252 0.149606
vn 0.212598 0.874016 -0.433071
vn 0.212598 0.874016 -0.433071
vn 0.212598 0.874016 -0.433071
vn 0.212598 0.874016 -0.433071
vn 0.393701 0.425197 -0.818898
vn 0.393701 0.425197 -0.818898
vn 0.393701 0.425197 -0.818898
vn 0.393701 0.425197 -0.818898
vn 0.425197 0.141732 -0.889764
vn 0.425197 0.141732 -0.889764
vn 0.425197 0.141732 -0.889764
vn 0.425197 0.141732 -0.889764
vn 0.425197 -0.141732 -0.889764
vn 0.425197 -0.141732 -0.889764
vn 0.425197 -0.141732 -0.889764
vn 0.425197 -0.141732 -0.889764
vn 0.393701 -0.425197 -0.818897
vn 0.393701 -0.425197 -0.818897
vn 0.393701 -0.425197 -0.818897
vn 0.393701 -0.425197 -0.818897
vn 0.212598 -0.874016 -0.433071
vn 0.212598 -0.874016 -0.433071
vn 0.212598 -0.874016 -0.433071
vn 0.212598 -0.874016 -0.433071
vn -0.078740 -0.984252 0.149606
vn -0.078740 -0.984252 0.149606
vn -0.078740 -0.984252 0.149606
vn -0.078740 -0.984252 0.149606
vn 0.220472 0.952756 0.220472
vn 0.220472 0.952756 0.220472
vn -0.173228 0.968504 -0.173228
vn -0.244094 0.937008 -0.244095
vn -0.574803 0.582677 -0.574803
vn -0.629921 0.456693 -0.629921
vn -0.708661 -0.086614 -0.700787
vn -0.669291 -0.330709 -0.669291
vn -0.488189 -0.724409 -0.488189
vn -0.314961 -0.889764 -0.314960
vn -0.110236 -0.992126 -0.110236
vn 0.094488 -0.992126 0.094488
vn 0.472441 -0.740157 0.472441
vn 0.590551 -0.559055 0.582677
vn 0.708661 0.062992 0.700787
vn 0.637795 0.433071 0.637795
vn 0.527559 0.669291 0.527559
vn 0.220472 0.952756 0.220472
vn 0.220472 0.952756 0.220472
vn 0.220472 0.952756 0.220472
vn 0.220472 0.952756 0.220472
vn 0.511811 0.692913 0.511811
vn 0.527559 0.669291 0.527559
vn 0.700787 0.157480 0.692913
vn 0.708661 -0.031496 0.708661
vn 0.637795 -0.425197 0.637795
vn 0.433071 -0.795275 0.425197
vn 0.330709 -0.881890 0.330709
vn -0.094488 -0.992126 -0.094488
vn -0.110236 -0.992126 -0.110236
vn -0.535433 -0.661417 -0.527559
vn -0.496063 -0.708661 -0.496063
vn -0.677165 -0.307087 -0.669291
vn -0.708661 -0.000000 -0.708661
vn -0.708661 -0.000000 -0.708661
vn -0.677165 0.307086 -0.669291
vn -0.535433 0.661417 -0.527559
vn -0.496063 0.708661 -0.496063
vn -0.110236 0.984252 -0.110236
vn -0.094488 0.992126 -0.094488
vn 0.220472 0.952756 0.220472
vn 0.220472 0.952756 0.220472
vn 0.000000 0.952756 0.307086
vn 0.000000 0.952756 0.307086
vn 0.000000 0.724409 0.692913
vn 0.000000 0.708661 0.708661
vn 0.000000 0.204724 0.976378
vn 0.000000 0.149606 0.984252
vn 0.000000 -0.503937 0.858268
vn 0.000000 -0.409449 0.913386
vn 0.000000 -0.889764 0.448819
vn 0.000000 -0.976378 0.204724
vn 0.000000 -0.984252 -0.165354
vn 0.000000 -0.858268 -0.511811
vn 0.000000 -0.692913 -0.716535
vn 0.000000 -0.204724 -0.976378
vn 0.000000 -0.307087 -0.952756
vn 0.000000 -0.000000 -1.000000
vn 0.000000 0.511811 -0.858268
vn 0.000000 0.307086 -0.952756
vn 0.000000 0.700787 -0.708661
vn 0.000000 0.976378 -0.204724
vn 0.000000 0.984252 -0.165354
vn 0.000000 0.952756 0.307086
vn 0.000000 0.952756 0.307086
vn -0.220472 0.952756 0.220472
vn 0.173228 0.968504 -0.173228
vn -0.220472 0.952756 0.220472
vn 0.244094 0.937008 -0.244095
vn 0.574803 0.582677 -0.574803
vn 0.629921 0.456693 -0.629921
vn 0.708661 -0.086614 -0.700787
vn 0.669291 -0.330709 -0.669291
vn 0.488189 -0.724409 -0.488189
vn 0.314961 -0.889764 -0.314960
vn 0.110236 -0.992126 -0.110236
vn -0.094488 -0.992126 0.094488
vn -0.472441 -0.740157 0.472441
vn -0.590551 -0.559055 0.582677
vn -0.708661 0.062992 0.700787
vn -0.637795 0.433071 0.637795
vn -0.527559 0.669291 0.527559
vn -0.220472 0.952756 0.220472
vn -0.220472 0.952756 0.220472
vn 0.000000 0.724409 0.692913
vn 0.000000 0.952756 0.307086
vn 0.000000 0.952756 0.307086
vn 0.000000 0.708661 0.708661
vn 0.000000 0.204724 0.976378
vn 0.000000 0.149606 0.984252
vn 0.000000 -0.503937 0.858268
vn 0.000000 -0.409449 0.913386
vn 0.000000 -0.889764 0.448819
vn 0.000000 -0.976378 0.204724
vn 0.000000 -0.984252 -0.165354
vn 0.000000 -0.858268 -0.511811
vn 0.000000 -0.692913 -0.716535
vn 0.000000 -0.204724 -0.976378
vn 0.000000 -0.307087 -0.952756
vn 0.000000 -0.000000 -1.000000
vn 0.000000 0.511811 -0.858268
vn 0.000000 0.307086 -0.952756
vn 0.000000 0.700787 -0.708661
vn 0.000000 0.976378 -0.204724
vn 0.000000 0.984252 -0.165354
vn 0.000000 0.952756 0.307086
vn 0.000000 0.952756 0.307086
vn -0.220472 0.952756 0.220472
vn -0.511811 0.692913 0.511811
vn -0.220472 0.952756 0.220472
vn -0.527559 0.669291 0.527559
vn -0.700787 0.157480 0.692913
vn -0.708661 -0.031496 0.708661
vn -0.637795 -0.425197 0.637795
vn -0.433071 -0.795275 0.425197
vn -0.330709 -0.881890 0.330709
vn 0.094488 -0.992126 -0.094488
vn 0.110236 -0.992126 -0.110236
vn 0.535433 -0.661417 -0.527559
vn 0.417323 -0.803150 -0.417323
vn 0.574803 -0.582677 -0.574803
vn 0.677165 -0.307087 -0.669291
vn 0.708661 -0.000000 -0.708661
vn 0.708661 -0.000000 -0.708661
vn 0.677165 0.307086 -0.669291
vn 0.535433 0.661417 -0.527559
vn 0.496063 0.708661 -0.496063
vn 0.110236 0.984252 -0.110236
vn 0.094488 0.992126 -0.094488
vn -0.220472 0.952756 0.220472
vn -0.220472 0.952756 0.220472
tan 0.843946 -0.017112 -0.518073 1.000000
tan 0.576353 -0.335545 -0.693657 1.000000
tan 0.898134 0.432265 -0.078616 1.000000
tan 0.790626 0.085312 -0.574183 1.000000
tan 0.782194 -0.001984 -0.520367 1.000000
tan 0.753674 0.184512 -0.604315 1.000000
tan -0.736561 0.253704 -0.619257 1.000000
tan -0.948974 -0.210366 -0.247814 1.000000
tan -0.683737 0.310620 -0.651745 1.000000
tan -0.576353 -0.335545 -0.693657 1.000000
tan -0.843946 -0.017112 -0.518073 1.000000
tan -0.898134 0.432265 -0.078616 1.000000
tan -0.782194 -0.001984 -0.520367 1.000000
tan -0.790626 0.085312 -0.574183 1.000000
tan -0.753674 0.184512 -0.604315 1.000000
tan 0.772460 0.049476 -0.530845 1.000000
tan 0.832166 -0.062124 -0.334615 1.000000
tan 0.474487 0.236964 -0.750697 1.000000
tan 0.927398 -0.231012 -0.040362 1.000000
tan 0.829252 0.014942 -0.534751 1.000000
tan 0.977680 -0.060450 -0.116870 1.000000
tan 0.690929 0.050840 -0.698121 1.000000
tan 0.984252 -0.088164 0.062000 1.000000
tan 0.646723 -0.151156 -0.622543 1.000000
tan 0.891004 0.245024 0.057102 1.000000
tan 0.873830 0.122326 -0.182094 1.000000
tan 0.495381 -0.244281 -0.736189 1.000000
tan 0.806746 -0.213528 -0.498729 1.000000
tan 0.883254 0.038812 -0.404489 1.000000
tan 0.849278 0.053444 -0.380557 1.000000
tan 0.817782 -0.224564 -0.509765 1.000000
tan 0.893112 -0.060016 -0.436357 1.000000
tan 0.894228 0.006386 -0.426313 1.000000
tan 0.894228 0.013392 -0.425197 1.000000
tan 0.886106 -0.074028 -0.435241 1.000000
tan 0.893112 0.060016 -0.436357 1.000000
tan 0.894228 -0.006386 -0.426313 1.000000
tan 0.886106 0.074028 -0.435241 1.000000
tan 0.894228 -0.013392 -0.425197 1.000000
tan 0.883254 -0.038812 -0.404489 1.000000
tan 0.817782 0.224564 -0.509765 1.000000
tan 0.806746 0.213528 -0.498729 1.000000
tan 0.849278 -0.053444 -0.380557 1.000000
tan 0.646723 0.151156 -0.622543 1.000000
tan 0.873830 -0.122326 -0.182094 1.000000
tan 0.891004 -0.248434 0.063984 1.000000
tan 0.495381 0.244280 -0.736189 1.000000
tan 0.829252 -0.013764 -0.527001 1.000000
tan 0.961002 0.042718 -0.224750 1.000000
tan 0.984252 0.090520 0.077500 1.000000
tan 0.635501 -0.063426 -0.751751 1.000000
tan -0.772460 0.049476 -0.530845 1.000000
tan -0.832166 -0.062124 -0.334615 1.000000
tan -0.927398 -0.231012 -0.040362 1.000000
tan -0.474487 0.236964 -0.750697 1.000000
tan -0.829252 0.014942 -0.534751 1.000000
tan -0.977680 -0.060450 -0.116870 1.000000
tan -0.984252 -0.088164 0.062000 1.000000
tan -0.690929 0.050840 -0.698121 1.000000
tan -0.646723 -0.151156 -0.622543 1.000000
tan -0.873830 0.122326 -0.182094 1.000000
tan -0.891004 0.245024 0.057102 1.000000
tan -0.495381 -0.244281 -0.736189 1.000000
tan -0.883254 0.038812 -0.404489 1.000000
tan -0.806746 -0.213528 -0.498729 1.000000
tan -0.849278 0.053444 -0.380557 1.000000
tan -0.817782 -0.224564 -0.509765 1.000000
tan -0.894228 0.006386 -0.426313 1.000000
tan -0.893112 -0.060016 -0.436357 1.000000
tan -0.894228 0.013392 -0.425197 1.000000
tan -0.886106 -0.074028 -0.435241 1.000000
tan -0.894228 -0.013392 -0.425197 1.000000
tan -0.893112 0.060016 -0.436357 1.000000
tan -0.894228 -0.006386 -0.426313 1.000000
tan -0.886106 0.074028 -0.435241 1.000000
tan -0.849278 -0.053444 -0.380557 1.000000
tan -0.834026 0.195672 -0.502573 1.000000
tan -0.883254 -0.038812 -0.404489 1.000000
tan -0.817782 0.224564 -0.509765 1.000000
tan -0.697935 0.135842 -0.616777 1.000000
tan -0.873830 -0.122326 -0.182094 1.000000
tan -0.495381 0.244280 -0.736189 1.000000
tan -0.891004 -0.248434 0.063984 1.000000
tan -0.829252 -0.013764 -0.527001 1.000000
tan -0.961002 0.042718 -0.224750 1.000000
tan -0.635501 -0.063426 -0.751751 1.000000
tan -0.984252 0.090520 0.077500 1.000000
tan -0.682125 0.000000 0.682125 1.000000
tan -0.682125 0.000000 0.682125 1.000000
tan -0.686341 0.000000 0.686341 1.000000
tan -0.662099 0.000000 0.662099 1.000000
tan -0.709343 0.000000 0.709343 1.000000
tan -0.698617 0.000000 0.698617 1.000000
tan -0.702151 0.000124 0.710025 1.000000
tan -0.697873 0.005270 0.695269 1.000000
tan -0.653977 0.003844 0.648273 1.000000
tan -0.637981 0.000000 0.637981 1.000000
tan -0.703081 0.000000 0.703081 1.000000
tan -0.703081 0.000000 0.703081 1.000000
tan -0.629797 -0.003720 0.623969 1.000000
tan -0.705127 -0.008122 0.706863 1.000000
tan -0.701779 0.000124 0.709653 1.000000
tan -0.705313 0.005022 0.701903 1.000000
tan -0.686031 0.000000 0.686031 1.000000
tan -0.682125 0.000000 0.682125 1.000000
tan -0.682125 0.000000 0.682125 1.000000
tan -0.682125 0.000000 0.682125 1.000000
tan -0.682125 0.000000 0.682125 1.000000
tan -0.667617 0.004030 0.662161 1.000000
tan -0.694339 0.004154 0.689069 1.000000
tan -0.694153 0.000062 0.702027 1.000000
tan -0.709157 0.000000 0.709157 1.000000
tan -0.684667 -0.005022 0.681319 1.000000
tan -0.614235 -0.005518 0.615289 1.000000
tan -0.632773 0.000000 0.632773 1.000000
tan -0.703081 0.000000 0.703081 1.000000
tan -0.703081 0.000000 0.703081 1.000000
tan -0.691735 0.008680 0.691177 1.000000
tan -0.650629 0.000000 0.650629 1.000000
tan -0.699857 0.001054 0.707607 1.000000
tan -0.708661 0.000000 0.708661 1.000000
tan -0.708661 0.000000 0.708661 1.000000
tan -0.699857 -0.001054 0.707607 1.000000
tan -0.691735 -0.008680 0.691177 1.000000
tan -0.650629 0.000000 0.650629 1.000000
tan -0.697501 0.000000 0.697501 1.000000
tan -0.703081 0.000000 0.703081 1.000000
tan -0.682125 0.000000 0.682125 1.000000
tan -0.682125 0.000000 0.682125 1.000000
tan 0.962428 0.000000 0.000000 1.000000
tan 0.962428 0.000000 0.000000 1.000000
tan 1.001178 0.000000 0.000000 1.000000
tan 0.998822 0.000000 0.000000 1.000000
tan 0.976378 0.000000 0.000000 1.000000
tan 0.984252 0.000000 0.000000 1.000000
tan 0.897948 0.000000 0.000000 1.000000
tan 0.913386 0.000000 0.000000 1.000000
tan 0.903900 0.000000 0.000000 1.000000
tan 0.976378 0.000000 0.000000 1.000000
tan 0.984252 0.000000 0.000000 1.000000
tan 0.899870 0.000000 0.000000 1.000000
tan 0.989212 0.000000 0.000000 1.000000
tan 0.976378 0.000000 0.000000 1.000000
tan 0.962428 0.000000 0.000000 1.000000
tan 1.000000 0.000000 0.000000 1.000000
tan 0.899870 0.000000 0.000000 1.000000
tan 0.962428 0.000000 0.000000 1.000000
tan 0.992932 0.000000 0.000000 1.000000
tan 0.976378 0.000000 0.000000 1.000000
tan 0.984252 0.000000 0.000000 1.000000
tan 0.962428 0.000000 0.000000 1.000000
tan 0.962428 0.000000 0.000000 1.000000
tan 0.682125 0.000000 0.682125 1.000000
tan 0.686341 0.000000 0.686341 1.000000
tan 0.682125 0.000000 0.682125 1.000000
tan 0.662099 0.000000 0.662099 1.000000
tan 0.709343 0.000000 0.709343 1.000000
tan 0.698617 0.000000 0.698617 1.000000
tan 0.702151 0.000124 0.710025 1.000000
tan 0.697873 0.005270 0.695269 1.000000
tan 0.653977 0.003844 0.648273 1.000000
tan 0.637981 0.000000 0.637981 1.000000
tan 0.703081 0.000000 0.703081 1.000000
tan 0.703081 0.000000 0.703081 1.000000
tan 0.629797 -0.003720 0.623969 1.000000
tan 0.705127 -0.008122 0.706863 1.000000
tan 0.701779 0.000124 0.709653 1.000000
tan 0.705313 0.005022 0.701903 1.000000
tan 0.686031 0.000000 0.686031 1.000000
tan 0.682125 0.000000 0.682125 1.000000
tan 0.682125 0.000000 0.682125 1.000000
tan -1.001178 0.000000 0.000000 1.000000
tan -0.962428 0.000000 0.000000 1.000000
tan -0.962428 0.000000 0.000000 1.000000
tan -0.998822 0.000000 0.000000 1.000000
tan -0.976378 0.000000 0.000000 1.000000
tan -0.984252 0.000000 0.000000 1.000000
tan -0.897948 0.000000 0.000000 1.000000
tan -0.913386 0.000000 0.000000 1.000000
tan -0.903900 0.000000 0.000000 1.000000
tan -0.976378 0.000000 0.000000 1.000000
tan -0.984252 0.000000 0.000000 1.000000
tan -0.899870 0.000000 0.000000 1.000000
tan -0.989212 0.000000 0.000000 1.000000
tan -0.976378 0.000000 0.000000 1.000000
tan -0.962428 0.000000 0.000000 1.000000
tan -1.000000 0.000000 0.000000 1.000000
tan -0.899870 0.000000 0.000000 1.000000
tan -0.962428 0.000000 0.000000 1.000000
tan -0.992932 0.000000 0.000000 1.000000
tan -0.976378 0.000000 0.000000 1.000000
tan -0.984252 0.000000 0.000000 1.000000
tan -0.962428 0.000000 0.000000 1.000000
tan -0.962428 0.000000 0.000000 1.000000
tan 0.682125 0.000000 0.682125 1.000000
tan 0.667617 0.004030 0.662161 1.000000
tan 0.682125 0.000000 0.682125 1.000000
tan 0.694339 0.004154 0.689069 1.000000
tan 0.694153 0.000062 0.702027 1.000000
tan 0.709157 0.000000 0.709157 1.000000
tan 0.684667 -0.005022 0.681319 1.000000
tan 0.614235 -0.005518 0.615289 1.000000
tan 0.632773 0.000000 0.632773 1.000000
tan 0.703081 0.000000 0.703081 1.000000
tan 0.703081 0.000000 0.703081 1.000000
tan 0.691735 0.008680 0.691177 1.000000
tan 0.668733 0.003286 0.662409 1.000000
tan 0.709343 0.000000 0.709343 1.000000
tan 0.699857 0.001054 0.707607 1.000000
tan 0.708661 0.000000 0.708661 1.000000
tan 0.708661 0.000000 0.708661 1.000000
tan 0.699857 -0.001054 0.707607 1.000000
tan 0.691735 -0.008680 0.691177 1.000000
tan 0.650629 0.000000 0.650629 1.000000
tan 0.697501 0.000000 0.697501 1.000000
tan 0.703081 0.000000 0.703081 1.000000
tan 0.682125 0.000000 0.682125 1.000000
tan 0.682125 0.000000 0.682125 1.000000
f 3/3/3 2/2/2 1/1/1
f 6/6/6 5/5/5 4/4/4
f 9/9/9 8/8/8 7/7/7
f 12/12/12 11/11/11 10/10/10
f 15/15/15 14/14/14 13/13/13
f 18/18/18 17/17/17 16/16/16
f 17/17/17 19/19/19 16/16/16
f 22/22/22 21/21/21 20/20/20
f 21/21/21 23/23/23 20/20/20
f 26/26/26 25/25/25 24/24/24
f 27/27/27 26/26/26 24/24/24
f 30/30/30 29/29/29 28/28/28
f 31/31/31 28/28/28 29/29/29
f 34/34/34 33/33/33 32/32/32
f 35/35/35 32/32/32 33/33/33
f 38/38/38 37/37/37 36/36/36
f 39/39/39 36/36/36 37/37/37
f 42/42/42 41/41/41 40/40/40
f 43/43/43 42/42/42 40/40/40
f 46/46/46 45/45/45 44/44/44
f 47/47/47 44/44/44 45/45/45
f 50/50/50 49/49/49 48/48/48
f 51/51/51 48/48/48 49/49/49
f 54/54/54 53/53/53 52/52/52
f 52/52/52 53/53/53 55/55/55
f 58/58/58 57/57/57 56/56/56
f 56/56/56 57/57/57 59/59/59
f 62/62/62 61/61/61 60/60/60
f 60/60/60 61/61/61 63/63/63
f 66/66/66 65/65/65 64/64/64
f 67/67/67 64/64/64 65/65/65
f 70/70/70 69/69/69 68/68/68
f 71/71/71 68/68/68 69/69/69
f 74/74/74 73/73/73 72/72/72
f 73/73/73 74/74/74 75/75/75
f 78/78/78 77/77/77 76/76/76
f 77/77/77 78/78/78 79/79/79
f 82/82/82 81/81/81 80/80/80
f 83/83/83 80/80/80 81/81/81
f 86/86/86 85/85/85 84/84/84
f 87/87/87 84/84/84 85/85/85
f 90/90/90 89/89/89 88/88/88
f 88/88/88 91/91/91 90/90/90
f 92/92/92 90/90/90 91/91/91
f 91/91/91 93/93/93 92/92/92
f 94/94/94 92/92/92 93/93/93
f 95/95/95 94/94/94 93/93/93
f 96/96/96 94/94/94 95/95/95
f 95/95/95 97/97/97 96/96/96
f 98/98/98 96/96/96 97/97/97
f 97/97/97 99/99/99 98/98/98
f 100/100/100 98/98/98 99/99/99
f 99/99/99 101/101/101 100/100/100
f 102/102/102 100/100/100 101/101/101
f 101/101/101 103/103/103 102/102/102
f 104/104/104 102/102/102 103/103/103
f 105/105/105 104/104/104 103/103/103
f 103/103/103 106/106/106 105/105/105
f 109/109/109 108/108/108 107/107/107
f 107/107/107 110/110/110 109/109/109
f 109/109/109 110/110/110 111/111/111
f 110/110/110 112/112/112 111/111/111
f 113/113/113 111/111/111 112/112/112
f 112/112/112 114/114/114 113/113/113
f 115/115/115 113/113/113 114/114/114
f 114/114/114 116/116/116 115/115/115
f 117/117/117 115/115/115 116/116/116
f 116/116/116 118/118/118 117/117/117
f 119/119/119 117/117/117 118/118/118
f 120/120/120 119/119/119 118/118/118
f 118/118/118 121/121/121 120/120/120
f 122/122/122 120/120/120 121/121/121
f 122/122/122 121/121/121 123/123/123
f 124/124/124 123/123/123 121/121/121
f 123/123/123 124/124/124 125/125/125
f 126/126/126 125/125/125 124/124/124
f 124/124/124 127/127/127 126/126/126
f 128/128/128 126/126/126 127/127/127
f 127/127/127 129/129/129 128/128/128
f 132/132/132 131/131/131 130/130/130
f 131/131/131 132/132/132 133/133/133
f 132/132/132 134/134/134 133/133/133
f 135/135/135 133/133/133 134/134/134
f 134/134/134 136/136/136 135/135/135
f 137/137/137 135/135/135 136/136/136
f 138/138/138 137/137/137 136/136/136
f 136/136/136 139/139/139 138/138/138
f 140/140/140 138/138/138 139/139/139
f 139/139/139 141/141/141 140/140/140
f 142/142/142 140/140/140 141/141/141
f 141/141/141 143/143/143 142/142/142
f 144/144/144 142/142/142 143/143/143
f 145/145/145 144/144/144 143/143/143
f 143/143/143 146/146/146 145/145/145
f 147/147/147 145/145/145 146/146/146
f 148/148/148 147/147/147 146/146/146
f 149/149/149 148/148/148 146/146/146
f 148/148/148 149/149/149 150/150/150
f 151/151/151 150/150/150 149/149/149
f 150/150/150 151/151/151 152/152/152
f 155/155/155 154/154/154 153/153/153
f 156/156/156 153/153/153 154/154/154
f 154/154/154 157/157/157 156/156/156
f 158/158/158 156/156/156 157/157/157
f 157/157/157 159/159/159 158/158/158
f 158/158/158 159/159/159 160/160/160
f 161/161/161 160/160/160 159/159/159
f 160/160/160 161/161/161 162/162/162
f 163/163/163 162/162/162 161/161/161
f 162/162/162 163/163/163 164/164/164
f 165/165/165 164/164/164 163/163/163
f 164/164/164 165/165/165 166/166/166
f 167/167/167 166/166/166 165/165/165
f 166/166/166 167/167/167 168/168/168
f 167/167/167 169/169/169 168/168/168
f 169/169/169 170/170/170 168/168/168
f 171/171/171 168/168/168 170/170/170
f 174/174/174 173/173/173 172/172/172
f 175/175/175 172/172/172 173/173/173
f 172/172/172 175/175/175 176/176/176
f 175/175/175 177/177/177 176/176/176
f 176/176/176 177/177/177 178/178/178
f 177/177/177 179/179/179 178/178/178
f 179/179/179 180/180/180 178/178/178
f 178/178/178 180/180/180 181/181/181
f 180/180/180 182/182/182 181/181/181
f 181/181/181 182/182/182 183/183/183
f 182/182/182 184/184/184 183/183/183
f 183/183/183 184/184/184 185/185/185
f 184/184/184 186/186/186 185/185/185
f 186/186/186 187/187/187 185/185/185
f 185/185/185 187/187/187 188/188/188
f 187/187/187 189/189/189 188/188/188
f 189/189/189 190/190/190 188/188/188
f 188/188/188 190/190/190 191/191/191
f 192/192/192 191/191/191 190/190/190
f 191/191/191 192/192/192 193/193/193
f 194/194/194 193/193/193 192/192/192
f 197/197/197 196/196/196 195/195/195
f 198/198/198 195/195/195 196/196/196
f 199/199/199 198/198/198 196/196/196
f 200/200/200 198/198/198 199/199/199
f 201/201/201 200/200/200 199/199/199
f 200/200/200 201/201/201 202/202/202
f 203/203/203 202/202/202 201/201/201
f 202/202/202 203/203/203 204/204/204
f 205/205/205 204/204/204 203/203/203
f 204/204/204 205/205/205 206/206/206
f 207/207/207 206/206/206 205/205/205
f 208/208/208 206/206/206 207/207/207
f 209/209/209 206/206/206 208/208/208
f 206/206/206 209/209/209 210/210/210
f 211/211/211 210/210/210 209/209/209
f 212/212/212 210/210/210 211/211/211
f 213/213/213 210/210/210 212/212/212
f 214/214/214 213/213/213 212/212/212
f 214/214/214 215/215/215 213/213/213
f 216/216/216 213/213/213 215/215/215
f 215/215/215 217/217/217 216/216/216
f 218/218/218 216/216/216 217/217/217
