mtllib SM_Curtain_Rod_02_LOD2@000002909DC4F200.mtl
g SM_Curtain_Rod_02_LOD2@000002909DC4F200
#Vertices 94
#Indices 180
#Section 0 Offset 0 NumIndices 180 MaterialIndex 0 MI_MetalTile_A_03
v -2.602119 6.965599 0.641012 1.000000 1.000000 1.000000 1.000000
v -2.498743 6.992662 0.615165 1.000000 1.000000 1.000000 1.000000
v -2.525084 6.999347 0.673514 1.000000 1.000000 1.000000 1.000000
v -2.602119 6.965599 0.641012 1.000000 1.000000 1.000000 1.000000
v -2.498413 6.943454 0.585864 1.000000 1.000000 1.000000 1.000000
v -2.498743 6.992662 0.615165 1.000000 1.000000 1.000000 1.000000
v -2.498413 6.943454 0.585864 1.000000 1.000000 1.000000 1.000000
v -2.602119 6.965599 0.641012 1.000000 1.000000 1.000000 1.000000
v -2.605308 6.922945 0.636479 1.000000 1.000000 1.000000 1.000000
v -2.498413 6.943454 0.585864 1.000000 1.000000 1.000000 1.000000
v -2.605308 6.922945 0.636479 1.000000 1.000000 1.000000 1.000000
v -2.496447 6.900155 0.592196 1.000000 1.000000 1.000000 1.000000
v -2.496447 6.900155 0.592196 1.000000 1.000000 1.000000 1.000000
v -2.605308 6.922945 0.636479 1.000000 1.000000 1.000000 1.000000
v -2.582973 6.874886 0.658270 1.000000 1.000000 1.000000 1.000000
v -2.582973 6.874886 0.658270 1.000000 1.000000 1.000000 1.000000
v -2.514734 6.869260 0.675487 1.000000 1.000000 1.000000 1.000000
v -2.496447 6.900155 0.592196 1.000000 1.000000 1.000000 1.000000
v 2.564430 6.998186 0.671665 1.000000 1.000000 1.000000 1.000000
v 2.520833 6.994240 0.670463 1.000000 1.000000 1.000000 1.000000
v 2.498743 6.992662 0.615165 1.000000 1.000000 1.000000 1.000000
v 2.564430 6.998186 0.671665 1.000000 1.000000 1.000000 1.000000
v 2.498743 6.992662 0.615165 1.000000 1.000000 1.000000 1.000000
v 2.602119 6.965599 0.641012 1.000000 1.000000 1.000000 1.000000
v 2.498413 6.943454 0.585864 1.000000 1.000000 1.000000 1.000000
v 2.602119 6.965599 0.641012 1.000000 1.000000 1.000000 1.000000
v 2.498743 6.992662 0.615165 1.000000 1.000000 1.000000 1.000000
v 2.602119 6.965599 0.641012 1.000000 1.000000 1.000000 1.000000
v 2.498413 6.943454 0.585864 1.000000 1.000000 1.000000 1.000000
v 2.605308 6.922945 0.636479 1.000000 1.000000 1.000000 1.000000
v 2.496447 6.900155 0.592196 1.000000 1.000000 1.000000 1.000000
v 2.605308 6.922945 0.636479 1.000000 1.000000 1.000000 1.000000
v 2.498413 6.943454 0.585864 1.000000 1.000000 1.000000 1.000000
v 2.605308 6.922945 0.636479 1.000000 1.000000 1.000000 1.000000
v 2.496447 6.900155 0.592196 1.000000 1.000000 1.000000 1.000000
v 2.582973 6.874886 0.658270 1.000000 1.000000 1.000000 1.000000
v 2.514734 6.869260 0.675487 1.000000 1.000000 1.000000 1.000000
v 2.582973 6.874886 0.658270 1.000000 1.000000 1.000000 1.000000
v 2.496447 6.900155 0.592196 1.000000 1.000000 1.000000 1.000000
v -2.525084 6.999347 0.673514 1.000000 1.000000 1.000000 1.000000
v -4.406066 6.998173 2.563099 1.000000 1.000000 1.000000 1.000000
v -4.454993 6.977503 2.513991 1.000000 1.000000 1.000000 1.000000
v -2.602119 6.965599 0.641012 1.000000 1.000000 1.000000 1.000000
v -4.465499 6.904913 2.503464 1.000000 1.000000 1.000000 1.000000
v -2.605308 6.922945 0.636479 1.000000 1.000000 1.000000 1.000000
v -2.582973 6.874886 0.658270 1.000000 1.000000 1.000000 1.000000
v -4.404091 6.863787 2.565177 1.000000 1.000000 1.000000 1.000000
v -2.514734 6.869260 0.675487 1.000000 1.000000 1.000000 1.000000
v -2.505014 6.941628 0.723372 1.000000 1.000000 1.000000 1.000000
v -4.373753 6.947754 2.595532 1.000000 1.000000 1.000000 1.000000
v -4.406066 6.998173 2.563099 1.000000 1.000000 1.000000 1.000000
v -2.525084 6.999347 0.673514 1.000000 1.000000 1.000000 1.000000
v 0.000000 6.994435 0.669781 1.000000 1.000000 1.000000 1.000000
v 2.520833 6.994240 0.670463 1.000000 1.000000 1.000000 1.000000
v -0.000000 6.966373 0.709677 1.000000 1.000000 1.000000 1.000000
v 2.505014 6.941628 0.723372 1.000000 1.000000 1.000000 1.000000
v 0.000000 6.899364 0.707960 1.000000 1.000000 1.000000 1.000000
v 2.514734 6.869260 0.675487 1.000000 1.000000 1.000000 1.000000
v -0.000000 6.862670 0.637923 1.000000 1.000000 1.000000 1.000000
v 2.496447 6.900155 0.592196 1.000000 1.000000 1.000000 1.000000
v 0.000000 6.919819 0.586391 1.000000 1.000000 1.000000 1.000000
v 2.498413 6.943454 0.585864 1.000000 1.000000 1.000000 1.000000
v -0.000000 6.984857 0.603987 1.000000 1.000000 1.000000 1.000000
v 2.498743 6.992662 0.615165 1.000000 1.000000 1.000000 1.000000
v 0.000000 6.994435 0.669781 1.000000 1.000000 1.000000 1.000000
v 2.520833 6.994240 0.670463 1.000000 1.000000 1.000000 1.000000
v 4.406066 6.998173 2.563099 1.000000 1.000000 1.000000 1.000000
v 2.520833 6.994240 0.670463 1.000000 1.000000 1.000000 1.000000
v 2.564430 6.998186 0.671665 1.000000 1.000000 1.000000 1.000000
v 4.454993 6.977503 2.513991 1.000000 1.000000 1.000000 1.000000
v 2.602119 6.965599 0.641012 1.000000 1.000000 1.000000 1.000000
v 4.465499 6.904913 2.503464 1.000000 1.000000 1.000000 1.000000
v 2.605308 6.922945 0.636479 1.000000 1.000000 1.000000 1.000000
v 2.582973 6.874886 0.658270 1.000000 1.000000 1.000000 1.000000
v 4.404091 6.863787 2.565177 1.000000 1.000000 1.000000 1.000000
v 2.514734 6.869260 0.675487 1.000000 1.000000 1.000000 1.000000
v 2.505014 6.941628 0.723372 1.000000 1.000000 1.000000 1.000000
v 4.373753 6.947754 2.595532 1.000000 1.000000 1.000000 1.000000
v 4.406066 6.998173 2.563099 1.000000 1.000000 1.000000 1.000000
v 2.520833 6.994240 0.670463 1.000000 1.000000 1.000000 1.000000
v -0.000000 6.966373 0.709677 1.000000 1.000000 1.000000 1.000000
v -2.525084 6.999347 0.673514 1.000000 1.000000 1.000000 1.000000
v 0.000000 6.994435 0.669781 1.000000 1.000000 1.000000 1.000000
v -2.505014 6.941628 0.723372 1.000000 1.000000 1.000000 1.000000
v 0.000000 6.899364 0.707960 1.000000 1.000000 1.000000 1.000000
v -2.514734 6.869260 0.675487 1.000000 1.000000 1.000000 1.000000
v -0.000000 6.862670 0.637923 1.000000 1.000000 1.000000 1.000000
v -2.496447 6.900155 0.592196 1.000000 1.000000 1.000000 1.000000
v 0.000000 6.919819 0.586391 1.000000 1.000000 1.000000 1.000000
v -2.498413 6.943454 0.585864 1.000000 1.000000 1.000000 1.000000
v -0.000000 6.984857 0.603987 1.000000 1.000000 1.000000 1.000000
v -2.498743 6.992662 0.615165 1.000000 1.000000 1.000000 1.000000
v 0.000000 6.994435 0.669781 1.000000 1.000000 1.000000 1.000000
v -2.525084 6.999347 0.673514 1.000000 1.000000 1.000000 1.000000
vt 0.570312 0.720459
vt 0.591797 0.290527
vt 0.616211 0.545898
vt 0.570312 0.707275
vt 0.556152 0.305176
vt 0.591309 0.318848
vt 0.556152 0.307129
vt 0.570312 0.698486
vt 0.543457 0.694336
vt 0.556152 0.308594
vt 0.543457 0.698975
vt 0.528809 0.304688
vt 0.528320 0.302246
vt 0.543457 0.697266
vt 0.507812 0.675781
vt 0.507324 0.691406
vt 0.479980 0.415527
vt 0.527832 0.292969
vt 0.605469 0.707031
vt 0.618652 0.440430
vt 0.591797 0.300781
vt 0.605957 0.678467
vt 0.591797 0.290527
vt 0.570312 0.720459
vt 0.556152 0.305176
vt 0.570312 0.707275
vt 0.591309 0.318848
vt 0.570312 0.698486
vt 0.556152 0.307129
vt 0.543457 0.694336
vt 0.528809 0.304688
vt 0.543457 0.698975
vt 0.556152 0.308594
vt 0.543457 0.697266
vt 0.528320 0.302246
vt 0.507812 0.675781
vt 0.479980 0.415527
vt 0.507324 0.691406
vt 0.527832 0.292969
vt 0.623535 0.692627
vt 0.624512 0.312500
vt 0.578613 0.312500
vt 0.569824 0.687988
vt 0.533203 0.312500
vt 0.543457 0.688232
vt 0.507324 0.688232
vt 0.474365 0.312500
vt 0.470703 0.693359
vt 0.420166 0.689697
vt 0.416504 0.312988
vt 0.374023 0.312500
vt 0.372559 0.692627
vt 0.375000 0.688477
vt 0.375244 0.309570
vt 0.404785 0.688477
vt 0.419922 0.312012
vt 0.446045 0.688477
vt 0.472656 0.310547
vt 0.494141 0.688477
vt 0.528809 0.313477
vt 0.541504 0.688477
vt 0.556152 0.312988
vt 0.583496 0.688477
vt 0.590820 0.312988
vt 0.624512 0.688477
vt 0.625000 0.309570
vt 0.624512 0.312500
vt 0.625000 0.693359
vt 0.606445 0.688721
vt 0.578613 0.312500
vt 0.569824 0.687988
vt 0.533203 0.312500
vt 0.543457 0.688232
vt 0.507324 0.688232
vt 0.474365 0.312500
vt 0.470703 0.693359
vt 0.420166 0.689697
vt 0.416504 0.312988
vt 0.374023 0.312500
vt 0.375244 0.693359
vt 0.404785 0.688477
vt 0.374756 0.309082
vt 0.375000 0.688477
vt 0.419922 0.312012
vt 0.446045 0.688477
vt 0.472656 0.310547
vt 0.494141 0.688477
vt 0.528809 0.313477
vt 0.541504 0.688477
vt 0.556152 0.312988
vt 0.583496 0.688477
vt 0.590820 0.312988
vt 0.624512 0.688477
vt 0.626953 0.309082
vt1 0.833496 0.945648
vt1 0.846680 0.917664
vt1 0.861328 0.934265
vt1 0.833496 0.944794
vt1 0.825195 0.918579
vt1 0.846191 0.919434
vt1 0.825195 0.918701
vt1 0.833496 0.944214
vt1 0.817871 0.943939
vt1 0.825195 0.918823
vt1 0.817871 0.944244
vt1 0.809082 0.918518
vt1 0.809082 0.918396
vt1 0.817871 0.944122
vt1 0.796875 0.942719
vt1 0.796387 0.943756
vt1 0.779785 0.925781
vt1 0.808594 0.917786
vt1 0.854492 0.993145
vt1 0.862305 0.975754
vt1 0.846680 0.966675
vt1 0.854980 0.991287
vt1 0.846680 0.966003
vt1 0.833496 0.994015
vt1 0.825195 0.966949
vt1 0.833496 0.993156
vt1 0.846191 0.967834
vt1 0.833496 0.992584
vt1 0.825195 0.967102
vt1 0.817871 0.992310
vt1 0.809082 0.966919
vt1 0.817871 0.992622
vt1 0.825195 0.967163
vt1 0.817871 0.992496
vt1 0.809082 0.966766
vt1 0.796875 0.991104
vt1 0.779785 0.974136
vt1 0.796387 0.992119
vt1 0.808594 0.966156
vt1 0.155396 1.002460
vt1 0.155884 0.013672
vt1 0.128906 0.013672
vt1 0.123657 0.990738
vt1 0.101929 0.013672
vt1 0.107971 0.991089
vt1 0.086548 0.991257
vt1 0.066956 0.013672
vt1 0.064880 1.004658
vt1 0.034912 0.994690
vt1 0.032745 0.013672
vt1 0.007610 0.013672
vt1 0.006672 1.002464
vt1 0.362793 0.991936
vt1 0.363037 0.057129
vt1 0.380615 0.991936
vt1 0.389648 0.062988
vt1 0.405273 0.991936
vt1 0.421143 0.059570
vt1 0.434082 0.991943
vt1 0.454834 0.066406
vt1 0.462158 0.991936
vt1 0.470947 0.065430
vt1 0.487061 0.991936
vt1 0.491699 0.065430
vt1 0.511719 0.991936
vt1 0.512207 0.057129
vt1 0.333252 0.013672
vt1 0.333740 1.004383
vt1 0.322510 0.992615
vt1 0.306152 0.013672
vt1 0.301025 0.990738
vt1 0.279297 0.013672
vt1 0.285400 0.991089
vt1 0.263916 0.991257
vt1 0.244385 0.013672
vt1 0.242188 1.004658
vt1 0.212280 0.994690
vt1 0.210083 0.013672
vt1 0.184937 0.013672
vt1 0.185669 1.004383
vt1 0.558105 0.991936
vt1 0.540039 0.055664
vt1 0.540039 0.991936
vt1 0.566895 0.062988
vt1 0.582520 0.991936
vt1 0.598633 0.059570
vt1 0.611328 0.991943
vt1 0.631836 0.066406
vt1 0.639648 0.991936
vt1 0.647949 0.065430
vt1 0.664551 0.991936
vt1 0.668945 0.065430
vt1 0.688965 0.991936
vt1 0.690430 0.055664
vn -0.212598 0.874016 -0.433071
vn -0.212598 0.874016 -0.433071
vn -0.212598 0.874016 -0.433071
vn -0.393701 0.425197 -0.818898
vn -0.393701 0.425197 -0.818898
vn -0.393701 0.425197 -0.818898
vn -0.425197 0.141732 -0.889764
vn -0.425197 0.141732 -0.889764
vn -0.425197 0.141732 -0.889764
vn -0.425197 -0.141732 -0.889764
vn -0.425197 -0.141732 -0.889764
vn -0.425197 -0.141732 -0.889764
vn -0.393701 -0.425197 -0.818897
vn -0.393701 -0.425197 -0.818897
vn -0.393701 -0.425197 -0.818897
vn -0.212598 -0.874016 -0.433071
vn -0.212598 -0.874016 -0.433071
vn -0.212598 -0.874016 -0.433071
vn -0.078740 0.984252 0.149606
vn -0.078740 0.984252 0.149606
vn -0.078740 0.984252 0.149606
vn 0.212598 0.874016 -0.433071
vn 0.212598 0.874016 -0.433071
vn 0.212598 0.874016 -0.433071
vn 0.393701 0.425197 -0.818898
vn 0.393701 0.425197 -0.818898
vn 0.393701 0.425197 -0.818898
vn 0.425197 0.141732 -0.889764
vn 0.425197 0.141732 -0.889764
vn 0.425197 0.141732 -0.889764
vn 0.425197 -0.141732 -0.889764
vn 0.425197 -0.141732 -0.889764
vn 0.425197 -0.141732 -0.889764
vn 0.393701 -0.425197 -0.818897
vn 0.393701 -0.425197 -0.818897
vn 0.393701 -0.425197 -0.818897
vn 0.212598 -0.874016 -0.433071
vn 0.212598 -0.874016 -0.433071
vn 0.212598 -0.874016 -0.433071
vn 0.149606 0.976378 0.149606
vn 0.188976 0.960630 0.188976
vn -0.535433 0.661417 -0.527559
vn -0.622047 0.480315 -0.622047
vn -0.645669 -0.401575 -0.645669
vn -0.700787 -0.157480 -0.692913
vn -0.338583 -0.881890 -0.338583
vn 0.228346 -0.944882 0.228347
vn 0.307087 -0.897638 0.307087
vn 0.700787 0.118110 0.700787
vn 0.692913 0.204724 0.692913
vn 0.212598 0.952756 0.204724
vn 0.188976 0.960630 0.188976
vn 0.000000 0.952756 0.307086
vn 0.000000 0.944882 0.314960
vn 0.000000 0.480315 0.874016
vn 0.000000 0.125984 0.992126
vn 0.000000 -0.503937 0.858268
vn 0.000000 -0.937008 0.346457
vn 0.000000 -0.984252 -0.173228
vn 0.000000 -0.503937 -0.866142
vn 0.000000 -0.204724 -0.976378
vn 0.000000 0.157480 -0.984252
vn 0.000000 0.748031 -0.669291
vn 0.000000 0.866142 -0.503937
vn 0.000000 0.952756 0.307086
vn 0.000000 0.944882 0.314960
vn -0.188976 0.960630 0.188976
vn -0.228346 0.944882 0.228346
vn 0.110236 0.984252 -0.110236
vn 0.535433 0.661417 -0.527559
vn 0.622047 0.480315 -0.622047
vn 0.645669 -0.401575 -0.645669
vn 0.700787 -0.157480 -0.692913
vn 0.338583 -0.881890 -0.338583
vn -0.228346 -0.944882 0.228347
vn -0.307087 -0.897638 0.307087
vn -0.700787 0.118110 0.700787
vn -0.692913 0.204724 0.692913
vn -0.212598 0.952756 0.204724
vn -0.228346 0.944882 0.228346
vn 0.000000 0.480315 0.874016
vn 0.000000 0.952756 0.307086
vn 0.000000 0.952756 0.307086
vn 0.000000 0.125984 0.992126
vn 0.000000 -0.503937 0.858268
vn 0.000000 -0.937008 0.346457
vn 0.000000 -0.984252 -0.173228
vn 0.000000 -0.503937 -0.866142
vn 0.000000 -0.204724 -0.976378
vn 0.000000 0.157480 -0.984252
vn 0.000000 0.748031 -0.669291
vn 0.000000 0.866142 -0.503937
vn 0.000000 0.952756 0.307086
vn 0.000000 0.937008 0.354331
tan 0.612437 -0.162998 -0.629611 1.000000
tan 0.880836 0.209188 -0.010230 1.000000
tan 0.560853 -0.195176 -0.669229 1.000000
tan 0.780706 -0.277761 -0.519561 1.000000
tan 0.852626 -0.014384 -0.417385 1.000000
tan 0.832290 0.057536 -0.370265 1.000000
tan 0.890880 -0.003658 -0.426313 1.000000
tan 0.890880 -0.059706 -0.435241 1.000000
tan 0.890880 -0.066712 -0.436357 1.000000
tan 0.890880 0.010664 -0.427429 1.000000
tan 0.890880 0.059706 -0.435241 1.000000
tan 0.890880 -0.010354 -0.424081 1.000000
tan 0.845682 -0.018352 -0.397049 1.000000
tan 0.787650 0.278256 -0.523157 1.000000
tan 0.793354 0.213032 -0.492033 1.000000
tan 0.522971 0.225680 -0.712195 1.000000
tan 0.729432 0.066340 -0.491971 1.000000
tan 0.860190 -0.303057 0.189348 1.000000
tan -0.829252 0.014942 -0.534751 1.000000
tan -0.945502 -0.035588 -0.263500 1.000000
tan -0.961002 -0.108686 0.209250 1.000000
tan -0.495381 -0.244281 -0.736189 1.000000
tan -0.880836 0.209188 -0.010230 1.000000
tan -0.612437 -0.162998 -0.629611 1.000000
tan -0.852626 -0.014384 -0.417385 1.000000
tan -0.780706 -0.277761 -0.519561 1.000000
tan -0.832290 0.057536 -0.370265 1.000000
tan -0.890880 -0.059706 -0.435241 1.000000
tan -0.890880 -0.003658 -0.426313 1.000000
tan -0.890880 -0.066712 -0.436357 1.000000
tan -0.890880 -0.010354 -0.424081 1.000000
tan -0.890880 0.059706 -0.435241 1.000000
tan -0.890880 0.010664 -0.427429 1.000000
tan -0.787650 0.278256 -0.523157 1.000000
tan -0.845682 -0.018352 -0.397049 1.000000
tan -0.793354 0.213032 -0.492033 1.000000
tan -0.729432 0.066340 -0.491971 1.000000
tan -0.522971 0.225680 -0.712195 1.000000
tan -0.860190 -0.303057 0.189348 1.000000
tan -0.693099 0.000000 0.693099 1.000000
tan -0.682249 0.000000 0.682249 1.000000
tan -0.691735 -0.008680 0.691177 1.000000
tan -0.709653 -0.004898 0.705871 1.000000
tan -0.704259 0.005084 0.701097 1.000000
tan -0.695393 0.000124 0.703267 1.000000
tan -0.640957 0.002666 0.634013 1.000000
tan -0.669601 0.000000 0.669601 1.000000
tan -0.631285 -0.002418 0.624217 1.000000
tan -0.703701 0.000000 0.703701 1.000000
tan -0.705189 0.000000 0.705189 1.000000
tan -0.675181 0.005580 0.675181 1.000000
tan -0.679273 0.000000 0.679273 1.000000
tan 0.962428 0.000000 0.000000 1.000000
tan 0.947362 0.000000 0.000000 1.000000
tan 0.916300 0.000000 0.000000 1.000000
tan 0.992126 0.000000 0.000000 1.000000
tan 0.897948 0.000000 0.000000 1.000000
tan 0.939736 0.000000 0.000000 1.000000
tan 0.984252 0.000000 0.000000 1.000000
tan 0.914874 0.000000 0.000000 1.000000
tan 0.976378 0.000000 0.000000 1.000000
tan 0.984252 0.000000 0.000000 1.000000
tan 1.004402 0.000000 0.000000 1.000000
tan 0.918842 0.000000 0.000000 1.000000
tan 0.962428 0.000000 0.000000 1.000000
tan 0.947362 0.000000 0.000000 1.000000
tan 0.682249 0.000000 0.682249 1.000000
tan 0.669601 0.000000 0.669601 1.000000
tan 0.697501 0.000000 0.697501 1.000000
tan 0.691735 -0.008680 0.691177 1.000000
tan 0.709653 -0.004898 0.705871 1.000000
tan 0.704259 0.005084 0.701097 1.000000
tan 0.695393 0.000124 0.703267 1.000000
tan 0.640957 0.002666 0.634013 1.000000
tan 0.669601 0.000000 0.669601 1.000000
tan 0.631285 -0.002418 0.624217 1.000000
tan 0.703701 0.000000 0.703701 1.000000
tan 0.705189 0.000000 0.705189 1.000000
tan 0.675181 0.005580 0.675181 1.000000
tan 0.671399 0.000000 0.671399 1.000000
tan -0.916300 0.000000 0.000000 1.000000
tan -0.952756 0.000000 0.000000 1.000000
tan -0.962428 0.000000 0.000000 1.000000
tan -0.992126 0.000000 0.000000 1.000000
tan -0.897948 0.000000 0.000000 1.000000
tan -0.939736 0.000000 0.000000 1.000000
tan -0.984252 0.000000 0.000000 1.000000
tan -0.914874 0.000000 0.000000 1.000000
tan -0.976378 0.000000 0.000000 1.000000
tan -0.984252 0.000000 0.000000 1.000000
tan -1.004402 0.000000 0.000000 1.000000
tan -0.918842 0.000000 0.000000 1.000000
tan -0.962428 0.000000 0.000000 1.000000
tan -0.939798 0.000000 0.000000 1.000000
f 3/3/3 2/2/2 1/1/1
f 6/6/6 5/5/5 4/4/4
f 9/9/9 8/8/8 7/7/7
f 12/12/12 11/11/11 10/10/10
f 15/15/15 14/14/14 13/13/13
f 18/18/18 17/17/17 16/16/16
f 21/21/21 20/20/20 19/19/19
f 24/24/24 23/23/23 22/22/22
f 27/27/27 26/26/26 25/25/25
f 30/30/30 29/29/29 28/28/28
f 33/33/33 32/32/32 31/31/31
f 36/36/36 35/35/35 34/34/34
f 39/39/39 38/38/38 37/37/37
f 42/42/42 41/41/41 40/40/40
f 40/40/40 43/43/43 42/42/42
f 42/42/42 43/43/43 44/44/44
f 45/45/45 44/44/44 43/43/43
f 45/45/45 46/46/46 44/44/44
f 47/47/47 44/44/44 46/46/46
f 46/46/46 48/48/48 47/47/47
f 48/48/48 49/49/49 47/47/47
f 50/50/50 47/47/47 49/49/49
f 51/51/51 50/50/50 49/49/49
f 49/49/49 52/52/52 51/51/51
f 55/55/55 54/54/54 53/53/53
f 54/54/54 55/55/55 56/56/56
f 55/55/55 57/57/57 56/56/56
f 58/58/58 56/56/56 57/57/57
f 57/57/57 59/59/59 58/58/58
f 60/60/60 58/58/58 59/59/59
f 59/59/59 61/61/61 60/60/60
f 62/62/62 60/60/60 61/61/61
f 61/61/61 63/63/63 62/62/62
f 64/64/64 62/62/62 63/63/63
f 65/65/65 64/64/64 63/63/63
f 64/64/64 65/65/65 66/66/66
f 69/69/69 68/68/68 67/67/67
f 67/67/67 70/70/70 69/69/69
f 71/71/71 69/69/69 70/70/70
f 70/70/70 72/72/72 71/71/71
f 71/71/71 72/72/72 73/73/73
f 73/73/73 72/72/72 74/74/74
f 75/75/75 74/74/74 72/72/72
f 74/74/74 75/75/75 76/76/76
f 76/76/76 75/75/75 77/77/77
f 78/78/78 77/77/77 75/75/75
f 78/78/78 79/79/79 77/77/77
f 80/80/80 77/77/77 79/79/79
f 83/83/83 82/82/82 81/81/81
f 84/84/84 81/81/81 82/82/82
f 81/81/81 84/84/84 85/85/85
f 84/84/84 86/86/86 85/85/85
f 85/85/85 86/86/86 87/87/87
f 86/86/86 88/88/88 87/87/87
f 87/87/87 88/88/88 89/89/89
f 88/88/88 90/90/90 89/89/89
f 89/89/89 90/90/90 91/91/91
f 90/90/90 92/92/92 91/91/91
f 91/91/91 92/92/92 93/93/93
f 94/94/94 93/93/93 92/92/92
