mtllib SM_Cross_LOD2@000002909DC60F00.mtl
g SM_Cross_LOD2@000002909DC60F00
#Vertices 80
#Indices 138
#Section 0 Offset 0 NumIndices 138 MaterialIndex 0 MI_MetalTile_A_03
v 0.076244 3.338992 -0.124833 0.000000 0.000000 1.000000 1.000000
v 0.111815 0.000255 -0.112313 0.000000 0.000000 1.000000 1.000000
v 0.126114 3.290154 -0.074658 0.000000 0.000000 1.000000 1.000000
v 0.126114 3.290154 -0.074658 0.000000 0.000000 1.000000 1.000000
v 1.897673 3.302179 -0.118261 0.000000 0.000000 1.000000 1.000000
v 0.076244 3.338992 -0.124833 0.000000 0.000000 1.000000 1.000000
v -0.126116 3.290152 0.074656 0.000000 0.000000 1.000000 1.000000
v -1.899463 3.302563 0.117879 0.000000 0.000000 1.000000 1.000000
v -0.076246 3.338992 0.124832 0.000000 0.000000 1.000000 1.000000
v -0.111817 0.000254 0.112312 0.000000 0.000000 1.000000 1.000000
v -0.126116 3.290152 0.074656 0.000000 0.000000 1.000000 1.000000
v -0.076246 3.338992 0.124832 0.000000 0.000000 1.000000 1.000000
v 0.119030 4.439373 -0.117345 0.000000 0.000000 1.000000 1.000000
v 0.108715 4.453568 0.108511 0.000000 0.000000 1.000000 1.000000
v -0.108712 4.454502 -0.108659 0.000000 0.000000 1.000000 1.000000
v -0.119049 4.439421 0.117346 0.000000 0.000000 1.000000 1.000000
v -1.897857 3.482430 -0.117960 0.000000 0.000000 1.000000 1.000000
v -1.899463 3.302563 0.117879 0.000000 0.000000 1.000000 1.000000
v -1.895592 3.299757 -0.110085 0.000000 0.000000 1.000000 1.000000
v -1.895247 3.484721 0.109846 0.000000 0.000000 1.000000 1.000000
v 1.897556 3.485440 -0.109508 0.000000 0.000000 1.000000 1.000000
v 1.897673 3.302179 -0.118261 0.000000 0.000000 1.000000 1.000000
v 1.895336 3.481721 0.117917 0.000000 0.000000 1.000000 1.000000
v 1.894991 3.299711 0.110152 0.000000 0.000000 1.000000 1.000000
v 0.118085 -0.000148 0.118222 0.000000 0.000000 1.000000 1.000000
v 0.126114 3.290154 -0.074658 0.000000 0.000000 1.000000 1.000000
v 0.111815 0.000255 -0.112313 0.000000 0.000000 1.000000 1.000000
v 0.117086 3.295588 0.116581 0.000000 0.000000 1.000000 1.000000
v -0.118088 -0.000147 -0.118221 0.000000 0.000000 1.000000 1.000000
v -0.117083 3.295585 -0.116589 0.000000 0.000000 1.000000 1.000000
v -0.126116 3.290152 0.074656 0.000000 0.000000 1.000000 1.000000
v -0.111817 0.000254 0.112312 0.000000 0.000000 1.000000 1.000000
v -0.130085 3.491312 -0.112505 0.000000 0.000000 1.000000 1.000000
v -0.119049 4.439421 0.117346 0.000000 0.000000 1.000000 1.000000
v -0.124384 3.483827 0.117021 0.000000 0.000000 1.000000 1.000000
v -0.108712 4.454502 -0.108659 0.000000 0.000000 1.000000 1.000000
v 0.129974 3.491300 0.112468 0.000000 0.000000 1.000000 1.000000
v 0.119030 4.439373 -0.117345 0.000000 0.000000 1.000000 1.000000
v 0.124317 3.483844 -0.116996 0.000000 0.000000 1.000000 1.000000
v 0.108715 4.453568 0.108511 0.000000 0.000000 1.000000 1.000000
v -1.895592 3.299757 -0.110085 0.000000 0.000000 1.000000 1.000000
v -0.126116 3.290152 0.074656 0.000000 0.000000 1.000000 1.000000
v -0.117083 3.295585 -0.116589 0.000000 0.000000 1.000000 1.000000
v -1.899463 3.302563 0.117879 0.000000 0.000000 1.000000 1.000000
v -0.124384 3.483827 0.117021 0.000000 0.000000 1.000000 1.000000
v -1.895247 3.484721 0.109846 0.000000 0.000000 1.000000 1.000000
v -0.130085 3.491312 -0.112505 0.000000 0.000000 1.000000 1.000000
v -1.897857 3.482430 -0.117960 0.000000 0.000000 1.000000 1.000000
v 0.117086 3.295588 0.116581 0.000000 0.000000 1.000000 1.000000
v 1.894991 3.299711 0.110152 0.000000 0.000000 1.000000 1.000000
v 0.126114 3.290154 -0.074658 0.000000 0.000000 1.000000 1.000000
v 1.897673 3.302179 -0.118261 0.000000 0.000000 1.000000 1.000000
v 1.897556 3.485440 -0.109508 0.000000 0.000000 1.000000 1.000000
v 0.129974 3.491300 0.112468 0.000000 0.000000 1.000000 1.000000
v 0.124317 3.483844 -0.116996 0.000000 0.000000 1.000000 1.000000
v 1.895336 3.481721 0.117917 0.000000 0.000000 1.000000 1.000000
v 0.076244 3.338992 -0.124833 0.000000 0.000000 1.000000 1.000000
v -0.118088 -0.000147 -0.118221 0.000000 0.000000 1.000000 1.000000
v 0.111815 0.000255 -0.112313 0.000000 0.000000 1.000000 1.000000
v -0.117083 3.295585 -0.116589 0.000000 0.000000 1.000000 1.000000
v -1.897857 3.482430 -0.117960 0.000000 0.000000 1.000000 1.000000
v -1.895592 3.299757 -0.110085 0.000000 0.000000 1.000000 1.000000
v -0.130085 3.491312 -0.112505 0.000000 0.000000 1.000000 1.000000
v 0.124317 3.483844 -0.116996 0.000000 0.000000 1.000000 1.000000
v 1.897673 3.302179 -0.118261 0.000000 0.000000 1.000000 1.000000
v 1.897556 3.485440 -0.109508 0.000000 0.000000 1.000000 1.000000
v 0.119030 4.439373 -0.117345 0.000000 0.000000 1.000000 1.000000
v -0.108712 4.454502 -0.108659 0.000000 0.000000 1.000000 1.000000
v -0.111817 0.000254 0.112312 0.000000 0.000000 1.000000 1.000000
v -0.076246 3.338992 0.124832 0.000000 0.000000 1.000000 1.000000
v 0.118085 -0.000148 0.118222 0.000000 0.000000 1.000000 1.000000
v 0.117086 3.295588 0.116581 0.000000 0.000000 1.000000 1.000000
v 1.894991 3.299711 0.110152 0.000000 0.000000 1.000000 1.000000
v 1.895336 3.481721 0.117917 0.000000 0.000000 1.000000 1.000000
v 0.129974 3.491300 0.112468 0.000000 0.000000 1.000000 1.000000
v -0.124384 3.483827 0.117021 0.000000 0.000000 1.000000 1.000000
v -1.899463 3.302563 0.117879 0.000000 0.000000 1.000000 1.000000
v -1.895247 3.484721 0.109846 0.000000 0.000000 1.000000 1.000000
v -0.119049 4.439421 0.117346 0.000000 0.000000 1.000000 1.000000
v 0.108715 4.453568 0.108511 0.000000 0.000000 1.000000 1.000000
vt 0.435791 0.606934
vt 0.437988 0.286133
vt 0.440674 0.602295
vt 0.440674 0.602295
vt 0.610840 0.604980
vt 0.435791 0.606934
vt 0.688477 0.350586
vt 0.571289 0.352051
vt 0.691895 0.353516
vt 0.690430 0.132324
vt 0.688477 0.350586
vt 0.691895 0.353516
vt 0.439697 0.714355
vt 0.438965 0.714355
vt 0.418213 0.714355
vt 0.417236 0.714355
vt 0.244873 0.620605
vt 0.244873 0.603271
vt 0.244873 0.603271
vt 0.244873 0.620850
vt 0.612305 0.621094
vt 0.612305 0.603516
vt 0.612305 0.620605
vt 0.612305 0.603271
vt 0.440674 0.286133
vt 0.440674 0.602295
vt 0.440674 0.286133
vt 0.440674 0.602783
vt 0.416504 0.286133
vt 0.416504 0.602783
vt 0.416504 0.602295
vt 0.416504 0.286133
vt 0.416504 0.621582
vt 0.416504 0.712891
vt 0.416504 0.620850
vt 0.416504 0.714111
vt 0.440674 0.621582
vt 0.440674 0.712646
vt 0.440674 0.620850
vt 0.440674 0.714111
vt 0.246338 0.602295
vt 0.416504 0.602295
vt 0.417236 0.602295
vt 0.245972 0.602295
vt 0.416504 0.621826
vt 0.246338 0.621826
vt 0.416016 0.621826
vt 0.246094 0.621826
vt 0.439697 0.602295
vt 0.610840 0.602295
vt 0.440674 0.602295
vt 0.610840 0.602295
vt 0.610840 0.621826
vt 0.441162 0.621826
vt 0.440430 0.621826
vt 0.610840 0.621826
vt 0.435791 0.606934
vt 0.417236 0.286133
vt 0.439209 0.286133
vt 0.417236 0.602783
vt 0.246094 0.620605
vt 0.246338 0.603027
vt 0.416016 0.621582
vt 0.440430 0.620850
vt 0.610840 0.603516
vt 0.610840 0.621094
vt 0.439941 0.712646
vt 0.418213 0.714111
vt 0.689453 0.132324
vt 0.691895 0.353516
vt 0.704590 0.132324
vt 0.704590 0.350586
vt 0.822754 0.351074
vt 0.822754 0.363281
vt 0.705566 0.363770
vt 0.688477 0.363281
vt 0.570801 0.351074
vt 0.571289 0.363281
vt 0.688965 0.426758
vt 0.704102 0.427734
vt1 0.435791 0.606934
vt1 0.437988 0.286133
vt1 0.440674 0.602295
vt1 0.440674 0.602295
vt1 0.610840 0.604980
vt1 0.435791 0.606934
vt1 0.688477 0.350586
vt1 0.571289 0.352051
vt1 0.691895 0.353516
vt1 0.690430 0.132324
vt1 0.688477 0.350586
vt1 0.691895 0.353516
vt1 0.439697 0.714355
vt1 0.438965 0.714355
vt1 0.418213 0.714355
vt1 0.417236 0.714355
vt1 0.244873 0.620605
vt1 0.244873 0.603271
vt1 0.244873 0.603271
vt1 0.244873 0.620850
vt1 0.612305 0.621094
vt1 0.612305 0.603516
vt1 0.612305 0.620605
vt1 0.612305 0.603271
vt1 0.440674 0.286133
vt1 0.440674 0.602295
vt1 0.440674 0.286133
vt1 0.440674 0.602783
vt1 0.416504 0.286133
vt1 0.416504 0.602783
vt1 0.416504 0.602295
vt1 0.416504 0.286133
vt1 0.416504 0.621582
vt1 0.416504 0.712891
vt1 0.416504 0.620850
vt1 0.416504 0.714111
vt1 0.440674 0.621582
vt1 0.440674 0.712646
vt1 0.440674 0.620850
vt1 0.440674 0.714111
vt1 0.246338 0.602295
vt1 0.416504 0.602295
vt1 0.417236 0.602295
vt1 0.245972 0.602295
vt1 0.416504 0.621826
vt1 0.246338 0.621826
vt1 0.416016 0.621826
vt1 0.246094 0.621826
vt1 0.439697 0.602295
vt1 0.610840 0.602295
vt1 0.440674 0.602295
vt1 0.610840 0.602295
vt1 0.610840 0.621826
vt1 0.441162 0.621826
vt1 0.440430 0.621826
vt1 0.610840 0.621826
vt1 0.435791 0.606934
vt1 0.417236 0.286133
vt1 0.439209 0.286133
vt1 0.417236 0.602783
vt1 0.246094 0.620605
vt1 0.246338 0.603027
vt1 0.416016 0.621582
vt1 0.440430 0.620850
vt1 0.610840 0.603516
vt1 0.610840 0.621094
vt1 0.439941 0.712646
vt1 0.418213 0.714111
vt1 0.689453 0.132324
vt1 0.691895 0.353516
vt1 0.704590 0.132324
vt1 0.704590 0.350586
vt1 0.822754 0.351074
vt1 0.822754 0.363281
vt1 0.705566 0.363770
vt1 0.688477 0.363281
vt1 0.570801 0.351074
vt1 0.571289 0.363281
vt1 0.688965 0.426758
vt1 0.704102 0.427734
vn 0.669291 -0.055118 -0.740157
vn 0.708661 0.007874 -0.708661
vn 0.692913 -0.023622 -0.724409
vn 0.000000 -0.708661 -0.700787
vn 0.000000 -0.708661 -0.700787
vn 0.000000 -0.708661 -0.700787
vn 0.000000 -0.708661 0.700787
vn 0.000000 -0.708661 0.700787
vn 0.000000 -0.708661 0.700787
vn -0.708661 0.007874 0.708661
vn -0.692913 -0.023622 0.724409
vn -0.669291 -0.055118 0.740157
vn 0.000000 1.000000 -0.000000
vn 0.000000 1.000000 -0.000000
vn 0.000000 1.000000 -0.000000
vn 0.000000 1.000000 -0.000000
vn -1.000000 0.000000 0.000000
vn -1.000000 0.000000 0.000000
vn -1.000000 0.000000 0.000000
vn -1.000000 0.000000 0.000000
vn 1.000000 0.000000 0.000000
vn 1.000000 0.000000 0.000000
vn 1.000000 0.000000 0.000000
vn 1.000000 0.000000 0.000000
vn 1.000000 0.000000 0.000000
vn 1.000000 0.000000 0.000000
vn 1.000000 0.000000 0.000000
vn 1.000000 0.000000 0.000000
vn -1.000000 0.000000 0.000000
vn -1.000000 0.000000 0.000000
vn -1.000000 0.000000 0.000000
vn -1.000000 0.000000 0.000000
vn -1.000000 0.000000 0.000000
vn -1.000000 0.000000 0.000000
vn -1.000000 0.000000 0.000000
vn -1.000000 0.000000 0.000000
vn 1.000000 0.000000 0.000000
vn 1.000000 0.000000 0.000000
vn 1.000000 0.000000 0.000000
vn 1.000000 0.000000 0.000000
vn 0.000000 -1.000000 0.000000
vn 0.000000 -1.000000 0.000000
vn 0.000000 -1.000000 0.000000
vn 0.000000 -1.000000 0.000000
vn 0.000000 1.000000 -0.000000
vn 0.000000 1.000000 -0.000000
vn 0.000000 1.000000 -0.000000
vn 0.000000 1.000000 -0.000000
vn 0.000000 -1.000000 0.000000
vn 0.000000 -1.000000 0.000000
vn 0.000000 -1.000000 0.000000
vn 0.000000 -1.000000 0.000000
vn 0.000000 1.000000 -0.000000
vn 0.000000 1.000000 -0.000000
vn 0.000000 1.000000 -0.000000
vn 0.000000 1.000000 -0.000000
vn 0.000000 -0.000000 -1.000000
vn 0.000000 -0.000000 -1.000000
vn 0.000000 -0.000000 -1.000000
vn 0.000000 -0.000000 -1.000000
vn 0.000000 -0.000000 -1.000000
vn 0.000000 -0.000000 -1.000000
vn 0.000000 -0.000000 -1.000000
vn 0.000000 -0.000000 -1.000000
vn 0.000000 -0.000000 -1.000000
vn 0.000000 -0.000000 -1.000000
vn 0.000000 -0.000000 -1.000000
vn 0.000000 -0.000000 -1.000000
vn 0.000000 0.000000 1.000000
vn 0.000000 0.000000 1.000000
vn 0.000000 0.000000 1.000000
vn 0.000000 0.000000 1.000000
vn 0.000000 0.000000 1.000000
vn 0.000000 0.000000 1.000000
vn 0.000000 0.000000 1.000000
vn 0.000000 0.000000 1.000000
vn 0.000000 0.000000 1.000000
vn 0.000000 0.000000 1.000000
vn 0.000000 0.000000 1.000000
vn 0.000000 0.000000 1.000000
tan -0.027342 -0.978920 0.048174 1.000000
tan 0.005580 -1.004402 -0.005580 1.000000
tan -0.008990 -0.995722 0.023870 1.000000
tan 0.000000 -0.700787 0.708661 1.000000
tan 0.011098 -0.700787 0.708661 1.000000
tan 0.000000 -0.700787 0.708661 1.000000
tan 0.000000 -0.700787 -0.708661 1.000000
tan -0.011098 -0.700787 -0.708661 1.000000
tan 0.000000 -0.700787 -0.708661 1.000000
tan -0.005580 -1.004402 0.005580 1.000000
tan 0.008990 -0.995722 -0.023870 1.000000
tan 0.027342 -0.978920 -0.048174 1.000000
tan 0.000000 -0.000000 -1.000000 1.000000
tan 0.000000 -0.000000 -1.000000 1.000000
tan 0.000000 -0.000000 -1.000000 1.000000
tan 0.000000 -0.000000 -1.000000 1.000000
tan 0.000000 0.000000 0.000000 1.000000
tan 0.000000 0.000000 0.000000 1.000000
tan 0.000000 0.000000 0.000000 1.000000
tan 0.000000 0.000000 0.000000 1.000000
tan 0.000000 0.000000 0.000000 1.000000
tan 0.000000 0.000000 0.000000 1.000000
tan 0.000000 0.000000 0.000000 1.000000
tan 0.000000 0.000000 0.000000 1.000000
tan 0.000000 0.000000 0.000000 1.000000
tan 0.000000 0.000000 0.000000 1.000000
tan 0.000000 0.000000 0.000000 1.000000
tan 0.000000 0.000000 0.000000 1.000000
tan 0.000000 0.000000 0.000000 1.000000
tan 0.000000 0.000000 0.000000 1.000000
tan 0.000000 0.000000 0.000000 1.000000
tan 0.000000 0.000000 0.000000 1.000000
tan 0.000000 0.000000 0.000000 1.000000
tan 0.000000 0.000000 0.000000 1.000000
tan 0.000000 0.000000 0.000000 1.000000
tan 0.000000 0.000000 0.000000 1.000000
tan 0.000000 0.000000 0.000000 1.000000
tan 0.000000 0.000000 0.000000 1.000000
tan 0.000000 0.000000 0.000000 1.000000
tan 0.000000 0.000000 0.000000 1.000000
tan 0.000000 0.000000 1.000000 1.000000
tan 0.000000 0.000000 1.000000 1.000000
tan 0.000000 0.000000 1.000000 1.000000
tan 0.000000 0.000000 1.000000 1.000000
tan 0.000000 -0.000000 -1.000000 1.000000
tan 0.000000 -0.000000 -1.000000 1.000000
tan 0.000000 -0.000000 -1.000000 1.000000
tan 0.000000 -0.000000 -1.000000 1.000000
tan 0.000000 0.000000 1.000000 1.000000
tan 0.000000 0.000000 1.000000 1.000000
tan 0.000000 0.000000 1.000000 1.000000
tan 0.000000 0.000000 1.000000 1.000000
tan 0.000000 -0.000000 -1.000000 1.000000
tan 0.000000 -0.000000 -1.000000 1.000000
tan 0.000000 -0.000000 -1.000000 1.000000
tan 0.000000 -0.000000 -1.000000 1.000000
tan 0.000000 -1.000000 0.000000 1.000000
tan 0.000000 -1.000000 0.000000 1.000000
tan 0.000000 -1.000000 0.000000 1.000000
tan 0.000000 -1.000000 0.000000 1.000000
tan 0.000000 -1.000000 0.000000 1.000000
tan 0.000000 -1.000000 0.000000 1.000000
tan 0.000000 -1.000000 0.000000 1.000000
tan 0.000000 -1.000000 0.000000 1.000000
tan 0.000000 -1.000000 0.000000 1.000000
tan 0.000000 -1.000000 0.000000 1.000000
tan 0.000000 -1.000000 0.000000 1.000000
tan 0.000000 -1.000000 0.000000 1.000000
tan 0.000000 -1.000000 0.000000 1.000000
tan 0.000000 -1.000000 0.000000 1.000000
tan 0.000000 -1.000000 0.000000 1.000000
tan 0.000000 -1.000000 0.000000 1.000000
tan 0.000000 -1.000000 0.000000 1.000000
tan 0.000000 -1.000000 0.000000 1.000000
tan 0.000000 -1.000000 0.000000 1.000000
tan 0.000000 -1.000000 0.000000 1.000000
tan 0.000000 -1.000000 0.000000 1.000000
tan 0.000000 -1.000000 0.000000 1.000000
tan 0.000000 -1.000000 0.000000 1.000000
tan 0.000000 -1.000000 0.000000 1.000000
f 3/3/3 2/2/2 1/1/1
f 6/6/6 5/5/5 4/4/4
f 9/9/9 8/8/8 7/7/7
f 12/12/12 11/11/11 10/10/10
f 15/15/15 14/14/14 13/13/13
f 16/16/16 14/14/14 15/15/15
f 19/19/19 18/18/18 17/17/17
f 20/20/20 17/17/17 18/18/18
f 23/23/23 22/22/22 21/21/21
f 23/23/23 24/24/24 22/22/22
f 27/27/27 26/26/26 25/25/25
f 28/28/28 25/25/25 26/26/26
f 31/31/31 30/30/30 29/29/29
f 32/32/32 31/31/31 29/29/29
f 35/35/35 34/34/34 33/33/33
f 36/36/36 33/33/33 34/34/34
f 39/39/39 38/38/38 37/37/37
f 40/40/40 37/37/37 38/38/38
f 43/43/43 42/42/42 41/41/41
f 44/44/44 41/41/41 42/42/42
f 47/47/47 46/46/46 45/45/45
f 46/46/46 47/47/47 48/48/48
f 51/51/51 50/50/50 49/49/49
f 50/50/50 51/51/51 52/52/52
f 55/55/55 54/54/54 53/53/53
f 56/56/56 53/53/53 54/54/54
f 59/59/59 58/58/58 57/57/57
f 60/60/60 57/57/57 58/58/58
f 62/62/62 61/61/61 60/60/60
f 63/63/63 60/60/60 61/61/61
f 57/57/57 60/60/60 64/64/64
f 60/60/60 63/63/63 64/64/64
f 64/64/64 65/65/65 57/57/57
f 65/65/65 64/64/64 66/66/66
f 64/64/64 63/63/63 67/67/67
f 67/67/67 63/63/63 68/68/68
f 71/71/71 70/70/70 69/69/69
f 72/72/72 70/70/70 71/71/71
f 74/74/74 72/72/72 73/73/73
f 72/72/72 74/74/74 75/75/75
f 76/76/76 70/70/70 72/72/72
f 75/75/75 76/76/76 72/72/72
f 70/70/70 76/76/76 77/77/77
f 78/78/78 77/77/77 76/76/76
f 76/76/76 75/75/75 79/79/79
f 80/80/80 79/79/79 75/75/75
