mtllib SM_Cross@000002909DC60F00.mtl
g SM_Cross@000002909DC60F00
#Vertices 288
#Indices 546
#Section 0 Offset 0 NumIndices 546 MaterialIndex 0 MI_MetalTile_A_03
v 0.124999 4.405990 -0.073959 0.000000 0.000000 1.000000 1.000000
v 0.073958 4.457031 -0.073959 0.000000 0.000000 1.000000 1.000000
v 0.104162 4.426827 -0.104163 0.000000 0.000000 1.000000 1.000000
v -1.859095 3.494394 -0.073959 0.000000 0.000000 1.000000 1.000000
v -1.910136 3.443354 -0.073959 0.000000 0.000000 1.000000 1.000000
v -1.879932 3.473557 -0.104163 0.000000 0.000000 1.000000 1.000000
v 1.910136 3.443354 -0.073959 0.000000 0.000000 1.000000 1.000000
v 1.859095 3.494394 -0.073959 0.000000 0.000000 1.000000 1.000000
v 1.879932 3.473557 -0.104163 0.000000 0.000000 1.000000 1.000000
v -0.073960 4.457031 0.073958 0.000000 0.000000 1.000000 1.000000
v -0.104163 4.426827 0.104162 0.000000 0.000000 1.000000 1.000000
v -0.125001 4.405990 0.073958 0.000000 0.000000 1.000000 1.000000
v -1.910136 3.341251 0.073958 0.000000 0.000000 1.000000 1.000000
v -1.879932 3.311047 0.104162 0.000000 0.000000 1.000000 1.000000
v -1.859095 3.290209 0.073958 0.000000 0.000000 1.000000 1.000000
v 1.859095 3.290209 -0.073959 0.000000 0.000000 1.000000 1.000000
v 1.910136 3.341251 -0.073959 0.000000 0.000000 1.000000 1.000000
v 1.879932 3.311047 -0.104163 0.000000 0.000000 1.000000 1.000000
v 0.073958 4.457031 -0.073959 0.000000 0.000000 1.000000 1.000000
v 0.073958 4.457031 0.073958 0.000000 0.000000 1.000000 1.000000
v -0.073960 4.457031 -0.073959 0.000000 0.000000 1.000000 1.000000
v -0.073960 4.457031 0.073958 0.000000 0.000000 1.000000 1.000000
v -1.910136 3.443354 -0.073959 0.000000 0.000000 1.000000 1.000000
v -1.910136 3.341251 0.073958 0.000000 0.000000 1.000000 1.000000
v -1.910136 3.341251 -0.073959 0.000000 0.000000 1.000000 1.000000
v -1.910136 3.443354 0.073958 0.000000 0.000000 1.000000 1.000000
v 1.910136 3.443354 -0.073959 0.000000 0.000000 1.000000 1.000000
v 1.910136 3.341251 -0.073959 0.000000 0.000000 1.000000 1.000000
v 1.910136 3.443354 0.073958 0.000000 0.000000 1.000000 1.000000
v 1.910136 3.341251 0.073958 0.000000 0.000000 1.000000 1.000000
v -0.125001 3.241061 -0.075852 0.000000 0.000000 1.000000 1.000000
v -0.073960 -0.000000 -0.125000 0.000000 0.000000 1.000000 1.000000
v -0.075657 3.255317 -0.125000 0.000000 0.000000 1.000000 1.000000
v -0.125001 -0.000000 -0.073959 0.000000 0.000000 1.000000 1.000000
v -0.175096 3.290209 -0.074906 0.000000 0.000000 1.000000 1.000000
v -0.125001 3.240114 0.074905 0.000000 0.000000 1.000000 1.000000
v -0.125001 3.241061 -0.075852 0.000000 0.000000 1.000000 1.000000
v -0.175096 3.290209 0.074905 0.000000 0.000000 1.000000 1.000000
v 0.124999 3.240114 -0.074906 0.000000 0.000000 1.000000 1.000000
v 0.175094 3.290209 0.074905 0.000000 0.000000 1.000000 1.000000
v 0.175094 3.290209 -0.074906 0.000000 0.000000 1.000000 1.000000
v 0.124999 3.241061 0.075852 0.000000 0.000000 1.000000 1.000000
v -0.125001 3.544489 -0.074906 0.000000 0.000000 1.000000 1.000000
v -0.175096 3.494394 0.074905 0.000000 0.000000 1.000000 1.000000
v -0.175096 3.494394 -0.074906 0.000000 0.000000 1.000000 1.000000
v -0.125001 3.543543 0.075851 0.000000 0.000000 1.000000 1.000000
v 0.175094 3.494394 -0.074906 0.000000 0.000000 1.000000 1.000000
v 0.124999 3.544489 0.074905 0.000000 0.000000 1.000000 1.000000
v 0.124999 3.543543 -0.075852 0.000000 0.000000 1.000000 1.000000
v 0.175094 3.494394 0.074905 0.000000 0.000000 1.000000 1.000000
v 0.073958 0.000000 0.125000 0.000000 0.000000 1.000000 1.000000
v 0.124999 3.241061 0.075852 0.000000 0.000000 1.000000 1.000000
v 0.124999 0.000000 0.073959 0.000000 0.000000 1.000000 1.000000
v 0.075655 3.255317 0.125000 0.000000 0.000000 1.000000 1.000000
v 0.124999 0.000000 0.073959 0.000000 0.000000 1.000000 1.000000
v 0.124999 3.240114 -0.074906 0.000000 0.000000 1.000000 1.000000
v 0.124999 -0.000000 -0.073959 0.000000 0.000000 1.000000 1.000000
v 0.124999 3.241061 0.075852 0.000000 0.000000 1.000000 1.000000
v -0.125001 -0.000000 -0.073959 0.000000 0.000000 1.000000 1.000000
v -0.125001 3.241061 -0.075852 0.000000 0.000000 1.000000 1.000000
v -0.125001 3.240114 0.074905 0.000000 0.000000 1.000000 1.000000
v -0.125001 0.000000 0.073959 0.000000 0.000000 1.000000 1.000000
v -0.125001 3.544489 -0.074906 0.000000 0.000000 1.000000 1.000000
v -0.125001 4.405990 0.073958 0.000000 0.000000 1.000000 1.000000
v -0.125001 3.543543 0.075851 0.000000 0.000000 1.000000 1.000000
v -0.125001 4.405990 -0.073959 0.000000 0.000000 1.000000 1.000000
v 0.124999 3.544489 0.074905 0.000000 0.000000 1.000000 1.000000
v 0.124999 4.405990 -0.073959 0.000000 0.000000 1.000000 1.000000
v 0.124999 3.543543 -0.075852 0.000000 0.000000 1.000000 1.000000
v 0.124999 4.405990 0.073958 0.000000 0.000000 1.000000 1.000000
v -1.859095 3.290209 -0.073959 0.000000 0.000000 1.000000 1.000000
v -0.175096 3.290209 0.074905 0.000000 0.000000 1.000000 1.000000
v -0.175096 3.290209 -0.074906 0.000000 0.000000 1.000000 1.000000
v -1.859095 3.290209 0.073958 0.000000 0.000000 1.000000 1.000000
v -0.175096 3.494394 0.074905 0.000000 0.000000 1.000000 1.000000
v -1.859095 3.494394 0.073958 0.000000 0.000000 1.000000 1.000000
v -0.175096 3.494394 -0.074906 0.000000 0.000000 1.000000 1.000000
v -1.859095 3.494394 -0.073959 0.000000 0.000000 1.000000 1.000000
v 0.175094 3.290209 0.074905 0.000000 0.000000 1.000000 1.000000
v 1.859095 3.290209 0.073958 0.000000 0.000000 1.000000 1.000000
v 0.175094 3.290209 -0.074906 0.000000 0.000000 1.000000 1.000000
v 1.859095 3.290209 -0.073959 0.000000 0.000000 1.000000 1.000000
v 1.859095 3.494394 -0.073959 0.000000 0.000000 1.000000 1.000000
v 0.175094 3.494394 0.074905 0.000000 0.000000 1.000000 1.000000
v 0.175094 3.494394 -0.074906 0.000000 0.000000 1.000000 1.000000
v 1.859095 3.494394 0.073958 0.000000 0.000000 1.000000 1.000000
v 0.073958 4.457031 -0.073959 0.000000 0.000000 1.000000 1.000000
v 0.124999 4.405990 -0.073959 0.000000 0.000000 1.000000 1.000000
v 0.073958 4.457031 0.073958 0.000000 0.000000 1.000000 1.000000
v 0.124999 4.405990 0.073958 0.000000 0.000000 1.000000 1.000000
v 0.104162 4.426827 0.104162 0.000000 0.000000 1.000000 1.000000
v -1.879932 3.473557 -0.104163 0.000000 0.000000 1.000000 1.000000
v -1.910136 3.443354 -0.073959 0.000000 0.000000 1.000000 1.000000
v -1.859095 3.443353 -0.125000 0.000000 0.000000 1.000000 1.000000
v -1.910136 3.341251 -0.073959 0.000000 0.000000 1.000000 1.000000
v -1.859095 3.341251 -0.125000 0.000000 0.000000 1.000000 1.000000
v -1.879932 3.311047 -0.104163 0.000000 0.000000 1.000000 1.000000
v -1.910136 3.443354 -0.073959 0.000000 0.000000 1.000000 1.000000
v -1.859095 3.494394 -0.073959 0.000000 0.000000 1.000000 1.000000
v -1.910136 3.443354 0.073958 0.000000 0.000000 1.000000 1.000000
v -1.859095 3.494394 0.073958 0.000000 0.000000 1.000000 1.000000
v -1.879932 3.473557 0.104162 0.000000 0.000000 1.000000 1.000000
v 1.910136 3.443354 -0.073959 0.000000 0.000000 1.000000 1.000000
v 1.879932 3.473557 -0.104163 0.000000 0.000000 1.000000 1.000000
v 1.859095 3.443353 -0.125000 0.000000 0.000000 1.000000 1.000000
v 1.910136 3.341251 -0.073959 0.000000 0.000000 1.000000 1.000000
v 1.859095 3.341251 -0.125000 0.000000 0.000000 1.000000 1.000000
v 1.879932 3.311047 -0.104163 0.000000 0.000000 1.000000 1.000000
v -0.125001 4.405990 0.073958 0.000000 0.000000 1.000000 1.000000
v -0.104163 4.426827 0.104162 0.000000 0.000000 1.000000 1.000000
v -0.073960 4.405990 0.124999 0.000000 0.000000 1.000000 1.000000
v -0.125001 3.543543 0.075851 0.000000 0.000000 1.000000 1.000000
v -0.075657 3.529286 0.125000 0.000000 0.000000 1.000000 1.000000
v -0.086175 3.455568 0.125000 0.000000 0.000000 1.000000 1.000000
v -0.175096 3.494394 0.074905 0.000000 0.000000 1.000000 1.000000
v -0.159893 3.445050 0.125000 0.000000 0.000000 1.000000 1.000000
v 0.124999 4.405990 -0.073959 0.000000 0.000000 1.000000 1.000000
v 0.104162 4.426827 -0.104163 0.000000 0.000000 1.000000 1.000000
v 0.073958 4.405990 -0.125001 0.000000 0.000000 1.000000 1.000000
v 0.124999 3.543543 -0.075852 0.000000 0.000000 1.000000 1.000000
v 0.075655 3.529286 -0.125000 0.000000 0.000000 1.000000 1.000000
v 0.086173 3.455568 -0.125000 0.000000 0.000000 1.000000 1.000000
v 0.175094 3.494394 -0.074906 0.000000 0.000000 1.000000 1.000000
v 0.159891 3.445050 -0.125000 0.000000 0.000000 1.000000 1.000000
v -1.859095 3.290209 0.073958 0.000000 0.000000 1.000000 1.000000
v -1.879932 3.311047 0.104162 0.000000 0.000000 1.000000 1.000000
v -1.859095 3.341251 0.125000 0.000000 0.000000 1.000000 1.000000
v -0.175096 3.290209 0.074905 0.000000 0.000000 1.000000 1.000000
v -0.159893 3.339554 0.125000 0.000000 0.000000 1.000000 1.000000
v -1.859095 3.494394 -0.073959 0.000000 0.000000 1.000000 1.000000
v -1.879932 3.473557 -0.104163 0.000000 0.000000 1.000000 1.000000
v -1.859095 3.443353 -0.125000 0.000000 0.000000 1.000000 1.000000
v -0.175096 3.494394 -0.074906 0.000000 0.000000 1.000000 1.000000
v -0.159893 3.445050 -0.125000 0.000000 0.000000 1.000000 1.000000
v 1.859095 3.290209 -0.073959 0.000000 0.000000 1.000000 1.000000
v 1.879932 3.311047 -0.104163 0.000000 0.000000 1.000000 1.000000
v 1.859095 3.341251 -0.125000 0.000000 0.000000 1.000000 1.000000
v 0.175094 3.290209 -0.074906 0.000000 0.000000 1.000000 1.000000
v 0.159891 3.339554 -0.125000 0.000000 0.000000 1.000000 1.000000
v 1.859095 3.494394 0.073958 0.000000 0.000000 1.000000 1.000000
v 1.879932 3.473557 0.104162 0.000000 0.000000 1.000000 1.000000
v 1.859095 3.443353 0.125000 0.000000 0.000000 1.000000 1.000000
v 0.175094 3.494394 0.074905 0.000000 0.000000 1.000000 1.000000
v 0.159891 3.445050 0.125000 0.000000 0.000000 1.000000 1.000000
v -0.073960 4.405990 -0.125001 0.000000 0.000000 1.000000 1.000000
v -0.073960 4.457031 -0.073959 0.000000 0.000000 1.000000 1.000000
v -0.104163 4.426827 -0.104163 0.000000 0.000000 1.000000 1.000000
v 0.073958 4.457031 -0.073959 0.000000 0.000000 1.000000 1.000000
v 0.073958 4.405990 -0.125001 0.000000 0.000000 1.000000 1.000000
v 0.104162 4.426827 -0.104163 0.000000 0.000000 1.000000 1.000000
v 1.859095 3.341251 0.125000 0.000000 0.000000 1.000000 1.000000
v 1.910136 3.341251 0.073958 0.000000 0.000000 1.000000 1.000000
v 1.879932 3.311047 0.104162 0.000000 0.000000 1.000000 1.000000
v 1.859095 3.443353 0.125000 0.000000 0.000000 1.000000 1.000000
v 1.910136 3.443354 0.073958 0.000000 0.000000 1.000000 1.000000
v 1.879932 3.473557 0.104162 0.000000 0.000000 1.000000 1.000000
v 1.859095 3.494394 0.073958 0.000000 0.000000 1.000000 1.000000
v 1.910136 3.443354 0.073958 0.000000 0.000000 1.000000 1.000000
v 1.879932 3.473557 0.104162 0.000000 0.000000 1.000000 1.000000
v 1.910136 3.443354 -0.073959 0.000000 0.000000 1.000000 1.000000
v 1.859095 3.494394 -0.073959 0.000000 0.000000 1.000000 1.000000
v -0.073960 4.457031 -0.073959 0.000000 0.000000 1.000000 1.000000
v -0.125001 4.405990 -0.073959 0.000000 0.000000 1.000000 1.000000
v -0.104163 4.426827 -0.104163 0.000000 0.000000 1.000000 1.000000
v -0.125001 4.405990 0.073958 0.000000 0.000000 1.000000 1.000000
v -0.073960 4.457031 0.073958 0.000000 0.000000 1.000000 1.000000
v -0.073960 4.457031 0.073958 0.000000 0.000000 1.000000 1.000000
v -0.073960 4.405990 0.124999 0.000000 0.000000 1.000000 1.000000
v -0.104163 4.426827 0.104162 0.000000 0.000000 1.000000 1.000000
v 0.073958 4.405990 0.124999 0.000000 0.000000 1.000000 1.000000
v 0.073958 4.457031 0.073958 0.000000 0.000000 1.000000 1.000000
v 0.104162 4.426827 0.104162 0.000000 0.000000 1.000000 1.000000
v -1.910136 3.341251 -0.073959 0.000000 0.000000 1.000000 1.000000
v -1.859095 3.290209 -0.073959 0.000000 0.000000 1.000000 1.000000
v -1.879932 3.311047 -0.104163 0.000000 0.000000 1.000000 1.000000
v -1.859095 3.290209 0.073958 0.000000 0.000000 1.000000 1.000000
v -1.910136 3.341251 0.073958 0.000000 0.000000 1.000000 1.000000
v -1.910136 3.341251 0.073958 0.000000 0.000000 1.000000 1.000000
v -1.859095 3.341251 0.125000 0.000000 0.000000 1.000000 1.000000
v -1.879932 3.311047 0.104162 0.000000 0.000000 1.000000 1.000000
v -1.859095 3.443353 0.125000 0.000000 0.000000 1.000000 1.000000
v -1.910136 3.443354 0.073958 0.000000 0.000000 1.000000 1.000000
v -1.879932 3.473557 0.104162 0.000000 0.000000 1.000000 1.000000
v 1.910136 3.341251 0.073958 0.000000 0.000000 1.000000 1.000000
v 1.859095 3.290209 0.073958 0.000000 0.000000 1.000000 1.000000
v 1.879932 3.311047 0.104162 0.000000 0.000000 1.000000 1.000000
v 1.859095 3.290209 -0.073959 0.000000 0.000000 1.000000 1.000000
v 1.910136 3.341251 -0.073959 0.000000 0.000000 1.000000 1.000000
v -1.859095 3.341251 -0.125000 0.000000 0.000000 1.000000 1.000000
v -0.175096 3.290209 -0.074906 0.000000 0.000000 1.000000 1.000000
v -0.159893 3.339554 -0.125000 0.000000 0.000000 1.000000 1.000000
v -1.859095 3.290209 -0.073959 0.000000 0.000000 1.000000 1.000000
v -1.879932 3.311047 -0.104163 0.000000 0.000000 1.000000 1.000000
v -0.159893 3.445050 0.125000 0.000000 0.000000 1.000000 1.000000
v -1.859095 3.443353 0.125000 0.000000 0.000000 1.000000 1.000000
v -0.175096 3.494394 0.074905 0.000000 0.000000 1.000000 1.000000
v -1.859095 3.494394 0.073958 0.000000 0.000000 1.000000 1.000000
v -1.879932 3.473557 0.104162 0.000000 0.000000 1.000000 1.000000
v 0.159891 3.339554 0.125000 0.000000 0.000000 1.000000 1.000000
v 1.859095 3.341251 0.125000 0.000000 0.000000 1.000000 1.000000
v 0.175094 3.290209 0.074905 0.000000 0.000000 1.000000 1.000000
v 1.859095 3.290209 0.073958 0.000000 0.000000 1.000000 1.000000
v 1.879932 3.311047 0.104162 0.000000 0.000000 1.000000 1.000000
v 1.859095 3.443353 -0.125000 0.000000 0.000000 1.000000 1.000000
v 0.175094 3.494394 -0.074906 0.000000 0.000000 1.000000 1.000000
v 0.159891 3.445050 -0.125000 0.000000 0.000000 1.000000 1.000000
v 1.859095 3.494394 -0.073959 0.000000 0.000000 1.000000 1.000000
v 1.879932 3.473557 -0.104163 0.000000 0.000000 1.000000 1.000000
v -0.159893 3.445050 0.125000 0.000000 0.000000 1.000000 1.000000
v -1.859095 3.341251 0.125000 0.000000 0.000000 1.000000 1.000000
v -1.859095 3.443353 0.125000 0.000000 0.000000 1.000000 1.000000
v -0.159893 3.339554 0.125000 0.000000 0.000000 1.000000 1.000000
v -0.086175 3.455568 0.125000 0.000000 0.000000 1.000000 1.000000
v -0.086175 3.329035 0.125000 0.000000 0.000000 1.000000 1.000000
v 0.086173 3.329035 0.125000 0.000000 0.000000 1.000000 1.000000
v -0.073487 3.253783 0.125000 0.000000 0.000000 1.000000 1.000000
v -0.073960 0.000000 0.125000 0.000000 0.000000 1.000000 1.000000
v 0.073958 0.000000 0.125000 0.000000 0.000000 1.000000 1.000000
v 0.075655 3.255317 0.125000 0.000000 0.000000 1.000000 1.000000
v 0.086173 3.455568 0.125000 0.000000 0.000000 1.000000 1.000000
v 0.159891 3.339554 0.125000 0.000000 0.000000 1.000000 1.000000
v 0.073485 3.530820 0.125000 0.000000 0.000000 1.000000 1.000000
v 0.159891 3.445050 0.125000 0.000000 0.000000 1.000000 1.000000
v -0.075657 3.529286 0.125000 0.000000 0.000000 1.000000 1.000000
v 1.859095 3.443353 0.125000 0.000000 0.000000 1.000000 1.000000
v 1.859095 3.341251 0.125000 0.000000 0.000000 1.000000 1.000000
v -0.073960 4.405990 0.124999 0.000000 0.000000 1.000000 1.000000
v 0.073958 4.405990 0.124999 0.000000 0.000000 1.000000 1.000000
v 1.859095 3.443353 -0.125000 0.000000 0.000000 1.000000 1.000000
v 0.159891 3.445050 -0.125000 0.000000 0.000000 1.000000 1.000000
v 1.859095 3.341251 -0.125000 0.000000 0.000000 1.000000 1.000000
v 0.159891 3.339554 -0.125000 0.000000 0.000000 1.000000 1.000000
v 0.086173 3.455568 -0.125000 0.000000 0.000000 1.000000 1.000000
v 0.086173 3.329035 -0.125000 0.000000 0.000000 1.000000 1.000000
v -0.086175 3.329035 -0.125000 0.000000 0.000000 1.000000 1.000000
v 0.073485 3.253783 -0.125000 0.000000 0.000000 1.000000 1.000000
v -0.073960 -0.000000 -0.125000 0.000000 0.000000 1.000000 1.000000
v 0.073958 -0.000000 -0.125000 0.000000 0.000000 1.000000 1.000000
v -0.075657 3.255317 -0.125000 0.000000 0.000000 1.000000 1.000000
v -0.086175 3.455568 -0.125000 0.000000 0.000000 1.000000 1.000000
v -0.159893 3.339554 -0.125000 0.000000 0.000000 1.000000 1.000000
v -0.073487 3.530820 -0.125000 0.000000 0.000000 1.000000 1.000000
v -0.159893 3.445050 -0.125000 0.000000 0.000000 1.000000 1.000000
v 0.075655 3.529286 -0.125000 0.000000 0.000000 1.000000 1.000000
v -1.859095 3.443353 -0.125000 0.000000 0.000000 1.000000 1.000000
v -1.859095 3.341251 -0.125000 0.000000 0.000000 1.000000 1.000000
v 0.073958 4.405990 -0.125001 0.000000 0.000000 1.000000 1.000000
v -0.073960 4.405990 -0.125001 0.000000 0.000000 1.000000 1.000000
v -0.175096 3.290209 -0.074906 0.000000 0.000000 1.000000 1.000000
v -0.086175 3.329035 -0.125000 0.000000 0.000000 1.000000 1.000000
v -0.159893 3.339554 -0.125000 0.000000 0.000000 1.000000 1.000000
v -0.125001 3.241061 -0.075852 0.000000 0.000000 1.000000 1.000000
v -0.075657 3.255317 -0.125000 0.000000 0.000000 1.000000 1.000000
v 0.086173 3.329035 -0.125000 0.000000 0.000000 1.000000 1.000000
v 0.175094 3.290209 -0.074906 0.000000 0.000000 1.000000 1.000000
v 0.159891 3.339554 -0.125000 0.000000 0.000000 1.000000 1.000000
v 0.124999 3.240114 -0.074906 0.000000 0.000000 1.000000 1.000000
v 0.073485 3.253783 -0.125000 0.000000 0.000000 1.000000 1.000000
v 0.073958 -0.000000 -0.125000 0.000000 0.000000 1.000000 1.000000
v 0.124999 -0.000000 -0.073959 0.000000 0.000000 1.000000 1.000000
v -0.086175 3.329035 0.125000 0.000000 0.000000 1.000000 1.000000
v -0.175096 3.290209 0.074905 0.000000 0.000000 1.000000 1.000000
v -0.159893 3.339554 0.125000 0.000000 0.000000 1.000000 1.000000
v -0.125001 3.240114 0.074905 0.000000 0.000000 1.000000 1.000000
v -0.073487 3.253783 0.125000 0.000000 0.000000 1.000000 1.000000
v -0.073960 0.000000 0.125000 0.000000 0.000000 1.000000 1.000000
v -0.125001 0.000000 0.073959 0.000000 0.000000 1.000000 1.000000
v -0.086175 3.455568 -0.125000 0.000000 0.000000 1.000000 1.000000
v -0.175096 3.494394 -0.074906 0.000000 0.000000 1.000000 1.000000
v -0.159893 3.445050 -0.125000 0.000000 0.000000 1.000000 1.000000
v -0.125001 3.544489 -0.074906 0.000000 0.000000 1.000000 1.000000
v -0.073487 3.530820 -0.125000 0.000000 0.000000 1.000000 1.000000
v -0.073960 4.405990 -0.125001 0.000000 0.000000 1.000000 1.000000
v -0.125001 4.405990 -0.073959 0.000000 0.000000 1.000000 1.000000
v -0.104163 4.426827 -0.104163 0.000000 0.000000 1.000000 1.000000
v 0.086173 3.455568 0.125000 0.000000 0.000000 1.000000 1.000000
v 0.175094 3.494394 0.074905 0.000000 0.000000 1.000000 1.000000
v 0.159891 3.445050 0.125000 0.000000 0.000000 1.000000 1.000000
v 0.124999 3.544489 0.074905 0.000000 0.000000 1.000000 1.000000
v 0.073485 3.530820 0.125000 0.000000 0.000000 1.000000 1.000000
v 0.073958 4.405990 0.124999 0.000000 0.000000 1.000000 1.000000
v 0.124999 4.405990 0.073958 0.000000 0.000000 1.000000 1.000000
v 0.104162 4.426827 0.104162 0.000000 0.000000 1.000000 1.000000
v 0.086173 3.329035 0.125000 0.000000 0.000000 1.000000 1.000000
v 0.124999 3.241061 0.075852 0.000000 0.000000 1.000000 1.000000
v 0.075655 3.255317 0.125000 0.000000 0.000000 1.000000 1.000000
v 0.175094 3.290209 0.074905 0.000000 0.000000 1.000000 1.000000
v 0.159891 3.339554 0.125000 0.000000 0.000000 1.000000 1.000000
vt 0.440674 0.709473
vt 0.435547 0.714355
vt 0.438477 0.711426
vt 0.249756 0.621826
vt 0.244873 0.616943
vt 0.247803 0.619873
vt 0.612305 0.616943
vt 0.607422 0.621826
vt 0.609375 0.619873
vt 0.421387 0.714355
vt 0.418457 0.711426
vt 0.416504 0.709473
vt 0.244873 0.607178
vt 0.247803 0.604248
vt 0.249756 0.602295
vt 0.607422 0.602295
vt 0.612305 0.607178
vt 0.609375 0.604248
vt 0.435547 0.714355
vt 0.435547 0.714355
vt 0.421387 0.714355
vt 0.421387 0.714355
vt 0.244873 0.616943
vt 0.244873 0.607178
vt 0.244873 0.607178
vt 0.244873 0.616943
vt 0.612305 0.616943
vt 0.612305 0.607178
vt 0.612305 0.616943
vt 0.612305 0.607178
vt 0.416504 0.597412
vt 0.421387 0.286133
vt 0.421387 0.598877
vt 0.416504 0.286133
vt 0.411621 0.602295
vt 0.416504 0.597412
vt 0.416504 0.597412
vt 0.411621 0.602295
vt 0.440674 0.597412
vt 0.445312 0.602295
vt 0.445312 0.602295
vt 0.440674 0.597412
vt 0.416504 0.626709
vt 0.411621 0.621826
vt 0.411621 0.621826
vt 0.416504 0.626709
vt 0.445312 0.621826
vt 0.440674 0.626709
vt 0.440674 0.626709
vt 0.445312 0.621826
vt 0.701660 0.132324
vt 0.705078 0.347168
vt 0.705078 0.132324
vt 0.702148 0.348145
vt 0.440674 0.286133
vt 0.440674 0.597412
vt 0.440674 0.286133
vt 0.440674 0.597412
vt 0.416504 0.286133
vt 0.416504 0.597412
vt 0.416504 0.597412
vt 0.416504 0.286133
vt 0.416504 0.626709
vt 0.416504 0.709473
vt 0.416504 0.626709
vt 0.416504 0.709473
vt 0.440674 0.626709
vt 0.440674 0.709473
vt 0.440674 0.626709
vt 0.440674 0.709473
vt 0.249756 0.602295
vt 0.411621 0.602295
vt 0.411621 0.602295
vt 0.249756 0.602295
vt 0.411621 0.621826
vt 0.249756 0.621826
vt 0.411621 0.621826
vt 0.249756 0.621826
vt 0.445312 0.602295
vt 0.607422 0.602295
vt 0.445312 0.602295
vt 0.607422 0.602295
vt 0.607422 0.621826
vt 0.445312 0.621826
vt 0.445312 0.621826
vt 0.607422 0.621826
vt 0.435547 0.714355
vt 0.440674 0.709473
vt 0.435547 0.714355
vt 0.440674 0.709473
vt 0.438477 0.711426
vt 0.247803 0.619873
vt 0.244873 0.616943
vt 0.249756 0.616943
vt 0.244873 0.607178
vt 0.249756 0.607178
vt 0.247803 0.604248
vt 0.244873 0.616943
vt 0.249756 0.621826
vt 0.244873 0.616943
vt 0.249756 0.621826
vt 0.247803 0.619873
vt 0.612305 0.616943
vt 0.609375 0.619873
vt 0.607422 0.616943
vt 0.612305 0.607178
vt 0.607422 0.607178
vt 0.609375 0.604248
vt 0.688477 0.424316
vt 0.689941 0.425781
vt 0.691895 0.424316
vt 0.688477 0.367188
vt 0.691895 0.366211
vt 0.691406 0.361328
vt 0.685547 0.363770
vt 0.686523 0.360840
vt 0.440674 0.709473
vt 0.438477 0.711426
vt 0.435547 0.709473
vt 0.440674 0.626709
vt 0.435791 0.625244
vt 0.436768 0.618164
vt 0.445312 0.621826
vt 0.443848 0.617188
vt 0.573730 0.350586
vt 0.572266 0.351562
vt 0.573730 0.354004
vt 0.685547 0.350586
vt 0.686523 0.353516
vt 0.249756 0.621826
vt 0.247803 0.619873
vt 0.249756 0.616943
vt 0.411621 0.621826
vt 0.413086 0.617188
vt 0.607422 0.602295
vt 0.609375 0.604248
vt 0.607422 0.607178
vt 0.445312 0.602295
vt 0.443848 0.606934
vt 0.820312 0.363770
vt 0.821777 0.362793
vt 0.820312 0.360352
vt 0.708496 0.363770
vt 0.707520 0.360840
vt 0.421387 0.709473
vt 0.421387 0.714355
vt 0.418457 0.711426
vt 0.435547 0.714355
vt 0.435547 0.709473
vt 0.438477 0.711426
vt 0.820312 0.354004
vt 0.823730 0.354004
vt 0.821777 0.351562
vt 0.820312 0.360352
vt 0.823730 0.360352
vt 0.821777 0.362793
vt 0.607422 0.621826
vt 0.612305 0.616943
vt 0.609375 0.619873
vt 0.612305 0.616943
vt 0.607422 0.621826
vt 0.421387 0.714355
vt 0.416504 0.709473
vt 0.418457 0.711426
vt 0.416504 0.709473
vt 0.421387 0.714355
vt 0.691895 0.427734
vt 0.691895 0.424316
vt 0.689941 0.425781
vt 0.701660 0.424316
vt 0.701660 0.427734
vt 0.703613 0.425781
vt 0.244873 0.607178
vt 0.249756 0.602295
vt 0.247803 0.604248
vt 0.249756 0.602295
vt 0.244873 0.607178
vt 0.570312 0.354004
vt 0.573730 0.354004
vt 0.572266 0.351562
vt 0.573730 0.360352
vt 0.570312 0.360352
vt 0.572266 0.362793
vt 0.612305 0.607178
vt 0.607422 0.602295
vt 0.609375 0.604248
vt 0.607422 0.602295
vt 0.612305 0.607178
vt 0.249756 0.607178
vt 0.411621 0.602295
vt 0.413086 0.606934
vt 0.249756 0.602295
vt 0.247803 0.604248
vt 0.686523 0.360840
vt 0.573730 0.360352
vt 0.685547 0.363770
vt 0.573730 0.363770
vt 0.572266 0.362793
vt 0.707520 0.353516
vt 0.820312 0.354004
vt 0.708496 0.350586
vt 0.820312 0.350586
vt 0.821777 0.351562
vt 0.607422 0.616943
vt 0.445312 0.621826
vt 0.443848 0.617188
vt 0.607422 0.621826
vt 0.609375 0.619873
vt 0.686523 0.360840
vt 0.573730 0.354004
vt 0.573730 0.360352
vt 0.686523 0.353516
vt 0.691406 0.361328
vt 0.691406 0.353027
vt 0.702637 0.353027
vt 0.691895 0.348145
vt 0.691895 0.132324
vt 0.701660 0.132324
vt 0.702148 0.348145
vt 0.702637 0.361328
vt 0.707520 0.353516
vt 0.701660 0.366211
vt 0.707520 0.360840
vt 0.691895 0.366211
vt 0.820312 0.360352
vt 0.820312 0.354004
vt 0.691895 0.424316
vt 0.701660 0.424316
vt 0.607422 0.616943
vt 0.443848 0.617188
vt 0.607422 0.607178
vt 0.443848 0.606934
vt 0.436768 0.618164
vt 0.436768 0.605957
vt 0.420166 0.605957
vt 0.435547 0.598633
vt 0.421387 0.286133
vt 0.435547 0.286133
vt 0.421387 0.598877
vt 0.420166 0.618164
vt 0.413086 0.606934
vt 0.421387 0.625488
vt 0.413086 0.617188
vt 0.435791 0.625244
vt 0.249756 0.616943
vt 0.249756 0.607178
vt 0.435547 0.709473
vt 0.421387 0.709473
vt 0.411621 0.602295
vt 0.420166 0.605957
vt 0.413086 0.606934
vt 0.416504 0.597412
vt 0.421387 0.598877
vt 0.436768 0.605957
vt 0.445312 0.602295
vt 0.443848 0.606934
vt 0.440674 0.597412
vt 0.435547 0.598633
vt 0.435547 0.286133
vt 0.440674 0.286133
vt 0.691406 0.353027
vt 0.685547 0.350586
vt 0.686523 0.353516
vt 0.688477 0.347168
vt 0.691895 0.348145
vt 0.691895 0.132324
vt 0.688477 0.132324
vt 0.420166 0.618164
vt 0.411621 0.621826
vt 0.413086 0.617188
vt 0.416504 0.626709
vt 0.421387 0.625488
vt 0.421387 0.709473
vt 0.416504 0.709473
vt 0.418457 0.711426
vt 0.702637 0.361328
vt 0.708496 0.363770
vt 0.707520 0.360840
vt 0.705078 0.367188
vt 0.701660 0.366211
vt 0.701660 0.424316
vt 0.705078 0.424316
vt 0.703613 0.425781
vt 0.702637 0.353027
vt 0.705078 0.347168
vt 0.702148 0.348145
vt 0.708496 0.350586
vt 0.707520 0.353516
vt1 0.440674 0.709473
vt1 0.435547 0.714355
vt1 0.438477 0.711426
vt1 0.249756 0.621826
vt1 0.244873 0.616943
vt1 0.247803 0.619873
vt1 0.612305 0.616943
vt1 0.607422 0.621826
vt1 0.609375 0.619873
vt1 0.421387 0.714355
vt1 0.418457 0.711426
vt1 0.416504 0.709473
vt1 0.244873 0.607178
vt1 0.247803 0.604248
vt1 0.249756 0.602295
vt1 0.607422 0.602295
vt1 0.612305 0.607178
vt1 0.609375 0.604248
vt1 0.435547 0.714355
vt1 0.435547 0.714355
vt1 0.421387 0.714355
vt1 0.421387 0.714355
vt1 0.244873 0.616943
vt1 0.244873 0.607178
vt1 0.244873 0.607178
vt1 0.244873 0.616943
vt1 0.612305 0.616943
vt1 0.612305 0.607178
vt1 0.612305 0.616943
vt1 0.612305 0.607178
vt1 0.416504 0.597412
vt1 0.421387 0.286133
vt1 0.421387 0.598877
vt1 0.416504 0.286133
vt1 0.411621 0.602295
vt1 0.416504 0.597412
vt1 0.416504 0.597412
vt1 0.411621 0.602295
vt1 0.440674 0.597412
vt1 0.445312 0.602295
vt1 0.445312 0.602295
vt1 0.440674 0.597412
vt1 0.416504 0.626709
vt1 0.411621 0.621826
vt1 0.411621 0.621826
vt1 0.416504 0.626709
vt1 0.445312 0.621826
vt1 0.440674 0.626709
vt1 0.440674 0.626709
vt1 0.445312 0.621826
vt1 0.701660 0.132324
vt1 0.705078 0.347168
vt1 0.705078 0.132324
vt1 0.702148 0.348145
vt1 0.440674 0.286133
vt1 0.440674 0.597412
vt1 0.440674 0.286133
vt1 0.440674 0.597412
vt1 0.416504 0.286133
vt1 0.416504 0.597412
vt1 0.416504 0.597412
vt1 0.416504 0.286133
vt1 0.416504 0.626709
vt1 0.416504 0.709473
vt1 0.416504 0.626709
vt1 0.416504 0.709473
vt1 0.440674 0.626709
vt1 0.440674 0.709473
vt1 0.440674 0.626709
vt1 0.440674 0.709473
vt1 0.249756 0.602295
vt1 0.411621 0.602295
vt1 0.411621 0.602295
vt1 0.249756 0.602295
vt1 0.411621 0.621826
vt1 0.249756 0.621826
vt1 0.411621 0.621826
vt1 0.249756 0.621826
vt1 0.445312 0.602295
vt1 0.607422 0.602295
vt1 0.445312 0.602295
vt1 0.607422 0.602295
vt1 0.607422 0.621826
vt1 0.445312 0.621826
vt1 0.445312 0.621826
vt1 0.607422 0.621826
vt1 0.435547 0.714355
vt1 0.440674 0.709473
vt1 0.435547 0.714355
vt1 0.440674 0.709473
vt1 0.438477 0.711426
vt1 0.247803 0.619873
vt1 0.244873 0.616943
vt1 0.249756 0.616943
vt1 0.244873 0.607178
vt1 0.249756 0.607178
vt1 0.247803 0.604248
vt1 0.244873 0.616943
vt1 0.249756 0.621826
vt1 0.244873 0.616943
vt1 0.249756 0.621826
vt1 0.247803 0.619873
vt1 0.612305 0.616943
vt1 0.609375 0.619873
vt1 0.607422 0.616943
vt1 0.612305 0.607178
vt1 0.607422 0.607178
vt1 0.609375 0.604248
vt1 0.688477 0.424316
vt1 0.689941 0.425781
vt1 0.691895 0.424316
vt1 0.688477 0.367188
vt1 0.691895 0.366211
vt1 0.691406 0.361328
vt1 0.685547 0.363770
vt1 0.686523 0.360840
vt1 0.440674 0.709473
vt1 0.438477 0.711426
vt1 0.435547 0.709473
vt1 0.440674 0.626709
vt1 0.435791 0.625244
vt1 0.436768 0.618164
vt1 0.445312 0.621826
vt1 0.443848 0.617188
vt1 0.573730 0.350586
vt1 0.572266 0.351562
vt1 0.573730 0.354004
vt1 0.685547 0.350586
vt1 0.686523 0.353516
vt1 0.249756 0.621826
vt1 0.247803 0.619873
vt1 0.249756 0.616943
vt1 0.411621 0.621826
vt1 0.413086 0.617188
vt1 0.607422 0.602295
vt1 0.609375 0.604248
vt1 0.607422 0.607178
vt1 0.445312 0.602295
vt1 0.443848 0.606934
vt1 0.820312 0.363770
vt1 0.821777 0.362793
vt1 0.820312 0.360352
vt1 0.708496 0.363770
vt1 0.707520 0.360840
vt1 0.421387 0.709473
vt1 0.421387 0.714355
vt1 0.418457 0.711426
vt1 0.435547 0.714355
vt1 0.435547 0.709473
vt1 0.438477 0.711426
vt1 0.820312 0.354004
vt1 0.823730 0.354004
vt1 0.821777 0.351562
vt1 0.820312 0.360352
vt1 0.823730 0.360352
vt1 0.821777 0.362793
vt1 0.607422 0.621826
vt1 0.612305 0.616943
vt1 0.609375 0.619873
vt1 0.612305 0.616943
vt1 0.607422 0.621826
vt1 0.421387 0.714355
vt1 0.416504 0.709473
vt1 0.418457 0.711426
vt1 0.416504 0.709473
vt1 0.421387 0.714355
vt1 0.691895 0.427734
vt1 0.691895 0.424316
vt1 0.689941 0.425781
vt1 0.701660 0.424316
vt1 0.701660 0.427734
vt1 0.703613 0.425781
vt1 0.244873 0.607178
vt1 0.249756 0.602295
vt1 0.247803 0.604248
vt1 0.249756 0.602295
vt1 0.244873 0.607178
vt1 0.570312 0.354004
vt1 0.573730 0.354004
vt1 0.572266 0.351562
vt1 0.573730 0.360352
vt1 0.570312 0.360352
vt1 0.572266 0.362793
vt1 0.612305 0.607178
vt1 0.607422 0.602295
vt1 0.609375 0.604248
vt1 0.607422 0.602295
vt1 0.612305 0.607178
vt1 0.249756 0.607178
vt1 0.411621 0.602295
vt1 0.413086 0.606934
vt1 0.249756 0.602295
vt1 0.247803 0.604248
vt1 0.686523 0.360840
vt1 0.573730 0.360352
vt1 0.685547 0.363770
vt1 0.573730 0.363770
vt1 0.572266 0.362793
vt1 0.707520 0.353516
vt1 0.820312 0.354004
vt1 0.708496 0.350586
vt1 0.820312 0.350586
vt1 0.821777 0.351562
vt1 0.607422 0.616943
vt1 0.445312 0.621826
vt1 0.443848 0.617188
vt1 0.607422 0.621826
vt1 0.609375 0.619873
vt1 0.686523 0.360840
vt1 0.573730 0.354004
vt1 0.573730 0.360352
vt1 0.686523 0.353516
vt1 0.691406 0.361328
vt1 0.691406 0.353027
vt1 0.702637 0.353027
vt1 0.691895 0.348145
vt1 0.691895 0.132324
vt1 0.701660 0.132324
vt1 0.702148 0.348145
vt1 0.702637 0.361328
vt1 0.707520 0.353516
vt1 0.701660 0.366211
vt1 0.707520 0.360840
vt1 0.691895 0.366211
vt1 0.820312 0.360352
vt1 0.820312 0.354004
vt1 0.691895 0.424316
vt1 0.701660 0.424316
vt1 0.607422 0.616943
vt1 0.443848 0.617188
vt1 0.607422 0.607178
vt1 0.443848 0.606934
vt1 0.436768 0.618164
vt1 0.436768 0.605957
vt1 0.420166 0.605957
vt1 0.435547 0.598633
vt1 0.421387 0.286133
vt1 0.435547 0.286133
vt1 0.421387 0.598877
vt1 0.420166 0.618164
vt1 0.413086 0.606934
vt1 0.421387 0.625488
vt1 0.413086 0.617188
vt1 0.435791 0.625244
vt1 0.249756 0.616943
vt1 0.249756 0.607178
vt1 0.435547 0.709473
vt1 0.421387 0.709473
vt1 0.411621 0.602295
vt1 0.420166 0.605957
vt1 0.413086 0.606934
vt1 0.416504 0.597412
vt1 0.421387 0.598877
vt1 0.436768 0.605957
vt1 0.445312 0.602295
vt1 0.443848 0.606934
vt1 0.440674 0.597412
vt1 0.435547 0.598633
vt1 0.435547 0.286133
vt1 0.440674 0.286133
vt1 0.691406 0.353027
vt1 0.685547 0.350586
vt1 0.686523 0.353516
vt1 0.688477 0.347168
vt1 0.691895 0.348145
vt1 0.691895 0.132324
vt1 0.688477 0.132324
vt1 0.420166 0.618164
vt1 0.411621 0.621826
vt1 0.413086 0.617188
vt1 0.416504 0.626709
vt1 0.421387 0.625488
vt1 0.421387 0.709473
vt1 0.416504 0.709473
vt1 0.418457 0.711426
vt1 0.702637 0.361328
vt1 0.708496 0.363770
vt1 0.707520 0.360840
vt1 0.705078 0.367188
vt1 0.701660 0.366211
vt1 0.701660 0.424316
vt1 0.705078 0.424316
vt1 0.703613 0.425781
vt1 0.702637 0.353027
vt1 0.705078 0.347168
vt1 0.702148 0.348145
vt1 0.708496 0.350586
vt1 0.707520 0.353516
vn 0.708661 0.708661 -0.000000
vn 0.708661 0.708661 -0.000000
vn 0.708661 0.708661 -0.000000
vn -0.708661 0.708661 -0.000000
vn -0.708661 0.708661 -0.000000
vn -0.708661 0.708661 -0.000000
vn 0.708661 0.708661 -0.000000
vn 0.708661 0.708661 -0.000000
vn 0.708661 0.708661 -0.000000
vn -0.708661 0.708661 -0.000000
vn -0.708661 0.708661 -0.000000
vn -0.708661 0.708661 -0.000000
vn -0.708661 -0.708661 0.000000
vn -0.708661 -0.708661 0.000000
vn -0.708661 -0.708661 0.000000
vn 0.708661 -0.708661 0.000000
vn 0.708661 -0.708661 0.000000
vn 0.708661 -0.708661 0.000000
vn 0.000000 1.000000 -0.000000
vn 0.000000 1.000000 -0.000000
vn 0.000000 1.000000 -0.000000
vn 0.000000 1.000000 -0.000000
vn -1.000000 0.000000 0.000000
vn -1.000000 0.000000 0.000000
vn -1.000000 0.000000 0.000000
vn -1.000000 0.000000 0.000000
vn 1.000000 0.000000 0.000000
vn 1.000000 0.000000 0.000000
vn 1.000000 0.000000 0.000000
vn 1.000000 0.000000 0.000000
vn -0.708661 -0.000000 -0.708661
vn -0.708661 -0.000000 -0.708661
vn -0.708661 -0.000000 -0.708661
vn -0.708661 -0.000000 -0.708661
vn -0.700787 -0.708661 0.000000
vn -0.700787 -0.708661 0.000000
vn -0.700787 -0.708661 0.000000
vn -0.700787 -0.708661 0.000000
vn 0.700787 -0.708661 0.000000
vn 0.700787 -0.708661 0.000000
vn 0.700787 -0.708661 0.000000
vn 0.700787 -0.708661 0.000000
vn -0.700787 0.708661 -0.000000
vn -0.700787 0.708661 -0.000000
vn -0.700787 0.708661 -0.000000
vn -0.700787 0.708661 -0.000000
vn 0.700787 0.708661 -0.000000
vn 0.700787 0.708661 -0.000000
vn 0.700787 0.708661 -0.000000
vn 0.700787 0.708661 -0.000000
vn 0.708661 0.000000 0.708661
vn 0.708661 0.000000 0.708661
vn 0.708661 0.000000 0.708661
vn 0.708661 0.000000 0.708661
vn 1.000000 0.000000 0.000000
vn 1.000000 0.000000 0.000000
vn 1.000000 0.000000 0.000000
vn 1.000000 0.000000 0.000000
vn -1.000000 0.000000 0.000000
vn -1.000000 0.000000 0.000000
vn -1.000000 0.000000 0.000000
vn -1.000000 0.000000 0.000000
vn -1.000000 0.000000 0.000000
vn -1.000000 0.000000 0.000000
vn -1.000000 0.000000 0.000000
vn -1.000000 0.000000 0.000000
vn 1.000000 0.000000 0.000000
vn 1.000000 0.000000 0.000000
vn 1.000000 0.000000 0.000000
vn 1.000000 0.000000 0.000000
vn 0.000000 -1.000000 0.000000
vn 0.000000 -1.000000 0.000000
vn 0.000000 -1.000000 0.000000
vn 0.000000 -1.000000 0.000000
vn 0.000000 1.000000 -0.000000
vn 0.000000 1.000000 -0.000000
vn 0.000000 1.000000 -0.000000
vn 0.000000 1.000000 -0.000000
vn 0.000000 -1.000000 0.000000
vn 0.000000 -1.000000 0.000000
vn 0.000000 -1.000000 0.000000
vn 0.000000 -1.000000 0.000000
vn 0.000000 1.000000 -0.000000
vn 0.000000 1.000000 -0.000000
vn 0.000000 1.000000 -0.000000
vn 0.000000 1.000000 -0.000000
vn 0.708661 0.708661 -0.000000
vn 0.708661 0.708661 -0.000000
vn 0.708661 0.708661 -0.000000
vn 0.708661 0.708661 -0.000000
vn 0.708661 0.708661 -0.000000
vn -0.708661 -0.000000 -0.708661
vn -0.708661 -0.000000 -0.708661
vn -0.708661 -0.000000 -0.708661
vn -0.708661 -0.000000 -0.708661
vn -0.708661 -0.000000 -0.708661
vn -0.708661 -0.000000 -0.708661
vn -0.708661 0.708661 -0.000000
vn -0.708661 0.708661 -0.000000
vn -0.708661 0.708661 -0.000000
vn -0.708661 0.708661 -0.000000
vn -0.708661 0.708661 -0.000000
vn 0.708661 -0.000000 -0.708661
vn 0.708661 -0.000000 -0.708661
vn 0.708661 -0.000000 -0.708661
vn 0.708661 -0.000000 -0.708661
vn 0.708661 -0.000000 -0.708661
vn 0.708661 -0.000000 -0.708661
vn -0.708661 0.000000 0.708661
vn -0.677165 -0.299212 0.677165
vn -0.708661 0.000000 0.708661
vn -0.677165 0.055118 0.732283
vn -0.669291 0.055118 0.740157
vn -0.393701 0.393701 0.826771
vn -0.393701 0.393701 0.826771
vn -0.393701 0.393701 0.826771
vn 0.708661 -0.000000 -0.708661
vn 0.677165 -0.299213 -0.677165
vn 0.708661 -0.000000 -0.708661
vn 0.677165 0.055118 -0.732283
vn 0.669291 0.055118 -0.740157
vn 0.393701 0.393701 -0.826772
vn 0.393701 0.393701 -0.826772
vn 0.393701 0.393701 -0.826772
vn 0.000000 -0.708661 0.700787
vn 0.299213 -0.677165 0.677165
vn 0.000000 -0.708661 0.700787
vn 0.000000 -0.708661 0.700787
vn 0.000000 -0.708661 0.700787
vn 0.000000 0.708661 -0.700787
vn 0.299213 0.677165 -0.677165
vn 0.000000 0.708661 -0.700787
vn 0.000000 0.708661 -0.700787
vn 0.000000 0.708661 -0.700787
vn 0.000000 -0.708661 -0.700787
vn -0.299213 -0.677165 -0.677165
vn 0.000000 -0.708661 -0.700787
vn 0.000000 -0.708661 -0.700787
vn 0.000000 -0.708661 -0.700787
vn 0.000000 0.708661 0.700787
vn -0.299213 0.677165 0.677165
vn 0.000000 0.708661 0.700787
vn 0.000000 0.708661 0.700787
vn 0.000000 0.708661 0.700787
vn 0.000000 0.708661 -0.708661
vn 0.000000 0.708661 -0.708661
vn 0.000000 0.708661 -0.708661
vn 0.000000 0.708661 -0.708661
vn 0.000000 0.708661 -0.708661
vn 0.000000 0.708661 -0.708661
vn 0.708661 0.000000 0.708661
vn 0.708661 0.000000 0.708661
vn 0.708661 0.000000 0.708661
vn 0.708661 0.000000 0.708661
vn 0.708661 0.000000 0.708661
vn 0.708661 0.000000 0.708661
vn 0.708661 0.708661 -0.000000
vn 0.708661 0.708661 -0.000000
vn 0.708661 0.708661 -0.000000
vn 0.708661 0.708661 -0.000000
vn 0.708661 0.708661 -0.000000
vn -0.708661 0.708661 -0.000000
vn -0.708661 0.708661 -0.000000
vn -0.708661 0.708661 -0.000000
vn -0.708661 0.708661 -0.000000
vn -0.708661 0.708661 -0.000000
vn 0.000000 0.708661 0.708661
vn 0.000000 0.708661 0.708661
vn 0.000000 0.708661 0.708661
vn 0.000000 0.708661 0.708661
vn 0.000000 0.708661 0.708661
vn 0.000000 0.708661 0.708661
vn -0.708661 -0.708661 0.000000
vn -0.708661 -0.708661 0.000000
vn -0.708661 -0.708661 0.000000
vn -0.708661 -0.708661 0.000000
vn -0.708661 -0.708661 0.000000
vn -0.708661 0.000000 0.708661
vn -0.708661 0.000000 0.708661
vn -0.708661 0.000000 0.708661
vn -0.708661 0.000000 0.708661
vn -0.708661 0.000000 0.708661
vn -0.708661 0.000000 0.708661
vn 0.708661 -0.708661 0.000000
vn 0.708661 -0.708661 0.000000
vn 0.708661 -0.708661 0.000000
vn 0.708661 -0.708661 0.000000
vn 0.708661 -0.708661 0.000000
vn 0.000000 -0.708661 -0.700787
vn 0.000000 -0.708661 -0.700787
vn 0.000000 -0.708661 -0.700787
vn 0.000000 -0.708661 -0.700787
vn 0.299213 -0.677165 -0.677165
vn 0.000000 0.708661 0.700787
vn 0.000000 0.708661 0.700787
vn 0.000000 0.708661 0.700787
vn 0.000000 0.708661 0.700787
vn 0.299213 0.677165 0.677165
vn 0.000000 -0.708661 0.700787
vn 0.000000 -0.708661 0.700787
vn 0.000000 -0.708661 0.700787
vn 0.000000 -0.708661 0.700787
vn -0.299213 -0.677165 0.677165
vn 0.000000 0.708661 -0.700787
vn 0.000000 0.708661 -0.700787
vn 0.000000 0.708661 -0.700787
vn 0.000000 0.708661 -0.700787
vn -0.299213 0.677165 -0.677165
vn 0.000000 0.000000 1.000000
vn 0.000000 0.000000 1.000000
vn 0.000000 0.000000 1.000000
vn 0.000000 0.000000 1.000000
vn 0.000000 0.000000 1.000000
vn 0.000000 0.000000 1.000000
vn 0.000000 0.000000 1.000000
vn 0.000000 0.000000 1.000000
vn 0.000000 0.000000 1.000000
vn 0.000000 0.000000 1.000000
vn 0.000000 0.000000 1.000000
vn 0.000000 0.000000 1.000000
vn 0.000000 0.000000 1.000000
vn 0.000000 0.000000 1.000000
vn 0.000000 0.000000 1.000000
vn 0.000000 0.000000 1.000000
vn 0.000000 0.000000 1.000000
vn 0.000000 0.000000 1.000000
vn 0.000000 0.000000 1.000000
vn 0.000000 0.000000 1.000000
vn 0.000000 -0.000000 -1.000000
vn 0.000000 -0.000000 -1.000000
vn 0.000000 -0.000000 -1.000000
vn 0.000000 -0.000000 -1.000000
vn 0.000000 -0.000000 -1.000000
vn 0.000000 -0.000000 -1.000000
vn 0.000000 -0.000000 -1.000000
vn 0.000000 -0.000000 -1.000000
vn 0.000000 -0.000000 -1.000000
vn 0.000000 -0.000000 -1.000000
vn 0.000000 -0.000000 -1.000000
vn 0.000000 -0.000000 -1.000000
vn 0.000000 -0.000000 -1.000000
vn 0.000000 -0.000000 -1.000000
vn 0.000000 -0.000000 -1.000000
vn 0.000000 -0.000000 -1.000000
vn 0.000000 -0.000000 -1.000000
vn 0.000000 -0.000000 -1.000000
vn 0.000000 -0.000000 -1.000000
vn 0.000000 -0.000000 -1.000000
vn -0.393701 -0.393701 -0.826771
vn -0.393701 -0.393701 -0.826771
vn -0.393701 -0.393701 -0.826771
vn -0.393701 -0.393701 -0.826771
vn -0.393701 -0.393701 -0.826771
vn 0.393701 -0.393701 -0.826771
vn 0.393701 -0.393701 -0.826771
vn 0.393701 -0.393701 -0.826771
vn 0.692913 -0.015748 -0.716535
vn 0.692913 -0.015748 -0.724409
vn 0.700787 -0.000000 -0.708661
vn 0.700787 -0.000000 -0.708661
vn -0.393701 -0.393701 0.826772
vn -0.393701 -0.393701 0.826772
vn -0.393701 -0.393701 0.826772
vn -0.692913 -0.015748 0.716535
vn -0.692913 -0.015748 0.724409
vn -0.700787 0.000000 0.708661
vn -0.700787 0.000000 0.708661
vn -0.393701 0.393701 -0.826772
vn -0.393701 0.393701 -0.826772
vn -0.393701 0.393701 -0.826772
vn -0.669291 0.055118 -0.740157
vn -0.669291 0.055118 -0.740157
vn -0.700787 -0.000000 -0.708661
vn -0.700787 -0.000000 -0.708661
vn -0.677165 -0.299213 -0.677165
vn 0.393701 0.393701 0.826771
vn 0.393701 0.393701 0.826771
vn 0.393701 0.393701 0.826771
vn 0.669291 0.055118 0.740157
vn 0.669291 0.055118 0.740157
vn 0.700787 0.000000 0.708661
vn 0.700787 0.000000 0.708661
vn 0.677165 -0.299212 0.677165
vn 0.393701 -0.393701 0.826772
vn 0.393701 -0.393701 0.826772
vn 0.393701 -0.393701 0.826772
vn 0.393701 -0.393701 0.826772
vn 0.393701 -0.393701 0.826772
tan 0.708661 -0.708661 0.000000 1.000000
tan 0.708661 -0.708661 0.000000 1.000000
tan 0.708661 -0.708661 0.000000 1.000000
tan -0.708661 -0.708661 0.000000 1.000000
tan -0.708661 -0.708661 0.000000 1.000000
tan -0.708661 -0.708661 0.000000 1.000000
tan 0.708661 -0.708661 0.000000 1.000000
tan 0.708661 -0.708661 0.000000 1.000000
tan 0.708661 -0.708661 0.000000 1.000000
tan -0.708661 -0.708661 0.000000 1.000000
tan -0.708661 -0.708661 0.000000 1.000000
tan -0.708661 -0.708661 0.000000 1.000000
tan 0.708661 -0.708661 0.000000 1.000000
tan 0.708661 -0.708661 0.000000 1.000000
tan 0.708661 -0.708661 0.000000 1.000000
tan -0.708661 -0.708661 0.000000 1.000000
tan -0.708661 -0.708661 0.000000 1.000000
tan -0.708661 -0.708661 0.000000 1.000000
tan 0.000000 -0.000000 -1.000000 1.000000
tan 0.000000 -0.000000 -1.000000 1.000000
tan 0.000000 -0.000000 -1.000000 1.000000
tan 0.000000 -0.000000 -1.000000 1.000000
tan 0.000000 0.000000 0.000000 1.000000
tan 0.000000 0.000000 0.000000 1.000000
tan 0.000000 0.000000 0.000000 1.000000
tan 0.000000 0.000000 0.000000 1.000000
tan 0.000000 0.000000 0.000000 1.000000
tan 0.000000 0.000000 0.000000 1.000000
tan 0.000000 0.000000 0.000000 1.000000
tan 0.000000 0.000000 0.000000 1.000000
tan 0.000000 -1.004402 0.000000 1.000000
tan 0.000000 -1.004402 0.000000 1.000000
tan 0.000000 -1.004402 0.000000 1.000000
tan 0.000000 -1.004402 0.000000 1.000000
tan 0.708661 -0.700787 0.005580 1.000000
tan 0.708661 -0.700787 0.005580 1.000000
tan 0.708661 -0.700787 0.005580 1.000000
tan 0.000000 0.000000 0.708661 1.000000
tan -0.708661 -0.700787 -0.005580 1.000000
tan -0.708661 -0.700787 -0.005580 1.000000
tan 0.000000 0.000000 0.708661 1.000000
tan -0.708661 -0.700787 -0.005580 1.000000
tan -0.708661 -0.700787 0.005580 1.000000
tan -0.708661 -0.700787 0.005580 1.000000
tan 0.000000 -0.000000 -0.708661 1.000000
tan -0.708661 -0.700787 0.005580 1.000000
tan 0.708661 -0.700787 -0.005580 1.000000
tan 0.708661 -0.700787 -0.005580 1.000000
tan 0.708661 -0.700787 -0.005580 1.000000
tan 0.000000 -0.000000 -0.708661 1.000000
tan 0.000000 -1.004402 0.000000 1.000000
tan 0.000000 -1.004402 0.000000 1.000000
tan 0.000000 -1.004402 0.000000 1.000000
tan 0.000000 -1.004402 0.000000 1.000000
tan 0.000000 0.000000 0.000000 1.000000
tan 0.000000 0.000000 0.000000 1.000000
tan 0.000000 0.000000 0.000000 1.000000
tan 0.000000 0.000000 0.000000 1.000000
tan 0.000000 0.000000 0.000000 1.000000
tan 0.000000 0.000000 0.000000 1.000000
tan 0.000000 0.000000 0.000000 1.000000
tan 0.000000 0.000000 0.000000 1.000000
tan 0.000000 0.000000 0.000000 1.000000
tan 0.000000 0.000000 0.000000 1.000000
tan 0.000000 0.000000 0.000000 1.000000
tan 0.000000 0.000000 0.000000 1.000000
tan 0.000000 0.000000 0.000000 1.000000
tan 0.000000 0.000000 0.000000 1.000000
tan 0.000000 0.000000 0.000000 1.000000
tan 0.000000 0.000000 0.000000 1.000000
tan 0.000000 0.000000 1.000000 1.000000
tan 0.000000 0.000000 1.000000 1.000000
tan 0.000000 0.000000 1.000000 1.000000
tan 0.000000 0.000000 1.000000 1.000000
tan 0.000000 -0.000000 -1.000000 1.000000
tan 0.000000 -0.000000 -1.000000 1.000000
tan 0.000000 -0.000000 -1.000000 1.000000
tan 0.000000 -0.000000 -1.000000 1.000000
tan 0.000000 0.000000 1.000000 1.000000
tan 0.000000 0.000000 1.000000 1.000000
tan 0.000000 0.000000 1.000000 1.000000
tan 0.000000 0.000000 1.000000 1.000000
tan 0.000000 -0.000000 -1.000000 1.000000
tan 0.000000 -0.000000 -1.000000 1.000000
tan 0.000000 -0.000000 -1.000000 1.000000
tan 0.000000 -0.000000 -1.000000 1.000000
tan 0.000000 -0.000000 -0.708661 1.000000
tan 0.000000 -0.000000 -0.708661 1.000000
tan 0.708661 -0.708661 0.000000 1.000000
tan 0.708661 -0.708661 0.000000 1.000000
tan 0.708661 -0.708661 0.000000 1.000000
tan 0.000000 -1.004402 0.000000 1.000000
tan 0.000000 -1.004402 0.000000 1.000000
tan 0.000000 -1.004402 0.000000 1.000000
tan 0.000000 -1.004402 0.000000 1.000000
tan 0.000000 -1.004402 0.000000 1.000000
tan 0.000000 -1.004402 0.000000 1.000000
tan 0.000000 -0.000000 -0.708661 1.000000
tan 0.000000 -0.000000 -0.708661 1.000000
tan -0.708661 -0.708661 0.000000 1.000000
tan -0.708661 -0.708661 0.000000 1.000000
tan -0.708661 -0.708661 0.000000 1.000000
tan 0.000000 -1.004402 0.000000 1.000000
tan 0.000000 -1.004402 0.000000 1.000000
tan 0.000000 -1.004402 0.000000 1.000000
tan 0.000000 -1.004402 0.000000 1.000000
tan 0.000000 -1.004402 0.000000 1.000000
tan 0.000000 -1.004402 0.000000 1.000000
tan 0.000000 -1.004402 0.000000 1.000000
tan 0.212040 -0.959762 -0.212040 1.000000
tan 0.000000 -1.004402 0.000000 1.000000
tan -0.031558 -0.994792 0.045694 1.000000
tan -0.037324 -1.001054 0.040796 1.000000
tan -0.160890 -0.916052 0.359601 1.000000
tan -0.115630 -0.916362 0.381301 1.000000
tan -0.054250 -0.907062 0.406101 1.000000
tan 0.000000 -1.004402 0.000000 1.000000
tan -0.212040 -0.959762 0.212041 1.000000
tan 0.000000 -1.004402 0.000000 1.000000
tan 0.031558 -0.994792 -0.045694 1.000000
tan 0.037324 -1.001054 -0.040796 1.000000
tan 0.160890 -0.916052 -0.359601 1.000000
tan 0.115630 -0.916362 -0.381301 1.000000
tan 0.054250 -0.907062 -0.406101 1.000000
tan -0.077686 -0.700787 -0.708661 1.000000
tan -0.277265 -0.741025 -0.618513 1.000000
tan -0.077686 -0.700787 -0.708661 1.000000
tan 0.000000 -0.700787 -0.708661 1.000000
tan 0.000000 -0.700787 -0.708661 1.000000
tan 0.077686 -0.700787 -0.708661 1.000000
tan 0.277265 -0.741025 -0.618513 1.000000
tan 0.077686 -0.700787 -0.708661 1.000000
tan 0.000000 -0.700787 -0.708661 1.000000
tan 0.000000 -0.700787 -0.708661 1.000000
tan 0.077686 -0.700787 0.708661 1.000000
tan 0.277265 -0.741025 0.618513 1.000000
tan 0.077686 -0.700787 0.708661 1.000000
tan 0.000000 -0.700787 0.708661 1.000000
tan 0.000000 -0.700787 0.708661 1.000000
tan -0.077686 -0.700787 0.708661 1.000000
tan -0.277265 -0.741025 0.618513 1.000000
tan -0.077686 -0.700787 0.708661 1.000000
tan 0.000000 -0.700787 0.708661 1.000000
tan 0.000000 -0.700787 0.708661 1.000000
tan 0.000000 -0.708661 -0.708661 1.000000
tan 0.000000 -0.708661 -0.708661 1.000000
tan 0.000000 -0.708661 -0.708661 1.000000
tan 0.000000 -0.708661 -0.708661 1.000000
tan 0.000000 -0.708661 -0.708661 1.000000
tan 0.000000 -0.708661 -0.708661 1.000000
tan 0.000000 -1.004402 0.000000 1.000000
tan 0.000000 -1.004402 0.000000 1.000000
tan 0.000000 -1.004402 0.000000 1.000000
tan 0.000000 -1.004402 0.000000 1.000000
tan 0.000000 -1.004402 0.000000 1.000000
tan 0.000000 -1.004402 0.000000 1.000000
tan 0.708661 -0.708661 0.000000 1.000000
tan 0.708661 -0.708661 0.000000 1.000000
tan 0.708661 -0.708661 0.000000 1.000000
tan 0.000000 -0.000000 -0.708661 1.000000
tan 0.000000 -0.000000 -0.708661 1.000000
tan -0.708661 -0.708661 0.000000 1.000000
tan -0.708661 -0.708661 0.000000 1.000000
tan -0.708661 -0.708661 0.000000 1.000000
tan 0.000000 -0.000000 -0.708661 1.000000
tan 0.000000 -0.000000 -0.708661 1.000000
tan 0.000000 -0.708661 0.708661 1.000000
tan 0.000000 -0.708661 0.708661 1.000000
tan 0.000000 -0.708661 0.708661 1.000000
tan 0.000000 -0.708661 0.708661 1.000000
tan 0.000000 -0.708661 0.708661 1.000000
tan 0.000000 -0.708661 0.708661 1.000000
tan 0.708661 -0.708661 0.000000 1.000000
tan 0.708661 -0.708661 0.000000 1.000000
tan 0.708661 -0.708661 0.000000 1.000000
tan 0.000000 0.000000 0.708661 1.000000
tan 0.000000 0.000000 0.708661 1.000000
tan 0.000000 -1.004402 0.000000 1.000000
tan 0.000000 -1.004402 0.000000 1.000000
tan 0.000000 -1.004402 0.000000 1.000000
tan 0.000000 -1.004402 0.000000 1.000000
tan 0.000000 -1.004402 0.000000 1.000000
tan 0.000000 -1.004402 0.000000 1.000000
tan -0.708661 -0.708661 0.000000 1.000000
tan -0.708661 -0.708661 0.000000 1.000000
tan -0.708661 -0.708661 0.000000 1.000000
tan 0.000000 0.000000 0.708661 1.000000
tan 0.000000 0.000000 0.708661 1.000000
tan -0.077686 -0.700787 0.708661 1.000000
tan 0.000000 -0.700787 0.708661 1.000000
tan 0.000000 -0.700787 0.708661 1.000000
tan -0.077686 -0.700787 0.708661 1.000000
tan -0.277265 -0.741025 0.618513 1.000000
tan 0.000000 -0.700787 0.708661 1.000000
tan 0.077686 -0.700787 0.708661 1.000000
tan 0.000000 -0.700787 0.708661 1.000000
tan 0.077686 -0.700787 0.708661 1.000000
tan 0.277265 -0.741025 0.618513 1.000000
tan 0.000000 -0.700787 -0.708661 1.000000
tan 0.077686 -0.700787 -0.708661 1.000000
tan 0.000000 -0.700787 -0.708661 1.000000
tan 0.077686 -0.700787 -0.708661 1.000000
tan 0.277265 -0.741025 -0.618513 1.000000
tan -0.077686 -0.700787 -0.708661 1.000000
tan 0.000000 -0.700787 -0.708661 1.000000
tan 0.000000 -0.700787 -0.708661 1.000000
tan -0.077686 -0.700787 -0.708661 1.000000
tan -0.277265 -0.741025 -0.618513 1.000000
tan 0.000000 -1.000000 0.000000 1.000000
tan 0.000000 -1.000000 0.000000 1.000000
tan 0.000000 -1.000000 0.000000 1.000000
tan 0.000000 -1.000000 0.000000 1.000000
tan 0.000000 -1.000000 0.000000 1.000000
tan 0.000000 -1.000000 0.000000 1.000000
tan 0.000000 -1.000000 0.000000 1.000000
tan 0.000000 -1.000000 0.000000 1.000000
tan 0.000000 -1.000000 0.000000 1.000000
tan 0.000000 -1.000000 0.000000 1.000000
tan 0.000000 -1.000000 0.000000 1.000000
tan 0.000000 -1.000000 0.000000 1.000000
tan 0.000000 -1.000000 0.000000 1.000000
tan 0.000000 -1.000000 0.000000 1.000000
tan 0.000000 -1.000000 0.000000 1.000000
tan 0.000000 -1.000000 0.000000 1.000000
tan 0.000000 -1.000000 0.000000 1.000000
tan 0.000000 -1.000000 0.000000 1.000000
tan 0.000000 -1.000000 0.000000 1.000000
tan 0.000000 -1.000000 0.000000 1.000000
tan 0.000000 -1.000000 0.000000 1.000000
tan 0.000000 -1.000000 0.000000 1.000000
tan 0.000000 -1.000000 0.000000 1.000000
tan 0.000000 -1.000000 0.000000 1.000000
tan 0.000000 -1.000000 0.000000 1.000000
tan 0.000000 -1.000000 0.000000 1.000000
tan 0.000000 -1.000000 0.000000 1.000000
tan 0.000000 -1.000000 0.000000 1.000000
tan 0.000000 -1.000000 0.000000 1.000000
tan 0.000000 -1.000000 0.000000 1.000000
tan 0.000000 -1.000000 0.000000 1.000000
tan 0.000000 -1.000000 0.000000 1.000000
tan 0.000000 -1.000000 0.000000 1.000000
tan 0.000000 -1.000000 0.000000 1.000000
tan 0.000000 -1.000000 0.000000 1.000000
tan 0.000000 -1.000000 0.000000 1.000000
tan 0.000000 -1.000000 0.000000 1.000000
tan 0.000000 -1.000000 0.000000 1.000000
tan 0.000000 -1.000000 0.000000 1.000000
tan 0.000000 -1.000000 0.000000 1.000000
tan 0.115630 -0.916362 0.381301 1.000000
tan 0.160890 -0.916052 0.359601 1.000000
tan 0.054250 -0.907062 0.406101 1.000000
tan 0.193130 -0.915742 0.344101 1.000000
tan 0.283651 -0.908612 0.297601 1.000000
tan -0.160890 -0.916052 0.359601 1.000000
tan -0.115630 -0.916362 0.381301 1.000000
tan -0.054250 -0.907062 0.406101 1.000000
tan -0.010912 -0.993552 0.011284 1.000000
tan -0.010912 -1.004898 0.011408 1.000000
tan 0.000000 -0.993304 0.000000 1.000000
tan 0.000000 -0.993304 0.000000 1.000000
tan 0.160890 -0.916052 -0.359601 1.000000
tan 0.115630 -0.916362 -0.381301 1.000000
tan 0.054250 -0.907062 -0.406101 1.000000
tan 0.010912 -0.993552 -0.011284 1.000000
tan 0.010912 -1.004898 -0.011408 1.000000
tan 0.000000 -0.993304 0.000000 1.000000
tan 0.000000 -0.993304 0.000000 1.000000
tan -0.160890 -0.916052 -0.359601 1.000000
tan -0.115630 -0.916362 -0.381301 1.000000
tan -0.054250 -0.907062 -0.406101 1.000000
tan -0.031062 -0.995784 -0.046066 1.000000
tan -0.036890 -0.995784 -0.040796 1.000000
tan 0.000000 -0.993304 0.000000 1.000000
tan 0.000000 -0.993304 0.000000 1.000000
tan 0.212040 -0.959762 0.212041 1.000000
tan 0.160890 -0.916052 0.359601 1.000000
tan 0.115630 -0.916362 0.381301 1.000000
tan 0.054250 -0.907062 0.406101 1.000000
tan 0.031062 -0.995784 0.046066 1.000000
tan 0.036890 -0.995784 0.040796 1.000000
tan 0.000000 -0.993304 0.000000 1.000000
tan 0.000000 -0.993304 0.000000 1.000000
tan -0.212040 -0.959762 -0.212040 1.000000
tan -0.160890 -0.916052 -0.359601 1.000000
tan -0.193130 -0.915742 -0.344101 1.000000
tan -0.283651 -0.908612 -0.297600 1.000000
tan -0.115630 -0.916362 -0.381301 1.000000
tan -0.054250 -0.907062 -0.406101 1.000000
f 3/3/3 2/2/2 1/1/1
f 6/6/6 5/5/5 4/4/4
f 9/9/9 8/8/8 7/7/7
f 12/12/12 11/11/11 10/10/10
f 15/15/15 14/14/14 13/13/13
f 18/18/18 17/17/17 16/16/16
f 21/21/21 20/20/20 19/19/19
f 22/22/22 20/20/20 21/21/21
f 25/25/25 24/24/24 23/23/23
f 26/26/26 23/23/23 24/24/24
f 29/29/29 28/28/28 27/27/27
f 29/29/29 30/30/30 28/28/28
f 33/33/33 32/32/32 31/31/31
f 34/34/34 31/31/31 32/32/32
f 37/37/37 36/36/36 35/35/35
f 38/38/38 35/35/35 36/36/36
f 41/41/41 40/40/40 39/39/39
f 42/42/42 39/39/39 40/40/40
f 45/45/45 44/44/44 43/43/43
f 46/46/46 43/43/43 44/44/44
f 49/49/49 48/48/48 47/47/47
f 50/50/50 47/47/47 48/48/48
f 53/53/53 52/52/52 51/51/51
f 54/54/54 51/51/51 52/52/52
f 57/57/57 56/56/56 55/55/55
f 58/58/58 55/55/55 56/56/56
f 61/61/61 60/60/60 59/59/59
f 62/62/62 61/61/61 59/59/59
f 65/65/65 64/64/64 63/63/63
f 66/66/66 63/63/63 64/64/64
f 69/69/69 68/68/68 67/67/67
f 70/70/70 67/67/67 68/68/68
f 73/73/73 72/72/72 71/71/71
f 74/74/74 71/71/71 72/72/72
f 77/77/77 76/76/76 75/75/75
f 76/76/76 77/77/77 78/78/78
f 81/81/81 80/80/80 79/79/79
f 80/80/80 81/81/81 82/82/82
f 85/85/85 84/84/84 83/83/83
f 86/86/86 83/83/83 84/84/84
f 89/89/89 88/88/88 87/87/87
f 90/90/90 88/88/88 89/89/89
f 90/90/90 89/89/89 91/91/91
f 94/94/94 93/93/93 92/92/92
f 93/93/93 94/94/94 95/95/95
f 96/96/96 95/95/95 94/94/94
f 97/97/97 95/95/95 96/96/96
f 100/100/100 99/99/99 98/98/98
f 101/101/101 99/99/99 100/100/100
f 101/101/101 100/100/100 102/102/102
f 105/105/105 104/104/104 103/103/103
f 103/103/103 106/106/106 105/105/105
f 105/105/105 106/106/106 107/107/107
f 108/108/108 107/107/107 106/106/106
f 111/111/111 110/110/110 109/109/109
f 109/109/109 112/112/112 111/111/111
f 113/113/113 111/111/111 112/112/112
f 113/113/113 112/112/112 114/114/114
f 115/115/115 114/114/114 112/112/112
f 116/116/116 114/114/114 115/115/115
f 119/119/119 118/118/118 117/117/117
f 117/117/117 120/120/120 119/119/119
f 121/121/121 119/119/119 120/120/120
f 121/121/121 120/120/120 122/122/122
f 123/123/123 122/122/122 120/120/120
f 124/124/124 122/122/122 123/123/123
f 127/127/127 126/126/126 125/125/125
f 125/125/125 128/128/128 127/127/127
f 129/129/129 127/127/127 128/128/128
f 132/132/132 131/131/131 130/130/130
f 130/130/130 133/133/133 132/132/132
f 134/134/134 132/132/132 133/133/133
f 137/137/137 136/136/136 135/135/135
f 135/135/135 138/138/138 137/137/137
f 139/139/139 137/137/137 138/138/138
f 142/142/142 141/141/141 140/140/140
f 140/140/140 143/143/143 142/142/142
f 144/144/144 142/142/142 143/143/143
f 147/147/147 146/146/146 145/145/145
f 148/148/148 145/145/145 146/146/146
f 148/148/148 149/149/149 145/145/145
f 149/149/149 148/148/148 150/150/150
f 153/153/153 152/152/152 151/151/151
f 151/151/151 152/152/152 154/154/154
f 155/155/155 154/154/154 152/152/152
f 156/156/156 154/154/154 155/155/155
f 159/159/159 158/158/158 157/157/157
f 160/160/160 157/157/157 158/158/158
f 160/160/160 161/161/161 157/157/157
f 164/164/164 163/163/163 162/162/162
f 165/165/165 162/162/162 163/163/163
f 166/166/166 162/162/162 165/165/165
f 169/169/169 168/168/168 167/167/167
f 170/170/170 167/167/167 168/168/168
f 170/170/170 171/171/171 167/167/167
f 172/172/172 171/171/171 170/170/170
f 175/175/175 174/174/174 173/173/173
f 176/176/176 173/173/173 174/174/174
f 177/177/177 173/173/173 176/176/176
f 180/180/180 179/179/179 178/178/178
f 181/181/181 178/178/178 179/179/179
f 181/181/181 182/182/182 178/178/178
f 183/183/183 182/182/182 181/181/181
f 186/186/186 185/185/185 184/184/184
f 187/187/187 184/184/184 185/185/185
f 187/187/187 188/188/188 184/184/184
f 191/191/191 190/190/190 189/189/189
f 192/192/192 189/189/189 190/190/190
f 192/192/192 193/193/193 189/189/189
f 196/196/196 195/195/195 194/194/194
f 195/195/195 196/196/196 197/197/197
f 197/197/197 198/198/198 195/195/195
f 201/201/201 200/200/200 199/199/199
f 200/200/200 201/201/201 202/202/202
f 202/202/202 203/203/203 200/200/200
f 206/206/206 205/205/205 204/204/204
f 207/207/207 204/204/204 205/205/205
f 207/207/207 208/208/208 204/204/204
f 211/211/211 210/210/210 209/209/209
f 212/212/212 209/209/209 210/210/210
f 209/209/209 212/212/212 213/213/213
f 214/214/214 213/213/213 212/212/212
f 213/213/213 214/214/214 215/215/215
f 216/216/216 215/215/215 214/214/214
f 218/218/218 216/216/216 217/217/217
f 219/219/219 216/216/216 218/218/218
f 215/215/215 216/216/216 219/219/219
f 220/220/220 213/213/213 215/215/215
f 220/220/220 215/215/215 221/221/221
f 222/222/222 213/213/213 220/220/220
f 223/223/223 220/220/220 221/221/221
f 213/213/213 222/222/222 224/224/224
f 221/221/221 225/225/225 223/223/223
f 225/225/225 221/221/221 226/226/226
f 224/224/224 222/222/222 227/227/227
f 228/228/228 227/227/227 222/222/222
f 231/231/231 230/230/230 229/229/229
f 230/230/230 231/231/231 232/232/232
f 230/230/230 232/232/232 233/233/233
f 234/234/234 233/233/233 232/232/232
f 234/234/234 235/235/235 233/233/233
f 236/236/236 235/235/235 234/234/234
f 238/238/238 237/237/237 236/236/236
f 239/239/239 236/236/236 237/237/237
f 235/235/235 236/236/236 239/239/239
f 235/235/235 240/240/240 233/233/233
f 235/235/235 241/241/241 240/240/240
f 242/242/242 233/233/233 240/240/240
f 241/241/241 243/243/243 240/240/240
f 233/233/233 242/242/242 244/244/244
f 243/243/243 241/241/241 245/245/245
f 246/246/246 245/245/245 241/241/241
f 244/244/244 242/242/242 247/247/247
f 247/247/247 242/242/242 248/248/248
f 251/251/251 250/250/250 249/249/249
f 249/249/249 250/250/250 252/252/252
f 253/253/253 252/252/252 250/250/250
f 256/256/256 255/255/255 254/254/254
f 257/257/257 254/254/254 255/255/255
f 258/258/258 254/254/254 257/257/257
f 257/257/257 259/259/259 258/258/258
f 260/260/260 259/259/259 257/257/257
f 263/263/263 262/262/262 261/261/261
f 264/264/264 261/261/261 262/262/262
f 265/265/265 261/261/261 264/264/264
f 265/265/265 264/264/264 266/266/266
f 266/266/266 264/264/264 267/267/267
f 270/270/270 269/269/269 268/268/268
f 271/271/271 268/268/268 269/269/269
f 272/272/272 268/268/268 271/271/271
f 272/272/272 271/271/271 273/273/273
f 273/273/273 271/271/271 274/274/274
f 274/274/274 275/275/275 273/273/273
f 278/278/278 277/277/277 276/276/276
f 279/279/279 276/276/276 277/277/277
f 280/280/280 276/276/276 279/279/279
f 279/279/279 281/281/281 280/280/280
f 282/282/282 281/281/281 279/279/279
f 282/282/282 283/283/283 281/281/281
f 286/286/286 285/285/285 284/284/284
f 287/287/287 284/284/284 285/285/285
f 288/288/288 284/284/284 287/287/287
