mtllib SM_Curtain_Rod_02@000002909DC4F200.mtl
g SM_Curtain_Rod_02@000002909DC4F200
#Vertices 328
#Indices 720
#Section 0 Offset 0 NumIndices 720 MaterialIndex 0 MI_MetalTile_A_03
v -2.544940 6.994435 0.693819 1.000000 1.000000 1.000000 1.000000
v -2.500000 6.985310 0.687691 1.000000 1.000000 1.000000 1.000000
v -2.532463 6.985310 0.706343 1.000000 1.000000 1.000000 1.000000
v -2.500000 6.994435 0.669781 1.000000 1.000000 1.000000 1.000000
v -2.558770 6.997580 0.679937 1.000000 1.000000 1.000000 1.000000
v -2.500000 6.994435 0.669781 1.000000 1.000000 1.000000 1.000000
v -2.544940 6.994435 0.693819 1.000000 1.000000 1.000000 1.000000
v -2.500000 6.997580 0.649927 1.000000 1.000000 1.000000 1.000000
v -2.572600 6.994435 0.666054 1.000000 1.000000 1.000000 1.000000
v -2.500000 6.997580 0.649927 1.000000 1.000000 1.000000 1.000000
v -2.558770 6.997580 0.679937 1.000000 1.000000 1.000000 1.000000
v -2.500000 6.994435 0.630074 1.000000 1.000000 1.000000 1.000000
v -2.585077 6.985310 0.653531 1.000000 1.000000 1.000000 1.000000
v -2.500000 6.985310 0.612164 1.000000 1.000000 1.000000 1.000000
v -2.500000 6.994435 0.630074 1.000000 1.000000 1.000000 1.000000
v -2.572600 6.994435 0.666054 1.000000 1.000000 1.000000 1.000000
v -2.594979 6.971096 0.643592 1.000000 1.000000 1.000000 1.000000
v -2.500000 6.971096 0.597951 1.000000 1.000000 1.000000 1.000000
v -2.500000 6.985310 0.612164 1.000000 1.000000 1.000000 1.000000
v -2.585077 6.985310 0.653531 1.000000 1.000000 1.000000 1.000000
v -2.594979 6.971096 0.643592 1.000000 1.000000 1.000000 1.000000
v -2.500000 6.953186 0.588825 1.000000 1.000000 1.000000 1.000000
v -2.500000 6.971096 0.597951 1.000000 1.000000 1.000000 1.000000
v -2.601336 6.953186 0.637211 1.000000 1.000000 1.000000 1.000000
v -2.601336 6.953186 0.637211 1.000000 1.000000 1.000000 1.000000
v -2.500000 6.933332 0.585681 1.000000 1.000000 1.000000 1.000000
v -2.500000 6.953186 0.588825 1.000000 1.000000 1.000000 1.000000
v -2.603527 6.933332 0.635012 1.000000 1.000000 1.000000 1.000000
v -2.601336 6.913479 0.637211 1.000000 1.000000 1.000000 1.000000
v -2.500000 6.933332 0.585681 1.000000 1.000000 1.000000 1.000000
v -2.603527 6.933332 0.635012 1.000000 1.000000 1.000000 1.000000
v -2.500000 6.913479 0.588825 1.000000 1.000000 1.000000 1.000000
v -2.500000 6.913479 0.588825 1.000000 1.000000 1.000000 1.000000
v -2.601336 6.913479 0.637211 1.000000 1.000000 1.000000 1.000000
v -2.594979 6.895570 0.643592 1.000000 1.000000 1.000000 1.000000
v -2.500000 6.895570 0.597951 1.000000 1.000000 1.000000 1.000000
v -2.594979 6.895570 0.643592 1.000000 1.000000 1.000000 1.000000
v -2.500000 6.881356 0.612164 1.000000 1.000000 1.000000 1.000000
v -2.500000 6.895570 0.597951 1.000000 1.000000 1.000000 1.000000
v -2.585077 6.881356 0.653531 1.000000 1.000000 1.000000 1.000000
v -2.585077 6.881356 0.653531 1.000000 1.000000 1.000000 1.000000
v -2.500000 6.872231 0.630074 1.000000 1.000000 1.000000 1.000000
v -2.500000 6.881356 0.612164 1.000000 1.000000 1.000000 1.000000
v -2.572600 6.872231 0.666054 1.000000 1.000000 1.000000 1.000000
v -2.572600 6.872231 0.666054 1.000000 1.000000 1.000000 1.000000
v -2.500000 6.869086 0.649927 1.000000 1.000000 1.000000 1.000000
v -2.500000 6.872231 0.630074 1.000000 1.000000 1.000000 1.000000
v -2.558770 6.869086 0.679937 1.000000 1.000000 1.000000 1.000000
v -2.558770 6.869086 0.679937 1.000000 1.000000 1.000000 1.000000
v -2.500000 6.872231 0.669781 1.000000 1.000000 1.000000 1.000000
v -2.500000 6.869086 0.649927 1.000000 1.000000 1.000000 1.000000
v -2.544940 6.872231 0.693819 1.000000 1.000000 1.000000 1.000000
v -2.544940 6.872231 0.693819 1.000000 1.000000 1.000000 1.000000
v -2.500000 6.881356 0.687691 1.000000 1.000000 1.000000 1.000000
v -2.500000 6.872231 0.669781 1.000000 1.000000 1.000000 1.000000
v -2.532463 6.881356 0.706343 1.000000 1.000000 1.000000 1.000000
v -2.532463 6.881356 0.706343 1.000000 1.000000 1.000000 1.000000
v -2.500000 6.895570 0.701904 1.000000 1.000000 1.000000 1.000000
v -2.500000 6.881356 0.687691 1.000000 1.000000 1.000000 1.000000
v -2.522562 6.895570 0.716282 1.000000 1.000000 1.000000 1.000000
v -2.522562 6.895570 0.716282 1.000000 1.000000 1.000000 1.000000
v -2.516204 6.913479 0.722663 1.000000 1.000000 1.000000 1.000000
v -2.500000 6.895570 0.701904 1.000000 1.000000 1.000000 1.000000
v -2.500000 6.913479 0.711030 1.000000 1.000000 1.000000 1.000000
v -2.514014 6.933332 0.724861 1.000000 1.000000 1.000000 1.000000
v -2.500000 6.913479 0.711030 1.000000 1.000000 1.000000 1.000000
v -2.516204 6.913479 0.722663 1.000000 1.000000 1.000000 1.000000
v -2.500000 6.933332 0.714174 1.000000 1.000000 1.000000 1.000000
v -2.514014 6.933332 0.724861 1.000000 1.000000 1.000000 1.000000
v -2.500000 6.953186 0.711030 1.000000 1.000000 1.000000 1.000000
v -2.500000 6.933332 0.714174 1.000000 1.000000 1.000000 1.000000
v -2.516204 6.953186 0.722663 1.000000 1.000000 1.000000 1.000000
v -2.516204 6.953186 0.722663 1.000000 1.000000 1.000000 1.000000
v -2.500000 6.971096 0.701904 1.000000 1.000000 1.000000 1.000000
v -2.500000 6.953186 0.711030 1.000000 1.000000 1.000000 1.000000
v -2.522562 6.971096 0.716282 1.000000 1.000000 1.000000 1.000000
v -2.532463 6.985310 0.706343 1.000000 1.000000 1.000000 1.000000
v -2.500000 6.971096 0.701904 1.000000 1.000000 1.000000 1.000000
v -2.522562 6.971096 0.716282 1.000000 1.000000 1.000000 1.000000
v -2.500000 6.985310 0.687691 1.000000 1.000000 1.000000 1.000000
v 2.544940 6.994435 0.693819 1.000000 1.000000 1.000000 1.000000
v 2.500000 6.985310 0.687691 1.000000 1.000000 1.000000 1.000000
v 2.500000 6.994435 0.669781 1.000000 1.000000 1.000000 1.000000
v 2.532463 6.985310 0.706343 1.000000 1.000000 1.000000 1.000000
v 2.558770 6.997580 0.679937 1.000000 1.000000 1.000000 1.000000
v 2.500000 6.994435 0.669781 1.000000 1.000000 1.000000 1.000000
v 2.500000 6.997580 0.649927 1.000000 1.000000 1.000000 1.000000
v 2.544940 6.994435 0.693819 1.000000 1.000000 1.000000 1.000000
v 2.572600 6.994435 0.666054 1.000000 1.000000 1.000000 1.000000
v 2.500000 6.997580 0.649927 1.000000 1.000000 1.000000 1.000000
v 2.500000 6.994435 0.630074 1.000000 1.000000 1.000000 1.000000
v 2.558770 6.997580 0.679937 1.000000 1.000000 1.000000 1.000000
v 2.585077 6.985310 0.653531 1.000000 1.000000 1.000000 1.000000
v 2.500000 6.994435 0.630074 1.000000 1.000000 1.000000 1.000000
v 2.500000 6.985310 0.612164 1.000000 1.000000 1.000000 1.000000
v 2.572600 6.994435 0.666054 1.000000 1.000000 1.000000 1.000000
v 2.594979 6.971096 0.643592 1.000000 1.000000 1.000000 1.000000
v 2.500000 6.985310 0.612164 1.000000 1.000000 1.000000 1.000000
v 2.500000 6.971096 0.597951 1.000000 1.000000 1.000000 1.000000
v 2.585077 6.985310 0.653531 1.000000 1.000000 1.000000 1.000000
v 2.500000 6.953186 0.588825 1.000000 1.000000 1.000000 1.000000
v 2.594979 6.971096 0.643592 1.000000 1.000000 1.000000 1.000000
v 2.500000 6.971096 0.597951 1.000000 1.000000 1.000000 1.000000
v 2.601336 6.953186 0.637211 1.000000 1.000000 1.000000 1.000000
v 2.500000 6.933332 0.585681 1.000000 1.000000 1.000000 1.000000
v 2.601336 6.953186 0.637211 1.000000 1.000000 1.000000 1.000000
v 2.500000 6.953186 0.588825 1.000000 1.000000 1.000000 1.000000
v 2.603527 6.933332 0.635012 1.000000 1.000000 1.000000 1.000000
v 2.500000 6.913479 0.588825 1.000000 1.000000 1.000000 1.000000
v 2.601336 6.913479 0.637211 1.000000 1.000000 1.000000 1.000000
v 2.500000 6.933332 0.585681 1.000000 1.000000 1.000000 1.000000
v 2.603527 6.933332 0.635012 1.000000 1.000000 1.000000 1.000000
v 2.500000 6.895570 0.597951 1.000000 1.000000 1.000000 1.000000
v 2.594979 6.895570 0.643592 1.000000 1.000000 1.000000 1.000000
v 2.500000 6.913479 0.588825 1.000000 1.000000 1.000000 1.000000
v 2.601336 6.913479 0.637211 1.000000 1.000000 1.000000 1.000000
v 2.594979 6.895570 0.643592 1.000000 1.000000 1.000000 1.000000
v 2.500000 6.881356 0.612164 1.000000 1.000000 1.000000 1.000000
v 2.585077 6.881356 0.653531 1.000000 1.000000 1.000000 1.000000
v 2.500000 6.895570 0.597951 1.000000 1.000000 1.000000 1.000000
v 2.585077 6.881356 0.653531 1.000000 1.000000 1.000000 1.000000
v 2.500000 6.872231 0.630074 1.000000 1.000000 1.000000 1.000000
v 2.572600 6.872231 0.666054 1.000000 1.000000 1.000000 1.000000
v 2.500000 6.881356 0.612164 1.000000 1.000000 1.000000 1.000000
v 2.572600 6.872231 0.666054 1.000000 1.000000 1.000000 1.000000
v 2.500000 6.869086 0.649927 1.000000 1.000000 1.000000 1.000000
v 2.558770 6.869086 0.679937 1.000000 1.000000 1.000000 1.000000
v 2.500000 6.872231 0.630074 1.000000 1.000000 1.000000 1.000000
v 2.558770 6.869086 0.679937 1.000000 1.000000 1.000000 1.000000
v 2.500000 6.872231 0.669781 1.000000 1.000000 1.000000 1.000000
v 2.544940 6.872231 0.693819 1.000000 1.000000 1.000000 1.000000
v 2.500000 6.869086 0.649927 1.000000 1.000000 1.000000 1.000000
v 2.544940 6.872231 0.693819 1.000000 1.000000 1.000000 1.000000
v 2.500000 6.881356 0.687691 1.000000 1.000000 1.000000 1.000000
v 2.532463 6.881356 0.706343 1.000000 1.000000 1.000000 1.000000
v 2.500000 6.872231 0.669781 1.000000 1.000000 1.000000 1.000000
v 2.532463 6.881356 0.706343 1.000000 1.000000 1.000000 1.000000
v 2.500000 6.895570 0.701904 1.000000 1.000000 1.000000 1.000000
v 2.522562 6.895570 0.716282 1.000000 1.000000 1.000000 1.000000
v 2.500000 6.881356 0.687691 1.000000 1.000000 1.000000 1.000000
v 2.522562 6.895570 0.716282 1.000000 1.000000 1.000000 1.000000
v 2.500000 6.895570 0.701904 1.000000 1.000000 1.000000 1.000000
v 2.516204 6.913479 0.722663 1.000000 1.000000 1.000000 1.000000
v 2.500000 6.913479 0.711030 1.000000 1.000000 1.000000 1.000000
v 2.516204 6.913479 0.722663 1.000000 1.000000 1.000000 1.000000
v 2.500000 6.913479 0.711030 1.000000 1.000000 1.000000 1.000000
v 2.514014 6.933332 0.724861 1.000000 1.000000 1.000000 1.000000
v 2.500000 6.933332 0.714174 1.000000 1.000000 1.000000 1.000000
v 2.514014 6.933332 0.724861 1.000000 1.000000 1.000000 1.000000
v 2.500000 6.953186 0.711030 1.000000 1.000000 1.000000 1.000000
v 2.516204 6.953186 0.722663 1.000000 1.000000 1.000000 1.000000
v 2.500000 6.933332 0.714174 1.000000 1.000000 1.000000 1.000000
v 2.500000 6.971096 0.701904 1.000000 1.000000 1.000000 1.000000
v 2.516204 6.953186 0.722663 1.000000 1.000000 1.000000 1.000000
v 2.500000 6.953186 0.711030 1.000000 1.000000 1.000000 1.000000
v 2.522562 6.971096 0.716282 1.000000 1.000000 1.000000 1.000000
v 2.532463 6.985310 0.706343 1.000000 1.000000 1.000000 1.000000
v 2.500000 6.971096 0.701904 1.000000 1.000000 1.000000 1.000000
v 2.500000 6.985310 0.687691 1.000000 1.000000 1.000000 1.000000
v 2.522562 6.971096 0.716282 1.000000 1.000000 1.000000 1.000000
v -4.406643 6.994435 2.562521 1.000000 1.000000 1.000000 1.000000
v -2.544940 6.994435 0.693819 1.000000 1.000000 1.000000 1.000000
v -2.532463 6.985310 0.706343 1.000000 1.000000 1.000000 1.000000
v -4.394166 6.985310 2.575045 1.000000 1.000000 1.000000 1.000000
v -2.522562 6.971096 0.716282 1.000000 1.000000 1.000000 1.000000
v -4.384264 6.971096 2.584984 1.000000 1.000000 1.000000 1.000000
v -2.516204 6.953186 0.722663 1.000000 1.000000 1.000000 1.000000
v -4.377908 6.953187 2.591365 1.000000 1.000000 1.000000 1.000000
v -2.514014 6.933332 0.724861 1.000000 1.000000 1.000000 1.000000
v -4.375717 6.933333 2.593564 1.000000 1.000000 1.000000 1.000000
v -4.377908 6.913480 2.591365 1.000000 1.000000 1.000000 1.000000
v -2.516204 6.913479 0.722663 1.000000 1.000000 1.000000 1.000000
v -4.384264 6.895570 2.584984 1.000000 1.000000 1.000000 1.000000
v -2.522562 6.895570 0.716282 1.000000 1.000000 1.000000 1.000000
v -4.394166 6.881356 2.575045 1.000000 1.000000 1.000000 1.000000
v -2.532463 6.881356 0.706343 1.000000 1.000000 1.000000 1.000000
v -4.406643 6.872231 2.562521 1.000000 1.000000 1.000000 1.000000
v -2.544940 6.872231 0.693819 1.000000 1.000000 1.000000 1.000000
v -4.420473 6.869086 2.548639 1.000000 1.000000 1.000000 1.000000
v -2.558770 6.869086 0.679937 1.000000 1.000000 1.000000 1.000000
v -4.434304 6.872231 2.534757 1.000000 1.000000 1.000000 1.000000
v -2.572600 6.872231 0.666054 1.000000 1.000000 1.000000 1.000000
v -4.446780 6.881356 2.522233 1.000000 1.000000 1.000000 1.000000
v -2.585077 6.881356 0.653531 1.000000 1.000000 1.000000 1.000000
v -4.456682 6.895570 2.512294 1.000000 1.000000 1.000000 1.000000
v -2.594979 6.895570 0.643592 1.000000 1.000000 1.000000 1.000000
v -4.463039 6.913480 2.505913 1.000000 1.000000 1.000000 1.000000
v -2.601336 6.913479 0.637211 1.000000 1.000000 1.000000 1.000000
v -4.465230 6.933333 2.503715 1.000000 1.000000 1.000000 1.000000
v -2.603527 6.933332 0.635012 1.000000 1.000000 1.000000 1.000000
v -2.601336 6.953186 0.637211 1.000000 1.000000 1.000000 1.000000
v -4.463039 6.953187 2.505913 1.000000 1.000000 1.000000 1.000000
v -2.594979 6.971096 0.643592 1.000000 1.000000 1.000000 1.000000
v -4.456682 6.971096 2.512294 1.000000 1.000000 1.000000 1.000000
v -2.585077 6.985310 0.653531 1.000000 1.000000 1.000000 1.000000
v -4.446780 6.985310 2.522233 1.000000 1.000000 1.000000 1.000000
v -2.572600 6.994435 0.666054 1.000000 1.000000 1.000000 1.000000
v -4.434304 6.994435 2.534757 1.000000 1.000000 1.000000 1.000000
v -2.558770 6.997580 0.679937 1.000000 1.000000 1.000000 1.000000
v -4.420473 6.997580 2.548639 1.000000 1.000000 1.000000 1.000000
v -2.544940 6.994435 0.693819 1.000000 1.000000 1.000000 1.000000
v -4.406643 6.994435 2.562521 1.000000 1.000000 1.000000 1.000000
v 0.000000 6.994435 0.669781 1.000000 1.000000 1.000000 1.000000
v 2.500000 6.994435 0.669781 1.000000 1.000000 1.000000 1.000000
v 0.000000 6.985310 0.687691 1.000000 1.000000 1.000000 1.000000
v 2.500000 6.985310 0.687691 1.000000 1.000000 1.000000 1.000000
v 0.000000 6.971096 0.701904 1.000000 1.000000 1.000000 1.000000
v 2.500000 6.971096 0.701904 1.000000 1.000000 1.000000 1.000000
v 0.000000 6.953186 0.711030 1.000000 1.000000 1.000000 1.000000
v 2.500000 6.953186 0.711030 1.000000 1.000000 1.000000 1.000000
v 0.000000 6.933332 0.714174 1.000000 1.000000 1.000000 1.000000
v 2.500000 6.933332 0.714174 1.000000 1.000000 1.000000 1.000000
v 0.000000 6.913479 0.711030 1.000000 1.000000 1.000000 1.000000
v 2.500000 6.913479 0.711030 1.000000 1.000000 1.000000 1.000000
v 0.000000 6.895570 0.701904 1.000000 1.000000 1.000000 1.000000
v 2.500000 6.895570 0.701904 1.000000 1.000000 1.000000 1.000000
v 0.000000 6.881356 0.687691 1.000000 1.000000 1.000000 1.000000
v 2.500000 6.881356 0.687691 1.000000 1.000000 1.000000 1.000000
v 0.000000 6.872231 0.669781 1.000000 1.000000 1.000000 1.000000
v 2.500000 6.872231 0.669781 1.000000 1.000000 1.000000 1.000000
v 0.000000 6.869086 0.649927 1.000000 1.000000 1.000000 1.000000
v 2.500000 6.869086 0.649927 1.000000 1.000000 1.000000 1.000000
v 0.000000 6.872231 0.630074 1.000000 1.000000 1.000000 1.000000
v 2.500000 6.872231 0.630074 1.000000 1.000000 1.000000 1.000000
v 0.000000 6.881356 0.612164 1.000000 1.000000 1.000000 1.000000
v 2.500000 6.881356 0.612164 1.000000 1.000000 1.000000 1.000000
v 0.000000 6.895570 0.597951 1.000000 1.000000 1.000000 1.000000
v 2.500000 6.895570 0.597951 1.000000 1.000000 1.000000 1.000000
v 0.000000 6.913479 0.588825 1.000000 1.000000 1.000000 1.000000
v 2.500000 6.913479 0.588825 1.000000 1.000000 1.000000 1.000000
v 0.000000 6.933332 0.585681 1.000000 1.000000 1.000000 1.000000
v 2.500000 6.933332 0.585681 1.000000 1.000000 1.000000 1.000000
v 0.000000 6.953186 0.588825 1.000000 1.000000 1.000000 1.000000
v 2.500000 6.953186 0.588825 1.000000 1.000000 1.000000 1.000000
v 0.000000 6.971096 0.597951 1.000000 1.000000 1.000000 1.000000
v 2.500000 6.971096 0.597951 1.000000 1.000000 1.000000 1.000000
v 0.000000 6.985310 0.612164 1.000000 1.000000 1.000000 1.000000
v 2.500000 6.985310 0.612164 1.000000 1.000000 1.000000 1.000000
v 0.000000 6.994435 0.630074 1.000000 1.000000 1.000000 1.000000
v 2.500000 6.994435 0.630074 1.000000 1.000000 1.000000 1.000000
v 0.000000 6.997580 0.649927 1.000000 1.000000 1.000000 1.000000
v 2.500000 6.997580 0.649927 1.000000 1.000000 1.000000 1.000000
v 0.000000 6.994435 0.669781 1.000000 1.000000 1.000000 1.000000
v 2.500000 6.994435 0.669781 1.000000 1.000000 1.000000 1.000000
v 0.000000 6.985310 0.687691 1.000000 1.000000 1.000000 1.000000
v -2.500000 6.994435 0.669781 1.000000 1.000000 1.000000 1.000000
v 0.000000 6.994435 0.669781 1.000000 1.000000 1.000000 1.000000
v -2.500000 6.985310 0.687691 1.000000 1.000000 1.000000 1.000000
v 0.000000 6.971096 0.701904 1.000000 1.000000 1.000000 1.000000
v -2.500000 6.971096 0.701904 1.000000 1.000000 1.000000 1.000000
v 0.000000 6.953186 0.711030 1.000000 1.000000 1.000000 1.000000
v -2.500000 6.953186 0.711030 1.000000 1.000000 1.000000 1.000000
v 0.000000 6.933332 0.714174 1.000000 1.000000 1.000000 1.000000
v -2.500000 6.933332 0.714174 1.000000 1.000000 1.000000 1.000000
v 0.000000 6.913479 0.711030 1.000000 1.000000 1.000000 1.000000
v -2.500000 6.913479 0.711030 1.000000 1.000000 1.000000 1.000000
v 0.000000 6.895570 0.701904 1.000000 1.000000 1.000000 1.000000
v -2.500000 6.895570 0.701904 1.000000 1.000000 1.000000 1.000000
v 0.000000 6.881356 0.687691 1.000000 1.000000 1.000000 1.000000
v -2.500000 6.881356 0.687691 1.000000 1.000000 1.000000 1.000000
v 0.000000 6.872231 0.669781 1.000000 1.000000 1.000000 1.000000
v -2.500000 6.872231 0.669781 1.000000 1.000000 1.000000 1.000000
v 0.000000 6.869086 0.649927 1.000000 1.000000 1.000000 1.000000
v -2.500000 6.869086 0.649927 1.000000 1.000000 1.000000 1.000000
v 0.000000 6.872231 0.630074 1.000000 1.000000 1.000000 1.000000
v -2.500000 6.872231 0.630074 1.000000 1.000000 1.000000 1.000000
v 0.000000 6.881356 0.612164 1.000000 1.000000 1.000000 1.000000
v -2.500000 6.881356 0.612164 1.000000 1.000000 1.000000 1.000000
v 0.000000 6.895570 0.597951 1.000000 1.000000 1.000000 1.000000
v -2.500000 6.895570 0.597951 1.000000 1.000000 1.000000 1.000000
v 0.000000 6.913479 0.588825 1.000000 1.000000 1.000000 1.000000
v -2.500000 6.913479 0.588825 1.000000 1.000000 1.000000 1.000000
v 0.000000 6.933332 0.585681 1.000000 1.000000 1.000000 1.000000
v -2.500000 6.933332 0.585681 1.000000 1.000000 1.000000 1.000000
v 0.000000 6.953186 0.588825 1.000000 1.000000 1.000000 1.000000
v -2.500000 6.953186 0.588825 1.000000 1.000000 1.000000 1.000000
v 0.000000 6.971096 0.597951 1.000000 1.000000 1.000000 1.000000
v -2.500000 6.971096 0.597951 1.000000 1.000000 1.000000 1.000000
v 0.000000 6.985310 0.612164 1.000000 1.000000 1.000000 1.000000
v -2.500000 6.985310 0.612164 1.000000 1.000000 1.000000 1.000000
v 0.000000 6.994435 0.630074 1.000000 1.000000 1.000000 1.000000
v -2.500000 6.994435 0.630074 1.000000 1.000000 1.000000 1.000000
v 0.000000 6.997580 0.649927 1.000000 1.000000 1.000000 1.000000
v -2.500000 6.997580 0.649927 1.000000 1.000000 1.000000 1.000000
v 0.000000 6.994435 0.669781 1.000000 1.000000 1.000000 1.000000
v -2.500000 6.994435 0.669781 1.000000 1.000000 1.000000 1.000000
v 4.406643 6.994435 2.562521 1.000000 1.000000 1.000000 1.000000
v 2.532463 6.985310 0.706343 1.000000 1.000000 1.000000 1.000000
v 2.544940 6.994435 0.693819 1.000000 1.000000 1.000000 1.000000
v 4.394166 6.985310 2.575045 1.000000 1.000000 1.000000 1.000000
v 2.522562 6.971096 0.716282 1.000000 1.000000 1.000000 1.000000
v 4.384264 6.971096 2.584984 1.000000 1.000000 1.000000 1.000000
v 2.516204 6.953186 0.722663 1.000000 1.000000 1.000000 1.000000
v 4.377908 6.953187 2.591365 1.000000 1.000000 1.000000 1.000000
v 2.514014 6.933332 0.724861 1.000000 1.000000 1.000000 1.000000
v 4.375717 6.933333 2.593564 1.000000 1.000000 1.000000 1.000000
v 4.377908 6.913480 2.591365 1.000000 1.000000 1.000000 1.000000
v 2.516204 6.913479 0.722663 1.000000 1.000000 1.000000 1.000000
v 4.384264 6.895570 2.584984 1.000000 1.000000 1.000000 1.000000
v 2.522562 6.895570 0.716282 1.000000 1.000000 1.000000 1.000000
v 4.394166 6.881356 2.575045 1.000000 1.000000 1.000000 1.000000
v 2.532463 6.881356 0.706343 1.000000 1.000000 1.000000 1.000000
v 4.406643 6.872231 2.562521 1.000000 1.000000 1.000000 1.000000
v 2.544940 6.872231 0.693819 1.000000 1.000000 1.000000 1.000000
v 4.420473 6.869086 2.548639 1.000000 1.000000 1.000000 1.000000
v 2.558770 6.869086 0.679937 1.000000 1.000000 1.000000 1.000000
v 4.434304 6.872231 2.534757 1.000000 1.000000 1.000000 1.000000
v 2.572600 6.872231 0.666054 1.000000 1.000000 1.000000 1.000000
v 4.446780 6.881356 2.522233 1.000000 1.000000 1.000000 1.000000
v 2.585077 6.881356 0.653531 1.000000 1.000000 1.000000 1.000000
v 4.456682 6.895570 2.512294 1.000000 1.000000 1.000000 1.000000
v 2.594979 6.895570 0.643592 1.000000 1.000000 1.000000 1.000000
v 4.463039 6.913480 2.505913 1.000000 1.000000 1.000000 1.000000
v 2.601336 6.913479 0.637211 1.000000 1.000000 1.000000 1.000000
v 4.465230 6.933333 2.503715 1.000000 1.000000 1.000000 1.000000
v 2.603527 6.933332 0.635012 1.000000 1.000000 1.000000 1.000000
v 2.601336 6.953186 0.637211 1.000000 1.000000 1.000000 1.000000
v 4.463039 6.953187 2.505913 1.000000 1.000000 1.000000 1.000000
v 2.594979 6.971096 0.643592 1.000000 1.000000 1.000000 1.000000
v 4.456682 6.971096 2.512294 1.000000 1.000000 1.000000 1.000000
v 2.585077 6.985310 0.653531 1.000000 1.000000 1.000000 1.000000
v 4.446780 6.985310 2.522233 1.000000 1.000000 1.000000 1.000000
v 2.572600 6.994435 0.666054 1.000000 1.000000 1.000000 1.000000
v 4.434304 6.994435 2.534757 1.000000 1.000000 1.000000 1.000000
v 2.558770 6.997580 0.679937 1.000000 1.000000 1.000000 1.000000
v 4.420473 6.997580 2.548639 1.000000 1.000000 1.000000 1.000000
v 2.544940 6.994435 0.693819 1.000000 1.000000 1.000000 1.000000
v 4.406643 6.994435 2.562521 1.000000 1.000000 1.000000 1.000000
vt 0.375000 0.688477
vt 0.387451 0.312500
vt 0.387451 0.688477
vt 0.375000 0.312500
vt 0.612305 0.688477
vt 0.624512 0.312500
vt 0.624512 0.688477
vt 0.612305 0.312500
vt 0.599609 0.688477
vt 0.612305 0.312500
vt 0.612305 0.688477
vt 0.599609 0.312500
vt 0.587402 0.688477
vt 0.587402 0.312500
vt 0.599609 0.312500
vt 0.599609 0.688477
vt 0.574707 0.688477
vt 0.574707 0.312500
vt 0.587402 0.312500
vt 0.587402 0.688477
vt 0.574707 0.688477
vt 0.562012 0.312500
vt 0.574707 0.312500
vt 0.562012 0.688477
vt 0.562012 0.688477
vt 0.549805 0.312500
vt 0.562012 0.312500
vt 0.549805 0.688477
vt 0.537109 0.688477
vt 0.549805 0.312500
vt 0.549805 0.688477
vt 0.537109 0.312500
vt 0.537109 0.312500
vt 0.537109 0.688477
vt 0.524902 0.688477
vt 0.524902 0.312500
vt 0.524902 0.688477
vt 0.512207 0.312500
vt 0.524902 0.312500
vt 0.512207 0.688477
vt 0.512207 0.688477
vt 0.499756 0.312500
vt 0.512207 0.312500
vt 0.499756 0.688477
vt 0.499756 0.688477
vt 0.487305 0.312500
vt 0.499756 0.312500
vt 0.487305 0.688477
vt 0.487305 0.688477
vt 0.474854 0.312500
vt 0.487305 0.312500
vt 0.474854 0.688477
vt 0.474854 0.688477
vt 0.462402 0.312500
vt 0.474854 0.312500
vt 0.462402 0.688477
vt 0.462402 0.688477
vt 0.449951 0.312500
vt 0.462402 0.312500
vt 0.449951 0.688477
vt 0.449951 0.688477
vt 0.437256 0.688477
vt 0.449951 0.312500
vt 0.437256 0.312500
vt 0.424805 0.688477
vt 0.437256 0.312500
vt 0.437256 0.688477
vt 0.424805 0.312500
vt 0.424805 0.688477
vt 0.412354 0.312500
vt 0.424805 0.312500
vt 0.412354 0.688477
vt 0.412354 0.688477
vt 0.399902 0.312500
vt 0.412354 0.312500
vt 0.399902 0.688477
vt 0.387451 0.688477
vt 0.399902 0.312500
vt 0.399902 0.688477
vt 0.387451 0.312500
vt 0.375000 0.688477
vt 0.387451 0.312500
vt 0.375000 0.312500
vt 0.387451 0.688477
vt 0.612305 0.688477
vt 0.624512 0.312500
vt 0.612305 0.312500
vt 0.624512 0.688477
vt 0.599609 0.688477
vt 0.612305 0.312500
vt 0.599609 0.312500
vt 0.612305 0.688477
vt 0.587402 0.688477
vt 0.599609 0.312500
vt 0.587402 0.312500
vt 0.599609 0.688477
vt 0.574707 0.688477
vt 0.587402 0.312500
vt 0.574707 0.312500
vt 0.587402 0.688477
vt 0.562012 0.312500
vt 0.574707 0.688477
vt 0.574707 0.312500
vt 0.562012 0.688477
vt 0.549805 0.312500
vt 0.562012 0.688477
vt 0.562012 0.312500
vt 0.549805 0.688477
vt 0.537109 0.312500
vt 0.537109 0.688477
vt 0.549805 0.312500
vt 0.549805 0.688477
vt 0.524902 0.312500
vt 0.524902 0.688477
vt 0.537109 0.312500
vt 0.537109 0.688477
vt 0.524902 0.688477
vt 0.512207 0.312500
vt 0.512207 0.688477
vt 0.524902 0.312500
vt 0.512207 0.688477
vt 0.499756 0.312500
vt 0.499756 0.688477
vt 0.512207 0.312500
vt 0.499756 0.688477
vt 0.487305 0.312500
vt 0.487305 0.688477
vt 0.499756 0.312500
vt 0.487305 0.688477
vt 0.474854 0.312500
vt 0.474854 0.688477
vt 0.487305 0.312500
vt 0.474854 0.688477
vt 0.462402 0.312500
vt 0.462402 0.688477
vt 0.474854 0.312500
vt 0.462402 0.688477
vt 0.449951 0.312500
vt 0.449951 0.688477
vt 0.462402 0.312500
vt 0.449951 0.688477
vt 0.449951 0.312500
vt 0.437256 0.688477
vt 0.437256 0.312500
vt 0.437256 0.688477
vt 0.437256 0.312500
vt 0.424805 0.688477
vt 0.424805 0.312500
vt 0.424805 0.688477
vt 0.412354 0.312500
vt 0.412354 0.688477
vt 0.424805 0.312500
vt 0.399902 0.312500
vt 0.412354 0.688477
vt 0.412354 0.312500
vt 0.399902 0.688477
vt 0.387451 0.688477
vt 0.399902 0.312500
vt 0.387451 0.312500
vt 0.399902 0.688477
vt 0.375000 0.312500
vt 0.375000 0.688477
vt 0.387451 0.688477
vt 0.387451 0.312500
vt 0.399902 0.688477
vt 0.399902 0.312500
vt 0.412354 0.688477
vt 0.412354 0.312500
vt 0.424805 0.688477
vt 0.424805 0.312500
vt 0.437256 0.312500
vt 0.437256 0.688477
vt 0.449951 0.312500
vt 0.449951 0.688477
vt 0.462402 0.312500
vt 0.462402 0.688477
vt 0.474854 0.312500
vt 0.474854 0.688477
vt 0.487305 0.312500
vt 0.487305 0.688477
vt 0.499756 0.312500
vt 0.499756 0.688477
vt 0.512207 0.312500
vt 0.512207 0.688477
vt 0.524902 0.312500
vt 0.524902 0.688477
vt 0.537109 0.312500
vt 0.537109 0.688477
vt 0.549805 0.312500
vt 0.549805 0.688477
vt 0.562012 0.688477
vt 0.562012 0.312500
vt 0.574707 0.688477
vt 0.574707 0.312500
vt 0.587402 0.688477
vt 0.587402 0.312500
vt 0.599609 0.688477
vt 0.599609 0.312500
vt 0.612305 0.688477
vt 0.612305 0.312500
vt 0.624512 0.688477
vt 0.624512 0.312500
vt 0.375000 0.688477
vt 0.375000 0.312500
vt 0.387451 0.688477
vt 0.387451 0.312500
vt 0.399902 0.688477
vt 0.399902 0.312500
vt 0.412354 0.688477
vt 0.412354 0.312500
vt 0.424805 0.688477
vt 0.424805 0.312500
vt 0.437256 0.688477
vt 0.437256 0.312500
vt 0.449951 0.688477
vt 0.449951 0.312500
vt 0.462402 0.688477
vt 0.462402 0.312500
vt 0.474854 0.688477
vt 0.474854 0.312500
vt 0.487305 0.688477
vt 0.487305 0.312500
vt 0.499756 0.688477
vt 0.499756 0.312500
vt 0.512207 0.688477
vt 0.512207 0.312500
vt 0.524902 0.688477
vt 0.524902 0.312500
vt 0.537109 0.688477
vt 0.537109 0.312500
vt 0.549805 0.688477
vt 0.549805 0.312500
vt 0.562012 0.688477
vt 0.562012 0.312500
vt 0.574707 0.688477
vt 0.574707 0.312500
vt 0.587402 0.688477
vt 0.587402 0.312500
vt 0.599609 0.688477
vt 0.599609 0.312500
vt 0.612305 0.688477
vt 0.612305 0.312500
vt 0.624512 0.688477
vt 0.624512 0.312500
vt 0.387451 0.688477
vt 0.375000 0.312500
vt 0.375000 0.688477
vt 0.387451 0.312500
vt 0.399902 0.688477
vt 0.399902 0.312500
vt 0.412354 0.688477
vt 0.412354 0.312500
vt 0.424805 0.688477
vt 0.424805 0.312500
vt 0.437256 0.688477
vt 0.437256 0.312500
vt 0.449951 0.688477
vt 0.449951 0.312500
vt 0.462402 0.688477
vt 0.462402 0.312500
vt 0.474854 0.688477
vt 0.474854 0.312500
vt 0.487305 0.688477
vt 0.487305 0.312500
vt 0.499756 0.688477
vt 0.499756 0.312500
vt 0.512207 0.688477
vt 0.512207 0.312500
vt 0.524902 0.688477
vt 0.524902 0.312500
vt 0.537109 0.688477
vt 0.537109 0.312500
vt 0.549805 0.688477
vt 0.549805 0.312500
vt 0.562012 0.688477
vt 0.562012 0.312500
vt 0.574707 0.688477
vt 0.574707 0.312500
vt 0.587402 0.688477
vt 0.587402 0.312500
vt 0.599609 0.688477
vt 0.599609 0.312500
vt 0.612305 0.688477
vt 0.612305 0.312500
vt 0.624512 0.688477
vt 0.624512 0.312500
vt 0.375000 0.312500
vt 0.387451 0.688477
vt 0.375000 0.688477
vt 0.387451 0.312500
vt 0.399902 0.688477
vt 0.399902 0.312500
vt 0.412354 0.688477
vt 0.412354 0.312500
vt 0.424805 0.688477
vt 0.424805 0.312500
vt 0.437256 0.312500
vt 0.437256 0.688477
vt 0.449951 0.312500
vt 0.449951 0.688477
vt 0.462402 0.312500
vt 0.462402 0.688477
vt 0.474854 0.312500
vt 0.474854 0.688477
vt 0.487305 0.312500
vt 0.487305 0.688477
vt 0.499756 0.312500
vt 0.499756 0.688477
vt 0.512207 0.312500
vt 0.512207 0.688477
vt 0.524902 0.312500
vt 0.524902 0.688477
vt 0.537109 0.312500
vt 0.537109 0.688477
vt 0.549805 0.312500
vt 0.549805 0.688477
vt 0.562012 0.688477
vt 0.562012 0.312500
vt 0.574707 0.688477
vt 0.574707 0.312500
vt 0.587402 0.688477
vt 0.587402 0.312500
vt 0.599609 0.688477
vt 0.599609 0.312500
vt 0.612305 0.688477
vt 0.612305 0.312500
vt 0.624512 0.688477
vt 0.624512 0.312500
vt1 0.717285 0.943573
vt1 0.725098 0.919067
vt1 0.725098 0.943573
vt1 0.717285 0.919067
vt1 0.858887 0.943573
vt1 0.866211 0.919067
vt1 0.866211 0.943573
vt1 0.858887 0.919067
vt1 0.851074 0.943573
vt1 0.858887 0.919067
vt1 0.858887 0.943573
vt1 0.851074 0.919067
vt1 0.843750 0.943573
vt1 0.843750 0.919067
vt1 0.851074 0.919067
vt1 0.851074 0.943573
vt1 0.836426 0.943573
vt1 0.836426 0.919067
vt1 0.843750 0.919067
vt1 0.843750 0.943573
vt1 0.836426 0.943573
vt1 0.829102 0.919067
vt1 0.836426 0.919067
vt1 0.829102 0.943573
vt1 0.829102 0.943573
vt1 0.821777 0.919067
vt1 0.829102 0.919067
vt1 0.821777 0.943573
vt1 0.813965 0.943573
vt1 0.821777 0.919067
vt1 0.821777 0.943573
vt1 0.813965 0.919067
vt1 0.813965 0.919067
vt1 0.813965 0.943573
vt1 0.806641 0.943573
vt1 0.806641 0.919067
vt1 0.806641 0.943573
vt1 0.799316 0.919067
vt1 0.806641 0.919067
vt1 0.799316 0.943573
vt1 0.799316 0.943573
vt1 0.791992 0.919067
vt1 0.799316 0.919067
vt1 0.791992 0.943573
vt1 0.791992 0.943573
vt1 0.784180 0.919067
vt1 0.791992 0.919067
vt1 0.784180 0.943573
vt1 0.784180 0.943573
vt1 0.776855 0.919067
vt1 0.784180 0.919067
vt1 0.776855 0.943573
vt1 0.776855 0.943573
vt1 0.769531 0.919067
vt1 0.776855 0.919067
vt1 0.769531 0.943573
vt1 0.769531 0.943573
vt1 0.762207 0.919067
vt1 0.769531 0.919067
vt1 0.762207 0.943573
vt1 0.762207 0.943573
vt1 0.754883 0.943573
vt1 0.762207 0.919067
vt1 0.754883 0.919067
vt1 0.747070 0.943573
vt1 0.754883 0.919067
vt1 0.754883 0.943573
vt1 0.747070 0.919067
vt1 0.747070 0.943573
vt1 0.739746 0.919067
vt1 0.747070 0.919067
vt1 0.739746 0.943573
vt1 0.739746 0.943573
vt1 0.732422 0.919067
vt1 0.739746 0.919067
vt1 0.732422 0.943573
vt1 0.725098 0.943573
vt1 0.732422 0.919067
vt1 0.732422 0.943573
vt1 0.725098 0.919067
vt1 0.717285 0.991936
vt1 0.725098 0.967438
vt1 0.717285 0.967438
vt1 0.725098 0.991936
vt1 0.858887 0.991936
vt1 0.866211 0.967438
vt1 0.858887 0.967438
vt1 0.866211 0.991936
vt1 0.851074 0.991936
vt1 0.858887 0.967438
vt1 0.851074 0.967438
vt1 0.858887 0.991936
vt1 0.843750 0.991936
vt1 0.851074 0.967438
vt1 0.843750 0.967438
vt1 0.851074 0.991936
vt1 0.836426 0.991936
vt1 0.843750 0.967438
vt1 0.836426 0.967438
vt1 0.843750 0.991936
vt1 0.829102 0.967438
vt1 0.836426 0.991936
vt1 0.836426 0.967438
vt1 0.829102 0.991936
vt1 0.821777 0.967438
vt1 0.829102 0.991936
vt1 0.829102 0.967438
vt1 0.821777 0.991936
vt1 0.813965 0.967438
vt1 0.813965 0.991936
vt1 0.821777 0.967438
vt1 0.821777 0.991936
vt1 0.806641 0.967438
vt1 0.806641 0.991936
vt1 0.813965 0.967438
vt1 0.813965 0.991936
vt1 0.806641 0.991936
vt1 0.799316 0.967438
vt1 0.799316 0.991936
vt1 0.806641 0.967438
vt1 0.799316 0.991936
vt1 0.791992 0.967438
vt1 0.791992 0.991936
vt1 0.799316 0.967438
vt1 0.791992 0.991936
vt1 0.784180 0.967438
vt1 0.784180 0.991936
vt1 0.791992 0.967438
vt1 0.784180 0.991936
vt1 0.776855 0.967438
vt1 0.776855 0.991936
vt1 0.784180 0.967438
vt1 0.776855 0.991936
vt1 0.769531 0.967438
vt1 0.769531 0.991936
vt1 0.776855 0.967438
vt1 0.769531 0.991936
vt1 0.762207 0.967438
vt1 0.762207 0.991936
vt1 0.769531 0.967438
vt1 0.762207 0.991936
vt1 0.762207 0.967438
vt1 0.754883 0.991936
vt1 0.754883 0.967438
vt1 0.754883 0.991936
vt1 0.754883 0.967438
vt1 0.747070 0.991936
vt1 0.747070 0.967438
vt1 0.747070 0.991936
vt1 0.739746 0.967438
vt1 0.739746 0.991936
vt1 0.747070 0.967438
vt1 0.732422 0.967438
vt1 0.739746 0.991936
vt1 0.739746 0.967438
vt1 0.732422 0.991936
vt1 0.725098 0.991936
vt1 0.732422 0.967438
vt1 0.725098 0.967438
vt1 0.732422 0.991936
vt1 0.008064 0.013672
vt1 0.008064 0.991936
vt1 0.015465 0.991936
vt1 0.015465 0.013672
vt1 0.022873 0.991936
vt1 0.022873 0.013672
vt1 0.030273 0.991936
vt1 0.030273 0.013672
vt1 0.037689 0.991936
vt1 0.037689 0.013672
vt1 0.045074 0.013672
vt1 0.045074 0.991936
vt1 0.052490 0.013672
vt1 0.052490 0.991936
vt1 0.059906 0.013672
vt1 0.059906 0.991936
vt1 0.067322 0.013672
vt1 0.067322 0.991936
vt1 0.074707 0.013672
vt1 0.074707 0.991936
vt1 0.082092 0.013672
vt1 0.082092 0.991936
vt1 0.089539 0.013672
vt1 0.089539 0.991936
vt1 0.096924 0.013672
vt1 0.096924 0.991936
vt1 0.104309 0.013672
vt1 0.104309 0.991936
vt1 0.111755 0.013672
vt1 0.111755 0.991936
vt1 0.119141 0.991936
vt1 0.119141 0.013672
vt1 0.126465 0.991936
vt1 0.126465 0.013672
vt1 0.133911 0.991936
vt1 0.133911 0.013672
vt1 0.141357 0.991936
vt1 0.141357 0.013672
vt1 0.148804 0.991936
vt1 0.148804 0.013672
vt1 0.156128 0.991936
vt1 0.156128 0.013672
vt1 0.362793 0.991936
vt1 0.362793 0.064941
vt1 0.370117 0.991936
vt1 0.370117 0.064941
vt1 0.377686 0.991936
vt1 0.377686 0.064941
vt1 0.385254 0.991936
vt1 0.385254 0.064941
vt1 0.392578 0.991936
vt1 0.392578 0.064941
vt1 0.400146 0.991936
vt1 0.400146 0.064941
vt1 0.407471 0.991936
vt1 0.407471 0.064941
vt1 0.415039 0.991936
vt1 0.415039 0.064941
vt1 0.422363 0.991936
vt1 0.422363 0.064941
vt1 0.429932 0.991936
vt1 0.429932 0.064941
vt1 0.437256 0.991936
vt1 0.437256 0.064941
vt1 0.444824 0.991936
vt1 0.444824 0.064941
vt1 0.452148 0.991936
vt1 0.452148 0.064941
vt1 0.459717 0.991936
vt1 0.459717 0.064941
vt1 0.467041 0.991936
vt1 0.467041 0.064941
vt1 0.474609 0.991936
vt1 0.474609 0.064941
vt1 0.482178 0.991936
vt1 0.482178 0.064941
vt1 0.489502 0.991936
vt1 0.489502 0.064941
vt1 0.497070 0.991936
vt1 0.497070 0.064941
vt1 0.504395 0.991936
vt1 0.504395 0.064941
vt1 0.511719 0.991936
vt1 0.511719 0.064941
vt1 0.547363 0.991936
vt1 0.540039 0.064941
vt1 0.540039 0.991936
vt1 0.547363 0.064941
vt1 0.555176 0.991936
vt1 0.555176 0.064941
vt1 0.562500 0.991936
vt1 0.562500 0.064941
vt1 0.569824 0.991936
vt1 0.569824 0.064941
vt1 0.577148 0.991936
vt1 0.577148 0.064941
vt1 0.584961 0.991936
vt1 0.584961 0.064941
vt1 0.592285 0.991936
vt1 0.592285 0.064941
vt1 0.599609 0.991936
vt1 0.599609 0.064941
vt1 0.607422 0.991936
vt1 0.607422 0.064941
vt1 0.614746 0.991936
vt1 0.614746 0.064941
vt1 0.622070 0.991936
vt1 0.622070 0.064941
vt1 0.629395 0.991936
vt1 0.629395 0.064941
vt1 0.637207 0.991936
vt1 0.637207 0.064941
vt1 0.644531 0.991936
vt1 0.644531 0.064941
vt1 0.651855 0.991936
vt1 0.651855 0.064941
vt1 0.659180 0.991936
vt1 0.659180 0.064941
vt1 0.666992 0.991936
vt1 0.666992 0.064941
vt1 0.674316 0.991936
vt1 0.674316 0.064941
vt1 0.681641 0.991936
vt1 0.681641 0.064941
vt1 0.688965 0.991936
vt1 0.688965 0.064941
vt1 0.185425 0.013672
vt1 0.192871 0.991936
vt1 0.185425 0.991936
vt1 0.192871 0.013672
vt1 0.200195 0.991936
vt1 0.200195 0.013672
vt1 0.207642 0.991936
vt1 0.207642 0.013672
vt1 0.215088 0.991936
vt1 0.215088 0.013672
vt1 0.222412 0.013672
vt1 0.222412 0.991936
vt1 0.229858 0.013672
vt1 0.229858 0.991936
vt1 0.237305 0.013672
vt1 0.237305 0.991936
vt1 0.244629 0.013672
vt1 0.244629 0.991936
vt1 0.251953 0.013672
vt1 0.251953 0.991936
vt1 0.259521 0.013672
vt1 0.259521 0.991936
vt1 0.266846 0.013672
vt1 0.266846 0.991936
vt1 0.274170 0.013672
vt1 0.274170 0.991936
vt1 0.281738 0.013672
vt1 0.281738 0.991936
vt1 0.289062 0.013672
vt1 0.289062 0.991936
vt1 0.296387 0.991936
vt1 0.296387 0.013672
vt1 0.303955 0.991936
vt1 0.303955 0.013672
vt1 0.311279 0.991936
vt1 0.311279 0.013672
vt1 0.318604 0.991936
vt1 0.318604 0.013672
vt1 0.326172 0.991936
vt1 0.326172 0.013672
vt1 0.333496 0.991936
vt1 0.333496 0.013672
vn 0.236220 0.874016 0.425197
vn 0.236220 0.874016 0.425197
vn 0.236220 0.874016 0.425197
vn 0.236220 0.874016 0.425197
vn 0.078740 0.984252 0.149606
vn 0.078740 0.984252 0.149606
vn 0.078740 0.984252 0.149606
vn 0.078740 0.984252 0.149606
vn -0.078740 0.984252 -0.149606
vn -0.078740 0.984252 -0.149606
vn -0.078740 0.984252 -0.149606
vn -0.078740 0.984252 -0.149606
vn -0.212598 0.874016 -0.433071
vn -0.212598 0.874016 -0.433071
vn -0.212598 0.874016 -0.433071
vn -0.212598 0.874016 -0.433071
vn -0.322835 0.677165 -0.661417
vn -0.322835 0.677165 -0.661417
vn -0.322835 0.677165 -0.661417
vn -0.322835 0.677165 -0.661417
vn -0.393701 0.425197 -0.818898
vn -0.393701 0.425197 -0.818898
vn -0.393701 0.425197 -0.818898
vn -0.393701 0.425197 -0.818898
vn -0.425197 0.141732 -0.889764
vn -0.425197 0.141732 -0.889764
vn -0.425197 0.141732 -0.889764
vn -0.425197 0.141732 -0.889764
vn -0.425197 -0.141732 -0.889764
vn -0.425197 -0.141732 -0.889764
vn -0.425197 -0.141732 -0.889764
vn -0.425197 -0.141732 -0.889764
vn -0.393701 -0.425197 -0.818897
vn -0.393701 -0.425197 -0.818897
vn -0.393701 -0.425197 -0.818897
vn -0.393701 -0.425197 -0.818897
vn -0.322835 -0.677165 -0.661417
vn -0.322835 -0.677165 -0.661417
vn -0.322835 -0.677165 -0.661417
vn -0.322835 -0.677165 -0.661417
vn -0.212598 -0.874016 -0.433071
vn -0.212598 -0.874016 -0.433071
vn -0.212598 -0.874016 -0.433071
vn -0.212598 -0.874016 -0.433071
vn -0.078740 -0.984252 -0.149606
vn -0.078740 -0.984252 -0.149606
vn -0.078740 -0.984252 -0.149606
vn -0.078740 -0.984252 -0.149606
vn 0.078740 -0.984252 0.149606
vn 0.078740 -0.984252 0.149606
vn 0.078740 -0.984252 0.149606
vn 0.078740 -0.984252 0.149606
vn 0.236220 -0.874016 0.425197
vn 0.236220 -0.874016 0.425197
vn 0.236220 -0.874016 0.425197
vn 0.236220 -0.874016 0.425197
vn 0.377953 -0.669291 0.637795
vn 0.377953 -0.669291 0.637795
vn 0.377953 -0.669291 0.637795
vn 0.377953 -0.669291 0.637795
vn 0.503937 -0.417323 0.755905
vn 0.503937 -0.417323 0.755905
vn 0.503937 -0.417323 0.755905
vn 0.503937 -0.417323 0.755905
vn 0.590551 -0.141732 0.795275
vn 0.590551 -0.141732 0.795275
vn 0.590551 -0.141732 0.795275
vn 0.590551 -0.141732 0.795275
vn 0.590551 0.141732 0.795275
vn 0.590551 0.141732 0.795275
vn 0.590551 0.141732 0.795275
vn 0.590551 0.141732 0.795275
vn 0.503937 0.417323 0.755905
vn 0.503937 0.417323 0.755905
vn 0.503937 0.417323 0.755905
vn 0.503937 0.417323 0.755905
vn 0.377953 0.669291 0.637795
vn 0.377953 0.669291 0.637795
vn 0.377953 0.669291 0.637795
vn 0.377953 0.669291 0.637795
vn -0.236220 0.874016 0.425197
vn -0.236220 0.874016 0.425197
vn -0.236220 0.874016 0.425197
vn -0.236220 0.874016 0.425197
vn -0.078740 0.984252 0.149606
vn -0.078740 0.984252 0.149606
vn -0.078740 0.984252 0.149606
vn -0.078740 0.984252 0.149606
vn 0.078740 0.984252 -0.149606
vn 0.078740 0.984252 -0.149606
vn 0.078740 0.984252 -0.149606
vn 0.078740 0.984252 -0.149606
vn 0.212598 0.874016 -0.433071
vn 0.212598 0.874016 -0.433071
vn 0.212598 0.874016 -0.433071
vn 0.212598 0.874016 -0.433071
vn 0.322835 0.677165 -0.661417
vn 0.322835 0.677165 -0.661417
vn 0.322835 0.677165 -0.661417
vn 0.322835 0.677165 -0.661417
vn 0.393701 0.425197 -0.818898
vn 0.393701 0.425197 -0.818898
vn 0.393701 0.425197 -0.818898
vn 0.393701 0.425197 -0.818898
vn 0.425197 0.141732 -0.889764
vn 0.425197 0.141732 -0.889764
vn 0.425197 0.141732 -0.889764
vn 0.425197 0.141732 -0.889764
vn 0.425197 -0.141732 -0.889764
vn 0.425197 -0.141732 -0.889764
vn 0.425197 -0.141732 -0.889764
vn 0.425197 -0.141732 -0.889764
vn 0.393701 -0.425197 -0.818897
vn 0.393701 -0.425197 -0.818897
vn 0.393701 -0.425197 -0.818897
vn 0.393701 -0.425197 -0.818897
vn 0.322835 -0.677165 -0.661417
vn 0.322835 -0.677165 -0.661417
vn 0.322835 -0.677165 -0.661417
vn 0.322835 -0.677165 -0.661417
vn 0.212598 -0.874016 -0.433071
vn 0.212598 -0.874016 -0.433071
vn 0.212598 -0.874016 -0.433071
vn 0.212598 -0.874016 -0.433071
vn 0.078740 -0.984252 -0.149606
vn 0.078740 -0.984252 -0.149606
vn 0.078740 -0.984252 -0.149606
vn 0.078740 -0.984252 -0.149606
vn -0.078740 -0.984252 0.149606
vn -0.078740 -0.984252 0.149606
vn -0.078740 -0.984252 0.149606
vn -0.078740 -0.984252 0.149606
vn -0.236220 -0.874016 0.425197
vn -0.236220 -0.874016 0.425197
vn -0.236220 -0.874016 0.425197
vn -0.236220 -0.874016 0.425197
vn -0.377953 -0.669291 0.637795
vn -0.377953 -0.669291 0.637795
vn -0.377953 -0.669291 0.637795
vn -0.377953 -0.669291 0.637795
vn -0.503937 -0.417323 0.755905
vn -0.503937 -0.417323 0.755905
vn -0.503937 -0.417323 0.755905
vn -0.503937 -0.417323 0.755905
vn -0.590551 -0.141732 0.795275
vn -0.590551 -0.141732 0.795275
vn -0.590551 -0.141732 0.795275
vn -0.590551 -0.141732 0.795275
vn -0.590551 0.141732 0.795275
vn -0.590551 0.141732 0.795275
vn -0.590551 0.141732 0.795275
vn -0.590551 0.141732 0.795275
vn -0.503937 0.417323 0.755905
vn -0.503937 0.417323 0.755905
vn -0.503937 0.417323 0.755905
vn -0.503937 0.417323 0.755905
vn -0.377953 0.669291 0.637795
vn -0.377953 0.669291 0.637795
vn -0.377953 0.669291 0.637795
vn -0.377953 0.669291 0.637795
vn 0.220472 0.952756 0.220472
vn 0.220472 0.952756 0.220472
vn 0.417323 0.803150 0.417323
vn 0.417323 0.803150 0.417323
vn 0.574803 0.582677 0.574803
vn 0.574803 0.582677 0.574803
vn 0.677165 0.307087 0.669291
vn 0.677165 0.307087 0.669291
vn 0.708661 0.000000 0.708661
vn 0.708661 0.000000 0.708661
vn 0.677165 -0.307086 0.669291
vn 0.677165 -0.307086 0.669291
vn 0.574803 -0.582677 0.574803
vn 0.574803 -0.582677 0.574803
vn 0.417323 -0.803149 0.417323
vn 0.417323 -0.803149 0.417323
vn 0.220472 -0.952756 0.220473
vn 0.220472 -0.952756 0.220473
vn 0.000000 -1.000000 0.000000
vn 0.000000 -1.000000 0.000000
vn -0.220472 -0.952756 -0.220472
vn -0.220472 -0.952756 -0.220472
vn -0.417323 -0.803150 -0.417323
vn -0.417323 -0.803150 -0.417323
vn -0.574803 -0.582677 -0.574803
vn -0.574803 -0.582677 -0.574803
vn -0.677165 -0.307087 -0.669291
vn -0.677165 -0.307087 -0.669291
vn -0.708661 -0.000000 -0.708661
vn -0.708661 -0.000000 -0.708661
vn -0.677165 0.307086 -0.669291
vn -0.677165 0.307086 -0.669291
vn -0.574803 0.582677 -0.574803
vn -0.574803 0.582677 -0.574803
vn -0.417323 0.803149 -0.417323
vn -0.417323 0.803149 -0.417323
vn -0.220472 0.952756 -0.220473
vn -0.220472 0.952756 -0.220473
vn 0.000000 1.000000 -0.000000
vn 0.000000 1.000000 -0.000000
vn 0.220472 0.952756 0.220472
vn 0.220472 0.952756 0.220472
vn 0.000000 0.952756 0.307086
vn 0.000000 0.952756 0.307086
vn 0.000000 0.811024 0.590551
vn 0.000000 0.811024 0.590551
vn 0.000000 0.590551 0.811023
vn 0.000000 0.590551 0.811023
vn 0.000000 0.307087 0.952756
vn 0.000000 0.307087 0.952756
vn 0.000000 0.000000 1.000000
vn 0.000000 0.000000 1.000000
vn 0.000000 -0.307086 0.952756
vn 0.000000 -0.307086 0.952756
vn 0.000000 -0.590551 0.811024
vn 0.000000 -0.590551 0.811024
vn 0.000000 -0.811023 0.590551
vn 0.000000 -0.811023 0.590551
vn 0.000000 -0.952756 0.307087
vn 0.000000 -0.952756 0.307087
vn 0.000000 -1.000000 0.000000
vn 0.000000 -1.000000 0.000000
vn 0.000000 -0.952756 -0.307086
vn 0.000000 -0.952756 -0.307086
vn 0.000000 -0.811024 -0.590551
vn 0.000000 -0.811024 -0.590551
vn 0.000000 -0.590551 -0.811023
vn 0.000000 -0.590551 -0.811023
vn 0.000000 -0.307087 -0.952756
vn 0.000000 -0.307087 -0.952756
vn 0.000000 -0.000000 -1.000000
vn 0.000000 -0.000000 -1.000000
vn 0.000000 0.307086 -0.952756
vn 0.000000 0.307086 -0.952756
vn 0.000000 0.590551 -0.811024
vn 0.000000 0.590551 -0.811024
vn 0.000000 0.811023 -0.590551
vn 0.000000 0.811023 -0.590551
vn 0.000000 0.952756 -0.307087
vn 0.000000 0.952756 -0.307087
vn 0.000000 1.000000 -0.000000
vn 0.000000 1.000000 -0.000000
vn 0.000000 0.952756 0.307086
vn 0.000000 0.952756 0.307086
vn 0.000000 0.811024 0.590551
vn 0.000000 0.952756 0.307086
vn 0.000000 0.952756 0.307086
vn 0.000000 0.811024 0.590551
vn 0.000000 0.590551 0.811023
vn 0.000000 0.590551 0.811023
vn 0.000000 0.307087 0.952756
vn 0.000000 0.307087 0.952756
vn 0.000000 0.000000 1.000000
vn 0.000000 0.000000 1.000000
vn 0.000000 -0.307086 0.952756
vn 0.000000 -0.307086 0.952756
vn 0.000000 -0.590551 0.811024
vn 0.000000 -0.590551 0.811024
vn 0.000000 -0.811023 0.590551
vn 0.000000 -0.811023 0.590551
vn 0.000000 -0.952756 0.307087
vn 0.000000 -0.952756 0.307087
vn 0.000000 -1.000000 0.000000
vn 0.000000 -1.000000 0.000000
vn 0.000000 -0.952756 -0.307086
vn 0.000000 -0.952756 -0.307086
vn 0.000000 -0.811024 -0.590551
vn 0.000000 -0.811024 -0.590551
vn 0.000000 -0.590551 -0.811023
vn 0.000000 -0.590551 -0.811023
vn 0.000000 -0.307087 -0.952756
vn 0.000000 -0.307087 -0.952756
vn 0.000000 -0.000000 -1.000000
vn 0.000000 -0.000000 -1.000000
vn 0.000000 0.307086 -0.952756
vn 0.000000 0.307086 -0.952756
vn 0.000000 0.590551 -0.811024
vn 0.000000 0.590551 -0.811024
vn 0.000000 0.811023 -0.590551
vn 0.000000 0.811023 -0.590551
vn 0.000000 0.952756 -0.307087
vn 0.000000 0.952756 -0.307087
vn 0.000000 1.000000 -0.000000
vn 0.000000 1.000000 -0.000000
vn 0.000000 0.952756 0.307086
vn 0.000000 0.952756 0.307086
vn -0.220472 0.952756 0.220472
vn -0.417323 0.803150 0.417323
vn -0.220472 0.952756 0.220472
vn -0.417323 0.803150 0.417323
vn -0.574803 0.582677 0.574803
vn -0.574803 0.582677 0.574803
vn -0.677165 0.307087 0.669291
vn -0.677165 0.307087 0.669291
vn -0.708661 0.000000 0.708661
vn -0.708661 0.000000 0.708661
vn -0.677165 -0.307086 0.669291
vn -0.677165 -0.307086 0.669291
vn -0.574803 -0.582677 0.574803
vn -0.574803 -0.582677 0.574803
vn -0.417323 -0.803149 0.417323
vn -0.417323 -0.803149 0.417323
vn -0.220472 -0.952756 0.220473
vn -0.220472 -0.952756 0.220473
vn 0.000000 -1.000000 0.000000
vn 0.000000 -1.000000 0.000000
vn 0.220472 -0.952756 -0.220472
vn 0.220472 -0.952756 -0.220472
vn 0.417323 -0.803150 -0.417323
vn 0.417323 -0.803150 -0.417323
vn 0.574803 -0.582677 -0.574803
vn 0.574803 -0.582677 -0.574803
vn 0.677165 -0.307087 -0.669291
vn 0.677165 -0.307087 -0.669291
vn 0.708661 -0.000000 -0.708661
vn 0.708661 -0.000000 -0.708661
vn 0.677165 0.307086 -0.669291
vn 0.677165 0.307086 -0.669291
vn 0.574803 0.582677 -0.574803
vn 0.574803 0.582677 -0.574803
vn 0.417323 0.803149 -0.417323
vn 0.417323 0.803149 -0.417323
vn 0.220472 0.952756 -0.220473
vn 0.220472 0.952756 -0.220473
vn 0.000000 1.000000 -0.000000
vn 0.000000 1.000000 -0.000000
vn -0.220472 0.952756 0.220472
vn -0.220472 0.952756 0.220472
tan 0.861368 0.017484 -0.514477 1.000000
tan 0.961436 -0.146196 -0.233616 1.000000
tan 0.744560 0.117552 -0.655279 1.000000
tan 0.972038 -0.212040 -0.104160 1.000000
tan 0.824168 0.019778 -0.563891 1.000000
tan 0.992312 -0.059830 -0.128650 1.000000
tan 0.714489 0.048484 -0.695021 1.000000
tan 0.998884 -0.078120 -0.011780 1.000000
tan 0.807490 -0.025730 -0.594271 1.000000
tan 0.992312 0.063364 -0.105400 1.000000
tan 0.714489 -0.048484 -0.695021 1.000000
tan 0.998884 0.078120 -0.011780 1.000000
tan 0.813628 -0.087978 -0.576973 1.000000
tan 0.978920 0.190836 -0.095418 1.000000
tan 0.968566 0.156798 -0.159030 1.000000
tan 0.751751 -0.135470 -0.642445 1.000000
tan 0.841714 -0.113584 -0.527125 1.000000
tan 0.948726 0.231322 -0.226238 1.000000
tan 0.948478 0.189782 -0.268647 1.000000
tan 0.804514 -0.170500 -0.567239 1.000000
tan 0.875690 -0.101928 -0.473929 1.000000
tan 0.922562 0.134912 -0.373489 1.000000
tan 0.922810 0.179800 -0.350301 1.000000
tan 0.868994 -0.133920 -0.487321 1.000000
tan 0.898382 -0.037200 -0.435241 1.000000
tan 0.903962 0.049600 -0.424081 1.000000
tan 0.898072 0.066960 -0.418501 1.000000
tan 0.898382 -0.051212 -0.437473 1.000000
tan 0.898382 0.037200 -0.435241 1.000000
tan 0.903962 -0.049600 -0.424081 1.000000
tan 0.898382 0.051212 -0.437473 1.000000
tan 0.898072 -0.066960 -0.418501 1.000000
tan 0.922562 -0.134912 -0.373489 1.000000
tan 0.868994 0.133920 -0.487321 1.000000
tan 0.875690 0.101928 -0.473929 1.000000
tan 0.922810 -0.179800 -0.350301 1.000000
tan 0.841714 0.113584 -0.527125 1.000000
tan 0.948478 -0.189782 -0.268646 1.000000
tan 0.948726 -0.231322 -0.226238 1.000000
tan 0.804514 0.170500 -0.567239 1.000000
tan 0.813628 0.087978 -0.576973 1.000000
tan 0.968566 -0.156798 -0.159030 1.000000
tan 0.978920 -0.190836 -0.095418 1.000000
tan 0.751751 0.135470 -0.642445 1.000000
tan 0.807490 0.025730 -0.594271 1.000000
tan 0.992312 -0.063364 -0.105400 1.000000
tan 0.998884 -0.078120 -0.011780 1.000000
tan 0.714489 0.048484 -0.695021 1.000000
tan 0.824168 -0.019778 -0.563891 1.000000
tan 0.992312 0.059830 -0.128650 1.000000
tan 0.998884 0.078120 -0.011780 1.000000
tan 0.714489 -0.048484 -0.695021 1.000000
tan 0.861368 -0.017484 -0.514477 1.000000
tan 0.961436 0.146196 -0.233616 1.000000
tan 0.972038 0.212040 -0.104160 1.000000
tan 0.744560 -0.117552 -0.655279 1.000000
tan 0.872590 0.030318 -0.485275 1.000000
tan 0.909976 0.152520 -0.379193 1.000000
tan 0.926778 0.268770 -0.267159 1.000000
tan 0.788518 -0.129828 -0.603509 1.000000
tan 0.809350 -0.075392 -0.581189 1.000000
tan 0.838924 0.043648 -0.535185 1.000000
tan 0.848782 0.073408 -0.525327 1.000000
tan 0.863786 0.226176 -0.450989 1.000000
tan 0.807986 0.035216 -0.593713 1.000000
tan 0.807986 0.035216 -0.593713 1.000000
tan 0.803522 -0.020956 -0.600409 1.000000
tan 0.806188 0.091388 -0.582367 1.000000
tan 0.807986 -0.035216 -0.593713 1.000000
tan 0.807986 -0.035216 -0.593713 1.000000
tan 0.806188 -0.091388 -0.582367 1.000000
tan 0.803522 0.020956 -0.600409 1.000000
tan 0.838924 -0.043648 -0.535185 1.000000
tan 0.848782 -0.073408 -0.525327 1.000000
tan 0.863786 -0.226177 -0.450989 1.000000
tan 0.809350 0.075392 -0.581189 1.000000
tan 0.872590 -0.030318 -0.485275 1.000000
tan 0.909976 -0.152520 -0.379193 1.000000
tan 0.788518 0.129828 -0.603509 1.000000
tan 0.926778 -0.268771 -0.267158 1.000000
tan -0.861368 0.017484 -0.514477 1.000000
tan -0.961436 -0.146196 -0.233616 1.000000
tan -0.972038 -0.212040 -0.104160 1.000000
tan -0.744560 0.117552 -0.655279 1.000000
tan -0.824168 0.019778 -0.563891 1.000000
tan -0.992312 -0.059830 -0.128650 1.000000
tan -0.998884 -0.078120 -0.011780 1.000000
tan -0.714489 0.048484 -0.695021 1.000000
tan -0.807490 -0.025730 -0.594271 1.000000
tan -0.992312 0.063364 -0.105400 1.000000
tan -0.998884 0.078120 -0.011780 1.000000
tan -0.714489 -0.048484 -0.695021 1.000000
tan -0.813628 -0.087978 -0.576973 1.000000
tan -0.968566 0.156798 -0.159030 1.000000
tan -0.978920 0.190836 -0.095418 1.000000
tan -0.751751 -0.135470 -0.642445 1.000000
tan -0.841714 -0.113584 -0.527125 1.000000
tan -0.948478 0.189782 -0.268647 1.000000
tan -0.948726 0.231322 -0.226238 1.000000
tan -0.804514 -0.170500 -0.567239 1.000000
tan -0.922562 0.134912 -0.373489 1.000000
tan -0.875690 -0.101928 -0.473929 1.000000
tan -0.922810 0.179800 -0.350301 1.000000
tan -0.868994 -0.133920 -0.487321 1.000000
tan -0.903962 0.049600 -0.424081 1.000000
tan -0.898382 -0.037200 -0.435241 1.000000
tan -0.898072 0.066960 -0.418501 1.000000
tan -0.898382 -0.051212 -0.437473 1.000000
tan -0.898072 -0.066960 -0.418501 1.000000
tan -0.898382 0.037200 -0.435241 1.000000
tan -0.903962 -0.049600 -0.424081 1.000000
tan -0.898382 0.051212 -0.437473 1.000000
tan -0.922810 -0.179800 -0.350301 1.000000
tan -0.875690 0.101928 -0.473929 1.000000
tan -0.922562 -0.134912 -0.373489 1.000000
tan -0.868994 0.133920 -0.487321 1.000000
tan -0.841714 0.113584 -0.527125 1.000000
tan -0.948478 -0.189782 -0.268646 1.000000
tan -0.804514 0.170500 -0.567239 1.000000
tan -0.948726 -0.231322 -0.226238 1.000000
tan -0.813628 0.087978 -0.576973 1.000000
tan -0.968566 -0.156798 -0.159030 1.000000
tan -0.751751 0.135470 -0.642445 1.000000
tan -0.978920 -0.190836 -0.095418 1.000000
tan -0.807490 0.025730 -0.594271 1.000000
tan -0.992312 -0.063364 -0.105400 1.000000
tan -0.714489 0.048484 -0.695021 1.000000
tan -0.998884 -0.078120 -0.011780 1.000000
tan -0.824168 -0.019778 -0.563891 1.000000
tan -0.992312 0.059830 -0.128650 1.000000
tan -0.714489 -0.048484 -0.695021 1.000000
tan -0.998884 0.078120 -0.011780 1.000000
tan -0.861368 -0.017484 -0.514477 1.000000
tan -0.961436 0.146196 -0.233616 1.000000
tan -0.744560 -0.117552 -0.655279 1.000000
tan -0.972038 0.212040 -0.104160 1.000000
tan -0.872590 0.030318 -0.485275 1.000000
tan -0.909976 0.152520 -0.379193 1.000000
tan -0.788518 -0.129828 -0.603509 1.000000
tan -0.926778 0.268770 -0.267159 1.000000
tan -0.809350 -0.075392 -0.581189 1.000000
tan -0.848782 0.073408 -0.525327 1.000000
tan -0.838924 0.043648 -0.535185 1.000000
tan -0.863786 0.226176 -0.450989 1.000000
tan -0.803522 -0.020956 -0.600409 1.000000
tan -0.807986 0.035216 -0.593713 1.000000
tan -0.807986 0.035216 -0.593713 1.000000
tan -0.806188 0.091388 -0.582367 1.000000
tan -0.807986 -0.035216 -0.593713 1.000000
tan -0.807986 -0.035216 -0.593713 1.000000
tan -0.803522 0.020956 -0.600409 1.000000
tan -0.806188 -0.091388 -0.582367 1.000000
tan -0.848782 -0.073408 -0.525327 1.000000
tan -0.838924 -0.043648 -0.535185 1.000000
tan -0.863786 -0.226177 -0.450989 1.000000
tan -0.809350 0.075392 -0.581189 1.000000
tan -0.872590 -0.030318 -0.485275 1.000000
tan -0.909976 -0.152520 -0.379193 1.000000
tan -0.926778 -0.268771 -0.267158 1.000000
tan -0.788518 0.129828 -0.603509 1.000000
tan -0.707111 0.000000 0.707111 1.000000
tan -0.707111 0.000000 0.707111 1.000000
tan -0.701779 0.000000 0.701779 1.000000
tan -0.701779 0.000000 0.701779 1.000000
tan -0.704755 0.000000 0.704755 1.000000
tan -0.704755 0.000000 0.704755 1.000000
tan -0.702957 0.001674 0.710459 1.000000
tan -0.702957 0.001674 0.710459 1.000000
tan -0.708661 0.000000 0.708661 1.000000
tan -0.708661 0.000000 0.708661 1.000000
tan -0.702957 -0.001674 0.710459 1.000000
tan -0.702957 -0.001674 0.710459 1.000000
tan -0.704755 0.000000 0.704755 1.000000
tan -0.704755 0.000000 0.704755 1.000000
tan -0.701779 0.000000 0.701779 1.000000
tan -0.701779 0.000000 0.701779 1.000000
tan -0.707111 0.000000 0.707111 1.000000
tan -0.707111 0.000000 0.707111 1.000000
tan -0.708661 0.000000 0.708661 1.000000
tan -0.708661 0.000000 0.708661 1.000000
tan -0.707111 0.000000 0.707111 1.000000
tan -0.707111 0.000000 0.707111 1.000000
tan -0.701779 0.000000 0.701779 1.000000
tan -0.701779 0.000000 0.701779 1.000000
tan -0.704755 0.000000 0.704755 1.000000
tan -0.704755 0.000000 0.704755 1.000000
tan -0.702957 0.001674 0.710459 1.000000
tan -0.702957 0.001674 0.710459 1.000000
tan -0.708661 0.000000 0.708661 1.000000
tan -0.708661 0.000000 0.708661 1.000000
tan -0.702957 -0.001674 0.710459 1.000000
tan -0.702957 -0.001674 0.710459 1.000000
tan -0.704755 0.000000 0.704755 1.000000
tan -0.704755 0.000000 0.704755 1.000000
tan -0.701779 0.000000 0.701779 1.000000
tan -0.701779 0.000000 0.701779 1.000000
tan -0.707111 0.000000 0.707111 1.000000
tan -0.707111 0.000000 0.707111 1.000000
tan -0.708661 0.000000 0.708661 1.000000
tan -0.708661 0.000000 0.708661 1.000000
tan -0.707111 0.000000 0.707111 1.000000
tan -0.707111 0.000000 0.707111 1.000000
tan 1.002046 0.000000 0.000000 1.000000
tan 1.002046 0.000000 0.000000 1.000000
tan 1.006510 0.000000 0.000000 1.000000
tan 1.006510 0.000000 0.000000 1.000000
tan 1.006510 0.000000 0.000000 1.000000
tan 1.006510 0.000000 0.000000 1.000000
tan 1.002046 0.000000 0.000000 1.000000
tan 1.002046 0.000000 0.000000 1.000000
tan 1.000000 0.000000 0.000000 1.000000
tan 1.000000 0.000000 0.000000 1.000000
tan 1.002046 0.000000 0.000000 1.000000
tan 1.002046 0.000000 0.000000 1.000000
tan 1.006510 0.000000 0.000000 1.000000
tan 1.006510 0.000000 0.000000 1.000000
tan 1.006510 0.000000 0.000000 1.000000
tan 1.006510 0.000000 0.000000 1.000000
tan 1.002046 0.000000 0.000000 1.000000
tan 1.002046 0.000000 0.000000 1.000000
tan 1.000000 0.000000 0.000000 1.000000
tan 1.000000 0.000000 0.000000 1.000000
tan 1.002046 0.000000 0.000000 1.000000
tan 1.002046 0.000000 0.000000 1.000000
tan 1.006510 0.000000 0.000000 1.000000
tan 1.006510 0.000000 0.000000 1.000000
tan 1.006510 0.000000 0.000000 1.000000
tan 1.006510 0.000000 0.000000 1.000000
tan 1.002046 0.000000 0.000000 1.000000
tan 1.002046 0.000000 0.000000 1.000000
tan 1.000000 0.000000 0.000000 1.000000
tan 1.000000 0.000000 0.000000 1.000000
tan 1.002046 0.000000 0.000000 1.000000
tan 1.002046 0.000000 0.000000 1.000000
tan 1.006510 0.000000 0.000000 1.000000
tan 1.006510 0.000000 0.000000 1.000000
tan 1.006510 0.000000 0.000000 1.000000
tan 1.006510 0.000000 0.000000 1.000000
tan 1.002046 0.000000 0.000000 1.000000
tan 1.002046 0.000000 0.000000 1.000000
tan 1.000000 0.000000 0.000000 1.000000
tan 1.000000 0.000000 0.000000 1.000000
tan 1.002046 0.000000 0.000000 1.000000
tan 1.002046 0.000000 0.000000 1.000000
tan -1.006510 0.000000 0.000000 1.000000
tan -1.002046 0.000000 0.000000 1.000000
tan -1.002046 0.000000 0.000000 1.000000
tan -1.006510 0.000000 0.000000 1.000000
tan -1.006510 0.000000 0.000000 1.000000
tan -1.006510 0.000000 0.000000 1.000000
tan -1.002046 0.000000 0.000000 1.000000
tan -1.002046 0.000000 0.000000 1.000000
tan -1.000000 0.000000 0.000000 1.000000
tan -1.000000 0.000000 0.000000 1.000000
tan -1.002046 0.000000 0.000000 1.000000
tan -1.002046 0.000000 0.000000 1.000000
tan -1.006510 0.000000 0.000000 1.000000
tan -1.006510 0.000000 0.000000 1.000000
tan -1.006510 0.000000 0.000000 1.000000
tan -1.006510 0.000000 0.000000 1.000000
tan -1.002046 0.000000 0.000000 1.000000
tan -1.002046 0.000000 0.000000 1.000000
tan -1.000000 0.000000 0.000000 1.000000
tan -1.000000 0.000000 0.000000 1.000000
tan -1.002046 0.000000 0.000000 1.000000
tan -1.002046 0.000000 0.000000 1.000000
tan -1.006510 0.000000 0.000000 1.000000
tan -1.006510 0.000000 0.000000 1.000000
tan -1.006510 0.000000 0.000000 1.000000
tan -1.006510 0.000000 0.000000 1.000000
tan -1.002046 0.000000 0.000000 1.000000
tan -1.002046 0.000000 0.000000 1.000000
tan -1.000000 0.000000 0.000000 1.000000
tan -1.000000 0.000000 0.000000 1.000000
tan -1.002046 0.000000 0.000000 1.000000
tan -1.002046 0.000000 0.000000 1.000000
tan -1.006510 0.000000 0.000000 1.000000
tan -1.006510 0.000000 0.000000 1.000000
tan -1.006510 0.000000 0.000000 1.000000
tan -1.006510 0.000000 0.000000 1.000000
tan -1.002046 0.000000 0.000000 1.000000
tan -1.002046 0.000000 0.000000 1.000000
tan -1.000000 0.000000 0.000000 1.000000
tan -1.000000 0.000000 0.000000 1.000000
tan -1.002046 0.000000 0.000000 1.000000
tan -1.002046 0.000000 0.000000 1.000000
tan 0.707111 0.000000 0.707111 1.000000
tan 0.701779 0.000000 0.701779 1.000000
tan 0.707111 0.000000 0.707111 1.000000
tan 0.701779 0.000000 0.701779 1.000000
tan 0.704755 0.000000 0.704755 1.000000
tan 0.704755 0.000000 0.704755 1.000000
tan 0.702957 0.001674 0.710459 1.000000
tan 0.702957 0.001674 0.710459 1.000000
tan 0.708661 0.000000 0.708661 1.000000
tan 0.708661 0.000000 0.708661 1.000000
tan 0.702957 -0.001674 0.710459 1.000000
tan 0.702957 -0.001674 0.710459 1.000000
tan 0.704755 0.000000 0.704755 1.000000
tan 0.704755 0.000000 0.704755 1.000000
tan 0.701779 0.000000 0.701779 1.000000
tan 0.701779 0.000000 0.701779 1.000000
tan 0.707111 0.000000 0.707111 1.000000
tan 0.707111 0.000000 0.707111 1.000000
tan 0.708661 0.000000 0.708661 1.000000
tan 0.708661 0.000000 0.708661 1.000000
tan 0.707111 0.000000 0.707111 1.000000
tan 0.707111 0.000000 0.707111 1.000000
tan 0.701779 0.000000 0.701779 1.000000
tan 0.701779 0.000000 0.701779 1.000000
tan 0.704755 0.000000 0.704755 1.000000
tan 0.704755 0.000000 0.704755 1.000000
tan 0.702957 0.001674 0.710459 1.000000
tan 0.702957 0.001674 0.710459 1.000000
tan 0.708661 0.000000 0.708661 1.000000
tan 0.708661 0.000000 0.708661 1.000000
tan 0.702957 -0.001674 0.710459 1.000000
tan 0.702957 -0.001674 0.710459 1.000000
tan 0.704755 0.000000 0.704755 1.000000
tan 0.704755 0.000000 0.704755 1.000000
tan 0.701779 0.000000 0.701779 1.000000
tan 0.701779 0.000000 0.701779 1.000000
tan 0.707111 0.000000 0.707111 1.000000
tan 0.707111 0.000000 0.707111 1.000000
tan 0.708661 0.000000 0.708661 1.000000
tan 0.708661 0.000000 0.708661 1.000000
tan 0.707111 0.000000 0.707111 1.000000
tan 0.707111 0.000000 0.707111 1.000000
f 3/3/3 2/2/2 1/1/1
f 2/2/2 4/4/4 1/1/1
f 7/7/7 6/6/6 5/5/5
f 6/6/6 8/8/8 5/5/5
f 11/11/11 10/10/10 9/9/9
f 10/10/10 12/12/12 9/9/9
f 15/15/15 14/14/14 13/13/13
f 16/16/16 15/15/15 13/13/13
f 19/19/19 18/18/18 17/17/17
f 20/20/20 19/19/19 17/17/17
f 23/23/23 22/22/22 21/21/21
f 24/24/24 21/21/21 22/22/22
f 27/27/27 26/26/26 25/25/25
f 28/28/28 25/25/25 26/26/26
f 31/31/31 30/30/30 29/29/29
f 32/32/32 29/29/29 30/30/30
f 35/35/35 34/34/34 33/33/33
f 36/36/36 35/35/35 33/33/33
f 39/39/39 38/38/38 37/37/37
f 40/40/40 37/37/37 38/38/38
f 43/43/43 42/42/42 41/41/41
f 44/44/44 41/41/41 42/42/42
f 47/47/47 46/46/46 45/45/45
f 48/48/48 45/45/45 46/46/46
f 51/51/51 50/50/50 49/49/49
f 52/52/52 49/49/49 50/50/50
f 55/55/55 54/54/54 53/53/53
f 56/56/56 53/53/53 54/54/54
f 59/59/59 58/58/58 57/57/57
f 60/60/60 57/57/57 58/58/58
f 63/63/63 62/62/62 61/61/61
f 64/64/64 62/62/62 63/63/63
f 67/67/67 66/66/66 65/65/65
f 68/68/68 65/65/65 66/66/66
f 71/71/71 70/70/70 69/69/69
f 72/72/72 69/69/69 70/70/70
f 75/75/75 74/74/74 73/73/73
f 76/76/76 73/73/73 74/74/74
f 79/79/79 78/78/78 77/77/77
f 78/78/78 80/80/80 77/77/77
f 83/83/83 82/82/82 81/81/81
f 81/81/81 82/82/82 84/84/84
f 87/87/87 86/86/86 85/85/85
f 85/85/85 86/86/86 88/88/88
f 91/91/91 90/90/90 89/89/89
f 89/89/89 90/90/90 92/92/92
f 95/95/95 94/94/94 93/93/93
f 93/93/93 94/94/94 96/96/96
f 99/99/99 98/98/98 97/97/97
f 97/97/97 98/98/98 100/100/100
f 103/103/103 102/102/102 101/101/101
f 104/104/104 101/101/101 102/102/102
f 107/107/107 106/106/106 105/105/105
f 108/108/108 105/105/105 106/106/106
f 111/111/111 110/110/110 109/109/109
f 110/110/110 111/111/111 112/112/112
f 115/115/115 114/114/114 113/113/113
f 114/114/114 115/115/115 116/116/116
f 119/119/119 118/118/118 117/117/117
f 120/120/120 117/117/117 118/118/118
f 123/123/123 122/122/122 121/121/121
f 124/124/124 121/121/121 122/122/122
f 127/127/127 126/126/126 125/125/125
f 128/128/128 125/125/125 126/126/126
f 131/131/131 130/130/130 129/129/129
f 132/132/132 129/129/129 130/130/130
f 135/135/135 134/134/134 133/133/133
f 136/136/136 133/133/133 134/134/134
f 139/139/139 138/138/138 137/137/137
f 140/140/140 137/137/137 138/138/138
f 143/143/143 142/142/142 141/141/141
f 143/143/143 144/144/144 142/142/142
f 147/147/147 146/146/146 145/145/145
f 147/147/147 148/148/148 146/146/146
f 151/151/151 150/150/150 149/149/149
f 152/152/152 149/149/149 150/150/150
f 155/155/155 154/154/154 153/153/153
f 156/156/156 153/153/153 154/154/154
f 159/159/159 158/158/158 157/157/157
f 157/157/157 158/158/158 160/160/160
f 163/163/163 162/162/162 161/161/161
f 161/161/161 164/164/164 163/163/163
f 165/165/165 163/163/163 164/164/164
f 164/164/164 166/166/166 165/165/165
f 165/165/165 166/166/166 167/167/167
f 166/166/166 168/168/168 167/167/167
f 167/167/167 168/168/168 169/169/169
f 170/170/170 169/169/169 168/168/168
f 170/170/170 171/171/171 169/169/169
f 172/172/172 169/169/169 171/171/171
f 171/171/171 173/173/173 172/172/172
f 174/174/174 172/172/172 173/173/173
f 173/173/173 175/175/175 174/174/174
f 176/176/176 174/174/174 175/175/175
f 175/175/175 177/177/177 176/176/176
f 178/178/178 176/176/176 177/177/177
f 177/177/177 179/179/179 178/178/178
f 180/180/180 178/178/178 179/179/179
f 179/179/179 181/181/181 180/180/180
f 182/182/182 180/180/180 181/181/181
f 181/181/181 183/183/183 182/182/182
f 184/184/184 182/182/182 183/183/183
f 183/183/183 185/185/185 184/184/184
f 186/186/186 184/184/184 185/185/185
f 185/185/185 187/187/187 186/186/186
f 188/188/188 186/186/186 187/187/187
f 187/187/187 189/189/189 188/188/188
f 190/190/190 188/188/188 189/189/189
f 190/190/190 189/189/189 191/191/191
f 192/192/192 191/191/191 189/189/189
f 191/191/191 192/192/192 193/193/193
f 192/192/192 194/194/194 193/193/193
f 195/195/195 193/193/193 194/194/194
f 194/194/194 196/196/196 195/195/195
f 197/197/197 195/195/195 196/196/196
f 196/196/196 198/198/198 197/197/197
f 199/199/199 197/197/197 198/198/198
f 198/198/198 200/200/200 199/199/199
f 201/201/201 199/199/199 200/200/200
f 200/200/200 202/202/202 201/201/201
f 205/205/205 204/204/204 203/203/203
f 204/204/204 205/205/205 206/206/206
f 205/205/205 207/207/207 206/206/206
f 208/208/208 206/206/206 207/207/207
f 207/207/207 209/209/209 208/208/208
f 210/210/210 208/208/208 209/209/209
f 209/209/209 211/211/211 210/210/210
f 212/212/212 210/210/210 211/211/211
f 211/211/211 213/213/213 212/212/212
f 214/214/214 212/212/212 213/213/213
f 213/213/213 215/215/215 214/214/214
f 216/216/216 214/214/214 215/215/215
f 215/215/215 217/217/217 216/216/216
f 218/218/218 216/216/216 217/217/217
f 217/217/217 219/219/219 218/218/218
f 220/220/220 218/218/218 219/219/219
f 219/219/219 221/221/221 220/220/220
f 222/222/222 220/220/220 221/221/221
f 221/221/221 223/223/223 222/222/222
f 224/224/224 222/222/222 223/223/223
f 223/223/223 225/225/225 224/224/224
f 226/226/226 224/224/224 225/225/225
f 225/225/225 227/227/227 226/226/226
f 228/228/228 226/226/226 227/227/227
f 227/227/227 229/229/229 228/228/228
f 230/230/230 228/228/228 229/229/229
f 229/229/229 231/231/231 230/230/230
f 232/232/232 230/230/230 231/231/231
f 231/231/231 233/233/233 232/232/232
f 234/234/234 232/232/232 233/233/233
f 233/233/233 235/235/235 234/234/234
f 236/236/236 234/234/234 235/235/235
f 235/235/235 237/237/237 236/236/236
f 238/238/238 236/236/236 237/237/237
f 239/239/239 238/238/238 237/237/237
f 238/238/238 239/239/239 240/240/240
f 241/241/241 240/240/240 239/239/239
f 240/240/240 241/241/241 242/242/242
f 243/243/243 242/242/242 241/241/241
f 242/242/242 243/243/243 244/244/244
f 247/247/247 246/246/246 245/245/245
f 248/248/248 245/245/245 246/246/246
f 245/245/245 248/248/248 249/249/249
f 248/248/248 250/250/250 249/249/249
f 249/249/249 250/250/250 251/251/251
f 250/250/250 252/252/252 251/251/251
f 251/251/251 252/252/252 253/253/253
f 252/252/252 254/254/254 253/253/253
f 253/253/253 254/254/254 255/255/255
f 254/254/254 256/256/256 255/255/255
f 255/255/255 256/256/256 257/257/257
f 256/256/256 258/258/258 257/257/257
f 257/257/257 258/258/258 259/259/259
f 258/258/258 260/260/260 259/259/259
f 259/259/259 260/260/260 261/261/261
f 260/260/260 262/262/262 261/261/261
f 261/261/261 262/262/262 263/263/263
f 262/262/262 264/264/264 263/263/263
f 263/263/263 264/264/264 265/265/265
f 264/264/264 266/266/266 265/265/265
f 265/265/265 266/266/266 267/267/267
f 266/266/266 268/268/268 267/267/267
f 267/267/267 268/268/268 269/269/269
f 268/268/268 270/270/270 269/269/269
f 269/269/269 270/270/270 271/271/271
f 270/270/270 272/272/272 271/271/271
f 271/271/271 272/272/272 273/273/273
f 272/272/272 274/274/274 273/273/273
f 273/273/273 274/274/274 275/275/275
f 274/274/274 276/276/276 275/275/275
f 275/275/275 276/276/276 277/277/277
f 276/276/276 278/278/278 277/277/277
f 277/277/277 278/278/278 279/279/279
f 278/278/278 280/280/280 279/279/279
f 279/279/279 280/280/280 281/281/281
f 282/282/282 281/281/281 280/280/280
f 281/281/281 282/282/282 283/283/283
f 284/284/284 283/283/283 282/282/282
f 283/283/283 284/284/284 285/285/285
f 286/286/286 285/285/285 284/284/284
f 289/289/289 288/288/288 287/287/287
f 290/290/290 287/287/287 288/288/288
f 288/288/288 291/291/291 290/290/290
f 292/292/292 290/290/290 291/291/291
f 293/293/293 292/292/292 291/291/291
f 294/294/294 292/292/292 293/293/293
f 295/295/295 294/294/294 293/293/293
f 296/296/296 294/294/294 295/295/295
f 296/296/296 295/295/295 297/297/297
f 298/298/298 297/297/297 295/295/295
f 297/297/297 298/298/298 299/299/299
f 300/300/300 299/299/299 298/298/298
f 299/299/299 300/300/300 301/301/301
f 302/302/302 301/301/301 300/300/300
f 301/301/301 302/302/302 303/303/303
f 304/304/304 303/303/303 302/302/302
f 303/303/303 304/304/304 305/305/305
f 306/306/306 305/305/305 304/304/304
f 305/305/305 306/306/306 307/307/307
f 308/308/308 307/307/307 306/306/306
f 307/307/307 308/308/308 309/309/309
f 310/310/310 309/309/309 308/308/308
f 309/309/309 310/310/310 311/311/311
f 312/312/312 311/311/311 310/310/310
f 311/311/311 312/312/312 313/313/313
f 314/314/314 313/313/313 312/312/312
f 313/313/313 314/314/314 315/315/315
f 316/316/316 315/315/315 314/314/314
f 317/317/317 315/315/315 316/316/316
f 318/318/318 315/315/315 317/317/317
f 319/319/319 318/318/318 317/317/317
f 320/320/320 318/318/318 319/319/319
f 319/319/319 321/321/321 320/320/320
f 322/322/322 320/320/320 321/321/321
f 321/321/321 323/323/323 322/322/322
f 324/324/324 322/322/322 323/323/323
f 323/323/323 325/325/325 324/324/324
f 326/326/326 324/324/324 325/325/325
f 325/325/325 327/327/327 326/326/326
f 328/328/328 326/326/326 327/327/327
