mtllib SM_Curtain_Rod_02_LOD1@000002909DC4F200.mtl
g SM_Curtain_Rod_02_LOD1@000002909DC4F200
#Vertices 172
#Indices 360
#Section 0 Offset 0 NumIndices 360 MaterialIndex 0 MI_MetalTile_A_03
v -2.536015 6.875230 0.700025 1.000000 1.000000 1.000000 1.000000
v -2.509600 6.905746 0.711005 1.000000 1.000000 1.000000 1.000000
v -2.500553 6.875194 0.678918 1.000000 1.000000 1.000000 1.000000
v -2.500557 6.979761 0.696374 1.000000 1.000000 1.000000 1.000000
v -2.507785 6.943525 0.716458 1.000000 1.000000 1.000000 1.000000
v -2.524718 6.979025 0.711478 1.000000 1.000000 1.000000 1.000000
v 2.601336 6.953186 0.637211 1.000000 1.000000 1.000000 1.000000
v 2.498413 6.943454 0.585864 1.000000 1.000000 1.000000 1.000000
v 2.603527 6.933332 0.635012 1.000000 1.000000 1.000000 1.000000
v 2.509600 6.905746 0.711005 1.000000 1.000000 1.000000 1.000000
v 2.536015 6.875230 0.700025 1.000000 1.000000 1.000000 1.000000
v 2.500553 6.875194 0.678918 1.000000 1.000000 1.000000 1.000000
v 2.507785 6.943525 0.716458 1.000000 1.000000 1.000000 1.000000
v 2.500557 6.979761 0.696374 1.000000 1.000000 1.000000 1.000000
v 2.524718 6.979025 0.711478 1.000000 1.000000 1.000000 1.000000
v -2.544940 6.994435 0.693819 1.000000 1.000000 1.000000 1.000000
v -2.500557 6.979761 0.696374 1.000000 1.000000 1.000000 1.000000
v -2.524718 6.979025 0.711478 1.000000 1.000000 1.000000 1.000000
v -2.500000 6.994435 0.669781 1.000000 1.000000 1.000000 1.000000
v -2.564430 6.998186 0.671665 1.000000 1.000000 1.000000 1.000000
v -2.500000 6.994435 0.669781 1.000000 1.000000 1.000000 1.000000
v -2.544940 6.994435 0.693819 1.000000 1.000000 1.000000 1.000000
v -2.500014 6.997722 0.638946 1.000000 1.000000 1.000000 1.000000
v -2.589592 6.980063 0.647013 1.000000 1.000000 1.000000 1.000000
v -2.499183 6.979230 0.603300 1.000000 1.000000 1.000000 1.000000
v -2.500014 6.997722 0.638946 1.000000 1.000000 1.000000 1.000000
v -2.564430 6.998186 0.671665 1.000000 1.000000 1.000000 1.000000
v -2.589592 6.980063 0.647013 1.000000 1.000000 1.000000 1.000000
v -2.500000 6.953186 0.588825 1.000000 1.000000 1.000000 1.000000
v -2.499183 6.979230 0.603300 1.000000 1.000000 1.000000 1.000000
v -2.601336 6.953186 0.637211 1.000000 1.000000 1.000000 1.000000
v -2.601336 6.953186 0.637211 1.000000 1.000000 1.000000 1.000000
v -2.500000 6.933332 0.585681 1.000000 1.000000 1.000000 1.000000
v -2.500000 6.953186 0.588825 1.000000 1.000000 1.000000 1.000000
v -2.603527 6.933332 0.635012 1.000000 1.000000 1.000000 1.000000
v -2.601336 6.913479 0.637211 1.000000 1.000000 1.000000 1.000000
v -2.500000 6.933332 0.585681 1.000000 1.000000 1.000000 1.000000
v -2.603527 6.933332 0.635012 1.000000 1.000000 1.000000 1.000000
v -2.500000 6.913479 0.588825 1.000000 1.000000 1.000000 1.000000
v -2.500000 6.913479 0.588825 1.000000 1.000000 1.000000 1.000000
v -2.601336 6.913479 0.637211 1.000000 1.000000 1.000000 1.000000
v -2.589582 6.886611 0.647006 1.000000 1.000000 1.000000 1.000000
v -2.498877 6.887874 0.602947 1.000000 1.000000 1.000000 1.000000
v -2.589582 6.886611 0.647006 1.000000 1.000000 1.000000 1.000000
v -2.500013 6.869387 0.639052 1.000000 1.000000 1.000000 1.000000
v -2.498877 6.887874 0.602947 1.000000 1.000000 1.000000 1.000000
v -2.564479 6.868250 0.672000 1.000000 1.000000 1.000000 1.000000
v -2.564479 6.868250 0.672000 1.000000 1.000000 1.000000 1.000000
v -2.500553 6.875194 0.678918 1.000000 1.000000 1.000000 1.000000
v -2.500013 6.869387 0.639052 1.000000 1.000000 1.000000 1.000000
v -2.536015 6.875230 0.700025 1.000000 1.000000 1.000000 1.000000
v 2.544940 6.994435 0.693819 1.000000 1.000000 1.000000 1.000000
v 2.500557 6.979761 0.696374 1.000000 1.000000 1.000000 1.000000
v 2.500000 6.994435 0.669781 1.000000 1.000000 1.000000 1.000000
v 2.524718 6.979025 0.711478 1.000000 1.000000 1.000000 1.000000
v 2.564430 6.998186 0.671665 1.000000 1.000000 1.000000 1.000000
v 2.500000 6.994435 0.669781 1.000000 1.000000 1.000000 1.000000
v 2.500014 6.997722 0.638946 1.000000 1.000000 1.000000 1.000000
v 2.544940 6.994435 0.693819 1.000000 1.000000 1.000000 1.000000
v 2.589592 6.980063 0.647013 1.000000 1.000000 1.000000 1.000000
v 2.500014 6.997722 0.638946 1.000000 1.000000 1.000000 1.000000
v 2.499183 6.979230 0.603300 1.000000 1.000000 1.000000 1.000000
v 2.564430 6.998186 0.671665 1.000000 1.000000 1.000000 1.000000
v 2.498413 6.943454 0.585864 1.000000 1.000000 1.000000 1.000000
v 2.589592 6.980063 0.647013 1.000000 1.000000 1.000000 1.000000
v 2.499183 6.979230 0.603300 1.000000 1.000000 1.000000 1.000000
v 2.601336 6.953186 0.637211 1.000000 1.000000 1.000000 1.000000
v 2.500000 6.913479 0.588825 1.000000 1.000000 1.000000 1.000000
v 2.601336 6.913479 0.637211 1.000000 1.000000 1.000000 1.000000
v 2.498413 6.943454 0.585864 1.000000 1.000000 1.000000 1.000000
v 2.603527 6.933332 0.635012 1.000000 1.000000 1.000000 1.000000
v 2.498877 6.887874 0.602947 1.000000 1.000000 1.000000 1.000000
v 2.589582 6.886611 0.647006 1.000000 1.000000 1.000000 1.000000
v 2.500000 6.913479 0.588825 1.000000 1.000000 1.000000 1.000000
v 2.601336 6.913479 0.637211 1.000000 1.000000 1.000000 1.000000
v 2.589582 6.886611 0.647006 1.000000 1.000000 1.000000 1.000000
v 2.500013 6.869387 0.639052 1.000000 1.000000 1.000000 1.000000
v 2.564479 6.868250 0.672000 1.000000 1.000000 1.000000 1.000000
v 2.498877 6.887874 0.602947 1.000000 1.000000 1.000000 1.000000
v 2.564479 6.868250 0.672000 1.000000 1.000000 1.000000 1.000000
v 2.500553 6.875194 0.678918 1.000000 1.000000 1.000000 1.000000
v 2.536015 6.875230 0.700025 1.000000 1.000000 1.000000 1.000000
v 2.500013 6.869387 0.639052 1.000000 1.000000 1.000000 1.000000
v -4.406066 6.998173 2.563099 1.000000 1.000000 1.000000 1.000000
v -2.544940 6.994435 0.693819 1.000000 1.000000 1.000000 1.000000
v -2.524718 6.979025 0.711478 1.000000 1.000000 1.000000 1.000000
v -4.386827 6.977009 2.582413 1.000000 1.000000 1.000000 1.000000
v -2.507785 6.943525 0.716458 1.000000 1.000000 1.000000 1.000000
v -4.374458 6.931139 2.594830 1.000000 1.000000 1.000000 1.000000
v -2.509600 6.905746 0.711005 1.000000 1.000000 1.000000 1.000000
v -4.392596 6.879999 2.576623 1.000000 1.000000 1.000000 1.000000
v -2.536015 6.875230 0.700025 1.000000 1.000000 1.000000 1.000000
v -4.426265 6.868892 2.542825 1.000000 1.000000 1.000000 1.000000
v -2.564479 6.868250 0.672000 1.000000 1.000000 1.000000 1.000000
v -4.454993 6.889163 2.513991 1.000000 1.000000 1.000000 1.000000
v -2.589582 6.886611 0.647006 1.000000 1.000000 1.000000 1.000000
v -2.601336 6.913479 0.637211 1.000000 1.000000 1.000000 1.000000
v -4.465230 6.933333 2.503715 1.000000 1.000000 1.000000 1.000000
v -2.603527 6.933332 0.635012 1.000000 1.000000 1.000000 1.000000
v -2.601336 6.953186 0.637211 1.000000 1.000000 1.000000 1.000000
v -4.454993 6.977503 2.513991 1.000000 1.000000 1.000000 1.000000
v -2.589592 6.980063 0.647013 1.000000 1.000000 1.000000 1.000000
v -2.564430 6.998186 0.671665 1.000000 1.000000 1.000000 1.000000
v -4.406066 6.998173 2.563099 1.000000 1.000000 1.000000 1.000000
v -2.544940 6.994435 0.693819 1.000000 1.000000 1.000000 1.000000
v 0.000000 6.994435 0.669781 1.000000 1.000000 1.000000 1.000000
v 2.500000 6.994435 0.669781 1.000000 1.000000 1.000000 1.000000
v -0.000000 6.980451 0.694946 1.000000 1.000000 1.000000 1.000000
v 2.500557 6.979761 0.696374 1.000000 1.000000 1.000000 1.000000
v 0.000000 6.946846 0.713464 1.000000 1.000000 1.000000 1.000000
v 2.507785 6.943525 0.716458 1.000000 1.000000 1.000000 1.000000
v 0.000000 6.899364 0.707960 1.000000 1.000000 1.000000 1.000000
v 2.509600 6.905746 0.711005 1.000000 1.000000 1.000000 1.000000
v 2.500553 6.875194 0.678918 1.000000 1.000000 1.000000 1.000000
v -0.000000 6.869797 0.663441 1.000000 1.000000 1.000000 1.000000
v 2.500013 6.869387 0.639052 1.000000 1.000000 1.000000 1.000000
v -0.000000 6.875809 0.615966 1.000000 1.000000 1.000000 1.000000
v 2.498877 6.887874 0.602947 1.000000 1.000000 1.000000 1.000000
v 0.000000 6.919819 0.586391 1.000000 1.000000 1.000000 1.000000
v 2.500000 6.913479 0.588825 1.000000 1.000000 1.000000 1.000000
v 2.498413 6.943454 0.585864 1.000000 1.000000 1.000000 1.000000
v -0.000000 6.967294 0.592404 1.000000 1.000000 1.000000 1.000000
v 2.499183 6.979230 0.603300 1.000000 1.000000 1.000000 1.000000
v -0.000000 6.996869 0.636414 1.000000 1.000000 1.000000 1.000000
v 2.500014 6.997722 0.638946 1.000000 1.000000 1.000000 1.000000
v 0.000000 6.994435 0.669781 1.000000 1.000000 1.000000 1.000000
v 2.500000 6.994435 0.669781 1.000000 1.000000 1.000000 1.000000
v 4.406066 6.998173 2.563099 1.000000 1.000000 1.000000 1.000000
v 2.544940 6.994435 0.693819 1.000000 1.000000 1.000000 1.000000
v 2.564430 6.998186 0.671665 1.000000 1.000000 1.000000 1.000000
v 4.454993 6.977503 2.513991 1.000000 1.000000 1.000000 1.000000
v 2.589592 6.980063 0.647013 1.000000 1.000000 1.000000 1.000000
v 2.601336 6.953186 0.637211 1.000000 1.000000 1.000000 1.000000
v 4.465230 6.933333 2.503715 1.000000 1.000000 1.000000 1.000000
v 2.603527 6.933332 0.635012 1.000000 1.000000 1.000000 1.000000
v 2.601336 6.913479 0.637211 1.000000 1.000000 1.000000 1.000000
v 4.454993 6.889163 2.513991 1.000000 1.000000 1.000000 1.000000
v 2.589582 6.886611 0.647006 1.000000 1.000000 1.000000 1.000000
v 2.564479 6.868250 0.672000 1.000000 1.000000 1.000000 1.000000
v 4.426265 6.868892 2.542825 1.000000 1.000000 1.000000 1.000000
v 2.536015 6.875230 0.700025 1.000000 1.000000 1.000000 1.000000
v 4.392596 6.879999 2.576623 1.000000 1.000000 1.000000 1.000000
v 2.509600 6.905746 0.711005 1.000000 1.000000 1.000000 1.000000
v 4.374458 6.931139 2.594830 1.000000 1.000000 1.000000 1.000000
v 2.507785 6.943525 0.716458 1.000000 1.000000 1.000000 1.000000
v 4.386827 6.977009 2.582413 1.000000 1.000000 1.000000 1.000000
v 2.524718 6.979025 0.711478 1.000000 1.000000 1.000000 1.000000
v 4.406066 6.998173 2.563099 1.000000 1.000000 1.000000 1.000000
v 2.544940 6.994435 0.693819 1.000000 1.000000 1.000000 1.000000
v -0.000000 6.980451 0.694946 1.000000 1.000000 1.000000 1.000000
v -2.500000 6.994435 0.669781 1.000000 1.000000 1.000000 1.000000
v 0.000000 6.994435 0.669781 1.000000 1.000000 1.000000 1.000000
v -2.500557 6.979761 0.696374 1.000000 1.000000 1.000000 1.000000
v 0.000000 6.946846 0.713464 1.000000 1.000000 1.000000 1.000000
v -2.507785 6.943525 0.716458 1.000000 1.000000 1.000000 1.000000
v 0.000000 6.899364 0.707960 1.000000 1.000000 1.000000 1.000000
v -2.509600 6.905746 0.711005 1.000000 1.000000 1.000000 1.000000
v -2.500553 6.875194 0.678918 1.000000 1.000000 1.000000 1.000000
v -0.000000 6.869797 0.663441 1.000000 1.000000 1.000000 1.000000
v -2.500013 6.869387 0.639052 1.000000 1.000000 1.000000 1.000000
v -0.000000 6.875809 0.615966 1.000000 1.000000 1.000000 1.000000
v -2.498877 6.887874 0.602947 1.000000 1.000000 1.000000 1.000000
v 0.000000 6.919819 0.586391 1.000000 1.000000 1.000000 1.000000
v -2.500000 6.913479 0.588825 1.000000 1.000000 1.000000 1.000000
v -2.500000 6.933332 0.585681 1.000000 1.000000 1.000000 1.000000
v -0.000000 6.967294 0.592404 1.000000 1.000000 1.000000 1.000000
v -2.500000 6.953186 0.588825 1.000000 1.000000 1.000000 1.000000
v -2.499183 6.979230 0.603300 1.000000 1.000000 1.000000 1.000000
v -0.000000 6.996869 0.636414 1.000000 1.000000 1.000000 1.000000
v -2.500014 6.997722 0.638946 1.000000 1.000000 1.000000 1.000000
v 0.000000 6.994435 0.669781 1.000000 1.000000 1.000000 1.000000
v -2.500000 6.994435 0.669781 1.000000 1.000000 1.000000 1.000000
vt 0.468506 0.696533
vt 0.443848 0.461426
vt 0.468750 0.299805
vt 0.393555 0.288574
vt 0.417969 0.489258
vt 0.394043 0.677246
vt 0.562012 0.688477
vt 0.556152 0.307129
vt 0.549805 0.688477
vt 0.443848 0.461426
vt 0.468506 0.696533
vt 0.468750 0.299805
vt 0.417969 0.489258
vt 0.393555 0.288574
vt 0.394043 0.677246
vt 0.375000 0.688477
vt 0.393555 0.344727
vt 0.394043 0.668213
vt 0.375000 0.312500
vt 0.605469 0.707031
vt 0.624512 0.312500
vt 0.624512 0.688477
vt 0.605469 0.312012
vt 0.581055 0.695557
vt 0.581055 0.305664
vt 0.605469 0.327148
vt 0.605957 0.678467
vt 0.581543 0.674561
vt 0.562012 0.312500
vt 0.581055 0.311523
vt 0.562012 0.688477
vt 0.562012 0.688477
vt 0.549805 0.312500
vt 0.562012 0.312500
vt 0.549805 0.688477
vt 0.537109 0.688477
vt 0.549805 0.312500
vt 0.549805 0.688477
vt 0.537109 0.312500
vt 0.537109 0.312500
vt 0.537109 0.688477
vt 0.518066 0.674561
vt 0.519043 0.310547
vt 0.518555 0.695557
vt 0.494385 0.327637
vt 0.519043 0.304199
vt 0.493408 0.679932
vt 0.493896 0.702393
vt 0.469238 0.338379
vt 0.493896 0.303223
vt 0.468262 0.672363
vt 0.375000 0.688477
vt 0.393555 0.344727
vt 0.375000 0.312500
vt 0.394043 0.668213
vt 0.605469 0.707031
vt 0.624512 0.312500
vt 0.605469 0.312012
vt 0.624512 0.688477
vt 0.581055 0.695557
vt 0.605469 0.327148
vt 0.581055 0.305664
vt 0.605957 0.678467
vt 0.556152 0.305176
vt 0.581543 0.674561
vt 0.581055 0.311523
vt 0.562012 0.688477
vt 0.537109 0.312500
vt 0.537109 0.688477
vt 0.556152 0.308594
vt 0.549805 0.688477
vt 0.519043 0.310547
vt 0.518066 0.674561
vt 0.537109 0.312500
vt 0.537109 0.688477
vt 0.518555 0.695557
vt 0.494385 0.327637
vt 0.493408 0.679932
vt 0.519043 0.304199
vt 0.493896 0.702393
vt 0.469238 0.338379
vt 0.468262 0.672363
vt 0.493896 0.303223
vt 0.374023 0.312500
vt 0.375000 0.688477
vt 0.394287 0.688721
vt 0.395508 0.312500
vt 0.418457 0.689941
vt 0.426270 0.312500
vt 0.442627 0.690430
vt 0.461670 0.312500
vt 0.468018 0.688721
vt 0.492432 0.312988
vt 0.493164 0.688721
vt 0.520996 0.312500
vt 0.518066 0.688721
vt 0.537109 0.688477
vt 0.549805 0.312500
vt 0.549805 0.688477
vt 0.562012 0.688477
vt 0.578613 0.312500
vt 0.581543 0.688721
vt 0.606445 0.688721
vt 0.624512 0.312500
vt 0.624512 0.688477
vt 0.375000 0.688477
vt 0.375000 0.312500
vt 0.392822 0.688477
vt 0.393555 0.312500
vt 0.416504 0.688477
vt 0.418701 0.311523
vt 0.446045 0.688477
vt 0.441650 0.311523
vt 0.468994 0.312500
vt 0.479004 0.688477
vt 0.494141 0.312500
vt 0.508789 0.688477
vt 0.519043 0.312988
vt 0.541504 0.688477
vt 0.537109 0.312500
vt 0.556152 0.312988
vt 0.571289 0.688477
vt 0.580566 0.312988
vt 0.604004 0.688477
vt 0.605469 0.312500
vt 0.624512 0.688477
vt 0.624512 0.312500
vt 0.624512 0.312500
vt 0.624512 0.688477
vt 0.606445 0.688721
vt 0.578613 0.312500
vt 0.581543 0.688721
vt 0.562012 0.688477
vt 0.549805 0.312500
vt 0.549805 0.688477
vt 0.537109 0.688477
vt 0.520996 0.312500
vt 0.518066 0.688721
vt 0.493164 0.688721
vt 0.492432 0.312988
vt 0.468018 0.688721
vt 0.461670 0.312500
vt 0.442627 0.690430
vt 0.426270 0.312500
vt 0.418457 0.689941
vt 0.395508 0.312500
vt 0.394287 0.688721
vt 0.374023 0.312500
vt 0.375000 0.688477
vt 0.392822 0.688477
vt 0.375000 0.312500
vt 0.375000 0.688477
vt 0.393555 0.312500
vt 0.416504 0.688477
vt 0.418701 0.311523
vt 0.446045 0.688477
vt 0.441650 0.311523
vt 0.468994 0.312500
vt 0.479004 0.688477
vt 0.494141 0.312500
vt 0.508789 0.688477
vt 0.519043 0.312988
vt 0.541504 0.688477
vt 0.537109 0.312500
vt 0.549805 0.312500
vt 0.571289 0.688477
vt 0.562012 0.312500
vt 0.580566 0.312988
vt 0.604004 0.688477
vt 0.605469 0.312500
vt 0.624512 0.688477
vt 0.624512 0.312500
vt1 0.772949 0.944092
vt1 0.758301 0.928772
vt1 0.773438 0.918213
vt1 0.728516 0.917542
vt1 0.743164 0.930603
vt1 0.729004 0.942841
vt1 0.829102 0.991936
vt1 0.825195 0.967102
vt1 0.821777 0.991936
vt1 0.758301 0.977142
vt1 0.772949 0.992458
vt1 0.773438 0.966583
vt1 0.743164 0.978958
vt1 0.728516 0.965881
vt1 0.729004 0.991203
vt1 0.717285 0.943573
vt1 0.728516 0.921143
vt1 0.729004 0.942230
vt1 0.717285 0.919067
vt1 0.854492 0.944763
vt1 0.866211 0.919067
vt1 0.866211 0.943573
vt1 0.854492 0.919006
vt1 0.840332 0.944031
vt1 0.839844 0.918640
vt1 0.854492 0.920044
vt1 0.854980 0.942902
vt1 0.840332 0.942657
vt1 0.829102 0.919067
vt1 0.839844 0.919006
vt1 0.829102 0.943573
vt1 0.829102 0.943573
vt1 0.821777 0.919067
vt1 0.829102 0.919067
vt1 0.821777 0.943573
vt1 0.813965 0.943573
vt1 0.821777 0.919067
vt1 0.821777 0.943573
vt1 0.813965 0.919067
vt1 0.813965 0.919067
vt1 0.813965 0.943573
vt1 0.802734 0.942657
vt1 0.803223 0.918945
vt1 0.802734 0.944031
vt1 0.788574 0.920044
vt1 0.803223 0.918518
vt1 0.788086 0.942993
vt1 0.788086 0.944458
vt1 0.773438 0.920715
vt1 0.788086 0.918457
vt1 0.772949 0.942505
vt1 0.717285 0.991936
vt1 0.728516 0.969528
vt1 0.717285 0.967438
vt1 0.729004 0.990616
vt1 0.854492 0.993145
vt1 0.866211 0.967438
vt1 0.854492 0.967407
vt1 0.866211 0.991936
vt1 0.840332 0.992397
vt1 0.854492 0.968414
vt1 0.839844 0.966980
vt1 0.854980 0.991287
vt1 0.825195 0.966949
vt1 0.840332 0.991035
vt1 0.839844 0.967377
vt1 0.829102 0.991936
vt1 0.813965 0.967438
vt1 0.813965 0.991936
vt1 0.825195 0.967163
vt1 0.821777 0.991936
vt1 0.803223 0.967285
vt1 0.802734 0.991035
vt1 0.813965 0.967438
vt1 0.813965 0.991936
vt1 0.802734 0.992390
vt1 0.788574 0.968414
vt1 0.788086 0.991379
vt1 0.803223 0.966919
vt1 0.788086 0.992840
vt1 0.773438 0.969101
vt1 0.772949 0.990891
vt1 0.788086 0.966827
vt1 0.007610 0.013672
vt1 0.008064 0.991936
vt1 0.019516 0.992626
vt1 0.020340 0.013672
vt1 0.033844 0.995777
vt1 0.038452 0.013672
vt1 0.048218 0.996725
vt1 0.059540 0.013672
vt1 0.063232 0.992657
vt1 0.077759 0.013672
vt1 0.078186 0.992516
vt1 0.094604 0.013672
vt1 0.092957 0.992462
vt1 0.104309 0.991936
vt1 0.111755 0.013672
vt1 0.111755 0.991936
vt1 0.119141 0.991936
vt1 0.128906 0.013672
vt1 0.130493 0.992458
vt1 0.145142 0.992615
vt1 0.155884 0.013672
vt1 0.156128 0.991936
vt1 0.362793 0.991936
vt1 0.362793 0.064941
vt1 0.373535 0.991936
vt1 0.374023 0.064453
vt1 0.387695 0.991936
vt1 0.388916 0.062012
vt1 0.405273 0.991936
vt1 0.402588 0.061523
vt1 0.418945 0.064453
vt1 0.424805 0.991936
vt1 0.433838 0.064941
vt1 0.442627 0.991936
vt1 0.448975 0.065430
vt1 0.462158 0.991936
vt1 0.459717 0.064941
vt1 0.470947 0.065430
vt1 0.479980 0.991936
vt1 0.485596 0.065430
vt1 0.499512 0.991936
vt1 0.500488 0.064941
vt1 0.511719 0.991936
vt1 0.511719 0.064941
vt1 0.333252 0.013672
vt1 0.333496 0.991936
vt1 0.322510 0.992615
vt1 0.306152 0.013672
vt1 0.307861 0.992458
vt1 0.296387 0.991936
vt1 0.289062 0.013672
vt1 0.289062 0.991936
vt1 0.281738 0.991936
vt1 0.271973 0.013672
vt1 0.270264 0.992462
vt1 0.255615 0.992516
vt1 0.255127 0.013672
vt1 0.240601 0.992657
vt1 0.236938 0.013672
vt1 0.225586 0.996725
vt1 0.215820 0.013672
vt1 0.211182 0.995777
vt1 0.197754 0.013672
vt1 0.196899 0.992630
vt1 0.184937 0.013672
vt1 0.185425 0.991936
vt1 0.550781 0.991936
vt1 0.540039 0.064941
vt1 0.540039 0.991936
vt1 0.551270 0.064453
vt1 0.564941 0.991936
vt1 0.566406 0.062012
vt1 0.582520 0.991936
vt1 0.580078 0.061523
vt1 0.596191 0.064453
vt1 0.602051 0.991936
vt1 0.611328 0.064941
vt1 0.620117 0.991936
vt1 0.625977 0.065430
vt1 0.639648 0.991936
vt1 0.637207 0.064941
vt1 0.644531 0.064941
vt1 0.657227 0.991936
vt1 0.651855 0.064941
vt1 0.663086 0.065430
vt1 0.676758 0.991936
vt1 0.677734 0.064941
vt1 0.688965 0.991936
vt1 0.688965 0.064941
vn 0.377953 -0.669291 0.637795
vn 0.377953 -0.669291 0.637795
vn 0.377953 -0.669291 0.637795
vn 0.503937 0.417323 0.755905
vn 0.503937 0.417323 0.755905
vn 0.503937 0.417323 0.755905
vn 0.425197 0.141732 -0.889764
vn 0.425197 0.141732 -0.889764
vn 0.425197 0.141732 -0.889764
vn -0.377953 -0.669291 0.637795
vn -0.377953 -0.669291 0.637795
vn -0.377953 -0.669291 0.637795
vn -0.503937 0.417323 0.755905
vn -0.503937 0.417323 0.755905
vn -0.503937 0.417323 0.755905
vn 0.236220 0.874016 0.425197
vn 0.236220 0.874016 0.425197
vn 0.236220 0.874016 0.425197
vn 0.236220 0.874016 0.425197
vn 0.078740 0.984252 0.149606
vn 0.078740 0.984252 0.149606
vn 0.078740 0.984252 0.149606
vn 0.078740 0.984252 0.149606
vn -0.212598 0.874016 -0.433071
vn -0.212598 0.874016 -0.433071
vn -0.212598 0.874016 -0.433071
vn -0.212598 0.874016 -0.433071
vn -0.393701 0.425197 -0.818898
vn -0.393701 0.425197 -0.818898
vn -0.393701 0.425197 -0.818898
vn -0.393701 0.425197 -0.818898
vn -0.425197 0.141732 -0.889764
vn -0.425197 0.141732 -0.889764
vn -0.425197 0.141732 -0.889764
vn -0.425197 0.141732 -0.889764
vn -0.425197 -0.141732 -0.889764
vn -0.425197 -0.141732 -0.889764
vn -0.425197 -0.141732 -0.889764
vn -0.425197 -0.141732 -0.889764
vn -0.393701 -0.425197 -0.818897
vn -0.393701 -0.425197 -0.818897
vn -0.393701 -0.425197 -0.818897
vn -0.393701 -0.425197 -0.818897
vn -0.212598 -0.874016 -0.433071
vn -0.212598 -0.874016 -0.433071
vn -0.212598 -0.874016 -0.433071
vn -0.212598 -0.874016 -0.433071
vn 0.078740 -0.984252 0.149606
vn 0.078740 -0.984252 0.149606
vn 0.078740 -0.984252 0.149606
vn 0.078740 -0.984252 0.149606
vn -0.236220 0.874016 0.425197
vn -0.236220 0.874016 0.425197
vn -0.236220 0.874016 0.425197
vn -0.236220 0.874016 0.425197
vn -0.078740 0.984252 0.149606
vn -0.078740 0.984252 0.149606
vn -0.078740 0.984252 0.149606
vn -0.078740 0.984252 0.149606
vn 0.212598 0.874016 -0.433071
vn 0.212598 0.874016 -0.433071
vn 0.212598 0.874016 -0.433071
vn 0.212598 0.874016 -0.433071
vn 0.393701 0.425197 -0.818898
vn 0.393701 0.425197 -0.818898
vn 0.393701 0.425197 -0.818898
vn 0.393701 0.425197 -0.818898
vn 0.425197 -0.141732 -0.889764
vn 0.425197 -0.141732 -0.889764
vn 0.425197 -0.141732 -0.889764
vn 0.425197 -0.141732 -0.889764
vn 0.393701 -0.425197 -0.818897
vn 0.393701 -0.425197 -0.818897
vn 0.393701 -0.425197 -0.818897
vn 0.393701 -0.425197 -0.818897
vn 0.212598 -0.874016 -0.433071
vn 0.212598 -0.874016 -0.433071
vn 0.212598 -0.874016 -0.433071
vn 0.212598 -0.874016 -0.433071
vn -0.078740 -0.984252 0.149606
vn -0.078740 -0.984252 0.149606
vn -0.078740 -0.984252 0.149606
vn -0.078740 -0.984252 0.149606
vn 0.212598 0.952756 0.204724
vn 0.220472 0.952756 0.220472
vn 0.511811 0.692913 0.511811
vn 0.527559 0.669291 0.527559
vn 0.700787 0.157480 0.692913
vn 0.708661 -0.031496 0.708661
vn 0.637795 -0.425197 0.637795
vn 0.433071 -0.795275 0.425197
vn 0.330709 -0.881890 0.330709
vn -0.094488 -0.992126 -0.094488
vn -0.110236 -0.992126 -0.110236
vn -0.535433 -0.661417 -0.527559
vn -0.496063 -0.708661 -0.496063
vn -0.677165 -0.307087 -0.669291
vn -0.708661 -0.000000 -0.708661
vn -0.708661 -0.000000 -0.708661
vn -0.677165 0.307086 -0.669291
vn -0.535433 0.661417 -0.527559
vn -0.496063 0.708661 -0.496063
vn -0.110236 0.984252 -0.110236
vn 0.188976 0.960630 0.188976
vn 0.220472 0.952756 0.220472
vn 0.000000 0.952756 0.307086
vn 0.000000 0.952756 0.307086
vn 0.000000 0.724409 0.692913
vn 0.000000 0.708661 0.708661
vn 0.000000 0.204724 0.976378
vn 0.000000 0.149606 0.984252
vn 0.000000 -0.503937 0.858268
vn 0.000000 -0.409449 0.913386
vn 0.000000 -0.889764 0.448819
vn 0.000000 -0.976378 0.204724
vn 0.000000 -0.984252 -0.165354
vn 0.000000 -0.858268 -0.511811
vn 0.000000 -0.692913 -0.716535
vn 0.000000 -0.204724 -0.976378
vn 0.000000 -0.307087 -0.952756
vn 0.000000 0.157480 -0.984252
vn 0.000000 0.511811 -0.858268
vn 0.000000 0.700787 -0.708661
vn 0.000000 0.976378 -0.204724
vn 0.000000 0.984252 -0.165354
vn 0.000000 0.952756 0.307086
vn 0.000000 0.952756 0.307086
vn -0.188976 0.960630 0.188976
vn -0.220472 0.952756 0.220472
vn 0.110236 0.984252 -0.110236
vn 0.535433 0.661417 -0.527559
vn 0.496063 0.708661 -0.496063
vn 0.677165 0.307086 -0.669291
vn 0.708661 -0.000000 -0.708661
vn 0.708661 -0.000000 -0.708661
vn 0.677165 -0.307087 -0.669291
vn 0.535433 -0.661417 -0.527559
vn 0.496063 -0.708661 -0.496063
vn 0.110236 -0.992126 -0.110236
vn 0.094488 -0.992126 -0.094488
vn -0.330709 -0.881890 0.330709
vn -0.433071 -0.795275 0.425197
vn -0.637795 -0.425197 0.637795
vn -0.708661 -0.031496 0.708661
vn -0.700787 0.157480 0.692913
vn -0.527559 0.669291 0.527559
vn -0.511811 0.692913 0.511811
vn -0.212598 0.952756 0.204724
vn -0.220472 0.952756 0.220472
vn 0.000000 0.724409 0.692913
vn 0.000000 0.952756 0.307086
vn 0.000000 0.952756 0.307086
vn 0.000000 0.708661 0.708661
vn 0.000000 0.204724 0.976378
vn 0.000000 0.149606 0.984252
vn 0.000000 -0.503937 0.858268
vn 0.000000 -0.409449 0.913386
vn 0.000000 -0.889764 0.448819
vn 0.000000 -0.976378 0.204724
vn 0.000000 -0.984252 -0.165354
vn 0.000000 -0.858268 -0.511811
vn 0.000000 -0.692913 -0.716535
vn 0.000000 -0.204724 -0.976378
vn 0.000000 -0.307087 -0.952756
vn 0.000000 -0.000000 -1.000000
vn 0.000000 0.511811 -0.858268
vn 0.000000 0.307086 -0.952756
vn 0.000000 0.700787 -0.708661
vn 0.000000 0.976378 -0.204724
vn 0.000000 0.984252 -0.165354
vn 0.000000 0.952756 0.307086
vn 0.000000 0.952756 0.307086
tan 0.843946 -0.017112 -0.518073 1.000000
tan 0.576353 -0.335545 -0.693657 1.000000
tan 0.898134 0.432265 -0.078616 1.000000
tan 0.790626 0.085312 -0.574183 1.000000
tan 0.782194 -0.001984 -0.520367 1.000000
tan 0.753674 0.184512 -0.604315 1.000000
tan -0.893112 -0.060016 -0.436357 1.000000
tan -0.890880 -0.003658 -0.426313 1.000000
tan -0.886106 -0.074028 -0.435241 1.000000
tan -0.576353 -0.335545 -0.693657 1.000000
tan -0.843946 -0.017112 -0.518073 1.000000
tan -0.898134 0.432265 -0.078616 1.000000
tan -0.782194 -0.001984 -0.520367 1.000000
tan -0.790626 0.085312 -0.574183 1.000000
tan -0.753674 0.184512 -0.604315 1.000000
tan 0.772460 0.049476 -0.530845 1.000000
tan 0.832166 -0.062124 -0.334615 1.000000
tan 0.474487 0.236964 -0.750697 1.000000
tan 0.927398 -0.231012 -0.040362 1.000000
tan 0.829252 0.014942 -0.534751 1.000000
tan 0.977680 -0.060450 -0.116870 1.000000
tan 0.690929 0.050840 -0.698121 1.000000
tan 0.984252 -0.088164 0.062000 1.000000
tan 0.646723 -0.151156 -0.622543 1.000000
tan 0.891004 0.245024 0.057102 1.000000
tan 0.873830 0.122326 -0.182094 1.000000
tan 0.495381 -0.244281 -0.736189 1.000000
tan 0.806746 -0.213528 -0.498729 1.000000
tan 0.883254 0.038812 -0.404489 1.000000
tan 0.849278 0.053444 -0.380557 1.000000
tan 0.817782 -0.224564 -0.509765 1.000000
tan 0.893112 -0.060016 -0.436357 1.000000
tan 0.894228 0.006386 -0.426313 1.000000
tan 0.894228 0.013392 -0.425197 1.000000
tan 0.886106 -0.074028 -0.435241 1.000000
tan 0.893112 0.060016 -0.436357 1.000000
tan 0.894228 -0.006386 -0.426313 1.000000
tan 0.886106 0.074028 -0.435241 1.000000
tan 0.894228 -0.013392 -0.425197 1.000000
tan 0.883254 -0.038812 -0.404489 1.000000
tan 0.817782 0.224564 -0.509765 1.000000
tan 0.806746 0.213528 -0.498729 1.000000
tan 0.849278 -0.053444 -0.380557 1.000000
tan 0.646723 0.151156 -0.622543 1.000000
tan 0.873830 -0.122326 -0.182094 1.000000
tan 0.891004 -0.248434 0.063984 1.000000
tan 0.495381 0.244280 -0.736189 1.000000
tan 0.829252 -0.013764 -0.527001 1.000000
tan 0.961002 0.042718 -0.224750 1.000000
tan 0.984252 0.090520 0.077500 1.000000
tan 0.635501 -0.063426 -0.751751 1.000000
tan -0.772460 0.049476 -0.530845 1.000000
tan -0.832166 -0.062124 -0.334615 1.000000
tan -0.927398 -0.231012 -0.040362 1.000000
tan -0.474487 0.236964 -0.750697 1.000000
tan -0.829252 0.014942 -0.534751 1.000000
tan -0.977680 -0.060450 -0.116870 1.000000
tan -0.984252 -0.088164 0.062000 1.000000
tan -0.690929 0.050840 -0.698121 1.000000
tan -0.646723 -0.151156 -0.622543 1.000000
tan -0.873830 0.122326 -0.182094 1.000000
tan -0.891004 0.245024 0.057102 1.000000
tan -0.495381 -0.244281 -0.736189 1.000000
tan -0.852626 -0.014384 -0.417385 1.000000
tan -0.806746 -0.213528 -0.498729 1.000000
tan -0.849278 0.053444 -0.380557 1.000000
tan -0.817782 -0.224564 -0.509765 1.000000
tan -0.894228 -0.013392 -0.425197 1.000000
tan -0.893112 0.060016 -0.436357 1.000000
tan -0.890880 0.010664 -0.427429 1.000000
tan -0.886106 0.074028 -0.435241 1.000000
tan -0.849278 -0.053444 -0.380557 1.000000
tan -0.806746 0.213528 -0.498729 1.000000
tan -0.883254 -0.038812 -0.404489 1.000000
tan -0.817782 0.224564 -0.509765 1.000000
tan -0.646723 0.151156 -0.622543 1.000000
tan -0.873830 -0.122326 -0.182094 1.000000
tan -0.495381 0.244280 -0.736189 1.000000
tan -0.891004 -0.248434 0.063984 1.000000
tan -0.829252 -0.013764 -0.527001 1.000000
tan -0.961002 0.042718 -0.224750 1.000000
tan -0.635501 -0.063426 -0.751751 1.000000
tan -0.984252 0.090520 0.077500 1.000000
tan -0.675181 0.005580 0.675181 1.000000
tan -0.682125 0.000000 0.682125 1.000000
tan -0.667617 0.004030 0.662161 1.000000
tan -0.694339 0.004154 0.689069 1.000000
tan -0.694153 0.000062 0.702027 1.000000
tan -0.709157 0.000000 0.709157 1.000000
tan -0.684667 -0.005022 0.681319 1.000000
tan -0.614235 -0.005518 0.615289 1.000000
tan -0.632773 0.000000 0.632773 1.000000
tan -0.703081 0.000000 0.703081 1.000000
tan -0.703081 0.000000 0.703081 1.000000
tan -0.691735 0.008680 0.691177 1.000000
tan -0.650629 0.000000 0.650629 1.000000
tan -0.699857 0.001054 0.707607 1.000000
tan -0.708661 0.000000 0.708661 1.000000
tan -0.708661 0.000000 0.708661 1.000000
tan -0.699857 -0.001054 0.707607 1.000000
tan -0.691735 -0.008680 0.691177 1.000000
tan -0.650629 0.000000 0.650629 1.000000
tan -0.697501 0.000000 0.697501 1.000000
tan -0.682249 0.000000 0.682249 1.000000
tan -0.682125 0.000000 0.682125 1.000000
tan 0.962428 0.000000 0.000000 1.000000
tan 0.962428 0.000000 0.000000 1.000000
tan 1.001178 0.000000 0.000000 1.000000
tan 0.998822 0.000000 0.000000 1.000000
tan 0.976378 0.000000 0.000000 1.000000
tan 0.984252 0.000000 0.000000 1.000000
tan 0.897948 0.000000 0.000000 1.000000
tan 0.913386 0.000000 0.000000 1.000000
tan 0.903900 0.000000 0.000000 1.000000
tan 0.976378 0.000000 0.000000 1.000000
tan 0.984252 0.000000 0.000000 1.000000
tan 0.899870 0.000000 0.000000 1.000000
tan 0.989212 0.000000 0.000000 1.000000
tan 0.976378 0.000000 0.000000 1.000000
tan 0.962428 0.000000 0.000000 1.000000
tan 0.984252 0.000000 0.000000 1.000000
tan 0.899870 0.000000 0.000000 1.000000
tan 0.992932 0.000000 0.000000 1.000000
tan 0.976378 0.000000 0.000000 1.000000
tan 0.984252 0.000000 0.000000 1.000000
tan 0.962428 0.000000 0.000000 1.000000
tan 0.962428 0.000000 0.000000 1.000000
tan 0.682249 0.000000 0.682249 1.000000
tan 0.682125 0.000000 0.682125 1.000000
tan 0.697501 0.000000 0.697501 1.000000
tan 0.691735 -0.008680 0.691177 1.000000
tan 0.650629 0.000000 0.650629 1.000000
tan 0.699857 -0.001054 0.707607 1.000000
tan 0.708661 0.000000 0.708661 1.000000
tan 0.708661 0.000000 0.708661 1.000000
tan 0.699857 0.001054 0.707607 1.000000
tan 0.691735 0.008680 0.691177 1.000000
tan 0.650629 0.000000 0.650629 1.000000
tan 0.703081 0.000000 0.703081 1.000000
tan 0.703081 0.000000 0.703081 1.000000
tan 0.632773 0.000000 0.632773 1.000000
tan 0.614235 -0.005518 0.615289 1.000000
tan 0.684667 -0.005022 0.681319 1.000000
tan 0.709157 0.000000 0.709157 1.000000
tan 0.694153 0.000062 0.702027 1.000000
tan 0.694339 0.004154 0.689069 1.000000
tan 0.667617 0.004030 0.662161 1.000000
tan 0.675181 0.005580 0.675181 1.000000
tan 0.682125 0.000000 0.682125 1.000000
tan -1.001178 0.000000 0.000000 1.000000
tan -0.962428 0.000000 0.000000 1.000000
tan -0.962428 0.000000 0.000000 1.000000
tan -0.998822 0.000000 0.000000 1.000000
tan -0.976378 0.000000 0.000000 1.000000
tan -0.984252 0.000000 0.000000 1.000000
tan -0.897948 0.000000 0.000000 1.000000
tan -0.913386 0.000000 0.000000 1.000000
tan -0.903900 0.000000 0.000000 1.000000
tan -0.976378 0.000000 0.000000 1.000000
tan -0.984252 0.000000 0.000000 1.000000
tan -0.899870 0.000000 0.000000 1.000000
tan -0.989212 0.000000 0.000000 1.000000
tan -0.976378 0.000000 0.000000 1.000000
tan -0.962428 0.000000 0.000000 1.000000
tan -1.000000 0.000000 0.000000 1.000000
tan -0.899870 0.000000 0.000000 1.000000
tan -0.962428 0.000000 0.000000 1.000000
tan -0.992932 0.000000 0.000000 1.000000
tan -0.976378 0.000000 0.000000 1.000000
tan -0.984252 0.000000 0.000000 1.000000
tan -0.962428 0.000000 0.000000 1.000000
tan -0.962428 0.000000 0.000000 1.000000
f 3/3/3 2/2/2 1/1/1
f 6/6/6 5/5/5 4/4/4
f 9/9/9 8/8/8 7/7/7
f 12/12/12 11/11/11 10/10/10
f 15/15/15 14/14/14 13/13/13
f 18/18/18 17/17/17 16/16/16
f 17/17/17 19/19/19 16/16/16
f 22/22/22 21/21/21 20/20/20
f 21/21/21 23/23/23 20/20/20
f 26/26/26 25/25/25 24/24/24
f 27/27/27 26/26/26 24/24/24
f 30/30/30 29/29/29 28/28/28
f 31/31/31 28/28/28 29/29/29
f 34/34/34 33/33/33 32/32/32
f 35/35/35 32/32/32 33/33/33
f 38/38/38 37/37/37 36/36/36
f 39/39/39 36/36/36 37/37/37
f 42/42/42 41/41/41 40/40/40
f 43/43/43 42/42/42 40/40/40
f 46/46/46 45/45/45 44/44/44
f 47/47/47 44/44/44 45/45/45
f 50/50/50 49/49/49 48/48/48
f 51/51/51 48/48/48 49/49/49
f 54/54/54 53/53/53 52/52/52
f 52/52/52 53/53/53 55/55/55
f 58/58/58 57/57/57 56/56/56
f 56/56/56 57/57/57 59/59/59
f 62/62/62 61/61/61 60/60/60
f 60/60/60 61/61/61 63/63/63
f 66/66/66 65/65/65 64/64/64
f 67/67/67 64/64/64 65/65/65
f 70/70/70 69/69/69 68/68/68
f 69/69/69 70/70/70 71/71/71
f 74/74/74 73/73/73 72/72/72
f 73/73/73 74/74/74 75/75/75
f 78/78/78 77/77/77 76/76/76
f 79/79/79 76/76/76 77/77/77
f 82/82/82 81/81/81 80/80/80
f 83/83/83 80/80/80 81/81/81
f 86/86/86 85/85/85 84/84/84
f 84/84/84 87/87/87 86/86/86
f 86/86/86 87/87/87 88/88/88
f 87/87/87 89/89/89 88/88/88
f 90/90/90 88/88/88 89/89/89
f 89/89/89 91/91/91 90/90/90
f 92/92/92 90/90/90 91/91/91
f 91/91/91 93/93/93 92/92/92
f 94/94/94 92/92/92 93/93/93
f 93/93/93 95/95/95 94/94/94
f 96/96/96 94/94/94 95/95/95
f 97/97/97 96/96/96 95/95/95
f 95/95/95 98/98/98 97/97/97
f 99/99/99 97/97/97 98/98/98
f 99/99/99 98/98/98 100/100/100
f 101/101/101 100/100/100 98/98/98
f 100/100/100 101/101/101 102/102/102
f 103/103/103 102/102/102 101/101/101
f 101/101/101 104/104/104 103/103/103
f 105/105/105 103/103/103 104/104/104
f 108/108/108 107/107/107 106/106/106
f 107/107/107 108/108/108 109/109/109
f 108/108/108 110/110/110 109/109/109
f 111/111/111 109/109/109 110/110/110
f 110/110/110 112/112/112 111/111/111
f 113/113/113 111/111/111 112/112/112
f 114/114/114 113/113/113 112/112/112
f 112/112/112 115/115/115 114/114/114
f 116/116/116 114/114/114 115/115/115
f 115/115/115 117/117/117 116/116/116
f 118/118/118 116/116/116 117/117/117
f 117/117/117 119/119/119 118/118/118
f 120/120/120 118/118/118 119/119/119
f 121/121/121 120/120/120 119/119/119
f 119/119/119 122/122/122 121/121/121
f 123/123/123 121/121/121 122/122/122
f 124/124/124 123/123/123 122/122/122
f 123/123/123 124/124/124 125/125/125
f 126/126/126 125/125/125 124/124/124
f 125/125/125 126/126/126 127/127/127
f 130/130/130 129/129/129 128/128/128
f 128/128/128 131/131/131 130/130/130
f 132/132/132 130/130/130 131/131/131
f 132/132/132 131/131/131 133/133/133
f 131/131/131 134/134/134 133/133/133
f 133/133/133 134/134/134 135/135/135
f 135/135/135 134/134/134 136/136/136
f 137/137/137 136/136/136 134/134/134
f 136/136/136 137/137/137 138/138/138
f 138/138/138 137/137/137 139/139/139
f 140/140/140 139/139/139 137/137/137
f 139/139/139 140/140/140 141/141/141
f 142/142/142 141/141/141 140/140/140
f 141/141/141 142/142/142 143/143/143
f 144/144/144 143/143/143 142/142/142
f 143/143/143 144/144/144 145/145/145
f 144/144/144 146/146/146 145/145/145
f 145/145/145 146/146/146 147/147/147
f 146/146/146 148/148/148 147/147/147
f 149/149/149 147/147/147 148/148/148
f 152/152/152 151/151/151 150/150/150
f 153/153/153 150/150/150 151/151/151
f 150/150/150 153/153/153 154/154/154
f 153/153/153 155/155/155 154/154/154
f 154/154/154 155/155/155 156/156/156
f 155/155/155 157/157/157 156/156/156
f 157/157/157 158/158/158 156/156/156
f 156/156/156 158/158/158 159/159/159
f 158/158/158 160/160/160 159/159/159
f 159/159/159 160/160/160 161/161/161
f 160/160/160 162/162/162 161/161/161
f 161/161/161 162/162/162 163/163/163
f 162/162/162 164/164/164 163/163/163
f 164/164/164 165/165/165 163/163/163
f 163/163/163 165/165/165 166/166/166
f 165/165/165 167/167/167 166/166/166
f 167/167/167 168/168/168 166/166/166
f 166/166/166 168/168/168 169/169/169
f 170/170/170 169/169/169 168/168/168
f 169/169/169 170/170/170 171/171/171
f 172/172/172 171/171/171 170/170/170
