mtllib SM_Curtain_Rod_01_LOD3@000002909DC4EB00.mtl
g SM_Curtain_Rod_01_LOD3@000002909DC4EB00
#Vertices 52
#Indices 120
#Section 0 Offset 0 NumIndices 120 MaterialIndex 0 MI_MetalTile_A_03
v -7.145208 5.930016 4.321879 1.000000 1.000000 1.000000 1.000000
v -5.283505 5.930016 2.453176 1.000000 1.000000 1.000000 1.000000
v -5.243239 5.865036 2.493533 1.000000 1.000000 1.000000 1.000000
v -7.150398 5.767214 4.317053 1.000000 1.000000 1.000000 1.000000
v -5.346713 5.817681 2.389313 1.000000 1.000000 1.000000 1.000000
v -7.206106 5.908778 4.260783 1.000000 1.000000 1.000000 1.000000
v -5.283505 5.930016 2.453176 1.000000 1.000000 1.000000 1.000000
v -7.145208 5.930016 4.321879 1.000000 1.000000 1.000000 1.000000
v 0.000000 6.994435 0.669781 1.000000 1.000000 1.000000 1.000000
v -2.520470 7.008605 0.667104 1.000000 1.000000 1.000000 1.000000
v -0.000000 6.954236 0.578687 1.000000 1.000000 1.000000 1.000000
v -2.558606 6.920991 0.577171 1.000000 1.000000 1.000000 1.000000
v 0.000000 6.862670 0.637923 1.000000 1.000000 1.000000 1.000000
v -2.553446 6.859281 0.666916 1.000000 1.000000 1.000000 1.000000
v 0.000000 6.926110 0.729301 1.000000 1.000000 1.000000 1.000000
v -2.505014 6.941628 0.723372 1.000000 1.000000 1.000000 1.000000
v -2.520470 7.008605 0.667104 1.000000 1.000000 1.000000 1.000000
v 0.000000 6.994435 0.669781 1.000000 1.000000 1.000000 1.000000
v -4.406066 6.998173 2.563099 1.000000 1.000000 1.000000 1.000000
v -2.520470 7.008605 0.667104 1.000000 1.000000 1.000000 1.000000
v -2.505014 6.941628 0.723372 1.000000 1.000000 1.000000 1.000000
v -4.380855 6.869339 2.588714 1.000000 1.000000 1.000000 1.000000
v -2.553446 6.859281 0.666916 1.000000 1.000000 1.000000 1.000000
v -4.482451 6.944942 2.486479 1.000000 1.000000 1.000000 1.000000
v -2.558606 6.920991 0.577171 1.000000 1.000000 1.000000 1.000000
v -2.520470 7.008605 0.667104 1.000000 1.000000 1.000000 1.000000
v -4.406066 6.998173 2.563099 1.000000 1.000000 1.000000 1.000000
v 0.000000 6.994435 0.669781 1.000000 1.000000 1.000000 1.000000
v 2.520470 7.008605 0.667104 1.000000 1.000000 1.000000 1.000000
v 0.000000 6.926110 0.729301 1.000000 1.000000 1.000000 1.000000
v 2.524620 6.856680 0.730050 1.000000 1.000000 1.000000 1.000000
v 0.000000 6.862670 0.637923 1.000000 1.000000 1.000000 1.000000
v 2.558606 6.920991 0.577171 1.000000 1.000000 1.000000 1.000000
v -0.000000 6.954236 0.578687 1.000000 1.000000 1.000000 1.000000
v 2.520470 7.008605 0.667104 1.000000 1.000000 1.000000 1.000000
v 0.000000 6.994435 0.669781 1.000000 1.000000 1.000000 1.000000
v 7.145208 5.930016 4.321879 1.000000 1.000000 1.000000 1.000000
v 5.243239 5.865036 2.493533 1.000000 1.000000 1.000000 1.000000
v 5.283505 5.930016 2.453176 1.000000 1.000000 1.000000 1.000000
v 7.150398 5.767214 4.317053 1.000000 1.000000 1.000000 1.000000
v 5.346713 5.817681 2.389314 1.000000 1.000000 1.000000 1.000000
v 7.206107 5.908778 4.260783 1.000000 1.000000 1.000000 1.000000
v 5.283505 5.930016 2.453176 1.000000 1.000000 1.000000 1.000000
v 7.145208 5.930016 4.321879 1.000000 1.000000 1.000000 1.000000
v 4.406066 6.998173 2.563099 1.000000 1.000000 1.000000 1.000000
v 2.524620 6.856680 0.730050 1.000000 1.000000 1.000000 1.000000
v 2.520470 7.008605 0.667104 1.000000 1.000000 1.000000 1.000000
v 4.380855 6.869339 2.588714 1.000000 1.000000 1.000000 1.000000
v 4.482451 6.944942 2.486479 1.000000 1.000000 1.000000 1.000000
v 2.558606 6.920991 0.577171 1.000000 1.000000 1.000000 1.000000
v 2.520470 7.008605 0.667104 1.000000 1.000000 1.000000 1.000000
v 4.406066 6.998173 2.563099 1.000000 1.000000 1.000000 1.000000
vt 0.375000 0.312500
vt 0.375000 0.688477
vt 0.426758 0.688477
vt 0.478760 0.312500
vt 0.526855 0.688721
vt 0.571289 0.312988
vt 0.624512 0.688477
vt 0.624512 0.312500
vt 0.624512 0.688477
vt 0.621094 0.309570
vt 0.561523 0.688477
vt 0.541992 0.303711
vt 0.494141 0.688477
vt 0.478516 0.304688
vt 0.428223 0.688477
vt 0.419922 0.312012
vt 0.367920 0.309570
vt 0.375000 0.688477
vt 0.374023 0.312500
vt 0.367676 0.693604
vt 0.420166 0.689697
vt 0.458984 0.312500
vt 0.489746 0.690430
vt 0.553711 0.312988
vt 0.546387 0.698975
vt 0.625488 0.693604
vt 0.624512 0.312500
vt 0.375000 0.688477
vt 0.367920 0.309570
vt 0.428223 0.688477
vt 0.454346 0.309082
vt 0.494141 0.688477
vt 0.541992 0.303711
vt 0.561523 0.688477
vt 0.621094 0.309570
vt 0.624512 0.688477
vt 0.375000 0.312500
vt 0.426758 0.688477
vt 0.375000 0.688477
vt 0.478760 0.312500
vt 0.526855 0.688721
vt 0.571289 0.312988
vt 0.624512 0.688477
vt 0.624512 0.312500
vt 0.374023 0.312500
vt 0.461914 0.687012
vt 0.367676 0.693604
vt 0.458984 0.312500
vt 0.553711 0.312988
vt 0.546387 0.698975
vt 0.625488 0.693604
vt 0.624512 0.312500
vt1 0.491699 0.030762
vt1 0.491699 0.991936
vt1 0.521973 0.991951
vt1 0.552246 0.030762
vt1 0.580078 0.992157
vt1 0.605957 0.030762
vt1 0.637207 0.991936
vt1 0.637207 0.030762
vt1 0.799316 0.991936
vt1 0.797363 0.073730
vt1 0.762207 0.991943
vt1 0.750977 0.059570
vt1 0.723145 0.991943
vt1 0.713867 0.061523
vt1 0.684082 0.991928
vt1 0.679199 0.079102
vt1 0.648926 0.073730
vt1 0.652832 0.991936
vt1 0.007618 0.030762
vt1 0.003897 1.005112
vt1 0.034454 0.994640
vt1 0.057007 0.030762
vt1 0.074951 0.996653
vt1 0.112244 0.030762
vt1 0.107910 1.018417
vt1 0.153931 1.005116
vt1 0.153320 0.030762
vt1 0.830566 0.991936
vt1 0.826172 0.073730
vt1 0.861816 0.991928
vt1 0.876953 0.072266
vt1 0.900391 0.991943
vt1 0.928711 0.059570
vt1 0.939941 0.991943
vt1 0.974609 0.073730
vt1 0.977051 0.991936
vt1 0.330566 0.030762
vt1 0.360840 0.991951
vt1 0.330566 0.991936
vt1 0.391113 0.030762
vt1 0.418945 0.992157
vt1 0.445068 0.030762
vt1 0.476074 0.991936
vt1 0.476074 0.030762
vt1 0.168823 0.030762
vt1 0.219971 0.987686
vt1 0.165161 1.005112
vt1 0.218262 0.030762
vt1 0.273438 0.030762
vt1 0.269043 1.018417
vt1 0.315186 1.005116
vt1 0.314453 0.030762
vn 0.220472 0.952756 0.220472
vn 0.220472 0.952756 0.220472
vn 0.708661 -0.055118 0.708661
vn 0.070866 -0.992126 0.070866
vn -0.574803 -0.574803 -0.574803
vn -0.614173 0.503937 -0.606299
vn 0.220472 0.952756 0.220472
vn 0.220472 0.952756 0.220472
vn 0.000000 0.952756 0.307086
vn 0.000000 1.000000 0.062992
vn 0.000000 0.275590 -0.960630
vn 0.000000 -0.228347 -0.976378
vn 0.000000 -0.984252 -0.173228
vn 0.000000 -0.968504 0.244095
vn 0.000000 -0.086614 1.000000
vn 0.000000 0.125984 0.992126
vn 0.000000 0.984252 0.196850
vn 0.000000 0.952756 0.307086
vn 0.212598 0.952756 0.204724
vn 0.133858 0.984252 0.133858
vn 0.700787 0.118110 0.700787
vn 0.456693 -0.763779 0.456693
vn -0.055118 -1.000000 -0.055118
vn -0.700787 0.133858 -0.700787
vn -0.708661 0.039370 -0.708661
vn 0.165354 0.968504 0.165354
vn 0.188976 0.960630 0.188976
vn 0.000000 0.952756 0.307086
vn 0.000000 0.984252 0.196850
vn 0.000000 -0.086614 1.000000
vn 0.000000 -0.669291 0.740157
vn 0.000000 -0.984252 -0.173228
vn 0.000000 -0.228347 -0.976378
vn 0.000000 0.275590 -0.960630
vn 0.000000 1.000000 0.062992
vn 0.000000 0.952756 0.307086
vn -0.220472 0.952756 0.220472
vn -0.708661 -0.055118 0.708661
vn -0.220472 0.952756 0.220472
vn -0.070866 -0.992126 0.070866
vn 0.574803 -0.574803 -0.574803
vn 0.614173 0.503937 -0.606299
vn -0.220472 0.952756 0.220472
vn -0.220472 0.952756 0.220472
vn -0.212598 0.952756 0.204724
vn -0.425197 -0.803149 0.425197
vn -0.133858 0.984252 0.133858
vn -0.456693 -0.763779 0.456693
vn 0.700787 0.133858 -0.700787
vn 0.708661 0.039370 -0.708661
vn -0.165354 0.968504 0.165354
vn -0.188976 0.960630 0.188976
tan -0.682125 0.000000 0.682125 1.000000
tan -0.682125 0.000000 0.682125 1.000000
tan -0.710831 0.000000 0.710831 1.000000
tan -0.703081 -0.000558 0.695269 1.000000
tan -0.701531 0.000000 0.701531 1.000000
tan -0.691611 -0.008494 0.693533 1.000000
tan -0.682125 0.000000 0.682125 1.000000
tan -0.682125 0.000000 0.682125 1.000000
tan -0.962428 0.000000 0.000000 1.000000
tan -1.000000 0.000000 0.000000 1.000000
tan -0.969310 0.000000 0.000000 1.000000
tan -0.976378 0.000000 0.000000 1.000000
tan -0.984252 0.000000 0.000000 1.000000
tan -0.966582 0.000000 0.000000 1.000000
tan -1.000000 0.000000 0.000000 1.000000
tan -0.992126 0.000000 0.000000 1.000000
tan -0.982702 0.000000 0.000000 1.000000
tan -0.962428 0.000000 0.000000 1.000000
tan -0.675181 0.005580 0.675181 1.000000
tan -0.696447 0.000000 0.696447 1.000000
tan -0.703701 0.000000 0.703701 1.000000
tan -0.638291 0.000000 0.638291 1.000000
tan -0.708661 0.000434 0.700787 1.000000
tan -0.706863 0.000000 0.706863 1.000000
tan -0.708041 0.000000 0.708041 1.000000
tan -0.686341 0.000000 0.686341 1.000000
tan -0.682249 0.000000 0.682249 1.000000
tan 0.962428 0.000000 0.000000 1.000000
tan 0.982702 0.000000 0.000000 1.000000
tan 1.000000 0.000000 0.000000 1.000000
tan 0.997148 0.000000 0.000000 1.000000
tan 0.984252 0.000000 0.000000 1.000000
tan 0.976378 0.000000 0.000000 1.000000
tan 0.969310 0.000000 0.000000 1.000000
tan 1.000000 0.000000 0.000000 1.000000
tan 0.962428 0.000000 0.000000 1.000000
tan 0.682125 0.000000 0.682125 1.000000
tan 0.710831 0.000000 0.710831 1.000000
tan 0.682125 0.000000 0.682125 1.000000
tan 0.703081 -0.000558 0.695269 1.000000
tan 0.701531 0.000000 0.701531 1.000000
tan 0.691611 -0.008494 0.693533 1.000000
tan 0.682125 0.000000 0.682125 1.000000
tan 0.682125 0.000000 0.682125 1.000000
tan 0.675181 0.005580 0.675181 1.000000
tan 0.677785 -0.003348 0.671461 1.000000
tan 0.696447 0.000000 0.696447 1.000000
tan 0.638291 0.000000 0.638291 1.000000
tan 0.706863 0.000000 0.706863 1.000000
tan 0.708041 0.000000 0.708041 1.000000
tan 0.686341 0.000000 0.686341 1.000000
tan 0.682249 0.000000 0.682249 1.000000
f 3/3/3 2/2/2 1/1/1
f 1/1/1 4/4/4 3/3/3
f 5/5/5 3/3/3 4/4/4
f 4/4/4 6/6/6 5/5/5
f 7/7/7 5/5/5 6/6/6
f 6/6/6 8/8/8 7/7/7
f 11/11/11 10/10/10 9/9/9
f 12/12/12 10/10/10 11/11/11
f 13/13/13 12/12/12 11/11/11
f 14/14/14 12/12/12 13/13/13
f 15/15/15 14/14/14 13/13/13
f 16/16/16 14/14/14 15/15/15
f 16/16/16 15/15/15 17/17/17
f 18/18/18 17/17/17 15/15/15
f 21/21/21 20/20/20 19/19/19
f 19/19/19 22/22/22 21/21/21
f 23/23/23 21/21/21 22/22/22
f 22/22/22 24/24/24 23/23/23
f 25/25/25 23/23/23 24/24/24
f 26/26/26 25/25/25 24/24/24
f 24/24/24 27/27/27 26/26/26
f 30/30/30 29/29/29 28/28/28
f 29/29/29 30/30/30 31/31/31
f 30/30/30 32/32/32 31/31/31
f 33/33/33 31/31/31 32/32/32
f 32/32/32 34/34/34 33/33/33
f 35/35/35 33/33/33 34/34/34
f 36/36/36 35/35/35 34/34/34
f 39/39/39 38/38/38 37/37/37
f 40/40/40 37/37/37 38/38/38
f 41/41/41 40/40/40 38/38/38
f 40/40/40 41/41/41 42/42/42
f 41/41/41 43/43/43 42/42/42
f 44/44/44 42/42/42 43/43/43
f 47/47/47 46/46/46 45/45/45
f 48/48/48 45/45/45 46/46/46
f 48/48/48 46/46/46 49/49/49
f 50/50/50 49/49/49 46/46/46
f 50/50/50 51/51/51 49/49/49
f 52/52/52 49/49/49 51/51/51
