mtllib SM_Door_LOD3@000002909DC4CF00.mtl
g SM_Door_LOD3@000002909DC4CF00
#Vertices 207
#Indices 348
#Section 0 Offset 0 NumIndices 348 MaterialIndex 0 MI_Props
v 0.608245 8.782548 -0.105367 1.000000 1.000000 1.000000 1.000000
v 0.554909 7.368314 -0.042472 1.000000 1.000000 1.000000 1.000000
v 1.855372 7.473187 -0.158845 1.000000 1.000000 1.000000 1.000000
v 0.044805 9.639488 -0.280281 1.000000 1.000000 1.000000 1.000000
v 1.461326 9.456553 -0.162200 1.000000 1.000000 1.000000 1.000000
v -0.011524 9.490708 0.095626 1.000000 1.000000 1.000000 1.000000
v 2.646096 7.126992 -0.220164 1.000000 1.000000 1.000000 1.000000
v 2.657222 -0.004695 -0.121069 1.000000 1.000000 1.000000 1.000000
v 2.763644 7.367522 -0.014898 1.000000 1.000000 1.000000 1.000000
v 1.135913 8.565538 -0.220352 1.000000 1.000000 1.000000 1.000000
v 0.608245 8.782548 -0.105367 1.000000 1.000000 1.000000 1.000000
v 1.855372 7.473187 -0.158845 1.000000 1.000000 1.000000 1.000000
v 0.542623 1.886896 -0.054536 1.000000 1.000000 1.000000 1.000000
v 0.534083 3.661438 -0.133970 1.000000 1.000000 1.000000 1.000000
v 0.510913 1.609531 -0.079529 1.000000 1.000000 1.000000 1.000000
v 0.510913 1.609531 -0.079529 1.000000 1.000000 1.000000 1.000000
v 1.782681 1.711210 -0.154352 1.000000 1.000000 1.000000 1.000000
v 0.542623 1.886896 -0.054536 1.000000 1.000000 1.000000 1.000000
v 1.782681 1.711210 -0.154352 1.000000 1.000000 1.000000 1.000000
v 1.774746 3.753090 -0.074588 1.000000 1.000000 1.000000 1.000000
v 1.753492 3.483780 -0.053494 1.000000 1.000000 1.000000 1.000000
v 1.774746 3.753090 -0.074588 1.000000 1.000000 1.000000 1.000000
v 0.534083 3.661438 -0.133970 1.000000 1.000000 1.000000 1.000000
v 1.753492 3.483780 -0.053494 1.000000 1.000000 1.000000 1.000000
v 0.542623 1.886896 -0.054536 1.000000 1.000000 1.000000 1.000000
v 1.782681 1.711210 -0.154352 1.000000 1.000000 1.000000 1.000000
v 1.683723 1.956233 -0.000000 1.000000 1.000000 1.000000 1.000000
v 0.542623 1.886896 -0.054536 1.000000 1.000000 1.000000 1.000000
v 0.609556 3.409060 -0.000000 1.000000 1.000000 1.000000 1.000000
v 0.534083 3.661438 -0.133970 1.000000 1.000000 1.000000 1.000000
v 1.782681 1.711210 -0.154352 1.000000 1.000000 1.000000 1.000000
v 1.753492 3.483780 -0.053494 1.000000 1.000000 1.000000 1.000000
v 1.683723 1.956233 -0.000000 1.000000 1.000000 1.000000 1.000000
v 1.753492 3.483780 -0.053494 1.000000 1.000000 1.000000 1.000000
v 0.534083 3.661438 -0.133970 1.000000 1.000000 1.000000 1.000000
v 0.609556 3.409060 -0.000000 1.000000 1.000000 1.000000 1.000000
v 0.549959 5.411212 -0.035368 1.000000 1.000000 1.000000 1.000000
v 1.773925 5.392925 -0.145299 1.000000 1.000000 1.000000 1.000000
v 1.684513 5.615961 -0.000001 1.000000 1.000000 1.000000 1.000000
v 1.762081 6.918500 -0.081568 1.000000 1.000000 1.000000 1.000000
v 1.684513 5.615961 -0.000001 1.000000 1.000000 1.000000 1.000000
v 1.773925 5.392925 -0.145299 1.000000 1.000000 1.000000 1.000000
v 1.943542 8.418240 -0.250083 1.000000 1.000000 1.000000 1.000000
v 2.247913 7.267157 -0.239463 1.000000 1.000000 1.000000 1.000000
v 2.429045 7.326854 -0.242110 1.000000 1.000000 1.000000 1.000000
v 0.044805 9.639488 -0.280281 1.000000 1.000000 1.000000 1.000000
v 0.026685 9.329048 -0.220166 1.000000 1.000000 1.000000 1.000000
v 1.246189 9.091198 -0.250073 1.000000 1.000000 1.000000 1.000000
v -0.011524 9.490708 0.095626 1.000000 1.000000 1.000000 1.000000
v 0.026685 9.329048 -0.220166 1.000000 1.000000 1.000000 1.000000
v 0.044805 9.639488 -0.280281 1.000000 1.000000 1.000000 1.000000
v -1.766681 1.876863 -0.036376 1.000000 1.000000 1.000000 1.000000
v -1.817530 3.646638 -0.120164 1.000000 1.000000 1.000000 1.000000
v -1.792615 1.686657 -0.198671 1.000000 1.000000 1.000000 1.000000
v -1.792615 1.686657 -0.198671 1.000000 1.000000 1.000000 1.000000
v -0.480980 1.721677 -0.122902 1.000000 1.000000 1.000000 1.000000
v -1.766681 1.876863 -0.036376 1.000000 1.000000 1.000000 1.000000
v -0.480980 1.721677 -0.122902 1.000000 1.000000 1.000000 1.000000
v -0.500025 3.673088 -0.210916 1.000000 1.000000 1.000000 1.000000
v -0.528659 3.492107 -0.033051 1.000000 1.000000 1.000000 1.000000
v -0.500025 3.673088 -0.210916 1.000000 1.000000 1.000000 1.000000
v -1.817530 3.646638 -0.120164 1.000000 1.000000 1.000000 1.000000
v -0.528659 3.492107 -0.033051 1.000000 1.000000 1.000000 1.000000
v -1.792615 1.686657 -0.198671 1.000000 1.000000 1.000000 1.000000
v -1.709648 0.233836 -0.098589 1.000000 1.000000 1.000000 1.000000
v -1.686450 1.586528 -0.000000 1.000000 1.000000 1.000000 1.000000
v -1.766681 1.876863 -0.036376 1.000000 1.000000 1.000000 1.000000
v -0.480980 1.721677 -0.122902 1.000000 1.000000 1.000000 1.000000
v -0.609698 1.956233 -0.000000 1.000000 1.000000 1.000000 1.000000
v -0.480980 1.721677 -0.122902 1.000000 1.000000 1.000000 1.000000
v -1.792615 1.686657 -0.198671 1.000000 1.000000 1.000000 1.000000
v -1.686450 1.586528 -0.000000 1.000000 1.000000 1.000000 1.000000
v -1.766681 1.876863 -0.036376 1.000000 1.000000 1.000000 1.000000
v -1.686450 3.409060 -0.000000 1.000000 1.000000 1.000000 1.000000
v -1.817530 3.646638 -0.120164 1.000000 1.000000 1.000000 1.000000
v -0.480980 1.721677 -0.122902 1.000000 1.000000 1.000000 1.000000
v -0.528659 3.492107 -0.033051 1.000000 1.000000 1.000000 1.000000
v -0.609698 1.956233 -0.000000 1.000000 1.000000 1.000000 1.000000
v -1.817530 3.646638 -0.120164 1.000000 1.000000 1.000000 1.000000
v -0.500025 3.673088 -0.210916 1.000000 1.000000 1.000000 1.000000
v -0.609698 3.788148 -0.000000 1.000000 1.000000 1.000000 1.000000
v -0.528659 3.492107 -0.033051 1.000000 1.000000 1.000000 1.000000
v -1.817530 3.646638 -0.120164 1.000000 1.000000 1.000000 1.000000
v -1.686450 3.409060 -0.000000 1.000000 1.000000 1.000000 1.000000
v -0.538308 5.378454 -0.061469 1.000000 1.000000 1.000000 1.000000
v -0.609698 3.788148 -0.000000 1.000000 1.000000 1.000000 1.000000
v -0.500025 3.673088 -0.210916 1.000000 1.000000 1.000000 1.000000
v -0.010627 9.512123 -0.228601 1.000000 1.000000 1.000000 1.000000
v 0.007825 9.479319 0.098760 1.000000 1.000000 1.000000 1.000000
v -0.842670 9.460805 -0.271889 1.000000 1.000000 1.000000 1.000000
v -0.010627 9.512123 -0.228601 1.000000 1.000000 1.000000 1.000000
v -0.842670 9.460805 -0.271889 1.000000 1.000000 1.000000 1.000000
v -1.691192 8.754492 -0.265312 1.000000 1.000000 1.000000 1.000000
v -2.248346 7.256628 -0.231814 1.000000 1.000000 1.000000 1.000000
v -2.420155 7.568729 -0.245773 1.000000 1.000000 1.000000 1.000000
v 0.510913 1.609531 -0.079529 1.000000 1.000000 1.000000 1.000000
v 1.778763 0.222562 -0.061099 1.000000 1.000000 1.000000 1.000000
v 1.782681 1.711210 -0.154352 1.000000 1.000000 1.000000 1.000000
v 0.560321 0.232346 -0.097637 1.000000 1.000000 1.000000 1.000000
v 0.609556 3.409060 -0.000000 1.000000 1.000000 1.000000 1.000000
v 1.683723 1.956233 -0.000000 1.000000 1.000000 1.000000 1.000000
v 1.753492 3.483780 -0.053494 1.000000 1.000000 1.000000 1.000000
v 0.542623 1.886896 -0.054536 1.000000 1.000000 1.000000 1.000000
v 0.549959 5.411212 -0.035368 1.000000 1.000000 1.000000 1.000000
v 1.774746 3.753090 -0.074588 1.000000 1.000000 1.000000 1.000000
v 1.773925 5.392925 -0.145299 1.000000 1.000000 1.000000 1.000000
v 0.534083 3.661438 -0.133970 1.000000 1.000000 1.000000 1.000000
v 0.595037 6.872457 -0.149105 1.000000 1.000000 1.000000 1.000000
v 1.684513 5.615961 -0.000001 1.000000 1.000000 1.000000 1.000000
v 1.762081 6.918500 -0.081568 1.000000 1.000000 1.000000 1.000000
v 0.549959 5.411212 -0.035368 1.000000 1.000000 1.000000 1.000000
v 2.251813 0.000449 -0.227506 1.000000 1.000000 1.000000 1.000000
v 2.426451 0.001533 -0.242780 1.000000 1.000000 1.000000 1.000000
v 2.247913 7.267157 -0.239463 1.000000 1.000000 1.000000 1.000000
v 2.429045 7.326854 -0.242110 1.000000 1.000000 1.000000 1.000000
v 0.000001 0.000001 0.107188 1.000000 1.000000 1.000000 1.000000
v 0.026015 -0.000066 -0.217340 1.000000 1.000000 1.000000 1.000000
v -0.011524 9.490708 0.095626 1.000000 1.000000 1.000000 1.000000
v 0.026685 9.329048 -0.220166 1.000000 1.000000 1.000000 1.000000
v -1.686450 1.586528 -0.000000 1.000000 1.000000 1.000000 1.000000
v -1.709648 0.233836 -0.098589 1.000000 1.000000 1.000000 1.000000
v -0.480980 1.721677 -0.122902 1.000000 1.000000 1.000000 1.000000
v -0.527233 0.230410 -0.084209 1.000000 1.000000 1.000000 1.000000
v -1.686450 3.409060 -0.000000 1.000000 1.000000 1.000000 1.000000
v -1.766681 1.876863 -0.036376 1.000000 1.000000 1.000000 1.000000
v -0.528659 3.492107 -0.033051 1.000000 1.000000 1.000000 1.000000
v -0.609698 1.956233 -0.000000 1.000000 1.000000 1.000000 1.000000
v -1.691584 5.412404 -0.069073 1.000000 1.000000 1.000000 1.000000
v -0.609698 3.788148 -0.000000 1.000000 1.000000 1.000000 1.000000
v -0.538308 5.378454 -0.061469 1.000000 1.000000 1.000000 1.000000
v -1.817530 3.646638 -0.120164 1.000000 1.000000 1.000000 1.000000
v -0.518989 6.911160 -0.063056 1.000000 1.000000 1.000000 1.000000
v -1.691584 5.412404 -0.069073 1.000000 1.000000 1.000000 1.000000
v -0.538308 5.378454 -0.061469 1.000000 1.000000 1.000000 1.000000
v -1.768756 6.910421 -0.079507 1.000000 1.000000 1.000000 1.000000
v -0.568030 8.812745 -0.090550 1.000000 1.000000 1.000000 1.000000
v -1.327668 8.345072 -0.118748 1.000000 1.000000 1.000000 1.000000
v -0.589334 7.409334 -0.159649 1.000000 1.000000 1.000000 1.000000
v -1.713733 7.395521 -0.145693 1.000000 1.000000 1.000000 1.000000
v -2.646096 0.000002 -0.220163 1.000000 1.000000 1.000000 1.000000
v -2.643939 7.252486 -0.226119 1.000000 1.000000 1.000000 1.000000
v -2.670258 7.334826 -0.011074 1.000000 1.000000 1.000000 1.000000
v -2.646096 -0.000000 0.000000 1.000000 1.000000 1.000000 1.000000
v -2.420155 7.568729 -0.245773 1.000000 1.000000 1.000000 1.000000
v -2.426431 0.003535 -0.244515 1.000000 1.000000 1.000000 1.000000
v -2.247807 0.000494 -0.234373 1.000000 1.000000 1.000000 1.000000
v -2.248346 7.256628 -0.231814 1.000000 1.000000 1.000000 1.000000
v 0.000001 0.000001 0.107188 1.000000 1.000000 1.000000 1.000000
v 0.007825 9.479319 0.098760 1.000000 1.000000 1.000000 1.000000
v -0.025845 0.000156 -0.217443 1.000000 1.000000 1.000000 1.000000
v -0.010627 9.512123 -0.228601 1.000000 1.000000 1.000000 1.000000
v 1.461326 9.456553 -0.162200 1.000000 1.000000 1.000000 1.000000
v 0.044805 9.639488 -0.280281 1.000000 1.000000 1.000000 1.000000
v 1.246189 9.091198 -0.250073 1.000000 1.000000 1.000000 1.000000
v 1.943542 8.418240 -0.250083 1.000000 1.000000 1.000000 1.000000
v 2.763644 7.367522 -0.014898 1.000000 1.000000 1.000000 1.000000
v 2.429045 7.326854 -0.242110 1.000000 1.000000 1.000000 1.000000
v 2.646096 7.126992 -0.220164 1.000000 1.000000 1.000000 1.000000
v 2.426451 0.001533 -0.242780 1.000000 1.000000 1.000000 1.000000
v 2.657222 -0.004695 -0.121069 1.000000 1.000000 1.000000 1.000000
v -0.842670 9.460805 -0.271889 1.000000 1.000000 1.000000 1.000000
v -1.708935 9.256323 -0.171272 1.000000 1.000000 1.000000 1.000000
v -1.691192 8.754492 -0.265312 1.000000 1.000000 1.000000 1.000000
v -2.420155 7.568729 -0.245773 1.000000 1.000000 1.000000 1.000000
v -2.670258 7.334826 -0.011074 1.000000 1.000000 1.000000 1.000000
v -2.643939 7.252486 -0.226119 1.000000 1.000000 1.000000 1.000000
v -2.646096 0.000002 -0.220163 1.000000 1.000000 1.000000 1.000000
v -2.426431 0.003535 -0.244515 1.000000 1.000000 1.000000 1.000000
v -1.691584 5.412404 -0.069073 1.000000 1.000000 1.000000 1.000000
v -1.792615 1.686657 -0.198671 1.000000 1.000000 1.000000 1.000000
v -1.817530 3.646638 -0.120164 1.000000 1.000000 1.000000 1.000000
v -1.709648 0.233836 -0.098589 1.000000 1.000000 1.000000 1.000000
v -2.247807 0.000494 -0.234373 1.000000 1.000000 1.000000 1.000000
v -0.025845 0.000156 -0.217443 1.000000 1.000000 1.000000 1.000000
v -2.248346 7.256628 -0.231814 1.000000 1.000000 1.000000 1.000000
v -0.527233 0.230410 -0.084209 1.000000 1.000000 1.000000 1.000000
v -0.480980 1.721677 -0.122902 1.000000 1.000000 1.000000 1.000000
v -0.500025 3.673088 -0.210916 1.000000 1.000000 1.000000 1.000000
v -1.713733 7.395521 -0.145693 1.000000 1.000000 1.000000 1.000000
v -1.768756 6.910421 -0.079507 1.000000 1.000000 1.000000 1.000000
v -0.518989 6.911160 -0.063056 1.000000 1.000000 1.000000 1.000000
v -1.327668 8.345072 -0.118748 1.000000 1.000000 1.000000 1.000000
v -1.691192 8.754492 -0.265312 1.000000 1.000000 1.000000 1.000000
v -0.589334 7.409334 -0.159649 1.000000 1.000000 1.000000 1.000000
v -0.010627 9.512123 -0.228601 1.000000 1.000000 1.000000 1.000000
v -0.538308 5.378454 -0.061469 1.000000 1.000000 1.000000 1.000000
v -0.568030 8.812745 -0.090550 1.000000 1.000000 1.000000 1.000000
v 0.595037 6.872457 -0.149105 1.000000 1.000000 1.000000 1.000000
v 0.534083 3.661438 -0.133970 1.000000 1.000000 1.000000 1.000000
v 0.549959 5.411212 -0.035368 1.000000 1.000000 1.000000 1.000000
v 0.026015 -0.000066 -0.217340 1.000000 1.000000 1.000000 1.000000
v 0.510913 1.609531 -0.079529 1.000000 1.000000 1.000000 1.000000
v 0.560321 0.232346 -0.097637 1.000000 1.000000 1.000000 1.000000
v 0.026685 9.329048 -0.220166 1.000000 1.000000 1.000000 1.000000
v 2.251813 0.000449 -0.227506 1.000000 1.000000 1.000000 1.000000
v 1.778763 0.222562 -0.061099 1.000000 1.000000 1.000000 1.000000
v 1.782681 1.711210 -0.154352 1.000000 1.000000 1.000000 1.000000
v 1.774746 3.753090 -0.074588 1.000000 1.000000 1.000000 1.000000
v 1.773925 5.392925 -0.145299 1.000000 1.000000 1.000000 1.000000
v 1.855372 7.473187 -0.158845 1.000000 1.000000 1.000000 1.000000
v 1.762081 6.918500 -0.081568 1.000000 1.000000 1.000000 1.000000
v 2.247913 7.267157 -0.239463 1.000000 1.000000 1.000000 1.000000
v 1.943542 8.418240 -0.250083 1.000000 1.000000 1.000000 1.000000
v 0.554909 7.368314 -0.042472 1.000000 1.000000 1.000000 1.000000
v 1.135913 8.565538 -0.220352 1.000000 1.000000 1.000000 1.000000
v 0.608245 8.782548 -0.105367 1.000000 1.000000 1.000000 1.000000
v 1.246189 9.091198 -0.250073 1.000000 1.000000 1.000000 1.000000
vt 0.082703 0.293945
vt 0.077576 0.205566
vt 0.158813 0.210938
vt 0.992676 0.070312
vt 0.903809 0.067871
vt 0.994141 0.051270
vt 0.740234 0.069824
vt 0.294434 0.060547
vt 0.755371 0.057129
vt 0.858887 0.898621
vt 0.818848 0.903137
vt 0.910645 0.829590
vt 0.816406 0.452148
vt 0.812500 0.568115
vt 0.814453 0.433594
vt 0.809082 0.441406
vt 0.897949 0.442871
vt 0.812988 0.453125
vt 0.897461 0.438477
vt 0.894531 0.572021
vt 0.893066 0.553955
vt 0.899902 0.564453
vt 0.812988 0.562744
vt 0.896973 0.553223
vt 0.815918 0.454590
vt 0.897949 0.445312
vt 0.887695 0.458008
vt 0.816895 0.452148
vt 0.821777 0.547852
vt 0.813965 0.566895
vt 0.897461 0.440430
vt 0.893066 0.552734
vt 0.887695 0.458008
vt 0.894043 0.551758
vt 0.813477 0.560303
vt 0.821777 0.547852
vt 0.818359 0.694092
vt 0.899414 0.688965
vt 0.889648 0.700684
vt 0.893555 0.783203
vt 0.889648 0.700684
vt 0.898438 0.682861
vt 0.950684 0.841553
vt 0.955566 0.767090
vt 0.966797 0.769531
vt 0.887695 0.969559
vt 0.876465 0.956696
vt 0.928223 0.897766
vt 0.404297 0.008789
vt 0.413818 0.028320
vt 0.398193 0.031250
vt 0.106079 0.450195
vt 0.099854 0.566162
vt 0.097656 0.436523
vt 0.097473 0.439453
vt 0.189453 0.444824
vt 0.100647 0.451172
vt 0.185303 0.439453
vt 0.188721 0.567871
vt 0.179321 0.554443
vt 0.188721 0.565430
vt 0.095825 0.559570
vt 0.184937 0.552979
vt 0.098328 0.435059
vt 0.106323 0.342285
vt 0.109985 0.425781
vt 0.103943 0.453613
vt 0.188354 0.446777
vt 0.176758 0.458008
vt 0.186523 0.435547
vt 0.097656 0.437012
vt 0.109985 0.425781
vt 0.106201 0.449707
vt 0.108704 0.546631
vt 0.099548 0.564697
vt 0.185791 0.441406
vt 0.179199 0.552979
vt 0.176758 0.458008
vt 0.101379 0.569336
vt 0.188599 0.566895
vt 0.175659 0.578857
vt 0.184692 0.550781
vt 0.094910 0.558105
vt 0.108704 0.546631
vt 0.179443 0.679443
vt 0.175659 0.578857
vt 0.188232 0.567383
vt 0.299805 0.039551
vt 0.296875 0.025879
vt 0.348145 0.040039
vt 0.142456 0.963745
vt 0.098145 0.936584
vt 0.067017 0.876221
vt 0.048553 0.776855
vt 0.036438 0.794678
vt 0.080383 0.198730
vt 0.159180 0.111816
vt 0.159790 0.205078
vt 0.083191 0.112793
vt 0.147583 0.100098
vt 0.214966 0.009277
vt 0.218994 0.104980
vt 0.143677 0.004883
vt 0.072083 0.110352
vt 0.148682 0.006836
vt 0.148804 0.109863
vt 0.071228 0.001465
vt 0.234375 0.193848
vt 0.302246 0.115234
vt 0.307129 0.196777
vt 0.231567 0.102539
vt 0.945312 0.311523
vt 0.955566 0.311523
vt 0.955566 0.766602
vt 0.966797 0.769897
vt 0.996094 0.007812
vt 0.996094 0.027832
vt 0.403076 0.008789
vt 0.413330 0.028809
vt 0.011559 0.196777
vt 0.010117 0.112305
vt 0.086914 0.204590
vt 0.083374 0.111816
vt 0.222168 0.100098
vt 0.217163 0.004395
vt 0.294434 0.104980
vt 0.289307 0.009277
vt 0.004269 0.110840
vt 0.072083 0.009277
vt 0.076294 0.108398
vt -0.003559 0.000488
vt 0.235474 0.197754
vt 0.162354 0.104004
vt 0.234375 0.102051
vt 0.157349 0.197754
vt 0.073486 0.295898
vt 0.026245 0.266113
vt 0.071777 0.208496
vt 0.002567 0.208496
vt 0.996582 0.047852
vt 0.543457 0.047852
vt 0.538086 0.034180
vt 0.996582 0.034180
vt 0.038177 0.795898
vt 0.038300 0.322266
vt 0.049408 0.322266
vt 0.048981 0.776489
vt 0.996094 0.092773
vt 0.403809 0.092285
vt 0.996094 0.072266
vt 0.401855 0.071777
vt 0.928711 0.974899
vt 0.840332 0.988144
vt 0.914551 0.952454
vt 0.957031 0.909363
vt 1.007812 0.843872
vt 0.985352 0.840332
vt 0.998535 0.827515
vt 0.973145 0.382812
vt 0.988281 0.382324
vt 0.126465 0.979385
vt 0.071777 0.966766
vt 0.073730 0.935364
vt 0.028183 0.861328
vt 0.007526 0.849854
vt 0.014442 0.841309
vt 0.017120 0.388184
vt 0.030884 0.388184
vt 0.102295 0.682617
vt 0.098083 0.435059
vt 0.097473 0.564453
vt 0.105042 0.339355
vt 0.070435 0.323730
vt 0.220581 0.325684
vt 0.067383 0.805420
vt 0.188354 0.339844
vt 0.189819 0.438965
vt 0.188354 0.568115
vt 0.103760 0.815430
vt 0.099854 0.783936
vt 0.184204 0.781616
vt 0.124329 0.883728
vt 0.104919 0.910828
vt 0.180054 0.814575
vt 0.219360 0.949097
vt 0.186523 0.680664
vt 0.183594 0.903625
vt 0.816895 0.780273
vt 0.811523 0.567871
vt 0.810547 0.682861
vt 0.777344 0.326660
vt 0.810059 0.432617
vt 0.811523 0.341309
vt 0.780762 0.939331
vt 0.928223 0.324707
vt 0.896973 0.339355
vt 0.898926 0.438477
vt 0.900391 0.573486
vt 0.900879 0.682129
vt 0.904297 0.821411
vt 0.896484 0.784424
vt 0.930664 0.806763
vt 0.912109 0.889160
vt 0.814453 0.812622
vt 0.858398 0.898132
vt 0.816406 0.902771
vt 0.856934 0.928467
vt1 0.058472 0.290527
vt1 0.052185 0.398926
vt1 0.152222 0.392090
vt1 0.831543 0.987038
vt1 0.834473 0.877747
vt1 0.855469 0.989021
vt1 0.832031 0.676270
vt1 0.844238 0.127441
vt1 0.848145 0.694824
vt1 0.546387 0.947021
vt1 0.496582 0.952576
vt1 0.610352 0.861450
vt1 0.493896 0.393555
vt1 0.489014 0.537598
vt1 0.491455 0.370605
vt1 0.484375 0.380371
vt1 0.594727 0.382324
vt1 0.489258 0.395020
vt1 0.594238 0.376953
vt1 0.590820 0.542236
vt1 0.588867 0.520020
vt1 0.597168 0.532959
vt1 0.489502 0.530762
vt1 0.593750 0.519287
vt1 0.493164 0.396973
vt1 0.594727 0.385254
vt1 0.582520 0.401367
vt1 0.494141 0.394043
vt1 0.500000 0.512451
vt1 0.490479 0.535889
vt1 0.594238 0.379395
vt1 0.588867 0.518555
vt1 0.582520 0.401367
vt1 0.589844 0.517334
vt1 0.489746 0.527832
vt1 0.500000 0.512451
vt1 0.496338 0.693604
vt1 0.597168 0.687256
vt1 0.584473 0.701660
vt1 0.589355 0.804077
vt1 0.584473 0.701660
vt1 0.595215 0.679688
vt1 0.668945 0.192383
vt1 0.674316 0.284180
vt1 0.688477 0.281250
vt1 0.591309 0.034668
vt1 0.577148 0.050781
vt1 0.641113 0.123047
vt1 0.904297 0.263184
vt1 0.879883 0.274902
vt1 0.875977 0.255859
vt1 0.281738 0.393066
vt1 0.273926 0.536865
vt1 0.271240 0.375977
vt1 0.270996 0.379883
vt1 0.385254 0.386230
vt1 0.274902 0.394043
vt1 0.380127 0.379883
vt1 0.384521 0.538818
vt1 0.372803 0.522217
vt1 0.384521 0.535889
vt1 0.269043 0.528564
vt1 0.379639 0.520508
vt1 0.271973 0.374023
vt1 0.281982 0.259277
vt1 0.286621 0.362793
vt1 0.279053 0.396973
vt1 0.384033 0.389160
vt1 0.369629 0.402832
vt1 0.381836 0.374512
vt1 0.271240 0.376465
vt1 0.286621 0.362793
vt1 0.281982 0.392578
vt1 0.284912 0.512451
vt1 0.273682 0.534912
vt1 0.380859 0.382324
vt1 0.372559 0.520508
vt1 0.369629 0.402832
vt1 0.275879 0.540527
vt1 0.384277 0.537598
vt1 0.368164 0.552490
vt1 0.379395 0.517822
vt1 0.267822 0.526611
vt1 0.284912 0.512451
vt1 0.372803 0.677002
vt1 0.368164 0.552490
vt1 0.383789 0.538330
vt1 0.792480 0.134277
vt1 0.809082 0.130371
vt1 0.791504 0.193848
vt1 0.629395 0.987717
vt1 0.683594 0.954193
vt1 0.722168 0.879822
vt1 0.745117 0.757324
vt1 0.759766 0.779297
vt1 0.113708 0.187500
vt1 0.210815 0.080566
vt1 0.211548 0.195312
vt1 0.117126 0.081543
vt1 0.056671 0.538086
vt1 0.168213 0.621094
vt1 0.050659 0.626221
vt1 0.173706 0.533203
vt1 0.044128 0.646484
vt1 0.171509 0.740967
vt1 0.045227 0.740967
vt1 0.178589 0.645508
vt1 0.442383 0.220215
vt1 0.525879 0.123535
vt1 0.531738 0.223633
vt1 0.438965 0.107910
vt1 0.661621 0.845825
vt1 0.674805 0.846069
vt1 0.674805 0.285156
vt1 0.688965 0.280762
vt1 0.905273 0.991936
vt1 0.880371 0.991966
vt1 0.903809 0.261719
vt1 0.879395 0.274414
vt1 0.008163 0.169434
vt1 0.006393 0.065430
vt1 0.100952 0.179688
vt1 0.096558 0.065430
vt1 0.056427 0.425293
vt1 0.174316 0.419434
vt1 0.050079 0.514404
vt1 0.168213 0.508301
vt1 0.044098 0.763306
vt1 0.168823 0.846802
vt1 0.046570 0.852051
vt1 0.179810 0.753662
vt1 0.420166 0.223145
vt1 0.330322 0.107910
vt1 0.418945 0.105469
vt1 0.324219 0.223145
vt1 0.302734 0.111816
vt1 0.244751 0.148438
vt1 0.300781 0.219238
vt1 0.215576 0.219238
vt1 0.782227 0.991898
vt1 0.782227 0.434082
vt1 0.798828 0.427734
vt1 0.798828 0.991936
vt1 0.757812 0.780762
vt1 0.757324 0.197266
vt1 0.743652 0.196777
vt1 0.744141 0.756836
vt1 0.927246 0.991943
vt1 0.928223 0.262695
vt1 0.952148 0.991966
vt1 0.953125 0.260254
vt1 0.120178 0.214355
vt1 0.011169 0.197754
vt1 0.102600 0.241699
vt1 0.155273 0.294922
vt1 0.218384 0.375488
vt1 0.190063 0.379883
vt1 0.206299 0.395996
vt1 0.174927 0.942963
vt1 0.193481 0.943970
vt1 0.145996 0.970734
vt1 0.078613 0.955231
vt1 0.081055 0.916565
vt1 0.024948 0.825317
vt1 -0.000483 0.811279
vt1 0.008034 0.800781
vt1 0.011330 0.242676
vt1 0.028275 0.243164
vt1 0.277100 0.681152
vt1 0.271729 0.374512
vt1 0.270996 0.534668
vt1 0.280518 0.255371
vt1 0.237427 0.236328
vt1 0.424072 0.238770
vt1 0.233643 0.833252
vt1 0.384033 0.256348
vt1 0.385742 0.379395
vt1 0.384033 0.539062
vt1 0.278809 0.845703
vt1 0.273926 0.806641
vt1 0.378906 0.803711
vt1 0.304443 0.930237
vt1 0.280273 0.963806
vt1 0.373779 0.844482
vt1 0.422607 1.011253
vt1 0.381836 0.678711
vt1 0.377930 0.954895
vt1 0.494141 0.800293
vt1 0.487305 0.537354
vt1 0.486328 0.679443
vt1 0.445312 0.238281
vt1 0.485596 0.369629
vt1 0.487793 0.256348
vt1 0.449219 0.997469
vt1 0.632812 0.235840
vt1 0.593750 0.253906
vt1 0.595703 0.376953
vt1 0.597656 0.544189
vt1 0.598633 0.678955
vt1 0.603027 0.851318
vt1 0.593262 0.805542
vt1 0.635254 0.833130
vt1 0.612305 0.935303
vt1 0.491455 0.840576
vt1 0.545898 0.946442
vt1 0.493896 0.952148
vt1 0.543945 0.984009
vn 0.000000 -0.000000 -1.000000
vn 0.000000 -0.000000 -1.000000
vn 0.000000 -0.000000 -1.000000
vn 0.086614 1.000000 -0.000000
vn 0.354331 0.937008 -0.000000
vn 0.070866 1.000000 -0.000000
vn 1.000000 0.000000 0.000000
vn 1.000000 0.000000 0.000000
vn 1.000000 0.000000 0.000000
vn -0.409449 -0.574803 -0.708661
vn -0.283465 -0.645669 -0.708661
vn -0.732283 -0.149606 -0.669291
vn 0.708661 -0.000000 -0.708661
vn 0.708661 -0.000000 -0.708661
vn 0.708661 -0.000000 -0.708661
vn 0.000000 0.708661 -0.708661
vn 0.000000 0.708661 -0.708661
vn 0.000000 0.708661 -0.708661
vn -0.708661 -0.000000 -0.708661
vn -0.708661 -0.000000 -0.708661
vn -0.708661 -0.000000 -0.708661
vn 0.000000 -0.708661 -0.708661
vn 0.000000 -0.708661 -0.708661
vn 0.000000 -0.708661 -0.708661
vn 0.000000 0.850394 -0.527559
vn 0.000000 0.850394 -0.527559
vn 0.000000 0.850394 -0.527559
vn 0.905512 -0.000000 -0.417323
vn 0.905512 -0.000000 -0.417323
vn 0.905512 -0.000000 -0.417323
vn -0.905512 -0.000000 -0.417323
vn -0.905512 -0.000000 -0.417323
vn -0.905512 -0.000000 -0.417323
vn 0.000000 -0.850394 -0.527559
vn 0.000000 -0.850394 -0.527559
vn 0.000000 -0.850394 -0.527559
vn 0.000000 0.881890 -0.464567
vn 0.000000 0.881890 -0.464567
vn 0.000000 0.881890 -0.464567
vn -0.905512 -0.000000 -0.417323
vn -0.905512 -0.000000 -0.417323
vn -0.905512 -0.000000 -0.417323
vn 0.000000 -0.000000 -1.000000
vn 0.000000 -0.000000 -1.000000
vn 0.000000 -0.000000 -1.000000
vn 0.000000 -0.000000 -1.000000
vn 0.000000 -0.000000 -1.000000
vn 0.000000 -0.000000 -1.000000
vn -1.000000 0.023622 -0.070866
vn -1.000000 -0.023622 -0.070866
vn -1.000000 0.039370 -0.070866
vn 0.708661 -0.000000 -0.708661
vn 0.708661 -0.000000 -0.708661
vn 0.708661 -0.000000 -0.708661
vn 0.000000 0.708661 -0.708661
vn 0.000000 0.708661 -0.708661
vn 0.000000 0.708661 -0.708661
vn -0.708661 -0.000000 -0.708661
vn -0.708661 -0.000000 -0.708661
vn -0.708661 -0.000000 -0.708661
vn 0.000000 -0.708661 -0.708661
vn 0.000000 -0.708661 -0.708661
vn 0.000000 -0.708661 -0.708661
vn 0.905512 -0.000000 -0.417323
vn 0.905512 -0.000000 -0.417323
vn 0.905512 -0.000000 -0.417323
vn 0.000000 0.850394 -0.527559
vn 0.000000 0.850394 -0.527559
vn 0.000000 0.850394 -0.527559
vn 0.000000 -0.874016 -0.488189
vn 0.000000 -0.874016 -0.488189
vn 0.000000 -0.874016 -0.488189
vn 0.905512 -0.000000 -0.417323
vn 0.905512 -0.000000 -0.417323
vn 0.905512 -0.000000 -0.417323
vn -0.905512 -0.000000 -0.417323
vn -0.905512 -0.000000 -0.417323
vn -0.905512 -0.000000 -0.417323
vn 0.000000 0.850394 -0.527559
vn 0.000000 0.850394 -0.527559
vn 0.000000 0.850394 -0.527559
vn 0.000000 -0.850394 -0.527559
vn 0.000000 -0.850394 -0.527559
vn 0.000000 -0.850394 -0.527559
vn -0.905512 -0.000000 -0.417323
vn -0.905512 -0.000000 -0.417323
vn -0.905512 -0.000000 -0.417323
vn -0.078740 1.000000 -0.000000
vn -0.062992 1.000000 -0.000000
vn -0.244094 0.968504 -0.000000
vn 0.000000 -0.000000 -1.000000
vn 0.000000 -0.000000 -1.000000
vn 0.000000 -0.000000 -1.000000
vn 0.000000 -0.000000 -1.000000
vn 0.000000 -0.000000 -1.000000
vn 0.000000 -0.000000 -1.000000
vn 0.000000 -0.000000 -1.000000
vn 0.000000 -0.000000 -1.000000
vn 0.000000 -0.000000 -1.000000
vn 0.000000 -0.000000 -1.000000
vn 0.000000 -0.000000 -1.000000
vn 0.000000 -0.000000 -1.000000
vn 0.000000 -0.000000 -1.000000
vn 0.000000 -0.000000 -1.000000
vn 0.000000 -0.000000 -1.000000
vn 0.000000 -0.000000 -1.000000
vn 0.000000 -0.000000 -1.000000
vn 0.000000 -0.000000 -1.000000
vn 0.000000 -0.000000 -1.000000
vn 0.000000 -0.000000 -1.000000
vn 0.000000 -0.000000 -1.000000
vn 0.000000 -0.000000 -1.000000
vn 0.000000 -0.000000 -1.000000
vn 0.000000 -0.000000 -1.000000
vn 0.000000 -0.000000 -1.000000
vn -1.000000 -0.000000 -0.070866
vn -1.000000 -0.000000 -0.070866
vn -1.000000 -0.000000 -0.070866
vn -1.000000 -0.000000 -0.070866
vn 0.000000 -0.000000 -1.000000
vn 0.000000 -0.000000 -1.000000
vn 0.000000 -0.000000 -1.000000
vn 0.000000 -0.000000 -1.000000
vn 0.000000 -0.000000 -1.000000
vn 0.000000 -0.000000 -1.000000
vn 0.000000 -0.000000 -1.000000
vn 0.000000 -0.000000 -1.000000
vn 0.000000 -0.000000 -1.000000
vn 0.000000 -0.000000 -1.000000
vn 0.000000 -0.000000 -1.000000
vn 0.000000 -0.000000 -1.000000
vn 0.000000 -0.000000 -1.000000
vn 0.000000 -0.000000 -1.000000
vn 0.000000 -0.000000 -1.000000
vn 0.000000 -0.000000 -1.000000
vn 0.000000 -0.000000 -1.000000
vn 0.000000 -0.000000 -1.000000
vn 0.000000 -0.000000 -1.000000
vn 0.000000 -0.000000 -1.000000
vn -1.000000 0.000000 0.000000
vn -1.000000 0.000000 0.000000
vn -1.000000 0.000000 0.000000
vn -1.000000 0.000000 0.000000
vn 0.000000 -0.000000 -1.000000
vn 0.000000 -0.000000 -1.000000
vn 0.000000 -0.000000 -1.000000
vn 0.000000 -0.000000 -1.000000
vn 1.000000 -0.000000 -0.070866
vn 1.000000 -0.000000 -0.070866
vn 1.000000 -0.000000 -0.070866
vn 1.000000 -0.000000 -0.070866
vn 0.000000 -0.000000 -1.000000
vn 0.000000 -0.000000 -1.000000
vn 0.000000 -0.000000 -1.000000
vn 0.000000 -0.000000 -1.000000
vn 0.000000 -0.000000 -1.000000
vn 0.000000 -0.000000 -1.000000
vn 0.000000 -0.000000 -1.000000
vn 0.000000 -0.000000 -1.000000
vn 0.000000 -0.000000 -1.000000
vn 0.000000 -0.000000 -1.000000
vn 0.000000 -0.000000 -1.000000
vn 0.000000 -0.000000 -1.000000
vn 0.000000 -0.000000 -1.000000
vn 0.000000 -0.000000 -1.000000
vn 0.000000 -0.000000 -1.000000
vn 0.000000 -0.000000 -1.000000
vn 0.000000 -0.000000 -1.000000
vn 0.000000 -0.000000 -1.000000
vn 0.000000 -0.000000 -1.000000
vn 0.000000 -0.000000 -1.000000
vn 0.000000 -0.000000 -1.000000
vn 0.000000 -0.000000 -1.000000
vn 0.000000 -0.000000 -1.000000
vn 0.000000 -0.000000 -1.000000
vn 0.000000 -0.000000 -1.000000
vn 0.000000 -0.000000 -1.000000
vn 0.000000 -0.000000 -1.000000
vn 0.000000 -0.000000 -1.000000
vn 0.000000 -0.000000 -1.000000
vn 0.000000 -0.000000 -1.000000
vn 0.000000 -0.000000 -1.000000
vn 0.000000 -0.000000 -1.000000
vn 0.000000 -0.000000 -1.000000
vn 0.000000 -0.000000 -1.000000
vn 0.000000 -0.000000 -1.000000
vn 0.000000 -0.000000 -1.000000
vn 0.000000 -0.000000 -1.000000
vn 0.000000 -0.000000 -1.000000
vn 0.000000 -0.000000 -1.000000
vn 0.000000 -0.000000 -1.000000
vn 0.000000 -0.000000 -1.000000
vn 0.000000 -0.000000 -1.000000
vn 0.000000 -0.000000 -1.000000
vn 0.000000 -0.000000 -1.000000
vn 0.000000 -0.000000 -1.000000
vn 0.000000 -0.000000 -1.000000
vn 0.000000 -0.000000 -1.000000
vn 0.000000 -0.000000 -1.000000
vn 0.000000 -0.000000 -1.000000
vn 0.000000 -0.000000 -1.000000
vn 0.000000 -0.000000 -1.000000
vn 0.000000 -0.000000 -1.000000
vn 0.000000 -0.000000 -1.000000
vn 0.000000 -0.000000 -1.000000
vn 0.000000 -0.000000 -1.000000
vn 0.000000 -0.000000 -1.000000
tan 0.015748 -1.000000 0.000000 1.000000
tan 0.015748 -1.000000 0.000000 1.000000
tan 0.015748 -1.000000 0.000000 1.000000
tan 0.007874 -0.000682 1.000000 1.000000
tan 0.007378 -0.002790 0.937008 1.000000
tan 0.007874 -0.000558 1.000000 1.000000
tan 0.000000 -0.007874 1.000000 1.000000
tan 0.000000 -0.007874 1.000000 1.000000
tan 0.000000 -0.007874 1.000000 1.000000
tan -0.012338 -0.752309 0.617335 1.000000
tan -0.023312 -0.713125 0.659061 1.000000
tan -0.324013 -0.781387 0.529171 1.000000
tan -0.150660 -0.982082 -0.150660 1.000000
tan 0.641701 -0.424081 0.641701 1.000000
tan -0.507781 -0.703081 -0.507781 1.000000
tan 0.000000 -0.708661 -0.708661 1.000000
tan 0.000000 -0.708661 -0.708661 1.000000
tan 0.000000 -0.708661 -0.708661 1.000000
tan 0.602641 -0.524521 -0.602641 1.000000
tan -0.340381 -0.881642 0.340381 1.000000
tan 0.011160 -1.004402 -0.011160 1.000000
tan 0.000000 -0.708661 0.708661 1.000000
tan 0.000000 -0.708661 0.708661 1.000000
tan 0.000000 -0.708661 0.708661 1.000000
tan 0.006696 -0.527559 -0.850394 1.000000
tan 0.000000 -0.527559 -0.850394 1.000000
tan 0.006696 -0.527559 -0.850394 1.000000
tan -0.151156 -0.847914 -0.327981 1.000000
tan 0.128154 -0.895034 0.278071 1.000000
tan 0.193874 -0.815549 0.420671 1.000000
tan 0.213590 -0.780457 -0.463451 1.000000
tan -0.144584 -0.855043 0.313721 1.000000
tan 0.161014 -0.870358 -0.349371 1.000000
tan 0.006696 -0.527559 0.850394 1.000000
tan 0.000000 -0.527559 0.850394 1.000000
tan 0.000000 -0.527559 0.850394 1.000000
tan 0.000000 -0.464567 -0.881890 1.000000
tan 0.000000 -0.464567 -0.881890 1.000000
tan -0.006944 -0.464567 -0.881890 1.000000
tan -0.203732 -0.794717 0.442061 1.000000
tan 0.134726 -0.895034 -0.292330 1.000000
tan 0.233306 -0.751937 -0.506231 1.000000
tan 0.314961 -0.952756 0.000000 1.000000
tan 0.086614 -0.992126 0.000000 1.000000
tan 0.070866 -1.000000 0.000000 1.000000
tan 0.685039 -0.724409 0.000000 1.000000
tan 0.669291 -0.748031 0.000000 1.000000
tan 0.496063 -0.866142 0.000000 1.000000
tan -0.070866 0.000000 1.000000 1.000000
tan -0.070866 0.000000 1.000000 1.000000
tan -0.070866 0.000000 1.000000 1.000000
tan 0.078120 -0.993242 0.078120 1.000000
tan 0.647281 -0.412921 0.647281 1.000000
tan -0.518941 -0.680761 -0.518941 1.000000
tan 0.000000 -0.708661 -0.708661 1.000000
tan 0.000000 -0.708661 -0.708661 1.000000
tan 0.000000 -0.708661 -0.708661 1.000000
tan 0.619381 -0.491041 -0.619381 1.000000
tan -0.513361 -0.691921 0.513361 1.000000
tan 0.000000 -1.004402 0.000000 1.000000
tan 0.000000 -0.708661 0.708661 1.000000
tan 0.000000 -0.708661 0.708661 1.000000
tan 0.000000 -0.708661 0.708661 1.000000
tan 0.157728 -0.840783 0.342241 1.000000
tan -0.174158 -0.826524 -0.377891 1.000000
tan 0.167586 -0.863228 0.363631 1.000000
tan -0.006696 -0.527559 -0.850394 1.000000
tan -0.006696 -0.527559 -0.850394 1.000000
tan -0.006696 -0.527559 -0.850394 1.000000
tan -0.006882 -0.488189 0.874016 1.000000
tan -0.006882 -0.488189 0.874016 1.000000
tan -0.006882 -0.488189 0.874016 1.000000
tan -0.161014 -0.844070 -0.349371 1.000000
tan 0.121582 -0.902164 0.263811 1.000000
tan 0.203732 -0.794717 0.442061 1.000000
tan 0.200446 -0.794717 -0.434931 1.000000
tan -0.154442 -0.847914 0.335111 1.000000
tan 0.151156 -0.880774 -0.327981 1.000000
tan 0.000000 -0.527559 -0.850394 1.000000
tan -0.006696 -0.527559 -0.850394 1.000000
tan -0.006696 -0.527559 -0.850394 1.000000
tan -0.006696 -0.527559 0.850394 1.000000
tan 0.000000 -0.527559 0.850394 1.000000
tan -0.006696 -0.527559 0.850394 1.000000
tan -0.184016 -0.819393 0.399281 1.000000
tan 0.121582 -0.902164 -0.263810 1.000000
tan 0.161014 -0.840784 -0.349371 1.000000
tan 0.000000 0.000000 1.000000 1.000000
tan 0.000000 0.000000 1.000000 1.000000
tan 0.000000 0.000000 0.968504 1.000000
tan -0.503937 -0.866142 0.000000 1.000000
tan -0.440945 -0.897638 0.000000 1.000000
tan -0.322835 -0.944882 0.000000 1.000000
tan -0.062992 -1.000000 0.000000 1.000000
tan -0.086614 -1.000000 0.000000 1.000000
tan 0.000000 -1.000000 0.000000 1.000000
tan 0.000000 -1.000000 0.000000 1.000000
tan 0.000000 -1.000000 0.000000 1.000000
tan 0.000000 -1.000000 0.000000 1.000000
tan 0.000000 -1.000000 0.000000 1.000000
tan 0.000000 -1.000000 0.000000 1.000000
tan 0.000000 -1.000000 0.000000 1.000000
tan 0.000000 -1.000000 0.000000 1.000000
tan 0.000000 -1.000000 0.000000 1.000000
tan 0.000000 -1.000000 0.000000 1.000000
tan 0.000000 -1.000000 0.000000 1.000000
tan 0.000000 -1.000000 0.000000 1.000000
tan 0.000000 -1.000000 0.000000 1.000000
tan 0.000000 -1.000000 0.000000 1.000000
tan 0.000000 -1.000000 0.000000 1.000000
tan 0.000000 -1.000000 0.000000 1.000000
tan 0.023622 -1.000000 0.000000 1.000000
tan 0.023622 -1.000000 0.000000 1.000000
tan 0.031496 -1.000000 0.000000 1.000000
tan 0.031496 -1.000000 0.000000 1.000000
tan -0.070866 0.000000 1.000000 1.000000
tan -0.070866 0.000000 1.000000 1.000000
tan -0.070866 0.000000 1.000000 1.000000
tan -0.070866 0.000000 1.000000 1.000000
tan 0.000000 -1.000000 0.000000 1.000000
tan 0.000000 -1.000000 0.000000 1.000000
tan 0.000000 -1.000000 0.000000 1.000000
tan 0.000000 -1.000000 0.000000 1.000000
tan 0.000000 -1.000000 0.000000 1.000000
tan 0.000000 -1.000000 0.000000 1.000000
tan 0.000000 -1.000000 0.000000 1.000000
tan 0.000000 -1.000000 0.000000 1.000000
tan 0.000000 -1.000000 0.000000 1.000000
tan 0.000000 -1.000000 0.000000 1.000000
tan 0.000000 -1.000000 0.000000 1.000000
tan 0.000000 -1.000000 0.000000 1.000000
tan 0.000000 -1.000000 0.000000 1.000000
tan 0.000000 -1.000000 0.000000 1.000000
tan 0.000000 -1.000000 0.000000 1.000000
tan 0.000000 -1.000000 0.000000 1.000000
tan 0.000000 -1.000000 0.000000 1.000000
tan 0.000000 -1.000000 0.000000 1.000000
tan 0.000000 -1.000000 0.000000 1.000000
tan 0.000000 -1.000000 0.000000 1.000000
tan 0.000000 0.000000 1.000000 1.000000
tan 0.000000 0.000000 1.000000 1.000000
tan 0.000000 0.000000 1.000000 1.000000
tan 0.000000 0.000000 1.000000 1.000000
tan -0.023622 -1.000000 0.000000 1.000000
tan 0.007874 -1.000000 0.000000 1.000000
tan 0.015748 -1.000000 0.000000 1.000000
tan -0.015748 -1.000000 0.000000 1.000000
tan -0.070866 -0.000000 -1.000000 1.000000
tan -0.070866 -0.000000 -1.000000 1.000000
tan -0.070866 -0.000000 -1.000000 1.000000
tan -0.070866 -0.000000 -1.000000 1.000000
tan 0.023622 -1.000000 0.000000 1.000000
tan 0.023622 -1.000000 0.000000 1.000000
tan 0.031496 -1.000000 0.000000 1.000000
tan 0.023622 -1.000000 0.000000 1.000000
tan 0.023622 -1.000000 0.000000 1.000000
tan 0.023622 -1.000000 0.000000 1.000000
tan 0.023622 -1.000000 0.000000 1.000000
tan 0.031496 -1.000000 0.000000 1.000000
tan 0.031496 -1.000000 0.000000 1.000000
tan -0.007874 -1.000000 0.000000 1.000000
tan -0.007874 -1.000000 0.000000 1.000000
tan -0.007874 -1.000000 0.000000 1.000000
tan -0.007874 -1.000000 0.000000 1.000000
tan -0.007874 -1.000000 0.000000 1.000000
tan -0.007874 -1.000000 0.000000 1.000000
tan -0.007874 -1.000000 0.000000 1.000000
tan -0.007874 -1.000000 0.000000 1.000000
tan 0.000000 -1.000000 0.000000 1.000000
tan 0.007874 -1.000000 0.000000 1.000000
tan 0.015748 -1.000000 0.000000 1.000000
tan 0.007874 -1.000000 0.000000 1.000000
tan -0.015748 -1.000000 0.000000 1.000000
tan -0.015748 -1.000000 0.000000 1.000000
tan -0.007874 -1.000000 0.000000 1.000000
tan -0.031496 -1.000000 0.000000 1.000000
tan -0.015748 -1.000000 0.000000 1.000000
tan -0.007874 -1.000000 0.000000 1.000000
tan 0.015748 -1.000000 0.000000 1.000000
tan 0.007874 -1.000000 0.000000 1.000000
tan 0.023622 -1.000000 0.000000 1.000000
tan -0.007874 -1.000000 0.000000 1.000000
tan 0.015748 -1.000000 0.000000 1.000000
tan 0.000000 -1.000000 0.000000 1.000000
tan 0.078740 -1.000000 0.000000 1.000000
tan 0.015748 -1.000000 0.000000 1.000000
tan 0.149606 -0.992126 0.000000 1.000000
tan 0.000000 -1.000000 0.000000 1.000000
tan 0.007874 -1.000000 0.000000 1.000000
tan 0.023622 -1.000000 0.000000 1.000000
tan 0.015748 -1.000000 0.000000 1.000000
tan 0.000000 -1.000000 0.000000 1.000000
tan 0.031496 -1.000000 0.000000 1.000000
tan -0.039370 -1.000000 0.000000 1.000000
tan 0.007874 -1.000000 0.000000 1.000000
tan -0.015748 -1.000000 0.000000 1.000000
tan 0.007874 -1.000000 0.000000 1.000000
tan 0.007874 -1.000000 0.000000 1.000000
tan 0.000000 -1.000000 0.000000 1.000000
tan 0.000000 -1.000000 0.000000 1.000000
tan 0.000000 -1.000000 0.000000 1.000000
tan 0.015748 -1.000000 0.000000 1.000000
tan 0.055118 -1.000000 0.000000 1.000000
tan 0.000000 -1.000000 0.000000 1.000000
tan -0.078740 -1.000000 0.000000 1.000000
tan -0.070866 -1.000000 0.000000 1.000000
tan -0.204724 -0.976378 0.000000 1.000000
f 3/3/3 2/2/2 1/1/1
f 6/6/6 5/5/5 4/4/4
f 9/9/9 8/8/8 7/7/7
f 12/12/12 11/11/11 10/10/10
f 15/15/15 14/14/14 13/13/13
f 18/18/18 17/17/17 16/16/16
f 21/21/21 20/20/20 19/19/19
f 24/24/24 23/23/23 22/22/22
f 27/27/27 26/26/26 25/25/25
f 30/30/30 29/29/29 28/28/28
f 33/33/33 32/32/32 31/31/31
f 36/36/36 35/35/35 34/34/34
f 39/39/39 38/38/38 37/37/37
f 42/42/42 41/41/41 40/40/40
f 45/45/45 44/44/44 43/43/43
f 48/48/48 47/47/47 46/46/46
f 51/51/51 50/50/50 49/49/49
f 54/54/54 53/53/53 52/52/52
f 57/57/57 56/56/56 55/55/55
f 60/60/60 59/59/59 58/58/58
f 63/63/63 62/62/62 61/61/61
f 66/66/66 65/65/65 64/64/64
f 69/69/69 68/68/68 67/67/67
f 72/72/72 71/71/71 70/70/70
f 75/75/75 74/74/74 73/73/73
f 78/78/78 77/77/77 76/76/76
f 81/81/81 80/80/80 79/79/79
f 84/84/84 83/83/83 82/82/82
f 87/87/87 86/86/86 85/85/85
f 90/90/90 89/89/89 88/88/88
f 93/93/93 92/92/92 91/91/91
f 95/95/95 93/93/93 94/94/94
f 98/98/98 97/97/97 96/96/96
f 99/99/99 96/96/96 97/97/97
f 102/102/102 101/101/101 100/100/100
f 103/103/103 100/100/100 101/101/101
f 106/106/106 105/105/105 104/104/104
f 107/107/107 104/104/104 105/105/105
f 110/110/110 109/109/109 108/108/108
f 111/111/111 108/108/108 109/109/109
f 114/114/114 113/113/113 112/112/112
f 115/115/115 113/113/113 114/114/114
f 118/118/118 117/117/117 116/116/116
f 117/117/117 118/118/118 119/119/119
f 122/122/122 121/121/121 120/120/120
f 123/123/123 121/121/121 122/122/122
f 126/126/126 125/125/125 124/124/124
f 127/127/127 125/125/125 126/126/126
f 130/130/130 129/129/129 128/128/128
f 131/131/131 128/128/128 129/129/129
f 134/134/134 133/133/133 132/132/132
f 135/135/135 132/132/132 133/133/133
f 138/138/138 137/137/137 136/136/136
f 137/137/137 138/138/138 139/139/139
f 142/142/142 141/141/141 140/140/140
f 143/143/143 142/142/142 140/140/140
f 146/146/146 145/145/145 144/144/144
f 146/146/146 144/144/144 147/147/147
f 150/150/150 149/149/149 148/148/148
f 149/149/149 150/150/150 151/151/151
f 154/154/154 153/153/153 152/152/152
f 154/154/154 152/152/152 155/155/155
f 156/156/156 155/155/155 152/152/152
f 155/155/155 156/156/156 157/157/157
f 158/158/158 157/157/157 156/156/156
f 159/159/159 157/157/157 158/158/158
f 160/160/160 159/159/159 158/158/158
f 163/163/163 162/162/162 161/161/161
f 163/163/163 164/164/164 162/162/162
f 162/162/162 164/164/164 165/165/165
f 165/165/165 164/164/164 166/166/166
f 164/164/164 167/167/167 166/166/166
f 168/168/168 167/167/167 164/164/164
f 171/171/171 170/170/170 169/169/169
f 170/170/170 172/172/172 169/169/169
f 173/173/173 169/169/169 172/172/172
f 173/173/173 172/172/172 174/174/174
f 169/169/169 173/173/173 175/175/175
f 176/176/176 174/174/174 172/172/172
f 177/177/177 174/174/174 176/176/176
f 177/177/177 178/178/178 174/174/174
f 169/169/169 175/175/175 179/179/179
f 179/179/179 180/180/180 169/169/169
f 179/179/179 181/181/181 180/180/180
f 175/175/175 182/182/182 179/179/179
f 175/175/175 183/183/183 182/182/182
f 184/184/184 181/181/181 179/179/179
f 183/183/183 185/185/185 182/182/182
f 186/186/186 181/181/181 184/184/184
f 186/186/186 184/184/184 178/178/178
f 174/174/174 178/178/178 184/184/184
f 185/185/185 174/174/174 184/184/184
f 185/185/185 187/187/187 182/182/182
f 185/185/185 184/184/184 187/187/187
f 190/190/190 189/189/189 188/188/188
f 188/188/188 189/189/189 191/191/191
f 192/192/192 191/191/191 189/189/189
f 192/192/192 193/193/193 191/191/191
f 191/191/191 194/194/194 188/188/188
f 191/191/191 193/193/193 195/195/195
f 195/195/195 193/193/193 196/196/196
f 195/195/195 196/196/196 197/197/197
f 197/197/197 198/198/198 195/195/195
f 198/198/198 199/199/199 195/195/195
f 200/200/200 195/195/195 199/199/199
f 199/199/199 201/201/201 200/200/200
f 200/200/200 201/201/201 188/188/188
f 195/195/195 200/200/200 202/202/202
f 202/202/202 200/200/200 203/203/203
f 188/188/188 204/204/204 200/200/200
f 205/205/205 203/203/203 200/200/200
f 204/204/204 188/188/188 206/206/206
f 188/188/188 194/194/194 206/206/206
f 203/203/203 205/205/205 207/207/207
f 206/206/206 194/194/194 207/207/207
f 206/206/206 207/207/207 205/205/205
