mtllib SM_Door_Arch_LOD3@000002909DC52400.mtl
g SM_Door_Arch_LOD3@000002909DC52400
#Vertices 397
#Indices 930
#Section 0 Offset 0 NumIndices 930 MaterialIndex 0 MI_Door_Arch
v 3.825523 7.430276 -2.163356 0.000000 0.000000 1.000000 1.000000
v 3.849204 -0.000055 -2.179324 0.000000 0.000000 1.000000 1.000000
v 3.853237 7.428431 -2.187881 0.000000 0.000000 1.000000 1.000000
v 3.825523 7.430276 -2.163356 0.000000 0.000000 1.000000 1.000000
v 3.814569 -0.000000 -2.165689 0.000000 0.000000 1.000000 1.000000
v 3.849204 -0.000055 -2.179324 0.000000 0.000000 1.000000 1.000000
v 3.640985 7.419681 -2.152575 0.000000 0.000000 1.000000 1.000000
v 3.661165 -0.000036 -2.169107 0.000000 0.000000 1.000000 1.000000
v 3.677933 7.424998 -2.165484 0.000000 0.000000 1.000000 1.000000
v -3.848971 7.431827 -2.180257 0.000000 0.000000 1.000000 1.000000
v -3.824396 -0.001925 -2.162624 0.000000 0.000000 1.000000 1.000000
v -3.814569 7.424998 -2.165690 0.000000 0.000000 1.000000 1.000000
v -3.848971 7.431827 -2.180257 0.000000 0.000000 1.000000 1.000000
v -3.847079 -0.000000 -2.188300 0.000000 0.000000 1.000000 1.000000
v -3.824396 -0.001925 -2.162624 0.000000 0.000000 1.000000 1.000000
v -3.643510 0.000058 -2.151619 0.000000 0.000000 1.000000 1.000000
v -3.645423 7.424998 -2.142873 0.000000 0.000000 1.000000 1.000000
v -3.668060 7.424265 -2.168512 0.000000 0.000000 1.000000 1.000000
v -3.668060 7.424265 -2.168512 0.000000 0.000000 1.000000 1.000000
v -3.677933 -0.000000 -2.165483 0.000000 0.000000 1.000000 1.000000
v -3.643510 0.000058 -2.151619 0.000000 0.000000 1.000000 1.000000
v 3.621991 7.429426 -1.995777 0.000000 0.000000 1.000000 1.000000
v 3.646436 -0.000043 -2.013608 0.000000 0.000000 1.000000 1.000000
v 3.644579 7.424998 -2.021468 0.000000 0.000000 1.000000 1.000000
v 3.621991 7.429426 -1.995777 0.000000 0.000000 1.000000 1.000000
v 3.612069 -0.000000 -1.998856 0.000000 0.000000 1.000000 1.000000
v 3.646436 -0.000043 -2.013608 0.000000 0.000000 1.000000 1.000000
v 3.440029 7.420496 -1.984553 0.000000 0.000000 1.000000 1.000000
v 3.465581 -0.001995 -2.001661 0.000000 0.000000 1.000000 1.000000
v 3.475433 7.424999 -1.998651 0.000000 0.000000 1.000000 1.000000
v 3.465581 -0.001995 -2.001661 0.000000 0.000000 1.000000 1.000000
v 3.440029 7.420496 -1.984553 0.000000 0.000000 1.000000 1.000000
v 3.442923 -0.000000 -1.976038 0.000000 0.000000 1.000000 1.000000
v -3.649256 7.439790 -2.011580 0.000000 0.000000 1.000000 1.000000
v -3.628685 -0.000231 -1.995252 0.000000 0.000000 1.000000 1.000000
v -3.612069 7.424999 -1.998857 0.000000 0.000000 1.000000 1.000000
v -3.441019 0.000053 -1.984777 0.000000 0.000000 1.000000 1.000000
v -3.442923 7.424999 -1.976039 0.000000 0.000000 1.000000 1.000000
v -3.465287 7.421999 -2.002048 0.000000 0.000000 1.000000 1.000000
v -3.465287 7.421999 -2.002048 0.000000 0.000000 1.000000 1.000000
v -3.475433 -0.000000 -1.998650 0.000000 0.000000 1.000000 1.000000
v -3.441019 0.000053 -1.984777 0.000000 0.000000 1.000000 1.000000
v 3.419485 7.430389 -1.828967 0.000000 0.000000 1.000000 1.000000
v 3.443937 -0.000043 -1.846775 0.000000 0.000000 1.000000 1.000000
v 3.442079 7.424999 -1.854635 0.000000 0.000000 1.000000 1.000000
v 3.419485 7.430389 -1.828967 0.000000 0.000000 1.000000 1.000000
v 3.409569 -0.000000 -1.832023 0.000000 0.000000 1.000000 1.000000
v 3.443937 -0.000043 -1.846775 0.000000 0.000000 1.000000 1.000000
v -3.419394 -0.001927 -1.828956 0.000000 0.000000 1.000000 1.000000
v -3.409568 7.424999 -1.832024 0.000000 0.000000 1.000000 1.000000
v -3.443975 7.431300 -1.846606 0.000000 0.000000 1.000000 1.000000
v -3.443975 7.431300 -1.846606 0.000000 0.000000 1.000000 1.000000
v -3.442079 -0.000000 -1.854634 0.000000 0.000000 1.000000 1.000000
v -3.419394 -0.001927 -1.828956 0.000000 0.000000 1.000000 1.000000
v -3.841562 0.000043 -2.321427 0.000000 0.000000 1.000000 1.000000
v -3.847501 7.424998 -2.249003 0.000000 0.000000 1.000000 1.000000
v -3.841190 7.416991 -2.329510 0.000000 0.000000 1.000000 1.000000
v -3.847501 -0.000000 -2.249002 0.000000 0.000000 1.000000 1.000000
v -3.847501 -0.000000 -2.249002 0.000000 0.000000 1.000000 1.000000
v -3.848971 7.431827 -2.180257 0.000000 0.000000 1.000000 1.000000
v -3.847501 7.424998 -2.249003 0.000000 0.000000 1.000000 1.000000
v -3.847079 -0.000000 -2.188300 0.000000 0.000000 1.000000 1.000000
v 3.847502 7.424998 -2.249003 0.000000 0.000000 1.000000 1.000000
v 3.847502 -0.000000 -2.249002 0.000000 0.000000 1.000000 1.000000
v 3.839571 7.422276 -2.327979 0.000000 0.000000 1.000000 1.000000
v 3.839663 -0.000015 -2.326742 0.000000 0.000000 1.000000 1.000000
v 3.853237 7.428431 -2.187881 0.000000 0.000000 1.000000 1.000000
v 3.849204 -0.000055 -2.179324 0.000000 0.000000 1.000000 1.000000
v 3.847502 7.424998 -2.249003 0.000000 0.000000 1.000000 1.000000
v 3.847502 -0.000000 -2.249002 0.000000 0.000000 1.000000 1.000000
v -3.824396 -0.001925 -2.162624 0.000000 0.000000 1.000000 1.000000
v -3.746251 7.424998 -2.165587 0.000000 0.000000 1.000000 1.000000
v -3.814569 7.424998 -2.165690 0.000000 0.000000 1.000000 1.000000
v -3.746251 -0.000000 -2.165586 0.000000 0.000000 1.000000 1.000000
v -3.746251 -0.000000 -2.165586 0.000000 0.000000 1.000000 1.000000
v -3.668060 7.424265 -2.168512 0.000000 0.000000 1.000000 1.000000
v -3.746251 7.424998 -2.165587 0.000000 0.000000 1.000000 1.000000
v -3.677933 -0.000000 -2.165483 0.000000 0.000000 1.000000 1.000000
v -3.643510 0.000058 -2.151619 0.000000 0.000000 1.000000 1.000000
v -3.645001 7.424998 -2.082170 0.000000 0.000000 1.000000 1.000000
v -3.645423 7.424998 -2.142873 0.000000 0.000000 1.000000 1.000000
v -3.645001 -0.000000 -2.082170 0.000000 0.000000 1.000000 1.000000
v -3.645001 -0.000000 -2.082170 0.000000 0.000000 1.000000 1.000000
v -3.649256 7.439790 -2.011580 0.000000 0.000000 1.000000 1.000000
v -3.645001 7.424998 -2.082170 0.000000 0.000000 1.000000 1.000000
v -3.628685 -0.000231 -1.995252 0.000000 0.000000 1.000000 1.000000
v 3.746251 -0.000000 -2.165586 0.000000 0.000000 1.000000 1.000000
v 3.825523 7.430276 -2.163356 0.000000 0.000000 1.000000 1.000000
v 3.746251 7.424998 -2.165587 0.000000 0.000000 1.000000 1.000000
v 3.814569 -0.000000 -2.165689 0.000000 0.000000 1.000000 1.000000
v 3.661165 -0.000036 -2.169107 0.000000 0.000000 1.000000 1.000000
v 3.746251 7.424998 -2.165587 0.000000 0.000000 1.000000 1.000000
v 3.677933 7.424998 -2.165484 0.000000 0.000000 1.000000 1.000000
v 3.746251 -0.000000 -2.165586 0.000000 0.000000 1.000000 1.000000
v 3.645001 7.424998 -2.082170 0.000000 0.000000 1.000000 1.000000
v 3.645001 -0.000000 -2.082170 0.000000 0.000000 1.000000 1.000000
v 3.640985 7.419681 -2.152575 0.000000 0.000000 1.000000 1.000000
v 3.661165 -0.000036 -2.169107 0.000000 0.000000 1.000000 1.000000
v 3.644579 7.424998 -2.021468 0.000000 0.000000 1.000000 1.000000
v 3.646436 -0.000043 -2.013608 0.000000 0.000000 1.000000 1.000000
v 3.645001 7.424998 -2.082170 0.000000 0.000000 1.000000 1.000000
v 3.645001 -0.000000 -2.082170 0.000000 0.000000 1.000000 1.000000
v -3.628685 -0.000231 -1.995252 0.000000 0.000000 1.000000 1.000000
v -3.543751 7.424999 -1.998754 0.000000 0.000000 1.000000 1.000000
v -3.612069 7.424999 -1.998857 0.000000 0.000000 1.000000 1.000000
v -3.543751 -0.000000 -1.998753 0.000000 0.000000 1.000000 1.000000
v -3.543751 -0.000000 -1.998753 0.000000 0.000000 1.000000 1.000000
v -3.465287 7.421999 -2.002048 0.000000 0.000000 1.000000 1.000000
v -3.543751 7.424999 -1.998754 0.000000 0.000000 1.000000 1.000000
v -3.475433 -0.000000 -1.998650 0.000000 0.000000 1.000000 1.000000
v -3.441019 0.000053 -1.984777 0.000000 0.000000 1.000000 1.000000
v -3.442501 7.424999 -1.915337 0.000000 0.000000 1.000000 1.000000
v -3.442923 7.424999 -1.976039 0.000000 0.000000 1.000000 1.000000
v -3.442501 -0.000000 -1.915336 0.000000 0.000000 1.000000 1.000000
v -3.443975 7.431300 -1.846606 0.000000 0.000000 1.000000 1.000000
v -3.442079 -0.000000 -1.854634 0.000000 0.000000 1.000000 1.000000
v -3.442501 7.424999 -1.915337 0.000000 0.000000 1.000000 1.000000
v 3.543751 -0.000000 -1.998753 0.000000 0.000000 1.000000 1.000000
v 3.621991 7.429426 -1.995777 0.000000 0.000000 1.000000 1.000000
v 3.543751 7.424999 -1.998754 0.000000 0.000000 1.000000 1.000000
v 3.612069 -0.000000 -1.998856 0.000000 0.000000 1.000000 1.000000
v 3.465581 -0.001995 -2.001661 0.000000 0.000000 1.000000 1.000000
v 3.543751 7.424999 -1.998754 0.000000 0.000000 1.000000 1.000000
v 3.475433 7.424999 -1.998651 0.000000 0.000000 1.000000 1.000000
v 3.543751 -0.000000 -1.998753 0.000000 0.000000 1.000000 1.000000
v 3.442501 7.424999 -1.915337 0.000000 0.000000 1.000000 1.000000
v 3.442501 -0.000000 -1.915336 0.000000 0.000000 1.000000 1.000000
v 3.440029 7.420496 -1.984553 0.000000 0.000000 1.000000 1.000000
v 3.442923 -0.000000 -1.976038 0.000000 0.000000 1.000000 1.000000
v 3.442079 7.424999 -1.854635 0.000000 0.000000 1.000000 1.000000
v 3.443937 -0.000043 -1.846775 0.000000 0.000000 1.000000 1.000000
v 3.442501 7.424999 -1.915337 0.000000 0.000000 1.000000 1.000000
v 3.442501 -0.000000 -1.915336 0.000000 0.000000 1.000000 1.000000
v -3.409568 7.424999 -1.832024 0.000000 0.000000 1.000000 1.000000
v -3.419394 -0.001927 -1.828956 0.000000 0.000000 1.000000 1.000000
v -3.341251 7.424999 -1.831921 0.000000 0.000000 1.000000 1.000000
v -3.341251 -0.000000 -1.831920 0.000000 0.000000 1.000000 1.000000
v -3.260967 7.419388 -1.843899 0.000000 0.000000 1.000000 1.000000
v -3.248949 0.003747 -1.848315 0.000000 0.000000 1.000000 1.000000
v -3.341251 7.424999 -1.831921 0.000000 0.000000 1.000000 1.000000
v -3.240422 -0.000000 -1.662875 0.000000 0.000000 1.000000 1.000000
v -3.240001 7.424999 -1.163183 0.000000 0.000000 1.000000 1.000000
v -3.240422 7.424999 -1.662876 0.000000 0.000000 1.000000 1.000000
v -3.240001 -0.000000 -1.163182 0.000000 0.000000 1.000000 1.000000
v 3.341251 -0.000000 -1.831920 0.000000 0.000000 1.000000 1.000000
v 3.419485 7.430389 -1.828967 0.000000 0.000000 1.000000 1.000000
v 3.341251 7.424999 -1.831921 0.000000 0.000000 1.000000 1.000000
v 3.409569 -0.000000 -1.832023 0.000000 0.000000 1.000000 1.000000
v 3.249543 7.417692 -1.848615 0.000000 0.000000 1.000000 1.000000
v 3.259924 -0.000092 -1.844955 0.000000 0.000000 1.000000 1.000000
v 3.341251 7.424999 -1.831921 0.000000 0.000000 1.000000 1.000000
v 3.341251 -0.000000 -1.831920 0.000000 0.000000 1.000000 1.000000
v 3.240001 7.424999 -1.163183 0.000000 0.000000 1.000000 1.000000
v 3.240423 -0.000000 -1.662875 0.000000 0.000000 1.000000 1.000000
v 3.240423 7.424999 -1.662876 0.000000 0.000000 1.000000 1.000000
v 3.240001 -0.000000 -1.163182 0.000000 0.000000 1.000000 1.000000
v 3.839571 7.422276 -2.327979 0.000000 0.000000 1.000000 1.000000
v 3.839663 -0.000015 -2.326742 0.000000 0.000000 1.000000 1.000000
v 3.971557 7.424998 -2.332360 0.000000 0.000000 1.000000 1.000000
v 3.971558 0.000000 -2.332358 0.000000 0.000000 1.000000 1.000000
v -3.971558 7.425000 -2.332362 0.000000 0.000000 1.000000 1.000000
v -3.971558 0.000001 -2.332356 0.000000 0.000000 1.000000 1.000000
v -3.841190 7.416991 -2.329510 0.000000 0.000000 1.000000 1.000000
v -3.841562 0.000043 -2.321427 0.000000 0.000000 1.000000 1.000000
v 3.240423 7.424999 -1.662876 0.000000 0.000000 1.000000 1.000000
v 3.240423 -0.000000 -1.662875 0.000000 0.000000 1.000000 1.000000
v 3.249543 7.417692 -1.848615 0.000000 0.000000 1.000000 1.000000
v 3.259924 -0.000092 -1.844955 0.000000 0.000000 1.000000 1.000000
v -3.248949 0.003747 -1.848315 0.000000 0.000000 1.000000 1.000000
v -3.240422 7.424999 -1.662876 0.000000 0.000000 1.000000 1.000000
v -3.260967 7.419388 -1.843899 0.000000 0.000000 1.000000 1.000000
v -3.240422 -0.000000 -1.662875 0.000000 0.000000 1.000000 1.000000
v 1.004698 12.203708 -2.332370 1.000000 1.000000 1.000000 1.000000
v -0.006968 12.979486 -2.284379 1.000000 1.000000 1.000000 1.000000
v 0.000636 12.913767 -2.332947 1.000000 1.000000 1.000000 1.000000
v 1.176746 12.157583 -2.282837 1.000000 1.000000 1.000000 1.000000
v 2.651568 11.261735 -2.332592 1.000000 1.000000 1.000000 1.000000
v 2.685559 11.300148 -2.283152 1.000000 1.000000 1.000000 1.000000
v 3.599717 10.491680 -2.284200 1.000000 1.000000 1.000000 1.000000
v 3.554818 10.457272 -2.334882 1.000000 1.000000 1.000000 1.000000
v 4.195560 9.562742 -2.282924 1.000000 1.000000 1.000000 1.000000
v 4.151278 9.540425 -2.332580 1.000000 1.000000 1.000000 1.000000
v 4.487747 8.698572 -2.332686 1.000000 1.000000 1.000000 1.000000
v 4.550260 8.675316 -2.283938 1.000000 1.000000 1.000000 1.000000
v 4.717983 7.421103 -2.332420 0.000000 0.000000 1.000000 1.000000
v 4.767479 7.424997 -2.282924 0.000000 0.000000 1.000000 1.000000
v 4.767479 -0.000000 -2.282923 0.000000 0.000000 1.000000 1.000000
v 4.717983 -0.000000 -2.332419 0.000000 0.000000 1.000000 1.000000
v -0.006968 12.979486 -2.284379 1.000000 1.000000 1.000000 1.000000
v -1.008057 12.201534 -2.332341 1.000000 1.000000 1.000000 1.000000
v 0.000636 12.913767 -2.332947 1.000000 1.000000 1.000000 1.000000
v -1.106652 12.199700 -2.282451 1.000000 1.000000 1.000000 1.000000
v -2.651154 11.262016 -2.332640 1.000000 1.000000 1.000000 1.000000
v -2.941624 11.146326 -2.286085 1.000000 1.000000 1.000000 1.000000
v -3.550988 10.466431 -2.330500 1.000000 1.000000 1.000000 1.000000
v -4.037097 9.889645 -2.284255 1.000000 1.000000 1.000000 1.000000
v -4.151308 9.540349 -2.332571 1.000000 1.000000 1.000000 1.000000
v -4.485729 8.704873 -2.332701 1.000000 1.000000 1.000000 1.000000
v -4.535220 8.721960 -2.283021 1.000000 1.000000 1.000000 1.000000
v -4.717983 7.421103 -2.332420 0.000000 0.000000 1.000000 1.000000
v -4.767479 7.424999 -2.282924 0.000000 0.000000 1.000000 1.000000
v -4.767479 -0.000000 -2.282923 0.000000 0.000000 1.000000 1.000000
v -4.717983 -0.000000 -2.332419 0.000000 0.000000 1.000000 1.000000
v -0.006968 12.979486 -2.284379 1.000000 1.000000 1.000000 1.000000
v 0.277812 12.753192 0.959871 1.000000 1.000000 1.000000 1.000000
v 0.000000 13.011696 0.959871 1.000000 1.000000 1.000000 1.000000
v 1.176746 12.157583 -2.282837 1.000000 1.000000 1.000000 1.000000
v 2.700142 11.270702 0.959828 1.000000 1.000000 1.000000 1.000000
v 2.685559 11.300148 -2.283152 1.000000 1.000000 1.000000 1.000000
v 3.543972 10.546762 0.959874 1.000000 1.000000 1.000000 1.000000
v 3.599717 10.491680 -2.284200 1.000000 1.000000 1.000000 1.000000
v 4.393860 9.204439 0.959846 1.000000 1.000000 1.000000 1.000000
v 4.195560 9.562742 -2.282924 1.000000 1.000000 1.000000 1.000000
v 4.550260 8.675316 -2.283938 1.000000 1.000000 1.000000 1.000000
v 4.767479 7.424998 0.959872 1.000000 1.000000 1.000000 1.000000
v 4.767479 7.424997 -2.282924 0.000000 0.000000 1.000000 1.000000
v 4.767479 -0.000000 -2.282923 0.000000 0.000000 1.000000 1.000000
v 4.767479 0.000000 0.959873 1.000000 1.000000 1.000000 1.000000
v -3.971558 0.000001 -2.332356 0.000000 0.000000 1.000000 1.000000
v -4.717983 7.421103 -2.332420 0.000000 0.000000 1.000000 1.000000
v -4.717983 -0.000000 -2.332419 0.000000 0.000000 1.000000 1.000000
v -3.971558 7.425000 -2.332362 0.000000 0.000000 1.000000 1.000000
v -4.485729 8.704873 -2.332701 1.000000 1.000000 1.000000 1.000000
v -4.151308 9.540349 -2.332571 1.000000 1.000000 1.000000 1.000000
v -3.841190 7.416991 -2.329510 0.000000 0.000000 1.000000 1.000000
v -3.550988 10.466431 -2.330500 1.000000 1.000000 1.000000 1.000000
v -2.651154 11.262016 -2.332640 1.000000 1.000000 1.000000 1.000000
v -3.337644 9.551674 -2.319691 1.000000 1.000000 1.000000 1.000000
v -3.847501 7.424998 -2.249003 0.000000 0.000000 1.000000 1.000000
v -3.848971 7.431827 -2.180257 0.000000 0.000000 1.000000 1.000000
v -3.814569 7.424998 -2.165690 0.000000 0.000000 1.000000 1.000000
v -3.746251 7.424998 -2.165587 0.000000 0.000000 1.000000 1.000000
v -3.668060 7.424265 -2.168512 0.000000 0.000000 1.000000 1.000000
v -0.011065 12.044052 -2.317892 1.000000 1.000000 1.000000 1.000000
v -1.008057 12.201534 -2.332341 1.000000 1.000000 1.000000 1.000000
v 0.000636 12.913767 -2.332947 1.000000 1.000000 1.000000 1.000000
v -2.606238 10.099775 -2.149934 1.000000 1.000000 1.000000 1.000000
v 0.006007 11.476680 -1.889023 1.000000 1.000000 1.000000 1.000000
v -3.293156 9.003757 -2.077011 1.000000 1.000000 1.000000 1.000000
v -3.645423 7.424998 -2.142873 0.000000 0.000000 1.000000 1.000000
v -3.645001 7.424998 -2.082170 0.000000 0.000000 1.000000 1.000000
v -3.649256 7.439790 -2.011580 0.000000 0.000000 1.000000 1.000000
v -3.612069 7.424999 -1.998857 0.000000 0.000000 1.000000 1.000000
v -3.543751 7.424999 -1.998754 0.000000 0.000000 1.000000 1.000000
v -3.465287 7.421999 -2.002048 0.000000 0.000000 1.000000 1.000000
v -2.009857 10.010015 -1.819467 1.000000 1.000000 1.000000 1.000000
v -3.096474 8.700475 -1.950249 1.000000 1.000000 1.000000 1.000000
v -3.442923 7.424999 -1.976039 0.000000 0.000000 1.000000 1.000000
v -3.442501 7.424999 -1.915337 0.000000 0.000000 1.000000 1.000000
v -3.443975 7.431300 -1.846606 0.000000 0.000000 1.000000 1.000000
v -3.409568 7.424999 -1.832024 0.000000 0.000000 1.000000 1.000000
v -3.341251 7.424999 -1.831921 0.000000 0.000000 1.000000 1.000000
v -3.260967 7.419388 -1.843899 0.000000 0.000000 1.000000 1.000000
v -3.240422 7.424999 -1.662876 0.000000 0.000000 1.000000 1.000000
v -2.956955 8.737765 -1.163499 1.000000 1.000000 1.000000 1.000000
v -3.240001 7.424999 -1.163183 0.000000 0.000000 1.000000 1.000000
v -2.081125 9.879925 -1.163255 1.000000 1.000000 1.000000 1.000000
v -0.964148 10.562479 -1.805021 1.000000 1.000000 1.000000 1.000000
v 0.062734 11.412909 -1.166193 1.000000 1.000000 1.000000 1.000000
v 4.717983 7.421103 -2.332420 0.000000 0.000000 1.000000 1.000000
v 3.971558 0.000000 -2.332358 0.000000 0.000000 1.000000 1.000000
v 4.717983 -0.000000 -2.332419 0.000000 0.000000 1.000000 1.000000
v 3.971557 7.424998 -2.332360 0.000000 0.000000 1.000000 1.000000
v 4.487747 8.698572 -2.332686 1.000000 1.000000 1.000000 1.000000
v 4.151278 9.540425 -2.332580 1.000000 1.000000 1.000000 1.000000
v 3.839571 7.422276 -2.327979 0.000000 0.000000 1.000000 1.000000
v 3.554818 10.457272 -2.334882 1.000000 1.000000 1.000000 1.000000
v 2.651568 11.261735 -2.332592 1.000000 1.000000 1.000000 1.000000
v -0.011065 12.044052 -2.317892 1.000000 1.000000 1.000000 1.000000
v 1.004698 12.203708 -2.332370 1.000000 1.000000 1.000000 1.000000
v 0.000636 12.913767 -2.332947 1.000000 1.000000 1.000000 1.000000
v 3.323996 9.579592 -2.303071 1.000000 1.000000 1.000000 1.000000
v 3.847502 7.424998 -2.249003 0.000000 0.000000 1.000000 1.000000
v 3.853237 7.428431 -2.187881 0.000000 0.000000 1.000000 1.000000
v 3.825523 7.430276 -2.163356 0.000000 0.000000 1.000000 1.000000
v 3.746251 7.424998 -2.165587 0.000000 0.000000 1.000000 1.000000
v 3.677933 7.424998 -2.165484 0.000000 0.000000 1.000000 1.000000
v 3.640985 7.419681 -2.152575 0.000000 0.000000 1.000000 1.000000
v 3.645001 7.424998 -2.082170 0.000000 0.000000 1.000000 1.000000
v 0.893016 11.087559 -2.139621 1.000000 1.000000 1.000000 1.000000
v 0.006007 11.476680 -1.889023 1.000000 1.000000 1.000000 1.000000
v 3.261828 9.003905 -1.999357 1.000000 1.000000 1.000000 1.000000
v 3.644579 7.424998 -2.021468 0.000000 0.000000 1.000000 1.000000
v 3.621991 7.429426 -1.995777 0.000000 0.000000 1.000000 1.000000
v 3.543751 7.424999 -1.998754 0.000000 0.000000 1.000000 1.000000
v 3.475433 7.424999 -1.998651 0.000000 0.000000 1.000000 1.000000
v 3.440029 7.420496 -1.984553 0.000000 0.000000 1.000000 1.000000
v 1.956331 10.100855 -1.827001 1.000000 1.000000 1.000000 1.000000
v 3.032615 8.736478 -1.877679 1.000000 1.000000 1.000000 1.000000
v 3.442501 7.424999 -1.915337 0.000000 0.000000 1.000000 1.000000
v 3.442079 7.424999 -1.854635 0.000000 0.000000 1.000000 1.000000
v 3.419485 7.430389 -1.828967 0.000000 0.000000 1.000000 1.000000
v 3.341251 7.424999 -1.831921 0.000000 0.000000 1.000000 1.000000
v 3.249543 7.417692 -1.848615 0.000000 0.000000 1.000000 1.000000
v 3.240423 7.424999 -1.662876 0.000000 0.000000 1.000000 1.000000
v 2.956420 8.739361 -1.163498 1.000000 1.000000 1.000000 1.000000
v 3.240001 7.424999 -1.163183 0.000000 0.000000 1.000000 1.000000
v 2.081129 9.879922 -1.163255 1.000000 1.000000 1.000000 1.000000
v 0.981468 10.550004 -1.806036 1.000000 1.000000 1.000000 1.000000
v 0.296820 11.099811 -1.162852 1.000000 1.000000 1.000000 1.000000
v 0.062734 11.412909 -1.166193 1.000000 1.000000 1.000000 1.000000
v -4.767479 -0.000000 -2.282923 0.000000 0.000000 1.000000 1.000000
v -4.767479 7.424999 -2.282924 0.000000 0.000000 1.000000 1.000000
v -4.767479 0.000000 0.959873 1.000000 1.000000 1.000000 1.000000
v -4.766147 7.533697 0.959872 1.000000 1.000000 1.000000 1.000000
v -4.535220 8.721960 -2.283021 1.000000 1.000000 1.000000 1.000000
v -4.478663 8.880204 0.959872 1.000000 1.000000 1.000000 1.000000
v -4.068230 9.824723 0.959876 1.000000 1.000000 1.000000 1.000000
v -4.037097 9.889645 -2.284255 1.000000 1.000000 1.000000 1.000000
v -3.057314 11.049762 0.959856 1.000000 1.000000 1.000000 1.000000
v -2.941624 11.146326 -2.286085 1.000000 1.000000 1.000000 1.000000
v -0.733236 12.427790 0.959887 1.000000 1.000000 1.000000 1.000000
v -1.106652 12.199700 -2.282451 1.000000 1.000000 1.000000 1.000000
v -0.006968 12.979486 -2.284379 1.000000 1.000000 1.000000 1.000000
v 0.000000 13.011696 0.959871 1.000000 1.000000 1.000000 1.000000
v -2.866572 0.000444 -1.465841 0.000000 0.000000 1.000000 1.000000
v -3.052347 7.351798 -1.479083 0.000000 0.000000 1.000000 1.000000
v -3.038499 -0.000070 -1.493313 0.000000 0.000000 1.000000 1.000000
v -2.836044 8.216697 -1.479026 1.000000 1.000000 1.000000 1.000000
v -2.849075 7.333007 -1.151098 0.898039 0.898039 1.000000 1.000000
v -2.849643 -0.000001 -1.151455 0.000000 0.000000 1.000000 1.000000
v -2.681483 8.087667 -1.154300 1.000000 1.000000 1.000000 1.000000
v -2.004362 9.159501 -1.151229 1.000000 1.000000 1.000000 1.000000
v -0.768750 10.016294 -1.510087 1.000000 1.000000 1.000000 1.000000
v -1.072722 9.728848 -1.148607 1.000000 1.000000 1.000000 1.000000
v -2.327229 9.067490 -1.479998 1.000000 1.000000 1.000000 1.000000
v -1.622860 9.657500 -1.504169 1.000000 1.000000 1.000000 1.000000
v -0.020468 9.944613 -1.161290 1.000000 1.000000 1.000000 1.000000
v 1.537791 9.674173 -1.509727 1.000000 1.000000 1.000000 1.000000
v 0.706392 10.085995 -1.533916 1.000000 1.000000 1.000000 1.000000
v 1.052890 9.738806 -1.149678 1.000000 1.000000 1.000000 1.000000
v 1.977095 9.156990 -1.161291 1.000000 1.000000 1.000000 1.000000
v 2.839386 7.857940 -1.399102 0.000000 0.000000 1.000000 1.000000
v 2.410035 8.964108 -1.515685 1.000000 1.000000 1.000000 1.000000
v 2.635074 8.185078 -1.156217 1.000000 1.000000 1.000000 1.000000
v 2.841449 7.370104 -1.153230 0.000000 0.000000 1.000000 1.000000
v 2.849641 -0.000001 -1.151455 0.000000 0.000000 1.000000 1.000000
v 3.035356 7.604381 -1.493596 0.000000 0.000000 1.000000 1.000000
v 2.868314 0.000396 -1.455942 0.000000 0.000000 1.000000 1.000000
v 3.053188 -0.000001 -1.479620 0.000000 0.000000 1.000000 1.000000
v 4.315254 7.469070 -1.727252 0.000000 0.000000 1.000000 1.000000
v 3.143641 0.000116 -1.732448 0.000000 0.000000 1.000000 1.000000
v 4.318202 0.000002 -1.727256 0.000000 0.000000 1.000000 1.000000
v 3.100066 7.744267 -1.732288 0.000000 0.000000 1.000000 1.000000
v 3.053188 -0.000001 -1.479620 0.000000 0.000000 1.000000 1.000000
v 3.035356 7.604381 -1.493596 0.000000 0.000000 1.000000 1.000000
v 4.004762 8.752346 -1.727208 1.000000 1.000000 1.000000 1.000000
v 2.410035 8.964108 -1.515685 1.000000 1.000000 1.000000 1.000000
v 2.506436 9.037260 -1.727906 1.000000 1.000000 1.000000 1.000000
v 3.293596 9.890582 -1.727257 1.000000 1.000000 1.000000 1.000000
v 1.537791 9.674173 -1.509727 1.000000 1.000000 1.000000 1.000000
v 1.050203 10.117668 -1.727825 1.000000 1.000000 1.000000 1.000000
v 2.141760 10.867285 -1.727268 1.000000 1.000000 1.000000 1.000000
v 0.000001 11.641009 -1.727258 1.000000 1.000000 1.000000 1.000000
v 0.706392 10.085995 -1.533916 1.000000 1.000000 1.000000 1.000000
v -2.141543 10.867391 -1.727280 1.000000 1.000000 1.000000 1.000000
v -0.881409 10.135457 -1.727803 1.000000 1.000000 1.000000 1.000000
v -0.768750 10.016294 -1.510087 1.000000 1.000000 1.000000 1.000000
v -1.622860 9.657500 -1.504169 1.000000 1.000000 1.000000 1.000000
v -2.446060 9.139575 -1.727378 1.000000 1.000000 1.000000 1.000000
v -3.293623 9.890549 -1.727257 1.000000 1.000000 1.000000 1.000000
v -4.004771 8.752317 -1.727258 1.000000 1.000000 1.000000 1.000000
v -3.026628 8.005474 -1.650777 1.000000 1.000000 1.000000 1.000000
v -2.327229 9.067490 -1.479998 1.000000 1.000000 1.000000 1.000000
v -2.836044 8.216697 -1.479026 1.000000 1.000000 1.000000 1.000000
v -3.052347 7.351798 -1.479083 0.000000 0.000000 1.000000 1.000000
v -3.038499 -0.000070 -1.493313 0.000000 0.000000 1.000000 1.000000
v -3.147686 0.000201 -1.728009 0.000000 0.000000 1.000000 1.000000
v -3.140064 7.504091 -1.727408 0.000000 0.000000 1.000000 1.000000
v -4.315255 7.469055 -1.727252 0.000000 0.000000 1.000000 1.000000
v -4.318204 0.000002 -1.727256 0.000000 0.000000 1.000000 1.000000
v -2.650325 0.000408 -1.115208 0.000000 0.000000 1.000000 1.000000
v -2.849075 7.333007 -1.151098 0.898039 0.898039 1.000000 1.000000
v -2.849643 -0.000001 -1.151455 0.000000 0.000000 1.000000 1.000000
v -2.681483 8.087667 -1.154300 1.000000 1.000000 1.000000 1.000000
v -2.635504 7.729800 -0.705282 1.000000 1.000000 1.000000 1.000000
v -2.646097 -0.000001 -0.705458 0.000000 0.000000 1.000000 1.000000
v -2.611988 7.994429 -1.079968 1.000000 1.000000 1.000000 1.000000
v -1.820026 9.032789 -0.707583 1.000000 1.000000 1.000000 1.000000
v -1.246420 9.466196 -1.089631 1.000000 1.000000 1.000000 1.000000
v -2.004362 9.159501 -1.151229 1.000000 1.000000 1.000000 1.000000
v -1.072722 9.728848 -1.148607 1.000000 1.000000 1.000000 1.000000
v -0.717013 9.652597 -0.705564 1.000000 1.000000 1.000000 1.000000
v -0.020468 9.944613 -1.161290 1.000000 1.000000 1.000000 1.000000
v 0.710775 9.716983 -1.078303 1.000000 1.000000 1.000000 1.000000
v 0.525598 9.695904 -0.708121 1.000000 1.000000 1.000000 1.000000
v 1.052890 9.738806 -1.149678 1.000000 1.000000 1.000000 1.000000
v 2.013988 8.919007 -0.703136 1.000000 1.000000 1.000000 1.000000
v 2.113372 8.716745 -1.079521 1.000000 1.000000 1.000000 1.000000
v 1.977095 9.156990 -1.161291 1.000000 1.000000 1.000000 1.000000
v 2.645640 7.493972 -1.061278 0.000000 0.000000 1.000000 1.000000
v 2.641863 7.456052 -0.705386 0.345098 0.345098 1.000000 1.000000
v 2.646096 -0.000001 -0.705458 0.000000 0.000000 1.000000 1.000000
v 2.642038 0.000381 -1.108977 0.000000 0.000000 1.000000 1.000000
v 2.841449 7.370104 -1.153230 0.000000 0.000000 1.000000 1.000000
v 2.635074 8.185078 -1.156217 1.000000 1.000000 1.000000 1.000000
v 2.849641 -0.000001 -1.151455 0.000000 0.000000 1.000000 1.000000
vt 0.488037 0.563477
vt 0.465088 0.309570
vt 0.489014 0.563232
vt 0.487549 0.563477
vt 0.463623 0.309570
vt 0.464844 0.309570
vt 0.481445 0.563965
vt 0.458496 0.310059
vt 0.482666 0.563965
vt 0.787598 0.566895
vt 0.812012 0.312988
vt 0.789062 0.566895
vt 0.787598 0.566895
vt 0.810547 0.312500
vt 0.811523 0.312988
vt 0.818359 0.313477
vt 0.795410 0.567627
vt 0.794434 0.567383
vt 0.793945 0.567383
vt 0.816895 0.313477
vt 0.817871 0.313477
vt 0.475586 0.564941
vt 0.452637 0.310547
vt 0.476562 0.564697
vt 0.475342 0.564941
vt 0.451172 0.310547
vt 0.452393 0.310547
vt 0.468994 0.565430
vt 0.446045 0.311035
vt 0.470215 0.565430
vt 0.445801 0.311035
vt 0.468750 0.565430
vt 0.444824 0.311523
vt 0.800293 0.568604
vt 0.824219 0.313965
vt 0.801270 0.568359
vt 0.831055 0.314453
vt 0.807617 0.569092
vt 0.806641 0.568848
vt 0.806152 0.568848
vt 0.829102 0.314453
vt 0.830566 0.314453
vt 0.463379 0.566406
vt 0.440186 0.311523
vt 0.464355 0.566162
vt 0.462891 0.566406
vt 0.438721 0.312012
vt 0.439941 0.312012
vt 0.836914 0.314941
vt 0.813477 0.569824
vt 0.812500 0.569824
vt 0.812012 0.569824
vt 0.835449 0.314941
vt 0.836426 0.314941
vt 0.805664 0.312500
vt 0.785156 0.566406
vt 0.782227 0.565674
vt 0.808105 0.312500
vt 0.808105 0.312500
vt 0.787598 0.566895
vt 0.785156 0.566406
vt 0.810547 0.312500
vt 0.491211 0.562744
vt 0.467529 0.309082
vt 0.493896 0.562500
vt 0.470215 0.309082
vt 0.489014 0.563232
vt 0.465088 0.309570
vt 0.491211 0.562744
vt 0.467529 0.309082
vt 0.812012 0.312988
vt 0.791504 0.567139
vt 0.789062 0.566895
vt 0.814453 0.312988
vt 0.814453 0.312988
vt 0.793945 0.567383
vt 0.791504 0.567139
vt 0.816895 0.313477
vt 0.818359 0.313477
vt 0.797363 0.567871
vt 0.795410 0.567627
vt 0.820801 0.313477
vt 0.820801 0.313477
vt 0.799805 0.568604
vt 0.797363 0.567871
vt 0.823730 0.313965
vt 0.461182 0.309570
vt 0.487549 0.563477
vt 0.484863 0.563721
vt 0.463623 0.309570
vt 0.458252 0.310059
vt 0.484863 0.563721
vt 0.482666 0.563965
vt 0.461182 0.309570
vt 0.478760 0.564453
vt 0.455078 0.310547
vt 0.481201 0.563965
vt 0.458008 0.310059
vt 0.476562 0.564697
vt 0.452637 0.310547
vt 0.478760 0.564453
vt 0.455078 0.310547
vt 0.824219 0.313965
vt 0.803711 0.568604
vt 0.801270 0.568359
vt 0.827148 0.314453
vt 0.827148 0.314453
vt 0.806152 0.568848
vt 0.803711 0.568604
vt 0.829102 0.314453
vt 0.830566 0.314453
vt 0.810059 0.569336
vt 0.807617 0.569092
vt 0.833008 0.314941
vt 0.812012 0.569824
vt 0.835449 0.314941
vt 0.810059 0.569336
vt 0.448730 0.311035
vt 0.475342 0.564941
vt 0.472656 0.565186
vt 0.451172 0.310547
vt 0.446045 0.311035
vt 0.472656 0.565186
vt 0.470215 0.565430
vt 0.448730 0.311035
vt 0.466309 0.565918
vt 0.442627 0.311523
vt 0.468750 0.565430
vt 0.444824 0.311523
vt 0.464355 0.566162
vt 0.440186 0.311523
vt 0.466309 0.565918
vt 0.442627 0.311523
vt 0.813477 0.569824
vt 0.836914 0.314941
vt 0.815918 0.570068
vt 0.839355 0.315430
vt 0.818848 0.570068
vt 0.842285 0.315918
vt 0.815918 0.570068
vt 0.848633 0.316406
vt 0.842285 0.572510
vt 0.825195 0.571045
vt 0.865723 0.317871
vt 0.436523 0.312012
vt 0.462891 0.566406
vt 0.460205 0.566650
vt 0.438721 0.312012
vt 0.457031 0.566650
vt 0.433594 0.312500
vt 0.460205 0.566650
vt 0.436523 0.312012
vt 0.433838 0.569092
vt 0.427246 0.312988
vt 0.450928 0.567627
vt 0.410156 0.314453
vt 0.493652 0.562500
vt 0.469971 0.309082
vt 0.498047 0.562012
vt 0.474365 0.308594
vt 0.778320 0.565430
vt 0.801270 0.312012
vt 0.782715 0.565674
vt 0.805664 0.312500
vt 0.450928 0.567627
vt 0.427246 0.312988
vt 0.457275 0.566650
vt 0.433594 0.312500
vt 0.842285 0.315918
vt 0.825195 0.571045
vt 0.818848 0.570312
vt 0.848633 0.316406
vt 0.493896 0.760376
vt 0.485352 0.803345
vt 0.483398 0.801270
vt 0.497803 0.755493
vt 0.511719 0.699707
vt 0.514160 0.700195
vt 0.521973 0.662354
vt 0.519531 0.662109
vt 0.525391 0.628174
vt 0.523438 0.627930
vt 0.524414 0.599365
vt 0.526855 0.598145
vt 0.523438 0.558350
vt 0.525879 0.558350
vt 0.502441 0.305664
vt 0.500000 0.306152
vt 0.790527 0.806641
vt 0.781738 0.763794
vt 0.792480 0.804810
vt 0.778809 0.761719
vt 0.764160 0.703125
vt 0.758789 0.694336
vt 0.756348 0.665771
vt 0.750977 0.642822
vt 0.752930 0.631348
vt 0.751465 0.603027
vt 0.749023 0.603027
vt 0.752930 0.562012
vt 0.750488 0.561768
vt 0.773438 0.309082
vt 0.775879 0.309570
vt 0.485352 0.803345
vt 0.564941 0.810669
vt 0.562012 0.823242
vt 0.498047 0.755615
vt 0.590820 0.715820
vt 0.514160 0.699951
vt 0.598145 0.675781
vt 0.521973 0.662842
vt 0.604492 0.618652
vt 0.525391 0.628174
vt 0.526855 0.598877
vt 0.603516 0.553711
vt 0.525879 0.558350
vt 0.502441 0.305664
vt 0.580566 0.298828
vt 0.801270 0.312012
vt 0.752930 0.562012
vt 0.775879 0.309570
vt 0.778320 0.565674
vt 0.751465 0.603027
vt 0.757324 0.628906
vt 0.782715 0.565918
vt 0.756348 0.665771
vt 0.763184 0.703125
vt 0.782227 0.642090
vt 0.785156 0.566406
vt 0.787598 0.566895
vt 0.789062 0.566895
vt 0.791504 0.567139
vt 0.793945 0.567383
vt 0.811523 0.782104
vt 0.782227 0.763794
vt 0.792480 0.804810
vt 0.795410 0.670898
vt 0.839844 0.764160
vt 0.796387 0.625244
vt 0.795410 0.567627
vt 0.797363 0.567871
vt 0.799805 0.568604
vt 0.801270 0.568359
vt 0.803711 0.568604
vt 0.806152 0.568848
vt 0.825684 0.677979
vt 0.812500 0.617432
vt 0.807617 0.569092
vt 0.810059 0.569336
vt 0.812500 0.569824
vt 0.813477 0.569824
vt 0.815918 0.570068
vt 0.818848 0.570068
vt 0.825195 0.571045
vt 0.840820 0.619141
vt 0.842285 0.572510
vt 0.847656 0.668457
vt 0.836914 0.718018
vt 0.866699 0.759766
vt 0.523438 0.558350
vt 0.474365 0.308594
vt 0.500000 0.306152
vt 0.498047 0.562256
vt 0.524414 0.599609
vt 0.519043 0.625977
vt 0.493652 0.562500
vt 0.519531 0.662109
vt 0.511719 0.699951
vt 0.463135 0.778442
vt 0.493896 0.760376
vt 0.483398 0.801270
vt 0.492920 0.639648
vt 0.491211 0.562744
vt 0.489014 0.563232
vt 0.487549 0.563477
vt 0.484863 0.563721
vt 0.482666 0.563965
vt 0.481201 0.563965
vt 0.478760 0.564453
vt 0.459229 0.732422
vt 0.436768 0.760498
vt 0.476318 0.621826
vt 0.476562 0.564697
vt 0.475342 0.564941
vt 0.472656 0.565186
vt 0.470215 0.565430
vt 0.468750 0.565430
vt 0.451660 0.678467
vt 0.460449 0.615967
vt 0.466309 0.565918
vt 0.464355 0.566162
vt 0.462891 0.566406
vt 0.460205 0.566650
vt 0.457275 0.566650
vt 0.450928 0.567627
vt 0.435059 0.615723
vt 0.433838 0.569092
vt 0.428223 0.665039
vt 0.438965 0.713623
vt 0.412109 0.739990
vt 0.410889 0.753418
vt 0.773438 0.309082
vt 0.750488 0.561768
vt 0.695312 0.302246
vt 0.671875 0.561035
vt 0.749023 0.603760
vt 0.671387 0.610596
vt 0.673828 0.647705
vt 0.750977 0.642090
vt 0.682129 0.704346
vt 0.759277 0.693604
vt 0.706055 0.795288
vt 0.778809 0.761719
vt 0.790527 0.806519
vt 0.713867 0.826538
vt 0.072021 0.809692
vt 0.273926 0.699463
vt 0.074463 0.814087
vt 0.294678 0.680908
vt 0.265625 0.686768
vt 0.067139 0.801392
vt 0.284424 0.672363
vt 0.309570 0.642578
vt 0.337158 0.602783
vt 0.321289 0.610840
vt 0.316162 0.657227
vt 0.329834 0.631104
vt 0.327148 0.578613
vt 0.331787 0.527588
vt 0.341309 0.555420
vt 0.323486 0.544922
vt 0.312744 0.513184
vt 0.290039 0.468262
vt 0.318604 0.494629
vt 0.291748 0.483398
vt 0.272949 0.466309
vt 0.080078 0.340332
vt 0.287109 0.458496
vt 0.085266 0.332031
vt 0.088318 0.327637
vt 0.308350 0.416992
vt 0.093201 0.320312
vt 0.113342 0.289062
vt 0.295654 0.453613
vt 0.088318 0.327637
vt 0.287598 0.457520
vt 0.336914 0.442383
vt 0.320312 0.493164
vt 0.326416 0.488770
vt 0.359863 0.474121
vt 0.335449 0.526611
vt 0.348145 0.544678
vt 0.377686 0.514404
vt 0.395264 0.579590
vt 0.343018 0.555420
vt 0.373779 0.644287
vt 0.347412 0.607422
vt 0.340088 0.603027
vt 0.331543 0.632080
vt 0.323975 0.663330
vt 0.354248 0.682861
vt 0.329102 0.713867
vt 0.294434 0.693115
vt 0.316162 0.656982
vt 0.295898 0.681641
vt 0.273926 0.699463
vt 0.075012 0.815186
vt 0.079224 0.822266
vt 0.282715 0.704590
vt 0.299316 0.737549
vt 0.097473 0.854004
vt 0.064209 0.796143
vt 0.265625 0.686768
vt 0.067139 0.801392
vt 0.283691 0.671143
vt 0.266357 0.664551
vt 0.057800 0.785156
vt 0.279785 0.669678
vt 0.292969 0.631348
vt 0.312988 0.616943
vt 0.308838 0.642090
vt 0.321289 0.610840
vt 0.305664 0.597656
vt 0.325928 0.578369
vt 0.319824 0.555420
vt 0.307617 0.562012
vt 0.323486 0.544922
vt 0.294189 0.516357
vt 0.299805 0.505371
vt 0.311768 0.513672
vt 0.271973 0.474609
vt 0.264404 0.482910
vt 0.069824 0.355957
vt 0.076599 0.345703
vt 0.272217 0.466797
vt 0.291748 0.483887
vt 0.080078 0.340332
vt1 1.627930 0.570557
vt1 1.536133 -0.445312
vt1 1.631836 0.569824
vt1 1.625977 0.570801
vt1 1.530273 -0.445312
vt1 1.535156 -0.445312
vt1 1.600586 0.572754
vt1 1.509766 -0.443359
vt1 1.606445 0.572754
vt1 0.846191 0.574219
vt1 0.942383 -0.442383
vt1 0.850586 0.573730
vt1 0.844727 0.573975
vt1 0.936523 -0.442383
vt1 0.940430 -0.442383
vt1 0.968262 -0.439453
vt1 0.876465 0.577148
vt1 0.872559 0.576660
vt1 0.871094 0.576416
vt1 0.962402 -0.440430
vt1 0.966797 -0.439453
vt1 1.578125 0.576660
vt1 1.486328 -0.441406
vt1 1.582031 0.575684
vt1 1.576172 0.576904
vt1 1.480469 -0.440430
vt1 1.485352 -0.440430
vt1 1.551758 0.578857
vt1 1.459961 -0.438477
vt1 1.556641 0.578857
vt1 1.458008 -0.438477
vt1 1.550781 0.579102
vt1 1.454102 -0.437500
vt1 0.895020 0.581299
vt1 0.991699 -0.437500
vt1 0.900391 0.580078
vt1 1.017578 -0.434570
vt1 0.925781 0.583252
vt1 0.921875 0.582275
vt1 0.920410 0.582031
vt1 1.011719 -0.435547
vt1 1.016602 -0.434570
vt1 1.529297 0.582764
vt1 1.436523 -0.436523
vt1 1.533203 0.581543
vt1 1.527344 0.583008
vt1 1.430664 -0.435547
vt1 1.435547 -0.436523
vt1 1.041016 -0.432617
vt1 0.949707 0.585938
vt1 0.944824 0.586182
vt1 0.943359 0.585938
vt1 1.035156 -0.433594
vt1 1.040039 -0.433594
vt1 0.918457 -0.444336
vt1 0.835449 0.572021
vt1 0.824707 0.569580
vt1 0.928223 -0.443359
vt1 0.928223 -0.443359
vt1 0.844727 0.573975
vt1 0.835449 0.572021
vt1 0.936523 -0.442383
vt1 1.639648 0.568359
vt1 1.545898 -0.446289
vt1 1.650391 0.566650
vt1 1.555664 -0.447266
vt1 1.631836 0.569824
vt1 1.536133 -0.445312
vt1 1.639648 0.568359
vt1 1.545898 -0.446289
vt1 0.942383 -0.442383
vt1 0.859863 0.574951
vt1 0.850586 0.573730
vt1 0.953125 -0.441406
vt1 0.953125 -0.441406
vt1 0.870605 0.576416
vt1 0.859863 0.574951
vt1 0.962402 -0.440430
vt1 0.968262 -0.439453
vt1 0.884766 0.578125
vt1 0.876465 0.577148
vt1 0.978027 -0.438477
vt1 0.978027 -0.438477
vt1 0.894043 0.581299
vt1 0.884766 0.578125
vt1 0.989746 -0.437500
vt1 1.520508 -0.444336
vt1 1.625977 0.570801
vt1 1.615234 0.571533
vt1 1.530273 -0.445312
vt1 1.508789 -0.443359
vt1 1.615234 0.571533
vt1 1.606445 0.572754
vt1 1.520508 -0.444336
vt1 1.590820 0.574707
vt1 1.496094 -0.441406
vt1 1.600586 0.572754
vt1 1.507812 -0.443359
vt1 1.582031 0.575684
vt1 1.486328 -0.440430
vt1 1.590820 0.574707
vt1 1.496094 -0.441406
vt1 0.991211 -0.437500
vt1 0.909668 0.581055
vt1 0.900391 0.580078
vt1 1.002930 -0.436523
vt1 1.002930 -0.436523
vt1 0.920410 0.582031
vt1 0.909668 0.581055
vt1 1.011719 -0.435547
vt1 1.017578 -0.434570
vt1 0.934082 0.583984
vt1 0.925781 0.583252
vt1 1.027344 -0.433594
vt1 0.943359 0.585938
vt1 1.035156 -0.433594
vt1 0.934082 0.583984
vt1 1.470703 -0.439453
vt1 1.576172 0.576904
vt1 1.565430 0.577637
vt1 1.480469 -0.440430
vt1 1.459961 -0.438477
vt1 1.565430 0.577637
vt1 1.556641 0.578857
vt1 1.470703 -0.439453
vt1 1.541016 0.580566
vt1 1.446289 -0.437500
vt1 1.550781 0.579102
vt1 1.454102 -0.437500
vt1 1.533203 0.581543
vt1 1.436523 -0.436523
vt1 1.541016 0.580566
vt1 1.446289 -0.437500
vt1 0.949707 0.585938
vt1 1.041016 -0.432617
vt1 0.958984 0.586914
vt1 1.051758 -0.431641
vt1 0.970215 0.587402
vt1 1.064453 -0.429688
vt1 0.958984 0.586914
vt1 1.088867 -0.428711
vt1 1.063477 0.596924
vt1 0.995605 0.590820
vt1 1.157227 -0.421875
vt1 1.420898 -0.434570
vt1 1.527344 0.583008
vt1 1.516602 0.583496
vt1 1.430664 -0.435547
vt1 1.503906 0.583984
vt1 1.410156 -0.433594
vt1 1.516602 0.583496
vt1 1.420898 -0.434570
vt1 1.411133 0.593750
vt1 1.384766 -0.431641
vt1 1.479492 0.587402
vt1 1.316406 -0.424805
vt1 1.649414 0.566895
vt1 1.555664 -0.447266
vt1 1.667969 0.564697
vt1 1.573242 -0.449219
vt1 0.807617 0.568359
vt1 0.900391 -0.446289
vt1 0.825195 0.569580
vt1 0.917969 -0.444336
vt1 1.479492 0.587402
vt1 1.384766 -0.431641
vt1 1.504883 0.583984
vt1 1.410156 -0.433594
vt1 1.063477 -0.429688
vt1 0.995605 0.590820
vt1 0.970703 0.587646
vt1 1.088867 -0.428711
vt1 1.651367 1.358398
vt1 1.617188 1.530273
vt1 1.608398 1.521484
vt1 1.666992 1.339111
vt1 1.722656 1.115540
vt1 1.732422 1.117676
vt1 1.763672 0.966400
vt1 1.753906 0.965179
vt1 1.778320 0.829224
vt1 1.768555 0.828491
vt1 1.773438 0.714600
vt1 1.783203 0.709717
vt1 1.769531 0.550781
vt1 1.779297 0.550293
vt1 1.685547 -0.459961
vt1 1.675781 -0.458984
vt1 0.856445 1.532715
vt1 0.822266 1.361816
vt1 0.865723 1.525391
vt1 0.810059 1.353516
vt1 0.751465 1.118835
vt1 0.730957 1.084167
vt1 0.720215 0.969543
vt1 0.699219 0.877380
vt1 0.705566 0.831543
vt1 0.701172 0.718750
vt1 0.691406 0.718994
vt1 0.706055 0.554443
vt1 0.696777 0.553711
vt1 0.788086 -0.456055
vt1 0.797852 -0.455078
vt1 1.616211 1.530273
vt1 1.936523 1.559570
vt1 1.923828 1.609863
vt1 1.666992 1.339355
vt1 2.039062 1.179688
vt1 1.731445 1.116211
vt1 2.068359 1.020325
vt1 1.762695 0.968506
vt1 2.093750 0.791992
vt1 1.778320 0.829224
vt1 1.783203 0.712402
vt1 2.089844 0.531494
vt1 1.779297 0.550293
vt1 1.685547 -0.459961
vt1 1.999023 -0.488281
vt1 0.899902 -0.445312
vt1 0.706055 0.554443
vt1 0.797852 -0.455078
vt1 0.808105 0.569092
vt1 0.700195 0.719238
vt1 0.725098 0.822388
vt1 0.825195 0.570068
vt1 0.720215 0.969681
vt1 0.747559 1.119385
vt1 0.823730 0.874878
vt1 0.835449 0.572021
vt1 0.845215 0.573975
vt1 0.850586 0.573730
vt1 0.859863 0.574951
vt1 0.871094 0.575928
vt1 0.941895 1.434814
vt1 0.822754 1.361572
vt1 0.864746 1.525879
vt1 0.877441 0.990234
vt1 1.053711 1.363281
vt1 0.879883 0.807495
vt1 0.876465 0.577148
vt1 0.884766 0.578125
vt1 0.894531 0.580811
vt1 0.900391 0.580078
vt1 0.909668 0.581055
vt1 0.919922 0.581787
vt1 0.997070 1.018661
vt1 0.945801 0.776733
vt1 0.925781 0.583252
vt1 0.934082 0.583984
vt1 0.943848 0.585938
vt1 0.949707 0.585938
vt1 0.958984 0.586914
vt1 0.969727 0.587158
vt1 0.995605 0.590820
vt1 1.058594 0.782837
vt1 1.063477 0.596924
vt1 1.085938 0.980789
vt1 1.042969 1.178223
vt1 1.160156 1.345947
vt1 1.769531 0.550781
vt1 1.573242 -0.449219
vt1 1.675781 -0.458984
vt1 1.667969 0.565674
vt1 1.774414 0.715088
vt1 1.752930 0.820679
vt1 1.650391 0.567383
vt1 1.753906 0.965179
vt1 1.722656 1.116211
vt1 1.528320 1.430908
vt1 1.651367 1.358398
vt1 1.609375 1.521973
vt1 1.647461 0.875366
vt1 1.639648 0.568359
vt1 1.631836 0.569580
vt1 1.625977 0.570801
vt1 1.615234 0.571533
vt1 1.606445 0.572754
vt1 1.600586 0.572998
vt1 1.590820 0.574707
vt1 1.512695 1.246338
vt1 1.422852 1.358887
vt1 1.581055 0.804688
vt1 1.582031 0.575684
vt1 1.577148 0.576904
vt1 1.565430 0.577637
vt1 1.556641 0.578857
vt1 1.550781 0.579102
vt1 1.482422 1.030930
vt1 1.517578 0.780884
vt1 1.541016 0.580566
vt1 1.533203 0.581543
vt1 1.527344 0.583008
vt1 1.516602 0.583496
vt1 1.503906 0.583984
vt1 1.479492 0.587402
vt1 1.416016 0.779419
vt1 1.411133 0.593750
vt1 1.387695 0.976898
vt1 1.431641 1.171387
vt1 1.324219 1.276611
vt1 1.319336 1.330811
vt1 0.788086 -0.456055
vt1 0.696777 0.553711
vt1 0.475830 -0.484375
vt1 0.381836 0.550781
vt1 0.691895 0.721436
vt1 0.380371 0.748779
vt1 0.389404 0.897278
vt1 0.698730 0.875183
vt1 0.423584 1.123718
vt1 0.731934 1.081116
vt1 0.519043 1.487793
vt1 0.810059 1.353516
vt1 0.857422 1.532715
vt1 0.551270 1.612793
vt1 -1.137695 1.523926
vt1 -0.330078 1.082886
vt1 -1.127930 1.541504
vt1 -0.246826 1.008545
vt1 -0.362793 1.032288
vt1 -1.157227 1.490723
vt1 -0.288086 0.974426
vt1 -0.187622 0.855225
vt1 -0.076660 0.696045
vt1 -0.140747 0.729004
vt1 -0.161499 0.914001
vt1 -0.106812 0.809814
vt1 -0.117126 0.599365
vt1 -0.098938 0.395508
vt1 -0.060303 0.506836
vt1 -0.131348 0.465332
vt1 -0.174561 0.337891
vt1 -0.265625 0.158691
vt1 -0.151245 0.262695
vt1 -0.259033 0.219238
vt1 -0.334229 0.149902
vt1 -1.105469 -0.354492
vt1 -0.277344 0.118164
vt1 -1.084961 -0.385742
vt1 -1.072266 -0.404297
vt1 -0.192017 -0.047852
vt1 -1.052734 -0.434570
vt1 -0.972656 -0.557617
vt1 -0.243164 0.099609
vt1 -1.072266 -0.404297
vt1 -0.274902 0.114746
vt1 -0.078003 0.053711
vt1 -0.144775 0.257812
vt1 -0.119690 0.240234
vt1 0.014160 0.181641
vt1 -0.083862 0.391602
vt1 -0.033112 0.463867
vt1 0.085144 0.342773
vt1 0.154907 0.604004
vt1 -0.053497 0.506836
vt1 0.069275 0.861938
vt1 -0.036011 0.715332
vt1 -0.065491 0.697266
vt1 -0.099304 0.813477
vt1 -0.129639 0.938080
vt1 -0.008591 1.016754
vt1 -0.109436 1.140625
vt1 -0.248169 1.057098
vt1 -0.161133 0.913391
vt1 -0.241821 1.011185
vt1 -0.330078 1.082886
vt1 -1.125977 1.545898
vt1 -1.108398 1.574219
vt1 -0.294922 1.103516
vt1 -0.228516 1.234985
vt1 -1.036133 1.701172
vt1 -1.168945 1.469971
vt1 -0.362549 1.032257
vt1 -1.157227 1.490723
vt1 -0.290771 0.970123
vt1 -0.359619 0.943359
vt1 -1.194336 1.425781
vt1 -0.306152 0.963745
vt1 -0.253418 0.810181
vt1 -0.173706 0.753296
vt1 -0.190063 0.853516
vt1 -0.140747 0.728516
vt1 -0.202759 0.675293
vt1 -0.122437 0.599121
vt1 -0.146118 0.507324
vt1 -0.195557 0.533203
vt1 -0.131958 0.464844
vt1 -0.249023 0.350586
vt1 -0.226196 0.307129
vt1 -0.178345 0.339844
vt1 -0.337891 0.184082
vt1 -0.368164 0.217285
vt1 -1.146484 -0.291992
vt1 -1.119141 -0.333008
vt1 -0.336426 0.152344
vt1 -0.259033 0.219727
vt1 -1.105469 -0.354492
vn -1.000000 -0.000000 -0.062992
vn -1.000000 -0.000000 -0.062992
vn -1.000000 -0.000000 -0.062992
vn -0.015748 -0.000000 -1.000000
vn -0.015748 -0.000000 -1.000000
vn -0.015748 -0.000000 -1.000000
vn -0.015748 -0.000000 -1.000000
vn -0.015748 -0.000000 -1.000000
vn -0.015748 -0.000000 -1.000000
vn 0.015748 -0.000000 -1.000000
vn 0.015748 -0.000000 -1.000000
vn 0.015748 -0.000000 -1.000000
vn 1.000000 -0.000000 -0.062992
vn 1.000000 -0.000000 -0.062992
vn 1.000000 -0.000000 -0.062992
vn 1.000000 -0.000000 -0.062992
vn 1.000000 -0.000000 -0.062992
vn 1.000000 -0.000000 -0.062992
vn 0.015748 -0.000000 -1.000000
vn 0.015748 -0.000000 -1.000000
vn 0.015748 -0.000000 -1.000000
vn -1.000000 -0.000000 -0.062992
vn -1.000000 -0.000000 -0.062992
vn -1.000000 -0.000000 -0.062992
vn -0.015748 -0.000000 -1.000000
vn -0.015748 -0.000000 -1.000000
vn -0.015748 -0.000000 -1.000000
vn -0.015748 -0.000000 -1.000000
vn -0.015748 -0.000000 -1.000000
vn -0.015748 -0.000000 -1.000000
vn -1.000000 -0.000000 -0.062992
vn -1.000000 -0.000000 -0.062992
vn -1.000000 -0.000000 -0.062992
vn 0.015748 -0.000000 -1.000000
vn 0.015748 -0.000000 -1.000000
vn 0.015748 -0.000000 -1.000000
vn 1.000000 -0.000000 -0.062992
vn 1.000000 -0.000000 -0.062992
vn 1.000000 -0.000000 -0.062992
vn 0.015748 -0.000000 -1.000000
vn 0.015748 -0.000000 -1.000000
vn 0.015748 -0.000000 -1.000000
vn -1.000000 -0.000000 -0.062992
vn -1.000000 -0.000000 -0.062992
vn -1.000000 -0.000000 -0.062992
vn -0.015748 -0.000000 -1.000000
vn -0.015748 -0.000000 -1.000000
vn -0.015748 -0.000000 -1.000000
vn 0.015748 -0.000000 -1.000000
vn 0.015748 -0.000000 -1.000000
vn 0.015748 -0.000000 -1.000000
vn 1.000000 -0.000000 -0.062992
vn 1.000000 -0.000000 -0.062992
vn 1.000000 -0.000000 -0.062992
vn 1.000000 -0.000000 -0.007874
vn 1.000000 -0.000000 -0.007874
vn 1.000000 -0.000000 -0.007874
vn 1.000000 -0.000000 -0.007874
vn 1.000000 -0.000000 -0.007874
vn 1.000000 -0.000000 -0.007874
vn 1.000000 -0.000000 -0.007874
vn 1.000000 -0.000000 -0.007874
vn -1.000000 -0.000000 -0.007874
vn -1.000000 -0.000000 -0.007874
vn -1.000000 -0.000000 -0.007874
vn -1.000000 -0.000000 -0.007874
vn -1.000000 -0.000000 -0.007874
vn -1.000000 -0.000000 -0.007874
vn -1.000000 -0.000000 -0.007874
vn -1.000000 -0.000000 -0.007874
vn 0.000000 -0.000000 -1.000000
vn 0.000000 -0.000000 -1.000000
vn 0.000000 -0.000000 -1.000000
vn 0.000000 -0.000000 -1.000000
vn 0.000000 -0.000000 -1.000000
vn 0.000000 -0.000000 -1.000000
vn 0.000000 -0.000000 -1.000000
vn 0.000000 -0.000000 -1.000000
vn 1.000000 -0.000000 -0.007874
vn 1.000000 -0.000000 -0.007874
vn 1.000000 -0.000000 -0.007874
vn 1.000000 -0.000000 -0.007874
vn 1.000000 -0.000000 -0.007874
vn 1.000000 -0.000000 -0.007874
vn 1.000000 -0.000000 -0.007874
vn 1.000000 -0.000000 -0.007874
vn 0.000000 -0.000000 -1.000000
vn 0.000000 -0.000000 -1.000000
vn 0.000000 -0.000000 -1.000000
vn 0.000000 -0.000000 -1.000000
vn 0.000000 -0.000000 -1.000000
vn 0.000000 -0.000000 -1.000000
vn 0.000000 -0.000000 -1.000000
vn 0.000000 -0.000000 -1.000000
vn -1.000000 -0.000000 -0.007874
vn -1.000000 -0.000000 -0.007874
vn -1.000000 -0.000000 -0.007874
vn -1.000000 -0.000000 -0.007874
vn -1.000000 -0.000000 -0.007874
vn -1.000000 -0.000000 -0.007874
vn -1.000000 -0.000000 -0.007874
vn -1.000000 -0.000000 -0.007874
vn 0.000000 -0.000000 -1.000000
vn 0.000000 -0.000000 -1.000000
vn 0.000000 -0.000000 -1.000000
vn 0.000000 -0.000000 -1.000000
vn 0.000000 -0.000000 -1.000000
vn 0.000000 -0.000000 -1.000000
vn 0.000000 -0.000000 -1.000000
vn 0.000000 -0.000000 -1.000000
vn 1.000000 -0.000000 -0.007874
vn 1.000000 -0.000000 -0.007874
vn 1.000000 -0.000000 -0.007874
vn 1.000000 -0.000000 -0.007874
vn 1.000000 -0.000000 -0.007874
vn 1.000000 -0.000000 -0.007874
vn 1.000000 -0.000000 -0.007874
vn 0.000000 -0.000000 -1.000000
vn 0.000000 -0.000000 -1.000000
vn 0.000000 -0.000000 -1.000000
vn 0.000000 -0.000000 -1.000000
vn 0.000000 -0.000000 -1.000000
vn 0.000000 -0.000000 -1.000000
vn 0.000000 -0.000000 -1.000000
vn 0.000000 -0.000000 -1.000000
vn -1.000000 -0.000000 -0.007874
vn -1.000000 -0.000000 -0.007874
vn -1.000000 -0.000000 -0.007874
vn -1.000000 -0.000000 -0.007874
vn -1.000000 -0.000000 -0.007874
vn -1.000000 -0.000000 -0.007874
vn -1.000000 -0.000000 -0.007874
vn -1.000000 -0.000000 -0.007874
vn 0.000000 -0.000000 -1.000000
vn 0.000000 -0.000000 -1.000000
vn 0.000000 -0.000000 -1.000000
vn 0.000000 -0.000000 -1.000000
vn 0.000000 -0.000000 -1.000000
vn 0.000000 -0.000000 -1.000000
vn 0.000000 -0.000000 -1.000000
vn 1.000000 0.000000 0.000000
vn 1.000000 0.000000 0.000000
vn 1.000000 0.000000 0.000000
vn 1.000000 0.000000 0.000000
vn 0.000000 -0.000000 -1.000000
vn 0.000000 -0.000000 -1.000000
vn 0.000000 -0.000000 -1.000000
vn 0.000000 -0.000000 -1.000000
vn 0.000000 -0.000000 -1.000000
vn 0.000000 -0.000000 -1.000000
vn 0.000000 -0.000000 -1.000000
vn 0.000000 -0.000000 -1.000000
vn -1.000000 0.000000 0.000000
vn -1.000000 0.000000 0.000000
vn -1.000000 0.000000 0.000000
vn -1.000000 0.000000 0.000000
vn 0.000000 -0.000000 -1.000000
vn 0.000000 -0.000000 -1.000000
vn 0.000000 -0.000000 -1.000000
vn 0.000000 -0.000000 -1.000000
vn 0.000000 -0.000000 -1.000000
vn 0.000000 -0.000000 -1.000000
vn 0.000000 -0.000000 -1.000000
vn 0.000000 -0.000000 -1.000000
vn -1.000000 -0.000000 -0.007874
vn -1.000000 -0.000000 -0.007874
vn -1.000000 -0.000000 -0.007874
vn -1.000000 -0.000000 -0.007874
vn 1.000000 -0.000000 -0.007874
vn 1.000000 -0.000000 -0.007874
vn 1.000000 -0.000000 -0.007874
vn 1.000000 -0.000000 -0.007874
vn 0.362205 0.606299 -0.708661
vn 0.456693 0.543307 -0.708661
vn 0.464567 0.527559 -0.708661
vn 0.362205 0.606299 -0.708661
vn 0.385827 0.590551 -0.708661
vn 0.393701 0.590551 -0.708661
vn 0.543307 0.456693 -0.708661
vn 0.543307 0.456693 -0.708661
vn 0.629921 0.322835 -0.708661
vn 0.629921 0.322835 -0.708661
vn 0.677165 0.204724 -0.708661
vn 0.677165 0.204724 -0.708661
vn 0.708661 0.007874 -0.708661
vn 0.708661 0.007874 -0.708661
vn 0.708661 -0.000000 -0.708661
vn 0.708661 -0.000000 -0.708661
vn -0.456693 0.543307 -0.708661
vn -0.362205 0.606299 -0.708661
vn -0.464567 0.527559 -0.708661
vn -0.370079 0.606299 -0.708661
vn -0.385827 0.590551 -0.708661
vn -0.417323 0.566929 -0.708661
vn -0.535433 0.456693 -0.708661
vn -0.606299 0.370079 -0.708661
vn -0.629921 0.322835 -0.708661
vn -0.677165 0.204724 -0.708661
vn -0.677165 0.212598 -0.708661
vn -0.708661 0.007874 -0.708661
vn -0.708661 0.007874 -0.708661
vn -0.708661 -0.000000 -0.708661
vn -0.708661 -0.000000 -0.708661
vn 0.653543 0.755905 -0.000000
vn 0.590551 0.811023 -0.000000
vn 0.700787 0.716535 -0.000000
vn 0.511811 0.858268 -0.000000
vn 0.527559 0.850394 -0.000000
vn 0.551181 0.834646 -0.000000
vn 0.748031 0.661417 -0.000000
vn 0.763780 0.645669 -0.000000
vn 0.921260 0.377953 -0.000000
vn 0.889764 0.456693 -0.000000
vn 0.960630 0.291339 -0.000000
vn 1.000000 0.015748 -0.000000
vn 1.000000 0.015748 -0.000000
vn 1.000000 0.000000 0.000000
vn 1.000000 0.000000 0.000000
vn 0.000000 -0.000000 -1.000000
vn 0.000000 -0.000000 -1.000000
vn 0.000000 -0.000000 -1.000000
vn 0.000000 -0.000000 -1.000000
vn 0.000000 -0.000000 -1.000000
vn -0.007874 -0.000000 -1.000000
vn 0.118110 -0.023622 -0.992126
vn 0.000000 -0.000000 -1.000000
vn 0.000000 -0.000000 -1.000000
vn 0.314961 -0.173228 -0.937008
vn 0.984252 -0.157480 -0.007874
vn 0.944882 -0.149606 -0.291339
vn 0.007874 -0.000000 -1.000000
vn 0.000000 -0.000000 -1.000000
vn 0.275591 -0.055118 -0.960630
vn 0.062992 -0.110236 -0.992126
vn 0.000000 -0.000000 -1.000000
vn 0.000000 -0.000000 -1.000000
vn 0.543307 -0.629921 -0.551181
vn 0.464567 -0.661417 -0.590551
vn 0.401575 -0.149606 -0.905512
vn 0.984252 -0.157480 -0.023622
vn 0.984252 -0.157480 -0.007874
vn 0.944882 -0.118110 -0.307087
vn 0.007874 -0.000000 -1.000000
vn 0.000000 -0.000000 -1.000000
vn 0.283465 -0.031496 -0.960630
vn 0.472441 -0.622047 -0.629921
vn 0.842520 -0.330709 -0.417323
vn 0.984252 -0.157480 -0.023622
vn 0.984252 -0.157480 -0.007874
vn 0.944882 -0.149606 -0.291339
vn 0.007874 -0.000000 -1.000000
vn 0.000000 -0.000000 -1.000000
vn 0.511811 -0.070866 -0.858268
vn 0.984252 -0.157480 0.000000
vn 0.929134 -0.377953 0.007874
vn 0.984252 -0.157480 0.000000
vn 0.598425 -0.803149 0.000000
vn 0.551181 -0.779527 -0.299212
vn 0.582677 -0.818897 -0.023622
vn 0.000000 -0.000000 -1.000000
vn 0.000000 -0.000000 -1.000000
vn 0.000000 -0.000000 -1.000000
vn 0.000000 -0.000000 -1.000000
vn 0.000000 -0.000000 -1.000000
vn 0.007874 -0.000000 -1.000000
vn -0.070866 -0.007874 -1.000000
vn 0.000000 -0.000000 -1.000000
vn 0.000000 -0.000000 -1.000000
vn -0.055118 -0.094488 -0.992126
vn 0.000000 -0.000000 -1.000000
vn 0.000000 -0.000000 -1.000000
vn -0.401575 -0.307087 -0.866142
vn -0.984252 -0.157480 -0.007874
vn -0.952756 -0.125984 -0.267716
vn -0.086614 -0.015748 -0.992126
vn 0.000000 -0.000000 -1.000000
vn -0.007874 -0.000000 -1.000000
vn -0.590551 -0.094488 -0.803149
vn -0.984252 -0.157480 -0.007874
vn -0.574803 -0.818897 -0.055118
vn -0.417323 -0.543307 -0.732283
vn -0.409449 -0.188976 -0.889764
vn -0.984252 -0.157480 -0.023622
vn -0.157480 -0.023622 -0.984252
vn 0.000000 -0.000000 -1.000000
vn -0.007874 -0.000000 -1.000000
vn -0.834646 -0.141732 -0.535433
vn -0.433071 -0.629921 -0.637795
vn -0.842520 -0.330709 -0.433071
vn -0.984252 -0.157480 -0.007874
vn -0.984252 -0.157480 -0.023622
vn -0.157480 -0.023622 -0.984252
vn 0.000000 -0.000000 -1.000000
vn -0.692913 -0.110236 -0.708661
vn -0.984252 -0.157480 0.000000
vn -0.929134 -0.377953 0.007874
vn -0.984252 -0.157480 0.000000
vn -0.598425 -0.803149 0.000000
vn -0.551181 -0.779527 -0.307086
vn -0.692913 -0.724409 0.007874
vn -0.141732 -0.992126 0.000000
vn -1.000000 0.000000 0.000000
vn -1.000000 0.015748 -0.000000
vn -1.000000 0.000000 0.000000
vn -1.000000 0.023622 -0.000000
vn -0.952756 0.291339 -0.000000
vn -0.952756 0.307087 -0.000000
vn -0.858268 0.503937 -0.000000
vn -0.858268 0.519685 -0.000000
vn -0.622047 0.787401 -0.000000
vn -0.566929 0.818897 -0.000000
vn -0.519685 0.850394 -0.000000
vn -0.519685 0.858268 -0.000000
vn -0.653543 0.755905 -0.000000
vn -0.700787 0.716535 -0.000000
vn 0.842520 -0.000000 -0.543307
vn 0.000000 -0.000000 -1.000000
vn 0.062992 -0.000000 -1.000000
vn 0.622047 -0.133858 -0.771653
vn 1.000000 -0.015748 0.000000
vn 1.000000 0.000000 0.000000
vn 0.937008 -0.354331 0.000000
vn 0.653543 -0.755905 0.055118
vn 0.125984 -0.448819 -0.881890
vn 0.377953 -0.929134 0.000000
vn 0.039370 -0.023622 -1.000000
vn 0.000000 -0.007874 -1.000000
vn 0.000000 -1.000000 -0.023622
vn -0.377953 -0.653543 -0.653543
vn -0.047244 0.094488 -0.992126
vn -0.370079 -0.929134 0.000000
vn -0.685039 -0.724409 -0.015748
vn -0.952756 -0.078740 -0.283465
vn -0.007874 -0.078740 -1.000000
vn -0.921260 -0.385827 0.000000
vn -1.000000 -0.023622 0.000000
vn -1.000000 0.000000 0.000000
vn -0.007874 0.007874 -1.000000
vn -0.779528 -0.007874 -0.629921
vn 0.000000 -0.000000 -1.000000
vn 0.000000 -0.000000 -1.000000
vn -0.110236 -0.000000 -0.992126
vn 0.000000 -0.000000 -1.000000
vn -0.220472 -0.015748 -0.976378
vn -1.000000 0.000000 0.000000
vn -1.000000 -0.055118 -0.023622
vn 0.000000 -0.000000 -1.000000
vn -0.795276 -0.598425 -0.102362
vn -0.055118 -0.047244 -1.000000
vn 0.000000 -0.000000 -1.000000
vn -0.503937 -0.866142 -0.007874
vn -0.007874 -0.039370 -1.000000
vn 0.000000 -0.000000 -1.000000
vn 0.000000 -0.000000 -1.000000
vn -0.165354 -0.976378 -0.157480
vn 0.000000 -0.007874 -1.000000
vn 0.023622 -0.078740 -1.000000
vn 0.259843 -0.960630 0.070866
vn 0.551181 -0.826772 0.102362
vn 0.039370 -0.031496 -1.000000
vn 0.000000 -0.000000 -1.000000
vn 0.000000 -0.000000 -1.000000
vn 0.913386 -0.133858 -0.385827
vn 0.763780 -0.653543 0.000000
vn 0.921260 -0.385827 0.015748
vn 1.000000 -0.015748 0.000000
vn 0.992126 0.023622 0.110236
vn 0.055118 -0.000000 -1.000000
vn 0.055118 -0.000000 -1.000000
vn 0.000000 -0.000000 -1.000000
vn 0.000000 -0.000000 -1.000000
vn 0.921260 -0.000000 -0.393701
vn 0.000000 -0.000000 -1.000000
vn 0.000000 -0.000000 -1.000000
vn 0.354331 -0.031496 -0.937008
vn 1.000000 -0.062992 0.007874
vn 1.000000 0.000000 0.000000
vn 0.952756 -0.141732 -0.251968
vn 0.685039 -0.732283 0.000000
vn 0.464567 -0.811024 -0.354331
vn -0.055118 0.007874 -1.000000
vn -0.007874 -0.007874 -1.000000
vn 0.267717 -0.960630 0.000000
vn -0.007874 -0.181102 -0.984252
vn -0.244094 -0.913386 -0.330709
vn -0.196850 -0.984252 0.000000
vn 0.007874 0.023622 -1.000000
vn -0.724409 -0.685039 0.007874
vn -0.763780 -0.637795 -0.086614
vn -0.102362 -0.086614 -0.992126
vn -1.000000 -0.031496 -0.007874
vn -1.000000 -0.039370 0.000000
vn -1.000000 0.000000 0.000000
vn -0.858268 -0.007874 -0.511811
vn -0.133858 -0.000000 -0.992126
vn -0.047244 -0.023622 -1.000000
vn 0.000000 -0.000000 -1.000000
tan 0.007440 -0.992126 -0.118110 1.000000
tan 0.005952 -0.992126 -0.094488 1.000000
tan 0.007440 -0.992126 -0.118110 1.000000
tan 0.133858 -0.992126 -0.002108 1.000000
tan 0.094488 -0.992126 -0.001488 1.000000
tan 0.094488 -0.992126 -0.001488 1.000000
tan 0.125984 -0.992126 -0.001984 1.000000
tan 0.094488 -0.992126 -0.001488 1.000000
tan 0.125984 -0.992126 -0.001984 1.000000
tan -0.133858 -0.992126 -0.002108 1.000000
tan -0.094488 -0.992126 -0.001488 1.000000
tan -0.133858 -0.992126 -0.002108 1.000000
tan -0.007440 -0.992126 -0.118110 1.000000
tan -0.005952 -0.992126 -0.094488 1.000000
tan -0.005952 -0.992126 -0.094488 1.000000
tan -0.005952 -0.992126 -0.094488 1.000000
tan -0.007440 -0.992126 -0.118110 1.000000
tan -0.007440 -0.992126 -0.118110 1.000000
tan -0.125984 -0.992126 -0.001984 1.000000
tan -0.094488 -0.992126 -0.001488 1.000000
tan -0.094488 -0.992126 -0.001488 1.000000
tan 0.007440 -0.992126 -0.118110 1.000000
tan 0.005952 -0.992126 -0.094488 1.000000
tan 0.007440 -0.992126 -0.118110 1.000000
tan 0.125984 -0.992126 -0.001984 1.000000
tan 0.094488 -0.992126 -0.001488 1.000000
tan 0.094488 -0.992126 -0.001488 1.000000
tan 0.125984 -0.992126 -0.001984 1.000000
tan 0.094488 -0.992126 -0.001488 1.000000
tan 0.125984 -0.992126 -0.001984 1.000000
tan 0.005952 -0.992126 -0.094488 1.000000
tan 0.006944 -0.992126 -0.110236 1.000000
tan 0.005952 -0.992126 -0.094488 1.000000
tan -0.125984 -0.992126 -0.001984 1.000000
tan -0.094488 -0.992126 -0.001488 1.000000
tan -0.125984 -0.992126 -0.001984 1.000000
tan -0.005952 -0.992126 -0.094488 1.000000
tan -0.006944 -0.992126 -0.110236 1.000000
tan -0.006944 -0.992126 -0.110236 1.000000
tan -0.125984 -0.992126 -0.001984 1.000000
tan -0.094488 -0.992126 -0.001488 1.000000
tan -0.094488 -0.992126 -0.001488 1.000000
tan 0.006944 -0.992126 -0.110236 1.000000
tan 0.005952 -0.992126 -0.094488 1.000000
tan 0.006944 -0.992126 -0.110236 1.000000
tan 0.118110 -0.992126 -0.001860 1.000000
tan 0.094488 -0.992126 -0.001488 1.000000
tan 0.094488 -0.992126 -0.001488 1.000000
tan -0.094488 -0.992126 -0.001488 1.000000
tan -0.118110 -0.992126 -0.001860 1.000000
tan -0.118110 -0.992126 -0.001860 1.000000
tan -0.006944 -0.992126 -0.110236 1.000000
tan -0.005952 -0.992126 -0.094488 1.000000
tan -0.005952 -0.992126 -0.094488 1.000000
tan -0.000744 -0.992126 -0.094488 1.000000
tan -0.000930 -0.992126 -0.118110 1.000000
tan -0.000930 -0.992126 -0.118110 1.000000
tan -0.000744 -0.992126 -0.094488 1.000000
tan -0.000744 -0.992126 -0.094488 1.000000
tan -0.000930 -0.992126 -0.118110 1.000000
tan -0.000930 -0.992126 -0.118110 1.000000
tan -0.000744 -0.992126 -0.094488 1.000000
tan 0.000930 -0.992126 -0.118110 1.000000
tan 0.000744 -0.992126 -0.094488 1.000000
tan 0.000930 -0.992126 -0.118110 1.000000
tan 0.000744 -0.992126 -0.094488 1.000000
tan 0.000930 -0.992126 -0.118110 1.000000
tan 0.000744 -0.992126 -0.094488 1.000000
tan 0.000930 -0.992126 -0.118110 1.000000
tan 0.000744 -0.992126 -0.094488 1.000000
tan -0.094488 -0.992126 0.000000 1.000000
tan -0.133858 -0.992126 0.000000 1.000000
tan -0.133858 -0.992126 0.000000 1.000000
tan -0.094488 -0.992126 0.000000 1.000000
tan -0.094488 -0.992126 0.000000 1.000000
tan -0.125984 -0.992126 0.000000 1.000000
tan -0.125984 -0.992126 0.000000 1.000000
tan -0.094488 -0.992126 0.000000 1.000000
tan -0.000744 -0.992126 -0.094488 1.000000
tan -0.000930 -0.992126 -0.118110 1.000000
tan -0.000930 -0.992126 -0.118110 1.000000
tan -0.000744 -0.992126 -0.094488 1.000000
tan -0.000744 -0.992126 -0.094488 1.000000
tan -0.000930 -0.992126 -0.118110 1.000000
tan -0.000930 -0.992126 -0.118110 1.000000
tan -0.000744 -0.992126 -0.094488 1.000000
tan 0.094488 -0.992126 0.000000 1.000000
tan 0.133858 -0.992126 0.000000 1.000000
tan 0.133858 -0.992126 0.000000 1.000000
tan 0.094488 -0.992126 0.000000 1.000000
tan 0.094488 -0.992126 0.000000 1.000000
tan 0.133858 -0.992126 0.000000 1.000000
tan 0.133858 -0.992126 0.000000 1.000000
tan 0.094488 -0.992126 0.000000 1.000000
tan 0.000930 -0.992126 -0.118110 1.000000
tan 0.000744 -0.992126 -0.094488 1.000000
tan 0.000930 -0.992126 -0.118110 1.000000
tan 0.000744 -0.992126 -0.094488 1.000000
tan 0.000930 -0.992126 -0.118110 1.000000
tan 0.000744 -0.992126 -0.094488 1.000000
tan 0.000930 -0.992126 -0.118110 1.000000
tan 0.000744 -0.992126 -0.094488 1.000000
tan -0.094488 -0.992126 0.000000 1.000000
tan -0.125984 -0.992126 0.000000 1.000000
tan -0.125984 -0.992126 0.000000 1.000000
tan -0.094488 -0.992126 0.000000 1.000000
tan -0.094488 -0.992126 0.000000 1.000000
tan -0.125984 -0.992126 0.000000 1.000000
tan -0.125984 -0.992126 0.000000 1.000000
tan -0.094488 -0.992126 0.000000 1.000000
tan -0.000744 -0.992126 -0.094488 1.000000
tan -0.000868 -0.992126 -0.110236 1.000000
tan -0.000868 -0.992126 -0.110236 1.000000
tan -0.000744 -0.992126 -0.094488 1.000000
tan -0.000868 -0.992126 -0.110236 1.000000
tan -0.000744 -0.992126 -0.094488 1.000000
tan -0.000868 -0.992126 -0.110236 1.000000
tan 0.094488 -0.992126 0.000000 1.000000
tan 0.125984 -0.992126 0.000000 1.000000
tan 0.125984 -0.992126 0.000000 1.000000
tan 0.094488 -0.992126 0.000000 1.000000
tan 0.094488 -0.992126 0.000000 1.000000
tan 0.125984 -0.992126 0.000000 1.000000
tan 0.125984 -0.992126 0.000000 1.000000
tan 0.094488 -0.992126 0.000000 1.000000
tan 0.000868 -0.992126 -0.110236 1.000000
tan 0.000744 -0.992126 -0.094488 1.000000
tan 0.000868 -0.992126 -0.110236 1.000000
tan 0.000744 -0.992126 -0.094488 1.000000
tan 0.000868 -0.992126 -0.110236 1.000000
tan 0.000744 -0.992126 -0.094488 1.000000
tan 0.000868 -0.992126 -0.110236 1.000000
tan 0.000744 -0.992126 -0.094488 1.000000
tan -0.118110 -0.992126 0.000000 1.000000
tan -0.094488 -0.992126 0.000000 1.000000
tan -0.118110 -0.992126 0.000000 1.000000
tan -0.094488 -0.992126 0.000000 1.000000
tan -0.118110 -0.992126 0.000000 1.000000
tan -0.094488 -0.992126 0.000000 1.000000
tan -0.118110 -0.992126 0.000000 1.000000
tan 0.000000 -0.992126 -0.094488 1.000000
tan 0.000000 -0.992126 -0.086614 1.000000
tan 0.000000 -0.992126 -0.086614 1.000000
tan 0.000000 -0.992126 -0.094488 1.000000
tan 0.094488 -0.992126 0.000000 1.000000
tan 0.118110 -0.992126 0.000000 1.000000
tan 0.118110 -0.992126 0.000000 1.000000
tan 0.094488 -0.992126 0.000000 1.000000
tan 0.118110 -0.992126 0.000000 1.000000
tan 0.094488 -0.992126 0.000000 1.000000
tan 0.118110 -0.992126 0.000000 1.000000
tan 0.094488 -0.992126 0.000000 1.000000
tan 0.000000 -0.992126 -0.086614 1.000000
tan 0.000000 -0.992126 -0.094488 1.000000
tan 0.000000 -0.992126 -0.086614 1.000000
tan 0.000000 -0.992126 -0.094488 1.000000
tan 0.133858 -0.992126 0.000000 1.000000
tan 0.094488 -0.992126 0.000000 1.000000
tan 0.133858 -0.992126 0.000000 1.000000
tan 0.094488 -0.992126 0.000000 1.000000
tan -0.133858 -0.992126 0.000000 1.000000
tan -0.094488 -0.992126 0.000000 1.000000
tan -0.133858 -0.992126 0.000000 1.000000
tan -0.094488 -0.992126 0.000000 1.000000
tan 0.000806 -0.992126 -0.102362 1.000000
tan 0.000744 -0.992126 -0.094488 1.000000
tan 0.000806 -0.992126 -0.102362 1.000000
tan 0.000744 -0.992126 -0.094488 1.000000
tan -0.000744 -0.992126 -0.094488 1.000000
tan -0.000806 -0.992126 -0.102362 1.000000
tan -0.000806 -0.992126 -0.102362 1.000000
tan -0.000744 -0.992126 -0.094488 1.000000
tan 0.444417 -0.744869 -0.410131 1.000000
tan 0.488251 -0.753301 -0.262880 1.000000
tan 0.414781 -0.734701 -0.275032 1.000000
tan 0.434869 -0.744745 -0.414905 1.000000
tan 0.435241 -0.752557 -0.390167 1.000000
tan 0.454771 -0.753301 -0.375101 1.000000
tan 0.538161 -0.776551 -0.087854 1.000000
tan 0.530969 -0.773575 -0.091450 1.000000
tan 0.469155 -0.872962 0.019344 1.000000
tan 0.553785 -0.787401 0.133548 1.000000
tan 0.514601 -0.808481 0.258169 1.000000
tan 0.510633 -0.813813 0.252837 1.000000
tan 0.172794 -0.970922 0.162006 1.000000
tan 0.172794 -0.970922 0.162006 1.000000
tan 0.133920 -0.982082 0.133920 1.000000
tan 0.133920 -0.982082 0.133920 1.000000
tan -0.421477 -0.740034 -0.295740 1.000000
tan -0.439643 -0.747598 -0.414905 1.000000
tan -0.488251 -0.756091 -0.242792 1.000000
tan -0.434869 -0.747350 -0.412301 1.000000
tan -0.435241 -0.752557 -0.390167 1.000000
tan -0.398413 -0.760989 -0.374171 1.000000
tan -0.525017 -0.782937 -0.107880 1.000000
tan -0.534875 -0.798995 0.040362 1.000000
tan -0.551243 -0.776861 0.136090 1.000000
tan -0.518569 -0.803149 0.263501 1.000000
tan -0.513361 -0.808481 0.248001 1.000000
tan -0.172794 -0.970922 0.162006 1.000000
tan -0.172794 -0.970922 0.162006 1.000000
tan -0.128340 -0.982082 0.128340 1.000000
tan -0.128340 -0.982082 0.128340 1.000000
tan 0.755906 -0.653543 -0.045198 1.000000
tan 0.811024 -0.590551 -0.060388 1.000000
tan 0.710893 -0.695269 -0.089280 1.000000
tan 0.858268 -0.511811 -0.078368 1.000000
tan 0.850394 -0.527559 -0.051026 1.000000
tan 0.834646 -0.551181 -0.056916 1.000000
tan 0.661417 -0.748031 -0.028086 1.000000
tan 0.645669 -0.763779 -0.023126 1.000000
tan 0.377953 -0.921260 -0.029016 1.000000
tan 0.456693 -0.889764 -0.028024 1.000000
tan 0.291339 -0.960630 0.007564 1.000000
tan 0.015748 -1.000000 0.031496 1.000000
tan 0.015748 -1.000000 0.047244 1.000000
tan 0.000000 -1.000000 0.055118 1.000000
tan 0.000000 -1.000000 0.062992 1.000000
tan -0.094488 -0.992126 0.000000 1.000000
tan -0.133858 -0.992126 0.000000 1.000000
tan -0.094488 -0.992126 0.000000 1.000000
tan -0.141732 -0.992126 0.000000 1.000000
tan -0.259843 -0.968504 0.000000 1.000000
tan -0.448819 -0.897638 0.003534 1.000000
tan -0.148428 -0.984314 0.005766 1.000000
tan -0.503937 -0.866142 0.000000 1.000000
tan -0.622047 -0.779527 0.000000 1.000000
tan -0.547337 -0.762415 -0.043028 1.000000
tan -0.157108 -0.976502 -0.108500 1.000000
tan -0.208010 -0.934032 -0.194990 1.000000
tan -0.133858 -0.992126 -0.001054 1.000000
tan -0.133858 -0.992126 0.000000 1.000000
tan -0.166842 -0.947672 0.006510 1.000000
tan -0.601525 -0.789013 0.049476 1.000000
tan -0.653543 -0.755905 0.000000 1.000000
tan -0.629921 -0.779527 0.000000 1.000000
tan -0.659681 -0.713497 0.165168 1.000000
tan -0.379441 -0.726641 0.515345 1.000000
tan -0.484779 -0.789013 -0.084630 1.000000
tan -0.158658 -0.976502 -0.100750 1.000000
tan -0.157046 -0.976502 -0.100750 1.000000
tan -0.174282 -0.932420 -0.177630 1.000000
tan -0.125984 -0.992126 -0.000992 1.000000
tan -0.125984 -0.992126 0.000000 1.000000
tan -0.181784 -0.947734 -0.022568 1.000000
tan -0.590613 -0.731601 0.279497 1.000000
tan -0.404365 -0.842396 -0.148800 1.000000
tan -0.158472 -0.976502 -0.093000 1.000000
tan -0.156984 -0.976502 -0.093000 1.000000
tan -0.200012 -0.941472 -0.165230 1.000000
tan -0.118110 -0.992126 -0.000930 1.000000
tan -0.118110 -0.992126 0.000000 1.000000
tan -0.143964 -0.965404 -0.006138 1.000000
tan -0.157480 -0.984252 -0.069750 1.000000
tan -0.378139 -0.929134 0.021948 1.000000
tan -0.157480 -0.984252 -0.085250 1.000000
tan -0.803150 -0.598425 0.042656 1.000000
tan -0.787030 -0.599417 0.111848 1.000000
tan -0.818898 -0.584537 0.064480 1.000000
tan 0.133858 -0.992126 0.000000 1.000000
tan 0.094488 -0.992126 0.000000 1.000000
tan 0.094488 -0.992126 0.000000 1.000000
tan 0.149606 -0.992126 0.000000 1.000000
tan 0.259843 -0.968504 0.000000 1.000000
tan 0.417323 -0.905512 0.003286 1.000000
tan 0.149606 -0.992126 -0.002790 1.000000
tan 0.503937 -0.866142 0.000000 1.000000
tan 0.622047 -0.779527 0.000000 1.000000
tan 0.593713 -0.789013 0.042160 1.000000
tan 0.653543 -0.755905 0.000000 1.000000
tan 0.629921 -0.779527 0.000000 1.000000
tan 0.546903 -0.717279 0.000744 1.000000
tan 0.157108 -0.976502 -0.108500 1.000000
tan 0.168268 -0.939860 -0.156550 1.000000
tan 0.148428 -0.984314 0.002666 1.000000
tan 0.133858 -0.992126 0.000000 1.000000
tan 0.133858 -0.992126 -0.001054 1.000000
tan 0.256308 -0.885734 -0.084258 1.000000
tan 0.157108 -0.976502 -0.108500 1.000000
tan 0.818898 -0.578709 0.058032 1.000000
tan 0.251658 -0.746171 0.410193 1.000000
tan 0.552235 -0.765639 -0.091512 1.000000
tan 0.158844 -0.976502 -0.108500 1.000000
tan 0.162750 -0.968752 -0.002790 1.000000
tan 0.125984 -0.992126 0.000000 1.000000
tan 0.125984 -0.992126 -0.000992 1.000000
tan 0.306281 -0.908922 -0.236840 1.000000
tan 0.428793 -0.727943 0.427801 1.000000
tan 0.441255 -0.843636 -0.214210 1.000000
tan 0.157046 -0.976502 -0.100750 1.000000
tan 0.158658 -0.976502 -0.100750 1.000000
tan 0.147250 -0.976502 -0.000124 1.000000
tan 0.118110 -0.992126 0.000000 1.000000
tan 0.145700 -0.951702 0.005580 1.000000
tan 0.157480 -0.984252 -0.069750 1.000000
tan 0.378139 -0.929134 0.021948 1.000000
tan 0.157480 -0.984252 -0.085250 1.000000
tan 0.803150 -0.598425 0.048980 1.000000
tan 0.787712 -0.601029 0.111848 1.000000
tan 0.724533 -0.692665 0.033728 1.000000
tan 0.992126 -0.141732 0.078120 1.000000
tan 0.000000 -1.000000 0.062992 1.000000
tan -0.015748 -1.000000 0.031496 1.000000
tan 0.000000 -1.000000 0.055118 1.000000
tan -0.023622 -1.000000 0.039370 1.000000
tan -0.291339 -0.952756 -0.022506 1.000000
tan -0.307087 -0.952756 -0.007502 1.000000
tan -0.503937 -0.858268 -0.020274 1.000000
tan -0.519685 -0.858268 -0.033790 1.000000
tan -0.787402 -0.622047 -0.029698 1.000000
tan -0.818898 -0.566929 -0.043152 1.000000
tan -0.850394 -0.519685 -0.057660 1.000000
tan -0.858268 -0.519685 -0.071672 1.000000
tan -0.755906 -0.653543 -0.023002 1.000000
tan -0.716535 -0.700787 -0.089280 1.000000
tan 0.534751 0.163060 0.829252 1.000000
tan 0.874016 0.488189 -0.000000 1.000000
tan 0.881890 0.472441 0.055552 1.000000
tan 0.777978 0.084072 0.612561 1.000000
tan 0.008432 0.535433 0.850394 1.000000
tan 0.000000 0.503937 0.866142 1.000000
tan 0.298531 0.789447 0.509083 1.000000
tan 0.756774 0.656581 0.031372 1.000000
tan 0.924546 -0.067456 0.166408 1.000000
tan 0.914502 0.372001 0.168268 1.000000
tan 0.960630 0.267716 0.031496 1.000000
tan 0.984252 0.181102 -0.001426 1.000000
tan 1.000000 -0.000372 0.015748 1.000000
tan 0.859384 -0.454647 -0.042346 1.000000
tan 0.992126 -0.078120 -0.054684 1.000000
tan 0.914502 -0.364251 -0.160952 1.000000
tan 0.725029 -0.684171 -0.066898 1.000000
tan 0.290781 -0.412611 -0.862732 1.000000
tan 0.929134 -0.362205 0.021204 1.000000
tan 0.328105 -0.783433 -0.496311 1.000000
tan 0.013578 -0.574803 -0.818897 1.000000
tan 0.000000 -0.551181 -0.834646 1.000000
tan 0.866142 -0.496063 -0.010726 1.000000
tan 0.621117 -0.150164 -0.766755 1.000000
tan 0.834646 -0.551181 0.000000 1.000000
tan 0.858268 -0.519685 0.000000 1.000000
tan 0.874946 -0.468721 -0.097216 1.000000
tan 0.834646 -0.543307 0.000000 1.000000
tan 0.899498 -0.376713 -0.197036 1.000000
tan 0.000000 -0.551181 -0.834646 1.000000
tan 0.051026 -0.574803 -0.818897 1.000000
tan 0.913386 -0.409449 0.000000 1.000000
tan 0.608221 -0.789013 -0.112716 1.000000
tan 0.944882 -0.322835 -0.036828 1.000000
tan 0.952756 -0.314961 0.000000 1.000000
tan 0.866080 -0.503565 -0.036952 1.000000
tan 0.992126 -0.133858 -0.002542 1.000000
tan 0.984252 -0.188976 0.000000 1.000000
tan 1.000000 -0.031496 0.000000 1.000000
tan 0.977618 -0.169074 0.021762 1.000000
tan 0.992126 0.141732 -0.001116 1.000000
tan 1.000000 0.062992 0.018662 1.000000
tan 0.953066 0.268399 0.143716 1.000000
tan 0.825098 0.557319 0.058590 1.000000
tan 0.968504 0.251968 0.030194 1.000000
tan 0.968504 0.259842 -0.000000 1.000000
tan 0.937008 0.354331 -0.000000 1.000000
tan 0.406845 0.309257 0.855850 1.000000
tan 0.643251 0.751751 0.166594 1.000000
tan 0.332693 0.812450 0.442495 1.000000
tan 0.008432 0.535433 0.842520 1.000000
tan -0.104842 0.539029 0.828074 1.000000
tan 0.881890 0.464567 0.048608 1.000000
tan 0.897638 0.440945 0.049476 1.000000
tan 0.881890 0.472441 -0.000000 1.000000
tan 0.866142 0.496063 -0.000000 1.000000
tan 0.378201 0.252837 0.884990 1.000000
tan 0.874016 0.488189 -0.000000 1.000000
tan 0.866142 0.503937 -0.000000 1.000000
tan 0.915122 0.187240 0.339761 1.000000
tan 0.029202 0.566929 0.826771 1.000000
tan 0.000000 0.496063 0.866142 1.000000
tan 0.288177 0.510137 0.802715 1.000000
tan 0.726517 0.679645 0.095790 1.000000
tan 0.831732 0.401451 0.171616 1.000000
tan 0.960630 0.267716 -0.050840 1.000000
tan 0.992126 0.110236 -0.008680 1.000000
tan 0.945502 0.263501 0.151280 1.000000
tan 0.984252 -0.031000 -0.002170 1.000000
tan 0.921198 -0.246698 0.001426 1.000000
tan 0.976502 -0.195300 -0.124000 1.000000
tan 0.984252 -0.157480 0.004030 1.000000
tan 0.684667 -0.724719 -0.061194 1.000000
tan 0.641391 -0.750387 -0.130324 1.000000
tan 0.953066 -0.273421 -0.074462 1.000000
tan 0.024366 -0.566929 -0.826771 1.000000
tan 0.022010 -0.559055 -0.826771 1.000000
tan 0.000000 -0.543307 -0.834646 1.000000
tan 0.501271 -0.181040 -0.837808 1.000000
tan 0.890570 -0.429661 -0.120156 1.000000
tan 0.921260 -0.393701 -0.034224 1.000000
tan 0.834646 -0.551181 0.000000 1.000000
f 3/3/3 2/2/2 1/1/1
f 6/6/6 5/5/5 4/4/4
f 9/9/9 8/8/8 7/7/7
f 12/12/12 11/11/11 10/10/10
f 15/15/15 14/14/14 13/13/13
f 18/18/18 17/17/17 16/16/16
f 21/21/21 20/20/20 19/19/19
f 24/24/24 23/23/23 22/22/22
f 27/27/27 26/26/26 25/25/25
f 30/30/30 29/29/29 28/28/28
f 33/33/33 32/32/32 31/31/31
f 36/36/36 35/35/35 34/34/34
f 39/39/39 38/38/38 37/37/37
f 42/42/42 41/41/41 40/40/40
f 45/45/45 44/44/44 43/43/43
f 48/48/48 47/47/47 46/46/46
f 51/51/51 50/50/50 49/49/49
f 54/54/54 53/53/53 52/52/52
f 57/57/57 56/56/56 55/55/55
f 58/58/58 55/55/55 56/56/56
f 61/61/61 60/60/60 59/59/59
f 62/62/62 59/59/59 60/60/60
f 65/65/65 64/64/64 63/63/63
f 64/64/64 65/65/65 66/66/66
f 69/69/69 68/68/68 67/67/67
f 68/68/68 69/69/69 70/70/70
f 73/73/73 72/72/72 71/71/71
f 74/74/74 71/71/71 72/72/72
f 77/77/77 76/76/76 75/75/75
f 78/78/78 75/75/75 76/76/76
f 81/81/81 80/80/80 79/79/79
f 82/82/82 79/79/79 80/80/80
f 85/85/85 84/84/84 83/83/83
f 86/86/86 83/83/83 84/84/84
f 89/89/89 88/88/88 87/87/87
f 90/90/90 87/87/87 88/88/88
f 93/93/93 92/92/92 91/91/91
f 94/94/94 91/91/91 92/92/92
f 97/97/97 96/96/96 95/95/95
f 96/96/96 97/97/97 98/98/98
f 101/101/101 100/100/100 99/99/99
f 100/100/100 101/101/101 102/102/102
f 105/105/105 104/104/104 103/103/103
f 106/106/106 103/103/103 104/104/104
f 109/109/109 108/108/108 107/107/107
f 110/110/110 107/107/107 108/108/108
f 113/113/113 112/112/112 111/111/111
f 114/114/114 111/111/111 112/112/112
f 116/116/116 114/114/114 115/115/115
f 117/117/117 115/115/115 114/114/114
f 120/120/120 119/119/119 118/118/118
f 121/121/121 118/118/118 119/119/119
f 124/124/124 123/123/123 122/122/122
f 125/125/125 122/122/122 123/123/123
f 128/128/128 127/127/127 126/126/126
f 127/127/127 128/128/128 129/129/129
f 132/132/132 131/131/131 130/130/130
f 131/131/131 132/132/132 133/133/133
f 136/136/136 135/135/135 134/134/134
f 137/137/137 135/135/135 136/136/136
f 139/139/139 137/137/137 138/138/138
f 140/140/140 138/138/138 137/137/137
f 143/143/143 142/142/142 141/141/141
f 144/144/144 141/141/141 142/142/142
f 147/147/147 146/146/146 145/145/145
f 148/148/148 145/145/145 146/146/146
f 151/151/151 150/150/150 149/149/149
f 152/152/152 150/150/150 151/151/151
f 155/155/155 154/154/154 153/153/153
f 156/156/156 153/153/153 154/154/154
f 159/159/159 158/158/158 157/157/157
f 160/160/160 158/158/158 159/159/159
f 163/163/163 162/162/162 161/161/161
f 164/164/164 162/162/162 163/163/163
f 167/167/167 166/166/166 165/165/165
f 166/166/166 167/167/167 168/168/168
f 171/171/171 170/170/170 169/169/169
f 172/172/172 169/169/169 170/170/170
f 175/175/175 174/174/174 173/173/173
f 173/173/173 174/174/174 176/176/176
f 173/173/173 176/176/176 177/177/177
f 177/177/177 176/176/176 178/178/178
f 178/178/178 179/179/179 177/177/177
f 180/180/180 177/177/177 179/179/179
f 179/179/179 181/181/181 180/180/180
f 182/182/182 180/180/180 181/181/181
f 181/181/181 183/183/183 182/182/182
f 183/183/183 181/181/181 184/184/184
f 184/184/184 185/185/185 183/183/183
f 185/185/185 184/184/184 186/186/186
f 186/186/186 187/187/187 185/185/185
f 188/188/188 185/185/185 187/187/187
f 191/191/191 190/190/190 189/189/189
f 192/192/192 189/189/189 190/190/190
f 190/190/190 193/193/193 192/192/192
f 194/194/194 192/192/192 193/193/193
f 194/194/194 193/193/193 195/195/195
f 196/196/196 194/194/194 195/195/195
f 196/196/196 195/195/195 197/197/197
f 197/197/197 198/198/198 196/196/196
f 199/199/199 196/196/196 198/198/198
f 198/198/198 200/200/200 199/199/199
f 201/201/201 199/199/199 200/200/200
f 200/200/200 202/202/202 201/201/201
f 203/203/203 202/202/202 200/200/200
f 206/206/206 205/205/205 204/204/204
f 204/204/204 205/205/205 207/207/207
f 205/205/205 208/208/208 207/207/207
f 209/209/209 207/207/207 208/208/208
f 208/208/208 210/210/210 209/209/209
f 211/211/211 209/209/209 210/210/210
f 210/210/210 212/212/212 211/211/211
f 211/211/211 212/212/212 213/213/213
f 214/214/214 213/213/213 212/212/212
f 212/212/212 215/215/215 214/214/214
f 216/216/216 214/214/214 215/215/215
f 216/216/216 215/215/215 217/217/217
f 218/218/218 217/217/217 215/215/215
f 221/221/221 220/220/220 219/219/219
f 222/222/222 219/219/219 220/220/220
f 220/220/220 223/223/223 222/222/222
f 224/224/224 222/222/222 223/223/223
f 222/222/222 224/224/224 225/225/225
f 227/227/227 224/224/224 226/226/226
f 228/228/228 225/225/225 224/224/224
f 229/229/229 225/225/225 228/228/228
f 230/230/230 229/229/229 228/228/228
f 230/230/230 228/228/228 231/231/231
f 232/232/232 231/231/231 228/228/228
f 233/233/233 232/232/232 228/228/228
f 224/224/224 227/227/227 234/234/234
f 224/224/224 234/234/234 228/228/228
f 235/235/235 234/234/234 227/227/227
f 236/236/236 234/234/234 235/235/235
f 237/237/237 228/228/228 234/234/234
f 234/234/234 238/238/238 237/237/237
f 239/239/239 233/233/233 228/228/228
f 228/228/228 237/237/237 239/239/239
f 240/240/240 233/233/233 239/239/239
f 241/241/241 240/240/240 239/239/239
f 239/239/239 242/242/242 241/241/241
f 239/239/239 243/243/243 242/242/242
f 244/244/244 243/243/243 239/239/239
f 245/245/245 244/244/244 239/239/239
f 246/246/246 239/239/239 237/237/237
f 246/246/246 237/237/237 238/238/238
f 247/247/247 245/245/245 239/239/239
f 247/247/247 239/239/239 246/246/246
f 248/248/248 245/245/245 247/247/247
f 249/249/249 248/248/248 247/247/247
f 250/250/250 249/249/249 247/247/247
f 250/250/250 247/247/247 251/251/251
f 252/252/252 251/251/251 247/247/247
f 253/253/253 252/252/252 247/247/247
f 254/254/254 253/253/253 247/247/247
f 256/256/256 254/254/254 255/255/255
f 247/247/247 255/255/255 254/254/254
f 255/255/255 247/247/247 257/257/257
f 246/246/246 257/257/257 247/247/247
f 258/258/258 257/257/257 246/246/246
f 238/238/238 258/258/258 246/246/246
f 259/259/259 257/257/257 258/258/258
f 238/238/238 259/259/259 258/258/258
f 262/262/262 261/261/261 260/260/260
f 260/260/260 261/261/261 263/263/263
f 260/260/260 263/263/263 264/264/264
f 265/265/265 264/264/264 263/263/263
f 263/263/263 266/266/266 265/265/265
f 268/268/268 267/267/267 265/265/265
f 265/265/265 269/269/269 268/268/268
f 270/270/270 268/268/268 269/269/269
f 269/269/269 271/271/271 270/270/270
f 272/272/272 265/265/265 266/266/266
f 272/272/272 269/269/269 265/265/265
f 273/273/273 272/272/272 266/266/266
f 274/274/274 272/272/272 273/273/273
f 272/272/272 274/274/274 275/275/275
f 275/275/275 276/276/276 272/272/272
f 276/276/276 277/277/277 272/272/272
f 277/277/277 278/278/278 272/272/272
f 279/279/279 272/272/272 278/278/278
f 280/280/280 269/269/269 272/272/272
f 280/280/280 281/281/281 269/269/269
f 282/282/282 272/272/272 279/279/279
f 283/283/283 282/282/282 279/279/279
f 284/284/284 282/282/282 283/283/283
f 284/284/284 285/285/285 282/282/282
f 285/285/285 286/286/286 282/282/282
f 286/286/286 287/287/287 282/282/282
f 272/272/272 288/288/288 280/280/280
f 282/282/282 288/288/288 272/272/272
f 281/281/281 280/280/280 288/288/288
f 289/289/289 282/282/282 287/287/287
f 282/282/282 289/289/289 288/288/288
f 290/290/290 289/289/289 287/287/287
f 291/291/291 289/289/289 290/290/290
f 292/292/292 289/289/289 291/291/291
f 292/292/292 293/293/293 289/289/289
f 293/293/293 294/294/294 289/289/289
f 295/295/295 289/289/289 294/294/294
f 297/297/297 296/296/296 295/295/295
f 295/295/295 296/296/296 289/289/289
f 296/296/296 298/298/298 289/289/289
f 289/289/289 298/298/298 288/288/288
f 288/288/288 298/298/298 299/299/299
f 299/299/299 281/281/281 288/288/288
f 300/300/300 299/299/299 298/298/298
f 299/299/299 300/300/300 281/281/281
f 300/300/300 301/301/301 281/281/281
f 304/304/304 303/303/303 302/302/302
f 303/303/303 304/304/304 305/305/305
f 306/306/306 303/303/303 305/305/305
f 305/305/305 307/307/307 306/306/306
f 307/307/307 308/308/308 306/306/306
f 306/306/306 308/308/308 309/309/309
f 308/308/308 310/310/310 309/309/309
f 311/311/311 309/309/309 310/310/310
f 310/310/310 312/312/312 311/311/311
f 313/313/313 311/311/311 312/312/312
f 313/313/313 312/312/312 314/314/314
f 312/312/312 315/315/315 314/314/314
f 318/318/318 317/317/317 316/316/316
f 319/319/319 316/316/316 317/317/317
f 321/321/321 316/316/316 320/320/320
f 319/319/319 320/320/320 316/316/316
f 322/322/322 320/320/320 319/319/319
f 323/323/323 322/322/322 319/319/319
f 323/323/323 319/319/319 324/324/324
f 325/325/325 323/323/323 324/324/324
f 319/319/319 326/326/326 324/324/324
f 327/327/327 324/324/324 326/326/326
f 328/328/328 325/325/325 324/324/324
f 324/324/324 329/329/329 328/328/328
f 324/324/324 330/330/330 329/329/329
f 331/331/331 328/328/328 329/329/329
f 332/332/332 331/331/331 329/329/329
f 333/333/333 332/332/332 329/329/329
f 333/333/333 329/329/329 334/334/334
f 335/335/335 332/332/332 333/333/333
f 336/336/336 335/335/335 333/333/333
f 333/333/333 337/337/337 336/336/336
f 334/334/334 338/338/338 333/333/333
f 337/337/337 333/333/333 339/339/339
f 338/338/338 339/339/339 333/333/333
f 340/340/340 339/339/339 338/338/338
f 343/343/343 342/342/342 341/341/341
f 341/341/341 342/342/342 344/344/344
f 345/345/345 344/344/344 342/342/342
f 344/344/344 345/345/345 346/346/346
f 341/341/341 344/344/344 347/347/347
f 346/346/346 348/348/348 344/344/344
f 349/349/349 347/347/347 344/344/344
f 344/344/344 348/348/348 349/349/349
f 347/347/347 349/349/349 350/350/350
f 348/348/348 351/351/351 349/349/349
f 349/349/349 352/352/352 350/350/350
f 352/352/352 349/349/349 351/351/351
f 353/353/353 350/350/350 352/352/352
f 353/353/353 352/352/352 354/354/354
f 351/351/351 355/355/355 352/352/352
f 354/354/354 352/352/352 356/356/356
f 352/352/352 355/355/355 357/357/357
f 357/357/357 356/356/356 352/352/352
f 358/358/358 357/357/357 355/355/355
f 357/357/357 358/358/358 359/359/359
f 360/360/360 356/356/356 357/357/357
f 357/357/357 359/359/359 360/360/360
f 361/361/361 356/356/356 360/360/360
f 362/362/362 361/361/361 360/360/360
f 360/360/360 359/359/359 363/363/363
f 364/364/364 363/363/363 359/359/359
f 364/364/364 365/365/365 363/363/363
f 365/365/365 366/366/366 363/363/363
f 363/363/363 366/366/366 367/367/367
f 367/367/367 368/368/368 363/363/363
f 363/363/363 369/369/369 360/360/360
f 363/363/363 368/368/368 369/369/369
f 360/360/360 369/369/369 362/362/362
f 370/370/370 362/362/362 369/369/369
f 369/369/369 368/368/368 370/370/370
f 371/371/371 370/370/370 368/368/368
f 374/374/374 373/373/373 372/372/372
f 375/375/375 372/372/372 373/373/373
f 377/377/377 372/372/372 376/376/376
f 378/378/378 376/376/376 372/372/372
f 375/375/375 378/378/378 372/372/372
f 379/379/379 376/376/376 378/378/378
f 378/378/378 375/375/375 380/380/380
f 378/378/378 380/380/380 379/379/379
f 381/381/381 380/380/380 375/375/375
f 381/381/381 382/382/382 380/380/380
f 383/383/383 379/379/379 380/380/380
f 382/382/382 384/384/384 380/380/380
f 385/385/385 383/383/383 380/380/380
f 380/380/380 384/384/384 385/385/385
f 386/386/386 383/383/383 385/385/385
f 387/387/387 385/385/385 384/384/384
f 388/388/388 386/386/386 385/385/385
f 385/385/385 387/387/387 389/389/389
f 385/385/385 389/389/389 388/388/388
f 389/389/389 387/387/387 390/390/390
f 389/389/389 391/391/391 388/388/388
f 392/392/392 388/388/388 391/391/391
f 391/391/391 393/393/393 392/392/392
f 393/393/393 391/391/391 394/394/394
f 389/389/389 390/390/390 395/395/395
f 391/391/391 389/389/389 395/395/395
f 395/395/395 394/394/394 391/391/391
f 396/396/396 395/395/395 390/390/390
f 397/397/397 394/394/394 395/395/395
