mtllib SM_Door_LOD2.mtl
g SM_Door_LOD2
#Vertices 431
#Indices 702
#Section 0 Offset 0 NumIndices 702 MaterialIndex 0 MI_Props
v 0.044805 9.639488 -0.280281
v 1.461326 9.456553 -0.162200
v -0.011524 9.490708 0.095626
v 2.632945 7.831530 -0.188882
v 2.646096 7.126992 -0.220164
v 2.646096 7.126994 -0.000001
v 1.746832 7.362600 -0.061341
v 0.508441 7.332377 -0.185805
v 1.852003 7.274372 -0.220164
v 0.524699 6.937089 -0.213519
v 0.517245 5.367778 -0.186933
v 0.546300 5.543698 -0.137192
v 1.829710 5.440344 -0.222657
v 1.777170 6.946885 -0.189066
v 1.747790 5.543698 -0.137192
v 0.464505 1.766559 -0.222877
v 0.520791 0.182252 -0.198929
v 0.546300 1.663229 -0.137191
v 1.746765 1.663224 -0.137191
v 1.776959 0.180186 -0.194774
v 1.828599 1.767875 -0.223067
v 0.517245 5.367778 -0.186933
v 0.464350 3.597514 -0.222106
v 0.546300 3.702068 -0.137192
v 1.829710 5.440344 -0.222657
v 0.517245 5.367778 -0.186933
v 1.747586 5.336247 -0.137192
v 1.746832 7.362600 -0.061341
v 0.613037 7.431873 -0.000001
v 0.508441 7.332377 -0.185805
v -0.011524 9.490708 0.095626
v 0.026685 9.329048 -0.220166
v 0.044805 9.639488 -0.280281
v -1.708935 9.256323 -0.171272
v -0.817688 9.594136 -0.220164
v -0.820117 9.603004 -0.000001
v -1.778049 7.334969 -0.205461
v -0.463326 7.274371 -0.220164
v -0.546298 7.357344 -0.137192
v -0.463326 7.274371 -0.220164
v -0.513702 8.832625 -0.190607
v -0.546298 7.357344 -0.137192
v -0.515220 5.369724 -0.199752
v -0.539973 6.943860 -0.187656
v -0.538291 5.549802 -0.052704
v -1.780082 6.946921 -0.190900
v -1.833202 5.439978 -0.220884
v -1.749851 5.543698 -0.137192
v -0.513702 8.832625 -0.190607
v -1.136152 8.565888 -0.219367
v -1.552649 7.993493 -0.086287
v -1.827491 1.764799 -0.226755
v -1.751395 0.182940 -0.202565
v -1.749851 1.663224 -0.137191
v -0.516379 0.181658 -0.195368
v -0.464506 1.767347 -0.222881
v -0.546298 1.663229 -0.137191
v -1.749851 1.870680 -0.137191
v -1.796040 3.527253 -0.195764
v -1.827491 1.764799 -0.226755
v -0.464374 3.599160 -0.222035
v -1.796040 3.527253 -0.195764
v -0.546298 3.494617 -0.137192
v -0.464374 3.599160 -0.222035
v -0.515220 5.369724 -0.199752
v -0.546298 3.702068 -0.137192
v -1.749851 5.336247 -0.137192
v -0.515220 5.369724 -0.199752
v -1.833202 5.439978 -0.220884
v -0.538291 5.549802 -0.052704
v -1.686450 5.615961 -0.000001
v -1.749851 5.543698 -0.137192
v -0.538291 5.549802 -0.052704
v -0.539973 6.943860 -0.187656
v -0.609698 6.843129 -0.000001
v -0.056526 9.451069 -0.225524
v -0.025845 0.000156 -0.217443
v -0.019781 9.316603 -0.181580
v 0.007825 9.479319 0.098760
v -0.036503 9.747330 -0.216036
v -0.056526 9.451069 -0.225524
v -0.019781 9.316603 -0.181580
v 0.007825 9.479319 0.098760
v -0.056526 9.451069 -0.225524
v 1.746832 7.362600 -0.061341
v 1.852003 7.274372 -0.220164
v 1.615740 7.915408 -0.191871
v 1.135913 8.565538 -0.220352
v 0.515246 8.830656 -0.196411
v -1.552649 7.993493 -0.086287
v -1.778049 7.334969 -0.205461
v -1.686655 7.431873 -0.000001
v -0.626972 8.735242 0.008438
v -0.513702 8.832625 -0.190607
v -0.056526 9.451069 -0.225524
v -0.947126 9.334270 -0.243962
v -1.691192 8.754492 -0.265312
v -2.248346 7.256628 -0.231814
v -2.284493 7.973889 -0.238374
v -2.426228 7.136838 -0.241555
v 0.609533 1.586528 -0.000000
v 1.683341 0.284171 -0.000000
v 1.683518 1.586528 -0.000000
v 0.609533 0.284171 -0.000000
v 0.609556 3.409060 -0.000000
v 1.683723 1.956233 -0.000000
v 1.683907 3.409060 -0.000000
v 0.609556 1.956233 -0.000000
v 0.609577 5.250170 -0.000001
v 1.684112 3.788148 -0.000000
v 1.684301 5.250170 -0.000001
v 0.609577 3.788148 -0.000000
v 0.609608 6.843129 -0.000001
v 1.684513 5.615961 -0.000001
v 1.685066 6.843129 -0.000001
v 0.609608 5.615961 -0.000001
v 0.626971 8.735241 0.008441
v 0.613037 7.431873 -0.000001
v 1.474297 8.037483 0.000681
v 1.746832 7.362600 -0.061341
v 2.646096 7.126992 -0.220164
v 2.646096 -0.000000 -0.220163
v 2.646096 -0.000000 0.000000
v 2.646096 7.126994 -0.000001
v 1.746765 1.663224 -0.137191
v 0.464505 1.766559 -0.222877
v 0.546300 1.663229 -0.137191
v 1.828599 1.767875 -0.223067
v 0.464350 3.597514 -0.222106
v 0.546300 1.870680 -0.137191
v 0.546300 3.494617 -0.137192
v 0.464505 1.766559 -0.222877
v 0.464505 1.766559 -0.222877
v 1.828599 1.767875 -0.223067
v 0.546300 1.870680 -0.137191
v 1.746970 1.870680 -0.137191
v 1.828599 1.767875 -0.223067
v 1.828982 3.598697 -0.222506
v 1.746970 1.870680 -0.137191
v 1.747175 3.494617 -0.137192
v 1.747175 3.494617 -0.137192
v 0.464350 3.597514 -0.222106
v 0.546300 3.494617 -0.137192
v 1.828982 3.598697 -0.222506
v 0.464350 3.597514 -0.222106
v 1.828982 3.598697 -0.222506
v 0.546300 3.702068 -0.137192
v 1.747380 3.702067 -0.137192
v 1.828982 3.598697 -0.222506
v 1.747586 5.336247 -0.137192
v 1.747380 3.702067 -0.137192
v 1.829710 5.440344 -0.222657
v 0.517245 5.367778 -0.186933
v 1.829710 5.440344 -0.222657
v 0.546300 5.543698 -0.137192
v 1.747790 5.543698 -0.137192
v 0.524699 6.937089 -0.213519
v 1.685066 6.843129 -0.000001
v 1.777170 6.946885 -0.189066
v 0.609608 6.843129 -0.000001
v 0.515246 8.830656 -0.196411
v 0.508441 7.332377 -0.185805
v 0.613037 7.431873 -0.000001
v 0.626971 8.735241 0.008441
v 1.776959 0.180186 -0.194774
v 0.609533 0.284171 -0.000000
v 0.520791 0.182252 -0.198929
v 1.683341 0.284171 -0.000000
v 0.546300 1.663229 -0.137191
v 0.520791 0.182252 -0.198929
v 0.609533 0.284171 -0.000000
v 0.609533 1.586528 -0.000000
v 1.746765 1.663224 -0.137191
v 1.683341 0.284171 -0.000000
v 1.776959 0.180186 -0.194774
v 1.683518 1.586528 -0.000000
v 1.746970 1.870680 -0.137191
v 0.609556 1.956233 -0.000000
v 0.546300 1.870680 -0.137191
v 1.683723 1.956233 -0.000000
v 0.546300 1.663229 -0.137191
v 1.683518 1.586528 -0.000000
v 1.746765 1.663224 -0.137191
v 0.609533 1.586528 -0.000000
v 0.546300 1.870680 -0.137191
v 0.609556 3.409060 -0.000000
v 0.546300 3.494617 -0.137192
v 0.609556 1.956233 -0.000000
v 1.746970 1.870680 -0.137191
v 1.747175 3.494617 -0.137192
v 1.683907 3.409060 -0.000000
v 1.683723 1.956233 -0.000000
v 1.747380 3.702067 -0.137192
v 0.609577 3.788148 -0.000000
v 0.546300 3.702068 -0.137192
v 1.684112 3.788148 -0.000000
v 0.546300 3.494617 -0.137192
v 1.683907 3.409060 -0.000000
v 1.747175 3.494617 -0.137192
v 0.609556 3.409060 -0.000000
v 0.517245 5.367778 -0.186933
v 0.546300 3.702068 -0.137192
v 0.609577 3.788148 -0.000000
v 0.609577 5.250170 -0.000001
v 1.747586 5.336247 -0.137192
v 1.684112 3.788148 -0.000000
v 1.747380 3.702067 -0.137192
v 1.684301 5.250170 -0.000001
v 1.747790 5.543698 -0.137192
v 0.609608 5.615961 -0.000001
v 0.546300 5.543698 -0.137192
v 1.684513 5.615961 -0.000001
v 0.517245 5.367778 -0.186933
v 1.684301 5.250170 -0.000001
v 1.747586 5.336247 -0.137192
v 0.609577 5.250170 -0.000001
v 0.524699 6.937089 -0.213519
v 0.546300 5.543698 -0.137192
v 0.609608 5.615961 -0.000001
v 0.609608 6.843129 -0.000001
v 1.777170 6.946885 -0.189066
v 1.684513 5.615961 -0.000001
v 1.747790 5.543698 -0.137192
v 1.685066 6.843129 -0.000001
v 2.251813 0.000449 -0.227506
v 2.426451 0.001533 -0.242780
v 2.247913 7.267157 -0.239463
v 2.429045 7.326854 -0.242110
v 0.000001 0.000001 0.107188
v 0.026015 -0.000066 -0.217340
v -0.011524 9.490708 0.095626
v 0.026685 9.329048 -0.220166
v -1.686450 1.586528 -0.000000
v -1.686450 0.284171 -0.000000
v -0.609698 1.586528 -0.000000
v -0.609698 0.284171 -0.000000
v -1.686450 3.409060 -0.000000
v -1.686450 1.956233 -0.000000
v -0.609698 3.409060 -0.000000
v -0.609698 1.956233 -0.000000
v -1.686450 5.250170 -0.000001
v -0.609698 3.788148 -0.000000
v -0.609698 5.250170 -0.000001
v -1.686450 3.788148 -0.000000
v -0.609698 6.843129 -0.000001
v -1.686450 5.615961 -0.000001
v -0.538291 5.549802 -0.052704
v -1.686450 6.843129 -0.000001
v -0.626972 8.735242 0.008438
v -1.552649 7.993493 -0.086287
v -0.613035 7.431873 -0.000001
v -1.686655 7.431873 -0.000001
v -0.817688 9.594136 -0.220164
v -0.036503 9.747330 -0.216036
v -0.820117 9.603004 -0.000001
v 0.007825 9.479319 0.098760
v -2.646096 0.000002 -0.220163
v -2.643939 7.252486 -0.226119
v -2.670258 7.334826 -0.011074
v -2.646096 -0.000000 0.000000
v -0.546298 1.663229 -0.137191
v -1.827491 1.764799 -0.226755
v -1.749851 1.663224 -0.137191
v -0.464506 1.767347 -0.222881
v -1.827491 1.764799 -0.226755
v -0.464506 1.767347 -0.222881
v -1.749851 1.870680 -0.137191
v -0.546298 1.870680 -0.137191
v -0.464374 3.599160 -0.222035
v -0.546298 1.870680 -0.137191
v -0.464506 1.767347 -0.222881
v -0.546298 3.494617 -0.137192
v -1.833202 5.439978 -0.220884
v -1.796040 3.527253 -0.195764
v -1.749851 5.336247 -0.137192
v -1.749851 3.702067 -0.137192
v -1.796040 3.527253 -0.195764
v -0.464374 3.599160 -0.222035
v -1.749851 3.702067 -0.137192
v -0.546298 3.702068 -0.137192
v -1.833202 5.439978 -0.220884
v -0.515220 5.369724 -0.199752
v -1.749851 5.543698 -0.137192
v -0.538291 5.549802 -0.052704
v -1.778049 7.334969 -0.205461
v -0.546298 7.357344 -0.137192
v -0.613035 7.431873 -0.000001
v -1.686655 7.431873 -0.000001
v -0.539973 6.943860 -0.187656
v -1.780082 6.946921 -0.190900
v -1.686450 6.843129 -0.000001
v -0.609698 6.843129 -0.000001
v -0.513702 8.832625 -0.190607
v -0.613035 7.431873 -0.000001
v -0.546298 7.357344 -0.137192
v -0.626972 8.735242 0.008438
v -0.516379 0.181658 -0.195368
v -1.686450 0.284171 -0.000000
v -1.751395 0.182940 -0.202565
v -0.609698 0.284171 -0.000000
v -1.749851 1.663224 -0.137191
v -1.751395 0.182940 -0.202565
v -1.686450 0.284171 -0.000000
v -1.686450 1.586528 -0.000000
v -0.546298 1.663229 -0.137191
v -0.609698 0.284171 -0.000000
v -0.516379 0.181658 -0.195368
v -0.609698 1.586528 -0.000000
v -0.546298 1.870680 -0.137191
v -1.686450 1.956233 -0.000000
v -1.749851 1.870680 -0.137191
v -0.609698 1.956233 -0.000000
v -0.546298 1.663229 -0.137191
v -1.749851 1.663224 -0.137191
v -1.686450 1.586528 -0.000000
v -0.609698 1.586528 -0.000000
v -1.749851 1.870680 -0.137191
v -1.686450 3.409060 -0.000000
v -1.796040 3.527253 -0.195764
v -1.686450 1.956233 -0.000000
v -0.546298 1.870680 -0.137191
v -0.546298 3.494617 -0.137192
v -0.609698 3.409060 -0.000000
v -0.609698 1.956233 -0.000000
v -0.546298 3.702068 -0.137192
v -1.686450 3.788148 -0.000000
v -1.749851 3.702067 -0.137192
v -0.609698 3.788148 -0.000000
v -0.546298 3.494617 -0.137192
v -1.796040 3.527253 -0.195764
v -1.686450 3.409060 -0.000000
v -0.609698 3.409060 -0.000000
v -1.749851 5.336247 -0.137192
v -1.749851 3.702067 -0.137192
v -1.686450 3.788148 -0.000000
v -1.686450 5.250170 -0.000001
v -0.515220 5.369724 -0.199752
v -0.609698 3.788148 -0.000000
v -0.546298 3.702068 -0.137192
v -0.609698 5.250170 -0.000001
v -0.515220 5.369724 -0.199752
v -1.749851 5.336247 -0.137192
v -1.686450 5.250170 -0.000001
v -0.609698 5.250170 -0.000001
v -1.780082 6.946921 -0.190900
v -1.749851 5.543698 -0.137192
v -1.686450 5.615961 -0.000001
v -1.686450 6.843129 -0.000001
v -2.426228 7.136838 -0.241555
v -2.426431 0.003535 -0.244515
v -2.247807 0.000494 -0.234373
v -2.248346 7.256628 -0.231814
v 0.000001 0.000001 0.107188
v 0.007825 9.479319 0.098760
v -0.025845 0.000156 -0.217443
v -0.019781 9.316603 -0.181580
v 0.044805 9.639488 -0.280281
v 0.026685 9.329048 -0.220166
v 0.968231 9.138620 -0.246448
v 1.336748 9.119390 -0.233907
v 1.852437 8.408777 -0.234439
v 2.001280 8.487116 -0.241892
v 2.247913 7.267157 -0.239463
v 2.429045 7.326854 -0.242110
v 1.461326 9.456553 -0.162200
v 0.044805 9.639488 -0.280281
v 1.336748 9.119390 -0.233907
v 2.001280 8.487116 -0.241892
v 2.632945 7.831530 -0.188882
v 2.429045 7.326854 -0.242110
v 2.646096 7.126992 -0.220164
v 2.426451 0.001533 -0.242780
v 2.646096 -0.000000 -0.220163
v 1.615740 7.915408 -0.191871
v 0.515246 8.830656 -0.196411
v 0.626971 8.735241 0.008441
v 1.474297 8.037483 0.000681
v 1.746832 7.362600 -0.061341
v -2.426228 7.136838 -0.241555
v -2.646096 0.000002 -0.220163
v -2.426431 0.003535 -0.244515
v -2.643939 7.252486 -0.226119
v -2.284493 7.973889 -0.238374
v -2.670258 7.334826 -0.011074
v -1.708935 9.256323 -0.171272
v -1.691192 8.754492 -0.265312
v -0.947126 9.334270 -0.243962
v -0.817688 9.594136 -0.220164
v -0.036503 9.747330 -0.216036
v -0.056526 9.451069 -0.225524
v -1.833202 5.439978 -0.220884
v -1.827491 1.764799 -0.226755
v -1.796040 3.527253 -0.195764
v -1.751395 0.182940 -0.202565
v -2.247807 0.000494 -0.234373
v -0.025845 0.000156 -0.217443
v -2.248346 7.256628 -0.231814
v -0.516379 0.181658 -0.195368
v -0.464506 1.767347 -0.222881
v -0.464374 3.599160 -0.222035
v -1.778049 7.334969 -0.205461
v -1.780082 6.946921 -0.190900
v -0.539973 6.943860 -0.187656
v -1.552649 7.993493 -0.086287
v -1.691192 8.754492 -0.265312
v -0.463326 7.274371 -0.220164
v -1.136152 8.565888 -0.219367
v -0.515220 5.369724 -0.199752
v -0.056526 9.451069 -0.225524
v -0.513702 8.832625 -0.190607
v 0.524699 6.937089 -0.213519
v 0.464350 3.597514 -0.222106
v 0.517245 5.367778 -0.186933
v 0.026015 -0.000066 -0.217340
v 0.464505 1.766559 -0.222877
v 0.520791 0.182252 -0.198929
v 0.026685 9.329048 -0.220166
v 2.251813 0.000449 -0.227506
v 1.776959 0.180186 -0.194774
v 1.828599 1.767875 -0.223067
v 1.828982 3.598697 -0.222506
v 1.829710 5.440344 -0.222657
v 1.852003 7.274372 -0.220164
v 1.777170 6.946885 -0.189066
v 2.247913 7.267157 -0.239463
v 0.508441 7.332377 -0.185805
v 1.615740 7.915408 -0.191871
v 0.515246 8.830656 -0.196411
v 1.852437 8.408777 -0.234439
v 0.968231 9.138620 -0.246448
v 1.135913 8.565538 -0.220352
vt 0.992676 0.070312
vt 0.903809 0.067871
vt 0.994141 0.051270
vt 0.783691 0.068359
vt 0.740234 0.069824
vt 0.740234 0.056152
vt 0.895020 0.817505
vt 0.812012 0.809448
vt 0.902832 0.807373
vt 0.811035 0.783691
vt 0.811035 0.680176
vt 0.814453 0.692871
vt 0.904297 0.685303
vt 0.898926 0.785522
vt 0.896973 0.693115
vt 0.806152 0.443359
vt 0.808594 0.338379
vt 0.812988 0.435547
vt 0.895508 0.434570
vt 0.897461 0.336426
vt 0.902344 0.442383
vt 0.811523 0.679688
vt 0.807129 0.563721
vt 0.813965 0.571533
vt 0.904297 0.684814
vt 0.811523 0.680420
vt 0.897461 0.677490
vt 0.894531 0.817871
vt 0.823242 0.820190
vt 0.811523 0.809814
vt 0.404297 0.008789
vt 0.413818 0.028320
vt 0.398193 0.031250
vt 0.406250 0.044434
vt 0.346924 0.047363
vt 0.346924 0.033691
vt 0.100220 0.809937
vt 0.188721 0.804932
vt 0.182007 0.811646
vt 0.188721 0.804932
vt 0.187012 0.904724
vt 0.182007 0.811646
vt 0.186768 0.680176
vt 0.184448 0.783081
vt 0.178589 0.692871
vt 0.098267 0.784912
vt 0.093018 0.684326
vt 0.099976 0.692139
vt 0.184448 0.906616
vt 0.138794 0.897949
vt 0.109802 0.859009
vt 0.095032 0.441406
vt 0.100891 0.335938
vt 0.102112 0.433594
vt 0.189331 0.337891
vt 0.191772 0.442383
vt 0.184937 0.434570
vt 0.101868 0.449219
vt 0.096191 0.557617
vt 0.095032 0.440918
vt 0.190674 0.562744
vt 0.096436 0.558105
vt 0.183838 0.555176
vt 0.190674 0.562988
vt 0.186768 0.678955
vt 0.183716 0.570801
vt 0.099976 0.676514
vt 0.185913 0.680176
vt 0.092896 0.683838
vt 0.182617 0.695801
vt 0.107910 0.699463
vt 0.099976 0.692139
vt 0.178955 0.694824
vt 0.184570 0.782837
vt 0.174316 0.773804
vt 0.214355 0.946320
vt 0.219604 0.326172
vt 0.217529 0.938049
vt 0.403809 0.092285
vt 0.387207 0.072266
vt 0.405518 0.071777
vt 0.414062 0.074707
vt 0.404541 0.092285
vt 0.406494 0.071777
vt 0.891602 0.813965
vt 0.902832 0.807373
vt 0.893066 0.855835
vt 0.858887 0.898621
vt 0.813477 0.907593
vt 0.112610 0.858276
vt 0.099487 0.810303
vt 0.108276 0.822144
vt 0.174438 0.899109
vt 0.181641 0.909424
vt 0.141235 0.959351
vt 0.095154 0.927185
vt 0.067017 0.876221
vt 0.048553 0.776855
vt 0.041534 0.820923
vt 0.037231 0.768799
vt 0.086243 0.197266
vt 0.153320 0.115723
vt 0.153320 0.197266
vt 0.086243 0.115723
vt 0.147583 0.100098
vt 0.214966 0.009277
vt 0.214722 0.100098
vt 0.147827 0.009277
vt 0.075928 0.100586
vt 0.143066 0.009277
vt 0.143066 0.100586
vt 0.075928 0.009277
vt 0.235229 0.192383
vt 0.302246 0.115234
vt 0.302490 0.192383
vt 0.235229 0.115234
vt 0.083130 0.291016
vt 0.080994 0.209473
vt 0.135376 0.246582
vt 0.151733 0.204102
vt 0.740234 0.069824
vt 0.294922 0.067383
vt 0.294922 0.053711
vt 0.740234 0.056152
vt 0.895508 0.434570
vt 0.806152 0.442871
vt 0.812988 0.435547
vt 0.902344 0.441895
vt 0.807129 0.563965
vt 0.812988 0.450684
vt 0.813965 0.556152
vt 0.805664 0.443359
vt 0.805664 0.443848
vt 0.902344 0.442383
vt 0.812988 0.450684
vt 0.895508 0.450195
vt 0.902344 0.442383
vt 0.903809 0.563232
vt 0.895508 0.450195
vt 0.896973 0.555420
vt 0.896973 0.555420
vt 0.807129 0.563477
vt 0.813965 0.556152
vt 0.903809 0.562988
vt 0.807129 0.564209
vt 0.903809 0.563721
vt 0.813965 0.571533
vt 0.896973 0.571045
vt 0.903809 0.563232
vt 0.897461 0.677490
vt 0.896973 0.571045
vt 0.904297 0.685303
vt 0.811035 0.683838
vt 0.904297 0.685791
vt 0.814453 0.692871
vt 0.896973 0.693115
vt 0.813965 0.785889
vt 0.888184 0.775635
vt 0.898926 0.786255
vt 0.822754 0.774536
vt 0.810547 0.905273
vt 0.812012 0.809814
vt 0.823242 0.820190
vt 0.823730 0.898132
vt 0.895996 0.336426
vt 0.819824 0.347656
vt 0.808594 0.337402
vt 0.886230 0.347168
vt 0.812988 0.435547
vt 0.808594 0.337891
vt 0.819824 0.347656
vt 0.820312 0.427734
vt 0.895508 0.434570
vt 0.886230 0.347168
vt 0.897461 0.336426
vt 0.887207 0.426758
vt 0.895508 0.450195
vt 0.821289 0.458496
vt 0.812988 0.450684
vt 0.887695 0.458008
vt 0.812988 0.435547
vt 0.887207 0.426758
vt 0.895508 0.434570
vt 0.820312 0.427734
vt 0.812988 0.450684
vt 0.821777 0.547852
vt 0.813965 0.556152
vt 0.821289 0.458496
vt 0.895508 0.450195
vt 0.896973 0.555420
vt 0.888672 0.547852
vt 0.887695 0.458008
vt 0.896973 0.571045
vt 0.822266 0.579346
vt 0.813965 0.571533
vt 0.889160 0.579102
vt 0.813965 0.556152
vt 0.888672 0.547852
vt 0.896973 0.555420
vt 0.821777 0.547852
vt 0.811523 0.679443
vt 0.813965 0.571533
vt 0.822266 0.579346
vt 0.822266 0.669189
vt 0.897461 0.677490
vt 0.889160 0.579102
vt 0.896973 0.571045
vt 0.889160 0.669678
vt 0.896973 0.693115
vt 0.822754 0.700195
vt 0.814453 0.692871
vt 0.889648 0.700684
vt 0.812500 0.680176
vt 0.889160 0.669678
vt 0.897461 0.677490
vt 0.822266 0.669189
vt 0.811035 0.783569
vt 0.814453 0.692871
vt 0.822754 0.700195
vt 0.822754 0.774536
vt 0.898438 0.785278
vt 0.889648 0.700684
vt 0.896973 0.693115
vt 0.888184 0.775635
vt 0.945312 0.311523
vt 0.955566 0.311523
vt 0.955566 0.766602
vt 0.966797 0.769897
vt 0.996094 0.007812
vt 0.996094 0.027832
vt 0.403076 0.008789
vt 0.413330 0.028809
vt 0.011559 0.196777
vt 0.011475 0.115234
vt 0.078857 0.196289
vt 0.078735 0.115234
vt 0.222168 0.100098
vt 0.222168 0.009277
vt 0.289307 0.100098
vt 0.289307 0.009277
vt 0.004807 0.100586
vt 0.072083 0.009277
vt 0.072083 0.100586
vt 0.004807 0.009277
vt 0.229858 0.193359
vt 0.162476 0.116699
vt 0.234253 0.112305
vt 0.162476 0.193359
vt 0.070435 0.291016
vt 0.012611 0.244629
vt 0.071350 0.209473
vt 0.004257 0.209473
vt 0.346924 0.047363
vt 0.297119 0.046875
vt 0.346924 0.033691
vt 0.296875 0.025879
vt 0.996582 0.047852
vt 0.543457 0.047852
vt 0.538086 0.034180
vt 0.996582 0.034180
vt 0.184937 0.434570
vt 0.095459 0.440918
vt 0.102112 0.433594
vt 0.191772 0.441895
vt 0.095276 0.441406
vt 0.191650 0.442871
vt 0.101868 0.449219
vt 0.184692 0.450195
vt 0.190674 0.563232
vt 0.184692 0.450195
vt 0.191772 0.442383
vt 0.183838 0.555176
vt 0.093018 0.684326
vt 0.096191 0.557617
vt 0.099976 0.676514
vt 0.100464 0.570312
vt 0.095825 0.560547
vt 0.190552 0.563477
vt 0.100464 0.570312
vt 0.183716 0.570801
vt 0.092957 0.684814
vt 0.185913 0.682617
vt 0.099976 0.692139
vt 0.183105 0.693848
vt 0.100647 0.809937
vt 0.182007 0.811646
vt 0.174194 0.819336
vt 0.108276 0.822144
vt 0.182373 0.783936
vt 0.098328 0.785767
vt 0.109009 0.774658
vt 0.174316 0.773804
vt 0.186768 0.904419
vt 0.174194 0.819336
vt 0.182007 0.811646
vt 0.173950 0.897400
vt 0.187622 0.336426
vt 0.111389 0.346191
vt 0.101990 0.335449
vt 0.177856 0.347168
vt 0.102112 0.433594
vt 0.100525 0.335938
vt 0.111389 0.346191
vt 0.109985 0.425781
vt 0.184937 0.434570
vt 0.177856 0.347168
vt 0.188965 0.336914
vt 0.177002 0.426758
vt 0.184692 0.450195
vt 0.109863 0.457031
vt 0.101868 0.449219
vt 0.176758 0.458008
vt 0.184937 0.434570
vt 0.102112 0.433594
vt 0.109985 0.425781
vt 0.177002 0.426758
vt 0.101868 0.449219
vt 0.108704 0.546631
vt 0.096802 0.558105
vt 0.109863 0.457031
vt 0.184692 0.450195
vt 0.183838 0.555176
vt 0.175781 0.547363
vt 0.176758 0.458008
vt 0.183716 0.570801
vt 0.108521 0.578125
vt 0.100464 0.570312
vt 0.175659 0.578857
vt 0.183838 0.555176
vt 0.095947 0.558105
vt 0.108704 0.546631
vt 0.175781 0.547363
vt 0.099976 0.676514
vt 0.100464 0.570312
vt 0.108521 0.578125
vt 0.107971 0.668457
vt 0.186523 0.678711
vt 0.175659 0.578857
vt 0.183716 0.570801
vt 0.174805 0.668701
vt 0.184937 0.680176
vt 0.099976 0.676514
vt 0.107971 0.668457
vt 0.174805 0.668701
vt 0.098511 0.784790
vt 0.099976 0.692139
vt 0.107910 0.699463
vt 0.109009 0.774658
vt 0.037842 0.768799
vt 0.038300 0.322266
vt 0.049408 0.322266
vt 0.048981 0.776489
vt 0.996094 0.092773
vt 0.403809 0.092285
vt 0.996094 0.072266
vt 0.414062 0.074707
vt 0.887695 0.969559
vt 0.876465 0.956696
vt 0.915039 0.909668
vt 0.934570 0.897156
vt 0.945312 0.843262
vt 0.955566 0.844971
vt 0.955566 0.767090
vt 0.966797 0.769531
vt 0.928711 0.974899
vt 0.840332 0.988144
vt 0.920410 0.954071
vt 0.960449 0.913452
vt 0.998535 0.871704
vt 0.985352 0.840332
vt 0.998535 0.827515
vt 0.973145 0.382812
vt 0.986816 0.382324
vt 0.892578 0.857056
vt 0.815918 0.910400
vt 0.823242 0.899963
vt 0.875977 0.858765
vt 0.893555 0.817749
vt 0.028259 0.834106
vt 0.017120 0.388184
vt 0.030884 0.388184
vt 0.014442 0.841309
vt 0.036743 0.886475
vt 0.007526 0.849854
vt 0.071777 0.966766
vt 0.073730 0.935364
vt 0.119873 0.971970
vt 0.127808 0.988297
vt 0.176636 0.998159
vt 0.175415 0.979797
vt 0.092407 0.684570
vt 0.095276 0.441406
vt 0.096130 0.555908
vt 0.102112 0.335938
vt 0.070435 0.323730
vt 0.220581 0.325684
vt 0.067383 0.805420
vt 0.189331 0.336914
vt 0.191650 0.442383
vt 0.190552 0.563232
vt 0.099365 0.811401
vt 0.098633 0.785767
vt 0.183472 0.784058
vt 0.109070 0.859497
vt 0.104919 0.910828
vt 0.188599 0.805298
vt 0.139038 0.897461
vt 0.186279 0.679932
vt 0.216187 0.945404
vt 0.187256 0.905029
vt 0.812500 0.784180
vt 0.807129 0.563965
vt 0.808594 0.679443
vt 0.777344 0.326660
vt 0.806152 0.443359
vt 0.809082 0.337402
vt 0.780762 0.939331
vt 0.928223 0.324707
vt 0.897461 0.336426
vt 0.902344 0.442383
vt 0.903809 0.563232
vt 0.904297 0.685303
vt 0.903809 0.807739
vt 0.898438 0.786621
vt 0.930664 0.806763
vt 0.811523 0.809692
vt 0.892578 0.854858
vt 0.810547 0.905884
vt 0.906250 0.888611
vt 0.838379 0.930115
vt 0.858398 0.898132
vt1 0.831543 0.987038
vt1 0.834473 0.877747
vt1 0.855469 0.989021
vt1 0.834473 0.729980
vt1 0.832031 0.676270
vt1 0.849121 0.676270
vt1 0.591309 0.846436
vt1 0.488037 0.836548
vt1 0.600586 0.833984
vt1 0.487061 0.804688
vt1 0.487305 0.676270
vt1 0.491455 0.691895
vt1 0.602539 0.682617
vt1 0.596191 0.806885
vt1 0.593750 0.692383
vt1 0.480713 0.382812
vt1 0.483887 0.252930
vt1 0.489258 0.373047
vt1 0.591797 0.371582
vt1 0.594238 0.250488
vt1 0.600586 0.381836
vt1 0.487305 0.675537
vt1 0.481934 0.531982
vt1 0.490723 0.541748
vt1 0.602539 0.682129
vt1 0.487793 0.676758
vt1 0.594238 0.673096
vt1 0.590820 0.846924
vt1 0.501953 0.849854
vt1 0.487793 0.837036
vt1 0.904297 0.263184
vt1 0.879883 0.274902
vt1 0.875977 0.255859
vt1 0.786621 0.265137
vt1 0.782715 0.191895
vt1 0.799805 0.191895
vt1 0.274414 0.838745
vt1 0.384277 0.832642
vt1 0.375977 0.840820
vt1 0.384277 0.832642
vt1 0.382324 0.956268
vt1 0.375977 0.840820
vt1 0.382080 0.677979
vt1 0.379150 0.805542
vt1 0.371826 0.693848
vt1 0.271973 0.807861
vt1 0.265381 0.683105
vt1 0.274170 0.692871
vt1 0.379150 0.958588
vt1 0.322266 0.947815
vt1 0.286377 0.899597
vt1 0.268066 0.381836
vt1 0.275146 0.251465
vt1 0.276611 0.372559
vt1 0.385254 0.253906
vt1 0.388184 0.383301
vt1 0.379639 0.373535
vt1 0.276367 0.391602
vt1 0.269531 0.526367
vt1 0.268066 0.381836
vt1 0.386963 0.532471
vt1 0.269775 0.526611
vt1 0.378418 0.523193
vt1 0.386963 0.532959
vt1 0.382080 0.676514
vt1 0.378174 0.542480
vt1 0.274170 0.673584
vt1 0.380859 0.678223
vt1 0.265381 0.682617
vt1 0.376953 0.697510
vt1 0.283936 0.701904
vt1 0.274170 0.692871
vt1 0.372314 0.696289
vt1 0.379395 0.805298
vt1 0.366699 0.794067
vt1 0.416260 1.007809
vt1 0.422852 0.239258
vt1 0.420410 0.997541
vt1 0.927734 0.262695
vt1 0.952148 0.242188
vt1 0.953125 0.265137
vt1 0.949707 0.275391
vt1 0.927734 0.263672
vt1 0.953125 0.266113
vt1 0.586914 0.842163
vt1 0.600586 0.833984
vt1 0.588867 0.893982
vt1 0.546387 0.947021
vt1 0.489746 0.958130
vt1 0.289795 0.898682
vt1 0.273438 0.839233
vt1 0.284424 0.854004
vt1 0.366699 0.949310
vt1 0.375488 0.962036
vt1 0.630859 0.982285
vt1 0.687500 0.942627
vt1 0.722168 0.879822
vt1 0.745117 0.757324
vt1 0.753418 0.811646
vt1 0.758789 0.747559
vt1 0.120911 0.185547
vt1 0.203491 0.085449
vt1 0.203491 0.185547
vt1 0.120972 0.085449
vt1 0.056671 0.538086
vt1 0.168213 0.621094
vt1 0.056427 0.620850
vt1 0.168457 0.538330
vt1 0.056427 0.651367
vt1 0.168823 0.733887
vt1 0.056427 0.733887
vt1 0.168823 0.651367
vt1 0.443359 0.217773
vt1 0.525879 0.123535
vt1 0.525879 0.217773
vt1 0.443359 0.123535
vt1 0.059052 0.293945
vt1 0.056427 0.394043
vt1 0.123413 0.348633
vt1 0.143555 0.400879
vt1 0.832031 0.676270
vt1 0.835449 0.127930
vt1 0.852539 0.127930
vt1 0.849121 0.676270
vt1 0.591797 0.371582
vt1 0.480713 0.382324
vt1 0.489258 0.373047
vt1 0.600586 0.380859
vt1 0.481934 0.532227
vt1 0.489258 0.392090
vt1 0.490479 0.522705
vt1 0.480713 0.382812
vt1 0.480713 0.383301
vt1 0.600586 0.381836
vt1 0.489258 0.392090
vt1 0.592285 0.391113
vt1 0.600586 0.381348
vt1 0.602539 0.531494
vt1 0.592285 0.391113
vt1 0.593750 0.521973
vt1 0.593750 0.521973
vt1 0.482178 0.531738
vt1 0.490479 0.522705
vt1 0.602539 0.531006
vt1 0.481934 0.532715
vt1 0.602051 0.531982
vt1 0.490723 0.541748
vt1 0.593750 0.541016
vt1 0.602539 0.531494
vt1 0.594238 0.673096
vt1 0.593750 0.541016
vt1 0.602539 0.682861
vt1 0.487305 0.681152
vt1 0.602539 0.683105
vt1 0.491455 0.691895
vt1 0.593750 0.692383
vt1 0.490723 0.807373
vt1 0.582520 0.794556
vt1 0.596191 0.807739
vt1 0.501465 0.793213
vt1 0.486572 0.955261
vt1 0.488525 0.836914
vt1 0.501953 0.849854
vt1 0.502441 0.946411
vt1 0.592285 0.250000
vt1 0.498291 0.264648
vt1 0.484131 0.251465
vt1 0.580566 0.263672
vt1 0.489258 0.373047
vt1 0.483887 0.251953
vt1 0.498291 0.264648
vt1 0.498779 0.363281
vt1 0.591797 0.371582
vt1 0.580566 0.263672
vt1 0.594238 0.250000
vt1 0.582031 0.362793
vt1 0.592285 0.391113
vt1 0.499512 0.401855
vt1 0.489258 0.392090
vt1 0.582520 0.401367
vt1 0.489258 0.373047
vt1 0.582031 0.362793
vt1 0.591797 0.371582
vt1 0.498779 0.363281
vt1 0.489258 0.392090
vt1 0.500000 0.512451
vt1 0.490479 0.522705
vt1 0.499512 0.401855
vt1 0.592285 0.391113
vt1 0.593750 0.521973
vt1 0.583496 0.512207
vt1 0.582520 0.401367
vt1 0.593750 0.541016
vt1 0.500488 0.551270
vt1 0.490723 0.541748
vt1 0.583984 0.551270
vt1 0.490479 0.522705
vt1 0.583496 0.512207
vt1 0.593750 0.521973
vt1 0.500000 0.512451
vt1 0.487549 0.675537
vt1 0.490723 0.541748
vt1 0.500488 0.551270
vt1 0.500977 0.662842
vt1 0.594238 0.673096
vt1 0.583984 0.551270
vt1 0.593750 0.541016
vt1 0.583984 0.663330
vt1 0.593750 0.692383
vt1 0.500977 0.701172
vt1 0.491455 0.691895
vt1 0.584473 0.701660
vt1 0.489014 0.676514
vt1 0.583984 0.663330
vt1 0.594238 0.673096
vt1 0.500977 0.662842
vt1 0.487061 0.804443
vt1 0.491455 0.691895
vt1 0.500977 0.701172
vt1 0.501465 0.793213
vt1 0.595703 0.806519
vt1 0.584473 0.701660
vt1 0.593750 0.692383
vt1 0.582520 0.794556
vt1 0.661621 0.845825
vt1 0.674805 0.846069
vt1 0.674805 0.285156
vt1 0.688965 0.280762
vt1 0.905273 0.991936
vt1 0.880371 0.991966
vt1 0.903809 0.261719
vt1 0.879395 0.274414
vt1 0.008163 0.169434
vt1 0.008064 0.069336
vt1 0.091003 0.169434
vt1 0.090881 0.069336
vt1 0.056427 0.425293
vt1 0.168213 0.425293
vt1 0.056427 0.508301
vt1 0.168213 0.508301
vt1 0.056427 0.764038
vt1 0.168823 0.846802
vt1 0.056427 0.846802
vt1 0.168823 0.764038
vt1 0.413330 0.217773
vt1 0.330566 0.123535
vt1 0.418945 0.118652
vt1 0.330566 0.217773
vt1 0.299072 0.117676
vt1 0.227905 0.174805
vt1 0.300293 0.217773
vt1 0.217651 0.217773
vt1 0.782715 0.191895
vt1 0.783203 0.130859
vt1 0.799805 0.191895
vt1 0.809082 0.130371
vt1 0.782227 0.991898
vt1 0.782227 0.434082
vt1 0.798828 0.427734
vt1 0.798828 0.991936
vt1 0.379639 0.373535
vt1 0.268555 0.381836
vt1 0.276611 0.372559
vt1 0.388184 0.382812
vt1 0.268311 0.382324
vt1 0.388184 0.383789
vt1 0.276367 0.391602
vt1 0.379395 0.393066
vt1 0.386963 0.533203
vt1 0.379395 0.393066
vt1 0.388184 0.383301
vt1 0.378418 0.523193
vt1 0.265381 0.683350
vt1 0.269287 0.526123
vt1 0.274170 0.673584
vt1 0.274658 0.541748
vt1 0.269043 0.530029
vt1 0.386719 0.533447
vt1 0.274658 0.541748
vt1 0.378174 0.542480
vt1 0.265381 0.683594
vt1 0.380859 0.681152
vt1 0.274170 0.692871
vt1 0.377441 0.694824
vt1 0.274902 0.838745
vt1 0.375977 0.840820
vt1 0.366455 0.850464
vt1 0.284424 0.854004
vt1 0.376465 0.806641
vt1 0.271973 0.808960
vt1 0.285400 0.795166
vt1 0.366699 0.794067
vt1 0.381836 0.955841
vt1 0.366455 0.850464
vt1 0.375977 0.840820
vt1 0.365967 0.947144
vt1 0.383057 0.251953
vt1 0.288330 0.264160
vt1 0.276611 0.250488
vt1 0.370850 0.265625
vt1 0.276611 0.372559
vt1 0.274658 0.251465
vt1 0.288330 0.264160
vt1 0.286621 0.362793
vt1 0.379639 0.373535
vt1 0.370850 0.265625
vt1 0.384766 0.252441
vt1 0.369873 0.364258
vt1 0.379395 0.393066
vt1 0.286377 0.401367
vt1 0.276367 0.391602
vt1 0.369629 0.402832
vt1 0.379639 0.373535
vt1 0.276611 0.372559
vt1 0.286621 0.362793
vt1 0.369873 0.364258
vt1 0.276367 0.391602
vt1 0.284912 0.512451
vt1 0.270264 0.526611
vt1 0.286377 0.401367
vt1 0.379395 0.393066
vt1 0.378418 0.523193
vt1 0.368408 0.513428
vt1 0.369629 0.402832
vt1 0.378174 0.542480
vt1 0.284668 0.551514
vt1 0.274658 0.541748
vt1 0.368164 0.552490
vt1 0.378418 0.523193
vt1 0.269043 0.526611
vt1 0.284912 0.512451
vt1 0.368408 0.513428
vt1 0.274170 0.673584
vt1 0.274658 0.541748
vt1 0.284668 0.551514
vt1 0.284180 0.663574
vt1 0.381592 0.676025
vt1 0.368164 0.552490
vt1 0.378174 0.542480
vt1 0.367188 0.663818
vt1 0.379639 0.677979
vt1 0.274170 0.673584
vt1 0.284180 0.663574
vt1 0.367188 0.663818
vt1 0.272217 0.807617
vt1 0.274170 0.692871
vt1 0.283936 0.701904
vt1 0.285400 0.795166
vt1 0.758301 0.747559
vt1 0.757324 0.197266
vt1 0.743652 0.196777
vt1 0.744141 0.756836
vt1 0.927246 0.991943
vt1 0.928223 0.262695
vt1 0.952148 0.991966
vt1 0.949707 0.275391
vt1 0.591309 0.034668
vt1 0.577148 0.050781
vt1 0.625000 0.108398
vt1 0.648926 0.124023
vt1 0.662109 0.190430
vt1 0.674805 0.188477
vt1 0.674316 0.284180
vt1 0.688477 0.281250
vt1 0.120178 0.214355
vt1 0.011169 0.197754
vt1 0.109680 0.239746
vt1 0.159546 0.290039
vt1 0.206299 0.341309
vt1 0.190063 0.379883
vt1 0.206299 0.395996
vt1 0.174927 0.942963
vt1 0.191772 0.943573
vt1 0.587891 0.895447
vt1 0.493408 0.961609
vt1 0.501953 0.948700
vt1 0.567871 0.897583
vt1 0.589355 0.846802
vt1 0.025055 0.791870
vt1 0.011330 0.242676
vt1 0.028275 0.243164
vt1 0.008034 0.800781
vt1 0.035492 0.856445
vt1 -0.000483 0.811279
vt1 0.078613 0.955231
vt1 0.081055 0.916565
vt1 0.137817 0.961609
vt1 0.147583 0.981705
vt1 0.207642 0.993843
vt1 0.206177 0.971252
vt1 0.264648 0.683594
vt1 0.268311 0.381836
vt1 0.269287 0.523926
vt1 0.276855 0.250977
vt1 0.237427 0.236328
vt1 0.424072 0.238770
vt1 0.233643 0.833252
vt1 0.385254 0.252441
vt1 0.388184 0.383301
vt1 0.386719 0.532959
vt1 0.273438 0.840576
vt1 0.272461 0.808960
vt1 0.377930 0.806763
vt1 0.285400 0.900208
vt1 0.280273 0.963806
vt1 0.384277 0.833008
vt1 0.322754 0.947266
vt1 0.381348 0.677734
vt1 0.418701 1.006657
vt1 0.382568 0.956604
vt1 0.488770 0.805298
vt1 0.482178 0.532227
vt1 0.483887 0.675537
vt1 0.445312 0.238281
vt1 0.480713 0.382812
vt1 0.484619 0.251953
vt1 0.449219 0.997469
vt1 0.632812 0.235840
vt1 0.594238 0.250488
vt1 0.600586 0.381348
vt1 0.602051 0.531494
vt1 0.602539 0.682861
vt1 0.602051 0.834351
vt1 0.595215 0.808350
vt1 0.635254 0.833130
vt1 0.487549 0.836792
vt1 0.587891 0.892761
vt1 0.486572 0.956024
vt1 0.605469 0.934692
vt1 0.520996 0.986046
vt1 0.545898 0.946442
vn 0.086614 1.000000 -0.000000
vn 0.354331 0.937008 -0.000000
vn 0.070866 1.000000 -0.000000
vn 0.992126 0.086614 -0.000000
vn 0.992126 0.086614 -0.000000
vn 0.992126 0.086614 -0.000000
vn 0.000000 0.708661 -0.708661
vn 0.000000 0.708661 -0.708661
vn 0.000000 0.708661 -0.708661
vn 0.708661 -0.000000 -0.708661
vn 0.708661 -0.000000 -0.708661
vn 0.708661 -0.000000 -0.708661
vn -0.708661 -0.000000 -0.708661
vn -0.708661 -0.000000 -0.708661
vn -0.708661 -0.000000 -0.708661
vn 0.708661 -0.000000 -0.708661
vn 0.708661 -0.000000 -0.708661
vn 0.708661 -0.000000 -0.708661
vn -0.708661 -0.000000 -0.708661
vn -0.708661 -0.000000 -0.708661
vn -0.708661 -0.000000 -0.708661
vn 0.708661 -0.000000 -0.708661
vn 0.708661 -0.000000 -0.708661
vn 0.708661 -0.000000 -0.708661
vn 0.000000 -0.708661 -0.708661
vn 0.000000 -0.708661 -0.708661
vn 0.000000 -0.708661 -0.708661
vn 0.000000 0.881890 -0.480315
vn 0.000000 0.881890 -0.480315
vn 0.000000 0.881890 -0.480315
vn -1.000000 0.023622 -0.070866
vn -1.000000 -0.023622 -0.070866
vn -1.000000 0.039370 -0.070866
vn -0.385827 0.921260 -0.000000
vn -0.385827 0.921260 -0.000000
vn -0.385827 0.921260 -0.000000
vn 0.000000 0.708661 -0.708661
vn 0.000000 0.708661 -0.708661
vn 0.000000 0.708661 -0.708661
vn -0.708661 -0.000000 -0.708661
vn -0.708661 -0.000000 -0.708661
vn -0.708661 -0.000000 -0.708661
vn -0.708661 -0.000000 -0.708661
vn -0.708661 -0.000000 -0.708661
vn -0.708661 -0.000000 -0.708661
vn 0.708661 -0.000000 -0.708661
vn 0.708661 -0.000000 -0.708661
vn 0.708661 -0.000000 -0.708661
vn 0.251969 -0.669291 -0.700787
vn 0.409449 -0.574803 -0.708661
vn 0.614173 -0.346457 -0.708661
vn 0.708661 -0.000000 -0.708661
vn 0.708661 -0.000000 -0.708661
vn 0.708661 -0.000000 -0.708661
vn -0.708661 -0.000000 -0.708661
vn -0.708661 -0.000000 -0.708661
vn -0.708661 -0.000000 -0.708661
vn 0.708661 -0.000000 -0.708661
vn 0.708661 -0.000000 -0.708661
vn 0.708661 -0.000000 -0.708661
vn 0.000000 -0.708661 -0.708661
vn 0.000000 -0.708661 -0.708661
vn 0.000000 -0.708661 -0.708661
vn -0.708661 -0.000000 -0.708661
vn -0.708661 -0.000000 -0.708661
vn -0.708661 -0.000000 -0.708661
vn 0.000000 -0.708661 -0.708661
vn 0.000000 -0.708661 -0.708661
vn 0.000000 -0.708661 -0.708661
vn 0.000000 0.881890 -0.464567
vn 0.000000 0.881890 -0.464567
vn 0.000000 0.881890 -0.464567
vn -0.905512 -0.000000 -0.417323
vn -0.905512 -0.000000 -0.417323
vn -0.905512 -0.000000 -0.417323
vn 0.685039 -0.000000 -0.732283
vn 0.685039 -0.000000 -0.732283
vn 0.685039 -0.000000 -0.732283
vn 1.000000 0.007874 -0.070866
vn 1.000000 0.007874 -0.070866
vn 1.000000 0.007874 -0.070866
vn 0.992126 -0.078740 -0.070866
vn 1.000000 0.031496 -0.070866
vn 1.000000 0.015748 -0.070866
vn -0.692913 -0.157480 -0.708661
vn -0.685039 -0.165354 -0.708661
vn -0.637795 -0.314961 -0.700787
vn -0.409449 -0.574803 -0.708661
vn -0.251969 -0.669291 -0.700787
vn 0.858268 -0.488189 -0.173228
vn 0.929134 -0.236220 -0.283464
vn 0.929134 -0.228346 -0.283464
vn 0.346457 -0.905512 -0.251968
vn 0.299213 -0.913386 -0.291338
vn 0.000000 -0.000000 -1.000000
vn 0.000000 -0.000000 -1.000000
vn 0.000000 -0.000000 -1.000000
vn 0.000000 -0.000000 -1.000000
vn 0.000000 -0.000000 -1.000000
vn 0.000000 -0.000000 -1.000000
vn 0.000000 -0.000000 -1.000000
vn 0.000000 -0.000000 -1.000000
vn 0.000000 -0.000000 -1.000000
vn 0.000000 -0.000000 -1.000000
vn 0.000000 -0.000000 -1.000000
vn 0.000000 -0.000000 -1.000000
vn 0.000000 -0.000000 -1.000000
vn 0.000000 -0.000000 -1.000000
vn 0.000000 -0.000000 -1.000000
vn 0.000000 -0.000000 -1.000000
vn 0.000000 -0.000000 -1.000000
vn 0.000000 -0.000000 -1.000000
vn 0.000000 -0.000000 -1.000000
vn 0.000000 -0.000000 -1.000000
vn 0.000000 -0.000000 -1.000000
vn 0.000000 -0.000000 -1.000000
vn 0.000000 -0.000000 -1.000000
vn 0.000000 -0.000000 -1.000000
vn 0.000000 -0.000000 -1.000000
vn 0.000000 -0.000000 -1.000000
vn 1.000000 0.000000 0.000000
vn 1.000000 0.000000 0.000000
vn 1.000000 0.000000 0.000000
vn 1.000000 0.000000 0.000000
vn 0.000000 -0.708661 -0.708661
vn 0.000000 -0.708661 -0.708661
vn 0.000000 -0.708661 -0.708661
vn 0.000000 -0.708661 -0.708661
vn 0.708661 -0.000000 -0.708661
vn 0.708661 -0.000000 -0.708661
vn 0.708661 -0.000000 -0.708661
vn 0.708661 -0.000000 -0.708661
vn 0.000000 0.708661 -0.708661
vn 0.000000 0.708661 -0.708661
vn 0.000000 0.708661 -0.708661
vn 0.000000 0.708661 -0.708661
vn -0.708661 -0.000000 -0.708661
vn -0.708661 -0.000000 -0.708661
vn -0.708661 -0.000000 -0.708661
vn -0.708661 -0.000000 -0.708661
vn 0.000000 -0.708661 -0.708661
vn 0.000000 -0.708661 -0.708661
vn 0.000000 -0.708661 -0.708661
vn 0.000000 -0.708661 -0.708661
vn 0.000000 0.708661 -0.708661
vn 0.000000 0.708661 -0.708661
vn 0.000000 0.708661 -0.708661
vn 0.000000 0.708661 -0.708661
vn -0.708661 -0.000000 -0.708661
vn -0.708661 -0.000000 -0.708661
vn -0.708661 -0.000000 -0.708661
vn -0.708661 -0.000000 -0.708661
vn 0.000000 0.708661 -0.708661
vn 0.000000 0.708661 -0.708661
vn 0.000000 0.708661 -0.708661
vn 0.000000 0.708661 -0.708661
vn 0.000000 -0.881890 -0.464567
vn 0.000000 -0.881890 -0.464567
vn 0.000000 -0.881890 -0.464567
vn 0.000000 -0.881890 -0.464567
vn 0.897638 -0.000000 -0.440945
vn 0.897638 -0.000000 -0.440945
vn 0.897638 -0.000000 -0.440945
vn 0.897638 -0.000000 -0.440945
vn 0.000000 0.874016 -0.488189
vn 0.000000 0.874016 -0.488189
vn 0.000000 0.874016 -0.488189
vn 0.000000 0.874016 -0.488189
vn 0.905512 -0.000000 -0.417323
vn 0.905512 -0.000000 -0.417323
vn 0.905512 -0.000000 -0.417323
vn 0.905512 -0.000000 -0.417323
vn -0.905512 -0.000000 -0.417323
vn -0.905512 -0.000000 -0.417323
vn -0.905512 -0.000000 -0.417323
vn -0.905512 -0.000000 -0.417323
vn 0.000000 0.850394 -0.527559
vn 0.000000 0.850394 -0.527559
vn 0.000000 0.850394 -0.527559
vn 0.000000 0.850394 -0.527559
vn 0.000000 -0.874016 -0.488189
vn 0.000000 -0.874016 -0.488189
vn 0.000000 -0.874016 -0.488189
vn 0.000000 -0.874016 -0.488189
vn 0.905512 -0.000000 -0.417323
vn 0.905512 -0.000000 -0.417323
vn 0.905512 -0.000000 -0.417323
vn 0.905512 -0.000000 -0.417323
vn -0.905512 -0.000000 -0.417323
vn -0.905512 -0.000000 -0.417323
vn -0.905512 -0.000000 -0.417323
vn -0.905512 -0.000000 -0.417323
vn 0.000000 0.850394 -0.527559
vn 0.000000 0.850394 -0.527559
vn 0.000000 0.850394 -0.527559
vn 0.000000 0.850394 -0.527559
vn 0.000000 -0.850394 -0.527559
vn 0.000000 -0.850394 -0.527559
vn 0.000000 -0.850394 -0.527559
vn 0.000000 -0.850394 -0.527559
vn 0.905512 -0.000000 -0.417323
vn 0.905512 -0.000000 -0.417323
vn 0.905512 -0.000000 -0.417323
vn 0.905512 -0.000000 -0.417323
vn -0.905512 -0.000000 -0.417323
vn -0.905512 -0.000000 -0.417323
vn -0.905512 -0.000000 -0.417323
vn -0.905512 -0.000000 -0.417323
vn 0.000000 0.881890 -0.464567
vn 0.000000 0.881890 -0.464567
vn 0.000000 0.881890 -0.464567
vn 0.000000 0.881890 -0.464567
vn 0.000000 -0.850394 -0.527559
vn 0.000000 -0.850394 -0.527559
vn 0.000000 -0.850394 -0.527559
vn 0.000000 -0.850394 -0.527559
vn 0.905512 -0.000000 -0.417323
vn 0.905512 -0.000000 -0.417323
vn 0.905512 -0.000000 -0.417323
vn 0.905512 -0.000000 -0.417323
vn -0.905512 -0.000000 -0.417323
vn -0.905512 -0.000000 -0.417323
vn -0.905512 -0.000000 -0.417323
vn -0.905512 -0.000000 -0.417323
vn 0.000000 -0.000000 -1.000000
vn 0.000000 -0.000000 -1.000000
vn 0.000000 -0.000000 -1.000000
vn 0.000000 -0.000000 -1.000000
vn -1.000000 -0.000000 -0.070866
vn -1.000000 -0.000000 -0.070866
vn -1.000000 -0.000000 -0.070866
vn -1.000000 -0.000000 -0.070866
vn 0.000000 -0.000000 -1.000000
vn 0.000000 -0.000000 -1.000000
vn 0.000000 -0.000000 -1.000000
vn 0.000000 -0.000000 -1.000000
vn 0.000000 -0.000000 -1.000000
vn 0.000000 -0.000000 -1.000000
vn 0.000000 -0.000000 -1.000000
vn 0.000000 -0.000000 -1.000000
vn 0.000000 -0.000000 -1.000000
vn 0.000000 -0.000000 -1.000000
vn 0.000000 -0.000000 -1.000000
vn 0.000000 -0.000000 -1.000000
vn 0.000000 -0.000000 -1.000000
vn 0.000000 -0.000000 -1.000000
vn 0.000000 -0.000000 -1.000000
vn 0.000000 -0.000000 -1.000000
vn 0.000000 -0.000000 -1.000000
vn 0.000000 -0.000000 -1.000000
vn 0.000000 -0.000000 -1.000000
vn 0.000000 -0.000000 -1.000000
vn -0.236220 0.968504 -0.000000
vn -0.078740 1.000000 -0.000000
vn -0.244094 0.968504 -0.000000
vn -0.062992 1.000000 -0.000000
vn -1.000000 0.000000 0.000000
vn -1.000000 0.000000 0.000000
vn -1.000000 0.000000 0.000000
vn -1.000000 0.000000 0.000000
vn 0.000000 -0.708661 -0.708661
vn 0.000000 -0.708661 -0.708661
vn 0.000000 -0.708661 -0.708661
vn 0.000000 -0.708661 -0.708661
vn 0.000000 0.708661 -0.708661
vn 0.000000 0.708661 -0.708661
vn 0.000000 0.708661 -0.708661
vn 0.000000 0.708661 -0.708661
vn -0.708661 -0.000000 -0.708661
vn -0.708661 -0.000000 -0.708661
vn -0.708661 -0.000000 -0.708661
vn -0.708661 -0.000000 -0.708661
vn 0.708661 -0.000000 -0.708661
vn 0.708661 -0.000000 -0.708661
vn 0.708661 -0.000000 -0.708661
vn 0.708661 -0.000000 -0.708661
vn 0.000000 0.708661 -0.708661
vn 0.000000 0.708661 -0.708661
vn 0.000000 0.708661 -0.708661
vn 0.000000 0.708661 -0.708661
vn 0.000000 0.708661 -0.708661
vn 0.000000 0.708661 -0.708661
vn 0.000000 0.708661 -0.708661
vn 0.000000 0.708661 -0.708661
vn 0.000000 0.881890 -0.480315
vn 0.000000 0.881890 -0.480315
vn 0.000000 0.881890 -0.480315
vn 0.000000 0.881890 -0.480315
vn 0.000000 -0.881890 -0.464567
vn 0.000000 -0.881890 -0.464567
vn 0.000000 -0.881890 -0.464567
vn 0.000000 -0.881890 -0.464567
vn -0.897638 -0.000000 -0.440945
vn -0.897638 -0.000000 -0.440945
vn -0.897638 -0.000000 -0.440945
vn -0.897638 -0.000000 -0.440945
vn 0.000000 0.874016 -0.488189
vn 0.000000 0.874016 -0.488189
vn 0.000000 0.874016 -0.488189
vn 0.000000 0.874016 -0.488189
vn 0.905512 -0.000000 -0.417323
vn 0.905512 -0.000000 -0.417323
vn 0.905512 -0.000000 -0.417323
vn 0.905512 -0.000000 -0.417323
vn -0.905512 -0.000000 -0.417323
vn -0.905512 -0.000000 -0.417323
vn -0.905512 -0.000000 -0.417323
vn -0.905512 -0.000000 -0.417323
vn 0.000000 0.850394 -0.527559
vn 0.000000 0.850394 -0.527559
vn 0.000000 0.850394 -0.527559
vn 0.000000 0.850394 -0.527559
vn 0.000000 -0.874016 -0.488189
vn 0.000000 -0.874016 -0.488189
vn 0.000000 -0.874016 -0.488189
vn 0.000000 -0.874016 -0.488189
vn 0.905512 -0.000000 -0.417323
vn 0.905512 -0.000000 -0.417323
vn 0.905512 -0.000000 -0.417323
vn 0.905512 -0.000000 -0.417323
vn -0.905512 -0.000000 -0.417323
vn -0.905512 -0.000000 -0.417323
vn -0.905512 -0.000000 -0.417323
vn -0.905512 -0.000000 -0.417323
vn 0.000000 0.850394 -0.527559
vn 0.000000 0.850394 -0.527559
vn 0.000000 0.850394 -0.527559
vn 0.000000 0.850394 -0.527559
vn 0.000000 -0.850394 -0.527559
vn 0.000000 -0.850394 -0.527559
vn 0.000000 -0.850394 -0.527559
vn 0.000000 -0.850394 -0.527559
vn 0.905512 -0.000000 -0.417323
vn 0.905512 -0.000000 -0.417323
vn 0.905512 -0.000000 -0.417323
vn 0.905512 -0.000000 -0.417323
vn -0.905512 -0.000000 -0.417323
vn -0.905512 -0.000000 -0.417323
vn -0.905512 -0.000000 -0.417323
vn -0.905512 -0.000000 -0.417323
vn 0.000000 -0.850394 -0.527559
vn 0.000000 -0.850394 -0.527559
vn 0.000000 -0.850394 -0.527559
vn 0.000000 -0.850394 -0.527559
vn 0.905512 -0.000000 -0.417323
vn 0.905512 -0.000000 -0.417323
vn 0.905512 -0.000000 -0.417323
vn 0.905512 -0.000000 -0.417323
vn 0.000000 -0.000000 -1.000000
vn 0.000000 -0.000000 -1.000000
vn 0.000000 -0.000000 -1.000000
vn 0.000000 -0.000000 -1.000000
vn 1.000000 -0.000000 -0.070866
vn 1.000000 -0.000000 -0.070866
vn 1.000000 -0.000000 -0.070866
vn 1.000000 -0.000000 -0.070866
vn 0.000000 -0.000000 -1.000000
vn 0.000000 -0.000000 -1.000000
vn 0.000000 -0.000000 -1.000000
vn 0.000000 -0.000000 -1.000000
vn 0.000000 -0.000000 -1.000000
vn 0.000000 -0.000000 -1.000000
vn 0.000000 -0.000000 -1.000000
vn 0.000000 -0.000000 -1.000000
vn 0.000000 -0.000000 -1.000000
vn 0.000000 -0.000000 -1.000000
vn 0.000000 -0.000000 -1.000000
vn 0.000000 -0.000000 -1.000000
vn 0.000000 -0.000000 -1.000000
vn 0.000000 -0.000000 -1.000000
vn 0.000000 -0.000000 -1.000000
vn 0.000000 -0.000000 -1.000000
vn 0.000000 -0.000000 -1.000000
vn -0.881890 -0.440945 -0.173228
vn -0.299213 -0.905512 -0.291338
vn -0.346457 -0.905512 -0.251968
vn -0.834646 -0.527559 -0.173228
vn -0.937008 -0.196850 -0.283464
vn 0.000000 -0.000000 -1.000000
vn 0.000000 -0.000000 -1.000000
vn 0.000000 -0.000000 -1.000000
vn 0.000000 -0.000000 -1.000000
vn 0.000000 -0.000000 -1.000000
vn 0.000000 -0.000000 -1.000000
vn 0.000000 -0.000000 -1.000000
vn 0.000000 -0.000000 -1.000000
vn 0.000000 -0.000000 -1.000000
vn 0.000000 -0.000000 -1.000000
vn 0.000000 -0.000000 -1.000000
vn 0.000000 -0.000000 -1.000000
vn 0.000000 -0.000000 -1.000000
vn 0.000000 -0.000000 -1.000000
vn 0.000000 -0.000000 -1.000000
vn 0.000000 -0.000000 -1.000000
vn 0.000000 -0.000000 -1.000000
vn 0.000000 -0.000000 -1.000000
vn 0.000000 -0.000000 -1.000000
vn 0.000000 -0.000000 -1.000000
vn 0.000000 -0.000000 -1.000000
vn 0.000000 -0.000000 -1.000000
vn 0.000000 -0.000000 -1.000000
vn 0.000000 -0.000000 -1.000000
vn 0.000000 -0.000000 -1.000000
vn 0.000000 -0.000000 -1.000000
vn 0.000000 -0.000000 -1.000000
vn 0.000000 -0.000000 -1.000000
vn 0.000000 -0.000000 -1.000000
vn 0.000000 -0.000000 -1.000000
vn 0.000000 -0.000000 -1.000000
vn 0.000000 -0.000000 -1.000000
vn 0.000000 -0.000000 -1.000000
vn 0.000000 -0.000000 -1.000000
vn 0.000000 -0.000000 -1.000000
vn 0.000000 -0.000000 -1.000000
vn 0.000000 -0.000000 -1.000000
vn 0.000000 -0.000000 -1.000000
vn 0.000000 -0.000000 -1.000000
vn 0.000000 -0.000000 -1.000000
vn 0.000000 -0.000000 -1.000000
vn 0.000000 -0.000000 -1.000000
vn 0.000000 -0.000000 -1.000000
vn 0.000000 -0.000000 -1.000000
vn 0.000000 -0.000000 -1.000000
vn 0.000000 -0.000000 -1.000000
vn 0.000000 -0.000000 -1.000000
vn 0.000000 -0.000000 -1.000000
vn 0.000000 -0.000000 -1.000000
vn 0.000000 -0.000000 -1.000000
vn 0.000000 -0.000000 -1.000000
vn 0.000000 -0.000000 -1.000000
vn 0.000000 -0.000000 -1.000000
tan 0.007874 -0.000682 1.000000 1.000000
tan 0.007378 -0.002790 0.937008 1.000000
tan 0.007874 -0.000558 1.000000 1.000000
tan 0.000682 -0.007812 0.992126 1.000000
tan 0.000682 -0.007812 0.992126 1.000000
tan 0.000682 -0.007812 0.992126 1.000000
tan 0.000000 -0.708661 -0.708661 1.000000
tan -0.011160 -0.708661 -0.708661 1.000000
tan 0.000000 -0.708661 -0.708661 1.000000
tan 0.340381 -0.881642 0.340381 1.000000
tan -0.396181 -0.837002 -0.396181 1.000000
tan -0.189720 -0.959762 -0.189720 1.000000
tan 0.284581 -0.915122 -0.284580 1.000000
tan -0.318061 -0.892802 0.318061 1.000000
tan 0.172980 -0.970922 -0.172980 1.000000
tan 0.329221 -0.881642 0.329221 1.000000
tan -0.273421 -0.926282 -0.273420 1.000000
tan 0.206460 -0.959762 0.206461 1.000000
tan -0.156240 -0.982082 0.156240 1.000000
tan 0.345961 -0.870482 -0.345961 1.000000
tan -0.312481 -0.892802 0.312481 1.000000
tan 0.351541 -0.870482 0.351541 1.000000
tan -0.312481 -0.903962 -0.312480 1.000000
tan -0.189720 -0.970922 -0.189720 1.000000
tan 0.000000 -0.708661 0.708661 1.000000
tan 0.000000 -0.708661 0.708661 1.000000
tan 0.000000 -0.708661 0.708661 1.000000
tan -0.020832 -0.480315 -0.881890 1.000000
tan -0.020832 -0.480315 -0.881890 1.000000
tan -0.013888 -0.480315 -0.881890 1.000000
tan -0.070866 0.000000 1.000000 1.000000
tan -0.070866 0.000000 1.000000 1.000000
tan -0.070866 0.000000 1.000000 1.000000
tan 0.000000 0.000000 0.921260 1.000000
tan 0.000000 0.000000 0.948602 1.000000
tan 0.000000 0.000000 0.927336 1.000000
tan 0.000000 -0.708661 -0.708661 1.000000
tan 0.011160 -0.708661 -0.708661 1.000000
tan 0.011160 -0.708661 -0.708661 1.000000
tan 0.396181 -0.825842 -0.396181 1.000000
tan 0.005580 -1.004402 -0.005580 1.000000
tan 0.245521 -0.937442 -0.245520 1.000000
tan 0.468721 -0.747721 -0.468721 1.000000
tan -0.279001 -0.915122 0.279001 1.000000
tan -0.061380 -0.993242 0.061380 1.000000
tan 0.301321 -0.903962 0.301321 1.000000
tan -0.295741 -0.915122 -0.295740 1.000000
tan -0.184140 -0.970922 -0.184140 1.000000
tan 0.038874 -0.702771 0.685163 1.000000
tan 0.016864 -0.749085 0.617335 1.000000
tan 0.077500 -0.827701 0.471821 1.000000
tan 0.279001 -0.926282 0.279001 1.000000
tan -0.379441 -0.848162 -0.379441 1.000000
tan 0.133920 -0.982082 0.133920 1.000000
tan 0.262261 -0.937442 -0.262260 1.000000
tan -0.318061 -0.892802 0.318061 1.000000
tan -0.195300 -0.959762 0.195300 1.000000
tan -0.184140 -0.970922 -0.184140 1.000000
tan 0.446401 -0.781201 0.446401 1.000000
tan -0.362701 -0.859322 -0.362701 1.000000
tan 0.000000 -0.708661 0.708661 1.000000
tan 0.000000 -0.708661 0.708661 1.000000
tan 0.000000 -0.708661 0.708661 1.000000
tan 0.295741 -0.915122 -0.295740 1.000000
tan -0.345961 -0.870482 0.345961 1.000000
tan 0.178560 -0.970922 -0.178560 1.000000
tan 0.000000 -0.708661 0.708661 1.000000
tan 0.000000 -0.708661 0.708661 1.000000
tan 0.000000 -0.708661 0.708661 1.000000
tan 0.000000 -0.464567 -0.881890 1.000000
tan 0.000000 -0.464567 -0.881890 1.000000
tan 0.000000 -0.464567 -0.881890 1.000000
tan 0.184016 -0.819394 -0.399281 1.000000
tan -0.157728 -0.840783 0.342241 1.000000
tan -0.164300 -0.863228 0.356501 1.000000
tan 0.622729 -0.507409 0.582553 1.000000
tan -0.230640 -0.908984 -0.215760 1.000000
tan 0.443983 -0.771343 0.415339 1.000000
tan -0.070866 -0.000000 -1.000000 1.000000
tan -0.070866 -0.000000 -1.000000 1.000000
tan -0.070866 -0.000000 -1.000000 1.000000
tan -0.071486 -0.007812 -0.992126 1.000000
tan -0.070866 -0.000000 -1.000000 1.000000
tan -0.070866 -0.000000 -1.000000 1.000000
tan 0.247380 -0.971294 -0.026040 1.000000
tan 0.257425 -0.961250 -0.024552 1.000000
tan -0.010354 -0.876124 0.403187 1.000000
tan -0.012338 -0.752309 0.617335 1.000000
tan -0.033356 -0.702771 0.683179 1.000000
tan -0.458429 -0.851510 0.128402 1.000000
tan -0.316945 -0.880154 -0.305412 1.000000
tan -0.273855 -0.925662 -0.151962 1.000000
tan -0.368777 -0.372001 0.829810 1.000000
tan -0.129456 -0.331453 0.906194 1.000000
tan -0.496063 -0.866142 0.000000 1.000000
tan -0.425197 -0.905512 0.000000 1.000000
tan -0.322835 -0.944882 0.000000 1.000000
tan -0.062992 -1.000000 0.000000 1.000000
tan -0.157480 -0.984252 0.000000 1.000000
tan -0.023622 -1.000000 0.000000 1.000000
tan 0.000000 -1.000000 0.000000 1.000000
tan 0.000000 -1.000000 0.000000 1.000000
tan 0.000000 -1.000000 0.000000 1.000000
tan 0.000000 -1.000000 0.000000 1.000000
tan 0.000000 -1.000000 0.000000 1.000000
tan 0.000000 -1.000000 0.000000 1.000000
tan 0.000000 -1.000000 0.000000 1.000000
tan 0.000000 -1.000000 0.000000 1.000000
tan 0.000000 -1.000000 0.000000 1.000000
tan 0.000000 -1.000000 0.000000 1.000000
tan 0.000000 -1.000000 0.000000 1.000000
tan 0.000000 -1.000000 0.000000 1.000000
tan 0.000000 -1.000000 0.000000 1.000000
tan 0.000000 -1.000000 0.000000 1.000000
tan 0.000000 -1.000000 0.000000 1.000000
tan 0.000000 -1.000000 0.000000 1.000000
tan 0.015748 -1.000000 0.000000 1.000000
tan 0.015748 -1.000000 0.000000 1.000000
tan 0.015748 -1.000000 0.000000 1.000000
tan 0.015748 -1.000000 0.000000 1.000000
tan 0.000000 -0.007874 1.000000 1.000000
tan 0.000000 -0.007874 1.000000 1.000000
tan 0.000000 -0.007874 1.000000 1.000000
tan 0.000000 -0.007874 1.000000 1.000000
tan 0.011160 -0.708661 0.708661 1.000000
tan 0.000000 -0.708661 0.708661 1.000000
tan 0.011160 -0.708661 0.708661 1.000000
tan 0.000000 -0.708661 0.708661 1.000000
tan 0.323641 -0.892802 0.323641 1.000000
tan -0.145080 -0.982082 -0.145080 1.000000
tan 0.195300 -0.959762 0.195300 1.000000
tan -0.301321 -0.903962 -0.301320 1.000000
tan 0.000000 -0.708661 -0.708661 1.000000
tan 0.000000 -0.708661 -0.708661 1.000000
tan 0.011160 -0.708661 -0.708661 1.000000
tan 0.011160 -0.708661 -0.708661 1.000000
tan 0.334801 -0.881642 -0.334801 1.000000
tan -0.312481 -0.903962 0.312481 1.000000
tan 0.167400 -0.970922 -0.167400 1.000000
tan -0.189720 -0.970922 0.189720 1.000000
tan 0.000000 -0.708661 0.708661 1.000000
tan 0.000000 -0.708661 0.708661 1.000000
tan 0.000000 -0.708661 0.708661 1.000000
tan 0.000000 -0.708661 0.708661 1.000000
tan 0.000000 -0.708661 -0.708661 1.000000
tan 0.000000 -0.708661 -0.708661 1.000000
tan 0.000000 -0.708661 -0.708661 1.000000
tan 0.000000 -0.708661 -0.708661 1.000000
tan 0.318061 -0.892802 -0.318060 1.000000
tan -0.167400 -0.970922 0.167400 1.000000
tan 0.195300 -0.959762 -0.195300 1.000000
tan -0.334801 -0.881642 0.334801 1.000000
tan 0.000000 -0.708661 -0.708661 1.000000
tan 0.000000 -0.708661 -0.708661 1.000000
tan 0.000000 -0.708661 -0.708661 1.000000
tan 0.000000 -0.708661 -0.708661 1.000000
tan -0.006944 -0.464567 0.881890 1.000000
tan -0.013888 -0.464567 0.881890 1.000000
tan -0.006944 -0.464567 0.881890 1.000000
tan -0.013888 -0.464567 0.881890 1.000000
tan 0.111104 -0.872838 0.226177 1.000000
tan -0.208320 -0.802034 -0.424081 1.000000
tan -0.156240 -0.882634 -0.318060 1.000000
tan 0.128464 -0.869118 0.261517 1.000000
tan 0.006882 -0.488189 -0.874016 1.000000
tan 0.013764 -0.488189 -0.874016 1.000000
tan 0.006882 -0.488189 -0.874016 1.000000
tan 0.006882 -0.488189 -0.874016 1.000000
tan 0.147870 -0.880774 0.320851 1.000000
tan -0.157728 -0.840784 -0.342241 1.000000
tan -0.115010 -0.909294 -0.249550 1.000000
tan 0.174158 -0.856098 0.377891 1.000000
tan -0.124868 -0.895034 0.270941 1.000000
tan 0.138012 -0.887904 -0.299460 1.000000
tan 0.187302 -0.812264 -0.406411 1.000000
tan -0.154442 -0.873644 0.335111 1.000000
tan 0.006696 -0.527559 -0.850394 1.000000
tan 0.006696 -0.527559 -0.850394 1.000000
tan 0.006696 -0.527559 -0.850394 1.000000
tan 0.006696 -0.527559 -0.850394 1.000000
tan 0.006882 -0.488189 0.874016 1.000000
tan 0.006882 -0.488189 0.874016 1.000000
tan 0.006882 -0.488189 0.874016 1.000000
tan 0.006882 -0.488189 0.874016 1.000000
tan -0.118296 -0.902164 -0.256680 1.000000
tan 0.128154 -0.895034 0.278071 1.000000
tan 0.138012 -0.887904 0.299461 1.000000
tan -0.141298 -0.887904 -0.306590 1.000000
tan 0.138012 -0.887904 -0.299460 1.000000
tan -0.118296 -0.902164 0.256681 1.000000
tan -0.105152 -0.909294 0.228161 1.000000
tan 0.161014 -0.870358 -0.349371 1.000000
tan 0.000000 -0.527559 -0.850394 1.000000
tan 0.006696 -0.527559 -0.850394 1.000000
tan 0.006696 -0.527559 -0.850394 1.000000
tan 0.000000 -0.527559 -0.850394 1.000000
tan 0.000000 -0.527559 0.850394 1.000000
tan 0.006696 -0.527559 0.850394 1.000000
tan 0.006696 -0.527559 0.850394 1.000000
tan 0.000000 -0.527559 0.850394 1.000000
tan 0.157728 -0.847914 0.342241 1.000000
tan -0.118296 -0.902164 -0.256680 1.000000
tan -0.105152 -0.909294 -0.228160 1.000000
tan 0.154442 -0.873644 0.335111 1.000000
tan -0.118296 -0.902164 0.256681 1.000000
tan 0.124868 -0.902164 -0.270940 1.000000
tan 0.138012 -0.887904 -0.299460 1.000000
tan -0.141298 -0.887904 0.306591 1.000000
tan -0.006944 -0.464567 -0.881890 1.000000
tan 0.000000 -0.464567 -0.881890 1.000000
tan 0.000000 -0.464567 -0.881890 1.000000
tan -0.006944 -0.464567 -0.881890 1.000000
tan 0.000000 -0.527559 0.850394 1.000000
tan 0.000000 -0.527559 0.850394 1.000000
tan 0.000000 -0.527559 0.850394 1.000000
tan 0.000000 -0.527559 0.850394 1.000000
tan 0.167586 -0.833653 0.363631 1.000000
tan -0.141298 -0.887904 -0.306590 1.000000
tan -0.124868 -0.902164 -0.270940 1.000000
tan 0.177444 -0.856098 0.385021 1.000000
tan -0.170872 -0.833653 0.370761 1.000000
tan 0.134726 -0.895034 -0.292330 1.000000
tan 0.151156 -0.880774 -0.327981 1.000000
tan -0.174158 -0.856098 0.377891 1.000000
tan 0.023622 -1.000000 0.000000 1.000000
tan 0.023622 -1.000000 0.000000 1.000000
tan 0.031496 -1.000000 0.000000 1.000000
tan 0.031496 -1.000000 0.000000 1.000000
tan -0.070866 0.000000 1.000000 1.000000
tan -0.070866 0.000000 1.000000 1.000000
tan -0.070866 0.000000 1.000000 1.000000
tan -0.070866 0.000000 1.000000 1.000000
tan 0.000000 -1.000000 0.000000 1.000000
tan 0.000000 -1.000000 0.000000 1.000000
tan 0.000000 -1.000000 0.000000 1.000000
tan 0.000000 -1.000000 0.000000 1.000000
tan 0.000000 -1.000000 0.000000 1.000000
tan 0.000000 -1.000000 0.000000 1.000000
tan 0.000000 -1.000000 0.000000 1.000000
tan 0.000000 -1.000000 0.000000 1.000000
tan 0.000000 -1.000000 0.000000 1.000000
tan 0.000000 -1.000000 0.000000 1.000000
tan 0.000000 -1.000000 0.000000 1.000000
tan 0.000000 -1.000000 0.000000 1.000000
tan 0.000000 -1.000000 0.000000 1.000000
tan 0.000000 -1.000000 0.000000 1.000000
tan 0.000000 -1.000000 0.000000 1.000000
tan 0.000000 -1.000000 0.000000 1.000000
tan 0.000000 -1.000000 0.000000 1.000000
tan 0.000000 -1.000000 0.000000 1.000000
tan 0.000000 -1.000000 0.000000 1.000000
tan 0.000000 -1.000000 0.000000 1.000000
tan 0.000000 0.000000 0.972224 1.000000
tan 0.000000 0.000000 1.000000 1.000000
tan 0.000000 0.000000 0.968504 1.000000
tan 0.000000 0.000000 1.000000 1.000000
tan 0.000000 0.000000 1.000000 1.000000
tan 0.000000 0.000000 1.000000 1.000000
tan 0.000000 0.000000 1.000000 1.000000
tan 0.000000 0.000000 1.000000 1.000000
tan -0.011160 -0.708661 0.708661 1.000000
tan 0.000000 -0.708661 0.708661 1.000000
tan -0.011160 -0.708661 0.708661 1.000000
tan 0.000000 -0.708661 0.708661 1.000000
tan 0.000000 -0.708661 -0.708661 1.000000
tan 0.000000 -0.708661 -0.708661 1.000000
tan -0.011160 -0.708661 -0.708661 1.000000
tan -0.011160 -0.708661 -0.708661 1.000000
tan -0.334801 -0.881642 0.334801 1.000000
tan 0.156240 -0.982082 -0.156240 1.000000
tan 0.318061 -0.892802 -0.318060 1.000000
tan -0.206460 -0.959762 0.206461 1.000000
tan 0.496621 -0.714241 0.496621 1.000000
tan -0.546841 -0.636121 -0.546841 1.000000
tan 0.156240 -0.982082 0.156240 1.000000
tan -0.206460 -0.959762 -0.206460 1.000000
tan 0.000000 -0.708661 -0.708661 1.000000
tan 0.000000 -0.708661 -0.708661 1.000000
tan 0.000000 -0.708661 -0.708661 1.000000
tan 0.000000 -0.708661 -0.708661 1.000000
tan 0.000000 -0.708661 -0.708661 1.000000
tan 0.000000 -0.708661 -0.708661 1.000000
tan 0.000000 -0.708661 -0.708661 1.000000
tan 0.000000 -0.708661 -0.708661 1.000000
tan 0.020832 -0.480315 -0.881890 1.000000
tan 0.020832 -0.480315 -0.881890 1.000000
tan 0.020832 -0.480315 -0.881890 1.000000
tan 0.031558 -0.480315 -0.881890 1.000000
tan 0.006944 -0.464567 0.881890 1.000000
tan 0.013888 -0.464567 0.881890 1.000000
tan 0.013888 -0.464567 0.881890 1.000000
tan 0.013888 -0.464567 0.881890 1.000000
tan -0.093744 -0.879906 0.190836 1.000000
tan 0.163184 -0.872094 -0.332197 1.000000
tan 0.177072 -0.865026 -0.360469 1.000000
tan -0.118048 -0.876186 0.240313 1.000000
tan -0.006882 -0.488189 -0.874016 1.000000
tan -0.013764 -0.488189 -0.874016 1.000000
tan -0.006882 -0.488189 -0.874016 1.000000
tan -0.013764 -0.488189 -0.874016 1.000000
tan 0.141298 -0.887904 0.306591 1.000000
tan -0.170872 -0.833654 -0.370761 1.000000
tan -0.124868 -0.902164 -0.270940 1.000000
tan 0.167586 -0.863228 0.363631 1.000000
tan -0.138012 -0.887904 0.299461 1.000000
tan 0.128154 -0.895034 -0.278070 1.000000
tan 0.177444 -0.826524 -0.385021 1.000000
tan -0.164300 -0.863228 0.356501 1.000000
tan -0.006696 -0.527559 -0.850394 1.000000
tan -0.006696 -0.527559 -0.850394 1.000000
tan -0.006696 -0.527559 -0.850394 1.000000
tan -0.006696 -0.527559 -0.850394 1.000000
tan -0.013764 -0.488189 0.874016 1.000000
tan -0.006882 -0.488189 0.874016 1.000000
tan -0.006882 -0.488189 0.874016 1.000000
tan -0.013764 -0.488189 0.874016 1.000000
tan -0.121582 -0.902164 -0.263810 1.000000
tan 0.121582 -0.902164 0.263811 1.000000
tan 0.164300 -0.840783 0.356501 1.000000
tan -0.144584 -0.880774 -0.313720 1.000000
tan 0.128154 -0.895034 -0.278070 1.000000
tan -0.124868 -0.895034 0.270941 1.000000
tan -0.115010 -0.909294 0.249551 1.000000
tan 0.151156 -0.880774 -0.327981 1.000000
tan -0.006696 -0.527559 -0.850394 1.000000
tan -0.006696 -0.527559 -0.850394 1.000000
tan -0.006696 -0.527559 -0.850394 1.000000
tan -0.006696 -0.527559 -0.850394 1.000000
tan -0.006696 -0.527559 0.850394 1.000000
tan -0.006696 -0.527559 0.850394 1.000000
tan -0.006696 -0.527559 0.850394 1.000000
tan -0.006696 -0.527559 0.850394 1.000000
tan 0.131440 -0.895034 0.285201 1.000000
tan -0.121582 -0.902164 -0.263810 1.000000
tan -0.111724 -0.909294 -0.242420 1.000000
tan 0.154442 -0.873644 0.335111 1.000000
tan -0.141298 -0.865460 0.306591 1.000000
tan 0.121582 -0.902164 -0.263810 1.000000
tan 0.131440 -0.895034 -0.285200 1.000000
tan -0.141298 -0.887904 0.306591 1.000000
tan 0.000000 -0.527559 0.850394 1.000000
tan 0.000000 -0.527559 0.850394 1.000000
tan 0.000000 -0.527559 0.850394 1.000000
tan 0.000000 -0.527559 0.850394 1.000000
tan 0.184016 -0.819393 0.399281 1.000000
tan -0.138012 -0.887904 -0.299460 1.000000
tan -0.118296 -0.902164 -0.256680 1.000000
tan 0.187302 -0.841837 0.406411 1.000000
tan -0.015748 -1.000000 0.000000 1.000000
tan 0.007874 -1.000000 0.000000 1.000000
tan 0.015748 -1.000000 0.000000 1.000000
tan -0.015748 -1.000000 0.000000 1.000000
tan -0.070866 -0.000000 -1.000000 1.000000
tan -0.070866 -0.000000 -1.000000 1.000000
tan -0.070866 -0.000000 -1.000000 1.000000
tan -0.070866 -0.000000 -1.000000 1.000000
tan 0.685039 -0.724409 0.000000 1.000000
tan 0.669291 -0.748031 0.000000 1.000000
tan 0.551181 -0.834646 0.000000 1.000000
tan 0.472441 -0.881890 0.000000 1.000000
tan 0.330709 -0.944882 0.000000 1.000000
tan 0.307087 -0.952756 0.000000 1.000000
tan 0.086614 -0.992126 0.000000 1.000000
tan 0.070866 -1.000000 0.000000 1.000000
tan 0.023622 -1.000000 0.000000 1.000000
tan 0.023622 -1.000000 0.000000 1.000000
tan 0.031496 -1.000000 0.000000 1.000000
tan 0.023622 -1.000000 0.000000 1.000000
tan 0.023622 -1.000000 0.000000 1.000000
tan 0.023622 -1.000000 0.000000 1.000000
tan 0.023622 -1.000000 0.000000 1.000000
tan 0.031496 -1.000000 0.000000 1.000000
tan 0.031496 -1.000000 0.000000 1.000000
tan 0.406721 -0.865274 0.131936 1.000000
tan 0.128340 -0.331453 0.898382 1.000000
tan 0.375907 -0.374729 0.829810 1.000000
tan 0.476905 -0.816294 0.188170 1.000000
tan 0.259843 -0.909728 -0.227168 1.000000
tan -0.007874 -1.000000 0.000000 1.000000
tan -0.007874 -1.000000 0.000000 1.000000
tan -0.007874 -1.000000 0.000000 1.000000
tan -0.007874 -1.000000 0.000000 1.000000
tan -0.007874 -1.000000 0.000000 1.000000
tan -0.007874 -1.000000 0.000000 1.000000
tan -0.007874 -1.000000 0.000000 1.000000
tan -0.007874 -1.000000 0.000000 1.000000
tan -0.007874 -1.000000 0.000000 1.000000
tan -0.007874 -1.000000 0.000000 1.000000
tan -0.007874 -1.000000 0.000000 1.000000
tan -0.007874 -1.000000 0.000000 1.000000
tan -0.007874 -1.000000 0.000000 1.000000
tan -0.015748 -1.000000 0.000000 1.000000
tan 0.023622 -1.000000 0.000000 1.000000
tan 0.007874 -1.000000 0.000000 1.000000
tan -0.015748 -1.000000 0.000000 1.000000
tan -0.015748 -1.000000 0.000000 1.000000
tan -0.007874 -1.000000 0.000000 1.000000
tan -0.031496 -1.000000 0.000000 1.000000
tan -0.007874 -1.000000 0.000000 1.000000
tan -0.007874 -1.000000 0.000000 1.000000
tan 0.015748 -1.000000 0.000000 1.000000
tan 0.000000 -1.000000 0.000000 1.000000
tan 0.031496 -1.000000 0.000000 1.000000
tan -0.102362 -0.992126 0.000000 1.000000
tan 0.015748 -1.000000 0.000000 1.000000
tan 0.000000 -1.000000 0.000000 1.000000
tan 0.078740 -1.000000 0.000000 1.000000
tan 0.007874 -1.000000 0.000000 1.000000
tan 0.070866 -1.000000 0.000000 1.000000
tan 0.141732 -0.992126 0.000000 1.000000
tan 0.000000 -1.000000 0.000000 1.000000
tan 0.000000 -1.000000 0.000000 1.000000
tan 0.031496 -1.000000 0.000000 1.000000
tan 0.015748 -1.000000 0.000000 1.000000
tan 0.000000 -1.000000 0.000000 1.000000
tan 0.031496 -1.000000 0.000000 1.000000
tan -0.039370 -1.000000 0.000000 1.000000
tan 0.007874 -1.000000 0.000000 1.000000
tan -0.015748 -1.000000 0.000000 1.000000
tan 0.007874 -1.000000 0.000000 1.000000
tan 0.007874 -1.000000 0.000000 1.000000
tan -0.007874 -1.000000 0.000000 1.000000
tan -0.023622 -1.000000 0.000000 1.000000
tan 0.000000 -1.000000 0.000000 1.000000
tan 0.015748 -1.000000 0.000000 1.000000
tan 0.000000 -1.000000 0.000000 1.000000
tan 0.078740 -1.000000 0.000000 1.000000
tan -0.070866 -1.000000 0.000000 1.000000
tan 0.055118 -1.000000 0.000000 1.000000
tan -0.204724 -0.976378 0.000000 1.000000
tan -0.078740 -1.000000 0.000000 1.000000
f 3/3/3 2/2/2 1/1/1
f 6/6/6 5/5/5 4/4/4
f 9/9/9 8/8/8 7/7/7
f 12/12/12 11/11/11 10/10/10
f 15/15/15 14/14/14 13/13/13
f 18/18/18 17/17/17 16/16/16
f 21/21/21 20/20/20 19/19/19
f 24/24/24 23/23/23 22/22/22
f 27/27/27 26/26/26 25/25/25
f 30/30/30 29/29/29 28/28/28
f 33/33/33 32/32/32 31/31/31
f 36/36/36 35/35/35 34/34/34
f 39/39/39 38/38/38 37/37/37
f 42/42/42 41/41/41 40/40/40
f 45/45/45 44/44/44 43/43/43
f 48/48/48 47/47/47 46/46/46
f 51/51/51 50/50/50 49/49/49
f 54/54/54 53/53/53 52/52/52
f 57/57/57 56/56/56 55/55/55
f 60/60/60 59/59/59 58/58/58
f 63/63/63 62/62/62 61/61/61
f 66/66/66 65/65/65 64/64/64
f 69/69/69 68/68/68 67/67/67
f 72/72/72 71/71/71 70/70/70
f 75/75/75 74/74/74 73/73/73
f 78/78/78 77/77/77 76/76/76
f 81/81/81 80/80/80 79/79/79
f 84/84/84 83/83/83 82/82/82
f 87/87/87 86/86/86 85/85/85
f 87/87/87 89/89/89 88/88/88
f 92/92/92 91/91/91 90/90/90
f 94/94/94 93/93/93 90/90/90
f 97/97/97 96/96/96 95/95/95
f 99/99/99 97/97/97 98/98/98
f 98/98/98 100/100/100 99/99/99
f 103/103/103 102/102/102 101/101/101
f 104/104/104 101/101/101 102/102/102
f 107/107/107 106/106/106 105/105/105
f 108/108/108 105/105/105 106/106/106
f 111/111/111 110/110/110 109/109/109
f 112/112/112 109/109/109 110/110/110
f 115/115/115 114/114/114 113/113/113
f 116/116/116 113/113/113 114/114/114
f 119/119/119 118/118/118 117/117/117
f 118/118/118 119/119/119 120/120/120
f 123/123/123 122/122/122 121/121/121
f 124/124/124 123/123/123 121/121/121
f 127/127/127 126/126/126 125/125/125
f 125/125/125 126/126/126 128/128/128
f 131/131/131 130/130/130 129/129/129
f 132/132/132 129/129/129 130/130/130
f 135/135/135 134/134/134 133/133/133
f 136/136/136 134/134/134 135/135/135
f 139/139/139 138/138/138 137/137/137
f 140/140/140 138/138/138 139/139/139
f 143/143/143 142/142/142 141/141/141
f 141/141/141 142/142/142 144/144/144
f 147/147/147 146/146/146 145/145/145
f 148/148/148 146/146/146 147/147/147
f 151/151/151 150/150/150 149/149/149
f 152/152/152 149/149/149 150/150/150
f 155/155/155 154/154/154 153/153/153
f 156/156/156 154/154/154 155/155/155
f 159/159/159 158/158/158 157/157/157
f 160/160/160 157/157/157 158/158/158
f 163/163/163 162/162/162 161/161/161
f 164/164/164 163/163/163 161/161/161
f 167/167/167 166/166/166 165/165/165
f 168/168/168 165/165/165 166/166/166
f 171/171/171 170/170/170 169/169/169
f 172/172/172 171/171/171 169/169/169
f 175/175/175 174/174/174 173/173/173
f 176/176/176 173/173/173 174/174/174
f 179/179/179 178/178/178 177/177/177
f 180/180/180 177/177/177 178/178/178
f 183/183/183 182/182/182 181/181/181
f 184/184/184 181/181/181 182/182/182
f 187/187/187 186/186/186 185/185/185
f 188/188/188 185/185/185 186/186/186
f 191/191/191 190/190/190 189/189/189
f 192/192/192 191/191/191 189/189/189
f 195/195/195 194/194/194 193/193/193
f 196/196/196 193/193/193 194/194/194
f 199/199/199 198/198/198 197/197/197
f 200/200/200 197/197/197 198/198/198
f 203/203/203 202/202/202 201/201/201
f 204/204/204 203/203/203 201/201/201
f 207/207/207 206/206/206 205/205/205
f 208/208/208 205/205/205 206/206/206
f 211/211/211 210/210/210 209/209/209
f 212/212/212 209/209/209 210/210/210
f 215/215/215 214/214/214 213/213/213
f 216/216/216 213/213/213 214/214/214
f 219/219/219 218/218/218 217/217/217
f 220/220/220 219/219/219 217/217/217
f 223/223/223 222/222/222 221/221/221
f 224/224/224 221/221/221 222/222/222
f 227/227/227 226/226/226 225/225/225
f 228/228/228 226/226/226 227/227/227
f 231/231/231 230/230/230 229/229/229
f 230/230/230 231/231/231 232/232/232
f 235/235/235 234/234/234 233/233/233
f 236/236/236 234/234/234 235/235/235
f 239/239/239 238/238/238 237/237/237
f 240/240/240 238/238/238 239/239/239
f 243/243/243 242/242/242 241/241/241
f 244/244/244 241/241/241 242/242/242
f 247/247/247 246/246/246 245/245/245
f 248/248/248 245/245/245 246/246/246
f 251/251/251 250/250/250 249/249/249
f 250/250/250 251/251/251 252/252/252
f 255/255/255 254/254/254 253/253/253
f 255/255/255 256/256/256 254/254/254
f 259/259/259 258/258/258 257/257/257
f 260/260/260 259/259/259 257/257/257
f 263/263/263 262/262/262 261/261/261
f 261/261/261 262/262/262 264/264/264
f 267/267/267 266/266/266 265/265/265
f 268/268/268 266/266/266 267/267/267
f 271/271/271 270/270/270 269/269/269
f 272/272/272 269/269/269 270/270/270
f 275/275/275 274/274/274 273/273/273
f 276/276/276 274/274/274 275/275/275
f 279/279/279 278/278/278 277/277/277
f 280/280/280 278/278/278 279/279/279
f 283/283/283 282/282/282 281/281/281
f 284/284/284 282/282/282 283/283/283
f 287/287/287 286/286/286 285/285/285
f 288/288/288 287/287/287 285/285/285
f 291/291/291 290/290/290 289/289/289
f 292/292/292 291/291/291 289/289/289
f 295/295/295 294/294/294 293/293/293
f 296/296/296 293/293/293 294/294/294
f 299/299/299 298/298/298 297/297/297
f 300/300/300 297/297/297 298/298/298
f 303/303/303 302/302/302 301/301/301
f 304/304/304 303/303/303 301/301/301
f 307/307/307 306/306/306 305/305/305
f 308/308/308 305/305/305 306/306/306
f 311/311/311 310/310/310 309/309/309
f 312/312/312 309/309/309 310/310/310
f 315/315/315 314/314/314 313/313/313
f 316/316/316 315/315/315 313/313/313
f 319/319/319 318/318/318 317/317/317
f 320/320/320 317/317/317 318/318/318
f 323/323/323 322/322/322 321/321/321
f 324/324/324 323/323/323 321/321/321
f 327/327/327 326/326/326 325/325/325
f 328/328/328 325/325/325 326/326/326
f 331/331/331 330/330/330 329/329/329
f 332/332/332 331/331/331 329/329/329
f 335/335/335 334/334/334 333/333/333
f 336/336/336 335/335/335 333/333/333
f 339/339/339 338/338/338 337/337/337
f 340/340/340 337/337/337 338/338/338
f 343/343/343 342/342/342 341/341/341
f 344/344/344 343/343/343 341/341/341
f 347/347/347 346/346/346 345/345/345
f 348/348/348 347/347/347 345/345/345
f 351/351/351 350/350/350 349/349/349
f 351/351/351 349/349/349 352/352/352
f 355/355/355 354/354/354 353/353/353
f 354/354/354 355/355/355 356/356/356
f 359/359/359 358/358/358 357/357/357
f 360/360/360 359/359/359 357/357/357
f 359/359/359 360/360/360 361/361/361
f 362/362/362 361/361/361 360/360/360
f 361/361/361 362/362/362 363/363/363
f 364/364/364 363/363/363 362/362/362
f 367/367/367 366/366/366 365/365/365
f 367/367/367 365/365/365 368/368/368
f 369/369/369 368/368/368 365/365/365
f 368/368/368 369/369/369 370/370/370
f 371/371/371 370/370/370 369/369/369
f 372/372/372 370/370/370 371/371/371
f 373/373/373 372/372/372 371/371/371
f 376/376/376 375/375/375 374/374/374
f 377/377/377 376/376/376 374/374/374
f 377/377/377 374/374/374 378/378/378
f 381/381/381 380/380/380 379/379/379
f 379/379/379 380/380/380 382/382/382
f 379/379/379 382/382/382 383/383/383
f 384/384/384 383/383/383 382/382/382
f 385/385/385 383/383/383 384/384/384
f 386/386/386 383/383/383 385/385/385
f 386/386/386 385/385/385 387/387/387
f 388/388/388 387/387/387 385/385/385
f 388/388/388 389/389/389 387/387/387
f 390/390/390 387/387/387 389/389/389
f 393/393/393 392/392/392 391/391/391
f 392/392/392 394/394/394 391/391/391
f 395/395/395 391/391/391 394/394/394
f 395/395/395 394/394/394 396/396/396
f 391/391/391 395/395/395 397/397/397
f 398/398/398 396/396/396 394/394/394
f 399/399/399 396/396/396 398/398/398
f 399/399/399 400/400/400 396/396/396
f 391/391/391 397/397/397 401/401/401
f 401/401/401 402/402/402 391/391/391
f 401/401/401 403/403/403 402/402/402
f 397/397/397 404/404/404 401/401/401
f 397/397/397 405/405/405 404/404/404
f 406/406/406 403/403/403 401/401/401
f 407/407/407 404/404/404 405/405/405
f 408/408/408 403/403/403 406/406/406
f 408/408/408 406/406/406 400/400/400
f 396/396/396 400/400/400 406/406/406
f 405/405/405 409/409/409 407/407/407
f 409/409/409 396/396/396 406/406/406
f 409/409/409 410/410/410 407/407/407
f 409/409/409 406/406/406 410/410/410
f 413/413/413 412/412/412 411/411/411
f 411/411/411 412/412/412 414/414/414
f 415/415/415 414/414/414 412/412/412
f 415/415/415 416/416/416 414/414/414
f 414/414/414 417/417/417 411/411/411
f 414/414/414 416/416/416 418/418/418
f 418/418/418 416/416/416 419/419/419
f 418/418/418 419/419/419 420/420/420
f 420/420/420 421/421/421 418/418/418
f 421/421/421 422/422/422 418/418/418
f 423/423/423 418/418/418 422/422/422
f 422/422/422 424/424/424 423/423/423
f 423/423/423 424/424/424 411/411/411
f 418/418/418 423/423/423 425/425/425
f 411/411/411 426/426/426 423/423/423
f 425/425/425 423/423/423 427/427/427
f 426/426/426 411/411/411 428/428/428
f 411/411/411 417/417/417 428/428/428
f 425/425/425 427/427/427 429/429/429
f 428/428/428 417/417/417 430/430/430
f 431/431/431 429/429/429 427/427/427
f 428/428/428 430/430/430 431/431/431
f 429/429/429 431/431/431 430/430/430
