mtllib SM_Foliage_Plant_01_LOD2.mtl
g SM_Foliage_Plant_01_LOD2
#Vertices 15
#Indices 27
#Section 0 Offset 0 NumIndices 27 MaterialIndex 0 MI_Foliage_A_01
v -0.452039 1.086463 -0.031872
v -0.063873 -0.024930 0.057683
v 0.175824 1.341100 0.014593
v 0.087208 -0.021720 -0.017289
v 0.488026 0.593034 -0.000000
v -0.189665 1.086207 0.412237
v 0.016897 -0.028670 0.083193
v 0.176414 1.337237 -0.101749
v 0.027011 -0.020536 -0.084997
v 0.275816 0.591750 -0.404495
v 0.092135 0.592868 0.479456
v -0.007133 1.340378 0.181697
v 0.036291 -0.021304 0.081271
v -0.069571 -0.026290 -0.049972
v -0.092082 1.086913 -0.442604
vt 0.279541 0.886353
vt 0.378906 0.609863
vt 0.433105 0.948547
vt 0.415527 0.609863
vt 0.513672 0.762817
vt 0.279541 0.886353
vt 0.378906 0.609863
vt 0.433105 0.948547
vt 0.415527 0.609863
vt 0.513672 0.762817
vt 0.513672 0.762817
vt 0.433105 0.948547
vt 0.415527 0.609863
vt 0.378906 0.609863
vt 0.279541 0.886353
vt1 0.573730 0.023438
vt1 0.092285 0.201660
vt1 0.682129 0.298340
vt1 0.092163 0.267090
vt1 0.358643 0.443848
vt1 0.009796 0.882324
vt1 0.188232 0.400879
vt1 0.284912 0.990601
vt1 0.253662 0.400879
vt1 0.430176 0.667236
vt1 0.719727 0.344238
vt1 0.396484 0.489258
vt1 0.986328 0.520508
vt1 0.986328 0.586182
vt1 0.504395 0.764404
vn 0.188976 -0.039370 -0.984252
vn 0.062992 0.015748 -1.000000
vn 0.039370 0.070866 -1.000000
vn -0.094488 -0.031496 -0.992126
vn 0.141732 0.070866 -0.984252
vn -0.755906 0.031496 -0.653543
vn -0.834646 0.078740 -0.543307
vn -0.834646 0.141732 -0.527559
vn -0.913386 0.031496 -0.409449
vn -0.779528 0.133858 -0.614173
vn 0.992126 0.094488 -0.070866
vn 0.976378 0.094488 -0.173228
vn 0.952756 -0.007874 -0.307087
vn 0.984252 0.039370 -0.157480
vn 1.000000 -0.015748 -0.031496
tan -0.007750 -0.984252 0.037882 1.000000
tan 0.000000 -1.000000 -0.015748 1.000000
tan 0.000000 -1.000000 -0.070866 1.000000
tan 0.007812 -0.992126 0.030752 1.000000
tan 0.000000 -0.984252 -0.070866 1.000000
tan -0.064542 -0.962366 0.028272 1.000000
tan -0.099510 -0.883688 0.024800 1.000000
tan -0.136462 -0.894538 -0.024428 1.000000
tan -0.021824 -0.916610 -0.021824 1.000000
tan -0.129828 -0.970550 -0.046748 1.000000
tan 0.093930 -0.992126 -0.007812 1.000000
tan 0.094488 -0.976378 0.000000 1.000000
tan -0.005456 -0.952756 0.007502 1.000000
tan 0.039370 -0.984252 0.000000 1.000000
tan -0.015996 -1.000000 -0.007874 1.000000
f 3/3/3 2/2/2 1/1/1
f 2/2/2 3/3/3 4/4/4
f 4/4/4 3/3/3 5/5/5
f 8/8/8 7/7/7 6/6/6
f 9/9/9 7/7/7 8/8/8
f 10/10/10 9/9/9 8/8/8
f 13/13/13 12/12/12 11/11/11
f 14/14/14 12/12/12 13/13/13
f 15/15/15 12/12/12 14/14/14
