mtllib SM_Foliage_Grass_02.mtl
g SM_Foliage_Grass_02
#Vertices 6
#Indices 12
#Section 0 Offset 0 NumIndices 12 MaterialIndex 0 MI_Foliage_A_02
v -0.000247 0.782081 -0.000000
v 0.152058 0.026301 -0.000000
v 0.392129 0.592002 -0.000000
v -0.010398 -0.093500 0.000000
v -0.167266 -0.001091 0.000000
v -0.454054 0.363600 -0.000000
vt 0.614746 1.000000
vt 0.652832 0.811157
vt 0.712891 0.952484
vt 0.612305 0.781128
vt 0.572754 0.804321
vt 0.501465 0.895386
vt1 0.535645 0.991936
vt1 0.712402 0.143066
vt1 0.991699 0.778442
vt1 0.523438 0.008301
vt1 0.341309 0.112305
vt1 0.008064 0.521729
vn 0.000000 -0.000000 -1.000000
vn 0.000000 -0.000000 -1.000000
vn 0.000000 -0.000000 -1.000000
vn 0.000000 -0.000000 -1.000000
vn 0.000000 -0.000000 -1.000000
vn 0.000000 -0.000000 -1.000000
tan 0.000000 -1.000000 0.000000 1.000000
tan 0.000000 -1.000000 0.000000 1.000000
tan 0.000000 -1.000000 0.000000 1.000000
tan 0.000000 -1.000000 0.000000 1.000000
tan 0.000000 -1.000000 0.000000 1.000000
tan 0.000000 -1.000000 0.000000 1.000000
f 3/3/3 2/2/2 1/1/1
f 4/4/4 1/1/1 2/2/2
f 4/4/4 5/5/5 1/1/1
f 6/6/6 1/1/1 5/5/5
