mtllib SM_Foliage_Grass_04.mtl
g SM_Foliage_Grass_04
#Vertices 6
#Indices 12
#Section 0 Offset 0 NumIndices 12 MaterialIndex 0 MI_Foliage_A_02
v -0.001223 -0.091629 -0.007846
v -0.272967 0.254859 0.048740
v -0.147111 -0.067152 -0.003849
v -0.037799 0.899532 0.154024
v 0.271975 0.460110 0.082260
v 0.135768 -0.068109 -0.004005
vt 0.843750 0.530762
vt 0.775879 0.618408
vt 0.807129 0.536865
vt 0.834473 0.781738
vt 0.912109 0.670410
vt 0.877930 0.536621
vt1 0.498535 0.008301
vt1 0.008064 0.352051
vt1 0.235229 0.032715
vt1 0.432617 0.991936
vt1 0.991699 0.555908
vt1 0.745605 0.031738
vn 0.000000 0.157480 -0.984252
vn 0.000000 0.157480 -0.984252
vn 0.000000 0.157480 -0.984252
vn 0.000000 0.157480 -0.984252
vn 0.000000 0.157480 -0.984252
vn 0.000000 0.157480 -0.984252
tan 0.000000 -0.984252 -0.157480 1.000000
tan 0.000000 -0.984252 -0.157480 1.000000
tan 0.000000 -0.984252 -0.157480 1.000000
tan 0.000000 -0.984252 -0.157480 1.000000
tan 0.000000 -0.984252 -0.157480 1.000000
tan 0.000000 -0.984252 -0.157480 1.000000
f 3/3/3 2/2/2 1/1/1
f 2/2/2 4/4/4 1/1/1
f 4/4/4 5/5/5 1/1/1
f 6/6/6 1/1/1 5/5/5
