mtllib SM_Foliage_Grass_03_LOD3.mtl
g SM_Foliage_Grass_03_LOD3
#Vertices 4
#Indices 6
#Section 0 Offset 0 NumIndices 6 MaterialIndex 0 MI_Foliage_A_02
v -0.224181 0.472780 -0.042195
v 0.212275 -0.048239 0.015301
v 0.253927 0.524684 0.005323
v -0.143814 -0.068622 -0.020544
vt 0.771973 0.947113
vt 0.875000 0.811768
vt 0.892578 0.953583
vt 0.785156 0.811523
vt1 0.026947 0.914001
vt1 0.849609 0.027344
vt1 0.991699 0.956390
vt1 0.132935 0.025391
vn 0.102362 -0.023622 -0.992126
vn 0.102362 -0.023622 -0.992126
vn 0.102362 -0.023622 -0.992126
vn 0.102362 -0.023622 -0.992126
tan 0.054684 -0.992126 0.029264 1.000000
tan 0.054684 -0.992126 0.029264 1.000000
tan 0.054684 -0.992126 0.029264 1.000000
tan 0.054684 -0.992126 0.029264 1.000000
f 3/3/3 2/2/2 1/1/1
f 4/4/4 1/1/1 2/2/2
