mtllib SM_Foliage_Grass_04_LOD2.mtl
g SM_Foliage_Grass_04_LOD2
#Vertices 4
#Indices 6
#Section 0 Offset 0 NumIndices 6 MaterialIndex 0 MI_Foliage_A_02
v 0.128456 -0.085553 -0.006854
v -0.037799 0.899532 0.154024
v -0.272636 0.061157 0.017106
v 0.271975 0.460110 0.082260
vt 0.875977 0.532227
vt 0.834473 0.781738
vt 0.775879 0.569336
vt 0.912109 0.670410
vt1 0.732422 0.014160
vt1 0.432617 0.991936
vt1 0.008659 0.160156
vt1 0.991699 0.555908
vn 0.000000 0.157480 -0.984252
vn 0.000000 0.157480 -0.984252
vn 0.000000 0.157480 -0.984252
vn 0.000000 0.157480 -0.984252
tan 0.000000 -0.984252 -0.157480 1.000000
tan 0.000000 -0.984252 -0.157480 1.000000
tan 0.000000 -0.984252 -0.157480 1.000000
tan 0.000000 -0.984252 -0.157480 1.000000
f 3/3/3 2/2/2 1/1/1
f 2/2/2 4/4/4 1/1/1
