mtllib SM_Foliage_Grass_02_LOD1.mtl
g SM_Foliage_Grass_02_LOD1
#Vertices 4
#Indices 6
#Section 0 Offset 0 NumIndices 6 MaterialIndex 0 MI_Foliage_A_02
v -0.000247 0.782081 -0.000000
v 0.017386 -0.136260 0.000000
v 0.392129 0.592002 -0.000000
v -0.454054 0.363600 -0.000000
vt 0.614746 1.000000
vt 0.619141 0.770508
vt 0.712891 0.952484
vt 0.501465 0.895386
vt1 0.535645 0.991936
vt1 0.556152 -0.039062
vt1 0.991699 0.778442
vt1 0.008064 0.521729
vn 0.000000 -0.000000 -1.000000
vn 0.000000 -0.000000 -1.000000
vn 0.000000 -0.000000 -1.000000
vn 0.000000 -0.000000 -1.000000
tan 0.000000 -1.000000 0.000000 1.000000
tan 0.000000 -1.000000 0.000000 1.000000
tan 0.000000 -1.000000 0.000000 1.000000
tan 0.000000 -1.000000 0.000000 1.000000
f 3/3/3 2/2/2 1/1/1
f 4/4/4 1/1/1 2/2/2
