mtllib SM_Foliage_Grass_01_LOD2.mtl
g SM_Foliage_Grass_01_LOD2
#Vertices 4
#Indices 6
#Section 0 Offset 0 NumIndices 6 MaterialIndex 0 MI_Foliage_A_02
v -0.432564 0.467466 -0.000000
v -0.157248 -0.069077 0.000000
v 0.336488 0.697409 -0.000000
v 0.145524 -0.059012 0.000000
vt 0.514648 0.673828
vt 0.583496 0.539795
vt 0.707031 0.731445
vt 0.659180 0.542236
vt1 0.008064 0.740723
vt1 0.355225 0.019531
vt1 0.978027 1.049805
vt1 0.736816 0.032715
vn 0.000000 -0.000000 -1.000000
vn 0.000000 -0.000000 -1.000000
vn 0.000000 -0.000000 -1.000000
vn 0.000000 -0.000000 -1.000000
tan 0.000000 -1.000000 0.000000 1.000000
tan 0.000000 -1.000000 0.000000 1.000000
tan 0.000000 -1.000000 0.000000 1.000000
tan 0.000000 -1.000000 0.000000 1.000000
f 3/3/3 2/2/2 1/1/1
f 4/4/4 2/2/2 3/3/3
