mtllib SM_Foliage_Grass_03.mtl
g SM_Foliage_Grass_03
#Vertices 6
#Indices 12
#Section 0 Offset 0 NumIndices 12 MaterialIndex 0 MI_Foliage_A_02
v 0.007099 0.533173 -0.020085
v 0.212275 -0.048239 0.015301
v 0.253927 0.524684 0.005323
v 0.020296 -0.070358 -0.003748
v -0.231635 0.434327 -0.042001
v -0.147602 -0.056118 -0.021241
vt 0.830566 0.959015
vt 0.875000 0.811768
vt 0.892578 0.953583
vt 0.826172 0.808960
vt 0.769531 0.937653
vt 0.784668 0.814697
vt1 0.497314 0.991936
vt1 0.849609 0.027344
vt1 0.991699 0.956390
vt1 0.462158 0.008301
vt1 0.008064 0.852051
vt1 0.126587 0.046387
vn 0.102362 -0.023622 -0.992126
vn 0.102362 -0.023622 -0.992126
vn 0.102362 -0.023622 -0.992126
vn 0.102362 -0.023622 -0.992126
vn 0.102362 -0.023622 -0.992126
vn 0.102362 -0.023622 -0.992126
tan 0.052266 -0.994792 0.029078 1.000000
tan 0.052266 -0.994792 0.029078 1.000000
tan 0.052266 -0.994792 0.029078 1.000000
tan 0.052266 -0.994792 0.029078 1.000000
tan 0.052266 -0.994792 0.029078 1.000000
tan 0.052266 -0.994792 0.029078 1.000000
f 3/3/3 2/2/2 1/1/1
f 4/4/4 1/1/1 2/2/2
f 1/1/1 4/4/4 5/5/5
f 6/6/6 5/5/5 4/4/4
