mtllib SM_Foliage_Grass_01.mtl
g SM_Foliage_Grass_01
#Vertices 6
#Indices 12
#Section 0 Offset 0 NumIndices 12 MaterialIndex 0 MI_Foliage_A_02
v 0.145524 -0.059012 0.000000
v 0.347504 0.654367 -0.000000
v -0.050706 0.637331 -0.000000
v -0.005946 -0.054811 0.000000
v -0.432564 0.467466 -0.000000
v -0.153995 -0.077317 0.000000
vt 0.659180 0.542236
vt 0.709961 0.720703
vt 0.610352 0.716309
vt 0.621582 0.543213
vt 0.514648 0.673828
vt 0.584473 0.537598
vt1 0.736816 0.032715
vt1 0.991699 0.991936
vt1 0.489502 0.969040
vt1 0.545898 0.038574
vt1 0.008064 0.740723
vt1 0.359375 0.008301
vn 0.000000 -0.000000 -1.000000
vn 0.000000 -0.000000 -1.000000
vn 0.000000 -0.000000 -1.000000
vn 0.000000 -0.000000 -1.000000
vn 0.000000 -0.000000 -1.000000
vn 0.000000 -0.000000 -1.000000
tan 0.000000 -1.000000 0.000000 1.000000
tan 0.000000 -1.000000 0.000000 1.000000
tan 0.000000 -1.000000 0.000000 1.000000
tan 0.000000 -1.000000 0.000000 1.000000
tan 0.000000 -1.000000 0.000000 1.000000
tan 0.000000 -1.000000 0.000000 1.000000
f 3/3/3 2/2/2 1/1/1
f 1/1/1 4/4/4 3/3/3
f 3/3/3 4/4/4 5/5/5
f 6/6/6 5/5/5 4/4/4
