mtllib SM_Foliage_Plant_01_LOD1.mtl
g SM_Foliage_Plant_01_LOD1
#Vertices 21
#Indices 54
#Section 0 Offset 0 NumIndices 54 MaterialIndex 0 MI_Foliage_A_01
v 0.488026 0.593034 -0.000000
v 0.175824 1.341100 0.014593
v 0.087208 -0.021720 -0.017289
v 0.008500 0.543774 0.077641
v -0.078745 -0.027162 0.000000
v -0.452039 1.086463 -0.031872
v -0.231263 0.519144 -0.000000
v 0.176414 1.337237 -0.101749
v 0.027011 -0.020536 -0.084997
v 0.275816 0.591750 -0.404495
v 0.102556 0.537490 0.048756
v -0.189665 1.086207 0.412237
v -0.040590 -0.027103 0.067501
v -0.084998 0.518020 0.217770
v 0.092135 0.592868 0.479456
v -0.007133 1.340378 0.181697
v 0.036291 -0.021304 0.081271
v -0.086509 0.541781 0.027929
v -0.016452 -0.027154 -0.077010
v -0.092082 1.086913 -0.442604
v -0.062173 0.518998 -0.223089
vt 0.513672 0.762817
vt 0.433105 0.948547
vt 0.415527 0.609863
vt 0.394043 0.750488
vt 0.372314 0.607910
vt 0.279541 0.886353
vt 0.334229 0.744385
vt 0.433105 0.948547
vt 0.415527 0.609863
vt 0.513672 0.762817
vt 0.394043 0.750488
vt 0.279541 0.886353
vt 0.372314 0.607910
vt 0.334229 0.744385
vt 0.513672 0.762817
vt 0.433105 0.948547
vt 0.415527 0.609863
vt 0.394043 0.750488
vt 0.372314 0.607910
vt 0.279541 0.886353
vt 0.334229 0.744385
vt1 0.358643 0.443848
vt1 0.682129 0.298340
vt1 0.092163 0.267090
vt1 0.337158 0.228516
vt1 0.088684 0.189453
vt1 0.573730 0.023438
vt1 0.326416 0.121094
vt1 0.284912 0.990601
vt1 0.253662 0.400879
vt1 0.430176 0.667236
vt1 0.215210 0.645752
vt1 0.009796 0.882324
vt1 0.176147 0.396973
vt1 0.107727 0.635010
vt1 0.719727 0.344238
vt1 0.396484 0.489258
vt1 0.986328 0.520508
vt1 0.741211 0.559082
vt1 0.989746 0.598145
vt1 0.504395 0.764404
vt1 0.751953 0.666504
vn 0.141732 0.070866 -0.984252
vn 0.039370 0.070866 -1.000000
vn -0.094488 -0.031496 -0.992126
vn -0.055118 -0.007874 -1.000000
vn 0.244094 0.094488 -0.960630
vn 0.188976 -0.039370 -0.984252
vn 0.236220 0.031496 -0.968504
vn -0.834646 0.141732 -0.527559
vn -0.913386 0.031496 -0.409449
vn -0.779528 0.133858 -0.614173
vn -0.897638 0.055118 -0.440945
vn -0.755906 0.031496 -0.653543
vn -0.708661 0.157480 -0.692913
vn -0.724409 0.094488 -0.685039
vn 0.992126 0.094488 -0.070866
vn 0.976378 0.094488 -0.173228
vn 0.952756 -0.007874 -0.307087
vn 0.960630 0.015748 -0.275591
vn 0.992126 0.118110 0.031496
vn 1.000000 -0.015748 -0.031496
vn 1.000000 0.055118 0.023622
tan 0.000000 -0.984252 -0.070866 1.000000
tan 0.000000 -1.000000 -0.070866 1.000000
tan 0.007812 -0.992126 0.030752 1.000000
tan 0.000000 -1.000000 0.007874 1.000000
tan -0.013640 -0.964474 -0.098332 1.000000
tan -0.007750 -0.984252 0.037882 1.000000
tan 0.000496 -0.972224 -0.031496 1.000000
tan -0.136462 -0.894538 -0.024428 1.000000
tan -0.021824 -0.916610 -0.021824 1.000000
tan -0.129828 -0.970550 -0.046748 1.000000
tan -0.051212 -0.946122 -0.014012 1.000000
tan -0.064542 -0.962366 0.028272 1.000000
tan -0.158968 -0.988158 -0.062000 1.000000
tan -0.088350 -0.995598 -0.043896 1.000000
tan 0.093930 -0.992126 -0.007812 1.000000
tan 0.094488 -0.976378 0.000000 1.000000
tan -0.005456 -0.952756 0.007502 1.000000
tan 0.015748 -0.967140 -0.000372 1.000000
tan 0.118854 -0.992126 -0.023436 1.000000
tan -0.015996 -1.000000 -0.007874 1.000000
tan 0.055304 -1.000000 -0.007874 1.000000
f 3/3/3 2/2/2 1/1/1
f 4/4/4 2/2/2 3/3/3
f 3/3/3 5/5/5 4/4/4
f 2/2/2 4/4/4 6/6/6
f 4/4/4 5/5/5 7/7/7
f 7/7/7 6/6/6 4/4/4
f 10/10/10 9/9/9 8/8/8
f 9/9/9 11/11/11 8/8/8
f 8/8/8 11/11/11 12/12/12
f 9/9/9 13/13/13 11/11/11
f 11/11/11 14/14/14 12/12/12
f 14/14/14 11/11/11 13/13/13
f 17/17/17 16/16/16 15/15/15
f 18/18/18 16/16/16 17/17/17
f 19/19/19 18/18/18 17/17/17
f 20/20/20 16/16/16 18/18/18
f 18/18/18 19/19/19 21/21/21
f 21/21/21 20/20/20 18/18/18
