mtllib SM_Foliage_Plant_01.mtl
g SM_Foliage_Plant_01
#Vertices 36
#Indices 108
#Section 0 Offset 0 NumIndices 108 MaterialIndex 0 MI_Foliage_A_01
v -0.453537 1.087250 -0.029442
v -0.231263 0.519144 -0.000000
v -0.244351 1.171246 -0.000000
v 0.008500 0.543774 0.077641
v -0.078745 -0.027162 0.000000
v -0.025760 -0.027162 0.000000
v -0.035166 1.255242 -0.000000
v 0.027224 -0.027161 0.000000
v 0.248263 0.568404 -0.031511
v 0.174020 1.339238 0.052472
v 0.080209 -0.027161 -0.000000
v 0.488026 0.593034 -0.000000
v -0.188257 1.086832 0.414765
v -0.084998 0.518020 0.217770
v -0.054240 1.168710 0.250399
v 0.102556 0.537490 0.048756
v -0.040590 -0.027103 0.067501
v -0.014322 -0.027103 0.021486
v 0.054263 1.252524 0.071468
v 0.011945 -0.027103 -0.024529
v 0.128238 0.569246 -0.212661
v 0.208238 1.332887 -0.081506
v 0.038213 -0.027103 -0.070544
v 0.275816 0.591750 -0.404495
v -0.062173 0.518998 -0.223089
v -0.080099 1.170917 -0.232513
v -0.094796 1.087642 -0.443535
v -0.086509 0.541781 0.027929
v -0.016452 -0.027154 -0.077010
v -0.004959 -0.027154 -0.025287
v -0.036669 1.254889 -0.027876
v 0.006533 -0.027154 0.026436
v 0.071451 0.568991 0.238441
v -0.044448 1.337618 0.188140
v 0.018026 -0.027154 0.078160
v 0.092135 0.592868 0.479456
vt 0.278564 0.886353
vt 0.334229 0.744385
vt 0.330811 0.907349
vt 0.394043 0.750488
vt 0.372314 0.607910
vt 0.385498 0.607910
vt 0.383057 0.928345
vt 0.398682 0.607910
vt 0.454102 0.756592
vt 0.435547 0.949310
vt 0.412109 0.607910
vt 0.513672 0.762817
vt 0.278564 0.886353
vt 0.334229 0.744385
vt 0.330811 0.907349
vt 0.394043 0.750488
vt 0.372314 0.607910
vt 0.385498 0.607910
vt 0.383057 0.928345
vt 0.398682 0.607910
vt 0.454102 0.756592
vt 0.435547 0.949310
vt 0.412109 0.607910
vt 0.513672 0.762817
vt 0.334229 0.744385
vt 0.330811 0.907349
vt 0.278564 0.886353
vt 0.394043 0.750488
vt 0.372314 0.607910
vt 0.385498 0.607910
vt 0.383057 0.928345
vt 0.398682 0.607910
vt 0.454102 0.756592
vt 0.435547 0.949310
vt 0.412109 0.607910
vt 0.513672 0.762817
vt1 0.573730 0.021484
vt1 0.326416 0.121094
vt1 0.610352 0.115234
vt1 0.337158 0.228516
vt1 0.088684 0.189453
vt1 0.088684 0.213379
vt1 0.646973 0.208984
vt1 0.088684 0.237305
vt1 0.347900 0.336426
vt1 0.683594 0.302734
vt1 0.088684 0.260742
vt1 0.358643 0.443848
vt1 0.008064 0.882263
vt1 0.107727 0.635010
vt1 0.101868 0.918823
vt1 0.215210 0.645752
vt1 0.176147 0.396973
vt1 0.199829 0.396973
vt1 0.195679 0.955383
vt1 0.223633 0.396973
vt1 0.322754 0.656494
vt1 0.289307 0.991936
vt1 0.247314 0.396973
vt1 0.430176 0.667236
vt1 0.751953 0.666504
vt1 0.468262 0.672363
vt1 0.504883 0.766235
vt1 0.741211 0.559082
vt1 0.989746 0.598145
vt1 0.989746 0.574463
vt1 0.431641 0.578613
vt1 0.989746 0.550537
vt1 0.730469 0.451660
vt1 0.395020 0.484863
vt1 0.989746 0.526855
vt1 0.719727 0.344238
vn 0.228346 0.007874 -0.976378
vn 0.236220 0.031496 -0.968504
vn 0.000000 -0.062992 -1.000000
vn -0.055118 -0.007874 -1.000000
vn 0.244094 0.094488 -0.960630
vn -0.055118 0.110236 -0.992126
vn -0.023622 0.007874 -1.000000
vn -0.188976 0.039370 -0.984252
vn -0.015748 0.015748 -1.000000
vn 0.157480 0.118110 -0.984252
vn 0.110236 -0.086614 -0.992126
vn 0.141732 0.070866 -0.984252
vn -0.732283 0.070866 -0.685039
vn -0.724409 0.094488 -0.685039
vn -0.866142 0.007874 -0.496063
vn -0.897638 0.055118 -0.440945
vn -0.708661 0.157480 -0.692913
vn -0.881890 0.173228 -0.440945
vn -0.874016 0.070866 -0.480315
vn -0.937008 0.102362 -0.322835
vn -0.874016 0.078740 -0.480315
vn -0.763780 0.188976 -0.614173
vn -0.803150 -0.015748 -0.590551
vn -0.779528 0.133858 -0.614173
vn 1.000000 0.055118 0.023622
vn 0.976378 -0.039370 -0.212598
vn 1.000000 0.031496 0.015748
vn 0.960630 0.015748 -0.275591
vn 0.992126 0.118110 0.031496
vn 0.952756 0.133858 -0.267717
vn 0.968504 0.031496 -0.236220
vn 0.913386 0.062992 -0.393701
vn 0.976378 0.039370 -0.228346
vn 0.984252 0.141732 -0.062992
vn 0.992126 -0.062992 -0.102362
vn 0.992126 0.094488 -0.070866
tan 0.001798 -1.005456 -0.007688 1.000000
tan 0.007440 -0.993800 -0.030504 1.000000
tan -0.007874 -1.000000 0.062992 1.000000
tan 0.000434 -1.003038 0.007874 1.000000
tan 0.007936 -0.989956 -0.095356 1.000000
tan 0.001736 -0.995164 -0.110670 1.000000
tan -0.000186 -1.000558 -0.007874 1.000000
tan 0.000310 -1.004464 -0.040238 1.000000
tan -0.000248 -1.000248 -0.015748 1.000000
tan 0.018600 -0.993552 -0.116250 1.000000
tan -0.001736 -0.996466 0.086800 1.000000
tan 0.010044 -0.996590 -0.070308 1.000000
tan -0.062682 -1.005518 -0.037014 1.000000
tan -0.079236 -0.994048 -0.053320 1.000000
tan -0.010726 -0.996280 0.002914 1.000000
tan -0.046004 -1.003658 -0.031806 1.000000
tan -0.134664 -0.987910 -0.086800 1.000000
tan -0.150660 -0.982578 -0.084692 1.000000
tan -0.062496 -1.001488 -0.034038 1.000000
tan -0.091636 -0.992126 -0.048608 1.000000
tan -0.068820 -0.998388 -0.038440 1.000000
tan -0.152148 -0.977432 -0.111538 1.000000
tan 0.012648 -0.993800 0.009300 1.000000
tan -0.110236 -0.991010 -0.076074 1.000000
tan 0.055304 -1.000558 -0.006572 1.000000
tan -0.040114 -0.998512 0.000682 1.000000
tan 0.031620 -1.000248 -0.007378 1.000000
tan 0.015128 -0.998760 -0.004340 1.000000
tan 0.118854 -0.993118 -0.019716 1.000000
tan 0.130696 -0.986918 -0.028334 1.000000
tan 0.030504 -0.993800 -0.007440 1.000000
tan 0.061132 -0.996466 -0.017608 1.000000
tan 0.038440 -1.005456 -0.008990 1.000000
tan 0.141732 -0.988220 -0.008928 1.000000
tan -0.061690 -0.994792 0.014260 1.000000
tan 0.093930 -0.997148 -0.014508 1.000000
f 3/3/3 2/2/2 1/1/1
f 2/2/2 3/3/3 4/4/4
f 4/4/4 5/5/5 2/2/2
f 6/6/6 5/5/5 4/4/4
f 7/7/7 4/4/4 3/3/3
f 6/6/6 4/4/4 8/8/8
f 4/4/4 7/7/7 9/9/9
f 9/9/9 8/8/8 4/4/4
f 10/10/10 9/9/9 7/7/7
f 8/8/8 9/9/9 11/11/11
f 9/9/9 10/10/10 12/12/12
f 12/12/12 11/11/11 9/9/9
f 15/15/15 14/14/14 13/13/13
f 16/16/16 14/14/14 15/15/15
f 14/14/14 16/16/16 17/17/17
f 18/18/18 17/17/17 16/16/16
f 19/19/19 16/16/16 15/15/15
f 18/18/18 16/16/16 20/20/20
f 21/21/21 16/16/16 19/19/19
f 21/21/21 20/20/20 16/16/16
f 22/22/22 21/21/21 19/19/19
f 20/20/20 21/21/21 23/23/23
f 24/24/24 21/21/21 22/22/22
f 24/24/24 23/23/23 21/21/21
f 27/27/27 26/26/26 25/25/25
f 25/25/25 26/26/26 28/28/28
f 28/28/28 29/29/29 25/25/25
f 29/29/29 28/28/28 30/30/30
f 26/26/26 31/31/31 28/28/28
f 30/30/30 28/28/28 32/32/32
f 28/28/28 31/31/31 33/33/33
f 33/33/33 32/32/32 28/28/28
f 31/31/31 34/34/34 33/33/33
f 32/32/32 33/33/33 35/35/35
f 33/33/33 34/34/34 36/36/36
f 36/36/36 35/35/35 33/33/33
