mtllib SM_Foliage_Plant_01_LOD3.mtl
g SM_Foliage_Plant_01_LOD3
#Vertices 11
#Indices 15
#Section 0 Offset 0 NumIndices 15 MaterialIndex 0 MI_Foliage_A_01
v -0.031396 -0.099108 -0.004952
v 0.044859 1.043735 0.401749
v -0.092082 1.086913 -0.442604
v 0.488026 0.593034 -0.000000
v 0.175824 1.341100 0.014593
v -0.011644 -0.098379 0.031915
v -0.452039 1.086463 -0.031872
v 0.176414 1.337237 -0.101749
v 0.016265 -0.100265 0.022692
v 0.275816 0.591750 -0.404495
v -0.189665 1.086207 0.412237
vt 0.391357 0.591553
vt 0.489746 0.874756
vt 0.279541 0.886353
vt 0.513672 0.762817
vt 0.433105 0.948547
vt 0.391357 0.591553
vt 0.279541 0.886353
vt 0.433105 0.948547
vt 0.391357 0.591553
vt 0.513672 0.762817
vt 0.279541 0.886353
vt1 1.017578 0.563965
vt1 0.524902 0.387207
vt1 0.504395 0.764404
vt1 0.358643 0.443848
vt1 0.682129 0.298340
vt1 0.060333 0.223633
vt1 0.573730 0.023438
vt1 0.284912 0.990601
vt1 0.210205 0.368652
vt1 0.430176 0.667236
vt1 0.009796 0.882324
vn 0.968504 0.015748 -0.236220
vn 0.976378 0.110236 -0.165354
vn 1.000000 -0.015748 -0.031496
vn 0.141732 0.070866 -0.984252
vn 0.039370 0.070866 -1.000000
vn -0.023622 -0.007874 -1.000000
vn 0.188976 -0.039370 -0.984252
vn -0.834646 0.141732 -0.527559
vn -0.881890 0.055118 -0.472441
vn -0.779528 0.133858 -0.614173
vn -0.755906 0.031496 -0.653543
tan 0.015748 -0.968504 0.000000 1.000000
tan 0.110236 -0.976378 0.000000 1.000000
tan -0.015996 -1.000000 -0.007874 1.000000
tan 0.000000 -0.984252 -0.070866 1.000000
tan 0.000000 -1.000000 -0.070866 1.000000
tan 0.000000 -1.000000 0.007874 1.000000
tan -0.007750 -0.984252 0.037882 1.000000
tan -0.136462 -0.894538 -0.024428 1.000000
tan -0.062558 -0.885610 0.013454 1.000000
tan -0.129828 -0.970550 -0.046748 1.000000
tan -0.064542 -0.962366 0.028272 1.000000
f 3/3/3 2/2/2 1/1/1
f 6/6/6 5/5/5 4/4/4
f 5/5/5 6/6/6 7/7/7
f 10/10/10 9/9/9 8/8/8
f 8/8/8 9/9/9 11/11/11
