mtllib SM_Garden_Lights_LOD3.mtl
g SM_Garden_Lights_LOD3
#Vertices 347
#Indices 1857
#Section 0 Offset 0 NumIndices 1857 MaterialIndex 0 MI_Lightbulb
v -1.379094 4.392998 -0.134444
v -1.350428 4.421416 -0.213413
v -1.337376 4.412111 -0.134516
v -1.313643 4.418844 -0.215300
v -1.292724 4.394021 -0.134420
v -1.400300 4.389677 -0.218932
v -1.396687 4.349183 -0.134512
v -1.360457 4.438361 -0.261722
v -1.270651 4.387990 -0.219361
v -1.276878 4.361134 -0.134504
v -1.297377 4.430816 -0.262324
v -1.265060 4.338599 -0.213843
v -1.282696 4.322353 -0.134557
v -1.256693 4.390883 -0.261682
v -1.285509 4.298024 -0.217297
v -1.327026 4.288966 -0.134569
v -1.249536 4.329461 -0.260692
v -1.322718 4.267124 -0.261660
v -1.283897 4.280902 -0.261943
v -1.231335 4.366752 -0.323987
v -1.246554 4.295384 -0.318816
v -1.302063 4.255426 -0.315223
v -1.260979 4.425326 -0.335212
v -1.249655 4.317689 -0.376354
v -1.333658 4.458549 -0.330067
v -1.264002 4.379815 -0.393922
v -1.305751 4.421885 -0.393937
v -1.294412 4.266355 -0.370578
v -1.314169 4.313566 -0.424557
v -1.337026 4.374704 -0.428790
v -1.354526 4.247848 -0.322357
v -1.366730 4.265327 -0.379985
v -1.383377 4.331365 -0.415899
v -1.374421 4.429008 -0.385932
v -1.419355 4.387805 -0.380759
v -1.420476 4.309353 -0.369697
v -1.407520 4.424377 -0.317798
v -1.439325 4.367250 -0.320153
v -1.422419 4.291649 -0.320567
v -1.414409 4.390791 -0.261532
v -1.421938 4.325520 -0.261250
v -1.374213 4.271278 -0.261576
v -1.406027 4.336312 -0.213428
v -1.377581 4.307624 -0.134444
v -1.375071 4.287536 -0.217628
v -0.156661 5.157767 -0.213883
v -0.185914 5.127258 -0.134444
v -0.166934 5.167017 -0.134459
v -0.186599 5.109704 -0.214818
v -0.236481 5.108444 -0.134531
v -0.162596 5.202733 -0.217085
v -0.188500 5.218699 -0.134582
v -0.140481 5.149728 -0.261093
v -0.238132 5.099462 -0.216266
v -0.205376 5.241624 -0.218183
v -0.237882 5.229484 -0.134505
v -0.278297 5.118114 -0.217009
v -0.280809 5.141979 -0.134557
v -0.266887 5.232795 -0.216093
v -0.284416 5.198188 -0.134598
v -0.298421 5.158186 -0.213809
v -0.310918 5.194470 -0.261654
v -0.261259 5.255253 -0.260809
v -0.307678 5.132826 -0.262205
v -0.267665 5.091012 -0.262224
v -0.193973 5.086478 -0.260683
v -0.300928 5.095728 -0.327210
v -0.244619 5.066468 -0.332971
v -0.330860 5.153135 -0.321240
v -0.312556 5.236836 -0.333649
v -0.319183 5.166309 -0.382335
v -0.273500 5.105816 -0.393510
v -0.202954 5.104008 -0.404492
v -0.247815 5.153986 -0.425547
v -0.282961 5.204934 -0.407211
v -0.182554 5.075867 -0.336997
v -0.231255 5.198539 -0.424592
v -0.146803 5.110121 -0.314301
v -0.146351 5.120088 -0.363360
v -0.169528 5.170912 -0.416095
v -0.120938 5.179097 -0.332035
v -0.192644 5.251131 -0.385349
v -0.148277 5.208451 -0.261870
v -0.146727 5.211382 -0.374548
v -0.154477 5.243244 -0.319939
v -0.185871 5.248692 -0.261584
v -0.206732 5.272879 -0.318195
v -0.262849 5.267184 -0.320413
v -0.244387 5.255983 -0.382846
v 1.304016 4.293414 -0.215300
v 1.291771 4.323206 -0.134425
v 1.321432 4.296247 -0.134492
v 1.335653 4.279840 -0.216225
v 1.368929 4.293841 -0.134464
v 1.274662 4.331430 -0.216427
v 1.287116 4.361133 -0.134504
v 1.305377 4.272062 -0.261355
v 1.391280 4.294076 -0.213603
v 1.408324 4.340557 -0.134532
v 1.376774 4.266451 -0.261224
v 1.417127 4.340753 -0.216238
v 1.425623 4.312585 -0.262301
v 1.406487 4.392007 -0.213827
v 1.389332 4.392999 -0.134444
v 1.431132 4.380012 -0.260885
v 1.358966 4.421827 -0.212758
v 1.347330 4.412302 -0.134496
v 1.383789 4.430911 -0.262211
v 1.314629 4.416114 -0.216062
v 1.302761 4.393292 -0.134498
v 1.333080 4.437959 -0.260826
v 1.281600 4.384636 -0.216590
v 1.281887 4.411974 -0.262208
v 1.258550 4.361052 -0.260949
v 1.266529 4.312799 -0.261963
v 1.256284 4.402381 -0.318516
v 1.287248 4.262200 -0.321027
v 1.242005 4.333929 -0.322163
v 1.364411 4.248622 -0.316134
v 1.295041 4.269615 -0.378343
v 1.251172 4.352849 -0.371560
v 1.417971 4.278856 -0.315183
v 1.387266 4.266154 -0.370289
v 1.447597 4.331064 -0.319413
v 1.436796 4.318763 -0.368993
v 1.437363 4.406447 -0.324336
v 1.367741 4.303726 -0.416331
v 1.416670 4.360526 -0.404212
v 1.362113 4.454147 -0.319283
v 1.391411 4.425143 -0.388458
v 1.345953 4.373234 -0.429906
v 1.304064 4.338422 -0.422160
v 1.331809 4.438638 -0.380728
v 1.283397 4.414297 -0.383337
v 1.300049 4.442870 -0.316963
v 1.044842 4.690087 -0.134425
v 1.015042 4.702333 -0.215300
v 1.011221 4.735392 -0.134600
v 1.054676 4.671395 -0.220780
v 1.082740 4.685430 -0.134504
v 0.999670 4.754469 -0.214225
v 1.029753 4.787174 -0.134420
v 0.988345 4.707232 -0.261889
v 1.106664 4.679704 -0.217066
v 1.126824 4.712989 -0.134506
v 1.035149 4.808610 -0.218870
v 1.082000 4.806336 -0.134584
v 0.992760 4.782283 -0.262368
v 1.085081 4.829062 -0.262624
v 1.032892 4.823332 -0.261773
v 0.998385 4.817292 -0.325592
v 1.114584 4.801876 -0.215300
v 1.128969 4.768786 -0.134443
v 1.051813 4.848423 -0.337289
v 1.143826 4.763216 -0.214817
v 1.142371 4.801467 -0.261994
v 1.137896 4.713283 -0.216156
v 1.160014 4.735429 -0.261230
v 1.127361 4.671547 -0.261608
v 1.054583 4.657493 -0.260670
v 1.164101 4.698175 -0.316563
v 1.101686 4.641881 -0.321826
v 1.020915 4.653893 -0.319079
v 1.175156 4.761505 -0.318936
v 1.145784 4.683317 -0.366908
v 1.167624 4.748266 -0.372677
v 1.146976 4.817447 -0.341011
v 1.076953 4.650117 -0.374589
v 1.117286 4.716151 -0.415459
v 1.122941 4.784349 -0.406293
v 1.104308 4.841930 -0.319511
v 1.087034 4.819930 -0.398061
v 1.011654 4.805518 -0.382304
v 1.078484 4.764181 -0.426773
v 1.018827 4.765337 -0.412305
v 0.965886 4.752535 -0.341212
v 1.060646 4.702744 -0.423494
v 1.002782 4.691742 -0.385645
v 0.981491 4.698545 -0.314987
v 0.261304 5.241337 -0.219363
v 0.277417 5.218696 -0.134582
v 0.228033 5.229484 -0.134505
v 0.200610 5.235070 -0.218609
v 0.181585 5.198432 -0.134614
v 0.303331 5.202785 -0.217159
v 0.298982 5.167023 -0.134459
v 0.273654 5.254722 -0.260535
v 0.309257 5.157774 -0.213896
v 0.280003 5.127258 -0.134444
v 0.325141 5.192006 -0.261552
v 0.278692 5.109683 -0.214064
v 0.229367 5.108460 -0.134530
v 0.317755 5.132862 -0.262009
v 0.227786 5.099464 -0.216254
v 0.268711 5.085704 -0.261956
v 0.187622 5.118109 -0.216999
v 0.185107 5.141979 -0.134557
v 0.199168 5.090602 -0.261930
v 0.167487 5.158201 -0.213815
v 0.158363 5.133109 -0.261952
v 0.154282 5.195920 -0.262527
v 0.199196 5.250248 -0.261728
v 0.133459 5.181727 -0.327284
v 0.154345 5.233532 -0.330312
v 0.218167 5.272316 -0.315649
v 0.144998 5.118075 -0.339843
v 0.160229 5.183809 -0.392414
v 0.192715 5.247114 -0.385628
v 0.301985 5.258966 -0.332812
v 0.251775 5.257169 -0.383109
v 0.227552 5.187164 -0.430961
v 0.345421 5.176562 -0.340090
v 0.293498 5.208481 -0.404484
v 0.312336 5.096541 -0.330317
v 0.310250 5.130296 -0.392876
v 0.260139 5.137168 -0.423679
v 0.257497 5.069090 -0.314347
v 0.257015 5.078921 -0.368879
v 0.205255 5.072423 -0.326914
v 0.191864 5.109995 -0.401818
v -0.991257 4.733841 -0.216294
v -1.007639 4.719741 -0.134492
v -1.005123 4.767122 -0.134448
v -1.008341 4.695874 -0.216445
v -1.040413 4.686996 -0.134554
v -1.002184 4.789064 -0.218482
v -1.037985 4.799042 -0.134492
v -1.056112 4.671316 -0.215802
v -1.086928 4.689400 -0.134492
v -0.975635 4.731033 -0.261193
v -1.104345 4.686567 -0.215300
v -1.116584 4.716437 -0.134435
v -1.010732 4.669182 -0.262102
v -1.083544 4.657084 -0.261345
v -1.144810 4.709177 -0.262493
v -1.133470 4.756230 -0.211496
v -1.117583 4.772989 -0.134677
v -1.102845 4.805915 -0.215674
v -1.072497 4.803013 -0.134505
v -1.142466 4.782182 -0.262395
v -1.052116 4.815419 -0.216185
v -1.093295 4.827541 -0.260752
v -1.034925 4.826960 -0.261888
v -0.986485 4.792532 -0.261562
v -1.073849 4.849999 -0.325089
v -1.013246 4.833887 -0.314060
v -0.960769 4.775533 -0.323374
v -1.134019 4.817011 -0.315440
v -1.011249 4.824191 -0.364718
v -1.164650 4.762230 -0.318255
v -1.130716 4.811713 -0.366760
v -1.071666 4.828632 -0.385628
v -1.144152 4.673213 -0.338532
v -1.152110 4.739786 -0.382939
v -1.093074 4.764225 -0.427835
v -1.030789 4.767980 -0.425695
v -1.098553 4.694330 -0.408179
v -1.035972 4.693151 -0.413330
v -0.971514 4.753803 -0.383577
v -1.062676 4.646943 -0.368694
v -0.993427 4.678684 -0.366070
v -0.970918 4.698016 -0.318002
v -1.013393 4.653010 -0.315282
v -1.073935 4.641936 -0.316248
v -0.638952 5.105197 -0.215300
v -0.618024 5.080369 -0.134419
v -0.662691 5.098465 -0.134516
v -0.599320 5.077555 -0.216709
v -0.598760 5.029060 -0.134536
v -0.696646 5.103615 -0.216788
v -0.704402 5.079352 -0.134444
v -0.638418 5.123775 -0.261439
v -0.591274 5.009223 -0.215284
v -0.633199 4.983291 -0.134436
v -0.576508 5.072042 -0.260853
v -0.644665 4.966177 -0.215272
v -0.690649 4.981359 -0.134530
v -0.589050 4.979151 -0.262179
v -0.694103 4.972756 -0.216649
v -0.665572 4.948828 -0.261021
v -0.725992 5.006165 -0.215900
v -0.721740 5.034810 -0.134614
v -0.722113 4.973775 -0.262109
v -0.731722 5.049797 -0.211696
v -0.747813 5.022902 -0.261418
v -0.740809 5.077357 -0.261777
v -0.698884 5.117279 -0.262384
v -0.763983 5.011381 -0.317545
v -0.690619 5.140245 -0.318898
v -0.750903 5.087469 -0.317182
v -0.713461 4.947553 -0.321290
v -0.750959 5.070363 -0.368667
v -0.646435 4.934030 -0.315543
v -0.737488 4.992329 -0.386740
v -0.650240 4.942765 -0.379608
v -0.588918 4.965256 -0.314964
v -0.557872 5.021112 -0.319471
v -0.587537 4.986972 -0.383406
v -0.656716 5.010968 -0.428076
v -0.685610 5.057426 -0.431142
v -0.595037 5.040954 -0.407316
v -0.563668 5.079246 -0.346060
v -0.633047 5.118256 -0.390762
v -0.699308 5.128755 -0.363580
v -0.609857 5.127370 -0.316728
v 0.714169 5.080363 -0.134419
v 0.742008 5.049162 -0.211000
v 0.732338 5.025686 -0.134714
v 0.729209 4.991302 -0.215847
v 0.695686 4.982600 -0.134492
v 0.710306 5.100986 -0.217110
v 0.669502 5.098463 -0.134516
v 0.681633 4.966217 -0.216319
v 0.648201 4.980179 -0.134462
v 0.656430 5.107764 -0.213401
v 0.627807 5.079375 -0.134444
v 0.636922 4.956825 -0.262907
v 0.619684 5.087766 -0.214716
v 0.613559 4.995532 -0.215300
v 0.609729 5.026699 -0.134554
v 0.597691 5.043637 -0.215565
v 0.591545 4.999399 -0.262131
v 0.587208 5.072319 -0.261224
v 0.649178 5.124120 -0.261283
v 0.568407 5.020909 -0.318221
v 0.709104 5.117297 -0.262390
v 0.597910 4.962492 -0.329796
v 0.751109 5.077039 -0.261769
v 0.671016 5.139402 -0.317133
v 0.758114 5.023683 -0.261386
v 0.724208 5.129951 -0.342729
v 0.772849 5.065681 -0.318768
v 0.718182 4.958241 -0.262497
v 0.764076 4.984493 -0.339456
v 0.655098 4.932835 -0.322314
v 0.720031 4.947695 -0.313350
v 0.758134 5.067585 -0.375490
v 0.689199 4.945564 -0.372772
v 0.732541 5.005948 -0.405820
v 0.656014 4.960445 -0.396678
v 0.713463 5.073928 -0.412402
v 0.590497 5.002206 -0.380733
v 0.645209 5.035180 -0.434268
v 0.587273 5.084902 -0.373314
v 0.656445 5.123224 -0.386633
v 0.580641 5.085796 -0.317694
v 0.620783 5.127171 -0.314631
vt 0.096558 0.784424
vt 0.345215 0.864136
vt 0.414062 0.988525
vt 0.548828 0.881470
vt 0.783203 0.899414
vt 0.127808 0.649658
vt 0.007034 0.417480
vt 0.327148 0.837402
vt 0.792969 0.757080
vt 0.954590 0.661865
vt 0.596680 0.852051
vt 0.886719 0.496094
vt 0.955566 0.329590
vt 0.789551 0.719482
vt 0.810059 0.270996
vt 0.641602 0.020020
vt 0.866699 0.468262
vt 0.614746 0.163574
vt 0.757324 0.248047
vt 0.782227 0.598633
vt 0.787109 0.381348
vt 0.645508 0.227051
vt 0.661621 0.735107
vt 0.709473 0.452148
vt 0.454834 0.796387
vt 0.644043 0.581543
vt 0.540527 0.665527
vt 0.626953 0.311523
vt 0.547852 0.427734
vt 0.485352 0.547363
vt 0.487549 0.191406
vt 0.456299 0.289551
vt 0.403076 0.442383
vt 0.383057 0.661621
vt 0.290527 0.550537
vt 0.309570 0.367188
vt 0.248779 0.684082
vt 0.184448 0.500732
vt 0.269043 0.283691
vt 0.144775 0.608643
vt 0.160278 0.329590
vt 0.392090 0.145996
vt 0.131226 0.350586
vt 0.211060 0.101074
vt 0.340332 0.135254
vt 0.886230 0.452148
vt 0.849121 0.160645
vt 0.990234 0.498535
vt 0.748047 0.192871
vt 0.441406 0.000000
vt 0.828613 0.697754
vt 0.802246 0.894653
vt 0.866699 0.452637
vt 0.458984 0.116699
vt 0.598633 0.880493
vt 0.394775 0.976562
vt 0.243164 0.205566
vt 0.074097 0.247070
vt 0.253906 0.811890
vt 0.041107 0.716797
vt 0.116394 0.403320
vt 0.139526 0.558105
vt 0.311279 0.832275
vt 0.187134 0.304199
vt 0.369629 0.154785
vt 0.679199 0.169434
vt 0.341797 0.242188
vt 0.516602 0.208008
vt 0.209473 0.380371
vt 0.225830 0.624512
vt 0.294434 0.425781
vt 0.443604 0.329102
vt 0.594238 0.378906
vt 0.471924 0.449707
vt 0.358154 0.526367
vt 0.680176 0.281250
vt 0.468506 0.542969
vt 0.776855 0.369629
vt 0.724609 0.437012
vt 0.608887 0.543701
vt 0.777832 0.593018
vt 0.510254 0.695312
vt 0.802734 0.695801
vt 0.649414 0.648682
vt 0.660156 0.757202
vt 0.632324 0.841309
vt 0.492676 0.810791
vt 0.334961 0.756958
vt 0.397217 0.670410
vt 0.260010 0.198242
vt 0.059570 0.268066
vt 0.298828 0.052246
vt 0.420410 0.122070
vt 0.690918 0.041504
vt 0.118042 0.396484
vt 0.015091 0.581299
vt 0.295654 0.192871
vt 0.729492 0.183105
vt 0.995117 0.423340
vt 0.589844 0.141113
vt 0.873535 0.424805
vt 0.801270 0.306641
vt 0.822266 0.718750
vt 0.839844 0.847778
vt 0.855957 0.585693
vt 0.582031 0.884094
vt 0.488770 0.995453
vt 0.686035 0.807861
vt 0.336670 0.850830
vt 0.142578 0.841187
vt 0.475830 0.863892
vt 0.161865 0.696045
vt 0.262207 0.777100
vt 0.138184 0.584717
vt 0.155640 0.377930
vt 0.277344 0.717529
vt 0.266113 0.293945
vt 0.192749 0.529785
vt 0.471436 0.187988
vt 0.307373 0.378418
vt 0.291016 0.593994
vt 0.652832 0.235352
vt 0.501953 0.276367
vt 0.770508 0.362793
vt 0.662109 0.339844
vt 0.796875 0.575195
vt 0.470947 0.398438
vt 0.633301 0.434570
vt 0.621582 0.781982
vt 0.660645 0.597656
vt 0.528320 0.531494
vt 0.411865 0.541260
vt 0.558105 0.696289
vt 0.434082 0.694336
vt 0.431641 0.801025
vt 0.283447 0.054199
vt 0.187622 0.268555
vt 0.005836 0.400391
vt 0.394775 0.120117
vt 0.598145 0.024902
vt 0.097534 0.549805
vt 0.135132 0.835815
vt 0.148682 0.340332
vt 0.686523 0.161133
vt 0.937500 0.260742
vt 0.284180 0.831177
vt 0.549805 1.000373
vt 0.163086 0.652344
vt 0.545410 0.854492
vt 0.320068 0.823853
vt 0.277344 0.705078
vt 0.716309 0.815674
vt 0.942383 0.716553
vt 0.432861 0.779785
vt 0.874023 0.622559
vt 0.779785 0.740723
vt 0.847168 0.337402
vt 0.861328 0.465820
vt 0.726562 0.203125
vt 0.418213 0.135742
vt 0.775879 0.363281
vt 0.591309 0.202148
vt 0.349365 0.226562
vt 0.801270 0.560059
vt 0.677246 0.353027
vt 0.724121 0.512939
vt 0.690918 0.699463
vt 0.509766 0.278320
vt 0.592773 0.442871
vt 0.606445 0.588135
vt 0.581055 0.792969
vt 0.525391 0.666748
vt 0.352539 0.640381
vt 0.509766 0.541260
vt 0.382812 0.544678
vt 0.212646 0.517090
vt 0.472656 0.416504
vt 0.338379 0.379883
vt 0.219971 0.354492
vt 0.620605 0.874390
vt 0.795410 0.900330
vt 0.386230 0.974106
vt 0.280029 0.829102
vt 0.037079 0.711426
vt 0.836426 0.685059
vt 0.988770 0.507080
vt 0.631348 0.859009
vt 0.885742 0.438477
vt 0.854492 0.167480
vt 0.852051 0.607422
vt 0.733887 0.182617
vt 0.449219 0.000000
vt 0.829590 0.353027
vt 0.444580 0.116211
vt 0.641602 0.154785
vt 0.230957 0.213867
vt 0.079590 0.239746
vt 0.343506 0.164062
vt 0.112976 0.416504
vt 0.169678 0.332520
vt 0.144043 0.593262
vt 0.319824 0.824341
vt 0.195190 0.523193
vt 0.251221 0.672607
vt 0.426270 0.808105
vt 0.244751 0.352539
vt 0.315186 0.526855
vt 0.387695 0.670898
vt 0.665039 0.748779
vt 0.520996 0.697998
vt 0.469482 0.532471
vt 0.782227 0.527588
vt 0.610840 0.584473
vt 0.708496 0.298828
vt 0.655762 0.414062
vt 0.538574 0.432617
vt 0.566406 0.190918
vt 0.546387 0.280762
vt 0.412842 0.216309
vt 0.393799 0.368164
vt 0.878906 0.449219
vt 0.942871 0.304688
vt 0.954590 0.696289
vt 0.790527 0.247559
vt 0.686523 0.041016
vt 0.809570 0.742676
vt 0.690918 0.947906
vt 0.546875 0.110352
vt 0.299805 0.052246
vt 0.861816 0.452148
vt 0.278809 0.181641
vt 0.059998 0.267090
vt 0.719727 0.200684
vt 0.413330 0.135254
vt 0.159058 0.342285
vt 0.100403 0.557373
vt 0.056976 0.741211
vt 0.258057 0.818726
vt 0.401367 0.977722
vt 0.160522 0.648438
vt 0.545898 0.883545
vt 0.349121 0.843384
vt 0.598633 0.847656
vt 0.806641 0.705566
vt 0.456787 0.806763
vt 0.638672 0.778442
vt 0.789551 0.602539
vt 0.267822 0.717041
vt 0.614258 0.698486
vt 0.186646 0.546875
vt 0.317627 0.659912
vt 0.460693 0.698242
vt 0.278809 0.304199
vt 0.291504 0.483887
vt 0.434082 0.543457
vt 0.558105 0.555908
vt 0.425049 0.394531
vt 0.557129 0.400391
vt 0.708008 0.530762
vt 0.501465 0.268555
vt 0.667480 0.345215
vt 0.773926 0.366699
vt 0.648926 0.225586
vt 0.465332 0.190430
vt 0.609863 0.867676
vt 0.847168 0.844360
vt 0.498535 0.994843
vt 0.815918 0.729736
vt 0.993652 0.429688
vt 0.292236 0.847290
vt 0.150879 0.847900
vt 0.583008 0.862183
vt 0.875000 0.355957
vt 0.715820 0.058594
vt 0.842773 0.658203
vt 0.599121 0.119629
vt 0.247192 0.057617
vt 0.799805 0.270508
vt 0.317871 0.154785
vt 0.483398 0.129883
vt 0.149292 0.324707
vt 0.002100 0.476562
vt 0.248291 0.230469
vt 0.103760 0.566406
vt 0.135010 0.425293
vt 0.160889 0.656494
vt 0.328125 0.824707
vt 0.189331 0.403809
vt 0.391113 0.802612
vt 0.218994 0.637451
vt 0.354492 0.228516
vt 0.276611 0.563721
vt 0.553223 0.188965
vt 0.327393 0.387695
vt 0.532227 0.284668
vt 0.726074 0.291016
vt 0.804688 0.465820
vt 0.669434 0.393066
vt 0.509766 0.450684
vt 0.452393 0.534180
vt 0.645996 0.521484
vt 0.744141 0.625488
vt 0.545898 0.683838
vt 0.387451 0.717041
vt 0.632812 0.783081
vt 0.914062 0.758911
vt 0.893066 0.468750
vt 0.945801 0.282715
vt 0.739258 0.186523
vt 0.588867 0.020508
vt 0.785156 0.772949
vt 0.606934 0.983170
vt 0.462158 0.114746
vt 0.203491 0.094727
vt 0.507812 0.893433
vt 0.235474 0.915588
vt 0.269531 0.213867
vt 0.293213 0.833252
vt 0.137329 0.357910
vt -0.006924 0.519775
vt 0.116272 0.625244
vt 0.136719 0.427246
vt 0.194580 0.727539
vt 0.490967 0.875000
vt 0.183594 0.523926
vt 0.728027 0.781250
vt 0.243286 0.343262
vt 0.855957 0.580322
vt 0.566895 0.799072
vt 0.831543 0.352051
vt 0.682129 0.707275
vt 0.810059 0.515381
vt 0.607910 0.139648
vt 0.703125 0.302734
vt 0.375488 0.212402
vt 0.575684 0.193359
vt 0.711426 0.522217
vt 0.485352 0.274414
vt 0.608887 0.401367
vt 0.423828 0.337402
vt 0.601074 0.553955
vt 0.290527 0.461426
vt 0.446533 0.501221
vt 0.326904 0.650391
vt 0.503418 0.694580
vt 0.270020 0.707764
vt 0.415527 0.805298
vt1 0.946777 0.317871
vt1 0.868164 0.343262
vt1 0.846191 0.382812
vt1 0.803223 0.348633
vt1 0.729004 0.354492
vt1 0.937012 0.275391
vt1 0.975098 0.202148
vt1 0.873535 0.334961
vt1 0.726074 0.309570
vt1 0.674805 0.279297
vt1 0.788086 0.339355
vt1 0.696289 0.227051
vt1 0.674805 0.174316
vt1 0.727051 0.297363
vt1 0.720703 0.155762
vt1 0.773926 0.076172
vt1 0.702637 0.218262
vt1 0.782715 0.121582
vt1 0.737305 0.148438
vt1 0.729492 0.259277
vt1 0.728027 0.190430
vt1 0.772949 0.141602
vt1 0.767578 0.302246
vt1 0.752441 0.212891
vt1 0.833496 0.321777
vt1 0.773438 0.253906
vt1 0.806152 0.280273
vt1 0.778809 0.168457
vt1 0.803711 0.205078
vt1 0.823730 0.243164
vt1 0.822754 0.130371
vt1 0.833008 0.161621
vt1 0.849609 0.209961
vt1 0.855957 0.279297
vt1 0.885254 0.244141
vt1 0.879395 0.186035
vt1 0.898438 0.286621
vt1 0.918945 0.228516
vt1 0.892090 0.159668
vt1 0.931641 0.262695
vt1 0.926758 0.174316
vt1 0.853027 0.116211
vt1 0.935547 0.180664
vt1 0.910645 0.102051
vt1 0.869629 0.112793
vt1 0.624023 0.823486
vt1 0.611816 0.730957
vt1 0.656738 0.838013
vt1 0.580078 0.741211
vt1 0.482910 0.680176
vt1 0.605469 0.901306
vt1 0.597168 0.963776
vt1 0.617676 0.823486
vt1 0.488525 0.717041
vt1 0.532715 0.959290
vt1 0.468018 0.989761
vt1 0.419922 0.745117
vt1 0.366455 0.758301
vt1 0.423340 0.937531
vt1 0.355957 0.907349
vt1 0.379639 0.807861
vt1 0.386963 0.857056
vt1 0.441650 0.943970
vt1 0.402100 0.776489
vt1 0.459961 0.729248
vt1 0.558105 0.733887
vt1 0.451416 0.756836
vt1 0.506836 0.746094
vt1 0.409180 0.800659
vt1 0.414551 0.878052
vt1 0.436279 0.814941
vt1 0.483643 0.784302
vt1 0.531250 0.800171
vt1 0.492432 0.822632
vt1 0.456543 0.846924
vt1 0.558594 0.769165
vt1 0.491455 0.852295
vt1 0.589355 0.797241
vt1 0.572754 0.818604
vt1 0.536133 0.852539
vt1 0.589355 0.868164
vt1 0.504395 0.900513
vt1 0.597168 0.900635
vt1 0.548828 0.885742
vt1 0.552246 0.920166
vt1 0.543457 0.946838
vt1 0.499268 0.937195
vt1 0.448975 0.920105
vt1 0.468750 0.892639
vt1 0.087036 0.742432
vt1 0.023254 0.764526
vt1 0.099365 0.696045
vt1 0.138062 0.718018
vt1 0.224121 0.692627
vt1 0.041870 0.805420
vt1 0.009102 0.864136
vt1 0.098389 0.740723
vt1 0.236328 0.737549
vt1 0.320801 0.813843
vt1 0.192017 0.724365
vt1 0.282227 0.814331
vt1 0.259277 0.776733
vt1 0.265869 0.907776
vt1 0.271484 0.948761
vt1 0.276611 0.865479
vt1 0.189453 0.960297
vt1 0.159790 0.995689
vt1 0.222656 0.936096
vt1 0.111450 0.949707
vt1 0.049683 0.946655
vt1 0.155640 0.953888
vt1 0.055817 0.900513
vt1 0.087769 0.926270
vt1 0.048279 0.865234
vt1 0.053833 0.799438
vt1 0.092590 0.907349
vt1 0.088989 0.772705
vt1 0.065613 0.847656
vt1 0.154297 0.739014
vt1 0.102173 0.799561
vt1 0.096924 0.868042
vt1 0.212158 0.754150
vt1 0.164062 0.767090
vt1 0.249390 0.794556
vt1 0.214966 0.787354
vt1 0.257812 0.862183
vt1 0.154053 0.805908
vt1 0.205811 0.817383
vt1 0.202148 0.927856
vt1 0.214600 0.869263
vt1 0.172363 0.848267
vt1 0.135254 0.851318
vt1 0.182007 0.900574
vt1 0.142456 0.900024
vt1 0.141602 0.933960
vt1 0.593750 0.391113
vt1 0.563477 0.459473
vt1 0.505859 0.500977
vt1 0.628906 0.412109
vt1 0.693359 0.381836
vt1 0.534668 0.548340
vt1 0.546875 0.638916
vt1 0.551270 0.481934
vt1 0.721680 0.425293
vt1 0.800781 0.457031
vt1 0.594238 0.637451
vt1 0.678223 0.690918
vt1 0.555664 0.580811
vt1 0.676758 0.644775
vt1 0.605469 0.635010
vt1 0.591797 0.597412
vt1 0.730957 0.632568
vt1 0.802246 0.601074
vt1 0.641113 0.621094
vt1 0.780762 0.571289
vt1 0.750977 0.608643
vt1 0.772461 0.480957
vt1 0.776855 0.521729
vt1 0.733887 0.438477
vt1 0.636230 0.416992
vt1 0.749512 0.489258
vt1 0.691406 0.437988
vt1 0.614746 0.445801
vt1 0.757812 0.551514
vt1 0.718262 0.485840
vt1 0.733398 0.536621
vt1 0.722656 0.595703
vt1 0.665527 0.462402
vt1 0.691895 0.514404
vt1 0.696289 0.560303
vt1 0.687988 0.625244
vt1 0.670410 0.585205
vt1 0.615723 0.576904
vt1 0.665527 0.545654
vt1 0.625000 0.546631
vt1 0.571289 0.537842
vt1 0.653809 0.506104
vt1 0.611328 0.494629
vt1 0.573730 0.486328
vt1 0.200684 0.344727
vt1 0.255859 0.353027
vt1 0.126343 0.376465
vt1 0.092834 0.330566
vt1 0.015915 0.293457
vt1 0.268799 0.284668
vt1 0.317139 0.228516
vt1 0.204102 0.339844
vt1 0.284424 0.206543
vt1 0.274658 0.121094
vt1 0.273926 0.260254
vt1 0.236572 0.125488
vt1 0.146362 0.067871
vt1 0.266846 0.179688
vt1 0.144897 0.104492
vt1 0.207275 0.116699
vt1 0.077271 0.135742
vt1 0.029373 0.143555
vt1 0.112915 0.119629
vt1 0.039948 0.199707
vt1 0.057892 0.173340
vt1 0.049774 0.255859
vt1 0.105408 0.329102
vt1 0.065979 0.233398
vt1 0.083740 0.280762
vt1 0.139160 0.323730
vt1 0.081665 0.179688
vt1 0.103943 0.234863
vt1 0.126831 0.280273
vt1 0.214722 0.305176
vt1 0.169189 0.289062
vt1 0.152832 0.236328
vt1 0.251709 0.234863
vt1 0.197632 0.252930
vt1 0.228516 0.162598
vt1 0.211792 0.198730
vt1 0.174683 0.204590
vt1 0.183472 0.128418
vt1 0.177124 0.156738
vt1 0.134888 0.136230
vt1 0.128784 0.184570
vt1 0.943359 0.822388
vt1 0.963867 0.776489
vt1 0.967285 0.900818
vt1 0.915527 0.758545
vt1 0.882812 0.693115
vt1 0.921387 0.915527
vt1 0.883789 0.980606
vt1 0.838379 0.715088
vt1 0.760254 0.696533
vt1 0.937988 0.823486
vt1 0.753418 0.737793
vt1 0.684570 0.764771
vt1 0.893066 0.743652
vt1 0.796387 0.722900
vt1 0.715820 0.788574
vt1 0.697266 0.856812
vt1 0.683594 0.915039
vt1 0.747070 0.939636
vt1 0.792480 0.990059
vt1 0.716309 0.885681
vt1 0.837891 0.960205
vt1 0.775879 0.947449
vt1 0.854980 0.948792
vt1 0.920410 0.903748
vt1 0.810059 0.935852
vt1 0.867676 0.926880
vt1 0.915039 0.871094
vt1 0.750000 0.907349
vt1 0.859863 0.901489
vt1 0.724609 0.853516
vt1 0.766113 0.889221
vt1 0.811035 0.901428
vt1 0.753418 0.776489
vt1 0.757812 0.833374
vt1 0.802734 0.852417
vt1 0.841797 0.856323
vt1 0.799805 0.805176
vt1 0.841797 0.807007
vt1 0.889160 0.848389
vt1 0.824219 0.765137
vt1 0.876465 0.789429
vt1 0.910156 0.796265
vt1 0.870605 0.751465
vt1 0.812500 0.740479
vt1 0.358643 0.648926
vt1 0.433838 0.641602
vt1 0.323242 0.689209
vt1 0.423828 0.605225
vt1 0.480225 0.510010
vt1 0.258057 0.642334
vt1 0.213379 0.642578
vt1 0.350098 0.647217
vt1 0.442627 0.486816
vt1 0.392090 0.392578
vt1 0.432373 0.582520
vt1 0.355225 0.411621
vt1 0.243774 0.392090
vt1 0.418701 0.459473
vt1 0.266113 0.422852
vt1 0.318604 0.415039
vt1 0.212769 0.477051
vt1 0.166138 0.524902
vt1 0.244141 0.446777
vt1 0.198364 0.553223
vt1 0.208252 0.508545
vt1 0.216431 0.582031
vt1 0.269287 0.635254
vt1 0.225464 0.501709
vt1 0.289307 0.628174
vt1 0.234863 0.575928
vt1 0.277588 0.446289
vt1 0.253174 0.552490
vt1 0.340576 0.434082
vt1 0.269043 0.496582
vt1 0.333984 0.463867
vt1 0.395508 0.466309
vt1 0.420410 0.521484
vt1 0.377441 0.498535
vt1 0.326904 0.516602
vt1 0.308838 0.543213
vt1 0.370117 0.539062
vt1 0.401123 0.572021
vt1 0.338379 0.590576
vt1 0.288086 0.601074
vt1 0.365723 0.622070
vt1 0.615723 0.308594
vt1 0.609375 0.216797
vt1 0.625977 0.157715
vt1 0.560547 0.127441
vt1 0.512695 0.074707
vt1 0.575195 0.312988
vt1 0.518555 0.379395
vt1 0.472656 0.104492
vt1 0.390869 0.098633
vt1 0.487305 0.351074
vt1 0.400879 0.358398
vt1 0.411621 0.136230
vt1 0.419189 0.332031
vt1 0.369873 0.181641
vt1 0.324219 0.232910
vt1 0.363037 0.266113
vt1 0.369629 0.203613
vt1 0.387939 0.298828
vt1 0.481934 0.345215
vt1 0.384521 0.234375
vt1 0.557129 0.315430
vt1 0.403320 0.176758
vt1 0.597168 0.251953
vt1 0.505859 0.321289
vt1 0.589844 0.179688
vt1 0.542480 0.292480
vt1 0.583008 0.231445
vt1 0.519043 0.112793
vt1 0.548828 0.164062
vt1 0.445312 0.135742
vt1 0.508789 0.129395
vt1 0.551758 0.233887
vt1 0.479980 0.155273
vt1 0.519043 0.195312
vt1 0.460693 0.175293
vt1 0.516602 0.243652
vt1 0.418457 0.214355
vt1 0.467773 0.227051
vt1 0.429932 0.274414
vt1 0.485840 0.288086
vt1 0.411865 0.292480
vt1 0.458008 0.323242
vn -0.708661 0.692913 0.141732
vn -0.204724 0.960630 0.188976
vn -0.015748 0.992126 0.141732
vn 0.299213 0.929134 0.196850
vn 0.700787 0.700787 0.141732
vn -0.834646 0.511811 0.196850
vn -0.992126 -0.023622 0.141732
vn -0.259843 0.897638 0.362205
vn 0.850394 0.496063 0.196850
vn 0.976378 0.173228 0.149606
vn 0.401575 0.834646 0.370079
vn 0.968504 -0.173228 0.188976
vn 0.866142 -0.480315 0.141732
vn 0.826772 0.417323 0.370079
vn 0.677165 -0.708661 0.196850
vn 0.133858 -0.984252 0.141732
vn 0.905512 -0.228346 0.362205
vn 0.149606 -0.929134 0.330709
vn 0.551181 -0.748031 0.370079
vn 0.992126 0.149606 0.015748
vn 0.850394 -0.527559 0.055118
vn 0.330709 -0.937008 0.078740
vn 0.708661 0.700787 -0.078740
vn 0.818898 -0.314961 -0.472441
vn 0.015748 1.000000 -0.039370
vn 0.700787 0.283464 -0.653543
vn 0.291339 0.692913 -0.653543
vn 0.393701 -0.811024 -0.425197
vn 0.212598 -0.370079 -0.905512
vn -0.023622 0.244094 -0.968504
vn -0.181102 -0.984252 0.031496
vn -0.291339 -0.811024 -0.503937
vn -0.472441 -0.196850 -0.858268
vn -0.370079 0.740157 -0.559055
vn -0.787402 0.346457 -0.511811
vn -0.818898 -0.401575 -0.417323
vn -0.700787 0.716535 0.062992
vn -0.984252 0.157480 0.047244
vn -0.826772 -0.566929 0.039370
vn -0.826772 0.417323 0.370079
vn -0.889764 -0.267716 0.362205
vn -0.409449 -0.834646 0.370079
vn -0.960630 -0.204724 0.188976
vn -0.692913 -0.708661 0.141732
vn -0.527559 -0.826772 0.196850
vn 0.968504 -0.181102 0.188976
vn 0.692913 -0.708661 0.141732
vn 0.992126 -0.047244 0.141732
vn 0.566929 -0.803149 0.188976
vn -0.133858 -0.984252 0.141732
vn 0.874016 0.433071 0.196850
vn 0.629921 0.763779 0.141732
vn 0.905512 -0.220472 0.362205
vn -0.149606 -0.968504 0.196850
vn 0.307087 0.929134 0.196850
vn -0.173228 0.976378 0.149606
vn -0.685039 -0.700787 0.196850
vn -0.866142 -0.480315 0.141732
vn -0.535433 0.818897 0.196850
vn -0.889764 0.440945 0.141732
vn -0.968504 -0.173228 0.188976
vn -0.905512 0.259843 0.338583
vn -0.354331 0.866142 0.362205
vn -0.842520 -0.401575 0.370079
vn -0.417323 -0.826771 0.370079
vn 0.354331 -0.866142 0.362205
vn -0.700787 -0.716535 -0.015748
vn -0.157480 -0.984252 -0.055118
vn -0.984252 -0.173228 0.031496
vn -0.787402 0.614173 -0.062992
vn -0.850394 -0.039370 -0.519685
vn -0.440945 -0.622047 -0.645669
vn 0.236220 -0.637795 -0.732283
vn -0.212598 -0.181102 -0.960630
vn -0.535433 0.330709 -0.771653
vn 0.433071 -0.897638 -0.094488
vn -0.039370 0.307086 -0.952756
vn 0.795276 -0.598425 0.086614
vn 0.795276 -0.488189 -0.362205
vn 0.559055 -0.000000 -0.826772
vn 0.992126 0.078740 -0.047244
vn 0.330709 0.763779 -0.559055
vn 0.842520 0.401575 0.370079
vn 0.787402 0.393701 -0.472441
vn 0.708661 0.700787 0.047244
vn 0.440945 0.818898 0.370079
vn 0.204724 0.976378 0.062992
vn -0.338583 0.937008 0.047244
vn -0.157480 0.826771 -0.543307
vn -0.574803 -0.795275 0.196850
vn -0.881890 -0.456693 0.141732
vn -0.409449 -0.905512 0.141732
vn -0.149606 -0.968504 0.196850
vn 0.370079 -0.913386 0.141732
vn -0.937008 -0.275590 0.196850
vn -0.976378 0.173228 0.149606
vn -0.425197 -0.826771 0.362205
vn 0.614173 -0.763779 0.188976
vn 0.976378 -0.165354 0.141732
vn 0.322835 -0.874016 0.362205
vn 0.968504 -0.149606 0.196850
vn 0.834646 -0.409449 0.370079
vn 0.803150 0.566929 0.188976
vn 0.708661 0.692913 0.141732
vn 0.881890 0.307087 0.362205
vn 0.181102 0.968504 0.188976
vn 0.015748 0.992126 0.141732
vn 0.401575 0.842520 0.370079
vn -0.433071 0.881890 0.196850
vn -0.700787 0.692913 0.141732
vn -0.141732 0.921260 0.370079
vn -0.866142 0.456693 0.196850
vn -0.669291 0.637795 0.370079
vn -0.921260 0.110236 0.370079
vn -0.834646 -0.409449 0.370079
vn -0.866142 0.496063 0.055118
vn -0.551181 -0.834646 0.039370
vn -0.984252 -0.165354 0.031496
vn 0.173228 -0.984252 0.078740
vn -0.464567 -0.748031 -0.472441
vn -0.905512 0.015748 -0.433071
vn 0.708661 -0.708661 0.078740
vn 0.393701 -0.818898 -0.417323
vn 0.976378 -0.196850 0.047244
vn 0.858268 -0.307087 -0.401575
vn 0.858268 0.511811 0.007874
vn 0.212598 -0.464567 -0.858268
vn 0.677165 0.086614 -0.732283
vn 0.157480 0.984252 0.055118
vn 0.425197 0.692913 -0.574803
vn 0.007874 0.236220 -0.968504
vn -0.409449 -0.133858 -0.897638
vn -0.133858 0.842520 -0.519685
vn -0.590551 0.598425 -0.535433
vn -0.448819 0.889764 0.062992
vn -0.456693 -0.881890 0.141732
vn -0.795276 -0.574803 0.196850
vn -0.976378 -0.149606 0.141732
vn -0.251969 -0.944882 0.196850
vn 0.173228 -0.976378 0.149606
vn -0.968504 0.141732 0.188976
vn -0.700787 0.700787 0.141732
vn -0.850394 -0.377953 0.362205
vn 0.464567 -0.866142 0.196850
vn 0.858268 -0.496063 0.141732
vn -0.503937 0.842520 0.196850
vn 0.141732 0.976378 0.141732
vn -0.842520 0.401575 0.370079
vn 0.141732 0.929134 0.338583
vn -0.425197 0.826772 0.370079
vn -0.716535 0.700787 -0.000000
vn 0.574803 0.795275 0.196850
vn 0.905512 0.401575 0.141732
vn -0.196850 0.976378 -0.094488
vn 0.944882 0.267717 0.188976
vn 0.724409 0.590551 0.362205
vn 0.881890 -0.425197 0.196850
vn 0.921260 -0.102362 0.370079
vn 0.559055 -0.748031 0.362205
vn -0.204724 -0.913386 0.362205
vn 0.889764 -0.448819 0.070866
vn 0.275591 -0.960630 0.031496
vn -0.496063 -0.866142 0.055118
vn 0.984252 0.165354 0.055118
vn 0.708661 -0.590551 -0.393701
vn 0.897638 0.039370 -0.433071
vn 0.708661 0.692913 -0.133858
vn 0.039370 -0.889764 -0.456693
vn 0.440945 -0.283465 -0.850394
vn 0.496063 0.393701 -0.771653
vn 0.307087 0.952756 0.055118
vn 0.133858 0.724409 -0.677165
vn -0.590551 0.598425 -0.543307
vn 0.062992 0.228346 -0.968504
vn -0.527559 0.204724 -0.826772
vn -0.992126 0.078740 -0.125984
vn -0.118110 -0.409449 -0.905512
vn -0.661417 -0.496063 -0.559055
vn -0.889764 -0.448819 0.078740
vn 0.322835 0.921260 0.196850
vn 0.629921 0.763779 0.141732
vn -0.173228 0.976378 0.149606
vn -0.503937 0.842520 0.196850
vn -0.881890 0.448819 0.141732
vn 0.874016 0.440945 0.196850
vn 0.992126 -0.047244 0.141732
vn 0.362205 0.858268 0.354331
vn 0.968504 -0.181102 0.188976
vn 0.692913 -0.708661 0.141732
vn 0.905512 0.228346 0.362205
vn 0.559055 -0.811023 0.188976
vn -0.133858 -0.984252 0.141732
vn 0.842520 -0.401575 0.370079
vn -0.149606 -0.968504 0.196850
vn 0.322835 -0.874016 0.362205
vn -0.685039 -0.700787 0.196850
vn -0.866142 -0.480315 0.141732
vn -0.409449 -0.834646 0.370079
vn -0.968504 -0.173228 0.188976
vn -0.842520 -0.401575 0.370079
vn -0.905512 0.267717 0.338583
vn -0.409449 0.834646 0.370079
vn -0.992126 0.102362 -0.007874
vn -0.803150 0.598425 -0.039370
vn -0.188976 0.976378 0.078740
vn -0.866142 -0.488189 -0.118110
vn -0.755906 0.125984 -0.637795
vn -0.425197 0.716535 -0.551181
vn 0.582677 0.811023 -0.055118
vn 0.133858 0.826771 -0.543307
vn -0.118110 0.173228 -0.976378
vn 0.992126 0.055118 -0.110236
vn 0.543307 0.370079 -0.755905
vn 0.708661 -0.708661 -0.039370
vn 0.685039 -0.377953 -0.622047
vn 0.220472 -0.330709 -0.913386
vn 0.188976 -0.976378 0.086614
vn 0.181102 -0.889764 -0.409449
vn -0.314961 -0.944882 -0.007874
vn -0.433071 -0.566929 -0.700787
vn 0.968504 -0.149606 0.196850
vn 0.905512 -0.409449 0.141732
vn 0.913386 0.370079 0.141732
vn 0.724409 -0.653543 0.196850
vn 0.362205 -0.921260 0.141732
vn 0.787402 0.582677 0.196850
vn 0.409449 0.905512 0.141732
vn 0.094488 -0.976378 0.196850
vn -0.409449 -0.905512 0.141732
vn 0.921260 -0.141732 0.370079
vn -0.574803 -0.795275 0.196850
vn -0.881890 -0.456693 0.141732
vn 0.535433 -0.763779 0.362205
vn -0.220472 -0.905512 0.362205
vn -0.866142 -0.370079 0.338583
vn -0.968504 0.165354 0.188976
vn -0.866142 0.472441 0.141732
vn -0.551181 0.811023 0.188976
vn -0.173228 0.976378 0.149606
vn -0.842520 0.401575 0.370079
vn 0.149606 0.968504 0.196850
vn -0.330709 0.866142 0.370079
vn 0.291339 0.881890 0.370079
vn 0.787402 0.496063 0.362205
vn -0.102362 0.992126 0.007874
vn 0.480315 0.874016 0.086614
vn 0.952756 0.299213 0.023622
vn -0.700787 0.708661 0.078740
vn 0.503937 0.779527 -0.370079
vn -0.984252 0.173228 0.055118
vn -0.653543 0.645669 -0.385827
vn -0.086614 0.818897 -0.574803
vn -0.748031 -0.653543 -0.102362
vn -0.850394 -0.039370 -0.527559
vn -0.307087 0.188976 -0.937008
vn 0.314961 0.228346 -0.921260
vn -0.354331 -0.496063 -0.795275
vn 0.259843 -0.496063 -0.826771
vn 0.842520 0.086614 -0.527559
vn 0.000000 -0.921260 -0.393701
vn 0.669291 -0.637795 -0.385827
vn 0.889764 -0.448819 0.055118
vn 0.472441 -0.881890 0.078740
vn -0.110236 -0.992126 0.070866
vn 0.299213 0.929134 0.196850
vn 0.700787 0.700787 0.141732
vn -0.015748 0.992126 0.141732
vn 0.811024 0.551181 0.196850
vn 0.984252 -0.125984 0.141732
vn -0.472441 0.858268 0.188976
vn -0.708661 0.692913 0.141732
vn 0.244094 0.897638 0.362205
vn 0.913386 -0.362205 0.188976
vn 0.456693 -0.881890 0.141732
vn 0.858268 0.362205 0.362205
vn 0.236220 -0.952756 0.188976
vn -0.464567 -0.874016 0.141732
vn 0.732283 -0.582677 0.354331
vn -0.448819 -0.866142 0.196850
vn -0.055118 -0.929134 0.370079
vn -0.881890 -0.433071 0.196850
vn -0.992126 -0.055118 0.141732
vn -0.645669 -0.669291 0.370079
vn -0.968504 0.173228 0.188976
vn -0.913386 -0.157480 0.370079
vn -0.826772 0.417323 0.370079
vn -0.401575 0.842520 0.370079
vn -0.968504 -0.244094 0.062992
vn -0.275591 0.960630 0.055118
vn -0.874016 0.488189 0.062992
vn -0.503937 -0.858268 0.039370
vn -0.858268 0.314961 -0.401575
vn 0.141732 -0.984252 0.078740
vn -0.716535 -0.417323 -0.559055
vn 0.094488 -0.866142 -0.488189
vn 0.708661 -0.708661 0.078740
vn 0.984252 -0.157480 0.055118
vn 0.700787 -0.472441 -0.535433
vn 0.039370 -0.275591 -0.960630
vn -0.236220 0.196850 -0.952756
vn 0.637795 0.031496 -0.771653
vn 0.905512 0.385827 -0.173228
vn 0.259843 0.755905 -0.598425
vn -0.362205 0.866142 -0.354331
vn 0.488189 0.866142 0.070866
vn 0.700787 0.700787 0.141732
vn 0.968504 0.165354 0.188976
vn 0.968504 -0.196850 0.141732
vn 0.771654 -0.606299 0.188976
vn 0.409449 -0.905512 0.141732
vn 0.519685 0.834646 0.196850
vn -0.015748 0.992126 0.141732
vn 0.149606 -0.968504 0.196850
vn -0.370079 -0.913386 0.141732
vn -0.204724 0.960630 0.188976
vn -0.708661 0.692913 0.141732
vn -0.377953 -0.866142 0.338583
vn -0.700787 0.685039 0.196850
vn -0.795276 -0.574803 0.196850
vn -0.976378 -0.181102 0.141732
vn -0.976378 0.070866 0.188976
vn -0.834646 -0.401575 0.370079
vn -0.858268 0.362205 0.362205
vn -0.236220 0.905512 0.362205
vn -0.984252 -0.157480 0.062992
vn 0.401575 0.842520 0.370079
vn -0.700787 -0.716535 -0.031496
vn 0.834646 0.417323 0.370079
vn 0.000000 1.000000 0.070866
vn 0.913386 -0.149606 0.370079
vn 0.488189 0.858268 -0.141732
vn 0.960630 0.267716 0.055118
vn 0.480315 -0.795275 0.362205
vn 0.866142 -0.496063 -0.110236
vn -0.149606 -0.984252 0.031496
vn 0.472441 -0.874016 0.086614
vn 0.834646 0.291339 -0.472441
vn 0.173228 -0.881890 -0.440945
vn 0.590551 -0.299213 -0.748031
vn -0.149606 -0.732283 -0.661417
vn 0.417323 0.362205 -0.834646
vn -0.779528 -0.338583 -0.527559
vn -0.244094 -0.023622 -0.968504
vn -0.787402 0.440945 -0.433071
vn -0.141732 0.811023 -0.566929
vn -0.881890 0.472441 0.062992
vn -0.488189 0.866142 0.078740
tan -0.700725 -0.710893 -0.028148 1.000000
tan -0.884990 -0.115692 -0.370637 1.000000
tan -0.437473 0.120280 -0.890570 1.000000
tan 0.493707 0.011904 -0.806621 1.000000
tan 0.709715 -0.704135 -0.027590 1.000000
tan -0.526381 -0.832724 -0.066774 1.000000
tan 0.028086 -0.992126 0.031248 1.000000
tan -0.834026 -0.104532 -0.339265 1.000000
tan 0.515407 -0.849898 -0.084816 1.000000
tan 0.179118 -0.976378 -0.038440 1.000000
tan 0.698803 -0.125116 -0.476099 1.000000
tan -0.180668 -0.968504 0.038130 1.000000
tan -0.491475 -0.867258 0.064418 1.000000
tan 0.499969 -0.805878 -0.208196 1.000000
tan -0.721061 -0.684915 0.014756 1.000000
tan -0.666501 0.013144 0.720751 1.000000
tan -0.277885 -0.898382 0.128340 1.000000
tan -0.760865 0.067580 0.534069 1.000000
tan -0.780024 -0.573067 0.003410 1.000000
tan 0.150412 -0.984314 -0.124992 1.000000
tan -0.529295 -0.851262 0.018476 1.000000
tan -0.833716 -0.258292 0.427925 1.000000
tan 0.701407 -0.709901 -0.005456 1.000000
tan -0.424081 -0.796825 -0.203856 1.000000
tan -0.267717 -0.033604 -0.960630 1.000000
tan -0.448633 -0.506727 -0.700849 1.000000
tan 0.027900 -0.669601 -0.697501 1.000000
tan -0.510881 -0.579453 0.632215 1.000000
tan 0.035650 -0.905512 0.378449 1.000000
tan -0.038130 -0.968504 -0.243164 1.000000
tan 0.124000 0.008432 0.976502 1.000000
tan 0.138074 -0.544175 0.795958 1.000000
tan -0.501643 -0.692355 0.434931 1.000000
tan -0.243350 -0.647715 -0.696447 1.000000
tan -0.461777 -0.796701 0.171120 1.000000
tan 0.228408 -0.777171 0.299647 1.000000
tan -0.717527 -0.701283 -0.005394 1.000000
tan -0.157852 -0.984252 -0.007750 1.000000
tan 0.570029 -0.828012 0.047244 1.000000
tan -0.480687 -0.819580 -0.149668 1.000000
tan 0.350549 -0.864592 0.222085 1.000000
tan 0.705375 -0.140678 0.463141 1.000000
tan 0.222456 -0.953066 0.098332 1.000000
tan 0.718705 -0.694029 0.043524 1.000000
tan 0.792362 -0.445285 0.253333 1.000000
tan -0.201996 -0.960878 0.114390 1.000000
tan -0.717589 -0.694029 0.038068 1.000000
tan -0.055056 -0.992126 0.054684 1.000000
tan -0.807614 -0.562465 0.032364 1.000000
tan 0.310001 0.092876 0.937752 1.000000
tan 0.449811 -0.868684 -0.086056 1.000000
tan 0.768244 -0.628805 -0.025854 1.000000
tan -0.321285 -0.862732 0.278071 1.000000
tan 0.373675 0.123628 0.892244 1.000000
tan 0.696571 -0.099510 -0.616963 1.000000
tan -0.622729 0.004960 -0.753425 1.000000
tan 0.714737 -0.694339 0.015438 1.000000
tan 0.491475 -0.867258 0.064418 1.000000
tan -0.821998 -0.526133 -0.047120 1.000000
tan -0.450989 -0.891996 -0.056110 1.000000
tan 0.176204 -0.968504 0.015252 1.000000
tan -0.348875 -0.862732 -0.270940 1.000000
tan -0.800794 -0.183830 -0.343791 1.000000
tan 0.450865 -0.841714 0.113088 1.000000
tan 0.783434 -0.262818 0.296299 1.000000
tan -0.807614 -0.192324 0.330151 1.000000
tan 0.716535 -0.701159 0.016926 1.000000
tan -0.108500 -0.037324 0.976502 1.000000
tan 0.172732 -0.984252 -0.015500 1.000000
tan -0.612189 -0.786905 -0.019964 1.000000
tan -0.362391 -0.569161 0.636121 1.000000
tan -0.017856 -0.684109 0.671275 1.000000
tan -0.015066 -0.737863 0.637795 1.000000
tan -0.370637 -0.884990 0.248869 1.000000
tan -0.384525 -0.787773 -0.070804 1.000000
tan -0.862298 -0.442061 0.247381 1.000000
tan -0.262571 -0.915246 -0.284146 1.000000
tan -0.602579 -0.787649 0.090830 1.000000
tan -0.462521 -0.800979 0.064046 1.000000
tan -0.781202 -0.269205 -0.528241 1.000000
tan 0.081716 -0.992126 0.062496 1.000000
tan 0.072168 -0.585901 -0.757765 1.000000
tan 0.450865 -0.841714 -0.113088 1.000000
tan 0.201500 -0.763841 -0.300700 1.000000
tan 0.701903 -0.709033 -0.011222 1.000000
tan 0.811210 -0.346023 -0.200880 1.000000
tan 0.099944 0.041540 -0.968690 1.000000
tan -0.818960 -0.272863 -0.457437 1.000000
tan -0.125922 -0.559551 -0.814991 1.000000
tan 0.813814 -0.554777 0.135036 1.000000
tan 0.468721 -0.876062 0.093620 1.000000
tan 0.878108 -0.359725 0.238514 1.000000
tan 0.549073 0.077934 0.800732 1.000000
tan -0.842582 -0.286255 0.355323 1.000000
tan 0.302871 -0.929630 0.140182 1.000000
tan -0.172050 -0.976378 0.007688 1.000000
tan 0.822308 -0.355757 0.153264 1.000000
tan -0.771220 -0.608221 0.048236 1.000000
tan -0.166470 -0.976378 0.007688 1.000000
tan -0.721433 -0.056172 0.507471 1.000000
tan -0.144956 -0.968504 -0.022878 1.000000
tan -0.441193 -0.833902 0.072416 1.000000
tan 0.583297 -0.801289 -0.075144 1.000000
tan 0.702957 -0.709777 -0.044764 1.000000
tan 0.429227 -0.801414 -0.365615 1.000000
tan 0.648211 0.018662 -0.716845 1.000000
tan -0.023436 0.142104 -0.992126 1.000000
tan 0.824726 -0.301507 -0.208506 1.000000
tan -0.871102 -0.392151 -0.159588 1.000000
tan -0.700725 -0.705251 -0.016802 1.000000
tan -0.268399 0.314216 -0.884990 1.000000
tan -0.473743 -0.869242 -0.067828 1.000000
tan -0.664827 -0.707731 0.017360 1.000000
tan -0.062744 -0.914006 0.116064 1.000000
tan 0.511873 -0.784983 0.285945 1.000000
tan -0.498667 -0.867010 -0.033108 1.000000
tan 0.827764 -0.542501 0.087668 1.000000
tan 0.168640 -0.961002 0.224751 1.000000
tan 0.054250 0.088288 0.984252 1.000000
tan 0.510881 -0.660425 0.543307 1.000000
tan 0.059520 -0.884432 -0.156612 1.000000
tan -0.711141 -0.707421 0.033480 1.000000
tan -0.109616 -0.466737 0.812450 1.000000
tan -0.194618 -0.976378 -0.046128 1.000000
tan -0.136710 -0.794283 0.315209 1.000000
tan 0.505053 -0.844814 -0.137888 1.000000
tan 0.246946 -0.822803 0.506541 1.000000
tan 0.724905 -0.255254 0.640151 1.000000
tan 0.658751 -0.064604 -0.728501 1.000000
tan 0.394569 -0.710769 -0.564945 1.000000
tan 0.518569 -0.823610 -0.196664 1.000000
tan 0.774320 -0.435613 -0.288238 1.000000
tan 0.102052 -0.498729 -0.834832 1.000000
tan -0.169880 -0.734143 -0.633145 1.000000
tan -0.666067 -0.294067 -0.592039 1.000000
tan 0.870234 -0.424949 0.159960 1.000000
tan 0.595201 -0.788951 0.100874 1.000000
tan 0.155186 -0.976378 0.038440 1.000000
tan 0.669601 -0.039060 0.669601 1.000000
tan -0.630417 0.002418 0.745737 1.000000
tan -0.150660 -0.968504 -0.045756 1.000000
tan -0.709715 -0.704135 -0.027590 1.000000
tan 0.448881 -0.841714 0.175584 1.000000
tan -0.869242 -0.452167 0.061876 1.000000
tan -0.503875 -0.861616 0.035588 1.000000
tan -0.845620 -0.491537 -0.061008 1.000000
tan 0.330585 0.084816 -0.914874 1.000000
tan -0.479509 -0.828446 -0.192696 1.000000
tan 0.417013 0.237646 -0.826710 1.000000
tan -0.829004 -0.366483 -0.133734 1.000000
tan -0.700787 -0.716535 -0.000124 1.000000
tan 0.812264 -0.560977 -0.105462 1.000000
tan 0.411805 -0.899498 -0.082398 1.000000
tan -0.415153 -0.169260 -0.884122 1.000000
tan 0.283465 -0.937442 -0.089280 1.000000
tan 0.632587 -0.738669 -0.060822 1.000000
tan -0.443549 -0.876496 0.093868 1.000000
tan -0.142352 -0.914006 0.101556 1.000000
tan -0.767996 -0.556203 0.036704 1.000000
tan 0.510633 0.185008 0.755161 1.000000
tan -0.454957 -0.889764 0.077066 1.000000
tan -0.680761 -0.173228 0.673197 1.000000
tan 0.838862 -0.466551 0.218240 1.000000
tan 0.170128 -0.976502 -0.108500 1.000000
tan -0.544051 -0.750201 0.146010 1.000000
tan 0.046190 -0.894228 0.014446 1.000000
tan 0.690805 -0.708661 -0.011160 1.000000
tan -0.063054 -0.459483 0.889764 1.000000
tan 0.037944 -0.853866 0.304297 1.000000
tan -0.118172 -0.779032 -0.473433 1.000000
tan 0.630169 -0.161448 -0.720193 1.000000
tan 0.011780 -0.680327 -0.725463 1.000000
tan -0.383471 -0.796826 -0.460847 1.000000
tan 0.007626 -0.968504 -0.227850 1.000000
tan 0.000000 -0.826772 -0.204724 1.000000
tan -0.075764 -0.992126 -0.023436 1.000000
tan -0.021390 -0.905512 0.412239 1.000000
tan 0.264803 -0.756587 0.358051 1.000000
tan 0.454585 -0.882758 0.105090 1.000000
tan 0.741459 -0.141484 -0.553847 1.000000
tan 0.769360 -0.626573 -0.042842 1.000000
tan -0.645793 -0.002666 -0.730361 1.000000
tan -0.845620 -0.493087 -0.054374 1.000000
tan -0.456631 -0.884122 -0.041540 1.000000
tan 0.463823 -0.868684 -0.113522 1.000000
tan -0.048360 -0.992126 0.007812 1.000000
tan 0.748962 -0.137950 -0.431459 1.000000
tan -0.193006 -0.968504 0.061008 1.000000
tan -0.717589 -0.695145 0.032488 1.000000
tan 0.290347 -0.891252 -0.163990 1.000000
tan -0.814000 -0.554591 0.027962 1.000000
tan 0.310001 0.091760 0.930002 1.000000
tan -0.476595 -0.828446 0.186062 1.000000
tan 0.442309 0.106826 0.861740 1.000000
tan -0.776489 -0.113584 0.418005 1.000000
tan 0.716287 -0.691239 0.031868 1.000000
tan 0.491041 -0.860438 0.084878 1.000000
tan 0.817100 -0.306219 0.213404 1.000000
tan 0.186620 -0.968504 0.068634 1.000000
tan 0.473681 -0.828446 0.179428 1.000000
tan -0.328043 -0.884122 -0.178250 1.000000
tan -0.830244 -0.347635 -0.134540 1.000000
tan -0.102300 -0.992126 -0.007812 1.000000
tan -0.597495 -0.802529 -0.009548 1.000000
tan -0.522785 -0.034844 -0.822618 1.000000
tan 0.473185 -0.856532 0.070308 1.000000
tan -0.030690 -0.937442 -0.148800 1.000000
tan -0.223944 -0.661417 -0.687085 1.000000
tan 0.804638 -0.584165 -0.089404 1.000000
tan 0.026040 -0.547523 -0.826771 1.000000
tan 0.023064 -0.976378 -0.176018 1.000000
tan 0.051646 -0.992126 -0.031248 1.000000
tan -0.209560 -0.781945 -0.533449 1.000000
tan -0.708351 -0.708351 0.000000 1.000000
tan -0.205592 -0.907744 0.325129 1.000000
tan 0.047740 -0.915122 0.342861 1.000000
tan -0.538161 -0.031868 0.814930 1.000000
tan -0.168144 -0.437225 0.875752 1.000000
tan 0.595201 -0.204476 0.729121 1.000000
tan -0.064666 -0.720441 0.622791 1.000000
tan -0.160456 -0.968504 0.053382 1.000000
tan -0.419493 -0.906628 0.060946 1.000000
tan 0.381239 -0.914502 -0.069006 1.000000
tan -0.666997 -0.723355 0.053010 1.000000
tan -0.842582 -0.273916 0.372807 1.000000
tan 0.598239 -0.788951 -0.057660 1.000000
tan 0.878108 -0.360841 -0.231384 1.000000
tan -0.361337 0.147932 0.907186 1.000000
tan 0.878108 -0.359725 0.238514 1.000000
tan -0.181412 -0.914006 0.101556 1.000000
tan 0.810714 -0.564077 0.088412 1.000000
tan 0.468969 -0.883006 0.072788 1.000000
tan -0.778040 -0.529729 0.033108 1.000000
tan 0.549011 0.154380 0.720131 1.000000
tan 0.430901 -0.857834 0.164672 1.000000
tan -0.178746 -0.968504 -0.068634 1.000000
tan -0.480253 -0.869490 -0.036580 1.000000
tan -0.814000 -0.545229 -0.034224 1.000000
tan -0.591977 0.013950 -0.776489 1.000000
tan -0.473681 -0.828446 -0.179428 1.000000
tan 0.465187 0.101742 -0.854114 1.000000
tan -0.790130 -0.139190 -0.380309 1.000000
tan 0.768554 -0.060636 -0.460537 1.000000
tan 0.553847 -0.789261 -0.123070 1.000000
tan -0.320293 -0.025606 -0.937442 1.000000
tan 0.832724 -0.431707 -0.261516 1.000000
tan 0.299647 -0.945440 -0.110174 1.000000
tan -0.711141 -0.699547 -0.033232 1.000000
tan 0.592783 -0.621985 -0.502945 1.000000
tan -0.178002 -0.984252 -0.085250 1.000000
tan -0.617273 -0.700973 -0.127472 1.000000
tan -0.019344 -0.576849 -0.818897 1.000000
tan 0.650319 -0.746419 0.013268 1.000000
tan -0.141732 -0.825903 0.290099 1.000000
tan -0.072292 -0.934590 -0.164796 1.000000
tan -0.059830 -0.918780 -0.248186 1.000000
tan -0.047740 -0.792485 0.515593 1.000000
tan -0.001302 -0.820633 0.491971 1.000000
tan 0.313845 -0.753797 0.377457 1.000000
tan 0.000000 -0.393701 0.921260 1.000000
tan -0.603447 -0.725587 0.152644 1.000000
tan -0.453593 -0.889764 0.077066 1.000000
tan -0.854114 -0.437101 0.229152 1.000000
tan 0.226548 0.044020 0.968690 1.000000
tan 0.857958 -0.194246 -0.387253 1.000000
tan 0.708599 -0.705251 -0.016554 1.000000
tan -0.023436 0.141360 -0.992126 1.000000
tan 0.566681 -0.817223 -0.046500 1.000000
tan -0.132680 -0.984252 0.046500 1.000000
tan -0.839482 -0.418129 -0.199702 1.000000
tan -0.701841 -0.710893 -0.033728 1.000000
tan 0.607849 0.099944 -0.657325 1.000000
tan -0.387625 -0.909170 0.130944 1.000000
tan -0.870234 -0.427181 0.146072 1.000000
tan 0.424949 -0.856160 -0.150784 1.000000
tan -0.667679 -0.030132 0.682683 1.000000
tan 0.840722 -0.408333 0.237646 1.000000
tan -0.626511 -0.745861 0.068262 1.000000
tan 0.862422 -0.423585 0.102548 1.000000
tan 0.168268 0.354269 0.914502 1.000000
tan 0.451361 -0.876496 0.093806 1.000000
tan 0.052886 -0.992126 -0.015624 1.000000
tan 0.701903 -0.666811 0.018662 1.000000
tan -0.189720 -0.960878 -0.091512 1.000000
tan 0.197036 -0.906194 0.100688 1.000000
tan -0.497427 -0.809474 -0.198462 1.000000
tan -0.835080 -0.325315 -0.165540 1.000000
tan 0.248125 -0.960878 0.091512 1.000000
tan -0.703453 -0.164052 -0.658069 1.000000
tan -0.490297 -0.867630 -0.078740 1.000000
tan 0.817720 -0.468349 0.256805 1.000000
tan -0.243598 -0.838428 -0.136958 1.000000
tan -0.418501 0.011036 0.891252 1.000000
tan 0.115010 -0.800545 0.450183 1.000000
tan -0.139376 -0.496125 0.853246 1.000000
tan -0.711141 -0.707421 0.033480 1.000000
tan -0.162254 -0.984252 0.085250 1.000000
tan -0.341249 -0.857028 0.309567 1.000000
tan -0.015128 -0.960630 0.274971 1.000000
tan -0.064418 -0.949036 -0.180110 1.000000
tan -0.209560 -0.890632 -0.209560 1.000000
tan 0.363693 -0.894290 -0.090706 1.000000
tan 0.065472 -0.620931 -0.755905 1.000000
tan -0.566061 -0.504557 -0.654721 1.000000
tan 0.838862 -0.454399 -0.225060 1.000000
tan 0.707483 -0.704135 -0.016554 1.000000
tan 0.171306 -0.968504 -0.030504 1.000000
tan -0.206894 -0.968504 0.068634 1.000000
tan -0.622357 -0.771529 0.065968 1.000000
tan -0.615413 -0.172360 0.676669 1.000000
tan 0.837746 -0.525885 0.018104 1.000000
tan 0.554653 0.125984 -0.820262 1.000000
tan 0.350797 0.237089 0.899870 1.000000
tan 0.907310 -0.350425 0.110794 1.000000
tan 0.136152 0.216504 -0.953066 1.000000
tan -0.704073 -0.710893 -0.044888 1.000000
tan 0.866142 -0.356625 0.054560 1.000000
tan -0.699795 -0.699919 -0.055552 1.000000
tan 0.596627 -0.796763 0.083824 1.000000
tan 0.181102 -0.976378 0.000000 1.000000
tan -0.087234 -0.976378 -0.084568 1.000000
tan 0.462273 -0.827330 0.144832 1.000000
tan -0.447765 -0.835886 -0.225122 1.000000
tan -0.064170 0.345465 -0.905512 1.000000
tan 0.156488 -0.984252 -0.015500 1.000000
tan 0.848348 -0.398661 -0.012958 1.000000
tan 0.715791 -0.700539 0.010912 1.000000
tan 0.480687 -0.827330 -0.151156 1.000000
tan 0.488189 0.061938 -0.874016 1.000000
tan -0.230578 -0.891810 0.208568 1.000000
tan 0.823362 -0.506913 -0.233616 1.000000
tan 0.266415 -0.960630 0.022692 1.000000
tan -0.662657 -0.185132 0.472255 1.000000
tan -0.489119 -0.865274 0.050654 1.000000
tan 0.759502 -0.095604 0.620001 1.000000
tan -0.750822 -0.361151 0.451051 1.000000
tan 0.427801 -0.796081 0.264865 1.000000
tan 0.045136 -0.431397 0.880526 1.000000
tan 0.627875 -0.410751 0.659991 1.000000
tan 0.001116 -0.663773 0.734639 1.000000
tan 0.209436 -0.814930 -0.248930 1.000000
tan 0.515469 -0.767995 -0.268770 1.000000
tan 0.312667 -0.915122 -0.056482 1.000000
tan -0.153326 -0.734391 -0.468969 1.000000
tan 0.021080 -0.562465 -0.809907 1.000000
tan -0.477649 -0.875442 -0.121272 1.000000
tan -0.743382 -0.378697 -0.443301 1.000000
f 3/3/3 2/2/2 1/1/1
f 2/2/2 3/3/3 4/4/4
f 3/3/3 5/5/5 4/4/4
f 6/6/6 1/1/1 2/2/2
f 7/7/7 1/1/1 6/6/6
f 2/2/2 4/4/4 8/8/8
f 2/2/2 8/8/8 6/6/6
f 4/4/4 5/5/5 9/9/9
f 10/10/10 9/9/9 5/5/5
f 4/4/4 11/11/11 8/8/8
f 4/4/4 9/9/9 11/11/11
f 9/9/9 10/10/10 12/12/12
f 10/10/10 13/13/13 12/12/12
f 11/11/11 9/9/9 14/14/14
f 12/12/12 13/13/13 15/15/15
f 16/16/16 15/15/15 13/13/13
f 12/12/12 17/17/17 9/9/9
f 12/12/12 15/15/15 17/17/17
f 14/14/14 9/9/9 17/17/17
f 15/15/15 16/16/16 18/18/18
f 17/17/17 15/15/15 19/19/19
f 19/19/19 15/15/15 18/18/18
f 17/17/17 20/20/20 14/14/14
f 19/19/19 21/21/21 17/17/17
f 17/17/17 21/21/21 20/20/20
f 18/18/18 22/22/22 19/19/19
f 21/21/21 19/19/19 22/22/22
f 23/23/23 14/14/14 20/20/20
f 14/14/14 23/23/23 11/11/11
f 21/21/21 24/24/24 20/20/20
f 11/11/11 23/23/23 25/25/25
f 8/8/8 11/11/11 25/25/25
f 20/20/20 26/26/26 23/23/23
f 20/20/20 24/24/24 26/26/26
f 27/27/27 25/25/25 23/23/23
f 27/27/27 23/23/23 26/26/26
f 24/24/24 21/21/21 28/28/28
f 21/21/21 22/22/22 28/28/28
f 29/29/29 26/26/26 24/24/24
f 29/29/29 24/24/24 28/28/28
f 26/26/26 30/30/30 27/27/27
f 30/30/30 26/26/26 29/29/29
f 22/22/22 31/31/31 28/28/28
f 22/22/22 18/18/18 31/31/31
f 29/29/29 28/28/28 32/32/32
f 31/31/31 32/32/32 28/28/28
f 29/29/29 33/33/33 30/30/30
f 33/33/33 29/29/29 32/32/32
f 34/34/34 27/27/27 30/30/30
f 34/34/34 25/25/25 27/27/27
f 33/33/33 35/35/35 30/30/30
f 35/35/35 34/34/34 30/30/30
f 33/33/33 32/32/32 36/36/36
f 33/33/33 36/36/36 35/35/35
f 25/25/25 34/34/34 37/37/37
f 37/37/37 34/34/34 35/35/35
f 37/37/37 8/8/8 25/25/25
f 38/38/38 35/35/35 36/36/36
f 37/37/37 35/35/35 38/38/38
f 32/32/32 39/39/39 36/36/36
f 39/39/39 38/38/38 36/36/36
f 39/39/39 32/32/32 31/31/31
f 37/37/37 40/40/40 8/8/8
f 40/40/40 37/37/37 38/38/38
f 40/40/40 6/6/6 8/8/8
f 41/41/41 40/40/40 38/38/38
f 6/6/6 40/40/40 41/41/41
f 39/39/39 41/41/41 38/38/38
f 42/42/42 39/39/39 31/31/31
f 41/41/41 39/39/39 42/42/42
f 18/18/18 42/42/42 31/31/31
f 43/43/43 6/6/6 41/41/41
f 43/43/43 7/7/7 6/6/6
f 7/7/7 43/43/43 44/44/44
f 42/42/42 45/45/45 41/41/41
f 43/43/43 41/41/41 45/45/45
f 45/45/45 42/42/42 18/18/18
f 45/45/45 44/44/44 43/43/43
f 18/18/18 16/16/16 45/45/45
f 16/16/16 44/44/44 45/45/45
f 48/48/48 47/47/47 46/46/46
f 46/46/46 47/47/47 49/49/49
f 50/50/50 49/49/49 47/47/47
f 51/51/51 48/48/48 46/46/46
f 48/48/48 51/51/51 52/52/52
f 46/46/46 49/49/49 53/53/53
f 46/46/46 53/53/53 51/51/51
f 49/49/49 50/50/50 54/54/54
f 55/55/55 52/52/52 51/51/51
f 56/56/56 52/52/52 55/55/55
f 54/54/54 50/50/50 57/57/57
f 57/57/57 50/50/50 58/58/58
f 59/59/59 56/56/56 55/55/55
f 56/56/56 59/59/59 60/60/60
f 60/60/60 61/61/61 58/58/58
f 57/57/57 58/58/58 61/61/61
f 62/62/62 60/60/60 59/59/59
f 61/61/61 60/60/60 62/62/62
f 55/55/55 63/63/63 59/59/59
f 62/62/62 59/59/59 63/63/63
f 61/61/61 64/64/64 57/57/57
f 64/64/64 61/61/61 62/62/62
f 54/54/54 57/57/57 65/65/65
f 65/65/65 57/57/57 64/64/64
f 54/54/54 66/66/66 49/49/49
f 54/54/54 65/65/65 66/66/66
f 53/53/53 49/49/49 66/66/66
f 64/64/64 67/67/67 65/65/65
f 66/66/66 65/65/65 68/68/68
f 65/65/65 67/67/67 68/68/68
f 62/62/62 69/69/69 64/64/64
f 67/67/67 64/64/64 69/69/69
f 62/62/62 70/70/70 69/69/69
f 70/70/70 62/62/62 63/63/63
f 71/71/71 67/67/67 69/69/69
f 71/71/71 69/69/69 70/70/70
f 67/67/67 72/72/72 68/68/68
f 67/67/67 71/71/71 72/72/72
f 73/73/73 68/68/68 72/72/72
f 71/71/71 74/74/74 72/72/72
f 72/72/72 74/74/74 73/73/73
f 70/70/70 75/75/75 71/71/71
f 74/74/74 71/71/71 75/75/75
f 76/76/76 68/68/68 73/73/73
f 76/76/76 66/66/66 68/68/68
f 75/75/75 77/77/77 74/74/74
f 66/66/66 76/76/76 78/78/78
f 78/78/78 53/53/53 66/66/66
f 76/76/76 73/73/73 79/79/79
f 78/78/78 76/76/76 79/79/79
f 80/80/80 73/73/73 74/74/74
f 79/79/79 73/73/73 80/80/80
f 80/80/80 74/74/74 77/77/77
f 78/78/78 79/79/79 81/81/81
f 79/79/79 80/80/80 81/81/81
f 53/53/53 78/78/78 81/81/81
f 82/82/82 80/80/80 77/77/77
f 53/53/53 81/81/81 83/83/83
f 83/83/83 51/51/51 53/53/53
f 81/81/81 80/80/80 84/84/84
f 84/84/84 80/80/80 82/82/82
f 85/85/85 81/81/81 84/84/84
f 82/82/82 85/85/85 84/84/84
f 85/85/85 83/83/83 81/81/81
f 86/86/86 51/51/51 83/83/83
f 83/83/83 85/85/85 86/86/86
f 86/86/86 55/55/55 51/51/51
f 55/55/55 86/86/86 63/63/63
f 86/86/86 85/85/85 87/87/87
f 63/63/63 86/86/86 87/87/87
f 85/85/85 82/82/82 87/87/87
f 88/88/88 63/63/63 87/87/87
f 70/70/70 63/63/63 88/88/88
f 89/89/89 87/87/87 82/82/82
f 88/88/88 87/87/87 89/89/89
f 88/88/88 89/89/89 70/70/70
f 89/89/89 82/82/82 77/77/77
f 75/75/75 70/70/70 89/89/89
f 89/89/89 77/77/77 75/75/75
f 92/92/92 91/91/91 90/90/90
f 90/90/90 93/93/93 92/92/92
f 94/94/94 92/92/92 93/93/93
f 95/95/95 90/90/90 91/91/91
f 96/96/96 95/95/95 91/91/91
f 93/93/93 90/90/90 97/97/97
f 90/90/90 95/95/95 97/97/97
f 98/98/98 94/94/94 93/93/93
f 99/99/99 94/94/94 98/98/98
f 97/97/97 100/100/100 93/93/93
f 93/93/93 100/100/100 98/98/98
f 98/98/98 101/101/101 99/99/99
f 102/102/102 98/98/98 100/100/100
f 101/101/101 98/98/98 102/102/102
f 103/103/103 99/99/99 101/101/101
f 99/99/99 103/103/103 104/104/104
f 102/102/102 105/105/105 101/101/101
f 101/101/101 105/105/105 103/103/103
f 103/103/103 106/106/106 104/104/104
f 107/107/107 104/104/104 106/106/106
f 108/108/108 103/103/103 105/105/105
f 106/106/106 103/103/103 108/108/108
f 109/109/109 107/107/107 106/106/106
f 107/107/107 109/109/109 110/110/110
f 108/108/108 111/111/111 106/106/106
f 106/106/106 111/111/111 109/109/109
f 109/109/109 112/112/112 110/110/110
f 96/96/96 110/110/110 112/112/112
f 112/112/112 95/95/95 96/96/96
f 112/112/112 109/109/109 113/113/113
f 113/113/113 109/109/109 111/111/111
f 95/95/95 112/112/112 114/114/114
f 113/113/113 114/114/114 112/112/112
f 115/115/115 95/95/95 114/114/114
f 115/115/115 97/97/97 95/95/95
f 114/114/114 113/113/113 116/116/116
f 97/97/97 115/115/115 117/117/117
f 114/114/114 118/118/118 115/115/115
f 117/117/117 115/115/115 118/118/118
f 116/116/116 118/118/118 114/114/114
f 117/117/117 119/119/119 97/97/97
f 100/100/100 97/97/97 119/119/119
f 117/117/117 118/118/118 120/120/120
f 117/117/117 120/120/120 119/119/119
f 116/116/116 121/121/121 118/118/118
f 121/121/121 120/120/120 118/118/118
f 122/122/122 100/100/100 119/119/119
f 100/100/100 122/122/122 102/102/102
f 120/120/120 123/123/123 119/119/119
f 122/122/122 119/119/119 123/123/123
f 122/122/122 124/124/124 102/102/102
f 105/105/105 102/102/102 124/124/124
f 123/123/123 125/125/125 122/122/122
f 122/122/122 125/125/125 124/124/124
f 126/126/126 105/105/105 124/124/124
f 125/125/125 126/126/126 124/124/124
f 108/108/108 105/105/105 126/126/126
f 125/125/125 123/123/123 127/127/127
f 123/123/123 120/120/120 127/127/127
f 126/126/126 125/125/125 128/128/128
f 127/127/127 128/128/128 125/125/125
f 126/126/126 129/129/129 108/108/108
f 111/111/111 108/108/108 129/129/129
f 130/130/130 126/126/126 128/128/128
f 126/126/126 130/130/130 129/129/129
f 128/128/128 127/127/127 131/131/131
f 131/131/131 130/130/130 128/128/128
f 127/127/127 120/120/120 132/132/132
f 132/132/132 131/131/131 127/127/127
f 120/120/120 121/121/121 132/132/132
f 130/130/130 131/131/131 133/133/133
f 133/133/133 129/129/129 130/130/130
f 132/132/132 134/134/134 131/131/131
f 121/121/121 134/134/134 132/132/132
f 134/134/134 133/133/133 131/131/131
f 116/116/116 134/134/134 121/121/121
f 135/135/135 129/129/129 133/133/133
f 133/133/133 134/134/134 135/135/135
f 134/134/134 116/116/116 135/135/135
f 135/135/135 111/111/111 129/129/129
f 135/135/135 116/116/116 113/113/113
f 111/111/111 135/135/135 113/113/113
f 138/138/138 137/137/137 136/136/136
f 139/139/139 136/136/136 137/137/137
f 140/140/140 136/136/136 139/139/139
f 137/137/137 138/138/138 141/141/141
f 138/138/138 142/142/142 141/141/141
f 137/137/137 143/143/143 139/139/139
f 141/141/141 143/143/143 137/137/137
f 144/144/144 140/140/140 139/139/139
f 140/140/140 144/144/144 145/145/145
f 146/146/146 141/141/141 142/142/142
f 147/147/147 146/146/146 142/142/142
f 141/141/141 146/146/146 148/148/148
f 148/148/148 143/143/143 141/141/141
f 146/146/146 147/147/147 149/149/149
f 148/148/148 146/146/146 150/150/150
f 150/150/150 146/146/146 149/149/149
f 150/150/150 151/151/151 148/148/148
f 152/152/152 149/149/149 147/147/147
f 147/147/147 153/153/153 152/152/152
f 149/149/149 154/154/154 150/150/150
f 151/151/151 150/150/150 154/154/154
f 155/155/155 152/152/152 153/153/153
f 153/153/153 145/145/145 155/155/155
f 156/156/156 149/149/149 152/152/152
f 152/152/152 155/155/155 156/156/156
f 157/157/157 155/155/155 145/145/145
f 157/157/157 145/145/145 144/144/144
f 155/155/155 157/157/157 158/158/158
f 156/156/156 155/155/155 158/158/158
f 157/157/157 144/144/144 159/159/159
f 159/159/159 158/158/158 157/157/157
f 159/159/159 144/144/144 160/160/160
f 139/139/139 160/160/160 144/144/144
f 160/160/160 139/139/139 143/143/143
f 158/158/158 159/159/159 161/161/161
f 160/160/160 162/162/162 159/159/159
f 161/161/161 159/159/159 162/162/162
f 160/160/160 143/143/143 163/163/163
f 163/163/163 162/162/162 160/160/160
f 161/161/161 164/164/164 158/158/158
f 158/158/158 164/164/164 156/156/156
f 165/165/165 161/161/161 162/162/162
f 161/161/161 166/166/166 164/164/164
f 166/166/166 161/161/161 165/165/165
f 167/167/167 156/156/156 164/164/164
f 166/166/166 167/167/167 164/164/164
f 162/162/162 168/168/168 165/165/165
f 163/163/163 168/168/168 162/162/162
f 169/169/169 166/166/166 165/165/165
f 165/165/165 168/168/168 169/169/169
f 167/167/167 166/166/166 170/170/170
f 166/166/166 169/169/169 170/170/170
f 167/167/167 171/171/171 156/156/156
f 149/149/149 156/156/156 171/171/171
f 171/171/171 154/154/154 149/149/149
f 172/172/172 171/171/171 167/167/167
f 171/171/171 172/172/172 154/154/154
f 167/167/167 170/170/170 172/172/172
f 172/172/172 173/173/173 154/154/154
f 151/151/151 154/154/154 173/173/173
f 174/174/174 172/172/172 170/170/170
f 169/169/169 174/174/174 170/170/170
f 173/173/173 172/172/172 175/175/175
f 172/172/172 174/174/174 175/175/175
f 151/151/151 173/173/173 176/176/176
f 175/175/175 176/176/176 173/173/173
f 151/151/151 176/176/176 148/148/148
f 143/143/143 148/148/148 176/176/176
f 174/174/174 169/169/169 177/177/177
f 177/177/177 175/175/175 174/174/174
f 169/169/169 168/168/168 177/177/177
f 178/178/178 175/175/175 177/177/177
f 178/178/178 177/177/177 168/168/168
f 175/175/175 178/178/178 176/176/176
f 168/168/168 163/163/163 178/178/178
f 176/176/176 178/178/178 179/179/179
f 178/178/178 163/163/163 179/179/179
f 179/179/179 143/143/143 176/176/176
f 179/179/179 163/163/163 143/143/143
f 182/182/182 181/181/181 180/180/180
f 183/183/183 182/182/182 180/180/180
f 182/182/182 183/183/183 184/184/184
f 185/185/185 180/180/180 181/181/181
f 186/186/186 185/185/185 181/181/181
f 180/180/180 187/187/187 183/183/183
f 180/180/180 185/185/185 187/187/187
f 185/185/185 186/186/186 188/188/188
f 186/186/186 189/189/189 188/188/188
f 190/190/190 187/187/187 185/185/185
f 188/188/188 190/190/190 185/185/185
f 191/191/191 188/188/188 189/189/189
f 192/192/192 191/191/191 189/189/189
f 193/193/193 190/190/190 188/188/188
f 188/188/188 191/191/191 193/193/193
f 191/191/191 192/192/192 194/194/194
f 193/193/193 191/191/191 195/195/195
f 194/194/194 195/195/195 191/191/191
f 196/196/196 194/194/194 192/192/192
f 192/192/192 197/197/197 196/196/196
f 198/198/198 195/195/195 194/194/194
f 194/194/194 196/196/196 198/198/198
f 196/196/196 197/197/197 199/199/199
f 184/184/184 199/199/199 197/197/197
f 199/199/199 200/200/200 196/196/196
f 200/200/200 198/198/198 196/196/196
f 201/201/201 199/199/199 184/184/184
f 200/200/200 199/199/199 201/201/201
f 183/183/183 201/201/201 184/184/184
f 201/201/201 183/183/183 202/202/202
f 202/202/202 183/183/183 187/187/187
f 201/201/201 203/203/203 200/200/200
f 201/201/201 202/202/202 204/204/204
f 204/204/204 203/203/203 201/201/201
f 187/187/187 205/205/205 202/202/202
f 204/204/204 202/202/202 205/205/205
f 206/206/206 200/200/200 203/203/203
f 200/200/200 206/206/206 198/198/198
f 204/204/204 207/207/207 203/203/203
f 207/207/207 206/206/206 203/203/203
f 204/204/204 205/205/205 208/208/208
f 204/204/204 208/208/208 207/207/207
f 209/209/209 205/205/205 187/187/187
f 190/190/190 209/209/209 187/187/187
f 210/210/210 208/208/208 205/205/205
f 209/209/209 210/210/210 205/205/205
f 208/208/208 211/211/211 207/207/207
f 211/211/211 208/208/208 210/210/210
f 209/209/209 190/190/190 212/212/212
f 190/190/190 193/193/193 212/212/212
f 209/209/209 213/213/213 210/210/210
f 213/213/213 209/209/209 212/212/212
f 210/210/210 213/213/213 211/211/211
f 214/214/214 212/212/212 193/193/193
f 193/193/193 195/195/195 214/214/214
f 215/215/215 213/213/213 212/212/212
f 215/215/215 212/212/212 214/214/214
f 213/213/213 216/216/216 211/211/211
f 216/216/216 213/213/213 215/215/215
f 214/214/214 195/195/195 217/217/217
f 195/195/195 198/198/198 217/217/217
f 214/214/214 218/218/218 215/215/215
f 218/218/218 214/214/214 217/217/217
f 216/216/216 215/215/215 218/218/218
f 219/219/219 217/217/217 198/198/198
f 218/218/218 217/217/217 219/219/219
f 206/206/206 219/219/219 198/198/198
f 218/218/218 220/220/220 216/216/216
f 219/219/219 220/220/220 218/218/218
f 206/206/206 220/220/220 219/219/219
f 220/220/220 211/211/211 216/216/216
f 206/206/206 207/207/207 220/220/220
f 220/220/220 207/207/207 211/211/211
f 223/223/223 222/222/222 221/221/221
f 221/221/221 222/222/222 224/224/224
f 224/224/224 222/222/222 225/225/225
f 226/226/226 223/223/223 221/221/221
f 226/226/226 227/227/227 223/223/223
f 224/224/224 225/225/225 228/228/228
f 225/225/225 229/229/229 228/228/228
f 221/221/221 224/224/224 230/230/230
f 221/221/221 230/230/230 226/226/226
f 228/228/228 229/229/229 231/231/231
f 231/231/231 229/229/229 232/232/232
f 228/228/228 233/233/233 224/224/224
f 230/230/230 224/224/224 233/233/233
f 228/228/228 231/231/231 234/234/234
f 233/233/233 228/228/228 234/234/234
f 231/231/231 232/232/232 235/235/235
f 234/234/234 231/231/231 235/235/235
f 235/235/235 232/232/232 236/236/236
f 237/237/237 236/236/236 232/232/232
f 236/236/236 237/237/237 238/238/238
f 239/239/239 238/238/238 237/237/237
f 236/236/236 240/240/240 235/235/235
f 236/236/236 238/238/238 240/240/240
f 238/238/238 239/239/239 241/241/241
f 239/239/239 227/227/227 241/241/241
f 241/241/241 227/227/227 226/226/226
f 241/241/241 242/242/242 238/238/238
f 240/240/240 238/238/238 242/242/242
f 241/241/241 226/226/226 243/243/243
f 241/241/241 243/243/243 242/242/242
f 243/243/243 226/226/226 244/244/244
f 244/244/244 226/226/226 230/230/230
f 242/242/242 243/243/243 245/245/245
f 243/243/243 244/244/244 246/246/246
f 243/243/243 246/246/246 245/245/245
f 230/230/230 247/247/247 244/244/244
f 244/244/244 247/247/247 246/246/246
f 248/248/248 242/242/242 245/245/245
f 242/242/242 248/248/248 240/240/240
f 245/245/245 246/246/246 249/249/249
f 246/246/246 247/247/247 249/249/249
f 240/240/240 248/248/248 250/250/250
f 235/235/235 240/240/240 250/250/250
f 248/248/248 245/245/245 251/251/251
f 248/248/248 251/251/251 250/250/250
f 252/252/252 245/245/245 249/249/249
f 245/245/245 252/252/252 251/251/251
f 253/253/253 235/235/235 250/250/250
f 253/253/253 234/234/234 235/235/235
f 254/254/254 250/250/250 251/251/251
f 253/253/253 250/250/250 254/254/254
f 255/255/255 251/251/251 252/252/252
f 251/251/251 255/255/255 254/254/254
f 252/252/252 249/249/249 256/256/256
f 255/255/255 252/252/252 256/256/256
f 255/255/255 257/257/257 254/254/254
f 257/257/257 253/253/253 254/254/254
f 256/256/256 258/258/258 255/255/255
f 258/258/258 257/257/257 255/255/255
f 256/256/256 249/249/249 259/259/259
f 256/256/256 259/259/259 258/258/258
f 247/247/247 259/259/259 249/249/249
f 257/257/257 258/258/258 260/260/260
f 253/253/253 257/257/257 260/260/260
f 261/261/261 258/258/258 259/259/259
f 258/258/258 261/261/261 260/260/260
f 262/262/262 259/259/259 247/247/247
f 259/259/259 262/262/262 261/261/261
f 230/230/230 262/262/262 247/247/247
f 230/230/230 233/233/233 262/262/262
f 261/261/261 262/262/262 263/263/263
f 262/262/262 233/233/233 263/263/263
f 263/263/263 260/260/260 261/261/261
f 263/263/263 233/233/233 264/264/264
f 263/263/263 264/264/264 260/260/260
f 260/260/260 264/264/264 253/253/253
f 234/234/234 264/264/264 233/233/233
f 234/234/234 253/253/253 264/264/264
f 267/267/267 266/266/266 265/265/265
f 265/265/265 266/266/266 268/268/268
f 269/269/269 268/268/268 266/266/266
f 270/270/270 267/267/267 265/265/265
f 267/267/267 270/270/270 271/271/271
f 265/265/265 268/268/268 272/272/272
f 270/270/270 265/265/265 272/272/272
f 268/268/268 269/269/269 273/273/273
f 273/273/273 269/269/269 274/274/274
f 272/272/272 268/268/268 275/275/275
f 273/273/273 275/275/275 268/268/268
f 273/273/273 274/274/274 276/276/276
f 277/277/277 276/276/276 274/274/274
f 273/273/273 278/278/278 275/275/275
f 276/276/276 278/278/278 273/273/273
f 276/276/276 277/277/277 279/279/279
f 278/278/278 276/276/276 280/280/280
f 276/276/276 279/279/279 280/280/280
f 279/279/279 277/277/277 281/281/281
f 282/282/282 281/281/281 277/277/277
f 280/280/280 279/279/279 283/283/283
f 283/283/283 279/279/279 281/281/281
f 281/281/281 282/282/282 284/284/284
f 282/282/282 271/271/271 284/284/284
f 284/284/284 271/271/271 270/270/270
f 284/284/284 285/285/285 281/281/281
f 283/283/283 281/281/281 285/285/285
f 284/284/284 270/270/270 286/286/286
f 284/284/284 286/286/286 285/285/285
f 286/286/286 270/270/270 287/287/287
f 287/287/287 270/270/270 272/272/272
f 285/285/285 286/286/286 288/288/288
f 285/285/285 288/288/288 283/283/283
f 287/287/287 289/289/289 286/286/286
f 272/272/272 289/289/289 287/287/287
f 286/286/286 290/290/290 288/288/288
f 290/290/290 286/286/286 289/289/289
f 283/283/283 288/288/288 291/291/291
f 280/280/280 283/283/283 291/291/291
f 290/290/290 292/292/292 288/288/288
f 280/280/280 291/291/291 293/293/293
f 280/280/280 293/293/293 278/278/278
f 288/288/288 294/294/294 291/291/291
f 288/288/288 292/292/292 294/294/294
f 291/291/291 295/295/295 293/293/293
f 295/295/295 291/291/291 294/294/294
f 296/296/296 278/278/278 293/293/293
f 296/296/296 293/293/293 295/295/295
f 278/278/278 296/296/296 297/297/297
f 275/275/275 278/278/278 297/297/297
f 296/296/296 295/295/295 298/298/298
f 296/296/296 298/298/298 297/297/297
f 295/295/295 294/294/294 299/299/299
f 295/295/295 299/299/299 298/298/298
f 300/300/300 299/299/299 294/294/294
f 300/300/300 294/294/294 292/292/292
f 298/298/298 299/299/299 301/301/301
f 299/299/299 300/300/300 301/301/301
f 302/302/302 297/297/297 298/298/298
f 298/298/298 301/301/301 302/302/302
f 302/302/302 275/275/275 297/297/297
f 301/301/301 300/300/300 303/303/303
f 302/302/302 301/301/301 303/303/303
f 304/304/304 300/300/300 292/292/292
f 304/304/304 303/303/303 300/300/300
f 292/292/292 290/290/290 304/304/304
f 289/289/289 304/304/304 290/290/290
f 304/304/304 289/289/289 303/303/303
f 303/303/303 305/305/305 302/302/302
f 305/305/305 303/303/303 289/289/289
f 275/275/275 302/302/302 305/305/305
f 272/272/272 305/305/305 289/289/289
f 305/305/305 272/272/272 275/275/275
f 308/308/308 307/307/307 306/306/306
f 309/309/309 307/307/307 308/308/308
f 310/310/310 309/309/309 308/308/308
f 311/311/311 306/306/306 307/307/307
f 312/312/312 306/306/306 311/311/311
f 309/309/309 310/310/310 313/313/313
f 314/314/314 313/313/313 310/310/310
f 311/311/311 315/315/315 312/312/312
f 312/312/312 315/315/315 316/316/316
f 317/317/317 313/313/313 314/314/314
f 318/318/318 316/316/316 315/315/315
f 317/317/317 314/314/314 319/319/319
f 320/320/320 319/319/319 314/314/314
f 320/320/320 316/316/316 321/321/321
f 319/319/319 320/320/320 321/321/321
f 318/318/318 321/321/321 316/316/316
f 321/321/321 322/322/322 319/319/319
f 322/322/322 317/317/317 319/319/319
f 321/321/321 318/318/318 323/323/323
f 322/322/322 321/321/321 323/323/323
f 315/315/315 324/324/324 318/318/318
f 324/324/324 323/323/323 318/318/318
f 315/315/315 311/311/311 324/324/324
f 323/323/323 325/325/325 322/322/322
f 326/326/326 324/324/324 311/311/311
f 327/327/327 322/322/322 325/325/325
f 317/317/317 322/322/322 327/327/327
f 326/326/326 311/311/311 328/328/328
f 307/307/307 328/328/328 311/311/311
f 324/324/324 326/326/326 329/329/329
f 328/328/328 307/307/307 330/330/330
f 307/307/307 309/309/309 330/330/330
f 326/326/326 328/328/328 331/331/331
f 331/331/331 329/329/329 326/326/326
f 330/330/330 332/332/332 328/328/328
f 332/332/332 331/331/331 328/328/328
f 333/333/333 330/330/330 309/309/309
f 313/313/313 333/333/333 309/309/309
f 333/333/333 313/313/313 317/317/317
f 334/334/334 332/332/332 330/330/330
f 330/330/330 333/333/333 334/334/334
f 317/317/317 335/335/335 333/333/333
f 327/327/327 335/335/335 317/317/317
f 334/334/334 333/333/333 336/336/336
f 336/336/336 333/333/333 335/335/335
f 337/337/337 332/332/332 334/334/334
f 332/332/332 337/337/337 331/331/331
f 338/338/338 334/334/334 336/336/336
f 336/336/336 335/335/335 338/338/338
f 334/334/334 339/339/339 337/337/337
f 334/334/334 338/338/338 339/339/339
f 335/335/335 340/340/340 338/338/338
f 339/339/339 338/338/338 340/340/340
f 340/340/340 335/335/335 327/327/327
f 341/341/341 337/337/337 339/339/339
f 331/331/331 337/337/337 341/341/341
f 340/340/340 327/327/327 342/342/342
f 342/342/342 327/327/327 325/325/325
f 339/339/339 340/340/340 343/343/343
f 340/340/340 342/342/342 343/343/343
f 343/343/343 341/341/341 339/339/339
f 325/325/325 344/344/344 342/342/342
f 342/342/342 344/344/344 343/343/343
f 343/343/343 345/345/345 341/341/341
f 345/345/345 331/331/331 341/341/341
f 344/344/344 345/345/345 343/343/343
f 345/345/345 329/329/329 331/331/331
f 346/346/346 344/344/344 325/325/325
f 346/346/346 325/325/325 323/323/323
f 345/345/345 344/344/344 347/347/347
f 347/347/347 344/344/344 346/346/346
f 347/347/347 329/329/329 345/345/345
f 346/346/346 323/323/323 347/347/347
f 347/347/347 324/324/324 329/329/329
f 324/324/324 347/347/347 323/323/323
