mtllib SM_Mast@000002909DC05600.mtl
g SM_Mast@000002909DC05600
#Vertices 405
#Indices 1920
#Section 0 Offset 0 NumIndices 1920 MaterialIndex 0 MI_Wood
v 0.000001 117.922775 5.672652 0.000000 0.000000 1.000000 1.000000
v 0.000000 157.230377 4.281184 0.000000 0.000000 1.000000 1.000000
v 0.335879 157.230377 4.267885 0.000000 0.000000 1.000000 1.000000
v 0.445045 117.922775 5.655030 0.000000 0.000000 1.000000 1.000000
v 0.669702 157.230377 4.228311 0.000000 0.000000 1.000000 1.000000
v 0.000001 78.615189 7.064120 0.000000 0.000000 1.000000 1.000000
v 0.887367 117.922768 5.602594 0.000000 0.000000 1.000000 1.000000
v 0.999416 157.230377 4.162790 0.000000 0.000000 1.000000 1.000000
v 0.554211 78.615189 7.042174 0.000000 0.000000 1.000000 1.000000
v 0.000001 39.307594 8.455586 0.000000 0.000000 1.000000 1.000000
v 1.324243 117.922775 5.515778 0.000000 0.000000 1.000000 1.000000
v 1.322965 157.230377 4.071646 0.000000 0.000000 1.000000 1.000000
v 1.105031 78.615189 6.976877 0.000000 0.000000 1.000000 1.000000
v 0.663378 39.307594 8.429320 0.000000 0.000000 1.000000 1.000000
v 0.000001 0.000001 9.847055 0.000000 0.000000 1.000000 1.000000
v 0.772544 0.000001 9.816464 0.000000 0.000000 1.000000 1.000000
v 1.322696 39.307594 8.351161 0.000000 0.000000 1.000000 1.000000
v 1.540361 0.000001 9.725445 0.000000 0.000000 1.000000 1.000000
v 1.649070 78.615189 6.868765 0.000000 0.000000 1.000000 1.000000
v 1.973897 39.307594 8.221754 0.000000 0.000000 1.000000 1.000000
v 2.298724 0.000001 9.574742 0.000000 0.000000 1.000000 1.000000
v 1.752951 117.922775 5.395011 0.000000 0.000000 1.000000 1.000000
v 1.638294 157.230377 3.955205 0.000000 0.000000 1.000000 1.000000
v 2.182937 78.615189 6.718375 0.000000 0.000000 1.000000 1.000000
v 2.612923 39.307594 8.041740 0.000000 0.000000 1.000000 1.000000
v 3.042909 0.000001 9.365105 0.000000 0.000000 1.000000 1.000000
v 2.170768 117.922775 5.240726 0.000000 0.000000 1.000000 1.000000
v 1.943550 157.230377 3.814412 0.000000 0.000000 1.000000 1.000000
v 2.703241 78.615189 6.526244 0.000000 0.000000 1.000000 1.000000
v 3.235715 39.307594 7.811764 0.000000 0.000000 1.000000 1.000000
v 3.768188 0.000001 9.097284 0.000000 0.000000 1.000000 1.000000
v 2.575237 117.922768 5.054173 0.000000 0.000000 1.000000 1.000000
v 2.236880 157.230377 3.650212 0.000000 0.000000 1.000000 1.000000
v 3.206925 78.615189 6.293931 0.000000 0.000000 1.000000 1.000000
v 3.838611 39.307594 7.533690 0.000000 0.000000 1.000000 1.000000
v 4.470298 0.000001 8.773449 0.000000 0.000000 1.000000 1.000000
v 2.963904 117.922775 4.836603 0.000000 0.000000 1.000000 1.000000
v 2.516429 157.230377 3.463547 0.000000 0.000000 1.000000 1.000000
v 3.690928 78.615189 6.022993 0.000000 0.000000 1.000000 1.000000
v 4.417951 39.307594 7.209384 0.000000 0.000000 1.000000 1.000000
v 5.144976 0.000001 8.395776 0.000000 0.000000 1.000000 1.000000
v 3.334310 117.922775 4.589269 0.000000 0.000000 1.000000 1.000000
v 2.780343 157.230377 3.255364 0.000000 0.000000 1.000000 1.000000
v 4.152192 78.615189 5.714991 0.000000 0.000000 1.000000 1.000000
v 4.970074 39.307594 6.840712 0.000000 0.000000 1.000000 1.000000
v 5.787956 0.000001 7.966434 0.000000 0.000000 1.000000 1.000000
v 3.684001 117.922775 4.313422 0.000000 0.000000 1.000000 1.000000
v 3.027152 157.230377 3.027132 0.000000 0.000000 1.000000 1.000000
v 4.587660 78.615189 5.371480 0.000000 0.000000 1.000000 1.000000
v 5.491318 39.307594 6.429539 0.000000 0.000000 1.000000 1.000000
v 6.394977 0.000001 7.487597 0.000000 0.000000 1.000000 1.000000
v 4.011026 117.922768 4.011011 0.000000 0.000000 1.000000 1.000000
v 4.994903 78.615189 4.994891 0.000000 0.000000 1.000000 1.000000
v 5.978777 39.307594 5.978770 0.000000 0.000000 1.000000 1.000000
v 6.962653 0.000000 6.962649 0.000000 0.000000 1.000000 1.000000
v 7.487602 0.000000 6.394974 0.000000 0.000000 1.000000 1.000000
v 6.429548 39.307594 5.491311 0.000000 0.000000 1.000000 1.000000
v 7.966438 0.000000 5.787954 0.000000 0.000000 1.000000 1.000000
v 5.371493 78.615189 4.587649 0.000000 0.000000 1.000000 1.000000
v 6.840721 39.307594 4.970068 0.000000 0.000000 1.000000 1.000000
v 8.395781 0.000000 5.144973 0.000000 0.000000 1.000000 1.000000
v 4.313438 117.922775 3.683986 0.000000 0.000000 1.000000 1.000000
v 3.255383 157.230377 2.780323 0.000000 0.000000 1.000000 1.000000
v 5.715003 78.615189 4.152181 0.000000 0.000000 1.000000 1.000000
v 7.209393 39.307594 4.417944 0.000000 0.000000 1.000000 1.000000
v 8.773455 0.000000 4.470295 0.000000 0.000000 1.000000 1.000000
v 4.589285 117.922775 3.334295 0.000000 0.000000 1.000000 1.000000
v 3.463567 157.230377 2.516409 0.000000 0.000000 1.000000 1.000000
v 6.023006 78.615189 3.690917 0.000000 0.000000 1.000000 1.000000
v 7.533699 39.307594 3.838604 0.000000 0.000000 1.000000 1.000000
v 9.097287 0.000000 3.768184 0.000000 0.000000 1.000000 1.000000
v 4.836619 117.922775 2.963888 0.000000 0.000000 1.000000 1.000000
v 3.650232 157.230377 2.236860 0.000000 0.000000 1.000000 1.000000
v 6.293944 78.615189 3.206913 0.000000 0.000000 1.000000 1.000000
v 7.811773 39.307594 3.235706 0.000000 0.000000 1.000000 1.000000
v 9.365108 -0.000000 3.042904 0.000000 0.000000 1.000000 1.000000
v 5.054189 117.922768 2.575222 0.000000 0.000000 1.000000 1.000000
v 3.814433 157.230377 1.943531 0.000000 0.000000 1.000000 1.000000
v 6.526257 78.615189 2.703229 0.000000 0.000000 1.000000 1.000000
v 8.041748 39.307594 2.612914 0.000000 0.000000 1.000000 1.000000
v 9.574743 -0.000000 2.298719 0.000000 0.000000 1.000000 1.000000
v 5.240741 117.922775 2.170752 0.000000 0.000000 1.000000 1.000000
v 3.955226 157.230377 1.638274 0.000000 0.000000 1.000000 1.000000
v 6.718387 78.615189 2.182924 0.000000 0.000000 1.000000 1.000000
v 8.221760 39.307594 1.973888 0.000000 0.000000 1.000000 1.000000
v 9.725446 -0.000000 1.540355 0.000000 0.000000 1.000000 1.000000
v 5.395027 117.922775 1.752934 0.000000 0.000000 1.000000 1.000000
v 4.071666 157.230377 1.322944 0.000000 0.000000 1.000000 1.000000
v 6.868776 78.615189 1.649057 0.000000 0.000000 1.000000 1.000000
v 8.351166 39.307594 1.322686 0.000000 0.000000 1.000000 1.000000
v 9.816464 -0.000000 0.772538 0.000000 0.000000 1.000000 1.000000
v 5.515793 117.922775 1.324226 0.000000 0.000000 1.000000 1.000000
v 4.162809 157.230377 0.999395 0.000000 0.000000 1.000000 1.000000
v 6.976888 78.615189 1.105018 0.000000 0.000000 1.000000 1.000000
v 8.429325 39.307594 0.663368 0.000000 0.000000 1.000000 1.000000
v 9.847054 -0.000000 -0.000004 0.000000 0.000000 1.000000 1.000000
v 5.602609 117.922768 0.887350 0.000000 0.000000 1.000000 1.000000
v 4.228329 157.230377 0.669681 0.000000 0.000000 1.000000 1.000000
v 7.042184 78.615189 0.554198 0.000000 0.000000 1.000000 1.000000
v 5.655043 117.922775 0.445028 0.000000 0.000000 1.000000 1.000000
v 4.267902 157.230377 0.335858 0.000000 0.000000 1.000000 1.000000
v 8.455590 39.307594 -0.000008 0.000000 0.000000 1.000000 1.000000
v 7.064127 78.615189 -0.000012 0.000000 0.000000 1.000000 1.000000
v 5.672664 117.922775 -0.000016 0.000000 0.000000 1.000000 1.000000
v 4.281201 157.230377 -0.000020 0.000000 0.000000 1.000000 1.000000
v 4.267902 157.230377 -0.335899 0.000000 0.000000 1.000000 1.000000
v 5.655043 117.922775 -0.445060 0.000000 0.000000 1.000000 1.000000
v 4.228329 157.230377 -0.669722 0.000000 0.000000 1.000000 1.000000
v 7.042182 78.615189 -0.554222 0.000000 0.000000 1.000000 1.000000
v 5.602607 117.922768 -0.887382 0.000000 0.000000 1.000000 1.000000
v 4.162808 157.230377 -0.999435 0.000000 0.000000 1.000000 1.000000
v 8.429323 39.307594 -0.663384 0.000000 0.000000 1.000000 1.000000
v 9.816463 -0.000000 -0.772546 0.000000 0.000000 1.000000 1.000000
v 6.976886 78.615189 -1.105042 0.000000 0.000000 1.000000 1.000000
v 5.515791 117.922775 -1.324257 0.000000 0.000000 1.000000 1.000000
v 4.071665 157.230377 -1.322983 0.000000 0.000000 1.000000 1.000000
v 8.351163 39.307594 -1.322701 0.000000 0.000000 1.000000 1.000000
v 9.725442 -0.000001 -1.540362 0.000000 0.000000 1.000000 1.000000
v 6.868774 78.615189 -1.649080 0.000000 0.000000 1.000000 1.000000
v 5.395024 117.922775 -1.752964 0.000000 0.000000 1.000000 1.000000
v 3.955224 157.230377 -1.638312 0.000000 0.000000 1.000000 1.000000
v 8.221758 39.307594 -1.973902 0.000000 0.000000 1.000000 1.000000
v 9.574739 -0.000001 -2.298724 0.000000 0.000000 1.000000 1.000000
v 6.718384 78.615189 -2.182945 0.000000 0.000000 1.000000 1.000000
v 5.240739 117.922775 -2.170781 0.000000 0.000000 1.000000 1.000000
v 3.814432 157.230377 -1.943568 0.000000 0.000000 1.000000 1.000000
v 8.041743 39.307594 -2.612927 0.000000 0.000000 1.000000 1.000000
v 9.365104 -0.000001 -3.042908 0.000000 0.000000 1.000000 1.000000
v 6.526253 78.615189 -2.703249 0.000000 0.000000 1.000000 1.000000
v 5.054186 117.922768 -2.575250 0.000000 0.000000 1.000000 1.000000
v 3.650231 157.230377 -2.236897 0.000000 0.000000 1.000000 1.000000
v 7.811768 39.307594 -3.235717 0.000000 0.000000 1.000000 1.000000
v 9.097282 -0.000001 -3.768186 0.000000 0.000000 1.000000 1.000000
v 6.293941 78.615189 -3.206932 0.000000 0.000000 1.000000 1.000000
v 4.836617 117.922775 -2.963916 0.000000 0.000000 1.000000 1.000000
v 3.463566 157.230377 -2.516446 0.000000 0.000000 1.000000 1.000000
v 7.533694 39.307594 -3.838613 0.000000 0.000000 1.000000 1.000000
v 8.773449 -0.000001 -4.470295 0.000000 0.000000 1.000000 1.000000
v 6.023002 78.615189 -3.690934 0.000000 0.000000 1.000000 1.000000
v 4.589283 117.922775 -3.334322 0.000000 0.000000 1.000000 1.000000
v 3.255382 157.230377 -2.780360 0.000000 0.000000 1.000000 1.000000
v 7.209388 39.307594 -4.417953 0.000000 0.000000 1.000000 1.000000
v 8.395775 -0.000001 -5.144971 0.000000 0.000000 1.000000 1.000000
v 5.715000 78.615189 -4.152198 0.000000 0.000000 1.000000 1.000000
v 4.313436 117.922775 -3.684013 0.000000 0.000000 1.000000 1.000000
v 3.027150 157.230377 -3.027169 0.000000 0.000000 1.000000 1.000000
v 6.840717 39.307594 -4.970075 0.000000 0.000000 1.000000 1.000000
v 7.966433 -0.000001 -5.787951 0.000000 0.000000 1.000000 1.000000
v 5.371490 78.615189 -4.587666 0.000000 0.000000 1.000000 1.000000
v 6.429543 39.307594 -5.491319 0.000000 0.000000 1.000000 1.000000
v 7.487596 -0.000001 -6.394971 0.000000 0.000000 1.000000 1.000000
v 4.011024 117.922768 -4.011038 0.000000 0.000000 1.000000 1.000000
v 4.994899 78.615189 -4.994908 0.000000 0.000000 1.000000 1.000000
v 5.978773 39.307594 -5.978777 0.000000 0.000000 1.000000 1.000000
v 6.962648 -0.000001 -6.962647 0.000000 0.000000 1.000000 1.000000
v 6.394973 -0.000001 -7.487595 0.000000 0.000000 1.000000 1.000000
v 5.491314 39.307594 -6.429547 0.000000 0.000000 1.000000 1.000000
v 5.787953 -0.000001 -7.966433 0.000000 0.000000 1.000000 1.000000
v 4.587657 78.615189 -5.371498 0.000000 0.000000 1.000000 1.000000
v 4.970072 39.307594 -6.840722 0.000000 0.000000 1.000000 1.000000
v 5.144972 -0.000001 -8.395775 0.000000 0.000000 1.000000 1.000000
v 3.684000 117.922775 -4.313449 0.000000 0.000000 1.000000 1.000000
v 2.780342 157.230377 -3.255401 0.000000 0.000000 1.000000 1.000000
v 4.152190 78.615189 -5.715010 0.000000 0.000000 1.000000 1.000000
v 4.417949 39.307594 -7.209394 0.000000 0.000000 1.000000 1.000000
v 4.470295 -0.000001 -8.773450 0.000000 0.000000 1.000000 1.000000
v 3.334309 117.922775 -4.589296 0.000000 0.000000 1.000000 1.000000
v 2.516427 157.230377 -3.463585 0.000000 0.000000 1.000000 1.000000
v 3.690926 78.615189 -6.023012 0.000000 0.000000 1.000000 1.000000
v 3.838609 39.307594 -7.533700 0.000000 0.000000 1.000000 1.000000
v 3.768186 -0.000001 -9.097284 0.000000 0.000000 1.000000 1.000000
v 2.963902 117.922775 -4.836630 0.000000 0.000000 1.000000 1.000000
v 2.236879 157.230377 -3.650249 0.000000 0.000000 1.000000 1.000000
v 3.206923 78.615189 -6.293950 0.000000 0.000000 1.000000 1.000000
v 3.235713 39.307594 -7.811774 0.000000 0.000000 1.000000 1.000000
v 3.042907 -0.000001 -9.365105 0.000000 0.000000 1.000000 1.000000
v 2.575236 117.922768 -5.054200 0.000000 0.000000 1.000000 1.000000
v 1.943550 157.230377 -3.814450 0.000000 0.000000 1.000000 1.000000
v 2.703240 78.615189 -6.526263 0.000000 0.000000 1.000000 1.000000
v 2.612922 39.307594 -8.041750 0.000000 0.000000 1.000000 1.000000
v 2.298723 -0.000002 -9.574742 0.000000 0.000000 1.000000 1.000000
v 2.170767 117.922775 -5.240753 0.000000 0.000000 1.000000 1.000000
v 1.638294 157.230377 -3.955243 0.000000 0.000000 1.000000 1.000000
v 2.182936 78.615189 -6.718395 0.000000 0.000000 1.000000 1.000000
v 1.973896 39.307594 -8.221764 0.000000 0.000000 1.000000 1.000000
v 1.540359 -0.000002 -9.725445 0.000000 0.000000 1.000000 1.000000
v 1.752950 117.922775 -5.395039 0.000000 0.000000 1.000000 1.000000
v 1.322965 157.230377 -4.071683 0.000000 0.000000 1.000000 1.000000
v 1.649069 78.615189 -6.868785 0.000000 0.000000 1.000000 1.000000
v 1.322695 39.307594 -8.351171 0.000000 0.000000 1.000000 1.000000
v 0.772543 -0.000002 -9.816464 0.000000 0.000000 1.000000 1.000000
v 1.324242 117.922775 -5.515805 0.000000 0.000000 1.000000 1.000000
v 0.999416 157.230377 -4.162827 0.000000 0.000000 1.000000 1.000000
v 1.105031 78.615189 -6.976896 0.000000 0.000000 1.000000 1.000000
v 0.663377 39.307594 -8.429331 0.000000 0.000000 1.000000 1.000000
v 0.000001 -0.000002 -9.847055 0.000000 0.000000 1.000000 1.000000
v 0.887366 117.922768 -5.602622 0.000000 0.000000 1.000000 1.000000
v 0.669702 157.230377 -4.228348 0.000000 0.000000 1.000000 1.000000
v 0.554211 78.615189 -7.042193 0.000000 0.000000 1.000000 1.000000
v 0.445045 117.922775 -5.655058 0.000000 0.000000 1.000000 1.000000
v 0.335879 157.230377 -4.267922 0.000000 0.000000 1.000000 1.000000
v 0.000001 39.307594 -8.455596 0.000000 0.000000 1.000000 1.000000
v 0.000001 78.615189 -7.064139 0.000000 0.000000 1.000000 1.000000
v 0.000001 117.922775 -5.672680 0.000000 0.000000 1.000000 1.000000
v 0.000000 157.230377 -4.281221 0.000000 0.000000 1.000000 1.000000
v -0.335878 157.230377 -4.267922 0.000000 0.000000 1.000000 1.000000
v -0.445044 117.922775 -5.655058 0.000000 0.000000 1.000000 1.000000
v -0.669701 157.230377 -4.228348 0.000000 0.000000 1.000000 1.000000
v -0.554210 78.615189 -7.042193 0.000000 0.000000 1.000000 1.000000
v -0.887365 117.922768 -5.602622 0.000000 0.000000 1.000000 1.000000
v -0.999415 157.230377 -4.162827 0.000000 0.000000 1.000000 1.000000
v -0.663376 39.307594 -8.429330 0.000000 0.000000 1.000000 1.000000
v -0.772542 -0.000002 -9.816464 0.000000 0.000000 1.000000 1.000000
v -1.105029 78.615189 -6.976896 0.000000 0.000000 1.000000 1.000000
v -1.324241 117.922775 -5.515805 0.000000 0.000000 1.000000 1.000000
v -1.322964 157.230377 -4.071683 0.000000 0.000000 1.000000 1.000000
v -1.322694 39.307594 -8.351171 0.000000 0.000000 1.000000 1.000000
v -1.540358 -0.000002 -9.725445 0.000000 0.000000 1.000000 1.000000
v -1.649068 78.615189 -6.868784 0.000000 0.000000 1.000000 1.000000
v -1.752949 117.922775 -5.395039 0.000000 0.000000 1.000000 1.000000
v -1.638293 157.230377 -3.955243 0.000000 0.000000 1.000000 1.000000
v -1.973895 39.307594 -8.221764 0.000000 0.000000 1.000000 1.000000
v -2.298721 -0.000002 -9.574742 0.000000 0.000000 1.000000 1.000000
v -2.182935 78.615189 -6.718394 0.000000 0.000000 1.000000 1.000000
v -2.170766 117.922775 -5.240753 0.000000 0.000000 1.000000 1.000000
v -1.943549 157.230377 -3.814450 0.000000 0.000000 1.000000 1.000000
v -2.612920 39.307594 -8.041750 0.000000 0.000000 1.000000 1.000000
v -3.042906 -0.000001 -9.365105 0.000000 0.000000 1.000000 1.000000
v -2.703239 78.615189 -6.526263 0.000000 0.000000 1.000000 1.000000
v -2.575236 117.922768 -5.054200 0.000000 0.000000 1.000000 1.000000
v -2.236878 157.230377 -3.650249 0.000000 0.000000 1.000000 1.000000
v -3.235711 39.307594 -7.811774 0.000000 0.000000 1.000000 1.000000
v -3.768185 -0.000001 -9.097284 0.000000 0.000000 1.000000 1.000000
v -3.206922 78.615189 -6.293950 0.000000 0.000000 1.000000 1.000000
v -2.963902 117.922775 -4.836630 0.000000 0.000000 1.000000 1.000000
v -2.516427 157.230377 -3.463585 0.000000 0.000000 1.000000 1.000000
v -3.838608 39.307594 -7.533700 0.000000 0.000000 1.000000 1.000000
v -4.470294 -0.000001 -8.773449 0.000000 0.000000 1.000000 1.000000
v -3.690925 78.615189 -6.023012 0.000000 0.000000 1.000000 1.000000
v -3.334308 117.922775 -4.589297 0.000000 0.000000 1.000000 1.000000
v -2.780341 157.230377 -3.255401 0.000000 0.000000 1.000000 1.000000
v -4.417948 39.307594 -7.209394 0.000000 0.000000 1.000000 1.000000
v -5.144970 -0.000001 -8.395776 0.000000 0.000000 1.000000 1.000000
v -4.152189 78.615189 -5.715010 0.000000 0.000000 1.000000 1.000000
v -3.683999 117.922775 -4.313450 0.000000 0.000000 1.000000 1.000000
v -3.027150 157.230377 -3.027169 0.000000 0.000000 1.000000 1.000000
v -4.970070 39.307594 -6.840722 0.000000 0.000000 1.000000 1.000000
v -5.787951 -0.000001 -7.966434 0.000000 0.000000 1.000000 1.000000
v -4.587656 78.615189 -5.371500 0.000000 0.000000 1.000000 1.000000
v -5.491314 39.307594 -6.429548 0.000000 0.000000 1.000000 1.000000
v -6.394971 -0.000001 -7.487597 0.000000 0.000000 1.000000 1.000000
v -4.011024 117.922768 -4.011039 0.000000 0.000000 1.000000 1.000000
v -4.994899 78.615189 -4.994910 0.000000 0.000000 1.000000 1.000000
v -5.978773 39.307594 -5.978779 0.000000 0.000000 1.000000 1.000000
v -6.962647 -0.000001 -6.962649 0.000000 0.000000 1.000000 1.000000
v -7.487596 -0.000001 -6.394975 0.000000 0.000000 1.000000 1.000000
v -6.429542 39.307594 -5.491321 0.000000 0.000000 1.000000 1.000000
v -7.966432 -0.000001 -5.787955 0.000000 0.000000 1.000000 1.000000
v -5.371489 78.615189 -4.587668 0.000000 0.000000 1.000000 1.000000
v -6.840716 39.307594 -4.970078 0.000000 0.000000 1.000000 1.000000
v -8.395774 -0.000001 -5.144974 0.000000 0.000000 1.000000 1.000000
v -4.313435 117.922775 -3.684014 0.000000 0.000000 1.000000 1.000000
v -3.255382 157.230377 -2.780361 0.000000 0.000000 1.000000 1.000000
v -5.714999 78.615189 -4.152201 0.000000 0.000000 1.000000 1.000000
v -7.209388 39.307594 -4.417955 0.000000 0.000000 1.000000 1.000000
v -8.773448 -0.000001 -4.470297 0.000000 0.000000 1.000000 1.000000
v -4.589282 117.922775 -3.334323 0.000000 0.000000 1.000000 1.000000
v -3.463566 157.230377 -2.516447 0.000000 0.000000 1.000000 1.000000
v -6.023002 78.615189 -3.690936 0.000000 0.000000 1.000000 1.000000
v -7.533694 39.307594 -3.838615 0.000000 0.000000 1.000000 1.000000
v -9.097282 -0.000001 -3.768188 0.000000 0.000000 1.000000 1.000000
v -4.836616 117.922775 -2.963917 0.000000 0.000000 1.000000 1.000000
v -3.650230 157.230377 -2.236898 0.000000 0.000000 1.000000 1.000000
v -6.293940 78.615189 -3.206933 0.000000 0.000000 1.000000 1.000000
v -7.811768 39.307594 -3.235719 0.000000 0.000000 1.000000 1.000000
v -9.365104 -0.000001 -3.042908 0.000000 0.000000 1.000000 1.000000
v -5.054186 117.922768 -2.575251 0.000000 0.000000 1.000000 1.000000
v -3.814431 157.230377 -1.943569 0.000000 0.000000 1.000000 1.000000
v -6.526253 78.615189 -2.703250 0.000000 0.000000 1.000000 1.000000
v -8.041743 39.307594 -2.612928 0.000000 0.000000 1.000000 1.000000
v -9.574739 -0.000001 -2.298725 0.000000 0.000000 1.000000 1.000000
v -5.240739 117.922775 -2.170782 0.000000 0.000000 1.000000 1.000000
v -3.955224 157.230377 -1.638313 0.000000 0.000000 1.000000 1.000000
v -6.718384 78.615189 -2.182946 0.000000 0.000000 1.000000 1.000000
v -8.221757 39.307594 -1.973902 0.000000 0.000000 1.000000 1.000000
v -9.725443 -0.000001 -1.540362 0.000000 0.000000 1.000000 1.000000
v -5.395024 117.922775 -1.752965 0.000000 0.000000 1.000000 1.000000
v -4.071664 157.230377 -1.322984 0.000000 0.000000 1.000000 1.000000
v -6.868773 78.615189 -1.649080 0.000000 0.000000 1.000000 1.000000
v -8.351163 39.307594 -1.322701 0.000000 0.000000 1.000000 1.000000
v -9.816463 -0.000000 -0.772546 0.000000 0.000000 1.000000 1.000000
v -5.515791 117.922775 -1.324257 0.000000 0.000000 1.000000 1.000000
v -4.162808 157.230377 -0.999435 0.000000 0.000000 1.000000 1.000000
v -6.976886 78.615189 -1.105042 0.000000 0.000000 1.000000 1.000000
v -8.429322 39.307594 -0.663384 0.000000 0.000000 1.000000 1.000000
v -9.847053 -0.000000 -0.000004 0.000000 0.000000 1.000000 1.000000
v -5.602607 117.922768 -0.887382 0.000000 0.000000 1.000000 1.000000
v -4.228329 157.230377 -0.669722 0.000000 0.000000 1.000000 1.000000
v -7.042182 78.615189 -0.554222 0.000000 0.000000 1.000000 1.000000
v -5.655043 117.922775 -0.445060 0.000000 0.000000 1.000000 1.000000
v -4.267902 157.230377 -0.335899 0.000000 0.000000 1.000000 1.000000
v -8.455590 39.307594 -0.000008 0.000000 0.000000 1.000000 1.000000
v -7.064127 78.615189 -0.000012 0.000000 0.000000 1.000000 1.000000
v -5.672663 117.922775 -0.000016 0.000000 0.000000 1.000000 1.000000
v -4.281201 157.230377 -0.000020 0.000000 0.000000 1.000000 1.000000
v -4.267902 157.230377 0.335858 0.000000 0.000000 1.000000 1.000000
v -5.655042 117.922775 0.445028 0.000000 0.000000 1.000000 1.000000
v -4.228329 157.230377 0.669681 0.000000 0.000000 1.000000 1.000000
v -7.042182 78.615189 0.554198 0.000000 0.000000 1.000000 1.000000
v -5.602607 117.922768 0.887350 0.000000 0.000000 1.000000 1.000000
v -4.162808 157.230377 0.999395 0.000000 0.000000 1.000000 1.000000
v -8.429323 39.307594 0.663368 0.000000 0.000000 1.000000 1.000000
v -9.816463 -0.000000 0.772538 0.000000 0.000000 1.000000 1.000000
v -6.976886 78.615189 1.105018 0.000000 0.000000 1.000000 1.000000
v -5.515791 117.922775 1.324226 0.000000 0.000000 1.000000 1.000000
v -4.071665 157.230377 1.322944 0.000000 0.000000 1.000000 1.000000
v -8.351163 39.307594 1.322686 0.000000 0.000000 1.000000 1.000000
v -9.725442 -0.000000 1.540355 0.000000 0.000000 1.000000 1.000000
v -6.868774 78.615189 1.649056 0.000000 0.000000 1.000000 1.000000
v -5.395024 117.922775 1.752933 0.000000 0.000000 1.000000 1.000000
v -3.955224 157.230377 1.638273 0.000000 0.000000 1.000000 1.000000
v -8.221758 39.307594 1.973887 0.000000 0.000000 1.000000 1.000000
v -9.574739 -0.000000 2.298718 0.000000 0.000000 1.000000 1.000000
v -6.718384 78.615189 2.182924 0.000000 0.000000 1.000000 1.000000
v -5.240739 117.922775 2.170750 0.000000 0.000000 1.000000 1.000000
v -3.814432 157.230377 1.943529 0.000000 0.000000 1.000000 1.000000
v -8.041743 39.307594 2.612913 0.000000 0.000000 1.000000 1.000000
v -9.365104 -0.000000 3.042902 0.000000 0.000000 1.000000 1.000000
v -6.526253 78.615189 2.703228 0.000000 0.000000 1.000000 1.000000
v -5.054186 117.922768 2.575219 0.000000 0.000000 1.000000 1.000000
v -3.650231 157.230377 2.236858 0.000000 0.000000 1.000000 1.000000
v -7.811768 39.307594 3.235704 0.000000 0.000000 1.000000 1.000000
v -9.097282 0.000000 3.768181 0.000000 0.000000 1.000000 1.000000
v -6.293941 78.615189 3.206909 0.000000 0.000000 1.000000 1.000000
v -4.836617 117.922775 2.963886 0.000000 0.000000 1.000000 1.000000
v -3.463566 157.230377 2.516407 0.000000 0.000000 1.000000 1.000000
v -7.533694 39.307594 3.838600 0.000000 0.000000 1.000000 1.000000
v -8.773449 0.000000 4.470290 0.000000 0.000000 1.000000 1.000000
v -6.023002 78.615189 3.690912 0.000000 0.000000 1.000000 1.000000
v -4.589283 117.922775 3.334292 0.000000 0.000000 1.000000 1.000000
v -3.255382 157.230377 2.780321 0.000000 0.000000 1.000000 1.000000
v -7.209388 39.307594 4.417940 0.000000 0.000000 1.000000 1.000000
v -8.395775 0.000000 5.144967 0.000000 0.000000 1.000000 1.000000
v -5.715000 78.615189 4.152176 0.000000 0.000000 1.000000 1.000000
v -4.313436 117.922775 3.683983 0.000000 0.000000 1.000000 1.000000
v -3.027150 157.230377 3.027130 0.000000 0.000000 1.000000 1.000000
v -6.840717 39.307594 4.970062 0.000000 0.000000 1.000000 1.000000
v -7.966433 0.000000 5.787947 0.000000 0.000000 1.000000 1.000000
v -5.371490 78.615189 4.587645 0.000000 0.000000 1.000000 1.000000
v -6.429543 39.307594 5.491306 0.000000 0.000000 1.000000 1.000000
v -7.487596 0.000000 6.394968 0.000000 0.000000 1.000000 1.000000
v -4.011024 117.922768 4.011009 0.000000 0.000000 1.000000 1.000000
v -4.994899 78.615189 4.994888 0.000000 0.000000 1.000000 1.000000
v -5.978773 39.307594 5.978766 0.000000 0.000000 1.000000 1.000000
v -6.962648 0.000000 6.962645 0.000000 0.000000 1.000000 1.000000
v -6.394972 0.000001 7.487594 0.000000 0.000000 1.000000 1.000000
v -5.491314 39.307594 6.429536 0.000000 0.000000 1.000000 1.000000
v -5.787953 0.000001 7.966433 0.000000 0.000000 1.000000 1.000000
v -4.587657 78.615189 5.371479 0.000000 0.000000 1.000000 1.000000
v -4.970071 39.307594 6.840711 0.000000 0.000000 1.000000 1.000000
v -5.144972 0.000001 8.395775 0.000000 0.000000 1.000000 1.000000
v -3.684000 117.922775 4.313421 0.000000 0.000000 1.000000 1.000000
v -2.780342 157.230377 3.255362 0.000000 0.000000 1.000000 1.000000
v -4.152190 78.615189 5.714989 0.000000 0.000000 1.000000 1.000000
v -4.417949 39.307594 7.209384 0.000000 0.000000 1.000000 1.000000
v -4.470295 0.000001 8.773450 0.000000 0.000000 1.000000 1.000000
v -3.334308 117.922775 4.589268 0.000000 0.000000 1.000000 1.000000
v -2.516427 157.230377 3.463547 0.000000 0.000000 1.000000 1.000000
v -3.690926 78.615189 6.022993 0.000000 0.000000 1.000000 1.000000
v -3.838609 39.307594 7.533690 0.000000 0.000000 1.000000 1.000000
v -3.768186 0.000001 9.097284 0.000000 0.000000 1.000000 1.000000
v -2.963902 117.922775 4.836602 0.000000 0.000000 1.000000 1.000000
v -2.236879 157.230377 3.650212 0.000000 0.000000 1.000000 1.000000
v -3.206923 78.615189 6.293931 0.000000 0.000000 1.000000 1.000000
v -3.235713 39.307594 7.811764 0.000000 0.000000 1.000000 1.000000
v -3.042906 0.000001 9.365105 0.000000 0.000000 1.000000 1.000000
v -2.575236 117.922768 5.054172 0.000000 0.000000 1.000000 1.000000
v -1.943550 157.230377 3.814412 0.000000 0.000000 1.000000 1.000000
v -2.703240 78.615189 6.526244 0.000000 0.000000 1.000000 1.000000
v -2.612921 39.307594 8.041740 0.000000 0.000000 1.000000 1.000000
v -2.298722 0.000001 9.574742 0.000000 0.000000 1.000000 1.000000
v -2.170767 117.922775 5.240726 0.000000 0.000000 1.000000 1.000000
v -1.638294 157.230377 3.955205 0.000000 0.000000 1.000000 1.000000
v -2.182935 78.615189 6.718376 0.000000 0.000000 1.000000 1.000000
v -1.973895 39.307594 8.221754 0.000000 0.000000 1.000000 1.000000
v -1.540358 0.000001 9.725445 0.000000 0.000000 1.000000 1.000000
v -1.752950 117.922775 5.395011 0.000000 0.000000 1.000000 1.000000
v -1.322964 157.230377 4.071646 0.000000 0.000000 1.000000 1.000000
v -1.649068 78.615189 6.868766 0.000000 0.000000 1.000000 1.000000
v -1.322694 39.307594 8.351161 0.000000 0.000000 1.000000 1.000000
v -0.772542 0.000001 9.816464 0.000000 0.000000 1.000000 1.000000
v -1.324242 117.922775 5.515778 0.000000 0.000000 1.000000 1.000000
v -0.999415 157.230377 4.162790 0.000000 0.000000 1.000000 1.000000
v -1.105030 78.615189 6.976877 0.000000 0.000000 1.000000 1.000000
v -0.663376 39.307594 8.429321 0.000000 0.000000 1.000000 1.000000
v 0.000001 0.000001 9.847055 0.000000 0.000000 1.000000 1.000000
v 0.000001 39.307594 8.455586 0.000000 0.000000 1.000000 1.000000
v -0.887366 117.922768 5.602594 0.000000 0.000000 1.000000 1.000000
v -0.669701 157.230377 4.228311 0.000000 0.000000 1.000000 1.000000
v -0.554210 78.615189 7.042174 0.000000 0.000000 1.000000 1.000000
v 0.000001 78.615189 7.064120 0.000000 0.000000 1.000000 1.000000
v -0.445044 117.922775 5.655030 0.000000 0.000000 1.000000 1.000000
v -0.335878 157.230377 4.267885 0.000000 0.000000 1.000000 1.000000
v 0.000001 117.922775 5.672652 0.000000 0.000000 1.000000 1.000000
v 0.000000 157.230377 4.281184 0.000000 0.000000 1.000000 1.000000
vt 2.914062 5.457031
vt 2.421875 10.343750
vt 2.380859 10.343750
vt 2.857422 5.453125
vt 2.337891 10.335938
vt 3.406250 0.566650
vt 2.802734 5.445312
vt 2.294922 10.335938
vt 3.335938 0.560059
vt 3.898438 -4.324219
vt 2.746094 5.441406
vt 2.253906 10.328125
vt 3.267578 0.553467
vt 3.814453 -4.332031
vt 4.390625 -9.210938
vt 4.292969 -9.226562
vt 3.730469 -4.339844
vt 4.195312 -9.234375
vt 3.197266 0.546875
vt 3.648438 -4.347656
vt 4.097656 -9.242188
vt 2.689453 5.437500
vt 2.210938 10.328125
vt 3.126953 0.540527
vt 3.564453 -4.355469
vt 4.000000 -9.250000
vt 2.634766 5.429688
vt 2.167969 10.320312
vt 3.056641 0.534424
vt 3.480469 -4.363281
vt 3.904297 -9.257812
vt 2.578125 5.425781
vt 2.126953 10.320312
vt 2.986328 0.528564
vt 3.396484 -4.367188
vt 3.806641 -9.265625
vt 2.521484 5.421875
vt 2.083984 10.312500
vt 2.917969 0.522705
vt 3.312500 -4.375000
vt 3.708984 -9.273438
vt 2.464844 5.417969
vt 2.041016 10.312500
vt 2.847656 0.517334
vt 3.228516 -4.382812
vt 3.611328 -9.281250
vt 2.410156 5.414062
vt 1.999023 10.312500
vt 2.777344 0.511963
vt 3.146484 -4.390625
vt 3.513672 -9.289062
vt 2.353516 5.410156
vt 2.707031 0.506836
vt 3.062500 -4.394531
vt 3.416016 -9.296875
vt 3.318359 -9.304688
vt 2.978516 -4.402344
vt 3.220703 -9.312500
vt 2.636719 0.501709
vt 2.894531 -4.406250
vt 3.123047 -9.320312
vt 2.296875 5.406250
vt 1.957031 10.304688
vt 2.568359 0.497070
vt 2.810547 -4.414062
vt 3.025391 -9.320312
vt 2.240234 5.402344
vt 1.915039 10.304688
vt 2.498047 0.492676
vt 2.726562 -4.417969
vt 2.927734 -9.328125
vt 2.185547 5.398438
vt 1.872070 10.304688
vt 2.427734 0.488281
vt 2.642578 -4.421875
vt 2.830078 -9.335938
vt 2.128906 5.394531
vt 1.830078 10.296875
vt 2.357422 0.483887
vt 2.558594 -4.425781
vt 2.732422 -9.335938
vt 2.072266 5.390625
vt 1.787109 10.296875
vt 2.287109 0.479980
vt 2.474609 -4.433594
vt 2.634766 -9.343750
vt 2.015625 5.386719
vt 1.745117 10.296875
vt 2.216797 0.476074
vt 2.390625 -4.437500
vt 2.537109 -9.351562
vt 1.959961 5.382812
vt 1.702148 10.289062
vt 2.146484 0.472656
vt 2.306641 -4.441406
vt 2.439453 -9.351562
vt 1.904297 5.382812
vt 1.660156 10.289062
vt 2.078125 0.469238
vt 1.847656 5.378906
vt 1.617188 10.289062
vt 2.224609 -4.445312
vt 2.007812 0.466309
vt 1.791016 5.375000
vt 1.575195 10.289062
vt 1.532227 10.281250
vt 1.735352 5.375000
vt 1.490234 10.281250
vt 1.937500 0.463379
vt 1.678711 5.371094
vt 1.447266 10.281250
vt 2.140625 -4.449219
vt 2.341797 -9.359375
vt 1.867188 0.460449
vt 1.623047 5.367188
vt 1.405273 10.281250
vt 2.056641 -4.449219
vt 2.244141 -9.359375
vt 1.797852 0.458008
vt 1.566406 5.367188
vt 1.362305 10.281250
vt 1.972656 -4.453125
vt 2.146484 -9.367188
vt 1.727539 0.455566
vt 1.509766 5.367188
vt 1.320312 10.273438
vt 1.888672 -4.457031
vt 2.048828 -9.367188
vt 1.657227 0.453125
vt 1.454102 5.363281
vt 1.277344 10.273438
vt 1.804688 -4.460938
vt 1.952148 -9.375000
vt 1.586914 0.451172
vt 1.397461 5.363281
vt 1.235352 10.273438
vt 1.720703 -4.460938
vt 1.854492 -9.375000
vt 1.517578 0.449219
vt 1.340820 5.359375
vt 1.192383 10.273438
vt 1.636719 -4.464844
vt 1.756836 -9.375000
vt 1.447266 0.447754
vt 1.285156 5.359375
vt 1.150391 10.273438
vt 1.552734 -4.464844
vt 1.659180 -9.382812
vt 1.376953 0.446289
vt 1.468750 -4.468750
vt 1.561523 -9.382812
vt 1.228516 5.359375
vt 1.306641 0.445312
vt 1.384766 -4.468750
vt 1.462891 -9.382812
vt 1.365234 -9.382812
vt 1.300781 -4.468750
vt 1.267578 -9.382812
vt 1.236328 0.444336
vt 1.216797 -4.472656
vt 1.169922 -9.382812
vt 1.171875 5.359375
vt 1.107422 10.273438
vt 1.166016 0.443359
vt 1.132812 -4.472656
vt 1.072266 -9.390625
vt 1.116211 5.355469
vt 1.065430 10.273438
vt 1.096680 0.442871
vt 1.048828 -4.472656
vt 0.974609 -9.390625
vt 1.059570 5.355469
vt 1.022461 10.273438
vt 1.026367 0.442383
vt 0.965332 -4.472656
vt 0.876953 -9.390625
vt 1.002930 5.355469
vt 0.980469 10.273438
vt 0.956543 0.441895
vt 0.881348 -4.472656
vt 0.779297 -9.390625
vt 0.947266 5.355469
vt 0.937988 10.273438
vt 0.886230 0.441895
vt 0.797852 -4.472656
vt 0.681641 -9.390625
vt 0.890625 5.355469
vt 0.895508 10.273438
vt 0.815918 0.442383
vt 0.713867 -4.472656
vt 0.583496 -9.382812
vt 0.834473 5.355469
vt 0.853027 10.273438
vt 0.746094 0.442383
vt 0.629883 -4.472656
vt 0.486084 -9.382812
vt 0.778320 5.355469
vt 0.810547 10.273438
vt 0.675781 0.442871
vt 0.721680 5.355469
vt 0.768066 10.273438
vt 0.545898 -4.472656
vt 0.605469 0.443848
vt 0.665527 5.359375
vt 0.725586 10.273438
vt 0.683105 10.273438
vt 0.609375 5.359375
vt 0.640137 10.273438
vt 0.535645 0.444824
vt 0.552734 5.359375
vt 0.597656 10.273438
vt 0.461914 -4.468750
vt 0.388184 -9.382812
vt 0.465576 0.445801
vt 0.496582 5.359375
vt 0.555176 10.273438
vt 0.377930 -4.468750
vt 0.290527 -9.382812
vt 0.395264 0.447266
vt 0.440430 5.363281
vt 0.512695 10.273438
vt 0.293945 -4.464844
vt 0.192749 -9.382812
vt 0.325195 0.448730
vt 0.384033 5.363281
vt 0.470459 10.273438
vt 0.210205 -4.464844
vt 0.095093 -9.375000
vt 0.255127 0.450684
vt 0.327637 5.363281
vt 0.427979 10.281250
vt 0.126221 -4.460938
vt -0.002623 -9.375000
vt 0.185059 0.452637
vt 0.271484 5.367188
vt 0.385498 10.281250
vt 0.042389 -4.460938
vt -0.100342 -9.375000
vt 0.114990 0.454590
vt 0.215210 5.367188
vt 0.343018 10.281250
vt -0.041504 -4.457031
vt -0.197998 -9.367188
vt 0.044922 0.457031
vt 0.158936 5.371094
vt 0.300537 10.281250
vt -0.125366 -4.453125
vt -0.295654 -9.367188
vt -0.025162 0.459473
vt -0.209229 -4.453125
vt -0.393311 -9.359375
vt 0.102722 5.371094
vt -0.095215 0.462402
vt -0.293213 -4.449219
vt -0.490967 -9.359375
vt -0.588867 -9.351562
vt -0.376953 -4.445312
vt -0.686523 -9.351562
vt -0.165283 0.465332
vt -0.460938 -4.441406
vt -0.784180 -9.343750
vt 0.046448 5.375000
vt 0.258057 10.281250
vt -0.235352 0.468262
vt -0.544434 -4.437500
vt -0.881836 -9.343750
vt -0.009819 5.378906
vt 0.215698 10.289062
vt -0.305420 0.471680
vt -0.628418 -4.433594
vt -0.979492 -9.335938
vt -0.066040 5.378906
vt 0.173218 10.289062
vt -0.375488 0.475098
vt -0.712402 -4.429688
vt -1.077148 -9.328125
vt -0.122314 5.382812
vt 0.130737 10.289062
vt -0.445312 0.479004
vt -0.795898 -4.425781
vt -1.173828 -9.328125
vt -0.178467 5.386719
vt 0.088379 10.296875
vt -0.515137 0.482910
vt -0.879883 -4.417969
vt -1.271484 -9.320312
vt -0.234741 5.390625
vt 0.045929 10.296875
vt -0.585449 0.486816
vt -0.963867 -4.414062
vt -1.369141 -9.312500
vt -0.291016 5.390625
vt 0.003515 10.296875
vt -0.655273 0.491211
vt -1.046875 -4.410156
vt -1.466797 -9.304688
vt -0.347168 5.394531
vt -0.038879 10.296875
vt -0.725586 0.495605
vt -0.403320 5.398438
vt -0.081299 10.304688
vt -1.130859 -4.402344
vt -0.795410 0.500244
vt -0.459473 5.402344
vt -0.123718 10.304688
vt -0.166138 10.312500
vt -0.515625 5.406250
vt -0.208496 10.312500
vt -0.865234 0.505127
vt -0.571777 5.410156
vt -0.250732 10.312500
vt -1.214844 -4.398438
vt -1.564453 -9.296875
vt -0.935059 0.510254
vt -0.627930 5.414062
vt -0.293213 10.320312
vt -1.298828 -4.390625
vt -1.662109 -9.289062
vt -1.004883 0.515381
vt -0.684082 5.417969
vt -0.335449 10.320312
vt -1.381836 -4.386719
vt -1.759766 -9.281250
vt -1.075195 0.520996
vt -0.740234 5.425781
vt -0.377930 10.328125
vt -1.465820 -4.378906
vt -1.857422 -9.281250
vt -1.144531 0.526611
vt -0.796387 5.429688
vt -0.420166 10.328125
vt -1.549805 -4.371094
vt -1.954102 -9.265625
vt -1.214844 0.532471
vt -0.852539 5.433594
vt -0.462646 10.335938
vt -1.632812 -4.363281
vt -2.050781 -9.257812
vt -1.284180 0.538574
vt -0.908691 5.437500
vt -0.504883 10.335938
vt -1.716797 -4.355469
vt -2.148438 -9.250000
vt -1.354492 0.544678
vt -0.964844 5.445312
vt -0.546875 10.343750
vt -1.800781 -4.351562
vt -2.246094 -9.242188
vt -1.423828 0.551270
vt -1.883789 -4.343750
vt -2.343750 -9.234375
vt -1.020508 5.449219
vt -1.494141 0.557861
vt -1.967773 -4.332031
vt -2.441406 -9.226562
vt -2.539062 -9.218750
vt -2.050781 -4.324219
vt -2.634766 -9.203125
vt -1.563477 0.564697
vt -2.134766 -4.316406
vt -2.732422 -9.195312
vt -1.076172 5.453125
vt -0.589355 10.343750
vt -1.633789 0.571777
vt -2.218750 -4.308594
vt -2.830078 -9.187500
vt -1.132812 5.460938
vt -0.631836 10.351562
vt -1.703125 0.579102
vt -2.300781 -4.300781
vt -2.927734 -9.171875
vt -1.188477 5.464844
vt -0.673828 10.351562
vt -1.773438 0.586426
vt -2.384766 -4.289062
vt -3.023438 -9.164062
vt -1.244141 5.472656
vt -0.716309 10.359375
vt -1.842773 0.594238
vt -2.468750 -4.281250
vt -3.121094 -9.156250
vt -1.300781 5.480469
vt -0.758301 10.359375
vt -1.912109 0.602051
vt -2.550781 -4.273438
vt -3.218750 -9.140625
vt -1.356445 5.484375
vt -0.800781 10.367188
vt -1.982422 0.610107
vt -2.634766 -4.261719
vt -3.316406 -9.132812
vt -1.412109 5.492188
vt -0.842773 10.375000
vt -2.050781 0.618164
vt -2.718750 -4.250000
vt -3.412109 -9.117188
vt -2.800781 -4.242188
vt -1.468750 5.496094
vt -0.885254 10.375000
vt -2.121094 0.626465
vt -2.191406 0.634766
vt -1.524414 5.503906
vt -0.927246 10.382812
vt -1.580078 5.511719
vt -0.969727 10.390625
vt1 2.914062 5.457031
vt1 2.421875 10.343750
vt1 2.380859 10.343750
vt1 2.857422 5.453125
vt1 2.337891 10.335938
vt1 3.406250 0.566650
vt1 2.802734 5.445312
vt1 2.294922 10.335938
vt1 3.335938 0.560059
vt1 3.898438 -4.324219
vt1 2.746094 5.441406
vt1 2.253906 10.328125
vt1 3.267578 0.553467
vt1 3.814453 -4.332031
vt1 4.390625 -9.210938
vt1 4.292969 -9.226562
vt1 3.730469 -4.339844
vt1 4.195312 -9.234375
vt1 3.197266 0.546875
vt1 3.648438 -4.347656
vt1 4.097656 -9.242188
vt1 2.689453 5.437500
vt1 2.210938 10.328125
vt1 3.126953 0.540527
vt1 3.564453 -4.355469
vt1 4.000000 -9.250000
vt1 2.634766 5.429688
vt1 2.167969 10.320312
vt1 3.056641 0.534424
vt1 3.480469 -4.363281
vt1 3.904297 -9.257812
vt1 2.578125 5.425781
vt1 2.126953 10.320312
vt1 2.986328 0.528564
vt1 3.396484 -4.367188
vt1 3.806641 -9.265625
vt1 2.521484 5.421875
vt1 2.083984 10.312500
vt1 2.917969 0.522705
vt1 3.312500 -4.375000
vt1 3.708984 -9.273438
vt1 2.464844 5.417969
vt1 2.041016 10.312500
vt1 2.847656 0.517334
vt1 3.228516 -4.382812
vt1 3.611328 -9.281250
vt1 2.410156 5.414062
vt1 1.999023 10.312500
vt1 2.777344 0.511963
vt1 3.146484 -4.390625
vt1 3.513672 -9.289062
vt1 2.353516 5.410156
vt1 2.707031 0.506836
vt1 3.062500 -4.394531
vt1 3.416016 -9.296875
vt1 3.318359 -9.304688
vt1 2.978516 -4.402344
vt1 3.220703 -9.312500
vt1 2.636719 0.501709
vt1 2.894531 -4.406250
vt1 3.123047 -9.320312
vt1 2.296875 5.406250
vt1 1.957031 10.304688
vt1 2.568359 0.497070
vt1 2.810547 -4.414062
vt1 3.025391 -9.320312
vt1 2.240234 5.402344
vt1 1.915039 10.304688
vt1 2.498047 0.492676
vt1 2.726562 -4.417969
vt1 2.927734 -9.328125
vt1 2.185547 5.398438
vt1 1.872070 10.304688
vt1 2.427734 0.488281
vt1 2.642578 -4.421875
vt1 2.830078 -9.335938
vt1 2.128906 5.394531
vt1 1.830078 10.296875
vt1 2.357422 0.483887
vt1 2.558594 -4.425781
vt1 2.732422 -9.335938
vt1 2.072266 5.390625
vt1 1.787109 10.296875
vt1 2.287109 0.479980
vt1 2.474609 -4.433594
vt1 2.634766 -9.343750
vt1 2.015625 5.386719
vt1 1.745117 10.296875
vt1 2.216797 0.476074
vt1 2.390625 -4.437500
vt1 2.537109 -9.351562
vt1 1.959961 5.382812
vt1 1.702148 10.289062
vt1 2.146484 0.472656
vt1 2.306641 -4.441406
vt1 2.439453 -9.351562
vt1 1.904297 5.382812
vt1 1.660156 10.289062
vt1 2.078125 0.469238
vt1 1.847656 5.378906
vt1 1.617188 10.289062
vt1 2.224609 -4.445312
vt1 2.007812 0.466309
vt1 1.791016 5.375000
vt1 1.575195 10.289062
vt1 1.532227 10.281250
vt1 1.735352 5.375000
vt1 1.490234 10.281250
vt1 1.937500 0.463379
vt1 1.678711 5.371094
vt1 1.447266 10.281250
vt1 2.140625 -4.449219
vt1 2.341797 -9.359375
vt1 1.867188 0.460449
vt1 1.623047 5.367188
vt1 1.405273 10.281250
vt1 2.056641 -4.449219
vt1 2.244141 -9.359375
vt1 1.797852 0.458008
vt1 1.566406 5.367188
vt1 1.362305 10.281250
vt1 1.972656 -4.453125
vt1 2.146484 -9.367188
vt1 1.727539 0.455566
vt1 1.509766 5.367188
vt1 1.320312 10.273438
vt1 1.888672 -4.457031
vt1 2.048828 -9.367188
vt1 1.657227 0.453125
vt1 1.454102 5.363281
vt1 1.277344 10.273438
vt1 1.804688 -4.460938
vt1 1.952148 -9.375000
vt1 1.586914 0.451172
vt1 1.397461 5.363281
vt1 1.235352 10.273438
vt1 1.720703 -4.460938
vt1 1.854492 -9.375000
vt1 1.517578 0.449219
vt1 1.340820 5.359375
vt1 1.192383 10.273438
vt1 1.636719 -4.464844
vt1 1.756836 -9.375000
vt1 1.447266 0.447754
vt1 1.285156 5.359375
vt1 1.150391 10.273438
vt1 1.552734 -4.464844
vt1 1.659180 -9.382812
vt1 1.376953 0.446289
vt1 1.468750 -4.468750
vt1 1.561523 -9.382812
vt1 1.228516 5.359375
vt1 1.306641 0.445312
vt1 1.384766 -4.468750
vt1 1.462891 -9.382812
vt1 1.365234 -9.382812
vt1 1.300781 -4.468750
vt1 1.267578 -9.382812
vt1 1.236328 0.444336
vt1 1.216797 -4.472656
vt1 1.169922 -9.382812
vt1 1.171875 5.359375
vt1 1.107422 10.273438
vt1 1.166016 0.443359
vt1 1.132812 -4.472656
vt1 1.072266 -9.390625
vt1 1.116211 5.355469
vt1 1.065430 10.273438
vt1 1.096680 0.442871
vt1 1.048828 -4.472656
vt1 0.974609 -9.390625
vt1 1.059570 5.355469
vt1 1.022461 10.273438
vt1 1.026367 0.442383
vt1 0.965332 -4.472656
vt1 0.876953 -9.390625
vt1 1.002930 5.355469
vt1 0.980469 10.273438
vt1 0.956543 0.441895
vt1 0.881348 -4.472656
vt1 0.779297 -9.390625
vt1 0.947266 5.355469
vt1 0.937988 10.273438
vt1 0.886230 0.441895
vt1 0.797852 -4.472656
vt1 0.681641 -9.390625
vt1 0.890625 5.355469
vt1 0.895508 10.273438
vt1 0.815918 0.442383
vt1 0.713867 -4.472656
vt1 0.583496 -9.382812
vt1 0.834473 5.355469
vt1 0.853027 10.273438
vt1 0.746094 0.442383
vt1 0.629883 -4.472656
vt1 0.486084 -9.382812
vt1 0.778320 5.355469
vt1 0.810547 10.273438
vt1 0.675781 0.442871
vt1 0.721680 5.355469
vt1 0.768066 10.273438
vt1 0.545898 -4.472656
vt1 0.605469 0.443848
vt1 0.665527 5.359375
vt1 0.725586 10.273438
vt1 0.683105 10.273438
vt1 0.609375 5.359375
vt1 0.640137 10.273438
vt1 0.535645 0.444824
vt1 0.552734 5.359375
vt1 0.597656 10.273438
vt1 0.461914 -4.468750
vt1 0.388184 -9.382812
vt1 0.465576 0.445801
vt1 0.496582 5.359375
vt1 0.555176 10.273438
vt1 0.377930 -4.468750
vt1 0.290527 -9.382812
vt1 0.395264 0.447266
vt1 0.440430 5.363281
vt1 0.512695 10.273438
vt1 0.293945 -4.464844
vt1 0.192749 -9.382812
vt1 0.325195 0.448730
vt1 0.384033 5.363281
vt1 0.470459 10.273438
vt1 0.210205 -4.464844
vt1 0.095093 -9.375000
vt1 0.255127 0.450684
vt1 0.327637 5.363281
vt1 0.427979 10.281250
vt1 0.126221 -4.460938
vt1 -0.002623 -9.375000
vt1 0.185059 0.452637
vt1 0.271484 5.367188
vt1 0.385498 10.281250
vt1 0.042389 -4.460938
vt1 -0.100342 -9.375000
vt1 0.114990 0.454590
vt1 0.215210 5.367188
vt1 0.343018 10.281250
vt1 -0.041504 -4.457031
vt1 -0.197998 -9.367188
vt1 0.044922 0.457031
vt1 0.158936 5.371094
vt1 0.300537 10.281250
vt1 -0.125366 -4.453125
vt1 -0.295654 -9.367188
vt1 -0.025162 0.459473
vt1 -0.209229 -4.453125
vt1 -0.393311 -9.359375
vt1 0.102722 5.371094
vt1 -0.095215 0.462402
vt1 -0.293213 -4.449219
vt1 -0.490967 -9.359375
vt1 -0.588867 -9.351562
vt1 -0.376953 -4.445312
vt1 -0.686523 -9.351562
vt1 -0.165283 0.465332
vt1 -0.460938 -4.441406
vt1 -0.784180 -9.343750
vt1 0.046448 5.375000
vt1 0.258057 10.281250
vt1 -0.235352 0.468262
vt1 -0.544434 -4.437500
vt1 -0.881836 -9.343750
vt1 -0.009819 5.378906
vt1 0.215698 10.289062
vt1 -0.305420 0.471680
vt1 -0.628418 -4.433594
vt1 -0.979492 -9.335938
vt1 -0.066040 5.378906
vt1 0.173218 10.289062
vt1 -0.375488 0.475098
vt1 -0.712402 -4.429688
vt1 -1.077148 -9.328125
vt1 -0.122314 5.382812
vt1 0.130737 10.289062
vt1 -0.445312 0.479004
vt1 -0.795898 -4.425781
vt1 -1.173828 -9.328125
vt1 -0.178467 5.386719
vt1 0.088379 10.296875
vt1 -0.515137 0.482910
vt1 -0.879883 -4.417969
vt1 -1.271484 -9.320312
vt1 -0.234741 5.390625
vt1 0.045929 10.296875
vt1 -0.585449 0.486816
vt1 -0.963867 -4.414062
vt1 -1.369141 -9.312500
vt1 -0.291016 5.390625
vt1 0.003515 10.296875
vt1 -0.655273 0.491211
vt1 -1.046875 -4.410156
vt1 -1.466797 -9.304688
vt1 -0.347168 5.394531
vt1 -0.038879 10.296875
vt1 -0.725586 0.495605
vt1 -0.403320 5.398438
vt1 -0.081299 10.304688
vt1 -1.130859 -4.402344
vt1 -0.795410 0.500244
vt1 -0.459473 5.402344
vt1 -0.123718 10.304688
vt1 -0.166138 10.312500
vt1 -0.515625 5.406250
vt1 -0.208496 10.312500
vt1 -0.865234 0.505127
vt1 -0.571777 5.410156
vt1 -0.250732 10.312500
vt1 -1.214844 -4.398438
vt1 -1.564453 -9.296875
vt1 -0.935059 0.510254
vt1 -0.627930 5.414062
vt1 -0.293213 10.320312
vt1 -1.298828 -4.390625
vt1 -1.662109 -9.289062
vt1 -1.004883 0.515381
vt1 -0.684082 5.417969
vt1 -0.335449 10.320312
vt1 -1.381836 -4.386719
vt1 -1.759766 -9.281250
vt1 -1.075195 0.520996
vt1 -0.740234 5.425781
vt1 -0.377930 10.328125
vt1 -1.465820 -4.378906
vt1 -1.857422 -9.281250
vt1 -1.144531 0.526611
vt1 -0.796387 5.429688
vt1 -0.420166 10.328125
vt1 -1.549805 -4.371094
vt1 -1.954102 -9.265625
vt1 -1.214844 0.532471
vt1 -0.852539 5.433594
vt1 -0.462646 10.335938
vt1 -1.632812 -4.363281
vt1 -2.050781 -9.257812
vt1 -1.284180 0.538574
vt1 -0.908691 5.437500
vt1 -0.504883 10.335938
vt1 -1.716797 -4.355469
vt1 -2.148438 -9.250000
vt1 -1.354492 0.544678
vt1 -0.964844 5.445312
vt1 -0.546875 10.343750
vt1 -1.800781 -4.351562
vt1 -2.246094 -9.242188
vt1 -1.423828 0.551270
vt1 -1.883789 -4.343750
vt1 -2.343750 -9.234375
vt1 -1.020508 5.449219
vt1 -1.494141 0.557861
vt1 -1.967773 -4.332031
vt1 -2.441406 -9.226562
vt1 -2.539062 -9.218750
vt1 -2.050781 -4.324219
vt1 -2.634766 -9.203125
vt1 -1.563477 0.564697
vt1 -2.134766 -4.316406
vt1 -2.732422 -9.195312
vt1 -1.076172 5.453125
vt1 -0.589355 10.343750
vt1 -1.633789 0.571777
vt1 -2.218750 -4.308594
vt1 -2.830078 -9.187500
vt1 -1.132812 5.460938
vt1 -0.631836 10.351562
vt1 -1.703125 0.579102
vt1 -2.300781 -4.300781
vt1 -2.927734 -9.171875
vt1 -1.188477 5.464844
vt1 -0.673828 10.351562
vt1 -1.773438 0.586426
vt1 -2.384766 -4.289062
vt1 -3.023438 -9.164062
vt1 -1.244141 5.472656
vt1 -0.716309 10.359375
vt1 -1.842773 0.594238
vt1 -2.468750 -4.281250
vt1 -3.121094 -9.156250
vt1 -1.300781 5.480469
vt1 -0.758301 10.359375
vt1 -1.912109 0.602051
vt1 -2.550781 -4.273438
vt1 -3.218750 -9.140625
vt1 -1.356445 5.484375
vt1 -0.800781 10.367188
vt1 -1.982422 0.610107
vt1 -2.634766 -4.261719
vt1 -3.316406 -9.132812
vt1 -1.412109 5.492188
vt1 -0.842773 10.375000
vt1 -2.050781 0.618164
vt1 -2.718750 -4.250000
vt1 -3.412109 -9.117188
vt1 -2.800781 -4.242188
vt1 -1.468750 5.496094
vt1 -0.885254 10.375000
vt1 -2.121094 0.626465
vt1 -2.191406 0.634766
vt1 -1.524414 5.503906
vt1 -0.927246 10.382812
vt1 -1.580078 5.511719
vt1 -0.969727 10.390625
vn 0.000000 0.031496 1.000000
vn 0.000000 0.031496 1.000000
vn 0.078740 0.031496 1.000000
vn 0.078740 0.031496 1.000000
vn 0.157480 0.031496 0.984252
vn 0.000000 0.031496 1.000000
vn 0.157480 0.031496 0.984252
vn 0.236220 0.031496 0.968504
vn 0.078740 0.031496 1.000000
vn 0.000000 0.031496 1.000000
vn 0.236220 0.031496 0.968504
vn 0.307087 0.031496 0.952756
vn 0.157480 0.031496 0.984252
vn 0.078740 0.031496 1.000000
vn 0.000000 0.031496 1.000000
vn 0.078740 0.031496 1.000000
vn 0.157480 0.031496 0.984252
vn 0.157480 0.031496 0.984252
vn 0.236220 0.031496 0.968504
vn 0.236220 0.031496 0.968504
vn 0.236220 0.031496 0.968504
vn 0.307087 0.031496 0.952756
vn 0.385827 0.031496 0.921260
vn 0.307087 0.031496 0.952756
vn 0.307087 0.031496 0.952756
vn 0.307087 0.031496 0.952756
vn 0.385827 0.031496 0.921260
vn 0.456693 0.031496 0.889764
vn 0.385827 0.031496 0.921260
vn 0.385827 0.031496 0.921260
vn 0.385827 0.031496 0.921260
vn 0.456693 0.031496 0.889764
vn 0.519685 0.031496 0.850394
vn 0.456693 0.031496 0.889764
vn 0.456693 0.031496 0.889764
vn 0.456693 0.031496 0.889764
vn 0.519685 0.031496 0.850394
vn 0.590551 0.031496 0.811023
vn 0.519685 0.031496 0.850394
vn 0.519685 0.031496 0.850394
vn 0.519685 0.031496 0.850394
vn 0.590551 0.031496 0.811023
vn 0.645669 0.031496 0.755905
vn 0.590551 0.031496 0.811023
vn 0.590551 0.031496 0.811023
vn 0.590551 0.031496 0.811023
vn 0.645669 0.031496 0.755905
vn 0.708661 0.031496 0.708661
vn 0.645669 0.031496 0.755905
vn 0.645669 0.031496 0.755905
vn 0.645669 0.031496 0.755905
vn 0.708661 0.031496 0.708661
vn 0.708661 0.031496 0.708661
vn 0.708661 0.031496 0.708661
vn 0.708661 0.031496 0.708661
vn 0.755906 0.031496 0.645669
vn 0.755906 0.031496 0.645669
vn 0.811024 0.031496 0.590551
vn 0.755906 0.031496 0.645669
vn 0.811024 0.031496 0.590551
vn 0.850394 0.031496 0.519685
vn 0.755906 0.031496 0.645669
vn 0.755906 0.031496 0.645669
vn 0.811024 0.031496 0.590551
vn 0.850394 0.031496 0.519685
vn 0.889764 0.031496 0.456693
vn 0.811024 0.031496 0.590551
vn 0.811024 0.031496 0.590551
vn 0.850394 0.031496 0.519685
vn 0.889764 0.031496 0.456693
vn 0.921260 0.031496 0.385827
vn 0.850394 0.031496 0.519685
vn 0.850394 0.031496 0.519685
vn 0.889764 0.031496 0.456693
vn 0.921260 0.031496 0.385827
vn 0.952756 0.031496 0.307087
vn 0.889764 0.031496 0.456693
vn 0.889764 0.031496 0.456693
vn 0.921260 0.031496 0.385827
vn 0.952756 0.031496 0.307087
vn 0.968504 0.031496 0.236220
vn 0.921260 0.031496 0.385827
vn 0.921260 0.031496 0.385827
vn 0.952756 0.031496 0.307087
vn 0.968504 0.031496 0.236220
vn 0.984252 0.031496 0.157480
vn 0.952756 0.031496 0.307087
vn 0.952756 0.031496 0.307087
vn 0.968504 0.031496 0.236220
vn 0.984252 0.031496 0.157480
vn 1.000000 0.031496 0.078740
vn 0.968504 0.031496 0.236220
vn 0.968504 0.031496 0.236220
vn 0.984252 0.031496 0.157480
vn 1.000000 0.031496 0.078740
vn 1.000000 0.031496 -0.000000
vn 0.984252 0.031496 0.157480
vn 0.984252 0.031496 0.157480
vn 1.000000 0.031496 0.078740
vn 1.000000 0.031496 0.078740
vn 1.000000 0.031496 0.078740
vn 1.000000 0.031496 -0.000000
vn 1.000000 0.031496 -0.000000
vn 1.000000 0.031496 -0.000000
vn 1.000000 0.031496 -0.000000
vn 1.000000 0.031496 -0.078740
vn 1.000000 0.031496 -0.078740
vn 0.984252 0.031496 -0.157480
vn 1.000000 0.031496 -0.078740
vn 0.984252 0.031496 -0.157480
vn 0.968504 0.031496 -0.236220
vn 1.000000 0.031496 -0.078740
vn 1.000000 0.031496 -0.078740
vn 0.984252 0.031496 -0.157480
vn 0.968504 0.031496 -0.236220
vn 0.952756 0.031496 -0.307087
vn 0.984252 0.031496 -0.157480
vn 0.984252 0.031496 -0.157480
vn 0.968504 0.031496 -0.236220
vn 0.952756 0.031496 -0.307087
vn 0.921260 0.031496 -0.385827
vn 0.968504 0.031496 -0.236220
vn 0.968504 0.031496 -0.236220
vn 0.952756 0.031496 -0.307087
vn 0.921260 0.031496 -0.385827
vn 0.889764 0.031496 -0.456693
vn 0.952756 0.031496 -0.307087
vn 0.952756 0.031496 -0.307087
vn 0.921260 0.031496 -0.385827
vn 0.889764 0.031496 -0.456693
vn 0.850394 0.031496 -0.519685
vn 0.921260 0.031496 -0.385827
vn 0.921260 0.031496 -0.385827
vn 0.889764 0.031496 -0.456693
vn 0.850394 0.031496 -0.519685
vn 0.811024 0.031496 -0.590551
vn 0.889764 0.031496 -0.456693
vn 0.889764 0.031496 -0.456693
vn 0.850394 0.031496 -0.519685
vn 0.811024 0.031496 -0.590551
vn 0.755906 0.031496 -0.645669
vn 0.850394 0.031496 -0.519685
vn 0.850394 0.031496 -0.519685
vn 0.811024 0.031496 -0.590551
vn 0.755906 0.031496 -0.645669
vn 0.708661 0.031496 -0.708661
vn 0.811024 0.031496 -0.590551
vn 0.811024 0.031496 -0.590551
vn 0.755906 0.031496 -0.645669
vn 0.755906 0.031496 -0.645669
vn 0.755906 0.031496 -0.645669
vn 0.708661 0.031496 -0.708661
vn 0.708661 0.031496 -0.708661
vn 0.708661 0.031496 -0.708661
vn 0.708661 0.031496 -0.708661
vn 0.645669 0.031496 -0.755905
vn 0.645669 0.031496 -0.755905
vn 0.590551 0.031496 -0.811023
vn 0.645669 0.031496 -0.755905
vn 0.590551 0.031496 -0.811023
vn 0.519685 0.031496 -0.850394
vn 0.645669 0.031496 -0.755905
vn 0.645669 0.031496 -0.755905
vn 0.590551 0.031496 -0.811023
vn 0.519685 0.031496 -0.850394
vn 0.456693 0.031496 -0.889764
vn 0.590551 0.031496 -0.811023
vn 0.590551 0.031496 -0.811023
vn 0.519685 0.031496 -0.850394
vn 0.456693 0.031496 -0.889764
vn 0.385827 0.031496 -0.921260
vn 0.519685 0.031496 -0.850394
vn 0.519685 0.031496 -0.850394
vn 0.456693 0.031496 -0.889764
vn 0.385827 0.031496 -0.921260
vn 0.307087 0.031496 -0.952756
vn 0.456693 0.031496 -0.889764
vn 0.456693 0.031496 -0.889764
vn 0.385827 0.031496 -0.921260
vn 0.307087 0.031496 -0.952756
vn 0.236220 0.031496 -0.968504
vn 0.385827 0.031496 -0.921260
vn 0.385827 0.031496 -0.921260
vn 0.307087 0.031496 -0.952756
vn 0.236220 0.031496 -0.968504
vn 0.157480 0.031496 -0.984252
vn 0.307087 0.031496 -0.952756
vn 0.307087 0.031496 -0.952756
vn 0.236220 0.031496 -0.968504
vn 0.157480 0.031496 -0.984252
vn 0.078740 0.031496 -1.000000
vn 0.236220 0.031496 -0.968504
vn 0.236220 0.031496 -0.968504
vn 0.157480 0.031496 -0.984252
vn 0.078740 0.031496 -1.000000
vn 0.000000 0.031496 -1.000000
vn 0.157480 0.031496 -0.984252
vn 0.157480 0.031496 -0.984252
vn 0.078740 0.031496 -1.000000
vn 0.078740 0.031496 -1.000000
vn 0.078740 0.031496 -1.000000
vn 0.000000 0.031496 -1.000000
vn 0.000000 0.031496 -1.000000
vn 0.000000 0.031496 -1.000000
vn 0.000000 0.031496 -1.000000
vn -0.078740 0.031496 -1.000000
vn -0.078740 0.031496 -1.000000
vn -0.157480 0.031496 -0.984252
vn -0.078740 0.031496 -1.000000
vn -0.157480 0.031496 -0.984252
vn -0.236220 0.031496 -0.968504
vn -0.078740 0.031496 -1.000000
vn -0.078740 0.031496 -1.000000
vn -0.157480 0.031496 -0.984252
vn -0.236220 0.031496 -0.968504
vn -0.307087 0.031496 -0.952756
vn -0.157480 0.031496 -0.984252
vn -0.157480 0.031496 -0.984252
vn -0.236220 0.031496 -0.968504
vn -0.307087 0.031496 -0.952756
vn -0.385827 0.031496 -0.921260
vn -0.236220 0.031496 -0.968504
vn -0.236220 0.031496 -0.968504
vn -0.307087 0.031496 -0.952756
vn -0.385827 0.031496 -0.921260
vn -0.456693 0.031496 -0.889764
vn -0.307087 0.031496 -0.952756
vn -0.307087 0.031496 -0.952756
vn -0.385827 0.031496 -0.921260
vn -0.456693 0.031496 -0.889764
vn -0.519685 0.031496 -0.850394
vn -0.385827 0.031496 -0.921260
vn -0.385827 0.031496 -0.921260
vn -0.456693 0.031496 -0.889764
vn -0.519685 0.031496 -0.850394
vn -0.590551 0.031496 -0.811023
vn -0.456693 0.031496 -0.889764
vn -0.456693 0.031496 -0.889764
vn -0.519685 0.031496 -0.850394
vn -0.590551 0.031496 -0.811023
vn -0.645669 0.031496 -0.755905
vn -0.519685 0.031496 -0.850394
vn -0.519685 0.031496 -0.850394
vn -0.590551 0.031496 -0.811023
vn -0.645669 0.031496 -0.755905
vn -0.708661 0.031496 -0.708661
vn -0.590551 0.031496 -0.811023
vn -0.590551 0.031496 -0.811023
vn -0.645669 0.031496 -0.755905
vn -0.645669 0.031496 -0.755905
vn -0.645669 0.031496 -0.755905
vn -0.708661 0.031496 -0.708661
vn -0.708661 0.031496 -0.708661
vn -0.708661 0.031496 -0.708661
vn -0.708661 0.031496 -0.708661
vn -0.755906 0.031496 -0.645669
vn -0.755906 0.031496 -0.645669
vn -0.811024 0.031496 -0.590551
vn -0.755906 0.031496 -0.645669
vn -0.811024 0.031496 -0.590551
vn -0.850394 0.031496 -0.519685
vn -0.755906 0.031496 -0.645669
vn -0.755906 0.031496 -0.645669
vn -0.811024 0.031496 -0.590551
vn -0.850394 0.031496 -0.519685
vn -0.889764 0.031496 -0.456693
vn -0.811024 0.031496 -0.590551
vn -0.811024 0.031496 -0.590551
vn -0.850394 0.031496 -0.519685
vn -0.889764 0.031496 -0.456693
vn -0.921260 0.031496 -0.385827
vn -0.850394 0.031496 -0.519685
vn -0.850394 0.031496 -0.519685
vn -0.889764 0.031496 -0.456693
vn -0.921260 0.031496 -0.385827
vn -0.952756 0.031496 -0.307087
vn -0.889764 0.031496 -0.456693
vn -0.889764 0.031496 -0.456693
vn -0.921260 0.031496 -0.385827
vn -0.952756 0.031496 -0.307087
vn -0.968504 0.031496 -0.236220
vn -0.921260 0.031496 -0.385827
vn -0.921260 0.031496 -0.385827
vn -0.952756 0.031496 -0.307087
vn -0.968504 0.031496 -0.236220
vn -0.984252 0.031496 -0.157480
vn -0.952756 0.031496 -0.307087
vn -0.952756 0.031496 -0.307087
vn -0.968504 0.031496 -0.236220
vn -0.984252 0.031496 -0.157480
vn -1.000000 0.031496 -0.078740
vn -0.968504 0.031496 -0.236220
vn -0.968504 0.031496 -0.236220
vn -0.984252 0.031496 -0.157480
vn -1.000000 0.031496 -0.078740
vn -1.000000 0.031496 -0.000000
vn -0.984252 0.031496 -0.157480
vn -0.984252 0.031496 -0.157480
vn -1.000000 0.031496 -0.078740
vn -1.000000 0.031496 -0.078740
vn -1.000000 0.031496 -0.078740
vn -1.000000 0.031496 -0.000000
vn -1.000000 0.031496 -0.000000
vn -1.000000 0.031496 -0.000000
vn -1.000000 0.031496 -0.000000
vn -1.000000 0.031496 0.078740
vn -1.000000 0.031496 0.078740
vn -0.984252 0.031496 0.157480
vn -1.000000 0.031496 0.078740
vn -0.984252 0.031496 0.157480
vn -0.968504 0.031496 0.236220
vn -1.000000 0.031496 0.078740
vn -1.000000 0.031496 0.078740
vn -0.984252 0.031496 0.157480
vn -0.968504 0.031496 0.236220
vn -0.952756 0.031496 0.307087
vn -0.984252 0.031496 0.157480
vn -0.984252 0.031496 0.157480
vn -0.968504 0.031496 0.236220
vn -0.952756 0.031496 0.307087
vn -0.921260 0.031496 0.385827
vn -0.968504 0.031496 0.236220
vn -0.968504 0.031496 0.236220
vn -0.952756 0.031496 0.307087
vn -0.921260 0.031496 0.385827
vn -0.889764 0.031496 0.456693
vn -0.952756 0.031496 0.307087
vn -0.952756 0.031496 0.307087
vn -0.921260 0.031496 0.385827
vn -0.889764 0.031496 0.456693
vn -0.850394 0.031496 0.519685
vn -0.921260 0.031496 0.385827
vn -0.921260 0.031496 0.385827
vn -0.889764 0.031496 0.456693
vn -0.850394 0.031496 0.519685
vn -0.811024 0.031496 0.590551
vn -0.889764 0.031496 0.456693
vn -0.889764 0.031496 0.456693
vn -0.850394 0.031496 0.519685
vn -0.811024 0.031496 0.590551
vn -0.755906 0.031496 0.645669
vn -0.850394 0.031496 0.519685
vn -0.850394 0.031496 0.519685
vn -0.811024 0.031496 0.590551
vn -0.755906 0.031496 0.645669
vn -0.708661 0.031496 0.708661
vn -0.811024 0.031496 0.590551
vn -0.811024 0.031496 0.590551
vn -0.755906 0.031496 0.645669
vn -0.755906 0.031496 0.645669
vn -0.755906 0.031496 0.645669
vn -0.708661 0.031496 0.708661
vn -0.708661 0.031496 0.708661
vn -0.708661 0.031496 0.708661
vn -0.708661 0.031496 0.708661
vn -0.645669 0.031496 0.755905
vn -0.645669 0.031496 0.755905
vn -0.590551 0.031496 0.811023
vn -0.645669 0.031496 0.755905
vn -0.590551 0.031496 0.811023
vn -0.519685 0.031496 0.850394
vn -0.645669 0.031496 0.755905
vn -0.645669 0.031496 0.755905
vn -0.590551 0.031496 0.811023
vn -0.519685 0.031496 0.850394
vn -0.456693 0.031496 0.889764
vn -0.590551 0.031496 0.811023
vn -0.590551 0.031496 0.811023
vn -0.519685 0.031496 0.850394
vn -0.456693 0.031496 0.889764
vn -0.385827 0.031496 0.921260
vn -0.519685 0.031496 0.850394
vn -0.519685 0.031496 0.850394
vn -0.456693 0.031496 0.889764
vn -0.385827 0.031496 0.921260
vn -0.307087 0.031496 0.952756
vn -0.456693 0.031496 0.889764
vn -0.456693 0.031496 0.889764
vn -0.385827 0.031496 0.921260
vn -0.307087 0.031496 0.952756
vn -0.236220 0.031496 0.968504
vn -0.385827 0.031496 0.921260
vn -0.385827 0.031496 0.921260
vn -0.307087 0.031496 0.952756
vn -0.236220 0.031496 0.968504
vn -0.157480 0.031496 0.984252
vn -0.307087 0.031496 0.952756
vn -0.307087 0.031496 0.952756
vn -0.236220 0.031496 0.968504
vn -0.157480 0.031496 0.984252
vn -0.078740 0.031496 1.000000
vn -0.236220 0.031496 0.968504
vn -0.236220 0.031496 0.968504
vn -0.157480 0.031496 0.984252
vn -0.078740 0.031496 1.000000
vn 0.000000 0.031496 1.000000
vn 0.000000 0.031496 1.000000
vn -0.157480 0.031496 0.984252
vn -0.157480 0.031496 0.984252
vn -0.078740 0.031496 1.000000
vn 0.000000 0.031496 1.000000
vn -0.078740 0.031496 1.000000
vn -0.078740 0.031496 1.000000
vn 0.000000 0.031496 1.000000
vn 0.000000 0.031496 1.000000
tan 0.094488 -0.992126 0.031248 1.000000
tan 0.094488 -0.992126 0.031248 1.000000
tan 0.096968 -0.998326 0.023808 1.000000
tan 0.096968 -0.998326 0.023808 1.000000
tan 0.097960 -0.993552 0.016120 1.000000
tan 0.094488 -0.992126 0.031248 1.000000
tan 0.097960 -0.993552 0.016120 1.000000
tan 0.098952 -0.993800 0.008184 1.000000
tan 0.096968 -0.998326 0.023808 1.000000
tan 0.094488 -0.992126 0.031248 1.000000
tan 0.098952 -0.993800 0.008184 1.000000
tan 0.092194 -0.994544 0.003162 1.000000
tan 0.097960 -0.993552 0.016120 1.000000
tan 0.096968 -0.998326 0.023808 1.000000
tan 0.094488 -0.992126 0.031248 1.000000
tan 0.096968 -0.998326 0.023808 1.000000
tan 0.097960 -0.993552 0.016120 1.000000
tan 0.097960 -0.993552 0.016120 1.000000
tan 0.098952 -0.993800 0.008184 1.000000
tan 0.098952 -0.993800 0.008184 1.000000
tan 0.098952 -0.993800 0.008184 1.000000
tan 0.092194 -0.994544 0.003162 1.000000
tan 0.091946 -0.997582 -0.004402 1.000000
tan 0.092194 -0.994544 0.003162 1.000000
tan 0.092194 -0.994544 0.003162 1.000000
tan 0.092194 -0.994544 0.003162 1.000000
tan 0.091946 -0.997582 -0.004402 1.000000
tan 0.091450 -1.000248 -0.011532 1.000000
tan 0.091946 -0.997582 -0.004402 1.000000
tan 0.091946 -0.997582 -0.004402 1.000000
tan 0.091946 -0.997582 -0.004402 1.000000
tan 0.091450 -1.000248 -0.011532 1.000000
tan 0.090024 -0.993242 -0.018228 1.000000
tan 0.091450 -1.000248 -0.011532 1.000000
tan 0.091450 -1.000248 -0.011532 1.000000
tan 0.091450 -1.000248 -0.011532 1.000000
tan 0.083328 -0.993242 -0.014136 1.000000
tan 0.082460 -1.000124 -0.021204 1.000000
tan 0.083328 -0.993242 -0.014136 1.000000
tan 0.083328 -0.993242 -0.014136 1.000000
tan 0.090024 -0.993242 -0.018228 1.000000
tan 0.082460 -1.000124 -0.021204 1.000000
tan 0.074152 -0.993366 -0.021948 1.000000
tan 0.082460 -1.000124 -0.021204 1.000000
tan 0.082460 -1.000124 -0.021204 1.000000
tan 0.082460 -1.000124 -0.021204 1.000000
tan 0.080104 -0.993366 -0.027032 1.000000
tan 0.072540 -0.998822 -0.028148 1.000000
tan 0.080104 -0.993366 -0.027032 1.000000
tan 0.080104 -0.993366 -0.027032 1.000000
tan 0.074152 -0.993366 -0.021948 1.000000
tan 0.072540 -0.998822 -0.028148 1.000000
tan 0.072540 -0.998822 -0.028148 1.000000
tan 0.072540 -0.998822 -0.028148 1.000000
tan 0.072540 -0.998822 -0.028148 1.000000
tan 0.069812 -0.994234 -0.033232 1.000000
tan 0.069812 -0.994234 -0.033232 1.000000
tan 0.067394 -1.001860 -0.039122 1.000000
tan 0.069812 -0.994234 -0.033232 1.000000
tan 0.067394 -1.001860 -0.039122 1.000000
tan 0.059520 -0.993242 -0.037200 1.000000
tan 0.069812 -0.994234 -0.033232 1.000000
tan 0.069812 -0.994234 -0.033232 1.000000
tan 0.067394 -1.001860 -0.039122 1.000000
tan 0.059520 -0.993242 -0.037200 1.000000
tan 0.056792 -0.996652 -0.041912 1.000000
tan 0.067394 -1.001860 -0.039122 1.000000
tan 0.067394 -1.001860 -0.039122 1.000000
tan 0.059520 -0.993242 -0.037200 1.000000
tan 0.056792 -0.996652 -0.041912 1.000000
tan 0.053320 -0.994544 -0.046128 1.000000
tan 0.059520 -0.993242 -0.037200 1.000000
tan 0.059520 -0.993242 -0.037200 1.000000
tan 0.056792 -0.996652 -0.041912 1.000000
tan 0.053320 -0.994544 -0.046128 1.000000
tan 0.046934 -1.002046 -0.042842 1.000000
tan 0.056792 -0.996652 -0.041912 1.000000
tan 0.056792 -0.996652 -0.041912 1.000000
tan 0.053320 -0.994544 -0.046128 1.000000
tan 0.046934 -1.002046 -0.042842 1.000000
tan 0.041664 -0.991940 -0.038564 1.000000
tan 0.053320 -0.994544 -0.046128 1.000000
tan 0.053320 -0.994544 -0.046128 1.000000
tan 0.046934 -1.002046 -0.042842 1.000000
tan 0.043524 -0.991940 -0.046190 1.000000
tan 0.038440 -0.993552 -0.041540 1.000000
tan 0.046934 -1.002046 -0.042842 1.000000
tan 0.046934 -1.002046 -0.042842 1.000000
tan 0.043524 -0.991940 -0.046190 1.000000
tan 0.038440 -0.993552 -0.041540 1.000000
tan 0.034968 -0.998326 -0.044764 1.000000
tan 0.043524 -0.991940 -0.046190 1.000000
tan 0.041664 -0.991940 -0.038564 1.000000
tan 0.038440 -0.993552 -0.041540 1.000000
tan 0.034968 -0.998326 -0.044764 1.000000
tan 0.031496 -1.000000 -0.047244 1.000000
tan 0.038440 -0.993552 -0.041540 1.000000
tan 0.038440 -0.993552 -0.041540 1.000000
tan 0.034968 -0.998326 -0.044764 1.000000
tan 0.034968 -0.998326 -0.044764 1.000000
tan 0.034968 -0.998326 -0.044764 1.000000
tan 0.031496 -1.000000 -0.047244 1.000000
tan 0.031496 -1.000000 -0.047244 1.000000
tan 0.031496 -1.000000 -0.047244 1.000000
tan 0.031496 -1.000000 -0.047244 1.000000
tan 0.028148 -0.998326 -0.041850 1.000000
tan 0.028148 -0.998326 -0.041850 1.000000
tan 0.024800 -0.993552 -0.043710 1.000000
tan 0.028148 -0.998326 -0.041850 1.000000
tan 0.024800 -0.993552 -0.043710 1.000000
tan 0.021204 -0.993800 -0.045570 1.000000
tan 0.028148 -0.998326 -0.041850 1.000000
tan 0.028148 -0.998326 -0.041850 1.000000
tan 0.024800 -0.993552 -0.043710 1.000000
tan 0.021204 -0.993800 -0.045570 1.000000
tan 0.020336 -1.002046 -0.039680 1.000000
tan 0.024800 -0.993552 -0.043710 1.000000
tan 0.024800 -0.993552 -0.043710 1.000000
tan 0.021204 -0.993800 -0.045570 1.000000
tan 0.020336 -1.002046 -0.039680 1.000000
tan 0.019902 -0.997582 -0.033914 1.000000
tan 0.021204 -0.993800 -0.045570 1.000000
tan 0.021204 -0.993800 -0.045570 1.000000
tan 0.020336 -1.002046 -0.039680 1.000000
tan 0.016864 -0.997582 -0.041168 1.000000
tan 0.017236 -1.000248 -0.035402 1.000000
tan 0.020336 -1.002046 -0.039680 1.000000
tan 0.020336 -1.002046 -0.039680 1.000000
tan 0.016864 -0.997582 -0.041168 1.000000
tan 0.017236 -1.000248 -0.035402 1.000000
tan 0.014508 -0.993242 -0.036456 1.000000
tan 0.016864 -0.997582 -0.041168 1.000000
tan 0.019902 -0.997582 -0.033914 1.000000
tan 0.017236 -1.000248 -0.035402 1.000000
tan 0.014508 -0.993242 -0.036456 1.000000
tan 0.011594 -1.006510 -0.037758 1.000000
tan 0.017236 -1.000248 -0.035402 1.000000
tan 0.017236 -1.000248 -0.035402 1.000000
tan 0.014508 -0.993242 -0.036456 1.000000
tan 0.011594 -1.006510 -0.037758 1.000000
tan 0.013640 -0.993366 -0.032488 1.000000
tan 0.014508 -0.993242 -0.036456 1.000000
tan 0.014508 -0.993242 -0.036456 1.000000
tan 0.011594 -1.006510 -0.037758 1.000000
tan 0.013640 -0.993366 -0.032488 1.000000
tan 0.011160 -1.004402 -0.033480 1.000000
tan 0.011594 -1.006510 -0.037758 1.000000
tan 0.011594 -1.006510 -0.037758 1.000000
tan 0.013640 -0.993366 -0.032488 1.000000
tan 0.013640 -0.993366 -0.032488 1.000000
tan 0.013640 -0.993366 -0.032488 1.000000
tan 0.011160 -1.004402 -0.033480 1.000000
tan 0.011160 -1.004402 -0.033480 1.000000
tan 0.011160 -1.004402 -0.033480 1.000000
tan 0.011160 -1.004402 -0.033480 1.000000
tan 0.008432 -0.994234 -0.034224 1.000000
tan 0.008432 -0.994234 -0.034224 1.000000
tan 0.012214 -1.006510 -0.030194 1.000000
tan 0.008432 -0.994234 -0.034224 1.000000
tan 0.012214 -1.006510 -0.030194 1.000000
tan 0.009672 -0.993242 -0.030876 1.000000
tan 0.008432 -0.994234 -0.034224 1.000000
tan 0.008432 -0.994234 -0.034224 1.000000
tan 0.012214 -1.006510 -0.030194 1.000000
tan 0.009672 -0.993242 -0.030876 1.000000
tan 0.007378 -1.000248 -0.031620 1.000000
tan 0.012214 -1.006510 -0.030194 1.000000
tan 0.012214 -1.006510 -0.030194 1.000000
tan 0.009672 -0.993242 -0.030876 1.000000
tan 0.007378 -1.000248 -0.031620 1.000000
tan 0.004898 -0.997582 -0.032054 1.000000
tan 0.009672 -0.993242 -0.030876 1.000000
tan 0.009672 -0.993242 -0.030876 1.000000
tan 0.007378 -1.000248 -0.031620 1.000000
tan 0.012152 -0.997582 -0.029016 1.000000
tan 0.009672 -1.002046 -0.030008 1.000000
tan 0.007378 -1.000248 -0.031620 1.000000
tan 0.007378 -1.000248 -0.031620 1.000000
tan 0.012152 -0.997582 -0.029016 1.000000
tan 0.009672 -1.002046 -0.030008 1.000000
tan 0.015066 -0.993800 -0.028644 1.000000
tan 0.012152 -0.997582 -0.029016 1.000000
tan 0.004898 -0.997582 -0.032054 1.000000
tan 0.009672 -1.002046 -0.030008 1.000000
tan 0.015066 -0.993800 -0.028644 1.000000
tan 0.012710 -0.993552 -0.029760 1.000000
tan 0.009672 -1.002046 -0.030008 1.000000
tan 0.009672 -1.002046 -0.030008 1.000000
tan 0.015066 -0.993800 -0.028644 1.000000
tan 0.012710 -0.993552 -0.029760 1.000000
tan 0.010354 -1.006200 -0.030876 1.000000
tan 0.015066 -0.993800 -0.028644 1.000000
tan 0.015066 -0.993800 -0.028644 1.000000
tan 0.012710 -0.993552 -0.029760 1.000000
tan 0.010354 -1.006200 -0.030876 1.000000
tan 0.015748 -1.000000 -0.031496 1.000000
tan 0.012710 -0.993552 -0.029760 1.000000
tan 0.012710 -0.993552 -0.029760 1.000000
tan 0.010354 -1.006200 -0.030876 1.000000
tan 0.010354 -1.006200 -0.030876 1.000000
tan 0.010354 -1.006200 -0.030876 1.000000
tan 0.015748 -1.000000 -0.031496 1.000000
tan 0.015748 -1.000000 -0.031496 1.000000
tan 0.015748 -1.000000 -0.031496 1.000000
tan 0.015748 -1.000000 -0.031496 1.000000
tan 0.013268 -1.006200 -0.032736 1.000000
tan 0.013268 -1.006200 -0.032736 1.000000
tan 0.010540 -0.993552 -0.033480 1.000000
tan 0.013268 -1.006200 -0.032736 1.000000
tan 0.010540 -0.993552 -0.033480 1.000000
tan 0.007812 -0.993800 -0.034224 1.000000
tan 0.013268 -1.006200 -0.032736 1.000000
tan 0.013268 -1.006200 -0.032736 1.000000
tan 0.010540 -0.993552 -0.033480 1.000000
tan 0.015438 -0.993800 -0.036084 1.000000
tan 0.012834 -1.002046 -0.037262 1.000000
tan 0.010540 -0.993552 -0.033480 1.000000
tan 0.010540 -0.993552 -0.033480 1.000000
tan 0.015438 -0.993800 -0.036084 1.000000
tan 0.012834 -1.002046 -0.037262 1.000000
tan 0.017112 -0.994544 -0.041168 1.000000
tan 0.015438 -0.993800 -0.036084 1.000000
tan 0.007812 -0.993800 -0.034224 1.000000
tan 0.012834 -1.002046 -0.037262 1.000000
tan 0.009858 -0.994544 -0.038130 1.000000
tan 0.013640 -1.000248 -0.042408 1.000000
tan 0.012834 -1.002046 -0.037262 1.000000
tan 0.012834 -1.002046 -0.037262 1.000000
tan 0.009610 -0.997582 -0.038130 1.000000
tan 0.013640 -1.000248 -0.042408 1.000000
tan 0.010416 -0.993242 -0.043152 1.000000
tan 0.009858 -0.994544 -0.038130 1.000000
tan 0.017112 -0.994544 -0.041168 1.000000
tan 0.013640 -1.000248 -0.042408 1.000000
tan 0.010416 -0.993242 -0.043152 1.000000
tan 0.007192 -1.001860 -0.044144 1.000000
tan 0.013640 -1.000248 -0.042408 1.000000
tan 0.013640 -1.000248 -0.042408 1.000000
tan 0.010416 -0.993242 -0.043152 1.000000
tan 0.007192 -1.001860 -0.044144 1.000000
tan 0.009424 -0.994234 -0.049476 1.000000
tan 0.010416 -0.993242 -0.043152 1.000000
tan 0.010416 -0.993242 -0.043152 1.000000
tan 0.007192 -1.001860 -0.044144 1.000000
tan 0.009424 -0.994234 -0.049476 1.000000
tan 0.005580 -1.004402 -0.050220 1.000000
tan 0.007192 -1.001860 -0.044144 1.000000
tan 0.007192 -1.001860 -0.044144 1.000000
tan 0.009424 -0.994234 -0.049476 1.000000
tan 0.009424 -0.994234 -0.049476 1.000000
tan 0.009424 -0.994234 -0.049476 1.000000
tan 0.005580 -1.004402 -0.050220 1.000000
tan 0.005580 -1.004402 -0.050220 1.000000
tan 0.005580 -1.004402 -0.050220 1.000000
tan 0.005580 -1.004402 -0.050220 1.000000
tan 0.001612 -0.993366 -0.050344 1.000000
tan 0.001612 -0.993366 -0.050344 1.000000
tan 0.002356 -1.006510 -0.056916 1.000000
tan 0.001612 -0.993366 -0.050344 1.000000
tan 0.002356 -1.006510 -0.056916 1.000000
tan 0.001860 -0.993242 -0.063240 1.000000
tan 0.001612 -0.993366 -0.050344 1.000000
tan 0.001612 -0.993366 -0.050344 1.000000
tan 0.002356 -1.006510 -0.056916 1.000000
tan -0.002232 -0.993242 -0.056544 1.000000
tan -0.002852 -1.000248 -0.063426 1.000000
tan 0.002356 -1.006510 -0.056916 1.000000
tan 0.002356 -1.006510 -0.056916 1.000000
tan -0.002232 -0.993242 -0.056544 1.000000
tan -0.002852 -1.000248 -0.063426 1.000000
tan -0.007750 -0.997582 -0.062930 1.000000
tan -0.002232 -0.993242 -0.056544 1.000000
tan 0.001860 -0.993242 -0.063240 1.000000
tan -0.002852 -1.000248 -0.063426 1.000000
tan -0.007750 -0.997582 -0.062930 1.000000
tan -0.013082 -1.002046 -0.062186 1.000000
tan -0.002852 -1.000248 -0.063426 1.000000
tan -0.002852 -1.000248 -0.063426 1.000000
tan -0.007750 -0.997582 -0.062930 1.000000
tan -0.013082 -1.002046 -0.062186 1.000000
tan -0.015624 -0.993800 -0.068448 1.000000
tan -0.007750 -0.997582 -0.062930 1.000000
tan -0.007750 -0.997582 -0.062930 1.000000
tan -0.013082 -1.002046 -0.062186 1.000000
tan -0.015624 -0.993800 -0.068448 1.000000
tan -0.021080 -0.993552 -0.066960 1.000000
tan -0.013082 -1.002046 -0.062186 1.000000
tan -0.013082 -1.002046 -0.062186 1.000000
tan -0.015624 -0.993800 -0.068448 1.000000
tan -0.021080 -0.993552 -0.066960 1.000000
tan -0.026288 -0.998326 -0.065472 1.000000
tan -0.015624 -0.993800 -0.068448 1.000000
tan -0.015624 -0.993800 -0.068448 1.000000
tan -0.021080 -0.993552 -0.066960 1.000000
tan -0.026288 -0.998326 -0.065472 1.000000
tan -0.031496 -1.000000 -0.070866 1.000000
tan -0.021080 -0.993552 -0.066960 1.000000
tan -0.021080 -0.993552 -0.066960 1.000000
tan -0.026288 -0.998326 -0.065472 1.000000
tan -0.026288 -0.998326 -0.065472 1.000000
tan -0.026288 -0.998326 -0.065472 1.000000
tan -0.031496 -1.000000 -0.070866 1.000000
tan -0.031496 -1.000000 -0.070866 1.000000
tan -0.031496 -1.000000 -0.070866 1.000000
tan -0.031496 -1.000000 -0.070866 1.000000
tan -0.036828 -0.998326 -0.068386 1.000000
tan -0.036828 -0.998326 -0.068386 1.000000
tan -0.042160 -0.992312 -0.065038 1.000000
tan -0.036828 -0.998326 -0.068386 1.000000
tan -0.042160 -0.992312 -0.065038 1.000000
tan -0.049104 -0.991940 -0.069068 1.000000
tan -0.036828 -0.998326 -0.068386 1.000000
tan -0.036828 -0.998326 -0.068386 1.000000
tan -0.042160 -0.992312 -0.065038 1.000000
tan -0.049104 -0.991940 -0.069068 1.000000
tan -0.054188 -1.002046 -0.065348 1.000000
tan -0.042160 -0.992312 -0.065038 1.000000
tan -0.042160 -0.992312 -0.065038 1.000000
tan -0.049104 -0.991940 -0.069068 1.000000
tan -0.054188 -1.002046 -0.065348 1.000000
tan -0.062434 -0.994544 -0.067890 1.000000
tan -0.049104 -0.991940 -0.069068 1.000000
tan -0.049104 -0.991940 -0.069068 1.000000
tan -0.054188 -1.002046 -0.065348 1.000000
tan -0.062434 -0.994544 -0.067890 1.000000
tan -0.067580 -0.996652 -0.062930 1.000000
tan -0.054188 -1.002046 -0.065348 1.000000
tan -0.054188 -1.002046 -0.065348 1.000000
tan -0.062434 -0.994544 -0.067890 1.000000
tan -0.067580 -0.996652 -0.062930 1.000000
tan -0.071796 -0.993242 -0.057288 1.000000
tan -0.062434 -0.994544 -0.067890 1.000000
tan -0.062434 -0.994544 -0.067890 1.000000
tan -0.067580 -0.996652 -0.062930 1.000000
tan -0.071796 -0.993242 -0.057288 1.000000
tan -0.081344 -1.001860 -0.058280 1.000000
tan -0.067580 -0.996652 -0.062930 1.000000
tan -0.067580 -0.996652 -0.062930 1.000000
tan -0.071796 -0.993242 -0.057288 1.000000
tan -0.081344 -1.001860 -0.058280 1.000000
tan -0.084816 -0.988282 -0.051088 1.000000
tan -0.071796 -0.993242 -0.057288 1.000000
tan -0.071796 -0.993242 -0.057288 1.000000
tan -0.081344 -1.001860 -0.058280 1.000000
tan -0.084816 -0.988282 -0.051088 1.000000
tan -0.089280 -0.998822 -0.044888 1.000000
tan -0.081344 -1.001860 -0.058280 1.000000
tan -0.081344 -1.001860 -0.058280 1.000000
tan -0.084816 -0.988282 -0.051088 1.000000
tan -0.084816 -0.988282 -0.051088 1.000000
tan -0.084816 -0.988282 -0.051088 1.000000
tan -0.089280 -0.998822 -0.044888 1.000000
tan -0.089280 -0.998822 -0.044888 1.000000
tan -0.089280 -0.998822 -0.044888 1.000000
tan -0.089280 -0.998822 -0.044888 1.000000
tan -0.091760 -0.988282 -0.037200 1.000000
tan -0.097712 -0.988282 -0.042284 1.000000
tan -0.101618 -1.000124 -0.035154 1.000000
tan -0.097712 -0.988282 -0.042284 1.000000
tan -0.101618 -1.000124 -0.035154 1.000000
tan -0.110112 -0.986546 -0.030752 1.000000
tan -0.097712 -0.988282 -0.042284 1.000000
tan -0.091760 -0.988282 -0.037200 1.000000
tan -0.101618 -1.000124 -0.035154 1.000000
tan -0.110112 -0.986546 -0.030752 1.000000
tan -0.112468 -0.993242 -0.022568 1.000000
tan -0.101618 -1.000124 -0.035154 1.000000
tan -0.101618 -1.000124 -0.035154 1.000000
tan -0.103416 -0.986546 -0.026660 1.000000
tan -0.112468 -0.993242 -0.022568 1.000000
tan -0.113708 -0.990328 -0.013764 1.000000
tan -0.110112 -0.986546 -0.030752 1.000000
tan -0.110112 -0.986546 -0.030752 1.000000
tan -0.112468 -0.993242 -0.022568 1.000000
tan -0.113708 -0.990328 -0.013764 1.000000
tan -0.122202 -0.994544 -0.006510 1.000000
tan -0.112468 -0.993242 -0.022568 1.000000
tan -0.112468 -0.993242 -0.022568 1.000000
tan -0.113708 -0.990328 -0.013764 1.000000
tan -0.122202 -0.994544 -0.006510 1.000000
tan -0.121830 -0.986174 0.002356 1.000000
tan -0.113708 -0.990328 -0.013764 1.000000
tan -0.113708 -0.990328 -0.013764 1.000000
tan -0.122202 -0.994544 -0.006510 1.000000
tan -0.121830 -0.993800 0.002604 1.000000
tan -0.121210 -0.985802 0.012152 1.000000
tan -0.122202 -0.994544 -0.006510 1.000000
tan -0.122202 -0.994544 -0.006510 1.000000
tan -0.121830 -0.993800 0.002604 1.000000
tan -0.121210 -0.985802 0.012152 1.000000
tan -0.120590 -0.998326 0.021948 1.000000
tan -0.121830 -0.993800 0.002604 1.000000
tan -0.121830 -0.986174 0.002356 1.000000
tan -0.121210 -0.985802 0.012152 1.000000
tan -0.120590 -0.998326 0.021948 1.000000
tan -0.118358 -0.992126 0.031248 1.000000
tan -0.118358 -0.992126 0.031248 1.000000
tan -0.121210 -0.985802 0.012152 1.000000
tan -0.121210 -0.985802 0.012152 1.000000
tan -0.120590 -0.998326 0.021948 1.000000
tan -0.118358 -0.992126 0.031248 1.000000
tan -0.120590 -0.998326 0.021948 1.000000
tan -0.120590 -0.998326 0.021948 1.000000
tan -0.118358 -0.992126 0.031248 1.000000
tan -0.118358 -0.992126 0.031248 1.000000
f 3/3/3 2/2/2 1/1/1
f 1/1/1 4/4/4 3/3/3
f 5/5/5 3/3/3 4/4/4
f 4/4/4 1/1/1 6/6/6
f 4/4/4 7/7/7 5/5/5
f 8/8/8 5/5/5 7/7/7
f 6/6/6 9/9/9 4/4/4
f 7/7/7 4/4/4 9/9/9
f 9/9/9 6/6/6 10/10/10
f 7/7/7 11/11/11 8/8/8
f 12/12/12 8/8/8 11/11/11
f 9/9/9 13/13/13 7/7/7
f 11/11/11 7/7/7 13/13/13
f 10/10/10 14/14/14 9/9/9
f 13/13/13 9/9/9 14/14/14
f 14/14/14 10/10/10 15/15/15
f 15/15/15 16/16/16 14/14/14
f 17/17/17 14/14/14 16/16/16
f 14/14/14 17/17/17 13/13/13
f 16/16/16 18/18/18 17/17/17
f 19/19/19 13/13/13 17/17/17
f 13/13/13 19/19/19 11/11/11
f 20/20/20 17/17/17 18/18/18
f 17/17/17 20/20/20 19/19/19
f 18/18/18 21/21/21 20/20/20
f 22/22/22 11/11/11 19/19/19
f 11/11/11 22/22/22 12/12/12
f 23/23/23 12/12/12 22/22/22
f 24/24/24 19/19/19 20/20/20
f 19/19/19 24/24/24 22/22/22
f 25/25/25 20/20/20 21/21/21
f 20/20/20 25/25/25 24/24/24
f 21/21/21 26/26/26 25/25/25
f 22/22/22 27/27/27 23/23/23
f 27/27/27 22/22/22 24/24/24
f 28/28/28 23/23/23 27/27/27
f 29/29/29 24/24/24 25/25/25
f 24/24/24 29/29/29 27/27/27
f 30/30/30 25/25/25 26/26/26
f 25/25/25 30/30/30 29/29/29
f 26/26/26 31/31/31 30/30/30
f 27/27/27 32/32/32 28/28/28
f 32/32/32 27/27/27 29/29/29
f 33/33/33 28/28/28 32/32/32
f 34/34/34 29/29/29 30/30/30
f 29/29/29 34/34/34 32/32/32
f 35/35/35 30/30/30 31/31/31
f 30/30/30 35/35/35 34/34/34
f 31/31/31 36/36/36 35/35/35
f 32/32/32 37/37/37 33/33/33
f 37/37/37 32/32/32 34/34/34
f 38/38/38 33/33/33 37/37/37
f 39/39/39 34/34/34 35/35/35
f 34/34/34 39/39/39 37/37/37
f 40/40/40 35/35/35 36/36/36
f 35/35/35 40/40/40 39/39/39
f 36/36/36 41/41/41 40/40/40
f 37/37/37 42/42/42 38/38/38
f 42/42/42 37/37/37 39/39/39
f 43/43/43 38/38/38 42/42/42
f 44/44/44 39/39/39 40/40/40
f 39/39/39 44/44/44 42/42/42
f 45/45/45 40/40/40 41/41/41
f 40/40/40 45/45/45 44/44/44
f 41/41/41 46/46/46 45/45/45
f 42/42/42 47/47/47 43/43/43
f 47/47/47 42/42/42 44/44/44
f 48/48/48 43/43/43 47/47/47
f 49/49/49 44/44/44 45/45/45
f 44/44/44 49/49/49 47/47/47
f 50/50/50 45/45/45 46/46/46
f 45/45/45 50/50/50 49/49/49
f 46/46/46 51/51/51 50/50/50
f 52/52/52 47/47/47 49/49/49
f 47/47/47 52/52/52 48/48/48
f 53/53/53 49/49/49 50/50/50
f 49/49/49 53/53/53 52/52/52
f 54/54/54 50/50/50 51/51/51
f 50/50/50 54/54/54 53/53/53
f 51/51/51 55/55/55 54/54/54
f 55/55/55 56/56/56 54/54/54
f 57/57/57 54/54/54 56/56/56
f 54/54/54 57/57/57 53/53/53
f 56/56/56 58/58/58 57/57/57
f 53/53/53 59/59/59 52/52/52
f 59/59/59 53/53/53 57/57/57
f 60/60/60 57/57/57 58/58/58
f 57/57/57 60/60/60 59/59/59
f 58/58/58 61/61/61 60/60/60
f 62/62/62 52/52/52 59/59/59
f 52/52/52 62/62/62 48/48/48
f 63/63/63 48/48/48 62/62/62
f 64/64/64 59/59/59 60/60/60
f 59/59/59 64/64/64 62/62/62
f 65/65/65 60/60/60 61/61/61
f 60/60/60 65/65/65 64/64/64
f 61/61/61 66/66/66 65/65/65
f 62/62/62 67/67/67 63/63/63
f 67/67/67 62/62/62 64/64/64
f 68/68/68 63/63/63 67/67/67
f 69/69/69 64/64/64 65/65/65
f 64/64/64 69/69/69 67/67/67
f 70/70/70 65/65/65 66/66/66
f 65/65/65 70/70/70 69/69/69
f 66/66/66 71/71/71 70/70/70
f 67/67/67 72/72/72 68/68/68
f 72/72/72 67/67/67 69/69/69
f 73/73/73 68/68/68 72/72/72
f 74/74/74 69/69/69 70/70/70
f 69/69/69 74/74/74 72/72/72
f 75/75/75 70/70/70 71/71/71
f 70/70/70 75/75/75 74/74/74
f 71/71/71 76/76/76 75/75/75
f 72/72/72 77/77/77 73/73/73
f 77/77/77 72/72/72 74/74/74
f 78/78/78 73/73/73 77/77/77
f 79/79/79 74/74/74 75/75/75
f 74/74/74 79/79/79 77/77/77
f 80/80/80 75/75/75 76/76/76
f 75/75/75 80/80/80 79/79/79
f 76/76/76 81/81/81 80/80/80
f 77/77/77 82/82/82 78/78/78
f 82/82/82 77/77/77 79/79/79
f 83/83/83 78/78/78 82/82/82
f 84/84/84 79/79/79 80/80/80
f 79/79/79 84/84/84 82/82/82
f 85/85/85 80/80/80 81/81/81
f 80/80/80 85/85/85 84/84/84
f 81/81/81 86/86/86 85/85/85
f 82/82/82 87/87/87 83/83/83
f 87/87/87 82/82/82 84/84/84
f 88/88/88 83/83/83 87/87/87
f 89/89/89 84/84/84 85/85/85
f 84/84/84 89/89/89 87/87/87
f 90/90/90 85/85/85 86/86/86
f 85/85/85 90/90/90 89/89/89
f 86/86/86 91/91/91 90/90/90
f 87/87/87 92/92/92 88/88/88
f 92/92/92 87/87/87 89/89/89
f 93/93/93 88/88/88 92/92/92
f 94/94/94 89/89/89 90/90/90
f 89/89/89 94/94/94 92/92/92
f 95/95/95 90/90/90 91/91/91
f 90/90/90 95/95/95 94/94/94
f 91/91/91 96/96/96 95/95/95
f 92/92/92 97/97/97 93/93/93
f 97/97/97 92/92/92 94/94/94
f 98/98/98 93/93/93 97/97/97
f 99/99/99 94/94/94 95/95/95
f 94/94/94 99/99/99 97/97/97
f 97/97/97 100/100/100 98/98/98
f 100/100/100 97/97/97 99/99/99
f 101/101/101 98/98/98 100/100/100
f 95/95/95 102/102/102 99/99/99
f 102/102/102 95/95/95 96/96/96
f 99/99/99 103/103/103 100/100/100
f 103/103/103 99/99/99 102/102/102
f 100/100/100 104/104/104 101/101/101
f 104/104/104 100/100/100 103/103/103
f 105/105/105 101/101/101 104/104/104
f 105/105/105 104/104/104 106/106/106
f 104/104/104 107/107/107 106/106/106
f 104/104/104 103/103/103 107/107/107
f 106/106/106 107/107/107 108/108/108
f 103/103/103 102/102/102 109/109/109
f 103/103/103 109/109/109 107/107/107
f 107/107/107 110/110/110 108/108/108
f 107/107/107 109/109/109 110/110/110
f 108/108/108 110/110/110 111/111/111
f 102/102/102 112/112/112 109/109/109
f 102/102/102 96/96/96 112/112/112
f 96/96/96 113/113/113 112/112/112
f 109/109/109 114/114/114 110/110/110
f 109/109/109 112/112/112 114/114/114
f 110/110/110 115/115/115 111/111/111
f 110/110/110 114/114/114 115/115/115
f 111/111/111 115/115/115 116/116/116
f 112/112/112 113/113/113 117/117/117
f 112/112/112 117/117/117 114/114/114
f 113/113/113 118/118/118 117/117/117
f 114/114/114 119/119/119 115/115/115
f 114/114/114 117/117/117 119/119/119
f 115/115/115 120/120/120 116/116/116
f 115/115/115 119/119/119 120/120/120
f 116/116/116 120/120/120 121/121/121
f 117/117/117 118/118/118 122/122/122
f 117/117/117 122/122/122 119/119/119
f 118/118/118 123/123/123 122/122/122
f 119/119/119 124/124/124 120/120/120
f 119/119/119 122/122/122 124/124/124
f 120/120/120 125/125/125 121/121/121
f 120/120/120 124/124/124 125/125/125
f 121/121/121 125/125/125 126/126/126
f 122/122/122 123/123/123 127/127/127
f 122/122/122 127/127/127 124/124/124
f 123/123/123 128/128/128 127/127/127
f 124/124/124 129/129/129 125/125/125
f 124/124/124 127/127/127 129/129/129
f 125/125/125 130/130/130 126/126/126
f 125/125/125 129/129/129 130/130/130
f 126/126/126 130/130/130 131/131/131
f 127/127/127 128/128/128 132/132/132
f 127/127/127 132/132/132 129/129/129
f 128/128/128 133/133/133 132/132/132
f 129/129/129 134/134/134 130/130/130
f 129/129/129 132/132/132 134/134/134
f 130/130/130 135/135/135 131/131/131
f 130/130/130 134/134/134 135/135/135
f 131/131/131 135/135/135 136/136/136
f 132/132/132 133/133/133 137/137/137
f 132/132/132 137/137/137 134/134/134
f 133/133/133 138/138/138 137/137/137
f 134/134/134 139/139/139 135/135/135
f 134/134/134 137/137/137 139/139/139
f 135/135/135 140/140/140 136/136/136
f 135/135/135 139/139/139 140/140/140
f 136/136/136 140/140/140 141/141/141
f 137/137/137 138/138/138 142/142/142
f 137/137/137 142/142/142 139/139/139
f 138/138/138 143/143/143 142/142/142
f 139/139/139 144/144/144 140/140/140
f 139/139/139 142/142/142 144/144/144
f 140/140/140 145/145/145 141/141/141
f 140/140/140 144/144/144 145/145/145
f 141/141/141 145/145/145 146/146/146
f 142/142/142 143/143/143 147/147/147
f 142/142/142 147/147/147 144/144/144
f 143/143/143 148/148/148 147/147/147
f 144/144/144 149/149/149 145/145/145
f 144/144/144 147/147/147 149/149/149
f 147/147/147 148/148/148 150/150/150
f 147/147/147 150/150/150 149/149/149
f 148/148/148 151/151/151 150/150/150
f 145/145/145 149/149/149 152/152/152
f 145/145/145 152/152/152 146/146/146
f 149/149/149 150/150/150 153/153/153
f 149/149/149 153/153/153 152/152/152
f 150/150/150 151/151/151 154/154/154
f 150/150/150 154/154/154 153/153/153
f 151/151/151 155/155/155 154/154/154
f 155/155/155 156/156/156 154/154/154
f 157/157/157 154/154/154 156/156/156
f 154/154/154 157/157/157 153/153/153
f 156/156/156 158/158/158 157/157/157
f 153/153/153 159/159/159 152/152/152
f 159/159/159 153/153/153 157/157/157
f 160/160/160 157/157/157 158/158/158
f 157/157/157 160/160/160 159/159/159
f 158/158/158 161/161/161 160/160/160
f 162/162/162 152/152/152 159/159/159
f 152/152/152 162/162/162 146/146/146
f 163/163/163 146/146/146 162/162/162
f 164/164/164 159/159/159 160/160/160
f 159/159/159 164/164/164 162/162/162
f 165/165/165 160/160/160 161/161/161
f 160/160/160 165/165/165 164/164/164
f 161/161/161 166/166/166 165/165/165
f 162/162/162 167/167/167 163/163/163
f 167/167/167 162/162/162 164/164/164
f 168/168/168 163/163/163 167/167/167
f 169/169/169 164/164/164 165/165/165
f 164/164/164 169/169/169 167/167/167
f 170/170/170 165/165/165 166/166/166
f 165/165/165 170/170/170 169/169/169
f 166/166/166 171/171/171 170/170/170
f 167/167/167 172/172/172 168/168/168
f 172/172/172 167/167/167 169/169/169
f 173/173/173 168/168/168 172/172/172
f 174/174/174 169/169/169 170/170/170
f 169/169/169 174/174/174 172/172/172
f 175/175/175 170/170/170 171/171/171
f 170/170/170 175/175/175 174/174/174
f 171/171/171 176/176/176 175/175/175
f 172/172/172 177/177/177 173/173/173
f 177/177/177 172/172/172 174/174/174
f 178/178/178 173/173/173 177/177/177
f 179/179/179 174/174/174 175/175/175
f 174/174/174 179/179/179 177/177/177
f 180/180/180 175/175/175 176/176/176
f 175/175/175 180/180/180 179/179/179
f 176/176/176 181/181/181 180/180/180
f 177/177/177 182/182/182 178/178/178
f 182/182/182 177/177/177 179/179/179
f 183/183/183 178/178/178 182/182/182
f 184/184/184 179/179/179 180/180/180
f 179/179/179 184/184/184 182/182/182
f 185/185/185 180/180/180 181/181/181
f 180/180/180 185/185/185 184/184/184
f 181/181/181 186/186/186 185/185/185
f 182/182/182 187/187/187 183/183/183
f 187/187/187 182/182/182 184/184/184
f 188/188/188 183/183/183 187/187/187
f 189/189/189 184/184/184 185/185/185
f 184/184/184 189/189/189 187/187/187
f 190/190/190 185/185/185 186/186/186
f 185/185/185 190/190/190 189/189/189
f 186/186/186 191/191/191 190/190/190
f 187/187/187 192/192/192 188/188/188
f 192/192/192 187/187/187 189/189/189
f 193/193/193 188/188/188 192/192/192
f 194/194/194 189/189/189 190/190/190
f 189/189/189 194/194/194 192/192/192
f 195/195/195 190/190/190 191/191/191
f 190/190/190 195/195/195 194/194/194
f 191/191/191 196/196/196 195/195/195
f 192/192/192 197/197/197 193/193/193
f 197/197/197 192/192/192 194/194/194
f 198/198/198 193/193/193 197/197/197
f 199/199/199 194/194/194 195/195/195
f 194/194/194 199/199/199 197/197/197
f 197/197/197 200/200/200 198/198/198
f 200/200/200 197/197/197 199/199/199
f 201/201/201 198/198/198 200/200/200
f 195/195/195 202/202/202 199/199/199
f 202/202/202 195/195/195 196/196/196
f 199/199/199 203/203/203 200/200/200
f 203/203/203 199/199/199 202/202/202
f 200/200/200 204/204/204 201/201/201
f 204/204/204 200/200/200 203/203/203
f 205/205/205 201/201/201 204/204/204
f 205/205/205 204/204/204 206/206/206
f 207/207/207 206/206/206 204/204/204
f 204/204/204 203/203/203 207/207/207
f 206/206/206 207/207/207 208/208/208
f 203/203/203 202/202/202 209/209/209
f 209/209/209 207/207/207 203/203/203
f 210/210/210 208/208/208 207/207/207
f 207/207/207 209/209/209 210/210/210
f 208/208/208 210/210/210 211/211/211
f 212/212/212 209/209/209 202/202/202
f 202/202/202 196/196/196 212/212/212
f 213/213/213 212/212/212 196/196/196
f 214/214/214 210/210/210 209/209/209
f 209/209/209 212/212/212 214/214/214
f 215/215/215 211/211/211 210/210/210
f 210/210/210 214/214/214 215/215/215
f 211/211/211 215/215/215 216/216/216
f 212/212/212 213/213/213 217/217/217
f 217/217/217 214/214/214 212/212/212
f 218/218/218 217/217/217 213/213/213
f 219/219/219 215/215/215 214/214/214
f 214/214/214 217/217/217 219/219/219
f 220/220/220 216/216/216 215/215/215
f 215/215/215 219/219/219 220/220/220
f 216/216/216 220/220/220 221/221/221
f 217/217/217 218/218/218 222/222/222
f 222/222/222 219/219/219 217/217/217
f 223/223/223 222/222/222 218/218/218
f 224/224/224 220/220/220 219/219/219
f 219/219/219 222/222/222 224/224/224
f 225/225/225 221/221/221 220/220/220
f 220/220/220 224/224/224 225/225/225
f 221/221/221 225/225/225 226/226/226
f 222/222/222 223/223/223 227/227/227
f 227/227/227 224/224/224 222/222/222
f 228/228/228 227/227/227 223/223/223
f 229/229/229 225/225/225 224/224/224
f 224/224/224 227/227/227 229/229/229
f 230/230/230 226/226/226 225/225/225
f 225/225/225 229/229/229 230/230/230
f 226/226/226 230/230/230 231/231/231
f 227/227/227 228/228/228 232/232/232
f 232/232/232 229/229/229 227/227/227
f 233/233/233 232/232/232 228/228/228
f 234/234/234 230/230/230 229/229/229
f 229/229/229 232/232/232 234/234/234
f 235/235/235 231/231/231 230/230/230
f 230/230/230 234/234/234 235/235/235
f 231/231/231 235/235/235 236/236/236
f 232/232/232 233/233/233 237/237/237
f 237/237/237 234/234/234 232/232/232
f 238/238/238 237/237/237 233/233/233
f 239/239/239 235/235/235 234/234/234
f 234/234/234 237/237/237 239/239/239
f 240/240/240 236/236/236 235/235/235
f 235/235/235 239/239/239 240/240/240
f 236/236/236 240/240/240 241/241/241
f 237/237/237 238/238/238 242/242/242
f 242/242/242 239/239/239 237/237/237
f 243/243/243 242/242/242 238/238/238
f 244/244/244 240/240/240 239/239/239
f 239/239/239 242/242/242 244/244/244
f 245/245/245 241/241/241 240/240/240
f 240/240/240 244/244/244 245/245/245
f 241/241/241 245/245/245 246/246/246
f 242/242/242 243/243/243 247/247/247
f 247/247/247 244/244/244 242/242/242
f 248/248/248 247/247/247 243/243/243
f 249/249/249 245/245/245 244/244/244
f 244/244/244 247/247/247 249/249/249
f 247/247/247 248/248/248 250/250/250
f 250/250/250 249/249/249 247/247/247
f 251/251/251 250/250/250 248/248/248
f 245/245/245 249/249/249 252/252/252
f 252/252/252 246/246/246 245/245/245
f 249/249/249 250/250/250 253/253/253
f 253/253/253 252/252/252 249/249/249
f 250/250/250 251/251/251 254/254/254
f 254/254/254 253/253/253 250/250/250
f 255/255/255 254/254/254 251/251/251
f 255/255/255 256/256/256 254/254/254
f 257/257/257 254/254/254 256/256/256
f 254/254/254 257/257/257 253/253/253
f 256/256/256 258/258/258 257/257/257
f 259/259/259 253/253/253 257/257/257
f 253/253/253 259/259/259 252/252/252
f 260/260/260 257/257/257 258/258/258
f 257/257/257 260/260/260 259/259/259
f 258/258/258 261/261/261 260/260/260
f 262/262/262 252/252/252 259/259/259
f 252/252/252 262/262/262 246/246/246
f 263/263/263 246/246/246 262/262/262
f 264/264/264 259/259/259 260/260/260
f 259/259/259 264/264/264 262/262/262
f 265/265/265 260/260/260 261/261/261
f 260/260/260 265/265/265 264/264/264
f 261/261/261 266/266/266 265/265/265
f 262/262/262 267/267/267 263/263/263
f 267/267/267 262/262/262 264/264/264
f 268/268/268 263/263/263 267/267/267
f 269/269/269 264/264/264 265/265/265
f 264/264/264 269/269/269 267/267/267
f 270/270/270 265/265/265 266/266/266
f 265/265/265 270/270/270 269/269/269
f 266/266/266 271/271/271 270/270/270
f 267/267/267 272/272/272 268/268/268
f 272/272/272 267/267/267 269/269/269
f 273/273/273 268/268/268 272/272/272
f 274/274/274 269/269/269 270/270/270
f 269/269/269 274/274/274 272/272/272
f 275/275/275 270/270/270 271/271/271
f 270/270/270 275/275/275 274/274/274
f 271/271/271 276/276/276 275/275/275
f 272/272/272 277/277/277 273/273/273
f 277/277/277 272/272/272 274/274/274
f 278/278/278 273/273/273 277/277/277
f 279/279/279 274/274/274 275/275/275
f 274/274/274 279/279/279 277/277/277
f 280/280/280 275/275/275 276/276/276
f 275/275/275 280/280/280 279/279/279
f 276/276/276 281/281/281 280/280/280
f 277/277/277 282/282/282 278/278/278
f 282/282/282 277/277/277 279/279/279
f 283/283/283 278/278/278 282/282/282
f 284/284/284 279/279/279 280/280/280
f 279/279/279 284/284/284 282/282/282
f 285/285/285 280/280/280 281/281/281
f 280/280/280 285/285/285 284/284/284
f 281/281/281 286/286/286 285/285/285
f 282/282/282 287/287/287 283/283/283
f 287/287/287 282/282/282 284/284/284
f 288/288/288 283/283/283 287/287/287
f 289/289/289 284/284/284 285/285/285
f 284/284/284 289/289/289 287/287/287
f 290/290/290 285/285/285 286/286/286
f 285/285/285 290/290/290 289/289/289
f 286/286/286 291/291/291 290/290/290
f 287/287/287 292/292/292 288/288/288
f 292/292/292 287/287/287 289/289/289
f 293/293/293 288/288/288 292/292/292
f 294/294/294 289/289/289 290/290/290
f 289/289/289 294/294/294 292/292/292
f 295/295/295 290/290/290 291/291/291
f 290/290/290 295/295/295 294/294/294
f 291/291/291 296/296/296 295/295/295
f 292/292/292 297/297/297 293/293/293
f 297/297/297 292/292/292 294/294/294
f 298/298/298 293/293/293 297/297/297
f 299/299/299 294/294/294 295/295/295
f 294/294/294 299/299/299 297/297/297
f 297/297/297 300/300/300 298/298/298
f 300/300/300 297/297/297 299/299/299
f 301/301/301 298/298/298 300/300/300
f 295/295/295 302/302/302 299/299/299
f 302/302/302 295/295/295 296/296/296
f 299/299/299 303/303/303 300/300/300
f 303/303/303 299/299/299 302/302/302
f 300/300/300 304/304/304 301/301/301
f 304/304/304 300/300/300 303/303/303
f 305/305/305 301/301/301 304/304/304
f 305/305/305 304/304/304 306/306/306
f 307/307/307 306/306/306 304/304/304
f 304/304/304 303/303/303 307/307/307
f 308/308/308 306/306/306 307/307/307
f 303/303/303 302/302/302 309/309/309
f 309/309/309 307/307/307 303/303/303
f 310/310/310 308/308/308 307/307/307
f 310/310/310 307/307/307 309/309/309
f 311/311/311 308/308/308 310/310/310
f 312/312/312 309/309/309 302/302/302
f 302/302/302 296/296/296 312/312/312
f 313/313/313 312/312/312 296/296/296
f 314/314/314 310/310/310 309/309/309
f 314/314/314 309/309/309 312/312/312
f 315/315/315 311/311/311 310/310/310
f 315/315/315 310/310/310 314/314/314
f 316/316/316 311/311/311 315/315/315
f 317/317/317 312/312/312 313/313/313
f 317/317/317 314/314/314 312/312/312
f 318/318/318 317/317/317 313/313/313
f 319/319/319 315/315/315 314/314/314
f 319/319/319 314/314/314 317/317/317
f 315/315/315 320/320/320 316/316/316
f 320/320/320 315/315/315 319/319/319
f 321/321/321 316/316/316 320/320/320
f 322/322/322 317/317/317 318/318/318
f 322/322/322 319/319/319 317/317/317
f 323/323/323 322/322/322 318/318/318
f 324/324/324 320/320/320 319/319/319
f 324/324/324 319/319/319 322/322/322
f 320/320/320 325/325/325 321/321/321
f 325/325/325 320/320/320 324/324/324
f 326/326/326 321/321/321 325/325/325
f 327/327/327 322/322/322 323/323/323
f 327/327/327 324/324/324 322/322/322
f 328/328/328 327/327/327 323/323/323
f 324/324/324 329/329/329 325/325/325
f 329/329/329 324/324/324 327/327/327
f 325/325/325 330/330/330 326/326/326
f 330/330/330 325/325/325 329/329/329
f 331/331/331 326/326/326 330/330/330
f 332/332/332 327/327/327 328/328/328
f 332/332/332 329/329/329 327/327/327
f 333/333/333 332/332/332 328/328/328
f 329/329/329 334/334/334 330/330/330
f 334/334/334 329/329/329 332/332/332
f 330/330/330 335/335/335 331/331/331
f 335/335/335 330/330/330 334/334/334
f 336/336/336 331/331/331 335/335/335
f 337/337/337 332/332/332 333/333/333
f 332/332/332 337/337/337 334/334/334
f 338/338/338 337/337/337 333/333/333
f 334/334/334 339/339/339 335/335/335
f 339/339/339 334/334/334 337/337/337
f 335/335/335 340/340/340 336/336/336
f 340/340/340 335/335/335 339/339/339
f 341/341/341 336/336/336 340/340/340
f 342/342/342 337/337/337 338/338/338
f 337/337/337 342/342/342 339/339/339
f 338/338/338 343/343/343 342/342/342
f 339/339/339 344/344/344 340/340/340
f 344/344/344 339/339/339 342/342/342
f 340/340/340 345/345/345 341/341/341
f 345/345/345 340/340/340 344/344/344
f 346/346/346 341/341/341 345/345/345
f 347/347/347 342/342/342 343/343/343
f 342/342/342 347/347/347 344/344/344
f 343/343/343 348/348/348 347/347/347
f 344/344/344 349/349/349 345/345/345
f 349/349/349 344/344/344 347/347/347
f 350/350/350 347/347/347 348/348/348
f 347/347/347 350/350/350 349/349/349
f 348/348/348 351/351/351 350/350/350
f 352/352/352 345/345/345 349/349/349
f 345/345/345 352/352/352 346/346/346
f 353/353/353 349/349/349 350/350/350
f 349/349/349 353/353/353 352/352/352
f 354/354/354 350/350/350 351/351/351
f 350/350/350 354/354/354 353/353/353
f 351/351/351 355/355/355 354/354/354
f 355/355/355 356/356/356 354/354/354
f 357/357/357 354/354/354 356/356/356
f 354/354/354 357/357/357 353/353/353
f 356/356/356 358/358/358 357/357/357
f 353/353/353 359/359/359 352/352/352
f 359/359/359 353/353/353 357/357/357
f 360/360/360 357/357/357 358/358/358
f 357/357/357 360/360/360 359/359/359
f 358/358/358 361/361/361 360/360/360
f 362/362/362 352/352/352 359/359/359
f 352/352/352 362/362/362 346/346/346
f 363/363/363 346/346/346 362/362/362
f 364/364/364 359/359/359 360/360/360
f 359/359/359 364/364/364 362/362/362
f 365/365/365 360/360/360 361/361/361
f 360/360/360 365/365/365 364/364/364
f 361/361/361 366/366/366 365/365/365
f 362/362/362 367/367/367 363/363/363
f 367/367/367 362/362/362 364/364/364
f 368/368/368 363/363/363 367/367/367
f 369/369/369 364/364/364 365/365/365
f 364/364/364 369/369/369 367/367/367
f 370/370/370 365/365/365 366/366/366
f 365/365/365 370/370/370 369/369/369
f 366/366/366 371/371/371 370/370/370
f 367/367/367 372/372/372 368/368/368
f 372/372/372 367/367/367 369/369/369
f 373/373/373 368/368/368 372/372/372
f 374/374/374 369/369/369 370/370/370
f 369/369/369 374/374/374 372/372/372
f 375/375/375 370/370/370 371/371/371
f 370/370/370 375/375/375 374/374/374
f 371/371/371 376/376/376 375/375/375
f 372/372/372 377/377/377 373/373/373
f 377/377/377 372/372/372 374/374/374
f 378/378/378 373/373/373 377/377/377
f 379/379/379 374/374/374 375/375/375
f 374/374/374 379/379/379 377/377/377
f 380/380/380 375/375/375 376/376/376
f 375/375/375 380/380/380 379/379/379
f 376/376/376 381/381/381 380/380/380
f 377/377/377 382/382/382 378/378/378
f 382/382/382 377/377/377 379/379/379
f 383/383/383 378/378/378 382/382/382
f 384/384/384 379/379/379 380/380/380
f 379/379/379 384/384/384 382/382/382
f 385/385/385 380/380/380 381/381/381
f 380/380/380 385/385/385 384/384/384
f 381/381/381 386/386/386 385/385/385
f 382/382/382 387/387/387 383/383/383
f 387/387/387 382/382/382 384/384/384
f 388/388/388 383/383/383 387/387/387
f 389/389/389 384/384/384 385/385/385
f 384/384/384 389/389/389 387/387/387
f 390/390/390 385/385/385 386/386/386
f 385/385/385 390/390/390 389/389/389
f 386/386/386 391/391/391 390/390/390
f 387/387/387 392/392/392 388/388/388
f 392/392/392 387/387/387 389/389/389
f 393/393/393 388/388/388 392/392/392
f 394/394/394 389/389/389 390/390/390
f 389/389/389 394/394/394 392/392/392
f 395/395/395 390/390/390 391/391/391
f 390/390/390 395/395/395 394/394/394
f 391/391/391 396/396/396 395/395/395
f 397/397/397 395/395/395 396/396/396
f 392/392/392 398/398/398 393/393/393
f 398/398/398 392/392/392 394/394/394
f 399/399/399 393/393/393 398/398/398
f 400/400/400 394/394/394 395/395/395
f 395/395/395 397/397/397 400/400/400
f 394/394/394 400/400/400 398/398/398
f 401/401/401 400/400/400 397/397/397
f 398/398/398 402/402/402 399/399/399
f 402/402/402 398/398/398 400/400/400
f 400/400/400 401/401/401 402/402/402
f 403/403/403 399/399/399 402/402/402
f 404/404/404 402/402/402 401/401/401
f 402/402/402 404/404/404 403/403/403
f 405/405/405 403/403/403 404/404/404
