mtllib SM_Mast_Offshoot_01_LOD1@000002909DC0B900.mtl
g SM_Mast_Offshoot_01_LOD1@000002909DC0B900
#Vertices 76
#Indices 189
#Section 0 Offset 0 NumIndices 30 MaterialIndex 0 MI_RoofTile_A_01
#Section 1 Offset 30 NumIndices 99 MaterialIndex 1 MI_ConcreteTile_A2_02
#Section 2 Offset 129 NumIndices 60 MaterialIndex 2 MI_BrickTile_C_01
v 4.080973 11.258785 1.915838 0.000000 1.000000 0.000000 1.000000
v 2.606191 11.256649 3.587107 0.000000 1.000000 0.000000 1.000000
v 0.000000 20.124475 -0.000002 0.000000 1.000000 0.000000 1.000000
v 4.433233 11.258597 -0.702167 0.000000 1.000000 0.000000 1.000000
v -0.185936 11.266146 4.584653 0.000000 1.000000 0.000000 1.000000
v 3.289199 11.258786 -3.083162 0.000000 1.000000 0.000000 1.000000
v -3.173826 11.258655 3.173802 0.000000 1.000000 0.000000 1.000000
v 1.370154 11.256648 -4.216900 0.000000 1.000000 0.000000 1.000000
v -4.478484 11.258684 0.709315 0.000000 1.000000 0.000000 1.000000
v -1.593182 11.266846 -4.302492 0.000000 1.000000 0.000000 1.000000
v -3.999240 11.258655 -2.037715 0.000000 1.000000 0.000000 1.000000
v -0.985239 -0.004536 -1.355156 0.000000 1.000000 0.000000 1.000000
v 1.781479 -0.836333 1.355039 0.000000 1.000000 0.000000 1.000000
v 1.781479 -0.836021 -1.355351 0.000000 1.000000 0.000000 1.000000
v -0.985239 -0.004536 1.355234 0.000000 1.000000 0.000000 1.000000
v 3.522886 -2.139067 -1.355156 0.000000 1.000000 0.000000 1.000000
v 1.781479 -0.836333 1.355039 0.000000 1.000000 0.000000 1.000000
v 3.522886 -2.139067 1.355235 0.000000 1.000000 0.000000 1.000000
v 1.781479 -0.836021 -1.355351 0.000000 1.000000 0.000000 1.000000
v 3.522886 -0.004536 -1.355156 0.000000 1.000000 0.000000 1.000000
v 1.781479 -0.836021 -1.355351 0.000000 1.000000 0.000000 1.000000
v 3.522886 -2.139067 -1.355156 0.000000 1.000000 0.000000 1.000000
v -0.985239 -0.004536 -1.355156 0.000000 1.000000 0.000000 1.000000
v -0.985239 -0.004536 1.355234 0.000000 1.000000 0.000000 1.000000
v 3.522886 -0.004536 1.355234 0.000000 1.000000 0.000000 1.000000
v 1.781479 -0.836333 1.355039 0.000000 1.000000 0.000000 1.000000
v 3.522886 -2.139067 1.355235 0.000000 1.000000 0.000000 1.000000
v 0.584110 -0.001769 4.019903 0.000000 1.000000 0.000000 1.000000
v 3.228159 -0.002036 2.505096 0.000000 1.000000 0.000000 1.000000
v 3.999921 -0.000029 0.000089 0.000000 1.000000 0.000000 1.000000
v -1.914210 -0.002117 3.623420 0.000000 1.000000 0.000000 1.000000
v -3.642116 -0.002538 1.796917 0.000000 1.000000 0.000000 1.000000
v -3.970037 -0.008682 -1.266776 0.000000 1.000000 0.000000 1.000000
v -2.351142 -0.000000 -3.236069 0.000000 1.000000 0.000000 1.000000
v -0.583908 -0.002156 -4.019672 0.000000 1.000000 0.000000 1.000000
v 1.913387 -0.000942 -3.624724 0.000000 1.000000 0.000000 1.000000
v 3.642780 0.000349 -1.798449 0.000000 1.000000 0.000000 1.000000
v 2.606191 11.256649 3.587107 0.000000 1.000000 0.000000 1.000000
v 1.574310 11.256377 3.344920 0.000000 1.000000 0.000000 1.000000
v -0.185936 11.266146 4.584653 0.000000 1.000000 0.000000 1.000000
v 4.080973 11.258785 1.915838 0.000000 1.000000 0.000000 1.000000
v -2.056894 11.257024 2.968590 0.000000 1.000000 0.000000 1.000000
v 3.505533 11.256649 0.555226 0.000000 1.000000 0.000000 1.000000
v -3.173826 11.258655 3.173802 0.000000 1.000000 0.000000 1.000000
v 4.433233 11.258597 -0.702167 0.000000 1.000000 0.000000 1.000000
v -4.478484 11.258684 0.709315 0.000000 1.000000 0.000000 1.000000
v 2.538118 11.256857 -2.656081 0.000000 1.000000 0.000000 1.000000
v -3.505534 11.256649 0.555220 0.000000 1.000000 0.000000 1.000000
v 3.289199 11.258786 -3.083162 0.000000 1.000000 0.000000 1.000000
v -2.886088 11.256741 -2.162087 0.000000 1.000000 0.000000 1.000000
v 1.370154 11.256648 -4.216900 0.000000 1.000000 0.000000 1.000000
v -3.999240 11.258655 -2.037715 0.000000 1.000000 0.000000 1.000000
v -0.549757 11.256649 -3.471047 0.000000 1.000000 0.000000 1.000000
v -1.593182 11.266846 -4.302492 0.000000 1.000000 0.000000 1.000000
v 3.999921 -0.000029 0.000089 0.000000 1.000000 0.000000 1.000000
v 4.000000 11.582059 -0.000001 0.000000 1.000000 0.000000 1.000000
v 3.642780 0.000349 -1.798449 0.000000 1.000000 0.000000 1.000000
v 3.550482 11.582059 -1.938918 0.000000 1.000000 0.000000 1.000000
v 1.913387 -0.000942 -3.624724 0.000000 1.000000 0.000000 1.000000
v 1.736482 11.582209 -3.692730 0.000000 1.000000 0.000000 1.000000
v -0.583908 -0.002156 -4.019672 0.000000 1.000000 0.000000 1.000000
v -0.746857 11.582059 -3.975870 0.000000 1.000000 0.000000 1.000000
v -2.351142 -0.000000 -3.236069 0.000000 1.000000 0.000000 1.000000
v -2.351142 11.582059 -3.236070 0.000000 1.000000 0.000000 1.000000
v -3.970037 -0.008682 -1.266776 0.000000 1.000000 0.000000 1.000000
v -4.033336 11.583081 -0.905275 0.000000 1.000000 0.000000 1.000000
v -3.642116 -0.002538 1.796917 0.000000 1.000000 0.000000 1.000000
v -3.550490 11.582059 1.938903 0.000000 1.000000 0.000000 1.000000
v -1.914210 -0.002117 3.623420 0.000000 1.000000 0.000000 1.000000
v -1.736547 11.582209 3.692693 0.000000 1.000000 0.000000 1.000000
v 0.584110 -0.001769 4.019903 0.000000 1.000000 0.000000 1.000000
v 1.561583 11.583135 3.851017 0.000000 1.000000 0.000000 1.000000
v 3.228159 -0.002036 2.505096 0.000000 1.000000 0.000000 1.000000
v 3.655554 11.582059 1.732710 0.000000 1.000000 0.000000 1.000000
v 3.999921 -0.000029 0.000089 0.000000 1.000000 0.000000 1.000000
v 4.000000 11.582059 -0.000001 0.000000 1.000000 0.000000 1.000000
vt 0.310059 -0.575195
vt 0.577148 -0.897461
vt 1.085938 -0.239258
vt 0.258545 -0.082031
vt 1.095703 -1.097656
vt 0.486572 0.357910
vt 1.664062 -0.852539
vt 0.852539 0.560059
vt 1.922852 -0.397461
vt 1.408203 0.557373
vt 1.847656 0.121094
vt 2.296875 2.056641
vt 1.834961 1.879883
vt 2.158203 1.719238
vt 2.001953 2.190430
vt 2.021484 1.487305
vt 1.834961 1.879883
vt 1.735352 1.618164
vt 2.158203 1.719238
vt 2.255859 1.499512
vt 2.158203 1.719238
vt 2.021484 1.487305
vt 2.296875 2.056641
vt 2.001953 2.190430
vt 1.603516 1.817871
vt 1.834961 1.879883
vt 1.735352 1.618164
vt 0.735840 0.878296
vt 1.093750 1.009216
vt 1.241211 1.301514
vt 0.436523 0.979782
vt 0.262207 1.241211
vt 0.286133 1.625488
vt 0.526855 1.833984
vt 0.761230 1.893066
vt 1.060547 1.791992
vt 1.235352 1.530273
vt 4.351562 0.189453
vt 4.234375 0.245605
vt 3.986328 0.139160
vt 4.574219 0.356445
vt 3.798828 0.384766
vt 4.539062 0.537354
vt 3.656250 0.388184
vt 4.687500 0.667480
vt 3.560547 0.723145
vt 4.503906 0.955048
vt 3.683594 0.717041
vt 4.605469 0.988037
vt 3.828125 1.033508
vt 4.402344 1.175781
vt 3.689453 1.046814
vt 4.148438 1.133789
vt 4.039062 1.262207
vt -1.035156 1.769531
vt -1.035156 3.216797
vt -1.264648 1.770020
vt -1.284180 3.216797
vt -1.576172 1.769531
vt -1.598633 3.216797
vt -1.889648 1.769531
vt -1.910156 3.216797
vt -2.130859 1.769531
vt -2.130859 3.216797
vt -2.447266 1.769043
vt -2.488281 3.216797
vt -2.828125 1.769531
vt -2.847656 3.216797
vt -3.140625 1.769531
vt -3.162109 3.216797
vt -3.453125 1.769531
vt -3.572266 3.216797
vt -3.835938 1.769043
vt -3.943359 3.216797
vt -4.164062 1.769531
vt -4.164062 3.216797
vt1 0.310059 -0.575195
vt1 0.577148 -0.897461
vt1 1.085938 -0.239258
vt1 0.258545 -0.082031
vt1 1.095703 -1.097656
vt1 0.486572 0.357910
vt1 1.664062 -0.852539
vt1 0.852539 0.560059
vt1 1.922852 -0.397461
vt1 1.408203 0.557373
vt1 1.847656 0.121094
vt1 2.296875 2.056641
vt1 1.834961 1.879883
vt1 2.158203 1.719238
vt1 2.001953 2.190430
vt1 2.021484 1.487305
vt1 1.834961 1.879883
vt1 1.735352 1.618164
vt1 2.158203 1.719238
vt1 2.255859 1.499512
vt1 2.158203 1.719238
vt1 2.021484 1.487305
vt1 2.296875 2.056641
vt1 2.001953 2.190430
vt1 1.603516 1.817871
vt1 1.834961 1.879883
vt1 1.735352 1.618164
vt1 0.735840 0.878296
vt1 1.093750 1.009216
vt1 1.241211 1.301514
vt1 0.436523 0.979782
vt1 0.262207 1.241211
vt1 0.286133 1.625488
vt1 0.526855 1.833984
vt1 0.761230 1.893066
vt1 1.060547 1.791992
vt1 1.235352 1.530273
vt1 4.351562 0.189453
vt1 4.234375 0.245605
vt1 3.986328 0.139160
vt1 4.574219 0.356445
vt1 3.798828 0.384766
vt1 4.539062 0.537354
vt1 3.656250 0.388184
vt1 4.687500 0.667480
vt1 3.560547 0.723145
vt1 4.503906 0.955048
vt1 3.683594 0.717041
vt1 4.605469 0.988037
vt1 3.828125 1.033508
vt1 4.402344 1.175781
vt1 3.689453 1.046814
vt1 4.148438 1.133789
vt1 4.039062 1.262207
vt1 -1.035156 1.769531
vt1 -1.035156 3.216797
vt1 -1.264648 1.770020
vt1 -1.284180 3.216797
vt1 -1.576172 1.769531
vt1 -1.598633 3.216797
vt1 -1.889648 1.769531
vt1 -1.910156 3.216797
vt1 -2.130859 1.769531
vt1 -2.130859 3.216797
vt1 -2.447266 1.769043
vt1 -2.488281 3.216797
vt1 -2.828125 1.769531
vt1 -2.847656 3.216797
vt1 -3.140625 1.769531
vt1 -3.162109 3.216797
vt1 -3.453125 1.769531
vt1 -3.572266 3.216797
vt1 -3.835938 1.769043
vt1 -3.943359 3.216797
vt1 -4.164062 1.769531
vt1 -4.164062 3.216797
vn 0.811024 0.440945 0.377953
vn 0.527559 0.448819 0.724409
vn 0.000000 1.000000 -0.000000
vn 0.881890 0.440945 -0.141732
vn -0.039370 0.433071 0.897638
vn 0.653543 0.440945 -0.614173
vn -0.637795 0.440945 0.637795
vn 0.275591 0.448819 -0.850394
vn -0.889764 0.440945 0.141732
vn -0.314961 0.433071 -0.842520
vn -0.795276 0.440945 -0.409449
vn -0.291339 -0.960630 0.000000
vn -0.291339 -0.960630 0.000000
vn -0.291339 -0.960630 0.000000
vn -0.291339 -0.960630 0.000000
vn -0.598425 -0.803149 0.000000
vn -0.598425 -0.803149 0.000000
vn -0.598425 -0.803149 0.000000
vn -0.598425 -0.803149 0.000000
vn 0.000000 -0.000000 -1.000000
vn 0.000000 -0.000000 -1.000000
vn 0.000000 -0.000000 -1.000000
vn 0.000000 -0.000000 -1.000000
vn 0.000000 0.000000 1.000000
vn 0.000000 0.000000 1.000000
vn 0.000000 0.000000 1.000000
vn 0.000000 0.000000 1.000000
vn 0.000000 -1.000000 0.000000
vn 0.000000 -1.000000 0.000000
vn 0.000000 -1.000000 0.000000
vn 0.000000 -1.000000 0.000000
vn 0.000000 -1.000000 0.000000
vn 0.000000 -1.000000 0.000000
vn 0.000000 -1.000000 0.000000
vn 0.000000 -1.000000 0.000000
vn 0.000000 -1.000000 0.000000
vn 0.000000 -1.000000 0.000000
vn 0.000000 -1.000000 0.000000
vn 0.000000 -1.000000 0.000000
vn 0.000000 -1.000000 0.000000
vn 0.000000 -1.000000 0.000000
vn 0.000000 -1.000000 0.000000
vn 0.000000 -1.000000 0.000000
vn 0.000000 -1.000000 0.000000
vn 0.000000 -1.000000 0.000000
vn 0.000000 -1.000000 0.000000
vn 0.000000 -1.000000 0.000000
vn 0.000000 -1.000000 0.000000
vn 0.000000 -1.000000 0.000000
vn 0.000000 -1.000000 0.000000
vn 0.000000 -1.000000 0.000000
vn 0.000000 -1.000000 0.000000
vn 0.000000 -1.000000 0.000000
vn 0.000000 -1.000000 0.000000
vn 1.000000 0.000000 0.000000
vn 1.000000 0.000000 0.000000
vn 0.897638 -0.000000 -0.440945
vn 0.874016 -0.000000 -0.480315
vn 0.464567 -0.000000 -0.881890
vn 0.425197 -0.000000 -0.905512
vn -0.141732 -0.000000 -0.992126
vn -0.181102 -0.000000 -0.984252
vn -0.590551 -0.000000 -0.811023
vn -0.590551 -0.000000 -0.811023
vn -0.952756 -0.000000 -0.299213
vn -0.976378 -0.000000 -0.220472
vn -0.897638 0.000000 0.440945
vn -0.874016 0.000000 0.480315
vn -0.464567 0.000000 0.881890
vn -0.425197 0.000000 0.905512
vn 0.141732 0.000000 0.992126
vn 0.377953 0.000000 0.929134
vn 0.787402 0.000000 0.614173
vn 0.905512 0.000000 0.425197
vn 1.000000 0.000000 0.000000
vn 1.000000 0.000000 0.000000
tan -0.381921 -0.022940 0.846302 1.000000
tan -0.585343 -0.429351 0.692293 1.000000
tan -0.031496 0.000000 1.000000 1.000000
tan 0.131316 0.025296 0.895778 1.000000
tan 0.035340 -0.897638 0.434621 1.000000
tan 0.573377 0.213404 0.763345 1.000000
tan 0.585653 -0.246078 0.755781 1.000000
tan 0.347821 0.774381 0.521421 1.000000
tan 0.131316 -0.026598 0.907124 1.000000
tan -0.404675 0.743010 0.533201 1.000000
tan -0.413169 0.032612 0.837622 1.000000
tan 0.884990 -0.268399 -0.372931 1.000000
tan 0.884990 -0.268399 -0.380495 1.000000
tan 0.877426 -0.266105 -0.395623 1.000000
tan 0.892554 -0.270693 -0.357803 1.000000
tan 0.777854 -0.579577 -0.257300 1.000000
tan 0.777854 -0.579577 -0.239940 1.000000
tan 0.784178 -0.584289 -0.216256 1.000000
tan 0.765206 -0.570153 -0.287308 1.000000
tan 1.000000 -0.015748 0.000000 1.000000
tan 1.000000 0.015748 -0.000000 1.000000
tan 1.000000 -0.047244 0.000000 1.000000
tan 1.000000 0.047244 -0.000000 1.000000
tan 0.645669 -0.763779 0.000000 1.000000
tan 0.645669 -0.763779 0.000000 1.000000
tan 0.645669 -0.763779 0.000000 1.000000
tan 0.653543 -0.755905 0.000000 1.000000
tan 0.165354 0.000000 0.984252 1.000000
tan 0.165354 0.000000 0.984252 1.000000
tan 0.165354 0.000000 0.984252 1.000000
tan 0.165354 0.000000 0.984252 1.000000
tan 0.165354 0.000000 0.984252 1.000000
tan 0.165354 0.000000 0.984252 1.000000
tan 0.165354 0.000000 0.984252 1.000000
tan 0.165354 0.000000 0.984252 1.000000
tan 0.165354 0.000000 0.984252 1.000000
tan 0.165354 0.000000 0.984252 1.000000
tan 0.204724 0.000000 0.976378 1.000000
tan 0.204724 0.000000 0.976378 1.000000
tan 0.204724 0.000000 0.976378 1.000000
tan 0.204724 0.000000 0.976378 1.000000
tan 0.204724 0.000000 0.976378 1.000000
tan 0.204724 0.000000 0.976378 1.000000
tan 0.204724 0.000000 0.976378 1.000000
tan 0.204724 0.000000 0.976378 1.000000
tan 0.204724 0.000000 0.976378 1.000000
tan 0.204724 0.000000 0.976378 1.000000
tan 0.204724 0.000000 0.976378 1.000000
tan 0.204724 0.000000 0.976378 1.000000
tan 0.204724 0.000000 0.976378 1.000000
tan 0.204724 0.000000 0.976378 1.000000
tan 0.204724 0.000000 0.976378 1.000000
tan 0.204724 0.000000 0.976378 1.000000
tan 0.204724 0.000000 0.976378 1.000000
tan 0.000000 -1.000000 0.000000 1.000000
tan 0.000000 -1.000000 0.000000 1.000000
tan 0.000000 -0.908054 0.000000 1.000000
tan 0.000000 -0.896708 0.000000 1.000000
tan 0.000000 -0.900180 0.000000 1.000000
tan 0.000000 -0.915556 0.000000 1.000000
tan 0.000000 -0.992126 0.000000 1.000000
tan 0.000000 -0.984252 0.000000 1.000000
tan 0.000000 -0.969186 0.000000 1.000000
tan 0.000000 -0.969186 0.000000 1.000000
tan 0.000000 -0.950400 0.000000 1.000000
tan 0.000000 -0.976378 0.000000 1.000000
tan 0.000000 -0.908054 0.000000 1.000000
tan 0.000000 -0.896708 0.000000 1.000000
tan 0.000000 -0.900180 0.000000 1.000000
tan 0.000000 -0.915556 0.000000 1.000000
tan 0.000000 -0.992126 0.000000 1.000000
tan 0.000000 -0.935086 0.000000 1.000000
tan 0.000000 -0.930498 0.000000 1.000000
tan 0.000000 -0.915556 0.000000 1.000000
tan 0.000000 -1.000000 0.000000 1.000000
tan 0.000000 -1.000000 0.000000 1.000000
f 3/3/3 2/2/2 1/1/1
f 3/3/3 1/1/1 4/4/4
f 3/3/3 5/5/5 2/2/2
f 3/3/3 4/4/4 6/6/6
f 3/3/3 7/7/7 5/5/5
f 3/3/3 6/6/6 8/8/8
f 3/3/3 9/9/9 7/7/7
f 3/3/3 8/8/8 10/10/10
f 3/3/3 11/11/11 9/9/9
f 3/3/3 10/10/10 11/11/11
f 14/14/14 13/13/13 12/12/12
f 15/15/15 12/12/12 13/13/13
f 18/18/18 17/17/17 16/16/16
f 19/19/19 16/16/16 17/17/17
f 22/22/22 21/21/21 20/20/20
f 21/21/21 23/23/23 20/20/20
f 26/26/26 25/25/25 24/24/24
f 25/25/25 26/26/26 27/27/27
f 30/30/30 29/29/29 28/28/28
f 30/30/30 28/28/28 31/31/31
f 30/30/30 31/31/31 32/32/32
f 30/30/30 32/32/32 33/33/33
f 30/30/30 33/33/33 34/34/34
f 30/30/30 34/34/34 35/35/35
f 30/30/30 35/35/35 36/36/36
f 30/30/30 36/36/36 37/37/37
f 40/40/40 39/39/39 38/38/38
f 39/39/39 41/41/41 38/38/38
f 42/42/42 39/39/39 40/40/40
f 43/43/43 41/41/41 39/39/39
f 40/40/40 44/44/44 42/42/42
f 41/41/41 43/43/43 45/45/45
f 46/46/46 42/42/42 44/44/44
f 43/43/43 47/47/47 45/45/45
f 48/48/48 42/42/42 46/46/46
f 45/45/45 47/47/47 49/49/49
f 48/48/48 46/46/46 50/50/50
f 47/47/47 51/51/51 49/49/49
f 52/52/52 50/50/50 46/46/46
f 47/47/47 53/53/53 51/51/51
f 54/54/54 50/50/50 52/52/52
f 53/53/53 54/54/54 51/51/51
f 53/53/53 50/50/50 54/54/54
f 57/57/57 56/56/56 55/55/55
f 56/56/56 57/57/57 58/58/58
f 57/57/57 59/59/59 58/58/58
f 58/58/58 59/59/59 60/60/60
f 59/59/59 61/61/61 60/60/60
f 60/60/60 61/61/61 62/62/62
f 61/61/61 63/63/63 62/62/62
f 62/62/62 63/63/63 64/64/64
f 63/63/63 65/65/65 64/64/64
f 64/64/64 65/65/65 66/66/66
f 65/65/65 67/67/67 66/66/66
f 68/68/68 66/66/66 67/67/67
f 67/67/67 69/69/69 68/68/68
f 70/70/70 68/68/68 69/69/69
f 69/69/69 71/71/71 70/70/70
f 72/72/72 70/70/70 71/71/71
f 71/71/71 73/73/73 72/72/72
f 72/72/72 73/73/73 74/74/74
f 75/75/75 74/74/74 73/73/73
f 74/74/74 75/75/75 76/76/76
