mtllib SM_Mast_Roof_LOD2@000002909DC0A400.mtl
g SM_Mast_Roof_LOD2@000002909DC0A400
#Vertices 32
#Indices 117
#Section 0 Offset 0 NumIndices 117 MaterialIndex 0 MI_RoofTile_A_01
v 0.000002 0.000002 15.147113 0.000000 1.000000 0.000000 1.000000
v -0.071661 3.892231 14.855907 0.000000 1.000000 0.000000 1.000000
v 9.422060 -0.028915 12.288760 0.000000 1.000000 0.000000 1.000000
v 0.000000 8.038301 8.086009 0.000000 1.000000 0.000000 1.000000
v 3.682451 8.236630 7.678966 0.000000 1.000000 0.000000 1.000000
v 10.438812 3.217172 10.426611 0.000000 1.000000 0.000000 1.000000
v 15.346422 0.015942 2.423623 0.000000 1.000000 0.000000 1.000000
v 7.672928 8.310469 4.000318 0.000000 1.000000 0.000000 1.000000
v 14.641091 3.325635 2.222459 0.000000 1.000000 0.000000 1.000000
v 8.321874 8.240029 -1.418057 0.000000 1.000000 0.000000 1.000000
v 13.131122 3.276628 -6.681968 0.000000 1.000000 0.000000 1.000000
v 13.601428 -0.013027 -6.930279 0.000000 1.000000 0.000000 1.000000
v 5.356267 8.248886 -6.816987 0.000000 1.000000 0.000000 1.000000
v 7.341249 -0.003722 -13.604141 0.000000 1.000000 0.000000 1.000000
v 6.739653 3.292569 -13.240899 0.000000 1.000000 0.000000 1.000000
v -1.493975 8.367126 -8.535817 0.000000 1.000000 0.000000 1.000000
v -2.410507 0.019607 -15.237600 0.000000 1.000000 0.000000 1.000000
v -2.251989 3.460742 -14.326829 0.000000 1.000000 0.000000 1.000000
v -8.462887 3.474484 -11.648166 0.000000 1.000000 0.000000 1.000000
v -7.526093 8.217477 -4.355697 0.000000 1.000000 0.000000 1.000000
v -8.903249 -0.000001 -12.254272 0.000000 1.000000 0.000000 1.000000
v -13.102637 3.348325 -6.676569 0.000000 1.000000 0.000000 1.000000
v -13.601428 -0.013027 -6.930276 0.000000 1.000000 0.000000 1.000000
v -15.349991 0.016122 2.416610 0.000000 1.000000 0.000000 1.000000
v -14.572391 3.410488 2.408246 0.000000 1.000000 0.000000 1.000000
v -8.165608 8.284346 2.881609 0.000000 1.000000 0.000000 1.000000
v -10.428507 3.207658 10.431316 0.000000 1.000000 0.000000 1.000000
v -9.420984 -0.028986 12.289690 0.000000 1.000000 0.000000 1.000000
v -4.075893 8.284542 7.435107 0.000000 1.000000 0.000000 1.000000
v -0.071661 3.892231 14.855907 0.000000 1.000000 0.000000 1.000000
v 0.000002 0.000002 15.147113 0.000000 1.000000 0.000000 1.000000
v 0.000000 8.038301 8.086009 0.000000 1.000000 0.000000 1.000000
vt 7.199219 0.049805
vt 7.214844 0.471680
vt 6.253906 0.045898
vt 7.199219 1.494385
vt 6.546875 1.424316
vt 6.058594 0.389648
vt 5.117188 0.052246
vt 5.601562 1.418945
vt 5.121094 0.398926
vt 4.601562 1.430420
vt 4.136719 0.398926
vt 4.140625 0.048828
vt 3.490234 1.424316
vt 3.205078 0.049805
vt 3.181641 0.400879
vt 2.177734 1.432129
vt 2.183594 0.053711
vt 2.177734 0.425781
vt 1.451172 0.428223
vt 0.781250 1.413574
vt 1.451172 0.049805
vt 0.721191 0.410645
vt 0.723145 0.048828
vt -0.248047 0.051758
vt -0.277100 0.419922
vt -0.544922 1.430908
vt -1.207031 0.389648
vt -1.391602 0.045898
vt -1.608398 1.428711
vt -2.341797 0.464844
vt -2.330078 0.049805
vt -2.330078 1.494385
vt1 7.199219 0.049805
vt1 7.214844 0.471680
vt1 6.253906 0.045898
vt1 7.199219 1.494385
vt1 6.546875 1.424316
vt1 6.058594 0.389648
vt1 5.117188 0.052246
vt1 5.601562 1.418945
vt1 5.121094 0.398926
vt1 4.601562 1.430420
vt1 4.136719 0.398926
vt1 4.140625 0.048828
vt1 3.490234 1.424316
vt1 3.205078 0.049805
vt1 3.181641 0.400879
vt1 2.177734 1.432129
vt1 2.183594 0.053711
vt1 2.177734 0.425781
vt1 1.451172 0.428223
vt1 0.781250 1.413574
vt1 1.451172 0.049805
vt1 0.721191 0.410645
vt1 0.723145 0.048828
vt1 -0.248047 0.051758
vt1 -0.277100 0.419922
vt1 -0.544922 1.430908
vt1 -1.207031 0.389648
vt1 -1.391602 0.045898
vt1 -1.608398 1.428711
vt1 -2.341797 0.464844
vt1 -2.330078 0.049805
vt1 -2.330078 1.494385
vn 0.000000 0.212599 0.976378
vn 0.000000 0.480315 0.874016
vn 0.590551 0.204724 0.779527
vn 0.000000 0.881890 0.472441
vn 0.149606 0.937008 0.307086
vn 0.645669 0.385827 0.653543
vn 0.968504 0.204724 0.149606
vn 0.283465 0.944882 0.149606
vn 0.905512 0.401575 0.133858
vn 0.346457 0.937008 -0.047244
vn 0.818898 0.393701 -0.417323
vn 0.874016 0.204724 -0.440945
vn 0.204724 0.937008 -0.267717
vn 0.464567 0.204724 -0.858268
vn 0.417323 0.385827 -0.826772
vn -0.062992 0.944882 -0.314961
vn -0.149606 0.212598 -0.968504
vn -0.133858 0.417323 -0.897638
vn -0.535433 0.417323 -0.732283
vn -0.291339 0.937008 -0.181102
vn -0.574803 0.212598 -0.787401
vn -0.818898 0.401575 -0.417323
vn -0.874016 0.204724 -0.440945
vn -0.968504 0.204724 0.149606
vn -0.905512 0.401575 0.141732
vn -0.322835 0.937008 0.110236
vn -0.653543 0.385827 0.653543
vn -0.598425 0.204724 0.779527
vn -0.149606 0.944882 0.291338
vn -0.015748 0.496063 0.866142
vn 0.000000 0.212599 0.976378
vn 0.000000 0.881890 0.472441
tan 0.030752 -0.976378 0.212599 1.000000
tan 0.003100 -0.874016 0.480315 1.000000
tan 0.063178 -0.936512 0.198090 1.000000
tan 0.090768 -0.468721 0.874946 1.000000
tan 0.265609 -0.337405 0.900118 1.000000
tan 0.270383 -0.920764 0.276459 1.000000
tan 0.204724 -0.968504 0.000000 1.000000
tan 0.907682 -0.313535 0.260401 1.000000
tan 0.401575 -0.905512 0.000000 1.000000
tan 0.929630 -0.348937 -0.103292 1.000000
tan 0.393701 -0.848472 -0.027900 1.000000
tan 0.204724 -0.894848 -0.009672 1.000000
tan 0.486949 -0.336165 -0.804203 1.000000
tan 0.012896 -0.887532 -0.204724 1.000000
tan 0.027342 -0.856346 -0.385827 1.000000
tan -0.037200 -0.317441 -0.944882 1.000000
tan 0.000000 -0.968504 -0.212598 1.000000
tan -0.003286 -0.898692 -0.417323 1.000000
tan -0.177444 -0.890756 -0.377891 1.000000
tan -0.877984 -0.334305 -0.317255 1.000000
tan -0.080352 -0.948850 -0.197532 1.000000
tan -0.401575 -0.848472 -0.028458 1.000000
tan -0.204724 -0.894848 -0.009672 1.000000
tan -0.204724 -0.968504 0.000000 1.000000
tan -0.401575 -0.905512 0.000000 1.000000
tan -0.922252 -0.336847 0.162316 1.000000
tan -0.273421 -0.921136 0.270383 1.000000
tan -0.064790 -0.937752 0.196540 1.000000
tan -0.297601 -0.324695 0.900242 1.000000
tan 0.004898 -0.865770 0.495939 1.000000
tan -0.030752 -0.976378 0.212599 1.000000
tan -0.090768 -0.468721 0.874946 1.000000
f 3/3/3 2/2/2 1/1/1
f 2/2/2 5/5/5 4/4/4
f 2/2/2 3/3/3 6/6/6
f 6/6/6 5/5/5 2/2/2
f 6/6/6 3/3/3 7/7/7
f 5/5/5 6/6/6 8/8/8
f 9/9/9 8/8/8 6/6/6
f 6/6/6 7/7/7 9/9/9
f 10/10/10 8/8/8 9/9/9
f 9/9/9 7/7/7 11/11/11
f 11/11/11 10/10/10 9/9/9
f 12/12/12 11/11/11 7/7/7
f 10/10/10 11/11/11 13/13/13
f 11/11/11 12/12/12 14/14/14
f 11/11/11 15/15/15 13/13/13
f 14/14/14 15/15/15 11/11/11
f 13/13/13 15/15/15 16/16/16
f 14/14/14 17/17/17 15/15/15
f 18/18/18 16/16/16 15/15/15
f 17/17/17 18/18/18 15/15/15
f 19/19/19 16/16/16 18/18/18
f 18/18/18 17/17/17 19/19/19
f 16/16/16 19/19/19 20/20/20
f 21/21/21 19/19/19 17/17/17
f 19/19/19 21/21/21 22/22/22
f 22/22/22 20/20/20 19/19/19
f 23/23/23 22/22/22 21/21/21
f 23/23/23 24/24/24 22/22/22
f 22/22/22 25/25/25 20/20/20
f 25/25/25 22/22/22 24/24/24
f 26/26/26 20/20/20 25/25/25
f 25/25/25 24/24/24 27/27/27
f 27/27/27 26/26/26 25/25/25
f 28/28/28 27/27/27 24/24/24
f 26/26/26 27/27/27 29/29/29
f 30/30/30 27/27/27 28/28/28
f 30/30/30 29/29/29 27/27/27
f 31/31/31 30/30/30 28/28/28
f 30/30/30 32/32/32 29/29/29
