mtllib SM_Mast_Roof_LOD3@000002909DC0A400.mtl
g SM_Mast_Roof_LOD3@000002909DC0A400
#Vertices 20
#Indices 60
#Section 0 Offset 0 NumIndices 60 MaterialIndex 0 MI_RoofTile_A_01
v -11.228764 1.183029 11.746172 0.000000 1.000000 0.000000 1.000000
v -0.071661 3.892231 14.855907 0.000000 1.000000 0.000000 1.000000
v 0.000002 0.000002 15.147113 0.000000 1.000000 0.000000 1.000000
v -0.667813 8.306351 8.789036 0.000000 1.000000 0.000000 1.000000
v -8.165608 8.284346 2.881609 0.000000 1.000000 0.000000 1.000000
v -16.244215 1.075277 1.584318 0.000000 1.000000 0.000000 1.000000
v -7.526093 8.217477 -4.355697 0.000000 1.000000 0.000000 1.000000
v -13.641633 0.864384 -8.696273 0.000000 1.000000 0.000000 1.000000
v -4.777460 3.799522 -13.853004 0.000000 1.000000 0.000000 1.000000
v -2.410507 0.019607 -15.237600 0.000000 1.000000 0.000000 1.000000
v -1.493975 8.367126 -8.535817 0.000000 1.000000 0.000000 1.000000
v 6.739653 3.292569 -13.240899 0.000000 1.000000 0.000000 1.000000
v 12.467280 0.590662 -10.876499 0.000000 1.000000 0.000000 1.000000
v 7.746095 8.279553 -4.796381 0.000000 1.000000 0.000000 1.000000
v 16.258087 1.241126 2.268860 0.000000 1.000000 0.000000 1.000000
v 6.581561 8.371968 5.982247 0.000000 1.000000 0.000000 1.000000
v 10.555691 0.859330 12.111321 0.000000 1.000000 0.000000 1.000000
v -0.071661 3.892231 14.855907 0.000000 1.000000 0.000000 1.000000
v 0.000002 0.000002 15.147113 0.000000 1.000000 0.000000 1.000000
v -0.667813 8.306351 8.789036 0.000000 1.000000 0.000000 1.000000
vt -1.244141 0.106934
vt -2.341797 0.464844
vt -2.330078 0.049805
vt -2.111328 1.470947
vt -0.544922 1.430908
vt -0.174316 0.098633
vt 0.781250 1.413574
vt 0.883789 0.101074
vt 1.947266 0.479004
vt 2.183594 0.053711
vt 2.177734 1.432129
vt 3.181641 0.400879
vt 3.744141 0.061523
vt 4.019531 1.438721
vt 5.097656 0.099121
vt 6.007812 1.440430
vt 6.167969 0.092773
vt 7.214844 0.471680
vt 7.199219 0.049805
vt 7.332031 1.469238
vt1 -1.244141 0.106934
vt1 -2.341797 0.464844
vt1 -2.330078 0.049805
vt1 -2.111328 1.470947
vt1 -0.544922 1.430908
vt1 -0.174316 0.098633
vt1 0.781250 1.413574
vt1 0.883789 0.101074
vt1 1.947266 0.479004
vt1 2.183594 0.053711
vt1 2.177734 1.432129
vt1 3.181641 0.400879
vt1 3.744141 0.061523
vt1 4.019531 1.438721
vt1 5.097656 0.099121
vt1 6.007812 1.440430
vt1 6.167969 0.092773
vt1 7.214844 0.471680
vt1 7.199219 0.049805
vt1 7.332031 1.469238
vn -0.677165 0.228347 0.700787
vn -0.015748 0.496063 0.866142
vn 0.000000 0.212599 0.976378
vn 0.015748 0.921260 0.377953
vn -0.322835 0.937008 0.110236
vn -0.976378 0.212598 0.086614
vn -0.291339 0.937008 -0.181102
vn -0.826772 0.220472 -0.519685
vn -0.299213 0.440945 -0.842520
vn -0.149606 0.212598 -0.968504
vn -0.062992 0.944882 -0.314961
vn 0.417323 0.385827 -0.826772
vn 0.740157 0.196850 -0.645669
vn 0.314961 0.929134 -0.188976
vn 0.968504 0.228346 0.133858
vn 0.251969 0.944882 0.220472
vn 0.637795 0.220472 0.732283
vn 0.000000 0.480315 0.874016
vn 0.000000 0.212599 0.976378
vn -0.031496 0.858268 0.511811
tan -0.129332 -0.962738 0.188728 1.000000
tan 0.004898 -0.865770 0.495939 1.000000
tan -0.030752 -0.976378 0.212599 1.000000
tan -0.036270 -0.377333 0.921260 1.000000
tan -0.922252 -0.336847 0.162316 1.000000
tan -0.212598 -0.976378 0.000000 1.000000
tan -0.877984 -0.334305 -0.317255 1.000000
tan -0.220472 -0.859508 -0.013888 1.000000
tan -0.006944 -0.847232 -0.440945 1.000000
tan 0.000000 -0.968504 -0.212598 1.000000
tan -0.037200 -0.317441 -0.944882 1.000000
tan 0.027342 -0.856346 -0.385827 1.000000
tan 0.184450 -0.922314 -0.069750 1.000000
tan 0.834026 -0.366049 -0.409697 1.000000
tan 0.228346 -0.968504 0.000000 1.000000
tan 0.706801 -0.336041 0.632401 1.000000
tan 0.091450 -0.938558 0.202926 1.000000
tan 0.003100 -0.874016 0.480315 1.000000
tan 0.030752 -0.976378 0.212599 1.000000
tan 0.017546 -0.511315 0.858516 1.000000
f 3/3/3 2/2/2 1/1/1
f 2/2/2 4/4/4 1/1/1
f 5/5/5 1/1/1 4/4/4
f 1/1/1 5/5/5 6/6/6
f 5/5/5 7/7/7 6/6/6
f 8/8/8 6/6/6 7/7/7
f 8/8/8 7/7/7 9/9/9
f 8/8/8 9/9/9 10/10/10
f 11/11/11 9/9/9 7/7/7
f 10/10/10 9/9/9 12/12/12
f 9/9/9 11/11/11 12/12/12
f 13/13/13 10/10/10 12/12/12
f 14/14/14 12/12/12 11/11/11
f 13/13/13 12/12/12 14/14/14
f 13/13/13 14/14/14 15/15/15
f 14/14/14 16/16/16 15/15/15
f 15/15/15 16/16/16 17/17/17
f 17/17/17 16/16/16 18/18/18
f 17/17/17 18/18/18 19/19/19
f 18/18/18 16/16/16 20/20/20
