mtllib SM_Mast_LOD3@000002909DC05600.mtl
g SM_Mast_LOD3@000002909DC05600
#Vertices 82
#Indices 240
#Section 0 Offset 0 NumIndices 240 MaterialIndex 0 MI_Wood
v 0.000001 0.000009 9.847055 0.000000 0.000000 1.000000 1.000000
v 0.000001 157.230377 4.281184 0.000000 0.000000 1.000000 1.000000
v 0.519772 157.230408 4.254658 0.000000 0.000000 1.000000 1.000000
v 1.157261 0.000044 9.786102 0.000000 0.000000 1.000000 1.000000
v 2.680023 0.000094 9.491118 0.000000 0.000000 1.000000 1.000000
v 1.168203 157.230301 4.119645 0.000000 0.000000 1.000000 1.000000
v 1.796547 157.230392 3.892302 0.000000 0.000000 1.000000 1.000000
v 4.124684 0.000045 8.949528 0.000000 0.000000 1.000000 1.000000
v 5.480823 0.000096 8.199112 0.000000 0.000000 1.000000 1.000000
v 2.384854 157.230301 3.556508 0.000000 0.000000 1.000000 1.000000
v 2.912109 157.230392 3.146167 0.000000 0.000000 1.000000 1.000000
v 6.688279 0.000045 7.237000 0.000000 0.000000 1.000000 1.000000
v 7.487490 0.000001 6.395106 0.000000 0.000000 1.000000 1.000000
v 3.515967 157.230377 2.458795 0.000000 0.000000 1.000000 1.000000
v 8.192201 0.000046 5.477286 0.000000 0.000000 1.000000 1.000000
v 8.939810 0.000071 4.161013 0.000000 0.000000 1.000000 1.000000
v 3.911397 157.230347 1.746451 0.000000 0.000000 1.000000 1.000000
v 9.473295 0.000102 2.720660 0.000000 0.000000 1.000000 1.000000
v 4.134303 157.230347 1.126436 0.000000 0.000000 1.000000 1.000000
v 9.725392 0.000001 1.540679 0.000000 0.000000 1.000000 1.000000
v 4.286149 157.230347 0.219644 0.000000 0.000000 1.000000 1.000000
v 9.845858 -0.000015 0.386732 0.000000 0.000000 1.000000 1.000000
v 9.816489 0.000001 -0.772253 0.000000 0.000000 1.000000 1.000000
v 4.218888 157.230392 -0.771131 0.000000 0.000000 1.000000 1.000000
v 9.664792 0.000043 -1.923240 0.000000 0.000000 1.000000 1.000000
v 9.365176 0.000001 -3.042692 0.000000 0.000000 1.000000 1.000000
v 4.015915 157.230301 -1.486211 0.000000 0.000000 1.000000 1.000000
v 8.948398 -0.000020 -4.124321 0.000000 0.000000 1.000000 1.000000
v 3.671537 157.230316 -2.215280 0.000000 0.000000 1.000000 1.000000
v 8.195639 0.000037 -5.483427 0.000000 0.000000 1.000000 1.000000
v 3.146172 157.230392 -2.912139 0.000000 0.000000 1.000000 1.000000
v 7.236998 0.000043 -6.688275 0.000000 0.000000 1.000000 1.000000
v 6.395107 -0.000000 -7.487482 0.000000 0.000000 1.000000 1.000000
v 2.458797 157.230377 -3.515997 0.000000 0.000000 1.000000 1.000000
v 5.477302 0.000044 -8.192185 0.000000 0.000000 1.000000 1.000000
v 4.160882 0.000069 -8.939874 0.000000 0.000000 1.000000 1.000000
v 1.746337 157.230347 -3.911473 0.000000 0.000000 1.000000 1.000000
v 2.720001 0.000101 -9.473494 0.000000 0.000000 1.000000 1.000000
v 0.816747 157.230255 -4.211143 0.000000 0.000000 1.000000 1.000000
v 1.152537 0.000102 -9.794988 0.000000 0.000000 1.000000 1.000000
v -0.255274 157.230377 -4.282175 0.000000 0.000000 1.000000 1.000000
v -0.384235 0.000044 -9.847084 0.000000 0.000000 1.000000 1.000000
v -1.540683 -0.000000 -9.725392 0.000000 0.000000 1.000000 1.000000
v -1.126443 157.230347 -4.134324 0.000000 0.000000 1.000000 1.000000
v -2.720649 0.000101 -9.473297 0.000000 0.000000 1.000000 1.000000
v -1.746472 157.230347 -3.911413 0.000000 0.000000 1.000000 1.000000
v -4.161003 0.000069 -8.939811 0.000000 0.000000 1.000000 1.000000
v -2.458816 157.230377 -3.515983 0.000000 0.000000 1.000000 1.000000
v -5.477291 0.000044 -8.192192 0.000000 0.000000 1.000000 1.000000
v -6.395105 -0.000000 -7.487484 0.000000 0.000000 1.000000 1.000000
v -3.146172 157.230392 -2.912139 0.000000 0.000000 1.000000 1.000000
v -7.237001 0.000043 -6.688275 0.000000 0.000000 1.000000 1.000000
v -8.195642 0.000037 -5.483425 0.000000 0.000000 1.000000 1.000000
v -3.671535 157.230316 -2.215283 0.000000 0.000000 1.000000 1.000000
v -8.948402 -0.000020 -4.124313 0.000000 0.000000 1.000000 1.000000
v -4.015914 157.230301 -1.486213 0.000000 0.000000 1.000000 1.000000
v -9.365178 0.000001 -3.042689 0.000000 0.000000 1.000000 1.000000
v -4.218889 157.230392 -0.771126 0.000000 0.000000 1.000000 1.000000
v -9.664795 0.000043 -1.923228 0.000000 0.000000 1.000000 1.000000
v -9.816489 0.000001 -0.772253 0.000000 0.000000 1.000000 1.000000
v -4.286148 157.230347 0.219646 0.000000 0.000000 1.000000 1.000000
v -9.845856 -0.000015 0.386739 0.000000 0.000000 1.000000 1.000000
v -9.725389 0.000001 1.540682 0.000000 0.000000 1.000000 1.000000
v -4.134301 157.230347 1.126436 0.000000 0.000000 1.000000 1.000000
v -9.473294 0.000102 2.720651 0.000000 0.000000 1.000000 1.000000
v -3.911396 157.230347 1.746450 0.000000 0.000000 1.000000 1.000000
v -8.939795 0.000071 4.161037 0.000000 0.000000 1.000000 1.000000
v -3.515706 157.230377 2.459209 0.000000 0.000000 1.000000 1.000000
v -8.192198 0.000046 5.477275 0.000000 0.000000 1.000000 1.000000
v -7.487485 0.000001 6.395100 0.000000 0.000000 1.000000 1.000000
v -2.909098 157.230377 3.149199 0.000000 0.000000 1.000000 1.000000
v -6.688279 0.000045 7.236992 0.000000 0.000000 1.000000 1.000000
v -5.787953 0.000001 7.966433 0.000000 0.000000 1.000000 1.000000
v -2.175107 157.230377 3.698157 0.000000 0.000000 1.000000 1.000000
v -4.815996 0.000046 8.597283 0.000000 0.000000 1.000000 1.000000
v -3.500106 0.000070 9.215671 0.000000 0.000000 1.000000 1.000000
v -1.422075 157.230331 4.041137 0.000000 0.000000 1.000000 1.000000
v -2.299076 0.000002 9.574656 0.000000 0.000000 1.000000 1.000000
v -0.609279 157.230423 4.245095 0.000000 0.000000 1.000000 1.000000
v -1.157485 0.000045 9.786074 0.000000 0.000000 1.000000 1.000000
v 0.000001 0.000009 9.847055 0.000000 0.000000 1.000000 1.000000
v 0.000001 157.230377 4.281184 0.000000 0.000000 1.000000 1.000000
vt 4.390625 -9.210938
vt 2.421875 10.343750
vt 2.357422 10.343750
vt 4.242188 -9.226562
vt 4.046875 -9.242188
vt 2.273438 10.335938
vt 2.189453 10.328125
vt 3.855469 -9.265625
vt 3.660156 -9.281250
vt 2.103516 10.320312
vt 2.019531 10.312500
vt 3.464844 -9.296875
vt 3.318359 -9.304688
vt 1.905273 10.304688
vt 3.171875 -9.312500
vt 2.982422 -9.328125
vt 1.801758 10.296875
vt 2.787109 -9.335938
vt 1.718750 10.289062
vt 2.634766 -9.343750
vt 1.602539 10.289062
vt 2.488281 -9.351562
vt 2.341797 -9.359375
vt 1.477539 10.281250
vt 2.195312 -9.367188
vt 2.048828 -9.367188
vt 1.383789 10.281250
vt 1.903320 -9.375000
vt 1.281250 10.273438
vt 1.707031 -9.375000
vt 1.170898 10.273438
vt 1.512695 -9.382812
vt 1.365234 -9.382812
vt 1.055664 10.273438
vt 1.219727 -9.382812
vt 1.028320 -9.390625
vt 0.952637 10.273438
vt 0.833984 -9.390625
vt 0.829102 10.273438
vt 0.631836 -9.382812
vt 0.693359 10.273438
vt 0.437500 -9.382812
vt 0.290527 -9.382812
vt 0.581543 10.273438
vt 0.137939 -9.382812
vt 0.498291 10.273438
vt -0.056000 -9.375000
vt 0.395264 10.281250
vt -0.247192 -9.367188
vt -0.393311 -9.359375
vt 0.279785 10.281250
vt -0.540039 -9.359375
vt -0.734375 -9.351562
vt 0.169556 10.289062
vt -0.930664 -9.335938
vt 0.067688 10.296875
vt -1.077148 -9.328125
vt -0.026093 10.296875
vt -1.222656 -9.320312
vt -1.369141 -9.312500
vt -0.151367 10.304688
vt -1.515625 -9.304688
vt -1.662109 -9.289062
vt -0.267334 10.320312
vt -1.814453 -9.281250
vt -0.350342 10.320312
vt -2.007812 -9.265625
vt -0.452881 10.335938
vt -2.197266 -9.250000
vt -2.343750 -9.234375
vt -0.568359 10.343750
vt -2.490234 -9.218750
vt -2.634766 -9.203125
vt -0.683594 10.351562
vt -2.781250 -9.187500
vt -2.962891 -9.171875
vt -0.787598 10.367188
vt -3.121094 -9.156250
vt -0.893066 10.375000
vt -3.267578 -9.132812
vt -3.412109 -9.117188
vt -0.969727 10.390625
vt1 4.390625 -9.210938
vt1 2.421875 10.343750
vt1 2.357422 10.343750
vt1 4.242188 -9.226562
vt1 4.046875 -9.242188
vt1 2.273438 10.335938
vt1 2.189453 10.328125
vt1 3.855469 -9.265625
vt1 3.660156 -9.281250
vt1 2.103516 10.320312
vt1 2.019531 10.312500
vt1 3.464844 -9.296875
vt1 3.318359 -9.304688
vt1 1.905273 10.304688
vt1 3.171875 -9.312500
vt1 2.982422 -9.328125
vt1 1.801758 10.296875
vt1 2.787109 -9.335938
vt1 1.718750 10.289062
vt1 2.634766 -9.343750
vt1 1.602539 10.289062
vt1 2.488281 -9.351562
vt1 2.341797 -9.359375
vt1 1.477539 10.281250
vt1 2.195312 -9.367188
vt1 2.048828 -9.367188
vt1 1.383789 10.281250
vt1 1.903320 -9.375000
vt1 1.281250 10.273438
vt1 1.707031 -9.375000
vt1 1.170898 10.273438
vt1 1.512695 -9.382812
vt1 1.365234 -9.382812
vt1 1.055664 10.273438
vt1 1.219727 -9.382812
vt1 1.028320 -9.390625
vt1 0.952637 10.273438
vt1 0.833984 -9.390625
vt1 0.829102 10.273438
vt1 0.631836 -9.382812
vt1 0.693359 10.273438
vt1 0.437500 -9.382812
vt1 0.290527 -9.382812
vt1 0.581543 10.273438
vt1 0.137939 -9.382812
vt1 0.498291 10.273438
vt1 -0.056000 -9.375000
vt1 0.395264 10.281250
vt1 -0.247192 -9.367188
vt1 -0.393311 -9.359375
vt1 0.279785 10.281250
vt1 -0.540039 -9.359375
vt1 -0.734375 -9.351562
vt1 0.169556 10.289062
vt1 -0.930664 -9.335938
vt1 0.067688 10.296875
vt1 -1.077148 -9.328125
vt1 -0.026093 10.296875
vt1 -1.222656 -9.320312
vt1 -1.369141 -9.312500
vt1 -0.151367 10.304688
vt1 -1.515625 -9.304688
vt1 -1.662109 -9.289062
vt1 -0.267334 10.320312
vt1 -1.814453 -9.281250
vt1 -0.350342 10.320312
vt1 -2.007812 -9.265625
vt1 -0.452881 10.335938
vt1 -2.197266 -9.250000
vt1 -2.343750 -9.234375
vt1 -0.568359 10.343750
vt1 -2.490234 -9.218750
vt1 -2.634766 -9.203125
vt1 -0.683594 10.351562
vt1 -2.781250 -9.187500
vt1 -2.962891 -9.171875
vt1 -0.787598 10.367188
vt1 -3.121094 -9.156250
vt1 -0.893066 10.375000
vt1 -3.267578 -9.132812
vt1 -3.412109 -9.117188
vt1 -0.969727 10.390625
vn 0.000000 0.031496 1.000000
vn 0.000000 0.031496 1.000000
vn 0.118110 0.031496 0.992126
vn 0.118110 0.031496 0.992126
vn 0.275591 0.031496 0.960630
vn 0.275591 0.031496 0.960630
vn 0.417323 0.031496 0.905512
vn 0.417323 0.031496 0.905512
vn 0.559055 0.031496 0.826772
vn 0.559055 0.031496 0.826772
vn 0.677165 0.031496 0.732283
vn 0.677165 0.031496 0.732283
vn 0.763780 0.031496 0.645669
vn 0.818898 0.031496 0.574803
vn 0.834646 0.031496 0.551181
vn 0.913386 0.031496 0.409449
vn 0.913386 0.031496 0.409449
vn 0.960630 0.031496 0.267716
vn 0.960630 0.031496 0.259842
vn 0.984252 0.031496 0.149606
vn 1.000000 0.031496 0.055118
vn 1.000000 0.031496 0.031496
vn 1.000000 0.031496 -0.078740
vn 0.984252 0.031496 -0.188976
vn 0.984252 0.031496 -0.196850
vn 0.952756 0.031496 -0.314961
vn 0.937008 0.031496 -0.354331
vn 0.905512 0.031496 -0.425197
vn 0.858268 0.031496 -0.511811
vn 0.834646 0.031496 -0.551181
vn 0.732283 0.031496 -0.677165
vn 0.732283 0.031496 -0.677165
vn 0.645669 0.031496 -0.763779
vn 0.574803 0.031496 -0.818897
vn 0.551181 0.031496 -0.834646
vn 0.409449 0.031496 -0.913386
vn 0.409449 0.031496 -0.913386
vn 0.267717 0.031496 -0.960630
vn 0.204724 0.031496 -0.976378
vn 0.118110 0.031496 -0.992126
vn -0.055118 0.031496 -1.000000
vn -0.039370 0.031496 -1.000000
vn -0.149606 0.031496 -0.984252
vn -0.259843 0.031496 -0.960630
vn -0.267717 0.031496 -0.960630
vn -0.409449 0.031496 -0.913386
vn -0.409449 0.031496 -0.913386
vn -0.574803 0.031496 -0.818897
vn -0.551181 0.031496 -0.834646
vn -0.645669 0.031496 -0.763779
vn -0.732283 0.031496 -0.677165
vn -0.732283 0.031496 -0.677165
vn -0.834646 0.031496 -0.551181
vn -0.858268 0.031496 -0.511811
vn -0.905512 0.031496 -0.425197
vn -0.937008 0.031496 -0.354331
vn -0.952756 0.031496 -0.314961
vn -0.984252 0.031496 -0.188976
vn -0.984252 0.031496 -0.196850
vn -1.000000 0.031496 -0.078740
vn -1.000000 0.031496 0.055118
vn -1.000000 0.031496 0.031496
vn -0.984252 0.031496 0.149606
vn -0.960630 0.031496 0.259842
vn -0.960630 0.031496 0.267716
vn -0.913386 0.031496 0.409449
vn -0.913386 0.031496 0.409449
vn -0.818898 0.031496 0.574803
vn -0.834646 0.031496 0.551181
vn -0.763780 0.031496 0.645669
vn -0.677165 0.031496 0.740157
vn -0.677165 0.031496 0.732283
vn -0.590551 0.031496 0.811023
vn -0.511811 0.031496 0.858268
vn -0.488189 0.031496 0.874016
vn -0.346457 0.031496 0.937008
vn -0.330709 0.031496 0.944882
vn -0.228346 0.031496 0.976378
vn -0.141732 0.031496 0.992126
vn -0.118110 0.031496 0.992126
vn 0.000000 0.031496 1.000000
vn -0.007874 0.031496 1.000000
tan 0.094488 -0.992126 0.031248 1.000000
tan 0.094488 -0.992126 0.031248 1.000000
tan 0.101556 -0.984314 0.019158 1.000000
tan 0.093744 -0.984314 0.020088 1.000000
tan 0.105896 -0.953066 0.000868 1.000000
tan 0.128588 -0.953066 -0.005642 1.000000
tan 0.206770 -0.884122 -0.064542 1.000000
tan 0.114824 -0.908240 -0.021328 1.000000
tan 0.171988 -0.855664 -0.083700 1.000000
tan 0.346023 -0.766259 -0.204786 1.000000
tan 0.533635 -0.653233 -0.465373 1.000000
tan 0.367103 -0.861058 -0.302437 1.000000
tan 0.261393 -0.870916 -0.266724 1.000000
tan 0.184140 -0.818340 -0.217496 1.000000
tan 0.182156 -0.819146 -0.229028 1.000000
tan 0.076384 -0.906194 -0.100688 1.000000
tan 0.076384 -0.909418 -0.100440 1.000000
tan 0.050468 -0.960630 -0.068076 1.000000
tan 0.047864 -0.960630 -0.060512 1.000000
tan 0.039742 -0.984252 -0.054250 1.000000
tan 0.034100 -1.000000 -0.047244 1.000000
tan 0.032984 -1.000000 -0.047244 1.000000
tan 0.028396 -1.000000 -0.039370 1.000000
tan 0.022568 -0.984252 -0.046500 1.000000
tan 0.023746 -0.984252 -0.038750 1.000000
tan 0.016616 -0.952756 -0.045012 1.000000
tan 0.011966 -0.937008 -0.051646 1.000000
tan 0.014756 -0.915556 -0.036394 1.000000
tan -0.037262 -0.851510 -0.114886 1.000000
tan 0.005208 -0.875814 -0.042160 1.000000
tan -0.147932 -0.902164 -0.201934 1.000000
tan -0.054188 -0.978238 -0.104098 1.000000
tan -0.049476 -0.934280 -0.080352 1.000000
tan -0.024056 -0.850580 -0.049600 1.000000
tan -0.025296 -0.852006 -0.048856 1.000000
tan -0.007192 -0.913386 -0.034720 1.000000
tan -0.006944 -0.916610 -0.034720 1.000000
tan 0.007564 -0.960630 -0.029388 1.000000
tan 0.007688 -0.976378 -0.029884 1.000000
tan 0.007812 -0.992126 -0.030566 1.000000
tan 0.015748 -1.000000 -0.032364 1.000000
tan 0.015748 -1.000000 -0.032116 1.000000
tan 0.015500 -0.984252 -0.033852 1.000000
tan 0.022692 -0.960630 -0.037634 1.000000
tan 0.022692 -0.960630 -0.037820 1.000000
tan 0.042904 -0.916610 -0.050840 1.000000
tan 0.050344 -0.913386 -0.054064 1.000000
tan 0.107880 -0.844132 -0.108190 1.000000
tan 0.117304 -0.845434 -0.109368 1.000000
tan 0.145948 -0.917168 -0.161200 1.000000
tan 0.327113 -0.805878 -0.391221 1.000000
tan 0.177816 -0.939178 -0.235972 1.000000
tan 0.020832 -0.875814 -0.081592 1.000000
tan 0.102486 -0.831236 -0.223014 1.000000
tan 0.001984 -0.915556 -0.072044 1.000000
tan 0.005022 -0.929630 -0.095914 1.000000
tan -0.006696 -0.952756 -0.075020 1.000000
tan -0.018104 -0.984252 -0.069750 1.000000
tan -0.017546 -0.984252 -0.069750 1.000000
tan -0.026536 -1.000000 -0.062992 1.000000
tan -0.035402 -1.000000 -0.070866 1.000000
tan -0.033728 -1.000000 -0.070866 1.000000
tan -0.043276 -0.984252 -0.077500 1.000000
tan -0.055800 -0.953066 -0.090768 1.000000
tan -0.058652 -0.953066 -0.098332 1.000000
tan -0.092504 -0.909418 -0.136400 1.000000
tan -0.095480 -0.899002 -0.143840 1.000000
tan -0.237460 -0.792547 -0.294872 1.000000
tan -0.233244 -0.792858 -0.307893 1.000000
tan -0.321161 -0.835762 -0.339141 1.000000
tan -0.602393 -0.566929 -0.527001 1.000000
tan -0.446587 -0.794035 -0.378821 1.000000
tan -0.158038 -0.956414 -0.077934 1.000000
tan -0.358175 -0.777171 -0.185070 1.000000
tan -0.295927 -0.825842 -0.135532 1.000000
tan -0.147560 -0.922252 -0.023560 1.000000
tan -0.148800 -0.930002 -0.021080 1.000000
tan -0.138384 -0.968690 -0.001116 1.000000
tan -0.124992 -0.984314 0.013392 1.000000
tan -0.124992 -0.984314 0.016368 1.000000
tan -0.118110 -0.992126 0.031248 1.000000
tan -0.118110 -0.992126 0.030318 1.000000
f 3/3/3 2/2/2 1/1/1
f 1/1/1 4/4/4 3/3/3
f 5/5/5 3/3/3 4/4/4
f 3/3/3 5/5/5 6/6/6
f 7/7/7 6/6/6 5/5/5
f 5/5/5 8/8/8 7/7/7
f 9/9/9 7/7/7 8/8/8
f 7/7/7 9/9/9 10/10/10
f 11/11/11 10/10/10 9/9/9
f 9/9/9 12/12/12 11/11/11
f 12/12/12 13/13/13 11/11/11
f 14/14/14 11/11/11 13/13/13
f 13/13/13 15/15/15 14/14/14
f 15/15/15 16/16/16 14/14/14
f 17/17/17 14/14/14 16/16/16
f 16/16/16 18/18/18 17/17/17
f 19/19/19 17/17/17 18/18/18
f 18/18/18 20/20/20 19/19/19
f 21/21/21 19/19/19 20/20/20
f 20/20/20 22/22/22 21/21/21
f 21/21/21 22/22/22 23/23/23
f 21/21/21 23/23/23 24/24/24
f 23/23/23 25/25/25 24/24/24
f 24/24/24 25/25/25 26/26/26
f 24/24/24 26/26/26 27/27/27
f 26/26/26 28/28/28 27/27/27
f 27/27/27 28/28/28 29/29/29
f 29/29/29 28/28/28 30/30/30
f 29/29/29 30/30/30 31/31/31
f 30/30/30 32/32/32 31/31/31
f 32/32/32 33/33/33 31/31/31
f 34/34/34 31/31/31 33/33/33
f 33/33/33 35/35/35 34/34/34
f 35/35/35 36/36/36 34/34/34
f 37/37/37 34/34/34 36/36/36
f 36/36/36 38/38/38 37/37/37
f 39/39/39 37/37/37 38/38/38
f 38/38/38 40/40/40 39/39/39
f 40/40/40 41/41/41 39/39/39
f 41/41/41 40/40/40 42/42/42
f 43/43/43 41/41/41 42/42/42
f 41/41/41 43/43/43 44/44/44
f 45/45/45 44/44/44 43/43/43
f 44/44/44 45/45/45 46/46/46
f 47/47/47 46/46/46 45/45/45
f 46/46/46 47/47/47 48/48/48
f 49/49/49 48/48/48 47/47/47
f 50/50/50 48/48/48 49/49/49
f 48/48/48 50/50/50 51/51/51
f 52/52/52 51/51/51 50/50/50
f 52/52/52 53/53/53 51/51/51
f 54/54/54 51/51/51 53/53/53
f 54/54/54 53/53/53 55/55/55
f 56/56/56 54/54/54 55/55/55
f 55/55/55 57/57/57 56/56/56
f 57/57/57 58/58/58 56/56/56
f 58/58/58 57/57/57 59/59/59
f 59/59/59 60/60/60 58/58/58
f 60/60/60 61/61/61 58/58/58
f 61/61/61 60/60/60 62/62/62
f 63/63/63 61/61/61 62/62/62
f 64/64/64 61/61/61 63/63/63
f 65/65/65 64/64/64 63/63/63
f 66/66/66 64/64/64 65/65/65
f 65/65/65 67/67/67 66/66/66
f 68/68/68 66/66/66 67/67/67
f 67/67/67 69/69/69 68/68/68
f 69/69/69 70/70/70 68/68/68
f 71/71/71 68/68/68 70/70/70
f 70/70/70 72/72/72 71/71/71
f 72/72/72 73/73/73 71/71/71
f 74/74/74 71/71/71 73/73/73
f 73/73/73 75/75/75 74/74/74
f 75/75/75 76/76/76 74/74/74
f 77/77/77 74/74/74 76/76/76
f 76/76/76 78/78/78 77/77/77
f 79/79/79 77/77/77 78/78/78
f 78/78/78 80/80/80 79/79/79
f 80/80/80 81/81/81 79/79/79
f 82/82/82 79/79/79 81/81/81
