mtllib SM_Mansion_Tower_Base_LOD3@000002909DC43200.mtl
g SM_Mansion_Tower_Base_LOD3@000002909DC43200
#Vertices 39
#Indices 48
#Section 0 Offset 0 NumIndices 6 MaterialIndex 0 MI_FloorTile_A_01
#Section 1 Offset 6 NumIndices 30 MaterialIndex 1 MI_ConcreteTile_01
#Section 2 Offset 36 NumIndices 12 MaterialIndex 3 MI_ConcreteTrim_A_01
v -7.791206 0.912597 -8.073956 0.000000 0.000000 1.000000 1.000000
v 7.462519 0.812848 -7.594531 0.000000 0.000000 1.000000 1.000000
v -7.709659 0.677763 7.664680 0.000000 1.000000 0.000000 1.000000
v 7.109406 0.695387 7.075500 0.000000 0.000000 1.000000 1.000000
v -7.709659 0.677763 7.664680 0.000000 1.000000 0.000000 1.000000
v 7.109406 0.695387 7.075500 0.000000 0.000000 1.000000 1.000000
v 8.434079 1.510683 8.443391 0.000000 0.000000 1.000000 1.000000
v 7.462519 0.812848 -7.594531 0.000000 0.000000 1.000000 1.000000
v 8.434079 1.510683 8.443391 0.000000 0.000000 1.000000 1.000000
v 7.109406 0.695387 7.075500 0.000000 0.000000 1.000000 1.000000
v -7.709659 0.677763 7.664680 0.000000 1.000000 0.000000 1.000000
v 8.186302 0.054654 8.352860 0.000000 1.000000 0.000000 1.000000
v -8.846331 -0.044052 8.902480 0.000000 1.000000 0.000000 1.000000
v -8.846331 -0.044052 8.902480 0.000000 1.000000 0.000000 1.000000
v -7.564373 0.572233 -7.434489 0.000000 0.000000 1.000000 1.000000
v -7.709659 0.677763 7.664680 0.000000 1.000000 0.000000 1.000000
v -8.907434 -0.070509 -8.920320 0.000000 1.000000 0.000000 1.000000
v -7.564373 0.572233 -7.434489 0.000000 0.000000 1.000000 1.000000
v 8.845336 -0.064986 -8.817211 0.000000 1.000000 0.000000 1.000000
v 8.845336 -0.064986 -8.817211 0.000000 1.000000 0.000000 1.000000
v 8.186302 0.054654 8.352860 0.000000 1.000000 0.000000 1.000000
v 7.462519 0.812848 -7.594531 0.000000 0.000000 1.000000 1.000000
v -7.564373 0.572233 -7.434489 0.000000 0.000000 1.000000 1.000000
v -8.907434 -0.070509 -8.920320 0.000000 1.000000 0.000000 1.000000
v -8.846331 -0.044052 8.902480 0.000000 1.000000 0.000000 1.000000
v 8.845336 -0.064986 -8.817211 0.000000 1.000000 0.000000 1.000000
v 8.186302 0.054654 8.352860 0.000000 1.000000 0.000000 1.000000
v 8.186302 0.054654 8.352860 0.000000 1.000000 0.000000 1.000000
v -7.709659 0.677763 7.664680 0.000000 1.000000 0.000000 1.000000
v 8.434079 1.510683 8.443391 0.000000 0.000000 1.000000 1.000000
v 7.462519 0.812848 -7.594531 0.000000 0.000000 1.000000 1.000000
v -7.791206 0.912597 -8.073956 0.000000 0.000000 1.000000 1.000000
v -7.564373 0.572233 -7.434489 0.000000 0.000000 1.000000 1.000000
v 7.462519 0.812848 -7.594531 0.000000 0.000000 1.000000 1.000000
v 8.186302 0.054654 8.352860 0.000000 1.000000 0.000000 1.000000
v 8.434079 1.510683 8.443391 0.000000 0.000000 1.000000 1.000000
v -7.791206 0.912597 -8.073956 0.000000 0.000000 1.000000 1.000000
v -7.709659 0.677763 7.664680 0.000000 1.000000 0.000000 1.000000
v -7.564373 0.572233 -7.434489 0.000000 0.000000 1.000000 1.000000
vt 2.203125 -3.367188
vt 2.144531 -1.460938
vt 0.237061 -3.355469
vt 0.310547 -1.503906
vt 2.652344 3.775391
vt -3.125000 3.738281
vt -3.138672 3.916016
vt -1.223633 3.724609
vt -3.130859 3.912109
vt -3.123047 3.738281
vt -3.507812 4.291016
vt 2.330078 4.177734
vt -3.470703 4.119141
vt -3.496094 4.125000
vt -1.578125 4.308594
vt -3.505859 4.294922
vt -1.554688 4.115234
vt -1.556641 4.308594
vt 0.571777 4.113281
vt 0.557617 4.126953
vt 2.548828 4.212891
vt 0.531250 4.287109
vt -1.533203 4.310547
vt -6.820312 3.308594
vt -6.812500 1.134766
vt -4.652344 3.296875
vt -4.730469 1.201904
vt -13.078125 0.823242
vt -7.863281 0.847778
vt -13.195312 0.736084
vt -11.265625 0.845337
vt -9.507812 0.800415
vt -9.531250 0.864380
vt -11.484375 0.841187
vt -13.203125 0.838135
vt -13.218750 0.736084
vt -9.382812 0.831055
vt -7.695312 0.858887
vt -9.312500 0.872559
vt1 0.318604 0.408203
vt1 0.314209 0.551025
vt1 0.170898 0.408691
vt1 0.176392 0.547852
vt1 0.838867 0.402832
vt1 0.308350 0.399902
vt1 0.307129 0.416016
vt1 0.483154 0.398438
vt1 0.307861 0.415527
vt1 0.308594 0.399902
vt1 0.301514 0.566406
vt1 0.990234 0.553223
vt1 0.306152 0.546143
vt1 0.302979 0.546875
vt1 0.529297 0.568604
vt1 0.301758 0.567139
vt1 0.531738 0.545898
vt1 0.531738 0.568604
vt1 0.782715 0.545410
vt1 0.781250 0.547119
vt1 1.015625 0.557129
vt1 0.777832 0.566162
vt1 0.534180 0.568848
vt1 0.010590 0.581543
vt1 0.011162 0.414062
vt1 0.177246 0.580566
vt1 0.171021 0.419434
vt1 0.034576 0.613525
vt1 0.851562 0.617676
vt1 0.016434 0.599121
vt1 0.318848 0.617188
vt1 0.593750 0.609619
vt1 0.589844 0.620117
vt1 0.283936 0.616699
vt1 0.014938 0.616211
vt1 0.012711 0.599121
vt1 0.613770 0.614746
vt1 0.877930 0.619385
vt1 0.624023 0.621582
vn 0.000000 1.000000 -0.000000
vn 0.000000 1.000000 -0.000000
vn 0.000000 1.000000 -0.000000
vn 0.000000 1.000000 -0.000000
vn -0.007874 1.000000 0.015748
vn 0.000000 1.000000 -0.000000
vn 0.047244 1.000000 0.055118
vn 0.000000 1.000000 -0.000000
vn 0.055118 1.000000 0.047244
vn 0.000000 1.000000 -0.000000
vn 0.000000 1.000000 -0.000000
vn 0.039370 1.000000 0.039370
vn -0.055118 1.000000 0.055118
vn -0.055118 1.000000 0.055118
vn 0.007874 1.000000 -0.007874
vn 0.000000 1.000000 -0.000000
vn -0.055118 1.000000 -0.055118
vn 0.007874 1.000000 0.007874
vn 0.047244 1.000000 -0.055118
vn 0.055118 1.000000 -0.055118
vn 0.023622 1.000000 0.015748
vn 0.000000 1.000000 -0.000000
vn -0.007874 1.000000 0.007874
vn -0.007874 -1.000000 -0.015748
vn -0.007874 -1.000000 0.007874
vn 0.007874 -1.000000 -0.007874
vn 0.015748 -1.000000 0.015748
vn 0.000000 -0.551181 0.834646
vn 0.000000 -0.724409 0.685039
vn 0.000000 0.488189 0.874016
vn 0.000000 -0.716535 -0.700787
vn 0.000000 -0.236221 -0.968504
vn 0.000000 -0.803150 -0.598425
vn 0.732283 -0.677165 0.000000
vn 0.740157 -0.677165 0.000000
vn 0.874016 0.488189 -0.000000
vn -0.834646 -0.551181 0.000000
vn -0.614173 -0.787401 0.000000
vn -0.559055 -0.826772 0.000000
tan -1.000000 0.000000 0.000000 1.000000
tan -1.000000 0.000000 0.000000 1.000000
tan -1.000000 0.000000 0.000000 1.000000
tan -1.000000 0.000000 0.000000 1.000000
tan 0.000000 0.015748 -1.000000 1.000000
tan 0.000000 -0.000000 -1.000000 1.000000
tan 0.000000 0.055118 -1.000000 1.000000
tan -0.700787 0.000000 0.708661 1.000000
tan -1.000000 0.055490 -0.007874 1.000000
tan -1.000000 0.000000 0.000000 1.000000
tan 0.000000 0.000000 1.000000 1.000000
tan 0.000000 -0.039370 1.000000 1.000000
tan 0.000000 -0.055118 1.000000 1.000000
tan -1.000000 -0.055552 0.007874 1.000000
tan -0.740157 0.000496 -0.677165 1.000000
tan -1.000000 0.000000 0.007874 1.000000
tan -0.661417 -0.077686 -0.748031 1.000000
tan -0.724409 0.011098 -0.685039 1.000000
tan 0.629921 -0.072292 -0.771653 1.000000
tan 0.661417 -0.077686 -0.748031 1.000000
tan 1.000000 -0.023870 0.015748 1.000000
tan 0.708661 -0.000000 -0.700787 1.000000
tan -0.700787 0.000062 -0.708661 1.000000
tan 0.000000 -0.015748 1.000000 1.000000
tan 0.000000 0.007874 1.000000 1.000000
tan 0.000000 -0.007874 1.000000 1.000000
tan 0.000000 0.015748 1.000000 1.000000
tan 0.000000 0.834646 0.551181 1.000000
tan 0.000000 0.685039 0.724409 1.000000
tan 0.000000 0.874016 -0.488189 1.000000
tan 0.000000 0.700787 -0.716535 1.000000
tan 0.000000 0.968504 -0.236221 1.000000
tan 0.000000 0.598425 -0.803150 1.000000
tan 0.677165 0.732283 -0.000000 1.000000
tan 0.677165 0.740157 -0.000000 1.000000
tan -0.488189 0.874016 -0.000000 1.000000
tan -0.551181 0.834646 -0.000000 1.000000
tan -0.787402 0.614173 -0.000000 1.000000
tan -0.826772 0.559055 -0.000000 1.000000
f 3/3/3 2/2/2 1/1/1
f 3/3/3 4/4/4 2/2/2
f 7/7/7 6/6/6 5/5/5
f 10/10/10 9/9/9 8/8/8
f 13/13/13 12/12/12 11/11/11
f 16/16/16 15/15/15 14/14/14
f 18/18/18 17/17/17 14/14/14
f 17/17/17 18/18/18 19/19/19
f 22/22/22 21/21/21 20/20/20
f 22/22/22 20/20/20 23/23/23
f 26/26/26 25/25/25 24/24/24
f 27/27/27 25/25/25 26/26/26
f 30/30/30 29/29/29 28/28/28
f 33/33/33 32/32/32 31/31/31
f 36/36/36 35/35/35 34/34/34
f 39/39/39 38/38/38 37/37/37
