mtllib SM_Mansion_Tower_Base_LOD2@000002909DC43200.mtl
g SM_Mansion_Tower_Base_LOD2@000002909DC43200
#Vertices 70
#Indices 96
#Section 0 Offset 0 NumIndices 6 MaterialIndex 0 MI_FloorTile_A_01
#Section 1 Offset 6 NumIndices 66 MaterialIndex 1 MI_ConcreteTile_01
#Section 2 Offset 72 NumIndices 6 MaterialIndex 2 MI_BrickTile_A_01
#Section 3 Offset 78 NumIndices 18 MaterialIndex 3 MI_ConcreteTrim_A_01
v -7.085354 0.764278 -7.057969 0.000000 0.000000 1.000000 1.000000
v 7.034065 0.499999 -6.999997 0.000000 0.000000 1.000000 1.000000
v -7.034062 0.500001 7.000001 0.000000 0.000000 1.000000 1.000000
v 7.109406 0.695387 7.075500 0.000000 0.000000 1.000000 1.000000
v 7.034065 1.499999 -6.999997 0.000000 0.000000 1.000000 1.000000
v 7.109406 0.695387 7.075500 0.000000 0.000000 1.000000 1.000000
v 7.034065 0.499999 -6.999997 0.000000 0.000000 1.000000 1.000000
v 7.109406 0.695387 7.075500 0.000000 0.000000 1.000000 1.000000
v -7.034062 1.500001 7.000001 0.000000 0.000000 1.000000 1.000000
v -7.034062 0.500001 7.000001 0.000000 0.000000 1.000000 1.000000
v -7.034062 1.500001 7.000001 0.000000 0.000000 1.000000 1.000000
v -7.085354 0.764278 -7.057969 0.000000 0.000000 1.000000 1.000000
v -7.034062 0.500001 7.000001 0.000000 0.000000 1.000000 1.000000
v 7.034065 0.499999 -6.999997 0.000000 0.000000 1.000000 1.000000
v -7.085354 0.764278 -7.057969 0.000000 0.000000 1.000000 1.000000
v 7.034065 1.499999 -6.999997 0.000000 0.000000 1.000000 1.000000
v 7.034065 1.499999 -6.999997 0.000000 0.000000 1.000000 1.000000
v 8.434079 1.510683 8.443391 0.000000 0.000000 1.000000 1.000000
v 7.109406 0.695387 7.075500 0.000000 0.000000 1.000000 1.000000
v 8.370997 1.126306 -8.515338 0.000000 0.000000 1.000000 1.000000
v 7.034065 1.499999 -6.999997 0.000000 0.000000 1.000000 1.000000
v -8.485126 1.540877 -8.428204 0.000000 0.000000 1.000000 1.000000
v 7.034065 1.499999 -6.999997 0.000000 0.000000 1.000000 1.000000
v -7.085354 0.764278 -7.057969 0.000000 0.000000 1.000000 1.000000
v -8.453898 1.507192 8.433973 0.000000 0.000000 1.000000 1.000000
v -7.034062 1.500001 7.000001 0.000000 0.000000 1.000000 1.000000
v 8.845336 -0.064986 -8.817211 0.000000 1.000000 0.000000 1.000000
v 8.910376 -0.108166 8.904760 0.000000 1.000000 0.000000 1.000000
v 7.586778 0.638998 7.445480 0.000000 0.129412 0.870588 1.000000
v 8.845336 -0.064986 -8.817211 0.000000 1.000000 0.000000 1.000000
v 7.616181 0.377482 -7.499998 0.000000 0.470588 0.529412 1.000000
v -7.564373 0.572233 -7.434489 0.000000 0.000000 1.000000 1.000000
v -8.846331 -0.044052 8.902480 0.000000 1.000000 0.000000 1.000000
v -7.564373 0.572233 -7.434489 0.000000 0.000000 1.000000 1.000000
v -7.685249 0.804261 7.568715 0.000000 0.000000 1.000000 1.000000
v -8.907434 -0.070509 -8.920320 0.000000 1.000000 0.000000 1.000000
v -7.564373 0.572233 -7.434489 0.000000 0.000000 1.000000 1.000000
v 8.845336 -0.064986 -8.817211 0.000000 1.000000 0.000000 1.000000
v -7.034062 1.500001 7.000001 0.000000 0.000000 1.000000 1.000000
v 7.109406 0.695387 7.075500 0.000000 0.000000 1.000000 1.000000
v 8.434079 1.510683 8.443391 0.000000 0.000000 1.000000 1.000000
v -8.453898 1.507192 8.433973 0.000000 0.000000 1.000000 1.000000
v -7.685249 0.804261 7.568715 0.000000 0.000000 1.000000 1.000000
v 7.586778 0.638998 7.445480 0.000000 0.129412 0.870588 1.000000
v 8.910376 -0.108166 8.904760 0.000000 1.000000 0.000000 1.000000
v -8.846331 -0.044052 8.902480 0.000000 1.000000 0.000000 1.000000
v -8.907434 -0.070509 -8.920320 0.000000 1.000000 0.000000 1.000000
v -8.846331 -0.044052 8.902480 0.000000 1.000000 0.000000 1.000000
v 8.845336 -0.064986 -8.817211 0.000000 1.000000 0.000000 1.000000
v 8.910376 -0.108166 8.904760 0.000000 1.000000 0.000000 1.000000
v 7.586778 0.638998 7.445480 0.000000 0.129412 0.870588 1.000000
v 8.370997 1.126306 -8.515338 0.000000 0.000000 1.000000 1.000000
v 7.616181 0.377482 -7.499998 0.000000 0.470588 0.529412 1.000000
v -7.564373 0.572233 -7.434489 0.000000 0.000000 1.000000 1.000000
v 7.616181 0.377482 -7.499998 0.000000 0.470588 0.529412 1.000000
v 8.370997 1.126306 -8.515338 0.000000 0.000000 1.000000 1.000000
v 8.370997 1.126306 -8.515338 0.000000 0.000000 1.000000 1.000000
v -8.485126 1.540877 -8.428204 0.000000 0.000000 1.000000 1.000000
v -7.564373 0.572233 -7.434489 0.000000 0.000000 1.000000 1.000000
v 8.370997 1.126306 -8.515338 0.000000 0.000000 1.000000 1.000000
v 7.586778 0.638998 7.445480 0.000000 0.129412 0.870588 1.000000
v 8.434079 1.510683 8.443391 0.000000 0.000000 1.000000 1.000000
v 7.586778 0.638998 7.445480 0.000000 0.129412 0.870588 1.000000
v -7.685249 0.804261 7.568715 0.000000 0.000000 1.000000 1.000000
v 8.434079 1.510683 8.443391 0.000000 0.000000 1.000000 1.000000
v -8.453898 1.507192 8.433973 0.000000 0.000000 1.000000 1.000000
v -8.485126 1.540877 -8.428204 0.000000 0.000000 1.000000 1.000000
v -7.685249 0.804261 7.568715 0.000000 0.000000 1.000000 1.000000
v -7.564373 0.572233 -7.434489 0.000000 0.000000 1.000000 1.000000
v -8.453898 1.507192 8.433973 0.000000 0.000000 1.000000 1.000000
vt 2.076172 -3.277344
vt 2.068359 -1.513672
vt 0.320068 -3.273438
vt 0.310547 -1.503906
vt -1.291016 3.730469
vt -3.130859 3.619141
vt -1.291016 3.591797
vt -3.152344 3.619141
vt 2.507812 3.730469
vt 2.507812 3.591797
vt 2.507812 3.730469
vt 0.669434 3.628906
vt 2.507812 3.591797
vt -1.291016 3.591797
vt 0.684082 3.628906
vt -1.291016 3.730469
vt -1.291016 3.730469
vt -3.130859 3.912109
vt -3.123047 3.738281
vt -1.271484 3.912109
vt -1.291016 3.730469
vt 0.686035 3.914062
vt -1.291016 3.730469
vt 0.672363 3.734375
vt 2.515625 3.914062
vt 2.507812 3.730469
vt 0.549316 4.125000
vt 2.482422 4.115234
vt 2.480469 4.310547
vt 0.557617 4.126953
vt 0.555664 4.294922
vt -1.533203 4.310547
vt -3.496094 4.125000
vt -1.578125 4.308594
vt -3.501953 4.302734
vt -1.554688 4.115234
vt -1.556641 4.308594
vt 0.571777 4.113281
vt 2.507812 3.730469
vt -3.125000 3.738281
vt -3.138672 3.916016
vt 2.507812 3.914062
vt -3.496094 4.306641
vt 2.515625 4.312500
vt 2.542969 4.109375
vt -3.470703 4.119141
vt -6.820312 3.308594
vt -6.812500 1.134766
vt -4.652344 3.296875
vt -4.644531 1.134644
vt -3.326172 -0.992188
vt -1.331055 -1.044922
vt -1.458008 -0.951172
vt 0.438232 -0.980469
vt -1.458008 -0.951172
vt -1.552734 -1.066406
vt -11.375000 0.769043
vt -9.429688 0.736328
vt -9.531250 0.864380
vt -11.390625 0.785767
vt -13.101562 0.838745
vt -13.218750 0.736084
vt -12.875000 0.849854
vt -7.871094 0.846069
vt -13.195312 0.736084
vt -7.613281 0.736572
vt -9.406250 0.735352
vt -7.703125 0.850098
vt -9.312500 0.872559
vt -7.597656 0.736572
vt1 0.309082 0.414551
vt1 0.308594 0.547119
vt1 0.177124 0.415039
vt1 0.176392 0.547852
vt1 0.476807 0.398926
vt1 0.307861 0.388672
vt1 0.476807 0.386230
vt1 0.305908 0.388672
vt1 0.825684 0.398926
vt1 0.825684 0.386230
vt1 0.825684 0.398926
vt1 0.656738 0.389648
vt1 0.825684 0.386230
vt1 0.476807 0.386230
vt1 0.658203 0.389648
vt1 0.476807 0.398926
vt1 0.476807 0.398926
vt1 0.307861 0.415527
vt1 0.308594 0.399902
vt1 0.478760 0.415527
vt1 0.476807 0.398926
vt1 0.658203 0.416016
vt1 0.476807 0.398926
vt1 0.657227 0.399414
vt1 0.826660 0.416016
vt1 0.825684 0.398926
vt1 0.780273 0.547119
vt1 1.007812 0.545654
vt1 1.007812 0.568848
vt1 0.781250 0.547119
vt1 0.780762 0.566895
vt1 0.534180 0.568848
vt1 0.302979 0.546875
vt1 0.529297 0.568604
vt1 0.302246 0.568115
vt1 0.531738 0.545898
vt1 0.531738 0.568604
vt1 0.782715 0.545410
vt1 0.825684 0.398926
vt1 0.308350 0.399902
vt1 0.307129 0.416016
vt1 0.825684 0.416016
vt1 0.302734 0.568359
vt1 1.011719 0.569092
vt1 1.015625 0.545166
vt1 0.306152 0.546143
vt1 0.010590 0.581543
vt1 0.011162 0.414062
vt1 0.177246 0.580566
vt1 0.177856 0.414062
vt1 0.012672 0.587402
vt1 0.338379 0.578857
vt1 0.317627 0.593994
vt1 0.627441 0.589355
vt1 0.317627 0.593994
vt1 0.302246 0.575195
vt1 0.301758 0.604492
vt1 0.605957 0.599121
vt1 0.589844 0.620117
vt1 0.298828 0.607422
vt1 0.030365 0.616211
vt1 0.012711 0.599121
vt1 0.066467 0.617920
vt1 0.850586 0.617432
vt1 0.016434 0.599121
vt1 0.890625 0.599121
vt1 0.609375 0.599121
vt1 0.876465 0.617920
vt1 0.624023 0.621582
vt1 0.893066 0.599121
vn 0.000000 1.000000 -0.000000
vn 0.000000 1.000000 -0.000000
vn 0.000000 1.000000 -0.000000
vn 0.000000 1.000000 -0.000000
vn -1.000000 0.000000 0.000000
vn -1.000000 0.000000 0.000000
vn -1.000000 0.000000 0.000000
vn 0.000000 -0.000000 -1.000000
vn 0.000000 -0.000000 -1.000000
vn 0.000000 -0.000000 -1.000000
vn 1.000000 0.000000 0.000000
vn 1.000000 0.000000 0.000000
vn 1.000000 0.000000 0.000000
vn 0.000000 0.000000 1.000000
vn 0.000000 0.000000 1.000000
vn 0.000000 0.000000 1.000000
vn 0.000000 1.000000 -0.000000
vn 0.055118 1.000000 0.047244
vn 0.000000 1.000000 -0.000000
vn 0.055118 1.000000 -0.055118
vn 0.000000 1.000000 -0.000000
vn -0.047244 1.000000 -0.055118
vn 0.000000 1.000000 -0.000000
vn 0.000000 1.000000 -0.000000
vn -0.055118 1.000000 0.047244
vn 0.000000 1.000000 -0.000000
vn 0.055118 1.000000 -0.055118
vn 0.055118 1.000000 0.055118
vn -0.007874 1.000000 -0.000000
vn 0.055118 1.000000 -0.055118
vn 0.000000 1.000000 -0.000000
vn -0.007874 1.000000 0.007874
vn -0.055118 1.000000 0.055118
vn 0.007874 1.000000 -0.007874
vn 0.000000 1.000000 -0.000000
vn -0.055118 1.000000 -0.055118
vn 0.007874 1.000000 0.007874
vn 0.047244 1.000000 -0.055118
vn 0.000000 1.000000 -0.000000
vn 0.000000 1.000000 -0.000000
vn 0.047244 1.000000 0.055118
vn -0.055118 1.000000 0.055118
vn 0.000000 1.000000 -0.000000
vn -0.007874 1.000000 -0.007874
vn 0.047244 1.000000 0.055118
vn -0.055118 1.000000 0.055118
vn -0.007874 -1.000000 -0.015748
vn -0.007874 -1.000000 0.007874
vn 0.007874 -1.000000 -0.007874
vn 0.015748 -1.000000 0.015748
vn 1.000000 0.000000 0.000000
vn 1.000000 0.000000 0.000000
vn 1.000000 0.000000 0.000000
vn 0.000000 -0.000000 -1.000000
vn 0.000000 -0.000000 -1.000000
vn 0.000000 -0.000000 -1.000000
vn 0.000000 -0.015748 -1.000000
vn 0.000000 0.448819 -0.897638
vn 0.000000 -0.803150 -0.598425
vn 0.984252 -0.188976 0.000000
vn 0.732283 -0.677165 0.000000
vn 0.874016 0.488189 -0.000000
vn 0.000000 -0.755905 0.661417
vn 0.000000 -0.716535 0.692913
vn 0.000000 0.488189 0.874016
vn 0.000000 0.480315 0.874016
vn -0.874016 0.496063 -0.000000
vn -0.669291 -0.748031 0.000000
vn -0.559055 -0.826772 0.000000
vn -0.874016 0.480315 -0.000000
tan -1.000000 0.000000 0.000000 1.000000
tan -1.000000 0.000000 0.000000 1.000000
tan -1.000000 0.000000 0.000000 1.000000
tan -1.000000 0.000000 0.000000 1.000000
tan 0.000000 -1.000000 0.000000 1.000000
tan 0.000000 -1.000000 0.000000 1.000000
tan 0.000000 -1.000000 0.000000 1.000000
tan 0.000000 -1.000000 0.000000 1.000000
tan 0.000000 -1.000000 0.000000 1.000000
tan 0.000000 -1.000000 0.000000 1.000000
tan 0.000000 -1.000000 0.000000 1.000000
tan 0.000000 -1.000000 0.000000 1.000000
tan 0.000000 -1.000000 0.000000 1.000000
tan 0.000000 -1.000000 0.000000 1.000000
tan 0.000000 -1.000000 0.000000 1.000000
tan 0.000000 -1.000000 0.000000 1.000000
tan -0.724409 0.000000 0.692913 1.000000
tan -1.000000 0.055490 -0.007874 1.000000
tan -1.000000 0.000000 0.000000 1.000000
tan -0.700787 0.078120 0.716535 1.000000
tan -0.708661 0.000000 0.708661 1.000000
tan 0.708661 0.072540 0.708661 1.000000
tan -0.692913 0.000000 0.716535 1.000000
tan 0.708661 0.000000 0.708661 1.000000
tan 1.000000 0.055490 -0.007874 1.000000
tan 1.000000 0.000000 0.000000 1.000000
tan 0.700787 -0.078120 -0.716535 1.000000
tan 1.000000 -0.055118 0.000000 1.000000
tan 1.000000 0.007874 -0.000000 1.000000
tan 0.661417 -0.077686 -0.748031 1.000000
tan 0.724409 -0.000000 -0.692913 1.000000
tan -0.700787 0.000062 -0.708661 1.000000
tan -1.000000 -0.055552 0.007874 1.000000
tan -0.740157 0.000496 -0.677165 1.000000
tan -1.000000 0.000000 0.007874 1.000000
tan -0.661417 -0.077686 -0.748031 1.000000
tan -0.724409 0.011098 -0.685039 1.000000
tan 0.629921 -0.072292 -0.771653 1.000000
tan 0.000000 -0.000000 -1.000000 1.000000
tan 0.000000 -0.000000 -1.000000 1.000000
tan 0.000000 0.055118 -1.000000 1.000000
tan 0.000000 0.055118 -1.000000 1.000000
tan 0.000000 0.000000 1.000000 1.000000
tan 0.000000 0.007874 1.000000 1.000000
tan 0.000000 -0.055118 1.000000 1.000000
tan 0.000000 -0.055118 1.000000 1.000000
tan 0.000000 -0.015748 1.000000 1.000000
tan 0.000000 0.007874 1.000000 1.000000
tan 0.000000 -0.007874 1.000000 1.000000
tan 0.000000 0.015748 1.000000 1.000000
tan 0.000000 1.000000 -0.000000 1.000000
tan 0.000000 1.000000 -0.000000 1.000000
tan 0.000000 1.000000 -0.000000 1.000000
tan 0.000000 1.000000 -0.000000 1.000000
tan 0.000000 1.000000 -0.000000 1.000000
tan 0.000000 1.000000 -0.000000 1.000000
tan 0.000000 1.000000 -0.015748 1.000000
tan 0.000000 0.897638 0.448819 1.000000
tan 0.000000 0.598425 -0.803150 1.000000
tan 0.188976 0.984252 -0.000000 1.000000
tan 0.677165 0.732283 -0.000000 1.000000
tan -0.488189 0.874016 -0.000000 1.000000
tan 0.000000 0.661417 0.755905 1.000000
tan 0.000000 0.692913 0.716535 1.000000
tan 0.000000 0.874016 -0.488189 1.000000
tan 0.000000 0.874016 -0.480315 1.000000
tan 0.496063 0.874016 -0.000000 1.000000
tan -0.748031 0.669291 -0.000000 1.000000
tan -0.826772 0.559055 -0.000000 1.000000
tan 0.480315 0.874016 -0.000000 1.000000
f 3/3/3 2/2/2 1/1/1
f 3/3/3 4/4/4 2/2/2
f 7/7/7 6/6/6 5/5/5
f 10/10/10 9/9/9 8/8/8
f 13/13/13 12/12/12 11/11/11
f 16/16/16 15/15/15 14/14/14
f 19/19/19 18/18/18 17/17/17
f 21/21/21 18/18/18 20/20/20
f 21/21/21 20/20/20 22/22/22
f 24/24/24 23/23/23 22/22/22
f 24/24/24 22/22/22 25/25/25
f 26/26/26 24/24/24 25/25/25
f 29/29/29 28/28/28 27/27/27
f 31/31/31 29/29/29 30/30/30
f 31/31/31 30/30/30 32/32/32
f 35/35/35 34/34/34 33/33/33
f 37/37/37 36/36/36 33/33/33
f 36/36/36 37/37/37 38/38/38
f 41/41/41 40/40/40 39/39/39
f 42/42/42 41/41/41 39/39/39
f 45/45/45 44/44/44 43/43/43
f 46/46/46 45/45/45 43/43/43
f 49/49/49 48/48/48 47/47/47
f 50/50/50 48/48/48 49/49/49
f 53/53/53 52/52/52 51/51/51
f 56/56/56 55/55/55 54/54/54
f 59/59/59 58/58/58 57/57/57
f 62/62/62 61/61/61 60/60/60
f 65/65/65 64/64/64 63/63/63
f 66/66/66 64/64/64 65/65/65
f 69/69/69 68/68/68 67/67/67
f 68/68/68 70/70/70 67/67/67
