mtllib SM_Mansion_Tower_Window_LOD3@000002909DC3F900.mtl
g SM_Mansion_Tower_Window_LOD3@000002909DC3F900
#Vertices 140
#Indices 462
#Section 0 Offset 0 NumIndices 141 MaterialIndex 0 MI_ConcreteTile_A_02
#Section 1 Offset 141 NumIndices 177 MaterialIndex 1 MI_ConcreteTrim_A_02
#Section 2 Offset 318 NumIndices 120 MaterialIndex 2 MI_Pillar_A_01
#Section 3 Offset 438 NumIndices 24 MaterialIndex 3 MM_Unlit
v -0.212055 0.000057 -0.185233 0.000000 0.000000 1.000000 1.000000
v -0.214781 6.567770 -0.185968 1.000000 1.000000 1.000000 1.000000
v -0.227579 0.000002 -0.120064 0.000000 0.000000 1.000000 1.000000
v -0.193152 -0.000000 -0.193966 0.000000 0.000000 1.000000 1.000000
v -0.229240 6.679544 -0.120166 1.000000 1.000000 1.000000 1.000000
v -0.194161 6.638345 -0.193961 1.000000 1.000000 1.000000 1.000000
v 0.193152 -0.000000 -0.193966 0.000000 0.000000 1.000000 1.000000
v -0.526255 6.872047 -0.192729 1.000000 1.000000 1.000000 1.000000
v -0.471942 6.827793 -0.123468 1.000000 1.000000 1.000000 1.000000
v -0.658658 6.782645 -0.122639 1.000000 1.000000 1.000000 1.000000
v 0.194011 6.626655 -0.193922 1.000000 1.000000 1.000000 1.000000
v 0.214819 6.556786 -0.186049 1.000000 1.000000 1.000000 1.000000
v 0.212036 0.000057 -0.185236 0.000000 0.000000 1.000000 1.000000
v 0.227579 0.000002 -0.120064 0.000000 0.000000 1.000000 1.000000
v 0.229178 6.682839 -0.120153 1.000000 1.000000 1.000000 1.000000
v 0.506368 6.871524 -0.192726 1.000000 1.000000 1.000000 1.000000
v 0.472186 6.826195 -0.126645 1.000000 1.000000 1.000000 1.000000
v 0.657306 6.784062 -0.120953 1.000000 1.000000 1.000000 1.000000
v -0.179580 7.393773 -0.194082 1.000000 1.000000 1.000000 1.000000
v -0.542753 7.233360 -0.194036 1.000000 1.000000 1.000000 1.000000
v 0.273403 7.374099 -0.194458 1.000000 1.000000 1.000000 1.000000
v -0.784700 7.022240 -0.194507 1.000000 1.000000 1.000000 1.000000
v 0.722784 7.097570 -0.192740 1.000000 1.000000 1.000000 1.000000
v -0.803921 6.646820 -0.193943 1.000000 1.000000 1.000000 1.000000
v -0.981516 6.691810 -0.194081 1.000000 1.000000 1.000000 1.000000
v -1.030435 5.803506 -0.194378 1.000000 1.000000 1.000000 1.000000
v -1.030562 -0.000005 -0.194158 0.000000 0.000000 1.000000 1.000000
v -0.800754 -0.000053 -0.196264 0.000000 0.000000 1.000000 1.000000
v -0.783378 6.551587 -0.185775 1.000000 1.000000 1.000000 1.000000
v -0.770286 6.594910 -0.120074 1.000000 1.000000 1.000000 1.000000
v -0.770725 0.000002 -0.120063 0.000000 0.000000 1.000000 1.000000
v 0.804700 6.628639 -0.193940 1.000000 1.000000 1.000000 1.000000
v 0.978582 6.709782 -0.195591 1.000000 1.000000 1.000000 1.000000
v 1.030431 5.803039 -0.194397 1.000000 1.000000 1.000000 1.000000
v 1.030562 -0.000003 -0.194159 0.196078 0.196078 1.000000 1.000000
v 0.801434 -0.000065 -0.196345 0.000000 0.000000 1.000000 1.000000
v 0.781948 6.558000 -0.183558 1.000000 1.000000 1.000000 1.000000
v 0.770287 6.594821 -0.120075 1.000000 1.000000 1.000000 1.000000
v 0.770725 0.000002 -0.120064 0.000000 0.000000 1.000000 1.000000
v -1.272429 -0.000000 -0.274864 0.000000 0.000000 1.000000 1.000000
v -1.271287 5.852617 -0.274904 1.000000 1.000000 1.000000 1.000000
v -1.273813 -0.000000 0.000000 0.000000 0.000000 1.000000 1.000000
v -1.255087 -0.000000 -0.292100 0.000000 0.000000 1.000000 1.000000
v -1.265951 6.419956 -0.000040 1.000000 1.000000 1.000000 1.000000
v -1.244732 6.516501 -0.291988 1.000000 1.000000 1.000000 1.000000
v -1.128521 -0.000000 -0.292100 0.000000 0.000000 1.000000 1.000000
v -1.164930 6.869601 -0.292193 1.000000 1.000000 1.000000 1.000000
v -0.968008 7.173851 -0.001752 1.000000 1.000000 1.000000 1.000000
v -1.127306 5.881629 -0.292106 1.000000 1.000000 1.000000 1.000000
v -1.106276 -0.000000 -0.281952 0.000000 0.000000 1.000000 1.000000
v -1.034487 7.005332 -0.293048 1.000000 1.000000 1.000000 1.000000
v -0.731303 7.369419 -0.275718 1.000000 1.000000 1.000000 1.000000
v -0.190466 7.585092 -0.000350 1.000000 1.000000 1.000000 1.000000
v -1.098224 6.509132 -0.279072 1.000000 1.000000 1.000000 1.000000
v -1.030562 -0.000005 -0.194158 0.000000 0.000000 1.000000 1.000000
v -1.030435 5.803506 -0.194378 1.000000 1.000000 1.000000 1.000000
v -0.981516 6.691810 -0.194081 1.000000 1.000000 1.000000 1.000000
v -0.733934 7.313023 -0.310025 1.000000 1.000000 1.000000 1.000000
v -0.784700 7.022240 -0.194507 1.000000 1.000000 1.000000 1.000000
v -0.542753 7.233360 -0.194036 1.000000 1.000000 1.000000 1.000000
v -0.002352 7.558254 -0.296362 1.000000 1.000000 1.000000 1.000000
v -0.179580 7.393773 -0.194082 1.000000 1.000000 1.000000 1.000000
v 0.273403 7.374099 -0.194458 1.000000 1.000000 1.000000 1.000000
v 0.722784 7.097570 -0.192740 1.000000 1.000000 1.000000 1.000000
v -0.112546 7.598373 -0.279037 1.000000 1.000000 1.000000 1.000000
v 0.441881 7.516613 0.000135 1.000000 1.000000 1.000000 1.000000
v 0.622626 7.448083 -0.268619 1.000000 1.000000 1.000000 1.000000
v 1.033690 7.083118 0.001510 1.000000 1.000000 1.000000 1.000000
v 0.833835 7.230892 -0.314122 1.000000 1.000000 1.000000 1.000000
v 0.978582 6.709782 -0.195591 1.000000 1.000000 1.000000 1.000000
v 1.128237 6.911392 -0.278073 1.000000 1.000000 1.000000 1.000000
v 1.266173 6.399998 -0.000013 1.000000 1.000000 1.000000 1.000000
v 1.102355 6.523681 -0.283962 1.000000 1.000000 1.000000 1.000000
v 1.030431 5.803039 -0.194397 1.000000 1.000000 1.000000 1.000000
v 1.030562 -0.000003 -0.194159 0.196078 0.196078 1.000000 1.000000
v 1.106277 -0.000000 -0.281952 0.258824 0.258824 1.000000 1.000000
v 1.122684 6.512906 -0.292048 1.000000 1.000000 1.000000 1.000000
v 1.128521 -0.000000 -0.292100 0.286275 0.286275 1.000000 1.000000
v 1.246864 6.418234 -0.292129 1.000000 1.000000 1.000000 1.000000
v 1.255087 -0.000000 -0.292100 0.486275 0.486275 1.000000 1.000000
v 1.268782 6.406888 -0.272706 1.000000 1.000000 1.000000 1.000000
v 1.272429 -0.000000 -0.274864 0.482353 0.482353 1.000000 1.000000
v 1.273813 -0.000000 0.000000 0.458824 0.458824 1.000000 1.000000
v 0.270265 7.020925 -0.260778 1.000000 1.000000 1.000000 1.000000
v 0.079905 6.754437 -0.286404 1.000000 1.000000 1.000000 1.000000
v 0.260726 6.861837 -0.272250 1.000000 1.000000 1.000000 1.000000
v 0.303463 7.123141 -0.273646 1.000000 1.000000 1.000000 1.000000
v 0.104615 7.281990 -0.286009 1.000000 1.000000 1.000000 1.000000
v -0.107635 7.305280 -0.272389 1.000000 1.000000 1.000000 1.000000
v -0.129021 7.237016 -0.265797 1.000000 1.000000 1.000000 1.000000
v -0.270296 7.019036 -0.260751 1.000000 1.000000 1.000000 1.000000
v -0.260724 7.178207 -0.272250 1.000000 1.000000 1.000000 1.000000
v -0.303465 6.916902 -0.273658 1.000000 1.000000 1.000000 1.000000
v -0.104571 6.758076 -0.285958 1.000000 1.000000 1.000000 1.000000
v 0.216891 7.066121 -0.198147 1.000000 1.000000 1.000000 1.000000
v 0.046751 6.803430 -0.198499 1.000000 1.000000 1.000000 1.000000
v 0.190639 6.897499 -0.198449 1.000000 1.000000 1.000000 1.000000
v -0.122054 6.828948 -0.198131 1.000000 1.000000 1.000000 1.000000
v -0.216662 6.973362 -0.198355 1.000000 1.000000 1.000000 1.000000
v -0.191071 7.142071 -0.198125 1.000000 1.000000 1.000000 1.000000
v -0.046645 7.236650 -0.198450 1.000000 1.000000 1.000000 1.000000
v 0.122872 7.210680 -0.198584 1.000000 1.000000 1.000000 1.000000
v 0.104615 7.281990 -0.286009 1.000000 1.000000 1.000000 1.000000
v 0.006160 7.379989 -0.190514 1.000000 1.000000 1.000000 1.000000
v -0.107635 7.305280 -0.272389 1.000000 1.000000 1.000000 1.000000
v 0.303463 7.123141 -0.273646 1.000000 1.000000 1.000000 1.000000
v -0.260724 7.178207 -0.272250 1.000000 1.000000 1.000000 1.000000
v 0.331602 7.016808 -0.179845 1.000000 1.000000 1.000000 1.000000
v -0.331602 7.023226 -0.179846 1.000000 1.000000 1.000000 1.000000
v 0.260726 6.861837 -0.272250 1.000000 1.000000 1.000000 1.000000
v -0.303465 6.916902 -0.273658 1.000000 1.000000 1.000000 1.000000
v -0.006159 6.660061 -0.190521 1.000000 1.000000 1.000000 1.000000
v 0.079905 6.754437 -0.286404 1.000000 1.000000 1.000000 1.000000
v -0.104571 6.758076 -0.285958 1.000000 1.000000 1.000000 1.000000
v 0.190639 6.897499 -0.198449 1.000000 1.000000 1.000000 1.000000
v 0.270265 7.020925 -0.260778 1.000000 1.000000 1.000000 1.000000
v 0.216891 7.066121 -0.198147 1.000000 1.000000 1.000000 1.000000
v 0.122872 7.210680 -0.198584 1.000000 1.000000 1.000000 1.000000
v 0.079905 6.754437 -0.286404 1.000000 1.000000 1.000000 1.000000
v 0.104615 7.281990 -0.286009 1.000000 1.000000 1.000000 1.000000
v 0.046751 6.803430 -0.198499 1.000000 1.000000 1.000000 1.000000
v -0.046645 7.236650 -0.198450 1.000000 1.000000 1.000000 1.000000
v -0.104571 6.758076 -0.285958 1.000000 1.000000 1.000000 1.000000
v -0.129021 7.237016 -0.265797 1.000000 1.000000 1.000000 1.000000
v -0.122054 6.828948 -0.198131 1.000000 1.000000 1.000000 1.000000
v -0.191071 7.142071 -0.198125 1.000000 1.000000 1.000000 1.000000
v -0.270296 7.019036 -0.260751 1.000000 1.000000 1.000000 1.000000
v -0.216662 6.973362 -0.198355 1.000000 1.000000 1.000000 1.000000
v -0.471942 6.827793 -0.123468 1.000000 1.000000 1.000000 1.000000
v -0.658658 6.782645 -0.122639 1.000000 1.000000 1.000000 1.000000
v -0.770286 6.594910 -0.120074 1.000000 1.000000 1.000000 1.000000
v -0.229240 6.679544 -0.120166 1.000000 1.000000 1.000000 1.000000
v -0.770725 0.000002 -0.120063 0.000000 0.000000 1.000000 1.000000
v -0.227579 0.000002 -0.120064 0.000000 0.000000 1.000000 1.000000
v 0.770725 0.000002 -0.120064 0.000000 0.000000 1.000000 1.000000
v 0.229178 6.682839 -0.120153 1.000000 1.000000 1.000000 1.000000
v 0.227579 0.000002 -0.120064 0.000000 0.000000 1.000000 1.000000
v 0.770287 6.594821 -0.120075 1.000000 1.000000 1.000000 1.000000
v 0.657306 6.784062 -0.120953 1.000000 1.000000 1.000000 1.000000
v 0.472186 6.826195 -0.126645 1.000000 1.000000 1.000000 1.000000
vt 0.381348 -0.850586
vt 0.427979 -0.100586
vt 0.373535 -0.849609
vt 0.383545 -0.850586
vt 0.421143 -0.086914
vt 0.430664 -0.092773
vt 0.427734 -0.853516
vt 0.393311 -0.062500
vt 0.398682 -0.073242
vt 0.378174 -0.075195
vt 0.474854 -0.096680
vt 0.476562 -0.104492
vt 0.429932 -0.853516
vt 0.437744 -0.853516
vt 0.484863 -0.090820
vt 0.513184 -0.070312
vt 0.509277 -0.079102
vt 0.528320 -0.084961
vt 0.437256 -0.005859
vt 0.395264 -0.021484
vt 0.488525 -0.011719
vt 0.365723 -0.041992
vt 0.538086 -0.044922
vt 0.357666 -0.084961
vt 0.338867 -0.073242
vt 0.294922 -0.163086
vt 0.025070 -0.769531
vt 0.049072 -0.780273
vt 0.355469 -0.096680
vt 0.364014 -0.094727
vt 0.057831 -0.784180
vt 0.548340 -0.098633
vt 0.567383 -0.084961
vt 0.601074 -0.181641
vt 0.797363 -0.815430
vt 0.772461 -0.823242
vt 0.548340 -0.107422
vt 0.540527 -0.105469
vt 0.763184 -0.826172
vt 0.709961 0.690186
vt 0.468018 0.690186
vt 0.709961 0.667725
vt 0.709961 0.697998
vt 0.389404 0.667725
vt 0.410156 0.699463
vt 0.709961 0.743164
vt 0.243408 0.691895
vt 0.209229 0.667725
vt 0.448242 0.742920
vt 0.709961 0.751709
vt 0.216675 0.717529
vt 0.175659 0.690186
vt 0.100525 0.667725
vt 0.406738 0.752686
vt 0.710449 0.781250
vt 0.460938 0.780884
vt 0.281494 0.781372
vt 0.174316 0.724365
vt 0.216309 0.780273
vt 0.167969 0.780640
vt 0.077454 0.739746
vt 0.106934 0.780518
vt 0.032623 0.780151
vt -0.045776 0.781860
vt 0.091248 0.690430
vt 0.022324 0.667725
vt -0.003851 0.688477
vt -0.063782 0.667725
vt -0.036621 0.718994
vt -0.123840 0.780762
vt -0.093628 0.690186
vt -0.237183 0.667725
vt -0.251465 0.750977
vt -0.305664 0.780884
vt -0.554688 0.781250
vt -0.554688 0.751709
vt -0.231689 0.742432
vt -0.554688 0.743164
vt -0.268799 0.699463
vt -0.554688 0.697998
vt -0.273438 0.689941
vt -0.554688 0.690186
vt -0.554688 0.667725
vt 0.109985 0.762695
vt 0.079285 0.730957
vt 0.104919 0.742188
vt 0.115601 0.775757
vt 0.092590 0.800903
vt 0.064819 0.807617
vt 0.060516 0.799561
vt 0.037262 0.773071
vt 0.042328 0.793701
vt 0.031677 0.760132
vt 0.054657 0.735107
vt 0.099243 0.769653
vt 0.075378 0.742432
vt 0.093445 0.750732
vt 0.056488 0.748047
vt 0.048035 0.766113
vt 0.053741 0.785034
vt 0.071838 0.793457
vt 0.090881 0.787720
vt 0.093018 0.799316
vt 0.082581 0.824097
vt 0.064392 0.807495
vt 0.115723 0.774780
vt 0.042572 0.793335
vt 0.126953 0.759888
vt 0.020248 0.775879
vt 0.104675 0.742432
vt 0.031494 0.760986
vt 0.064697 0.711670
vt 0.080566 0.730957
vt 0.054199 0.736572
vt 0.093628 0.750854
vt 0.109558 0.763184
vt 0.099121 0.769653
vt 0.090698 0.787842
vt 0.080322 0.730713
vt 0.091858 0.801147
vt 0.075439 0.742432
vt 0.071838 0.793457
vt 0.055359 0.734619
vt 0.060760 0.799683
vt 0.056641 0.748047
vt 0.053589 0.784912
vt 0.037659 0.772583
vt 0.048096 0.766113
vt 0.538086 0.721680
vt 0.520996 0.717529
vt 0.510254 0.700195
vt 0.560547 0.707520
vt 0.503418 0.086426
vt 0.554199 0.085938
vt 0.817383 0.085938
vt 0.770996 0.708252
vt 0.766602 0.086426
vt 0.821289 0.699707
vt 0.811035 0.717529
vt 0.793945 0.721436
vt1 0.381348 -0.850586
vt1 0.427979 -0.100586
vt1 0.373535 -0.849609
vt1 0.383545 -0.850586
vt1 0.421143 -0.086914
vt1 0.430664 -0.092773
vt1 0.427734 -0.853516
vt1 0.393311 -0.062500
vt1 0.398682 -0.073242
vt1 0.378174 -0.075195
vt1 0.474854 -0.096680
vt1 0.476562 -0.104492
vt1 0.429932 -0.853516
vt1 0.437744 -0.853516
vt1 0.484863 -0.090820
vt1 0.513184 -0.070312
vt1 0.509277 -0.079102
vt1 0.528320 -0.084961
vt1 0.437256 -0.005859
vt1 0.395264 -0.021484
vt1 0.488525 -0.011719
vt1 0.365723 -0.041992
vt1 0.538086 -0.044922
vt1 0.357666 -0.084961
vt1 0.338867 -0.073242
vt1 0.294922 -0.163086
vt1 0.025070 -0.769531
vt1 0.049072 -0.780273
vt1 0.355469 -0.096680
vt1 0.364014 -0.094727
vt1 0.057831 -0.784180
vt1 0.548340 -0.098633
vt1 0.567383 -0.084961
vt1 0.601074 -0.181641
vt1 0.797363 -0.815430
vt1 0.772461 -0.823242
vt1 0.548340 -0.107422
vt1 0.540527 -0.105469
vt1 0.763184 -0.826172
vt1 0.709961 0.690186
vt1 0.468018 0.690186
vt1 0.709961 0.667725
vt1 0.709961 0.697998
vt1 0.389404 0.667725
vt1 0.410156 0.699463
vt1 0.709961 0.743164
vt1 0.243408 0.691895
vt1 0.209229 0.667725
vt1 0.448242 0.742920
vt1 0.709961 0.751709
vt1 0.216675 0.717529
vt1 0.175659 0.690186
vt1 0.100525 0.667725
vt1 0.406738 0.752686
vt1 0.710449 0.781250
vt1 0.460938 0.780884
vt1 0.281494 0.781372
vt1 0.174316 0.724365
vt1 0.216309 0.780273
vt1 0.167969 0.780640
vt1 0.077454 0.739746
vt1 0.106934 0.780518
vt1 0.032623 0.780151
vt1 -0.045776 0.781860
vt1 0.091248 0.690430
vt1 0.022324 0.667725
vt1 -0.003851 0.688477
vt1 -0.063782 0.667725
vt1 -0.036621 0.718994
vt1 -0.123840 0.780762
vt1 -0.093628 0.690186
vt1 -0.237183 0.667725
vt1 -0.251465 0.750977
vt1 -0.305664 0.780884
vt1 -0.554688 0.781250
vt1 -0.554688 0.751709
vt1 -0.231689 0.742432
vt1 -0.554688 0.743164
vt1 -0.268799 0.699463
vt1 -0.554688 0.697998
vt1 -0.273438 0.689941
vt1 -0.554688 0.690186
vt1 -0.554688 0.667725
vt1 0.109985 0.762695
vt1 0.079285 0.730957
vt1 0.104919 0.742188
vt1 0.115601 0.775757
vt1 0.092590 0.800903
vt1 0.064819 0.807617
vt1 0.060516 0.799561
vt1 0.037262 0.773071
vt1 0.042328 0.793701
vt1 0.031677 0.760132
vt1 0.054657 0.735107
vt1 0.099243 0.769653
vt1 0.075378 0.742432
vt1 0.093445 0.750732
vt1 0.056488 0.748047
vt1 0.048035 0.766113
vt1 0.053741 0.785034
vt1 0.071838 0.793457
vt1 0.090881 0.787720
vt1 0.093018 0.799316
vt1 0.082581 0.824097
vt1 0.064392 0.807495
vt1 0.115723 0.774780
vt1 0.042572 0.793335
vt1 0.126953 0.759888
vt1 0.020248 0.775879
vt1 0.104675 0.742432
vt1 0.031494 0.760986
vt1 0.064697 0.711670
vt1 0.080566 0.730957
vt1 0.054199 0.736572
vt1 0.093628 0.750854
vt1 0.109558 0.763184
vt1 0.099121 0.769653
vt1 0.090698 0.787842
vt1 0.080322 0.730713
vt1 0.091858 0.801147
vt1 0.075439 0.742432
vt1 0.071838 0.793457
vt1 0.055359 0.734619
vt1 0.060760 0.799683
vt1 0.056641 0.748047
vt1 0.053589 0.784912
vt1 0.037659 0.772583
vt1 0.048096 0.766113
vt1 0.538086 0.721680
vt1 0.520996 0.717529
vt1 0.510254 0.700195
vt1 0.560547 0.707520
vt1 0.503418 0.086426
vt1 0.554199 0.085938
vt1 0.817383 0.085938
vt1 0.770996 0.708252
vt1 0.766602 0.086426
vt1 0.821289 0.699707
vt1 0.811035 0.717529
vt1 0.793945 0.721436
vn -0.779528 -0.000000 -0.629921
vn -0.858268 -0.007874 -0.511811
vn -1.000000 -0.000000 -0.062992
vn -0.015748 -0.000000 -1.000000
vn -0.992126 -0.086614 -0.078740
vn -0.015748 -0.000000 -1.000000
vn 0.015748 -0.000000 -1.000000
vn 0.000000 -0.015748 -1.000000
vn -0.062992 -0.992126 -0.102362
vn 0.629921 -0.771653 -0.078740
vn 0.015748 -0.000000 -1.000000
vn 0.858268 -0.000000 -0.511811
vn 0.779528 -0.000000 -0.629921
vn 1.000000 -0.000000 -0.062992
vn 0.992126 -0.094488 -0.062992
vn 0.000000 -0.015748 -1.000000
vn 0.078740 -0.992126 -0.102362
vn -0.677165 -0.732283 -0.047244
vn 0.000000 -0.000000 -1.000000
vn 0.000000 -0.000000 -1.000000
vn 0.000000 -0.000000 -1.000000
vn 0.000000 -0.000000 -1.000000
vn 0.000000 -0.000000 -1.000000
vn 0.031496 -0.000000 -1.000000
vn 0.000000 -0.000000 -1.000000
vn 0.031496 -0.000000 -1.000000
vn 0.023622 -0.000000 -1.000000
vn 0.188976 -0.000000 -0.984252
vn 0.858268 -0.000000 -0.503937
vn 1.000000 -0.015748 -0.062992
vn 1.000000 -0.000000 -0.062992
vn -0.031496 -0.000000 -1.000000
vn 0.000000 -0.000000 -1.000000
vn -0.031496 -0.000000 -1.000000
vn -0.023622 -0.000000 -1.000000
vn -0.188976 -0.000000 -0.984252
vn -0.874016 -0.000000 -0.480315
vn -1.000000 -0.015748 -0.062992
vn -1.000000 -0.000000 -0.062992
vn -1.000000 -0.000000 -0.062992
vn -1.000000 -0.000000 -0.062992
vn -1.000000 -0.000000 -0.007874
vn -0.118110 -0.000000 -0.992126
vn -1.000000 0.023622 -0.007874
vn -0.110236 0.007874 -0.992126
vn 0.070866 -0.000000 -1.000000
vn -0.929134 0.362205 -0.078740
vn -0.740157 0.669291 -0.007874
vn 0.062992 -0.000000 -1.000000
vn 0.700787 -0.000000 -0.708661
vn -0.133858 0.047244 -0.992126
vn -0.574803 0.818897 -0.070866
vn -0.149606 0.992126 -0.007874
vn 0.708661 -0.015748 -0.708661
vn 0.748031 -0.000000 -0.661417
vn 0.700787 -0.000000 -0.708661
vn 0.740157 -0.188976 -0.653543
vn 0.141732 -0.188976 -0.976378
vn 0.543307 -0.480315 -0.685039
vn 0.401575 -0.637795 -0.653543
vn -0.031496 -0.385827 -0.921260
vn 0.141732 -0.779527 -0.606299
vn -0.236220 -0.748031 -0.614173
vn -0.488189 -0.559055 -0.661417
vn -0.086614 0.992126 -0.047244
vn 0.346457 0.937008 -0.007874
vn 0.472441 0.866142 -0.149606
vn 0.803150 0.598425 -0.007874
vn -0.086614 -0.110236 -0.992126
vn -0.732283 -0.188976 -0.653543
vn 0.834646 0.448819 -0.314961
vn 1.000000 0.023622 -0.007874
vn -0.692913 -0.015748 -0.716535
vn -0.700787 -0.000000 -0.708661
vn -0.748031 -0.000000 -0.661417
vn -0.700787 -0.000000 -0.708661
vn -0.062992 -0.000000 -1.000000
vn -0.070866 -0.000000 -1.000000
vn 0.110236 -0.000000 -0.992126
vn 0.118110 -0.000000 -0.992126
vn 1.000000 0.015748 -0.062992
vn 1.000000 -0.000000 -0.062992
vn 1.000000 -0.000000 -0.007874
vn -0.015748 -0.000000 -1.000000
vn -0.007874 0.015748 -1.000000
vn -0.015748 0.007874 -1.000000
vn -0.015748 -0.007874 -1.000000
vn -0.007874 -0.015748 -1.000000
vn 0.007874 -0.015748 -1.000000
vn 0.007874 -0.015748 -1.000000
vn 0.015748 -0.000000 -1.000000
vn 0.015748 -0.007874 -1.000000
vn 0.015748 0.007874 -1.000000
vn 0.007874 0.015748 -1.000000
vn 0.000000 -0.000000 -1.000000
vn 0.000000 -0.000000 -1.000000
vn 0.000000 -0.000000 -1.000000
vn 0.000000 -0.000000 -1.000000
vn 0.000000 -0.000000 -1.000000
vn 0.000000 -0.000000 -1.000000
vn 0.000000 -0.000000 -1.000000
vn 0.000000 -0.000000 -1.000000
vn 0.370079 0.905512 -0.196850
vn 0.007874 1.000000 -0.007874
vn -0.338583 0.929134 -0.157480
vn 0.929134 0.338583 -0.133858
vn -0.842520 0.519685 -0.141732
vn 1.000000 -0.007874 0.000000
vn -1.000000 0.007874 -0.000000
vn 0.842520 -0.519685 -0.141732
vn -0.929134 -0.338583 -0.133858
vn -0.007874 -1.000000 -0.007874
vn 0.275591 -0.944882 -0.188976
vn -0.370079 -0.905512 -0.196850
vn -0.771654 0.503937 -0.385827
vn -0.913386 -0.031496 -0.401575
vn -0.897638 -0.188976 -0.393701
vn -0.503937 -0.771653 -0.385827
vn -0.275591 0.858268 -0.425197
vn -0.346457 -0.834646 -0.433071
vn -0.196850 0.897638 -0.393701
vn 0.196850 -0.897638 -0.393701
vn 0.346457 0.834646 -0.433071
vn 0.464567 -0.771653 -0.425197
vn 0.503937 0.771653 -0.385827
vn 0.771654 -0.503937 -0.385827
vn 0.913386 0.031496 -0.401575
vn 0.897638 0.196850 -0.393701
vn 0.000000 -0.000000 -1.000000
vn 0.000000 -0.000000 -1.000000
vn 0.000000 -0.000000 -1.000000
vn 0.000000 -0.000000 -1.000000
vn 0.000000 -0.000000 -1.000000
vn 0.000000 -0.000000 -1.000000
vn 0.000000 -0.000000 -1.000000
vn 0.000000 -0.000000 -1.000000
vn 0.000000 -0.000000 -1.000000
vn 0.000000 -0.000000 -1.000000
vn 0.000000 -0.000000 -1.000000
vn 0.000000 -0.000000 -1.000000
tan 0.218240 -0.910906 -0.270072 1.000000
tan 0.328477 -0.726765 -0.539649 1.000000
tan 0.003968 -1.000000 -0.062992 1.000000
tan 0.070866 -1.000000 -0.001116 1.000000
tan 0.089094 -0.992126 -0.031248 1.000000
tan 0.062992 -1.000000 -0.000992 1.000000
tan 0.070866 -1.000000 0.001116 1.000000
tan 0.062992 -1.000000 0.015748 1.000000
tan 0.085932 -0.107818 0.992126 1.000000
tan -0.750945 -0.630541 0.171740 1.000000
tan 0.070866 -1.000000 0.001116 1.000000
tan 0.334491 -0.702461 0.560915 1.000000
tan 0.218240 -0.910906 0.270073 1.000000
tan 0.003968 -1.000000 0.062992 1.000000
tan -0.089528 -0.992126 0.078120 1.000000
tan 0.055118 -1.000000 0.015748 1.000000
tan -0.023436 -0.104222 0.992126 1.000000
tan 0.725401 -0.677041 0.096720 1.000000
tan 0.070866 -1.000000 0.000000 1.000000
tan 0.086614 -1.000000 0.000000 1.000000
tan 0.039370 -1.000000 0.000000 1.000000
tan 0.157480 -0.984252 0.000000 1.000000
tan -0.007874 -1.000000 0.000000 1.000000
tan 0.425197 -0.905512 0.013392 1.000000
tan 0.330709 -0.944882 0.000000 1.000000
tan 0.440945 -0.897638 0.013888 1.000000
tan 0.440945 -0.897638 0.010416 1.000000
tan 0.604501 -0.782751 0.116064 1.000000
tan 0.476161 -0.287804 0.810962 1.000000
tan 0.011408 -0.913386 0.409449 1.000000
tan 0.025792 -0.913386 0.409449 1.000000
tan -0.307087 -0.952756 0.009672 1.000000
tan -0.212598 -0.976378 0.000000 1.000000
tan -0.322835 -0.944882 0.010168 1.000000
tan -0.322835 -0.944882 0.007626 1.000000
tan -0.503751 -0.844752 0.096720 1.000000
tan -0.427367 -0.406721 0.777667 1.000000
tan -0.003844 -0.952756 0.299213 1.000000
tan -0.018848 -0.952756 0.299213 1.000000
tan -0.062992 0.000000 1.000000 1.000000
tan -0.062992 0.000000 1.000000 1.000000
tan -0.007874 0.000000 1.000000 1.000000
tan -0.992126 0.000000 0.118110 1.000000
tan -0.007874 0.000000 1.000000 1.000000
tan -0.992126 0.031248 0.110484 1.000000
tan -1.000000 -0.000000 -0.070866 1.000000
tan -0.078740 0.000620 0.931986 1.000000
tan -0.006696 0.004154 0.982516 1.000000
tan -1.000000 0.007874 -0.062992 1.000000
tan -0.708661 -0.000000 -0.700787 1.000000
tan -0.874946 0.468721 0.140368 1.000000
tan -0.007812 0.070308 0.875814 1.000000
tan 0.000000 0.007874 0.992126 1.000000
tan -0.708661 -0.000000 -0.708661 1.000000
tan -0.661417 -0.000000 -0.748031 1.000000
tan -0.708661 -0.000000 -0.700787 1.000000
tan -0.653543 0.015438 -0.744621 1.000000
tan -0.607353 0.768801 -0.236965 1.000000
tan -0.550189 0.404551 -0.720007 1.000000
tan -0.190402 0.622667 -0.724657 1.000000
tan -0.043524 0.921260 -0.384339 1.000000
tan -0.014322 0.606299 -0.782875 1.000000
tan 0.019344 0.614173 -0.755471 1.000000
tan 0.411433 0.515593 -0.739475 1.000000
tan 0.000000 0.047244 0.992126 1.000000
tan 0.000000 0.007874 0.937008 1.000000
tan 0.004712 0.149606 0.881022 1.000000
tan 0.007564 0.002108 0.931738 1.000000
tan 0.734329 0.671833 -0.138756 1.000000
tan 0.653543 0.015438 -0.736747 1.000000
tan 0.314961 0.012400 0.852316 1.000000
tan 0.007874 0.000000 1.000000 1.000000
tan 0.716535 -0.000000 -0.692913 1.000000
tan 0.708661 -0.000000 -0.700787 1.000000
tan 0.661417 -0.000000 -0.748031 1.000000
tan 0.708661 -0.000000 -0.700787 1.000000
tan 1.000000 0.047244 -0.062992 1.000000
tan 1.000000 -0.000000 -0.070866 1.000000
tan 0.992126 0.023436 0.110236 1.000000
tan 0.992126 0.000000 0.118110 1.000000
tan 0.062992 0.000000 1.000000 1.000000
tan 0.062992 0.000000 1.000000 1.000000
tan 0.007874 0.000000 1.000000 1.000000
tan 0.118110 -0.992126 -0.001860 1.000000
tan 0.118110 -0.992126 -0.016554 1.000000
tan 0.086614 -1.000000 -0.009238 1.000000
tan 0.173228 -0.984252 0.005022 1.000000
tan 0.204724 -0.976378 0.013764 1.000000
tan 0.110236 -0.992126 0.016492 1.000000
tan 0.094488 -0.992126 0.016368 1.000000
tan 0.118110 -0.992126 0.001860 1.000000
tan 0.086614 -1.000000 0.009238 1.000000
tan 0.173228 -0.984252 -0.005022 1.000000
tan 0.196850 -0.976378 -0.013826 1.000000
tan 0.141732 -0.992126 0.000000 1.000000
tan 0.141732 -0.992126 0.000000 1.000000
tan 0.141732 -0.992126 0.000000 1.000000
tan 0.141732 -0.992126 0.000000 1.000000
tan 0.141732 -0.992126 0.000000 1.000000
tan 0.141732 -0.992126 0.000000 1.000000
tan 0.141732 -0.992126 0.000000 1.000000
tan 0.141732 -0.992126 0.000000 1.000000
tan 0.727261 -0.415029 -0.541881 1.000000
tan 0.181102 -0.009176 -0.984252 1.000000
tan -0.365801 -0.278381 -0.855973 1.000000
tan 0.339637 -0.927026 0.012648 1.000000
tan -0.485833 -0.828136 -0.148490 1.000000
tan -0.007812 -0.992126 0.102362 1.000000
tan -0.007812 -0.992126 -0.094488 1.000000
tan -0.485833 -0.828136 0.148490 1.000000
tan 0.339637 -0.927026 -0.012648 1.000000
tan 0.188976 -0.009238 0.984252 1.000000
tan -0.305041 -0.267530 0.892802 1.000000
tan 0.727261 -0.415029 0.541881 1.000000
tan -0.351603 -0.756463 -0.284828 1.000000
tan 0.134602 -0.858454 -0.238824 1.000000
tan 0.210676 -0.897638 -0.049476 1.000000
tan 0.586335 -0.631905 0.497985 1.000000
tan -0.229710 -0.483415 -0.826896 1.000000
tan 0.282597 -0.523095 0.782070 1.000000
tan -0.021204 -0.398351 -0.897638 1.000000
tan -0.021204 -0.398351 0.897638 1.000000
tan 0.282597 -0.523095 -0.782069 1.000000
tan -0.406473 -0.606981 0.657449 1.000000
tan 0.586335 -0.634943 -0.504061 1.000000
tan -0.351603 -0.756463 0.284829 1.000000
tan 0.134602 -0.858454 0.238825 1.000000
tan 0.221650 -0.897638 0.056544 1.000000
tan 0.007874 -1.000000 0.000000 1.000000
tan 0.007874 -1.000000 0.000000 1.000000
tan 0.007874 -1.000000 0.000000 1.000000
tan 0.007874 -1.000000 0.000000 1.000000
tan 0.007874 -1.000000 0.000000 1.000000
tan 0.007874 -1.000000 0.000000 1.000000
tan 0.007874 -1.000000 0.000000 1.000000
tan 0.007874 -1.000000 0.000000 1.000000
tan 0.007874 -1.000000 0.000000 1.000000
tan 0.007874 -1.000000 0.000000 1.000000
tan 0.007874 -1.000000 0.000000 1.000000
tan 0.007874 -1.000000 0.000000 1.000000
f 3/3/3 2/2/2 1/1/1
f 4/4/4 1/1/1 2/2/2
f 3/3/3 5/5/5 2/2/2
f 2/2/2 6/6/6 4/4/4
f 6/6/6 2/2/2 5/5/5
f 7/7/7 4/4/4 6/6/6
f 5/5/5 8/8/8 6/6/6
f 9/9/9 8/8/8 5/5/5
f 10/10/10 8/8/8 9/9/9
f 6/6/6 11/11/11 7/7/7
f 12/12/12 7/7/7 11/11/11
f 13/13/13 7/7/7 12/12/12
f 12/12/12 14/14/14 13/13/13
f 14/14/14 12/12/12 15/15/15
f 12/12/12 11/11/11 15/15/15
f 11/11/11 6/6/6 16/16/16
f 11/11/11 16/16/16 15/15/15
f 6/6/6 8/8/8 16/16/16
f 16/16/16 17/17/17 15/15/15
f 18/18/18 17/17/17 16/16/16
f 19/19/19 16/16/16 8/8/8
f 19/19/19 8/8/8 20/20/20
f 19/19/19 21/21/21 16/16/16
f 20/20/20 8/8/8 22/22/22
f 21/21/21 23/23/23 16/16/16
f 24/24/24 22/22/22 8/8/8
f 8/8/8 10/10/10 24/24/24
f 22/22/22 24/24/24 25/25/25
f 25/25/25 24/24/24 26/26/26
f 26/26/26 24/24/24 27/27/27
f 28/28/28 27/27/27 24/24/24
f 29/29/29 24/24/24 10/10/10
f 24/24/24 29/29/29 28/28/28
f 10/10/10 30/30/30 29/29/29
f 31/31/31 28/28/28 29/29/29
f 31/31/31 29/29/29 30/30/30
f 16/16/16 23/23/23 32/32/32
f 16/16/16 32/32/32 18/18/18
f 33/33/33 32/32/32 23/23/23
f 33/33/33 34/34/34 32/32/32
f 34/34/34 35/35/35 32/32/32
f 36/36/36 32/32/32 35/35/35
f 37/37/37 18/18/18 32/32/32
f 32/32/32 36/36/36 37/37/37
f 18/18/18 37/37/37 38/38/38
f 39/39/39 37/37/37 36/36/36
f 39/39/39 38/38/38 37/37/37
f 42/42/42 41/41/41 40/40/40
f 43/43/43 40/40/40 41/41/41
f 41/41/41 42/42/42 44/44/44
f 41/41/41 45/45/45 43/43/43
f 46/46/46 43/43/43 45/45/45
f 41/41/41 44/44/44 47/47/47
f 47/47/47 45/45/45 41/41/41
f 48/48/48 47/47/47 44/44/44
f 45/45/45 49/49/49 46/46/46
f 50/50/50 46/46/46 49/49/49
f 45/45/45 47/47/47 51/51/51
f 51/51/51 49/49/49 45/45/45
f 47/47/47 48/48/48 52/52/52
f 51/51/51 47/47/47 52/52/52
f 48/48/48 53/53/53 52/52/52
f 49/49/49 54/54/54 50/50/50
f 51/51/51 54/54/54 49/49/49
f 55/55/55 50/50/50 54/54/54
f 56/56/56 55/55/55 54/54/54
f 56/56/56 54/54/54 57/57/57
f 58/58/58 54/54/54 51/51/51
f 58/58/58 57/57/57 54/54/54
f 52/52/52 58/58/58 51/51/51
f 57/57/57 58/58/58 59/59/59
f 59/59/59 58/58/58 60/60/60
f 61/61/61 60/60/60 58/58/58
f 58/58/58 52/52/52 61/61/61
f 61/61/61 62/62/62 60/60/60
f 62/62/62 61/61/61 63/63/63
f 64/64/64 63/63/63 61/61/61
f 65/65/65 52/52/52 53/53/53
f 65/65/65 61/61/61 52/52/52
f 66/66/66 65/65/65 53/53/53
f 65/65/65 66/66/66 67/67/67
f 61/61/61 65/65/65 67/67/67
f 68/68/68 67/67/67 66/66/66
f 64/64/64 61/61/61 69/69/69
f 69/69/69 61/61/61 67/67/67
f 69/69/69 70/70/70 64/64/64
f 71/71/71 67/67/67 68/68/68
f 69/69/69 67/67/67 71/71/71
f 68/68/68 72/72/72 71/71/71
f 69/69/69 73/73/73 70/70/70
f 74/74/74 70/70/70 73/73/73
f 74/74/74 73/73/73 75/75/75
f 76/76/76 75/75/75 73/73/73
f 77/77/77 73/73/73 69/69/69
f 73/73/73 77/77/77 76/76/76
f 69/69/69 71/71/71 77/77/77
f 78/78/78 76/76/76 77/77/77
f 79/79/79 78/78/78 77/77/77
f 71/71/71 79/79/79 77/77/77
f 80/80/80 78/78/78 79/79/79
f 81/81/81 79/79/79 71/71/71
f 79/79/79 81/81/81 80/80/80
f 72/72/72 81/81/81 71/71/71
f 82/82/82 80/80/80 81/81/81
f 72/72/72 83/83/83 81/81/81
f 82/82/82 81/81/81 83/83/83
f 86/86/86 85/85/85 84/84/84
f 86/86/86 84/84/84 87/87/87
f 84/84/84 88/88/88 87/87/87
f 88/88/88 90/90/90 89/89/89
f 90/90/90 91/91/91 89/89/89
f 92/92/92 89/89/89 91/91/91
f 92/92/92 91/91/91 93/93/93
f 91/91/91 94/94/94 93/93/93
f 97/97/97 96/96/96 95/95/95
f 96/96/96 98/98/98 95/95/95
f 99/99/99 95/95/95 98/98/98
f 99/99/99 100/100/100 95/95/95
f 101/101/101 95/95/95 100/100/100
f 102/102/102 95/95/95 101/101/101
f 105/105/105 104/104/104 103/103/103
f 103/103/103 104/104/104 106/106/106
f 105/105/105 107/107/107 104/104/104
f 108/108/108 106/106/106 104/104/104
f 109/109/109 104/104/104 107/107/107
f 106/106/106 108/108/108 110/110/110
f 111/111/111 109/109/109 107/107/107
f 108/108/108 112/112/112 110/110/110
f 109/109/109 111/111/111 112/112/112
f 113/113/113 110/110/110 112/112/112
f 114/114/114 112/112/112 111/111/111
f 113/113/113 112/112/112 114/114/114
f 117/117/117 116/116/116 115/115/115
f 116/116/116 117/117/117 118/118/118
f 119/119/119 115/115/115 116/116/116
f 116/116/116 118/118/118 120/120/120
f 119/119/119 121/121/121 115/115/115
f 122/122/122 120/120/120 118/118/118
f 119/119/119 123/123/123 121/121/121
f 124/124/124 120/120/120 122/122/122
f 121/121/121 123/123/123 125/125/125
f 124/124/124 122/122/122 126/126/126
f 127/127/127 125/125/125 123/123/123
f 124/124/124 126/126/126 127/127/127
f 127/127/127 128/128/128 125/125/125
f 128/128/128 127/127/127 126/126/126
f 131/131/131 130/130/130 129/129/129
f 131/131/131 129/129/129 132/132/132
f 131/131/131 132/132/132 133/133/133
f 134/134/134 133/133/133 132/132/132
f 137/137/137 136/136/136 135/135/135
f 138/138/138 135/135/135 136/136/136
f 136/136/136 139/139/139 138/138/138
f 136/136/136 140/140/140 139/139/139
