mtllib SM_Mast_Bridge_LOD1@000002909DC04800.mtl
g SM_Mast_Bridge_LOD1@000002909DC04800
#Vertices 206
#Indices 324
#Section 0 Offset 0 NumIndices 240 MaterialIndex 0 MI_BrickTile_C_01
#Section 1 Offset 240 NumIndices 78 MaterialIndex 1 MI_BrickTile_C_01
#Section 2 Offset 318 NumIndices 6 MaterialIndex 2 MI_FloorTile_A_01
v 5.929991 3.023132 2.014750 0.000000 0.000000 1.000000 1.000000
v 7.125390 3.622037 2.486169 0.000000 0.000000 1.000000 1.000000
v 5.999999 3.492380 3.000409 0.000000 0.000000 1.000000 1.000000
v 9.000000 2.885485 -3.066584 0.000000 0.000000 1.000000 0.298039
v 8.000000 3.492380 -2.998770 0.000000 0.000000 1.000000 0.000000
v 8.000000 2.512351 -2.998770 0.000000 0.000000 1.000000 0.000000
v 7.125390 3.622037 2.486169 0.000000 0.000000 1.000000 1.000000
v 6.511957 2.513933 3.045426 0.000000 0.000000 1.000000 1.000000
v 5.999999 3.492380 3.000409 0.000000 0.000000 1.000000 1.000000
v 8.999999 2.936802 3.124633 0.000000 0.000000 1.000000 1.000000
v 7.999999 2.512351 3.000409 0.000000 0.000000 1.000000 1.000000
v 7.999999 3.492380 3.000409 0.000000 0.000000 1.000000 1.000000
v 6.999999 2.512351 2.000410 0.000000 0.000000 1.000000 1.000000
v 6.511957 2.513933 3.045426 0.000000 0.000000 1.000000 1.000000
v 7.125390 3.622037 2.486169 0.000000 0.000000 1.000000 1.000000
v 7.966152 3.059131 1.976123 0.000000 0.000000 1.000000 1.000000
v 7.999999 3.492380 3.000409 0.000000 0.000000 1.000000 1.000000
v 7.999999 2.512351 3.000409 0.000000 0.000000 1.000000 1.000000
v 8.009730 2.971677 -2.028169 0.000000 0.000000 1.000000 0.000000
v 8.000000 2.512351 -2.998770 0.000000 0.000000 1.000000 0.000000
v 8.000000 3.492380 -2.998770 0.000000 0.000000 1.000000 0.000000
v 3.874743 3.617180 2.506002 0.000000 0.000000 1.000000 1.000000
v 5.033048 3.056584 1.951371 0.000000 0.000000 1.000000 1.000000
v 4.999999 3.492380 3.000409 0.000000 0.000000 1.000000 1.000000
v -0.000001 2.885485 -3.066584 0.000000 0.000000 1.000000 1.000000
v 0.999999 2.512351 -2.998770 0.000000 0.000000 1.000000 1.000000
v 0.999999 3.492380 -2.998770 0.000000 0.000000 1.000000 1.000000
v 3.522544 2.514737 -2.981930 0.000000 0.000000 1.000000 1.000000
v 2.440010 3.670413 -3.115022 0.000000 0.000000 1.000000 1.000000
v 1.999999 2.512351 -2.998770 0.000000 0.000000 1.000000 1.000000
v 4.499177 2.511546 3.018645 0.000000 0.000000 1.000000 1.000000
v 3.874743 3.617180 2.506002 0.000000 0.000000 1.000000 1.000000
v 4.999999 3.492380 3.000409 0.000000 0.000000 1.000000 1.000000
v 2.503850 2.498653 3.040102 0.000000 0.000000 1.000000 1.000000
v 1.999999 3.492380 3.000409 0.000000 0.000000 1.000000 1.000000
v 2.999999 3.492380 3.000409 0.000000 0.000000 1.000000 1.000000
v 0.999999 2.512351 3.000409 0.000000 0.000000 1.000000 1.000000
v -0.000001 2.936802 3.124633 0.000000 0.000000 1.000000 1.000000
v 0.999999 3.492380 3.000409 0.000000 0.000000 1.000000 1.000000
v 1.533194 3.019397 1.949670 0.000000 0.000000 1.000000 1.000000
v 2.503850 2.498653 3.040102 0.000000 0.000000 1.000000 1.000000
v 0.999999 2.512351 3.000409 0.000000 0.000000 1.000000 1.000000
v 5.929991 3.023132 2.014750 0.000000 0.000000 1.000000 1.000000
v 5.999999 3.492380 3.000409 0.000000 0.000000 1.000000 1.000000
v 6.511957 2.513933 3.045426 0.000000 0.000000 1.000000 1.000000
v 5.033048 3.056584 1.951371 0.000000 0.000000 1.000000 1.000000
v 4.499177 2.511546 3.018645 0.000000 0.000000 1.000000 1.000000
v 4.999999 3.492380 3.000409 0.000000 0.000000 1.000000 1.000000
v 3.999999 2.512351 2.000410 0.000000 0.000000 1.000000 0.000000
v 3.874743 3.617180 2.506002 0.000000 0.000000 1.000000 1.000000
v 4.499177 2.511546 3.018645 0.000000 0.000000 1.000000 1.000000
v 2.972513 3.071272 1.966715 0.000000 0.000000 1.000000 1.000000
v 2.503850 2.498653 3.040102 0.000000 0.000000 1.000000 1.000000
v 2.999999 3.492380 3.000409 0.000000 0.000000 1.000000 1.000000
v 1.533194 3.019397 1.949670 0.000000 0.000000 1.000000 1.000000
v 1.999999 3.492380 3.000409 0.000000 0.000000 1.000000 1.000000
v 2.503850 2.498653 3.040102 0.000000 0.000000 1.000000 1.000000
v 1.533194 3.019397 1.949670 0.000000 0.000000 1.000000 1.000000
v 0.999999 2.512351 3.000409 0.000000 0.000000 1.000000 1.000000
v 0.999999 3.492380 3.000409 0.000000 0.000000 1.000000 1.000000
v 5.999999 2.512351 -2.998770 0.000000 0.000000 1.000000 0.000000
v 5.999999 3.492380 -2.998770 0.000000 0.000000 1.000000 0.000000
v 5.999999 3.002365 -1.998770 0.000000 0.000000 1.000000 0.000000
v 4.999999 3.492380 -2.998770 0.000000 0.000000 1.000000 0.000000
v 4.999999 2.512351 -2.998770 0.000000 0.000000 1.000000 0.588235
v 5.005703 2.952219 -2.061846 0.000000 0.000000 1.000000 0.411765
v 3.522544 2.514737 -2.981930 0.000000 0.000000 1.000000 1.000000
v 3.999999 3.492380 -2.998770 0.000000 0.000000 1.000000 1.000000
v 3.547200 3.049918 -2.058763 0.000000 0.000000 1.000000 1.000000
v 2.440010 3.670413 -3.115022 0.000000 0.000000 1.000000 1.000000
v 3.522544 2.514737 -2.981930 0.000000 0.000000 1.000000 1.000000
v 3.547200 3.049918 -2.058763 0.000000 0.000000 1.000000 1.000000
v 1.966926 3.056602 -1.949712 0.000000 0.000000 1.000000 1.000000
v 2.440010 3.670413 -3.115022 0.000000 0.000000 1.000000 1.000000
v 3.547200 3.049918 -2.058763 0.000000 0.000000 1.000000 1.000000
v 1.999999 2.512351 -2.998770 0.000000 0.000000 1.000000 1.000000
v 2.440010 3.670413 -3.115022 0.000000 0.000000 1.000000 1.000000
v 1.966926 3.056602 -1.949712 0.000000 0.000000 1.000000 1.000000
v 0.999999 3.492380 -2.998770 0.000000 0.000000 1.000000 1.000000
v 0.999999 2.512351 -2.998770 0.000000 0.000000 1.000000 1.000000
v 1.003683 2.924349 -2.080351 0.000000 0.000000 1.000000 1.000000
v 7.966152 3.059131 1.976123 0.000000 0.000000 1.000000 1.000000
v 8.999999 3.492380 2.000409 0.000000 0.000000 1.000000 1.000000
v 8.999999 2.936802 3.124633 0.000000 0.000000 1.000000 1.000000
v 7.999999 3.492380 3.000409 0.000000 0.000000 1.000000 1.000000
v 7.966152 3.059131 1.976123 0.000000 0.000000 1.000000 1.000000
v 7.999999 2.512351 3.000409 0.000000 0.000000 1.000000 1.000000
v 6.999999 2.512351 2.000410 0.000000 0.000000 1.000000 1.000000
v 6.511957 2.513933 3.045426 0.000000 0.000000 1.000000 1.000000
v 5.999999 3.492380 -2.998770 0.000000 0.000000 1.000000 0.000000
v 6.999999 3.492380 -2.998770 0.000000 0.000000 1.000000 0.000000
v 6.999999 3.492380 -1.998770 0.000000 0.000000 1.000000 0.000000
v 5.999999 3.002365 -1.998770 0.000000 0.000000 1.000000 0.000000
v 6.999999 2.512351 -1.998770 0.000000 0.000000 1.000000 0.000000
v 6.999999 3.492380 -2.998770 0.000000 0.000000 1.000000 0.000000
v 6.999999 2.512351 -2.998770 0.000000 0.000000 1.000000 0.000000
v 6.999999 3.492380 -1.998770 0.000000 0.000000 1.000000 0.000000
v 8.000000 3.492380 -2.998770 0.000000 0.000000 1.000000 0.000000
v 9.000000 2.885485 -3.066584 0.000000 0.000000 1.000000 0.298039
v 9.000000 3.492380 -1.998770 0.000000 0.000000 1.000000 1.000000
v 8.009730 2.971677 -2.028169 0.000000 0.000000 1.000000 0.000000
v 6.999999 2.512351 -2.998770 0.000000 0.000000 1.000000 0.000000
v 8.009730 2.971677 -2.028169 0.000000 0.000000 1.000000 0.000000
v 6.999999 2.512351 -1.998770 0.000000 0.000000 1.000000 0.000000
v 8.000000 2.512351 -2.998770 0.000000 0.000000 1.000000 0.000000
v 2.972513 3.071272 1.966715 0.000000 0.000000 1.000000 1.000000
v 1.999999 3.492380 3.000409 0.000000 0.000000 1.000000 1.000000
v 1.533194 3.019397 1.949670 0.000000 0.000000 1.000000 1.000000
v 2.999999 3.492380 3.000409 0.000000 0.000000 1.000000 1.000000
v 1.533194 3.019397 1.949670 0.000000 0.000000 1.000000 1.000000
v -0.000001 2.936802 3.124633 0.000000 0.000000 1.000000 1.000000
v -0.000001 3.492380 2.000409 0.000000 0.000000 1.000000 1.000000
v 0.999999 3.492380 3.000409 0.000000 0.000000 1.000000 1.000000
v 3.999999 3.492380 -2.998770 0.000000 0.000000 1.000000 1.000000
v 4.999999 2.512351 -2.998770 0.000000 0.000000 1.000000 0.588235
v 4.999999 3.492380 -2.998770 0.000000 0.000000 1.000000 0.000000
v 3.522544 2.514737 -2.981930 0.000000 0.000000 1.000000 1.000000
v 5.033048 3.056584 1.951371 0.000000 0.000000 1.000000 1.000000
v 5.929991 3.023132 2.014750 0.000000 0.000000 1.000000 1.000000
v 4.499177 2.511546 3.018645 0.000000 0.000000 1.000000 1.000000
v 6.511957 2.513933 3.045426 0.000000 0.000000 1.000000 1.000000
v 2.972513 3.071272 1.966715 0.000000 0.000000 1.000000 1.000000
v 3.999999 2.512351 2.000410 0.000000 0.000000 1.000000 0.000000
v 2.503850 2.498653 3.040102 0.000000 0.000000 1.000000 1.000000
v 4.499177 2.511546 3.018645 0.000000 0.000000 1.000000 1.000000
v 4.999999 3.492380 -2.998770 0.000000 0.000000 1.000000 0.000000
v 3.547200 3.049918 -2.058763 0.000000 0.000000 1.000000 1.000000
v 3.999999 3.492380 -2.998770 0.000000 0.000000 1.000000 1.000000
v 5.005703 2.952219 -2.061846 0.000000 0.000000 1.000000 0.411765
v 0.999999 2.512351 -2.998770 0.000000 0.000000 1.000000 1.000000
v 1.999999 2.512351 -2.998770 0.000000 0.000000 1.000000 1.000000
v 1.003683 2.924349 -2.080351 0.000000 0.000000 1.000000 1.000000
v 1.966926 3.056602 -1.949712 0.000000 0.000000 1.000000 1.000000
v 0.999999 3.492380 -2.998770 0.000000 0.000000 1.000000 1.000000
v -0.000001 3.492380 -1.998770 0.000000 0.000000 1.000000 1.000000
v -0.000001 2.885485 -3.066584 0.000000 0.000000 1.000000 1.000000
v 1.003683 2.924349 -2.080351 0.000000 0.000000 1.000000 1.000000
v 5.999999 2.512351 -2.998770 0.000000 0.000000 1.000000 0.000000
v 5.005703 2.952219 -2.061846 0.000000 0.000000 1.000000 0.411765
v 4.999999 2.512351 -2.998770 0.000000 0.000000 1.000000 0.588235
v 5.999999 3.002365 -1.998770 0.000000 0.000000 1.000000 0.000000
v 6.999999 3.492380 -2.998770 0.000000 0.000000 1.000000 0.000000
v 5.999999 3.492380 -2.998770 0.000000 0.000000 1.000000 0.000000
v 6.999999 2.512351 -2.998770 0.000000 0.000000 1.000000 0.000000
v 5.999999 2.512351 -2.998770 0.000000 0.000000 1.000000 0.000000
v 8.999999 3.492380 2.000409 0.000000 0.000000 1.000000 1.000000
v 7.966152 3.059131 1.976123 0.000000 0.000000 1.000000 1.000000
v 8.999998 1.637554 2.000209 0.000000 0.000000 1.000000 1.000000
v 0.000000 1.637553 2.000211 0.000000 0.000000 1.000000 1.000000
v 6.999999 2.512351 2.000410 0.000000 0.000000 1.000000 1.000000
v 7.125390 3.622037 2.486169 0.000000 0.000000 1.000000 1.000000
v 5.929991 3.023132 2.014750 0.000000 0.000000 1.000000 1.000000
v 5.033048 3.056584 1.951371 0.000000 0.000000 1.000000 1.000000
v 3.874743 3.617180 2.506002 0.000000 0.000000 1.000000 1.000000
v 3.999999 2.512351 2.000410 0.000000 0.000000 1.000000 0.000000
v 2.972513 3.071272 1.966715 0.000000 0.000000 1.000000 1.000000
v 1.533194 3.019397 1.949670 0.000000 0.000000 1.000000 1.000000
v -0.000001 3.492380 2.000409 0.000000 0.000000 1.000000 1.000000
v 9.000000 1.637556 -1.998770 0.000000 0.000000 1.000000 0.000000
v 8.009730 2.971677 -2.028169 0.000000 0.000000 1.000000 0.000000
v 9.000000 3.492380 -1.998770 0.000000 0.000000 1.000000 1.000000
v -0.000000 1.637555 -1.998769 0.000000 0.000000 1.000000 1.000000
v 6.999999 2.512351 -1.998770 0.000000 0.000000 1.000000 0.000000
v 5.999999 3.002365 -1.998770 0.000000 0.000000 1.000000 0.000000
v 6.999999 3.492380 -1.998770 0.000000 0.000000 1.000000 0.000000
v 5.005703 2.952219 -2.061846 0.000000 0.000000 1.000000 0.411765
v 3.547200 3.049918 -2.058763 0.000000 0.000000 1.000000 1.000000
v 1.966926 3.056602 -1.949712 0.000000 0.000000 1.000000 1.000000
v 1.003683 2.924349 -2.080351 0.000000 0.000000 1.000000 1.000000
v -0.000001 3.492380 -1.998770 0.000000 0.000000 1.000000 1.000000
v 8.999999 -3.492383 -2.999589 0.000000 0.000000 1.000000 0.294118
v 9.000000 2.885485 -3.066584 0.000000 0.000000 1.000000 0.298039
v 7.999999 -3.492383 -2.999589 0.000000 0.000000 1.000000 0.000000
v 4.999999 2.512351 -2.998770 0.000000 0.000000 1.000000 0.588235
v 4.999999 -3.492383 -2.999589 0.000000 0.000000 1.000000 0.000000
v 5.999999 2.512351 -2.998770 0.000000 0.000000 1.000000 0.000000
v 5.999999 -3.492383 -3.000409 0.000000 0.000000 1.000000 0.000000
v 6.999999 2.512351 -2.998770 0.000000 0.000000 1.000000 0.000000
v 7.999999 -3.492383 -2.999589 0.000000 0.000000 1.000000 0.000000
v 8.000000 2.512351 -2.998770 0.000000 0.000000 1.000000 0.000000
v 6.999999 -3.492383 -3.000409 0.000000 0.000000 1.000000 0.000000
v 5.999999 2.512351 -2.998770 0.000000 0.000000 1.000000 0.000000
v 5.999999 -3.492383 -3.000409 0.000000 0.000000 1.000000 0.000000
v 6.999999 2.512351 -2.998770 0.000000 0.000000 1.000000 0.000000
v 6.999999 -3.492383 -3.000409 0.000000 0.000000 1.000000 0.000000
v -0.000001 -3.492383 -2.999589 0.000000 0.000000 1.000000 1.000000
v -0.000000 -3.492383 3.000409 0.000000 0.000000 1.000000 1.000000
v 4.999999 -3.492383 -2.999589 0.000000 0.000000 1.000000 0.000000
v 8.999996 -3.492382 3.000410 0.000000 0.000000 1.000000 1.000000
v 5.999999 -3.492383 -3.000409 0.000000 0.000000 1.000000 0.000000
v 6.999999 -3.492383 -3.000409 0.000000 0.000000 1.000000 0.000000
v 7.999999 -3.492383 -2.999589 0.000000 0.000000 1.000000 0.000000
v 8.999999 -3.492383 -2.999589 0.000000 0.000000 1.000000 0.294118
v 3.522544 2.514737 -2.981930 0.000000 0.000000 1.000000 1.000000
v 4.999999 -3.492383 -2.999589 0.000000 0.000000 1.000000 0.000000
v -0.000001 -3.492383 -2.999589 0.000000 0.000000 1.000000 1.000000
v -0.000001 2.885485 -3.066584 0.000000 0.000000 1.000000 1.000000
v 8.999999 2.936802 3.124633 0.000000 0.000000 1.000000 1.000000
v 8.999996 -3.492382 3.000410 0.000000 0.000000 1.000000 1.000000
v 6.511957 2.513933 3.045426 0.000000 0.000000 1.000000 1.000000
v -0.000000 -3.492383 3.000409 0.000000 0.000000 1.000000 1.000000
v 2.503850 2.498653 3.040102 0.000000 0.000000 1.000000 1.000000
v 0.000000 1.637553 2.000211 0.000000 0.000000 1.000000 1.000000
v -0.000000 1.637555 -1.998769 0.000000 0.000000 1.000000 1.000000
v 8.999998 1.637554 2.000209 0.000000 0.000000 1.000000 1.000000
v 9.000000 1.637556 -1.998770 0.000000 0.000000 1.000000 0.000000
vt 1.409180 0.831543
vt 1.256836 0.766846
vt 1.400391 0.708496
vt 0.684082 2.559570
vt 0.559082 2.634766
vt 0.559082 2.512695
vt 0.449951 0.120605
vt 0.373047 0.262207
vt 0.309082 0.139648
vt 0.684082 0.208984
vt 0.559082 0.262207
vt 0.559082 0.139648
vt 1.152344 0.833374
vt 1.153320 0.702881
vt 1.293945 0.778320
vt 0.959473 0.836304
vt 0.905273 0.708252
vt 1.027344 0.708496
vt 2.697266 0.695068
vt 2.638672 0.573975
vt 2.761719 0.573975
vt 1.913086 0.765259
vt 1.766602 0.839478
vt 1.770508 0.708496
vt -0.440674 2.559570
vt -0.315674 2.512695
vt -0.315674 2.635742
vt -0.000388 2.512695
vt -0.135620 2.657227
vt -0.190674 2.512695
vt 0.121582 0.262207
vt 0.043671 0.123047
vt 0.184204 0.139648
vt -0.127686 0.263672
vt -0.190552 0.139648
vt -0.065552 0.139648
vt -0.315674 0.262207
vt -0.440674 0.208984
vt -0.315674 0.139160
vt 2.580078 0.847656
vt 2.449219 0.703369
vt 2.636719 0.708496
vt 1.458984 0.831543
vt 1.400391 0.708496
vt 1.522461 0.698242
vt 1.715820 0.839478
vt 1.647461 0.704102
vt 1.770508 0.708496
vt 2.017578 0.833374
vt 1.877930 0.776367
vt 2.017578 0.706299
vt 2.212891 0.837646
vt 2.140625 0.705078
vt 2.265625 0.708496
vt 2.431641 0.851318
vt 2.390625 0.708496
vt 2.513672 0.701416
vt 2.701172 0.842529
vt 2.636719 0.708496
vt 2.759766 0.708496
vt 2.144531 0.573730
vt 2.267578 0.573730
vt 2.205078 0.698730
vt 1.897461 0.573730
vt 2.019531 0.573730
vt 1.964844 0.690918
vt 1.650391 0.577637
vt 1.772461 0.573730
vt 1.697266 0.685059
vt 1.352539 0.550537
vt 1.524414 0.575684
vt 1.487305 0.672852
vt 1.273438 0.704834
vt 1.337891 0.553711
vt 1.440430 0.691162
vt 1.154297 0.573730
vt 1.299805 0.557373
vt 1.222656 0.704834
vt 0.907227 0.573730
vt 1.029297 0.573730
vt 0.978516 0.688477
vt 0.898438 0.824829
vt 0.780273 0.833252
vt 0.780273 0.692871
vt 0.905273 0.708252
vt 1.032227 0.836304
vt 1.027344 0.708496
vt 1.152344 0.833374
vt 1.213867 0.702881
vt 2.267578 0.573730
vt 2.392578 0.573730
vt 2.392578 0.698730
vt 2.267578 0.698730
vt 2.513672 0.698730
vt 2.392578 0.573730
vt 2.513672 0.573730
vt 2.392578 0.698730
vt 2.761719 0.573975
vt 2.886719 0.565430
vt 2.886719 0.698975
vt 2.763672 0.695312
vt 2.513672 0.573730
vt 2.640625 0.695068
vt 2.513672 0.698730
vt 2.638672 0.573975
vt 2.277344 0.846680
vt 2.390625 0.708496
vt 2.441406 0.825562
vt 2.265625 0.708496
vt 2.712891 0.826904
vt 2.884766 0.693115
vt 2.884766 0.833496
vt 2.759766 0.708496
vt 0.059296 2.634766
vt 0.184204 2.512695
vt 0.184204 2.634766
vt -0.000402 2.512695
vt 1.643555 0.839478
vt 1.542969 0.843018
vt 1.707031 0.703369
vt 1.458984 0.704590
vt 2.146484 0.837646
vt 2.017578 0.833374
vt 2.199219 0.698486
vt 1.955078 0.706055
vt 1.897461 0.573730
vt 1.722656 0.696045
vt 1.772461 0.573730
vt 1.874023 0.690918
vt 1.029297 0.573730
vt 1.154297 0.573730
vt 1.041016 0.699219
vt 1.150391 0.704834
vt 0.907227 0.573730
vt 0.782227 0.698730
vt 0.782227 0.565186
vt 0.907715 0.688477
vt 2.144531 0.573730
vt 2.031250 0.701416
vt 2.019531 0.573730
vt 2.144531 0.698730
vt 0.434082 2.634766
vt 0.309082 2.634766
vt 0.434082 2.512695
vt 0.309082 2.512695
vt 2.152344 0.271973
vt 2.023438 0.217773
vt 2.152344 0.040039
vt 1.028320 0.040527
vt 1.903320 0.149414
vt 1.918945 0.288086
vt 1.769531 0.213379
vt 1.658203 0.217773
vt 1.509766 0.287598
vt 1.528320 0.149414
vt 1.400391 0.218750
vt 1.220703 0.212402
vt 1.028320 0.272461
vt 1.030273 0.282715
vt 1.154297 0.449219
vt 1.030273 0.514160
vt 2.154297 0.282715
vt 1.280273 0.392090
vt 1.405273 0.453125
vt 1.280273 0.514404
vt 1.529297 0.446289
vt 1.711914 0.458008
vt 1.909180 0.459961
vt 2.029297 0.443359
vt 2.154297 0.514404
vt 0.684082 1.762207
vt 0.684082 2.559570
vt 0.559082 1.762207
vt 0.184204 2.512695
vt 0.184204 1.762207
vt 0.309082 2.512695
vt 0.309082 1.762207
vt 0.434082 2.512695
vt 0.559082 1.762207
vt 0.559082 2.512695
vt 0.434082 1.762207
vt 0.309082 2.512695
vt 0.309082 1.762207
vt 0.434082 2.512695
vt 0.434082 1.762207
vt -0.440674 1.762207
vt -0.440674 1.012459
vt 0.184204 1.762207
vt 0.684082 1.012474
vt 0.309082 1.762207
vt 0.434082 1.762207
vt 0.559082 1.762207
vt 0.684082 1.762207
vt -0.000418 2.512695
vt 0.184082 1.762207
vt -0.440674 1.762207
vt -0.440674 2.559570
vt 0.684082 0.208984
vt 0.684082 1.012489
vt 0.373047 0.262207
vt -0.440674 1.012413
vt -0.127686 0.263672
vt 1.206055 1.278320
vt 1.706055 1.278320
vt 1.206055 2.403320
vt 1.706055 2.403320
vt1 1.409180 0.831543
vt1 1.256836 0.766846
vt1 1.400391 0.708496
vt1 0.684082 2.559570
vt1 0.559082 2.634766
vt1 0.559082 2.512695
vt1 0.449951 0.120605
vt1 0.373047 0.262207
vt1 0.309082 0.139648
vt1 0.684082 0.208984
vt1 0.559082 0.262207
vt1 0.559082 0.139648
vt1 1.152344 0.833374
vt1 1.153320 0.702881
vt1 1.293945 0.778320
vt1 0.959473 0.836304
vt1 0.905273 0.708252
vt1 1.027344 0.708496
vt1 2.697266 0.695068
vt1 2.638672 0.573975
vt1 2.761719 0.573975
vt1 1.913086 0.765259
vt1 1.766602 0.839478
vt1 1.770508 0.708496
vt1 -0.440674 2.559570
vt1 -0.315674 2.512695
vt1 -0.315674 2.635742
vt1 -0.000388 2.512695
vt1 -0.135620 2.657227
vt1 -0.190674 2.512695
vt1 0.121582 0.262207
vt1 0.043671 0.123047
vt1 0.184204 0.139648
vt1 -0.127686 0.263672
vt1 -0.190552 0.139648
vt1 -0.065552 0.139648
vt1 -0.315674 0.262207
vt1 -0.440674 0.208984
vt1 -0.315674 0.139160
vt1 2.580078 0.847656
vt1 2.449219 0.703369
vt1 2.636719 0.708496
vt1 1.458984 0.831543
vt1 1.400391 0.708496
vt1 1.522461 0.698242
vt1 1.715820 0.839478
vt1 1.647461 0.704102
vt1 1.770508 0.708496
vt1 2.017578 0.833374
vt1 1.877930 0.776367
vt1 2.017578 0.706299
vt1 2.212891 0.837646
vt1 2.140625 0.705078
vt1 2.265625 0.708496
vt1 2.431641 0.851318
vt1 2.390625 0.708496
vt1 2.513672 0.701416
vt1 2.701172 0.842529
vt1 2.636719 0.708496
vt1 2.759766 0.708496
vt1 2.144531 0.573730
vt1 2.267578 0.573730
vt1 2.205078 0.698730
vt1 1.897461 0.573730
vt1 2.019531 0.573730
vt1 1.964844 0.690918
vt1 1.650391 0.577637
vt1 1.772461 0.573730
vt1 1.697266 0.685059
vt1 1.352539 0.550537
vt1 1.524414 0.575684
vt1 1.487305 0.672852
vt1 1.273438 0.704834
vt1 1.337891 0.553711
vt1 1.440430 0.691162
vt1 1.154297 0.573730
vt1 1.299805 0.557373
vt1 1.222656 0.704834
vt1 0.907227 0.573730
vt1 1.029297 0.573730
vt1 0.978516 0.688477
vt1 0.898438 0.824829
vt1 0.780273 0.833252
vt1 0.780273 0.692871
vt1 0.905273 0.708252
vt1 1.032227 0.836304
vt1 1.027344 0.708496
vt1 1.152344 0.833374
vt1 1.213867 0.702881
vt1 2.267578 0.573730
vt1 2.392578 0.573730
vt1 2.392578 0.698730
vt1 2.267578 0.698730
vt1 2.513672 0.698730
vt1 2.392578 0.573730
vt1 2.513672 0.573730
vt1 2.392578 0.698730
vt1 2.761719 0.573975
vt1 2.886719 0.565430
vt1 2.886719 0.698975
vt1 2.763672 0.695312
vt1 2.513672 0.573730
vt1 2.640625 0.695068
vt1 2.513672 0.698730
vt1 2.638672 0.573975
vt1 2.277344 0.846680
vt1 2.390625 0.708496
vt1 2.441406 0.825562
vt1 2.265625 0.708496
vt1 2.712891 0.826904
vt1 2.884766 0.693115
vt1 2.884766 0.833496
vt1 2.759766 0.708496
vt1 0.059296 2.634766
vt1 0.184204 2.512695
vt1 0.184204 2.634766
vt1 -0.000402 2.512695
vt1 1.643555 0.839478
vt1 1.542969 0.843018
vt1 1.707031 0.703369
vt1 1.458984 0.704590
vt1 2.146484 0.837646
vt1 2.017578 0.833374
vt1 2.199219 0.698486
vt1 1.955078 0.706055
vt1 1.897461 0.573730
vt1 1.722656 0.696045
vt1 1.772461 0.573730
vt1 1.874023 0.690918
vt1 1.029297 0.573730
vt1 1.154297 0.573730
vt1 1.041016 0.699219
vt1 1.150391 0.704834
vt1 0.907227 0.573730
vt1 0.782227 0.698730
vt1 0.782227 0.565186
vt1 0.907715 0.688477
vt1 2.144531 0.573730
vt1 2.031250 0.701416
vt1 2.019531 0.573730
vt1 2.144531 0.698730
vt1 0.434082 2.634766
vt1 0.309082 2.634766
vt1 0.434082 2.512695
vt1 0.309082 2.512695
vt1 2.152344 0.271973
vt1 2.023438 0.217773
vt1 2.152344 0.040039
vt1 1.028320 0.040527
vt1 1.903320 0.149414
vt1 1.918945 0.288086
vt1 1.769531 0.213379
vt1 1.658203 0.217773
vt1 1.509766 0.287598
vt1 1.528320 0.149414
vt1 1.400391 0.218750
vt1 1.220703 0.212402
vt1 1.028320 0.272461
vt1 1.030273 0.282715
vt1 1.154297 0.449219
vt1 1.030273 0.514160
vt1 2.154297 0.282715
vt1 1.280273 0.392090
vt1 1.405273 0.453125
vt1 1.280273 0.514404
vt1 1.529297 0.446289
vt1 1.711914 0.458008
vt1 1.909180 0.459961
vt1 2.029297 0.443359
vt1 2.154297 0.514404
vt1 0.684082 1.762207
vt1 0.684082 2.559570
vt1 0.559082 1.762207
vt1 0.184204 2.512695
vt1 0.184204 1.762207
vt1 0.309082 2.512695
vt1 0.309082 1.762207
vt1 0.434082 2.512695
vt1 0.559082 1.762207
vt1 0.559082 2.512695
vt1 0.434082 1.762207
vt1 0.309082 2.512695
vt1 0.309082 1.762207
vt1 0.434082 2.512695
vt1 0.434082 1.762207
vt1 -0.440674 1.762207
vt1 -0.440674 1.012459
vt1 0.184204 1.762207
vt1 0.684082 1.012474
vt1 0.309082 1.762207
vt1 0.434082 1.762207
vt1 0.559082 1.762207
vt1 0.684082 1.762207
vt1 -0.000418 2.512695
vt1 0.184082 1.762207
vt1 -0.440674 1.762207
vt1 -0.440674 2.559570
vt1 0.684082 0.208984
vt1 0.684082 1.012489
vt1 0.373047 0.262207
vt1 -0.440674 1.012413
vt1 -0.127686 0.263672
vt1 1.206055 1.278320
vt1 1.706055 1.278320
vt1 1.206055 2.403320
vt1 1.706055 2.403320
vn 0.000000 1.000000 -0.000000
vn 0.000000 1.000000 -0.000000
vn 0.000000 1.000000 -0.000000
vn 0.000000 -0.000000 -1.000000
vn 0.000000 -0.000000 -1.000000
vn 0.000000 -0.000000 -1.000000
vn 0.000000 0.000000 1.000000
vn 0.000000 0.000000 1.000000
vn 0.000000 0.000000 1.000000
vn 0.000000 0.000000 1.000000
vn 0.000000 0.000000 1.000000
vn 0.000000 0.000000 1.000000
vn 1.000000 0.000000 0.000000
vn 1.000000 0.000000 0.000000
vn 1.000000 0.000000 0.000000
vn -1.000000 0.000000 0.000000
vn -1.000000 0.000000 0.000000
vn -1.000000 0.000000 0.000000
vn -1.000000 0.000000 0.000000
vn -1.000000 0.000000 0.000000
vn -1.000000 0.000000 0.000000
vn 0.000000 1.000000 -0.000000
vn 0.000000 1.000000 -0.000000
vn 0.000000 1.000000 -0.000000
vn 0.000000 -0.000000 -1.000000
vn 0.000000 -0.000000 -1.000000
vn 0.000000 -0.000000 -1.000000
vn 0.000000 -0.000000 -1.000000
vn 0.000000 -0.000000 -1.000000
vn 0.000000 -0.000000 -1.000000
vn 0.000000 0.000000 1.000000
vn 0.000000 0.000000 1.000000
vn 0.000000 0.000000 1.000000
vn 0.000000 0.000000 1.000000
vn 0.000000 0.000000 1.000000
vn 0.000000 0.000000 1.000000
vn 0.000000 0.000000 1.000000
vn 0.000000 0.000000 1.000000
vn 0.000000 0.000000 1.000000
vn 0.000000 1.000000 -0.000000
vn 0.000000 1.000000 -0.000000
vn 0.000000 1.000000 -0.000000
vn -1.000000 0.000000 0.000000
vn -1.000000 0.000000 0.000000
vn -1.000000 0.000000 0.000000
vn 1.000000 0.000000 0.000000
vn 1.000000 0.000000 0.000000
vn 1.000000 0.000000 0.000000
vn -1.000000 0.000000 0.000000
vn -1.000000 0.000000 0.000000
vn -1.000000 0.000000 0.000000
vn 1.000000 0.000000 0.000000
vn 1.000000 0.000000 0.000000
vn 1.000000 0.000000 0.000000
vn -1.000000 0.000000 0.000000
vn -1.000000 0.000000 0.000000
vn -1.000000 0.000000 0.000000
vn 1.000000 0.000000 0.000000
vn 1.000000 0.000000 0.000000
vn 1.000000 0.000000 0.000000
vn -1.000000 0.000000 0.000000
vn -1.000000 0.000000 0.000000
vn -1.000000 0.000000 0.000000
vn 1.000000 0.000000 0.000000
vn 1.000000 0.000000 0.000000
vn 1.000000 0.000000 0.000000
vn -1.000000 0.000000 0.000000
vn -1.000000 0.000000 0.000000
vn -1.000000 0.000000 0.000000
vn 1.000000 0.000000 0.000000
vn 1.000000 0.000000 0.000000
vn 1.000000 0.000000 0.000000
vn 0.000000 1.000000 -0.000000
vn 0.000000 1.000000 -0.000000
vn 0.000000 1.000000 -0.000000
vn -1.000000 0.000000 0.000000
vn -1.000000 0.000000 0.000000
vn -1.000000 0.000000 0.000000
vn 1.000000 0.000000 0.000000
vn 1.000000 0.000000 0.000000
vn 1.000000 0.000000 0.000000
vn 0.000000 1.000000 -0.000000
vn 0.000000 1.000000 -0.000000
vn 0.000000 1.000000 -0.000000
vn 0.000000 1.000000 -0.000000
vn 0.000000 1.000000 -0.000000
vn 0.000000 1.000000 -0.000000
vn 0.000000 1.000000 -0.000000
vn 0.000000 1.000000 -0.000000
vn 0.000000 1.000000 -0.000000
vn 0.000000 1.000000 -0.000000
vn 0.000000 1.000000 -0.000000
vn 0.000000 1.000000 -0.000000
vn 1.000000 0.000000 0.000000
vn 1.000000 0.000000 0.000000
vn 1.000000 0.000000 0.000000
vn 1.000000 0.000000 0.000000
vn 0.000000 1.000000 -0.000000
vn 0.000000 1.000000 -0.000000
vn 0.000000 1.000000 -0.000000
vn 0.000000 1.000000 -0.000000
vn 0.000000 1.000000 -0.000000
vn 0.000000 1.000000 -0.000000
vn 0.000000 1.000000 -0.000000
vn 0.000000 1.000000 -0.000000
vn 0.000000 1.000000 -0.000000
vn 0.000000 1.000000 -0.000000
vn 0.000000 1.000000 -0.000000
vn 0.000000 1.000000 -0.000000
vn 0.000000 1.000000 -0.000000
vn 0.000000 1.000000 -0.000000
vn 0.000000 1.000000 -0.000000
vn 0.000000 1.000000 -0.000000
vn 0.000000 -0.000000 -1.000000
vn 0.000000 -0.000000 -1.000000
vn 0.000000 -0.000000 -1.000000
vn 0.000000 -0.000000 -1.000000
vn 0.000000 1.000000 -0.000000
vn 0.000000 1.000000 -0.000000
vn 0.000000 1.000000 -0.000000
vn 0.000000 1.000000 -0.000000
vn 0.000000 1.000000 -0.000000
vn 0.000000 1.000000 -0.000000
vn 0.000000 1.000000 -0.000000
vn 0.000000 1.000000 -0.000000
vn 0.000000 1.000000 -0.000000
vn 0.000000 1.000000 -0.000000
vn 0.000000 1.000000 -0.000000
vn 0.000000 1.000000 -0.000000
vn 0.000000 1.000000 -0.000000
vn 0.000000 1.000000 -0.000000
vn 0.000000 1.000000 -0.000000
vn 0.000000 1.000000 -0.000000
vn 0.000000 1.000000 -0.000000
vn 0.000000 1.000000 -0.000000
vn 0.000000 1.000000 -0.000000
vn 0.000000 1.000000 -0.000000
vn 0.000000 1.000000 -0.000000
vn 0.000000 1.000000 -0.000000
vn 0.000000 1.000000 -0.000000
vn 0.000000 1.000000 -0.000000
vn 0.000000 -0.000000 -1.000000
vn 0.000000 -0.000000 -1.000000
vn 0.000000 -0.000000 -1.000000
vn 0.000000 -0.000000 -1.000000
vn 0.000000 -0.000000 -1.000000
vn 0.000000 -0.000000 -1.000000
vn 0.000000 -0.000000 -1.000000
vn 0.000000 -0.000000 -1.000000
vn 0.000000 -0.000000 -1.000000
vn 0.000000 -0.000000 -1.000000
vn 0.000000 -0.000000 -1.000000
vn 0.000000 -0.000000 -1.000000
vn 0.000000 -0.000000 -1.000000
vn 0.000000 -0.000000 -1.000000
vn 0.000000 -0.000000 -1.000000
vn 0.000000 -0.000000 -1.000000
vn 0.000000 -0.000000 -1.000000
vn 0.000000 0.000000 1.000000
vn 0.000000 0.000000 1.000000
vn 0.000000 0.000000 1.000000
vn 0.000000 0.000000 1.000000
vn 0.000000 0.000000 1.000000
vn 0.000000 0.000000 1.000000
vn 0.000000 0.000000 1.000000
vn 0.000000 0.000000 1.000000
vn 0.000000 0.000000 1.000000
vn 0.000000 0.000000 1.000000
vn 0.000000 0.000000 1.000000
vn 0.000000 0.000000 1.000000
vn 0.000000 -0.000000 -1.000000
vn 0.000000 -0.000000 -1.000000
vn 0.000000 -0.000000 -1.000000
vn 0.000000 -0.000000 -1.000000
vn 0.000000 -0.000000 -1.000000
vn 0.000000 -0.000000 -1.000000
vn 0.000000 -0.000000 -1.000000
vn 0.000000 -0.000000 -1.000000
vn 0.000000 -0.000000 -1.000000
vn 0.000000 -0.000000 -1.000000
vn 0.000000 -0.000000 -1.000000
vn 0.000000 -0.000000 -1.000000
vn 0.000000 -0.000000 -1.000000
vn 0.000000 -0.000000 -1.000000
vn 0.000000 -0.000000 -1.000000
vn 0.000000 -1.000000 0.000000
vn 0.000000 -1.000000 0.000000
vn 0.000000 -1.000000 0.000000
vn 0.000000 -1.000000 0.000000
vn 0.000000 -1.000000 0.000000
vn 0.000000 -1.000000 0.000000
vn 0.000000 -1.000000 0.000000
vn 0.000000 -1.000000 0.000000
vn 0.000000 -0.000000 -1.000000
vn 0.000000 -0.000000 -1.000000
vn 0.000000 -0.000000 -1.000000
vn 0.000000 -0.000000 -1.000000
vn 0.000000 0.000000 1.000000
vn 0.000000 0.000000 1.000000
vn 0.000000 0.000000 1.000000
vn 0.000000 0.000000 1.000000
vn 0.000000 0.000000 1.000000
vn 0.000000 1.000000 -0.000000
vn 0.000000 1.000000 -0.000000
vn 0.000000 1.000000 -0.000000
vn 0.000000 1.000000 -0.000000
tan 0.000000 0.000000 1.000000 1.000000
tan 0.000000 0.000000 1.000000 1.000000
tan 0.000000 0.000000 1.000000 1.000000
tan 0.000000 -1.000000 0.000000 1.000000
tan 0.000000 -1.000000 0.000000 1.000000
tan 0.000000 -1.000000 0.000000 1.000000
tan 0.000000 1.000000 -0.000000 1.000000
tan 0.000000 1.000000 -0.000000 1.000000
tan 0.000000 1.000000 -0.000000 1.000000
tan 0.000000 1.000000 -0.000000 1.000000
tan 0.000000 1.000000 -0.000000 1.000000
tan 0.000000 1.000000 -0.000000 1.000000
tan 0.000000 0.000000 1.000000 1.000000
tan 0.000000 0.000000 1.000000 1.000000
tan 0.000000 0.000000 1.000000 1.000000
tan 0.000000 0.000000 1.000000 1.000000
tan 0.000000 0.000000 1.000000 1.000000
tan 0.000000 0.000000 1.000000 1.000000
tan 0.000000 -0.000000 -1.000000 1.000000
tan 0.000000 -0.000000 -1.000000 1.000000
tan 0.000000 -0.000000 -1.000000 1.000000
tan 0.000000 0.000000 1.000000 1.000000
tan 0.000000 0.000000 1.000000 1.000000
tan 0.000000 0.000000 1.000000 1.000000
tan 0.000000 -1.000000 0.000000 1.000000
tan 0.000000 -1.000000 0.000000 1.000000
tan 0.000000 -1.000000 0.000000 1.000000
tan 0.000000 -1.000000 0.000000 1.000000
tan 0.000000 -1.000000 0.000000 1.000000
tan 0.000000 -1.000000 0.000000 1.000000
tan 0.000000 1.000000 -0.000000 1.000000
tan 0.000000 1.000000 -0.000000 1.000000
tan 0.000000 1.000000 -0.000000 1.000000
tan 0.000000 1.000000 -0.000000 1.000000
tan 0.000000 1.000000 -0.000000 1.000000
tan 0.000000 1.000000 -0.000000 1.000000
tan 0.000000 1.000000 -0.000000 1.000000
tan 0.000000 1.000000 -0.000000 1.000000
tan 0.000000 1.000000 -0.000000 1.000000
tan 0.000000 0.000000 1.000000 1.000000
tan 0.000000 0.000000 1.000000 1.000000
tan 0.000000 0.000000 1.000000 1.000000
tan 0.000000 0.000000 1.000000 1.000000
tan 0.000000 0.000000 1.000000 1.000000
tan 0.000000 0.000000 1.000000 1.000000
tan 0.000000 0.000000 1.000000 1.000000
tan 0.000000 0.000000 1.000000 1.000000
tan 0.000000 0.000000 1.000000 1.000000
tan 0.000000 0.000000 1.000000 1.000000
tan 0.000000 0.000000 1.000000 1.000000
tan 0.000000 0.000000 1.000000 1.000000
tan 0.000000 0.000000 1.000000 1.000000
tan 0.000000 0.000000 1.000000 1.000000
tan 0.000000 0.000000 1.000000 1.000000
tan 0.000000 0.000000 1.000000 1.000000
tan 0.000000 0.000000 1.000000 1.000000
tan 0.000000 0.000000 1.000000 1.000000
tan 0.000000 0.000000 1.000000 1.000000
tan 0.000000 0.000000 1.000000 1.000000
tan 0.000000 0.000000 1.000000 1.000000
tan 0.000000 -0.000000 -1.000000 1.000000
tan 0.000000 -0.000000 -1.000000 1.000000
tan 0.000000 -0.000000 -1.000000 1.000000
tan 0.000000 -0.000000 -1.000000 1.000000
tan 0.000000 -0.000000 -1.000000 1.000000
tan 0.000000 -0.000000 -1.000000 1.000000
tan 0.000000 -0.000000 -1.000000 1.000000
tan 0.000000 -0.000000 -1.000000 1.000000
tan 0.000000 -0.000000 -1.000000 1.000000
tan 0.000000 -0.000000 -1.000000 1.000000
tan 0.000000 -0.000000 -1.000000 1.000000
tan 0.000000 -0.000000 -1.000000 1.000000
tan 0.000000 -0.000000 -1.000000 1.000000
tan 0.000000 -0.000000 -1.000000 1.000000
tan 0.000000 -0.000000 -1.000000 1.000000
tan 0.000000 -0.000000 -1.000000 1.000000
tan 0.000000 -0.000000 -1.000000 1.000000
tan 0.000000 -0.000000 -1.000000 1.000000
tan 0.000000 -0.000000 -1.000000 1.000000
tan 0.000000 -0.000000 -1.000000 1.000000
tan 0.000000 -0.000000 -1.000000 1.000000
tan 0.000000 0.000000 1.000000 1.000000
tan 0.000000 0.000000 1.000000 1.000000
tan 0.000000 0.000000 1.000000 1.000000
tan 0.000000 0.000000 1.000000 1.000000
tan 0.000000 0.000000 1.000000 1.000000
tan 0.000000 0.000000 1.000000 1.000000
tan 0.000000 0.000000 1.000000 1.000000
tan 0.000000 0.000000 1.000000 1.000000
tan 0.000000 -0.000000 -1.000000 1.000000
tan 0.000000 -0.000000 -1.000000 1.000000
tan 0.000000 -0.000000 -1.000000 1.000000
tan 0.000000 -0.000000 -1.000000 1.000000
tan 0.000000 -0.000000 -1.000000 1.000000
tan 0.000000 -0.000000 -1.000000 1.000000
tan 0.000000 -0.000000 -1.000000 1.000000
tan 0.000000 -0.000000 -1.000000 1.000000
tan 0.000000 -0.000000 -1.000000 1.000000
tan 0.000000 -0.000000 -1.000000 1.000000
tan 0.000000 -0.000000 -1.000000 1.000000
tan 0.000000 -0.000000 -1.000000 1.000000
tan 0.000000 -0.000000 -1.000000 1.000000
tan 0.000000 -0.000000 -1.000000 1.000000
tan 0.000000 -0.000000 -1.000000 1.000000
tan 0.000000 -0.000000 -1.000000 1.000000
tan 0.000000 0.000000 1.000000 1.000000
tan 0.000000 0.000000 1.000000 1.000000
tan 0.000000 0.000000 1.000000 1.000000
tan 0.000000 0.000000 1.000000 1.000000
tan 0.000000 0.000000 1.000000 1.000000
tan 0.000000 0.000000 1.000000 1.000000
tan 0.000000 0.000000 1.000000 1.000000
tan 0.000000 0.000000 1.000000 1.000000
tan 0.000000 -1.000000 0.000000 1.000000
tan 0.000000 -1.000000 0.000000 1.000000
tan 0.000000 -1.000000 0.000000 1.000000
tan 0.000000 -1.000000 0.000000 1.000000
tan 0.000000 0.000000 1.000000 1.000000
tan 0.000000 0.000000 1.000000 1.000000
tan 0.000000 0.000000 1.000000 1.000000
tan 0.000000 0.000000 1.000000 1.000000
tan 0.000000 0.000000 1.000000 1.000000
tan 0.000000 0.000000 1.000000 1.000000
tan 0.000000 0.000000 1.000000 1.000000
tan 0.000000 0.000000 1.000000 1.000000
tan 0.000000 -0.000000 -1.000000 1.000000
tan 0.000000 -0.000000 -1.000000 1.000000
tan 0.000000 -0.000000 -1.000000 1.000000
tan 0.000000 -0.000000 -1.000000 1.000000
tan 0.000000 -0.000000 -1.000000 1.000000
tan 0.000000 -0.000000 -1.000000 1.000000
tan 0.000000 -0.000000 -1.000000 1.000000
tan 0.000000 -0.000000 -1.000000 1.000000
tan 0.000000 -0.000000 -1.000000 1.000000
tan 0.000000 -0.000000 -1.000000 1.000000
tan 0.000000 -0.000000 -1.000000 1.000000
tan 0.000000 -0.000000 -1.000000 1.000000
tan 0.000000 -0.000000 -1.000000 1.000000
tan 0.000000 -0.000000 -1.000000 1.000000
tan 0.000000 -0.000000 -1.000000 1.000000
tan 0.000000 -0.000000 -1.000000 1.000000
tan 0.000000 -1.000000 0.000000 1.000000
tan 0.000000 -1.000000 0.000000 1.000000
tan 0.000000 -1.000000 0.000000 1.000000
tan 0.000000 -1.000000 0.000000 1.000000
tan 0.000000 -1.000000 0.000000 1.000000
tan 0.000000 -1.000000 0.000000 1.000000
tan 0.000000 -1.000000 0.000000 1.000000
tan 0.000000 -1.000000 0.000000 1.000000
tan 0.000000 -1.000000 0.000000 1.000000
tan 0.000000 -1.000000 0.000000 1.000000
tan 0.000000 -1.000000 0.000000 1.000000
tan 0.000000 -1.000000 0.000000 1.000000
tan 0.000000 -1.000000 0.000000 1.000000
tan 0.000000 -1.000000 0.000000 1.000000
tan 0.000000 -1.000000 0.000000 1.000000
tan 0.000000 -1.000000 0.000000 1.000000
tan 0.000000 -1.000000 0.000000 1.000000
tan 0.000000 -1.000000 0.000000 1.000000
tan 0.000000 -1.000000 0.000000 1.000000
tan 0.000000 -1.000000 0.000000 1.000000
tan 0.000000 -1.000000 0.000000 1.000000
tan 0.000000 -1.000000 0.000000 1.000000
tan 0.000000 -1.000000 0.000000 1.000000
tan 0.000000 -1.000000 0.000000 1.000000
tan 0.000000 -1.000000 0.000000 1.000000
tan 0.000000 -1.000000 0.000000 1.000000
tan 0.000000 -1.000000 0.000000 1.000000
tan 0.000000 -1.000000 0.000000 1.000000
tan 0.000000 -1.000000 0.000000 1.000000
tan 0.000000 -1.000000 0.000000 1.000000
tan 0.000000 -1.000000 0.000000 1.000000
tan 0.000000 -1.000000 0.000000 1.000000
tan 0.000000 -1.000000 0.000000 1.000000
tan 0.000000 -1.000000 0.000000 1.000000
tan 0.000000 -1.000000 0.000000 1.000000
tan 0.000000 -1.000000 0.000000 1.000000
tan 0.000000 -1.000000 0.000000 1.000000
tan 0.000000 -1.000000 0.000000 1.000000
tan 0.000000 -1.000000 0.000000 1.000000
tan 0.000000 -1.000000 0.000000 1.000000
tan 0.000000 -1.000000 0.000000 1.000000
tan 0.000000 -1.000000 0.000000 1.000000
tan 0.000000 -1.000000 0.000000 1.000000
tan 0.000000 -1.000000 0.000000 1.000000
tan 0.000000 0.000000 1.000000 1.000000
tan 0.000000 0.000000 1.000000 1.000000
tan 0.000000 0.000000 1.000000 1.000000
tan 0.000000 0.000000 1.000000 1.000000
tan 0.000000 0.000000 1.000000 1.000000
tan 0.000000 0.000000 1.000000 1.000000
tan 0.000000 0.000000 1.000000 1.000000
tan 0.000000 0.000000 1.000000 1.000000
tan 0.000000 -1.000000 0.000000 1.000000
tan 0.000000 -1.000000 0.000000 1.000000
tan 0.000000 -1.000000 0.000000 1.000000
tan 0.000000 -1.000000 0.000000 1.000000
tan 0.000000 1.000000 -0.000000 1.000000
tan 0.000000 1.000000 -0.000000 1.000000
tan 0.000000 1.000000 -0.000000 1.000000
tan 0.000000 1.000000 -0.000000 1.000000
tan 0.000000 1.000000 -0.000000 1.000000
tan -1.000000 0.000000 0.000000 1.000000
tan -1.000000 0.000000 0.000000 1.000000
tan -1.000000 0.000000 0.000000 1.000000
tan -1.000000 0.000000 0.000000 1.000000
f 3/3/3 2/2/2 1/1/1
f 6/6/6 5/5/5 4/4/4
f 9/9/9 8/8/8 7/7/7
f 12/12/12 11/11/11 10/10/10
f 15/15/15 14/14/14 13/13/13
f 18/18/18 17/17/17 16/16/16
f 21/21/21 20/20/20 19/19/19
f 24/24/24 23/23/23 22/22/22
f 27/27/27 26/26/26 25/25/25
f 30/30/30 29/29/29 28/28/28
f 33/33/33 32/32/32 31/31/31
f 36/36/36 35/35/35 34/34/34
f 39/39/39 38/38/38 37/37/37
f 42/42/42 41/41/41 40/40/40
f 45/45/45 44/44/44 43/43/43
f 48/48/48 47/47/47 46/46/46
f 51/51/51 50/50/50 49/49/49
f 54/54/54 53/53/53 52/52/52
f 57/57/57 56/56/56 55/55/55
f 60/60/60 59/59/59 58/58/58
f 63/63/63 62/62/62 61/61/61
f 66/66/66 65/65/65 64/64/64
f 69/69/69 68/68/68 67/67/67
f 72/72/72 71/71/71 70/70/70
f 75/75/75 74/74/74 73/73/73
f 78/78/78 77/77/77 76/76/76
f 81/81/81 80/80/80 79/79/79
f 84/84/84 83/83/83 82/82/82
f 85/85/85 84/84/84 82/82/82
f 88/88/88 87/87/87 86/86/86
f 89/89/89 87/87/87 88/88/88
f 92/92/92 91/91/91 90/90/90
f 93/93/93 92/92/92 90/90/90
f 96/96/96 95/95/95 94/94/94
f 97/97/97 94/94/94 95/95/95
f 100/100/100 99/99/99 98/98/98
f 101/101/101 100/100/100 98/98/98
f 104/104/104 103/103/103 102/102/102
f 105/105/105 102/102/102 103/103/103
f 108/108/108 107/107/107 106/106/106
f 109/109/109 106/106/106 107/107/107
f 112/112/112 111/111/111 110/110/110
f 113/113/113 110/110/110 111/111/111
f 116/116/116 115/115/115 114/114/114
f 117/117/117 114/114/114 115/115/115
f 120/120/120 119/119/119 118/118/118
f 120/120/120 121/121/121 119/119/119
f 124/124/124 123/123/123 122/122/122
f 124/124/124 125/125/125 123/123/123
f 128/128/128 127/127/127 126/126/126
f 129/129/129 126/126/126 127/127/127
f 132/132/132 131/131/131 130/130/130
f 132/132/132 133/133/133 131/131/131
f 136/136/136 135/135/135 134/134/134
f 137/137/137 134/134/134 135/135/135
f 140/140/140 139/139/139 138/138/138
f 141/141/141 138/138/138 139/139/139
f 144/144/144 143/143/143 142/142/142
f 144/144/144 145/145/145 143/143/143
f 148/148/148 147/147/147 146/146/146
f 148/148/148 149/149/149 147/147/147
f 147/147/147 149/149/149 150/150/150
f 150/150/150 152/152/152 151/151/151
f 152/152/152 150/150/150 149/149/149
f 149/149/149 153/153/153 152/152/152
f 153/153/153 155/155/155 154/154/154
f 149/149/149 155/155/155 153/153/153
f 149/149/149 156/156/156 155/155/155
f 149/149/149 157/157/157 156/156/156
f 157/157/157 149/149/149 158/158/158
f 161/161/161 160/160/160 159/159/159
f 160/160/160 162/162/162 159/159/159
f 160/160/160 163/163/163 162/162/162
f 165/165/165 164/164/164 163/163/163
f 163/163/163 164/164/164 162/162/162
f 166/166/166 162/162/162 164/164/164
f 167/167/167 162/162/162 166/166/166
f 168/168/168 162/162/162 167/167/167
f 169/169/169 162/162/162 168/168/168
f 170/170/170 162/162/162 169/169/169
f 172/172/172 171/171/171 6/6/6
f 173/173/173 6/6/6 171/171/171
f 176/176/176 175/175/175 174/174/174
f 177/177/177 175/175/175 176/176/176
f 180/180/180 179/179/179 178/178/178
f 181/181/181 178/178/178 179/179/179
f 184/184/184 183/183/183 182/182/182
f 185/185/185 183/183/183 184/184/184
f 188/188/188 187/187/187 186/186/186
f 187/187/187 188/188/188 189/189/189
f 190/190/190 189/189/189 188/188/188
f 191/191/191 189/189/189 190/190/190
f 192/192/192 189/189/189 191/191/191
f 193/193/193 189/189/189 192/192/192
f 115/115/115 195/195/195 194/194/194
f 195/195/195 196/196/196 194/194/194
f 194/194/194 196/196/196 30/30/30
f 30/30/30 196/196/196 26/26/26
f 26/26/26 196/196/196 197/197/197
f 11/11/11 199/199/199 198/198/198
f 200/200/200 199/199/199 11/11/11
f 200/200/200 31/31/31 199/199/199
f 199/199/199 31/31/31 201/201/201
f 31/31/31 202/202/202 201/201/201
f 202/202/202 37/37/37 201/201/201
f 37/37/37 38/38/38 201/201/201
f 205/205/205 204/204/204 203/203/203
f 206/206/206 204/204/204 205/205/205
