mtllib SM_Mansion_Tower_Top_LOD3@000002909DC41D00.mtl
g SM_Mansion_Tower_Top_LOD3@000002909DC41D00
#Vertices 278
#Indices 384
#Section 0 Offset 0 NumIndices 195 MaterialIndex 0 MI_BrickTile_A_01
#Section 1 Offset 195 NumIndices 54 MaterialIndex 1 MI_ConcreteTile_01
#Section 2 Offset 249 NumIndices 135 MaterialIndex 2 MI_ConcreteTile_01
v -4.000586 5.972185 -5.080852 0.000000 0.000000 1.000000 1.000000
v -5.210665 5.989100 -5.207386 0.000000 0.000000 1.000000 1.000000
v -4.719076 0.021013 -5.352128 0.000000 1.000000 0.000000 1.000000
v 5.078199 6.009202 3.998565 0.000000 0.000000 1.000000 1.000000
v 5.286148 0.003961 4.624061 0.000000 1.000000 0.000000 1.000000
v 5.209860 5.983836 5.205322 0.000000 0.000000 1.000000 1.000000
v -5.196428 0.001701 4.527634 0.000000 1.000000 0.000000 1.000000
v -5.073776 5.991970 3.992635 0.000000 0.000000 1.000000 1.000000
v -5.198748 5.993937 5.199065 0.000000 1.000000 0.000000 1.000000
v -3.996212 -0.000936 5.078017 0.000000 0.000000 1.000000 1.000000
v -3.999812 5.969613 5.097857 0.000000 0.000000 1.000000 1.000000
v -3.999999 3.865871 4.999998 0.000000 0.000000 1.000000 1.000000
v 5.060014 6.002027 -3.989769 0.000000 0.000000 1.000000 1.000000
v 5.078462 -0.000811 -3.999649 0.000000 1.000000 0.000000 1.000000
v 5.000000 3.865870 -4.000000 0.000000 0.000000 1.000000 1.000000
v 5.168872 6.054774 -1.245605 0.000000 0.000000 1.000000 1.000000
v 5.000000 3.865870 -1.291668 0.000000 0.529412 0.470588 1.000000
v 5.185233 -0.000452 -1.292019 0.000000 1.000000 0.000000 1.000000
v -4.000586 5.972185 -5.080852 0.000000 0.000000 1.000000 1.000000
v -4.719076 0.021013 -5.352128 0.000000 1.000000 0.000000 1.000000
v -3.999999 1.932937 -5.000000 0.000000 0.000000 1.000000 1.000000
v 3.999999 1.932937 -5.000000 0.000000 0.000000 1.000000 1.000000
v 4.607962 0.003231 -5.354121 0.000000 1.000000 0.000000 1.000000
v 3.988644 5.966253 -5.050867 0.000000 0.000000 1.000000 1.000000
v 5.200311 5.947802 -5.197917 0.000000 0.000000 1.000000 1.000000
v 3.988644 5.966253 -5.050867 0.000000 0.000000 1.000000 1.000000
v 4.607962 0.003231 -5.354121 0.000000 1.000000 0.000000 1.000000
v 5.000000 3.865871 3.999995 0.000000 0.000000 1.000000 1.000000
v 5.286148 0.003961 4.624061 0.000000 1.000000 0.000000 1.000000
v 5.078199 6.009202 3.998565 0.000000 0.000000 1.000000 1.000000
v 4.008655 -0.000094 5.080163 0.000000 0.000000 1.000000 1.000000
v 3.999999 3.865871 4.999998 0.000000 0.000000 1.000000 1.000000
v 3.998220 5.968086 5.105622 0.000000 0.000000 1.000000 1.000000
v 1.289233 0.001914 5.147275 0.000000 0.000000 1.000000 1.000000
v 1.241732 6.054255 5.063899 0.000000 0.000000 1.000000 1.000000
v 1.291667 3.865871 4.999998 0.000000 1.000000 0.000000 1.000000
v -1.294910 5.924792 5.154656 0.000000 0.000000 1.000000 1.000000
v -1.290597 0.000004 5.147385 0.000000 0.000000 1.000000 1.000000
v -1.291667 3.865871 4.999998 0.000000 0.000000 1.000000 1.000000
v -5.073776 5.991970 3.992635 0.000000 0.000000 1.000000 1.000000
v -5.196428 0.001701 4.527634 0.000000 1.000000 0.000000 1.000000
v -5.000000 3.865871 3.999995 0.000000 0.000000 1.000000 1.000000
v -5.184988 -0.000445 1.292816 0.000000 1.000000 0.000000 1.000000
v -5.173312 5.947242 1.297898 0.000000 0.000000 1.000000 1.000000
v -5.000000 3.865871 1.291666 0.000000 0.000000 1.000000 1.000000
v -1.292494 0.000003 -5.212633 0.000000 1.000000 0.000000 1.000000
v -1.247043 6.073265 -5.042552 0.000000 0.000000 1.000000 1.000000
v -1.291667 1.932937 -5.000000 0.000000 0.000000 0.956863 1.000000
v 5.171367 6.041421 1.303730 0.000000 0.000000 1.000000 1.000000
v 5.147089 0.000004 1.290815 0.000000 1.000000 0.000000 1.000000
v 5.000000 3.865871 1.291666 0.000000 0.000000 1.000000 1.000000
v -3.996212 -0.000936 5.078017 0.000000 0.000000 1.000000 1.000000
v -5.196428 0.001701 4.527634 0.000000 1.000000 0.000000 1.000000
v -5.198748 5.993937 5.199065 0.000000 1.000000 0.000000 1.000000
v -3.999812 5.969613 5.097857 0.000000 0.000000 1.000000 1.000000
v 5.286148 0.003961 4.624061 0.000000 1.000000 0.000000 1.000000
v 3.998220 5.968086 5.105622 0.000000 0.000000 1.000000 1.000000
v 5.209860 5.983836 5.205322 0.000000 0.000000 1.000000 1.000000
v 4.008655 -0.000094 5.080163 0.000000 0.000000 1.000000 1.000000
v -5.171680 14.992502 5.171608 0.000000 1.000000 0.000000 1.000000
v 5.171306 14.977146 5.171937 0.000000 0.831373 0.000000 1.000000
v -5.098448 14.066207 5.099155 0.000000 0.000000 1.000000 1.000000
v 5.104601 14.077847 5.112972 0.000000 0.000000 1.000000 1.000000
v -4.719076 0.021013 -5.352128 0.000000 1.000000 0.000000 1.000000
v -5.210665 5.989100 -5.207386 0.000000 0.000000 1.000000 1.000000
v -5.043828 5.973035 -3.996899 0.000000 0.000000 1.000000 1.000000
v -5.045446 1.097676 -4.001257 0.000000 1.000000 0.000000 1.000000
v 5.200311 5.947802 -5.197917 0.000000 0.000000 1.000000 1.000000
v 5.078462 -0.000811 -3.999649 0.000000 1.000000 0.000000 1.000000
v 5.060014 6.002027 -3.989769 0.000000 0.000000 1.000000 1.000000
v 4.607962 0.003231 -5.354121 0.000000 1.000000 0.000000 1.000000
v -5.170250 14.961904 -5.170552 0.000000 1.000000 0.000000 1.000000
v -5.171680 14.992502 5.171608 0.000000 1.000000 0.000000 1.000000
v -5.098448 14.066207 5.099155 0.000000 0.000000 1.000000 1.000000
v -5.147887 14.083459 -5.144928 0.000000 0.000000 1.000000 1.000000
v 5.171306 14.977146 5.171937 0.000000 0.831373 0.000000 1.000000
v 5.159355 14.986238 -5.173038 0.000000 1.000000 0.000000 1.000000
v 5.104601 14.077847 5.112972 0.000000 0.000000 1.000000 1.000000
v 5.113088 14.081137 -5.110825 0.000000 0.000000 1.000000 1.000000
v 5.113088 14.081137 -5.110825 0.000000 0.000000 1.000000 1.000000
v 3.997763 13.932789 -5.092219 0.000000 0.000000 1.000000 1.000000
v 5.200311 5.947802 -5.197917 0.000000 0.000000 1.000000 1.000000
v 3.988644 5.966253 -5.050867 0.000000 0.000000 1.000000 1.000000
v -4.007463 13.931458 -5.061536 0.000000 0.000000 1.000000 1.000000
v -5.147887 14.083459 -5.144928 0.000000 0.000000 1.000000 1.000000
v -5.210665 5.989100 -5.207386 0.000000 0.000000 1.000000 1.000000
v -4.000586 5.972185 -5.080852 0.000000 0.000000 1.000000 1.000000
v -5.210665 5.989100 -5.207386 0.000000 0.000000 1.000000 1.000000
v -5.147887 14.083459 -5.144928 0.000000 0.000000 1.000000 1.000000
v -5.093169 13.932520 -4.000898 0.000000 0.000000 1.000000 1.000000
v -5.043828 5.973035 -3.996899 0.000000 0.000000 1.000000 1.000000
v -5.198748 5.993937 5.199065 0.000000 1.000000 0.000000 1.000000
v -5.092048 13.932742 3.996246 0.000000 0.235294 0.764706 1.000000
v -5.098448 14.066207 5.099155 0.000000 0.000000 1.000000 1.000000
v -5.073776 5.991970 3.992635 0.000000 0.000000 1.000000 1.000000
v -4.007960 13.931397 5.061761 0.000000 0.000000 1.000000 1.000000
v -5.198748 5.993937 5.199065 0.000000 1.000000 0.000000 1.000000
v -5.098448 14.066207 5.099155 0.000000 0.000000 1.000000 1.000000
v -3.999812 5.969613 5.097857 0.000000 0.000000 1.000000 1.000000
v 5.209860 5.983836 5.205322 0.000000 0.000000 1.000000 1.000000
v 4.007588 13.931499 5.061332 0.000000 0.000000 1.000000 1.000000
v 5.104601 14.077847 5.112972 0.000000 0.000000 1.000000 1.000000
v 3.998220 5.968086 5.105622 0.000000 0.000000 1.000000 1.000000
v 5.078199 6.009202 3.998565 0.000000 0.000000 1.000000 1.000000
v 5.209860 5.983836 5.205322 0.000000 0.000000 1.000000 1.000000
v 5.092978 13.932674 4.000891 0.000000 0.000000 1.000000 1.000000
v 5.104601 14.077847 5.112972 0.000000 0.000000 1.000000 1.000000
v 5.113088 14.081137 -5.110825 0.000000 0.000000 1.000000 1.000000
v 5.200311 5.947802 -5.197917 0.000000 0.000000 1.000000 1.000000
v 5.092333 13.932668 -3.996313 0.000000 0.000000 1.000000 1.000000
v 5.060014 6.002027 -3.989769 0.000000 0.000000 1.000000 1.000000
v -5.147887 14.083459 -5.144928 0.000000 0.000000 1.000000 1.000000
v 5.113088 14.081137 -5.110825 0.000000 0.000000 1.000000 1.000000
v -5.170250 14.961904 -5.170552 0.000000 1.000000 0.000000 1.000000
v 5.159355 14.986238 -5.173038 0.000000 1.000000 0.000000 1.000000
v 5.185233 -0.000452 -1.292019 0.000000 1.000000 0.000000 1.000000
v 5.171367 6.041421 1.303730 0.000000 0.000000 1.000000 1.000000
v 5.168872 6.054774 -1.245605 0.000000 0.000000 1.000000 1.000000
v 5.147089 0.000004 1.290815 0.000000 1.000000 0.000000 1.000000
v -1.294910 5.924792 5.154656 0.000000 0.000000 1.000000 1.000000
v -1.288816 13.924660 5.141018 0.000000 1.000000 0.000000 1.000000
v 1.289403 13.941783 5.189911 0.000000 0.000000 1.000000 1.000000
v 1.241732 6.054255 5.063899 0.000000 0.000000 1.000000 1.000000
v -5.046715 0.966490 -1.452391 0.000000 0.000000 1.000000 1.000000
v -5.109596 5.882663 -1.246489 0.000000 0.000000 1.000000 1.000000
v -5.184988 -0.000445 1.292816 0.000000 1.000000 0.000000 1.000000
v -5.173312 5.947242 1.297898 0.000000 0.000000 1.000000 1.000000
v 1.290085 5.984918 -5.168427 0.000000 0.000000 1.000000 1.000000
v -1.292494 0.000003 -5.212633 0.000000 1.000000 0.000000 1.000000
v 1.286094 0.928309 -5.046481 0.000000 1.000000 0.000000 1.000000
v -1.247043 6.073265 -5.042552 0.000000 0.000000 1.000000 1.000000
v 1.289233 0.001914 5.147275 0.000000 0.000000 1.000000 1.000000
v -1.290597 0.000004 5.147385 0.000000 0.000000 1.000000 1.000000
v -1.294910 5.924792 5.154656 0.000000 0.000000 1.000000 1.000000
v 1.241732 6.054255 5.063899 0.000000 0.000000 1.000000 1.000000
v -5.173312 5.947242 1.297898 0.000000 0.000000 1.000000 1.000000
v -5.109596 5.882663 -1.246489 0.000000 0.000000 1.000000 1.000000
v -5.139538 13.928689 1.288009 0.000000 0.098039 0.901961 1.000000
v -5.097573 13.931146 -1.286339 0.000000 0.000000 1.000000 1.000000
v 1.290402 13.947420 -5.142142 0.000000 0.000000 1.000000 1.000000
v -1.247043 6.073265 -5.042552 0.000000 0.000000 1.000000 1.000000
v 1.290085 5.984918 -5.168427 0.000000 0.000000 1.000000 1.000000
v -1.289115 13.931005 -5.141357 0.000000 0.000000 1.000000 1.000000
v 5.139054 13.934247 -1.288975 0.000000 0.000000 1.000000 1.000000
v 5.171367 6.041421 1.303730 0.000000 0.000000 1.000000 1.000000
v 5.096952 13.924162 1.286673 0.000000 0.239216 0.760784 1.000000
v 5.168872 6.054774 -1.245605 0.000000 0.000000 1.000000 1.000000
v 5.113088 14.081137 -5.110825 0.000000 0.000000 1.000000 1.000000
v 1.290402 13.947420 -5.142142 0.000000 0.000000 1.000000 1.000000
v 3.997763 13.932789 -5.092219 0.000000 0.000000 1.000000 1.000000
v 5.139054 13.934247 -1.288975 0.000000 0.000000 1.000000 1.000000
v 5.092333 13.932668 -3.996313 0.000000 0.000000 1.000000 1.000000
v 4.007588 13.931499 5.061332 0.000000 0.000000 1.000000 1.000000
v 1.289403 13.941783 5.189911 0.000000 0.000000 1.000000 1.000000
v 5.104601 14.077847 5.112972 0.000000 0.000000 1.000000 1.000000
v 5.096952 13.924162 1.286673 0.000000 0.239216 0.760784 1.000000
v 5.092978 13.932674 4.000891 0.000000 0.000000 1.000000 1.000000
v -5.092048 13.932742 3.996246 0.000000 0.235294 0.764706 1.000000
v -5.139538 13.928689 1.288009 0.000000 0.098039 0.901961 1.000000
v -5.098448 14.066207 5.099155 0.000000 0.000000 1.000000 1.000000
v -1.288816 13.924660 5.141018 0.000000 1.000000 0.000000 1.000000
v -4.007960 13.931397 5.061761 0.000000 0.000000 1.000000 1.000000
v -4.007463 13.931458 -5.061536 0.000000 0.000000 1.000000 1.000000
v -1.289115 13.931005 -5.141357 0.000000 0.000000 1.000000 1.000000
v -5.147887 14.083459 -5.144928 0.000000 0.000000 1.000000 1.000000
v -5.097573 13.931146 -1.286339 0.000000 0.000000 1.000000 1.000000
v -5.093169 13.932520 -4.000898 0.000000 0.000000 1.000000 1.000000
v 1.290402 13.947420 -5.142142 0.000000 0.000000 1.000000 1.000000
v 5.113088 14.081137 -5.110825 0.000000 0.000000 1.000000 1.000000
v -5.147887 14.083459 -5.144928 0.000000 0.000000 1.000000 1.000000
v -1.289115 13.931005 -5.141357 0.000000 0.000000 1.000000 1.000000
v -5.098448 14.066207 5.099155 0.000000 0.000000 1.000000 1.000000
v 5.104601 14.077847 5.112972 0.000000 0.000000 1.000000 1.000000
v 1.289403 13.941783 5.189911 0.000000 0.000000 1.000000 1.000000
v -1.288816 13.924660 5.141018 0.000000 1.000000 0.000000 1.000000
v 5.104601 14.077847 5.112972 0.000000 0.000000 1.000000 1.000000
v 5.113088 14.081137 -5.110825 0.000000 0.000000 1.000000 1.000000
v 5.096952 13.924162 1.286673 0.000000 0.239216 0.760784 1.000000
v 5.139054 13.934247 -1.288975 0.000000 0.000000 1.000000 1.000000
v 5.159355 14.986238 -5.173038 0.000000 1.000000 0.000000 1.000000
v 5.171306 14.977146 5.171937 0.000000 0.831373 0.000000 1.000000
v -5.171680 14.992502 5.171608 0.000000 1.000000 0.000000 1.000000
v -5.170250 14.961904 -5.170552 0.000000 1.000000 0.000000 1.000000
v -5.147887 14.083459 -5.144928 0.000000 0.000000 1.000000 1.000000
v -5.098448 14.066207 5.099155 0.000000 0.000000 1.000000 1.000000
v -5.097573 13.931146 -1.286339 0.000000 0.000000 1.000000 1.000000
v -5.139538 13.928689 1.288009 0.000000 0.098039 0.901961 1.000000
v 3.999999 1.932937 -5.000000 0.000000 0.000000 1.000000 1.000000
v 1.286094 0.928309 -5.046481 0.000000 1.000000 0.000000 1.000000
v 4.607962 0.003231 -5.354121 0.000000 1.000000 0.000000 1.000000
v 3.999999 3.865871 4.999998 0.000000 0.000000 1.000000 1.000000
v 1.291667 3.865871 4.999998 0.000000 1.000000 0.000000 1.000000
v 3.998220 5.968086 5.105622 0.000000 0.000000 1.000000 1.000000
v 1.241732 6.054255 5.063899 0.000000 0.000000 1.000000 1.000000
v -5.000000 3.865871 1.291666 0.000000 0.000000 1.000000 1.000000
v -5.173312 5.947242 1.297898 0.000000 0.000000 1.000000 1.000000
v -5.073776 5.991970 3.992635 0.000000 0.000000 1.000000 1.000000
v -5.000000 3.865871 3.999995 0.000000 0.000000 1.000000 1.000000
v 5.000000 3.865871 1.291666 0.000000 0.000000 1.000000 1.000000
v 5.000000 3.865871 3.999995 0.000000 0.000000 1.000000 1.000000
v 5.171367 6.041421 1.303730 0.000000 0.000000 1.000000 1.000000
v 5.078199 6.009202 3.998565 0.000000 0.000000 1.000000 1.000000
v 3.997763 13.932789 -5.092219 0.000000 0.000000 1.000000 1.000000
v 1.290402 13.947420 -5.142142 0.000000 0.000000 1.000000 1.000000
v 3.988644 5.966253 -5.050867 0.000000 0.000000 1.000000 1.000000
v 1.290085 5.984918 -5.168427 0.000000 0.000000 1.000000 1.000000
v -5.139538 13.928689 1.288009 0.000000 0.098039 0.901961 1.000000
v -5.092048 13.932742 3.996246 0.000000 0.235294 0.764706 1.000000
v -5.073776 5.991970 3.992635 0.000000 0.000000 1.000000 1.000000
v -5.173312 5.947242 1.297898 0.000000 0.000000 1.000000 1.000000
v 5.096952 13.924162 1.286673 0.000000 0.239216 0.760784 1.000000
v 5.078199 6.009202 3.998565 0.000000 0.000000 1.000000 1.000000
v 5.092978 13.932674 4.000891 0.000000 0.000000 1.000000 1.000000
v 5.171367 6.041421 1.303730 0.000000 0.000000 1.000000 1.000000
v -1.291667 3.865871 4.999998 0.000000 0.000000 1.000000 1.000000
v -3.999999 3.865871 4.999998 0.000000 0.000000 1.000000 1.000000
v -1.294910 5.924792 5.154656 0.000000 0.000000 1.000000 1.000000
v -3.999812 5.969613 5.097857 0.000000 0.000000 1.000000 1.000000
v -5.043828 5.973035 -3.996899 0.000000 0.000000 1.000000 1.000000
v -5.093169 13.932520 -4.000898 0.000000 0.000000 1.000000 1.000000
v -5.097573 13.931146 -1.286339 0.000000 0.000000 1.000000 1.000000
v -5.109596 5.882663 -1.246489 0.000000 0.000000 1.000000 1.000000
v 5.060014 6.002027 -3.989769 0.000000 0.000000 1.000000 1.000000
v 5.139054 13.934247 -1.288975 0.000000 0.000000 1.000000 1.000000
v 5.092333 13.932668 -3.996313 0.000000 0.000000 1.000000 1.000000
v 5.168872 6.054774 -1.245605 0.000000 0.000000 1.000000 1.000000
v 5.000000 3.865870 -4.000000 0.000000 0.000000 1.000000 1.000000
v 5.000000 3.865870 -1.291668 0.000000 0.529412 0.470588 1.000000
v 5.060014 6.002027 -3.989769 0.000000 0.000000 1.000000 1.000000
v 5.168872 6.054774 -1.245605 0.000000 0.000000 1.000000 1.000000
v -1.291667 1.932937 -5.000000 0.000000 0.000000 0.956863 1.000000
v -3.999999 1.932937 -5.000000 0.000000 0.000000 1.000000 1.000000
v -4.719076 0.021013 -5.352128 0.000000 1.000000 0.000000 1.000000
v -1.292494 0.000003 -5.212633 0.000000 1.000000 0.000000 1.000000
v 5.286148 0.003961 4.624061 0.000000 1.000000 0.000000 1.000000
v 5.000000 3.865871 1.291666 0.000000 0.000000 1.000000 1.000000
v 5.147089 0.000004 1.290815 0.000000 1.000000 0.000000 1.000000
v 5.000000 3.865871 3.999995 0.000000 0.000000 1.000000 1.000000
v 4.008655 -0.000094 5.080163 0.000000 0.000000 1.000000 1.000000
v 1.289233 0.001914 5.147275 0.000000 0.000000 1.000000 1.000000
v 3.999999 3.865871 4.999998 0.000000 0.000000 1.000000 1.000000
v 1.291667 3.865871 4.999998 0.000000 1.000000 0.000000 1.000000
v -1.290597 0.000004 5.147385 0.000000 0.000000 1.000000 1.000000
v -3.996212 -0.000936 5.078017 0.000000 0.000000 1.000000 1.000000
v -1.291667 3.865871 4.999998 0.000000 0.000000 1.000000 1.000000
v -3.999999 3.865871 4.999998 0.000000 0.000000 1.000000 1.000000
v -5.184988 -0.000445 1.292816 0.000000 1.000000 0.000000 1.000000
v -5.000000 3.865871 1.291666 0.000000 0.000000 1.000000 1.000000
v -5.196428 0.001701 4.527634 0.000000 1.000000 0.000000 1.000000
v -5.000000 3.865871 3.999995 0.000000 0.000000 1.000000 1.000000
v -5.045446 1.097676 -4.001257 0.000000 1.000000 0.000000 1.000000
v -5.043828 5.973035 -3.996899 0.000000 0.000000 1.000000 1.000000
v -5.046715 0.966490 -1.452391 0.000000 0.000000 1.000000 1.000000
v -5.109596 5.882663 -1.246489 0.000000 0.000000 1.000000 1.000000
v -1.247043 6.073265 -5.042552 0.000000 0.000000 1.000000 1.000000
v -4.000586 5.972185 -5.080852 0.000000 0.000000 1.000000 1.000000
v -3.999999 1.932937 -5.000000 0.000000 0.000000 1.000000 1.000000
v -1.291667 1.932937 -5.000000 0.000000 0.000000 0.956863 1.000000
v 3.988644 5.966253 -5.050867 0.000000 0.000000 1.000000 1.000000
v 1.290085 5.984918 -5.168427 0.000000 0.000000 1.000000 1.000000
v 1.286094 0.928309 -5.046481 0.000000 1.000000 0.000000 1.000000
v 3.999999 1.932937 -5.000000 0.000000 0.000000 1.000000 1.000000
v 5.078462 -0.000811 -3.999649 0.000000 1.000000 0.000000 1.000000
v 5.000000 3.865870 -1.291668 0.000000 0.529412 0.470588 1.000000
v 5.000000 3.865870 -4.000000 0.000000 0.000000 1.000000 1.000000
v 5.185233 -0.000452 -1.292019 0.000000 1.000000 0.000000 1.000000
v 3.998220 5.968086 5.105622 0.000000 0.000000 1.000000 1.000000
v 1.241732 6.054255 5.063899 0.000000 0.000000 1.000000 1.000000
v 4.007588 13.931499 5.061332 0.000000 0.000000 1.000000 1.000000
v 1.289403 13.941783 5.189911 0.000000 0.000000 1.000000 1.000000
v -1.294910 5.924792 5.154656 0.000000 0.000000 1.000000 1.000000
v -3.999812 5.969613 5.097857 0.000000 0.000000 1.000000 1.000000
v -4.007960 13.931397 5.061761 0.000000 0.000000 1.000000 1.000000
v -1.288816 13.924660 5.141018 0.000000 1.000000 0.000000 1.000000
v -1.247043 6.073265 -5.042552 0.000000 0.000000 1.000000 1.000000
v -4.007463 13.931458 -5.061536 0.000000 0.000000 1.000000 1.000000
v -4.000586 5.972185 -5.080852 0.000000 0.000000 1.000000 1.000000
v -1.289115 13.931005 -5.141357 0.000000 0.000000 1.000000 1.000000
vt -2.250000 2.160156
vt -2.097656 2.158203
vt -2.158203 2.904297
vt -2.576172 3.144531
vt -2.658203 3.894531
vt -2.728516 3.146484
vt -2.544922 2.907227
vt -2.615234 2.158203
vt -2.462891 2.158203
vt -2.298828 2.907227
vt -2.300781 2.161133
vt -2.289062 2.423828
vt -2.533203 3.144531
vt -2.531250 3.894531
vt -2.541016 3.412109
vt -2.939453 3.142578
vt -2.917969 3.416016
vt -2.941406 3.898438
vt -2.263672 2.160156
vt -2.222656 2.904297
vt -2.273438 2.665039
vt -2.193359 3.652344
vt -2.236328 3.894531
vt -2.199219 3.148438
vt -2.367188 3.152344
vt -2.216797 3.150391
vt -2.294922 3.894531
vt -2.552734 3.412109
vt -2.589844 3.894531
vt -2.562500 3.144531
vt -2.890625 3.894531
vt -2.900391 3.412109
vt -2.888672 3.148438
vt -1.717773 2.908203
vt -1.708008 2.152344
vt -1.699219 2.425781
vt -2.064453 2.167969
vt -2.066406 2.908203
vt -2.083984 2.425781
vt -2.626953 2.158203
vt -2.615234 2.907227
vt -2.636719 2.423828
vt -3.341797 3.898438
vt -3.341797 3.156250
vt -3.320312 3.416016
vt -3.744141 3.898438
vt -3.722656 3.140625
vt -3.716797 3.658203
vt -3.281250 3.144531
vt -3.285156 3.898438
vt -3.302734 3.416016
vt -2.312500 2.907227
vt -2.455078 2.907227
vt -2.462891 2.158203
vt -2.312500 2.161133
vt -2.722656 3.894531
vt -2.876953 3.148438
vt -2.724609 3.146484
vt -2.875000 3.894531
vt -3.205078 1.646973
vt -1.913086 1.649414
vt -3.197266 1.760742
vt -1.921875 1.758789
vt -1.700195 2.906250
vt -1.687500 2.160156
vt -1.536133 2.162109
vt -1.539062 2.771484
vt -2.367188 3.152344
vt -2.515625 3.894531
vt -2.517578 3.144531
vt -2.353516 3.894531
vt -4.453125 1.651367
vt -3.164062 1.646973
vt -3.171875 1.761230
vt -4.453125 1.757812
vt -1.956055 1.649414
vt -0.663574 1.645996
vt -1.949219 1.758789
vt -0.671387 1.758301
vt -3.941406 3.175781
vt -4.078125 3.158203
vt -3.927734 2.160156
vt -4.078125 2.163086
vt -2.705078 3.158203
vt -2.847656 3.177734
vt -2.857422 2.166016
vt -2.705078 2.164062
vt -2.863281 2.165039
vt -2.873047 3.175781
vt -3.013672 3.158203
vt -3.015625 2.163086
vt -3.568359 2.166016
vt -3.417969 3.158203
vt -3.554688 3.173828
vt -3.417969 2.166016
vt -3.718750 3.158203
vt -3.568359 2.166016
vt -3.582031 3.173828
vt -3.716797 2.163086
vt -3.230469 2.165039
vt -3.078125 3.158203
vt -3.214844 3.175781
vt -3.080078 2.163086
vt -3.378906 2.167969
vt -3.228516 2.165039
vt -3.378906 3.158203
vt -3.240234 3.175781
vt -3.916016 3.175781
vt -3.929688 2.160156
vt -3.779297 3.158203
vt -3.779297 2.166992
vt 0.583008 1.757812
vt -0.699219 1.759277
vt 0.585449 1.651855
vt -0.704590 1.648438
vt -2.949219 3.898438
vt -3.273438 3.144531
vt -2.955078 3.142578
vt -3.271484 3.898438
vt 2.361328 -0.014648
vt 2.361328 0.984467
vt 2.039062 0.986725
vt 2.044922 0.000977
vt -3.693359 3.779297
vt -3.667969 3.164062
vt -3.351562 3.898438
vt -3.349609 3.156250
vt -4.070312 3.150391
vt -3.748047 3.898438
vt -4.070312 3.783203
vt -3.753906 3.140625
vt -1.731445 2.908203
vt -2.052734 2.908203
vt -2.052734 2.167969
vt -1.737305 2.152344
vt 2.433594 -0.011719
vt 2.751953 -0.020508
vt 2.435547 0.985130
vt 2.757812 0.985252
vt 3.560547 0.990921
vt 3.242188 0.006836
vt 3.560547 -0.003906
vt 3.238281 0.988945
vt 2.832031 0.985718
vt 3.156250 0.000000
vt 3.154297 0.984360
vt 2.837891 0.000977
vt 0.470459 0.567139
vt 0.431396 1.071045
vt 0.435303 0.716797
vt 0.982422 0.533691
vt 0.624512 0.534668
vt 1.859375 0.729004
vt 1.850586 1.089172
vt 1.825195 0.580322
vt 1.321289 0.530029
vt 1.671875 0.541504
vt 1.667969 1.958496
vt 1.306641 1.962891
vt 1.825195 1.924316
vt 1.857422 1.424805
vt 1.859375 1.775391
vt 0.425293 1.774414
vt 0.429199 1.412842
vt 0.461914 1.923828
vt 0.965820 1.969238
vt 0.612793 1.961914
vt 0.457031 1.075317
vt 0.474609 0.588379
vt 0.460205 1.902832
vt 0.455811 1.406494
vt 1.812500 1.900391
vt 1.818359 0.605957
vt 1.833008 1.090515
vt 1.828125 1.416992
vt 1.799805 0.577637
vt 0.499268 0.572510
vt 1.316406 0.570068
vt 0.987305 0.571533
vt 3.236328 -1.722656
vt 4.519531 -1.724609
vt 4.535156 -0.446289
vt 3.222656 -0.422852
vt 0.480225 1.925293
vt 1.791016 1.921387
vt 0.970703 1.931641
vt 1.301758 1.926270
vt -5.000000 -0.333008
vt -5.500000 -0.419922
vt -4.886719 -0.500000
vt -4.000000 -0.166016
vt -3.500000 -0.166016
vt -3.998047 0.014648
vt -3.492188 0.020996
vt -2.500000 -0.166016
vt -2.500000 0.012695
vt -2.996094 0.017090
vt -3.000000 -0.166016
vt -4.500000 -0.166016
vt -4.000000 -0.166016
vt -4.496094 0.021484
vt -4.000000 0.017578
vt -5.000000 0.999298
vt -5.500000 1.001136
vt -5.000000 -0.020508
vt -5.500000 -0.018555
vt -2.498047 0.998615
vt -2.998047 0.999292
vt -2.998047 -0.017578
vt -2.500000 -0.022461
vt -4.500000 0.998204
vt -3.998047 -0.014648
vt -3.998047 0.999283
vt -4.496094 -0.010742
vt -3.500000 -0.166016
vt -3.000000 -0.166016
vt -3.498047 0.011230
vt -2.998047 0.014648
vt -2.000000 -0.019531
vt -1.999023 0.999264
vt -2.500000 0.999126
vt -2.507812 -0.031250
vt -4.996094 -0.015625
vt -4.496094 0.999343
vt -4.996094 0.999282
vt -4.488281 -0.008789
vt -5.000000 -0.166016
vt -4.500000 -0.166016
vt -4.996094 0.017578
vt -4.492188 0.021973
vt -5.500000 -0.333008
vt -6.000000 -0.333008
vt -6.128906 -0.500000
vt -5.500000 -0.500000
vt -3.884766 -0.500000
vt -4.500000 -0.166016
vt -4.496094 -0.500000
vt -4.000000 -0.166016
vt -4.000000 -0.500000
vt -3.498047 -0.499023
vt -4.000000 -0.166016
vt -3.500000 -0.166016
vt -3.498047 -0.499023
vt -3.000000 -0.500000
vt -3.500000 -0.166016
vt -3.000000 -0.166016
vt -2.500000 -0.500000
vt -2.500000 -0.166016
vt -3.095703 -0.500000
vt -3.000000 -0.166016
vt -1.999023 -0.405273
vt -2.000000 0.015137
vt -2.468750 -0.416016
vt -2.507812 0.007324
vt -5.488281 0.023926
vt -6.000000 0.015137
vt -6.000000 -0.333008
vt -5.500000 -0.333008
vt -5.000000 0.014648
vt -5.500000 0.016113
vt -5.500000 -0.418945
vt -5.000000 -0.333008
vt -4.996094 -0.500000
vt -4.500000 -0.166016
vt -5.000000 -0.166016
vt -4.500000 -0.500000
vt -3.998047 -0.020508
vt -3.490234 -0.008789
vt -4.000000 0.999094
vt -3.500000 1.000449
vt -3.498047 -0.025391
vt -2.998047 -0.020508
vt -2.998047 0.999085
vt -3.498047 0.998257
vt -5.488281 -0.006836
vt -6.000000 0.999089
vt -6.000000 -0.019531
vt -5.500000 0.999069
vt1 -2.250000 2.160156
vt1 -2.097656 2.158203
vt1 -2.158203 2.904297
vt1 -2.576172 3.144531
vt1 -2.658203 3.894531
vt1 -2.728516 3.146484
vt1 -2.544922 2.907227
vt1 -2.615234 2.158203
vt1 -2.462891 2.158203
vt1 -2.298828 2.907227
vt1 -2.300781 2.161133
vt1 -2.289062 2.423828
vt1 -2.533203 3.144531
vt1 -2.531250 3.894531
vt1 -2.541016 3.412109
vt1 -2.939453 3.142578
vt1 -2.917969 3.416016
vt1 -2.941406 3.898438
vt1 -2.263672 2.160156
vt1 -2.222656 2.904297
vt1 -2.273438 2.665039
vt1 -2.193359 3.652344
vt1 -2.236328 3.894531
vt1 -2.199219 3.148438
vt1 -2.367188 3.152344
vt1 -2.216797 3.150391
vt1 -2.294922 3.894531
vt1 -2.552734 3.412109
vt1 -2.589844 3.894531
vt1 -2.562500 3.144531
vt1 -2.890625 3.894531
vt1 -2.900391 3.412109
vt1 -2.888672 3.148438
vt1 -1.717773 2.908203
vt1 -1.708008 2.152344
vt1 -1.699219 2.425781
vt1 -2.064453 2.167969
vt1 -2.066406 2.908203
vt1 -2.083984 2.425781
vt1 -2.626953 2.158203
vt1 -2.615234 2.907227
vt1 -2.636719 2.423828
vt1 -3.341797 3.898438
vt1 -3.341797 3.156250
vt1 -3.320312 3.416016
vt1 -3.744141 3.898438
vt1 -3.722656 3.140625
vt1 -3.716797 3.658203
vt1 -3.281250 3.144531
vt1 -3.285156 3.898438
vt1 -3.302734 3.416016
vt1 -2.312500 2.907227
vt1 -2.455078 2.907227
vt1 -2.462891 2.158203
vt1 -2.312500 2.161133
vt1 -2.722656 3.894531
vt1 -2.876953 3.148438
vt1 -2.724609 3.146484
vt1 -2.875000 3.894531
vt1 -3.205078 1.646973
vt1 -1.913086 1.649414
vt1 -3.197266 1.760742
vt1 -1.921875 1.758789
vt1 -1.700195 2.906250
vt1 -1.687500 2.160156
vt1 -1.536133 2.162109
vt1 -1.539062 2.771484
vt1 -2.367188 3.152344
vt1 -2.515625 3.894531
vt1 -2.517578 3.144531
vt1 -2.353516 3.894531
vt1 -4.453125 1.651367
vt1 -3.164062 1.646973
vt1 -3.171875 1.761230
vt1 -4.453125 1.757812
vt1 -1.956055 1.649414
vt1 -0.663574 1.645996
vt1 -1.949219 1.758789
vt1 -0.671387 1.758301
vt1 -3.941406 3.175781
vt1 -4.078125 3.158203
vt1 -3.927734 2.160156
vt1 -4.078125 2.163086
vt1 -2.705078 3.158203
vt1 -2.847656 3.177734
vt1 -2.857422 2.166016
vt1 -2.705078 2.164062
vt1 -2.863281 2.165039
vt1 -2.873047 3.175781
vt1 -3.013672 3.158203
vt1 -3.015625 2.163086
vt1 -3.568359 2.166016
vt1 -3.417969 3.158203
vt1 -3.554688 3.173828
vt1 -3.417969 2.166016
vt1 -3.718750 3.158203
vt1 -3.568359 2.166016
vt1 -3.582031 3.173828
vt1 -3.716797 2.163086
vt1 -3.230469 2.165039
vt1 -3.078125 3.158203
vt1 -3.214844 3.175781
vt1 -3.080078 2.163086
vt1 -3.378906 2.167969
vt1 -3.228516 2.165039
vt1 -3.378906 3.158203
vt1 -3.240234 3.175781
vt1 -3.916016 3.175781
vt1 -3.929688 2.160156
vt1 -3.779297 3.158203
vt1 -3.779297 2.166992
vt1 0.583008 1.757812
vt1 -0.699219 1.759277
vt1 0.585449 1.651855
vt1 -0.704590 1.648438
vt1 -2.949219 3.898438
vt1 -3.273438 3.144531
vt1 -2.955078 3.142578
vt1 -3.271484 3.898438
vt1 2.177734 0.038086
vt1 2.177734 1.037689
vt1 1.856445 1.039948
vt1 1.862305 0.054199
vt1 -3.693359 3.779297
vt1 -3.667969 3.164062
vt1 -3.351562 3.898438
vt1 -3.349609 3.156250
vt1 -4.070312 3.150391
vt1 -3.748047 3.898438
vt1 -4.070312 3.783203
vt1 -3.753906 3.140625
vt1 -1.731445 2.908203
vt1 -2.052734 2.908203
vt1 -2.052734 2.167969
vt1 -1.737305 2.152344
vt1 1.855469 0.041016
vt1 2.171875 0.032715
vt1 1.856445 1.038361
vt1 2.177734 1.038483
vt1 2.177734 1.040497
vt1 1.861328 0.056641
vt1 2.177734 0.045410
vt1 1.856445 1.038544
vt1 1.856445 1.038940
vt1 2.179688 0.052734
vt1 2.177734 1.037567
vt1 1.861328 0.054199
vt1 2.527344 0.535645
vt1 2.527344 0.546631
vt1 2.527344 0.538818
vt1 2.539062 0.534912
vt1 2.531250 0.534912
vt1 2.558594 0.539062
vt1 2.556641 0.547119
vt1 2.556641 0.535889
vt1 2.546875 0.534912
vt1 2.552734 0.535156
vt1 2.552734 0.565918
vt1 2.544922 0.565918
vt1 2.556641 0.565186
vt1 2.556641 0.554443
vt1 2.558594 0.562012
vt1 2.527344 0.562012
vt1 2.527344 0.553955
vt1 2.527344 0.565186
vt1 2.539062 0.566162
vt1 2.531250 0.565918
vt1 2.527344 0.546631
vt1 2.527344 0.536133
vt1 2.527344 0.564697
vt1 2.527344 0.553955
vt1 2.556641 0.564697
vt1 2.556641 0.536621
vt1 2.556641 0.547119
vt1 2.556641 0.554199
vt1 2.556641 0.535889
vt1 2.527344 0.535889
vt1 2.544922 0.535645
vt1 2.539062 0.535645
vt1 2.587891 0.485840
vt1 2.615234 0.485840
vt1 2.615234 0.513672
vt1 2.587891 0.514160
vt1 2.527344 0.565186
vt1 2.556641 0.565186
vt1 2.539062 0.565430
vt1 2.544922 0.565186
vt1 -3.798828 -0.240234
vt1 -3.458984 -0.114258
vt1 -3.875000 0.002930
vt1 -3.798828 -0.240234
vt1 -3.458984 -0.240234
vt1 -3.798828 0.022461
vt1 -3.455078 0.031738
vt1 -3.458984 -0.240234
vt1 -3.460938 0.019531
vt1 -3.796875 0.025391
vt1 -3.798828 -0.240234
vt1 -3.798828 -0.240234
vt1 -3.458984 -0.240234
vt1 -3.794922 0.032227
vt1 -3.458984 0.026367
vt1 -5.167969 0.987312
vt1 -5.507812 0.989136
vt1 -5.171875 -0.007812
vt1 -5.507812 -0.005859
vt1 -2.542969 0.986633
vt1 -2.880859 0.987343
vt1 -2.880859 -0.004883
vt1 -2.544922 -0.010742
vt1 -4.375000 0.986259
vt1 -4.035156 -0.002930
vt1 -4.035156 0.987305
vt1 -4.375000 0.001465
vt1 -3.798828 -0.240234
vt1 -3.458984 -0.240234
vt1 -3.796875 0.017578
vt1 -3.458984 0.021973
vt1 -2.050781 -0.006836
vt1 -2.048828 0.987259
vt1 -2.388672 0.987190
vt1 -2.394531 -0.018555
vt1 -4.945312 -0.003906
vt1 -4.609375 0.987328
vt1 -4.945312 0.987343
vt1 -4.601562 0.002930
vt1 -3.798828 -0.240234
vt1 -3.458984 -0.240234
vt1 -3.796875 0.026855
vt1 -3.455078 0.032715
vt1 -3.798828 -0.240234
vt1 -3.458984 -0.240234
vt1 -3.371094 0.001465
vt1 -3.796875 0.001465
vt1 -3.382812 -1.000000
vt1 -3.798828 -0.516602
vt1 -3.798828 -0.999023
vt1 -3.458984 -0.516602
vt1 -3.798828 -0.999023
vt1 -3.458984 -0.999023
vt1 -3.798828 -0.516602
vt1 -3.458984 -0.516602
vt1 -3.796875 -0.999023
vt1 -3.460938 -0.999023
vt1 -3.798828 -0.516602
vt1 -3.458984 -0.516602
vt1 -3.460938 -0.999023
vt1 -3.458984 -0.516602
vt1 -3.863281 -1.000000
vt1 -3.798828 -0.516602
vt1 -3.798828 -0.412109
vt1 -3.796875 -1.021484
vt1 -3.480469 -0.395508
vt1 -3.455078 -1.009766
vt1 -3.802734 -1.033203
vt1 -3.458984 -1.021484
vt1 -3.458984 -0.516602
vt1 -3.798828 -0.516602
vt1 -3.796875 -1.019531
vt1 -3.458984 -1.021484
vt1 -3.458984 -0.390625
vt1 -3.798828 -0.516602
vt1 -3.798828 -0.999023
vt1 -3.458984 -0.516602
vt1 -3.798828 -0.516602
vt1 -3.460938 -0.999023
vt1 -3.960938 0.000488
vt1 -3.615234 0.011230
vt1 -3.960938 0.995663
vt1 -3.621094 0.996964
vt1 -3.351562 -0.012695
vt1 -3.013672 -0.007812
vt1 -3.011719 0.987106
vt1 -3.351562 0.986320
vt1 -5.597656 0.005371
vt1 -5.941406 0.987091
vt1 -5.941406 -0.006836
vt1 -5.601562 0.987129
vn 0.000000 -0.000000 -1.000000
vn 0.000000 -0.000000 -1.000000
vn 0.000000 -0.000000 -1.000000
vn 1.000000 0.000000 0.000000
vn 1.000000 0.000000 0.000000
vn 1.000000 0.000000 0.000000
vn -1.000000 0.000000 0.000000
vn -1.000000 0.000000 0.000000
vn -1.000000 0.000000 0.000000
vn 1.000000 0.000000 0.000000
vn 1.000000 0.000000 0.000000
vn 1.000000 0.000000 0.000000
vn 0.000000 0.000000 1.000000
vn 0.000000 0.000000 1.000000
vn 0.000000 0.000000 1.000000
vn 0.000000 -0.000000 -1.000000
vn 0.000000 -0.000000 -1.000000
vn 0.000000 -0.000000 -1.000000
vn 1.000000 0.000000 0.000000
vn 1.000000 0.000000 0.000000
vn 1.000000 0.000000 0.000000
vn -1.000000 0.000000 0.000000
vn -1.000000 0.000000 0.000000
vn -1.000000 0.000000 0.000000
vn 0.000000 -0.000000 -1.000000
vn 0.000000 -0.000000 -1.000000
vn 0.000000 -0.000000 -1.000000
vn 0.000000 -0.000000 -1.000000
vn 0.000000 -0.000000 -1.000000
vn 0.000000 -0.000000 -1.000000
vn -1.000000 0.000000 0.000000
vn -1.000000 0.000000 0.000000
vn -1.000000 0.000000 0.000000
vn 1.000000 0.000000 0.000000
vn 1.000000 0.000000 0.000000
vn 1.000000 0.000000 0.000000
vn -1.000000 0.000000 0.000000
vn -1.000000 0.000000 0.000000
vn -1.000000 0.000000 0.000000
vn 0.000000 -0.000000 -1.000000
vn 0.000000 -0.000000 -1.000000
vn 0.000000 -0.000000 -1.000000
vn 0.000000 0.000000 1.000000
vn 0.000000 0.000000 1.000000
vn 0.000000 0.000000 1.000000
vn -1.000000 0.000000 0.000000
vn -1.000000 0.000000 0.000000
vn -1.000000 0.000000 0.000000
vn 0.000000 0.000000 1.000000
vn 0.000000 0.000000 1.000000
vn 0.000000 0.000000 1.000000
vn 0.000000 0.000000 1.000000
vn 0.000000 0.000000 1.000000
vn 0.000000 0.000000 1.000000
vn 0.000000 0.000000 1.000000
vn 0.000000 0.000000 1.000000
vn 0.000000 0.000000 1.000000
vn 0.000000 0.000000 1.000000
vn 0.000000 0.000000 1.000000
vn 0.000000 0.000000 1.000000
vn 0.000000 0.000000 1.000000
vn 0.000000 0.000000 1.000000
vn 0.000000 0.000000 1.000000
vn -1.000000 0.000000 0.000000
vn -1.000000 0.000000 0.000000
vn -1.000000 0.000000 0.000000
vn -1.000000 0.000000 0.000000
vn 1.000000 0.000000 0.000000
vn 1.000000 0.000000 0.000000
vn 1.000000 0.000000 0.000000
vn 1.000000 0.000000 0.000000
vn -1.000000 0.000000 0.000000
vn -1.000000 0.000000 0.000000
vn -1.000000 0.000000 0.000000
vn -1.000000 0.000000 0.000000
vn 1.000000 0.000000 0.000000
vn 1.000000 0.000000 0.000000
vn 1.000000 0.000000 0.000000
vn 1.000000 0.000000 0.000000
vn 0.000000 -0.000000 -1.000000
vn 0.000000 -0.000000 -1.000000
vn 0.000000 -0.000000 -1.000000
vn 0.000000 -0.000000 -1.000000
vn 0.000000 -0.000000 -1.000000
vn 0.000000 -0.000000 -1.000000
vn 0.000000 -0.000000 -1.000000
vn 0.000000 -0.000000 -1.000000
vn -1.000000 0.000000 0.000000
vn -1.000000 0.000000 0.000000
vn -1.000000 0.000000 0.000000
vn -1.000000 0.000000 0.000000
vn -1.000000 0.000000 0.000000
vn -1.000000 0.000000 0.000000
vn -1.000000 0.000000 0.000000
vn -1.000000 0.000000 0.000000
vn 0.000000 0.000000 1.000000
vn 0.000000 0.000000 1.000000
vn 0.000000 0.000000 1.000000
vn 0.000000 0.000000 1.000000
vn 0.000000 0.000000 1.000000
vn 0.000000 0.000000 1.000000
vn 0.000000 0.000000 1.000000
vn 0.000000 0.000000 1.000000
vn 1.000000 0.000000 0.000000
vn 1.000000 0.000000 0.000000
vn 1.000000 0.000000 0.000000
vn 1.000000 0.000000 0.000000
vn 1.000000 0.000000 0.000000
vn 1.000000 0.000000 0.000000
vn 1.000000 0.000000 0.000000
vn 1.000000 0.000000 0.000000
vn 0.000000 -0.000000 -1.000000
vn 0.000000 -0.000000 -1.000000
vn 0.000000 -0.000000 -1.000000
vn 0.000000 -0.000000 -1.000000
vn 1.000000 0.000000 0.000000
vn 1.000000 0.000000 0.000000
vn 1.000000 0.000000 0.000000
vn 1.000000 0.000000 0.000000
vn 0.000000 -0.007874 1.000000
vn 0.000000 -0.007874 1.000000
vn 0.000000 -0.007874 1.000000
vn 0.000000 -0.007874 1.000000
vn -1.000000 0.000000 0.000000
vn -1.000000 0.000000 0.000000
vn -1.000000 0.000000 0.000000
vn -1.000000 0.000000 0.000000
vn 0.000000 -0.000000 -1.000000
vn 0.000000 -0.000000 -1.000000
vn 0.000000 -0.000000 -1.000000
vn 0.000000 -0.000000 -1.000000
vn 0.000000 0.000000 1.000000
vn 0.000000 0.000000 1.000000
vn 0.000000 0.000000 1.000000
vn 0.000000 0.000000 1.000000
vn -1.000000 -0.007874 0.000000
vn -1.000000 -0.007874 0.000000
vn -1.000000 -0.007874 0.000000
vn -1.000000 -0.007874 0.000000
vn 0.000000 -0.007874 -1.000000
vn 0.000000 -0.007874 -1.000000
vn 0.000000 -0.007874 -1.000000
vn 0.000000 -0.007874 -1.000000
vn 1.000000 -0.007874 0.000000
vn 1.000000 -0.007874 0.000000
vn 1.000000 -0.007874 0.000000
vn 1.000000 -0.007874 0.000000
vn 0.000000 -1.000000 0.000000
vn 0.000000 -1.000000 0.000000
vn 0.000000 -1.000000 0.000000
vn 0.000000 -1.000000 0.000000
vn 0.000000 -1.000000 0.000000
vn 0.000000 -1.000000 0.000000
vn 0.000000 -1.000000 0.000000
vn 0.000000 -1.000000 0.000000
vn 0.000000 -1.000000 0.000000
vn 0.000000 -1.000000 0.000000
vn 0.000000 -1.000000 0.000000
vn 0.000000 -1.000000 0.000000
vn 0.000000 -1.000000 0.000000
vn 0.000000 -1.000000 0.000000
vn 0.000000 -1.000000 0.000000
vn 0.000000 -1.000000 0.000000
vn 0.000000 -1.000000 0.000000
vn 0.000000 -1.000000 0.000000
vn 0.000000 -1.000000 0.000000
vn 0.000000 -1.000000 0.000000
vn 0.000000 -0.000000 -1.000000
vn 0.000000 -0.000000 -1.000000
vn 0.000000 -0.000000 -1.000000
vn 0.000000 -0.000000 -1.000000
vn 0.000000 0.000000 1.000000
vn 0.000000 0.000000 1.000000
vn 0.000000 0.000000 1.000000
vn 0.000000 0.000000 1.000000
vn 1.000000 0.000000 0.000000
vn 1.000000 0.000000 0.000000
vn 1.000000 0.000000 0.000000
vn 1.000000 0.000000 0.000000
vn 0.000000 1.000000 -0.000000
vn 0.000000 1.000000 -0.000000
vn 0.000000 1.000000 -0.000000
vn 0.000000 1.000000 -0.000000
vn -1.000000 0.000000 0.000000
vn -1.000000 0.000000 0.000000
vn -1.000000 0.000000 0.000000
vn -1.000000 0.000000 0.000000
vn 0.000000 -0.000000 -1.000000
vn 0.000000 -0.000000 -1.000000
vn 0.000000 -0.000000 -1.000000
vn 0.000000 0.000000 1.000000
vn 0.000000 0.000000 1.000000
vn 0.000000 0.000000 1.000000
vn 0.000000 0.000000 1.000000
vn -1.000000 0.000000 0.000000
vn -1.000000 0.000000 0.000000
vn -1.000000 0.000000 0.000000
vn -1.000000 0.000000 0.000000
vn 1.000000 0.000000 0.000000
vn 1.000000 0.000000 0.000000
vn 1.000000 0.000000 0.000000
vn 1.000000 0.000000 0.000000
vn 0.000000 -0.000000 -1.000000
vn 0.000000 -0.000000 -1.000000
vn 0.000000 -0.000000 -1.000000
vn 0.000000 -0.000000 -1.000000
vn -1.000000 0.000000 0.000000
vn -1.000000 0.000000 0.000000
vn -1.000000 0.000000 0.000000
vn -1.000000 0.000000 0.000000
vn 1.000000 0.000000 0.000000
vn 1.000000 0.000000 0.000000
vn 1.000000 0.000000 0.000000
vn 1.000000 0.000000 0.000000
vn 0.000000 0.000000 1.000000
vn 0.000000 0.000000 1.000000
vn 0.000000 0.000000 1.000000
vn 0.000000 0.000000 1.000000
vn -1.000000 0.000000 0.000000
vn -1.000000 0.000000 0.000000
vn -1.000000 0.000000 0.000000
vn -1.000000 0.000000 0.000000
vn 1.000000 0.000000 0.000000
vn 1.000000 0.000000 0.000000
vn 1.000000 0.000000 0.000000
vn 1.000000 0.000000 0.000000
vn 1.000000 0.000000 0.000000
vn 1.000000 0.000000 0.000000
vn 1.000000 0.000000 0.000000
vn 1.000000 0.000000 0.000000
vn 0.000000 -0.000000 -1.000000
vn 0.000000 -0.000000 -1.000000
vn 0.000000 -0.000000 -1.000000
vn 0.000000 -0.000000 -1.000000
vn 1.000000 0.000000 0.000000
vn 1.000000 0.000000 0.000000
vn 1.000000 0.000000 0.000000
vn 1.000000 0.000000 0.000000
vn 0.000000 0.000000 1.000000
vn 0.000000 0.000000 1.000000
vn 0.000000 0.000000 1.000000
vn 0.000000 0.000000 1.000000
vn 0.000000 0.000000 1.000000
vn 0.000000 0.000000 1.000000
vn 0.000000 0.000000 1.000000
vn 0.000000 0.000000 1.000000
vn -1.000000 0.000000 0.000000
vn -1.000000 0.000000 0.000000
vn -1.000000 0.000000 0.000000
vn -1.000000 0.000000 0.000000
vn -1.000000 0.000000 0.000000
vn -1.000000 0.000000 0.000000
vn -1.000000 0.000000 0.000000
vn -1.000000 0.000000 0.000000
vn 0.000000 -0.000000 -1.000000
vn 0.000000 -0.000000 -1.000000
vn 0.000000 -0.000000 -1.000000
vn 0.000000 -0.000000 -1.000000
vn 0.000000 -0.000000 -1.000000
vn 0.000000 -0.000000 -1.000000
vn 0.000000 -0.000000 -1.000000
vn 0.000000 -0.000000 -1.000000
vn 1.000000 0.000000 0.000000
vn 1.000000 0.000000 0.000000
vn 1.000000 0.000000 0.000000
vn 1.000000 0.000000 0.000000
vn 0.000000 0.000000 1.000000
vn 0.000000 0.000000 1.000000
vn 0.000000 0.000000 1.000000
vn 0.000000 0.000000 1.000000
vn 0.000000 0.000000 1.000000
vn 0.000000 0.000000 1.000000
vn 0.000000 0.000000 1.000000
vn 0.000000 0.000000 1.000000
vn 0.000000 -0.000000 -1.000000
vn 0.000000 -0.000000 -1.000000
vn 0.000000 -0.000000 -1.000000
vn 0.000000 -0.000000 -1.000000
tan 0.000000 1.000000 -0.000000 1.000000
tan 0.000000 1.000000 -0.000000 1.000000
tan 0.000000 1.000000 -0.000000 1.000000
tan 0.000000 1.000000 -0.000000 1.000000
tan 0.000000 1.000000 -0.000000 1.000000
tan 0.000000 1.000000 -0.000000 1.000000
tan 0.000000 1.000000 -0.000000 1.000000
tan 0.000000 1.000000 -0.000000 1.000000
tan 0.000000 1.000000 -0.000000 1.000000
tan 0.000000 1.000000 -0.000000 1.000000
tan 0.000000 1.000000 -0.000000 1.000000
tan 0.000000 1.000000 -0.000000 1.000000
tan 0.000000 1.000000 -0.000000 1.000000
tan 0.000000 1.000000 -0.000000 1.000000
tan 0.000000 1.000000 -0.000000 1.000000
tan 0.000000 1.000000 -0.000000 1.000000
tan 0.000000 1.000000 -0.000000 1.000000
tan 0.000000 1.000000 -0.000000 1.000000
tan 0.000000 1.000000 -0.000000 1.000000
tan 0.000000 1.000000 -0.000000 1.000000
tan 0.000000 1.000000 -0.000000 1.000000
tan 0.000000 1.000000 -0.000000 1.000000
tan 0.000000 1.000000 -0.000000 1.000000
tan 0.000000 1.000000 -0.000000 1.000000
tan 0.000000 1.000000 -0.000000 1.000000
tan 0.000000 1.000000 -0.000000 1.000000
tan 0.000000 1.000000 -0.000000 1.000000
tan 0.000000 1.000000 -0.000000 1.000000
tan 0.000000 1.000000 -0.000000 1.000000
tan 0.000000 1.000000 -0.000000 1.000000
tan 0.000000 1.000000 -0.000000 1.000000
tan 0.000000 1.000000 -0.000000 1.000000
tan 0.000000 1.000000 -0.000000 1.000000
tan 0.000000 1.000000 -0.000000 1.000000
tan 0.000000 1.000000 -0.000000 1.000000
tan 0.000000 1.000000 -0.000000 1.000000
tan 0.000000 1.000000 -0.000000 1.000000
tan 0.000000 1.000000 -0.000000 1.000000
tan 0.000000 1.000000 -0.000000 1.000000
tan 0.000000 1.000000 -0.000000 1.000000
tan 0.000000 1.000000 -0.000000 1.000000
tan 0.000000 1.000000 -0.000000 1.000000
tan 0.000000 1.000000 -0.000000 1.000000
tan 0.000000 1.000000 -0.000000 1.000000
tan 0.000000 1.000000 -0.000000 1.000000
tan 0.000000 1.000000 -0.000000 1.000000
tan 0.000000 1.000000 -0.000000 1.000000
tan 0.000000 1.000000 -0.000000 1.000000
tan 0.000000 1.000000 -0.000000 1.000000
tan 0.000000 1.000000 -0.000000 1.000000
tan 0.000000 1.000000 -0.000000 1.000000
tan 0.000000 1.000000 -0.000000 1.000000
tan 0.000000 1.000000 -0.000000 1.000000
tan 0.000000 1.000000 -0.000000 1.000000
tan 0.000000 1.000000 -0.000000 1.000000
tan 0.000000 1.000000 -0.000000 1.000000
tan 0.000000 1.000000 -0.000000 1.000000
tan 0.000000 1.000000 -0.000000 1.000000
tan 0.000000 1.000000 -0.000000 1.000000
tan 0.000000 1.000000 -0.000000 1.000000
tan 0.000000 1.000000 -0.000000 1.000000
tan 0.000000 1.000000 -0.000000 1.000000
tan 0.000000 1.000000 -0.000000 1.000000
tan 0.000000 1.000000 -0.000000 1.000000
tan 0.000000 1.000000 -0.000000 1.000000
tan 0.000000 1.000000 -0.000000 1.000000
tan 0.000000 1.000000 -0.000000 1.000000
tan 0.000000 1.000000 -0.000000 1.000000
tan 0.000000 1.000000 -0.000000 1.000000
tan 0.000000 1.000000 -0.000000 1.000000
tan 0.000000 1.000000 -0.000000 1.000000
tan 0.000000 1.000000 -0.000000 1.000000
tan 0.000000 1.000000 -0.000000 1.000000
tan 0.000000 1.000000 -0.000000 1.000000
tan 0.000000 1.000000 -0.000000 1.000000
tan 0.000000 1.000000 -0.000000 1.000000
tan 0.000000 1.000000 -0.000000 1.000000
tan 0.000000 1.000000 -0.000000 1.000000
tan 0.000000 1.000000 -0.000000 1.000000
tan 0.000000 -1.000000 0.000000 1.000000
tan 0.000000 -1.000000 0.000000 1.000000
tan 0.000000 -1.000000 0.000000 1.000000
tan 0.000000 -1.000000 0.000000 1.000000
tan 0.000000 -1.000000 0.000000 1.000000
tan 0.000000 -1.000000 0.000000 1.000000
tan 0.000000 -1.000000 0.000000 1.000000
tan 0.000000 -1.000000 0.000000 1.000000
tan 0.000000 -1.000000 0.000000 1.000000
tan 0.000000 -1.000000 0.000000 1.000000
tan 0.000000 -1.000000 0.000000 1.000000
tan 0.000000 -1.000000 0.000000 1.000000
tan 0.000000 -1.000000 0.000000 1.000000
tan 0.000000 -1.000000 0.000000 1.000000
tan 0.000000 -1.000000 0.000000 1.000000
tan 0.000000 -1.000000 0.000000 1.000000
tan 0.000000 -1.000000 0.000000 1.000000
tan 0.000000 -1.000000 0.000000 1.000000
tan 0.000000 -1.000000 0.000000 1.000000
tan 0.000000 -1.000000 0.000000 1.000000
tan 0.000000 -1.000000 0.000000 1.000000
tan 0.000000 -1.000000 0.000000 1.000000
tan 0.000000 -1.000000 0.000000 1.000000
tan 0.000000 -1.000000 0.000000 1.000000
tan 0.000000 -1.000000 0.000000 1.000000
tan 0.000000 -1.000000 0.000000 1.000000
tan 0.000000 -1.000000 0.000000 1.000000
tan 0.000000 -1.000000 0.000000 1.000000
tan 0.000000 -1.000000 0.000000 1.000000
tan 0.000000 -1.000000 0.000000 1.000000
tan 0.000000 -1.000000 0.000000 1.000000
tan 0.000000 -1.000000 0.000000 1.000000
tan 0.000000 1.000000 -0.000000 1.000000
tan 0.000000 1.000000 -0.000000 1.000000
tan 0.000000 1.000000 -0.000000 1.000000
tan 0.000000 1.000000 -0.000000 1.000000
tan 0.000000 1.000000 -0.000000 1.000000
tan 0.000000 1.000000 -0.000000 1.000000
tan 0.000000 1.000000 -0.000000 1.000000
tan 0.000000 1.000000 -0.000000 1.000000
tan 0.000000 -1.000000 -0.007874 1.000000
tan 0.000000 -1.000000 -0.007874 1.000000
tan 0.000000 -1.000000 -0.007874 1.000000
tan 0.000000 -1.000000 -0.007874 1.000000
tan 0.000000 1.000000 -0.000000 1.000000
tan 0.000000 1.000000 -0.000000 1.000000
tan 0.000000 1.000000 -0.000000 1.000000
tan 0.000000 1.000000 -0.000000 1.000000
tan 0.000000 1.000000 -0.000000 1.000000
tan 0.000000 1.000000 -0.000000 1.000000
tan 0.000000 1.000000 -0.000000 1.000000
tan 0.000000 1.000000 -0.000000 1.000000
tan 0.000000 1.000000 -0.000000 1.000000
tan 0.000000 1.000000 -0.000000 1.000000
tan 0.000000 1.000000 -0.000000 1.000000
tan 0.000000 1.000000 -0.000000 1.000000
tan 0.007874 -1.000000 0.000000 1.000000
tan 0.007874 -1.000000 0.000000 1.000000
tan 0.007874 -1.000000 0.000000 1.000000
tan 0.007874 -1.000000 0.000000 1.000000
tan 0.000000 -1.000000 0.007874 1.000000
tan 0.000000 -1.000000 0.007874 1.000000
tan 0.000000 -1.000000 0.007874 1.000000
tan 0.000000 -1.000000 0.007874 1.000000
tan -0.007874 -1.000000 0.000000 1.000000
tan -0.007874 -1.000000 0.000000 1.000000
tan -0.007874 -1.000000 0.000000 1.000000
tan -0.007874 -1.000000 0.000000 1.000000
tan -0.055118 0.000000 1.000000 1.000000
tan 1.000000 -0.000000 -0.039370 1.000000
tan 0.944882 0.000000 0.314961 1.000000
tan -1.000000 -0.000000 -0.062992 1.000000
tan -0.944882 0.000000 0.314961 1.000000
tan 0.968504 -0.000000 -0.251968 1.000000
tan 1.000000 0.000000 0.031496 1.000000
tan 0.015748 -0.000000 -1.000000 1.000000
tan -1.000000 0.000000 0.070866 1.000000
tan -0.937008 -0.000000 -0.346457 1.000000
tan -0.944882 0.000000 0.330709 1.000000
tan -1.000000 -0.000000 -0.055118 1.000000
tan -0.031496 0.000000 1.000000 1.000000
tan 1.000000 -0.000000 -0.078740 1.000000
tan 0.968504 0.000000 0.244094 1.000000
tan 0.968504 -0.000000 -0.244094 1.000000
tan 1.000000 0.000000 0.062992 1.000000
tan 0.007874 -0.000000 -1.000000 1.000000
tan -1.000000 0.000000 0.078740 1.000000
tan -0.944882 -0.000000 -0.338583 1.000000
tan 1.000000 -0.055118 0.000000 1.000000
tan 0.913386 -0.401575 0.000000 1.000000
tan 0.921260 0.385827 -0.000000 1.000000
tan 0.992126 0.133858 -0.000000 1.000000
tan 0.937008 0.346457 -0.000000 1.000000
tan 0.929134 -0.370079 0.000000 1.000000
tan 1.000000 -0.031496 0.000000 1.000000
tan 0.992126 0.149606 -0.000000 1.000000
tan 0.000000 -0.984252 -0.157480 1.000000
tan 0.000000 -0.992126 0.141732 1.000000
tan 0.000000 -1.000000 -0.015748 1.000000
tan 0.000000 -1.000000 0.047244 1.000000
tan 1.000000 -0.000000 -0.031496 1.000000
tan 1.000000 -0.000000 -0.007874 1.000000
tan 1.000000 0.000000 0.031496 1.000000
tan 1.000000 0.000000 0.000000 1.000000
tan 0.000000 0.984252 -0.149606 1.000000
tan 0.000000 0.984252 0.157480 1.000000
tan 0.000000 1.000000 -0.007874 1.000000
tan 0.000000 1.000000 0.055118 1.000000
tan 0.000000 -1.000000 0.000000 1.000000
tan 0.000000 -1.000000 0.000000 1.000000
tan 0.000000 -1.000000 0.000000 1.000000
tan 0.000000 -1.000000 0.000000 1.000000
tan 0.000000 -1.000000 0.000000 1.000000
tan 0.000000 -1.000000 0.000000 1.000000
tan 0.000000 -1.000000 0.000000 1.000000
tan 0.000000 -1.000000 0.000000 1.000000
tan 0.000000 -1.000000 0.000000 1.000000
tan 0.000000 -1.000000 0.000000 1.000000
tan 0.000000 -1.000000 0.000000 1.000000
tan 0.000000 -1.000000 0.000000 1.000000
tan 0.000000 -1.000000 0.000000 1.000000
tan 0.000000 -1.000000 0.000000 1.000000
tan 0.000000 -1.000000 0.000000 1.000000
tan 0.000000 -1.000000 0.000000 1.000000
tan 0.000000 -1.000000 0.000000 1.000000
tan 0.000000 -1.000000 0.000000 1.000000
tan 0.000000 -1.000000 0.000000 1.000000
tan 0.000000 -1.000000 0.000000 1.000000
tan 0.000000 -1.000000 0.000000 1.000000
tan 0.000000 -1.000000 0.000000 1.000000
tan 0.000000 -1.000000 0.000000 1.000000
tan 0.000000 -1.000000 0.000000 1.000000
tan 0.000000 -1.000000 0.000000 1.000000
tan 0.000000 -1.000000 0.000000 1.000000
tan 0.000000 -1.000000 0.000000 1.000000
tan 0.000000 -1.000000 0.000000 1.000000
tan 0.000000 -1.000000 0.000000 1.000000
tan 0.000000 -1.000000 0.000000 1.000000
tan 0.000000 -1.000000 0.000000 1.000000
tan 0.000000 -1.000000 0.000000 1.000000
tan 0.000000 -1.000000 0.000000 1.000000
tan 0.000000 -1.000000 0.000000 1.000000
tan 0.000000 -1.000000 0.000000 1.000000
tan 0.000000 -1.000000 0.000000 1.000000
tan 0.000000 -1.000000 0.000000 1.000000
tan 0.000000 -1.000000 0.000000 1.000000
tan 0.000000 -1.000000 0.000000 1.000000
tan 0.000000 -1.000000 0.000000 1.000000
tan 0.000000 -1.000000 0.000000 1.000000
tan 0.000000 -1.000000 0.000000 1.000000
tan 0.000000 -1.000000 0.000000 1.000000
tan 0.000000 -1.000000 0.000000 1.000000
tan 0.000000 -1.000000 0.000000 1.000000
tan 0.000000 -1.000000 0.000000 1.000000
tan 0.000000 -1.000000 0.000000 1.000000
tan 0.000000 -1.000000 0.000000 1.000000
tan 0.000000 -1.000000 0.000000 1.000000
tan 0.000000 -1.000000 0.000000 1.000000
tan 0.000000 -1.000000 0.000000 1.000000
tan 0.000000 -1.000000 0.000000 1.000000
tan 0.000000 -1.000000 0.000000 1.000000
tan 0.000000 -1.000000 0.000000 1.000000
tan 0.000000 -1.000000 0.000000 1.000000
tan 0.000000 -1.000000 0.000000 1.000000
tan 0.000000 -1.000000 0.000000 1.000000
tan 0.000000 -1.000000 0.000000 1.000000
tan 0.000000 -1.000000 0.000000 1.000000
tan 0.000000 -1.000000 0.000000 1.000000
tan 0.000000 -1.000000 0.000000 1.000000
tan 0.000000 -1.000000 0.000000 1.000000
tan 0.000000 -1.000000 0.000000 1.000000
tan 0.000000 -1.000000 0.000000 1.000000
tan 0.000000 -1.000000 0.000000 1.000000
tan 0.000000 -1.000000 0.000000 1.000000
tan 0.000000 -1.000000 0.000000 1.000000
tan 0.000000 -1.000000 0.000000 1.000000
tan 0.000000 -1.000000 0.000000 1.000000
tan 0.000000 -1.000000 0.000000 1.000000
tan 0.000000 -1.000000 0.000000 1.000000
tan 0.000000 -1.000000 0.000000 1.000000
tan 0.000000 -1.000000 0.000000 1.000000
tan 0.000000 -1.000000 0.000000 1.000000
tan 0.000000 -1.000000 0.000000 1.000000
tan 0.000000 -1.000000 0.000000 1.000000
tan 0.000000 -1.000000 0.000000 1.000000
tan 0.000000 -1.000000 0.000000 1.000000
tan 0.000000 -1.000000 0.000000 1.000000
tan 0.000000 -1.000000 0.000000 1.000000
tan 0.000000 -1.000000 0.000000 1.000000
tan 0.000000 -1.000000 0.000000 1.000000
tan 0.000000 -1.000000 0.000000 1.000000
tan 0.000000 -1.000000 0.000000 1.000000
tan 0.000000 -1.000000 0.000000 1.000000
tan 0.000000 -1.000000 0.000000 1.000000
tan 0.000000 -1.000000 0.000000 1.000000
tan 0.000000 -1.000000 0.000000 1.000000
tan 0.000000 -1.000000 0.000000 1.000000
tan 0.000000 -1.000000 0.000000 1.000000
tan 0.000000 -1.000000 0.000000 1.000000
f 3/3/3 2/2/2 1/1/1
f 6/6/6 5/5/5 4/4/4
f 9/9/9 8/8/8 7/7/7
f 12/12/12 11/11/11 10/10/10
f 15/15/15 14/14/14 13/13/13
f 18/18/18 17/17/17 16/16/16
f 21/21/21 20/20/20 19/19/19
f 24/24/24 23/23/23 22/22/22
f 27/27/27 26/26/26 25/25/25
f 30/30/30 29/29/29 28/28/28
f 33/33/33 32/32/32 31/31/31
f 36/36/36 35/35/35 34/34/34
f 39/39/39 38/38/38 37/37/37
f 42/42/42 41/41/41 40/40/40
f 45/45/45 44/44/44 43/43/43
f 48/48/48 47/47/47 46/46/46
f 51/51/51 50/50/50 49/49/49
f 54/54/54 53/53/53 52/52/52
f 55/55/55 54/54/54 52/52/52
f 58/58/58 57/57/57 56/56/56
f 56/56/56 57/57/57 59/59/59
f 62/62/62 61/61/61 60/60/60
f 61/61/61 62/62/62 63/63/63
f 66/66/66 65/65/65 64/64/64
f 67/67/67 66/66/66 64/64/64
f 70/70/70 69/69/69 68/68/68
f 69/69/69 71/71/71 68/68/68
f 74/74/74 73/73/73 72/72/72
f 74/74/74 72/72/72 75/75/75
f 78/78/78 77/77/77 76/76/76
f 77/77/77 78/78/78 79/79/79
f 82/82/82 81/81/81 80/80/80
f 83/83/83 81/81/81 82/82/82
f 86/86/86 85/85/85 84/84/84
f 87/87/87 86/86/86 84/84/84
f 90/90/90 89/89/89 88/88/88
f 91/91/91 90/90/90 88/88/88
f 94/94/94 93/93/93 92/92/92
f 95/95/95 92/92/92 93/93/93
f 98/98/98 97/97/97 96/96/96
f 96/96/96 97/97/97 99/99/99
f 102/102/102 101/101/101 100/100/100
f 100/100/100 101/101/101 103/103/103
f 106/106/106 105/105/105 104/104/104
f 107/107/107 105/105/105 106/106/106
f 110/110/110 109/109/109 108/108/108
f 110/110/110 111/111/111 109/109/109
f 114/114/114 113/113/113 112/112/112
f 113/113/113 114/114/114 115/115/115
f 118/118/118 117/117/117 116/116/116
f 119/119/119 116/116/116 117/117/117
f 122/122/122 121/121/121 120/120/120
f 122/122/122 120/120/120 123/123/123
f 126/126/126 125/125/125 124/124/124
f 126/126/126 127/127/127 125/125/125
f 130/130/130 129/129/129 128/128/128
f 128/128/128 129/129/129 131/131/131
f 134/134/134 133/133/133 132/132/132
f 135/135/135 134/134/134 132/132/132
f 138/138/138 137/137/137 136/136/136
f 137/137/137 138/138/138 139/139/139
f 142/142/142 141/141/141 140/140/140
f 140/140/140 141/141/141 143/143/143
f 146/146/146 145/145/145 144/144/144
f 147/147/147 144/144/144 145/145/145
f 150/150/150 149/149/149 148/148/148
f 152/152/152 148/148/148 151/151/151
f 155/155/155 154/154/154 153/153/153
f 155/155/155 157/157/157 156/156/156
f 160/160/160 159/159/159 158/158/158
f 160/160/160 162/162/162 161/161/161
f 165/165/165 164/164/164 163/163/163
f 167/167/167 166/166/166 165/165/165
f 170/170/170 169/169/169 168/168/168
f 170/170/170 168/168/168 171/171/171
f 174/174/174 173/173/173 172/172/172
f 172/172/172 175/175/175 174/174/174
f 178/178/178 177/177/177 176/176/176
f 177/177/177 178/178/178 179/179/179
f 182/182/182 181/181/181 180/180/180
f 182/182/182 180/180/180 183/183/183
f 186/186/186 185/185/185 184/184/184
f 187/187/187 185/185/185 186/186/186
f 190/190/190 189/189/189 188/188/188
f 193/193/193 192/192/192 191/191/191
f 193/193/193 194/194/194 192/192/192
f 197/197/197 196/196/196 195/195/195
f 198/198/198 197/197/197 195/195/195
f 201/201/201 200/200/200 199/199/199
f 202/202/202 200/200/200 201/201/201
f 205/205/205 204/204/204 203/203/203
f 206/206/206 204/204/204 205/205/205
f 209/209/209 208/208/208 207/207/207
f 209/209/209 207/207/207 210/210/210
f 213/213/213 212/212/212 211/211/211
f 211/211/211 212/212/212 214/214/214
f 217/217/217 216/216/216 215/215/215
f 217/217/217 218/218/218 216/216/216
f 221/221/221 220/220/220 219/219/219
f 222/222/222 221/221/221 219/219/219
f 225/225/225 224/224/224 223/223/223
f 226/226/226 223/223/223 224/224/224
f 229/229/229 228/228/228 227/227/227
f 230/230/230 228/228/228 229/229/229
f 233/233/233 232/232/232 231/231/231
f 234/234/234 233/233/233 231/231/231
f 237/237/237 236/236/236 235/235/235
f 238/238/238 235/235/235 236/236/236
f 241/241/241 240/240/240 239/239/239
f 241/241/241 242/242/242 240/240/240
f 245/245/245 244/244/244 243/243/243
f 245/245/245 246/246/246 244/244/244
f 249/249/249 248/248/248 247/247/247
f 249/249/249 250/250/250 248/248/248
f 253/253/253 252/252/252 251/251/251
f 253/253/253 254/254/254 252/252/252
f 257/257/257 256/256/256 255/255/255
f 258/258/258 257/257/257 255/255/255
f 261/261/261 260/260/260 259/259/259
f 262/262/262 261/261/261 259/259/259
f 265/265/265 264/264/264 263/263/263
f 266/266/266 263/263/263 264/264/264
f 269/269/269 268/268/268 267/267/267
f 269/269/269 270/270/270 268/268/268
f 273/273/273 272/272/272 271/271/271
f 274/274/274 273/273/273 271/271/271
f 277/277/277 276/276/276 275/275/275
f 275/275/275 276/276/276 278/278/278
