mtllib SM_Mansion_Roof_02_LOD1@000002909DC3C800.mtl
g SM_Mansion_Roof_02_LOD1@000002909DC3C800
#Vertices 80
#Indices 168
#Section 0 Offset 0 NumIndices 168 MaterialIndex 0 MI_RoofTile_A_01
v -0.125106 15.093902 -0.000002 0.000000 1.000000 0.000000 1.000000
v -0.000000 15.093902 -0.125108 0.000000 1.000000 0.000000 1.000000
v -0.000000 15.771371 -0.000002 0.000000 1.000000 0.000000 1.000000
v -0.000000 15.093902 -0.125108 0.000000 1.000000 0.000000 1.000000
v 0.125106 15.093902 -0.000002 0.000000 1.000000 0.000000 1.000000
v -0.000000 15.771371 -0.000002 0.000000 1.000000 0.000000 1.000000
v 0.125106 15.093902 -0.000002 0.000000 1.000000 0.000000 1.000000
v 0.000000 15.093902 0.125104 0.000000 1.000000 0.000000 1.000000
v -0.000000 15.771371 -0.000002 0.000000 1.000000 0.000000 1.000000
v 0.000000 15.093902 0.125104 0.000000 1.000000 0.000000 1.000000
v -0.125106 15.093902 -0.000002 0.000000 1.000000 0.000000 1.000000
v -0.000000 15.771371 -0.000002 0.000000 1.000000 0.000000 1.000000
v -4.874894 -0.000001 -5.000000 0.000000 1.000000 0.000000 1.000000
v 4.874894 -0.000001 -5.000000 0.000000 1.000000 0.000000 1.000000
v -2.898434 3.930349 -3.023540 0.000000 1.000000 0.000000 1.000000
v 2.581515 4.589652 -2.709906 0.000000 1.000000 0.000000 1.000000
v -2.332752 5.274047 -2.457298 0.000000 1.000000 0.000000 1.000000
v 1.123226 8.879431 -1.246532 0.000000 1.000000 0.000000 1.000000
v -1.117969 8.911653 -1.245075 0.000000 1.000000 0.000000 1.000000
v -0.000000 15.093902 -0.125108 0.000000 1.000000 0.000000 1.000000
v 5.000000 -0.000001 -4.874894 0.000000 1.000000 0.000000 1.000000
v 5.000000 0.000001 4.874894 0.000000 1.000000 0.000000 1.000000
v 3.023540 3.930350 -2.898434 0.000000 1.000000 0.000000 1.000000
v 3.023540 3.930350 2.898433 0.000000 1.000000 0.000000 1.000000
v 2.470057 5.236770 -2.345537 0.000000 1.000000 0.000000 1.000000
v 2.476239 5.233009 2.349621 0.000000 1.000000 0.000000 1.000000
v 1.246731 8.879347 1.123897 0.000000 1.000000 0.000000 1.000000
v 1.247177 8.901990 -1.119020 0.000000 1.000000 0.000000 1.000000
v 0.125106 15.093902 -0.000002 0.000000 1.000000 0.000000 1.000000
v -2.898434 3.930349 -3.023540 0.000000 1.000000 0.000000 1.000000
v -5.000000 -0.000001 -4.874894 0.000000 1.000000 0.000000 1.000000
v -4.874894 -0.000001 -5.000000 0.000000 1.000000 0.000000 1.000000
v -2.713087 4.583089 -2.585223 0.000000 1.000000 0.000000 1.000000
v -2.332752 5.274047 -2.457298 0.000000 1.000000 0.000000 1.000000
v -1.248924 8.870210 -1.124549 0.000000 1.000000 0.000000 1.000000
v -1.117969 8.911653 -1.245075 0.000000 1.000000 0.000000 1.000000
v -0.125106 15.093902 -0.000002 0.000000 1.000000 0.000000 1.000000
v -0.000000 15.093902 -0.125108 0.000000 1.000000 0.000000 1.000000
v -1.119110 8.905455 1.245839 0.000000 1.000000 0.000000 1.000000
v -0.125106 15.093902 -0.000002 0.000000 1.000000 0.000000 1.000000
v 0.000000 15.093902 0.125104 0.000000 1.000000 0.000000 1.000000
v -1.247151 8.902185 1.119019 0.000000 1.000000 0.000000 1.000000
v -2.591436 4.557549 2.715319 0.000000 1.000000 0.000000 1.000000
v -2.470021 5.236884 2.345524 0.000000 1.000000 0.000000 1.000000
v -3.023540 3.930350 2.898433 0.000000 1.000000 0.000000 1.000000
v -5.000000 0.000001 4.874894 0.000000 1.000000 0.000000 1.000000
v -4.874894 0.000001 5.000000 0.000000 1.000000 0.000000 1.000000
v -0.000000 15.093902 -0.125108 0.000000 1.000000 0.000000 1.000000
v 1.123226 8.879431 -1.246532 0.000000 1.000000 0.000000 1.000000
v 0.125106 15.093902 -0.000002 0.000000 1.000000 0.000000 1.000000
v 1.247177 8.901990 -1.119020 0.000000 1.000000 0.000000 1.000000
v 2.581515 4.589652 -2.709906 0.000000 1.000000 0.000000 1.000000
v 2.470057 5.236770 -2.345537 0.000000 1.000000 0.000000 1.000000
v 3.023540 3.930350 -2.898434 0.000000 1.000000 0.000000 1.000000
v 5.000000 -0.000001 -4.874894 0.000000 1.000000 0.000000 1.000000
v 4.874894 -0.000001 -5.000000 0.000000 1.000000 0.000000 1.000000
v 0.000000 15.093902 0.125104 0.000000 1.000000 0.000000 1.000000
v 1.151599 8.740956 1.276025 0.000000 1.000000 0.000000 1.000000
v -1.119110 8.905455 1.245839 0.000000 1.000000 0.000000 1.000000
v -2.591436 4.557549 2.715319 0.000000 1.000000 0.000000 1.000000
v 2.646885 4.450623 2.773483 0.000000 1.000000 0.000000 1.000000
v 4.874894 0.000001 5.000000 0.000000 1.000000 0.000000 1.000000
v -4.874894 0.000001 5.000000 0.000000 1.000000 0.000000 1.000000
v -1.247151 8.902185 1.119019 0.000000 1.000000 0.000000 1.000000
v -1.248924 8.870210 -1.124549 0.000000 1.000000 0.000000 1.000000
v -0.125106 15.093902 -0.000002 0.000000 1.000000 0.000000 1.000000
v -2.470021 5.236884 2.345524 0.000000 1.000000 0.000000 1.000000
v -2.713087 4.583089 -2.585223 0.000000 1.000000 0.000000 1.000000
v -3.023540 3.930350 2.898433 0.000000 1.000000 0.000000 1.000000
v -5.000000 -0.000001 -4.874894 0.000000 1.000000 0.000000 1.000000
v -5.000000 0.000001 4.874894 0.000000 1.000000 0.000000 1.000000
v 4.874894 0.000001 5.000000 0.000000 1.000000 0.000000 1.000000
v 2.646885 4.450623 2.773483 0.000000 1.000000 0.000000 1.000000
v 5.000000 0.000001 4.874894 0.000000 1.000000 0.000000 1.000000
v 3.023540 3.930350 2.898433 0.000000 1.000000 0.000000 1.000000
v 2.476239 5.233009 2.349621 0.000000 1.000000 0.000000 1.000000
v 1.151599 8.740956 1.276025 0.000000 1.000000 0.000000 1.000000
v 1.246731 8.879347 1.123897 0.000000 1.000000 0.000000 1.000000
v 0.125106 15.093902 -0.000002 0.000000 1.000000 0.000000 1.000000
v 0.000000 15.093902 0.125104 0.000000 1.000000 0.000000 1.000000
vt -0.733398 2.371094
vt -0.733398 2.432617
vt -0.764160 2.402344
vt -0.733398 2.432617
vt -0.794434 2.432617
vt -0.764160 2.402344
vt -0.794434 2.432617
vt -0.794434 2.371094
vt -0.764160 2.402344
vt -0.794434 2.371094
vt -0.733398 2.371094
vt -0.764160 2.402344
vt -0.037628 0.729736
vt 1.180664 0.729736
vt 0.209351 1.279541
vt 0.894043 1.370605
vt 0.280029 1.461670
vt 0.711914 1.937012
vt 0.431885 1.940918
vt 0.571289 2.725586
vt -3.080078 0.038574
vt -1.861328 0.038574
vt -2.832031 0.588135
vt -2.107422 0.588135
vt -2.763672 0.765503
vt -2.175781 0.764771
vt -2.330078 1.245483
vt -2.609375 1.248169
vt -2.470703 2.034180
vt 1.405273 0.556641
vt 1.382812 -0.045898
vt 1.405273 -0.045898
vt 1.382812 0.655029
vt 1.405273 0.752075
vt 1.383789 1.249512
vt 1.405273 1.254395
vt 1.383789 2.051758
vt 1.405273 2.051758
vt 1.320312 1.253662
vt 1.342773 2.051758
vt 1.320312 2.051758
vt 1.342773 1.253418
vt 1.320312 0.651855
vt 1.342773 0.747070
vt 1.342773 0.556641
vt 1.342773 -0.045898
vt 1.320312 -0.045898
vt 1.414062 2.047852
vt 1.415039 1.246582
vt 1.436523 2.047852
vt 1.436523 1.249512
vt 1.414062 0.652100
vt 1.436523 0.743164
vt 1.436523 0.552734
vt 1.436523 -0.049805
vt 1.415039 -0.049805
vt -1.465820 2.571289
vt -1.609375 1.764648
vt -1.325195 1.785645
vt -1.141602 1.212402
vt -1.796875 1.197266
vt -2.074219 0.575439
vt -0.856445 0.575439
vt -0.572266 1.245361
vt -0.291748 1.241455
vt -0.432373 2.031250
vt -0.725586 0.762573
vt -0.109314 0.675537
vt -0.794434 0.585205
vt 0.176758 0.035645
vt -1.041016 0.035645
vt 1.374023 -0.049805
vt 1.374023 0.631348
vt 1.352539 -0.049805
vt 1.351562 0.552734
vt 1.351562 0.742188
vt 1.374023 1.228638
vt 1.351562 1.246582
vt 1.351562 2.047852
vt 1.374023 2.047852
vt1 -0.733398 2.371094
vt1 -0.733398 2.432617
vt1 -0.764160 2.402344
vt1 -0.733398 2.432617
vt1 -0.794434 2.432617
vt1 -0.764160 2.402344
vt1 -0.794434 2.432617
vt1 -0.794434 2.371094
vt1 -0.764160 2.402344
vt1 -0.794434 2.371094
vt1 -0.733398 2.371094
vt1 -0.764160 2.402344
vt1 -0.037628 0.729736
vt1 1.180664 0.729736
vt1 0.209351 1.279541
vt1 0.894043 1.370605
vt1 0.280029 1.461670
vt1 0.711914 1.937012
vt1 0.431885 1.940918
vt1 0.571289 2.725586
vt1 -3.080078 0.038574
vt1 -1.861328 0.038574
vt1 -2.832031 0.588135
vt1 -2.107422 0.588135
vt1 -2.763672 0.765503
vt1 -2.175781 0.764771
vt1 -2.330078 1.245483
vt1 -2.609375 1.248169
vt1 -2.470703 2.034180
vt1 1.405273 0.556641
vt1 1.382812 -0.045898
vt1 1.405273 -0.045898
vt1 1.382812 0.655029
vt1 1.405273 0.752075
vt1 1.383789 1.249512
vt1 1.405273 1.254395
vt1 1.383789 2.051758
vt1 1.405273 2.051758
vt1 1.320312 1.253662
vt1 1.342773 2.051758
vt1 1.320312 2.051758
vt1 1.342773 1.253418
vt1 1.320312 0.651855
vt1 1.342773 0.747070
vt1 1.342773 0.556641
vt1 1.342773 -0.045898
vt1 1.320312 -0.045898
vt1 1.414062 2.047852
vt1 1.415039 1.246582
vt1 1.436523 2.047852
vt1 1.436523 1.249512
vt1 1.414062 0.652100
vt1 1.436523 0.743164
vt1 1.436523 0.552734
vt1 1.436523 -0.049805
vt1 1.415039 -0.049805
vt1 -1.465820 2.571289
vt1 -1.609375 1.764648
vt1 -1.325195 1.785645
vt1 -1.141602 1.212402
vt1 -1.796875 1.197266
vt1 -2.074219 0.575439
vt1 -0.856445 0.575439
vt1 -0.572266 1.245361
vt1 -0.291748 1.241455
vt1 -0.432373 2.031250
vt1 -0.725586 0.762573
vt1 -0.109314 0.675537
vt1 -0.794434 0.585205
vt1 0.176758 0.035645
vt1 -1.041016 0.035645
vt1 1.374023 -0.049805
vt1 1.374023 0.631348
vt1 1.352539 -0.049805
vt1 1.351562 0.552734
vt1 1.351562 0.742188
vt1 1.374023 1.228638
vt1 1.351562 1.246582
vt1 1.351562 2.047852
vt1 1.374023 2.047852
vn -0.685039 0.244094 -0.685039
vn -0.685039 0.244094 -0.685039
vn -0.700787 0.125984 -0.700787
vn 0.685039 0.244094 -0.685039
vn 0.685039 0.244094 -0.685039
vn 0.700787 0.125984 -0.700787
vn 0.685039 0.244095 0.685039
vn 0.685039 0.244095 0.685039
vn 0.700787 0.125984 0.700787
vn -0.685039 0.244095 0.685039
vn -0.685039 0.244095 0.685039
vn -0.700787 0.125984 0.700787
vn 0.000000 0.448819 -0.889764
vn 0.000000 0.448819 -0.889764
vn 0.000000 0.440945 -0.897638
vn 0.000000 0.409449 -0.913386
vn 0.000000 0.354331 -0.937008
vn 0.000000 0.251968 -0.968504
vn 0.000000 0.236220 -0.968504
vn 0.000000 0.173228 -0.984252
vn 0.889764 0.448819 -0.000000
vn 0.889764 0.448819 -0.000000
vn 0.897638 0.440945 -0.000000
vn 0.897638 0.440945 -0.000000
vn 0.937008 0.354331 -0.000000
vn 0.937008 0.362205 -0.000000
vn 0.968504 0.251968 -0.000000
vn 0.968504 0.244094 -0.000000
vn 0.984252 0.173228 -0.000000
vn -0.582677 0.566929 -0.582677
vn -0.574803 0.582677 -0.574803
vn -0.574803 0.582677 -0.574803
vn -0.598425 0.527559 -0.598425
vn -0.622047 0.472441 -0.622047
vn -0.669291 0.322835 -0.669291
vn -0.677165 0.291338 -0.677165
vn -0.685039 0.244094 -0.685039
vn -0.685039 0.244094 -0.685039
vn -0.677165 0.291339 0.677165
vn -0.685039 0.244095 0.685039
vn -0.685039 0.244095 0.685039
vn -0.669291 0.322835 0.669291
vn -0.598425 0.535433 0.598425
vn -0.622047 0.472441 0.622047
vn -0.582677 0.566929 0.582677
vn -0.574803 0.582677 0.574803
vn -0.574803 0.582677 0.574803
vn 0.685039 0.244094 -0.685039
vn 0.677165 0.299212 -0.677165
vn 0.685039 0.244094 -0.685039
vn 0.669291 0.322835 -0.669291
vn 0.598425 0.535433 -0.598425
vn 0.622047 0.472441 -0.622047
vn 0.582677 0.566929 -0.582677
vn 0.574803 0.582677 -0.574803
vn 0.574803 0.582677 -0.574803
vn 0.000000 0.173228 0.984252
vn 0.000000 0.251969 0.968504
vn 0.000000 0.244095 0.968504
vn 0.000000 0.417323 0.905512
vn 0.000000 0.417323 0.905512
vn 0.000000 0.448819 0.889764
vn 0.000000 0.448819 0.889764
vn -0.968504 0.244094 -0.000000
vn -0.968504 0.251968 -0.000000
vn -0.984252 0.173228 -0.000000
vn -0.937008 0.354331 -0.000000
vn -0.913386 0.409449 -0.000000
vn -0.897638 0.440945 -0.000000
vn -0.889764 0.448819 -0.000000
vn -0.889764 0.448819 -0.000000
vn 0.574803 0.582677 0.574803
vn 0.590551 0.543307 0.590551
vn 0.574803 0.582677 0.574803
vn 0.582677 0.566929 0.582677
vn 0.622047 0.472441 0.622047
vn 0.669291 0.314961 0.669291
vn 0.669291 0.307087 0.669291
vn 0.685039 0.244095 0.685039
vn 0.685039 0.244095 0.685039
tan -0.702709 0.000000 0.702709 1.000000
tan -0.702709 0.000000 0.702709 1.000000
tan -0.706739 0.000000 0.706739 1.000000
tan -0.172980 0.970922 0.172980 1.000000
tan -0.172980 0.970922 0.172980 1.000000
tan -0.089280 0.993242 0.089280 1.000000
tan -0.702709 0.000000 0.702709 1.000000
tan -0.702709 0.000000 0.702709 1.000000
tan -0.706739 0.000000 0.706739 1.000000
tan -0.172980 -0.970922 0.172980 1.000000
tan -0.172980 -0.970922 0.172980 1.000000
tan -0.089280 -0.993242 0.089280 1.000000
tan 0.000000 -0.889764 -0.448819 1.000000
tan 0.000000 -0.889764 -0.448819 1.000000
tan 0.000000 -0.897638 -0.440945 1.000000
tan 0.000000 -0.913386 -0.409449 1.000000
tan 0.000000 -0.937008 -0.354331 1.000000
tan 0.000000 -0.968504 -0.251968 1.000000
tan 0.000000 -0.968504 -0.236220 1.000000
tan 0.000000 -0.984252 -0.173228 1.000000
tan 0.448819 -0.889764 0.000000 1.000000
tan 0.448819 -0.889764 0.000000 1.000000
tan 0.440945 -0.897638 0.000000 1.000000
tan 0.440945 -0.897638 0.000000 1.000000
tan 0.354331 -0.937008 0.000000 1.000000
tan 0.362205 -0.937008 0.000000 1.000000
tan 0.251969 -0.968504 0.000000 1.000000
tan 0.244094 -0.968504 0.000000 1.000000
tan 0.173228 -0.984252 0.000000 1.000000
tan -0.401761 -0.825842 -0.401761 1.000000
tan -0.412921 -0.814682 -0.412921 1.000000
tan -0.412921 -0.814682 -0.412921 1.000000
tan -0.373861 -0.848162 -0.373861 1.000000
tan -0.334801 -0.881642 -0.334801 1.000000
tan -0.228780 -0.948602 -0.228780 1.000000
tan -0.206460 -0.959762 -0.206460 1.000000
tan -0.172980 -0.970922 -0.172980 1.000000
tan -0.172980 -0.970922 -0.172980 1.000000
tan -0.206460 -0.959762 0.206461 1.000000
tan -0.172980 -0.970922 0.172980 1.000000
tan -0.172980 -0.970922 0.172980 1.000000
tan -0.228780 -0.948602 0.228781 1.000000
tan -0.379441 -0.848162 0.379441 1.000000
tan -0.334801 -0.881642 0.334801 1.000000
tan -0.401761 -0.825842 0.401761 1.000000
tan -0.412921 -0.814682 0.412921 1.000000
tan -0.412921 -0.814682 0.412921 1.000000
tan 0.172980 -0.970922 -0.172980 1.000000
tan 0.212040 -0.959762 -0.212040 1.000000
tan 0.172980 -0.970922 -0.172980 1.000000
tan 0.228780 -0.948602 -0.228780 1.000000
tan 0.379441 -0.848162 -0.379441 1.000000
tan 0.334801 -0.881642 -0.334801 1.000000
tan 0.401761 -0.825842 -0.401761 1.000000
tan 0.412921 -0.814682 -0.412921 1.000000
tan 0.412921 -0.814682 -0.412921 1.000000
tan 0.000000 -0.984252 0.173228 1.000000
tan 0.000000 -0.968504 0.251969 1.000000
tan 0.000000 -0.968504 0.244095 1.000000
tan 0.000000 -0.905512 0.417323 1.000000
tan 0.000000 -0.905512 0.417323 1.000000
tan 0.000000 -0.889764 0.448819 1.000000
tan 0.000000 -0.889764 0.448819 1.000000
tan -0.244094 -0.968504 0.000000 1.000000
tan -0.251969 -0.968504 0.000000 1.000000
tan -0.173228 -0.984252 0.000000 1.000000
tan -0.354331 -0.937008 0.000000 1.000000
tan -0.409449 -0.913386 0.000000 1.000000
tan -0.440945 -0.897638 0.000000 1.000000
tan -0.448819 -0.889764 0.000000 1.000000
tan -0.448819 -0.889764 0.000000 1.000000
tan 0.412921 -0.814682 0.412921 1.000000
tan 0.385021 -0.837002 0.385021 1.000000
tan 0.412921 -0.814682 0.412921 1.000000
tan 0.401761 -0.825842 0.401761 1.000000
tan 0.334801 -0.881642 0.334801 1.000000
tan 0.223200 -0.948602 0.223201 1.000000
tan 0.217620 -0.948602 0.217621 1.000000
tan 0.172980 -0.970922 0.172980 1.000000
tan 0.172980 -0.970922 0.172980 1.000000
f 3/3/3 2/2/2 1/1/1
f 6/6/6 5/5/5 4/4/4
f 9/9/9 8/8/8 7/7/7
f 12/12/12 11/11/11 10/10/10
f 15/15/15 14/14/14 13/13/13
f 16/16/16 14/14/14 15/15/15
f 17/17/17 16/16/16 15/15/15
f 18/18/18 16/16/16 17/17/17
f 19/19/19 18/18/18 17/17/17
f 20/20/20 18/18/18 19/19/19
f 23/23/23 22/22/22 21/21/21
f 24/24/24 22/22/22 23/23/23
f 25/25/25 24/24/24 23/23/23
f 26/26/26 24/24/24 25/25/25
f 27/27/27 26/26/26 25/25/25
f 25/25/25 28/28/28 27/27/27
f 29/29/29 27/27/27 28/28/28
f 32/32/32 31/31/31 30/30/30
f 33/33/33 30/30/30 31/31/31
f 34/34/34 30/30/30 33/33/33
f 33/33/33 35/35/35 34/34/34
f 36/36/36 34/34/34 35/35/35
f 35/35/35 37/37/37 36/36/36
f 38/38/38 36/36/36 37/37/37
f 41/41/41 40/40/40 39/39/39
f 39/39/39 40/40/40 42/42/42
f 39/39/39 42/42/42 43/43/43
f 43/43/43 42/42/42 44/44/44
f 43/43/43 44/44/44 45/45/45
f 45/45/45 46/46/46 43/43/43
f 47/47/47 43/43/43 46/46/46
f 50/50/50 49/49/49 48/48/48
f 49/49/49 50/50/50 51/51/51
f 51/51/51 52/52/52 49/49/49
f 52/52/52 51/51/51 53/53/53
f 54/54/54 52/52/52 53/53/53
f 54/54/54 55/55/55 52/52/52
f 56/56/56 52/52/52 55/55/55
f 59/59/59 58/58/58 57/57/57
f 59/59/59 60/60/60 58/58/58
f 58/58/58 60/60/60 61/61/61
f 61/61/61 60/60/60 62/62/62
f 60/60/60 63/63/63 62/62/62
f 66/66/66 65/65/65 64/64/64
f 64/64/64 65/65/65 67/67/67
f 68/68/68 67/67/67 65/65/65
f 69/69/69 67/67/67 68/68/68
f 70/70/70 69/69/69 68/68/68
f 71/71/71 69/69/69 70/70/70
f 74/74/74 73/73/73 72/72/72
f 73/73/73 74/74/74 75/75/75
f 75/75/75 76/76/76 73/73/73
f 77/77/77 73/73/73 76/76/76
f 76/76/76 78/78/78 77/77/77
f 78/78/78 79/79/79 77/77/77
f 80/80/80 77/77/77 79/79/79
