mtllib SM_Mansion_Tower_Turret_LOD3@000002909DC40100.mtl
g SM_Mansion_Tower_Turret_LOD3@000002909DC40100
#Vertices 436
#Indices 1062
#Section 0 Offset 0 NumIndices 450 MaterialIndex 0 MI_ConcreteTile_01
#Section 1 Offset 450 NumIndices 72 MaterialIndex 1 MI_BrickTile_A_01
#Section 2 Offset 522 NumIndices 540 MaterialIndex 2 MI_ConcreteTrim_A_01
v -0.564569 10.001291 -0.707376 0.000000 0.843137 0.156863 1.000000
v -0.317224 10.018388 -0.861093 0.000000 1.000000 0.000000 1.000000
v -0.038270 10.003883 -0.910649 0.000000 1.000000 0.000000 1.000000
v 0.318794 10.014768 0.860087 0.000000 1.000000 0.000000 1.000000
v 0.003397 10.002925 0.923988 0.000000 1.000000 0.000000 1.000000
v 0.564673 10.004190 0.716528 0.000000 1.000000 0.000000 1.000000
v -0.933280 10.002938 0.099312 0.000000 1.000000 0.000000 1.000000
v -0.886551 10.012685 -0.249238 0.000000 0.560784 0.439216 1.000000
v -0.761359 10.003857 -0.503937 0.000000 0.447059 0.552941 1.000000
v -1.350970 10.906681 -0.380953 0.000000 0.000000 1.000000 1.000000
v -1.338209 10.021316 -0.375529 0.000000 1.000000 0.000000 1.000000
v -1.353657 9.994685 -0.392471 0.000000 1.000000 0.000000 1.000000
v -1.168346 10.012083 -0.777591 0.000000 1.000000 0.000000 1.000000
v -1.170258 10.910588 -0.775706 0.000000 0.000000 1.000000 1.000000
v -1.353657 9.994685 -0.392471 0.000000 1.000000 0.000000 1.000000
v -1.282610 9.501949 -0.613635 0.000000 1.000000 0.000000 1.000000
v -1.445768 9.998404 0.124201 0.000000 1.000000 0.000000 1.000000
v -1.445109 9.502594 0.124509 0.000000 1.000000 0.000000 1.000000
v -0.872507 9.502594 -1.103283 0.000000 1.000000 0.000000 1.000000
v -0.869652 10.011713 -1.099651 0.000000 1.000000 0.000000 1.000000
v -0.488457 10.010902 -1.316800 0.000000 1.000000 0.000000 1.000000
v -0.869139 10.907557 -1.104211 0.000000 0.000000 1.000000 1.000000
v -0.490733 10.911403 -1.315339 0.000000 0.000000 1.000000 1.000000
v -0.274798 9.502584 -1.396449 0.000000 0.882353 0.117647 1.000000
v -0.057108 10.011517 -1.401512 0.000000 1.000000 0.000000 1.000000
v 0.379216 10.012079 -1.352603 0.000000 1.000000 0.000000 1.000000
v 0.379730 9.502594 -1.354366 0.000000 1.000000 0.000000 1.000000
v -0.054885 10.906617 -1.402747 0.000000 0.000000 1.000000 1.000000
v 0.376570 10.910824 -1.352017 0.000000 0.000000 1.000000 1.000000
v 0.779663 9.502594 -1.170735 0.000000 1.000000 0.000000 1.000000
v 0.777746 10.011620 -1.167356 0.000000 1.000000 0.000000 1.000000
v 1.101531 10.010991 -0.871195 0.000000 1.000000 0.000000 1.000000
v 0.780119 10.906703 -1.167090 0.000000 0.000000 1.000000 1.000000
v 1.099075 10.911176 -0.872326 0.000000 0.000000 1.000000 1.000000
v 1.243290 9.502728 -0.692491 0.000000 1.000000 0.000000 1.000000
v 1.314909 10.011287 -0.487481 0.000000 1.000000 0.000000 1.000000
v 1.404075 10.011390 -0.057604 0.000000 1.000000 0.000000 1.000000
v 1.405422 9.502594 -0.057382 0.000000 1.000000 0.000000 1.000000
v 1.317412 10.903871 -0.486111 0.000000 0.000000 1.000000 1.000000
v 1.401485 10.913567 -0.061489 0.000000 0.000000 1.000000 1.000000
v 1.284145 9.501920 0.629138 0.000000 1.000000 0.000000 1.000000
v 1.350362 10.011786 0.378975 0.000000 1.000000 0.000000 1.000000
v 1.168026 10.011633 0.778171 0.000000 1.000000 0.000000 1.000000
v 1.351034 10.906641 0.381295 0.000000 0.000000 1.000000 1.000000
v 1.169284 10.910591 0.776054 0.000000 0.000000 1.000000 1.000000
v 0.708481 9.500001 1.238327 0.000000 1.000000 0.000000 1.000000
v 0.869943 10.011759 1.099594 0.000000 1.000000 0.000000 1.000000
v -0.021894 10.002332 1.438056 0.000000 1.000000 0.000000 1.000000
v -0.022493 9.502594 1.439439 0.000000 1.000000 0.000000 1.000000
v 0.490592 9.999785 1.319016 0.000000 1.000000 0.000000 1.000000
v 0.869504 10.903977 1.102741 0.000000 0.000000 1.000000 1.000000
v 0.491705 10.913567 1.314140 0.000000 0.000000 1.000000 1.000000
v 0.490592 9.999785 1.319016 0.000000 1.000000 0.000000 1.000000
v 0.003397 10.002925 0.923988 0.000000 1.000000 0.000000 1.000000
v 0.318794 10.014768 0.860087 0.000000 1.000000 0.000000 1.000000
v -0.021894 10.002332 1.438056 0.000000 1.000000 0.000000 1.000000
v -0.564569 10.001291 -0.707376 0.000000 0.843137 0.156863 1.000000
v -0.573228 10.901444 -0.719630 0.000000 0.000000 1.000000 1.000000
v -0.317224 10.018388 -0.861093 0.000000 1.000000 0.000000 1.000000
v -0.318595 10.908600 -0.863964 0.000000 0.000000 1.000000 1.000000
v -0.038270 10.003883 -0.910649 0.000000 1.000000 0.000000 1.000000
v -0.040781 10.901943 -0.919088 0.000000 0.000000 1.000000 1.000000
v 0.263345 9.999842 -0.880229 0.000000 1.000000 0.000000 1.000000
v 0.249541 10.908072 -0.885557 0.000000 0.000000 1.000000 1.000000
v 0.512453 10.013624 -0.766254 0.000000 1.000000 0.000000 1.000000
v 0.507282 10.901445 -0.767740 0.000000 0.000000 1.000000 1.000000
v 0.720954 10.018122 -0.567761 0.000000 1.000000 0.000000 1.000000
v 0.723163 10.908167 -0.569738 0.000000 0.000000 1.000000 1.000000
v 0.860808 10.905264 -0.323158 0.000000 0.000000 1.000000 1.000000
v 0.916890 10.018258 -0.035552 0.000000 1.000000 0.000000 1.000000
v 0.864980 10.013721 -0.318638 0.000000 0.850980 0.149020 1.000000
v 0.920337 10.905006 -0.036574 0.000000 0.000000 1.000000 1.000000
v 0.886716 10.901935 0.245236 0.000000 0.000000 1.000000 1.000000
v 0.759856 10.007923 0.501770 0.000000 1.000000 0.000000 1.000000
v 0.888032 10.001462 0.238270 0.000000 1.000000 0.000000 1.000000
v 0.764866 10.907501 0.511077 0.000000 0.000000 1.000000 1.000000
v 0.319142 10.904913 0.863301 0.000000 0.000000 1.000000 1.000000
v 0.318794 10.014768 0.860087 0.000000 1.000000 0.000000 1.000000
v 0.573423 10.905065 0.718673 0.000000 0.000000 1.000000 1.000000
v 0.564673 10.004190 0.716528 0.000000 1.000000 0.000000 1.000000
v -0.886551 10.012685 -0.249238 0.000000 0.560784 0.439216 1.000000
v -0.886696 10.901946 -0.245208 0.000000 0.000000 1.000000 1.000000
v -0.761359 10.003857 -0.503937 0.000000 0.447059 0.552941 1.000000
v -0.764850 10.907509 -0.511050 0.000000 0.000000 1.000000 1.000000
v -0.951844 9.506216 0.124508 0.000000 1.000000 0.000000 1.000000
v -1.282610 9.501949 -0.613635 0.000000 1.000000 0.000000 1.000000
v -1.445109 9.502594 0.124509 0.000000 1.000000 0.000000 1.000000
v -0.828451 9.507134 -0.405618 0.000000 1.000000 0.000000 1.000000
v -0.872507 9.502594 -1.103283 0.000000 1.000000 0.000000 1.000000
v -0.562557 9.507054 -0.718763 0.000000 1.000000 0.000000 1.000000
v -0.274798 9.502584 -1.396449 0.000000 0.882353 0.117647 1.000000
v -0.176995 9.506004 -0.906421 0.000000 1.000000 0.000000 1.000000
v 0.379730 9.502594 -1.354366 0.000000 1.000000 0.000000 1.000000
v 0.250831 9.504216 -0.877607 0.000000 1.000000 0.000000 1.000000
v 0.779663 9.502594 -1.170735 0.000000 1.000000 0.000000 1.000000
v 0.629274 9.502056 -0.675980 0.000000 1.000000 0.000000 1.000000
v 1.243290 9.502728 -0.692491 0.000000 1.000000 0.000000 1.000000
v 0.857427 9.500040 -0.312928 0.000000 1.000000 0.000000 1.000000
v 1.405422 9.502594 -0.057382 0.000000 1.000000 0.000000 1.000000
v 0.916750 9.498551 0.111746 0.000000 1.000000 0.000000 1.000000
v 1.284145 9.501920 0.629138 0.000000 1.000000 0.000000 1.000000
v 0.757135 9.497970 0.509737 0.000000 1.000000 0.000000 1.000000
v 0.708481 9.500001 1.238327 0.000000 1.000000 0.000000 1.000000
v 0.463574 9.498307 0.797267 0.000000 1.000000 0.000000 1.000000
v -0.022493 9.499712 0.946177 0.000000 1.000000 0.000000 1.000000
v -0.022493 9.502594 1.439439 0.000000 1.000000 0.000000 1.000000
v 0.512453 10.013624 -0.766254 0.000000 1.000000 0.000000 1.000000
v 0.720954 10.018122 -0.567761 0.000000 1.000000 0.000000 1.000000
v 0.263345 9.999842 -0.880229 0.000000 1.000000 0.000000 1.000000
v 0.786335 10.002404 -0.440873 0.000000 0.913726 0.086275 1.000000
v 0.864980 10.013721 -0.318638 0.000000 0.850980 0.149020 1.000000
v 0.916890 10.018258 -0.035552 0.000000 1.000000 0.000000 1.000000
v 0.888032 10.001462 0.238270 0.000000 1.000000 0.000000 1.000000
v -1.353657 9.994685 -0.392471 0.000000 1.000000 0.000000 1.000000
v -0.933280 10.002938 0.099312 0.000000 1.000000 0.000000 1.000000
v -1.445768 9.998404 0.124201 0.000000 1.000000 0.000000 1.000000
v -0.886551 10.012685 -0.249238 0.000000 0.560784 0.439216 1.000000
v -1.338209 10.021316 -0.375529 0.000000 1.000000 0.000000 1.000000
v -0.886696 10.901946 -0.245208 0.000000 0.000000 1.000000 1.000000
v -1.350970 10.906681 -0.380953 0.000000 0.000000 1.000000 1.000000
v -0.886551 10.012685 -0.249238 0.000000 0.560784 0.439216 1.000000
v -1.350970 10.906681 -0.380953 0.000000 0.000000 1.000000 1.000000
v -0.764850 10.907509 -0.511050 0.000000 0.000000 1.000000 1.000000
v -1.170258 10.910588 -0.775706 0.000000 0.000000 1.000000 1.000000
v -1.168346 10.012083 -0.777591 0.000000 1.000000 0.000000 1.000000
v -0.761359 10.003857 -0.503937 0.000000 0.447059 0.552941 1.000000
v -1.170258 10.910588 -0.775706 0.000000 0.000000 1.000000 1.000000
v -0.761359 10.003857 -0.503937 0.000000 0.447059 0.552941 1.000000
v -0.564569 10.001291 -0.707376 0.000000 0.843137 0.156863 1.000000
v -0.869652 10.011713 -1.099651 0.000000 1.000000 0.000000 1.000000
v -0.573228 10.901444 -0.719630 0.000000 0.000000 1.000000 1.000000
v -0.869139 10.907557 -1.104211 0.000000 0.000000 1.000000 1.000000
v -0.564569 10.001291 -0.707376 0.000000 0.843137 0.156863 1.000000
v -0.869139 10.907557 -1.104211 0.000000 0.000000 1.000000 1.000000
v -0.318595 10.908600 -0.863964 0.000000 0.000000 1.000000 1.000000
v -0.490733 10.911403 -1.315339 0.000000 0.000000 1.000000 1.000000
v -0.490733 10.911403 -1.315339 0.000000 0.000000 1.000000 1.000000
v -0.488457 10.010902 -1.316800 0.000000 1.000000 0.000000 1.000000
v -0.317224 10.018388 -0.861093 0.000000 1.000000 0.000000 1.000000
v -0.038270 10.003883 -0.910649 0.000000 1.000000 0.000000 1.000000
v -0.317224 10.018388 -0.861093 0.000000 1.000000 0.000000 1.000000
v -0.057108 10.011517 -1.401512 0.000000 1.000000 0.000000 1.000000
v -0.040781 10.901943 -0.919088 0.000000 0.000000 1.000000 1.000000
v -0.054885 10.906617 -1.402747 0.000000 0.000000 1.000000 1.000000
v -0.038270 10.003883 -0.910649 0.000000 1.000000 0.000000 1.000000
v -0.054885 10.906617 -1.402747 0.000000 0.000000 1.000000 1.000000
v 0.249541 10.908072 -0.885557 0.000000 0.000000 1.000000 1.000000
v 0.376570 10.910824 -1.352017 0.000000 0.000000 1.000000 1.000000
v 0.263345 9.999842 -0.880229 0.000000 1.000000 0.000000 1.000000
v 0.379216 10.012079 -1.352603 0.000000 1.000000 0.000000 1.000000
v 0.376570 10.910824 -1.352017 0.000000 0.000000 1.000000 1.000000
v 0.512453 10.013624 -0.766254 0.000000 1.000000 0.000000 1.000000
v 0.263345 9.999842 -0.880229 0.000000 1.000000 0.000000 1.000000
v 0.777746 10.011620 -1.167356 0.000000 1.000000 0.000000 1.000000
v 0.507282 10.901445 -0.767740 0.000000 0.000000 1.000000 1.000000
v 0.780119 10.906703 -1.167090 0.000000 0.000000 1.000000 1.000000
v 0.512453 10.013624 -0.766254 0.000000 1.000000 0.000000 1.000000
v 0.780119 10.906703 -1.167090 0.000000 0.000000 1.000000 1.000000
v 0.723163 10.908167 -0.569738 0.000000 0.000000 1.000000 1.000000
v 1.099075 10.911176 -0.872326 0.000000 0.000000 1.000000 1.000000
v 1.101531 10.010991 -0.871195 0.000000 1.000000 0.000000 1.000000
v 1.099075 10.911176 -0.872326 0.000000 0.000000 1.000000 1.000000
v 0.720954 10.018122 -0.567761 0.000000 1.000000 0.000000 1.000000
v 0.864980 10.013721 -0.318638 0.000000 0.850980 0.149020 1.000000
v 0.720954 10.018122 -0.567761 0.000000 1.000000 0.000000 1.000000
v 1.314909 10.011287 -0.487481 0.000000 1.000000 0.000000 1.000000
v 0.860808 10.905264 -0.323158 0.000000 0.000000 1.000000 1.000000
v 0.864980 10.013721 -0.318638 0.000000 0.850980 0.149020 1.000000
v 1.317412 10.903871 -0.486111 0.000000 0.000000 1.000000 1.000000
v 1.401485 10.913567 -0.061489 0.000000 0.000000 1.000000 1.000000
v 1.317412 10.903871 -0.486111 0.000000 0.000000 1.000000 1.000000
v 0.920337 10.905006 -0.036574 0.000000 0.000000 1.000000 1.000000
v 1.404075 10.011390 -0.057604 0.000000 1.000000 0.000000 1.000000
v 1.401485 10.913567 -0.061489 0.000000 0.000000 1.000000 1.000000
v 0.916890 10.018258 -0.035552 0.000000 1.000000 0.000000 1.000000
v 0.916890 10.018258 -0.035552 0.000000 1.000000 0.000000 1.000000
v 0.888032 10.001462 0.238270 0.000000 1.000000 0.000000 1.000000
v 1.350362 10.011786 0.378975 0.000000 1.000000 0.000000 1.000000
v 0.886716 10.901935 0.245236 0.000000 0.000000 1.000000 1.000000
v 0.888032 10.001462 0.238270 0.000000 1.000000 0.000000 1.000000
v 1.351034 10.906641 0.381295 0.000000 0.000000 1.000000 1.000000
v 1.351034 10.906641 0.381295 0.000000 0.000000 1.000000 1.000000
v 0.764866 10.907501 0.511077 0.000000 0.000000 1.000000 1.000000
v 1.169284 10.910591 0.776054 0.000000 0.000000 1.000000 1.000000
v 0.759856 10.007923 0.501770 0.000000 1.000000 0.000000 1.000000
v 1.168026 10.011633 0.778171 0.000000 1.000000 0.000000 1.000000
v 1.169284 10.910591 0.776054 0.000000 0.000000 1.000000 1.000000
v 0.564673 10.004190 0.716528 0.000000 1.000000 0.000000 1.000000
v 0.759856 10.007923 0.501770 0.000000 1.000000 0.000000 1.000000
v 0.869943 10.011759 1.099594 0.000000 1.000000 0.000000 1.000000
v 0.573423 10.905065 0.718673 0.000000 0.000000 1.000000 1.000000
v 0.869504 10.903977 1.102741 0.000000 0.000000 1.000000 1.000000
v 0.564673 10.004190 0.716528 0.000000 1.000000 0.000000 1.000000
v 0.491705 10.913567 1.314140 0.000000 0.000000 1.000000 1.000000
v 0.869504 10.903977 1.102741 0.000000 0.000000 1.000000 1.000000
v 0.319142 10.904913 0.863301 0.000000 0.000000 1.000000 1.000000
v 0.490592 9.999785 1.319016 0.000000 1.000000 0.000000 1.000000
v 0.491705 10.913567 1.314140 0.000000 0.000000 1.000000 1.000000
v 0.318794 10.014768 0.860087 0.000000 1.000000 0.000000 1.000000
v 0.263345 9.999842 -0.880229 0.000000 1.000000 0.000000 1.000000
v -0.564569 10.001291 -0.707376 0.000000 0.843137 0.156863 1.000000
v -0.038270 10.003883 -0.910649 0.000000 1.000000 0.000000 1.000000
v -0.270065 10.002594 0.385308 0.000000 1.000000 0.000000 1.000000
v -0.761359 10.003857 -0.503937 0.000000 0.447059 0.552941 1.000000
v -0.933280 10.002938 0.099312 0.000000 1.000000 0.000000 1.000000
v 0.786335 10.002404 -0.440873 0.000000 0.913726 0.086275 1.000000
v 0.888032 10.001462 0.238270 0.000000 1.000000 0.000000 1.000000
v 0.564673 10.004190 0.716528 0.000000 1.000000 0.000000 1.000000
v 0.759856 10.007923 0.501770 0.000000 1.000000 0.000000 1.000000
v 0.003397 10.002925 0.923988 0.000000 1.000000 0.000000 1.000000
v -0.739797 9.503986 0.534796 0.000000 1.000000 0.000000 1.000000
v -0.540220 9.502569 0.735690 0.000000 1.000000 0.000000 1.000000
v -0.536497 -0.000015 0.738381 0.000000 0.000000 1.000000 1.000000
v -0.807664 0.000008 0.431453 0.000000 0.000000 1.000000 1.000000
v -0.945323 9.506103 0.127518 0.000000 1.000000 0.000000 1.000000
v -0.916060 0.000021 0.000754 0.000000 0.000000 1.000000 1.000000
v -0.868376 9.506981 -0.283003 0.000000 1.000000 0.000000 1.000000
v -0.818137 -0.000021 -0.420586 0.000000 0.000000 1.000000 1.000000
v -0.647426 9.507223 -0.652892 0.000000 1.000000 0.000000 1.000000
v -0.408567 -0.000054 -0.836371 0.000000 0.000000 1.000000 1.000000
v -0.142827 9.506060 -0.914937 0.000000 1.000000 0.000000 1.000000
v 0.143983 -0.000000 -0.908136 0.000000 0.000000 1.000000 1.000000
v 0.425012 9.503347 -0.816499 0.000000 1.000000 0.000000 1.000000
v 0.537225 -0.000000 -0.737922 0.000000 0.000000 1.000000 1.000000
v 0.740319 9.501183 -0.533893 0.000000 1.000000 0.000000 1.000000
v 0.837434 -0.000035 -0.389407 0.000000 0.000000 1.000000 1.000000
v 0.908889 9.499336 -0.144840 0.000000 1.000000 0.000000 1.000000
v 0.907999 0.000000 0.144569 0.000000 0.000000 1.000000 1.000000
v 0.829222 9.497982 0.413860 0.000000 1.000000 0.000000 1.000000
v 0.738097 0.000000 0.536910 0.000000 0.000000 1.000000 1.000000
v 0.460364 9.498304 0.797390 0.000000 1.000000 0.000000 1.000000
v 0.426981 0.000026 0.819301 0.000000 0.000000 1.000000 1.000000
v -0.077224 9.500064 0.950454 0.000000 1.000000 0.000000 1.000000
v -0.102435 0.000066 0.922566 0.000000 0.000000 1.000000 1.000000
v -0.536497 -0.000015 0.738381 0.000000 0.000000 1.000000 1.000000
v -0.540220 9.502569 0.735690 0.000000 1.000000 0.000000 1.000000
v -1.254341 0.513183 -0.655768 0.000000 0.000000 1.000000 1.000000
v -1.404398 0.469153 -0.079024 0.000000 0.000000 1.000000 1.000000
v -1.024758 0.464725 -0.928834 0.000000 0.000000 1.000000 1.000000
v -0.530618 0.508938 -1.323277 0.000000 0.000000 1.000000 1.000000
v -0.415057 0.475572 -1.277414 0.000000 0.000000 1.000000 1.000000
v -0.008550 0.463038 -1.348694 0.000000 0.000000 1.000000 1.000000
v 0.244985 0.515007 -1.394221 0.000000 0.000000 1.000000 1.000000
v 0.617181 0.464788 -1.226517 0.000000 0.000000 1.000000 1.000000
v 0.964627 0.513934 -1.045760 0.000000 0.000000 1.000000 1.000000
v 1.086633 0.475572 -0.789484 0.000000 0.000000 1.000000 1.000000
v 1.290059 0.462012 -0.406106 0.000000 0.000000 1.000000 1.000000
v 1.396289 0.512783 -0.203463 0.000000 0.000000 1.000000 1.000000
v 1.350819 0.465126 0.230611 0.000000 0.000000 1.000000 1.000000
v 1.262880 0.515458 0.670117 0.000000 0.000000 1.000000 1.000000
v 1.086633 0.475572 0.789485 0.000000 0.000000 1.000000 1.000000
v 0.674585 0.516465 1.235346 0.000000 0.000000 1.000000 1.000000
v 0.623695 0.463019 1.207086 0.000000 0.000000 1.000000 1.000000
v 0.077368 0.513908 1.401042 0.000000 0.000000 1.000000 1.000000
v 0.068804 0.462502 1.348815 0.000000 0.000000 1.000000 1.000000
v -1.277910 7.962926 -0.414098 0.000000 1.000000 0.000000 1.000000
v -1.401042 8.001276 -0.077369 0.000000 1.000000 0.000000 1.000000
v -1.348970 7.949842 -0.068831 0.000000 1.000000 0.000000 1.000000
v -1.254418 8.000428 -0.656254 0.000000 1.000000 0.000000 1.000000
v -1.078469 7.949296 -0.817056 0.000000 1.000000 0.000000 1.000000
v -0.580227 7.964554 -1.228440 0.000000 1.000000 0.000000 1.000000
v -0.816160 8.001895 -1.136929 0.000000 1.000000 0.000000 1.000000
v -0.175975 8.002508 -1.412370 0.000000 1.000000 0.000000 1.000000
v -0.008766 7.950271 -1.348766 0.000000 1.000000 0.000000 1.000000
v 0.659057 7.999120 -1.259294 0.000000 1.000000 0.000000 1.000000
v 0.626307 7.950114 -1.210483 0.000000 1.000000 0.000000 1.000000
v 1.134349 8.002582 -0.817708 0.000000 1.000000 0.000000 1.000000
v 1.086633 7.962941 -0.789485 0.000000 1.000000 0.000000 1.000000
v 1.281330 7.950228 -0.420780 0.000000 1.000000 0.000000 1.000000
v 1.401053 8.001759 -0.207233 0.000000 1.000000 0.000000 1.000000
v 1.348741 7.950400 0.009037 0.000000 1.000000 0.000000 1.000000
v 1.261594 8.000721 0.671814 0.000000 1.000000 0.000000 1.000000
v 1.206925 7.965621 0.614632 0.000000 1.000000 0.000000 1.000000
v 0.810639 7.949616 1.081495 0.000000 1.000000 0.000000 1.000000
v 0.633371 8.003750 1.257330 0.000000 1.000000 0.000000 1.000000
v 0.414097 7.962927 1.277909 0.000000 1.000000 0.000000 1.000000
v 0.077368 8.001276 1.401041 0.000000 1.000000 0.000000 1.000000
v 0.068830 7.949842 1.348969 0.000000 1.000000 0.000000 1.000000
v -1.196938 0.938669 -0.629204 0.000000 0.000000 1.000000 1.000000
v -1.385759 0.949047 -0.075192 0.000000 0.000000 1.000000 1.000000
v -1.257621 0.900800 -0.654097 0.000000 0.000000 1.000000 1.000000
v -0.689458 0.899759 -1.255275 0.000000 0.000000 1.000000 1.000000
v -0.814151 0.950080 -1.081217 0.000000 0.000000 1.000000 1.000000
v -0.176692 0.946082 -1.361009 0.000000 0.000000 1.000000 1.000000
v 0.204541 0.901347 -1.407729 0.000000 0.000000 1.000000 1.000000
v 0.602857 0.947551 -1.223520 0.000000 0.000000 1.000000 1.000000
v 0.817384 0.899122 -1.138965 0.000000 0.000000 1.000000 1.000000
v 1.271706 0.898937 -0.643731 0.000000 0.000000 1.000000 1.000000
v 1.093351 0.949321 -0.789250 0.000000 0.000000 1.000000 1.000000
v 1.277225 0.936673 -0.414996 0.000000 0.000000 1.000000 1.000000
v 1.348107 0.948715 0.008094 0.000000 0.000000 1.000000 1.000000
v 1.341952 0.890482 0.565663 0.000000 0.000000 1.000000 1.000000
v 1.220484 0.946858 0.616615 0.000000 0.000000 1.000000 1.000000
v 0.681583 0.947572 1.179921 0.000000 0.000000 1.000000 1.000000
v 0.665453 0.902874 1.256364 0.000000 0.000000 1.000000 1.000000
v 0.076795 0.896410 1.396937 0.000000 0.000000 1.000000 1.000000
v 0.070562 0.949383 1.348599 0.000000 0.000000 1.000000 1.000000
v -1.401042 8.001276 -0.077369 0.000000 1.000000 0.000000 1.000000
v -1.242875 8.388371 -0.694273 0.000000 1.000000 0.000000 1.000000
v -1.396936 8.383779 -0.076796 0.000000 1.000000 0.000000 1.000000
v -1.254418 8.000428 -0.656254 0.000000 1.000000 0.000000 1.000000
v -0.655991 8.388019 -1.261852 0.000000 1.000000 0.000000 1.000000
v -0.816160 8.001895 -1.136929 0.000000 1.000000 0.000000 1.000000
v -0.175975 8.002508 -1.412370 0.000000 1.000000 0.000000 1.000000
v -0.009858 8.386123 -1.401309 0.000000 1.000000 0.000000 1.000000
v 0.813637 8.390696 -1.199945 0.000000 1.000000 0.000000 1.000000
v 0.659057 7.999120 -1.259294 0.000000 1.000000 0.000000 1.000000
v 1.134349 8.002582 -0.817708 0.000000 1.000000 0.000000 1.000000
v 1.401185 8.389111 -0.245033 0.000000 1.000000 0.000000 1.000000
v 1.401053 8.001759 -0.207233 0.000000 1.000000 0.000000 1.000000
v 1.283133 8.388535 0.646026 0.000000 1.000000 0.000000 1.000000
v 1.261594 8.000721 0.671814 0.000000 1.000000 0.000000 1.000000
v 0.664300 8.390112 1.256853 0.000000 1.000000 0.000000 1.000000
v 0.633371 8.003750 1.257330 0.000000 1.000000 0.000000 1.000000
v 0.077368 8.001276 1.401041 0.000000 1.000000 0.000000 1.000000
v 0.076795 8.383779 1.396936 0.000000 1.000000 0.000000 1.000000
v -1.404398 0.469153 -0.079024 0.000000 0.000000 1.000000 1.000000
v -1.257621 0.900800 -0.654097 0.000000 0.000000 1.000000 1.000000
v -1.385759 0.949047 -0.075192 0.000000 0.000000 1.000000 1.000000
v -1.254341 0.513183 -0.655768 0.000000 0.000000 1.000000 1.000000
v -0.689458 0.899759 -1.255275 0.000000 0.000000 1.000000 1.000000
v -0.530618 0.508938 -1.323277 0.000000 0.000000 1.000000 1.000000
v 0.204541 0.901347 -1.407729 0.000000 0.000000 1.000000 1.000000
v 0.244985 0.515007 -1.394221 0.000000 0.000000 1.000000 1.000000
v 0.817384 0.899122 -1.138965 0.000000 0.000000 1.000000 1.000000
v 0.964627 0.513934 -1.045760 0.000000 0.000000 1.000000 1.000000
v 1.271706 0.898937 -0.643731 0.000000 0.000000 1.000000 1.000000
v 1.396289 0.512783 -0.203463 0.000000 0.000000 1.000000 1.000000
v 1.341952 0.890482 0.565663 0.000000 0.000000 1.000000 1.000000
v 1.262880 0.515458 0.670117 0.000000 0.000000 1.000000 1.000000
v 0.665453 0.902874 1.256364 0.000000 0.000000 1.000000 1.000000
v 0.674585 0.516465 1.235346 0.000000 0.000000 1.000000 1.000000
v 0.077368 0.513908 1.401042 0.000000 0.000000 1.000000 1.000000
v 0.076795 0.896410 1.396937 0.000000 0.000000 1.000000 1.000000
v 0.070562 8.436751 1.348598 0.000000 1.000000 0.000000 1.000000
v 0.639656 8.435626 1.198141 0.000000 1.000000 0.000000 1.000000
v 0.076795 8.383779 1.396936 0.000000 1.000000 0.000000 1.000000
v 0.664300 8.390112 1.256853 0.000000 1.000000 0.000000 1.000000
v 1.089332 8.436337 0.794222 0.000000 1.000000 0.000000 1.000000
v 1.283133 8.388535 0.646026 0.000000 1.000000 0.000000 1.000000
v 1.277225 8.424041 0.414993 0.000000 1.000000 0.000000 1.000000
v 1.348103 8.436054 0.007194 0.000000 1.000000 0.000000 1.000000
v 1.401185 8.389111 -0.245033 0.000000 1.000000 0.000000 1.000000
v 1.214785 8.433963 -0.624933 0.000000 1.000000 0.000000 1.000000
v 0.813637 8.390696 -1.199945 0.000000 1.000000 0.000000 1.000000
v 0.784402 8.436006 -1.097113 0.000000 1.000000 0.000000 1.000000
v 0.218805 8.435166 -1.347861 0.000000 1.000000 0.000000 1.000000
v -0.009858 8.386123 -1.401309 0.000000 1.000000 0.000000 1.000000
v -0.655991 8.388019 -1.261852 0.000000 1.000000 0.000000 1.000000
v -0.414996 8.424041 -1.277226 0.000000 1.000000 0.000000 1.000000
v -0.815655 8.437192 -1.079197 0.000000 1.000000 0.000000 1.000000
v -1.205856 8.429040 -0.608160 0.000000 1.000000 0.000000 1.000000
v -1.242875 8.388371 -0.694273 0.000000 1.000000 0.000000 1.000000
v -1.396936 8.383779 -0.076796 0.000000 1.000000 0.000000 1.000000
v -1.350848 8.437555 -0.070910 0.000000 1.000000 0.000000 1.000000
v 0.403069 8.418581 0.731152 0.000000 1.000000 0.000000 1.000000
v 0.070562 8.436751 1.348598 0.000000 1.000000 0.000000 1.000000
v 0.000000 8.418706 0.821564 0.000000 1.000000 0.000000 1.000000
v 0.639656 8.435626 1.198141 0.000000 1.000000 0.000000 1.000000
v 1.089332 8.436337 0.794222 0.000000 1.000000 0.000000 1.000000
v 0.740651 8.419319 0.377406 0.000000 1.000000 0.000000 1.000000
v 1.348103 8.436054 0.007194 0.000000 1.000000 0.000000 1.000000
v 1.277225 8.424041 0.414993 0.000000 1.000000 0.000000 1.000000
v 0.815332 8.418736 -0.247324 0.000000 1.000000 0.000000 1.000000
v 1.214785 8.433963 -0.624933 0.000000 1.000000 0.000000 1.000000
v 0.403066 8.418571 -0.731158 0.000000 1.000000 0.000000 1.000000
v 0.784402 8.436006 -1.097113 0.000000 1.000000 0.000000 1.000000
v 0.218805 8.435166 -1.347861 0.000000 1.000000 0.000000 1.000000
v 0.000000 8.418706 -0.821566 0.000000 1.000000 0.000000 1.000000
v -0.815655 8.437192 -1.079197 0.000000 1.000000 0.000000 1.000000
v -0.414996 8.424041 -1.277226 0.000000 1.000000 0.000000 1.000000
v -0.377425 8.418687 -0.740663 0.000000 1.000000 0.000000 1.000000
v -0.731134 8.419198 -0.403062 0.000000 1.000000 0.000000 1.000000
v -1.350848 8.437555 -0.070910 0.000000 1.000000 0.000000 1.000000
v -1.205856 8.429040 -0.608160 0.000000 1.000000 0.000000 1.000000
v -0.821564 8.418706 -0.000001 0.000000 1.000000 0.000000 1.000000
v 0.403069 0.931199 0.731154 0.000000 0.000000 1.000000 1.000000
v 0.070562 0.949383 1.348599 0.000000 0.000000 1.000000 1.000000
v 0.000000 0.931338 0.821564 0.000000 0.000000 1.000000 1.000000
v 0.681583 0.947572 1.179921 0.000000 0.000000 1.000000 1.000000
v 1.220484 0.946858 0.616615 0.000000 0.000000 1.000000 1.000000
v 0.740652 0.931938 0.377404 0.000000 0.000000 1.000000 1.000000
v 1.348107 0.948715 0.008094 0.000000 0.000000 1.000000 1.000000
v 0.815317 0.932113 -0.247302 0.000000 0.000000 1.000000 1.000000
v 1.093351 0.949321 -0.789250 0.000000 0.000000 1.000000 1.000000
v 1.277225 0.936673 -0.414996 0.000000 0.000000 1.000000 1.000000
v 0.403066 0.931206 -0.731157 0.000000 0.000000 1.000000 1.000000
v 0.602857 0.947551 -1.223520 0.000000 0.000000 1.000000 1.000000
v -0.176692 0.946082 -1.361009 0.000000 0.000000 1.000000 1.000000
v 0.000000 0.931338 -0.821565 0.000000 0.000000 1.000000 1.000000
v -0.814151 0.950080 -1.081217 0.000000 0.000000 1.000000 1.000000
v -0.377425 0.931318 -0.740662 0.000000 0.000000 1.000000 1.000000
v -0.731134 0.931852 -0.403060 0.000000 0.000000 1.000000 1.000000
v -1.385759 0.949047 -0.075192 0.000000 0.000000 1.000000 1.000000
v -1.196938 0.938669 -0.629204 0.000000 0.000000 1.000000 1.000000
v -0.821564 0.931338 -0.000000 0.000000 0.000000 1.000000 1.000000
v -0.029316 0.481287 0.749769 0.000000 0.000000 1.000000 1.000000
v 0.068804 0.462502 1.348815 0.000000 0.000000 1.000000 1.000000
v 0.364218 0.481537 0.665602 0.000000 0.000000 1.000000 1.000000
v 0.623695 0.463019 1.207086 0.000000 0.000000 1.000000 1.000000
v 1.350819 0.465126 0.230611 0.000000 0.000000 1.000000 1.000000
v 1.086633 0.475572 0.789485 0.000000 0.000000 1.000000 1.000000
v 0.673188 0.481302 0.342996 0.000000 0.000000 1.000000 1.000000
v 0.742159 0.481351 -0.207032 0.000000 0.000000 1.000000 1.000000
v 1.290059 0.462012 -0.406106 0.000000 0.000000 1.000000 1.000000
v 0.438901 0.481287 -0.604095 0.000000 0.000000 1.000000 1.000000
v 0.617181 0.464788 -1.226517 0.000000 0.000000 1.000000 1.000000
v 1.086633 0.475572 -0.789484 0.000000 0.000000 1.000000 1.000000
v -0.033457 0.481207 -0.769932 0.000000 0.000000 1.000000 1.000000
v -0.008550 0.463038 -1.348694 0.000000 0.000000 1.000000 1.000000
v -0.537427 0.481663 -0.531718 0.000000 0.000000 1.000000 1.000000
v -1.024758 0.464725 -0.928834 0.000000 0.000000 1.000000 1.000000
v -0.415057 0.475572 -1.277414 0.000000 0.000000 1.000000 1.000000
v -0.782654 0.481552 0.012745 0.000000 0.000000 1.000000 1.000000
v -1.404398 0.469153 -0.079024 0.000000 0.000000 1.000000 1.000000
v -0.029316 7.968657 0.749768 0.000000 1.000000 0.000000 1.000000
v 0.068830 7.949842 1.348969 0.000000 1.000000 0.000000 1.000000
v 0.364206 7.968601 0.665596 0.000000 1.000000 0.000000 1.000000
v 0.810639 7.949616 1.081495 0.000000 1.000000 0.000000 1.000000
v 0.414097 7.962927 1.277909 0.000000 1.000000 0.000000 1.000000
v 0.673168 7.968313 0.343014 0.000000 1.000000 0.000000 1.000000
v 1.348741 7.950400 0.009037 0.000000 1.000000 0.000000 1.000000
v 1.206925 7.965621 0.614632 0.000000 1.000000 0.000000 1.000000
v 0.741045 7.968512 -0.224737 0.000000 1.000000 0.000000 1.000000
v 1.281330 7.950228 -0.420780 0.000000 1.000000 0.000000 1.000000
v 0.366391 7.969011 -0.664509 0.000000 1.000000 0.000000 1.000000
v 0.626307 7.950114 -1.210483 0.000000 1.000000 0.000000 1.000000
v 1.086633 7.962941 -0.789485 0.000000 1.000000 0.000000 1.000000
v -0.219880 7.968955 -0.743839 0.000000 1.000000 0.000000 1.000000
v -0.008766 7.950271 -1.348766 0.000000 1.000000 0.000000 1.000000
v -1.078469 7.949296 -0.817056 0.000000 1.000000 0.000000 1.000000
v -0.580227 7.964554 -1.228440 0.000000 1.000000 0.000000 1.000000
v -0.665596 7.968573 -0.364205 0.000000 1.000000 0.000000 1.000000
v -1.348970 7.949842 -0.068831 0.000000 1.000000 0.000000 1.000000
v -1.277910 7.962926 -0.414098 0.000000 1.000000 0.000000 1.000000
v -0.749769 7.968656 0.029315 0.000000 1.000000 0.000000 1.000000
vt 0.397461 2.188477
vt 0.369873 2.211914
vt 0.338623 2.227539
vt 0.106689 2.107422
vt 0.127075 2.072266
vt 0.103394 2.142578
vt 0.385010 2.082031
vt 0.404541 2.121094
vt 0.412109 2.156250
vt 0.826660 2.871094
vt 0.744629 2.796875
vt 0.743164 2.792969
vt 0.782227 2.754883
vt 0.862793 2.832031
vt 0.743164 2.792969
vt 0.719238 2.732422
vt 0.693359 2.838867
vt 0.650391 2.791992
vt 0.761230 2.674805
vt 0.815430 2.704102
vt 0.840332 2.653320
vt 0.916016 2.751953
vt 0.940430 2.704102
vt 0.790039 2.608398
vt 0.855957 2.594727
vt 0.864746 2.538086
vt 0.800293 2.535156
vt 0.966309 2.609375
vt 0.975098 2.556641
vt 0.799805 2.485352
vt 0.860840 2.477539
vt 0.852051 2.421875
vt 0.970703 2.458984
vt 0.962891 2.406250
vt 0.784180 2.415039
vt 0.830078 2.365234
vt 0.804199 2.314453
vt 0.750000 2.348633
vt 0.928223 2.314453
vt 0.905762 2.266602
vt 0.700195 2.287109
vt 0.765625 2.267578
vt 0.725098 2.227539
vt 0.843750 2.188477
vt 0.806152 2.149414
vt 0.622070 2.237305
vt 0.673828 2.195312
vt 0.558594 2.150391
vt 0.536621 2.210938
vt 0.622559 2.171875
vt 0.720703 2.094727
vt 0.673828 2.070312
vt -0.496338 2.970703
vt -0.494385 2.908203
vt -0.494873 2.907227
vt -0.514648 2.957031
vt 0.397461 2.188477
vt 0.465332 2.278320
vt 0.369629 2.211914
vt 0.436768 2.300781
vt 0.338867 2.227539
vt 0.391357 2.327148
vt 0.305176 2.245117
vt 0.359619 2.344727
vt 0.272705 2.252930
vt 0.267578 2.363281
vt 0.236816 2.251953
vt 0.230957 2.362305
vt 0.142212 2.333984
vt 0.172485 2.220703
vt 0.202881 2.240234
vt 0.111755 2.313477
vt 0.071045 2.283203
vt 0.118896 2.176758
vt 0.146729 2.200195
vt 0.043396 2.259766
vt -0.002972 2.094727
vt 0.107422 2.107422
vt -0.007008 2.131836
vt 0.104797 2.142578
vt 0.403809 2.121094
vt 0.511719 2.094727
vt 0.411133 2.156250
vt 0.520996 2.129883
vt 0.621582 2.734375
vt 0.719238 2.732422
vt 0.650391 2.791992
vt 0.675293 2.689453
vt 0.761230 2.674805
vt 0.707520 2.644531
vt 0.790527 2.605469
vt 0.730469 2.589844
vt 0.800293 2.535156
vt 0.739258 2.532227
vt 0.799805 2.485352
vt 0.735352 2.472656
vt 0.784668 2.414062
vt 0.717773 2.416992
vt 0.750000 2.348633
vt 0.687988 2.366211
vt 0.702148 2.289062
vt 0.646484 2.324219
vt 0.623047 2.236328
vt 0.601074 2.293945
vt 0.537109 2.274414
vt 0.536621 2.210938
vt 0.272461 2.253906
vt 0.236694 2.251953
vt 0.305908 2.246094
vt 0.220093 2.245117
vt 0.202393 2.241211
vt 0.172363 2.221680
vt 0.146484 2.199219
vt 1.636719 2.947266
vt 1.675781 2.875977
vt 1.701172 2.935547
vt 1.631836 2.885742
vt 1.637695 2.944336
vt 1.519531 2.898438
vt 1.528320 2.958984
vt 1.632812 2.885742
vt 1.530273 2.958984
vt 1.482422 2.900391
vt 1.478516 2.960938
vt 1.372070 2.962891
vt 1.365234 2.902344
vt 1.480469 2.961914
vt 1.367188 2.902344
vt 1.328125 2.901367
vt 1.323242 2.962891
vt 1.211914 2.903320
vt 1.215820 2.964844
vt 1.329102 2.901367
vt 1.217773 2.964844
vt 1.172852 2.904297
vt 1.167969 2.964844
vt 1.169922 2.964844
vt 1.061523 2.965820
vt 1.056641 2.905273
vt 1.017578 2.905273
vt 1.055664 2.906250
vt 1.013672 2.966797
vt 0.900879 2.907227
vt 0.905762 2.968750
vt 1.018555 2.905273
vt 0.907227 2.968750
vt 0.862305 2.908203
vt 0.857422 2.968750
vt 0.744141 2.910156
vt 0.751465 2.969727
vt 0.859375 2.968750
vt 0.706543 2.910156
vt 0.744141 2.910156
vt 0.703125 2.970703
vt 0.590820 2.911133
vt 0.595215 2.972656
vt 0.706543 2.911133
vt 0.597168 2.972656
vt 0.552246 2.912109
vt 0.546875 2.972656
vt 0.440918 2.974609
vt 0.549316 2.973633
vt 0.436035 2.914062
vt 0.396484 2.915039
vt 0.435547 2.915039
vt 0.392822 2.975586
vt 0.280029 2.916016
vt 0.396240 2.915039
vt 0.285156 2.977539
vt 0.236694 2.977539
vt 0.286377 2.977539
vt 0.241455 2.916992
vt 0.130615 2.979492
vt 0.239136 2.978516
vt 0.125610 2.918945
vt 0.125122 2.918945
vt 0.087463 2.919922
vt 0.082397 2.979492
vt -0.029968 2.920898
vt 0.087524 2.919922
vt -0.025497 2.982422
vt -0.023621 2.982422
vt -0.068542 2.921875
vt -0.073669 2.982422
vt -0.185791 2.921875
vt -0.180176 2.982422
vt -0.071716 2.982422
vt -0.223511 2.921875
vt -0.184326 2.921875
vt -0.228882 2.982422
vt -0.339355 2.919922
vt -0.336914 2.981445
vt -0.222534 2.921875
vt -0.386475 2.979492
vt -0.335938 2.981445
vt -0.377197 2.918945
vt -0.495850 2.971680
vt -0.384033 2.979492
vt -0.491699 2.908203
vt 0.338867 2.642578
vt 0.420654 2.591797
vt 0.372559 2.633789
vt 0.346191 2.489258
vt 0.433350 2.561523
vt 0.425293 2.490234
vt 0.265625 2.615234
vt 0.229248 2.545898
vt 0.246948 2.482422
vt 0.233276 2.512695
vt 0.301270 2.441406
vt -2.046875 2.350586
vt -2.082031 2.350586
vt -2.082031 0.971405
vt -2.033203 0.971436
vt -1.981445 2.351562
vt -1.974609 0.971451
vt -1.940430 2.351562
vt -1.922852 0.971466
vt -1.887695 2.351562
vt -1.849609 0.971481
vt -1.816406 2.351562
vt -1.780273 0.971527
vt -1.744141 2.350586
vt -1.726562 0.971558
vt -1.691406 2.350586
vt -1.668945 0.971558
vt -1.637695 2.350586
vt -1.601562 0.971603
vt -1.567383 2.350586
vt -1.547852 0.971619
vt -1.500977 2.350586
vt -1.495117 0.971649
vt -1.433594 2.350586
vt -1.428711 0.971695
vt -1.369141 0.971695
vt -1.369141 2.351562
vt 0.758789 0.735107
vt 0.822754 0.739258
vt 0.723145 0.746094
vt 0.661621 0.733154
vt 0.651855 0.744629
vt 0.608887 0.745117
vt 0.583496 0.734863
vt 0.541992 0.744385
vt 0.502930 0.734619
vt 0.475098 0.744629
vt 0.429688 0.744629
vt 0.407471 0.734619
vt 0.364258 0.744873
vt 0.320068 0.734619
vt 0.301270 0.744629
vt 0.241821 0.735352
vt 0.238770 0.745361
vt 0.177612 0.735107
vt 0.177612 0.745361
vt 0.782715 0.744629
vt 0.823242 0.735107
vt 0.823242 0.745361
vt 0.758789 0.734863
vt 0.736328 0.745117
vt 0.669922 0.744873
vt 0.694824 0.735107
vt 0.625000 0.735107
vt 0.608887 0.745117
vt 0.539551 0.735107
vt 0.540039 0.745605
vt 0.474609 0.735107
vt 0.475098 0.744629
vt 0.431396 0.745117
vt 0.407471 0.734375
vt 0.386475 0.745117
vt 0.320068 0.734863
vt 0.322510 0.745605
vt 0.260986 0.744873
vt 0.237427 0.734619
vt 0.216064 0.744629
vt 0.177612 0.735107
vt 0.177612 0.745361
vt 0.758301 0.685547
vt 0.822754 0.689697
vt 0.759277 0.697266
vt 0.678223 0.696045
vt 0.697754 0.686279
vt 0.625977 0.687012
vt 0.587891 0.696533
vt 0.542969 0.686279
vt 0.520020 0.696289
vt 0.452637 0.696533
vt 0.474609 0.686279
vt 0.430908 0.686523
vt 0.386475 0.686279
vt 0.332520 0.694336
vt 0.322754 0.686768
vt 0.245239 0.686035
vt 0.240112 0.697510
vt 0.177490 0.695801
vt 0.177612 0.685791
vt 0.822754 0.733398
vt 0.754395 0.697754
vt 0.822754 0.697510
vt 0.758789 0.733398
vt 0.674805 0.697510
vt 0.694824 0.733398
vt 0.625488 0.733398
vt 0.608887 0.697754
vt 0.523926 0.697266
vt 0.540039 0.733398
vt 0.474609 0.733643
vt 0.411133 0.697754
vt 0.407715 0.733398
vt 0.322998 0.697266
vt 0.320068 0.733643
vt 0.240234 0.697754
vt 0.237427 0.733398
vt 0.177612 0.733398
vt 0.177612 0.697510
vt 0.822754 0.737793
vt 0.758789 0.697754
vt 0.822754 0.692383
vt 0.758789 0.733398
vt 0.678223 0.697754
vt 0.661621 0.734131
vt 0.587402 0.697754
vt 0.583496 0.733398
vt 0.520020 0.697754
vt 0.502930 0.733398
vt 0.452637 0.697754
vt 0.407471 0.733643
vt 0.332275 0.698242
vt 0.320068 0.733398
vt 0.240479 0.697510
vt 0.241943 0.733398
vt 0.177612 0.733398
vt 0.177612 0.697510
vt 0.177612 0.685791
vt 0.240479 0.686035
vt 0.177490 0.695801
vt 0.239746 0.696777
vt 0.301025 0.685303
vt 0.322998 0.696045
vt 0.343994 0.686523
vt 0.386719 0.686279
vt 0.411377 0.697266
vt 0.453369 0.687012
vt 0.523926 0.697021
vt 0.520508 0.686279
vt 0.585938 0.686035
vt 0.608887 0.696289
vt 0.675293 0.696045
vt 0.651855 0.686523
vt 0.698242 0.686279
vt 0.760742 0.684814
vt 0.754883 0.697266
vt 0.823242 0.695801
vt 0.823242 0.686035
vt 0.242432 0.647461
vt 0.176758 0.682861
vt 0.177612 0.647705
vt 0.237671 0.683105
vt 0.301758 0.682129
vt 0.319336 0.648926
vt 0.391602 0.680664
vt 0.343994 0.686523
vt 0.422852 0.648438
vt 0.451904 0.681885
vt 0.538574 0.647461
vt 0.517090 0.680908
vt 0.583008 0.683105
vt 0.607910 0.647705
vt 0.699219 0.678223
vt 0.651855 0.686523
vt 0.673828 0.647705
vt 0.761230 0.648438
vt 0.823242 0.680420
vt 0.760742 0.688232
vt 0.822754 0.647705
vt 0.242432 0.647461
vt 0.176758 0.682861
vt 0.177612 0.647705
vt 0.243164 0.684814
vt 0.327148 0.682129
vt 0.319336 0.648926
vt 0.391602 0.680664
vt 0.422852 0.648926
vt 0.476807 0.679688
vt 0.430908 0.686523
vt 0.538574 0.647461
vt 0.541016 0.683838
vt 0.629883 0.683594
vt 0.607910 0.647705
vt 0.698730 0.678223
vt 0.673828 0.647705
vt 0.761230 0.648438
vt 0.823730 0.682861
vt 0.758301 0.688477
vt 0.823242 0.647705
vt 0.177612 0.788086
vt 0.176880 0.748535
vt 0.243042 0.788940
vt 0.238403 0.748047
vt 0.369385 0.751587
vt 0.301270 0.744629
vt 0.322510 0.788208
vt 0.418213 0.788574
vt 0.428223 0.752441
vt 0.519531 0.788086
vt 0.539551 0.749268
vt 0.475098 0.744629
vt 0.613281 0.787842
vt 0.602539 0.751831
vt 0.713379 0.788940
vt 0.721680 0.749268
vt 0.651855 0.744629
vt 0.817383 0.787964
vt 0.824219 0.744629
vt 0.177612 0.788086
vt 0.176880 0.748535
vt 0.237549 0.788330
vt 0.260254 0.751709
vt 0.216064 0.744629
vt 0.317871 0.787354
vt 0.392090 0.752075
vt 0.321289 0.744141
vt 0.423340 0.787842
vt 0.428711 0.751953
vt 0.533203 0.788818
vt 0.539062 0.749756
vt 0.475098 0.744629
vt 0.649902 0.788574
vt 0.602539 0.751343
vt 0.736816 0.751587
vt 0.670898 0.742920
vt 0.760742 0.788330
vt 0.823730 0.748535
vt 0.782715 0.744629
vt 0.822754 0.788086
vt1 0.565430 2.476562
vt1 0.561523 2.480469
vt1 0.557129 2.482422
vt1 0.523926 2.465820
vt1 0.526855 2.459961
vt1 0.523438 2.470703
vt1 0.563965 2.461914
vt1 0.566406 2.467773
vt1 0.567383 2.472656
vt1 0.626465 2.574219
vt1 0.614746 2.563477
vt1 0.614746 2.562500
vt1 0.620117 2.557617
vt1 0.631836 2.568359
vt1 0.614746 2.562500
vt1 0.611328 2.554688
vt1 0.607422 2.569336
vt1 0.601562 2.562500
vt1 0.617188 2.545898
vt1 0.625000 2.549805
vt1 0.628418 2.542969
vt1 0.639160 2.556641
vt1 0.642578 2.549805
vt1 0.621094 2.536133
vt1 0.630859 2.535156
vt1 0.631836 2.526367
vt1 0.622559 2.526367
vt1 0.646484 2.537109
vt1 0.647461 2.529297
vt1 0.622559 2.519531
vt1 0.631348 2.518555
vt1 0.629883 2.509766
vt1 0.646973 2.515625
vt1 0.645996 2.507812
vt1 0.620605 2.508789
vt1 0.626953 2.501953
vt1 0.623535 2.495117
vt1 0.615723 2.500000
vt1 0.641113 2.495117
vt1 0.637695 2.488281
vt1 0.608398 2.491211
vt1 0.617676 2.488281
vt1 0.612305 2.482422
vt1 0.628906 2.476562
vt1 0.623535 2.471680
vt1 0.597656 2.483398
vt1 0.604980 2.477539
vt1 0.588379 2.471680
vt1 0.585449 2.480469
vt1 0.597656 2.474609
vt1 0.611328 2.463867
vt1 0.604980 2.459961
vt1 0.438477 2.587891
vt1 0.438721 2.579102
vt1 0.438721 2.579102
vt1 0.435791 2.585938
vt1 0.565430 2.476562
vt1 0.575195 2.489258
vt1 0.561523 2.480469
vt1 0.571289 2.493164
vt1 0.557129 2.482422
vt1 0.564453 2.497070
vt1 0.552246 2.485352
vt1 0.560059 2.499023
vt1 0.547852 2.486328
vt1 0.546875 2.501953
vt1 0.542480 2.486328
vt1 0.541992 2.501953
vt1 0.529297 2.498047
vt1 0.533691 2.481445
vt1 0.537598 2.484375
vt1 0.524902 2.495117
vt1 0.519043 2.490234
vt1 0.525879 2.475586
vt1 0.529785 2.478516
vt1 0.515137 2.487305
vt1 0.508301 2.463867
vt1 0.524414 2.465820
vt1 0.507812 2.468750
vt1 0.523926 2.470703
vt1 0.566406 2.467773
vt1 0.581543 2.463867
vt1 0.567383 2.472656
vt1 0.583008 2.468750
vt1 0.597168 2.554688
vt1 0.611328 2.554688
vt1 0.601562 2.562500
vt1 0.604980 2.547852
vt1 0.617188 2.545898
vt1 0.609375 2.541992
vt1 0.621094 2.536133
vt1 0.612793 2.534180
vt1 0.622559 2.526367
vt1 0.614258 2.525391
vt1 0.622559 2.519531
vt1 0.613770 2.517578
vt1 0.620605 2.508789
vt1 0.610840 2.509766
vt1 0.615723 2.500000
vt1 0.606934 2.501953
vt1 0.608887 2.491211
vt1 0.601074 2.496094
vt1 0.597656 2.483398
vt1 0.594238 2.492188
vt1 0.585449 2.489258
vt1 0.585449 2.480469
vt1 0.547852 2.486328
vt1 0.542480 2.486328
vt1 0.552246 2.485352
vt1 0.540039 2.485352
vt1 0.537598 2.484375
vt1 0.533691 2.481445
vt1 0.529785 2.478516
vt1 0.741699 2.584961
vt1 0.747070 2.574219
vt1 0.750977 2.583008
vt1 0.741211 2.576172
vt1 0.741699 2.583984
vt1 0.725098 2.578125
vt1 0.726562 2.586914
vt1 0.741211 2.576172
vt1 0.726562 2.586914
vt1 0.719727 2.578125
vt1 0.719238 2.586914
vt1 0.704102 2.586914
vt1 0.703125 2.578125
vt1 0.719727 2.586914
vt1 0.703125 2.578125
vt1 0.697754 2.578125
vt1 0.697266 2.586914
vt1 0.681152 2.578125
vt1 0.681641 2.586914
vt1 0.697754 2.578125
vt1 0.682129 2.586914
vt1 0.675781 2.579102
vt1 0.674805 2.586914
vt1 0.675293 2.586914
vt1 0.659668 2.586914
vt1 0.659180 2.579102
vt1 0.653809 2.579102
vt1 0.659180 2.579102
vt1 0.652832 2.587891
vt1 0.637207 2.579102
vt1 0.637695 2.587891
vt1 0.653809 2.579102
vt1 0.638184 2.587891
vt1 0.631836 2.579102
vt1 0.630859 2.587891
vt1 0.614746 2.579102
vt1 0.615723 2.587891
vt1 0.631348 2.587891
vt1 0.609375 2.579102
vt1 0.614746 2.579102
vt1 0.608887 2.587891
vt1 0.592773 2.580078
vt1 0.593750 2.588867
vt1 0.609375 2.579102
vt1 0.593750 2.588867
vt1 0.587402 2.580078
vt1 0.586914 2.588867
vt1 0.571777 2.588867
vt1 0.586914 2.588867
vt1 0.570801 2.580078
vt1 0.565430 2.580078
vt1 0.570801 2.580078
vt1 0.564941 2.588867
vt1 0.548828 2.580078
vt1 0.565430 2.580078
vt1 0.549316 2.588867
vt1 0.542480 2.588867
vt1 0.549805 2.588867
vt1 0.543457 2.580078
vt1 0.527344 2.588867
vt1 0.542969 2.588867
vt1 0.526855 2.581055
vt1 0.526855 2.581055
vt1 0.521484 2.581055
vt1 0.520508 2.589844
vt1 0.504883 2.581055
vt1 0.521484 2.581055
vt1 0.505371 2.589844
vt1 0.505371 2.589844
vt1 0.499268 2.581055
vt1 0.498535 2.589844
vt1 0.482666 2.581055
vt1 0.483398 2.589844
vt1 0.498779 2.589844
vt1 0.477295 2.581055
vt1 0.482910 2.581055
vt1 0.476562 2.589844
vt1 0.460938 2.581055
vt1 0.461182 2.589844
vt1 0.477539 2.581055
vt1 0.454102 2.588867
vt1 0.461426 2.589844
vt1 0.455566 2.581055
vt1 0.438477 2.587891
vt1 0.454346 2.588867
vt1 0.439209 2.579102
vt1 0.557129 2.541016
vt1 0.568848 2.534180
vt1 0.562012 2.540039
vt1 0.558105 2.519531
vt1 0.570801 2.530273
vt1 0.569336 2.519531
vt1 0.546875 2.537109
vt1 0.541504 2.527344
vt1 0.543945 2.518555
vt1 0.541992 2.523438
vt1 0.551758 2.512695
vt1 -1.118164 0.998934
vt1 -1.143555 0.998792
vt1 -1.143555 0.000977
vt1 -1.107422 0.000977
vt1 -1.069336 0.999139
vt1 -1.064453 0.000977
vt1 -1.040039 0.999236
vt1 -1.027344 0.000977
vt1 -1.001953 0.999274
vt1 -0.974609 0.000977
vt1 -0.950195 0.999199
vt1 -0.924316 0.000977
vt1 -0.897949 0.998965
vt1 -0.885742 0.000977
vt1 -0.859863 0.998785
vt1 -0.843750 0.000977
vt1 -0.821777 0.998638
vt1 -0.794922 0.000977
vt1 -0.770508 0.998534
vt1 -0.756348 0.000977
vt1 -0.722168 0.998582
vt1 -0.718262 0.000977
vt1 -0.673828 0.998759
vt1 -0.669922 0.000977
vt1 -0.627441 0.000977
vt1 -0.627441 0.999008
vt1 0.758789 0.545410
vt1 0.822754 0.549805
vt1 0.723145 0.556641
vt1 0.661621 0.543457
vt1 0.651855 0.554932
vt1 0.608887 0.555420
vt1 0.583496 0.545410
vt1 0.541992 0.554688
vt1 0.502930 0.545166
vt1 0.475098 0.554932
vt1 0.429688 0.555176
vt1 0.407471 0.544922
vt1 0.364258 0.555420
vt1 0.320068 0.544922
vt1 0.301270 0.554932
vt1 0.241821 0.545654
vt1 0.238770 0.555664
vt1 0.177612 0.545410
vt1 0.177612 0.555664
vt1 0.782715 0.554932
vt1 0.823242 0.545410
vt1 0.823242 0.555664
vt1 0.758789 0.545410
vt1 0.736328 0.555420
vt1 0.669922 0.555176
vt1 0.694824 0.545410
vt1 0.625000 0.545654
vt1 0.608887 0.555420
vt1 0.539551 0.545410
vt1 0.540039 0.555908
vt1 0.474609 0.545410
vt1 0.475098 0.554932
vt1 0.431396 0.555420
vt1 0.407471 0.544678
vt1 0.386475 0.555420
vt1 0.320068 0.545410
vt1 0.322510 0.555908
vt1 0.260986 0.555176
vt1 0.237427 0.545166
vt1 0.216064 0.554932
vt1 0.177612 0.545410
vt1 0.177612 0.555664
vt1 0.758301 0.496094
vt1 0.822754 0.500000
vt1 0.759277 0.507568
vt1 0.678223 0.506348
vt1 0.697754 0.497070
vt1 0.625977 0.497559
vt1 0.587891 0.506836
vt1 0.542969 0.496582
vt1 0.520020 0.506836
vt1 0.452637 0.506836
vt1 0.474609 0.496582
vt1 0.430908 0.497070
vt1 0.386475 0.496582
vt1 0.332520 0.504639
vt1 0.322754 0.497559
vt1 0.245239 0.496582
vt1 0.240112 0.507812
vt1 0.177490 0.506348
vt1 0.177612 0.496582
vt1 0.822754 0.543945
vt1 0.754395 0.508057
vt1 0.822754 0.507812
vt1 0.758789 0.543945
vt1 0.674805 0.508057
vt1 0.694824 0.543945
vt1 0.625488 0.543945
vt1 0.608887 0.508057
vt1 0.523926 0.507568
vt1 0.540039 0.543945
vt1 0.474609 0.543945
vt1 0.411133 0.508057
vt1 0.407715 0.543701
vt1 0.322998 0.507812
vt1 0.320068 0.543945
vt1 0.240234 0.508057
vt1 0.237427 0.543945
vt1 0.177612 0.543945
vt1 0.177612 0.507812
vt1 0.822754 0.548096
vt1 0.758789 0.508057
vt1 0.822754 0.502930
vt1 0.758789 0.543945
vt1 0.678223 0.508301
vt1 0.661621 0.544434
vt1 0.587402 0.508057
vt1 0.583496 0.543701
vt1 0.520020 0.508301
vt1 0.502930 0.543945
vt1 0.452637 0.508057
vt1 0.407471 0.543945
vt1 0.332275 0.508545
vt1 0.320068 0.543945
vt1 0.240479 0.508057
vt1 0.241943 0.543945
vt1 0.177612 0.543945
vt1 0.177612 0.507812
vt1 0.177612 0.496582
vt1 0.240479 0.496582
vt1 0.177490 0.506348
vt1 0.239746 0.507324
vt1 0.301025 0.496094
vt1 0.322998 0.506592
vt1 0.343994 0.497070
vt1 0.386719 0.496582
vt1 0.411377 0.507568
vt1 0.453369 0.497559
vt1 0.523926 0.507568
vt1 0.520508 0.496582
vt1 0.585938 0.496582
vt1 0.608887 0.506836
vt1 0.675293 0.506348
vt1 0.651855 0.497070
vt1 0.698242 0.496582
vt1 0.760742 0.495117
vt1 0.754883 0.507812
vt1 0.823242 0.506348
vt1 0.823242 0.496582
vt1 0.242432 0.458008
vt1 0.176758 0.493164
vt1 0.177612 0.458008
vt1 0.237671 0.493652
vt1 0.301758 0.492676
vt1 0.319336 0.459473
vt1 0.391602 0.491211
vt1 0.343994 0.497070
vt1 0.422852 0.458984
vt1 0.451904 0.492188
vt1 0.538574 0.458008
vt1 0.517090 0.491211
vt1 0.583008 0.493652
vt1 0.607910 0.458008
vt1 0.699219 0.488770
vt1 0.651855 0.497070
vt1 0.673828 0.458008
vt1 0.761230 0.458984
vt1 0.823242 0.490723
vt1 0.760742 0.498535
vt1 0.822754 0.458008
vt1 0.242432 0.458008
vt1 0.176758 0.493164
vt1 0.177612 0.458008
vt1 0.243164 0.495117
vt1 0.327148 0.492676
vt1 0.319336 0.459473
vt1 0.391602 0.491211
vt1 0.422852 0.459473
vt1 0.476807 0.490234
vt1 0.430908 0.497070
vt1 0.538574 0.458008
vt1 0.541016 0.494629
vt1 0.629883 0.494141
vt1 0.607910 0.458008
vt1 0.698730 0.488770
vt1 0.673828 0.458008
vt1 0.761230 0.458984
vt1 0.823730 0.493164
vt1 0.758301 0.499023
vt1 0.823242 0.458008
vt1 0.177612 0.598633
vt1 0.176880 0.559082
vt1 0.243042 0.599365
vt1 0.238403 0.558594
vt1 0.369385 0.562012
vt1 0.301270 0.554932
vt1 0.322510 0.598633
vt1 0.418213 0.599121
vt1 0.428223 0.562988
vt1 0.519531 0.598633
vt1 0.539551 0.559570
vt1 0.475098 0.554932
vt1 0.613281 0.598389
vt1 0.602539 0.562256
vt1 0.713379 0.599365
vt1 0.721680 0.559814
vt1 0.651855 0.554932
vt1 0.817383 0.598389
vt1 0.824219 0.555176
vt1 0.177612 0.598633
vt1 0.176880 0.559082
vt1 0.237549 0.598877
vt1 0.260254 0.562256
vt1 0.216064 0.554932
vt1 0.317871 0.597900
vt1 0.392090 0.562500
vt1 0.321289 0.554688
vt1 0.423340 0.598389
vt1 0.428711 0.562500
vt1 0.533203 0.599121
vt1 0.539062 0.560059
vt1 0.475098 0.554932
vt1 0.649902 0.599121
vt1 0.602539 0.561768
vt1 0.736816 0.562012
vt1 0.670898 0.553223
vt1 0.760742 0.598633
vt1 0.823730 0.559082
vt1 0.782715 0.554932
vt1 0.822754 0.598633
vn 0.102362 0.968504 0.236220
vn 0.354331 0.826772 0.440945
vn -0.125984 0.976378 0.188976
vn -0.291339 0.866142 -0.401575
vn 0.007874 1.000000 0.023622
vn -0.055118 0.976378 -0.220473
vn 0.023622 1.000000 0.007874
vn 0.196850 0.968504 0.149606
vn 0.338583 0.929134 0.125984
vn -0.944882 0.196850 0.251968
vn -0.921260 0.015748 0.385827
vn -0.866142 0.472441 0.181102
vn -0.858268 -0.000000 -0.511811
vn -0.834646 0.055118 -0.543307
vn -0.944882 -0.000000 -0.338583
vn -0.913386 -0.000000 -0.401575
vn -0.984252 0.007874 -0.181102
vn -0.984252 -0.000000 -0.173228
vn -0.622047 -0.000000 -0.787401
vn -0.574803 -0.000000 -0.818897
vn -0.401575 -0.000000 -0.913386
vn -0.535433 0.039370 -0.842520
vn -0.417323 0.015748 -0.905512
vn -0.188976 -0.000000 -0.984252
vn 0.007874 -0.000000 -1.000000
vn 0.220472 -0.000000 -0.976378
vn 0.267717 -0.000000 -0.960630
vn -0.527559 0.188976 -0.826772
vn 0.259843 0.062992 -0.960630
vn 0.551181 -0.000000 -0.834646
vn 0.598425 -0.000000 -0.803149
vn 0.748031 -0.000000 -0.661417
vn 0.062992 0.188976 -0.976378
vn 0.771654 0.062992 -0.629921
vn 0.874016 -0.000000 -0.488189
vn 0.952756 -0.000000 -0.307087
vn 0.992126 -0.000000 -0.094488
vn 1.000000 -0.000000 -0.039370
vn 0.629921 0.181102 -0.755905
vn 1.000000 0.055118 -0.055118
vn 0.897638 0.000000 0.440945
vn 0.944882 0.000000 0.322835
vn 0.858268 0.000000 0.503937
vn 0.929134 0.031496 0.362205
vn 0.842520 0.062992 0.527559
vn 0.472441 0.000000 0.881890
vn 0.582677 0.000000 0.811023
vn 0.228346 0.007874 0.976378
vn 0.228346 0.000000 0.976378
vn 0.409449 0.000000 0.913386
vn 0.913386 0.181102 0.362205
vn 0.362205 0.062992 0.929134
vn -0.078740 0.992126 0.086614
vn -0.015748 1.000000 -0.000000
vn -0.181102 0.984252 0.055118
vn 0.007874 1.000000 0.031496
vn 0.228346 0.023622 0.976378
vn 0.338583 0.047244 0.937008
vn 0.622047 0.015748 0.779527
vn 0.685039 0.070866 0.724409
vn -0.385827 0.015748 0.921260
vn -0.275591 0.039370 0.960630
vn 0.110236 0.015748 0.992126
vn 0.078740 0.110236 0.992126
vn -0.850394 0.023622 0.527559
vn -0.787402 0.047244 0.614173
vn -0.551181 0.015748 0.834646
vn -0.480315 0.070866 0.874016
vn -1.000000 0.047244 0.023622
vn -0.937008 0.015748 0.354331
vn -1.000000 0.023622 -0.078740
vn -0.897638 0.086614 0.425197
vn -0.826772 0.039370 -0.559055
vn -0.968504 0.015748 -0.251968
vn -0.748031 0.023622 -0.669291
vn -0.968504 0.110236 -0.228346
vn -0.653543 0.094488 -0.755905
vn -0.637795 0.015748 -0.771653
vn -0.330709 0.039370 -0.944882
vn -0.244094 0.023622 -0.968504
vn 0.795276 0.023622 0.606299
vn 0.826772 0.039370 0.559055
vn 0.968504 0.015748 0.251968
vn 0.968504 0.110236 0.228346
vn 0.007874 -1.000000 0.000000
vn 0.007874 -1.000000 0.000000
vn 0.007874 -1.000000 0.000000
vn 0.007874 -1.000000 0.000000
vn 0.007874 -1.000000 0.007874
vn 0.007874 -1.000000 0.007874
vn 0.000000 -1.000000 0.007874
vn 0.000000 -1.000000 0.007874
vn 0.000000 -1.000000 0.000000
vn 0.000000 -1.000000 0.000000
vn 0.000000 -1.000000 0.000000
vn 0.000000 -1.000000 0.000000
vn 0.000000 -1.000000 0.000000
vn 0.007874 -1.000000 0.000000
vn 0.007874 -1.000000 0.000000
vn 0.007874 -1.000000 0.000000
vn 0.007874 -1.000000 0.000000
vn 0.007874 -1.000000 0.007874
vn 0.000000 -1.000000 0.007874
vn 0.000000 -1.000000 0.007874
vn 0.000000 -1.000000 0.007874
vn 0.000000 -1.000000 0.007874
vn -0.267717 0.952756 0.157480
vn -0.307087 0.826772 0.472441
vn 0.039370 0.992126 0.118110
vn -0.047244 1.000000 -0.031496
vn -0.307087 0.952756 -0.015748
vn -0.527559 0.826772 0.204724
vn -0.007874 0.984252 -0.173228
vn -0.070866 1.000000 0.047244
vn 0.000000 1.000000 0.007874
vn -0.086614 1.000000 -0.015748
vn -0.039370 0.984252 0.181102
vn -0.291339 0.031496 0.952756
vn -0.220472 0.165354 0.960630
vn -0.314961 0.023622 0.952756
vn -0.212598 0.039370 0.976378
vn -0.070866 0.992126 0.118110
vn 0.535433 0.393701 -0.748031
vn -0.007874 1.000000 -0.070866
vn 0.464567 0.377953 -0.795276
vn 0.614173 0.015748 -0.787401
vn 0.519685 0.023622 -0.850394
vn 0.149606 0.968504 -0.204724
vn -0.094488 0.992126 0.094488
vn -0.787402 0.275591 0.551181
vn -0.748031 0.165354 0.645669
vn -0.811024 0.023622 0.590551
vn -0.740157 0.039370 0.669291
vn -0.110236 0.992126 0.047244
vn 0.874016 0.401575 -0.291339
vn 0.039370 1.000000 -0.070866
vn 0.921260 0.015748 -0.385827
vn 0.850394 0.377953 -0.370079
vn 0.960630 0.023622 -0.283465
vn -0.125984 0.992126 0.015748
vn 0.259843 0.960630 -0.086614
vn -0.960630 0.267716 -0.007874
vn -0.984252 0.165354 0.078740
vn -1.000000 0.023622 -0.000000
vn -0.992126 0.023622 0.110236
vn -0.133858 0.992126 -0.031496
vn 0.874016 0.393701 0.283464
vn 0.070866 1.000000 -0.031496
vn 0.937008 0.015748 0.338583
vn 0.905512 0.370079 0.196850
vn 0.968504 0.023622 0.236220
vn -0.133858 0.984252 -0.078740
vn 0.220472 0.968504 0.070866
vn -0.771654 0.275590 -0.574803
vn -0.842520 0.173228 -0.511811
vn -0.811024 0.023622 -0.590551
vn -0.866142 0.031496 -0.503937
vn -0.086614 0.992126 -0.102362
vn 0.543307 0.401575 0.740157
vn 0.070866 1.000000 0.015748
vn 0.614173 0.377953 0.692913
vn 0.653543 0.015748 0.755905
vn 0.566929 0.023622 0.826772
vn -0.062992 0.984252 -0.141732
vn 0.157480 0.960630 0.220472
vn -0.275591 0.275590 -0.921260
vn -0.354331 0.385827 -0.850394
vn -0.401575 0.039370 -0.913386
vn -0.314961 0.023622 -0.952756
vn 0.039370 1.000000 0.047244
vn -0.031496 0.984252 -0.188976
vn 0.000000 0.173228 0.984252
vn 0.086614 0.377953 0.921260
vn 0.078740 0.015748 1.000000
vn -0.031496 0.015748 1.000000
vn 0.000000 0.960630 0.275590
vn 0.023622 0.992126 -0.133858
vn 0.314961 0.267716 -0.913386
vn 0.220472 0.165354 -0.960630
vn 0.212598 0.039370 -0.976378
vn 0.314961 0.023622 -0.952756
vn 0.062992 0.992126 -0.118110
vn -0.535433 0.393701 0.748031
vn 0.007874 1.000000 0.070866
vn -0.614173 0.015748 0.787401
vn -0.464567 0.377953 0.795275
vn -0.519685 0.023622 0.850394
vn 0.102362 0.992126 -0.094488
vn -0.157480 0.968504 0.212598
vn 0.787402 0.275590 -0.551181
vn 0.700787 0.377953 -0.598425
vn 0.811024 0.023622 -0.590551
vn 0.740157 0.039370 -0.669291
vn -0.031496 1.000000 0.055118
vn 0.173228 0.984252 -0.086614
vn -0.937008 0.165354 0.307087
vn -0.929134 0.015748 0.370079
vn -0.921260 0.015748 0.385827
vn -0.960630 0.023622 0.275591
vn 0.000000 1.000000 0.007874
vn 0.000000 1.000000 -0.000000
vn 0.000000 1.000000 0.039370
vn 0.000000 1.000000 -0.000000
vn 0.007874 1.000000 -0.000000
vn 0.000000 1.000000 -0.000000
vn 0.000000 1.000000 -0.000000
vn -0.007874 1.000000 -0.000000
vn 0.000000 1.000000 -0.007874
vn -0.070866 1.000000 -0.023622
vn 0.000000 1.000000 -0.000000
vn -0.803150 0.000000 0.590551
vn -0.590551 0.000000 0.803149
vn -0.590551 0.000000 0.811023
vn -0.874016 0.000000 0.488189
vn -0.992126 0.000000 0.102362
vn -1.000000 -0.000000 -0.023622
vn -0.952756 -0.000000 -0.307087
vn -0.889764 -0.000000 -0.456693
vn -0.700787 -0.000000 -0.708661
vn -0.440945 -0.000000 -0.897638
vn -0.157480 -0.000000 -0.984252
vn 0.157480 -0.000000 -0.984252
vn 0.464567 -0.000000 -0.889764
vn 0.590551 -0.000000 -0.811023
vn 0.811024 -0.000000 -0.582677
vn 0.905512 -0.000000 -0.417323
vn 0.984252 -0.000000 -0.157480
vn 0.984252 0.000000 0.157480
vn 0.897638 0.000000 0.448819
vn 0.811024 0.000000 0.590551
vn 0.511811 0.000000 0.858268
vn 0.464567 0.000000 0.889764
vn -0.094488 0.000000 0.992126
vn -0.118110 0.000000 0.992126
vn -0.582677 0.000000 0.811023
vn -0.598425 0.000000 0.803149
vn -0.614173 -0.724409 -0.322835
vn -0.685039 -0.716535 -0.125984
vn -0.519685 -0.724409 -0.456693
vn -0.259843 -0.716535 -0.645669
vn -0.212598 -0.724409 -0.653543
vn -0.007874 -0.724409 -0.692913
vn 0.118110 -0.716535 -0.685039
vn 0.307087 -0.724409 -0.614173
vn 0.448819 -0.740157 -0.496063
vn 0.519685 -0.763779 -0.385827
vn 0.622047 -0.763779 -0.188976
vn 0.661417 -0.748031 -0.086614
vn 0.677165 -0.724409 0.118110
vn 0.622047 -0.716535 0.322835
vn 0.559055 -0.724409 0.401575
vn 0.330709 -0.724409 0.606299
vn 0.314961 -0.724409 0.614173
vn 0.133858 -0.716535 0.677165
vn 0.133858 -0.716535 0.677165
vn -0.645669 -0.724409 -0.236220
vn -0.677165 -0.716535 -0.133858
vn -0.677165 -0.716535 -0.133858
vn -0.614173 -0.724409 -0.322835
vn -0.551181 -0.724409 -0.417323
vn -0.299213 -0.716535 -0.622047
vn -0.401575 -0.724409 -0.559055
vn -0.086614 -0.716535 -0.692913
vn -0.007874 -0.724409 -0.692913
vn 0.322835 -0.716535 -0.614173
vn 0.322835 -0.716535 -0.614173
vn 0.559055 -0.724409 -0.401575
vn 0.559055 -0.724409 -0.401575
vn 0.653543 -0.724409 -0.212598
vn 0.685039 -0.724409 -0.102362
vn 0.692913 -0.724409 0.007874
vn 0.614173 -0.716535 0.330709
vn 0.614173 -0.724409 0.314961
vn 0.409449 -0.724409 0.551181
vn 0.314961 -0.724409 0.614173
vn 0.236220 -0.724409 0.645669
vn 0.133858 -0.716535 0.677165
vn 0.133858 -0.716535 0.677165
vn -0.614173 0.724409 -0.322835
vn -0.677165 0.724409 -0.133858
vn -0.606299 0.724409 -0.322835
vn -0.338583 0.716535 -0.606299
vn -0.417323 0.724409 -0.551181
vn -0.086614 0.724409 -0.685039
vn 0.102362 0.724409 -0.685039
vn 0.307087 0.724409 -0.622047
vn 0.401575 0.724409 -0.559055
vn 0.622047 0.716535 -0.314961
vn 0.559055 0.724409 -0.401575
vn 0.653543 0.724409 -0.212598
vn 0.685039 0.724409 0.007874
vn 0.645669 0.708661 0.275590
vn 0.614173 0.724409 0.314961
vn 0.338583 0.724409 0.598425
vn 0.322835 0.724409 0.606299
vn 0.133858 0.724409 0.677165
vn 0.133858 0.724409 0.677165
vn -0.976378 -0.133858 -0.188976
vn -0.866142 0.141732 -0.472441
vn -0.968504 0.165354 -0.188976
vn -0.874016 -0.133858 -0.464567
vn -0.456693 0.141732 -0.874016
vn -0.574803 -0.141732 -0.803149
vn -0.118110 -0.133858 -0.984252
vn -0.007874 0.141732 -0.992126
vn 0.559055 0.141732 -0.818897
vn 0.456693 -0.133858 -0.874016
vn 0.803150 -0.149606 -0.574803
vn 0.976378 0.133858 -0.173228
vn 0.984252 -0.133858 -0.141732
vn 0.881890 0.141732 0.440945
vn 0.874016 -0.133858 0.464567
vn 0.456693 0.133858 0.881890
vn 0.448819 -0.149606 0.881890
vn 0.188976 -0.133858 0.976378
vn 0.188976 0.165354 0.968504
vn -0.968504 -0.173228 -0.188976
vn -0.881890 0.141732 -0.448819
vn -0.960630 0.204724 -0.188976
vn -0.874016 -0.133858 -0.464567
vn -0.480315 0.133858 -0.866142
vn -0.370079 -0.141732 -0.913386
vn 0.141732 0.141732 -0.976378
vn 0.173228 -0.133858 -0.976378
vn 0.574803 0.133858 -0.803149
vn 0.677165 -0.133858 -0.724409
vn 0.881890 0.133858 -0.448819
vn 0.976378 -0.141732 -0.141732
vn 0.913386 0.141732 0.377953
vn 0.874016 -0.133858 0.464567
vn 0.456693 0.133858 0.874016
vn 0.472441 -0.149606 0.866142
vn 0.188976 -0.133858 0.976378
vn 0.188976 0.165354 0.968504
vn 0.133858 0.724409 0.677165
vn 0.322835 0.724409 0.614173
vn 0.133858 0.724409 0.677165
vn 0.322835 0.724409 0.606299
vn 0.559055 0.724409 0.401575
vn 0.622047 0.716535 0.314961
vn 0.653543 0.724409 0.212598
vn 0.685039 0.724409 -0.000000
vn 0.677165 0.724409 -0.118110
vn 0.614173 0.724409 -0.314961
vn 0.393701 0.716535 -0.574803
vn 0.401575 0.724409 -0.559055
vn 0.102362 0.724409 -0.685039
vn -0.007874 0.724409 -0.685039
vn -0.322835 0.724409 -0.614173
vn -0.212598 0.724409 -0.653543
vn -0.417323 0.724409 -0.551181
vn -0.614173 0.724409 -0.314961
vn -0.598425 0.724409 -0.338583
vn -0.677165 0.724409 -0.133858
vn -0.677165 0.724409 -0.133858
vn -0.023622 1.000000 -0.039370
vn 0.007874 1.000000 0.047244
vn -0.007874 1.000000 -0.039370
vn 0.039370 1.000000 0.055118
vn 0.039370 1.000000 0.031496
vn -0.031496 1.000000 -0.023622
vn 0.039370 1.000000 -0.000000
vn 0.212598 0.976378 0.070866
vn -0.039370 1.000000 0.007874
vn 0.047244 1.000000 -0.023622
vn -0.015748 1.000000 0.039370
vn 0.023622 1.000000 -0.031496
vn 0.007874 1.000000 -0.062992
vn 0.000000 1.000000 0.039370
vn 0.000000 1.000000 -0.015748
vn -0.070866 0.976378 -0.212599
vn 0.015748 1.000000 0.039370
vn 0.039370 1.000000 0.015748
vn -0.023622 1.000000 -0.007874
vn -0.244094 0.960630 -0.110236
vn 0.039370 1.000000 0.007874
vn -0.023622 1.000000 -0.039370
vn 0.007874 1.000000 0.047244
vn -0.007874 1.000000 -0.039370
vn 0.047244 1.000000 0.070866
vn 0.055118 1.000000 0.023622
vn -0.031496 1.000000 -0.023622
vn 0.039370 1.000000 -0.000000
vn -0.039370 1.000000 0.007874
vn 0.023622 1.000000 -0.015748
vn 0.212598 0.976378 -0.070866
vn -0.015748 1.000000 0.039370
vn 0.031496 1.000000 -0.070866
vn -0.007874 1.000000 -0.070866
vn 0.000000 1.000000 0.039370
vn -0.007874 1.000000 -0.015748
vn 0.015748 1.000000 0.039370
vn 0.039370 1.000000 0.015748
vn -0.039370 1.000000 -0.007874
vn -0.244094 0.960630 -0.118110
vn 0.039370 1.000000 0.007874
vn -0.007874 -1.000000 -0.039370
vn 0.007874 -1.000000 0.047244
vn -0.023622 -1.000000 -0.031496
vn 0.031496 -1.000000 0.047244
vn 0.047244 -1.000000 0.000000
vn 0.181102 -0.976378 0.133858
vn -0.031496 -1.000000 -0.015748
vn -0.039370 -1.000000 0.007874
vn 0.015748 -1.000000 -0.007874
vn -0.023622 -1.000000 0.031496
vn 0.015748 -1.000000 -0.039370
vn 0.181102 -0.976378 -0.133858
vn 0.000000 -1.000000 0.039370
vn 0.000000 -1.000000 -0.031496
vn 0.023622 -1.000000 0.031496
vn -0.031496 -1.000000 -0.031496
vn -0.070866 -0.976378 -0.212598
vn 0.031496 -1.000000 0.007874
vn -0.062992 -1.000000 -0.015748
vn -0.007874 -1.000000 -0.039370
vn 0.007874 -1.000000 0.047244
vn -0.015748 -1.000000 -0.039370
vn 0.007874 -1.000000 0.023622
vn 0.078740 -0.976378 0.212599
vn -0.031496 -1.000000 -0.023622
vn 0.023622 -1.000000 0.000000
vn 0.244094 -0.960630 0.110236
vn -0.039370 -1.000000 0.007874
vn 0.023622 -1.000000 -0.007874
vn -0.023622 -1.000000 0.031496
vn 0.015748 -1.000000 -0.039370
vn 0.181102 -0.976378 -0.133858
vn 0.007874 -1.000000 0.031496
vn 0.000000 -1.000000 -0.031496
vn -0.023622 -1.000000 -0.007874
vn -0.110236 -0.960630 -0.251968
vn 0.039370 -1.000000 0.015748
vn -0.047244 -1.000000 -0.007874
vn -0.212598 -0.976378 -0.078740
vn 0.039370 -1.000000 0.007874
tan -0.137268 -0.219852 0.960878 1.000000
tan 0.051646 -0.466055 0.832352 1.000000
tan -0.369025 -0.223200 0.907186 1.000000
tan -0.486391 0.176886 0.734391 1.000000
tan -0.787402 -0.008308 0.614173 1.000000
tan -0.761114 0.095914 0.615041 1.000000
tan -0.566929 0.006882 0.826772 1.000000
tan -0.671089 0.028024 0.701593 1.000000
tan -0.747225 0.196540 0.558683 1.000000
tan -0.318247 -0.632401 -0.699361 1.000000
tan -0.358857 -0.377209 -0.841465 1.000000
tan -0.503069 -0.766383 -0.406721 1.000000
tan 0.507781 -0.094612 -0.851510 1.000000
tan 0.513175 -0.205716 -0.809226 1.000000
tan 0.309257 -0.386881 -0.863042 1.000000
tan 0.350983 -0.449067 -0.798313 1.000000
tan 0.122822 -0.689751 -0.697501 1.000000
tan 0.111848 -0.753115 -0.635501 1.000000
tan 0.756402 -0.282969 -0.597557 1.000000
tan 0.818898 -0.019344 -0.574803 1.000000
tan 0.906194 -0.107880 -0.398413 1.000000
tan 0.835886 -0.119412 -0.536797 1.000000
tan 0.891252 -0.171120 -0.413727 1.000000
tan 0.953252 -0.248000 -0.183024 1.000000
tan 0.992126 -0.125984 0.007812 1.000000
tan 0.968690 -0.092256 0.218736 1.000000
tan 0.960630 -0.045384 0.267716 1.000000
tan 0.816728 -0.147932 -0.554963 1.000000
tan 0.953066 -0.105896 0.250852 1.000000
tan 0.834646 0.061256 0.551181 1.000000
tan 0.803150 0.006324 0.598425 1.000000
tan 0.661417 0.000000 0.748031 1.000000
tan 0.853370 0.468969 0.145824 1.000000
tan 0.629921 0.004960 0.772149 1.000000
tan 0.480501 0.162130 0.860252 1.000000
tan 0.297415 0.225061 0.922748 1.000000
tan 0.085560 0.421849 0.898382 1.000000
tan 0.031930 0.590551 0.811023 1.000000
tan 0.709529 0.188480 0.636431 1.000000
tan 0.029078 0.393701 0.921260 1.000000
tan -0.368033 0.498233 0.749209 1.000000
tan -0.299957 0.357121 0.877922 1.000000
tan -0.499969 0.108128 0.851510 1.000000
tan -0.324633 0.490173 0.790129 1.000000
tan -0.523653 0.233865 0.808358 1.000000
tan -0.618017 0.643561 0.331081 1.000000
tan -0.804638 0.083018 0.578089 1.000000
tan -0.369025 0.907186 0.078988 1.000000
tan -0.284457 0.941534 0.066526 1.000000
tan -0.755162 0.510633 0.338521 1.000000
tan -0.340815 0.798190 0.460351 1.000000
tan -0.695021 0.621861 0.228780 1.000000
tan -0.929630 -0.103788 0.343729 1.000000
tan -0.228346 -0.003596 -0.976378 1.000000
tan -0.100750 0.036146 -0.976502 1.000000
tan -0.496063 0.031186 -0.866142 1.000000
tan -0.845682 -0.484345 0.209498 1.000000
tan -0.833716 -0.427925 0.322835 1.000000
tan -0.735693 -0.279806 0.592721 1.000000
tan -0.707979 -0.151218 0.684295 1.000000
tan -0.718271 -0.583359 -0.290842 1.000000
tan -0.575175 -0.766135 -0.133610 1.000000
tan -0.578089 -0.804637 0.077004 1.000000
tan -0.531217 -0.835886 0.135036 1.000000
tan 0.284457 -0.780147 0.493459 1.000000
tan 0.462025 -0.580445 0.636989 1.000000
tan 0.115816 -0.901730 0.093496 1.000000
tan 0.321781 -0.823424 0.243599 1.000000
tan -0.022134 -0.779527 0.622047 1.000000
tan 0.245769 -0.652055 0.678901 1.000000
tan -0.074090 -0.669291 0.740157 1.000000
tan 0.285635 -0.554281 0.715915 1.000000
tan -0.550747 -0.208506 0.799802 1.000000
tan -0.226176 -0.488065 0.838862 1.000000
tan -0.666625 -0.108810 0.741211 1.000000
tan -0.250356 -0.556699 0.793105 1.000000
tan -0.756649 0.024614 0.657263 1.000000
tan -0.771654 0.012152 0.638043 1.000000
tan -0.944882 0.066960 0.333499 1.000000
tan -0.968504 0.061008 0.245582 1.000000
tan -0.607601 0.048608 0.795089 1.000000
tan -0.561535 0.052080 0.826772 1.000000
tan -0.252093 0.129642 0.960878 1.000000
tan -0.245520 0.198276 0.945626 1.000000
tan 0.897638 0.007068 -0.433071 1.000000
tan 0.937008 0.007378 -0.338583 1.000000
tan 0.897638 0.007068 -0.433071 1.000000
tan 0.937008 0.007378 -0.338583 1.000000
tan 0.992126 0.006696 -0.141732 1.000000
tan 0.992126 0.006758 -0.133858 1.000000
tan 1.000000 0.000558 0.070866 1.000000
tan 0.992126 0.000868 0.110236 1.000000
tan 0.960630 0.000000 0.267716 1.000000
tan 0.937008 0.000000 0.346457 1.000000
tan 0.913386 0.000000 0.401575 1.000000
tan 0.826772 0.000000 0.566929 1.000000
tan 0.803150 0.000000 0.590551 1.000000
tan 0.661417 0.005208 0.748031 1.000000
tan 0.637795 0.005022 0.771653 1.000000
tan 0.472441 0.003720 0.881890 1.000000
tan 0.425197 0.003348 0.905512 1.000000
tan 0.251969 0.009610 0.968504 1.000000
tan 0.102362 0.007812 0.992126 1.000000
tan 0.062992 0.007874 1.000000 1.000000
tan -0.015748 0.007874 1.000000 1.000000
tan -0.031496 0.007874 1.000000 1.000000
tan -0.720193 -0.305289 0.622667 1.000000
tan -0.332011 -0.554839 0.755161 1.000000
tan -0.531217 -0.078430 0.835886 1.000000
tan -0.692913 -0.010168 0.716535 1.000000
tan -0.847728 -0.266166 0.427615 1.000000
tan -0.790998 -0.561597 0.229649 1.000000
tan -0.899002 0.063736 0.403001 1.000000
tan 0.944882 0.051336 0.330709 1.000000
tan 0.937008 -0.002728 0.346457 1.000000
tan 0.944882 0.086924 0.322835 1.000000
tan 0.891252 -0.041354 0.418501 1.000000
tan 0.945254 -0.090024 0.292021 1.000000
tan 0.939240 -0.202492 0.250419 1.000000
tan 0.945254 -0.090024 0.314713 1.000000
tan 0.968690 -0.115320 0.215574 1.000000
tan 0.859322 0.002790 0.492157 1.000000
tan 0.798872 0.016616 0.580569 1.000000
tan 0.866142 0.042532 0.503937 1.000000
tan 0.805320 0.148118 0.540827 1.000000
tan 0.787402 0.012400 0.614421 1.000000
tan 0.850394 0.006696 0.519871 1.000000
tan 0.625333 0.059768 0.739723 1.000000
tan 0.710893 0.001488 0.695269 1.000000
tan 0.590241 0.097340 0.794531 1.000000
tan 0.652179 -0.011222 0.758447 1.000000
tan 0.590365 -0.006386 0.811023 1.000000
tan 0.669601 0.005828 0.740157 1.000000
tan 0.539029 0.020088 0.835886 1.000000
tan 0.387377 -0.204166 0.880712 1.000000
tan 0.433071 0.047120 0.905512 1.000000
tan 0.385951 -0.007254 0.921260 1.000000
tan 0.390973 -0.006944 0.891314 1.000000
tan 0.282721 0.030256 0.960630 1.000000
tan 0.234360 0.014508 0.960878 1.000000
tan 0.400893 -0.029326 0.877426 1.000000
tan 0.019592 0.098518 0.959390 1.000000
tan 0.064418 -0.085870 0.985554 1.000000
tan -0.001116 -0.047244 1.000000 1.000000
tan 0.110422 0.007812 0.992126 1.000000
tan -0.124992 0.014384 0.984314 1.000000
tan -0.293633 -0.003720 0.910534 1.000000
tan -0.188976 0.044392 0.984252 1.000000
tan -0.339327 0.044268 0.937008 1.000000
tan -0.275157 0.192820 0.903218 1.000000
tan -0.236406 0.007626 0.968504 1.000000
tan -0.488251 0.001798 0.852502 1.000000
tan -0.648211 0.095108 0.716845 1.000000
tan -0.594147 -0.003472 0.795957 1.000000
tan -0.528241 -0.083390 0.841342 1.000000
tan -0.590923 -0.012772 0.811023 1.000000
tan -0.504185 -0.006820 0.866142 1.000000
tan -0.664021 0.017794 0.734329 1.000000
tan -0.765268 -0.111042 0.621985 1.000000
tan -0.732283 0.041106 0.685039 1.000000
tan -0.751442 0.032364 0.648397 1.000000
tan -0.755906 0.000000 0.653543 1.000000
tan -0.826772 0.006510 0.566743 1.000000
tan -0.852502 0.015748 0.488251 1.000000
tan -0.779094 -0.002480 0.567301 1.000000
tan -0.917602 0.155992 0.321161 1.000000
tan -0.892306 0.008928 0.375845 1.000000
tan -0.913386 0.021576 0.402505 1.000000
tan -0.952756 -0.022506 0.314403 1.000000
tan -0.992126 0.033108 0.125984 1.000000
tan -0.930002 0.031248 0.317751 1.000000
tan -0.985616 -0.085250 0.015004 1.000000
tan -0.940790 0.107694 0.044268 1.000000
tan -1.000000 0.000000 0.078740 1.000000
tan -1.000000 0.062992 -0.032488 1.000000
tan -0.922810 0.075950 -0.264740 1.000000
tan -0.968690 -0.007502 -0.226548 1.000000
tan -0.926034 0.000496 -0.319177 1.000000
tan -0.954368 -0.134416 -0.242172 1.000000
tan -0.976378 -0.015376 -0.213218 1.000000
tan -0.952756 -0.037510 -0.315891 1.000000
tan -0.882758 0.003038 -0.445285 1.000000
tan -0.798872 0.004836 -0.574369 1.000000
tan -0.874016 0.040920 -0.480315 1.000000
tan -0.787402 0.006200 -0.614297 1.000000
tan -0.805320 0.148118 -0.540827 1.000000
tan -0.850394 -0.000000 -0.519685 1.000000
tan -0.718705 0.009424 -0.679645 1.000000
tan -0.617707 0.063612 -0.747349 1.000000
tan -0.590241 0.097340 -0.794531 1.000000
tan -0.636121 -0.008246 -0.750139 1.000000
tan -0.590551 -0.000000 -0.811023 1.000000
tan -0.669601 0.005828 -0.740157 1.000000
tan -0.488189 0.032798 -0.874016 1.000000
tan -0.604501 0.038192 -0.775001 1.000000
tan -0.333499 -0.172236 -0.924856 1.000000
tan -0.370079 -0.000000 -0.929134 1.000000
tan -0.386571 -0.043524 -0.921260 1.000000
tan -0.275653 -0.090768 -0.953066 1.000000
tan -0.346457 -0.007378 0.937008 1.000000
tan -0.370079 0.000000 0.929134 1.000000
tan -0.346457 -0.036890 0.937008 1.000000
tan -0.338583 0.000000 0.944882 1.000000
tan -0.393701 0.003100 0.921260 1.000000
tan -0.409449 0.000000 0.913386 1.000000
tan -0.322835 0.000000 0.944882 1.000000
tan -0.307087 -0.002418 0.952756 1.000000
tan -0.291339 0.007502 0.952756 1.000000
tan -0.314961 0.000186 0.952756 1.000000
tan -0.275591 0.000000 0.960630 1.000000
tan 0.000000 -0.849650 0.000000 1.000000
tan 0.000000 -0.897452 0.000000 1.000000
tan 0.000000 -0.874388 0.000000 1.000000
tan 0.000000 -0.885548 0.000000 1.000000
tan 0.000000 -0.992126 0.000000 1.000000
tan 0.000000 -1.000000 0.000000 1.000000
tan 0.000000 -0.952756 0.000000 1.000000
tan 0.000000 -0.882572 0.000000 1.000000
tan 0.000000 -0.993180 0.000000 1.000000
tan 0.000000 -0.890694 0.000000 1.000000
tan 0.000000 -0.984252 0.000000 1.000000
tan 0.000000 -0.984252 0.000000 1.000000
tan 0.000000 -0.889764 0.000000 1.000000
tan 0.000000 -0.883688 0.000000 1.000000
tan 0.000000 -0.903776 0.000000 1.000000
tan 0.000000 -0.902226 0.000000 1.000000
tan 0.000000 -0.984252 0.000000 1.000000
tan 0.000000 -0.984252 0.000000 1.000000
tan 0.000000 -0.897638 0.000000 1.000000
tan 0.000000 -0.922066 0.000000 1.000000
tan 0.000000 -0.850208 0.000000 1.000000
tan 0.000000 -0.897080 0.000000 1.000000
tan 0.000000 -0.992126 0.000000 1.000000
tan 0.000000 -0.992126 0.000000 1.000000
tan 0.000000 -0.878046 0.000000 1.000000
tan 0.000000 -0.903590 0.000000 1.000000
tan -0.707297 0.663215 -0.142600 1.000000
tan -0.716535 0.689999 -0.028210 1.000000
tan -0.593217 0.691673 -0.422097 1.000000
tan -0.062062 0.668175 -0.716535 1.000000
tan -0.136896 0.683427 -0.713001 1.000000
tan 0.000000 0.692913 -0.724409 1.000000
tan 0.011284 0.686899 -0.716535 1.000000
tan 0.148304 0.662533 -0.707297 1.000000
tan 0.477897 0.668671 -0.565317 1.000000
tan 0.649513 0.648521 -0.408953 1.000000
tan 0.757766 0.640957 -0.096224 1.000000
tan 0.748031 0.663463 -0.017670 1.000000
tan 0.724409 0.679025 0.011408 1.000000
tan 0.705251 0.665633 0.118482 1.000000
tan 0.621737 0.685349 0.370761 1.000000
tan 0.142600 0.657077 0.707297 1.000000
tan 0.131192 0.661541 0.713001 1.000000
tan 0.039494 0.684543 0.716535 1.000000
tan 0.045136 0.685597 0.716535 1.000000
tan -0.707297 0.680637 -0.154008 1.000000
tan -0.716535 0.684543 -0.039494 1.000000
tan -0.716535 0.685597 -0.045136 1.000000
tan -0.707297 0.663215 -0.142600 1.000000
tan -0.638849 0.683241 -0.342241 1.000000
tan -0.146692 0.668609 -0.699609 1.000000
tan -0.313721 0.675739 -0.650257 1.000000
tan 0.000000 0.692913 -0.716535 1.000000
tan 0.000000 0.692913 -0.724409 1.000000
tan 0.124124 0.660425 -0.705251 1.000000
tan 0.129766 0.662967 -0.705251 1.000000
tan 0.650257 0.678901 -0.319425 1.000000
tan 0.621737 0.685349 -0.370761 1.000000
tan 0.718705 0.673507 -0.085560 1.000000
tan 0.724409 0.686651 -0.011408 1.000000
tan 0.724409 0.692913 -0.000000 1.000000
tan 0.705251 0.661789 0.124124 1.000000
tan 0.707297 0.671585 0.165416 1.000000
tan 0.336537 0.676297 0.638849 1.000000
tan 0.119784 0.656581 0.713001 1.000000
tan 0.154008 0.680637 0.707297 1.000000
tan 0.039494 0.684543 0.716535 1.000000
tan 0.045136 0.685597 0.716535 1.000000
tan 0.707297 0.673383 0.165416 1.000000
tan 0.724409 0.682435 0.028520 1.000000
tan 0.713001 0.652675 0.125488 1.000000
tan 0.135408 0.660735 0.705251 1.000000
tan 0.342241 0.683241 0.638849 1.000000
tan 0.017112 0.687085 0.724409 1.000000
tan -0.005704 0.685845 0.724409 1.000000
tan -0.131192 0.667865 0.713001 1.000000
tan -0.313721 0.675739 0.650257 1.000000
tan -0.710893 0.664269 0.107198 1.000000
tan -0.650257 0.678901 0.319425 1.000000
tan -0.713001 0.683427 0.136896 1.000000
tan -0.724409 0.685039 -0.000000 1.000000
tan -0.708661 0.669539 -0.061380 1.000000
tan -0.707297 0.661665 -0.142600 1.000000
tan -0.171120 0.664269 -0.707297 1.000000
tan -0.154008 0.660611 -0.707297 1.000000
tan -0.039928 0.684543 -0.724409 1.000000
tan -0.045632 0.685597 -0.724409 1.000000
tan -0.133858 0.976378 -0.000000 1.000000
tan 0.141732 0.873582 0.002232 1.000000
tan 0.165354 0.968504 -0.000000 1.000000
tan -0.133858 0.877674 -0.001054 1.000000
tan 0.001116 0.877612 0.141732 1.000000
tan -0.027900 0.903652 -0.139500 1.000000
tan 0.000000 0.984252 -0.133858 1.000000
tan 0.000000 0.992126 0.141732 1.000000
tan -0.022320 0.894042 0.139500 1.000000
tan 0.000000 0.874016 -0.133858 1.000000
tan 0.146072 0.901854 -0.030628 1.000000
tan -0.133858 0.976378 -0.000000 1.000000
tan 0.133858 0.984252 -0.000000 1.000000
tan -0.145204 0.885362 0.005828 1.000000
tan 0.133858 0.877674 0.001054 1.000000
tan 0.013888 0.881890 -0.141050 1.000000
tan 0.001178 0.885424 0.149606 1.000000
tan 0.000000 0.976378 0.133858 1.000000
tan 0.000000 0.968504 -0.165354 1.000000
tan -0.173228 0.968504 -0.000000 1.000000
tan 0.141732 0.885424 0.001116 1.000000
tan 0.204724 0.960630 -0.000000 1.000000
tan -0.133858 0.874016 -0.000000 1.000000
tan 0.002108 0.873706 0.133858 1.000000
tan 0.001116 0.910472 -0.141732 1.000000
tan 0.000000 0.976378 0.141732 1.000000
tan 0.000000 0.976378 -0.133858 1.000000
tan -0.028458 0.906380 0.130696 1.000000
tan 0.109058 0.977494 -0.078678 1.000000
tan -0.133858 0.881890 -0.000000 1.000000
tan 0.140616 0.976378 -0.007688 1.000000
tan -0.141732 0.913386 -0.000000 1.000000
tan 0.133858 0.877674 0.001054 1.000000
tan 0.000000 0.874016 -0.133858 1.000000
tan 0.002356 0.873582 0.149606 1.000000
tan 0.000000 0.976378 0.133858 1.000000
tan 0.000000 0.968504 -0.165354 1.000000
tan -0.045632 0.685597 -0.724409 1.000000
tan -0.142600 0.668051 -0.713001 1.000000
tan -0.039928 0.684543 -0.724409 1.000000
tan -0.154008 0.660611 -0.707297 1.000000
tan -0.650257 0.682063 -0.325129 1.000000
tan -0.710893 0.664269 -0.107198 1.000000
tan -0.713001 0.683427 -0.136896 1.000000
tan -0.724409 0.685039 -0.000000 1.000000
tan -0.724409 0.679025 0.011408 1.000000
tan -0.707297 0.671585 0.165416 1.000000
tan -0.248249 0.674995 0.671399 1.000000
tan -0.313721 0.680141 0.655961 1.000000
tan -0.028520 0.689069 0.724409 1.000000
tan 0.000000 0.685039 0.724409 1.000000
tan 0.136896 0.665509 0.713001 1.000000
tan 0.136896 0.683427 0.713001 1.000000
tan 0.342241 0.683241 0.638849 1.000000
tan 0.707297 0.671585 0.165416 1.000000
tan 0.707297 0.653605 0.148304 1.000000
tan 0.724409 0.684543 0.039928 1.000000
tan 0.724409 0.685597 0.045632 1.000000
tan -0.472441 -0.045880 -0.881890 1.000000
tan -0.181102 0.047926 -0.984252 1.000000
tan -0.157480 -0.039990 -0.984252 1.000000
tan -0.440945 0.066836 -0.897638 1.000000
tan -0.811024 0.050282 -0.582677 1.000000
tan -0.881890 -0.039122 -0.480315 1.000000
tan -1.000000 0.039370 0.023622 1.000000
tan -0.930250 0.223758 -0.292145 1.000000
tan -0.968504 -0.040114 0.251968 1.000000
tan -0.897638 0.052824 0.440945 1.000000
tan -0.472441 -0.042160 0.881890 1.000000
tan -0.598425 0.039432 0.803149 1.000000
tan -0.165354 0.063302 0.984252 1.000000
tan 0.000000 -0.039370 1.000000 1.000000
tan 0.622047 0.012276 0.779527 1.000000
tan 0.292145 0.223759 0.930250 1.000000
tan 0.456693 -0.042222 0.889764 1.000000
tan 0.897638 -0.042284 0.440945 1.000000
tan 0.992126 0.024614 0.149606 1.000000
tan 0.869862 0.267035 0.400893 1.000000
tan 0.984252 -0.039990 0.157480 1.000000
tan -0.472441 -0.045880 -0.881890 1.000000
tan -0.181102 0.047926 -0.984252 1.000000
tan -0.157480 -0.039990 -0.984252 1.000000
tan -0.472441 0.084816 -0.881890 1.000000
tan -0.905512 0.060140 -0.433071 1.000000
tan -0.881890 -0.039122 -0.480315 1.000000
tan -1.000000 0.039370 0.023622 1.000000
tan -0.968504 -0.040114 0.251968 1.000000
tan -0.803150 0.028272 0.590551 1.000000
tan -0.930250 0.223758 0.292145 1.000000
tan -0.472441 -0.042160 0.881890 1.000000
tan -0.456693 0.077438 0.889764 1.000000
tan 0.149606 0.071486 0.992126 1.000000
tan 0.000000 -0.039370 1.000000 1.000000
tan 0.622047 0.017298 0.787401 1.000000
tan 0.456693 -0.042222 0.889764 1.000000
tan 0.897638 -0.042284 0.440945 1.000000
tan 0.992126 0.040176 0.141732 1.000000
tan 0.862298 0.270259 0.416021 1.000000
tan 0.984252 -0.039990 0.157480 1.000000
tan 0.149606 -0.040238 0.992126 1.000000
tan 0.181102 0.047926 0.984252 1.000000
tan 0.472441 -0.038936 0.881890 1.000000
tan 0.456693 0.056420 0.889764 1.000000
tan 0.984252 0.046500 0.157480 1.000000
tan 0.791866 0.224874 0.568913 1.000000
tan 0.889764 -0.035216 0.456693 1.000000
tan 0.976378 -0.040176 -0.220472 1.000000
tan 0.960630 0.017422 -0.291339 1.000000
tan 0.590551 -0.039494 -0.811023 1.000000
tan 0.464567 0.042036 -0.881890 1.000000
tan 0.791866 0.224874 -0.568913 1.000000
tan -0.039370 -0.039370 -1.000000 1.000000
tan 0.023622 0.031496 -1.000000 1.000000
tan -0.685039 -0.039246 -0.732283 1.000000
tan -0.748031 0.044392 -0.661417 1.000000
tan -0.292145 0.223758 -0.930250 1.000000
tan -0.992126 -0.032302 -0.133858 1.000000
tan -0.984252 0.064852 -0.181102 1.000000
tan 0.149606 -0.040238 0.992126 1.000000
tan 0.181102 0.047926 0.984252 1.000000
tan 0.425197 -0.042346 0.905512 1.000000
tan 0.590551 0.023808 0.811023 1.000000
tan 0.307521 0.227355 0.930250 1.000000
tan 0.874016 -0.039060 0.488189 1.000000
tan 1.000000 0.023622 -0.031496 1.000000
tan 0.862298 0.266849 0.416021 1.000000
tan 0.968504 -0.040176 -0.259842 1.000000
tan 0.952756 0.024862 -0.299213 1.000000
tan 0.503937 -0.038936 -0.858268 1.000000
tan 0.464567 0.042036 -0.881890 1.000000
tan 0.791866 0.224874 -0.568913 1.000000
tan -0.291339 -0.032550 -0.960630 1.000000
tan 0.023622 0.031496 -1.000000 1.000000
tan -0.803150 0.023622 -0.590551 1.000000
tan -0.385765 0.274412 -0.877426 1.000000
tan -0.905512 -0.042470 -0.433071 1.000000
tan -0.984252 0.047926 -0.181102 1.000000
tan -0.930250 0.227354 -0.307521 1.000000
tan -0.992126 -0.040238 -0.149606 1.000000
f 3/3/3 2/2/2 1/1/1
f 6/6/6 5/5/5 4/4/4
f 9/9/9 8/8/8 7/7/7
f 12/12/12 11/11/11 10/10/10
f 14/14/14 13/13/13 10/10/10
f 15/15/15 10/10/10 13/13/13
f 15/15/15 13/13/13 16/16/16
f 15/15/15 16/16/16 17/17/17
f 18/18/18 17/17/17 16/16/16
f 16/16/16 13/13/13 19/19/19
f 20/20/20 19/19/19 13/13/13
f 19/19/19 20/20/20 21/21/21
f 20/20/20 22/22/22 21/21/21
f 23/23/23 21/21/21 22/22/22
f 24/24/24 19/19/19 21/21/21
f 25/25/25 24/24/24 21/21/21
f 24/24/24 25/25/25 26/26/26
f 27/27/27 24/24/24 26/26/26
f 25/25/25 28/28/28 26/26/26
f 29/29/29 26/26/26 28/28/28
f 27/27/27 26/26/26 30/30/30
f 31/31/31 30/30/30 26/26/26
f 30/30/30 31/31/31 32/32/32
f 31/31/31 33/33/33 32/32/32
f 34/34/34 32/32/32 33/33/33
f 35/35/35 30/30/30 32/32/32
f 36/36/36 35/35/35 32/32/32
f 37/37/37 35/35/35 36/36/36
f 37/37/37 38/38/38 35/35/35
f 36/36/36 39/39/39 37/37/37
f 40/40/40 37/37/37 39/39/39
f 38/38/38 37/37/37 41/41/41
f 42/42/42 41/41/41 37/37/37
f 43/43/43 41/41/41 42/42/42
f 42/42/42 44/44/44 43/43/43
f 45/45/45 43/43/43 44/44/44
f 41/41/41 43/43/43 46/46/46
f 47/47/47 46/46/46 43/43/43
f 49/49/49 46/46/46 48/48/48
f 50/50/50 48/48/48 46/46/46
f 47/47/47 50/50/50 46/46/46
f 47/47/47 51/51/51 50/50/50
f 52/52/52 50/50/50 51/51/51
f 55/55/55 54/54/54 53/53/53
f 56/56/56 53/53/53 54/54/54
f 59/59/59 58/58/58 57/57/57
f 60/60/60 58/58/58 59/59/59
f 63/63/63 62/62/62 61/61/61
f 64/64/64 62/62/62 63/63/63
f 67/67/67 66/66/66 65/65/65
f 68/68/68 66/66/66 67/67/67
f 71/71/71 70/70/70 69/69/69
f 72/72/72 69/69/69 70/70/70
f 75/75/75 74/74/74 73/73/73
f 76/76/76 73/73/73 74/74/74
f 79/79/79 78/78/78 77/77/77
f 80/80/80 78/78/78 79/79/79
f 83/83/83 82/82/82 81/81/81
f 82/82/82 83/83/83 84/84/84
f 87/87/87 86/86/86 85/85/85
f 88/88/88 85/85/85 86/86/86
f 86/86/86 89/89/89 88/88/88
f 88/88/88 89/89/89 90/90/90
f 91/91/91 90/90/90 89/89/89
f 91/91/91 92/92/92 90/90/90
f 92/92/92 91/91/91 93/93/93
f 94/94/94 92/92/92 93/93/93
f 93/93/93 95/95/95 94/94/94
f 96/96/96 94/94/94 95/95/95
f 95/95/95 97/97/97 96/96/96
f 96/96/96 97/97/97 98/98/98
f 97/97/97 99/99/99 98/98/98
f 98/98/98 99/99/99 100/100/100
f 101/101/101 100/100/100 99/99/99
f 102/102/102 100/100/100 101/101/101
f 102/102/102 101/101/101 103/103/103
f 104/104/104 102/102/102 103/103/103
f 104/104/104 103/103/103 105/105/105
f 106/106/106 105/105/105 103/103/103
f 109/109/109 108/108/108 107/107/107
f 108/108/108 109/109/109 110/110/110
f 110/110/110 111/111/111 108/108/108
f 110/110/110 112/112/112 111/111/111
f 113/113/113 112/112/112 110/110/110
f 116/116/116 115/115/115 114/114/114
f 117/117/117 114/114/114 115/115/115
f 118/118/118 114/114/114 117/117/117
f 120/120/120 118/118/118 119/119/119
f 121/121/121 119/119/119 118/118/118
f 119/119/119 123/123/123 122/122/122
f 124/124/124 122/122/122 123/123/123
f 126/126/126 125/125/125 123/123/123
f 123/123/123 125/125/125 127/127/127
f 129/129/129 125/125/125 128/128/128
f 129/129/129 130/130/130 125/125/125
f 132/132/132 130/130/130 131/131/131
f 133/133/133 131/131/131 130/130/130
f 135/135/135 134/134/134 131/131/131
f 135/135/135 136/136/136 134/134/134
f 135/135/135 138/138/138 137/137/137
f 138/138/138 135/135/135 139/139/139
f 141/141/141 140/140/140 138/138/138
f 138/138/138 140/140/140 142/142/142
f 144/144/144 142/142/142 143/143/143
f 145/145/145 143/143/143 142/142/142
f 143/143/143 147/147/147 146/146/146
f 148/148/148 146/146/146 147/147/147
f 150/150/150 147/147/147 149/149/149
f 147/147/147 150/150/150 151/151/151
f 153/153/153 152/152/152 150/150/150
f 154/154/154 150/150/150 152/152/152
f 156/156/156 154/154/154 155/155/155
f 157/157/157 155/155/155 154/154/154
f 155/155/155 159/159/159 158/158/158
f 160/160/160 158/158/158 159/159/159
f 162/162/162 159/159/159 161/161/161
f 161/161/161 159/159/159 163/163/163
f 165/165/165 164/164/164 161/161/161
f 164/164/164 166/166/166 161/161/161
f 168/168/168 167/167/167 166/166/166
f 169/169/169 166/166/166 167/167/167
f 171/171/171 167/167/167 170/170/170
f 172/172/172 170/170/170 167/167/167
f 174/174/174 172/172/172 173/173/173
f 173/173/173 172/172/172 175/175/175
f 177/177/177 173/173/173 176/176/176
f 173/173/173 177/177/177 178/178/178
f 180/180/180 179/179/179 178/178/178
f 181/181/181 178/178/178 179/179/179
f 179/179/179 183/183/183 182/182/182
f 182/182/182 183/183/183 184/184/184
f 186/186/186 183/183/183 185/185/185
f 187/187/187 183/183/183 186/186/186
f 189/189/189 188/188/188 186/186/186
f 190/190/190 186/186/186 188/188/188
f 192/192/192 190/190/190 191/191/191
f 193/193/193 191/191/191 190/190/190
f 195/195/195 191/191/191 194/194/194
f 196/196/196 194/194/194 191/191/191
f 198/198/198 196/196/196 197/197/197
f 199/199/199 197/197/197 196/196/196
f 202/202/202 201/201/201 200/200/200
f 203/203/203 200/200/200 201/201/201
f 203/203/203 201/201/201 204/204/204
f 203/203/203 204/204/204 205/205/205
f 203/203/203 206/206/206 200/200/200
f 203/203/203 207/207/207 206/206/206
f 203/203/203 208/208/208 207/207/207
f 208/208/208 209/209/209 207/207/207
f 203/203/203 210/210/210 208/208/208
f 213/213/213 212/212/212 211/211/211
f 211/211/211 214/214/214 213/213/213
f 215/215/215 214/214/214 211/211/211
f 214/214/214 215/215/215 216/216/216
f 217/217/217 216/216/216 215/215/215
f 216/216/216 217/217/217 218/218/218
f 219/219/219 218/218/218 217/217/217
f 220/220/220 218/218/218 219/219/219
f 221/221/221 220/220/220 219/219/219
f 222/222/222 220/220/220 221/221/221
f 223/223/223 222/222/222 221/221/221
f 224/224/224 222/222/222 223/223/223
f 223/223/223 225/225/225 224/224/224
f 226/226/226 224/224/224 225/225/225
f 226/226/226 225/225/225 227/227/227
f 228/228/228 226/226/226 227/227/227
f 227/227/227 229/229/229 228/228/228
f 228/228/228 229/229/229 230/230/230
f 230/230/230 229/229/229 231/231/231
f 231/231/231 232/232/232 230/230/230
f 232/232/232 231/231/231 233/233/233
f 233/233/233 234/234/234 232/232/232
f 234/234/234 233/233/233 235/235/235
f 236/236/236 235/235/235 233/233/233
f 239/239/239 238/238/238 237/237/237
f 240/240/240 239/239/239 237/237/237
f 241/241/241 239/239/239 240/240/240
f 240/240/240 242/242/242 241/241/241
f 242/242/242 240/240/240 243/243/243
f 244/244/244 242/242/242 243/243/243
f 244/244/244 243/243/243 245/245/245
f 246/246/246 244/244/244 245/245/245
f 246/246/246 245/245/245 247/247/247
f 248/248/248 247/247/247 245/245/245
f 247/247/247 248/248/248 249/249/249
f 248/248/248 250/250/250 249/249/249
f 249/249/249 250/250/250 251/251/251
f 250/250/250 252/252/252 251/251/251
f 253/253/253 251/251/251 252/252/252
f 252/252/252 254/254/254 253/253/253
f 255/255/255 253/253/253 254/254/254
f 258/258/258 257/257/257 256/256/256
f 256/256/256 257/257/257 259/259/259
f 256/256/256 259/259/259 260/260/260
f 260/260/260 259/259/259 261/261/261
f 262/262/262 261/261/261 259/259/259
f 262/262/262 263/263/263 261/261/261
f 263/263/263 264/264/264 261/261/261
f 263/263/263 265/265/265 264/264/264
f 266/266/266 264/264/264 265/265/265
f 265/265/265 267/267/267 266/266/266
f 268/268/268 266/266/266 267/267/267
f 268/268/268 267/267/267 269/269/269
f 270/270/270 269/269/269 267/267/267
f 269/269/269 270/270/270 271/271/271
f 270/270/270 272/272/272 271/271/271
f 273/273/273 271/271/271 272/272/272
f 272/272/272 274/274/274 273/273/273
f 274/274/274 272/272/272 275/275/275
f 276/276/276 274/274/274 275/275/275
f 275/275/275 277/277/277 276/276/276
f 278/278/278 276/276/276 277/277/277
f 281/281/281 280/280/280 279/279/279
f 279/279/279 282/282/282 281/281/281
f 283/283/283 282/282/282 279/279/279
f 283/283/283 284/284/284 282/282/282
f 285/285/285 282/282/282 284/284/284
f 285/285/285 284/284/284 286/286/286
f 287/287/287 285/285/285 286/286/286
f 286/286/286 288/288/288 287/287/287
f 288/288/288 286/286/286 289/289/289
f 289/289/289 290/290/290 288/288/288
f 290/290/290 291/291/291 288/288/288
f 292/292/292 288/288/288 291/291/291
f 292/292/292 291/291/291 293/293/293
f 293/293/293 294/294/294 292/292/292
f 295/295/295 292/292/292 294/294/294
f 294/294/294 296/296/296 295/295/295
f 296/296/296 294/294/294 297/297/297
f 300/300/300 299/299/299 298/298/298
f 301/301/301 298/298/298 299/299/299
f 301/301/301 299/299/299 302/302/302
f 303/303/303 301/301/301 302/302/302
f 304/304/304 303/303/303 302/302/302
f 304/304/304 302/302/302 305/305/305
f 304/304/304 305/305/305 306/306/306
f 307/307/307 304/304/304 306/306/306
f 306/306/306 308/308/308 307/307/307
f 309/309/309 308/308/308 306/306/306
f 309/309/309 310/310/310 308/308/308
f 310/310/310 309/309/309 311/311/311
f 311/311/311 312/312/312 310/310/310
f 311/311/311 313/313/313 312/312/312
f 314/314/314 312/312/312 313/313/313
f 314/314/314 313/313/313 315/315/315
f 316/316/316 315/315/315 313/313/313
f 319/319/319 318/318/318 317/317/317
f 320/320/320 317/317/317 318/318/318
f 320/320/320 318/318/318 321/321/321
f 322/322/322 320/320/320 321/321/321
f 322/322/322 321/321/321 323/323/323
f 324/324/324 322/322/322 323/323/323
f 324/324/324 323/323/323 325/325/325
f 326/326/326 324/324/324 325/325/325
f 327/327/327 326/326/326 325/325/325
f 327/327/327 328/328/328 326/326/326
f 329/329/329 328/328/328 327/327/327
f 329/329/329 330/330/330 328/328/328
f 329/329/329 331/331/331 330/330/330
f 330/330/330 331/331/331 332/332/332
f 332/332/332 331/331/331 333/333/333
f 334/334/334 333/333/333 331/331/331
f 337/337/337 336/336/336 335/335/335
f 336/336/336 337/337/337 338/338/338
f 338/338/338 339/339/339 336/336/336
f 340/340/340 339/339/339 338/338/338
f 341/341/341 339/339/339 340/340/340
f 340/340/340 342/342/342 341/341/341
f 342/342/342 340/340/340 343/343/343
f 344/344/344 342/342/342 343/343/343
f 343/343/343 345/345/345 344/344/344
f 345/345/345 346/346/346 344/344/344
f 347/347/347 346/346/346 345/345/345
f 348/348/348 347/347/347 345/345/345
f 348/348/348 349/349/349 347/347/347
f 350/350/350 347/347/347 349/349/349
f 350/350/350 349/349/349 351/351/351
f 351/351/351 349/349/349 352/352/352
f 352/352/352 349/349/349 353/353/353
f 353/353/353 354/354/354 352/352/352
f 355/355/355 352/352/352 354/354/354
f 358/358/358 357/357/357 356/356/356
f 359/359/359 356/356/356 357/357/357
f 360/360/360 356/356/356 359/359/359
f 361/361/361 356/356/356 360/360/360
f 361/361/361 360/360/360 362/362/362
f 362/362/362 360/360/360 363/363/363
f 361/361/361 362/362/362 364/364/364
f 362/362/362 365/365/365 364/364/364
f 364/364/364 365/365/365 366/366/366
f 367/367/367 366/366/366 365/365/365
f 368/368/368 366/366/366 367/367/367
f 369/369/369 366/366/366 368/368/368
f 369/369/369 368/368/368 370/370/370
f 370/370/370 368/368/368 371/371/371
f 372/372/372 369/369/369 370/370/370
f 372/372/372 370/370/370 373/373/373
f 374/374/374 373/373/373 370/370/370
f 374/374/374 370/370/370 375/375/375
f 373/373/373 374/374/374 376/376/376
f 379/379/379 378/378/378 377/377/377
f 380/380/380 377/377/377 378/378/378
f 381/381/381 377/377/377 380/380/380
f 382/382/382 377/377/377 381/381/381
f 382/382/382 381/381/381 383/383/383
f 382/382/382 383/383/383 384/384/384
f 383/383/383 385/385/385 384/384/384
f 385/385/385 383/383/383 386/386/386
f 384/384/384 385/385/385 387/387/387
f 388/388/388 387/387/387 385/385/385
f 389/389/389 387/387/387 388/388/388
f 390/390/390 387/387/387 389/389/389
f 390/390/390 389/389/389 391/391/391
f 392/392/392 390/390/390 391/391/391
f 392/392/392 391/391/391 393/393/393
f 394/394/394 393/393/393 391/391/391
f 394/394/394 391/391/391 395/395/395
f 393/393/393 394/394/394 396/396/396
f 399/399/399 398/398/398 397/397/397
f 399/399/399 400/400/400 398/398/398
f 400/400/400 399/399/399 401/401/401
f 402/402/402 400/400/400 401/401/401
f 403/403/403 401/401/401 399/399/399
f 403/403/403 404/404/404 401/401/401
f 405/405/405 401/401/401 404/404/404
f 406/406/406 405/405/405 404/404/404
f 406/406/406 407/407/407 405/405/405
f 405/405/405 407/407/407 408/408/408
f 409/409/409 407/407/407 406/406/406
f 407/407/407 409/409/409 410/410/410
f 409/409/409 411/411/411 410/410/410
f 412/412/412 410/410/410 411/411/411
f 410/410/410 412/412/412 413/413/413
f 414/414/414 412/412/412 411/411/411
f 412/412/412 414/414/414 415/415/415
f 418/418/418 417/417/417 416/416/416
f 418/418/418 419/419/419 417/417/417
f 420/420/420 417/417/417 419/419/419
f 421/421/421 419/419/419 418/418/418
f 419/419/419 421/421/421 422/422/422
f 422/422/422 423/423/423 419/419/419
f 421/421/421 424/424/424 422/422/422
f 422/422/422 424/424/424 425/425/425
f 426/426/426 425/425/425 424/424/424
f 426/426/426 427/427/427 425/425/425
f 425/425/425 427/427/427 428/428/428
f 426/426/426 429/429/429 427/427/427
f 427/427/427 429/429/429 430/430/430
f 431/431/431 430/430/430 429/429/429
f 430/430/430 431/431/431 432/432/432
f 429/429/429 433/433/433 431/431/431
f 431/431/431 433/433/433 434/434/434
f 431/431/431 434/434/434 435/435/435
f 436/436/436 434/434/434 433/433/433
