mtllib SM_Mast_Roof@000002909DC0A400.mtl
g SM_Mast_Roof@000002909DC0A400
#Vertices 105
#Indices 480
#Section 0 Offset 0 NumIndices 480 MaterialIndex 0 MI_RoofTile_A_01
v 0.000002 0.000002 15.147113 0.000000 1.000000 0.000000 1.000000
v -4.449204 3.474487 13.693236 0.000000 1.000000 0.000000 1.000000
v 0.000000 3.474487 14.397922 0.000000 1.000000 0.000000 1.000000
v -4.680715 0.000002 14.405761 0.000000 1.000000 0.000000 1.000000
v 0.000000 5.155351 12.594255 0.000000 1.000000 0.000000 1.000000
v -8.462889 3.474487 11.648163 0.000000 1.000000 0.000000 1.000000
v -8.903250 0.000002 12.254271 0.000000 1.000000 0.000000 1.000000
v -3.891841 5.155351 11.977849 0.000000 1.000000 0.000000 1.000000
v 0.000000 6.752971 10.469024 0.000000 1.000000 0.000000 1.000000
v -12.254271 0.000001 8.903247 0.000000 1.000000 0.000000 1.000000
v -3.235108 6.752970 9.956633 0.000000 1.000000 0.000000 1.000000
v 0.000000 8.038301 8.086009 0.000000 1.000000 0.000000 1.000000
v -2.498715 8.038301 7.690250 0.000000 1.000000 0.000000 1.000000
v -7.402719 5.155351 10.188965 0.000000 1.000000 0.000000 1.000000
v -11.648165 3.474487 8.462884 0.000000 1.000000 0.000000 1.000000
v -14.405760 0.000001 4.680712 0.000000 1.000000 0.000000 1.000000
v -6.153540 6.752970 8.469617 0.000000 1.000000 0.000000 1.000000
v -4.752839 8.038301 6.541717 0.000000 1.000000 0.000000 1.000000
v -10.188969 5.155350 7.402716 0.000000 1.000000 0.000000 1.000000
v -13.693238 3.474486 4.449199 0.000000 1.000000 0.000000 1.000000
v -15.147113 0.000000 -0.000003 0.000000 1.000000 0.000000 1.000000
v -8.469620 6.752970 6.153534 0.000000 1.000000 0.000000 1.000000
v -6.541721 8.038301 4.752834 0.000000 1.000000 0.000000 1.000000
v -11.977851 5.155350 3.891836 0.000000 1.000000 0.000000 1.000000
v -9.956635 6.752970 3.235103 0.000000 1.000000 0.000000 1.000000
v -7.690254 8.038301 2.498711 0.000000 1.000000 0.000000 1.000000
v -14.397923 3.474486 -0.000003 0.000000 1.000000 0.000000 1.000000
v -12.594257 5.155349 -0.000003 0.000000 1.000000 0.000000 1.000000
v -10.469025 6.752969 -0.000003 0.000000 1.000000 0.000000 1.000000
v -8.086012 8.038301 -0.000004 0.000000 1.000000 0.000000 1.000000
v -7.690254 8.038301 -2.498718 0.000000 1.000000 0.000000 1.000000
v -9.956635 6.752969 -3.235110 0.000000 1.000000 0.000000 1.000000
v -11.977851 5.155349 -3.891843 0.000000 1.000000 0.000000 1.000000
v -13.693238 3.474485 -4.449205 0.000000 1.000000 0.000000 1.000000
v -14.405760 -0.000000 -4.680717 0.000000 1.000000 0.000000 1.000000
v -10.188969 5.155348 -7.402721 0.000000 1.000000 0.000000 1.000000
v -8.469620 6.752968 -6.153541 0.000000 1.000000 0.000000 1.000000
v -6.541720 8.038300 -4.752841 0.000000 1.000000 0.000000 1.000000
v -4.752838 8.038300 -6.541723 0.000000 1.000000 0.000000 1.000000
v -11.648164 3.474485 -8.462889 0.000000 1.000000 0.000000 1.000000
v -12.254271 -0.000001 -8.903252 0.000000 1.000000 0.000000 1.000000
v -8.903249 -0.000001 -12.254272 0.000000 1.000000 0.000000 1.000000
v -8.462887 3.474484 -11.648166 0.000000 1.000000 0.000000 1.000000
v -4.680713 -0.000001 -14.405761 0.000000 1.000000 0.000000 1.000000
v -7.402719 5.155348 -10.188971 0.000000 1.000000 0.000000 1.000000
v -4.449203 3.474484 -13.693236 0.000000 1.000000 0.000000 1.000000
v 0.000002 -0.000002 -15.147113 0.000000 1.000000 0.000000 1.000000
v -6.153539 6.752968 -8.469622 0.000000 1.000000 0.000000 1.000000
v -3.891840 5.155348 -11.977853 0.000000 1.000000 0.000000 1.000000
v -0.000000 3.474484 -14.397923 0.000000 1.000000 0.000000 1.000000
v -3.235107 6.752968 -9.956636 0.000000 1.000000 0.000000 1.000000
v -2.498715 8.038300 -7.690256 0.000000 1.000000 0.000000 1.000000
v -0.000000 5.155348 -12.594257 0.000000 1.000000 0.000000 1.000000
v -0.000000 6.752968 -10.469027 0.000000 1.000000 0.000000 1.000000
v -0.000000 8.038300 -8.086014 0.000000 1.000000 0.000000 1.000000
v 4.449202 3.474484 -13.693236 0.000000 1.000000 0.000000 1.000000
v 4.680717 -0.000001 -14.405760 0.000000 1.000000 0.000000 1.000000
v 3.235106 6.752968 -9.956636 0.000000 1.000000 0.000000 1.000000
v 2.498714 8.038300 -7.690255 0.000000 1.000000 0.000000 1.000000
v 3.891839 5.155348 -11.977853 0.000000 1.000000 0.000000 1.000000
v 8.462886 3.474484 -11.648164 0.000000 1.000000 0.000000 1.000000
v 8.903251 -0.000001 -12.254272 0.000000 1.000000 0.000000 1.000000
v 7.402717 5.155348 -10.188970 0.000000 1.000000 0.000000 1.000000
v 6.153537 6.752968 -8.469622 0.000000 1.000000 0.000000 1.000000
v 4.752837 8.038300 -6.541722 0.000000 1.000000 0.000000 1.000000
v 6.541719 8.038300 -4.752841 0.000000 1.000000 0.000000 1.000000
v 10.188967 5.155348 -7.402720 0.000000 1.000000 0.000000 1.000000
v 8.469619 6.752968 -6.153541 0.000000 1.000000 0.000000 1.000000
v 7.690252 8.038301 -2.498718 0.000000 1.000000 0.000000 1.000000
v 11.648163 3.474485 -8.462888 0.000000 1.000000 0.000000 1.000000
v 12.254272 -0.000001 -8.903252 0.000000 1.000000 0.000000 1.000000
v 14.405760 -0.000000 -4.680717 0.000000 1.000000 0.000000 1.000000
v 13.693234 3.474485 -4.449204 0.000000 1.000000 0.000000 1.000000
v 15.147113 0.000000 -0.000003 0.000000 1.000000 0.000000 1.000000
v 11.977849 5.155349 -3.891842 0.000000 1.000000 0.000000 1.000000
v 14.397920 3.474486 -0.000003 0.000000 1.000000 0.000000 1.000000
v 9.956633 6.752969 -3.235109 0.000000 1.000000 0.000000 1.000000
v 8.086010 8.038301 -0.000004 0.000000 1.000000 0.000000 1.000000
v 12.594255 5.155349 -0.000003 0.000000 1.000000 0.000000 1.000000
v 10.469023 6.752969 -0.000003 0.000000 1.000000 0.000000 1.000000
v 7.690257 8.038301 2.498712 0.000000 1.000000 0.000000 1.000000
v 9.956639 6.752970 3.235104 0.000000 1.000000 0.000000 1.000000
v 6.541724 8.038301 4.752836 0.000000 1.000000 0.000000 1.000000
v 11.977857 5.155350 3.891837 0.000000 1.000000 0.000000 1.000000
v 13.693244 3.474486 4.449201 0.000000 1.000000 0.000000 1.000000
v 14.405770 0.000001 4.680715 0.000000 1.000000 0.000000 1.000000
v 11.648170 3.474487 8.462887 0.000000 1.000000 0.000000 1.000000
v 12.254281 0.000001 8.903250 0.000000 1.000000 0.000000 1.000000
v 8.903255 0.000002 12.254272 0.000000 1.000000 0.000000 1.000000
v 10.188972 5.155350 7.402718 0.000000 1.000000 0.000000 1.000000
v 8.462890 3.474487 11.648166 0.000000 1.000000 0.000000 1.000000
v 4.680719 0.000002 14.405761 0.000000 1.000000 0.000000 1.000000
v 8.469624 6.752970 6.153537 0.000000 1.000000 0.000000 1.000000
v 7.402722 5.155351 10.188968 0.000000 1.000000 0.000000 1.000000
v 4.449204 3.474487 13.693236 0.000000 1.000000 0.000000 1.000000
v 0.000002 0.000002 15.147113 0.000000 1.000000 0.000000 1.000000
v 0.000000 3.474487 14.397922 0.000000 1.000000 0.000000 1.000000
v 6.153541 6.752970 8.469618 0.000000 1.000000 0.000000 1.000000
v 4.752840 8.038301 6.541718 0.000000 1.000000 0.000000 1.000000
v 3.891841 5.155351 11.977851 0.000000 1.000000 0.000000 1.000000
v 0.000000 5.155351 12.594255 0.000000 1.000000 0.000000 1.000000
v 3.235108 6.752970 9.956634 0.000000 1.000000 0.000000 1.000000
v 2.498716 8.038301 7.690250 0.000000 1.000000 0.000000 1.000000
v 0.000000 6.752971 10.469024 0.000000 1.000000 0.000000 1.000000
v 0.000000 8.038301 8.086009 0.000000 1.000000 0.000000 1.000000
vt -2.330078 0.049805
vt -1.884766 0.428223
vt -2.330078 0.428223
vt -1.884766 0.049805
vt -2.330078 0.729492
vt -1.431641 0.428223
vt -1.431641 0.049805
vt -1.884766 0.729492
vt -2.330078 1.087952
vt -0.964844 0.049805
vt -1.884766 1.087952
vt -2.330078 1.494385
vt -1.884766 1.494385
vt -1.431641 0.729492
vt -0.964844 0.428223
vt -0.488281 0.049805
vt -1.431641 1.087952
vt -1.431641 1.494385
vt -0.964844 0.729492
vt -0.488281 0.428223
vt -0.005226 0.049805
vt -0.964844 1.087952
vt -0.964844 1.494385
vt -0.488281 0.729492
vt -0.488281 1.087952
vt -0.488281 1.494385
vt -0.005226 0.428223
vt -0.005226 0.729492
vt -0.005226 1.087952
vt -0.005226 1.494385
vt 0.478516 1.494385
vt 0.478516 1.087952
vt 0.478516 0.729492
vt 0.478516 0.428223
vt 0.478516 0.049805
vt 0.963867 0.729492
vt 0.963867 1.087952
vt 0.963867 1.494385
vt 1.451172 1.494385
vt 0.963867 0.428223
vt 0.963867 0.049805
vt 1.451172 0.049805
vt 1.451172 0.428223
vt 1.940430 0.049805
vt 1.451172 0.729492
vt 1.940430 0.428223
vt 2.431641 0.049805
vt 1.451172 1.087952
vt 1.940430 0.729492
vt 2.431641 0.428223
vt 1.940430 1.087952
vt 1.940430 1.494385
vt 2.431641 0.729492
vt 2.431641 1.087952
vt 2.431641 1.494385
vt 2.921875 0.428223
vt 2.921875 0.049805
vt 2.921875 1.087952
vt 2.921875 1.494385
vt 2.921875 0.729492
vt 3.412109 0.428223
vt 3.412109 0.049805
vt 3.412109 0.729492
vt 3.412109 1.087952
vt 3.412109 1.494385
vt 3.900391 1.494385
vt 3.900391 0.729492
vt 3.900391 1.087952
vt 4.386719 1.494385
vt 3.900391 0.428223
vt 3.900391 0.049805
vt 4.386719 0.049805
vt 4.386719 0.428223
vt 4.871094 0.049805
vt 4.386719 0.729492
vt 4.871094 0.428223
vt 4.386719 1.087952
vt 4.871094 1.494385
vt 4.871094 0.729492
vt 4.871094 1.087952
vt 5.355469 1.494385
vt 5.355469 1.087952
vt 5.832031 1.494385
vt 5.355469 0.729492
vt 5.355469 0.428223
vt 5.355469 0.049805
vt 5.832031 0.428223
vt 5.832031 0.049805
vt 6.300781 0.049805
vt 5.832031 0.729492
vt 6.300781 0.428223
vt 6.753906 0.049805
vt 5.832031 1.087952
vt 6.300781 0.729492
vt 6.753906 0.428223
vt 7.199219 0.049805
vt 7.199219 0.428223
vt 6.300781 1.087952
vt 6.300781 1.494385
vt 6.753906 0.729492
vt 7.199219 0.729492
vt 6.753906 1.087952
vt 6.753906 1.494385
vt 7.199219 1.087952
vt 7.199219 1.494385
vt1 -2.330078 0.049805
vt1 -1.884766 0.428223
vt1 -2.330078 0.428223
vt1 -1.884766 0.049805
vt1 -2.330078 0.729492
vt1 -1.431641 0.428223
vt1 -1.431641 0.049805
vt1 -1.884766 0.729492
vt1 -2.330078 1.087952
vt1 -0.964844 0.049805
vt1 -1.884766 1.087952
vt1 -2.330078 1.494385
vt1 -1.884766 1.494385
vt1 -1.431641 0.729492
vt1 -0.964844 0.428223
vt1 -0.488281 0.049805
vt1 -1.431641 1.087952
vt1 -1.431641 1.494385
vt1 -0.964844 0.729492
vt1 -0.488281 0.428223
vt1 -0.005226 0.049805
vt1 -0.964844 1.087952
vt1 -0.964844 1.494385
vt1 -0.488281 0.729492
vt1 -0.488281 1.087952
vt1 -0.488281 1.494385
vt1 -0.005226 0.428223
vt1 -0.005226 0.729492
vt1 -0.005226 1.087952
vt1 -0.005226 1.494385
vt1 0.478516 1.494385
vt1 0.478516 1.087952
vt1 0.478516 0.729492
vt1 0.478516 0.428223
vt1 0.478516 0.049805
vt1 0.963867 0.729492
vt1 0.963867 1.087952
vt1 0.963867 1.494385
vt1 1.451172 1.494385
vt1 0.963867 0.428223
vt1 0.963867 0.049805
vt1 1.451172 0.049805
vt1 1.451172 0.428223
vt1 1.940430 0.049805
vt1 1.451172 0.729492
vt1 1.940430 0.428223
vt1 2.431641 0.049805
vt1 1.451172 1.087952
vt1 1.940430 0.729492
vt1 2.431641 0.428223
vt1 1.940430 1.087952
vt1 1.940430 1.494385
vt1 2.431641 0.729492
vt1 2.431641 1.087952
vt1 2.431641 1.494385
vt1 2.921875 0.428223
vt1 2.921875 0.049805
vt1 2.921875 1.087952
vt1 2.921875 1.494385
vt1 2.921875 0.729492
vt1 3.412109 0.428223
vt1 3.412109 0.049805
vt1 3.412109 0.729492
vt1 3.412109 1.087952
vt1 3.412109 1.494385
vt1 3.900391 1.494385
vt1 3.900391 0.729492
vt1 3.900391 1.087952
vt1 4.386719 1.494385
vt1 3.900391 0.428223
vt1 3.900391 0.049805
vt1 4.386719 0.049805
vt1 4.386719 0.428223
vt1 4.871094 0.049805
vt1 4.386719 0.729492
vt1 4.871094 0.428223
vt1 4.386719 1.087952
vt1 4.871094 1.494385
vt1 4.871094 0.729492
vt1 4.871094 1.087952
vt1 5.355469 1.494385
vt1 5.355469 1.087952
vt1 5.832031 1.494385
vt1 5.355469 0.729492
vt1 5.355469 0.428223
vt1 5.355469 0.049805
vt1 5.832031 0.428223
vt1 5.832031 0.049805
vt1 6.300781 0.049805
vt1 5.832031 0.729492
vt1 6.300781 0.428223
vt1 6.753906 0.049805
vt1 5.832031 1.087952
vt1 6.300781 0.729492
vt1 6.753906 0.428223
vt1 7.199219 0.049805
vt1 7.199219 0.428223
vt1 6.300781 1.087952
vt1 6.300781 1.494385
vt1 6.753906 0.729492
vt1 7.199219 0.729492
vt1 6.753906 1.087952
vt1 6.753906 1.494385
vt1 7.199219 1.087952
vt1 7.199219 1.494385
vn 0.000000 0.212599 0.976378
vn -0.283465 0.417323 0.866142
vn 0.000000 0.417323 0.905512
vn -0.299213 0.212599 0.929134
vn 0.000000 0.763779 0.645669
vn -0.535433 0.417323 0.732283
vn -0.574803 0.212598 0.787401
vn -0.196850 0.763779 0.614173
vn 0.000000 0.834646 0.551181
vn -0.787402 0.212598 0.574803
vn -0.173228 0.834646 0.527559
vn 0.000000 0.881890 0.472441
vn -0.149606 0.881890 0.448819
vn -0.377953 0.763779 0.519685
vn -0.732283 0.417323 0.535433
vn -0.929134 0.212598 0.299213
vn -0.322835 0.834646 0.448819
vn -0.275591 0.881890 0.385827
vn -0.519685 0.763779 0.377953
vn -0.866142 0.417323 0.283464
vn -0.976378 0.212598 -0.000000
vn -0.448819 0.834646 0.322835
vn -0.385827 0.881890 0.275590
vn -0.614173 0.763779 0.196850
vn -0.527559 0.834646 0.173228
vn -0.448819 0.881890 0.149606
vn -0.905512 0.417323 -0.000000
vn -0.645669 0.763779 -0.000000
vn -0.551181 0.834646 -0.000000
vn -0.472441 0.881890 -0.000000
vn -0.448819 0.881890 -0.149606
vn -0.527559 0.834646 -0.173228
vn -0.614173 0.763779 -0.196850
vn -0.866142 0.417323 -0.283465
vn -0.929134 0.212598 -0.299213
vn -0.519685 0.763779 -0.377953
vn -0.448819 0.834646 -0.322835
vn -0.385827 0.881890 -0.275591
vn -0.275591 0.881890 -0.385827
vn -0.732283 0.417323 -0.535433
vn -0.787402 0.212598 -0.574803
vn -0.574803 0.212598 -0.787401
vn -0.535433 0.417323 -0.732283
vn -0.299213 0.212598 -0.929134
vn -0.377953 0.763779 -0.519685
vn -0.283465 0.417323 -0.866142
vn 0.000000 0.212598 -0.976378
vn -0.322835 0.834646 -0.448819
vn -0.196850 0.763779 -0.614173
vn 0.000000 0.417323 -0.905512
vn -0.173228 0.834646 -0.527559
vn -0.149606 0.881890 -0.448819
vn 0.000000 0.763779 -0.645669
vn 0.000000 0.834646 -0.551181
vn 0.000000 0.881890 -0.472441
vn 0.283465 0.417323 -0.866142
vn 0.299213 0.212598 -0.929134
vn 0.173228 0.834646 -0.527559
vn 0.149606 0.881890 -0.448819
vn 0.196850 0.763779 -0.614173
vn 0.535433 0.417323 -0.732283
vn 0.574803 0.212598 -0.787401
vn 0.377953 0.763779 -0.519685
vn 0.322835 0.834646 -0.448819
vn 0.275591 0.881890 -0.385827
vn 0.385827 0.881890 -0.275591
vn 0.519685 0.763779 -0.377953
vn 0.448819 0.834646 -0.322835
vn 0.448819 0.881890 -0.149606
vn 0.732283 0.417323 -0.535433
vn 0.787402 0.212598 -0.574803
vn 0.929134 0.212598 -0.299213
vn 0.866142 0.417323 -0.283465
vn 0.976378 0.212598 -0.000000
vn 0.614173 0.763779 -0.196850
vn 0.905512 0.417323 -0.000000
vn 0.527559 0.834646 -0.173228
vn 0.472441 0.881890 -0.000000
vn 0.645669 0.763779 -0.000000
vn 0.551181 0.834646 -0.000000
vn 0.448819 0.881890 0.149606
vn 0.527559 0.834646 0.173228
vn 0.385827 0.881890 0.275590
vn 0.614173 0.763779 0.196850
vn 0.866142 0.417323 0.283464
vn 0.929134 0.212598 0.299213
vn 0.732283 0.417323 0.535433
vn 0.787402 0.212598 0.574803
vn 0.574803 0.212598 0.787401
vn 0.519685 0.763779 0.377953
vn 0.535433 0.417323 0.732283
vn 0.299213 0.212599 0.929134
vn 0.448819 0.834646 0.322835
vn 0.377953 0.763779 0.519685
vn 0.283465 0.417323 0.866142
vn 0.000000 0.212599 0.976378
vn 0.000000 0.417323 0.905512
vn 0.322835 0.834646 0.448819
vn 0.275591 0.881890 0.385827
vn 0.196850 0.763779 0.614173
vn 0.000000 0.763779 0.645669
vn 0.173228 0.834646 0.527559
vn 0.149606 0.881890 0.448819
vn 0.000000 0.834646 0.551181
vn 0.000000 0.881890 0.472441
tan -0.032426 -0.976378 0.212599 1.000000
tan -0.128154 -0.912270 0.397607 1.000000
tan -0.070184 -0.905512 0.417323 1.000000
tan -0.065286 -0.977122 0.202555 1.000000
tan -0.123008 -0.640585 0.757765 1.000000
tan -0.246450 -0.910100 0.338459 1.000000
tan -0.125550 -0.978052 0.172422 1.000000
tan -0.234546 -0.645607 0.727695 1.000000
tan -0.131068 -0.546841 0.828074 1.000000
tan -0.172422 -0.978052 0.125550 1.000000
tan -0.256309 -0.555831 0.795214 1.000000
tan -0.133920 -0.468721 0.874946 1.000000
tan -0.270817 -0.473557 0.840226 1.000000
tan -0.451051 -0.644677 0.619443 1.000000
tan -0.338459 -0.910100 0.246451 1.000000
tan -0.202554 -0.977122 0.065286 1.000000
tan -0.492901 -0.554653 0.676917 1.000000
tan -0.520801 -0.475665 0.715233 1.000000
tan -0.619443 -0.644677 0.451051 1.000000
tan -0.397607 -0.912270 0.128154 1.000000
tan -0.212598 -0.976378 0.000000 1.000000
tan -0.676917 -0.554653 0.492901 1.000000
tan -0.715233 -0.475665 0.520801 1.000000
tan -0.727695 -0.645607 0.234547 1.000000
tan -0.795214 -0.555831 0.256309 1.000000
tan -0.840226 -0.473557 0.270817 1.000000
tan -0.417323 -0.905512 0.000000 1.000000
tan -0.763780 -0.645669 0.000000 1.000000
tan -0.834646 -0.551181 0.000000 1.000000
tan -0.881890 -0.472441 0.000000 1.000000
tan -0.840226 -0.473557 -0.270816 1.000000
tan -0.795214 -0.555831 -0.256308 1.000000
tan -0.727695 -0.645607 -0.234546 1.000000
tan -0.397607 -0.912270 -0.128154 1.000000
tan -0.202554 -0.977122 -0.065286 1.000000
tan -0.619443 -0.644677 -0.451051 1.000000
tan -0.676917 -0.554653 -0.492901 1.000000
tan -0.715233 -0.475665 -0.520801 1.000000
tan -0.520801 -0.475665 -0.715233 1.000000
tan -0.338459 -0.910100 -0.246450 1.000000
tan -0.172422 -0.978052 -0.125550 1.000000
tan -0.125550 -0.978052 -0.172422 1.000000
tan -0.246450 -0.910100 -0.338459 1.000000
tan -0.065286 -0.977122 -0.202554 1.000000
tan -0.451051 -0.644677 -0.619443 1.000000
tan -0.128154 -0.912270 -0.397607 1.000000
tan 0.000000 -0.976378 -0.212598 1.000000
tan -0.492901 -0.554653 -0.676917 1.000000
tan -0.234546 -0.645607 -0.727695 1.000000
tan 0.000000 -0.905512 -0.417323 1.000000
tan -0.256309 -0.555831 -0.795213 1.000000
tan -0.270817 -0.473557 -0.840226 1.000000
tan 0.000000 -0.645669 -0.763779 1.000000
tan 0.000000 -0.551181 -0.834646 1.000000
tan 0.000000 -0.472441 -0.881890 1.000000
tan 0.128154 -0.912270 -0.397607 1.000000
tan 0.065286 -0.977122 -0.202554 1.000000
tan 0.256309 -0.555831 -0.795213 1.000000
tan 0.270817 -0.473557 -0.840226 1.000000
tan 0.234546 -0.645607 -0.727695 1.000000
tan 0.246450 -0.910100 -0.338459 1.000000
tan 0.125550 -0.978052 -0.172422 1.000000
tan 0.451051 -0.644677 -0.619443 1.000000
tan 0.492901 -0.554653 -0.676917 1.000000
tan 0.520801 -0.475665 -0.715233 1.000000
tan 0.715233 -0.475665 -0.520801 1.000000
tan 0.619443 -0.644677 -0.451051 1.000000
tan 0.676917 -0.554653 -0.492901 1.000000
tan 0.840226 -0.473557 -0.270816 1.000000
tan 0.338459 -0.910100 -0.246450 1.000000
tan 0.172422 -0.978052 -0.125550 1.000000
tan 0.202554 -0.977122 -0.065286 1.000000
tan 0.397607 -0.912270 -0.128154 1.000000
tan 0.212598 -0.976378 0.000000 1.000000
tan 0.727695 -0.645607 -0.234546 1.000000
tan 0.417323 -0.905512 0.000000 1.000000
tan 0.795214 -0.555831 -0.256308 1.000000
tan 0.881890 -0.472441 0.000000 1.000000
tan 0.763780 -0.645669 0.000000 1.000000
tan 0.834646 -0.551181 0.000000 1.000000
tan 0.840226 -0.473557 0.270817 1.000000
tan 0.795214 -0.555831 0.256309 1.000000
tan 0.715233 -0.475665 0.520801 1.000000
tan 0.727695 -0.645607 0.234547 1.000000
tan 0.397607 -0.912270 0.128154 1.000000
tan 0.202554 -0.977122 0.065286 1.000000
tan 0.338459 -0.910100 0.246451 1.000000
tan 0.172422 -0.978052 0.125550 1.000000
tan 0.125550 -0.978052 0.172422 1.000000
tan 0.619443 -0.644677 0.451051 1.000000
tan 0.246450 -0.910100 0.338459 1.000000
tan 0.065286 -0.977122 0.202555 1.000000
tan 0.676917 -0.554653 0.492901 1.000000
tan 0.451051 -0.644677 0.619443 1.000000
tan 0.128154 -0.912270 0.397607 1.000000
tan 0.032426 -0.976378 0.212599 1.000000
tan 0.070184 -0.905512 0.417323 1.000000
tan 0.492901 -0.554653 0.676917 1.000000
tan 0.520801 -0.475665 0.715233 1.000000
tan 0.234546 -0.645607 0.727695 1.000000
tan 0.123008 -0.640585 0.757765 1.000000
tan 0.256309 -0.555831 0.795214 1.000000
tan 0.270817 -0.473557 0.840226 1.000000
tan 0.131068 -0.546841 0.828074 1.000000
tan 0.133920 -0.468721 0.874946 1.000000
f 3/3/3 2/2/2 1/1/1
f 1/1/1 2/2/2 4/4/4
f 3/3/3 5/5/5 2/2/2
f 2/2/2 6/6/6 4/4/4
f 4/4/4 6/6/6 7/7/7
f 8/8/8 2/2/2 5/5/5
f 2/2/2 8/8/8 6/6/6
f 5/5/5 9/9/9 8/8/8
f 7/7/7 6/6/6 10/10/10
f 11/11/11 8/8/8 9/9/9
f 9/9/9 12/12/12 11/11/11
f 13/13/13 11/11/11 12/12/12
f 14/14/14 6/6/6 8/8/8
f 8/8/8 11/11/11 14/14/14
f 15/15/15 10/10/10 6/6/6
f 6/6/6 14/14/14 15/15/15
f 10/10/10 15/15/15 16/16/16
f 11/11/11 13/13/13 17/17/17
f 17/17/17 14/14/14 11/11/11
f 18/18/18 17/17/17 13/13/13
f 19/19/19 15/15/15 14/14/14
f 14/14/14 17/17/17 19/19/19
f 20/20/20 16/16/16 15/15/15
f 15/15/15 19/19/19 20/20/20
f 16/16/16 20/20/20 21/21/21
f 17/17/17 18/18/18 22/22/22
f 22/22/22 19/19/19 17/17/17
f 23/23/23 22/22/22 18/18/18
f 24/24/24 20/20/20 19/19/19
f 19/19/19 22/22/22 24/24/24
f 22/22/22 23/23/23 25/25/25
f 25/25/25 24/24/24 22/22/22
f 26/26/26 25/25/25 23/23/23
f 20/20/20 24/24/24 27/27/27
f 27/27/27 21/21/21 20/20/20
f 24/24/24 25/25/25 28/28/28
f 28/28/28 27/27/27 24/24/24
f 25/25/25 26/26/26 29/29/29
f 29/29/29 28/28/28 25/25/25
f 30/30/30 29/29/29 26/26/26
f 30/30/30 31/31/31 29/29/29
f 29/29/29 32/32/32 28/28/28
f 32/32/32 29/29/29 31/31/31
f 28/28/28 33/33/33 27/27/27
f 33/33/33 28/28/28 32/32/32
f 27/27/27 34/34/34 21/21/21
f 34/34/34 27/27/27 33/33/33
f 35/35/35 21/21/21 34/34/34
f 33/33/33 32/32/32 36/36/36
f 33/33/33 36/36/36 34/34/34
f 32/32/32 31/31/31 37/37/37
f 37/37/37 36/36/36 32/32/32
f 38/38/38 37/37/37 31/31/31
f 37/37/37 38/38/38 39/39/39
f 34/34/34 40/40/40 35/35/35
f 40/40/40 34/34/34 36/36/36
f 41/41/41 35/35/35 40/40/40
f 41/41/41 40/40/40 42/42/42
f 43/43/43 42/42/42 40/40/40
f 40/40/40 36/36/36 43/43/43
f 42/42/42 43/43/43 44/44/44
f 45/45/45 43/43/43 36/36/36
f 36/36/36 37/37/37 45/45/45
f 46/46/46 44/44/44 43/43/43
f 43/43/43 45/45/45 46/46/46
f 44/44/44 46/46/46 47/47/47
f 48/48/48 45/45/45 37/37/37
f 39/39/39 48/48/48 37/37/37
f 49/49/49 46/46/46 45/45/45
f 45/45/45 48/48/48 49/49/49
f 50/50/50 47/47/47 46/46/46
f 46/46/46 49/49/49 50/50/50
f 48/48/48 39/39/39 51/51/51
f 51/51/51 49/49/49 48/48/48
f 52/52/52 51/51/51 39/39/39
f 53/53/53 50/50/50 49/49/49
f 49/49/49 51/51/51 53/53/53
f 51/51/51 52/52/52 54/54/54
f 54/54/54 53/53/53 51/51/51
f 55/55/55 54/54/54 52/52/52
f 47/47/47 50/50/50 56/56/56
f 50/50/50 53/53/53 56/56/56
f 57/57/57 47/47/47 56/56/56
f 54/54/54 55/55/55 58/58/58
f 54/54/54 58/58/58 53/53/53
f 59/59/59 58/58/58 55/55/55
f 60/60/60 56/56/56 53/53/53
f 60/60/60 53/53/53 58/58/58
f 57/57/57 56/56/56 61/61/61
f 62/62/62 57/57/57 61/61/61
f 60/60/60 63/63/63 56/56/56
f 60/60/60 58/58/58 63/63/63
f 61/61/61 56/56/56 63/63/63
f 58/58/58 59/59/59 64/64/64
f 64/64/64 63/63/63 58/58/58
f 65/65/65 64/64/64 59/59/59
f 65/65/65 66/66/66 64/64/64
f 63/63/63 67/67/67 61/61/61
f 63/63/63 64/64/64 67/67/67
f 68/68/68 64/64/64 66/66/66
f 68/68/68 67/67/67 64/64/64
f 68/68/68 66/66/66 69/69/69
f 70/70/70 61/61/61 67/67/67
f 62/62/62 61/61/61 70/70/70
f 70/70/70 71/71/71 62/62/62
f 71/71/71 70/70/70 72/72/72
f 73/73/73 72/72/72 70/70/70
f 70/70/70 67/67/67 73/73/73
f 72/72/72 73/73/73 74/74/74
f 75/75/75 73/73/73 67/67/67
f 67/67/67 68/68/68 75/75/75
f 76/76/76 74/74/74 73/73/73
f 73/73/73 75/75/75 76/76/76
f 69/69/69 77/77/77 68/68/68
f 77/77/77 75/75/75 68/68/68
f 77/77/77 69/69/69 78/78/78
f 75/75/75 77/77/77 79/79/79
f 79/79/79 76/76/76 75/75/75
f 78/78/78 80/80/80 77/77/77
f 80/80/80 79/79/79 77/77/77
f 78/78/78 81/81/81 80/80/80
f 81/81/81 82/82/82 80/80/80
f 80/80/80 82/82/82 79/79/79
f 81/81/81 83/83/83 82/82/82
f 79/79/79 84/84/84 76/76/76
f 82/82/82 84/84/84 79/79/79
f 85/85/85 74/74/74 76/76/76
f 84/84/84 85/85/85 76/76/76
f 85/85/85 86/86/86 74/74/74
f 87/87/87 86/86/86 85/85/85
f 85/85/85 84/84/84 87/87/87
f 87/87/87 88/88/88 86/86/86
f 88/88/88 87/87/87 89/89/89
f 90/90/90 87/87/87 84/84/84
f 84/84/84 82/82/82 90/90/90
f 91/91/91 89/89/89 87/87/87
f 87/87/87 90/90/90 91/91/91
f 89/89/89 91/91/91 92/92/92
f 93/93/93 90/90/90 82/82/82
f 82/82/82 83/83/83 93/93/93
f 94/94/94 91/91/91 90/90/90
f 90/90/90 93/93/93 94/94/94
f 95/95/95 92/92/92 91/91/91
f 91/91/91 94/94/94 95/95/95
f 92/92/92 95/95/95 96/96/96
f 97/97/97 96/96/96 95/95/95
f 93/93/93 83/83/83 98/98/98
f 98/98/98 94/94/94 93/93/93
f 99/99/99 98/98/98 83/83/83
f 100/100/100 95/95/95 94/94/94
f 95/95/95 100/100/100 97/97/97
f 94/94/94 98/98/98 100/100/100
f 101/101/101 97/97/97 100/100/100
f 98/98/98 99/99/99 102/102/102
f 102/102/102 100/100/100 98/98/98
f 100/100/100 102/102/102 101/101/101
f 103/103/103 102/102/102 99/99/99
f 104/104/104 101/101/101 102/102/102
f 103/103/103 105/105/105 102/102/102
f 104/104/104 102/102/102 105/105/105
