mtllib SM_Mansion_Tower_Base@000002909DC43200.mtl
g SM_Mansion_Tower_Base@000002909DC43200
#Vertices 214
#Indices 396
#Section 0 Offset 0 NumIndices 6 MaterialIndex 0 MI_FloorTile_A_01
#Section 1 Offset 6 NumIndices 126 MaterialIndex 1 MI_ConcreteTile_01
#Section 2 Offset 132 NumIndices 24 MaterialIndex 2 MI_BrickTile_A_01
#Section 3 Offset 156 NumIndices 240 MaterialIndex 3 MI_ConcreteTrim_A_01
v -7.034062 0.499999 -6.999997 0.000000 0.000000 1.000000 1.000000
v 7.034065 0.499999 -6.999997 0.000000 0.000000 1.000000 1.000000
v -7.034062 0.500001 7.000001 0.000000 0.000000 1.000000 1.000000
v 7.034065 0.500001 7.000001 0.000000 0.000000 1.000000 1.000000
v 7.034065 1.499999 -6.999997 0.000000 0.000000 1.000000 1.000000
v 8.391685 1.500001 8.368830 0.000000 0.000000 1.000000 1.000000
v 7.034065 1.500001 7.000001 0.000000 0.000000 1.000000 1.000000
v 8.391685 1.499999 -8.368829 0.000000 0.000000 1.000000 1.000000
v 7.034065 1.499999 -6.999997 0.000000 0.000000 1.000000 1.000000
v -8.391683 1.499999 -8.368829 0.000000 0.000000 1.000000 1.000000
v 7.034065 1.499999 -6.999997 0.000000 0.000000 1.000000 1.000000
v -7.034062 1.499999 -6.999997 0.000000 0.000000 1.000000 1.000000
v -8.391683 1.500001 8.368830 0.000000 0.000000 1.000000 1.000000
v -7.034062 1.500001 7.000001 0.000000 0.000000 1.000000 1.000000
v 8.811277 0.377482 -8.811269 0.000000 1.000000 0.000000 1.000000
v 8.811277 0.377484 8.811272 0.000000 1.000000 0.000000 1.000000
v 7.616181 0.377484 7.499999 0.000000 0.129412 0.870588 1.000000
v 8.811277 0.377482 -8.811269 0.000000 1.000000 0.000000 1.000000
v 7.616181 0.377482 -7.499998 0.000000 0.470588 0.529412 1.000000
v -7.616179 0.377482 -7.499998 0.000000 0.000000 1.000000 1.000000
v -8.811277 0.377484 8.811269 0.000000 1.000000 0.000000 1.000000
v -7.616179 0.377482 -7.499998 0.000000 0.000000 1.000000 1.000000
v -7.616179 0.377484 7.499999 0.000000 0.227451 0.772549 1.000000
v -8.811277 0.377482 -8.811270 0.000000 1.000000 0.000000 1.000000
v -7.616179 0.377482 -7.499998 0.000000 0.000000 1.000000 1.000000
v 8.811277 0.377482 -8.811269 0.000000 1.000000 0.000000 1.000000
v 7.034065 1.499999 -6.999997 0.000000 0.000000 1.000000 1.000000
v 7.034065 1.500001 7.000001 0.000000 0.000000 1.000000 1.000000
v 7.034065 0.499999 -6.999997 0.000000 0.000000 1.000000 1.000000
v 7.034065 0.500001 7.000001 0.000000 0.000000 1.000000 1.000000
v -7.034062 1.500001 7.000001 0.000000 0.000000 1.000000 1.000000
v 7.034065 0.500001 7.000001 0.000000 0.000000 1.000000 1.000000
v 7.034065 1.500001 7.000001 0.000000 0.000000 1.000000 1.000000
v -7.034062 0.500001 7.000001 0.000000 0.000000 1.000000 1.000000
v -7.034062 0.499999 -6.999997 0.000000 0.000000 1.000000 1.000000
v -7.034062 1.500001 7.000001 0.000000 0.000000 1.000000 1.000000
v -7.034062 1.499999 -6.999997 0.000000 0.000000 1.000000 1.000000
v -7.034062 0.500001 7.000001 0.000000 0.000000 1.000000 1.000000
v 7.034065 0.499999 -6.999997 0.000000 0.000000 1.000000 1.000000
v -7.034062 0.499999 -6.999997 0.000000 0.000000 1.000000 1.000000
v -7.034062 1.499999 -6.999997 0.000000 0.000000 1.000000 1.000000
v 7.034065 1.499999 -6.999997 0.000000 0.000000 1.000000 1.000000
v -8.391683 1.000003 8.368830 0.000000 0.000000 1.000000 1.000000
v 8.391685 1.000003 8.368830 0.000000 0.000000 1.000000 1.000000
v 7.616181 1.000003 7.499999 0.000000 0.000000 1.000000 1.000000
v -7.616179 1.000003 7.499999 0.000000 0.000000 1.000000 1.000000
v -7.034062 1.500001 7.000001 0.000000 0.000000 1.000000 1.000000
v 7.034065 1.500001 7.000001 0.000000 0.000000 1.000000 1.000000
v 8.391685 1.500001 8.368830 0.000000 0.000000 1.000000 1.000000
v -8.391683 1.500001 8.368830 0.000000 0.000000 1.000000 1.000000
v -7.616179 0.377484 7.499999 0.000000 0.227451 0.772549 1.000000
v 7.616181 0.377484 7.499999 0.000000 0.129412 0.870588 1.000000
v 8.811277 0.377484 8.811272 0.000000 1.000000 0.000000 1.000000
v -8.811277 0.377484 8.811269 0.000000 1.000000 0.000000 1.000000
v -8.391683 1.000001 -8.368829 0.000000 0.000000 1.000000 1.000000
v -8.391683 1.000003 8.368830 0.000000 0.000000 1.000000 1.000000
v -7.616179 1.000003 7.499999 0.000000 0.000000 1.000000 1.000000
v -7.616179 1.000001 -7.499998 0.000000 0.000000 1.000000 1.000000
v 8.391685 1.000001 -8.368829 0.000000 0.000000 1.000000 1.000000
v 7.616181 1.000001 -7.499998 0.000000 0.000000 1.000000 1.000000
v 7.616181 1.000003 7.499999 0.000000 0.000000 1.000000 1.000000
v 8.391685 1.000003 8.368830 0.000000 0.000000 1.000000 1.000000
v -8.811277 0.000001 8.811269 0.000000 1.000000 0.000000 1.000000
v -7.616179 -0.000001 -7.499998 0.000000 0.000000 1.000000 1.000000
v -8.811277 -0.000001 -8.811270 0.000000 1.000000 0.000000 1.000000
v 8.811277 -0.000001 -8.811269 0.000000 1.000000 0.000000 1.000000
v -7.616179 0.000001 7.499999 0.000000 0.227451 0.772549 1.000000
v 8.811277 0.000001 8.811272 0.000000 1.000000 0.000000 1.000000
v 7.616181 -0.000001 -7.499998 0.000000 0.470588 0.529412 1.000000
v 7.616181 0.000001 7.499999 0.000000 0.129412 0.870588 1.000000
v -7.616179 1.000001 -7.499998 0.000000 0.000000 1.000000 1.000000
v -7.616179 0.377484 7.499999 0.000000 0.227451 0.772549 1.000000
v -7.616179 0.377482 -7.499998 0.000000 0.000000 1.000000 1.000000
v -7.616179 1.000003 7.499999 0.000000 0.000000 1.000000 1.000000
v -7.616179 1.000003 7.499999 0.000000 0.000000 1.000000 1.000000
v 7.616181 1.000003 7.499999 0.000000 0.000000 1.000000 1.000000
v -7.616179 0.377484 7.499999 0.000000 0.227451 0.772549 1.000000
v 7.616181 0.377484 7.499999 0.000000 0.129412 0.870588 1.000000
v 7.616181 1.000003 7.499999 0.000000 0.000000 1.000000 1.000000
v 7.616181 1.000001 -7.499998 0.000000 0.000000 1.000000 1.000000
v 7.616181 0.377482 -7.499998 0.000000 0.470588 0.529412 1.000000
v 7.616181 0.377484 7.499999 0.000000 0.129412 0.870588 1.000000
v -7.616179 1.000001 -7.499998 0.000000 0.000000 1.000000 1.000000
v 7.616181 0.377482 -7.499998 0.000000 0.470588 0.529412 1.000000
v 7.616181 1.000001 -7.499998 0.000000 0.000000 1.000000 1.000000
v -7.616179 0.377482 -7.499998 0.000000 0.000000 1.000000 1.000000
v 8.525132 1.055279 8.502277 0.000000 0.000000 1.000000 1.000000
v -8.391683 1.000003 8.368830 0.000000 0.000000 1.000000 1.000000
v -8.525130 1.055279 8.502277 0.000000 0.000000 1.000000 1.000000
v 8.391685 1.000003 8.368830 0.000000 0.000000 1.000000 1.000000
v 8.525132 1.444725 8.502277 0.000000 0.000000 1.000000 1.000000
v -8.525130 1.444725 8.502277 0.000000 0.000000 1.000000 1.000000
v 8.391685 1.500001 8.368830 0.000000 0.000000 1.000000 1.000000
v -8.391683 1.500001 8.368830 0.000000 0.000000 1.000000 1.000000
v 8.525132 1.055277 -8.502276 0.000000 0.000000 1.000000 1.000000
v -8.525130 1.055277 -8.502276 0.000000 0.000000 1.000000 1.000000
v 8.391685 1.000001 -8.368829 0.000000 0.000000 1.000000 1.000000
v -8.391683 1.000001 -8.368829 0.000000 0.000000 1.000000 1.000000
v -8.391683 1.499999 -8.368829 0.000000 0.000000 1.000000 1.000000
v 8.525132 1.444723 -8.502276 0.000000 0.000000 1.000000 1.000000
v 8.391685 1.499999 -8.368829 0.000000 0.000000 1.000000 1.000000
v -8.525130 1.444723 -8.502276 0.000000 0.000000 1.000000 1.000000
v 8.944724 0.322206 -8.944715 0.000000 1.000000 0.000000 1.000000
v 8.811277 0.377484 8.811272 0.000000 1.000000 0.000000 1.000000
v 8.811277 0.377482 -8.811269 0.000000 1.000000 0.000000 1.000000
v 8.944724 0.322208 8.944718 0.000000 1.000000 0.000000 1.000000
v 8.944724 0.055275 -8.944715 0.000000 1.000000 0.000000 1.000000
v 8.811277 0.000001 8.811272 0.000000 1.000000 0.000000 1.000000
v 8.944724 0.055277 8.944718 0.000000 1.000000 0.000000 1.000000
v 8.811277 -0.000001 -8.811269 0.000000 1.000000 0.000000 1.000000
v 8.525132 1.055277 -8.502276 0.000000 0.000000 1.000000 1.000000
v 8.391685 1.000003 8.368830 0.000000 0.000000 1.000000 1.000000
v 8.525132 1.055279 8.502277 0.000000 0.000000 1.000000 1.000000
v 8.391685 1.000001 -8.368829 0.000000 0.000000 1.000000 1.000000
v 8.525132 1.444723 -8.502276 0.000000 0.000000 1.000000 1.000000
v 8.525132 1.444725 8.502277 0.000000 0.000000 1.000000 1.000000
v 8.391685 1.499999 -8.368829 0.000000 0.000000 1.000000 1.000000
v 8.391685 1.500001 8.368830 0.000000 0.000000 1.000000 1.000000
v -8.525130 1.055277 -8.502276 0.000000 0.000000 1.000000 1.000000
v -8.525130 1.055279 8.502277 0.000000 0.000000 1.000000 1.000000
v -8.391683 1.000001 -8.368829 0.000000 0.000000 1.000000 1.000000
v -8.391683 1.000003 8.368830 0.000000 0.000000 1.000000 1.000000
v -8.525130 1.444723 -8.502276 0.000000 0.000000 1.000000 1.000000
v -8.391683 1.500001 8.368830 0.000000 0.000000 1.000000 1.000000
v -8.525130 1.444725 8.502277 0.000000 0.000000 1.000000 1.000000
v -8.391683 1.499999 -8.368829 0.000000 0.000000 1.000000 1.000000
v 8.944724 0.322208 8.944718 0.000000 1.000000 0.000000 1.000000
v -8.811277 0.377484 8.811269 0.000000 1.000000 0.000000 1.000000
v 8.811277 0.377484 8.811272 0.000000 1.000000 0.000000 1.000000
v -8.944724 0.322208 8.944715 0.000000 1.000000 0.000000 1.000000
v 8.811277 0.377482 -8.811269 0.000000 1.000000 0.000000 1.000000
v -8.944724 0.322206 -8.944717 0.000000 1.000000 0.000000 1.000000
v 8.944724 0.322206 -8.944715 0.000000 1.000000 0.000000 1.000000
v -8.811277 0.377482 -8.811270 0.000000 1.000000 0.000000 1.000000
v 8.944724 0.055277 8.944718 0.000000 1.000000 0.000000 1.000000
v -8.811277 0.000001 8.811269 0.000000 1.000000 0.000000 1.000000
v -8.944724 0.055277 8.944715 0.000000 1.000000 0.000000 1.000000
v 8.811277 0.000001 8.811272 0.000000 1.000000 0.000000 1.000000
v 8.944724 0.055275 -8.944715 0.000000 1.000000 0.000000 1.000000
v -8.944724 0.055275 -8.944717 0.000000 1.000000 0.000000 1.000000
v 8.811277 -0.000001 -8.811269 0.000000 1.000000 0.000000 1.000000
v -8.811277 -0.000001 -8.811270 0.000000 1.000000 0.000000 1.000000
v -8.944724 0.055275 -8.944717 0.000000 1.000000 0.000000 1.000000
v -8.944724 0.055277 8.944715 0.000000 1.000000 0.000000 1.000000
v -8.811277 -0.000001 -8.811270 0.000000 1.000000 0.000000 1.000000
v -8.811277 0.000001 8.811269 0.000000 1.000000 0.000000 1.000000
v -8.944724 0.322208 8.944715 0.000000 1.000000 0.000000 1.000000
v -8.811277 0.377482 -8.811270 0.000000 1.000000 0.000000 1.000000
v -8.811277 0.377484 8.811269 0.000000 1.000000 0.000000 1.000000
v -8.944724 0.322206 -8.944717 0.000000 1.000000 0.000000 1.000000
v 8.944724 0.055275 -8.944715 0.000000 1.000000 0.000000 1.000000
v 8.944724 0.055277 8.944718 0.000000 1.000000 0.000000 1.000000
v 9.000000 0.188721 -8.999990 0.000000 1.000000 0.000000 1.000000
v 9.000000 0.188724 8.999994 0.000000 1.000000 0.000000 1.000000
v 9.000000 0.188759 -8.999990 0.000000 1.000000 0.000000 1.000000
v 9.000000 0.188761 8.999994 0.000000 1.000000 0.000000 1.000000
v 8.944724 0.322206 -8.944715 0.000000 1.000000 0.000000 1.000000
v 8.944724 0.322208 8.944718 0.000000 1.000000 0.000000 1.000000
v 8.525132 1.055277 -8.502276 0.000000 0.000000 1.000000 1.000000
v 8.525132 1.055279 8.502277 0.000000 0.000000 1.000000 1.000000
v 8.580407 1.188724 -8.557551 0.000000 0.000000 1.000000 1.000000
v 8.580407 1.188726 8.557552 0.000000 0.000000 1.000000 1.000000
v 8.580407 1.311276 -8.557551 0.000000 0.000000 1.000000 1.000000
v 8.580407 1.311278 8.557552 0.000000 0.000000 1.000000 1.000000
v 8.525132 1.444723 -8.502276 0.000000 0.000000 1.000000 1.000000
v 8.525132 1.444725 8.502277 0.000000 0.000000 1.000000 1.000000
v -8.525130 1.055279 8.502277 0.000000 0.000000 1.000000 1.000000
v 8.580407 1.188726 8.557552 0.000000 0.000000 1.000000 1.000000
v 8.525132 1.055279 8.502277 0.000000 0.000000 1.000000 1.000000
v -8.580405 1.188726 8.557552 0.000000 0.000000 1.000000 1.000000
v -8.580405 1.311278 8.557552 0.000000 0.000000 1.000000 1.000000
v 8.580407 1.311278 8.557552 0.000000 0.000000 1.000000 1.000000
v 8.525132 1.444725 8.502277 0.000000 0.000000 1.000000 1.000000
v -8.525130 1.444725 8.502277 0.000000 0.000000 1.000000 1.000000
v 8.525132 1.055277 -8.502276 0.000000 0.000000 1.000000 1.000000
v -8.580405 1.188724 -8.557551 0.000000 0.000000 1.000000 1.000000
v -8.525130 1.055277 -8.502276 0.000000 0.000000 1.000000 1.000000
v 8.580407 1.188724 -8.557551 0.000000 0.000000 1.000000 1.000000
v 8.580407 1.311276 -8.557551 0.000000 0.000000 1.000000 1.000000
v -8.580405 1.311276 -8.557551 0.000000 0.000000 1.000000 1.000000
v -8.525130 1.444723 -8.502276 0.000000 0.000000 1.000000 1.000000
v 8.525132 1.444723 -8.502276 0.000000 0.000000 1.000000 1.000000
v -8.525130 1.055277 -8.502276 0.000000 0.000000 1.000000 1.000000
v -8.580405 1.188726 8.557552 0.000000 0.000000 1.000000 1.000000
v -8.525130 1.055279 8.502277 0.000000 0.000000 1.000000 1.000000
v -8.580405 1.188724 -8.557551 0.000000 0.000000 1.000000 1.000000
v -8.580405 1.311276 -8.557551 0.000000 0.000000 1.000000 1.000000
v -8.580405 1.311278 8.557552 0.000000 0.000000 1.000000 1.000000
v -8.525130 1.444725 8.502277 0.000000 0.000000 1.000000 1.000000
v -8.525130 1.444723 -8.502276 0.000000 0.000000 1.000000 1.000000
v 8.944724 0.322208 8.944718 0.000000 1.000000 0.000000 1.000000
v -9.000000 0.188761 8.999990 0.000000 1.000000 0.000000 1.000000
v -8.944724 0.322208 8.944715 0.000000 1.000000 0.000000 1.000000
v 9.000000 0.188761 8.999994 0.000000 1.000000 0.000000 1.000000
v 9.000000 0.188724 8.999994 0.000000 1.000000 0.000000 1.000000
v -9.000000 0.188724 8.999990 0.000000 1.000000 0.000000 1.000000
v -8.944724 0.055277 8.944715 0.000000 1.000000 0.000000 1.000000
v 8.944724 0.055277 8.944718 0.000000 1.000000 0.000000 1.000000
v -8.944724 0.322206 -8.944717 0.000000 1.000000 0.000000 1.000000
v 9.000000 0.188759 -8.999990 0.000000 1.000000 0.000000 1.000000
v 8.944724 0.322206 -8.944715 0.000000 1.000000 0.000000 1.000000
v -9.000000 0.188759 -8.999992 0.000000 1.000000 0.000000 1.000000
v -9.000000 0.188721 -8.999992 0.000000 1.000000 0.000000 1.000000
v 9.000000 0.188721 -8.999990 0.000000 1.000000 0.000000 1.000000
v 8.944724 0.055275 -8.944715 0.000000 1.000000 0.000000 1.000000
v -8.944724 0.055275 -8.944717 0.000000 1.000000 0.000000 1.000000
v -8.944724 0.055275 -8.944717 0.000000 1.000000 0.000000 1.000000
v -9.000000 0.188724 8.999990 0.000000 1.000000 0.000000 1.000000
v -8.944724 0.055277 8.944715 0.000000 1.000000 0.000000 1.000000
v -9.000000 0.188721 -8.999992 0.000000 1.000000 0.000000 1.000000
v -9.000000 0.188759 -8.999992 0.000000 1.000000 0.000000 1.000000
v -9.000000 0.188761 8.999990 0.000000 1.000000 0.000000 1.000000
v -8.944724 0.322208 8.944715 0.000000 1.000000 0.000000 1.000000
v -8.944724 0.322206 -8.944717 0.000000 1.000000 0.000000 1.000000
vt 2.068359 -3.273438
vt 2.068359 -1.513672
vt 0.320068 -3.273438
vt 0.320068 -1.513672
vt -1.291016 3.730469
vt -3.121094 3.906250
vt -3.121094 3.730469
vt -1.290039 3.906250
vt -1.291016 3.730469
vt 0.676758 3.906250
vt -1.291016 3.730469
vt 0.676758 3.730469
vt 2.507812 3.906250
vt 2.507812 3.730469
vt 0.553711 4.130859
vt 2.486328 4.130859
vt 2.486328 4.294922
vt 0.553711 4.130859
vt 0.555664 4.294922
vt -1.555664 4.294922
vt -3.486328 4.130859
vt -1.555664 4.294922
vt -3.484375 4.294922
vt -1.553711 4.130859
vt -1.555664 4.294922
vt 0.553711 4.130859
vt -1.291016 3.730469
vt -3.121094 3.730469
vt -1.291016 3.591797
vt -3.121094 3.591797
vt 2.507812 3.730469
vt -3.121094 3.591797
vt -3.121094 3.730469
vt 2.507812 3.591797
vt 0.676758 3.591797
vt 2.507812 3.730469
vt 0.676758 3.730469
vt 2.507812 3.591797
vt -1.291016 3.591797
vt 0.676758 3.591797
vt 0.676758 3.730469
vt -1.291016 3.730469
vt 2.509766 3.353516
vt -3.123047 3.353516
vt -3.121094 3.457031
vt 2.507812 3.457031
vt 2.507812 3.730469
vt -3.121094 3.730469
vt -3.121094 3.906250
vt 2.507812 3.906250
vt -3.484375 4.294922
vt 2.486328 4.294922
vt 2.486328 4.130859
vt -3.486328 4.130859
vt 0.674805 3.353516
vt 2.509766 3.353516
vt 2.507812 3.457031
vt 0.676758 3.457031
vt -1.289062 3.353516
vt -1.291016 3.457031
vt -3.121094 3.457031
vt -3.123047 3.353516
vt -6.808594 1.145996
vt -6.660156 3.136719
vt -6.808594 3.296875
vt -4.656250 3.296875
vt -6.660156 1.305908
vt -4.656250 1.145996
vt -4.800781 3.136719
vt -4.800781 1.305908
vt 0.445068 -1.029297
vt 2.318359 -0.951172
vt 0.445068 -0.951172
vt 2.318359 -1.029297
vt 2.318359 -1.029297
vt -3.332031 -1.029297
vt 2.318359 -0.951172
vt -3.332031 -0.951172
vt -3.332031 -1.029297
vt -1.458008 -1.029297
vt -1.458008 -0.951172
vt -3.332031 -0.951172
vt 0.445068 -1.029297
vt -1.458008 -0.951172
vt -1.458008 -1.029297
vt 0.445068 -0.951172
vt -13.226562 0.800781
vt -7.589844 0.801636
vt -7.593750 0.800781
vt -13.226562 0.801636
vt -13.226562 0.745850
vt -7.593750 0.745850
vt -13.226562 0.723633
vt -7.593750 0.723633
vt -11.390625 0.800781
vt -9.421875 0.800781
vt -11.390625 0.801636
vt -9.421875 0.801636
vt -9.421875 0.723633
vt -11.390625 0.745850
vt -11.390625 0.723633
vt -9.421875 0.745850
vt 0.568848 0.689209
vt 2.500000 0.724365
vt 0.567383 0.724365
vt 2.498047 0.689209
vt 0.568848 0.631104
vt 2.500000 0.592041
vt 2.498047 0.631104
vt 0.567383 0.592041
vt -11.390625 0.800781
vt -13.226562 0.801636
vt -13.226562 0.800781
vt -11.390625 0.801636
vt -11.390625 0.745850
vt -13.226562 0.745850
vt -11.390625 0.723633
vt -13.226562 0.723633
vt -9.421875 0.800781
vt -7.593750 0.800781
vt -9.421875 0.801636
vt -7.589844 0.801636
vt -9.421875 0.745850
vt -7.593750 0.723633
vt -7.593750 0.745850
vt -9.421875 0.723633
vt 2.498047 0.689209
vt -3.472656 0.724365
vt 2.500000 0.724365
vt -3.470703 0.689209
vt 0.567383 0.724365
vt -1.541992 0.689209
vt 0.568848 0.689209
vt -1.540039 0.724365
vt 2.498047 0.631104
vt -3.472656 0.592041
vt -3.470703 0.631104
vt 2.500000 0.592041
vt 0.568848 0.631104
vt -1.541992 0.631104
vt 0.567383 0.592041
vt -1.540039 0.592041
vt -1.541992 0.631104
vt -3.470703 0.631104
vt -1.540039 0.592041
vt -3.472656 0.592041
vt -3.470703 0.689209
vt -1.540039 0.724365
vt -3.472656 0.724365
vt -1.541992 0.689209
vt 0.568848 0.631104
vt 2.498047 0.631104
vt 0.568848 0.666016
vt 2.498047 0.666016
vt 0.568848 0.666016
vt 2.498047 0.666016
vt 0.568848 0.689209
vt 2.498047 0.689209
vt -11.390625 0.800781
vt -13.226562 0.800781
vt -11.390625 0.781006
vt -13.226562 0.781006
vt -11.390625 0.764282
vt -13.226562 0.764282
vt -11.390625 0.745850
vt -13.226562 0.745850
vt -7.593750 0.800781
vt -13.226562 0.781006
vt -13.226562 0.800781
vt -7.593750 0.781006
vt -7.593750 0.764282
vt -13.226562 0.764282
vt -13.226562 0.745850
vt -7.593750 0.745850
vt -11.390625 0.800781
vt -9.421875 0.781006
vt -9.421875 0.800781
vt -11.390625 0.781006
vt -11.390625 0.764282
vt -9.421875 0.764282
vt -9.421875 0.745850
vt -11.390625 0.745850
vt -9.421875 0.800781
vt -7.593750 0.781006
vt -7.593750 0.800781
vt -9.421875 0.781006
vt -9.421875 0.764282
vt -7.593750 0.764282
vt -7.593750 0.745850
vt -9.421875 0.745850
vt 2.498047 0.689209
vt -3.470703 0.666016
vt -3.470703 0.689209
vt 2.498047 0.666016
vt 2.498047 0.666016
vt -3.470703 0.666016
vt -3.470703 0.631104
vt 2.498047 0.631104
vt -1.541992 0.689209
vt 0.568848 0.666016
vt 0.568848 0.689209
vt -1.541992 0.666016
vt -1.541992 0.666016
vt 0.568848 0.666016
vt 0.568848 0.631104
vt -1.541992 0.631104
vt -1.541992 0.631104
vt -3.470703 0.666016
vt -3.470703 0.631104
vt -1.541992 0.666016
vt -1.541992 0.666016
vt -3.470703 0.666016
vt -3.470703 0.689209
vt -1.541992 0.689209
vt1 0.308594 0.415039
vt1 0.308594 0.547119
vt1 0.177124 0.415039
vt1 0.177124 0.547119
vt1 0.476807 0.398926
vt1 0.308594 0.415039
vt1 0.308838 0.398926
vt1 0.476807 0.415039
vt1 0.476807 0.398926
vt1 0.657715 0.415039
vt1 0.476807 0.398926
vt1 0.657715 0.398926
vt1 0.825684 0.415039
vt1 0.825684 0.398926
vt1 0.780762 0.547607
vt1 1.008789 0.547607
vt1 1.007812 0.566895
vt1 0.780762 0.547607
vt1 0.780762 0.566895
vt1 0.531738 0.566895
vt1 0.304199 0.547607
vt1 0.531738 0.566895
vt1 0.304443 0.566895
vt1 0.531738 0.547607
vt1 0.531738 0.566895
vt1 0.780762 0.547607
vt1 0.476807 0.398926
vt1 0.308838 0.398926
vt1 0.476807 0.386230
vt1 0.308838 0.386230
vt1 0.825684 0.398926
vt1 0.308838 0.386230
vt1 0.308838 0.398926
vt1 0.825684 0.386230
vt1 0.657715 0.386230
vt1 0.825684 0.398926
vt1 0.657715 0.398926
vt1 0.825684 0.386230
vt1 0.476807 0.386230
vt1 0.657715 0.386230
vt1 0.657715 0.398926
vt1 0.476807 0.398926
vt1 1.007812 0.547852
vt1 0.186157 0.547852
vt1 0.186523 0.562988
vt1 1.007812 0.562988
vt1 0.825684 0.398926
vt1 0.308838 0.398926
vt1 0.308594 0.415039
vt1 0.825684 0.415039
vt1 0.304443 0.566895
vt1 1.007812 0.566895
vt1 1.008789 0.547607
vt1 0.304199 0.547607
vt1 0.740723 0.547852
vt1 1.007812 0.547852
vt1 1.007812 0.562988
vt1 0.740723 0.562988
vt1 0.454102 0.547852
vt1 0.453857 0.562988
vt1 0.186523 0.562988
vt1 0.186157 0.547852
vt1 0.011490 0.415039
vt1 0.022720 0.568115
vt1 0.011490 0.580566
vt1 0.176880 0.580566
vt1 0.022720 0.427246
vt1 0.176880 0.415039
vt1 0.165771 0.568115
vt1 0.165771 0.427246
vt1 0.628418 0.581299
vt1 0.934570 0.593994
vt1 0.628418 0.593994
vt1 0.934570 0.581299
vt1 0.934570 0.581299
vt1 0.011490 0.581299
vt1 0.934570 0.593994
vt1 0.011490 0.593994
vt1 0.011490 0.581299
vt1 0.317627 0.581299
vt1 0.317627 0.593994
vt1 0.011490 0.593994
vt1 0.628418 0.581299
vt1 0.317627 0.593994
vt1 0.317627 0.581299
vt1 0.628418 0.593994
vt1 0.011787 0.609863
vt1 0.894531 0.613281
vt1 0.894043 0.609863
vt1 0.011490 0.613281
vt1 0.011787 0.600586
vt1 0.894043 0.600586
vt1 0.011765 0.596924
vt1 0.894043 0.596924
vt1 0.298828 0.609863
vt1 0.606934 0.609863
vt1 0.299072 0.613281
vt1 0.606934 0.613281
vt1 0.606934 0.596924
vt1 0.298828 0.600586
vt1 0.298828 0.596924
vt1 0.606934 0.600586
vt1 0.687012 0.592529
vt1 1.009766 0.596436
vt1 0.686523 0.596436
vt1 1.008789 0.592529
vt1 0.687012 0.584961
vt1 1.009766 0.580811
vt1 1.008789 0.584961
vt1 0.686523 0.580811
vt1 0.298828 0.609863
vt1 0.011490 0.613281
vt1 0.011787 0.609863
vt1 0.299072 0.613281
vt1 0.298828 0.600586
vt1 0.011787 0.600586
vt1 0.298828 0.596924
vt1 0.011765 0.596924
vt1 0.606934 0.609863
vt1 0.894043 0.609863
vt1 0.606934 0.613281
vt1 0.894531 0.613281
vt1 0.606934 0.600586
vt1 0.894043 0.596924
vt1 0.894043 0.600586
vt1 0.606934 0.596924
vt1 1.008789 0.592529
vt1 0.011490 0.596436
vt1 1.009766 0.596436
vt1 0.011780 0.592529
vt1 0.686523 0.596436
vt1 0.333984 0.592529
vt1 0.687012 0.592529
vt1 0.334229 0.596436
vt1 1.008789 0.584961
vt1 0.011490 0.580811
vt1 0.011780 0.584961
vt1 1.009766 0.580811
vt1 0.687012 0.584961
vt1 0.333984 0.584961
vt1 0.686523 0.580811
vt1 0.334229 0.580811
vt1 0.333984 0.584961
vt1 0.011780 0.584961
vt1 0.334229 0.580811
vt1 0.011490 0.580811
vt1 0.011780 0.592529
vt1 0.334229 0.596436
vt1 0.011490 0.596436
vt1 0.333984 0.592529
vt1 0.687012 0.584961
vt1 1.008789 0.584961
vt1 0.687012 0.588623
vt1 1.008789 0.588623
vt1 0.687012 0.588623
vt1 1.008789 0.588623
vt1 0.687012 0.592529
vt1 1.008789 0.592529
vt1 0.298828 0.609863
vt1 0.011787 0.609863
vt1 0.298828 0.606445
vt1 0.011787 0.606445
vt1 0.298828 0.604004
vt1 0.011787 0.604004
vt1 0.298828 0.600586
vt1 0.011787 0.600586
vt1 0.894043 0.609863
vt1 0.011787 0.606445
vt1 0.011787 0.609863
vt1 0.894043 0.606445
vt1 0.894043 0.604004
vt1 0.011787 0.604004
vt1 0.011787 0.600586
vt1 0.894043 0.600586
vt1 0.298828 0.609863
vt1 0.606934 0.606445
vt1 0.606934 0.609863
vt1 0.298828 0.606445
vt1 0.298828 0.604004
vt1 0.606934 0.604004
vt1 0.606934 0.600586
vt1 0.298828 0.600586
vt1 0.606934 0.609863
vt1 0.894043 0.606445
vt1 0.894043 0.609863
vt1 0.606934 0.606445
vt1 0.606934 0.604004
vt1 0.894043 0.604004
vt1 0.894043 0.600586
vt1 0.606934 0.600586
vt1 1.008789 0.592529
vt1 0.011780 0.588623
vt1 0.011780 0.592529
vt1 1.008789 0.588623
vt1 1.008789 0.588623
vt1 0.011780 0.588623
vt1 0.011780 0.584961
vt1 1.008789 0.584961
vt1 0.333984 0.592529
vt1 0.687012 0.588623
vt1 0.687012 0.592529
vt1 0.333984 0.588623
vt1 0.333984 0.588623
vt1 0.687012 0.588623
vt1 0.687012 0.584961
vt1 0.333984 0.584961
vt1 0.333984 0.584961
vt1 0.011780 0.588623
vt1 0.011780 0.584961
vt1 0.333984 0.588623
vt1 0.333984 0.588623
vt1 0.011780 0.588623
vt1 0.011780 0.592529
vt1 0.333984 0.592529
vn 0.000000 1.000000 -0.000000
vn 0.000000 1.000000 -0.000000
vn 0.000000 1.000000 -0.000000
vn 0.000000 1.000000 -0.000000
vn 0.000000 1.000000 -0.000000
vn 0.047244 1.000000 0.047244
vn 0.000000 1.000000 -0.000000
vn 0.047244 1.000000 -0.047244
vn 0.000000 1.000000 -0.000000
vn -0.047244 1.000000 -0.047244
vn 0.000000 1.000000 -0.000000
vn 0.000000 1.000000 -0.000000
vn -0.047244 1.000000 0.047244
vn 0.000000 1.000000 -0.000000
vn 0.055118 1.000000 -0.055118
vn 0.055118 1.000000 0.055118
vn 0.000000 1.000000 -0.000000
vn 0.055118 1.000000 -0.055118
vn 0.000000 1.000000 -0.000000
vn 0.000000 1.000000 -0.000000
vn -0.055118 1.000000 0.055118
vn 0.000000 1.000000 -0.000000
vn 0.000000 1.000000 -0.000000
vn -0.055118 1.000000 -0.055118
vn 0.000000 1.000000 -0.000000
vn 0.055118 1.000000 -0.055118
vn -1.000000 0.000000 0.000000
vn -1.000000 0.000000 0.000000
vn -1.000000 0.000000 0.000000
vn -1.000000 0.000000 0.000000
vn 0.000000 -0.000000 -1.000000
vn 0.000000 -0.000000 -1.000000
vn 0.000000 -0.000000 -1.000000
vn 0.000000 -0.000000 -1.000000
vn 1.000000 0.000000 0.000000
vn 1.000000 0.000000 0.000000
vn 1.000000 0.000000 0.000000
vn 1.000000 0.000000 0.000000
vn 0.000000 0.000000 1.000000
vn 0.000000 0.000000 1.000000
vn 0.000000 0.000000 1.000000
vn 0.000000 0.000000 1.000000
vn -0.070866 -0.992126 0.070866
vn 0.070866 -0.992126 0.070866
vn 0.000000 -1.000000 0.000000
vn 0.000000 -1.000000 0.000000
vn 0.000000 1.000000 -0.000000
vn 0.000000 1.000000 -0.000000
vn 0.047244 1.000000 0.047244
vn -0.047244 1.000000 0.047244
vn 0.000000 1.000000 -0.000000
vn 0.000000 1.000000 -0.000000
vn 0.055118 1.000000 0.055118
vn -0.055118 1.000000 0.055118
vn -0.070866 -0.992126 -0.070866
vn -0.070866 -0.992126 0.070866
vn 0.000000 -1.000000 0.000000
vn 0.000000 -1.000000 0.000000
vn 0.070866 -0.992126 -0.070866
vn 0.000000 -1.000000 0.000000
vn 0.000000 -1.000000 0.000000
vn 0.070866 -0.992126 0.070866
vn -0.055118 -1.000000 0.055118
vn 0.000000 -1.000000 0.000000
vn -0.055118 -1.000000 -0.055118
vn 0.055118 -1.000000 -0.055118
vn 0.000000 -1.000000 0.000000
vn 0.055118 -1.000000 0.055118
vn 0.000000 -1.000000 0.000000
vn 0.000000 -1.000000 0.000000
vn -1.000000 0.000000 0.000000
vn -1.000000 0.000000 0.000000
vn -1.000000 0.000000 0.000000
vn -1.000000 0.000000 0.000000
vn 0.000000 0.000000 1.000000
vn 0.000000 0.000000 1.000000
vn 0.000000 0.000000 1.000000
vn 0.000000 0.000000 1.000000
vn 1.000000 0.000000 0.000000
vn 1.000000 0.000000 0.000000
vn 1.000000 0.000000 0.000000
vn 1.000000 0.000000 0.000000
vn 0.000000 -0.000000 -1.000000
vn 0.000000 -0.000000 -1.000000
vn 0.000000 -0.000000 -1.000000
vn 0.000000 -0.000000 -1.000000
vn 0.000000 -0.921260 0.385827
vn -0.070866 -0.992126 0.070866
vn 0.000000 -0.921260 0.385827
vn 0.070866 -0.992126 0.070866
vn 0.000000 0.921260 0.385827
vn 0.000000 0.921260 0.385827
vn 0.047244 1.000000 0.047244
vn -0.047244 1.000000 0.047244
vn 0.000000 -0.921260 -0.385827
vn 0.000000 -0.921260 -0.385827
vn 0.070866 -0.992126 -0.070866
vn -0.070866 -0.992126 -0.070866
vn -0.047244 1.000000 -0.047244
vn 0.000000 0.921260 -0.385827
vn 0.047244 1.000000 -0.047244
vn 0.000000 0.921260 -0.385827
vn 0.385827 0.921260 -0.000000
vn 0.055118 1.000000 0.055118
vn 0.055118 1.000000 -0.055118
vn 0.385827 0.921260 -0.000000
vn 0.385827 -0.921260 0.000000
vn 0.055118 -1.000000 0.055118
vn 0.385827 -0.921260 0.000000
vn 0.055118 -1.000000 -0.055118
vn 0.385827 -0.921260 0.000000
vn 0.070866 -0.992126 0.070866
vn 0.385827 -0.921260 0.000000
vn 0.070866 -0.992126 -0.070866
vn 0.385827 0.921260 -0.000000
vn 0.385827 0.921260 -0.000000
vn 0.047244 1.000000 -0.047244
vn 0.047244 1.000000 0.047244
vn -0.385827 -0.921260 0.000000
vn -0.385827 -0.921260 0.000000
vn -0.070866 -0.992126 -0.070866
vn -0.070866 -0.992126 0.070866
vn -0.385827 0.921260 -0.000000
vn -0.047244 1.000000 0.047244
vn -0.385827 0.921260 -0.000000
vn -0.047244 1.000000 -0.047244
vn 0.000000 0.921260 0.385827
vn -0.055118 1.000000 0.055118
vn 0.055118 1.000000 0.055118
vn 0.000000 0.921260 0.385827
vn 0.055118 1.000000 -0.055118
vn 0.000000 0.921260 -0.385827
vn 0.000000 0.921260 -0.385827
vn -0.055118 1.000000 -0.055118
vn 0.000000 -0.921260 0.385827
vn -0.055118 -1.000000 0.055118
vn 0.000000 -0.921260 0.385827
vn 0.055118 -1.000000 0.055118
vn 0.000000 -0.921260 -0.385827
vn 0.000000 -0.921260 -0.385827
vn 0.055118 -1.000000 -0.055118
vn -0.055118 -1.000000 -0.055118
vn -0.385827 -0.921260 0.000000
vn -0.385827 -0.921260 0.000000
vn -0.055118 -1.000000 -0.055118
vn -0.055118 -1.000000 0.055118
vn -0.385827 0.921260 -0.000000
vn -0.055118 1.000000 -0.055118
vn -0.055118 1.000000 0.055118
vn -0.385827 0.921260 -0.000000
vn 0.921260 -0.385827 0.000000
vn 0.921260 -0.385827 0.000000
vn 0.921260 -0.385827 0.000000
vn 0.921260 -0.385827 0.000000
vn 0.921260 0.385827 -0.000000
vn 0.921260 0.385827 -0.000000
vn 0.921260 0.385827 -0.000000
vn 0.921260 0.385827 -0.000000
vn 0.921260 -0.385827 0.000000
vn 0.921260 -0.385827 0.000000
vn 0.984252 -0.181102 0.000000
vn 0.984252 -0.181102 0.000000
vn 0.984252 0.181102 -0.000000
vn 0.984252 0.181102 -0.000000
vn 0.921260 0.385827 -0.000000
vn 0.921260 0.385827 -0.000000
vn 0.000000 -0.385827 0.921260
vn 0.000000 -0.181102 0.984252
vn 0.000000 -0.385827 0.921260
vn 0.000000 -0.181102 0.984252
vn 0.000000 0.181102 0.984252
vn 0.000000 0.181102 0.984252
vn 0.000000 0.385827 0.921260
vn 0.000000 0.385827 0.921260
vn 0.000000 -0.385827 -0.921260
vn 0.000000 -0.181102 -0.984252
vn 0.000000 -0.385827 -0.921260
vn 0.000000 -0.181102 -0.984252
vn 0.000000 0.181102 -0.984252
vn 0.000000 0.181102 -0.984252
vn 0.000000 0.385827 -0.921260
vn 0.000000 0.385827 -0.921260
vn -0.921260 -0.385827 0.000000
vn -0.984252 -0.181102 0.000000
vn -0.921260 -0.385827 0.000000
vn -0.984252 -0.181102 0.000000
vn -0.984252 0.181102 -0.000000
vn -0.984252 0.181102 -0.000000
vn -0.921260 0.385827 -0.000000
vn -0.921260 0.385827 -0.000000
vn 0.000000 0.385827 0.921260
vn 0.000000 0.385827 0.921260
vn 0.000000 0.385827 0.921260
vn 0.000000 0.385827 0.921260
vn 0.000000 -0.385827 0.921260
vn 0.000000 -0.385827 0.921260
vn 0.000000 -0.385827 0.921260
vn 0.000000 -0.385827 0.921260
vn 0.000000 0.385827 -0.921260
vn 0.000000 0.385827 -0.921260
vn 0.000000 0.385827 -0.921260
vn 0.000000 0.385827 -0.921260
vn 0.000000 -0.385827 -0.921260
vn 0.000000 -0.385827 -0.921260
vn 0.000000 -0.385827 -0.921260
vn 0.000000 -0.385827 -0.921260
vn -0.921260 -0.385827 0.000000
vn -0.921260 -0.385827 0.000000
vn -0.921260 -0.385827 0.000000
vn -0.921260 -0.385827 0.000000
vn -0.921260 0.385827 -0.000000
vn -0.921260 0.385827 -0.000000
vn -0.921260 0.385827 -0.000000
vn -0.921260 0.385827 -0.000000
tan -1.000000 0.000000 0.000000 1.000000
tan -1.000000 0.000000 0.000000 1.000000
tan -1.000000 0.000000 0.000000 1.000000
tan -1.000000 0.000000 0.000000 1.000000
tan -0.724409 0.000000 0.692913 1.000000
tan -1.002232 0.047244 0.002232 1.000000
tan -1.000000 0.000000 0.000000 1.000000
tan -0.700787 0.066588 0.708661 1.000000
tan -0.708661 0.000000 0.708661 1.000000
tan 0.700787 0.066588 0.708661 1.000000
tan -0.692913 0.000000 0.716535 1.000000
tan 0.708661 0.000000 0.708661 1.000000
tan 1.002232 0.047244 0.002232 1.000000
tan 1.000000 0.000000 0.000000 1.000000
tan 0.700787 -0.078120 -0.716535 1.000000
tan 1.003038 -0.055118 -0.003038 1.000000
tan 1.000000 0.000000 0.000000 1.000000
tan 0.660983 -0.077686 -0.748465 1.000000
tan 0.724409 -0.000000 -0.692913 1.000000
tan -0.708661 -0.000000 -0.700787 1.000000
tan -1.003038 -0.055118 -0.003038 1.000000
tan -0.732283 -0.000000 -0.677165 1.000000
tan -1.000000 0.000000 0.000000 1.000000
tan -0.660983 -0.077686 -0.748465 1.000000
tan -0.724409 -0.000000 -0.692913 1.000000
tan 0.621613 -0.077252 -0.779961 1.000000
tan 0.000000 -1.000000 0.000000 1.000000
tan 0.000000 -1.000000 0.000000 1.000000
tan 0.000000 -1.000000 0.000000 1.000000
tan 0.000000 -1.000000 0.000000 1.000000
tan 0.000000 -1.000000 0.000000 1.000000
tan 0.000000 -1.000000 0.000000 1.000000
tan 0.000000 -1.000000 0.000000 1.000000
tan 0.000000 -1.000000 0.000000 1.000000
tan 0.000000 -1.000000 0.000000 1.000000
tan 0.000000 -1.000000 0.000000 1.000000
tan 0.000000 -1.000000 0.000000 1.000000
tan 0.000000 -1.000000 0.000000 1.000000
tan 0.000000 -1.000000 0.000000 1.000000
tan 0.000000 -1.000000 0.000000 1.000000
tan 0.000000 -1.000000 0.000000 1.000000
tan 0.000000 -1.000000 0.000000 1.000000
tan -0.002790 0.071424 0.997148 1.000000
tan 0.002790 0.071424 0.997148 1.000000
tan 0.000000 0.000000 1.000000 1.000000
tan 0.000000 0.000000 1.000000 1.000000
tan 0.000000 -0.000000 -1.000000 1.000000
tan 0.000000 -0.000000 -1.000000 1.000000
tan 0.002232 0.047244 -1.002232 1.000000
tan -0.002232 0.047244 -1.002232 1.000000
tan 0.000000 0.000000 1.000000 1.000000
tan 0.000000 0.000000 1.000000 1.000000
tan -0.003038 -0.055118 1.003038 1.000000
tan 0.003038 -0.055118 1.003038 1.000000
tan -0.647839 0.099882 -0.750511 1.000000
tan -0.997148 0.071424 0.002790 1.000000
tan -1.000000 0.000000 0.000000 1.000000
tan -0.724409 -0.000000 -0.692913 1.000000
tan 0.647839 0.099882 -0.750511 1.000000
tan 0.724409 -0.000000 -0.692913 1.000000
tan 1.000000 0.000000 0.000000 1.000000
tan 0.997148 0.071424 0.002790 1.000000
tan 0.003038 0.055118 1.003038 1.000000
tan 0.000000 0.000000 1.000000 1.000000
tan -0.003038 -0.055118 1.003038 1.000000
tan 0.003038 -0.055118 1.003038 1.000000
tan 0.000000 0.000000 1.000000 1.000000
tan -0.003038 0.055118 1.003038 1.000000
tan 0.000000 0.000000 1.000000 1.000000
tan 0.000000 0.000000 1.000000 1.000000
tan 0.000000 1.000000 -0.000000 1.000000
tan 0.000000 1.000000 -0.000000 1.000000
tan 0.000000 1.000000 -0.000000 1.000000
tan 0.000000 1.000000 -0.000000 1.000000
tan 0.000000 1.000000 -0.000000 1.000000
tan 0.000000 1.000000 -0.000000 1.000000
tan 0.000000 1.000000 -0.000000 1.000000
tan 0.000000 1.000000 -0.000000 1.000000
tan 0.000000 1.000000 -0.000000 1.000000
tan 0.000000 1.000000 -0.000000 1.000000
tan 0.000000 1.000000 -0.000000 1.000000
tan 0.000000 1.000000 -0.000000 1.000000
tan 0.000000 1.000000 -0.000000 1.000000
tan 0.000000 1.000000 -0.000000 1.000000
tan 0.000000 1.000000 -0.000000 1.000000
tan 0.000000 1.000000 -0.000000 1.000000
tan 0.000000 0.385827 0.921260 1.000000
tan -0.002790 0.071424 0.997148 1.000000
tan 0.000000 0.385827 0.921260 1.000000
tan 0.002790 0.071424 0.997148 1.000000
tan 0.000000 0.385827 -0.921260 1.000000
tan 0.000000 0.385827 -0.921260 1.000000
tan 0.002232 0.047244 -1.002232 1.000000
tan -0.002232 0.047244 -1.002232 1.000000
tan 0.000000 0.385827 -0.921260 1.000000
tan 0.000000 0.385827 -0.921260 1.000000
tan 0.002790 0.071424 -0.997148 1.000000
tan -0.002790 0.071424 -0.997148 1.000000
tan -0.002232 0.047244 1.002232 1.000000
tan 0.000000 0.385827 0.921260 1.000000
tan 0.002232 0.047244 1.002232 1.000000
tan 0.000000 0.385827 0.921260 1.000000
tan 0.921260 -0.385827 0.000000 1.000000
tan 1.003038 -0.055118 -0.003038 1.000000
tan 1.003038 -0.055118 0.003038 1.000000
tan 0.921260 -0.385827 0.000000 1.000000
tan -0.921260 -0.385827 0.000000 1.000000
tan -1.003038 -0.055118 0.003038 1.000000
tan -0.921260 -0.385827 0.000000 1.000000
tan -1.003038 -0.055118 -0.003038 1.000000
tan 0.921260 0.385827 -0.000000 1.000000
tan 0.997148 0.071424 0.002790 1.000000
tan 0.921260 0.385827 -0.000000 1.000000
tan 0.997148 0.071424 -0.002790 1.000000
tan -0.921260 0.385827 -0.000000 1.000000
tan -0.921260 0.385827 -0.000000 1.000000
tan -1.002232 0.047244 -0.002232 1.000000
tan -1.002232 0.047244 0.002232 1.000000
tan -0.921260 0.385827 -0.000000 1.000000
tan -0.921260 0.385827 -0.000000 1.000000
tan -0.997148 0.071424 -0.002790 1.000000
tan -0.997148 0.071424 0.002790 1.000000
tan 0.921260 0.385827 -0.000000 1.000000
tan 1.002232 0.047244 0.002232 1.000000
tan 0.921260 0.385827 -0.000000 1.000000
tan 1.002232 0.047244 -0.002232 1.000000
tan 0.000000 -0.385827 0.921260 1.000000
tan 0.003038 -0.055118 1.003038 1.000000
tan -0.003038 -0.055118 1.003038 1.000000
tan 0.000000 -0.385827 0.921260 1.000000
tan -0.003038 -0.055118 -1.003038 1.000000
tan 0.000000 -0.385827 -0.921260 1.000000
tan 0.000000 -0.385827 -0.921260 1.000000
tan 0.003038 -0.055118 -1.003038 1.000000
tan 0.000000 -0.385827 -0.921260 1.000000
tan -0.003038 -0.055118 -1.003038 1.000000
tan 0.000000 -0.385827 -0.921260 1.000000
tan 0.003038 -0.055118 -1.003038 1.000000
tan 0.000000 -0.385827 0.921260 1.000000
tan 0.000000 -0.385827 0.921260 1.000000
tan 0.003038 -0.055118 1.003038 1.000000
tan -0.003038 -0.055118 1.003038 1.000000
tan 0.921260 -0.385827 0.000000 1.000000
tan 0.921260 -0.385827 0.000000 1.000000
tan 1.003038 -0.055118 -0.003038 1.000000
tan 1.003038 -0.055118 0.003038 1.000000
tan -0.921260 -0.385827 0.000000 1.000000
tan -1.003038 -0.055118 0.003038 1.000000
tan -1.003038 -0.055118 -0.003038 1.000000
tan -0.921260 -0.385827 0.000000 1.000000
tan -0.385827 -0.921260 0.000000 1.000000
tan -0.385827 -0.921260 0.000000 1.000000
tan -0.385827 -0.921260 0.000000 1.000000
tan -0.385827 -0.921260 0.000000 1.000000
tan 0.385827 -0.921260 0.000000 1.000000
tan 0.385827 -0.921260 0.000000 1.000000
tan 0.385827 -0.921260 0.000000 1.000000
tan 0.385827 -0.921260 0.000000 1.000000
tan 0.385827 0.921260 -0.000000 1.000000
tan 0.385827 0.921260 -0.000000 1.000000
tan 0.181102 0.984252 -0.000000 1.000000
tan 0.181102 0.984252 -0.000000 1.000000
tan -0.181102 0.984252 -0.000000 1.000000
tan -0.181102 0.984252 -0.000000 1.000000
tan -0.385827 0.921260 -0.000000 1.000000
tan -0.385827 0.921260 -0.000000 1.000000
tan 0.000000 0.921260 0.385827 1.000000
tan 0.000000 0.984252 0.181102 1.000000
tan 0.000000 0.921260 0.385827 1.000000
tan 0.000000 0.984252 0.181102 1.000000
tan 0.000000 0.984252 -0.181102 1.000000
tan 0.000000 0.984252 -0.181102 1.000000
tan 0.000000 0.921260 -0.385827 1.000000
tan 0.000000 0.921260 -0.385827 1.000000
tan 0.000000 0.921260 -0.385827 1.000000
tan 0.000000 0.984252 -0.181102 1.000000
tan 0.000000 0.921260 -0.385827 1.000000
tan 0.000000 0.984252 -0.181102 1.000000
tan 0.000000 0.984252 0.181102 1.000000
tan 0.000000 0.984252 0.181102 1.000000
tan 0.000000 0.921260 0.385827 1.000000
tan 0.000000 0.921260 0.385827 1.000000
tan -0.385827 0.921260 -0.000000 1.000000
tan -0.181102 0.984252 -0.000000 1.000000
tan -0.385827 0.921260 -0.000000 1.000000
tan -0.181102 0.984252 -0.000000 1.000000
tan 0.181102 0.984252 -0.000000 1.000000
tan 0.181102 0.984252 -0.000000 1.000000
tan 0.385827 0.921260 -0.000000 1.000000
tan 0.385827 0.921260 -0.000000 1.000000
tan 0.000000 -0.921260 0.385827 1.000000
tan 0.000000 -0.921260 0.385827 1.000000
tan 0.000000 -0.921260 0.385827 1.000000
tan 0.000000 -0.921260 0.385827 1.000000
tan 0.000000 -0.921260 -0.385827 1.000000
tan 0.000000 -0.921260 -0.385827 1.000000
tan 0.000000 -0.921260 -0.385827 1.000000
tan 0.000000 -0.921260 -0.385827 1.000000
tan 0.000000 -0.921260 -0.385827 1.000000
tan 0.000000 -0.921260 -0.385827 1.000000
tan 0.000000 -0.921260 -0.385827 1.000000
tan 0.000000 -0.921260 -0.385827 1.000000
tan 0.000000 -0.921260 0.385827 1.000000
tan 0.000000 -0.921260 0.385827 1.000000
tan 0.000000 -0.921260 0.385827 1.000000
tan 0.000000 -0.921260 0.385827 1.000000
tan 0.385827 -0.921260 0.000000 1.000000
tan 0.385827 -0.921260 0.000000 1.000000
tan 0.385827 -0.921260 0.000000 1.000000
tan 0.385827 -0.921260 0.000000 1.000000
tan -0.385827 -0.921260 0.000000 1.000000
tan -0.385827 -0.921260 0.000000 1.000000
tan -0.385827 -0.921260 0.000000 1.000000
tan -0.385827 -0.921260 0.000000 1.000000
f 3/3/3 2/2/2 1/1/1
f 3/3/3 4/4/4 2/2/2
f 7/7/7 6/6/6 5/5/5
f 9/9/9 6/6/6 8/8/8
f 9/9/9 8/8/8 10/10/10
f 12/12/12 11/11/11 10/10/10
f 12/12/12 10/10/10 13/13/13
f 14/14/14 12/12/12 13/13/13
f 17/17/17 16/16/16 15/15/15
f 19/19/19 17/17/17 18/18/18
f 19/19/19 18/18/18 20/20/20
f 23/23/23 22/22/22 21/21/21
f 25/25/25 24/24/24 21/21/21
f 24/24/24 25/25/25 26/26/26
f 29/29/29 28/28/28 27/27/27
f 30/30/30 28/28/28 29/29/29
f 33/33/33 32/32/32 31/31/31
f 34/34/34 31/31/31 32/32/32
f 37/37/37 36/36/36 35/35/35
f 38/38/38 35/35/35 36/36/36
f 41/41/41 40/40/40 39/39/39
f 42/42/42 41/41/41 39/39/39
f 45/45/45 44/44/44 43/43/43
f 46/46/46 45/45/45 43/43/43
f 49/49/49 48/48/48 47/47/47
f 50/50/50 49/49/49 47/47/47
f 53/53/53 52/52/52 51/51/51
f 54/54/54 53/53/53 51/51/51
f 57/57/57 56/56/56 55/55/55
f 58/58/58 57/57/57 55/55/55
f 58/58/58 55/55/55 59/59/59
f 60/60/60 58/58/58 59/59/59
f 60/60/60 59/59/59 61/61/61
f 61/61/61 59/59/59 62/62/62
f 65/65/65 64/64/64 63/63/63
f 64/64/64 65/65/65 66/66/66
f 67/67/67 63/63/63 64/64/64
f 63/63/63 67/67/67 68/68/68
f 69/69/69 64/64/64 66/66/66
f 69/69/69 67/67/67 64/64/64
f 68/68/68 70/70/70 66/66/66
f 70/70/70 68/68/68 67/67/67
f 69/69/69 66/66/66 70/70/70
f 70/70/70 67/67/67 69/69/69
f 73/73/73 72/72/72 71/71/71
f 74/74/74 71/71/71 72/72/72
f 77/77/77 76/76/76 75/75/75
f 76/76/76 77/77/77 78/78/78
f 81/81/81 80/80/80 79/79/79
f 79/79/79 82/82/82 81/81/81
f 85/85/85 84/84/84 83/83/83
f 86/86/86 83/83/83 84/84/84
f 89/89/89 88/88/88 87/87/87
f 90/90/90 87/87/87 88/88/88
f 93/93/93 92/92/92 91/91/91
f 94/94/94 92/92/92 93/93/93
f 97/97/97 96/96/96 95/95/95
f 98/98/98 96/96/96 97/97/97
f 101/101/101 100/100/100 99/99/99
f 99/99/99 100/100/100 102/102/102
f 105/105/105 104/104/104 103/103/103
f 106/106/106 103/103/103 104/104/104
f 109/109/109 108/108/108 107/107/107
f 110/110/110 107/107/107 108/108/108
f 113/113/113 112/112/112 111/111/111
f 114/114/114 111/111/111 112/112/112
f 117/117/117 116/116/116 115/115/115
f 118/118/118 116/116/116 117/117/117
f 121/121/121 120/120/120 119/119/119
f 122/122/122 120/120/120 121/121/121
f 125/125/125 124/124/124 123/123/123
f 126/126/126 123/123/123 124/124/124
f 129/129/129 128/128/128 127/127/127
f 130/130/130 127/127/127 128/128/128
f 133/133/133 132/132/132 131/131/131
f 134/134/134 131/131/131 132/132/132
f 137/137/137 136/136/136 135/135/135
f 138/138/138 135/135/135 136/136/136
f 141/141/141 140/140/140 139/139/139
f 142/142/142 140/140/140 141/141/141
f 145/145/145 144/144/144 143/143/143
f 146/146/146 144/144/144 145/145/145
f 149/149/149 148/148/148 147/147/147
f 150/150/150 147/147/147 148/148/148
f 153/153/153 152/152/152 151/151/151
f 154/154/154 152/152/152 153/153/153
f 155/155/155 154/154/154 153/153/153
f 156/156/156 154/154/154 155/155/155
f 157/157/157 156/156/156 155/155/155
f 158/158/158 156/156/156 157/157/157
f 161/161/161 160/160/160 159/159/159
f 162/162/162 160/160/160 161/161/161
f 163/163/163 162/162/162 161/161/161
f 164/164/164 162/162/162 163/163/163
f 165/165/165 164/164/164 163/163/163
f 166/166/166 164/164/164 165/165/165
f 169/169/169 168/168/168 167/167/167
f 170/170/170 167/167/167 168/168/168
f 171/171/171 170/170/170 168/168/168
f 172/172/172 171/171/171 168/168/168
f 173/173/173 171/171/171 172/172/172
f 174/174/174 171/171/171 173/173/173
f 177/177/177 176/176/176 175/175/175
f 175/175/175 176/176/176 178/178/178
f 178/178/178 176/176/176 179/179/179
f 176/176/176 180/180/180 179/179/179
f 180/180/180 181/181/181 179/179/179
f 182/182/182 179/179/179 181/181/181
f 185/185/185 184/184/184 183/183/183
f 183/183/183 184/184/184 186/186/186
f 186/186/186 184/184/184 187/187/187
f 188/188/188 187/187/187 184/184/184
f 188/188/188 189/189/189 187/187/187
f 187/187/187 189/189/189 190/190/190
f 193/193/193 192/192/192 191/191/191
f 191/191/191 192/192/192 194/194/194
f 194/194/194 192/192/192 195/195/195
f 192/192/192 196/196/196 195/195/195
f 196/196/196 197/197/197 195/195/195
f 198/198/198 195/195/195 197/197/197
f 201/201/201 200/200/200 199/199/199
f 202/202/202 199/199/199 200/200/200
f 203/203/203 202/202/202 200/200/200
f 204/204/204 203/203/203 200/200/200
f 205/205/205 203/203/203 204/204/204
f 206/206/206 203/203/203 205/205/205
f 209/209/209 208/208/208 207/207/207
f 207/207/207 208/208/208 210/210/210
f 210/210/210 208/208/208 211/211/211
f 212/212/212 211/211/211 208/208/208
f 212/212/212 213/213/213 211/211/211
f 211/211/211 213/213/213 214/214/214
