mtllib SM_Mast_Offshoot_01@000002909DC0B900.mtl
g SM_Mast_Offshoot_01@000002909DC0B900
#Vertices 140
#Indices 384
#Section 0 Offset 0 NumIndices 60 MaterialIndex 0 MI_RoofTile_A_01
#Section 1 Offset 60 NumIndices 204 MaterialIndex 1 MI_ConcreteTile_A2_02
#Section 2 Offset 264 NumIndices 120 MaterialIndex 2 MI_BrickTile_C_01
v 4.216904 11.256649 1.370155 0.000000 1.000000 0.000000 1.000000
v 3.587114 11.256649 2.606190 0.000000 1.000000 0.000000 1.000000
v 0.000000 20.124475 -0.000002 0.000000 1.000000 0.000000 1.000000
v 4.433911 11.256649 -0.000001 0.000000 1.000000 0.000000 1.000000
v 2.606191 11.256649 3.587107 0.000000 1.000000 0.000000 1.000000
v 4.216899 11.256649 -1.370157 0.000000 1.000000 0.000000 1.000000
v 1.370154 11.256650 4.216902 0.000000 1.000000 0.000000 1.000000
v 3.587109 11.256649 -2.606188 0.000000 1.000000 0.000000 1.000000
v 0.000000 11.256650 4.433914 0.000000 1.000000 0.000000 1.000000
v 2.606186 11.256649 -3.587110 0.000000 1.000000 0.000000 1.000000
v -1.370154 11.256650 4.216902 0.000000 1.000000 0.000000 1.000000
v 1.370154 11.256648 -4.216900 0.000000 1.000000 0.000000 1.000000
v -2.606189 11.256649 3.587107 0.000000 1.000000 0.000000 1.000000
v 0.000000 11.256648 -4.433912 0.000000 1.000000 0.000000 1.000000
v -3.587112 11.256649 2.606190 0.000000 1.000000 0.000000 1.000000
v -1.370154 11.256648 -4.216900 0.000000 1.000000 0.000000 1.000000
v -4.216902 11.256649 1.370155 0.000000 1.000000 0.000000 1.000000
v -2.606189 11.256649 -3.587110 0.000000 1.000000 0.000000 1.000000
v -4.433914 11.256649 -0.000001 0.000000 1.000000 0.000000 1.000000
v -3.587112 11.256649 -2.606188 0.000000 1.000000 0.000000 1.000000
v -4.216902 11.256649 -1.370157 0.000000 1.000000 0.000000 1.000000
v -0.985239 -0.004536 -1.355156 0.000000 1.000000 0.000000 1.000000
v 1.781479 -0.836333 1.355039 0.000000 1.000000 0.000000 1.000000
v 1.781479 -0.836021 -1.355351 0.000000 1.000000 0.000000 1.000000
v -0.985239 -0.004536 1.355234 0.000000 1.000000 0.000000 1.000000
v 3.522886 -2.139067 -1.355156 0.000000 1.000000 0.000000 1.000000
v 1.781479 -0.836333 1.355039 0.000000 1.000000 0.000000 1.000000
v 3.522886 -2.139067 1.355235 0.000000 1.000000 0.000000 1.000000
v 1.781479 -0.836021 -1.355351 0.000000 1.000000 0.000000 1.000000
v 3.522886 -0.004536 -1.355156 0.000000 1.000000 0.000000 1.000000
v 1.781479 -0.836021 -1.355351 0.000000 1.000000 0.000000 1.000000
v 3.522886 -2.139067 -1.355156 0.000000 1.000000 0.000000 1.000000
v -0.985239 -0.004536 -1.355156 0.000000 1.000000 0.000000 1.000000
v -0.985239 -0.004536 1.355234 0.000000 1.000000 0.000000 1.000000
v 3.522886 -0.004536 1.355234 0.000000 1.000000 0.000000 1.000000
v 1.781479 -0.836333 1.355039 0.000000 1.000000 0.000000 1.000000
v 3.522886 -2.139067 1.355235 0.000000 1.000000 0.000000 1.000000
v 4.216904 11.256649 1.370155 0.000000 1.000000 0.000000 1.000000
v 2.809906 11.256649 2.041515 0.000000 1.000000 0.000000 1.000000
v 3.587114 11.256649 2.606190 0.000000 1.000000 0.000000 1.000000
v 2.606191 11.256649 3.587107 0.000000 1.000000 0.000000 1.000000
v 3.303241 11.256649 1.073288 0.000000 1.000000 0.000000 1.000000
v 2.041516 11.256649 2.809901 0.000000 1.000000 0.000000 1.000000
v 4.433911 11.256649 -0.000001 0.000000 1.000000 0.000000 1.000000
v 1.073287 11.256649 3.303241 0.000000 1.000000 0.000000 1.000000
v 3.473230 11.256649 -0.000001 0.000000 1.000000 0.000000 1.000000
v 1.370154 11.256650 4.216902 0.000000 1.000000 0.000000 1.000000
v 3.303237 11.256649 -1.073290 0.000000 1.000000 0.000000 1.000000
v -0.000000 11.256649 3.473233 0.000000 1.000000 0.000000 1.000000
v 4.216899 11.256649 -1.370157 0.000000 1.000000 0.000000 1.000000
v 0.000000 11.256650 4.433914 0.000000 1.000000 0.000000 1.000000
v 3.587109 11.256649 -2.606188 0.000000 1.000000 0.000000 1.000000
v -1.370154 11.256650 4.216902 0.000000 1.000000 0.000000 1.000000
v 2.809902 11.256649 -2.041514 0.000000 1.000000 0.000000 1.000000
v -1.073287 11.256649 3.303241 0.000000 1.000000 0.000000 1.000000
v 2.041512 11.256649 -2.809903 0.000000 1.000000 0.000000 1.000000
v -2.606189 11.256649 3.587107 0.000000 1.000000 0.000000 1.000000
v 2.606186 11.256649 -3.587110 0.000000 1.000000 0.000000 1.000000
v -2.041515 11.256649 2.809901 0.000000 1.000000 0.000000 1.000000
v 1.073287 11.256649 -3.303238 0.000000 1.000000 0.000000 1.000000
v -2.809905 11.256649 2.041515 0.000000 1.000000 0.000000 1.000000
v 1.370154 11.256648 -4.216900 0.000000 1.000000 0.000000 1.000000
v -3.587112 11.256649 2.606190 0.000000 1.000000 0.000000 1.000000
v -0.000000 11.256649 -3.473231 0.000000 1.000000 0.000000 1.000000
v -4.216902 11.256649 1.370155 0.000000 1.000000 0.000000 1.000000
v 0.000000 11.256648 -4.433912 0.000000 1.000000 0.000000 1.000000
v -3.303240 11.256649 1.073288 0.000000 1.000000 0.000000 1.000000
v -1.370154 11.256648 -4.216900 0.000000 1.000000 0.000000 1.000000
v -3.473233 11.256649 -0.000001 0.000000 1.000000 0.000000 1.000000
v -1.073287 11.256649 -3.303238 0.000000 1.000000 0.000000 1.000000
v -4.433914 11.256649 -0.000001 0.000000 1.000000 0.000000 1.000000
v -2.041515 11.256649 -2.809903 0.000000 1.000000 0.000000 1.000000
v -3.303240 11.256649 -1.073290 0.000000 1.000000 0.000000 1.000000
v -2.606189 11.256649 -3.587110 0.000000 1.000000 0.000000 1.000000
v -4.216902 11.256649 -1.370157 0.000000 1.000000 0.000000 1.000000
v -3.587112 11.256649 -2.606188 0.000000 1.000000 0.000000 1.000000
v -2.809905 11.256649 -2.041514 0.000000 1.000000 0.000000 1.000000
v 3.236069 0.000000 2.351142 0.000000 1.000000 0.000000 1.000000
v 3.804229 0.000000 1.236069 0.000000 1.000000 0.000000 1.000000
v 0.000000 0.000000 0.000000 0.000000 1.000000 0.000000 1.000000
v 2.351142 0.000000 3.236074 0.000000 1.000000 0.000000 1.000000
v 4.000000 0.000000 0.000000 0.000000 1.000000 0.000000 1.000000
v 1.236069 0.000000 3.804228 0.000000 1.000000 0.000000 1.000000
v 3.804224 -0.000000 -1.236069 0.000000 1.000000 0.000000 1.000000
v 0.000000 0.000000 4.000000 0.000000 1.000000 0.000000 1.000000
v 3.236069 -0.000000 -2.351142 0.000000 1.000000 0.000000 1.000000
v -1.236069 0.000000 3.804228 0.000000 1.000000 0.000000 1.000000
v 2.351140 -0.000000 -3.236069 0.000000 1.000000 0.000000 1.000000
v -2.351142 0.000000 3.236074 0.000000 1.000000 0.000000 1.000000
v 1.236067 -0.000000 -3.804228 0.000000 1.000000 0.000000 1.000000
v -3.236069 0.000000 2.351142 0.000000 1.000000 0.000000 1.000000
v 0.000000 -0.000000 -4.000000 0.000000 1.000000 0.000000 1.000000
v -3.804226 0.000000 1.236069 0.000000 1.000000 0.000000 1.000000
v -1.236069 -0.000000 -3.804228 0.000000 1.000000 0.000000 1.000000
v -4.000000 0.000000 0.000000 0.000000 1.000000 0.000000 1.000000
v -2.351142 -0.000000 -3.236069 0.000000 1.000000 0.000000 1.000000
v -3.804226 -0.000000 -1.236069 0.000000 1.000000 0.000000 1.000000
v -3.236069 -0.000000 -2.351142 0.000000 1.000000 0.000000 1.000000
v 4.000000 0.000000 0.000000 0.000000 1.000000 0.000000 1.000000
v 4.000000 11.582059 -0.000001 0.000000 1.000000 0.000000 1.000000
v 3.804224 -0.000000 -1.236069 0.000000 1.000000 0.000000 1.000000
v 3.804224 11.582059 -1.236071 0.000000 1.000000 0.000000 1.000000
v 3.236069 -0.000000 -2.351142 0.000000 1.000000 0.000000 1.000000
v 3.236069 11.582059 -2.351144 0.000000 1.000000 0.000000 1.000000
v 2.351140 -0.000000 -3.236069 0.000000 1.000000 0.000000 1.000000
v 2.351140 11.582059 -3.236070 0.000000 1.000000 0.000000 1.000000
v 1.236067 -0.000000 -3.804228 0.000000 1.000000 0.000000 1.000000
v 1.236067 11.582059 -3.804229 0.000000 1.000000 0.000000 1.000000
v 0.000000 -0.000000 -4.000000 0.000000 1.000000 0.000000 1.000000
v 0.000000 11.582058 -4.000001 0.000000 1.000000 0.000000 1.000000
v -1.236069 -0.000000 -3.804228 0.000000 1.000000 0.000000 1.000000
v -1.236069 11.582059 -3.804229 0.000000 1.000000 0.000000 1.000000
v -2.351142 -0.000000 -3.236069 0.000000 1.000000 0.000000 1.000000
v -2.351142 11.582059 -3.236070 0.000000 1.000000 0.000000 1.000000
v -3.236069 -0.000000 -2.351142 0.000000 1.000000 0.000000 1.000000
v -3.236069 11.582059 -2.351144 0.000000 1.000000 0.000000 1.000000
v -3.804226 -0.000000 -1.236069 0.000000 1.000000 0.000000 1.000000
v -3.804226 11.582059 -1.236071 0.000000 1.000000 0.000000 1.000000
v -4.000000 0.000000 0.000000 0.000000 1.000000 0.000000 1.000000
v -4.000000 11.582059 -0.000001 0.000000 1.000000 0.000000 1.000000
v -3.804226 0.000000 1.236069 0.000000 1.000000 0.000000 1.000000
v -3.804226 11.582059 1.236068 0.000000 1.000000 0.000000 1.000000
v -3.236069 0.000000 2.351142 0.000000 1.000000 0.000000 1.000000
v -3.236069 11.582059 2.351141 0.000000 1.000000 0.000000 1.000000
v -2.351142 0.000000 3.236074 0.000000 1.000000 0.000000 1.000000
v -2.351142 11.582059 3.236072 0.000000 1.000000 0.000000 1.000000
v -1.236069 0.000000 3.804228 0.000000 1.000000 0.000000 1.000000
v -1.236069 11.582059 3.804227 0.000000 1.000000 0.000000 1.000000
v 0.000000 0.000000 4.000000 0.000000 1.000000 0.000000 1.000000
v 0.000000 11.582060 3.999998 0.000000 1.000000 0.000000 1.000000
v 1.236069 0.000000 3.804228 0.000000 1.000000 0.000000 1.000000
v 1.236069 11.582059 3.804227 0.000000 1.000000 0.000000 1.000000
v 2.351142 0.000000 3.236074 0.000000 1.000000 0.000000 1.000000
v 2.351142 11.582059 3.236072 0.000000 1.000000 0.000000 1.000000
v 3.236069 0.000000 2.351142 0.000000 1.000000 0.000000 1.000000
v 3.236069 11.582059 2.351141 0.000000 1.000000 0.000000 1.000000
v 3.804229 0.000000 1.236069 0.000000 1.000000 0.000000 1.000000
v 3.804229 11.582059 1.236068 0.000000 1.000000 0.000000 1.000000
v 4.000000 0.000000 0.000000 0.000000 1.000000 0.000000 1.000000
v 4.000000 11.582059 -0.000001 0.000000 1.000000 0.000000 1.000000
vt 0.287109 -0.472656
vt 0.398438 -0.708008
vt 1.085938 -0.239258
vt 0.253906 -0.213867
vt 0.577148 -0.897461
vt 0.302246 0.041504
vt 0.805664 -1.023438
vt 0.427490 0.270020
vt 1.061523 -1.070312
vt 0.617188 0.448730
vt 1.319336 -1.037109
vt 0.852539 0.560059
vt 1.555664 -0.926758
vt 1.111328 0.593262
vt 1.745117 -0.748047
vt 1.367188 0.544922
vt 1.870117 -0.519531
vt 1.595703 0.419922
vt 1.918945 -0.263672
vt 1.774414 0.229980
vt 1.885742 -0.004883
vt 2.296875 2.056641
vt 1.834961 1.879883
vt 2.158203 1.719238
vt 2.001953 2.190430
vt 2.021484 1.487305
vt 1.834961 1.879883
vt 1.735352 1.618164
vt 2.158203 1.719238
vt 2.255859 1.499512
vt 2.158203 1.719238
vt 2.021484 1.487305
vt 2.296875 2.056641
vt 2.001953 2.190430
vt 1.603516 1.817871
vt 1.834961 1.879883
vt 1.735352 1.618164
vt 4.605469 0.419434
vt 4.417969 0.373535
vt 4.496094 0.284668
vt 4.351562 0.189453
vt 4.503906 0.479492
vt 4.304688 0.299316
vt 4.667969 0.581543
vt 4.171875 0.263672
vt 4.550781 0.606201
vt 4.183594 0.144531
vt 4.558594 0.741943
vt 4.035156 0.270508
vt 4.675781 0.754761
vt 4.011719 0.152832
vt 4.632812 0.922058
vt 3.851562 0.214355
vt 4.523438 0.872925
vt 3.910156 0.318848
vt 4.449219 0.986565
vt 3.714844 0.323242
vt 4.535156 1.067139
vt 3.804688 0.403809
vt 4.339844 1.071716
vt 3.730469 0.517334
vt 4.402344 1.175781
vt 3.621094 0.468262
vt 4.214844 1.119995
vt 3.576172 0.635498
vt 4.238281 1.237427
vt 3.695312 0.648438
vt 4.066406 1.245972
vt 3.701172 0.784058
vt 4.078125 1.126587
vt 3.583984 0.808716
vt 3.949219 1.091125
vt 3.750000 0.911011
vt 3.900391 1.200684
vt 3.646484 0.970734
vt 3.753906 1.105774
vt 3.835938 1.016815
vt 1.097656 1.028015
vt 1.191406 1.153442
vt 0.748535 1.385742
vt 0.970215 0.937653
vt 1.241211 1.301514
vt 0.820801 0.891174
vt 1.243164 1.458008
vt 0.664062 0.893066
vt 1.196289 1.606934
vt 0.516113 0.943237
vt 1.106445 1.734863
vt 0.390869 1.036682
vt 0.980957 1.828125
vt 0.300537 1.164307
vt 0.833008 1.878418
vt 0.253906 1.313721
vt 0.676270 1.880371
vt 0.255859 1.469971
vt 0.526855 1.833984
vt 0.305908 1.618164
vt 0.399414 1.743652
vt -1.035156 1.769531
vt -1.035156 3.216797
vt -1.192383 1.769531
vt -1.192383 3.216797
vt -1.348633 1.769531
vt -1.348633 3.216797
vt -1.504883 1.769531
vt -1.504883 3.216797
vt -1.661133 1.769531
vt -1.661133 3.216797
vt -1.817383 1.769531
vt -1.817383 3.216797
vt -1.973633 1.769531
vt -1.973633 3.216797
vt -2.130859 1.769531
vt -2.130859 3.216797
vt -2.287109 1.769531
vt -2.287109 3.216797
vt -2.443359 1.769531
vt -2.443359 3.216797
vt -2.599609 1.769531
vt -2.599609 3.216797
vt -2.755859 1.769531
vt -2.755859 3.216797
vt -2.912109 1.769531
vt -2.912109 3.216797
vt -3.068359 1.769531
vt -3.068359 3.216797
vt -3.224609 1.769531
vt -3.224609 3.216797
vt -3.380859 1.769531
vt -3.380859 3.216797
vt -3.537109 1.769531
vt -3.537109 3.216797
vt -3.695312 1.769531
vt -3.695312 3.216797
vt -3.851562 1.769531
vt -3.851562 3.216797
vt -4.007812 1.769531
vt -4.007812 3.216797
vt -4.164062 1.769531
vt -4.164062 3.216797
vt1 0.287109 -0.472656
vt1 0.398438 -0.708008
vt1 1.085938 -0.239258
vt1 0.253906 -0.213867
vt1 0.577148 -0.897461
vt1 0.302246 0.041504
vt1 0.805664 -1.023438
vt1 0.427490 0.270020
vt1 1.061523 -1.070312
vt1 0.617188 0.448730
vt1 1.319336 -1.037109
vt1 0.852539 0.560059
vt1 1.555664 -0.926758
vt1 1.111328 0.593262
vt1 1.745117 -0.748047
vt1 1.367188 0.544922
vt1 1.870117 -0.519531
vt1 1.595703 0.419922
vt1 1.918945 -0.263672
vt1 1.774414 0.229980
vt1 1.885742 -0.004883
vt1 2.296875 2.056641
vt1 1.834961 1.879883
vt1 2.158203 1.719238
vt1 2.001953 2.190430
vt1 2.021484 1.487305
vt1 1.834961 1.879883
vt1 1.735352 1.618164
vt1 2.158203 1.719238
vt1 2.255859 1.499512
vt1 2.158203 1.719238
vt1 2.021484 1.487305
vt1 2.296875 2.056641
vt1 2.001953 2.190430
vt1 1.603516 1.817871
vt1 1.834961 1.879883
vt1 1.735352 1.618164
vt1 4.605469 0.419434
vt1 4.417969 0.373535
vt1 4.496094 0.284668
vt1 4.351562 0.189453
vt1 4.503906 0.479492
vt1 4.304688 0.299316
vt1 4.667969 0.581543
vt1 4.171875 0.263672
vt1 4.550781 0.606201
vt1 4.183594 0.144531
vt1 4.558594 0.741943
vt1 4.035156 0.270508
vt1 4.675781 0.754761
vt1 4.011719 0.152832
vt1 4.632812 0.922058
vt1 3.851562 0.214355
vt1 4.523438 0.872925
vt1 3.910156 0.318848
vt1 4.449219 0.986565
vt1 3.714844 0.323242
vt1 4.535156 1.067139
vt1 3.804688 0.403809
vt1 4.339844 1.071716
vt1 3.730469 0.517334
vt1 4.402344 1.175781
vt1 3.621094 0.468262
vt1 4.214844 1.119995
vt1 3.576172 0.635498
vt1 4.238281 1.237427
vt1 3.695312 0.648438
vt1 4.066406 1.245972
vt1 3.701172 0.784058
vt1 4.078125 1.126587
vt1 3.583984 0.808716
vt1 3.949219 1.091125
vt1 3.750000 0.911011
vt1 3.900391 1.200684
vt1 3.646484 0.970734
vt1 3.753906 1.105774
vt1 3.835938 1.016815
vt1 1.097656 1.028015
vt1 1.191406 1.153442
vt1 0.748535 1.385742
vt1 0.970215 0.937653
vt1 1.241211 1.301514
vt1 0.820801 0.891174
vt1 1.243164 1.458008
vt1 0.664062 0.893066
vt1 1.196289 1.606934
vt1 0.516113 0.943237
vt1 1.106445 1.734863
vt1 0.390869 1.036682
vt1 0.980957 1.828125
vt1 0.300537 1.164307
vt1 0.833008 1.878418
vt1 0.253906 1.313721
vt1 0.676270 1.880371
vt1 0.255859 1.469971
vt1 0.526855 1.833984
vt1 0.305908 1.618164
vt1 0.399414 1.743652
vt1 -1.035156 1.769531
vt1 -1.035156 3.216797
vt1 -1.192383 1.769531
vt1 -1.192383 3.216797
vt1 -1.348633 1.769531
vt1 -1.348633 3.216797
vt1 -1.504883 1.769531
vt1 -1.504883 3.216797
vt1 -1.661133 1.769531
vt1 -1.661133 3.216797
vt1 -1.817383 1.769531
vt1 -1.817383 3.216797
vt1 -1.973633 1.769531
vt1 -1.973633 3.216797
vt1 -2.130859 1.769531
vt1 -2.130859 3.216797
vt1 -2.287109 1.769531
vt1 -2.287109 3.216797
vt1 -2.443359 1.769531
vt1 -2.443359 3.216797
vt1 -2.599609 1.769531
vt1 -2.599609 3.216797
vt1 -2.755859 1.769531
vt1 -2.755859 3.216797
vt1 -2.912109 1.769531
vt1 -2.912109 3.216797
vt1 -3.068359 1.769531
vt1 -3.068359 3.216797
vt1 -3.224609 1.769531
vt1 -3.224609 3.216797
vt1 -3.380859 1.769531
vt1 -3.380859 3.216797
vt1 -3.537109 1.769531
vt1 -3.537109 3.216797
vt1 -3.695312 1.769531
vt1 -3.695312 3.216797
vt1 -3.851562 1.769531
vt1 -3.851562 3.216797
vt1 -4.007812 1.769531
vt1 -4.007812 3.216797
vt1 -4.164062 1.769531
vt1 -4.164062 3.216797
vn 0.850394 0.448819 0.275590
vn 0.724409 0.448819 0.527559
vn 0.000000 1.000000 -0.000000
vn 0.897638 0.448819 -0.000000
vn 0.527559 0.448819 0.724409
vn 0.850394 0.448819 -0.275591
vn 0.275591 0.448819 0.850394
vn 0.724409 0.448819 -0.527559
vn 0.000000 0.448819 0.897638
vn 0.527559 0.448819 -0.724409
vn -0.275591 0.448819 0.850394
vn 0.275591 0.448819 -0.850394
vn -0.527559 0.448819 0.724409
vn 0.000000 0.448819 -0.897638
vn -0.724409 0.448819 0.527559
vn -0.275591 0.448819 -0.850394
vn -0.850394 0.448819 0.275590
vn -0.527559 0.448819 -0.724409
vn -0.897638 0.448819 -0.000000
vn -0.724409 0.448819 -0.527559
vn -0.850394 0.448819 -0.275591
vn -0.291339 -0.960630 0.000000
vn -0.291339 -0.960630 0.000000
vn -0.291339 -0.960630 0.000000
vn -0.291339 -0.960630 0.000000
vn -0.598425 -0.803149 0.000000
vn -0.598425 -0.803149 0.000000
vn -0.598425 -0.803149 0.000000
vn -0.598425 -0.803149 0.000000
vn 0.000000 -0.000000 -1.000000
vn 0.000000 -0.000000 -1.000000
vn 0.000000 -0.000000 -1.000000
vn 0.000000 -0.000000 -1.000000
vn 0.000000 0.000000 1.000000
vn 0.000000 0.000000 1.000000
vn 0.000000 0.000000 1.000000
vn 0.000000 0.000000 1.000000
vn 0.000000 -1.000000 0.000000
vn 0.000000 -1.000000 0.000000
vn 0.000000 -1.000000 0.000000
vn 0.000000 -1.000000 0.000000
vn 0.000000 -1.000000 0.000000
vn 0.000000 -1.000000 0.000000
vn 0.000000 -1.000000 0.000000
vn 0.000000 -1.000000 0.000000
vn 0.000000 -1.000000 0.000000
vn 0.000000 -1.000000 0.000000
vn 0.000000 -1.000000 0.000000
vn 0.000000 -1.000000 0.000000
vn 0.000000 -1.000000 0.000000
vn 0.000000 -1.000000 0.000000
vn 0.000000 -1.000000 0.000000
vn 0.000000 -1.000000 0.000000
vn 0.000000 -1.000000 0.000000
vn 0.000000 -1.000000 0.000000
vn 0.000000 -1.000000 0.000000
vn 0.000000 -1.000000 0.000000
vn 0.000000 -1.000000 0.000000
vn 0.000000 -1.000000 0.000000
vn 0.000000 -1.000000 0.000000
vn 0.000000 -1.000000 0.000000
vn 0.000000 -1.000000 0.000000
vn 0.000000 -1.000000 0.000000
vn 0.000000 -1.000000 0.000000
vn 0.000000 -1.000000 0.000000
vn 0.000000 -1.000000 0.000000
vn 0.000000 -1.000000 0.000000
vn 0.000000 -1.000000 0.000000
vn 0.000000 -1.000000 0.000000
vn 0.000000 -1.000000 0.000000
vn 0.000000 -1.000000 0.000000
vn 0.000000 -1.000000 0.000000
vn 0.000000 -1.000000 0.000000
vn 0.000000 -1.000000 0.000000
vn 0.000000 -1.000000 0.000000
vn 0.000000 -1.000000 0.000000
vn 0.000000 -1.000000 0.000000
vn 0.000000 -1.000000 0.000000
vn 0.000000 -1.000000 0.000000
vn 0.000000 -1.000000 0.000000
vn 0.000000 -1.000000 0.000000
vn 0.000000 -1.000000 0.000000
vn 0.000000 -1.000000 0.000000
vn 0.000000 -1.000000 0.000000
vn 0.000000 -1.000000 0.000000
vn 0.000000 -1.000000 0.000000
vn 0.000000 -1.000000 0.000000
vn 0.000000 -1.000000 0.000000
vn 0.000000 -1.000000 0.000000
vn 0.000000 -1.000000 0.000000
vn 0.000000 -1.000000 0.000000
vn 0.000000 -1.000000 0.000000
vn 0.000000 -1.000000 0.000000
vn 0.000000 -1.000000 0.000000
vn 0.000000 -1.000000 0.000000
vn 0.000000 -1.000000 0.000000
vn 0.000000 -1.000000 0.000000
vn 0.000000 -1.000000 0.000000
vn 1.000000 0.000000 0.000000
vn 1.000000 0.000000 0.000000
vn 0.952756 -0.000000 -0.307087
vn 0.952756 -0.000000 -0.307087
vn 0.811024 -0.000000 -0.590551
vn 0.811024 -0.000000 -0.590551
vn 0.590551 -0.000000 -0.811023
vn 0.590551 -0.000000 -0.811023
vn 0.307087 -0.000000 -0.952756
vn 0.307087 -0.000000 -0.952756
vn 0.000000 -0.000000 -1.000000
vn 0.000000 -0.000000 -1.000000
vn -0.307087 -0.000000 -0.952756
vn -0.307087 -0.000000 -0.952756
vn -0.590551 -0.000000 -0.811023
vn -0.590551 -0.000000 -0.811023
vn -0.811024 -0.000000 -0.590551
vn -0.811024 -0.000000 -0.590551
vn -0.952756 -0.000000 -0.307087
vn -0.952756 -0.000000 -0.307087
vn -1.000000 0.000000 0.000000
vn -1.000000 0.000000 0.000000
vn -0.952756 0.000000 0.307087
vn -0.952756 0.000000 0.307087
vn -0.811024 0.000000 0.590551
vn -0.811024 0.000000 0.590551
vn -0.590551 0.000000 0.811023
vn -0.590551 0.000000 0.811023
vn -0.307087 0.000000 0.952756
vn -0.307087 0.000000 0.952756
vn 0.000000 0.000000 1.000000
vn 0.000000 0.000000 1.000000
vn 0.307087 0.000000 0.952756
vn 0.307087 0.000000 0.952756
vn 0.590551 0.000000 0.811023
vn 0.590551 0.000000 0.811023
vn 0.811024 0.000000 0.590551
vn 0.811024 0.000000 0.590551
vn 0.952756 0.000000 0.307087
vn 0.952756 0.000000 0.307087
vn 1.000000 0.000000 0.000000
vn 1.000000 0.000000 0.000000
tan -0.252279 -0.114638 0.965156 1.000000
tan -0.459855 -0.262756 0.854982 1.000000
tan -0.031496 0.000000 1.000000 1.000000
tan -0.007068 0.014136 1.007192 1.000000
tan -0.566061 -0.453717 0.693347 1.000000
tan 0.235972 0.143592 0.961994 1.000000
tan -0.469093 -0.712133 0.527869 1.000000
tan 0.437411 0.293881 0.850642 1.000000
tan -0.060078 -0.897638 0.448819 1.000000
tan 0.525575 0.497303 0.690867 1.000000
tan 0.384091 -0.760803 0.526009 1.000000
tan 0.384091 0.760803 0.526009 1.000000
tan 0.525575 -0.497303 0.690867 1.000000
tan -0.060078 0.897638 0.448819 1.000000
tan 0.437411 -0.293880 0.850642 1.000000
tan -0.469093 0.712133 0.527869 1.000000
tan 0.235972 -0.143592 0.961994 1.000000
tan -0.566061 0.453717 0.693347 1.000000
tan -0.007068 -0.014136 1.007192 1.000000
tan -0.459855 0.262757 0.854982 1.000000
tan -0.252279 0.114638 0.965156 1.000000
tan 0.862298 -0.261517 -0.437597 1.000000
tan 0.862298 -0.261517 -0.437597 1.000000
tan 0.854734 -0.259223 -0.455019 1.000000
tan 0.869862 -0.263811 -0.420175 1.000000
tan 0.720937 -0.537169 -0.440077 1.000000
tan 0.727261 -0.541881 -0.422717 1.000000
tan 0.746233 -0.556017 -0.372249 1.000000
tan 0.701965 -0.523033 -0.484221 1.000000
tan 1.000000 -0.015748 0.000000 1.000000
tan 1.000000 0.015748 -0.000000 1.000000
tan 1.000000 -0.047244 0.000000 1.000000
tan 1.000000 0.047244 -0.000000 1.000000
tan 0.645669 -0.763779 0.000000 1.000000
tan 0.645669 -0.763779 0.000000 1.000000
tan 0.645669 -0.763779 0.000000 1.000000
tan 0.653543 -0.755905 0.000000 1.000000
tan 0.204724 0.000000 0.976378 1.000000
tan 0.204724 0.000000 0.976378 1.000000
tan 0.204724 0.000000 0.976378 1.000000
tan 0.204724 0.000000 0.976378 1.000000
tan 0.204724 0.000000 0.976378 1.000000
tan 0.204724 0.000000 0.976378 1.000000
tan 0.204724 0.000000 0.976378 1.000000
tan 0.204724 0.000000 0.976378 1.000000
tan 0.204724 0.000000 0.976378 1.000000
tan 0.204724 0.000000 0.976378 1.000000
tan 0.204724 0.000000 0.976378 1.000000
tan 0.204724 0.000000 0.976378 1.000000
tan 0.204724 0.000000 0.976378 1.000000
tan 0.204724 0.000000 0.976378 1.000000
tan 0.204724 0.000000 0.976378 1.000000
tan 0.204724 0.000000 0.976378 1.000000
tan 0.204724 0.000000 0.976378 1.000000
tan 0.204724 0.000000 0.976378 1.000000
tan 0.204724 0.000000 0.976378 1.000000
tan 0.204724 0.000000 0.976378 1.000000
tan 0.204724 0.000000 0.976378 1.000000
tan 0.204724 0.000000 0.976378 1.000000
tan 0.204724 0.000000 0.976378 1.000000
tan 0.204724 0.000000 0.976378 1.000000
tan 0.204724 0.000000 0.976378 1.000000
tan 0.204724 0.000000 0.976378 1.000000
tan 0.204724 0.000000 0.976378 1.000000
tan 0.204724 0.000000 0.976378 1.000000
tan 0.204724 0.000000 0.976378 1.000000
tan 0.204724 0.000000 0.976378 1.000000
tan 0.204724 0.000000 0.976378 1.000000
tan 0.204724 0.000000 0.976378 1.000000
tan 0.204724 0.000000 0.976378 1.000000
tan 0.204724 0.000000 0.976378 1.000000
tan 0.204724 0.000000 0.976378 1.000000
tan 0.204724 0.000000 0.976378 1.000000
tan 0.204724 0.000000 0.976378 1.000000
tan 0.204724 0.000000 0.976378 1.000000
tan 0.204724 0.000000 0.976378 1.000000
tan 0.204724 0.000000 0.976378 1.000000
tan 0.165354 0.000000 0.984252 1.000000
tan 0.165354 0.000000 0.984252 1.000000
tan 0.165354 0.000000 0.984252 1.000000
tan 0.165354 0.000000 0.984252 1.000000
tan 0.165354 0.000000 0.984252 1.000000
tan 0.165354 0.000000 0.984252 1.000000
tan 0.165354 0.000000 0.984252 1.000000
tan 0.165354 0.000000 0.984252 1.000000
tan 0.165354 0.000000 0.984252 1.000000
tan 0.165354 0.000000 0.984252 1.000000
tan 0.165354 0.000000 0.984252 1.000000
tan 0.165354 0.000000 0.984252 1.000000
tan 0.165354 0.000000 0.984252 1.000000
tan 0.165354 0.000000 0.984252 1.000000
tan 0.165354 0.000000 0.984252 1.000000
tan 0.165354 0.000000 0.984252 1.000000
tan 0.165354 0.000000 0.984252 1.000000
tan 0.165354 0.000000 0.984252 1.000000
tan 0.165354 0.000000 0.984252 1.000000
tan 0.165354 0.000000 0.984252 1.000000
tan 0.165354 0.000000 0.984252 1.000000
tan 0.000000 -1.000000 0.000000 1.000000
tan 0.000000 -1.000000 0.000000 1.000000
tan 0.000000 -1.002046 0.000000 1.000000
tan 0.000000 -1.002046 0.000000 1.000000
tan 0.000000 -1.006510 0.000000 1.000000
tan 0.000000 -1.006510 0.000000 1.000000
tan 0.000000 -1.006510 0.000000 1.000000
tan 0.000000 -1.006510 0.000000 1.000000
tan 0.000000 -1.002046 0.000000 1.000000
tan 0.000000 -1.002046 0.000000 1.000000
tan 0.000000 -1.000000 0.000000 1.000000
tan 0.000000 -1.000000 0.000000 1.000000
tan 0.000000 -1.002046 0.000000 1.000000
tan 0.000000 -1.002046 0.000000 1.000000
tan 0.000000 -1.006510 0.000000 1.000000
tan 0.000000 -1.006510 0.000000 1.000000
tan 0.000000 -1.006510 0.000000 1.000000
tan 0.000000 -1.006510 0.000000 1.000000
tan 0.000000 -1.002046 0.000000 1.000000
tan 0.000000 -1.002046 0.000000 1.000000
tan 0.000000 -1.000000 0.000000 1.000000
tan 0.000000 -1.000000 0.000000 1.000000
tan 0.000000 -1.002046 0.000000 1.000000
tan 0.000000 -1.002046 0.000000 1.000000
tan 0.000000 -1.006510 0.000000 1.000000
tan 0.000000 -1.006510 0.000000 1.000000
tan 0.000000 -1.006510 0.000000 1.000000
tan 0.000000 -1.006510 0.000000 1.000000
tan 0.000000 -1.002046 0.000000 1.000000
tan 0.000000 -1.002046 0.000000 1.000000
tan 0.000000 -1.000000 0.000000 1.000000
tan 0.000000 -1.000000 0.000000 1.000000
tan 0.000000 -1.002046 0.000000 1.000000
tan 0.000000 -1.002046 0.000000 1.000000
tan 0.000000 -1.006510 0.000000 1.000000
tan 0.000000 -1.006510 0.000000 1.000000
tan 0.000000 -1.006510 0.000000 1.000000
tan 0.000000 -1.006510 0.000000 1.000000
tan 0.000000 -1.002046 0.000000 1.000000
tan 0.000000 -1.002046 0.000000 1.000000
tan 0.000000 -1.000000 0.000000 1.000000
tan 0.000000 -1.000000 0.000000 1.000000
f 3/3/3 2/2/2 1/1/1
f 3/3/3 1/1/1 4/4/4
f 3/3/3 5/5/5 2/2/2
f 3/3/3 4/4/4 6/6/6
f 3/3/3 7/7/7 5/5/5
f 3/3/3 6/6/6 8/8/8
f 3/3/3 9/9/9 7/7/7
f 3/3/3 8/8/8 10/10/10
f 3/3/3 11/11/11 9/9/9
f 3/3/3 10/10/10 12/12/12
f 3/3/3 13/13/13 11/11/11
f 3/3/3 12/12/12 14/14/14
f 3/3/3 15/15/15 13/13/13
f 3/3/3 14/14/14 16/16/16
f 3/3/3 17/17/17 15/15/15
f 3/3/3 16/16/16 18/18/18
f 3/3/3 19/19/19 17/17/17
f 3/3/3 18/18/18 20/20/20
f 3/3/3 21/21/21 19/19/19
f 3/3/3 20/20/20 21/21/21
f 24/24/24 23/23/23 22/22/22
f 25/25/25 22/22/22 23/23/23
f 28/28/28 27/27/27 26/26/26
f 29/29/29 26/26/26 27/27/27
f 32/32/32 31/31/31 30/30/30
f 31/31/31 33/33/33 30/30/30
f 36/36/36 35/35/35 34/34/34
f 35/35/35 36/36/36 37/37/37
f 40/40/40 39/39/39 38/38/38
f 39/39/39 40/40/40 41/41/41
f 42/42/42 38/38/38 39/39/39
f 43/43/43 39/39/39 41/41/41
f 38/38/38 42/42/42 44/44/44
f 43/43/43 41/41/41 45/45/45
f 46/46/46 44/44/44 42/42/42
f 47/47/47 45/45/45 41/41/41
f 46/46/46 48/48/48 44/44/44
f 45/45/45 47/47/47 49/49/49
f 50/50/50 44/44/44 48/48/48
f 51/51/51 49/49/49 47/47/47
f 50/50/50 48/48/48 52/52/52
f 51/51/51 53/53/53 49/49/49
f 54/54/54 52/52/52 48/48/48
f 55/55/55 49/49/49 53/53/53
f 52/52/52 54/54/54 56/56/56
f 53/53/53 57/57/57 55/55/55
f 56/56/56 58/58/58 52/52/52
f 59/59/59 55/55/55 57/57/57
f 60/60/60 58/58/58 56/56/56
f 59/59/59 57/57/57 61/61/61
f 60/60/60 62/62/62 58/58/58
f 63/63/63 61/61/61 57/57/57
f 60/60/60 64/64/64 62/62/62
f 65/65/65 61/61/61 63/63/63
f 64/64/64 66/66/66 62/62/62
f 67/67/67 61/61/61 65/65/65
f 66/66/66 64/64/64 68/68/68
f 67/67/67 65/65/65 69/69/69
f 70/70/70 68/68/68 64/64/64
f 71/71/71 69/69/69 65/65/65
f 70/70/70 72/72/72 68/68/68
f 69/69/69 71/71/71 73/73/73
f 74/74/74 68/68/68 72/72/72
f 75/75/75 73/73/73 71/71/71
f 74/74/74 72/72/72 76/76/76
f 73/73/73 75/75/75 76/76/76
f 77/77/77 76/76/76 72/72/72
f 76/76/76 77/77/77 73/73/73
f 80/80/80 79/79/79 78/78/78
f 80/80/80 78/78/78 81/81/81
f 80/80/80 82/82/82 79/79/79
f 80/80/80 81/81/81 83/83/83
f 80/80/80 84/84/84 82/82/82
f 80/80/80 83/83/83 85/85/85
f 80/80/80 86/86/86 84/84/84
f 80/80/80 85/85/85 87/87/87
f 80/80/80 88/88/88 86/86/86
f 80/80/80 87/87/87 89/89/89
f 80/80/80 90/90/90 88/88/88
f 80/80/80 89/89/89 91/91/91
f 80/80/80 92/92/92 90/90/90
f 80/80/80 91/91/91 93/93/93
f 80/80/80 94/94/94 92/92/92
f 80/80/80 93/93/93 95/95/95
f 80/80/80 96/96/96 94/94/94
f 80/80/80 95/95/95 97/97/97
f 80/80/80 98/98/98 96/96/96
f 80/80/80 97/97/97 98/98/98
f 101/101/101 100/100/100 99/99/99
f 100/100/100 101/101/101 102/102/102
f 103/103/103 102/102/102 101/101/101
f 102/102/102 103/103/103 104/104/104
f 103/103/103 105/105/105 104/104/104
f 104/104/104 105/105/105 106/106/106
f 105/105/105 107/107/107 106/106/106
f 106/106/106 107/107/107 108/108/108
f 107/107/107 109/109/109 108/108/108
f 108/108/108 109/109/109 110/110/110
f 109/109/109 111/111/111 110/110/110
f 110/110/110 111/111/111 112/112/112
f 111/111/111 113/113/113 112/112/112
f 112/112/112 113/113/113 114/114/114
f 113/113/113 115/115/115 114/114/114
f 114/114/114 115/115/115 116/116/116
f 115/115/115 117/117/117 116/116/116
f 118/118/118 116/116/116 117/117/117
f 117/117/117 119/119/119 118/118/118
f 120/120/120 118/118/118 119/119/119
f 119/119/119 121/121/121 120/120/120
f 122/122/122 120/120/120 121/121/121
f 121/121/121 123/123/123 122/122/122
f 124/124/124 122/122/122 123/123/123
f 123/123/123 125/125/125 124/124/124
f 126/126/126 124/124/124 125/125/125
f 125/125/125 127/127/127 126/126/126
f 128/128/128 126/126/126 127/127/127
f 127/127/127 129/129/129 128/128/128
f 130/130/130 128/128/128 129/129/129
f 129/129/129 131/131/131 130/130/130
f 132/132/132 130/130/130 131/131/131
f 131/131/131 133/133/133 132/132/132
f 134/134/134 132/132/132 133/133/133
f 135/135/135 134/134/134 133/133/133
f 134/134/134 135/135/135 136/136/136
f 137/137/137 136/136/136 135/135/135
f 136/136/136 137/137/137 138/138/138
f 139/139/139 138/138/138 137/137/137
f 138/138/138 139/139/139 140/140/140
