mtllib SM_Mansion_Tower_Base_LOD1@000002909DC43200.mtl
g SM_Mansion_Tower_Base_LOD1@000002909DC43200
#Vertices 132
#Indices 198
#Section 0 Offset 0 NumIndices 6 MaterialIndex 0 MI_FloorTile_A_01
#Section 1 Offset 6 NumIndices 102 MaterialIndex 1 MI_ConcreteTile_01
#Section 2 Offset 108 NumIndices 24 MaterialIndex 2 MI_BrickTile_A_01
#Section 3 Offset 132 NumIndices 66 MaterialIndex 3 MI_ConcreteTrim_A_01
v -7.034062 0.499999 -6.999997 0.000000 0.000000 1.000000 1.000000
v 7.034065 0.499999 -6.999997 0.000000 0.000000 1.000000 1.000000
v -7.034062 0.500001 7.000001 0.000000 0.000000 1.000000 1.000000
v 7.034065 0.500001 7.000001 0.000000 0.000000 1.000000 1.000000
v 7.034065 1.499999 -6.999997 0.000000 0.000000 1.000000 1.000000
v 8.434079 1.510683 8.443391 0.000000 0.000000 1.000000 1.000000
v 7.034065 1.500001 7.000001 0.000000 0.000000 1.000000 1.000000
v 8.481365 1.525881 -8.438233 0.000000 0.000000 1.000000 1.000000
v 7.034065 1.499999 -6.999997 0.000000 0.000000 1.000000 1.000000
v -8.391683 1.499999 -8.368829 0.000000 0.000000 1.000000 1.000000
v 7.034065 1.499999 -6.999997 0.000000 0.000000 1.000000 1.000000
v -7.034062 1.499999 -6.999997 0.000000 0.000000 1.000000 1.000000
v -8.453898 1.507192 8.433973 0.000000 0.000000 1.000000 1.000000
v -7.034062 1.500001 7.000001 0.000000 0.000000 1.000000 1.000000
v 8.811277 0.377482 -8.811269 0.000000 1.000000 0.000000 1.000000
v 8.870881 0.387991 8.874278 0.000000 1.000000 0.000000 1.000000
v 7.616181 0.377484 7.499999 0.000000 0.129412 0.870588 1.000000
v 8.811277 0.377482 -8.811269 0.000000 1.000000 0.000000 1.000000
v 7.616181 0.377482 -7.499998 0.000000 0.470588 0.529412 1.000000
v -7.616179 0.377482 -7.499998 0.000000 0.000000 1.000000 1.000000
v -8.862192 0.394759 8.872402 0.000000 1.000000 0.000000 1.000000
v -7.616179 0.377482 -7.499998 0.000000 0.000000 1.000000 1.000000
v -7.616179 0.377484 7.499999 0.000000 0.227451 0.772549 1.000000
v -8.874353 0.381738 -8.873749 0.000000 1.000000 0.000000 1.000000
v -7.616179 0.377482 -7.499998 0.000000 0.000000 1.000000 1.000000
v 8.811277 0.377482 -8.811269 0.000000 1.000000 0.000000 1.000000
v 7.034065 1.499999 -6.999997 0.000000 0.000000 1.000000 1.000000
v 7.034065 1.500001 7.000001 0.000000 0.000000 1.000000 1.000000
v 7.034065 0.499999 -6.999997 0.000000 0.000000 1.000000 1.000000
v 7.034065 0.500001 7.000001 0.000000 0.000000 1.000000 1.000000
v -7.034062 1.500001 7.000001 0.000000 0.000000 1.000000 1.000000
v 7.034065 0.500001 7.000001 0.000000 0.000000 1.000000 1.000000
v 7.034065 1.500001 7.000001 0.000000 0.000000 1.000000 1.000000
v -7.034062 0.500001 7.000001 0.000000 0.000000 1.000000 1.000000
v -7.034062 0.499999 -6.999997 0.000000 0.000000 1.000000 1.000000
v -7.034062 1.500001 7.000001 0.000000 0.000000 1.000000 1.000000
v -7.034062 1.499999 -6.999997 0.000000 0.000000 1.000000 1.000000
v -7.034062 0.500001 7.000001 0.000000 0.000000 1.000000 1.000000
v 7.034065 0.499999 -6.999997 0.000000 0.000000 1.000000 1.000000
v -7.034062 0.499999 -6.999997 0.000000 0.000000 1.000000 1.000000
v -7.034062 1.499999 -6.999997 0.000000 0.000000 1.000000 1.000000
v 7.034065 1.499999 -6.999997 0.000000 0.000000 1.000000 1.000000
v -8.391683 1.000003 8.368830 0.000000 0.000000 1.000000 1.000000
v 8.491567 0.954155 8.447307 0.000000 0.000000 1.000000 1.000000
v 7.616181 1.000003 7.499999 0.000000 0.000000 1.000000 1.000000
v -7.616179 1.000003 7.499999 0.000000 0.000000 1.000000 1.000000
v -7.034062 1.500001 7.000001 0.000000 0.000000 1.000000 1.000000
v 7.034065 1.500001 7.000001 0.000000 0.000000 1.000000 1.000000
v 8.434079 1.510683 8.443391 0.000000 0.000000 1.000000 1.000000
v -8.453898 1.507192 8.433973 0.000000 0.000000 1.000000 1.000000
v -7.616179 0.377484 7.499999 0.000000 0.227451 0.772549 1.000000
v 7.616181 0.377484 7.499999 0.000000 0.129412 0.870588 1.000000
v 8.870881 0.387991 8.874278 0.000000 1.000000 0.000000 1.000000
v -8.862192 0.394759 8.872402 0.000000 1.000000 0.000000 1.000000
v -8.876806 -0.007447 -8.882061 0.000000 1.000000 0.000000 1.000000
v -8.868942 -0.002175 8.865781 0.000000 1.000000 0.000000 1.000000
v 8.866440 -0.000671 -8.864050 0.000000 1.000000 0.000000 1.000000
v 8.879446 -0.004498 8.866870 0.000000 1.000000 0.000000 1.000000
v -8.457324 0.989012 -8.437530 0.000000 0.000000 1.000000 1.000000
v -8.391683 1.000003 8.368830 0.000000 0.000000 1.000000 1.000000
v -7.616179 1.000003 7.499999 0.000000 0.000000 1.000000 1.000000
v -7.616179 1.000001 -7.499998 0.000000 0.000000 1.000000 1.000000
v 8.455560 0.988584 -8.442564 0.000000 0.000000 1.000000 1.000000
v 7.616181 1.000001 -7.499998 0.000000 0.000000 1.000000 1.000000
v 7.616181 1.000003 7.499999 0.000000 0.000000 1.000000 1.000000
v 8.491567 0.954155 8.447307 0.000000 0.000000 1.000000 1.000000
v -7.616179 1.000001 -7.499998 0.000000 0.000000 1.000000 1.000000
v -7.616179 0.377484 7.499999 0.000000 0.227451 0.772549 1.000000
v -7.616179 0.377482 -7.499998 0.000000 0.000000 1.000000 1.000000
v -7.616179 1.000003 7.499999 0.000000 0.000000 1.000000 1.000000
v -7.616179 1.000003 7.499999 0.000000 0.000000 1.000000 1.000000
v 7.616181 1.000003 7.499999 0.000000 0.000000 1.000000 1.000000
v -7.616179 0.377484 7.499999 0.000000 0.227451 0.772549 1.000000
v 7.616181 0.377484 7.499999 0.000000 0.129412 0.870588 1.000000
v 7.616181 1.000003 7.499999 0.000000 0.000000 1.000000 1.000000
v 7.616181 1.000001 -7.499998 0.000000 0.000000 1.000000 1.000000
v 7.616181 0.377482 -7.499998 0.000000 0.470588 0.529412 1.000000
v 7.616181 0.377484 7.499999 0.000000 0.129412 0.870588 1.000000
v -7.616179 1.000001 -7.499998 0.000000 0.000000 1.000000 1.000000
v 7.616181 0.377482 -7.499998 0.000000 0.470588 0.529412 1.000000
v 7.616181 1.000001 -7.499998 0.000000 0.000000 1.000000 1.000000
v -7.616179 0.377482 -7.499998 0.000000 0.000000 1.000000 1.000000
v 8.491567 0.954155 8.447307 0.000000 0.000000 1.000000 1.000000
v -8.391683 1.000003 8.368830 0.000000 0.000000 1.000000 1.000000
v -8.568729 1.027373 8.547817 0.000000 0.000000 1.000000 1.000000
v -8.559694 1.469181 -8.544119 0.000000 0.000000 1.000000 1.000000
v 8.481365 1.525881 -8.438233 0.000000 0.000000 1.000000 1.000000
v -8.391683 1.499999 -8.368829 0.000000 0.000000 1.000000 1.000000
v 8.971979 0.339230 -8.967410 0.000000 1.000000 0.000000 1.000000
v 8.870881 0.387991 8.874278 0.000000 1.000000 0.000000 1.000000
v 8.811277 0.377482 -8.811269 0.000000 1.000000 0.000000 1.000000
v -8.457324 0.989012 -8.437530 0.000000 0.000000 1.000000 1.000000
v -8.568729 1.027373 8.547817 0.000000 0.000000 1.000000 1.000000
v -8.391683 1.000003 8.368830 0.000000 0.000000 1.000000 1.000000
v -8.453898 1.507192 8.433973 0.000000 0.000000 1.000000 1.000000
v -8.559694 1.469181 -8.544119 0.000000 0.000000 1.000000 1.000000
v -8.391683 1.499999 -8.368829 0.000000 0.000000 1.000000 1.000000
v 8.811277 0.377482 -8.811269 0.000000 1.000000 0.000000 1.000000
v -8.874353 0.381738 -8.873749 0.000000 1.000000 0.000000 1.000000
v 8.971979 0.339230 -8.967410 0.000000 1.000000 0.000000 1.000000
v 8.491567 0.954155 8.447307 0.000000 0.000000 1.000000 1.000000
v -8.568729 1.027373 8.547817 0.000000 0.000000 1.000000 1.000000
v 8.434079 1.510683 8.443391 0.000000 0.000000 1.000000 1.000000
v -8.453898 1.507192 8.433973 0.000000 0.000000 1.000000 1.000000
v 8.481365 1.525881 -8.438233 0.000000 0.000000 1.000000 1.000000
v -8.559694 1.469181 -8.544119 0.000000 0.000000 1.000000 1.000000
v 8.455560 0.988584 -8.442564 0.000000 0.000000 1.000000 1.000000
v -8.457324 0.989012 -8.437530 0.000000 0.000000 1.000000 1.000000
v 8.971979 0.339230 -8.967410 0.000000 1.000000 0.000000 1.000000
v 8.879446 -0.004498 8.866870 0.000000 1.000000 0.000000 1.000000
v 8.870881 0.387991 8.874278 0.000000 1.000000 0.000000 1.000000
v 8.866440 -0.000671 -8.864050 0.000000 1.000000 0.000000 1.000000
v 8.455560 0.988584 -8.442564 0.000000 0.000000 1.000000 1.000000
v 8.491567 0.954155 8.447307 0.000000 0.000000 1.000000 1.000000
v 8.481365 1.525881 -8.438233 0.000000 0.000000 1.000000 1.000000
v 8.434079 1.510683 8.443391 0.000000 0.000000 1.000000 1.000000
v -8.559694 1.469181 -8.544119 0.000000 0.000000 1.000000 1.000000
v -8.568729 1.027373 8.547817 0.000000 0.000000 1.000000 1.000000
v -8.457324 0.989012 -8.437530 0.000000 0.000000 1.000000 1.000000
v -8.453898 1.507192 8.433973 0.000000 0.000000 1.000000 1.000000
v 8.879446 -0.004498 8.866870 0.000000 1.000000 0.000000 1.000000
v -8.868942 -0.002175 8.865781 0.000000 1.000000 0.000000 1.000000
v 8.870881 0.387991 8.874278 0.000000 1.000000 0.000000 1.000000
v -8.862192 0.394759 8.872402 0.000000 1.000000 0.000000 1.000000
v 8.971979 0.339230 -8.967410 0.000000 1.000000 0.000000 1.000000
v -8.874353 0.381738 -8.873749 0.000000 1.000000 0.000000 1.000000
v -8.876806 -0.007447 -8.882061 0.000000 1.000000 0.000000 1.000000
v 8.866440 -0.000671 -8.864050 0.000000 1.000000 0.000000 1.000000
v -8.874353 0.381738 -8.873749 0.000000 1.000000 0.000000 1.000000
v -8.862192 0.394759 8.872402 0.000000 1.000000 0.000000 1.000000
v -8.876806 -0.007447 -8.882061 0.000000 1.000000 0.000000 1.000000
v -8.868942 -0.002175 8.865781 0.000000 1.000000 0.000000 1.000000
vt 2.068359 -3.273438
vt 2.068359 -1.513672
vt 0.320068 -3.273438
vt 0.320068 -1.513672
vt -1.291016 3.730469
vt -3.130859 3.912109
vt -3.121094 3.730469
vt -1.292969 3.916016
vt -1.291016 3.730469
vt 0.676758 3.906250
vt -1.291016 3.730469
vt 0.676758 3.730469
vt 2.515625 3.914062
vt 2.507812 3.730469
vt 0.553711 4.130859
vt 2.486328 4.121094
vt 2.486328 4.294922
vt 0.553711 4.130859
vt 0.555664 4.294922
vt -1.555664 4.294922
vt -3.492188 4.123047
vt -1.555664 4.294922
vt -3.484375 4.294922
vt -1.554688 4.121094
vt -1.555664 4.294922
vt 0.553711 4.130859
vt -1.291016 3.730469
vt -3.121094 3.730469
vt -1.291016 3.591797
vt -3.121094 3.591797
vt 2.507812 3.730469
vt -3.121094 3.591797
vt -3.121094 3.730469
vt 2.507812 3.591797
vt 0.676758 3.591797
vt 2.507812 3.730469
vt 0.676758 3.730469
vt 2.507812 3.591797
vt -1.291016 3.591797
vt 0.676758 3.591797
vt 0.676758 3.730469
vt -1.291016 3.730469
vt 2.509766 3.353516
vt -3.132812 3.345703
vt -3.121094 3.457031
vt 2.507812 3.457031
vt 2.507812 3.730469
vt -3.121094 3.730469
vt -3.138672 3.916016
vt 2.507812 3.914062
vt -3.484375 4.294922
vt 2.486328 4.294922
vt 2.509766 4.123047
vt -3.484375 4.123047
vt -6.816406 3.304688
vt -6.812500 1.139282
vt -4.648438 3.302734
vt -4.648438 1.139160
vt 0.669922 3.345703
vt 2.509766 3.353516
vt 2.507812 3.457031
vt 0.676758 3.457031
vt -1.289062 3.345703
vt -1.291016 3.457031
vt -3.121094 3.457031
vt -3.121094 3.339844
vt 0.445068 -1.029297
vt 2.318359 -0.951172
vt 0.445068 -0.951172
vt 2.318359 -1.029297
vt 2.318359 -1.029297
vt -3.332031 -1.029297
vt 2.318359 -0.951172
vt -3.332031 -0.951172
vt -3.332031 -1.029297
vt -1.458008 -1.029297
vt -1.458008 -0.951172
vt -3.332031 -0.951172
vt 0.445068 -1.029297
vt -1.458008 -0.951172
vt -1.458008 -1.029297
vt 0.445068 -0.951172
vt -13.218750 0.801270
vt -7.589844 0.801636
vt -7.589844 0.800537
vt -9.421875 0.750244
vt -11.390625 0.733154
vt -9.421875 0.723633
vt 0.566406 0.684570
vt 2.505859 0.711670
vt 0.567383 0.724365
vt -9.429688 0.801270
vt -7.589844 0.800537
vt -7.589844 0.801636
vt -7.585938 0.732178
vt -9.429688 0.749268
vt -9.421875 0.723633
vt 0.567383 0.724365
vt -1.536133 0.710205
vt 0.570801 0.685547
vt -13.187500 0.809204
vt -7.589844 0.801392
vt -13.195312 0.736084
vt -7.613281 0.736572
vt -11.375000 0.738770
vt -9.421875 0.744141
vt -11.382812 0.810425
vt -9.429688 0.810669
vt 0.568848 0.692871
vt 2.488281 0.623047
vt 2.492188 0.703369
vt 0.577148 0.617676
vt -11.398438 0.810425
vt -13.210938 0.809692
vt -11.398438 0.736328
vt -13.218750 0.736084
vt -9.421875 0.744873
vt -7.593750 0.801758
vt -9.414062 0.810425
vt -7.597656 0.736572
vt 2.458984 0.630127
vt -3.435547 0.629639
vt 2.474609 0.699951
vt -3.445312 0.698730
vt 0.565918 0.691895
vt -1.535156 0.701904
vt -1.527344 0.625732
vt 0.561035 0.617920
vt -1.548828 0.701660
vt -3.462891 0.702637
vt -1.551758 0.630371
vt -3.455078 0.627686
vt1 0.308594 0.415039
vt1 0.308594 0.547119
vt1 0.177124 0.415039
vt1 0.177124 0.547119
vt1 0.476807 0.398926
vt1 0.307861 0.415527
vt1 0.308838 0.398926
vt1 0.476807 0.416016
vt1 0.476807 0.398926
vt1 0.657715 0.415039
vt1 0.476807 0.398926
vt1 0.657715 0.398926
vt1 0.826660 0.416016
vt1 0.825684 0.398926
vt1 0.780762 0.547607
vt1 1.008789 0.546631
vt1 1.007812 0.566895
vt1 0.780762 0.547607
vt1 0.780762 0.566895
vt1 0.531738 0.566895
vt1 0.303223 0.546631
vt1 0.531738 0.566895
vt1 0.304443 0.566895
vt1 0.531738 0.546631
vt1 0.531738 0.566895
vt1 0.780762 0.547607
vt1 0.476807 0.398926
vt1 0.308838 0.398926
vt1 0.476807 0.386230
vt1 0.308838 0.386230
vt1 0.825684 0.398926
vt1 0.308838 0.386230
vt1 0.308838 0.398926
vt1 0.825684 0.386230
vt1 0.657715 0.386230
vt1 0.825684 0.398926
vt1 0.657715 0.398926
vt1 0.825684 0.386230
vt1 0.476807 0.386230
vt1 0.657715 0.386230
vt1 0.657715 0.398926
vt1 0.476807 0.398926
vt1 1.007812 0.547852
vt1 0.184692 0.546631
vt1 0.186523 0.562988
vt1 1.007812 0.562988
vt1 0.825684 0.398926
vt1 0.308838 0.398926
vt1 0.307129 0.416016
vt1 0.825684 0.416016
vt1 0.304443 0.566895
vt1 1.007812 0.566895
vt1 1.010742 0.546631
vt1 0.304443 0.546631
vt1 0.010880 0.581055
vt1 0.010956 0.414551
vt1 0.177490 0.581055
vt1 0.177612 0.414551
vt1 0.739746 0.546631
vt1 1.007812 0.547852
vt1 1.007812 0.562988
vt1 0.740723 0.562988
vt1 0.454102 0.546631
vt1 0.453857 0.562988
vt1 0.186523 0.562988
vt1 0.186646 0.545898
vt1 0.628418 0.581299
vt1 0.934570 0.593994
vt1 0.628418 0.593994
vt1 0.934570 0.581299
vt1 0.934570 0.581299
vt1 0.011490 0.581299
vt1 0.934570 0.593994
vt1 0.011490 0.593994
vt1 0.011490 0.581299
vt1 0.317627 0.581299
vt1 0.317627 0.593994
vt1 0.011490 0.593994
vt1 0.628418 0.581299
vt1 0.317627 0.593994
vt1 0.317627 0.581299
vt1 0.628418 0.593994
vt1 0.012390 0.611572
vt1 0.894531 0.613281
vt1 0.895020 0.609131
vt1 0.607422 0.601562
vt1 0.299072 0.598389
vt1 0.606934 0.596924
vt1 0.686523 0.592041
vt1 1.010742 0.594971
vt1 0.686523 0.596436
vt1 0.605957 0.611816
vt1 0.895020 0.609131
vt1 0.894531 0.613281
vt1 0.895020 0.598389
vt1 0.606445 0.601318
vt1 0.606934 0.596924
vt1 0.686523 0.596436
vt1 0.334961 0.594971
vt1 0.687012 0.592041
vt1 0.016876 0.611084
vt1 0.894531 0.610107
vt1 0.016434 0.599121
vt1 0.890625 0.599121
vt1 0.300781 0.599609
vt1 0.606934 0.600586
vt1 0.300049 0.611328
vt1 0.605957 0.611328
vt1 0.687012 0.592529
vt1 1.007812 0.583496
vt1 1.007812 0.594482
vt1 0.687988 0.583252
vt1 0.297852 0.611328
vt1 0.013176 0.611328
vt1 0.297119 0.599121
vt1 0.012711 0.599121
vt1 0.607422 0.600586
vt1 0.894043 0.609863
vt1 0.607910 0.611328
vt1 0.893066 0.599121
vt1 1.002930 0.584473
vt1 0.017639 0.583984
vt1 1.004883 0.593994
vt1 0.016144 0.593750
vt1 0.686523 0.592529
vt1 0.335205 0.594238
vt1 0.336670 0.583740
vt1 0.685547 0.583252
vt1 0.333008 0.594238
vt1 0.013092 0.594482
vt1 0.332275 0.583984
vt1 0.014244 0.583984
vn 0.000000 1.000000 -0.000000
vn 0.000000 1.000000 -0.000000
vn 0.000000 1.000000 -0.000000
vn 0.000000 1.000000 -0.000000
vn 0.000000 1.000000 -0.000000
vn 0.055118 1.000000 0.047244
vn 0.000000 1.000000 -0.000000
vn 0.055118 1.000000 -0.055118
vn 0.000000 1.000000 -0.000000
vn -0.047244 1.000000 -0.047244
vn 0.000000 1.000000 -0.000000
vn 0.000000 1.000000 -0.000000
vn -0.055118 1.000000 0.047244
vn 0.000000 1.000000 -0.000000
vn 0.055118 1.000000 -0.055118
vn 0.055118 1.000000 0.055118
vn 0.000000 1.000000 -0.000000
vn 0.055118 1.000000 -0.055118
vn 0.000000 1.000000 -0.000000
vn 0.000000 1.000000 -0.000000
vn -0.055118 1.000000 0.055118
vn 0.000000 1.000000 -0.000000
vn 0.000000 1.000000 -0.000000
vn -0.055118 1.000000 -0.055118
vn 0.000000 1.000000 -0.000000
vn 0.055118 1.000000 -0.055118
vn -1.000000 0.000000 0.000000
vn -1.000000 0.000000 0.000000
vn -1.000000 0.000000 0.000000
vn -1.000000 0.000000 0.000000
vn 0.000000 -0.000000 -1.000000
vn 0.000000 -0.000000 -1.000000
vn 0.000000 -0.000000 -1.000000
vn 0.000000 -0.000000 -1.000000
vn 1.000000 0.000000 0.000000
vn 1.000000 0.000000 0.000000
vn 1.000000 0.000000 0.000000
vn 1.000000 0.000000 0.000000
vn 0.000000 0.000000 1.000000
vn 0.000000 0.000000 1.000000
vn 0.000000 0.000000 1.000000
vn 0.000000 0.000000 1.000000
vn -0.070866 -0.992126 0.070866
vn 0.078740 -0.992126 0.078740
vn 0.000000 -1.000000 0.000000
vn 0.000000 -1.000000 0.000000
vn 0.000000 1.000000 -0.000000
vn 0.000000 1.000000 -0.000000
vn 0.047244 1.000000 0.055118
vn -0.055118 1.000000 0.055118
vn 0.000000 1.000000 -0.000000
vn 0.000000 1.000000 -0.000000
vn 0.055118 1.000000 0.055118
vn -0.055118 1.000000 0.055118
vn -0.007874 -1.000000 -0.015748
vn -0.007874 -1.000000 0.007874
vn 0.007874 -1.000000 -0.007874
vn 0.015748 -1.000000 0.015748
vn -0.070866 -0.992126 -0.070866
vn -0.070866 -0.992126 0.070866
vn 0.000000 -1.000000 0.000000
vn 0.000000 -1.000000 0.000000
vn 0.070866 -0.992126 -0.070866
vn 0.000000 -1.000000 0.000000
vn 0.000000 -1.000000 0.000000
vn 0.078740 -0.992126 0.078740
vn -1.000000 0.000000 0.000000
vn -1.000000 0.000000 0.000000
vn -1.000000 0.000000 0.000000
vn -1.000000 0.000000 0.000000
vn 0.000000 0.000000 1.000000
vn 0.000000 0.000000 1.000000
vn 0.000000 0.000000 1.000000
vn 0.000000 0.000000 1.000000
vn 1.000000 0.000000 0.000000
vn 1.000000 0.000000 0.000000
vn 1.000000 0.000000 0.000000
vn 1.000000 0.000000 0.000000
vn 0.000000 -0.000000 -1.000000
vn 0.000000 -0.000000 -1.000000
vn 0.000000 -0.000000 -1.000000
vn 0.000000 -0.000000 -1.000000
vn 0.007874 -0.976378 0.220473
vn -0.070866 -0.992126 0.070866
vn 0.015748 -0.897638 0.440945
vn 0.007874 0.897638 -0.440945
vn 0.007874 0.984252 -0.196850
vn -0.047244 1.000000 -0.047244
vn 0.425197 0.905512 -0.000000
vn 0.173228 0.984252 0.047244
vn 0.055118 1.000000 -0.055118
vn -0.196850 -0.976378 -0.062992
vn -0.440945 -0.897638 0.000000
vn -0.070866 -0.992126 0.070866
vn -0.181102 0.984252 0.047244
vn -0.433071 0.905512 -0.000000
vn -0.047244 1.000000 -0.047244
vn 0.055118 1.000000 -0.055118
vn -0.007874 0.984252 -0.188976
vn -0.007874 0.913386 -0.409449
vn 0.000000 -0.480315 0.881890
vn 0.000000 -0.370079 0.929134
vn 0.000000 0.488189 0.874016
vn 0.000000 0.480315 0.874016
vn 0.000000 0.456693 -0.889764
vn 0.000000 0.362205 -0.929134
vn 0.000000 -0.488189 -0.874016
vn 0.000000 -0.488189 -0.874016
vn 0.952756 0.314961 -0.000000
vn 0.905512 -0.425197 0.000000
vn 0.850394 0.519685 -0.000000
vn 0.866142 -0.503937 0.000000
vn 0.874016 -0.488189 0.000000
vn 0.889764 -0.456693 0.000000
vn 0.881890 0.464567 -0.000000
vn 0.874016 0.488189 -0.000000
vn -0.921260 0.393701 -0.000000
vn -0.921260 -0.393701 0.000000
vn -0.874016 -0.488189 0.000000
vn -0.874016 0.480315 -0.000000
vn 0.000000 -0.511811 0.858268
vn 0.000000 -0.377953 0.929134
vn 0.000000 0.503937 0.866142
vn 0.000000 0.480315 0.874016
vn 0.000000 0.472441 -0.881890
vn 0.000000 0.527559 -0.850394
vn 0.000000 -0.551181 -0.834646
vn 0.000000 -0.519685 -0.850394
vn -0.858268 0.511811 -0.000000
vn -0.850394 0.519685 -0.000000
vn -0.929134 -0.362205 0.000000
vn -0.842520 -0.543307 0.000000
tan -1.000000 0.000000 0.000000 1.000000
tan -1.000000 0.000000 0.000000 1.000000
tan -1.000000 0.000000 0.000000 1.000000
tan -1.000000 0.000000 0.000000 1.000000
tan -0.724409 0.000000 0.692913 1.000000
tan -1.000000 0.055490 -0.007874 1.000000
tan -1.000000 0.000000 0.000000 1.000000
tan -0.700787 0.077686 0.708661 1.000000
tan -0.708661 0.000000 0.708661 1.000000
tan 0.700787 0.066588 0.708661 1.000000
tan -0.692913 0.000000 0.716535 1.000000
tan 0.708661 0.000000 0.708661 1.000000
tan 1.000000 0.055490 -0.007874 1.000000
tan 1.000000 0.000000 0.000000 1.000000
tan 0.700787 -0.078120 -0.716535 1.000000
tan 1.000000 -0.055118 0.000000 1.000000
tan 1.000000 0.000000 0.000000 1.000000
tan 0.661417 -0.077686 -0.748031 1.000000
tan 0.724409 -0.000000 -0.692913 1.000000
tan -0.708661 -0.000000 -0.700787 1.000000
tan -1.000000 -0.055552 0.007874 1.000000
tan -0.732283 -0.000000 -0.677165 1.000000
tan -1.000000 0.000000 0.000000 1.000000
tan -0.661417 -0.077686 -0.748031 1.000000
tan -0.724409 -0.000000 -0.692913 1.000000
tan 0.622047 -0.077252 -0.779527 1.000000
tan 0.000000 -1.000000 0.000000 1.000000
tan 0.000000 -1.000000 0.000000 1.000000
tan 0.000000 -1.000000 0.000000 1.000000
tan 0.000000 -1.000000 0.000000 1.000000
tan 0.000000 -1.000000 0.000000 1.000000
tan 0.000000 -1.000000 0.000000 1.000000
tan 0.000000 -1.000000 0.000000 1.000000
tan 0.000000 -1.000000 0.000000 1.000000
tan 0.000000 -1.000000 0.000000 1.000000
tan 0.000000 -1.000000 0.000000 1.000000
tan 0.000000 -1.000000 0.000000 1.000000
tan 0.000000 -1.000000 0.000000 1.000000
tan 0.000000 -1.000000 0.000000 1.000000
tan 0.000000 -1.000000 0.000000 1.000000
tan 0.000000 -1.000000 0.000000 1.000000
tan 0.000000 -1.000000 0.000000 1.000000
tan -0.007812 0.071424 0.992126 1.000000
tan 0.007812 0.079360 0.992126 1.000000
tan 0.000000 0.000000 1.000000 1.000000
tan 0.000000 0.000000 1.000000 1.000000
tan 0.000000 -0.000000 -1.000000 1.000000
tan 0.000000 -0.000000 -1.000000 1.000000
tan 0.000000 0.055118 -1.000000 1.000000
tan 0.000000 0.055118 -1.000000 1.000000
tan 0.000000 0.000000 1.000000 1.000000
tan 0.000000 0.000000 1.000000 1.000000
tan 0.000000 -0.055118 1.000000 1.000000
tan 0.000000 -0.055118 1.000000 1.000000
tan 0.000000 -0.015748 1.000000 1.000000
tan 0.000000 0.007874 1.000000 1.000000
tan 0.000000 -0.007874 1.000000 1.000000
tan 0.000000 0.015748 1.000000 1.000000
tan -0.640585 0.099882 -0.757765 1.000000
tan -0.992126 0.071424 0.007812 1.000000
tan -1.000000 0.000000 0.000000 1.000000
tan -0.724409 -0.000000 -0.692913 1.000000
tan 0.648397 0.099882 -0.749953 1.000000
tan 0.724409 -0.000000 -0.692913 1.000000
tan 1.000000 0.000000 0.000000 1.000000
tan 0.992126 0.078740 -0.000000 1.000000
tan 0.000000 1.000000 -0.000000 1.000000
tan 0.000000 1.000000 -0.000000 1.000000
tan 0.000000 1.000000 -0.000000 1.000000
tan 0.000000 1.000000 -0.000000 1.000000
tan 0.000000 1.000000 -0.000000 1.000000
tan 0.000000 1.000000 -0.000000 1.000000
tan 0.000000 1.000000 -0.000000 1.000000
tan 0.000000 1.000000 -0.000000 1.000000
tan 0.000000 1.000000 -0.000000 1.000000
tan 0.000000 1.000000 -0.000000 1.000000
tan 0.000000 1.000000 -0.000000 1.000000
tan 0.000000 1.000000 -0.000000 1.000000
tan 0.000000 1.000000 -0.000000 1.000000
tan 0.000000 1.000000 -0.000000 1.000000
tan 0.000000 1.000000 -0.000000 1.000000
tan 0.000000 1.000000 -0.000000 1.000000
tan 0.000000 0.220473 0.976378 1.000000
tan -0.007812 0.071424 0.992126 1.000000
tan 0.000000 0.440945 0.897638 1.000000
tan 0.000000 0.440945 0.897638 1.000000
tan 0.000000 0.196850 0.984252 1.000000
tan 0.000000 0.047244 1.000000 1.000000
tan 0.905512 -0.425197 0.000000 1.000000
tan 0.984252 -0.173228 0.000000 1.000000
tan 1.000000 -0.055118 0.000000 1.000000
tan -0.976378 0.197346 -0.007688 1.000000
tan -0.897638 0.440945 -0.000000 1.000000
tan -0.992126 0.071424 0.007812 1.000000
tan 0.984252 0.181102 -0.000000 1.000000
tan 0.905512 0.433071 -0.000000 1.000000
tan 1.000000 0.047244 -0.000000 1.000000
tan 0.000000 -0.055118 -1.000000 1.000000
tan 0.000000 -0.188976 -0.984252 1.000000
tan 0.000000 -0.409449 -0.913386 1.000000
tan 0.000000 0.881890 0.480315 1.000000
tan 0.000000 0.929134 0.370079 1.000000
tan 0.000000 0.874016 -0.488189 1.000000
tan 0.000000 0.874016 -0.480315 1.000000
tan 0.000000 0.889764 0.456693 1.000000
tan 0.000000 0.929134 0.362205 1.000000
tan 0.000000 0.874016 -0.488189 1.000000
tan 0.000000 0.874016 -0.488189 1.000000
tan 0.314961 -0.952756 0.000000 1.000000
tan -0.425197 -0.905512 0.000000 1.000000
tan 0.519685 -0.850394 0.000000 1.000000
tan -0.503937 -0.866142 0.000000 1.000000
tan 0.488189 0.874016 -0.000000 1.000000
tan 0.456693 0.889764 -0.000000 1.000000
tan -0.464567 0.881890 -0.000000 1.000000
tan -0.488189 0.874016 -0.000000 1.000000
tan 0.393701 0.921260 -0.000000 1.000000
tan -0.393701 0.921260 -0.000000 1.000000
tan -0.488189 0.874016 -0.000000 1.000000
tan 0.480315 0.874016 -0.000000 1.000000
tan 0.000000 -0.858268 -0.511811 1.000000
tan 0.000000 -0.929134 -0.377953 1.000000
tan 0.000000 -0.866142 0.503937 1.000000
tan 0.000000 -0.874016 0.480315 1.000000
tan 0.000000 -0.881890 -0.472441 1.000000
tan 0.000000 -0.850394 -0.527559 1.000000
tan 0.000000 -0.834646 0.551181 1.000000
tan 0.000000 -0.850394 0.519685 1.000000
tan -0.511811 -0.858268 0.000000 1.000000
tan -0.519685 -0.850394 0.000000 1.000000
tan 0.362205 -0.929134 0.000000 1.000000
tan 0.543307 -0.842520 0.000000 1.000000
f 3/3/3 2/2/2 1/1/1
f 3/3/3 4/4/4 2/2/2
f 7/7/7 6/6/6 5/5/5
f 9/9/9 6/6/6 8/8/8
f 9/9/9 8/8/8 10/10/10
f 12/12/12 11/11/11 10/10/10
f 12/12/12 10/10/10 13/13/13
f 14/14/14 12/12/12 13/13/13
f 17/17/17 16/16/16 15/15/15
f 19/19/19 17/17/17 18/18/18
f 19/19/19 18/18/18 20/20/20
f 23/23/23 22/22/22 21/21/21
f 25/25/25 24/24/24 21/21/21
f 24/24/24 25/25/25 26/26/26
f 29/29/29 28/28/28 27/27/27
f 30/30/30 28/28/28 29/29/29
f 33/33/33 32/32/32 31/31/31
f 34/34/34 31/31/31 32/32/32
f 37/37/37 36/36/36 35/35/35
f 38/38/38 35/35/35 36/36/36
f 41/41/41 40/40/40 39/39/39
f 42/42/42 41/41/41 39/39/39
f 45/45/45 44/44/44 43/43/43
f 46/46/46 45/45/45 43/43/43
f 49/49/49 48/48/48 47/47/47
f 50/50/50 49/49/49 47/47/47
f 53/53/53 52/52/52 51/51/51
f 54/54/54 53/53/53 51/51/51
f 57/57/57 56/56/56 55/55/55
f 58/58/58 56/56/56 57/57/57
f 61/61/61 60/60/60 59/59/59
f 62/62/62 61/61/61 59/59/59
f 62/62/62 59/59/59 63/63/63
f 64/64/64 62/62/62 63/63/63
f 64/64/64 63/63/63 65/65/65
f 65/65/65 63/63/63 66/66/66
f 69/69/69 68/68/68 67/67/67
f 70/70/70 67/67/67 68/68/68
f 73/73/73 72/72/72 71/71/71
f 72/72/72 73/73/73 74/74/74
f 77/77/77 76/76/76 75/75/75
f 75/75/75 78/78/78 77/77/77
f 81/81/81 80/80/80 79/79/79
f 82/82/82 79/79/79 80/80/80
f 85/85/85 84/84/84 83/83/83
f 88/88/88 87/87/87 86/86/86
f 91/91/91 90/90/90 89/89/89
f 94/94/94 93/93/93 92/92/92
f 97/97/97 96/96/96 95/95/95
f 100/100/100 99/99/99 98/98/98
f 103/103/103 102/102/102 101/101/101
f 104/104/104 102/102/102 103/103/103
f 107/107/107 106/106/106 105/105/105
f 108/108/108 106/106/106 107/107/107
f 111/111/111 110/110/110 109/109/109
f 109/109/109 110/110/110 112/112/112
f 115/115/115 114/114/114 113/113/113
f 116/116/116 114/114/114 115/115/115
f 119/119/119 118/118/118 117/117/117
f 118/118/118 120/120/120 117/117/117
f 123/123/123 122/122/122 121/121/121
f 124/124/124 122/122/122 123/123/123
f 127/127/127 126/126/126 125/125/125
f 128/128/128 127/127/127 125/125/125
f 131/131/131 130/130/130 129/129/129
f 132/132/132 130/130/130 131/131/131
