mtllib SM_Mansion_Roof_02@000002909DC3C800.mtl
g SM_Mansion_Roof_02@000002909DC3C800
#Vertices 136
#Indices 336
#Section 0 Offset 0 NumIndices 336 MaterialIndex 0 MI_RoofTile_A_01
v -0.125106 15.093902 -0.000002 0.000000 1.000000 0.000000 1.000000
v -0.000000 15.093902 -0.125108 0.000000 1.000000 0.000000 1.000000
v -0.000000 15.771371 -0.000002 0.000000 1.000000 0.000000 1.000000
v -0.000000 15.093902 -0.125108 0.000000 1.000000 0.000000 1.000000
v 0.125106 15.093902 -0.000002 0.000000 1.000000 0.000000 1.000000
v -0.000000 15.771371 -0.000002 0.000000 1.000000 0.000000 1.000000
v 0.125106 15.093902 -0.000002 0.000000 1.000000 0.000000 1.000000
v 0.000000 15.093902 0.125104 0.000000 1.000000 0.000000 1.000000
v -0.000000 15.771371 -0.000002 0.000000 1.000000 0.000000 1.000000
v 0.000000 15.093902 0.125104 0.000000 1.000000 0.000000 1.000000
v -0.125106 15.093902 -0.000002 0.000000 1.000000 0.000000 1.000000
v -0.000000 15.771371 -0.000002 0.000000 1.000000 0.000000 1.000000
v 5.000000 -0.000001 -4.874894 0.000000 1.000000 0.000000 1.000000
v 5.000000 0.000001 4.874894 0.000000 1.000000 0.000000 1.000000
v 3.023540 3.930350 -2.898434 0.000000 1.000000 0.000000 1.000000
v 3.023540 3.930350 2.898433 0.000000 1.000000 0.000000 1.000000
v 2.576437 4.976006 -2.451331 0.000000 1.000000 0.000000 1.000000
v 2.576437 4.976007 2.451330 0.000000 1.000000 0.000000 1.000000
v 2.193698 6.050577 2.068592 0.000000 1.000000 0.000000 1.000000
v 2.193698 6.050576 -2.068593 0.000000 1.000000 0.000000 1.000000
v 1.824170 7.126098 -1.699065 0.000000 1.000000 0.000000 1.000000
v 1.824170 7.126098 1.699063 0.000000 1.000000 0.000000 1.000000
v 1.417375 8.354792 1.292267 0.000000 1.000000 0.000000 1.000000
v 1.417375 8.354792 -1.292269 0.000000 1.000000 0.000000 1.000000
v 1.137442 9.457032 -1.012336 0.000000 1.000000 0.000000 1.000000
v 1.137442 9.457032 1.012334 0.000000 1.000000 0.000000 1.000000
v 0.125106 15.093902 -0.000002 0.000000 1.000000 0.000000 1.000000
v -1.012336 9.457032 1.137440 0.000000 1.000000 0.000000 1.000000
v -0.125106 15.093902 -0.000002 0.000000 1.000000 0.000000 1.000000
v 0.000000 15.093902 0.125104 0.000000 1.000000 0.000000 1.000000
v -1.137442 9.457032 1.012334 0.000000 1.000000 0.000000 1.000000
v -1.292269 8.354792 1.417373 0.000000 1.000000 0.000000 1.000000
v -1.417375 8.354792 1.292267 0.000000 1.000000 0.000000 1.000000
v -1.699064 7.126098 1.824169 0.000000 1.000000 0.000000 1.000000
v -1.824170 7.126098 1.699063 0.000000 1.000000 0.000000 1.000000
v -2.068592 6.050577 2.193698 0.000000 1.000000 0.000000 1.000000
v -2.193698 6.050577 2.068592 0.000000 1.000000 0.000000 1.000000
v -2.451331 4.976007 2.576436 0.000000 1.000000 0.000000 1.000000
v -2.576437 4.976007 2.451330 0.000000 1.000000 0.000000 1.000000
v -2.898434 3.930350 3.023539 0.000000 1.000000 0.000000 1.000000
v -3.023540 3.930350 2.898433 0.000000 1.000000 0.000000 1.000000
v -5.000000 0.000001 4.874894 0.000000 1.000000 0.000000 1.000000
v -4.874894 0.000001 5.000000 0.000000 1.000000 0.000000 1.000000
v 0.125106 15.093902 -0.000002 0.000000 1.000000 0.000000 1.000000
v 1.012336 9.457032 1.137440 0.000000 1.000000 0.000000 1.000000
v 0.000000 15.093902 0.125104 0.000000 1.000000 0.000000 1.000000
v 1.137442 9.457032 1.012334 0.000000 1.000000 0.000000 1.000000
v 1.292269 8.354792 1.417373 0.000000 1.000000 0.000000 1.000000
v 1.417375 8.354792 1.292267 0.000000 1.000000 0.000000 1.000000
v 1.699064 7.126098 1.824169 0.000000 1.000000 0.000000 1.000000
v 1.824170 7.126098 1.699063 0.000000 1.000000 0.000000 1.000000
v 2.068592 6.050577 2.193698 0.000000 1.000000 0.000000 1.000000
v 2.193698 6.050577 2.068592 0.000000 1.000000 0.000000 1.000000
v 2.451331 4.976007 2.576436 0.000000 1.000000 0.000000 1.000000
v 2.576437 4.976007 2.451330 0.000000 1.000000 0.000000 1.000000
v 2.898434 3.930351 3.023538 0.000000 1.000000 0.000000 1.000000
v 3.023540 3.930350 2.898433 0.000000 1.000000 0.000000 1.000000
v 5.000000 0.000001 4.874894 0.000000 1.000000 0.000000 1.000000
v 4.874894 0.000001 5.000000 0.000000 1.000000 0.000000 1.000000
v -0.125106 15.093902 -0.000002 0.000000 1.000000 0.000000 1.000000
v -1.012336 9.457032 -1.137442 0.000000 1.000000 0.000000 1.000000
v -0.000000 15.093902 -0.125108 0.000000 1.000000 0.000000 1.000000
v -1.137442 9.457032 -1.012336 0.000000 1.000000 0.000000 1.000000
v -1.292269 8.354792 -1.417375 0.000000 1.000000 0.000000 1.000000
v -1.417375 8.354792 -1.292269 0.000000 1.000000 0.000000 1.000000
v -1.699064 7.126098 -1.824171 0.000000 1.000000 0.000000 1.000000
v -1.824170 7.126098 -1.699065 0.000000 1.000000 0.000000 1.000000
v -2.068592 6.050576 -2.193699 0.000000 1.000000 0.000000 1.000000
v -2.193698 6.050576 -2.068593 0.000000 1.000000 0.000000 1.000000
v -2.451331 4.976006 -2.576437 0.000000 1.000000 0.000000 1.000000
v -2.576437 4.976006 -2.451331 0.000000 1.000000 0.000000 1.000000
v -2.898434 3.930349 -3.023540 0.000000 1.000000 0.000000 1.000000
v -3.023540 3.930350 -2.898434 0.000000 1.000000 0.000000 1.000000
v -5.000000 -0.000001 -4.874894 0.000000 1.000000 0.000000 1.000000
v -4.874894 -0.000001 -5.000000 0.000000 1.000000 0.000000 1.000000
v -0.000000 15.093902 -0.125108 0.000000 1.000000 0.000000 1.000000
v 1.012336 9.457032 -1.137442 0.000000 1.000000 0.000000 1.000000
v 0.125106 15.093902 -0.000002 0.000000 1.000000 0.000000 1.000000
v 1.137442 9.457032 -1.012336 0.000000 1.000000 0.000000 1.000000
v 1.292269 8.354792 -1.417375 0.000000 1.000000 0.000000 1.000000
v 1.417375 8.354792 -1.292269 0.000000 1.000000 0.000000 1.000000
v 1.699064 7.126098 -1.824171 0.000000 1.000000 0.000000 1.000000
v 1.824170 7.126098 -1.699065 0.000000 1.000000 0.000000 1.000000
v 2.068592 6.050576 -2.193699 0.000000 1.000000 0.000000 1.000000
v 2.193698 6.050576 -2.068593 0.000000 1.000000 0.000000 1.000000
v 2.451331 4.976006 -2.576437 0.000000 1.000000 0.000000 1.000000
v 2.576437 4.976006 -2.451331 0.000000 1.000000 0.000000 1.000000
v 2.898434 3.930350 -3.023539 0.000000 1.000000 0.000000 1.000000
v 3.023540 3.930350 -2.898434 0.000000 1.000000 0.000000 1.000000
v 5.000000 -0.000001 -4.874894 0.000000 1.000000 0.000000 1.000000
v 4.874894 -0.000001 -5.000000 0.000000 1.000000 0.000000 1.000000
v -1.012336 9.457032 -1.137442 0.000000 1.000000 0.000000 1.000000
v 1.012336 9.457032 -1.137442 0.000000 1.000000 0.000000 1.000000
v -0.000000 15.093902 -0.125108 0.000000 1.000000 0.000000 1.000000
v 1.292269 8.354792 -1.417375 0.000000 1.000000 0.000000 1.000000
v -1.292269 8.354792 -1.417375 0.000000 1.000000 0.000000 1.000000
v -1.699064 7.126098 -1.824171 0.000000 1.000000 0.000000 1.000000
v 1.699064 7.126098 -1.824171 0.000000 1.000000 0.000000 1.000000
v 2.068592 6.050576 -2.193699 0.000000 1.000000 0.000000 1.000000
v -2.068592 6.050576 -2.193699 0.000000 1.000000 0.000000 1.000000
v -2.451331 4.976006 -2.576437 0.000000 1.000000 0.000000 1.000000
v 2.451331 4.976006 -2.576437 0.000000 1.000000 0.000000 1.000000
v -2.898434 3.930349 -3.023540 0.000000 1.000000 0.000000 1.000000
v 2.898434 3.930350 -3.023539 0.000000 1.000000 0.000000 1.000000
v 4.874894 -0.000001 -5.000000 0.000000 1.000000 0.000000 1.000000
v -4.874894 -0.000001 -5.000000 0.000000 1.000000 0.000000 1.000000
v 0.000000 15.093902 0.125104 0.000000 1.000000 0.000000 1.000000
v 1.012336 9.457032 1.137440 0.000000 1.000000 0.000000 1.000000
v -1.012336 9.457032 1.137440 0.000000 1.000000 0.000000 1.000000
v -1.292269 8.354792 1.417373 0.000000 1.000000 0.000000 1.000000
v 1.292269 8.354792 1.417373 0.000000 1.000000 0.000000 1.000000
v 1.699064 7.126098 1.824169 0.000000 1.000000 0.000000 1.000000
v -1.699064 7.126098 1.824169 0.000000 1.000000 0.000000 1.000000
v -2.068592 6.050577 2.193698 0.000000 1.000000 0.000000 1.000000
v 2.068592 6.050577 2.193698 0.000000 1.000000 0.000000 1.000000
v 2.451331 4.976007 2.576436 0.000000 1.000000 0.000000 1.000000
v -2.451331 4.976007 2.576436 0.000000 1.000000 0.000000 1.000000
v -2.898434 3.930350 3.023539 0.000000 1.000000 0.000000 1.000000
v 2.898434 3.930351 3.023538 0.000000 1.000000 0.000000 1.000000
v 4.874894 0.000001 5.000000 0.000000 1.000000 0.000000 1.000000
v -4.874894 0.000001 5.000000 0.000000 1.000000 0.000000 1.000000
v -1.137442 9.457032 1.012334 0.000000 1.000000 0.000000 1.000000
v -1.137442 9.457032 -1.012336 0.000000 1.000000 0.000000 1.000000
v -0.125106 15.093902 -0.000002 0.000000 1.000000 0.000000 1.000000
v -1.417375 8.354792 -1.292269 0.000000 1.000000 0.000000 1.000000
v -1.417375 8.354792 1.292267 0.000000 1.000000 0.000000 1.000000
v -1.824170 7.126098 1.699063 0.000000 1.000000 0.000000 1.000000
v -1.824170 7.126098 -1.699065 0.000000 1.000000 0.000000 1.000000
v -2.193698 6.050576 -2.068593 0.000000 1.000000 0.000000 1.000000
v -2.193698 6.050577 2.068592 0.000000 1.000000 0.000000 1.000000
v -2.576437 4.976007 2.451330 0.000000 1.000000 0.000000 1.000000
v -2.576437 4.976006 -2.451331 0.000000 1.000000 0.000000 1.000000
v -3.023540 3.930350 -2.898434 0.000000 1.000000 0.000000 1.000000
v -3.023540 3.930350 2.898433 0.000000 1.000000 0.000000 1.000000
v -5.000000 -0.000001 -4.874894 0.000000 1.000000 0.000000 1.000000
v -5.000000 0.000001 4.874894 0.000000 1.000000 0.000000 1.000000
vt -0.733398 2.371094
vt -0.733398 2.432617
vt -0.764160 2.402344
vt -0.733398 2.432617
vt -0.794434 2.432617
vt -0.764160 2.402344
vt -0.794434 2.432617
vt -0.794434 2.371094
vt -0.764160 2.402344
vt -0.794434 2.371094
vt -0.733398 2.371094
vt -0.764160 2.402344
vt -3.080078 0.038574
vt -1.861328 0.038574
vt -2.832031 0.588135
vt -2.107422 0.588135
vt -2.777344 0.730469
vt -2.164062 0.730469
vt -2.210938 0.872925
vt -2.728516 0.872925
vt -2.681641 1.014961
vt -2.257812 1.014961
vt -2.308594 1.176636
vt -2.630859 1.176636
vt -2.595703 1.318848
vt -2.343750 1.318848
vt -2.470703 2.034180
vt 1.320312 1.325195
vt 1.342773 2.051758
vt 1.320312 2.051758
vt 1.342773 1.325195
vt 1.320312 1.178711
vt 1.342773 1.178711
vt 1.320312 1.009216
vt 1.342773 1.009216
vt 1.320312 0.859863
vt 1.342773 0.859863
vt 1.320312 0.709473
vt 1.342773 0.709473
vt 1.320312 0.556641
vt 1.342773 0.556641
vt 1.342773 -0.045898
vt 1.320312 -0.045898
vt 1.351562 2.047852
vt 1.374023 1.321045
vt 1.374023 2.047852
vt 1.351562 1.321045
vt 1.374023 1.174805
vt 1.351562 1.174805
vt 1.374023 1.005299
vt 1.351562 1.005295
vt 1.374023 0.855835
vt 1.351562 0.855835
vt 1.374023 0.705566
vt 1.351562 0.705566
vt 1.374023 0.552734
vt 1.351562 0.552734
vt 1.352539 -0.049805
vt 1.374023 -0.049805
vt 1.383789 2.051758
vt 1.405273 1.325195
vt 1.405273 2.051758
vt 1.383789 1.325195
vt 1.405273 1.178711
vt 1.383789 1.178711
vt 1.405273 1.009216
vt 1.383789 1.009216
vt 1.405273 0.859863
vt 1.382812 0.859863
vt 1.405273 0.709473
vt 1.382812 0.709473
vt 1.405273 0.556641
vt 1.382812 0.556641
vt 1.382812 -0.045898
vt 1.405273 -0.045898
vt 1.414062 2.047852
vt 1.414062 1.321045
vt 1.436523 2.047852
vt 1.436523 1.321045
vt 1.415039 1.174805
vt 1.436523 1.174805
vt 1.415039 1.005295
vt 1.436523 1.005299
vt 1.415039 0.855835
vt 1.436523 0.855835
vt 1.415039 0.705566
vt 1.436523 0.705566
vt 1.415039 0.552734
vt 1.436523 0.552734
vt 1.436523 -0.049805
vt 1.415039 -0.049805
vt 0.445068 2.009766
vt 0.698242 2.009766
vt 0.571289 2.725586
vt 0.732910 1.868164
vt 0.410156 1.868164
vt 0.359131 1.706055
vt 0.783691 1.706055
vt 0.830078 1.563965
vt 0.312988 1.563965
vt 0.265137 1.421631
vt 0.877930 1.421631
vt 0.209351 1.279541
vt 0.933594 1.279541
vt 1.180664 0.729736
vt -0.037628 0.729736
vt -1.465820 2.571289
vt -1.591797 1.855957
vt -1.338867 1.855957
vt -1.303711 1.713867
vt -1.626953 1.713867
vt -1.677734 1.551758
vt -1.252930 1.551758
vt -1.207031 1.409912
vt -1.723633 1.409912
vt -1.771484 1.267334
vt -1.159180 1.267334
vt -1.103516 1.125122
vt -1.828125 1.125122
vt -2.074219 0.575439
vt -0.856445 0.575439
vt -0.558594 1.315918
vt -0.305908 1.315918
vt -0.432373 2.031250
vt -0.270752 1.173828
vt -0.593750 1.173828
vt -0.644531 1.012039
vt -0.220093 1.012039
vt -0.173828 0.869995
vt -0.690918 0.869995
vt -0.738770 0.727539
vt -0.125977 0.727539
vt -0.070190 0.585205
vt -0.794434 0.585205
vt 0.176758 0.035645
vt -1.041016 0.035645
vt1 -0.733398 2.371094
vt1 -0.733398 2.432617
vt1 -0.764160 2.402344
vt1 -0.733398 2.432617
vt1 -0.794434 2.432617
vt1 -0.764160 2.402344
vt1 -0.794434 2.432617
vt1 -0.794434 2.371094
vt1 -0.764160 2.402344
vt1 -0.794434 2.371094
vt1 -0.733398 2.371094
vt1 -0.764160 2.402344
vt1 -3.080078 0.038574
vt1 -1.861328 0.038574
vt1 -2.832031 0.588135
vt1 -2.107422 0.588135
vt1 -2.777344 0.730469
vt1 -2.164062 0.730469
vt1 -2.210938 0.872925
vt1 -2.728516 0.872925
vt1 -2.681641 1.014961
vt1 -2.257812 1.014961
vt1 -2.308594 1.176636
vt1 -2.630859 1.176636
vt1 -2.595703 1.318848
vt1 -2.343750 1.318848
vt1 -2.470703 2.034180
vt1 1.320312 1.325195
vt1 1.342773 2.051758
vt1 1.320312 2.051758
vt1 1.342773 1.325195
vt1 1.320312 1.178711
vt1 1.342773 1.178711
vt1 1.320312 1.009216
vt1 1.342773 1.009216
vt1 1.320312 0.859863
vt1 1.342773 0.859863
vt1 1.320312 0.709473
vt1 1.342773 0.709473
vt1 1.320312 0.556641
vt1 1.342773 0.556641
vt1 1.342773 -0.045898
vt1 1.320312 -0.045898
vt1 1.351562 2.047852
vt1 1.374023 1.321045
vt1 1.374023 2.047852
vt1 1.351562 1.321045
vt1 1.374023 1.174805
vt1 1.351562 1.174805
vt1 1.374023 1.005299
vt1 1.351562 1.005295
vt1 1.374023 0.855835
vt1 1.351562 0.855835
vt1 1.374023 0.705566
vt1 1.351562 0.705566
vt1 1.374023 0.552734
vt1 1.351562 0.552734
vt1 1.352539 -0.049805
vt1 1.374023 -0.049805
vt1 1.383789 2.051758
vt1 1.405273 1.325195
vt1 1.405273 2.051758
vt1 1.383789 1.325195
vt1 1.405273 1.178711
vt1 1.383789 1.178711
vt1 1.405273 1.009216
vt1 1.383789 1.009216
vt1 1.405273 0.859863
vt1 1.382812 0.859863
vt1 1.405273 0.709473
vt1 1.382812 0.709473
vt1 1.405273 0.556641
vt1 1.382812 0.556641
vt1 1.382812 -0.045898
vt1 1.405273 -0.045898
vt1 1.414062 2.047852
vt1 1.414062 1.321045
vt1 1.436523 2.047852
vt1 1.436523 1.321045
vt1 1.415039 1.174805
vt1 1.436523 1.174805
vt1 1.415039 1.005295
vt1 1.436523 1.005299
vt1 1.415039 0.855835
vt1 1.436523 0.855835
vt1 1.415039 0.705566
vt1 1.436523 0.705566
vt1 1.415039 0.552734
vt1 1.436523 0.552734
vt1 1.436523 -0.049805
vt1 1.415039 -0.049805
vt1 0.445068 2.009766
vt1 0.698242 2.009766
vt1 0.571289 2.725586
vt1 0.732910 1.868164
vt1 0.410156 1.868164
vt1 0.359131 1.706055
vt1 0.783691 1.706055
vt1 0.830078 1.563965
vt1 0.312988 1.563965
vt1 0.265137 1.421631
vt1 0.877930 1.421631
vt1 0.209351 1.279541
vt1 0.933594 1.279541
vt1 1.180664 0.729736
vt1 -0.037628 0.729736
vt1 -1.465820 2.571289
vt1 -1.591797 1.855957
vt1 -1.338867 1.855957
vt1 -1.303711 1.713867
vt1 -1.626953 1.713867
vt1 -1.677734 1.551758
vt1 -1.252930 1.551758
vt1 -1.207031 1.409912
vt1 -1.723633 1.409912
vt1 -1.771484 1.267334
vt1 -1.159180 1.267334
vt1 -1.103516 1.125122
vt1 -1.828125 1.125122
vt1 -2.074219 0.575439
vt1 -0.856445 0.575439
vt1 -0.558594 1.315918
vt1 -0.305908 1.315918
vt1 -0.432373 2.031250
vt1 -0.270752 1.173828
vt1 -0.593750 1.173828
vt1 -0.644531 1.012039
vt1 -0.220093 1.012039
vt1 -0.173828 0.869995
vt1 -0.690918 0.869995
vt1 -0.738770 0.727539
vt1 -0.125977 0.727539
vt1 -0.070190 0.585205
vt1 -0.794434 0.585205
vt1 0.176758 0.035645
vt1 -1.041016 0.035645
vn -0.685039 0.244094 -0.685039
vn -0.685039 0.244094 -0.685039
vn -0.700787 0.125984 -0.700787
vn 0.685039 0.244094 -0.685039
vn 0.685039 0.244094 -0.685039
vn 0.700787 0.125984 -0.700787
vn 0.685039 0.244095 0.685039
vn 0.685039 0.244095 0.685039
vn 0.700787 0.125984 0.700787
vn -0.685039 0.244095 0.685039
vn -0.685039 0.244095 0.685039
vn -0.700787 0.125984 0.700787
vn 0.889764 0.448819 -0.000000
vn 0.889764 0.448819 -0.000000
vn 0.897638 0.440945 -0.000000
vn 0.897638 0.440945 -0.000000
vn 0.929134 0.370079 -0.000000
vn 0.929134 0.370079 -0.000000
vn 0.944882 0.330709 -0.000000
vn 0.944882 0.330709 -0.000000
vn 0.944882 0.322835 -0.000000
vn 0.944882 0.322835 -0.000000
vn 0.952756 0.291339 -0.000000
vn 0.952756 0.291339 -0.000000
vn 0.976378 0.204724 -0.000000
vn 0.976378 0.204724 -0.000000
vn 0.984252 0.173228 -0.000000
vn -0.685039 0.259843 0.685039
vn -0.685039 0.244095 0.685039
vn -0.685039 0.244095 0.685039
vn -0.685039 0.259843 0.685039
vn -0.653543 0.385827 0.653543
vn -0.653543 0.385827 0.653543
vn -0.637795 0.433071 0.637795
vn -0.637795 0.433071 0.637795
vn -0.629921 0.440945 0.629921
vn -0.629921 0.440945 0.629921
vn -0.622047 0.488189 0.622047
vn -0.622047 0.488189 0.622047
vn -0.582677 0.566929 0.582677
vn -0.582677 0.566929 0.582677
vn -0.574803 0.582677 0.574803
vn -0.574803 0.582677 0.574803
vn 0.685039 0.244095 0.685039
vn 0.685039 0.259843 0.685039
vn 0.685039 0.244095 0.685039
vn 0.685039 0.259843 0.685039
vn 0.653543 0.385827 0.653543
vn 0.653543 0.385827 0.653543
vn 0.637795 0.433071 0.637795
vn 0.637795 0.433071 0.637795
vn 0.629921 0.440945 0.629921
vn 0.629921 0.440945 0.629921
vn 0.622047 0.488189 0.622047
vn 0.622047 0.488189 0.622047
vn 0.582677 0.566929 0.582677
vn 0.582677 0.566929 0.582677
vn 0.574803 0.582677 0.574803
vn 0.574803 0.582677 0.574803
vn -0.685039 0.244094 -0.685039
vn -0.685039 0.259842 -0.685039
vn -0.685039 0.244094 -0.685039
vn -0.685039 0.259842 -0.685039
vn -0.653543 0.385827 -0.653543
vn -0.653543 0.385827 -0.653543
vn -0.637795 0.433071 -0.637795
vn -0.637795 0.433071 -0.637795
vn -0.629921 0.440945 -0.629921
vn -0.629921 0.440945 -0.629921
vn -0.622047 0.488189 -0.622047
vn -0.622047 0.488189 -0.622047
vn -0.582677 0.566929 -0.582677
vn -0.582677 0.566929 -0.582677
vn -0.574803 0.582677 -0.574803
vn -0.574803 0.582677 -0.574803
vn 0.685039 0.244094 -0.685039
vn 0.685039 0.259842 -0.685039
vn 0.685039 0.244094 -0.685039
vn 0.685039 0.259842 -0.685039
vn 0.653543 0.385827 -0.653543
vn 0.653543 0.385827 -0.653543
vn 0.637795 0.433071 -0.637795
vn 0.637795 0.433071 -0.637795
vn 0.629921 0.440945 -0.629921
vn 0.629921 0.440945 -0.629921
vn 0.622047 0.488189 -0.622047
vn 0.622047 0.488189 -0.622047
vn 0.582677 0.566929 -0.582677
vn 0.582677 0.566929 -0.582677
vn 0.574803 0.582677 -0.574803
vn 0.574803 0.582677 -0.574803
vn 0.000000 0.204724 -0.976378
vn 0.000000 0.204724 -0.976378
vn 0.000000 0.173228 -0.984252
vn 0.000000 0.291338 -0.952756
vn 0.000000 0.291338 -0.952756
vn 0.000000 0.322834 -0.944882
vn 0.000000 0.322834 -0.944882
vn 0.000000 0.330709 -0.944882
vn 0.000000 0.330709 -0.944882
vn 0.000000 0.370079 -0.929134
vn 0.000000 0.370079 -0.929134
vn 0.000000 0.440945 -0.897638
vn 0.000000 0.440945 -0.897638
vn 0.000000 0.448819 -0.889764
vn 0.000000 0.448819 -0.889764
vn 0.000000 0.173228 0.984252
vn 0.000000 0.204724 0.976378
vn 0.000000 0.204724 0.976378
vn 0.000000 0.291339 0.952756
vn 0.000000 0.291339 0.952756
vn 0.000000 0.322835 0.944882
vn 0.000000 0.322835 0.944882
vn 0.000000 0.330709 0.944882
vn 0.000000 0.330709 0.944882
vn 0.000000 0.370079 0.929134
vn 0.000000 0.370079 0.929134
vn 0.000000 0.440945 0.897638
vn 0.000000 0.440945 0.897638
vn 0.000000 0.448819 0.889764
vn 0.000000 0.448819 0.889764
vn -0.976378 0.204724 -0.000000
vn -0.976378 0.204724 -0.000000
vn -0.984252 0.173228 -0.000000
vn -0.952756 0.291339 -0.000000
vn -0.952756 0.291339 -0.000000
vn -0.944882 0.322835 -0.000000
vn -0.944882 0.322835 -0.000000
vn -0.944882 0.330709 -0.000000
vn -0.944882 0.330709 -0.000000
vn -0.929134 0.370079 -0.000000
vn -0.929134 0.370079 -0.000000
vn -0.897638 0.440945 -0.000000
vn -0.897638 0.440945 -0.000000
vn -0.889764 0.448819 -0.000000
vn -0.889764 0.448819 -0.000000
tan -0.705747 0.000000 0.705747 1.000000
tan -0.705747 0.000000 0.705747 1.000000
tan -0.707173 0.000000 0.707173 1.000000
tan -0.172980 0.970922 0.172980 1.000000
tan -0.172980 0.970922 0.172980 1.000000
tan -0.089280 0.993242 0.089280 1.000000
tan -0.705747 0.000000 0.705747 1.000000
tan -0.705747 0.000000 0.705747 1.000000
tan -0.707173 0.000000 0.707173 1.000000
tan -0.172980 -0.970922 0.172980 1.000000
tan -0.172980 -0.970922 0.172980 1.000000
tan -0.089280 -0.993242 0.089280 1.000000
tan 0.448819 -0.889764 0.000000 1.000000
tan 0.448819 -0.889764 0.000000 1.000000
tan 0.440945 -0.897638 0.000000 1.000000
tan 0.440945 -0.897638 0.000000 1.000000
tan 0.370079 -0.929134 0.000000 1.000000
tan 0.370079 -0.929134 0.000000 1.000000
tan 0.330709 -0.944882 0.000000 1.000000
tan 0.330709 -0.944882 0.000000 1.000000
tan 0.322835 -0.944882 0.000000 1.000000
tan 0.322835 -0.944882 0.000000 1.000000
tan 0.291339 -0.952756 0.000000 1.000000
tan 0.291339 -0.952756 0.000000 1.000000
tan 0.204724 -0.976378 0.000000 1.000000
tan 0.204724 -0.976378 0.000000 1.000000
tan 0.173228 -0.984252 0.000000 1.000000
tan -0.184140 -0.970922 0.184140 1.000000
tan -0.172980 -0.970922 0.172980 1.000000
tan -0.172980 -0.970922 0.172980 1.000000
tan -0.184140 -0.970922 0.184140 1.000000
tan -0.273421 -0.926282 0.273421 1.000000
tan -0.273421 -0.926282 0.273421 1.000000
tan -0.306901 -0.903962 0.306901 1.000000
tan -0.306901 -0.903962 0.306901 1.000000
tan -0.312481 -0.892802 0.312481 1.000000
tan -0.312481 -0.892802 0.312481 1.000000
tan -0.345961 -0.881642 0.345961 1.000000
tan -0.345961 -0.881642 0.345961 1.000000
tan -0.401761 -0.825842 0.401761 1.000000
tan -0.401761 -0.825842 0.401761 1.000000
tan -0.412921 -0.814682 0.412921 1.000000
tan -0.412921 -0.814682 0.412921 1.000000
tan 0.172980 -0.970922 0.172980 1.000000
tan 0.184140 -0.970922 0.184140 1.000000
tan 0.172980 -0.970922 0.172980 1.000000
tan 0.184140 -0.970922 0.184140 1.000000
tan 0.273421 -0.926282 0.273421 1.000000
tan 0.273421 -0.926282 0.273421 1.000000
tan 0.306901 -0.903962 0.306901 1.000000
tan 0.306901 -0.903962 0.306901 1.000000
tan 0.312481 -0.892802 0.312481 1.000000
tan 0.312481 -0.892802 0.312481 1.000000
tan 0.345961 -0.881642 0.345961 1.000000
tan 0.345961 -0.881642 0.345961 1.000000
tan 0.401761 -0.825842 0.401761 1.000000
tan 0.401761 -0.825842 0.401761 1.000000
tan 0.412921 -0.814682 0.412921 1.000000
tan 0.412921 -0.814682 0.412921 1.000000
tan -0.172980 -0.970922 -0.172980 1.000000
tan -0.184140 -0.970922 -0.184140 1.000000
tan -0.172980 -0.970922 -0.172980 1.000000
tan -0.184140 -0.970922 -0.184140 1.000000
tan -0.273421 -0.926282 -0.273420 1.000000
tan -0.273421 -0.926282 -0.273420 1.000000
tan -0.306901 -0.903962 -0.306900 1.000000
tan -0.306901 -0.903962 -0.306900 1.000000
tan -0.312481 -0.892802 -0.312480 1.000000
tan -0.312481 -0.892802 -0.312480 1.000000
tan -0.345961 -0.881642 -0.345961 1.000000
tan -0.345961 -0.881642 -0.345961 1.000000
tan -0.401761 -0.825842 -0.401761 1.000000
tan -0.401761 -0.825842 -0.401761 1.000000
tan -0.412921 -0.814682 -0.412921 1.000000
tan -0.412921 -0.814682 -0.412921 1.000000
tan 0.172980 -0.970922 -0.172980 1.000000
tan 0.184140 -0.970922 -0.184140 1.000000
tan 0.172980 -0.970922 -0.172980 1.000000
tan 0.184140 -0.970922 -0.184140 1.000000
tan 0.273421 -0.926282 -0.273420 1.000000
tan 0.273421 -0.926282 -0.273420 1.000000
tan 0.306901 -0.903962 -0.306900 1.000000
tan 0.306901 -0.903962 -0.306900 1.000000
tan 0.312481 -0.892802 -0.312480 1.000000
tan 0.312481 -0.892802 -0.312480 1.000000
tan 0.345961 -0.881642 -0.345961 1.000000
tan 0.345961 -0.881642 -0.345961 1.000000
tan 0.401761 -0.825842 -0.401761 1.000000
tan 0.401761 -0.825842 -0.401761 1.000000
tan 0.412921 -0.814682 -0.412921 1.000000
tan 0.412921 -0.814682 -0.412921 1.000000
tan 0.000000 -0.976378 -0.204724 1.000000
tan 0.000000 -0.976378 -0.204724 1.000000
tan 0.000000 -0.984252 -0.173228 1.000000
tan 0.000000 -0.952756 -0.291338 1.000000
tan 0.000000 -0.952756 -0.291338 1.000000
tan 0.000000 -0.944882 -0.322834 1.000000
tan 0.000000 -0.944882 -0.322834 1.000000
tan 0.000000 -0.944882 -0.330709 1.000000
tan 0.000000 -0.944882 -0.330709 1.000000
tan 0.000000 -0.929134 -0.370079 1.000000
tan 0.000000 -0.929134 -0.370079 1.000000
tan 0.000000 -0.897638 -0.440945 1.000000
tan 0.000000 -0.897638 -0.440945 1.000000
tan 0.000000 -0.889764 -0.448819 1.000000
tan 0.000000 -0.889764 -0.448819 1.000000
tan 0.000000 -0.984252 0.173228 1.000000
tan 0.000000 -0.976378 0.204724 1.000000
tan 0.000000 -0.976378 0.204724 1.000000
tan 0.000000 -0.952756 0.291339 1.000000
tan 0.000000 -0.952756 0.291339 1.000000
tan 0.000000 -0.944882 0.322835 1.000000
tan 0.000000 -0.944882 0.322835 1.000000
tan 0.000000 -0.944882 0.330709 1.000000
tan 0.000000 -0.944882 0.330709 1.000000
tan 0.000000 -0.929134 0.370079 1.000000
tan 0.000000 -0.929134 0.370079 1.000000
tan 0.000000 -0.897638 0.440945 1.000000
tan 0.000000 -0.897638 0.440945 1.000000
tan 0.000000 -0.889764 0.448819 1.000000
tan 0.000000 -0.889764 0.448819 1.000000
tan -0.204724 -0.976378 0.000000 1.000000
tan -0.204724 -0.976378 0.000000 1.000000
tan -0.173228 -0.984252 0.000000 1.000000
tan -0.291339 -0.952756 0.000000 1.000000
tan -0.291339 -0.952756 0.000000 1.000000
tan -0.322835 -0.944882 0.000000 1.000000
tan -0.322835 -0.944882 0.000000 1.000000
tan -0.330709 -0.944882 0.000000 1.000000
tan -0.330709 -0.944882 0.000000 1.000000
tan -0.370079 -0.929134 0.000000 1.000000
tan -0.370079 -0.929134 0.000000 1.000000
tan -0.440945 -0.897638 0.000000 1.000000
tan -0.440945 -0.897638 0.000000 1.000000
tan -0.448819 -0.889764 0.000000 1.000000
tan -0.448819 -0.889764 0.000000 1.000000
f 3/3/3 2/2/2 1/1/1
f 6/6/6 5/5/5 4/4/4
f 9/9/9 8/8/8 7/7/7
f 12/12/12 11/11/11 10/10/10
f 15/15/15 14/14/14 13/13/13
f 16/16/16 14/14/14 15/15/15
f 17/17/17 16/16/16 15/15/15
f 18/18/18 16/16/16 17/17/17
f 19/19/19 18/18/18 17/17/17
f 17/17/17 20/20/20 19/19/19
f 21/21/21 19/19/19 20/20/20
f 22/22/22 19/19/19 21/21/21
f 23/23/23 22/22/22 21/21/21
f 21/21/21 24/24/24 23/23/23
f 25/25/25 23/23/23 24/24/24
f 26/26/26 23/23/23 25/25/25
f 27/27/27 26/26/26 25/25/25
f 30/30/30 29/29/29 28/28/28
f 28/28/28 29/29/29 31/31/31
f 28/28/28 31/31/31 32/32/32
f 32/32/32 31/31/31 33/33/33
f 32/32/32 33/33/33 34/34/34
f 34/34/34 33/33/33 35/35/35
f 34/34/34 35/35/35 36/36/36
f 36/36/36 35/35/35 37/37/37
f 36/36/36 37/37/37 38/38/38
f 38/38/38 37/37/37 39/39/39
f 38/38/38 39/39/39 40/40/40
f 40/40/40 39/39/39 41/41/41
f 41/41/41 42/42/42 40/40/40
f 43/43/43 40/40/40 42/42/42
f 46/46/46 45/45/45 44/44/44
f 47/47/47 44/44/44 45/45/45
f 45/45/45 48/48/48 47/47/47
f 49/49/49 47/47/47 48/48/48
f 48/48/48 50/50/50 49/49/49
f 51/51/51 49/49/49 50/50/50
f 50/50/50 52/52/52 51/51/51
f 53/53/53 51/51/51 52/52/52
f 52/52/52 54/54/54 53/53/53
f 55/55/55 53/53/53 54/54/54
f 54/54/54 56/56/56 55/55/55
f 57/57/57 55/55/55 56/56/56
f 56/56/56 58/58/58 57/57/57
f 58/58/58 56/56/56 59/59/59
f 62/62/62 61/61/61 60/60/60
f 63/63/63 60/60/60 61/61/61
f 61/61/61 64/64/64 63/63/63
f 65/65/65 63/63/63 64/64/64
f 64/64/64 66/66/66 65/65/65
f 67/67/67 65/65/65 66/66/66
f 66/66/66 68/68/68 67/67/67
f 69/69/69 67/67/67 68/68/68
f 68/68/68 70/70/70 69/69/69
f 71/71/71 69/69/69 70/70/70
f 70/70/70 72/72/72 71/71/71
f 73/73/73 71/71/71 72/72/72
f 73/73/73 72/72/72 74/74/74
f 75/75/75 74/74/74 72/72/72
f 78/78/78 77/77/77 76/76/76
f 77/77/77 78/78/78 79/79/79
f 79/79/79 80/80/80 77/77/77
f 81/81/81 80/80/80 79/79/79
f 81/81/81 82/82/82 80/80/80
f 82/82/82 81/81/81 83/83/83
f 83/83/83 84/84/84 82/82/82
f 85/85/85 84/84/84 83/83/83
f 85/85/85 86/86/86 84/84/84
f 86/86/86 85/85/85 87/87/87
f 87/87/87 88/88/88 86/86/86
f 89/89/89 88/88/88 87/87/87
f 89/89/89 90/90/90 88/88/88
f 91/91/91 88/88/88 90/90/90
f 94/94/94 93/93/93 92/92/92
f 93/93/93 95/95/95 92/92/92
f 92/92/92 95/95/95 96/96/96
f 96/96/96 95/95/95 97/97/97
f 95/95/95 98/98/98 97/97/97
f 98/98/98 99/99/99 97/97/97
f 97/97/97 99/99/99 100/100/100
f 100/100/100 99/99/99 101/101/101
f 99/99/99 102/102/102 101/101/101
f 101/101/101 102/102/102 103/103/103
f 104/104/104 103/103/103 102/102/102
f 104/104/104 105/105/105 103/103/103
f 103/103/103 105/105/105 106/106/106
f 109/109/109 108/108/108 107/107/107
f 110/110/110 108/108/108 109/109/109
f 108/108/108 110/110/110 111/111/111
f 111/111/111 110/110/110 112/112/112
f 110/110/110 113/113/113 112/112/112
f 114/114/114 112/112/112 113/113/113
f 112/112/112 114/114/114 115/115/115
f 115/115/115 114/114/114 116/116/116
f 114/114/114 117/117/117 116/116/116
f 117/117/117 118/118/118 116/116/116
f 116/116/116 118/118/118 119/119/119
f 119/119/119 118/118/118 120/120/120
f 118/118/118 121/121/121 120/120/120
f 124/124/124 123/123/123 122/122/122
f 125/125/125 122/122/122 123/123/123
f 126/126/126 122/122/122 125/125/125
f 126/126/126 125/125/125 127/127/127
f 128/128/128 127/127/127 125/125/125
f 129/129/129 127/127/127 128/128/128
f 130/130/130 127/127/127 129/129/129
f 130/130/130 129/129/129 131/131/131
f 132/132/132 131/131/131 129/129/129
f 133/133/133 131/131/131 132/132/132
f 134/134/134 131/131/131 133/133/133
f 135/135/135 134/134/134 133/133/133
f 136/136/136 134/134/134 135/135/135
