mtllib SM_Mast_Bridge@000002909DC04800.mtl
g SM_Mast_Bridge@000002909DC04800
#Vertices 306
#Indices 648
#Section 0 Offset 0 NumIndices 432 MaterialIndex 0 MI_BrickTile_C_01
#Section 1 Offset 432 NumIndices 162 MaterialIndex 1 MI_BrickTile_C_01
#Section 2 Offset 594 NumIndices 54 MaterialIndex 2 MI_FloorTile_A_01
v 5.999999 3.492380 2.000409 0.000000 0.000000 1.000000 1.000000
v 6.999999 3.492380 2.000409 0.000000 0.000000 1.000000 1.000000
v 6.999999 3.492380 3.000409 0.000000 0.000000 1.000000 1.000000
v 5.999999 3.492380 3.000409 0.000000 0.000000 1.000000 1.000000
v 7.999999 3.492380 2.000409 0.000000 0.000000 1.000000 1.000000
v 8.999999 3.492380 2.000409 0.000000 0.000000 1.000000 1.000000
v 8.999999 3.492380 3.000409 0.000000 0.000000 1.000000 1.000000
v 7.999999 3.492380 3.000409 0.000000 0.000000 1.000000 1.000000
v 9.000000 3.492380 -2.998770 0.000000 0.000000 1.000000 1.000000
v 8.000000 3.492380 -2.998770 0.000000 0.000000 1.000000 0.000000
v 8.000000 2.512351 -2.998770 0.000000 0.000000 1.000000 0.000000
v 9.000000 2.512351 -2.998770 0.000000 0.000000 1.000000 0.298039
v 5.999999 2.512351 3.000409 0.000000 0.000000 1.000000 1.000000
v 6.999999 3.492380 3.000409 0.000000 0.000000 1.000000 1.000000
v 6.999999 2.512351 3.000409 0.000000 0.000000 1.000000 1.000000
v 5.999999 3.492380 3.000409 0.000000 0.000000 1.000000 1.000000
v 7.999999 2.512351 3.000409 0.000000 0.000000 1.000000 1.000000
v 8.999999 3.492380 3.000409 0.000000 0.000000 1.000000 1.000000
v 8.999999 2.512351 3.000409 0.000000 0.000000 1.000000 1.000000
v 7.999999 3.492380 3.000409 0.000000 0.000000 1.000000 1.000000
v 7.999999 2.512351 2.000410 0.000000 0.000000 1.000000 1.000000
v 7.999999 2.512351 3.000409 0.000000 0.000000 1.000000 1.000000
v 6.999999 2.512351 2.000410 0.000000 0.000000 1.000000 1.000000
v 6.999999 2.512351 3.000409 0.000000 0.000000 1.000000 1.000000
v 6.999999 2.512351 2.000410 0.000000 0.000000 1.000000 1.000000
v 6.999999 2.512351 3.000409 0.000000 0.000000 1.000000 1.000000
v 6.999999 3.492380 2.000409 0.000000 0.000000 1.000000 1.000000
v 6.999999 3.492380 3.000409 0.000000 0.000000 1.000000 1.000000
v 7.999999 3.492380 2.000409 0.000000 0.000000 1.000000 1.000000
v 7.999999 3.492380 3.000409 0.000000 0.000000 1.000000 1.000000
v 7.999999 2.512351 2.000410 0.000000 0.000000 1.000000 1.000000
v 7.999999 2.512351 3.000409 0.000000 0.000000 1.000000 1.000000
v 5.999999 3.492380 -2.998770 0.000000 0.000000 1.000000 0.000000
v 6.999999 3.492380 -2.998770 0.000000 0.000000 1.000000 0.000000
v 6.999999 3.492380 -1.998770 0.000000 0.000000 1.000000 0.000000
v 5.999999 3.492380 -1.998770 0.000000 0.000000 1.000000 0.000000
v 6.999999 2.512351 -1.998770 0.000000 0.000000 1.000000 0.000000
v 6.999999 3.492380 -2.998770 0.000000 0.000000 1.000000 0.000000
v 6.999999 2.512351 -2.998770 0.000000 0.000000 1.000000 0.000000
v 6.999999 3.492380 -1.998770 0.000000 0.000000 1.000000 0.000000
v 7.999999 3.492380 -1.998770 0.000000 0.000000 1.000000 0.000000
v 8.000000 2.512351 -2.998770 0.000000 0.000000 1.000000 0.000000
v 8.000000 3.492380 -2.998770 0.000000 0.000000 1.000000 0.000000
v 7.999999 2.512351 -1.998770 0.000000 0.000000 1.000000 0.000000
v 8.000000 3.492380 -2.998770 0.000000 0.000000 1.000000 0.000000
v 9.000000 3.492380 -2.998770 0.000000 0.000000 1.000000 1.000000
v 9.000000 3.492380 -1.998770 0.000000 0.000000 1.000000 1.000000
v 7.999999 3.492380 -1.998770 0.000000 0.000000 1.000000 0.000000
v 6.999999 2.512351 -2.998770 0.000000 0.000000 1.000000 0.000000
v 7.999999 2.512351 -1.998770 0.000000 0.000000 1.000000 0.000000
v 6.999999 2.512351 -1.998770 0.000000 0.000000 1.000000 0.000000
v 8.000000 2.512351 -2.998770 0.000000 0.000000 1.000000 0.000000
v 4.999999 3.492380 2.000409 0.000000 0.000000 1.000000 1.000000
v 3.999999 3.492380 3.000409 0.000000 0.000000 1.000000 1.000000
v 3.999999 3.492380 2.000409 0.000000 0.000000 1.000000 1.000000
v 4.999999 3.492380 3.000409 0.000000 0.000000 1.000000 1.000000
v 2.999999 3.492380 2.000409 0.000000 0.000000 1.000000 1.000000
v 1.999999 3.492380 3.000409 0.000000 0.000000 1.000000 1.000000
v 1.999999 3.492380 2.000409 0.000000 0.000000 1.000000 1.000000
v 2.999999 3.492380 3.000409 0.000000 0.000000 1.000000 1.000000
v 0.999999 3.492380 2.000409 0.000000 0.000000 1.000000 1.000000
v -0.000001 3.492380 3.000409 0.000000 0.000000 1.000000 1.000000
v -0.000001 3.492380 2.000409 0.000000 0.000000 1.000000 1.000000
v 0.999999 3.492380 3.000409 0.000000 0.000000 1.000000 1.000000
v -0.000001 3.492380 -2.998770 0.000000 0.000000 1.000000 1.000000
v 0.999999 2.512351 -2.998770 0.000000 0.000000 1.000000 1.000000
v 0.999999 3.492380 -2.998770 0.000000 0.000000 1.000000 1.000000
v -0.000001 2.512351 -2.998770 0.000000 0.000000 1.000000 1.000000
v 1.999999 3.492380 -2.998770 0.000000 0.000000 1.000000 1.000000
v 2.999999 2.512351 -2.998770 0.000000 0.000000 1.000000 1.000000
v 2.999999 3.492380 -2.998770 0.000000 0.000000 1.000000 1.000000
v 1.999999 2.512351 -2.998770 0.000000 0.000000 1.000000 1.000000
v 3.999999 3.492380 -2.998770 0.000000 0.000000 1.000000 1.000000
v 4.999999 2.512351 -2.998770 0.000000 0.000000 1.000000 0.588235
v 4.999999 3.492380 -2.998770 0.000000 0.000000 1.000000 0.000000
v 3.999999 2.512351 -2.998770 0.000000 0.000000 1.000000 1.000000
v 4.999999 2.512351 3.000409 0.000000 0.000000 1.000000 1.000000
v 3.999999 2.512351 3.000409 0.000000 0.000000 1.000000 1.000000
v 3.999999 3.492380 3.000409 0.000000 0.000000 1.000000 1.000000
v 4.999999 3.492380 3.000409 0.000000 0.000000 1.000000 1.000000
v 2.999999 2.512351 3.000409 0.000000 0.000000 1.000000 1.000000
v 1.999999 2.512351 3.000409 0.000000 0.000000 1.000000 1.000000
v 1.999999 3.492380 3.000409 0.000000 0.000000 1.000000 1.000000
v 2.999999 3.492380 3.000409 0.000000 0.000000 1.000000 1.000000
v 0.999999 2.512351 3.000409 0.000000 0.000000 1.000000 1.000000
v -0.000001 2.512351 3.000409 0.000000 0.000000 1.000000 1.000000
v -0.000001 3.492380 3.000409 0.000000 0.000000 1.000000 1.000000
v 0.999999 3.492380 3.000409 0.000000 0.000000 1.000000 1.000000
v 4.999999 2.512351 2.000410 0.000000 0.000000 1.000000 1.000000
v 5.999999 2.512351 2.000410 0.000000 0.000000 1.000000 1.000000
v 4.999999 2.512351 3.000409 0.000000 0.000000 1.000000 1.000000
v 5.999999 2.512351 3.000409 0.000000 0.000000 1.000000 1.000000
v 2.999999 2.512351 2.000410 0.000000 0.000000 1.000000 0.000000
v 3.999999 2.512351 2.000410 0.000000 0.000000 1.000000 0.000000
v 2.999999 2.512351 3.000409 0.000000 0.000000 1.000000 1.000000
v 3.999999 2.512351 3.000409 0.000000 0.000000 1.000000 1.000000
v 0.999999 2.512351 2.000410 0.000000 0.000000 1.000000 1.000000
v 1.999999 2.512351 2.000410 0.000000 0.000000 1.000000 0.000000
v 0.999999 2.512351 3.000409 0.000000 0.000000 1.000000 1.000000
v 1.999999 2.512351 3.000409 0.000000 0.000000 1.000000 1.000000
v 5.999999 2.512351 2.000410 0.000000 0.000000 1.000000 1.000000
v 5.999999 3.492380 2.000409 0.000000 0.000000 1.000000 1.000000
v 5.999999 2.512351 3.000409 0.000000 0.000000 1.000000 1.000000
v 5.999999 3.492380 3.000409 0.000000 0.000000 1.000000 1.000000
v 4.999999 3.492380 2.000409 0.000000 0.000000 1.000000 1.000000
v 4.999999 2.512351 2.000410 0.000000 0.000000 1.000000 1.000000
v 4.999999 3.492380 3.000409 0.000000 0.000000 1.000000 1.000000
v 4.999999 2.512351 3.000409 0.000000 0.000000 1.000000 1.000000
v 3.999999 2.512351 2.000410 0.000000 0.000000 1.000000 0.000000
v 3.999999 3.492380 2.000409 0.000000 0.000000 1.000000 1.000000
v 3.999999 2.512351 3.000409 0.000000 0.000000 1.000000 1.000000
v 3.999999 3.492380 3.000409 0.000000 0.000000 1.000000 1.000000
v 2.999999 3.492380 2.000409 0.000000 0.000000 1.000000 1.000000
v 2.999999 2.512351 2.000410 0.000000 0.000000 1.000000 0.000000
v 2.999999 3.492380 3.000409 0.000000 0.000000 1.000000 1.000000
v 2.999999 2.512351 3.000409 0.000000 0.000000 1.000000 1.000000
v 1.999999 2.512351 2.000410 0.000000 0.000000 1.000000 0.000000
v 1.999999 3.492380 2.000409 0.000000 0.000000 1.000000 1.000000
v 1.999999 2.512351 3.000409 0.000000 0.000000 1.000000 1.000000
v 1.999999 3.492380 3.000409 0.000000 0.000000 1.000000 1.000000
v 0.999999 3.492380 2.000409 0.000000 0.000000 1.000000 1.000000
v 0.999999 2.512351 2.000410 0.000000 0.000000 1.000000 1.000000
v 0.999999 3.492380 3.000409 0.000000 0.000000 1.000000 1.000000
v 0.999999 2.512351 3.000409 0.000000 0.000000 1.000000 1.000000
v 5.999999 2.512351 -2.998770 0.000000 0.000000 1.000000 0.000000
v 5.999999 3.492380 -2.998770 0.000000 0.000000 1.000000 0.000000
v 5.999999 2.512351 -1.998770 0.000000 0.000000 1.000000 0.000000
v 5.999999 3.492380 -1.998770 0.000000 0.000000 1.000000 0.000000
v 4.999999 3.492380 -2.998770 0.000000 0.000000 1.000000 0.000000
v 4.999999 2.512351 -2.998770 0.000000 0.000000 1.000000 0.588235
v 4.999999 3.492380 -1.998770 0.000000 0.000000 1.000000 0.000000
v 4.999999 2.512351 -1.998770 0.000000 0.000000 1.000000 0.411765
v 4.999999 3.492380 -2.998770 0.000000 0.000000 1.000000 0.000000
v 3.999999 3.492380 -1.998770 0.000000 0.000000 1.000000 1.000000
v 3.999999 3.492380 -2.998770 0.000000 0.000000 1.000000 1.000000
v 4.999999 3.492380 -1.998770 0.000000 0.000000 1.000000 0.000000
v 3.999999 2.512351 -2.998770 0.000000 0.000000 1.000000 1.000000
v 3.999999 3.492380 -2.998770 0.000000 0.000000 1.000000 1.000000
v 3.999999 2.512351 -1.998770 0.000000 0.000000 1.000000 1.000000
v 3.999999 3.492380 -1.998770 0.000000 0.000000 1.000000 1.000000
v 2.999999 2.512351 -2.998770 0.000000 0.000000 1.000000 1.000000
v 3.999999 2.512351 -2.998770 0.000000 0.000000 1.000000 1.000000
v 2.999999 2.512351 -1.998770 0.000000 0.000000 1.000000 1.000000
v 3.999999 2.512351 -1.998770 0.000000 0.000000 1.000000 1.000000
v 2.999999 3.492380 -2.998770 0.000000 0.000000 1.000000 1.000000
v 2.999999 2.512351 -2.998770 0.000000 0.000000 1.000000 1.000000
v 2.999999 3.492380 -1.998770 0.000000 0.000000 1.000000 1.000000
v 2.999999 2.512351 -1.998770 0.000000 0.000000 1.000000 1.000000
v 2.999999 3.492380 -2.998770 0.000000 0.000000 1.000000 1.000000
v 1.999999 3.492380 -1.998770 0.000000 0.000000 1.000000 1.000000
v 1.999999 3.492380 -2.998770 0.000000 0.000000 1.000000 1.000000
v 2.999999 3.492380 -1.998770 0.000000 0.000000 1.000000 1.000000
v 1.999999 2.512351 -2.998770 0.000000 0.000000 1.000000 1.000000
v 1.999999 3.492380 -2.998770 0.000000 0.000000 1.000000 1.000000
v 1.999999 2.512351 -1.998770 0.000000 0.000000 1.000000 1.000000
v 1.999999 3.492380 -1.998770 0.000000 0.000000 1.000000 1.000000
v 0.999999 2.512351 -2.998770 0.000000 0.000000 1.000000 1.000000
v 1.999999 2.512351 -2.998770 0.000000 0.000000 1.000000 1.000000
v 0.999999 2.512351 -1.998770 0.000000 0.000000 1.000000 1.000000
v 1.999999 2.512351 -1.998770 0.000000 0.000000 1.000000 1.000000
v 0.999999 3.492380 -2.998770 0.000000 0.000000 1.000000 1.000000
v 0.999999 2.512351 -2.998770 0.000000 0.000000 1.000000 1.000000
v 0.999999 3.492380 -1.998770 0.000000 0.000000 1.000000 1.000000
v 0.999999 2.512351 -1.998770 0.000000 0.000000 1.000000 1.000000
v 0.999999 3.492380 -2.998770 0.000000 0.000000 1.000000 1.000000
v -0.000001 3.492380 -1.998770 0.000000 0.000000 1.000000 1.000000
v -0.000001 3.492380 -2.998770 0.000000 0.000000 1.000000 1.000000
v 0.999999 3.492380 -1.998770 0.000000 0.000000 1.000000 1.000000
v 5.999999 2.512351 -2.998770 0.000000 0.000000 1.000000 0.000000
v 4.999999 2.512351 -1.998770 0.000000 0.000000 1.000000 0.411765
v 4.999999 2.512351 -2.998770 0.000000 0.000000 1.000000 0.588235
v 5.999999 2.512351 -1.998770 0.000000 0.000000 1.000000 0.000000
v 6.999999 3.492380 -2.998770 0.000000 0.000000 1.000000 0.000000
v 5.999999 3.492380 -2.998770 0.000000 0.000000 1.000000 0.000000
v 6.999999 2.512351 -2.998770 0.000000 0.000000 1.000000 0.000000
v 5.999999 2.512351 -2.998770 0.000000 0.000000 1.000000 0.000000
v 9.000000 2.512351 -1.998770 0.000000 0.000000 1.000000 0.321569
v 7.999999 3.492380 -1.998770 0.000000 0.000000 1.000000 0.000000
v 9.000000 3.492380 -1.998770 0.000000 0.000000 1.000000 1.000000
v 7.999999 2.512351 -1.998770 0.000000 0.000000 1.000000 0.000000
v 9.000000 1.637556 -1.998770 0.000000 0.000000 1.000000 0.000000
v 7.999999 1.637556 -1.998770 0.000000 0.000000 1.000000 0.000000
v 6.999999 2.512351 -1.998770 0.000000 0.000000 1.000000 0.000000
v 6.999999 1.637556 -1.998770 0.000000 0.000000 1.000000 0.000000
v 5.999999 3.492380 -1.998770 0.000000 0.000000 1.000000 0.000000
v 6.999999 3.492380 -1.998770 0.000000 0.000000 1.000000 0.000000
v 5.999999 2.512351 -1.998770 0.000000 0.000000 1.000000 0.000000
v 5.999999 1.637556 -1.998770 0.000000 0.000000 1.000000 0.000000
v 4.999999 1.637556 -1.998770 0.000000 0.000000 1.000000 1.000000
v 4.999999 2.512351 -1.998770 0.000000 0.000000 1.000000 0.411765
v 3.999999 1.637556 -1.998770 0.000000 0.000000 1.000000 1.000000
v 3.999999 2.512351 -1.998770 0.000000 0.000000 1.000000 1.000000
v 4.999999 3.492380 -1.998770 0.000000 0.000000 1.000000 0.000000
v 3.999999 3.492380 -1.998770 0.000000 0.000000 1.000000 1.000000
v 2.999999 1.637556 -1.998770 0.000000 0.000000 1.000000 1.000000
v 2.999999 2.512351 -1.998770 0.000000 0.000000 1.000000 1.000000
v 1.999999 1.637556 -1.998770 0.000000 0.000000 1.000000 1.000000
v 1.999999 2.512351 -1.998770 0.000000 0.000000 1.000000 1.000000
v 2.999999 3.492380 -1.998770 0.000000 0.000000 1.000000 1.000000
v 1.999999 3.492380 -1.998770 0.000000 0.000000 1.000000 1.000000
v 0.999999 1.637556 -1.998770 0.000000 0.000000 1.000000 1.000000
v 0.999999 2.512351 -1.998770 0.000000 0.000000 1.000000 1.000000
v -0.000001 1.637556 -1.998770 0.000000 0.000000 1.000000 1.000000
v -0.000001 2.512351 -1.998770 0.000000 0.000000 1.000000 1.000000
v 0.999999 3.492380 -1.998770 0.000000 0.000000 1.000000 1.000000
v -0.000001 3.492380 -1.998770 0.000000 0.000000 1.000000 1.000000
v 5.999999 3.492380 2.000409 0.000000 0.000000 1.000000 1.000000
v 5.999999 2.512351 2.000410 0.000000 0.000000 1.000000 1.000000
v 6.999999 3.492380 2.000409 0.000000 0.000000 1.000000 1.000000
v 6.999999 2.512351 2.000410 0.000000 0.000000 1.000000 1.000000
v 5.999999 1.637556 2.000205 0.000000 0.000000 1.000000 1.000000
v 4.999999 2.512351 2.000410 0.000000 0.000000 1.000000 1.000000
v 6.999999 1.637556 2.000205 0.000000 0.000000 1.000000 1.000000
v 4.999999 1.637556 2.000205 0.000000 0.000000 1.000000 0.000000
v 7.999999 2.512351 2.000410 0.000000 0.000000 1.000000 1.000000
v 7.999999 1.637556 2.000205 0.000000 0.000000 1.000000 1.000000
v 4.999999 3.492380 2.000409 0.000000 0.000000 1.000000 1.000000
v 3.999999 3.492380 2.000409 0.000000 0.000000 1.000000 1.000000
v 3.999999 2.512351 2.000410 0.000000 0.000000 1.000000 0.000000
v 3.999999 1.637556 2.000205 0.000000 0.000000 1.000000 0.000000
v 2.999999 2.512351 2.000410 0.000000 0.000000 1.000000 0.000000
v 2.999999 1.637556 2.000205 0.000000 0.000000 1.000000 0.000000
v 7.999999 3.492380 2.000409 0.000000 0.000000 1.000000 1.000000
v 8.999999 3.492380 2.000409 0.000000 0.000000 1.000000 1.000000
v 8.999999 2.512351 2.000410 0.000000 0.000000 1.000000 1.000000
v 8.999999 1.637556 2.000205 0.000000 0.000000 1.000000 1.000000
v 2.999999 3.492380 2.000409 0.000000 0.000000 1.000000 1.000000
v 1.999999 3.492380 2.000409 0.000000 0.000000 1.000000 1.000000
v 1.999999 2.512351 2.000410 0.000000 0.000000 1.000000 0.000000
v 1.999999 1.637556 2.000205 0.000000 0.000000 1.000000 0.000000
v 0.999999 2.512351 2.000410 0.000000 0.000000 1.000000 1.000000
v 0.999999 1.637556 2.000205 0.000000 0.000000 1.000000 1.000000
v 0.999999 3.492380 2.000409 0.000000 0.000000 1.000000 1.000000
v -0.000001 3.492380 2.000409 0.000000 0.000000 1.000000 1.000000
v -0.000001 2.512351 2.000410 0.000000 0.000000 1.000000 1.000000
v -0.000001 1.637556 2.000205 0.000000 0.000000 1.000000 1.000000
v 8.999999 -3.492383 -2.999589 0.000000 0.000000 1.000000 0.294118
v 7.999999 -3.492383 -2.999589 0.000000 0.000000 1.000000 0.000000
v 4.999999 2.512351 -2.998770 0.000000 0.000000 1.000000 0.588235
v 4.999999 -3.492383 -2.999589 0.000000 0.000000 1.000000 0.000000
v 5.999999 2.512351 -2.998770 0.000000 0.000000 1.000000 0.000000
v 5.999999 -3.492383 -3.000409 0.000000 0.000000 1.000000 0.000000
v 6.999999 2.512351 -2.998770 0.000000 0.000000 1.000000 0.000000
v 7.999999 -3.492383 -2.999589 0.000000 0.000000 1.000000 0.000000
v 8.000000 2.512351 -2.998770 0.000000 0.000000 1.000000 0.000000
v 6.999999 -3.492383 -3.000409 0.000000 0.000000 1.000000 0.000000
v 5.999999 2.512351 -2.998770 0.000000 0.000000 1.000000 0.000000
v 5.999999 -3.492383 -3.000409 0.000000 0.000000 1.000000 0.000000
v 6.999999 2.512351 -2.998770 0.000000 0.000000 1.000000 0.000000
v 6.999999 -3.492383 -3.000409 0.000000 0.000000 1.000000 0.000000
v -0.000001 -3.492383 -2.999589 0.000000 0.000000 1.000000 1.000000
v 0.999999 -3.492383 -2.999589 0.000000 0.000000 1.000000 1.000000
v 1.999999 -3.492383 -2.999589 0.000000 0.000000 1.000000 1.000000
v 2.999999 -3.492383 -2.999589 0.000000 0.000000 1.000000 1.000000
v 3.999999 -3.492383 -2.999589 0.000000 0.000000 1.000000 0.121569
v 4.999999 -3.492383 -2.999589 0.000000 0.000000 1.000000 0.000000
v -0.000001 -3.492382 3.000410 0.000000 0.000000 1.000000 1.000000
v 0.999999 -3.492382 3.000410 0.000000 0.000000 1.000000 1.000000
v 1.999999 -3.492382 3.000410 0.000000 0.000000 1.000000 1.000000
v 2.999999 -3.492382 3.000410 0.000000 0.000000 1.000000 1.000000
v 3.999999 -3.492382 3.000410 0.000000 0.000000 1.000000 1.000000
v 4.999999 -3.492382 3.000410 0.000000 0.000000 1.000000 1.000000
v 5.999999 -3.492382 3.000410 0.000000 0.000000 1.000000 1.000000
v 6.999999 -3.492382 3.000410 0.000000 0.000000 1.000000 1.000000
v 7.999999 -3.492382 3.000410 0.000000 0.000000 1.000000 1.000000
v 8.999999 -3.492382 3.000410 0.000000 0.000000 1.000000 1.000000
v -0.000001 -3.492383 -2.999589 0.000000 0.000000 1.000000 1.000000
v -0.000001 -3.492382 3.000410 0.000000 0.000000 1.000000 1.000000
v 0.999999 -3.492383 -2.999589 0.000000 0.000000 1.000000 1.000000
v 0.999999 -3.492382 3.000410 0.000000 0.000000 1.000000 1.000000
v 1.999999 -3.492383 -2.999589 0.000000 0.000000 1.000000 1.000000
v 1.999999 -3.492382 3.000410 0.000000 0.000000 1.000000 1.000000
v 2.999999 -3.492383 -2.999589 0.000000 0.000000 1.000000 1.000000
v 2.999999 -3.492382 3.000410 0.000000 0.000000 1.000000 1.000000
v 3.999999 -3.492383 -2.999589 0.000000 0.000000 1.000000 0.121569
v 3.999999 -3.492382 3.000410 0.000000 0.000000 1.000000 1.000000
v 4.999999 -3.492383 -2.999589 0.000000 0.000000 1.000000 0.000000
v 4.999999 -3.492382 3.000410 0.000000 0.000000 1.000000 1.000000
v 5.999999 -3.492382 3.000410 0.000000 0.000000 1.000000 1.000000
v 5.999999 -3.492383 -3.000409 0.000000 0.000000 1.000000 0.000000
v 6.999999 -3.492383 -3.000409 0.000000 0.000000 1.000000 0.000000
v 6.999999 -3.492382 3.000410 0.000000 0.000000 1.000000 1.000000
v 7.999999 -3.492383 -2.999589 0.000000 0.000000 1.000000 0.000000
v 7.999999 -3.492382 3.000410 0.000000 0.000000 1.000000 1.000000
v 8.999999 -3.492382 3.000410 0.000000 0.000000 1.000000 1.000000
v 8.999999 -3.492383 -2.999589 0.000000 0.000000 1.000000 0.294118
v -0.000001 1.637556 -1.998770 0.000000 0.000000 1.000000 1.000000
v 0.999999 1.637556 2.000205 0.000000 0.000000 1.000000 1.000000
v -0.000001 1.637556 2.000205 0.000000 0.000000 1.000000 1.000000
v 0.999999 1.637556 -1.998770 0.000000 0.000000 1.000000 1.000000
v 1.999999 1.637556 2.000205 0.000000 0.000000 1.000000 0.000000
v 1.999999 1.637556 -1.998770 0.000000 0.000000 1.000000 1.000000
v 2.999999 1.637556 2.000205 0.000000 0.000000 1.000000 0.000000
v 2.999999 1.637556 -1.998770 0.000000 0.000000 1.000000 1.000000
v 3.999999 1.637556 2.000205 0.000000 0.000000 1.000000 0.000000
v 3.999999 1.637556 -1.998770 0.000000 0.000000 1.000000 1.000000
v 4.999999 1.637556 2.000205 0.000000 0.000000 1.000000 0.000000
v 4.999999 1.637556 -1.998770 0.000000 0.000000 1.000000 1.000000
v 5.999999 1.637556 2.000205 0.000000 0.000000 1.000000 1.000000
v 5.999999 1.637556 -1.998770 0.000000 0.000000 1.000000 0.000000
v 6.999999 1.637556 2.000205 0.000000 0.000000 1.000000 1.000000
v 6.999999 1.637556 -1.998770 0.000000 0.000000 1.000000 0.000000
v 7.999999 1.637556 -1.998770 0.000000 0.000000 1.000000 0.000000
v 7.999999 1.637556 2.000205 0.000000 0.000000 1.000000 1.000000
v 8.999999 1.637556 2.000205 0.000000 0.000000 1.000000 1.000000
v 9.000000 1.637556 -1.998770 0.000000 0.000000 1.000000 0.000000
vt 1.400391 0.833374
vt 1.275391 0.833374
vt 1.275391 0.708496
vt 1.400391 0.708496
vt 0.905273 0.833252
vt 0.780273 0.833252
vt 0.780273 0.708252
vt 0.905273 0.708252
vt 0.684082 2.634766
vt 0.559082 2.634766
vt 0.559082 2.512695
vt 0.684082 2.512695
vt 0.309082 0.262207
vt 0.434082 0.139648
vt 0.434082 0.262207
vt 0.309082 0.139648
vt 0.559082 0.262207
vt 0.684082 0.139648
vt 0.684082 0.262207
vt 0.559082 0.139648
vt 1.027344 0.833374
vt 1.027344 0.708496
vt 1.152344 0.833374
vt 1.152344 0.708496
vt 1.152344 0.833374
vt 1.152344 0.708496
vt 1.275391 0.833374
vt 1.275391 0.708496
vt 0.905273 0.833252
vt 0.905273 0.708252
vt 1.027344 0.833374
vt 1.027344 0.708496
vt 2.267578 0.573730
vt 2.392578 0.573730
vt 2.392578 0.698730
vt 2.267578 0.698730
vt 2.513672 0.698730
vt 2.392578 0.573730
vt 2.513672 0.573730
vt 2.392578 0.698730
vt 2.761719 0.698975
vt 2.638672 0.573975
vt 2.761719 0.573975
vt 2.638672 0.698975
vt 2.761719 0.573975
vt 2.886719 0.573975
vt 2.886719 0.698975
vt 2.761719 0.698975
vt 2.513672 0.573730
vt 2.638672 0.698975
vt 2.513672 0.698730
vt 2.638672 0.573975
vt 1.770508 0.833374
vt 1.895508 0.708496
vt 1.895508 0.833374
vt 1.770508 0.708496
vt 2.265625 0.833374
vt 2.390625 0.708496
vt 2.390625 0.833374
vt 2.265625 0.708496
vt 2.759766 0.833496
vt 2.884766 0.708496
vt 2.884766 0.833496
vt 2.759766 0.708496
vt -0.440674 2.635742
vt -0.315674 2.512695
vt -0.315674 2.635742
vt -0.440674 2.512695
vt -0.190552 2.635742
vt -0.065674 2.512695
vt -0.065552 2.634766
vt -0.190674 2.512695
vt 0.059296 2.634766
vt 0.184204 2.512695
vt 0.184204 2.634766
vt 0.059235 2.512695
vt 0.184204 0.262207
vt 0.059235 0.262207
vt 0.059326 0.139648
vt 0.184204 0.139648
vt -0.065674 0.262207
vt -0.190674 0.262207
vt -0.190552 0.139648
vt -0.065552 0.139648
vt -0.315674 0.262207
vt -0.440674 0.262207
vt -0.440674 0.139160
vt -0.315674 0.139160
vt 1.647461 0.833374
vt 1.522461 0.833374
vt 1.647461 0.708496
vt 1.522461 0.708496
vt 2.142578 0.833374
vt 2.017578 0.833374
vt 2.142578 0.708496
vt 2.017578 0.708496
vt 2.636719 0.833496
vt 2.511719 0.833496
vt 2.636719 0.708496
vt 2.511719 0.708496
vt 1.522461 0.833374
vt 1.400391 0.833374
vt 1.522461 0.708496
vt 1.400391 0.708496
vt 1.770508 0.833374
vt 1.647461 0.833374
vt 1.770508 0.708496
vt 1.647461 0.708496
vt 2.017578 0.833374
vt 1.895508 0.833374
vt 2.017578 0.708496
vt 1.895508 0.708496
vt 2.265625 0.833374
vt 2.142578 0.833374
vt 2.265625 0.708496
vt 2.142578 0.708496
vt 2.511719 0.833496
vt 2.390625 0.833374
vt 2.511719 0.708496
vt 2.390625 0.708496
vt 2.759766 0.833496
vt 2.636719 0.833496
vt 2.759766 0.708496
vt 2.636719 0.708496
vt 2.144531 0.573730
vt 2.267578 0.573730
vt 2.144531 0.698730
vt 2.267578 0.698730
vt 1.897461 0.573730
vt 2.019531 0.573730
vt 1.897461 0.698730
vt 2.019531 0.698730
vt 1.897461 0.573730
vt 1.772461 0.698730
vt 1.772461 0.573730
vt 1.897461 0.698730
vt 1.649414 0.573730
vt 1.772461 0.573730
vt 1.649414 0.698730
vt 1.772461 0.698730
vt 1.524414 0.573730
vt 1.649414 0.573730
vt 1.524414 0.698730
vt 1.649414 0.698730
vt 1.402344 0.573730
vt 1.524414 0.573730
vt 1.402344 0.698730
vt 1.524414 0.698730
vt 1.402344 0.573730
vt 1.277344 0.698730
vt 1.277344 0.573730
vt 1.402344 0.698730
vt 1.154297 0.573730
vt 1.277344 0.573730
vt 1.154297 0.698730
vt 1.277344 0.698730
vt 1.029297 0.573730
vt 1.154297 0.573730
vt 1.029297 0.698730
vt 1.154297 0.698730
vt 0.907227 0.573730
vt 1.029297 0.573730
vt 0.907227 0.698730
vt 1.029297 0.698730
vt 0.907227 0.573730
vt 0.782227 0.698730
vt 0.782227 0.573730
vt 0.907227 0.698730
vt 2.144531 0.573730
vt 2.019531 0.698730
vt 2.019531 0.573730
vt 2.144531 0.698730
vt 0.434082 2.634766
vt 0.309082 2.634766
vt 0.434082 2.512695
vt 0.309082 2.512695
vt 1.030273 0.392090
vt 1.155273 0.514404
vt 1.030273 0.514160
vt 1.155273 0.392090
vt 1.030273 0.282715
vt 1.155273 0.282715
vt 1.280273 0.392090
vt 1.280273 0.282715
vt 1.405273 0.514404
vt 1.280273 0.514404
vt 1.405273 0.392090
vt 1.405273 0.282715
vt 1.530273 0.282715
vt 1.530273 0.392090
vt 1.655273 0.282715
vt 1.655273 0.392090
vt 1.530273 0.514404
vt 1.655273 0.514404
vt 1.780273 0.282715
vt 1.780273 0.392090
vt 1.905273 0.282715
vt 1.905273 0.392090
vt 1.780273 0.514404
vt 1.905273 0.514404
vt 2.029297 0.282715
vt 2.029297 0.392090
vt 2.154297 0.282715
vt 2.154297 0.392090
vt 2.029297 0.514404
vt 2.154297 0.514404
vt 1.778320 0.271973
vt 1.778320 0.149414
vt 1.903320 0.271973
vt 1.903320 0.149414
vt 1.778320 0.040039
vt 1.653320 0.149414
vt 1.903320 0.040039
vt 1.653320 0.040039
vt 2.027344 0.149414
vt 2.027344 0.040039
vt 1.653320 0.271973
vt 1.528320 0.271973
vt 1.528320 0.149414
vt 1.528320 0.040527
vt 1.403320 0.149902
vt 1.403320 0.040527
vt 2.027344 0.271973
vt 2.152344 0.271973
vt 2.152344 0.149414
vt 2.152344 0.040039
vt 1.403320 0.271973
vt 1.278320 0.272461
vt 1.278320 0.149902
vt 1.278320 0.040527
vt 1.153320 0.149902
vt 1.153320 0.040527
vt 1.153320 0.272461
vt 1.028320 0.272461
vt 1.028320 0.149902
vt 1.028320 0.040527
vt 0.684082 1.762207
vt 0.559082 1.762207
vt 0.184204 2.512695
vt 0.184204 1.762207
vt 0.309082 2.512695
vt 0.309082 1.762207
vt 0.434082 2.512695
vt 0.559082 1.762207
vt 0.559082 2.512695
vt 0.434082 1.762207
vt 0.309082 2.512695
vt 0.309082 1.762207
vt 0.434082 2.512695
vt 0.434082 1.762207
vt -0.440674 1.762207
vt -0.315674 1.762207
vt -0.190674 1.762207
vt -0.065735 1.762207
vt 0.059204 1.762207
vt 0.184204 1.762207
vt -0.440674 1.012466
vt -0.315674 1.012459
vt -0.190674 1.012451
vt -0.065735 1.012451
vt 0.059204 1.012459
vt 0.184204 1.012482
vt 0.309082 1.012474
vt 0.434082 1.012466
vt 0.559082 1.012474
vt 0.684082 1.012474
vt -0.440674 1.762207
vt -0.440674 1.012466
vt -0.315674 1.762207
vt -0.315674 1.012459
vt -0.190674 1.762207
vt -0.190674 1.012451
vt -0.065735 1.762207
vt -0.065735 1.012451
vt 0.059204 1.762207
vt 0.059204 1.012459
vt 0.184204 1.762207
vt 0.184204 1.012482
vt 0.309082 1.012474
vt 0.309082 1.762207
vt 0.434082 1.762207
vt 0.434082 1.012466
vt 0.559082 1.762207
vt 0.559082 1.012474
vt 0.684082 1.012474
vt 0.684082 1.762207
vt 1.706055 1.278320
vt 1.206055 1.403320
vt 1.206055 1.278320
vt 1.706055 1.403320
vt 1.206055 1.528320
vt 1.706055 1.528320
vt 1.206055 1.653320
vt 1.706055 1.653320
vt 1.206055 1.778320
vt 1.706055 1.778320
vt 1.206055 1.903320
vt 1.706055 1.903320
vt 1.206055 2.028320
vt 1.706055 2.028320
vt 1.206055 2.153320
vt 1.706055 2.153320
vt 1.706055 2.278320
vt 1.206055 2.278320
vt 1.206055 2.403320
vt 1.706055 2.403320
vt1 1.400391 0.833374
vt1 1.275391 0.833374
vt1 1.275391 0.708496
vt1 1.400391 0.708496
vt1 0.905273 0.833252
vt1 0.780273 0.833252
vt1 0.780273 0.708252
vt1 0.905273 0.708252
vt1 0.684082 2.634766
vt1 0.559082 2.634766
vt1 0.559082 2.512695
vt1 0.684082 2.512695
vt1 0.309082 0.262207
vt1 0.434082 0.139648
vt1 0.434082 0.262207
vt1 0.309082 0.139648
vt1 0.559082 0.262207
vt1 0.684082 0.139648
vt1 0.684082 0.262207
vt1 0.559082 0.139648
vt1 1.027344 0.833374
vt1 1.027344 0.708496
vt1 1.152344 0.833374
vt1 1.152344 0.708496
vt1 1.152344 0.833374
vt1 1.152344 0.708496
vt1 1.275391 0.833374
vt1 1.275391 0.708496
vt1 0.905273 0.833252
vt1 0.905273 0.708252
vt1 1.027344 0.833374
vt1 1.027344 0.708496
vt1 2.267578 0.573730
vt1 2.392578 0.573730
vt1 2.392578 0.698730
vt1 2.267578 0.698730
vt1 2.513672 0.698730
vt1 2.392578 0.573730
vt1 2.513672 0.573730
vt1 2.392578 0.698730
vt1 2.761719 0.698975
vt1 2.638672 0.573975
vt1 2.761719 0.573975
vt1 2.638672 0.698975
vt1 2.761719 0.573975
vt1 2.886719 0.573975
vt1 2.886719 0.698975
vt1 2.761719 0.698975
vt1 2.513672 0.573730
vt1 2.638672 0.698975
vt1 2.513672 0.698730
vt1 2.638672 0.573975
vt1 1.770508 0.833374
vt1 1.895508 0.708496
vt1 1.895508 0.833374
vt1 1.770508 0.708496
vt1 2.265625 0.833374
vt1 2.390625 0.708496
vt1 2.390625 0.833374
vt1 2.265625 0.708496
vt1 2.759766 0.833496
vt1 2.884766 0.708496
vt1 2.884766 0.833496
vt1 2.759766 0.708496
vt1 -0.440674 2.635742
vt1 -0.315674 2.512695
vt1 -0.315674 2.635742
vt1 -0.440674 2.512695
vt1 -0.190552 2.635742
vt1 -0.065674 2.512695
vt1 -0.065552 2.634766
vt1 -0.190674 2.512695
vt1 0.059296 2.634766
vt1 0.184204 2.512695
vt1 0.184204 2.634766
vt1 0.059235 2.512695
vt1 0.184204 0.262207
vt1 0.059235 0.262207
vt1 0.059326 0.139648
vt1 0.184204 0.139648
vt1 -0.065674 0.262207
vt1 -0.190674 0.262207
vt1 -0.190552 0.139648
vt1 -0.065552 0.139648
vt1 -0.315674 0.262207
vt1 -0.440674 0.262207
vt1 -0.440674 0.139160
vt1 -0.315674 0.139160
vt1 1.647461 0.833374
vt1 1.522461 0.833374
vt1 1.647461 0.708496
vt1 1.522461 0.708496
vt1 2.142578 0.833374
vt1 2.017578 0.833374
vt1 2.142578 0.708496
vt1 2.017578 0.708496
vt1 2.636719 0.833496
vt1 2.511719 0.833496
vt1 2.636719 0.708496
vt1 2.511719 0.708496
vt1 1.522461 0.833374
vt1 1.400391 0.833374
vt1 1.522461 0.708496
vt1 1.400391 0.708496
vt1 1.770508 0.833374
vt1 1.647461 0.833374
vt1 1.770508 0.708496
vt1 1.647461 0.708496
vt1 2.017578 0.833374
vt1 1.895508 0.833374
vt1 2.017578 0.708496
vt1 1.895508 0.708496
vt1 2.265625 0.833374
vt1 2.142578 0.833374
vt1 2.265625 0.708496
vt1 2.142578 0.708496
vt1 2.511719 0.833496
vt1 2.390625 0.833374
vt1 2.511719 0.708496
vt1 2.390625 0.708496
vt1 2.759766 0.833496
vt1 2.636719 0.833496
vt1 2.759766 0.708496
vt1 2.636719 0.708496
vt1 2.144531 0.573730
vt1 2.267578 0.573730
vt1 2.144531 0.698730
vt1 2.267578 0.698730
vt1 1.897461 0.573730
vt1 2.019531 0.573730
vt1 1.897461 0.698730
vt1 2.019531 0.698730
vt1 1.897461 0.573730
vt1 1.772461 0.698730
vt1 1.772461 0.573730
vt1 1.897461 0.698730
vt1 1.649414 0.573730
vt1 1.772461 0.573730
vt1 1.649414 0.698730
vt1 1.772461 0.698730
vt1 1.524414 0.573730
vt1 1.649414 0.573730
vt1 1.524414 0.698730
vt1 1.649414 0.698730
vt1 1.402344 0.573730
vt1 1.524414 0.573730
vt1 1.402344 0.698730
vt1 1.524414 0.698730
vt1 1.402344 0.573730
vt1 1.277344 0.698730
vt1 1.277344 0.573730
vt1 1.402344 0.698730
vt1 1.154297 0.573730
vt1 1.277344 0.573730
vt1 1.154297 0.698730
vt1 1.277344 0.698730
vt1 1.029297 0.573730
vt1 1.154297 0.573730
vt1 1.029297 0.698730
vt1 1.154297 0.698730
vt1 0.907227 0.573730
vt1 1.029297 0.573730
vt1 0.907227 0.698730
vt1 1.029297 0.698730
vt1 0.907227 0.573730
vt1 0.782227 0.698730
vt1 0.782227 0.573730
vt1 0.907227 0.698730
vt1 2.144531 0.573730
vt1 2.019531 0.698730
vt1 2.019531 0.573730
vt1 2.144531 0.698730
vt1 0.434082 2.634766
vt1 0.309082 2.634766
vt1 0.434082 2.512695
vt1 0.309082 2.512695
vt1 1.030273 0.392090
vt1 1.155273 0.514404
vt1 1.030273 0.514160
vt1 1.155273 0.392090
vt1 1.030273 0.282715
vt1 1.155273 0.282715
vt1 1.280273 0.392090
vt1 1.280273 0.282715
vt1 1.405273 0.514404
vt1 1.280273 0.514404
vt1 1.405273 0.392090
vt1 1.405273 0.282715
vt1 1.530273 0.282715
vt1 1.530273 0.392090
vt1 1.655273 0.282715
vt1 1.655273 0.392090
vt1 1.530273 0.514404
vt1 1.655273 0.514404
vt1 1.780273 0.282715
vt1 1.780273 0.392090
vt1 1.905273 0.282715
vt1 1.905273 0.392090
vt1 1.780273 0.514404
vt1 1.905273 0.514404
vt1 2.029297 0.282715
vt1 2.029297 0.392090
vt1 2.154297 0.282715
vt1 2.154297 0.392090
vt1 2.029297 0.514404
vt1 2.154297 0.514404
vt1 1.778320 0.271973
vt1 1.778320 0.149414
vt1 1.903320 0.271973
vt1 1.903320 0.149414
vt1 1.778320 0.040039
vt1 1.653320 0.149414
vt1 1.903320 0.040039
vt1 1.653320 0.040039
vt1 2.027344 0.149414
vt1 2.027344 0.040039
vt1 1.653320 0.271973
vt1 1.528320 0.271973
vt1 1.528320 0.149414
vt1 1.528320 0.040527
vt1 1.403320 0.149902
vt1 1.403320 0.040527
vt1 2.027344 0.271973
vt1 2.152344 0.271973
vt1 2.152344 0.149414
vt1 2.152344 0.040039
vt1 1.403320 0.271973
vt1 1.278320 0.272461
vt1 1.278320 0.149902
vt1 1.278320 0.040527
vt1 1.153320 0.149902
vt1 1.153320 0.040527
vt1 1.153320 0.272461
vt1 1.028320 0.272461
vt1 1.028320 0.149902
vt1 1.028320 0.040527
vt1 0.684082 1.762207
vt1 0.559082 1.762207
vt1 0.184204 2.512695
vt1 0.184204 1.762207
vt1 0.309082 2.512695
vt1 0.309082 1.762207
vt1 0.434082 2.512695
vt1 0.559082 1.762207
vt1 0.559082 2.512695
vt1 0.434082 1.762207
vt1 0.309082 2.512695
vt1 0.309082 1.762207
vt1 0.434082 2.512695
vt1 0.434082 1.762207
vt1 -0.440674 1.762207
vt1 -0.315674 1.762207
vt1 -0.190674 1.762207
vt1 -0.065735 1.762207
vt1 0.059204 1.762207
vt1 0.184204 1.762207
vt1 -0.440674 1.012466
vt1 -0.315674 1.012459
vt1 -0.190674 1.012451
vt1 -0.065735 1.012451
vt1 0.059204 1.012459
vt1 0.184204 1.012482
vt1 0.309082 1.012474
vt1 0.434082 1.012466
vt1 0.559082 1.012474
vt1 0.684082 1.012474
vt1 -0.440674 1.762207
vt1 -0.440674 1.012466
vt1 -0.315674 1.762207
vt1 -0.315674 1.012459
vt1 -0.190674 1.762207
vt1 -0.190674 1.012451
vt1 -0.065735 1.762207
vt1 -0.065735 1.012451
vt1 0.059204 1.762207
vt1 0.059204 1.012459
vt1 0.184204 1.762207
vt1 0.184204 1.012482
vt1 0.309082 1.012474
vt1 0.309082 1.762207
vt1 0.434082 1.762207
vt1 0.434082 1.012466
vt1 0.559082 1.762207
vt1 0.559082 1.012474
vt1 0.684082 1.012474
vt1 0.684082 1.762207
vt1 1.706055 1.278320
vt1 1.206055 1.403320
vt1 1.206055 1.278320
vt1 1.706055 1.403320
vt1 1.206055 1.528320
vt1 1.706055 1.528320
vt1 1.206055 1.653320
vt1 1.706055 1.653320
vt1 1.206055 1.778320
vt1 1.706055 1.778320
vt1 1.206055 1.903320
vt1 1.706055 1.903320
vt1 1.206055 2.028320
vt1 1.706055 2.028320
vt1 1.206055 2.153320
vt1 1.706055 2.153320
vt1 1.706055 2.278320
vt1 1.206055 2.278320
vt1 1.206055 2.403320
vt1 1.706055 2.403320
vn 0.000000 1.000000 -0.000000
vn 0.000000 1.000000 -0.000000
vn 0.000000 1.000000 -0.000000
vn 0.000000 1.000000 -0.000000
vn 0.000000 1.000000 -0.000000
vn 0.000000 1.000000 -0.000000
vn 0.000000 1.000000 -0.000000
vn 0.000000 1.000000 -0.000000
vn 0.000000 -0.000000 -1.000000
vn 0.000000 -0.000000 -1.000000
vn 0.000000 -0.000000 -1.000000
vn 0.000000 -0.000000 -1.000000
vn 0.000000 0.000000 1.000000
vn 0.000000 0.000000 1.000000
vn 0.000000 0.000000 1.000000
vn 0.000000 0.000000 1.000000
vn 0.000000 0.000000 1.000000
vn 0.000000 0.000000 1.000000
vn 0.000000 0.000000 1.000000
vn 0.000000 0.000000 1.000000
vn 0.000000 1.000000 -0.000000
vn 0.000000 1.000000 -0.000000
vn 0.000000 1.000000 -0.000000
vn 0.000000 1.000000 -0.000000
vn 1.000000 0.000000 0.000000
vn 1.000000 0.000000 0.000000
vn 1.000000 0.000000 0.000000
vn 1.000000 0.000000 0.000000
vn -1.000000 0.000000 0.000000
vn -1.000000 0.000000 0.000000
vn -1.000000 0.000000 0.000000
vn -1.000000 0.000000 0.000000
vn 0.000000 1.000000 -0.000000
vn 0.000000 1.000000 -0.000000
vn 0.000000 1.000000 -0.000000
vn 0.000000 1.000000 -0.000000
vn 1.000000 0.000000 0.000000
vn 1.000000 0.000000 0.000000
vn 1.000000 0.000000 0.000000
vn 1.000000 0.000000 0.000000
vn -1.000000 0.000000 0.000000
vn -1.000000 0.000000 0.000000
vn -1.000000 0.000000 0.000000
vn -1.000000 0.000000 0.000000
vn 0.000000 1.000000 -0.000000
vn 0.000000 1.000000 -0.000000
vn 0.000000 1.000000 -0.000000
vn 0.000000 1.000000 -0.000000
vn 0.000000 1.000000 -0.000000
vn 0.000000 1.000000 -0.000000
vn 0.000000 1.000000 -0.000000
vn 0.000000 1.000000 -0.000000
vn 0.000000 1.000000 -0.000000
vn 0.000000 1.000000 -0.000000
vn 0.000000 1.000000 -0.000000
vn 0.000000 1.000000 -0.000000
vn 0.000000 1.000000 -0.000000
vn 0.000000 1.000000 -0.000000
vn 0.000000 1.000000 -0.000000
vn 0.000000 1.000000 -0.000000
vn 0.000000 1.000000 -0.000000
vn 0.000000 1.000000 -0.000000
vn 0.000000 1.000000 -0.000000
vn 0.000000 1.000000 -0.000000
vn 0.000000 -0.000000 -1.000000
vn 0.000000 -0.000000 -1.000000
vn 0.000000 -0.000000 -1.000000
vn 0.000000 -0.000000 -1.000000
vn 0.000000 -0.000000 -1.000000
vn 0.000000 -0.000000 -1.000000
vn 0.000000 -0.000000 -1.000000
vn 0.000000 -0.000000 -1.000000
vn 0.000000 -0.000000 -1.000000
vn 0.000000 -0.000000 -1.000000
vn 0.000000 -0.000000 -1.000000
vn 0.000000 -0.000000 -1.000000
vn 0.000000 0.000000 1.000000
vn 0.000000 0.000000 1.000000
vn 0.000000 0.000000 1.000000
vn 0.000000 0.000000 1.000000
vn 0.000000 0.000000 1.000000
vn 0.000000 0.000000 1.000000
vn 0.000000 0.000000 1.000000
vn 0.000000 0.000000 1.000000
vn 0.000000 0.000000 1.000000
vn 0.000000 0.000000 1.000000
vn 0.000000 0.000000 1.000000
vn 0.000000 0.000000 1.000000
vn 0.000000 1.000000 -0.000000
vn 0.000000 1.000000 -0.000000
vn 0.000000 1.000000 -0.000000
vn 0.000000 1.000000 -0.000000
vn 0.000000 1.000000 -0.000000
vn 0.000000 1.000000 -0.000000
vn 0.000000 1.000000 -0.000000
vn 0.000000 1.000000 -0.000000
vn 0.000000 1.000000 -0.000000
vn 0.000000 1.000000 -0.000000
vn 0.000000 1.000000 -0.000000
vn 0.000000 1.000000 -0.000000
vn -1.000000 0.000000 0.000000
vn -1.000000 0.000000 0.000000
vn -1.000000 0.000000 0.000000
vn -1.000000 0.000000 0.000000
vn 1.000000 0.000000 0.000000
vn 1.000000 0.000000 0.000000
vn 1.000000 0.000000 0.000000
vn 1.000000 0.000000 0.000000
vn -1.000000 0.000000 0.000000
vn -1.000000 0.000000 0.000000
vn -1.000000 0.000000 0.000000
vn -1.000000 0.000000 0.000000
vn 1.000000 0.000000 0.000000
vn 1.000000 0.000000 0.000000
vn 1.000000 0.000000 0.000000
vn 1.000000 0.000000 0.000000
vn -1.000000 0.000000 0.000000
vn -1.000000 0.000000 0.000000
vn -1.000000 0.000000 0.000000
vn -1.000000 0.000000 0.000000
vn 1.000000 0.000000 0.000000
vn 1.000000 0.000000 0.000000
vn 1.000000 0.000000 0.000000
vn 1.000000 0.000000 0.000000
vn -1.000000 0.000000 0.000000
vn -1.000000 0.000000 0.000000
vn -1.000000 0.000000 0.000000
vn -1.000000 0.000000 0.000000
vn 1.000000 0.000000 0.000000
vn 1.000000 0.000000 0.000000
vn 1.000000 0.000000 0.000000
vn 1.000000 0.000000 0.000000
vn 0.000000 1.000000 -0.000000
vn 0.000000 1.000000 -0.000000
vn 0.000000 1.000000 -0.000000
vn 0.000000 1.000000 -0.000000
vn -1.000000 0.000000 0.000000
vn -1.000000 0.000000 0.000000
vn -1.000000 0.000000 0.000000
vn -1.000000 0.000000 0.000000
vn 0.000000 1.000000 -0.000000
vn 0.000000 1.000000 -0.000000
vn 0.000000 1.000000 -0.000000
vn 0.000000 1.000000 -0.000000
vn 1.000000 0.000000 0.000000
vn 1.000000 0.000000 0.000000
vn 1.000000 0.000000 0.000000
vn 1.000000 0.000000 0.000000
vn 0.000000 1.000000 -0.000000
vn 0.000000 1.000000 -0.000000
vn 0.000000 1.000000 -0.000000
vn 0.000000 1.000000 -0.000000
vn -1.000000 0.000000 0.000000
vn -1.000000 0.000000 0.000000
vn -1.000000 0.000000 0.000000
vn -1.000000 0.000000 0.000000
vn 0.000000 1.000000 -0.000000
vn 0.000000 1.000000 -0.000000
vn 0.000000 1.000000 -0.000000
vn 0.000000 1.000000 -0.000000
vn 1.000000 0.000000 0.000000
vn 1.000000 0.000000 0.000000
vn 1.000000 0.000000 0.000000
vn 1.000000 0.000000 0.000000
vn 0.000000 1.000000 -0.000000
vn 0.000000 1.000000 -0.000000
vn 0.000000 1.000000 -0.000000
vn 0.000000 1.000000 -0.000000
vn 0.000000 1.000000 -0.000000
vn 0.000000 1.000000 -0.000000
vn 0.000000 1.000000 -0.000000
vn 0.000000 1.000000 -0.000000
vn 0.000000 -0.000000 -1.000000
vn 0.000000 -0.000000 -1.000000
vn 0.000000 -0.000000 -1.000000
vn 0.000000 -0.000000 -1.000000
vn 0.000000 0.000000 1.000000
vn 0.000000 0.000000 1.000000
vn 0.000000 0.000000 1.000000
vn 0.000000 0.000000 1.000000
vn 0.000000 0.000000 1.000000
vn 0.000000 0.000000 1.000000
vn 0.000000 0.000000 1.000000
vn 0.000000 0.000000 1.000000
vn 0.000000 0.000000 1.000000
vn 0.000000 0.000000 1.000000
vn 0.000000 0.000000 1.000000
vn 0.000000 0.000000 1.000000
vn 0.000000 0.000000 1.000000
vn 0.000000 0.000000 1.000000
vn 0.000000 0.000000 1.000000
vn 0.000000 0.000000 1.000000
vn 0.000000 0.000000 1.000000
vn 0.000000 0.000000 1.000000
vn 0.000000 0.000000 1.000000
vn 0.000000 0.000000 1.000000
vn 0.000000 0.000000 1.000000
vn 0.000000 0.000000 1.000000
vn 0.000000 0.000000 1.000000
vn 0.000000 0.000000 1.000000
vn 0.000000 0.000000 1.000000
vn 0.000000 0.000000 1.000000
vn 0.000000 0.000000 1.000000
vn 0.000000 0.000000 1.000000
vn 0.000000 0.000000 1.000000
vn 0.000000 0.000000 1.000000
vn 0.000000 -0.000000 -1.000000
vn 0.000000 -0.000000 -1.000000
vn 0.000000 -0.000000 -1.000000
vn 0.000000 -0.000000 -1.000000
vn 0.000000 -0.000000 -1.000000
vn 0.000000 -0.000000 -1.000000
vn 0.000000 -0.000000 -1.000000
vn 0.000000 -0.000000 -1.000000
vn 0.000000 -0.000000 -1.000000
vn 0.000000 -0.000000 -1.000000
vn 0.000000 -0.000000 -1.000000
vn 0.000000 -0.000000 -1.000000
vn 0.000000 -0.000000 -1.000000
vn 0.000000 -0.000000 -1.000000
vn 0.000000 -0.000000 -1.000000
vn 0.000000 -0.000000 -1.000000
vn 0.000000 -0.000000 -1.000000
vn 0.000000 -0.000000 -1.000000
vn 0.000000 -0.000000 -1.000000
vn 0.000000 -0.000000 -1.000000
vn 0.000000 -0.000000 -1.000000
vn 0.000000 -0.000000 -1.000000
vn 0.000000 -0.000000 -1.000000
vn 0.000000 -0.000000 -1.000000
vn 0.000000 -0.000000 -1.000000
vn 0.000000 -0.000000 -1.000000
vn 0.000000 -0.000000 -1.000000
vn 0.000000 -0.000000 -1.000000
vn 0.000000 -0.000000 -1.000000
vn 0.000000 -0.000000 -1.000000
vn 0.000000 -0.000000 -1.000000
vn 0.000000 -0.000000 -1.000000
vn 0.000000 -0.000000 -1.000000
vn 0.000000 -0.000000 -1.000000
vn 0.000000 -0.000000 -1.000000
vn 0.000000 -0.000000 -1.000000
vn 0.000000 -0.000000 -1.000000
vn 0.000000 -0.000000 -1.000000
vn 0.000000 -0.000000 -1.000000
vn 0.000000 -0.000000 -1.000000
vn 0.000000 -0.000000 -1.000000
vn 0.000000 -0.000000 -1.000000
vn 0.000000 -0.000000 -1.000000
vn 0.000000 -0.000000 -1.000000
vn 0.000000 -0.000000 -1.000000
vn 0.000000 -0.000000 -1.000000
vn 0.000000 -0.000000 -1.000000
vn 0.000000 -0.000000 -1.000000
vn 0.000000 -0.000000 -1.000000
vn 0.000000 -0.000000 -1.000000
vn 0.000000 0.000000 1.000000
vn 0.000000 0.000000 1.000000
vn 0.000000 0.000000 1.000000
vn 0.000000 0.000000 1.000000
vn 0.000000 0.000000 1.000000
vn 0.000000 0.000000 1.000000
vn 0.000000 0.000000 1.000000
vn 0.000000 0.000000 1.000000
vn 0.000000 0.000000 1.000000
vn 0.000000 0.000000 1.000000
vn 0.000000 -1.000000 0.000000
vn 0.000000 -1.000000 0.000000
vn 0.000000 -1.000000 0.000000
vn 0.000000 -1.000000 0.000000
vn 0.000000 -1.000000 0.000000
vn 0.000000 -1.000000 0.000000
vn 0.000000 -1.000000 0.000000
vn 0.000000 -1.000000 0.000000
vn 0.000000 -1.000000 0.000000
vn 0.000000 -1.000000 0.000000
vn 0.000000 -1.000000 0.000000
vn 0.000000 -1.000000 0.000000
vn 0.000000 -1.000000 0.000000
vn 0.000000 -1.000000 0.000000
vn 0.000000 -1.000000 0.000000
vn 0.000000 -1.000000 0.000000
vn 0.000000 -1.000000 0.000000
vn 0.000000 -1.000000 0.000000
vn 0.000000 -1.000000 0.000000
vn 0.000000 -1.000000 0.000000
vn 0.000000 1.000000 -0.000000
vn 0.000000 1.000000 -0.000000
vn 0.000000 1.000000 -0.000000
vn 0.000000 1.000000 -0.000000
vn 0.000000 1.000000 -0.000000
vn 0.000000 1.000000 -0.000000
vn 0.000000 1.000000 -0.000000
vn 0.000000 1.000000 -0.000000
vn 0.000000 1.000000 -0.000000
vn 0.000000 1.000000 -0.000000
vn 0.000000 1.000000 -0.000000
vn 0.000000 1.000000 -0.000000
vn 0.000000 1.000000 -0.000000
vn 0.000000 1.000000 -0.000000
vn 0.000000 1.000000 -0.000000
vn 0.000000 1.000000 -0.000000
vn 0.000000 1.000000 -0.000000
vn 0.000000 1.000000 -0.000000
vn 0.000000 1.000000 -0.000000
vn 0.000000 1.000000 -0.000000
tan 0.000000 0.000000 1.000000 1.000000
tan 0.000000 0.000000 1.000000 1.000000
tan 0.000000 0.000000 1.000000 1.000000
tan 0.000000 0.000000 1.000000 1.000000
tan 0.000000 0.000000 1.000000 1.000000
tan 0.000000 0.000000 1.000000 1.000000
tan 0.000000 0.000000 1.000000 1.000000
tan 0.000000 0.000000 1.000000 1.000000
tan 0.000000 -1.000000 0.000000 1.000000
tan 0.000000 -1.000000 0.000000 1.000000
tan 0.000000 -1.000000 0.000000 1.000000
tan 0.000000 -1.000000 0.000000 1.000000
tan 0.000000 1.000000 -0.000000 1.000000
tan 0.000000 1.000000 -0.000000 1.000000
tan 0.000000 1.000000 -0.000000 1.000000
tan 0.000000 1.000000 -0.000000 1.000000
tan 0.000000 1.000000 -0.000000 1.000000
tan 0.000000 1.000000 -0.000000 1.000000
tan 0.000000 1.000000 -0.000000 1.000000
tan 0.000000 1.000000 -0.000000 1.000000
tan 0.000000 0.000000 1.000000 1.000000
tan 0.000000 0.000000 1.000000 1.000000
tan 0.000000 0.000000 1.000000 1.000000
tan 0.000000 0.000000 1.000000 1.000000
tan 0.000000 0.000000 1.000000 1.000000
tan 0.000000 0.000000 1.000000 1.000000
tan 0.000000 0.000000 1.000000 1.000000
tan 0.000000 0.000000 1.000000 1.000000
tan 0.000000 0.000000 1.000000 1.000000
tan 0.000000 0.000000 1.000000 1.000000
tan 0.000000 0.000000 1.000000 1.000000
tan 0.000000 0.000000 1.000000 1.000000
tan 0.000000 -0.000000 -1.000000 1.000000
tan 0.000000 -0.000000 -1.000000 1.000000
tan 0.000000 -0.000000 -1.000000 1.000000
tan 0.000000 -0.000000 -1.000000 1.000000
tan 0.000000 -0.000000 -1.000000 1.000000
tan 0.000000 -0.000000 -1.000000 1.000000
tan 0.000000 -0.000000 -1.000000 1.000000
tan 0.000000 -0.000000 -1.000000 1.000000
tan 0.000000 -0.000000 -1.000000 1.000000
tan 0.000000 -0.000000 -1.000000 1.000000
tan 0.000000 -0.000000 -1.000000 1.000000
tan 0.000000 -0.000000 -1.000000 1.000000
tan 0.000000 -0.000000 -1.000000 1.000000
tan 0.000000 -0.000000 -1.000000 1.000000
tan 0.000000 -0.000000 -1.000000 1.000000
tan 0.000000 -0.000000 -1.000000 1.000000
tan 0.000000 -0.000000 -1.000000 1.000000
tan 0.000000 -0.000000 -1.000000 1.000000
tan 0.000000 -0.000000 -1.000000 1.000000
tan 0.000000 -0.000000 -1.000000 1.000000
tan 0.000000 0.000000 1.000000 1.000000
tan 0.000000 0.000000 1.000000 1.000000
tan 0.000000 0.000000 1.000000 1.000000
tan 0.000000 0.000000 1.000000 1.000000
tan 0.000000 0.000000 1.000000 1.000000
tan 0.000000 0.000000 1.000000 1.000000
tan 0.000000 0.000000 1.000000 1.000000
tan 0.000000 0.000000 1.000000 1.000000
tan 0.000000 0.000000 1.000000 1.000000
tan 0.000000 0.000000 1.000000 1.000000
tan 0.000000 0.000000 1.000000 1.000000
tan 0.000000 0.000000 1.000000 1.000000
tan 0.000000 -1.000000 0.000000 1.000000
tan 0.000000 -1.000000 0.000000 1.000000
tan 0.000000 -1.000000 0.000000 1.000000
tan 0.000000 -1.000000 0.000000 1.000000
tan 0.000000 -1.000000 0.000000 1.000000
tan 0.000000 -1.000000 0.000000 1.000000
tan 0.000000 -1.000000 0.000000 1.000000
tan 0.000000 -1.000000 0.000000 1.000000
tan 0.000000 -1.000000 0.000000 1.000000
tan 0.000000 -1.000000 0.000000 1.000000
tan 0.000000 -1.000000 0.000000 1.000000
tan 0.000000 -1.000000 0.000000 1.000000
tan 0.000000 1.000000 -0.000000 1.000000
tan 0.000000 1.000000 -0.000000 1.000000
tan 0.000000 1.000000 -0.000000 1.000000
tan 0.000000 1.000000 -0.000000 1.000000
tan 0.000000 1.000000 -0.000000 1.000000
tan 0.000000 1.000000 -0.000000 1.000000
tan 0.000000 1.000000 -0.000000 1.000000
tan 0.000000 1.000000 -0.000000 1.000000
tan 0.000000 1.000000 -0.000000 1.000000
tan 0.000000 1.000000 -0.000000 1.000000
tan 0.000000 1.000000 -0.000000 1.000000
tan 0.000000 1.000000 -0.000000 1.000000
tan 0.000000 0.000000 1.000000 1.000000
tan 0.000000 0.000000 1.000000 1.000000
tan 0.000000 0.000000 1.000000 1.000000
tan 0.000000 0.000000 1.000000 1.000000
tan 0.000000 0.000000 1.000000 1.000000
tan 0.000000 0.000000 1.000000 1.000000
tan 0.000000 0.000000 1.000000 1.000000
tan 0.000000 0.000000 1.000000 1.000000
tan 0.000000 0.000000 1.000000 1.000000
tan 0.000000 0.000000 1.000000 1.000000
tan 0.000000 0.000000 1.000000 1.000000
tan 0.000000 0.000000 1.000000 1.000000
tan 0.000000 0.000000 1.000000 1.000000
tan 0.000000 0.000000 1.000000 1.000000
tan 0.000000 0.000000 1.000000 1.000000
tan 0.000000 0.000000 1.000000 1.000000
tan 0.000000 0.000000 1.000000 1.000000
tan 0.000000 0.000000 1.000000 1.000000
tan 0.000000 0.000000 1.000000 1.000000
tan 0.000000 0.000000 1.000000 1.000000
tan 0.000000 0.000000 1.000000 1.000000
tan 0.000000 0.000000 1.000000 1.000000
tan 0.000000 0.000000 1.000000 1.000000
tan 0.000000 0.000000 1.000000 1.000000
tan 0.000000 0.000000 1.000000 1.000000
tan 0.000000 0.000000 1.000000 1.000000
tan 0.000000 0.000000 1.000000 1.000000
tan 0.000000 0.000000 1.000000 1.000000
tan 0.000000 0.000000 1.000000 1.000000
tan 0.000000 0.000000 1.000000 1.000000
tan 0.000000 0.000000 1.000000 1.000000
tan 0.000000 0.000000 1.000000 1.000000
tan 0.000000 0.000000 1.000000 1.000000
tan 0.000000 0.000000 1.000000 1.000000
tan 0.000000 0.000000 1.000000 1.000000
tan 0.000000 0.000000 1.000000 1.000000
tan 0.000000 -0.000000 -1.000000 1.000000
tan 0.000000 -0.000000 -1.000000 1.000000
tan 0.000000 -0.000000 -1.000000 1.000000
tan 0.000000 -0.000000 -1.000000 1.000000
tan 0.000000 -0.000000 -1.000000 1.000000
tan 0.000000 -0.000000 -1.000000 1.000000
tan 0.000000 -0.000000 -1.000000 1.000000
tan 0.000000 -0.000000 -1.000000 1.000000
tan 0.000000 -0.000000 -1.000000 1.000000
tan 0.000000 -0.000000 -1.000000 1.000000
tan 0.000000 -0.000000 -1.000000 1.000000
tan 0.000000 -0.000000 -1.000000 1.000000
tan 0.000000 -0.000000 -1.000000 1.000000
tan 0.000000 -0.000000 -1.000000 1.000000
tan 0.000000 -0.000000 -1.000000 1.000000
tan 0.000000 -0.000000 -1.000000 1.000000
tan 0.000000 -0.000000 -1.000000 1.000000
tan 0.000000 -0.000000 -1.000000 1.000000
tan 0.000000 -0.000000 -1.000000 1.000000
tan 0.000000 -0.000000 -1.000000 1.000000
tan 0.000000 -0.000000 -1.000000 1.000000
tan 0.000000 -0.000000 -1.000000 1.000000
tan 0.000000 -0.000000 -1.000000 1.000000
tan 0.000000 -0.000000 -1.000000 1.000000
tan 0.000000 -0.000000 -1.000000 1.000000
tan 0.000000 -0.000000 -1.000000 1.000000
tan 0.000000 -0.000000 -1.000000 1.000000
tan 0.000000 -0.000000 -1.000000 1.000000
tan 0.000000 -0.000000 -1.000000 1.000000
tan 0.000000 -0.000000 -1.000000 1.000000
tan 0.000000 -0.000000 -1.000000 1.000000
tan 0.000000 -0.000000 -1.000000 1.000000
tan 0.000000 -0.000000 -1.000000 1.000000
tan 0.000000 -0.000000 -1.000000 1.000000
tan 0.000000 -0.000000 -1.000000 1.000000
tan 0.000000 -0.000000 -1.000000 1.000000
tan 0.000000 -0.000000 -1.000000 1.000000
tan 0.000000 -0.000000 -1.000000 1.000000
tan 0.000000 -0.000000 -1.000000 1.000000
tan 0.000000 -0.000000 -1.000000 1.000000
tan 0.000000 -0.000000 -1.000000 1.000000
tan 0.000000 -0.000000 -1.000000 1.000000
tan 0.000000 -0.000000 -1.000000 1.000000
tan 0.000000 -0.000000 -1.000000 1.000000
tan 0.000000 -0.000000 -1.000000 1.000000
tan 0.000000 -0.000000 -1.000000 1.000000
tan 0.000000 -0.000000 -1.000000 1.000000
tan 0.000000 -0.000000 -1.000000 1.000000
tan 0.000000 -1.000000 0.000000 1.000000
tan 0.000000 -1.000000 0.000000 1.000000
tan 0.000000 -1.000000 0.000000 1.000000
tan 0.000000 -1.000000 0.000000 1.000000
tan 0.000000 -1.000000 0.000000 1.000000
tan 0.000000 -1.000000 0.000000 1.000000
tan 0.000000 -1.000000 0.000000 1.000000
tan 0.000000 -1.000000 0.000000 1.000000
tan 0.000000 -1.000000 0.000000 1.000000
tan 0.000000 -1.000000 0.000000 1.000000
tan 0.000000 -1.000000 0.000000 1.000000
tan 0.000000 -1.000000 0.000000 1.000000
tan 0.000000 -1.000000 0.000000 1.000000
tan 0.000000 -1.000000 0.000000 1.000000
tan 0.000000 -1.000000 0.000000 1.000000
tan 0.000000 -1.000000 0.000000 1.000000
tan 0.000000 -1.000000 0.000000 1.000000
tan 0.000000 -1.000000 0.000000 1.000000
tan 0.000000 -1.000000 0.000000 1.000000
tan 0.000000 -1.000000 0.000000 1.000000
tan 0.000000 -1.000000 0.000000 1.000000
tan 0.000000 -1.000000 0.000000 1.000000
tan 0.000000 -1.000000 0.000000 1.000000
tan 0.000000 -1.000000 0.000000 1.000000
tan 0.000000 -1.000000 0.000000 1.000000
tan 0.000000 -1.000000 0.000000 1.000000
tan 0.000000 -1.000000 0.000000 1.000000
tan 0.000000 -1.000000 0.000000 1.000000
tan 0.000000 -1.000000 0.000000 1.000000
tan 0.000000 -1.000000 0.000000 1.000000
tan 0.000000 -1.000000 0.000000 1.000000
tan 0.000000 -1.000000 0.000000 1.000000
tan 0.000000 -1.000000 0.000000 1.000000
tan 0.000000 -1.000000 0.000000 1.000000
tan 0.000000 -1.000000 0.000000 1.000000
tan 0.000000 -1.000000 0.000000 1.000000
tan 0.000000 -1.000000 0.000000 1.000000
tan 0.000000 -1.000000 0.000000 1.000000
tan 0.000000 -1.000000 0.000000 1.000000
tan 0.000000 -1.000000 0.000000 1.000000
tan 0.000000 -1.000000 0.000000 1.000000
tan 0.000000 -1.000000 0.000000 1.000000
tan 0.000000 -1.000000 0.000000 1.000000
tan 0.000000 -1.000000 0.000000 1.000000
tan 0.000000 -1.000000 0.000000 1.000000
tan 0.000000 -1.000000 0.000000 1.000000
tan 0.000000 -1.000000 0.000000 1.000000
tan 0.000000 -1.000000 0.000000 1.000000
tan 0.000000 -1.000000 0.000000 1.000000
tan 0.000000 -1.000000 0.000000 1.000000
tan 0.000000 -1.000000 0.000000 1.000000
tan 0.000000 -1.000000 0.000000 1.000000
tan 0.000000 -1.000000 0.000000 1.000000
tan 0.000000 -1.000000 0.000000 1.000000
tan 0.000000 -1.000000 0.000000 1.000000
tan 0.000000 -1.000000 0.000000 1.000000
tan 0.000000 -1.000000 0.000000 1.000000
tan 0.000000 -1.000000 0.000000 1.000000
tan 0.000000 -1.000000 0.000000 1.000000
tan 0.000000 -1.000000 0.000000 1.000000
tan 0.000000 -1.000000 0.000000 1.000000
tan 0.000000 -1.000000 0.000000 1.000000
tan 0.000000 -1.000000 0.000000 1.000000
tan 0.000000 -1.000000 0.000000 1.000000
tan 0.000000 -1.000000 0.000000 1.000000
tan 0.000000 -1.000000 0.000000 1.000000
tan 0.000000 -1.000000 0.000000 1.000000
tan 0.000000 -1.000000 0.000000 1.000000
tan 0.000000 -1.000000 0.000000 1.000000
tan 0.000000 -1.000000 0.000000 1.000000
tan 0.000000 -1.000000 0.000000 1.000000
tan 0.000000 -1.000000 0.000000 1.000000
tan 0.000000 -1.000000 0.000000 1.000000
tan 0.000000 -1.000000 0.000000 1.000000
tan 0.000000 -1.000000 0.000000 1.000000
tan 0.000000 -1.000000 0.000000 1.000000
tan 0.000000 -1.000000 0.000000 1.000000
tan 0.000000 -1.000000 0.000000 1.000000
tan 0.000000 -1.000000 0.000000 1.000000
tan 0.000000 -1.000000 0.000000 1.000000
tan 0.000000 -1.000000 0.000000 1.000000
tan 0.000000 -1.000000 0.000000 1.000000
tan 0.000000 -1.000000 0.000000 1.000000
tan 0.000000 -1.000000 0.000000 1.000000
tan 0.000000 1.000000 -0.000000 1.000000
tan 0.000000 1.000000 -0.000000 1.000000
tan 0.000000 1.000000 -0.000000 1.000000
tan 0.000000 1.000000 -0.000000 1.000000
tan 0.000000 1.000000 -0.000000 1.000000
tan 0.000000 1.000000 -0.000000 1.000000
tan 0.000000 1.000000 -0.000000 1.000000
tan 0.000000 1.000000 -0.000000 1.000000
tan 0.000000 1.000000 -0.000000 1.000000
tan 0.000000 1.000000 -0.000000 1.000000
tan 0.000000 0.000000 1.000000 1.000000
tan 0.000000 0.000000 1.000000 1.000000
tan 0.000000 0.000000 1.000000 1.000000
tan 0.000000 0.000000 1.000000 1.000000
tan 0.000000 0.000000 1.000000 1.000000
tan 0.000000 0.000000 1.000000 1.000000
tan 0.000000 0.000000 1.000000 1.000000
tan 0.000000 0.000000 1.000000 1.000000
tan 0.000000 0.000000 1.000000 1.000000
tan 0.000000 0.000000 1.000000 1.000000
tan 0.000000 0.000000 1.000000 1.000000
tan 0.000000 0.000000 1.000000 1.000000
tan 0.000000 0.000000 1.000000 1.000000
tan 0.000000 0.000000 1.000000 1.000000
tan 0.000000 0.000000 1.000000 1.000000
tan 0.000000 0.000000 1.000000 1.000000
tan 0.000000 0.000000 1.000000 1.000000
tan 0.000000 0.000000 1.000000 1.000000
tan 0.000000 0.000000 1.000000 1.000000
tan 0.000000 0.000000 1.000000 1.000000
tan -1.000000 0.000000 0.000000 1.000000
tan -1.000000 0.000000 0.000000 1.000000
tan -1.000000 0.000000 0.000000 1.000000
tan -1.000000 0.000000 0.000000 1.000000
tan -1.000000 0.000000 0.000000 1.000000
tan -1.000000 0.000000 0.000000 1.000000
tan -1.000000 0.000000 0.000000 1.000000
tan -1.000000 0.000000 0.000000 1.000000
tan -1.000000 0.000000 0.000000 1.000000
tan -1.000000 0.000000 0.000000 1.000000
tan -1.000000 0.000000 0.000000 1.000000
tan -1.000000 0.000000 0.000000 1.000000
tan -1.000000 0.000000 0.000000 1.000000
tan -1.000000 0.000000 0.000000 1.000000
tan -1.000000 0.000000 0.000000 1.000000
tan -1.000000 0.000000 0.000000 1.000000
tan -1.000000 0.000000 0.000000 1.000000
tan -1.000000 0.000000 0.000000 1.000000
tan -1.000000 0.000000 0.000000 1.000000
tan -1.000000 0.000000 0.000000 1.000000
f 3/3/3 2/2/2 1/1/1
f 4/4/4 3/3/3 1/1/1
f 7/7/7 6/6/6 5/5/5
f 8/8/8 7/7/7 5/5/5
f 11/11/11 10/10/10 9/9/9
f 12/12/12 11/11/11 9/9/9
f 15/15/15 14/14/14 13/13/13
f 16/16/16 13/13/13 14/14/14
f 19/19/19 18/18/18 17/17/17
f 20/20/20 17/17/17 18/18/18
f 23/23/23 22/22/22 21/21/21
f 24/24/24 22/22/22 23/23/23
f 27/27/27 26/26/26 25/25/25
f 28/28/28 26/26/26 27/27/27
f 31/31/31 30/30/30 29/29/29
f 32/32/32 30/30/30 31/31/31
f 35/35/35 34/34/34 33/33/33
f 36/36/36 35/35/35 33/33/33
f 39/39/39 38/38/38 37/37/37
f 40/40/40 37/37/37 38/38/38
f 43/43/43 42/42/42 41/41/41
f 44/44/44 41/41/41 42/42/42
f 47/47/47 46/46/46 45/45/45
f 48/48/48 47/47/47 45/45/45
f 51/51/51 50/50/50 49/49/49
f 52/52/52 49/49/49 50/50/50
f 55/55/55 54/54/54 53/53/53
f 56/56/56 53/53/53 54/54/54
f 59/59/59 58/58/58 57/57/57
f 60/60/60 57/57/57 58/58/58
f 63/63/63 62/62/62 61/61/61
f 64/64/64 61/61/61 62/62/62
f 67/67/67 66/66/66 65/65/65
f 68/68/68 65/65/65 66/66/66
f 71/71/71 70/70/70 69/69/69
f 72/72/72 69/69/69 70/70/70
f 75/75/75 74/74/74 73/73/73
f 76/76/76 73/73/73 74/74/74
f 79/79/79 78/78/78 77/77/77
f 80/80/80 79/79/79 77/77/77
f 83/83/83 82/82/82 81/81/81
f 84/84/84 83/83/83 81/81/81
f 87/87/87 86/86/86 85/85/85
f 88/88/88 87/87/87 85/85/85
f 91/91/91 90/90/90 89/89/89
f 91/91/91 92/92/92 90/90/90
f 95/95/95 94/94/94 93/93/93
f 95/95/95 96/96/96 94/94/94
f 99/99/99 98/98/98 97/97/97
f 99/99/99 100/100/100 98/98/98
f 103/103/103 102/102/102 101/101/101
f 103/103/103 104/104/104 102/102/102
f 107/107/107 106/106/106 105/105/105
f 107/107/107 108/108/108 106/106/106
f 111/111/111 110/110/110 109/109/109
f 111/111/111 112/112/112 110/110/110
f 115/115/115 114/114/114 113/113/113
f 115/115/115 116/116/116 114/114/114
f 119/119/119 118/118/118 117/117/117
f 119/119/119 120/120/120 118/118/118
f 123/123/123 122/122/122 121/121/121
f 123/123/123 124/124/124 122/122/122
f 127/127/127 126/126/126 125/125/125
f 127/127/127 128/128/128 126/126/126
f 131/131/131 130/130/130 129/129/129
f 131/131/131 132/132/132 130/130/130
f 135/135/135 134/134/134 133/133/133
f 136/136/136 133/133/133 134/134/134
f 139/139/139 138/138/138 137/137/137
f 139/139/139 140/140/140 138/138/138
f 143/143/143 142/142/142 141/141/141
f 143/143/143 144/144/144 142/142/142
f 147/147/147 146/146/146 145/145/145
f 147/147/147 148/148/148 146/146/146
f 151/151/151 150/150/150 149/149/149
f 152/152/152 149/149/149 150/150/150
f 155/155/155 154/154/154 153/153/153
f 155/155/155 156/156/156 154/154/154
f 159/159/159 158/158/158 157/157/157
f 159/159/159 160/160/160 158/158/158
f 163/163/163 162/162/162 161/161/161
f 163/163/163 164/164/164 162/162/162
f 167/167/167 166/166/166 165/165/165
f 168/168/168 165/165/165 166/166/166
f 171/171/171 170/170/170 169/169/169
f 172/172/172 169/169/169 170/170/170
f 175/175/175 174/174/174 173/173/173
f 175/175/175 176/176/176 174/174/174
f 179/179/179 178/178/178 177/177/177
f 178/178/178 180/180/180 177/177/177
f 177/177/177 180/180/180 181/181/181
f 180/180/180 182/182/182 181/181/181
f 180/180/180 183/183/183 182/182/182
f 183/183/183 184/184/184 182/182/182
f 186/186/186 185/185/185 183/183/183
f 185/185/185 187/187/187 183/183/183
f 183/183/183 187/187/187 184/184/184
f 187/187/187 188/188/188 184/184/184
f 188/188/188 187/187/187 189/189/189
f 190/190/190 189/189/189 187/187/187
f 189/189/189 190/190/190 191/191/191
f 192/192/192 191/191/191 190/190/190
f 190/190/190 193/193/193 192/192/192
f 194/194/194 192/192/192 193/193/193
f 191/191/191 192/192/192 195/195/195
f 196/196/196 195/195/195 192/192/192
f 195/195/195 196/196/196 197/197/197
f 198/198/198 197/197/197 196/196/196
f 196/196/196 199/199/199 198/198/198
f 200/200/200 198/198/198 199/199/199
f 197/197/197 198/198/198 201/201/201
f 202/202/202 201/201/201 198/198/198
f 201/201/201 202/202/202 203/203/203
f 204/204/204 203/203/203 202/202/202
f 202/202/202 205/205/205 204/204/204
f 206/206/206 204/204/204 205/205/205
f 209/209/209 208/208/208 207/207/207
f 210/210/210 208/208/208 209/209/209
f 208/208/208 210/210/210 211/211/211
f 211/211/211 212/212/212 208/208/208
f 213/213/213 211/211/211 210/210/210
f 211/211/211 214/214/214 212/212/212
f 215/215/215 213/213/213 210/210/210
f 216/216/216 213/213/213 215/215/215
f 212/212/212 218/218/218 217/217/217
f 212/212/212 219/219/219 218/218/218
f 214/214/214 219/219/219 212/212/212
f 214/214/214 220/220/220 219/219/219
f 220/220/220 221/221/221 219/219/219
f 220/220/220 222/222/222 221/221/221
f 224/224/224 215/215/215 223/223/223
f 225/225/225 215/215/215 224/224/224
f 225/225/225 216/216/216 215/215/215
f 226/226/226 216/216/216 225/225/225
f 221/221/221 228/228/228 227/227/227
f 221/221/221 229/229/229 228/228/228
f 222/222/222 229/229/229 221/221/221
f 222/222/222 230/230/230 229/229/229
f 230/230/230 231/231/231 229/229/229
f 230/230/230 232/232/232 231/231/231
f 231/231/231 234/234/234 233/233/233
f 231/231/231 235/235/235 234/234/234
f 232/232/232 235/235/235 231/231/231
f 232/232/232 236/236/236 235/235/235
f 12/12/12 237/237/237 11/11/11
f 238/238/238 11/11/11 237/237/237
f 241/241/241 240/240/240 239/239/239
f 242/242/242 240/240/240 241/241/241
f 245/245/245 244/244/244 243/243/243
f 246/246/246 243/243/243 244/244/244
f 249/249/249 248/248/248 247/247/247
f 250/250/250 248/248/248 249/249/249
f 66/66/66 251/251/251 68/68/68
f 252/252/252 251/251/251 66/66/66
f 72/72/72 252/252/252 66/66/66
f 253/253/253 252/252/252 72/72/72
f 70/70/70 253/253/253 72/72/72
f 254/254/254 253/253/253 70/70/70
f 76/76/76 254/254/254 70/70/70
f 255/255/255 254/254/254 76/76/76
f 74/74/74 255/255/255 76/76/76
f 256/256/256 255/255/255 74/74/74
f 258/258/258 86/86/86 257/257/257
f 85/85/85 86/86/86 258/258/258
f 259/259/259 85/85/85 258/258/258
f 82/82/82 85/85/85 259/259/259
f 260/260/260 82/82/82 259/259/259
f 81/81/81 82/82/82 260/260/260
f 261/261/261 81/81/81 260/260/260
f 78/78/78 81/81/81 261/261/261
f 262/262/262 78/78/78 261/261/261
f 77/77/77 78/78/78 262/262/262
f 263/263/263 77/77/77 262/262/262
f 13/13/13 77/77/77 263/263/263
f 13/13/13 263/263/263 15/15/15
f 264/264/264 15/15/15 263/263/263
f 15/15/15 264/264/264 17/17/17
f 265/265/265 17/17/17 264/264/264
f 17/17/17 265/265/265 19/19/19
f 266/266/266 19/19/19 265/265/265
f 269/269/269 268/268/268 267/267/267
f 270/270/270 268/268/268 269/269/269
f 271/271/271 270/270/270 269/269/269
f 272/272/272 270/270/270 271/271/271
f 273/273/273 272/272/272 271/271/271
f 274/274/274 272/272/272 273/273/273
f 275/275/275 274/274/274 273/273/273
f 276/276/276 274/274/274 275/275/275
f 277/277/277 276/276/276 275/275/275
f 278/278/278 276/276/276 277/277/277
f 278/278/278 277/277/277 279/279/279
f 280/280/280 279/279/279 277/277/277
f 281/281/281 279/279/279 280/280/280
f 282/282/282 279/279/279 281/281/281
f 283/283/283 282/282/282 281/281/281
f 284/284/284 282/282/282 283/283/283
f 284/284/284 283/283/283 285/285/285
f 286/286/286 285/285/285 283/283/283
f 289/289/289 288/288/288 287/287/287
f 287/287/287 288/288/288 290/290/290
f 288/288/288 291/291/291 290/290/290
f 290/290/290 291/291/291 292/292/292
f 291/291/291 293/293/293 292/292/292
f 292/292/292 293/293/293 294/294/294
f 293/293/293 295/295/295 294/294/294
f 296/296/296 294/294/294 295/295/295
f 295/295/295 297/297/297 296/296/296
f 298/298/298 296/296/296 297/297/297
f 297/297/297 299/299/299 298/298/298
f 298/298/298 299/299/299 300/300/300
f 299/299/299 301/301/301 300/300/300
f 302/302/302 300/300/300 301/301/301
f 302/302/302 301/301/301 303/303/303
f 304/304/304 303/303/303 301/301/301
f 304/304/304 305/305/305 303/303/303
f 306/306/306 303/303/303 305/305/305
