mtllib SM_Mast_Offshoot_01_LOD3@000002909DC0B900.mtl
g SM_Mast_Offshoot_01_LOD3@000002909DC0B900
#Vertices 21
#Indices 48
#Section 0 Offset 0 NumIndices 12 MaterialIndex 0 MI_RoofTile_A_01
#Section 1 Offset 12 NumIndices 9 MaterialIndex 1 MI_ConcreteTile_A2_02
#Section 2 Offset 21 NumIndices 27 MaterialIndex 2 MI_BrickTile_C_01
v 4.737679 11.568411 1.342602 0.000000 1.000000 0.000000 1.000000
v -2.931719 11.796312 4.621530 0.000000 1.000000 0.000000 1.000000
v 0.000000 20.124475 -0.000002 0.000000 1.000000 0.000000 1.000000
v 2.435080 11.329185 -3.986303 0.000000 1.000000 0.000000 1.000000
v -3.355563 11.515507 -3.624042 0.000000 1.000000 0.000000 1.000000
v -3.215391 -0.022543 2.928582 0.000000 1.000000 0.000000 1.000000
v 1.994803 -0.024104 4.039156 0.000000 1.000000 0.000000 1.000000
v 3.999921 -0.000029 0.000089 0.000000 1.000000 0.000000 1.000000
v -3.262678 -0.105991 -3.580982 0.000000 1.000000 0.000000 1.000000
v 2.839403 -0.005952 -3.258366 0.000000 1.000000 0.000000 1.000000
v 3.999921 -0.000029 0.000089 0.000000 1.000000 0.000000 1.000000
v 4.232291 11.587142 0.160612 0.000000 1.000000 0.000000 1.000000
v 2.839403 -0.005952 -3.258366 0.000000 1.000000 0.000000 1.000000
v 2.446347 11.583401 -3.494553 0.000000 1.000000 0.000000 1.000000
v -3.262678 -0.105991 -3.580982 0.000000 1.000000 0.000000 1.000000
v -3.914914 11.598783 -2.641298 0.000000 1.000000 0.000000 1.000000
v -3.215391 -0.022543 2.928582 0.000000 1.000000 0.000000 1.000000
v -1.290818 11.650157 4.679391 0.000000 1.000000 0.000000 1.000000
v 1.994803 -0.024104 4.039156 0.000000 1.000000 0.000000 1.000000
v 4.232291 11.587142 0.160612 0.000000 1.000000 0.000000 1.000000
v 3.999921 -0.000029 0.000089 0.000000 1.000000 0.000000 1.000000
vt 0.217651 -0.462891
vt 1.580078 -1.046875
vt 1.085938 -0.239258
vt 0.649902 0.513672
vt 1.716797 0.410645
vt 0.290771 1.092773
vt 0.909180 0.846313
vt 1.241211 1.301514
vt 0.422119 1.895508
vt 1.166992 1.727051
vt -1.035156 1.769531
vt -1.006836 3.216797
vt -1.464844 1.769531
vt -1.512695 3.216797
vt -2.195312 1.761230
vt -2.296875 3.218750
vt -2.970703 1.767578
vt -3.244141 3.228516
vt -3.609375 1.767090
vt -4.144531 3.218750
vt -4.164062 1.769531
vt1 0.217651 -0.462891
vt1 1.580078 -1.046875
vt1 1.085938 -0.239258
vt1 0.649902 0.513672
vt1 1.716797 0.410645
vt1 0.290771 1.092773
vt1 0.909180 0.846313
vt1 1.241211 1.301514
vt1 0.422119 1.895508
vt1 1.166992 1.727051
vt1 -1.035156 1.769531
vt1 -1.006836 3.216797
vt1 -1.464844 1.769531
vt1 -1.512695 3.216797
vt1 -2.195312 1.761230
vt1 -2.296875 3.218750
vt1 -2.970703 1.767578
vt1 -3.244141 3.228516
vt1 -3.609375 1.767090
vt1 -4.144531 3.218750
vt1 -4.164062 1.769531
vn 0.866142 0.433071 0.244094
vn -0.488189 0.433071 0.763779
vn 0.000000 1.000000 -0.000000
vn 0.472441 0.433071 -0.763779
vn -0.614173 0.433071 -0.661417
vn 0.000000 -1.000000 0.000000
vn 0.000000 -1.000000 0.000000
vn 0.000000 -1.000000 0.000000
vn 0.000000 -1.000000 0.000000
vn 0.000000 -1.000000 0.000000
vn 1.000000 0.000000 0.000000
vn 1.000000 0.000000 0.047244
vn 0.661417 -0.000000 -0.755905
vn 0.574803 -0.000000 -0.818897
vn -0.677165 -0.000000 -0.732283
vn -0.834646 -0.000000 -0.559055
vn -0.740157 0.000000 0.669291
vn -0.267717 0.000000 0.960630
vn 0.440945 0.000000 0.897638
vn 1.000000 0.000000 0.070866
vn 1.000000 0.000000 0.000000
tan -0.254325 0.024304 0.859322 1.000000
tan 0.567921 -0.509021 0.651621 1.000000
tan -0.031496 0.000000 1.000000 1.000000
tan 0.595387 0.475107 0.637671 1.000000
tan -0.612747 0.250357 0.732903 1.000000
tan 0.165354 0.000000 0.984252 1.000000
tan 0.165354 0.000000 0.984252 1.000000
tan 0.165354 0.000000 0.984252 1.000000
tan 0.165354 0.000000 0.984252 1.000000
tan 0.165354 0.000000 0.984252 1.000000
tan 0.000000 -1.000000 0.000000 1.000000
tan 0.000000 -1.000000 0.000000 1.000000
tan 0.000000 -0.987290 0.000000 1.000000
tan 0.000000 -0.896522 0.000000 1.000000
tan 0.000000 -0.979974 0.000000 1.000000
tan 0.000000 -0.953624 0.000000 1.000000
tan 0.000000 -0.964226 0.000000 1.000000
tan 0.000000 -0.964846 0.000000 1.000000
tan 0.000000 -0.942650 0.000000 1.000000
tan 0.000000 -1.000000 0.000000 1.000000
tan 0.000000 -1.000000 0.000000 1.000000
f 3/3/3 2/2/2 1/1/1
f 3/3/3 1/1/1 4/4/4
f 3/3/3 5/5/5 2/2/2
f 3/3/3 4/4/4 5/5/5
f 8/8/8 7/7/7 6/6/6
f 8/8/8 6/6/6 9/9/9
f 8/8/8 9/9/9 10/10/10
f 13/13/13 12/12/12 11/11/11
f 12/12/12 13/13/13 14/14/14
f 13/13/13 15/15/15 14/14/14
f 14/14/14 15/15/15 16/16/16
f 15/15/15 17/17/17 16/16/16
f 18/18/18 16/16/16 17/17/17
f 17/17/17 19/19/19 18/18/18
f 18/18/18 19/19/19 20/20/20
f 21/21/21 20/20/20 19/19/19
