mtllib SM_Mast_Offshoot_01_LOD2@000002909DC0B900.mtl
g SM_Mast_Offshoot_01_LOD2@000002909DC0B900
#Vertices 46
#Indices 96
#Section 0 Offset 0 NumIndices 24 MaterialIndex 0 MI_RoofTile_A_01
#Section 1 Offset 24 NumIndices 33 MaterialIndex 1 MI_ConcreteTile_A2_02
#Section 2 Offset 57 NumIndices 39 MaterialIndex 2 MI_BrickTile_C_01
v 3.666879 11.272583 2.903530 0.000000 1.000000 0.000000 1.000000
v 0.299322 11.317372 4.558578 0.000000 1.000000 0.000000 1.000000
v 0.000000 20.124475 -0.000002 0.000000 1.000000 0.000000 1.000000
v 4.440630 11.317951 -0.591661 0.000000 1.000000 0.000000 1.000000
v -3.122782 11.313362 3.208587 0.000000 1.000000 0.000000 1.000000
v 2.435080 11.329185 -3.986303 0.000000 1.000000 0.000000 1.000000
v -4.478484 11.258684 0.709315 0.000000 1.000000 0.000000 1.000000
v -1.593182 11.266846 -4.302492 0.000000 1.000000 0.000000 1.000000
v -3.905864 11.313519 -2.193124 0.000000 1.000000 0.000000 1.000000
v 2.014306 -0.837877 1.561204 0.000000 1.000000 0.000000 1.000000
v 3.587538 -2.240051 -0.002070 0.000000 1.000000 0.000000 1.000000
v 2.135028 -0.686133 -1.614941 0.000000 1.000000 0.000000 1.000000
v 0.299322 11.317372 4.558578 0.000000 1.000000 0.000000 1.000000
v 3.666879 11.272583 2.903530 0.000000 1.000000 0.000000 1.000000
v 4.440630 11.317951 -0.591661 0.000000 1.000000 0.000000 1.000000
v -4.478484 11.258684 0.709315 0.000000 1.000000 0.000000 1.000000
v -3.122782 11.313362 3.208587 0.000000 1.000000 0.000000 1.000000
v -3.905864 11.313519 -2.193124 0.000000 1.000000 0.000000 1.000000
v -1.593182 11.266846 -4.302492 0.000000 1.000000 0.000000 1.000000
v 2.435080 11.329185 -3.986303 0.000000 1.000000 0.000000 1.000000
v -0.985239 -0.004536 -1.355156 0.000000 1.000000 0.000000 1.000000
v 2.014306 -0.837877 1.561204 0.000000 1.000000 0.000000 1.000000
v 2.135028 -0.686133 -1.614941 0.000000 1.000000 0.000000 1.000000
v -0.985239 -0.004536 1.355234 0.000000 1.000000 0.000000 1.000000
v 0.584110 -0.001769 4.019903 0.000000 1.000000 0.000000 1.000000
v 3.228159 -0.002036 2.505096 0.000000 1.000000 0.000000 1.000000
v 3.999921 -0.000029 0.000089 0.000000 1.000000 0.000000 1.000000
v -3.215391 -0.022543 2.928582 0.000000 1.000000 0.000000 1.000000
v -3.970037 -0.008682 -1.266776 0.000000 1.000000 0.000000 1.000000
v -1.398504 -0.007859 -3.993836 0.000000 1.000000 0.000000 1.000000
v 2.839403 -0.005952 -3.258366 0.000000 1.000000 0.000000 1.000000
v 3.999921 -0.000029 0.000089 0.000000 1.000000 0.000000 1.000000
v 4.232291 11.587142 0.160612 0.000000 1.000000 0.000000 1.000000
v 2.839403 -0.005952 -3.258366 0.000000 1.000000 0.000000 1.000000
v 2.446347 11.583401 -3.494553 0.000000 1.000000 0.000000 1.000000
v -1.398504 -0.007859 -3.993836 0.000000 1.000000 0.000000 1.000000
v -1.745385 11.583833 -3.807271 0.000000 1.000000 0.000000 1.000000
v -3.970037 -0.008682 -1.266776 0.000000 1.000000 0.000000 1.000000
v -4.033336 11.583081 -0.905275 0.000000 1.000000 0.000000 1.000000
v -3.215391 -0.022543 2.928582 0.000000 1.000000 0.000000 1.000000
v -2.710000 11.584487 3.356961 0.000000 1.000000 0.000000 1.000000
v 0.584110 -0.001769 4.019903 0.000000 1.000000 0.000000 1.000000
v 1.561583 11.583135 3.851017 0.000000 1.000000 0.000000 1.000000
v 3.228159 -0.002036 2.505096 0.000000 1.000000 0.000000 1.000000
v 4.232291 11.587142 0.160612 0.000000 1.000000 0.000000 1.000000
v 3.999921 -0.000029 0.000089 0.000000 1.000000 0.000000 1.000000
vt 0.384766 -0.761719
vt 1.016602 -1.087891
vt 1.085938 -0.239258
vt 0.259521 -0.101562
vt 1.653320 -0.855469
vt 0.649902 0.513672
vt 1.922852 -0.397461
vt 1.408203 0.557373
vt 1.830078 0.146484
vt 1.803711 1.870605
vt 1.867188 1.544922
vt 2.175781 1.683105
vt 4.046875 0.129883
vt 4.500000 0.246094
vt 4.683594 0.653809
vt 3.560547 0.723145
vt 3.662109 0.382812
vt 3.705078 1.063416
vt 4.039062 1.262207
vt 4.527344 1.120361
vt 2.296875 2.056641
vt 1.799805 1.865234
vt 2.173828 1.669434
vt 2.001953 2.190430
vt 0.735840 0.878296
vt 1.093750 1.009216
vt 1.241211 1.301514
vt 0.290771 1.092773
vt 0.286133 1.625488
vt 0.660645 1.907227
vt 1.166992 1.727051
vt -1.035156 1.769531
vt -1.006836 3.216797
vt -1.464844 1.769531
vt -1.512695 3.216797
vt -1.986328 1.769043
vt -2.029297 3.216797
vt -2.447266 1.769043
vt -2.488281 3.216797
vt -2.970703 1.767578
vt -3.042969 3.216797
vt -3.453125 1.769531
vt -3.572266 3.216797
vt -3.835938 1.769043
vt -4.144531 3.218750
vt -4.164062 1.769531
vt1 0.384766 -0.761719
vt1 1.016602 -1.087891
vt1 1.085938 -0.239258
vt1 0.259521 -0.101562
vt1 1.653320 -0.855469
vt1 0.649902 0.513672
vt1 1.922852 -0.397461
vt1 1.408203 0.557373
vt1 1.830078 0.146484
vt1 1.803711 1.870605
vt1 1.867188 1.544922
vt1 2.175781 1.683105
vt1 4.046875 0.129883
vt1 4.500000 0.246094
vt1 4.683594 0.653809
vt1 3.560547 0.723145
vt1 3.662109 0.382812
vt1 3.705078 1.063416
vt1 4.039062 1.262207
vt1 4.527344 1.120361
vt1 2.296875 2.056641
vt1 1.799805 1.865234
vt1 2.173828 1.669434
vt1 2.001953 2.190430
vt1 0.735840 0.878296
vt1 1.093750 1.009216
vt1 1.241211 1.301514
vt1 0.290771 1.092773
vt1 0.286133 1.625488
vt1 0.660645 1.907227
vt1 1.166992 1.727051
vt1 -1.035156 1.769531
vt1 -1.006836 3.216797
vt1 -1.464844 1.769531
vt1 -1.512695 3.216797
vt1 -1.986328 1.769043
vt1 -2.029297 3.216797
vt1 -2.447266 1.769043
vt1 -2.488281 3.216797
vt1 -2.970703 1.767578
vt1 -3.042969 3.216797
vt1 -3.453125 1.769531
vt1 -3.572266 3.216797
vt1 -3.835938 1.769043
vt1 -4.144531 3.218750
vt1 -4.164062 1.769531
vn 0.708661 0.433071 0.559055
vn 0.047244 0.440945 0.897638
vn 0.000000 1.000000 -0.000000
vn 0.889764 0.448819 -0.118110
vn -0.622047 0.448819 0.637795
vn 0.472441 0.433071 -0.763779
vn -0.889764 0.440945 0.141732
vn -0.314961 0.433071 -0.842520
vn -0.779528 0.448819 -0.433071
vn -0.598425 -0.803149 0.000000
vn -0.598425 -0.803149 0.000000
vn -0.598425 -0.803149 0.000000
vn 0.000000 -1.000000 0.000000
vn 0.000000 -1.000000 0.000000
vn 0.000000 -1.000000 0.000000
vn 0.000000 -1.000000 0.000000
vn 0.000000 -1.000000 0.000000
vn 0.000000 -1.000000 0.000000
vn 0.000000 -1.000000 0.000000
vn 0.000000 -1.000000 0.000000
vn -0.291339 -0.960630 0.000000
vn -0.291339 -0.960630 0.000000
vn -0.291339 -0.960630 0.000000
vn -0.291339 -0.960630 0.000000
vn 0.000000 -1.000000 0.000000
vn 0.000000 -1.000000 0.000000
vn 0.000000 -1.000000 0.000000
vn 0.000000 -1.000000 0.000000
vn 0.000000 -1.000000 0.000000
vn 0.000000 -1.000000 0.000000
vn 0.000000 -1.000000 0.000000
vn 1.000000 0.000000 0.000000
vn 1.000000 0.000000 0.047244
vn 0.661417 -0.000000 -0.755905
vn 0.574803 -0.000000 -0.818897
vn -0.330709 -0.000000 -0.944882
vn -0.417323 -0.000000 -0.905512
vn -0.952756 -0.000000 -0.299213
vn -0.976378 -0.000000 -0.220472
vn -0.740157 0.000000 0.669291
vn -0.629921 0.000000 0.779527
vn 0.141732 0.000000 0.992126
vn 0.377953 0.000000 0.929134
vn 0.787402 0.000000 0.614173
vn 1.000000 0.000000 0.070866
vn 1.000000 0.000000 0.000000
tan -0.553661 -0.095666 0.775931 1.000000
tan -0.056544 -0.897638 0.443921 1.000000
tan -0.031496 0.000000 1.000000 1.000000
tan 0.103974 0.028954 0.893298 1.000000
tan 0.604129 -0.200756 0.730485 1.000000
tan 0.595387 0.475107 0.637671 1.000000
tan 0.131316 -0.026598 0.907124 1.000000
tan -0.404675 0.743010 0.533201 1.000000
tan -0.440139 0.018414 0.811333 1.000000
tan 0.790502 -0.589001 -0.143716 1.000000
tan 0.796826 -0.593713 -0.143716 1.000000
tan 0.790502 -0.589001 -0.169012 1.000000
tan 0.204724 0.000000 0.976378 1.000000
tan 0.204724 0.000000 0.976378 1.000000
tan 0.204724 0.000000 0.976378 1.000000
tan 0.204724 0.000000 0.976378 1.000000
tan 0.204724 0.000000 0.976378 1.000000
tan 0.204724 0.000000 0.976378 1.000000
tan 0.204724 0.000000 0.976378 1.000000
tan 0.204724 0.000000 0.976378 1.000000
tan 0.884990 -0.268399 -0.372931 1.000000
tan 0.892554 -0.270693 -0.347945 1.000000
tan 0.884990 -0.268399 -0.363073 1.000000
tan 0.892554 -0.270693 -0.357803 1.000000
tan 0.165354 0.000000 0.984252 1.000000
tan 0.165354 0.000000 0.984252 1.000000
tan 0.165354 0.000000 0.984252 1.000000
tan 0.165354 0.000000 0.984252 1.000000
tan 0.165354 0.000000 0.984252 1.000000
tan 0.165354 0.000000 0.984252 1.000000
tan 0.165354 0.000000 0.984252 1.000000
tan 0.000000 -1.000000 0.000000 1.000000
tan 0.000000 -1.000000 0.000000 1.000000
tan 0.000000 -0.987290 0.000000 1.000000
tan 0.000000 -0.896522 0.000000 1.000000
tan 0.000000 -0.947486 0.000000 1.000000
tan 0.000000 -0.918656 0.000000 1.000000
tan 0.000000 -0.950400 0.000000 1.000000
tan 0.000000 -0.976378 0.000000 1.000000
tan 0.000000 -0.964226 0.000000 1.000000
tan 0.000000 -0.949842 0.000000 1.000000
tan 0.000000 -0.992126 0.000000 1.000000
tan 0.000000 -0.935086 0.000000 1.000000
tan 0.000000 -0.930498 0.000000 1.000000
tan 0.000000 -1.000000 0.000000 1.000000
tan 0.000000 -1.000000 0.000000 1.000000
f 3/3/3 2/2/2 1/1/1
f 3/3/3 1/1/1 4/4/4
f 3/3/3 5/5/5 2/2/2
f 3/3/3 4/4/4 6/6/6
f 3/3/3 7/7/7 5/5/5
f 3/3/3 6/6/6 8/8/8
f 3/3/3 9/9/9 7/7/7
f 3/3/3 8/8/8 9/9/9
f 12/12/12 11/11/11 10/10/10
f 15/15/15 14/14/14 13/13/13
f 18/18/18 17/17/17 16/16/16
f 20/20/20 18/18/18 19/19/19
f 23/23/23 22/22/22 21/21/21
f 24/24/24 21/21/21 22/22/22
f 27/27/27 26/26/26 25/25/25
f 27/27/27 25/25/25 28/28/28
f 27/27/27 28/28/28 29/29/29
f 27/27/27 29/29/29 30/30/30
f 27/27/27 30/30/30 31/31/31
f 34/34/34 33/33/33 32/32/32
f 33/33/33 34/34/34 35/35/35
f 34/34/34 36/36/36 35/35/35
f 35/35/35 36/36/36 37/37/37
f 36/36/36 38/38/38 37/37/37
f 37/37/37 38/38/38 39/39/39
f 38/38/38 40/40/40 39/39/39
f 41/41/41 39/39/39 40/40/40
f 40/40/40 42/42/42 41/41/41
f 43/43/43 41/41/41 42/42/42
f 42/42/42 44/44/44 43/43/43
f 43/43/43 44/44/44 45/45/45
f 46/46/46 45/45/45 44/44/44
