mtllib SM_Mansion_Tower_Window_LOD2@000002909DC3F900.mtl
g SM_Mansion_Tower_Window_LOD2@000002909DC3F900
#Vertices 251
#Indices 924
#Section 0 Offset 0 NumIndices 300 MaterialIndex 0 MI_ConcreteTile_A_02
#Section 1 Offset 300 NumIndices 354 MaterialIndex 1 MI_ConcreteTrim_A_02
#Section 2 Offset 654 NumIndices 234 MaterialIndex 2 MI_Pillar_A_01
#Section 3 Offset 888 NumIndices 36 MaterialIndex 3 MM_Unlit
v 1.031921 -0.000000 -0.196280 0.196078 0.196078 1.000000 1.000000
v 1.031766 4.972804 -0.196484 1.000000 1.000000 1.000000 1.000000
v 1.026668 5.926959 -0.193918 1.000000 1.000000 1.000000 1.000000
v 1.027864 -0.000000 -0.193966 0.180392 0.180392 1.000000 1.000000
v 0.804700 6.628639 -0.193940 1.000000 1.000000 1.000000 1.000000
v 0.999744 6.524105 -0.193967 1.000000 1.000000 1.000000 1.000000
v 0.805152 -0.000000 -0.193966 0.000000 0.000000 1.000000 1.000000
v 0.932608 6.797009 -0.194969 1.000000 1.000000 1.000000 1.000000
v 0.794200 -0.000000 -0.186271 0.000000 0.000000 1.000000 1.000000
v 0.785813 7.020958 -0.193936 1.000000 1.000000 1.000000 1.000000
v 0.793828 6.583180 -0.186158 1.000000 1.000000 1.000000 1.000000
v 0.777589 -0.000000 -0.169660 0.000000 0.000000 1.000000 1.000000
v 0.610474 6.839755 -0.193962 1.000000 1.000000 1.000000 1.000000
v 0.596995 7.190678 -0.193967 1.000000 1.000000 1.000000 1.000000
v 0.366763 7.327686 -0.194961 1.000000 1.000000 1.000000 1.000000
v 0.146325 7.390189 -0.193967 1.000000 1.000000 1.000000 1.000000
v 0.777398 6.560079 -0.169743 1.000000 1.000000 1.000000 1.000000
v 0.773082 -0.000000 -0.158708 0.000000 0.000000 1.000000 1.000000
v 0.714679 6.752591 -0.175820 1.000000 1.000000 1.000000 1.000000
v 0.772875 6.551570 -0.158637 1.000000 1.000000 1.000000 1.000000
v 0.770725 0.000002 -0.120064 0.000000 0.000000 1.000000 1.000000
v 0.770287 6.594821 -0.120075 1.000000 1.000000 1.000000 1.000000
v 0.716084 6.716363 -0.120155 1.000000 1.000000 1.000000 1.000000
v 0.600930 6.809027 -0.120894 1.000000 1.000000 1.000000 1.000000
v 0.507592 6.831451 -0.176031 1.000000 1.000000 1.000000 1.000000
v 0.447132 6.820707 -0.120408 1.000000 1.000000 1.000000 1.000000
v 0.399864 6.845310 -0.193940 1.000000 1.000000 1.000000 1.000000
v 0.286403 6.755262 -0.174709 1.000000 1.000000 1.000000 1.000000
v 0.301312 6.745002 -0.118979 1.000000 1.000000 1.000000 1.000000
v -0.080159 7.401332 -0.194335 1.000000 1.000000 1.000000 1.000000
v 0.228003 6.590846 -0.120068 1.000000 1.000000 1.000000 1.000000
v -0.387482 6.843780 -0.193921 1.000000 1.000000 1.000000 1.000000
v 0.225429 6.551611 -0.158637 1.000000 1.000000 1.000000 1.000000
v 0.227579 0.000002 -0.120064 0.000000 0.000000 1.000000 1.000000
v 0.225223 -0.000000 -0.158708 0.000000 0.000000 1.000000 1.000000
v 0.220906 6.560095 -0.169743 1.000000 1.000000 1.000000 1.000000
v 0.220715 -0.000000 -0.169660 0.000000 0.000000 1.000000 1.000000
v 0.204328 6.582374 -0.186261 1.000000 1.000000 1.000000 1.000000
v 0.204104 -0.000000 -0.186271 0.000000 0.000000 1.000000 1.000000
v 0.193152 -0.000000 -0.193966 0.000000 0.000000 1.000000 1.000000
v 0.194011 6.626655 -0.193922 1.000000 1.000000 1.000000 1.000000
v -0.194161 6.638345 -0.193961 1.000000 1.000000 1.000000 1.000000
v -0.193152 -0.000000 -0.193966 0.000000 0.000000 1.000000 1.000000
v -0.204328 6.582370 -0.186261 1.000000 1.000000 1.000000 1.000000
v -0.204104 -0.000000 -0.186271 0.000000 0.000000 1.000000 1.000000
v -0.220715 -0.000000 -0.169660 0.000000 0.000000 1.000000 1.000000
v -0.302957 6.748411 -0.124414 1.000000 1.000000 1.000000 1.000000
v -0.220906 6.560090 -0.169743 1.000000 1.000000 1.000000 1.000000
v -0.225223 -0.000000 -0.158708 0.000000 0.000000 1.000000 1.000000
v -0.225507 6.600900 -0.158440 1.000000 1.000000 1.000000 1.000000
v -0.227579 0.000002 -0.120064 0.000000 0.000000 1.000000 1.000000
v -0.227984 6.588429 -0.120067 1.000000 1.000000 1.000000 1.000000
v -0.517784 6.839038 -0.182571 1.000000 1.000000 1.000000 1.000000
v -0.446854 6.820729 -0.120258 1.000000 1.000000 1.000000 1.000000
v -0.600214 6.808898 -0.122416 1.000000 1.000000 1.000000 1.000000
v -0.577041 6.852679 -0.193943 1.000000 1.000000 1.000000 1.000000
v -0.295269 7.352608 -0.193968 1.000000 1.000000 1.000000 1.000000
v -0.542753 7.233360 -0.194036 1.000000 1.000000 1.000000 1.000000
v -0.784700 7.022240 -0.194507 1.000000 1.000000 1.000000 1.000000
v -0.717722 6.748222 -0.176830 1.000000 1.000000 1.000000 1.000000
v -0.716171 6.715351 -0.120586 1.000000 1.000000 1.000000 1.000000
v -0.770286 6.594910 -0.120074 1.000000 1.000000 1.000000 1.000000
v -0.803921 6.646820 -0.193943 1.000000 1.000000 1.000000 1.000000
v -0.932674 6.796780 -0.195006 1.000000 1.000000 1.000000 1.000000
v -0.999751 6.524106 -0.193967 1.000000 1.000000 1.000000 1.000000
v -1.026683 5.926760 -0.193918 1.000000 1.000000 1.000000 1.000000
v -1.031920 -0.000000 -0.196280 0.000000 0.000000 1.000000 1.000000
v -1.031772 4.972805 -0.196484 1.000000 1.000000 1.000000 1.000000
v -1.027864 -0.000000 -0.193966 0.000000 0.000000 1.000000 1.000000
v -0.805152 -0.000000 -0.193966 0.000000 0.000000 1.000000 1.000000
v -0.793980 6.582561 -0.186264 1.000000 1.000000 1.000000 1.000000
v -0.794200 -0.000000 -0.186271 0.000000 0.000000 1.000000 1.000000
v -0.777589 -0.000000 -0.169660 0.000000 0.000000 1.000000 1.000000
v -0.777398 6.560080 -0.169743 1.000000 1.000000 1.000000 1.000000
v -0.773082 -0.000000 -0.158708 0.000000 0.000000 1.000000 1.000000
v -0.772875 6.551569 -0.158637 1.000000 1.000000 1.000000 1.000000
v -0.770725 0.000002 -0.120063 0.000000 0.000000 1.000000 1.000000
v -1.272429 -0.000000 -0.274864 0.000000 0.000000 1.000000 1.000000
v -1.271287 5.852617 -0.274904 1.000000 1.000000 1.000000 1.000000
v -1.273813 -0.000000 0.000000 0.000000 0.000000 1.000000 1.000000
v -1.255087 -0.000000 -0.292100 0.000000 0.000000 1.000000 1.000000
v -1.265951 6.419956 -0.000040 1.000000 1.000000 1.000000 1.000000
v -1.252832 5.832814 -0.292104 1.000000 1.000000 1.000000 1.000000
v -1.128521 -0.000000 -0.292100 0.000000 0.000000 1.000000 1.000000
v -1.241282 6.520131 -0.274865 1.000000 1.000000 1.000000 1.000000
v -1.127306 5.881629 -0.292106 1.000000 1.000000 1.000000 1.000000
v -1.106276 -0.000000 -0.281952 0.000000 0.000000 1.000000 1.000000
v -1.224040 6.517673 -0.292101 1.000000 1.000000 1.000000 1.000000
v -1.166226 6.806678 -0.274651 1.000000 1.000000 1.000000 1.000000
v -1.096109 6.965106 -0.000305 1.000000 1.000000 1.000000 1.000000
v -1.147635 6.798829 -0.292078 1.000000 1.000000 1.000000 1.000000
v -1.016807 7.063158 -0.274864 1.000000 1.000000 1.000000 1.000000
v -1.074354 6.733705 -0.291993 1.000000 1.000000 1.000000 1.000000
v -1.002734 7.052933 -0.292101 1.000000 1.000000 1.000000 1.000000
v -0.731303 7.369419 -0.275718 1.000000 1.000000 1.000000 1.000000
v -0.724077 7.361022 0.000019 1.000000 1.000000 1.000000 1.000000
v -0.190466 7.585092 -0.000350 1.000000 1.000000 1.000000 1.000000
v -0.781782 7.191566 -0.292188 1.000000 1.000000 1.000000 1.000000
v -0.712354 7.348001 -0.292096 1.000000 1.000000 1.000000 1.000000
v -0.276573 7.556131 -0.274753 1.000000 1.000000 1.000000 1.000000
v -0.292073 7.533931 -0.292059 1.000000 1.000000 1.000000 1.000000
v -0.303116 7.454563 -0.292029 1.000000 1.000000 1.000000 1.000000
v 0.079927 7.564320 -0.292142 1.000000 1.000000 1.000000 1.000000
v 0.104935 7.579486 -0.273806 1.000000 1.000000 1.000000 1.000000
v 0.441881 7.516613 0.000135 1.000000 1.000000 1.000000 1.000000
v 0.164097 7.487416 -0.292104 1.000000 1.000000 1.000000 1.000000
v 0.458657 7.482468 -0.292143 1.000000 1.000000 1.000000 1.000000
v 0.490243 7.486567 -0.272633 1.000000 1.000000 1.000000 1.000000
v 0.823936 7.281097 -0.276134 1.000000 1.000000 1.000000 1.000000
v 0.895956 7.220762 0.000074 1.000000 1.000000 1.000000 1.000000
v 0.793121 7.281184 -0.292125 1.000000 1.000000 1.000000 1.000000
v 0.561877 7.334827 -0.292093 1.000000 1.000000 1.000000 1.000000
v 1.128516 6.907376 -0.272641 1.000000 1.000000 1.000000 1.000000
v 1.160373 6.819951 0.000002 1.000000 1.000000 1.000000 1.000000
v 1.266173 6.399998 -0.000013 1.000000 1.000000 1.000000 1.000000
v 1.084320 6.943211 -0.292071 1.000000 1.000000 1.000000 1.000000
v 1.241282 6.520131 -0.274864 1.000000 1.000000 1.000000 1.000000
v 0.927999 7.043068 -0.292166 1.000000 1.000000 1.000000 1.000000
v 1.224039 6.517673 -0.292101 1.000000 1.000000 1.000000 1.000000
v 1.093302 6.618683 -0.292097 1.000000 1.000000 1.000000 1.000000
v 1.271287 5.852617 -0.274904 1.000000 1.000000 1.000000 1.000000
v 1.273813 -0.000000 0.000000 0.458824 0.458824 1.000000 1.000000
v 1.272429 -0.000000 -0.274864 0.482353 0.482353 1.000000 1.000000
v 1.255087 -0.000000 -0.292100 0.486275 0.486275 1.000000 1.000000
v 1.252832 5.832819 -0.292104 1.000000 1.000000 1.000000 1.000000
v 1.128521 -0.000000 -0.292100 0.286275 0.286275 1.000000 1.000000
v 1.127353 5.853647 -0.292104 1.000000 1.000000 1.000000 1.000000
v 1.106277 -0.000000 -0.281952 0.258824 0.258824 1.000000 1.000000
v 1.073087 6.622379 -0.284421 1.000000 1.000000 1.000000 1.000000
v 1.104680 5.930989 -0.281935 1.000000 1.000000 1.000000 1.000000
v 1.031921 -0.000000 -0.196280 0.196078 0.196078 1.000000 1.000000
v 1.031766 4.972804 -0.196484 1.000000 1.000000 1.000000 1.000000
v 1.026668 5.926959 -0.193918 1.000000 1.000000 1.000000 1.000000
v 0.999744 6.524105 -0.193967 1.000000 1.000000 1.000000 1.000000
v 0.932608 6.797009 -0.194969 1.000000 1.000000 1.000000 1.000000
v 0.901251 7.023629 -0.280816 1.000000 1.000000 1.000000 1.000000
v 0.785813 7.020958 -0.193936 1.000000 1.000000 1.000000 1.000000
v 0.596995 7.190678 -0.193967 1.000000 1.000000 1.000000 1.000000
v 0.569476 7.306159 -0.283457 1.000000 1.000000 1.000000 1.000000
v 0.366763 7.327686 -0.194961 1.000000 1.000000 1.000000 1.000000
v 0.195256 7.461816 -0.282543 1.000000 1.000000 1.000000 1.000000
v 0.146325 7.390189 -0.193967 1.000000 1.000000 1.000000 1.000000
v -0.080159 7.401332 -0.194335 1.000000 1.000000 1.000000 1.000000
v -0.297390 7.441903 -0.287291 1.000000 1.000000 1.000000 1.000000
v -0.295269 7.352608 -0.193968 1.000000 1.000000 1.000000 1.000000
v -0.542753 7.233360 -0.194036 1.000000 1.000000 1.000000 1.000000
v -0.850694 7.105138 -0.284521 1.000000 1.000000 1.000000 1.000000
v -0.784700 7.022240 -0.194507 1.000000 1.000000 1.000000 1.000000
v -0.932674 6.796780 -0.195006 1.000000 1.000000 1.000000 1.000000
v -1.073305 6.615891 -0.283630 1.000000 1.000000 1.000000 1.000000
v -0.999751 6.524106 -0.193967 1.000000 1.000000 1.000000 1.000000
v -1.104687 5.931207 -0.281942 1.000000 1.000000 1.000000 1.000000
v -1.026683 5.926760 -0.193918 1.000000 1.000000 1.000000 1.000000
v -1.031920 -0.000000 -0.196280 0.000000 0.000000 1.000000 1.000000
v -1.031772 4.972805 -0.196484 1.000000 1.000000 1.000000 1.000000
v 0.206415 6.945398 -0.198777 1.000000 1.000000 1.000000 1.000000
v 0.216891 7.066121 -0.198147 1.000000 1.000000 1.000000 1.000000
v 0.150574 6.860789 -0.197902 1.000000 1.000000 1.000000 1.000000
v 0.046751 6.803430 -0.198499 1.000000 1.000000 1.000000 1.000000
v -0.074887 6.813286 -0.198295 1.000000 1.000000 1.000000 1.000000
v -0.159458 6.869816 -0.197990 1.000000 1.000000 1.000000 1.000000
v -0.216662 6.973362 -0.198355 1.000000 1.000000 1.000000 1.000000
v -0.206749 7.094865 -0.198288 1.000000 1.000000 1.000000 1.000000
v -0.150303 7.179417 -0.197965 1.000000 1.000000 1.000000 1.000000
v -0.046645 7.236650 -0.198450 1.000000 1.000000 1.000000 1.000000
v 0.074540 7.226570 -0.198624 1.000000 1.000000 1.000000 1.000000
v 0.159236 7.170891 -0.197853 1.000000 1.000000 1.000000 1.000000
v 0.149852 6.758608 -0.264643 1.000000 1.000000 1.000000 1.000000
v 0.040654 6.721359 -0.281252 1.000000 1.000000 1.000000 1.000000
v 0.260726 6.861837 -0.272250 1.000000 1.000000 1.000000 1.000000
v 0.127121 6.739413 -0.179617 1.000000 1.000000 1.000000 1.000000
v 0.296152 6.920885 -0.179964 1.000000 1.000000 1.000000 1.000000
v -0.108533 6.723187 -0.179631 1.000000 1.000000 1.000000 1.000000
v 0.304158 7.025220 -0.271566 1.000000 1.000000 1.000000 1.000000
v -0.125145 6.743715 -0.269276 1.000000 1.000000 1.000000 1.000000
v 0.279390 7.147651 -0.179500 1.000000 1.000000 1.000000 1.000000
v -0.253026 6.849287 -0.267096 1.000000 1.000000 1.000000 1.000000
v 0.253023 7.190753 -0.267093 1.000000 1.000000 1.000000 1.000000
v -0.279390 6.892390 -0.179500 1.000000 1.000000 1.000000 1.000000
v 0.108536 7.316854 -0.179631 1.000000 1.000000 1.000000 1.000000
v -0.304158 7.014825 -0.271566 1.000000 1.000000 1.000000 1.000000
v 0.125162 7.296316 -0.269279 1.000000 1.000000 1.000000 1.000000
v -0.296151 7.119159 -0.179964 1.000000 1.000000 1.000000 1.000000
v -0.040586 7.318705 -0.281235 1.000000 1.000000 1.000000 1.000000
v -0.260724 7.178207 -0.272250 1.000000 1.000000 1.000000 1.000000
v -0.127117 7.300632 -0.179617 1.000000 1.000000 1.000000 1.000000
v -0.149850 7.281435 -0.264645 1.000000 1.000000 1.000000 1.000000
v 0.220757 6.905217 -0.265653 1.000000 1.000000 1.000000 1.000000
v 0.149852 6.758608 -0.264643 1.000000 1.000000 1.000000 1.000000
v 0.260726 6.861837 -0.272250 1.000000 1.000000 1.000000 1.000000
v 0.304158 7.025220 -0.271566 1.000000 1.000000 1.000000 1.000000
v 0.129010 6.803018 -0.265793 1.000000 1.000000 1.000000 1.000000
v 0.249926 7.012476 -0.265747 1.000000 1.000000 1.000000 1.000000
v 0.040654 6.721359 -0.281252 1.000000 1.000000 1.000000 1.000000
v 0.217213 7.149390 -0.265507 1.000000 1.000000 1.000000 1.000000
v -0.007508 6.770105 -0.265788 1.000000 1.000000 1.000000 1.000000
v 0.253023 7.190753 -0.267093 1.000000 1.000000 1.000000 1.000000
v -0.114830 6.799268 -0.265618 1.000000 1.000000 1.000000 1.000000
v 0.114555 7.240872 -0.265757 1.000000 1.000000 1.000000 1.000000
v -0.125145 6.743715 -0.269276 1.000000 1.000000 1.000000 1.000000
v 0.125162 7.296316 -0.269279 1.000000 1.000000 1.000000 1.000000
v -0.253026 6.849287 -0.267096 1.000000 1.000000 1.000000 1.000000
v -0.040586 7.318705 -0.281235 1.000000 1.000000 1.000000 1.000000
v -0.217229 6.890699 -0.265518 1.000000 1.000000 1.000000 1.000000
v 0.007459 7.269940 -0.265750 1.000000 1.000000 1.000000 1.000000
v -0.304158 7.014825 -0.271566 1.000000 1.000000 1.000000 1.000000
v -0.129021 7.237016 -0.265797 1.000000 1.000000 1.000000 1.000000
v -0.249912 7.027527 -0.265779 1.000000 1.000000 1.000000 1.000000
v -0.149850 7.281435 -0.264645 1.000000 1.000000 1.000000 1.000000
v -0.220752 7.134839 -0.265644 1.000000 1.000000 1.000000 1.000000
v -0.260724 7.178207 -0.272250 1.000000 1.000000 1.000000 1.000000
v 0.206415 6.945398 -0.198777 1.000000 1.000000 1.000000 1.000000
v 0.249926 7.012476 -0.265747 1.000000 1.000000 1.000000 1.000000
v 0.216891 7.066121 -0.198147 1.000000 1.000000 1.000000 1.000000
v 0.220757 6.905217 -0.265653 1.000000 1.000000 1.000000 1.000000
v 0.217213 7.149390 -0.265507 1.000000 1.000000 1.000000 1.000000
v 0.150574 6.860789 -0.197902 1.000000 1.000000 1.000000 1.000000
v 0.159236 7.170891 -0.197853 1.000000 1.000000 1.000000 1.000000
v 0.129010 6.803018 -0.265793 1.000000 1.000000 1.000000 1.000000
v 0.114555 7.240872 -0.265757 1.000000 1.000000 1.000000 1.000000
v 0.046751 6.803430 -0.198499 1.000000 1.000000 1.000000 1.000000
v 0.074540 7.226570 -0.198624 1.000000 1.000000 1.000000 1.000000
v -0.007508 6.770105 -0.265788 1.000000 1.000000 1.000000 1.000000
v 0.007459 7.269940 -0.265750 1.000000 1.000000 1.000000 1.000000
v -0.074887 6.813286 -0.198295 1.000000 1.000000 1.000000 1.000000
v -0.046645 7.236650 -0.198450 1.000000 1.000000 1.000000 1.000000
v -0.114830 6.799268 -0.265618 1.000000 1.000000 1.000000 1.000000
v -0.129021 7.237016 -0.265797 1.000000 1.000000 1.000000 1.000000
v -0.159458 6.869816 -0.197990 1.000000 1.000000 1.000000 1.000000
v -0.150303 7.179417 -0.197965 1.000000 1.000000 1.000000 1.000000
v -0.217229 6.890699 -0.265518 1.000000 1.000000 1.000000 1.000000
v -0.220752 7.134839 -0.265644 1.000000 1.000000 1.000000 1.000000
v -0.216662 6.973362 -0.198355 1.000000 1.000000 1.000000 1.000000
v -0.206749 7.094865 -0.198288 1.000000 1.000000 1.000000 1.000000
v -0.249912 7.027527 -0.265779 1.000000 1.000000 1.000000 1.000000
v -0.227984 6.588429 -0.120067 1.000000 1.000000 1.000000 1.000000
v -0.770725 0.000002 -0.120063 0.000000 0.000000 1.000000 1.000000
v -0.227579 0.000002 -0.120064 0.000000 0.000000 1.000000 1.000000
v -0.770286 6.594910 -0.120074 1.000000 1.000000 1.000000 1.000000
v -0.302957 6.748411 -0.124414 1.000000 1.000000 1.000000 1.000000
v -0.446854 6.820729 -0.120258 1.000000 1.000000 1.000000 1.000000
v -0.600214 6.808898 -0.122416 1.000000 1.000000 1.000000 1.000000
v -0.716171 6.715351 -0.120586 1.000000 1.000000 1.000000 1.000000
v 0.770725 0.000002 -0.120064 0.000000 0.000000 1.000000 1.000000
v 0.228003 6.590846 -0.120068 1.000000 1.000000 1.000000 1.000000
v 0.227579 0.000002 -0.120064 0.000000 0.000000 1.000000 1.000000
v 0.770287 6.594821 -0.120075 1.000000 1.000000 1.000000 1.000000
v 0.716084 6.716363 -0.120155 1.000000 1.000000 1.000000 1.000000
v 0.600930 6.809027 -0.120894 1.000000 1.000000 1.000000 1.000000
v 0.447132 6.820707 -0.120408 1.000000 1.000000 1.000000 1.000000
v 0.301312 6.745002 -0.118979 1.000000 1.000000 1.000000 1.000000
vt 0.797852 -0.815430
vt 0.629395 -0.272461
vt 0.596191 -0.167969
vt 0.797363 -0.815430
vt 0.548340 -0.098633
vt 0.574707 -0.103516
vt 0.772949 -0.823242
vt 0.561523 -0.076172
vt 0.771484 -0.823242
vt 0.544922 -0.052734
vt 0.548828 -0.104492
vt 0.769043 -0.824219
vt 0.524902 -0.074219
vt 0.524414 -0.033203
vt 0.498779 -0.016602
vt 0.474121 -0.008789
vt 0.546875 -0.107422
vt 0.767578 -0.825195
vt 0.536621 -0.084961
vt 0.545898 -0.108398
vt 0.763184 -0.826172
vt 0.540527 -0.105469
vt 0.533691 -0.092773
vt 0.521484 -0.083984
vt 0.512695 -0.075195
vt 0.506836 -0.082031
vt 0.500488 -0.072266
vt 0.487305 -0.083008
vt 0.492188 -0.087891
vt 0.448730 -0.005859
vt 0.484375 -0.101562
vt 0.409180 -0.067383
vt 0.479736 -0.105469
vt 0.437744 -0.853516
vt 0.433350 -0.853516
vt 0.478516 -0.104492
vt 0.431885 -0.853516
vt 0.476074 -0.101562
vt 0.429199 -0.853516
vt 0.427734 -0.853516
vt 0.474854 -0.096680
vt 0.430664 -0.092773
vt 0.383545 -0.850586
vt 0.428711 -0.098633
vt 0.382080 -0.850586
vt 0.379395 -0.849609
vt 0.415771 -0.081055
vt 0.426025 -0.101562
vt 0.377930 -0.849609
vt 0.424805 -0.096680
vt 0.373535 -0.849609
vt 0.420410 -0.097656
vt 0.394043 -0.067383
vt 0.400391 -0.075195
vt 0.385498 -0.075195
vt 0.387207 -0.064453
vt 0.424316 -0.009766
vt 0.395264 -0.021484
vt 0.365723 -0.041992
vt 0.369629 -0.075195
vt 0.372070 -0.083008
vt 0.364014 -0.094727
vt 0.357666 -0.084961
vt 0.346436 -0.063477
vt 0.330078 -0.088867
vt 0.301025 -0.150391
vt 0.024857 -0.769531
vt 0.256104 -0.250000
vt 0.025345 -0.769531
vt 0.048615 -0.780273
vt 0.356201 -0.092773
vt 0.050018 -0.780273
vt 0.052460 -0.782227
vt 0.357422 -0.095703
vt 0.053711 -0.782227
vt 0.358398 -0.097656
vt 0.057831 -0.784180
vt 0.709961 0.690186
vt 0.468018 0.690186
vt 0.709961 0.667725
vt 0.709961 0.697998
vt 0.389404 0.667725
vt 0.467529 0.698486
vt 0.709961 0.743164
vt 0.304932 0.690186
vt 0.448242 0.742920
vt 0.709961 0.751709
vt 0.304932 0.697998
vt 0.265381 0.690186
vt 0.244385 0.667725
vt 0.265625 0.697266
vt 0.228882 0.690186
vt 0.273438 0.744385
vt 0.228882 0.697998
vt 0.175659 0.690186
vt 0.175415 0.667725
vt 0.100525 0.667725
vt 0.199951 0.741943
vt 0.175537 0.698486
vt 0.111694 0.690186
vt 0.114441 0.697021
vt 0.122925 0.745361
vt 0.067810 0.699219
vt 0.064880 0.690186
vt 0.022324 0.667725
vt 0.052155 0.741211
vt 0.018631 0.697266
vt 0.014961 0.689941
vt -0.036743 0.690186
vt -0.048706 0.667725
vt -0.033630 0.698975
vt -0.007912 0.743408
vt -0.093445 0.689941
vt -0.108521 0.667725
vt -0.237183 0.667725
vt -0.090210 0.698242
vt -0.149414 0.690186
vt -0.074158 0.739502
vt -0.149414 0.697998
vt -0.134155 0.743408
vt -0.312500 0.690186
vt -0.554688 0.667725
vt -0.554688 0.690186
vt -0.554688 0.697998
vt -0.312256 0.698486
vt -0.554688 0.743164
vt -0.295410 0.742920
vt -0.554688 0.751709
vt -0.132202 0.750977
vt -0.300293 0.751709
vt -0.554688 0.780640
vt -0.366211 0.780640
vt -0.233154 0.780518
vt -0.149414 0.780640
vt -0.106506 0.780151
vt -0.073730 0.752197
vt -0.061310 0.780640
vt -0.023163 0.780640
vt -0.010757 0.751221
vt 0.016769 0.780029
vt 0.047455 0.751099
vt 0.053497 0.780640
vt 0.091187 0.780029
vt 0.123108 0.750000
vt 0.126587 0.780640
vt 0.167969 0.780640
vt 0.215698 0.750732
vt 0.216309 0.780273
vt 0.261963 0.780151
vt 0.288818 0.751221
vt 0.304932 0.780640
vt 0.455811 0.751709
vt 0.388428 0.780518
vt 0.709961 0.780640
vt 0.521484 0.780640
vt 0.096069 0.755981
vt 0.099243 0.769653
vt 0.088196 0.747314
vt 0.075378 0.742432
vt 0.061615 0.745605
vt 0.052887 0.753296
vt 0.048035 0.766113
vt 0.051147 0.779907
vt 0.059052 0.788696
vt 0.071838 0.793457
vt 0.085571 0.790405
vt 0.094360 0.782593
vt 0.088379 0.730713
vt 0.073853 0.729004
vt 0.104675 0.742432
vt 0.087769 0.718994
vt 0.119934 0.745117
vt 0.049133 0.721924
vt 0.113098 0.762573
vt 0.052155 0.734375
vt 0.122559 0.781738
vt 0.037170 0.750366
vt 0.110107 0.785400
vt 0.024658 0.754028
vt 0.098145 0.813843
vt 0.034149 0.773315
vt 0.095032 0.801392
vt 0.027328 0.790771
vt 0.073364 0.806885
vt 0.042572 0.793335
vt 0.059479 0.816895
vt 0.058899 0.805176
vt 0.101135 0.748291
vt 0.088379 0.730713
vt 0.104919 0.742188
vt 0.113708 0.762817
vt 0.086731 0.736328
vt 0.107056 0.762085
vt 0.073303 0.727783
vt 0.105347 0.781006
vt 0.067749 0.734375
vt 0.110229 0.785522
vt 0.053894 0.740479
vt 0.093323 0.795410
vt 0.051910 0.733887
vt 0.095337 0.801880
vt 0.037048 0.750244
vt 0.073975 0.808105
vt 0.041870 0.754761
vt 0.079468 0.801392
vt 0.033508 0.772949
vt 0.060516 0.799561
vt 0.040161 0.773804
vt 0.058868 0.805298
vt 0.046143 0.787598
vt 0.042328 0.793701
vt 0.096130 0.756104
vt 0.106995 0.761841
vt 0.099121 0.769653
vt 0.101013 0.748047
vt 0.105408 0.780762
vt 0.088318 0.747314
vt 0.094299 0.782715
vt 0.086487 0.736084
vt 0.093445 0.795288
vt 0.075439 0.742432
vt 0.085449 0.790405
vt 0.067505 0.734619
vt 0.079712 0.801270
vt 0.061798 0.745361
vt 0.071838 0.793457
vt 0.053772 0.740479
vt 0.060760 0.799683
vt 0.052887 0.753174
vt 0.058929 0.788574
vt 0.041840 0.755005
vt 0.046265 0.787720
vt 0.048096 0.766113
vt 0.051147 0.779785
vt 0.040192 0.774048
vt 0.560547 0.699219
vt 0.503418 0.086426
vt 0.554199 0.085938
vt 0.510254 0.700195
vt 0.553711 0.714111
vt 0.540527 0.720947
vt 0.526367 0.719971
vt 0.515625 0.711426
vt 0.817383 0.085938
vt 0.770996 0.699707
vt 0.766602 0.086426
vt 0.821289 0.699707
vt 0.816406 0.711182
vt 0.805664 0.719727
vt 0.791504 0.720947
vt 0.777832 0.714111
vt1 0.797852 -0.815430
vt1 0.629395 -0.272461
vt1 0.596191 -0.167969
vt1 0.797363 -0.815430
vt1 0.548340 -0.098633
vt1 0.574707 -0.103516
vt1 0.772949 -0.823242
vt1 0.561523 -0.076172
vt1 0.771484 -0.823242
vt1 0.544922 -0.052734
vt1 0.548828 -0.104492
vt1 0.769043 -0.824219
vt1 0.524902 -0.074219
vt1 0.524414 -0.033203
vt1 0.498779 -0.016602
vt1 0.474121 -0.008789
vt1 0.546875 -0.107422
vt1 0.767578 -0.825195
vt1 0.536621 -0.084961
vt1 0.545898 -0.108398
vt1 0.763184 -0.826172
vt1 0.540527 -0.105469
vt1 0.533691 -0.092773
vt1 0.521484 -0.083984
vt1 0.512695 -0.075195
vt1 0.506836 -0.082031
vt1 0.500488 -0.072266
vt1 0.487305 -0.083008
vt1 0.492188 -0.087891
vt1 0.448730 -0.005859
vt1 0.484375 -0.101562
vt1 0.409180 -0.067383
vt1 0.479736 -0.105469
vt1 0.437744 -0.853516
vt1 0.433350 -0.853516
vt1 0.478516 -0.104492
vt1 0.431885 -0.853516
vt1 0.476074 -0.101562
vt1 0.429199 -0.853516
vt1 0.427734 -0.853516
vt1 0.474854 -0.096680
vt1 0.430664 -0.092773
vt1 0.383545 -0.850586
vt1 0.428711 -0.098633
vt1 0.382080 -0.850586
vt1 0.379395 -0.849609
vt1 0.415771 -0.081055
vt1 0.426025 -0.101562
vt1 0.377930 -0.849609
vt1 0.424805 -0.096680
vt1 0.373535 -0.849609
vt1 0.420410 -0.097656
vt1 0.394043 -0.067383
vt1 0.400391 -0.075195
vt1 0.385498 -0.075195
vt1 0.387207 -0.064453
vt1 0.424316 -0.009766
vt1 0.395264 -0.021484
vt1 0.365723 -0.041992
vt1 0.369629 -0.075195
vt1 0.372070 -0.083008
vt1 0.364014 -0.094727
vt1 0.357666 -0.084961
vt1 0.346436 -0.063477
vt1 0.330078 -0.088867
vt1 0.301025 -0.150391
vt1 0.024857 -0.769531
vt1 0.256104 -0.250000
vt1 0.025345 -0.769531
vt1 0.048615 -0.780273
vt1 0.356201 -0.092773
vt1 0.050018 -0.780273
vt1 0.052460 -0.782227
vt1 0.357422 -0.095703
vt1 0.053711 -0.782227
vt1 0.358398 -0.097656
vt1 0.057831 -0.784180
vt1 0.709961 0.690186
vt1 0.468018 0.690186
vt1 0.709961 0.667725
vt1 0.709961 0.697998
vt1 0.389404 0.667725
vt1 0.467529 0.698486
vt1 0.709961 0.743164
vt1 0.304932 0.690186
vt1 0.448242 0.742920
vt1 0.709961 0.751709
vt1 0.304932 0.697998
vt1 0.265381 0.690186
vt1 0.244385 0.667725
vt1 0.265625 0.697266
vt1 0.228882 0.690186
vt1 0.273438 0.744385
vt1 0.228882 0.697998
vt1 0.175659 0.690186
vt1 0.175415 0.667725
vt1 0.100525 0.667725
vt1 0.199951 0.741943
vt1 0.175537 0.698486
vt1 0.111694 0.690186
vt1 0.114441 0.697021
vt1 0.122925 0.745361
vt1 0.067810 0.699219
vt1 0.064880 0.690186
vt1 0.022324 0.667725
vt1 0.052155 0.741211
vt1 0.018631 0.697266
vt1 0.014961 0.689941
vt1 -0.036743 0.690186
vt1 -0.048706 0.667725
vt1 -0.033630 0.698975
vt1 -0.007912 0.743408
vt1 -0.093445 0.689941
vt1 -0.108521 0.667725
vt1 -0.237183 0.667725
vt1 -0.090210 0.698242
vt1 -0.149414 0.690186
vt1 -0.074158 0.739502
vt1 -0.149414 0.697998
vt1 -0.134155 0.743408
vt1 -0.312500 0.690186
vt1 -0.554688 0.667725
vt1 -0.554688 0.690186
vt1 -0.554688 0.697998
vt1 -0.312256 0.698486
vt1 -0.554688 0.743164
vt1 -0.295410 0.742920
vt1 -0.554688 0.751709
vt1 -0.132202 0.750977
vt1 -0.300293 0.751709
vt1 -0.554688 0.780640
vt1 -0.366211 0.780640
vt1 -0.233154 0.780518
vt1 -0.149414 0.780640
vt1 -0.106506 0.780151
vt1 -0.073730 0.752197
vt1 -0.061310 0.780640
vt1 -0.023163 0.780640
vt1 -0.010757 0.751221
vt1 0.016769 0.780029
vt1 0.047455 0.751099
vt1 0.053497 0.780640
vt1 0.091187 0.780029
vt1 0.123108 0.750000
vt1 0.126587 0.780640
vt1 0.167969 0.780640
vt1 0.215698 0.750732
vt1 0.216309 0.780273
vt1 0.261963 0.780151
vt1 0.288818 0.751221
vt1 0.304932 0.780640
vt1 0.455811 0.751709
vt1 0.388428 0.780518
vt1 0.709961 0.780640
vt1 0.521484 0.780640
vt1 0.096069 0.755981
vt1 0.099243 0.769653
vt1 0.088196 0.747314
vt1 0.075378 0.742432
vt1 0.061615 0.745605
vt1 0.052887 0.753296
vt1 0.048035 0.766113
vt1 0.051147 0.779907
vt1 0.059052 0.788696
vt1 0.071838 0.793457
vt1 0.085571 0.790405
vt1 0.094360 0.782593
vt1 0.088379 0.730713
vt1 0.073853 0.729004
vt1 0.104675 0.742432
vt1 0.087769 0.718994
vt1 0.119934 0.745117
vt1 0.049133 0.721924
vt1 0.113098 0.762573
vt1 0.052155 0.734375
vt1 0.122559 0.781738
vt1 0.037170 0.750366
vt1 0.110107 0.785400
vt1 0.024658 0.754028
vt1 0.098145 0.813843
vt1 0.034149 0.773315
vt1 0.095032 0.801392
vt1 0.027328 0.790771
vt1 0.073364 0.806885
vt1 0.042572 0.793335
vt1 0.059479 0.816895
vt1 0.058899 0.805176
vt1 0.101135 0.748291
vt1 0.088379 0.730713
vt1 0.104919 0.742188
vt1 0.113708 0.762817
vt1 0.086731 0.736328
vt1 0.107056 0.762085
vt1 0.073303 0.727783
vt1 0.105347 0.781006
vt1 0.067749 0.734375
vt1 0.110229 0.785522
vt1 0.053894 0.740479
vt1 0.093323 0.795410
vt1 0.051910 0.733887
vt1 0.095337 0.801880
vt1 0.037048 0.750244
vt1 0.073975 0.808105
vt1 0.041870 0.754761
vt1 0.079468 0.801392
vt1 0.033508 0.772949
vt1 0.060516 0.799561
vt1 0.040161 0.773804
vt1 0.058868 0.805298
vt1 0.046143 0.787598
vt1 0.042328 0.793701
vt1 0.096130 0.756104
vt1 0.106995 0.761841
vt1 0.099121 0.769653
vt1 0.101013 0.748047
vt1 0.105408 0.780762
vt1 0.088318 0.747314
vt1 0.094299 0.782715
vt1 0.086487 0.736084
vt1 0.093445 0.795288
vt1 0.075439 0.742432
vt1 0.085449 0.790405
vt1 0.067505 0.734619
vt1 0.079712 0.801270
vt1 0.061798 0.745361
vt1 0.071838 0.793457
vt1 0.053772 0.740479
vt1 0.060760 0.799683
vt1 0.052887 0.753174
vt1 0.058929 0.788574
vt1 0.041840 0.755005
vt1 0.046265 0.787720
vt1 0.048096 0.766113
vt1 0.051147 0.779785
vt1 0.040192 0.774048
vt1 0.560547 0.699219
vt1 0.503418 0.086426
vt1 0.554199 0.085938
vt1 0.510254 0.700195
vt1 0.553711 0.714111
vt1 0.540527 0.720947
vt1 0.526367 0.719971
vt1 0.515625 0.711426
vt1 0.817383 0.085938
vt1 0.770996 0.699707
vt1 0.766602 0.086426
vt1 0.821289 0.699707
vt1 0.816406 0.711182
vt1 0.805664 0.719727
vt1 0.791504 0.720947
vt1 0.777832 0.714111
vn -0.748031 -0.000000 -0.669291
vn -0.748031 -0.000000 -0.669291
vn -0.015748 -0.000000 -1.000000
vn -0.007874 -0.000000 -1.000000
vn -0.031496 -0.000000 -1.000000
vn 0.000000 -0.000000 -1.000000
vn -0.031496 -0.000000 -1.000000
vn 0.000000 -0.000000 -1.000000
vn -0.661417 -0.000000 -0.748031
vn 0.000000 -0.000000 -1.000000
vn -0.661417 -0.000000 -0.748031
vn -0.795276 -0.000000 -0.606299
vn 0.000000 -0.007874 -1.000000
vn 0.000000 -0.000000 -1.000000
vn 0.000000 -0.000000 -1.000000
vn 0.000000 -0.000000 -1.000000
vn -0.795276 -0.000000 -0.606299
vn -0.992126 -0.000000 -0.133858
vn -0.661417 -0.614173 -0.433071
vn -0.992126 -0.000000 -0.133858
vn -1.000000 -0.000000 -0.062992
vn -1.000000 -0.015748 -0.062992
vn -0.795276 -0.598425 -0.062992
vn -0.362205 -0.929134 -0.062992
vn -0.023622 -0.921260 -0.385827
vn 0.188976 -0.976378 -0.062992
vn 0.000000 -0.007874 -1.000000
vn 0.653543 -0.629921 -0.409449
vn 0.708661 -0.700787 -0.062992
vn 0.000000 -0.000000 -1.000000
vn 1.000000 -0.015748 -0.062992
vn -0.007874 -0.015748 -1.000000
vn 0.992126 -0.000000 -0.133858
vn 1.000000 -0.000000 -0.062992
vn 0.992126 -0.000000 -0.133858
vn 0.795276 -0.000000 -0.606299
vn 0.795276 -0.000000 -0.606299
vn 0.661417 -0.000000 -0.748031
vn 0.661417 -0.000000 -0.748031
vn 0.015748 -0.000000 -1.000000
vn 0.015748 -0.000000 -1.000000
vn -0.015748 -0.000000 -1.000000
vn -0.015748 -0.000000 -1.000000
vn -0.661417 -0.000000 -0.748031
vn -0.661417 -0.000000 -0.748031
vn -0.795276 -0.000000 -0.606299
vn -0.724409 -0.677165 -0.133858
vn -0.795276 -0.000000 -0.606299
vn -0.992126 -0.000000 -0.133858
vn -0.992126 -0.015748 -0.133858
vn -1.000000 -0.000000 -0.062992
vn -1.000000 -0.007874 -0.062992
vn 0.062992 -0.842520 -0.535433
vn -0.196850 -0.976378 -0.062992
vn 0.354331 -0.929134 -0.070866
vn 0.000000 -0.007874 -1.000000
vn 0.000000 -0.000000 -1.000000
vn 0.000000 -0.000000 -1.000000
vn 0.000000 -0.000000 -1.000000
vn 0.653543 -0.606299 -0.456693
vn 0.803150 -0.598425 -0.062992
vn 1.000000 -0.015748 -0.062992
vn 0.031496 -0.000000 -1.000000
vn 0.000000 -0.000000 -1.000000
vn 0.000000 -0.000000 -1.000000
vn 0.015748 -0.000000 -1.000000
vn 0.748031 -0.000000 -0.669291
vn 0.748031 -0.000000 -0.669291
vn 0.007874 -0.000000 -1.000000
vn 0.031496 -0.000000 -1.000000
vn 0.661417 -0.000000 -0.748031
vn 0.661417 -0.000000 -0.748031
vn 0.795276 -0.000000 -0.606299
vn 0.795276 -0.000000 -0.606299
vn 0.992126 -0.000000 -0.133858
vn 0.992126 -0.000000 -0.133858
vn 1.000000 -0.000000 -0.062992
vn -1.000000 -0.000000 -0.062992
vn -1.000000 -0.000000 -0.062992
vn -1.000000 -0.000000 -0.007874
vn -0.118110 -0.000000 -0.992126
vn -1.000000 0.023622 -0.007874
vn -0.118110 -0.000000 -0.992126
vn 0.070866 -0.000000 -1.000000
vn -0.992126 0.102362 -0.062992
vn 0.062992 -0.000000 -1.000000
vn 0.700787 -0.000000 -0.708661
vn -0.125984 0.015748 -0.992126
vn -0.921260 0.385827 -0.062992
vn -0.858268 0.511811 -0.007874
vn -0.149606 0.070866 -0.984252
vn -0.811024 0.590551 -0.062992
vn 0.070866 -0.015748 -1.000000
vn -0.149606 0.110236 -0.984252
vn -0.574803 0.818897 -0.070866
vn -0.574803 0.818897 -0.007874
vn -0.149606 0.992126 -0.007874
vn 0.047244 -0.055118 -1.000000
vn -0.094488 0.149606 -0.984252
vn -0.220472 0.976378 -0.062992
vn -0.039370 0.212598 -0.976378
vn 0.031496 -0.102362 -0.992126
vn 0.015748 0.204724 -0.976378
vn 0.086614 0.992126 -0.062992
vn 0.346457 0.937008 -0.007874
vn -0.023622 -0.078740 -1.000000
vn 0.078740 0.181102 -0.984252
vn 0.385827 0.921260 -0.062992
vn 0.653543 0.755905 -0.062992
vn 0.708661 0.708661 -0.007874
vn 0.118110 0.133858 -0.984252
vn -0.047244 -0.078740 -1.000000
vn 0.881890 0.464567 -0.070866
vn 0.921260 0.393701 -0.007874
vn 1.000000 0.023622 -0.007874
vn 0.157480 0.078740 -0.984252
vn 0.992126 0.102362 -0.062992
vn -0.055118 -0.031496 -1.000000
vn 0.125984 0.015748 -0.992126
vn -0.070866 -0.007874 -1.000000
vn 1.000000 -0.000000 -0.062992
vn 1.000000 -0.000000 -0.007874
vn 1.000000 -0.000000 -0.062992
vn 0.118110 -0.000000 -0.992126
vn 0.118110 -0.000000 -0.992126
vn -0.070866 -0.000000 -1.000000
vn -0.062992 -0.000000 -1.000000
vn -0.700787 -0.000000 -0.708661
vn -0.677165 -0.102362 -0.724409
vn -0.700787 -0.000000 -0.708661
vn -0.748031 -0.000000 -0.669291
vn -0.748031 -0.000000 -0.669291
vn -0.606299 -0.007874 -0.795275
vn -0.740157 -0.070866 -0.661417
vn -0.677165 -0.283465 -0.677165
vn -0.535433 -0.417323 -0.740157
vn -0.543307 -0.480315 -0.685039
vn -0.433071 -0.606299 -0.661417
vn -0.370079 -0.590551 -0.716535
vn -0.307087 -0.708661 -0.629921
vn -0.157480 -0.708661 -0.685039
vn -0.125984 -0.779527 -0.614173
vn 0.070866 -0.787401 -0.614173
vn 0.212598 -0.685039 -0.700787
vn 0.251969 -0.740157 -0.622047
vn 0.401575 -0.637795 -0.653543
vn 0.503937 -0.448819 -0.740157
vn 0.543307 -0.480315 -0.685039
vn 0.677165 -0.283465 -0.677165
vn 0.685039 -0.102362 -0.724409
vn 0.740157 -0.070866 -0.661417
vn 0.700787 -0.000000 -0.708661
vn 0.606299 -0.007874 -0.795275
vn 0.748031 -0.000000 -0.669291
vn 0.748031 -0.000000 -0.669291
vn 0.000000 -0.000000 -1.000000
vn 0.000000 -0.000000 -1.000000
vn 0.000000 -0.000000 -1.000000
vn 0.000000 -0.000000 -1.000000
vn 0.000000 -0.000000 -1.000000
vn 0.000000 -0.000000 -1.000000
vn 0.000000 -0.000000 -1.000000
vn 0.000000 -0.000000 -1.000000
vn 0.000000 -0.000000 -1.000000
vn 0.000000 -0.000000 -1.000000
vn 0.000000 -0.000000 -1.000000
vn 0.000000 -0.000000 -1.000000
vn 0.464567 -0.818898 -0.346457
vn 0.149606 -0.976378 -0.141732
vn 0.842520 -0.519685 -0.141732
vn 0.409449 -0.913386 0.000000
vn 0.944882 -0.322835 0.000000
vn -0.346457 -0.937008 0.000000
vn 0.992126 0.015748 -0.141732
vn -0.401575 -0.897638 -0.165354
vn 0.913386 0.417323 -0.000000
vn -0.818898 -0.559055 -0.141732
vn 0.818898 0.559055 -0.141732
vn -0.913386 -0.417323 0.000000
vn 0.346457 0.937008 -0.000000
vn -0.992126 -0.015748 -0.141732
vn 0.401575 0.897638 -0.165354
vn -0.944882 0.322835 -0.000000
vn -0.149606 0.976378 -0.141732
vn -0.842520 0.519685 -0.141732
vn -0.409449 0.913386 -0.000000
vn -0.464567 0.818897 -0.346457
vn -0.015748 0.007874 -1.000000
vn -0.007874 0.015748 -1.000000
vn -0.015748 0.007874 -1.000000
vn -0.015748 -0.000000 -1.000000
vn -0.007874 0.015748 -1.000000
vn -0.015748 -0.000000 -1.000000
vn 0.000000 0.015748 -1.000000
vn -0.015748 -0.007874 -1.000000
vn 0.000000 0.015748 -1.000000
vn -0.015748 -0.007874 -1.000000
vn 0.007874 0.015748 -1.000000
vn -0.007874 -0.015748 -1.000000
vn 0.007874 0.015748 -1.000000
vn -0.007874 -0.015748 -1.000000
vn 0.015748 0.007874 -1.000000
vn 0.000000 -0.015748 -1.000000
vn 0.015748 0.007874 -1.000000
vn 0.000000 -0.015748 -1.000000
vn 0.015748 -0.000000 -1.000000
vn 0.007874 -0.015748 -1.000000
vn 0.015748 -0.000000 -1.000000
vn 0.007874 -0.015748 -1.000000
vn 0.015748 -0.007874 -1.000000
vn 0.015748 -0.007874 -1.000000
vn -0.866142 0.314961 -0.393701
vn -0.897638 0.023622 -0.433071
vn -0.897638 -0.188976 -0.393701
vn -0.795276 0.409449 -0.440945
vn -0.771654 -0.472441 -0.425197
vn -0.629921 0.669291 -0.393701
vn -0.669291 -0.629921 -0.393701
vn -0.464567 0.771653 -0.425197
vn -0.409449 -0.803150 -0.433071
vn -0.196850 0.897638 -0.393701
vn -0.314961 -0.866142 -0.393701
vn 0.023622 0.897638 -0.433071
vn -0.023622 -0.897638 -0.433071
vn 0.314961 0.866142 -0.393701
vn 0.196850 -0.897638 -0.393701
vn 0.409449 0.795275 -0.440945
vn 0.464567 -0.771653 -0.425197
vn 0.669291 0.629921 -0.393701
vn 0.629921 -0.669291 -0.393701
vn 0.771654 0.472441 -0.425197
vn 0.795276 -0.409449 -0.440945
vn 0.897638 0.196850 -0.393701
vn 0.866142 -0.314961 -0.393701
vn 0.897638 -0.023622 -0.433071
vn 0.000000 -0.000000 -1.000000
vn 0.000000 -0.000000 -1.000000
vn 0.000000 -0.000000 -1.000000
vn 0.000000 -0.000000 -1.000000
vn 0.000000 -0.000000 -1.000000
vn 0.000000 -0.000000 -1.000000
vn 0.000000 -0.000000 -1.000000
vn 0.000000 -0.000000 -1.000000
vn 0.000000 -0.000000 -1.000000
vn 0.000000 -0.000000 -1.000000
vn 0.000000 -0.000000 -1.000000
vn 0.000000 -0.000000 -1.000000
vn 0.000000 -0.000000 -1.000000
vn 0.000000 -0.000000 -1.000000
vn 0.000000 -0.000000 -1.000000
vn 0.000000 -0.000000 -1.000000
tan -0.363631 -0.839171 0.406411 1.000000
tan -0.358361 -0.839171 0.400521 1.000000
tan -0.314961 -0.952756 0.004960 1.000000
tan -0.314961 -0.952756 0.002480 1.000000
tan -0.307087 -0.952756 0.009672 1.000000
tan -0.251969 -0.968504 0.000000 1.000000
tan -0.322835 -0.944882 0.010168 1.000000
tan -0.157480 -0.984252 0.000000 1.000000
tan -0.388741 -0.841900 0.343729 1.000000
tan -0.055118 -1.000000 0.000000 1.000000
tan -0.724471 -0.228780 0.640585 1.000000
tan -0.305537 -0.841031 0.400769 1.000000
tan -0.007874 -1.000000 0.007874 1.000000
tan 0.015748 -1.000000 0.000000 1.000000
tan 0.039370 -1.000000 0.000000 1.000000
tan 0.047244 -1.000000 0.000000 1.000000
tan -0.558559 -0.336971 0.732655 1.000000
tan -0.041106 -0.945254 0.304669 1.000000
tan 0.425693 -0.750387 0.414037 1.000000
tan -0.043214 -0.937442 0.320293 1.000000
tan -0.018848 -0.952756 0.299213 1.000000
tan -0.003844 -0.952756 0.299213 1.000000
tan 0.558001 -0.767933 0.250605 1.000000
tan 0.482857 -0.241800 0.790129 1.000000
tan 0.029016 -0.386571 0.921260 1.000000
tan -0.076880 -0.077872 0.976378 1.000000
tan 0.070866 -1.000000 0.007874 1.000000
tan -0.468721 -0.741397 0.392461 1.000000
tan -0.681815 -0.703453 0.155496 1.000000
tan 0.062992 -1.000000 0.000000 1.000000
tan -0.010788 -1.000000 0.078740 1.000000
tan 0.047244 -1.000000 0.015376 1.000000
tan 0.010540 -0.992126 0.078120 1.000000
tan 0.003968 -1.000000 0.062992 1.000000
tan 0.008432 -0.992126 0.062496 1.000000
tan 0.276893 -0.758633 0.363197 1.000000
tan 0.071610 -0.968380 0.093930 1.000000
tan 0.488871 -0.698121 0.432265 1.000000
tan 0.088350 -0.982330 0.078120 1.000000
tan 0.070866 -1.000000 0.001116 1.000000
tan 0.070866 -1.000000 0.001116 1.000000
tan 0.062992 -1.000000 -0.000992 1.000000
tan 0.070866 -1.000000 -0.001116 1.000000
tan 0.465311 -0.715109 -0.411433 1.000000
tan 0.088350 -0.982330 -0.078120 1.000000
tan 0.071610 -0.968380 -0.093930 1.000000
tan 0.650691 -0.731973 0.181536 1.000000
tan 0.253023 -0.777419 -0.331887 1.000000
tan 0.008432 -0.992126 -0.062496 1.000000
tan 0.023126 -0.992126 -0.054684 1.000000
tan 0.003968 -1.000000 -0.062992 1.000000
tan 0.010850 -1.000000 -0.047244 1.000000
tan -0.033170 -0.537913 0.842520 1.000000
tan 0.192200 -0.100750 0.961002 1.000000
tan -0.350611 -0.199206 0.858764 1.000000
tan 0.102362 -0.992126 0.007812 1.000000
tan 0.078740 -1.000000 0.000000 1.000000
tan 0.086614 -1.000000 0.000000 1.000000
tan 0.157480 -0.984252 0.000000 1.000000
tan -0.302375 -0.731911 0.538967 1.000000
tan -0.539897 -0.757517 0.312729 1.000000
tan 0.011408 -0.913386 0.409449 1.000000
tan 0.425197 -0.905512 0.013392 1.000000
tan 0.275591 -0.960630 0.000000 1.000000
tan 0.362205 -0.929134 0.000000 1.000000
tan 0.425197 -0.905512 0.006696 1.000000
tan 0.453221 -0.732221 0.506541 1.000000
tan 0.453221 -0.732221 0.506541 1.000000
tan 0.433071 -0.905512 0.003410 1.000000
tan 0.440945 -0.897638 0.013888 1.000000
tan 0.736251 -0.160146 0.651001 1.000000
tan 0.494761 -0.746543 0.437473 1.000000
tan 0.386695 -0.748279 0.507223 1.000000
tan 0.582429 -0.244528 0.763965 1.000000
tan 0.056916 -0.898382 0.421849 1.000000
tan 0.059024 -0.890570 0.437473 1.000000
tan 0.025792 -0.913386 0.409449 1.000000
tan -0.062992 0.000000 1.000000 1.000000
tan -0.062992 0.000000 1.000000 1.000000
tan -0.007874 0.000000 1.000000 1.000000
tan -0.992126 0.000000 0.118110 1.000000
tan -0.007874 0.000000 1.000000 1.000000
tan -0.992126 0.007812 0.118110 1.000000
tan -1.000000 -0.000000 -0.070866 1.000000
tan -0.062992 0.000000 0.992126 1.000000
tan -1.000000 0.007874 -0.062992 1.000000
tan -0.708661 -0.000000 -0.700787 1.000000
tan -0.984314 0.132804 0.127100 1.000000
tan -0.062992 0.000496 0.924298 1.000000
tan -0.007874 0.000372 0.882448 1.000000
tan -0.922252 0.341001 0.164734 1.000000
tan -0.058528 0.022816 0.967450 1.000000
tan -0.968504 0.259842 -0.072726 1.000000
tan -0.806002 0.565751 0.185876 1.000000
tan -0.007812 0.070308 0.875814 1.000000
tan -0.000992 0.007812 0.884866 1.000000
tan 0.000000 0.007874 0.992126 1.000000
tan -0.661417 0.755905 -0.072912 1.000000
tan -0.558001 0.813752 0.177258 1.000000
tan 0.000000 0.062992 0.976378 1.000000
tan -0.222952 0.953314 0.216566 1.000000
tan -0.265609 0.953066 -0.106764 1.000000
tan 0.053816 0.976378 0.205592 1.000000
tan 0.000000 0.062992 0.992126 1.000000
tan 0.000000 0.007874 0.937008 1.000000
tan 0.157480 0.984252 -0.081220 1.000000
tan 0.348751 0.922252 0.197594 1.000000
tan 0.000992 0.062992 0.927336 1.000000
tan 0.026288 0.057536 0.963172 1.000000
tan 0.005022 0.006076 0.998822 1.000000
tan 0.627751 0.759501 0.178622 1.000000
tan 0.488189 0.874016 -0.091884 1.000000
tan 0.070866 0.001116 0.889206 1.000000
tan 0.007874 0.000124 0.927460 1.000000
tan 0.007874 0.000000 1.000000 1.000000
tan 0.875752 0.441751 0.175460 1.000000
tan 0.062992 0.000000 0.992126 1.000000
tan 0.803150 0.590551 -0.062868 1.000000
tan 0.984314 0.132804 0.127100 1.000000
tan 0.984252 0.181102 -0.071176 1.000000
tan 0.062992 0.000000 1.000000 1.000000
tan 0.007874 0.000000 1.000000 1.000000
tan 0.062992 0.000000 1.000000 1.000000
tan 0.992126 0.000000 0.118110 1.000000
tan 0.992126 0.007812 0.118110 1.000000
tan 1.000000 -0.000000 -0.070866 1.000000
tan 1.000000 0.007874 -0.062992 1.000000
tan 0.708661 -0.000000 -0.700787 1.000000
tan 0.724409 0.034224 -0.682001 1.000000
tan 0.708661 -0.000000 -0.700787 1.000000
tan 0.669291 -0.000000 -0.748031 1.000000
tan 0.669291 -0.000000 -0.748031 1.000000
tan 0.795276 0.006262 -0.606361 1.000000
tan 0.660859 0.037076 -0.743505 1.000000
tan 0.671833 0.095976 -0.712009 1.000000
tan 0.664393 0.320541 -0.661355 1.000000
tan 0.550189 0.409945 -0.723789 1.000000
tan 0.322897 0.578089 -0.741336 1.000000
tan 0.225680 0.677041 -0.674561 1.000000
tan 0.079360 0.624961 -0.741769 1.000000
tan 0.032364 0.685039 -0.716101 1.000000
tan 0.038688 0.614173 -0.787463 1.000000
tan -0.009672 0.614173 -0.788517 1.000000
tan -0.044144 0.700787 -0.698431 1.000000
tan -0.102858 0.612251 -0.770165 1.000000
tan -0.190402 0.622667 -0.724657 1.000000
tan -0.588629 0.448757 -0.672887 1.000000
tan -0.550189 0.404551 -0.720007 1.000000
tan -0.671833 0.095976 -0.712009 1.000000
tan -0.724409 0.034224 -0.689875 1.000000
tan -0.660859 0.037076 -0.743505 1.000000
tan -0.708661 -0.000000 -0.700787 1.000000
tan -0.795276 0.006262 -0.606361 1.000000
tan -0.669291 -0.000000 -0.748031 1.000000
tan -0.669291 -0.000000 -0.748031 1.000000
tan 0.141732 -0.992126 0.000000 1.000000
tan 0.141732 -0.992126 0.000000 1.000000
tan 0.141732 -0.992126 0.000000 1.000000
tan 0.141732 -0.992126 0.000000 1.000000
tan 0.141732 -0.992126 0.000000 1.000000
tan 0.141732 -0.992126 0.000000 1.000000
tan 0.141732 -0.992126 0.000000 1.000000
tan 0.141732 -0.992126 0.000000 1.000000
tan 0.141732 -0.992126 0.000000 1.000000
tan 0.141732 -0.992126 0.000000 1.000000
tan 0.141732 -0.992126 0.000000 1.000000
tan 0.141732 -0.992126 0.000000 1.000000
tan -0.411929 -0.536053 0.714675 1.000000
tan -0.053816 -0.149978 0.976378 1.000000
tan -0.485833 -0.828136 0.148490 1.000000
tan -0.568169 -0.254696 0.712009 1.000000
tan -0.312667 -0.915122 0.228099 1.000000
tan 0.723045 -0.267344 0.597619 1.000000
tan 0.040052 -0.976502 0.171864 1.000000
tan 0.699733 -0.415897 0.558373 1.000000
tan 0.414037 -0.906194 -0.118978 1.000000
tan 0.551243 -0.817782 0.040734 1.000000
tan 0.551243 -0.817782 -0.040734 1.000000
tan 0.414037 -0.906194 0.118978 1.000000
tan 0.723045 -0.267345 -0.597619 1.000000
tan 0.040052 -0.976502 -0.171864 1.000000
tan 0.699733 -0.415897 -0.558373 1.000000
tan -0.312667 -0.915122 -0.228098 1.000000
tan -0.053816 -0.149978 -0.976378 1.000000
tan -0.485833 -0.828136 -0.148490 1.000000
tan -0.568169 -0.254697 -0.712009 1.000000
tan -0.411929 -0.536053 -0.714675 1.000000
tan 0.078740 -1.000000 -0.009114 1.000000
tan 0.094488 -0.992126 -0.016368 1.000000
tan 0.086614 -1.000000 -0.009238 1.000000
tan 0.133858 -0.992126 -0.002108 1.000000
tan 0.094488 -0.992126 -0.016368 1.000000
tan 0.125984 -0.992126 -0.001984 1.000000
tan 0.149606 -0.992126 -0.015624 1.000000
tan 0.188976 -0.984252 0.004774 1.000000
tan 0.165354 -0.984252 -0.015500 1.000000
tan 0.188976 -0.984252 0.004774 1.000000
tan 0.204724 -0.976378 -0.013764 1.000000
tan 0.204724 -0.976378 0.013764 1.000000
tan 0.196850 -0.976378 -0.013826 1.000000
tan 0.196850 -0.976378 0.013826 1.000000
tan 0.188976 -0.984252 -0.004774 1.000000
tan 0.149606 -0.992126 0.015624 1.000000
tan 0.188976 -0.984252 -0.004774 1.000000
tan 0.165354 -0.984252 0.015500 1.000000
tan 0.125984 -0.992126 0.001984 1.000000
tan 0.094488 -0.992126 0.016368 1.000000
tan 0.118110 -0.992126 0.001860 1.000000
tan 0.094488 -0.992126 0.016368 1.000000
tan 0.086614 -1.000000 0.009238 1.000000
tan 0.086614 -1.000000 0.009238 1.000000
tan -0.126480 -0.809722 -0.369521 1.000000
tan 0.145328 -0.826958 -0.346333 1.000000
tan 0.210676 -0.897638 -0.049476 1.000000
tan -0.203608 -0.746543 -0.325997 1.000000
tan 0.415153 -0.768925 0.100936 1.000000
tan -0.493831 -0.723541 -0.439891 1.000000
tan 0.571021 -0.748341 0.226611 1.000000
tan -0.406473 -0.606981 -0.657449 1.000000
tan 0.461653 -0.589993 0.657697 1.000000
tan -0.021204 -0.398351 -0.897638 1.000000
tan 0.310621 -0.479881 0.807242 1.000000
tan 0.042408 -0.434187 -0.897638 1.000000
tan 0.042408 -0.434187 0.897638 1.000000
tan 0.317441 -0.482361 -0.807241 1.000000
tan -0.021204 -0.398351 0.897638 1.000000
tan 0.453655 -0.596441 -0.654473 1.000000
tan -0.406473 -0.606981 0.657449 1.000000
tan 0.571021 -0.745241 -0.221650 1.000000
tan -0.493831 -0.726641 0.445161 1.000000
tan 0.415153 -0.768925 -0.100936 1.000000
tan -0.203608 -0.746543 0.325997 1.000000
tan 0.221650 -0.897638 0.056544 1.000000
tan -0.126480 -0.809721 0.369521 1.000000
tan 0.145328 -0.826957 0.346333 1.000000
tan 0.007874 -1.000000 0.000000 1.000000
tan 0.007874 -1.000000 0.000000 1.000000
tan 0.007874 -1.000000 0.000000 1.000000
tan 0.007874 -1.000000 0.000000 1.000000
tan 0.007874 -1.000000 0.000000 1.000000
tan 0.007874 -1.000000 0.000000 1.000000
tan 0.007874 -1.000000 0.000000 1.000000
tan 0.007874 -1.000000 0.000000 1.000000
tan 0.007874 -1.000000 0.000000 1.000000
tan 0.007874 -1.000000 0.000000 1.000000
tan 0.007874 -1.000000 0.000000 1.000000
tan 0.007874 -1.000000 0.000000 1.000000
tan 0.007874 -1.000000 0.000000 1.000000
tan 0.007874 -1.000000 0.000000 1.000000
tan 0.007874 -1.000000 0.000000 1.000000
tan 0.007874 -1.000000 0.000000 1.000000
f 3/3/3 2/2/2 1/1/1
f 1/1/1 4/4/4 3/3/3
f 3/3/3 4/4/4 5/5/5
f 6/6/6 3/3/3 5/5/5
f 7/7/7 5/5/5 4/4/4
f 6/6/6 5/5/5 8/8/8
f 7/7/7 9/9/9 5/5/5
f 8/8/8 5/5/5 10/10/10
f 5/5/5 9/9/9 11/11/11
f 12/12/12 11/11/11 9/9/9
f 13/13/13 10/10/10 5/5/5
f 10/10/10 13/13/13 14/14/14
f 15/15/15 14/14/14 13/13/13
f 15/15/15 13/13/13 16/16/16
f 11/11/11 12/12/12 17/17/17
f 18/18/18 17/17/17 12/12/12
f 11/11/11 19/19/19 5/5/5
f 11/11/11 17/17/17 19/19/19
f 13/13/13 5/5/5 19/19/19
f 17/17/17 18/18/18 20/20/20
f 20/20/20 19/19/19 17/17/17
f 21/21/21 20/20/20 18/18/18
f 21/21/21 22/22/22 20/20/20
f 19/19/19 20/20/20 22/22/22
f 22/22/22 23/23/23 19/19/19
f 24/24/24 19/19/19 23/23/23
f 19/19/19 24/24/24 25/25/25
f 19/19/19 25/25/25 13/13/13
f 26/26/26 25/25/25 24/24/24
f 27/27/27 13/13/13 25/25/25
f 13/13/13 27/27/27 16/16/16
f 28/28/28 25/25/25 26/26/26
f 27/27/27 25/25/25 28/28/28
f 26/26/26 29/29/29 28/28/28
f 30/30/30 16/16/16 27/27/27
f 29/29/29 31/31/31 28/28/28
f 30/30/30 27/27/27 32/32/32
f 28/28/28 31/31/31 33/33/33
f 34/34/34 33/33/33 31/31/31
f 33/33/33 34/34/34 35/35/35
f 33/33/33 35/35/35 36/36/36
f 33/33/33 36/36/36 28/28/28
f 37/37/37 36/36/36 35/35/35
f 36/36/36 37/37/37 38/38/38
f 36/36/36 38/38/38 28/28/28
f 39/39/39 38/38/38 37/37/37
f 39/39/39 40/40/40 38/38/38
f 38/38/38 41/41/41 28/28/28
f 38/38/38 40/40/40 41/41/41
f 41/41/41 27/27/27 28/28/28
f 42/42/42 41/41/41 40/40/40
f 41/41/41 42/42/42 27/27/27
f 42/42/42 32/32/32 27/27/27
f 40/40/40 43/43/43 42/42/42
f 44/44/44 42/42/42 43/43/43
f 43/43/43 45/45/45 44/44/44
f 45/45/45 46/46/46 44/44/44
f 42/42/42 44/44/44 47/47/47
f 47/47/47 32/32/32 42/42/42
f 48/48/48 44/44/44 46/46/46
f 48/48/48 47/47/47 44/44/44
f 46/46/46 49/49/49 48/48/48
f 50/50/50 48/48/48 49/49/49
f 50/50/50 47/47/47 48/48/48
f 51/51/51 50/50/50 49/49/49
f 51/51/51 52/52/52 50/50/50
f 52/52/52 47/47/47 50/50/50
f 53/53/53 32/32/32 47/47/47
f 47/47/47 54/54/54 53/53/53
f 54/54/54 55/55/55 53/53/53
f 53/53/53 56/56/56 32/32/32
f 32/32/32 56/56/56 30/30/30
f 57/57/57 30/30/30 56/56/56
f 57/57/57 56/56/56 58/58/58
f 58/58/58 56/56/56 59/59/59
f 55/55/55 60/60/60 53/53/53
f 60/60/60 56/56/56 53/53/53
f 55/55/55 61/61/61 60/60/60
f 62/62/62 60/60/60 61/61/61
f 63/63/63 59/59/59 56/56/56
f 56/56/56 60/60/60 63/63/63
f 59/59/59 63/63/63 64/64/64
f 65/65/65 64/64/64 63/63/63
f 65/65/65 63/63/63 66/66/66
f 68/68/68 66/66/66 67/67/67
f 69/69/69 67/67/67 66/66/66
f 66/66/66 63/63/63 69/69/69
f 70/70/70 69/69/69 63/63/63
f 63/63/63 71/71/71 70/70/70
f 71/71/71 63/63/63 60/60/60
f 72/72/72 70/70/70 71/71/71
f 73/73/73 72/72/72 71/71/71
f 74/74/74 73/73/73 71/71/71
f 74/74/74 71/71/71 60/60/60
f 75/75/75 73/73/73 74/74/74
f 76/76/76 74/74/74 60/60/60
f 76/76/76 75/75/75 74/74/74
f 60/60/60 62/62/62 76/76/76
f 77/77/77 75/75/75 76/76/76
f 77/77/77 76/76/76 62/62/62
f 80/80/80 79/79/79 78/78/78
f 81/81/81 78/78/78 79/79/79
f 79/79/79 80/80/80 82/82/82
f 79/79/79 83/83/83 81/81/81
f 84/84/84 81/81/81 83/83/83
f 79/79/79 82/82/82 85/85/85
f 83/83/83 86/86/86 84/84/84
f 87/87/87 84/84/84 86/86/86
f 83/83/83 79/79/79 88/88/88
f 85/85/85 88/88/88 79/79/79
f 83/83/83 88/88/88 86/86/86
f 85/85/85 82/82/82 89/89/89
f 85/85/85 89/89/89 88/88/88
f 90/90/90 89/89/89 82/82/82
f 91/91/91 88/88/88 89/89/89
f 89/89/89 90/90/90 92/92/92
f 88/88/88 91/91/91 93/93/93
f 93/93/93 86/86/86 88/88/88
f 91/91/91 89/89/89 94/94/94
f 92/92/92 94/94/94 89/89/89
f 91/91/91 94/94/94 93/93/93
f 92/92/92 90/90/90 95/95/95
f 94/94/94 92/92/92 95/95/95
f 96/96/96 95/95/95 90/90/90
f 96/96/96 97/97/97 95/95/95
f 93/93/93 94/94/94 98/98/98
f 95/95/95 99/99/99 94/94/94
f 94/94/94 99/99/99 98/98/98
f 100/100/100 95/95/95 97/97/97
f 99/99/99 95/95/95 101/101/101
f 100/100/100 101/101/101 95/95/95
f 102/102/102 99/99/99 101/101/101
f 102/102/102 98/98/98 99/99/99
f 101/101/101 100/100/100 103/103/103
f 102/102/102 101/101/101 103/103/103
f 104/104/104 100/100/100 97/97/97
f 104/104/104 103/103/103 100/100/100
f 105/105/105 104/104/104 97/97/97
f 106/106/106 102/102/102 103/103/103
f 103/103/103 104/104/104 107/107/107
f 107/107/107 106/106/106 103/103/103
f 104/104/104 105/105/105 108/108/108
f 108/108/108 107/107/107 104/104/104
f 108/108/108 105/105/105 109/109/109
f 110/110/110 109/109/109 105/105/105
f 107/107/107 108/108/108 111/111/111
f 109/109/109 111/111/111 108/108/108
f 106/106/106 107/107/107 112/112/112
f 111/111/111 112/112/112 107/107/107
f 113/113/113 109/109/109 110/110/110
f 110/110/110 114/114/114 113/113/113
f 114/114/114 115/115/115 113/113/113
f 111/111/111 109/109/109 116/116/116
f 113/113/113 116/116/116 109/109/109
f 115/115/115 117/117/117 113/113/113
f 116/116/116 118/118/118 111/111/111
f 112/112/112 111/111/111 118/118/118
f 116/116/116 113/113/113 119/119/119
f 117/117/117 119/119/119 113/113/113
f 118/118/118 116/116/116 120/120/120
f 116/116/116 119/119/119 120/120/120
f 121/121/121 117/117/117 115/115/115
f 117/117/117 121/121/121 119/119/119
f 115/115/115 122/122/122 121/121/121
f 123/123/123 121/121/121 122/122/122
f 123/123/123 124/124/124 121/121/121
f 125/125/125 121/121/121 124/124/124
f 125/125/125 119/119/119 121/121/121
f 124/124/124 126/126/126 125/125/125
f 125/125/125 127/127/127 119/119/119
f 125/125/125 126/126/126 127/127/127
f 119/119/119 127/127/127 120/120/120
f 126/126/126 128/128/128 127/127/127
f 120/120/120 127/127/127 129/129/129
f 120/120/120 129/129/129 118/118/118
f 130/130/130 127/127/127 128/128/128
f 130/130/130 129/129/129 127/127/127
f 128/128/128 131/131/131 130/130/130
f 132/132/132 130/130/130 131/131/131
f 133/133/133 130/130/130 132/132/132
f 133/133/133 134/134/134 130/130/130
f 129/129/129 130/130/130 134/134/134
f 134/134/134 135/135/135 129/129/129
f 136/136/136 129/129/129 135/135/135
f 136/136/136 118/118/118 129/129/129
f 136/136/136 135/135/135 137/137/137
f 136/136/136 137/137/137 138/138/138
f 118/118/118 136/136/136 139/139/139
f 138/138/138 139/139/139 136/136/136
f 139/139/139 112/112/112 118/118/118
f 138/138/138 140/140/140 139/139/139
f 112/112/112 139/139/139 141/141/141
f 139/139/139 140/140/140 141/141/141
f 142/142/142 141/141/141 140/140/140
f 141/141/141 106/106/106 112/112/112
f 143/143/143 141/141/141 142/142/142
f 141/141/141 144/144/144 106/106/106
f 143/143/143 144/144/144 141/141/141
f 144/144/144 102/102/102 106/106/106
f 143/143/143 145/145/145 144/144/144
f 102/102/102 144/144/144 98/98/98
f 144/144/144 145/145/145 146/146/146
f 147/147/147 98/98/98 144/144/144
f 144/144/144 146/146/146 147/147/147
f 148/148/148 147/147/147 146/146/146
f 98/98/98 147/147/147 93/93/93
f 149/149/149 147/147/147 148/148/148
f 147/147/147 150/150/150 93/93/93
f 147/147/147 149/149/149 150/150/150
f 93/93/93 150/150/150 86/86/86
f 151/151/151 150/150/150 149/149/149
f 152/152/152 86/86/86 150/150/150
f 150/150/150 151/151/151 152/152/152
f 86/86/86 152/152/152 87/87/87
f 153/153/153 152/152/152 151/151/151
f 154/154/154 87/87/87 152/152/152
f 153/153/153 155/155/155 152/152/152
f 155/155/155 154/154/154 152/152/152
f 158/158/158 157/157/157 156/156/156
f 158/158/158 159/159/159 157/157/157
f 159/159/159 160/160/160 157/157/157
f 161/161/161 157/157/157 160/160/160
f 162/162/162 157/157/157 161/161/161
f 162/162/162 163/163/163 157/157/157
f 163/163/163 164/164/164 157/157/157
f 165/165/165 157/157/157 164/164/164
f 166/166/166 157/157/157 165/165/165
f 166/166/166 167/167/167 157/157/157
f 170/170/170 169/169/169 168/168/168
f 169/169/169 170/170/170 171/171/171
f 172/172/172 171/171/171 170/170/170
f 171/171/171 173/173/173 169/169/169
f 174/174/174 172/172/172 170/170/170
f 169/169/169 173/173/173 175/175/175
f 176/176/176 172/172/172 174/174/174
f 175/175/175 173/173/173 177/177/177
f 174/174/174 178/178/178 176/176/176
f 179/179/179 177/177/177 173/173/173
f 176/176/176 178/178/178 180/180/180
f 181/181/181 177/177/177 179/179/179
f 182/182/182 180/180/180 178/178/178
f 179/179/179 183/183/183 181/181/181
f 184/184/184 180/180/180 182/182/182
f 181/181/181 183/183/183 185/185/185
f 186/186/186 180/180/180 184/184/184
f 183/183/183 186/186/186 185/185/185
f 184/184/184 185/185/185 186/186/186
f 185/185/185 184/184/184 187/187/187
f 190/190/190 189/189/189 188/188/188
f 190/190/190 188/188/188 191/191/191
f 192/192/192 188/188/188 189/189/189
f 188/188/188 193/193/193 191/191/191
f 189/189/189 194/194/194 192/192/192
f 193/193/193 195/195/195 191/191/191
f 196/196/196 192/192/192 194/194/194
f 197/197/197 191/191/191 195/195/195
f 196/196/196 194/194/194 198/198/198
f 195/195/195 199/199/199 197/197/197
f 200/200/200 198/198/198 194/194/194
f 201/201/201 197/197/197 199/199/199
f 200/200/200 202/202/202 198/198/198
f 201/201/201 199/199/199 203/203/203
f 204/204/204 198/198/198 202/202/202
f 205/205/205 203/203/203 199/199/199
f 202/202/202 206/206/206 204/204/204
f 205/205/205 207/207/207 203/203/203
f 208/208/208 204/204/204 206/206/206
f 209/209/209 203/203/203 207/207/207
f 208/208/208 206/206/206 210/210/210
f 207/207/207 210/210/210 209/209/209
f 211/211/211 210/210/210 206/206/206
f 211/211/211 209/209/209 210/210/210
f 214/214/214 213/213/213 212/212/212
f 213/213/213 215/215/215 212/212/212
f 216/216/216 213/213/213 214/214/214
f 217/217/217 212/212/212 215/215/215
f 216/216/216 214/214/214 218/218/218
f 219/219/219 217/217/217 215/215/215
f 216/216/216 218/218/218 220/220/220
f 219/219/219 221/221/221 217/217/217
f 218/218/218 222/222/222 220/220/220
f 219/219/219 223/223/223 221/221/221
f 220/220/220 222/222/222 224/224/224
f 221/221/221 223/223/223 225/225/225
f 226/226/226 224/224/224 222/222/222
f 227/227/227 225/225/225 223/223/223
f 228/228/228 224/224/224 226/226/226
f 229/229/229 225/225/225 227/227/227
f 228/228/228 226/226/226 230/230/230
f 231/231/231 229/229/229 227/227/227
f 228/228/228 230/230/230 232/232/232
f 231/231/231 233/233/233 229/229/229
f 230/230/230 234/234/234 232/232/232
f 231/231/231 235/235/235 233/233/233
f 232/232/232 234/234/234 235/235/235
f 233/233/233 235/235/235 234/234/234
f 238/238/238 237/237/237 236/236/236
f 239/239/239 236/236/236 237/237/237
f 239/239/239 240/240/240 236/236/236
f 239/239/239 241/241/241 240/240/240
f 239/239/239 242/242/242 241/241/241
f 239/239/239 243/243/243 242/242/242
f 246/246/246 245/245/245 244/244/244
f 247/247/247 244/244/244 245/245/245
f 245/245/245 248/248/248 247/247/247
f 245/245/245 249/249/249 248/248/248
f 245/245/245 250/250/250 249/249/249
f 245/245/245 251/251/251 250/250/250
