mtllib SM_Mansion_Roof_02_LOD2@000002909DC3C800.mtl
g SM_Mansion_Roof_02_LOD2@000002909DC3C800
#Vertices 42
#Indices 84
#Section 0 Offset 0 NumIndices 84 MaterialIndex 0 MI_RoofTile_A_01
v -2.680820 4.628759 2.680677 0.000000 1.000000 0.000000 1.000000
v -1.247151 8.902185 1.119019 0.000000 1.000000 0.000000 1.000000
v -1.119110 8.905455 1.245839 0.000000 1.000000 0.000000 1.000000
v -0.073671 15.349780 0.069185 0.000000 1.000000 0.000000 1.000000
v -1.248924 8.870210 -1.124549 0.000000 1.000000 0.000000 1.000000
v -2.712745 4.539979 -2.726337 0.000000 1.000000 0.000000 1.000000
v -1.117969 8.911653 -1.245075 0.000000 1.000000 0.000000 1.000000
v -0.073671 15.349780 0.069185 0.000000 1.000000 0.000000 1.000000
v 0.067904 15.379101 -0.065706 0.000000 1.000000 0.000000 1.000000
v 1.151599 8.740956 1.276025 0.000000 1.000000 0.000000 1.000000
v 1.246731 8.879347 1.123897 0.000000 1.000000 0.000000 1.000000
v 2.829610 4.303401 2.829971 0.000000 1.000000 0.000000 1.000000
v 0.067904 15.379101 -0.065706 0.000000 1.000000 0.000000 1.000000
v -0.073671 15.349780 0.069185 0.000000 1.000000 0.000000 1.000000
v -1.117969 8.911653 -1.245075 0.000000 1.000000 0.000000 1.000000
v 1.166090 9.130320 -1.181076 0.000000 1.000000 0.000000 1.000000
v 0.067904 15.379101 -0.065706 0.000000 1.000000 0.000000 1.000000
v -2.712745 4.539979 -2.726337 0.000000 1.000000 0.000000 1.000000
v 2.706328 4.585959 -2.691975 0.000000 1.000000 0.000000 1.000000
v 4.994844 -0.000068 -5.000635 0.000000 1.000000 0.000000 1.000000
v -5.000294 -0.000054 -4.995016 0.000000 1.000000 0.000000 1.000000
v -0.073671 15.349780 0.069185 0.000000 1.000000 0.000000 1.000000
v 1.151599 8.740956 1.276025 0.000000 1.000000 0.000000 1.000000
v -1.119110 8.905455 1.245839 0.000000 1.000000 0.000000 1.000000
v -2.680820 4.628759 2.680677 0.000000 1.000000 0.000000 1.000000
v 2.829610 4.303401 2.829971 0.000000 1.000000 0.000000 1.000000
v 4.998859 0.000286 4.997881 0.000000 1.000000 0.000000 1.000000
v -4.998031 -0.000028 4.997454 0.000000 1.000000 0.000000 1.000000
v 1.166090 9.130320 -1.181076 0.000000 1.000000 0.000000 1.000000
v 1.246731 8.879347 1.123897 0.000000 1.000000 0.000000 1.000000
v 0.067904 15.379101 -0.065706 0.000000 1.000000 0.000000 1.000000
v 2.706328 4.585959 -2.691975 0.000000 1.000000 0.000000 1.000000
v 2.829610 4.303401 2.829971 0.000000 1.000000 0.000000 1.000000
v 4.998859 0.000286 4.997881 0.000000 1.000000 0.000000 1.000000
v 4.994844 -0.000068 -5.000635 0.000000 1.000000 0.000000 1.000000
v -1.247151 8.902185 1.119019 0.000000 1.000000 0.000000 1.000000
v -1.248924 8.870210 -1.124549 0.000000 1.000000 0.000000 1.000000
v -0.073671 15.349780 0.069185 0.000000 1.000000 0.000000 1.000000
v -2.680820 4.628759 2.680677 0.000000 1.000000 0.000000 1.000000
v -2.712745 4.539979 -2.726337 0.000000 1.000000 0.000000 1.000000
v -5.000294 -0.000054 -4.995016 0.000000 1.000000 0.000000 1.000000
v -4.998031 -0.000028 4.997454 0.000000 1.000000 0.000000 1.000000
vt 1.331055 0.657227
vt 1.342773 1.253418
vt 1.320312 1.253662
vt 1.332031 2.082031
vt 1.383789 1.249512
vt 1.394531 0.644287
vt 1.405273 1.254395
vt 1.381836 2.084961
vt 1.406250 2.088867
vt 1.374023 1.228638
vt 1.351562 1.246582
vt 1.363281 0.604980
vt 1.351562 2.084961
vt 1.375977 2.082031
vt 0.431885 1.940918
vt 0.717285 1.969238
vt 0.580078 2.762695
vt 0.232544 1.364258
vt 0.909668 1.371094
vt 1.195312 0.729736
vt -0.053314 0.729980
vt -1.456055 2.604492
vt -1.609375 1.764648
vt -1.325195 1.785645
vt -1.130859 1.222290
vt -1.819336 1.177612
vt -2.089844 0.575439
vt -0.840820 0.575439
vt -2.617188 1.278076
vt -2.330078 1.245483
vt -2.478516 2.070312
vt -2.806641 0.679199
vt -2.117188 0.640625
vt -1.845703 0.038574
vt -3.095703 0.038574
vt -0.572266 1.245361
vt -0.291748 1.241455
vt -0.440918 2.064453
vt -0.767578 0.682373
vt -0.091675 0.670654
vt 0.191772 0.035645
vt -1.056641 0.035645
vt1 1.331055 0.657227
vt1 1.342773 1.253418
vt1 1.320312 1.253662
vt1 1.332031 2.082031
vt1 1.383789 1.249512
vt1 1.394531 0.644287
vt1 1.405273 1.254395
vt1 1.381836 2.084961
vt1 1.406250 2.088867
vt1 1.374023 1.228638
vt1 1.351562 1.246582
vt1 1.363281 0.604980
vt1 1.351562 2.084961
vt1 1.375977 2.082031
vt1 0.431885 1.940918
vt1 0.717285 1.969238
vt1 0.580078 2.762695
vt1 0.232544 1.364258
vt1 0.909668 1.371094
vt1 1.195312 0.729736
vt1 -0.053314 0.729980
vt1 -1.456055 2.604492
vt1 -1.609375 1.764648
vt1 -1.325195 1.785645
vt1 -1.130859 1.222290
vt1 -1.819336 1.177612
vt1 -2.089844 0.575439
vt1 -0.840820 0.575439
vt1 -2.617188 1.278076
vt1 -2.330078 1.245483
vt1 -2.478516 2.070312
vt1 -2.806641 0.679199
vt1 -2.117188 0.640625
vt1 -1.845703 0.038574
vt1 -3.095703 0.038574
vt1 -0.572266 1.245361
vt1 -0.291748 1.241455
vt1 -0.440918 2.064453
vt1 -0.767578 0.682373
vt1 -0.091675 0.670654
vt1 0.191772 0.035645
vt1 -1.056641 0.035645
vn -0.598425 0.535433 0.598425
vn -0.669291 0.322835 0.669291
vn -0.677165 0.291339 0.677165
vn -0.685039 0.236221 0.685039
vn -0.669291 0.322835 -0.669291
vn -0.598425 0.535433 -0.598425
vn -0.677165 0.291338 -0.677165
vn -0.685039 0.236220 -0.685039
vn -0.685039 0.236220 -0.685039
vn 0.669291 0.314961 0.669291
vn 0.669291 0.307087 0.669291
vn 0.598425 0.543307 0.598425
vn 0.685039 0.236221 0.685039
vn 0.685039 0.236221 0.685039
vn 0.000000 0.236220 -0.968504
vn 0.000000 0.244094 -0.968504
vn 0.000000 0.173228 -0.984252
vn 0.000000 0.417323 -0.905512
vn 0.000000 0.409449 -0.913386
vn 0.000000 0.448819 -0.889764
vn 0.000000 0.448819 -0.889764
vn 0.000000 0.173228 0.984252
vn 0.000000 0.251969 0.968504
vn 0.000000 0.244095 0.968504
vn 0.000000 0.417323 0.905512
vn 0.000000 0.417323 0.905512
vn 0.000000 0.448819 0.889764
vn 0.000000 0.448819 0.889764
vn 0.968504 0.236220 -0.000000
vn 0.968504 0.251968 -0.000000
vn 0.984252 0.173228 -0.000000
vn 0.905512 0.417323 -0.000000
vn 0.905512 0.417323 -0.000000
vn 0.889764 0.448819 -0.000000
vn 0.889764 0.448819 -0.000000
vn -0.968504 0.244094 -0.000000
vn -0.968504 0.251968 -0.000000
vn -0.984252 0.173228 -0.000000
vn -0.905512 0.417323 -0.000000
vn -0.913386 0.409449 -0.000000
vn -0.889764 0.448819 -0.000000
vn -0.889764 0.448819 -0.000000
tan -0.379441 -0.848162 0.379441 1.000000
tan -0.228780 -0.948602 0.228781 1.000000
tan -0.206460 -0.959762 0.206461 1.000000
tan -0.167400 -0.970922 0.167400 1.000000
tan -0.228780 -0.948602 -0.228780 1.000000
tan -0.379441 -0.848162 -0.379441 1.000000
tan -0.206460 -0.959762 -0.206460 1.000000
tan -0.167400 -0.970922 -0.167400 1.000000
tan -0.167400 -0.970922 -0.167400 1.000000
tan 0.223200 -0.948602 0.223201 1.000000
tan 0.217620 -0.948602 0.217621 1.000000
tan 0.385021 -0.848162 0.385021 1.000000
tan 0.167400 -0.970922 0.167400 1.000000
tan 0.167400 -0.970922 0.167400 1.000000
tan 0.000000 -0.968504 -0.236220 1.000000
tan 0.000000 -0.968504 -0.244094 1.000000
tan 0.000000 -0.984252 -0.173228 1.000000
tan 0.000000 -0.905512 -0.417323 1.000000
tan 0.000000 -0.913386 -0.409449 1.000000
tan 0.000000 -0.889764 -0.448819 1.000000
tan 0.000000 -0.889764 -0.448819 1.000000
tan 0.000000 -0.984252 0.173228 1.000000
tan 0.000000 -0.968504 0.251969 1.000000
tan 0.000000 -0.968504 0.244095 1.000000
tan 0.000000 -0.905512 0.417323 1.000000
tan 0.000000 -0.905512 0.417323 1.000000
tan 0.000000 -0.889764 0.448819 1.000000
tan 0.000000 -0.889764 0.448819 1.000000
tan 0.236220 -0.968504 0.000000 1.000000
tan 0.251969 -0.968504 0.000000 1.000000
tan 0.173228 -0.984252 0.000000 1.000000
tan 0.417323 -0.905512 0.000000 1.000000
tan 0.417323 -0.905512 0.000000 1.000000
tan 0.448819 -0.889764 0.000000 1.000000
tan 0.448819 -0.889764 0.000000 1.000000
tan -0.244094 -0.968504 0.000000 1.000000
tan -0.251969 -0.968504 0.000000 1.000000
tan -0.173228 -0.984252 0.000000 1.000000
tan -0.417323 -0.905512 0.000000 1.000000
tan -0.409449 -0.913386 0.000000 1.000000
tan -0.448819 -0.889764 0.000000 1.000000
tan -0.448819 -0.889764 0.000000 1.000000
f 3/3/3 2/2/2 1/1/1
f 3/3/3 4/4/4 2/2/2
f 7/7/7 6/6/6 5/5/5
f 5/5/5 8/8/8 7/7/7
f 9/9/9 7/7/7 8/8/8
f 12/12/12 11/11/11 10/10/10
f 11/11/11 13/13/13 10/10/10
f 14/14/14 10/10/10 13/13/13
f 17/17/17 16/16/16 15/15/15
f 15/15/15 16/16/16 18/18/18
f 16/16/16 19/19/19 18/18/18
f 19/19/19 20/20/20 18/18/18
f 18/18/18 20/20/20 21/21/21
f 24/24/24 23/23/23 22/22/22
f 24/24/24 25/25/25 23/23/23
f 23/23/23 25/25/25 26/26/26
f 26/26/26 25/25/25 27/27/27
f 25/25/25 28/28/28 27/27/27
f 31/31/31 30/30/30 29/29/29
f 32/32/32 29/29/29 30/30/30
f 30/30/30 33/33/33 32/32/32
f 33/33/33 34/34/34 32/32/32
f 32/32/32 34/34/34 35/35/35
f 38/38/38 37/37/37 36/36/36
f 36/36/36 37/37/37 39/39/39
f 40/40/40 39/39/39 37/37/37
f 41/41/41 39/39/39 40/40/40
f 42/42/42 39/39/39 41/41/41
