mtllib SM_Mast_Offshoot_02_LOD3@000002909DC0B200.mtl
g SM_Mast_Offshoot_02_LOD3@000002909DC0B200
#Vertices 294
#Indices 672
#Section 0 Offset 0 NumIndices 243 MaterialIndex 0 MI_BrickTile_C_01
#Section 1 Offset 243 NumIndices 150 MaterialIndex 1 MI_ConcreteTile_A_02
#Section 2 Offset 393 NumIndices 279 MaterialIndex 2 MI_BrickTile_C_01
v 0.056902 -0.957134 5.745310 0.000000 0.000000 1.000000 1.000000
v -3.086678 -0.799968 3.751815 0.000000 0.000000 1.000000 1.000000
v 0.000010 -0.537260 5.000000 0.000000 0.000000 1.000000 1.000000
v 0.000010 -0.537260 5.000000 0.000000 0.000000 1.000000 1.000000
v 4.024969 -0.754724 3.000562 0.000000 0.000000 1.000000 1.000000
v 0.056902 -0.957134 5.745310 0.000000 0.000000 1.000000 1.000000
v 4.765178 -0.890101 -1.254553 0.000000 0.000000 1.000000 1.000000
v 5.422109 -0.539657 0.501557 0.000000 0.000000 1.000000 1.000000
v 0.016654 -0.007514 4.776968 0.000000 0.000000 1.000000 1.000000
v -3.072484 -0.447221 3.889923 0.000000 0.000000 1.000000 1.000000
v 0.090915 -1.323588 4.490070 0.000000 0.000000 1.000000 1.000000
v -4.543049 -1.002688 1.109616 0.000000 0.000000 1.000000 1.000000
v -4.782831 0.002894 0.751077 0.000000 0.000000 1.000000 1.000000
v -4.090303 -0.030644 -2.759654 0.000000 0.000000 1.000000 1.000000
v -3.974406 -1.062750 -2.412438 0.000000 0.000000 1.000000 1.000000
v -0.320736 -1.066041 -4.910313 0.000000 0.000000 1.000000 1.000000
v -0.343466 -0.006888 -4.931611 0.000000 0.000000 1.000000 1.000000
v 3.226794 -0.048239 -3.605351 0.000000 0.000000 1.000000 1.000000
v 2.772681 -1.273821 -3.452615 0.000000 0.000000 1.000000 1.000000
v 4.589882 -0.383446 -1.287098 0.000000 0.000000 1.000000 1.000000
v 3.906185 -0.076625 3.184140 0.000000 0.000000 1.000000 1.000000
v 4.190336 -0.997785 1.964743 0.000000 0.000000 1.000000 1.000000
v 2.120982 -1.178927 3.888606 0.000000 0.000000 1.000000 1.000000
v 0.090915 -1.323588 4.490070 0.000000 0.000000 1.000000 1.000000
v 0.016654 -0.007514 4.776968 0.000000 0.000000 1.000000 1.000000
v 2.646022 -0.586312 -4.131401 0.000000 0.000000 1.000000 1.000000
v -1.986795 -0.573171 -5.226209 0.000000 0.000000 1.000000 1.000000
v 1.931598 -0.887622 -5.213457 0.000000 0.000000 1.000000 1.000000
v -2.276396 -0.824099 -4.298706 0.000000 0.000000 1.000000 1.000000
v 0.026391 -11.438579 5.057772 0.000000 0.000000 1.000000 1.000000
v 0.000010 -1.399789 5.000000 0.000000 0.000000 1.000000 1.000000
v 2.441205 -11.343069 4.565080 0.000000 0.000000 1.000000 1.000000
v 2.364110 -1.402304 4.494981 0.000000 0.000000 1.000000 1.000000
v 4.836089 -11.222129 1.838715 0.000000 0.000000 1.000000 1.000000
v 5.004977 -1.349769 1.484505 0.000000 0.000000 1.000000 1.000000
v 4.755259 -11.237406 -1.545081 0.000000 0.000000 1.000000 1.000000
v 4.755259 -1.399790 -1.545083 0.000000 0.000000 1.000000 1.000000
v 3.242849 -11.306598 -4.131016 0.000000 0.000000 1.000000 1.000000
v 3.407286 -1.401141 -3.760905 0.000000 0.000000 1.000000 1.000000
v -0.082979 -11.293036 -5.296155 0.000000 0.000000 1.000000 1.000000
v -0.463136 -1.402414 -5.276930 0.000000 0.000000 1.000000 1.000000
v -4.239102 -11.197116 -3.030780 0.000000 0.000000 1.000000 1.000000
v -4.410977 -1.400835 -2.693050 0.000000 0.000000 1.000000 1.000000
v -5.026031 -11.234579 0.729422 0.000000 0.000000 1.000000 1.000000
v -4.978171 -1.398844 0.895151 0.000000 0.000000 1.000000 1.000000
v -3.047938 -11.397369 4.385488 0.000000 0.000000 1.000000 1.000000
v -3.084977 -1.105513 4.285024 0.000000 0.000000 1.000000 1.000000
v 0.026391 -11.438579 5.057772 0.000000 0.000000 1.000000 1.000000
v 0.000010 -1.399789 5.000000 0.000000 0.000000 1.000000 1.000000
v 3.479048 -12.938509 4.574136 0.000000 0.000000 1.000000 1.000000
v 0.018219 -12.856994 5.738685 0.000000 0.000000 1.000000 1.000000
v 0.026391 -11.438579 5.057772 0.000000 0.000000 1.000000 1.000000
v 2.441205 -11.343069 4.565080 0.000000 0.000000 1.000000 1.000000
v 5.445383 -12.981650 1.919203 0.000000 0.000000 1.000000 1.000000
v 4.933755 -11.436095 3.061095 0.000000 0.000000 1.000000 1.000000
v 5.441747 -12.851391 -1.387035 0.000000 0.000000 1.000000 1.000000
v 5.593190 -11.315937 -1.663707 0.000000 0.000000 1.000000 1.000000
v 2.820236 -12.806643 -5.018000 0.000000 0.000000 1.000000 1.000000
v 3.242849 -11.306598 -4.131016 0.000000 0.000000 1.000000 1.000000
v -0.233322 -12.803217 -5.700154 0.000000 0.000000 1.000000 1.000000
v -0.082979 -11.293036 -5.296155 0.000000 0.000000 1.000000 1.000000
v -5.049998 -12.943242 -3.045817 0.000000 0.000000 1.000000 1.000000
v -3.464760 -11.463839 -4.557710 0.000000 0.000000 1.000000 1.000000
v -5.841733 -12.905207 0.516591 0.000000 0.000000 1.000000 1.000000
v -5.586918 -11.545718 -1.552931 0.000000 0.000000 1.000000 1.000000
v -3.803609 -13.016633 4.365571 0.000000 0.000000 1.000000 1.000000
v -4.510149 -11.405439 3.168968 0.000000 0.000000 1.000000 1.000000
v -3.047938 -11.397369 4.385488 0.000000 0.000000 1.000000 1.000000
v 0.018219 -12.856994 5.738685 0.000000 0.000000 1.000000 1.000000
v 0.026391 -11.438579 5.057772 0.000000 0.000000 1.000000 1.000000
v 0.094909 -15.704255 3.208913 0.000000 0.000000 1.000000 1.000000
v -2.337453 -15.429705 2.071416 0.000000 0.000000 1.000000 1.000000
v -0.229668 -14.301995 3.285865 0.000000 0.000000 1.000000 1.000000
v -2.963825 -14.262150 1.094771 0.000000 0.000000 1.000000 1.000000
v -3.052026 -15.438825 -0.755827 0.000000 0.000000 1.000000 1.000000
v -2.715520 -14.263614 -1.706556 0.000000 0.000000 1.000000 1.000000
v -1.067080 -15.438925 -3.031771 0.000000 0.000000 1.000000 1.000000
v -0.496731 -14.272169 -3.121593 0.000000 0.000000 1.000000 1.000000
v 2.430530 -15.493240 -2.360804 0.000000 0.000000 1.000000 1.000000
v 2.338209 -14.254767 -2.242824 0.000000 0.000000 1.000000 1.000000
v 2.996576 -14.309958 1.624773 0.000000 0.000000 1.000000 1.000000
v 2.827333 -15.431437 1.463046 0.000000 0.000000 1.000000 1.000000
v 0.094909 -15.704255 3.208913 0.000000 0.000000 1.000000 1.000000
v -0.229668 -14.301995 3.285865 0.000000 0.000000 1.000000 1.000000
v 0.022266 -14.257139 4.407267 0.000000 0.000000 1.000000 1.000000
v -0.088812 -12.963734 4.464068 0.000000 0.000000 1.000000 1.000000
v 2.910034 -12.970919 3.445753 0.000000 0.000000 1.000000 1.000000
v 2.992647 -14.262360 3.120492 0.000000 0.000000 1.000000 1.000000
v 4.476304 -14.279502 0.036733 0.000000 0.000000 1.000000 1.000000
v 4.537272 -12.946321 -0.729941 0.000000 0.000000 1.000000 1.000000
v 3.116575 -14.205257 -3.100018 0.000000 0.000000 1.000000 1.000000
v 1.977621 -12.947863 -3.894396 0.000000 0.000000 1.000000 1.000000
v -0.666196 -14.318038 -4.588326 0.000000 0.000000 1.000000 1.000000
v -2.305219 -12.964109 -3.951315 0.000000 0.000000 1.000000 1.000000
v -4.153546 -14.242475 -1.395411 0.000000 0.000000 1.000000 1.000000
v -4.490403 -12.966963 0.289432 0.000000 0.000000 1.000000 1.000000
v -3.567392 -14.173809 2.953113 0.000000 0.000000 1.000000 1.000000
v -3.083170 -12.957954 3.126267 0.000000 0.000000 1.000000 1.000000
v -0.088812 -12.963734 4.464068 0.000000 0.000000 1.000000 1.000000
v 0.022266 -14.257139 4.407267 0.000000 0.000000 1.000000 1.000000
v -5.586918 -11.545718 -1.552931 0.000000 0.000000 1.000000 1.000000
v -5.849814 -11.139355 1.739300 0.000000 0.000000 1.000000 1.000000
v -4.510149 -11.405439 3.168968 0.000000 0.000000 1.000000 1.000000
v 4.755259 -11.237406 -1.545081 0.000000 0.000000 1.000000 1.000000
v 3.242849 -11.306598 -4.131016 0.000000 0.000000 1.000000 1.000000
v 5.593190 -11.315937 -1.663707 0.000000 0.000000 1.000000 1.000000
v 4.836089 -11.222129 1.838715 0.000000 0.000000 1.000000 1.000000
v 5.877707 -11.249059 0.898514 0.000000 0.000000 1.000000 1.000000
v 4.933755 -11.436095 3.061095 0.000000 0.000000 1.000000 1.000000
v 2.441205 -11.343069 4.565080 0.000000 0.000000 1.000000 1.000000
v -0.088812 -12.963734 4.464068 0.000000 0.000000 1.000000 1.000000
v 0.018219 -12.856994 5.738685 0.000000 0.000000 1.000000 1.000000
v 2.910034 -12.970919 3.445753 0.000000 0.000000 1.000000 1.000000
v 3.479048 -12.938509 4.574136 0.000000 0.000000 1.000000 1.000000
v 4.537272 -12.946321 -0.729941 0.000000 0.000000 1.000000 1.000000
v 5.445383 -12.981650 1.919203 0.000000 0.000000 1.000000 1.000000
v 4.552042 -12.953055 -3.233460 0.000000 0.000000 1.000000 1.000000
v 1.977621 -12.947863 -3.894396 0.000000 0.000000 1.000000 1.000000
v -0.233322 -12.803217 -5.700154 0.000000 0.000000 1.000000 1.000000
v -2.305219 -12.964109 -3.951315 0.000000 0.000000 1.000000 1.000000
v -3.060357 -13.043565 -4.933982 0.000000 0.000000 1.000000 1.000000
v -5.049998 -12.943242 -3.045817 0.000000 0.000000 1.000000 1.000000
v -4.490403 -12.966963 0.289432 0.000000 0.000000 1.000000 1.000000
v -5.841733 -12.905207 0.516591 0.000000 0.000000 1.000000 1.000000
v -3.083170 -12.957954 3.126267 0.000000 0.000000 1.000000 1.000000
v -3.803609 -13.016633 4.365571 0.000000 0.000000 1.000000 1.000000
v 0.018219 -12.856994 5.738685 0.000000 0.000000 1.000000 1.000000
v -0.088812 -12.963734 4.464068 0.000000 0.000000 1.000000 1.000000
v 0.022266 -14.257139 4.407267 0.000000 0.000000 1.000000 1.000000
v -0.229668 -14.301995 3.285865 0.000000 0.000000 1.000000 1.000000
v -3.567392 -14.173809 2.953113 0.000000 0.000000 1.000000 1.000000
v -2.963825 -14.262150 1.094771 0.000000 0.000000 1.000000 1.000000
v -4.153546 -14.242475 -1.395411 0.000000 0.000000 1.000000 1.000000
v -2.715520 -14.263614 -1.706556 0.000000 0.000000 1.000000 1.000000
v -0.666196 -14.318038 -4.588326 0.000000 0.000000 1.000000 1.000000
v -0.496731 -14.272169 -3.121593 0.000000 0.000000 1.000000 1.000000
v 2.338209 -14.254767 -2.242824 0.000000 0.000000 1.000000 1.000000
v 3.116575 -14.205257 -3.100018 0.000000 0.000000 1.000000 1.000000
v 4.476304 -14.279502 0.036733 0.000000 0.000000 1.000000 1.000000
v 2.996576 -14.309958 1.624773 0.000000 0.000000 1.000000 1.000000
v 2.992647 -14.262360 3.120492 0.000000 0.000000 1.000000 1.000000
v -0.229668 -14.301995 3.285865 0.000000 0.000000 1.000000 1.000000
v 0.022266 -14.257139 4.407267 0.000000 0.000000 1.000000 1.000000
v -5.849814 -11.139355 1.739300 0.000000 0.000000 1.000000 1.000000
v -5.026031 -11.234579 0.729422 0.000000 0.000000 1.000000 1.000000
v -3.047938 -11.397369 4.385488 0.000000 0.000000 1.000000 1.000000
v -4.239102 -11.197116 -3.030780 0.000000 0.000000 1.000000 1.000000
v -5.586918 -11.545718 -1.552931 0.000000 0.000000 1.000000 1.000000
v -3.464760 -11.463839 -4.557710 0.000000 0.000000 1.000000 1.000000
v -0.082979 -11.293036 -5.296155 0.000000 0.000000 1.000000 1.000000
v -2.337453 -15.429705 2.071416 0.000000 0.000000 1.000000 1.000000
v 0.094909 -15.704255 3.208913 0.000000 0.000000 1.000000 1.000000
v -3.052026 -15.438825 -0.755827 0.000000 0.000000 1.000000 1.000000
v -1.067080 -15.438925 -3.031771 0.000000 0.000000 1.000000 1.000000
v 2.430530 -15.493240 -2.360804 0.000000 0.000000 1.000000 1.000000
v 2.827333 -15.431437 1.463046 0.000000 0.000000 1.000000 1.000000
v 4.235024 -1.270796 -0.061080 0.000000 0.000000 1.000000 1.000000
v 2.120982 -1.178927 3.888606 0.000000 0.000000 1.000000 1.000000
v 0.090915 -1.323588 4.490070 0.000000 0.000000 1.000000 1.000000
v 2.772681 -1.273821 -3.452615 0.000000 0.000000 1.000000 1.000000
v 0.162234 -1.295585 -4.191759 0.000000 0.000000 1.000000 1.000000
v -2.853554 -1.331776 -2.676383 0.000000 0.000000 1.000000 1.000000
v -4.036220 -1.333046 0.274745 0.000000 0.000000 1.000000 1.000000
v -2.136348 -1.133604 3.545114 0.000000 0.000000 1.000000 1.000000
v -3.047938 -11.397369 4.385488 0.000000 0.000000 1.000000 1.000000
v -4.510149 -11.405439 3.168968 0.000000 0.000000 1.000000 1.000000
v -5.849814 -11.139355 1.739300 0.000000 0.000000 1.000000 1.000000
v 5.877707 -11.249059 0.898514 0.000000 0.000000 1.000000 1.000000
v 5.593190 -11.315937 -1.663707 0.000000 0.000000 1.000000 1.000000
v 4.933755 -11.436095 3.061095 0.000000 0.000000 1.000000 1.000000
v 4.190336 -0.997785 1.964743 0.000000 0.000000 1.000000 1.000000
v 2.120982 -1.178927 3.888606 0.000000 0.000000 1.000000 1.000000
v 4.235024 -1.270796 -0.061080 0.000000 0.000000 1.000000 1.000000
v -0.233322 -12.803217 -5.700154 0.000000 0.000000 1.000000 1.000000
v -5.049998 -12.943242 -3.045817 0.000000 0.000000 1.000000 1.000000
v -3.060357 -13.043565 -4.933982 0.000000 0.000000 1.000000 1.000000
v 2.772681 -1.273821 -3.452615 0.000000 0.000000 1.000000 1.000000
v 0.162234 -1.295585 -4.191759 0.000000 0.000000 1.000000 1.000000
v -0.320736 -1.066041 -4.910313 0.000000 0.000000 1.000000 1.000000
v 4.589882 -0.383446 -1.287098 0.000000 0.000000 1.000000 1.000000
v 4.235024 -1.270796 -0.061080 0.000000 0.000000 1.000000 1.000000
v 4.190336 -0.997785 1.964743 0.000000 0.000000 1.000000 1.000000
v -4.642701 -0.513249 -2.497803 0.000000 0.000000 1.000000 1.000000
v -2.276396 -0.824099 -4.298706 0.000000 0.000000 1.000000 1.000000
v -1.986795 -0.573171 -5.226209 0.000000 0.000000 1.000000 1.000000
v 2.646022 -0.586312 -4.131401 0.000000 0.000000 1.000000 1.000000
v 0.872393 -0.545278 -5.699219 0.000000 0.000000 1.000000 1.000000
v 4.750594 -0.428365 -3.603544 0.000000 0.000000 1.000000 1.000000
v 4.765178 -0.890101 -1.254553 0.000000 0.000000 1.000000 1.000000
v 5.422109 -0.539657 0.501557 0.000000 0.000000 1.000000 1.000000
v 4.024969 -0.754724 3.000562 0.000000 0.000000 1.000000 1.000000
v 4.209503 -0.540000 4.125935 0.000000 0.000000 1.000000 1.000000
v 0.000010 -0.537260 5.000000 0.000000 0.000000 1.000000 1.000000
v -0.002811 -0.294464 6.004064 0.000000 0.000000 1.000000 1.000000
v 0.000010 -1.399789 5.000000 0.000000 0.000000 1.000000 1.000000
v -3.084977 -1.105513 4.285024 0.000000 0.000000 1.000000 1.000000
v 0.056902 -0.957134 5.745310 0.000000 0.000000 1.000000 1.000000
v -5.238671 -0.927087 1.821989 0.000000 0.000000 1.000000 1.000000
v -4.978171 -1.398844 0.895151 0.000000 0.000000 1.000000 1.000000
v -5.806689 -1.121568 -1.777304 0.000000 0.000000 1.000000 1.000000
v -4.410977 -1.400835 -2.693050 0.000000 0.000000 1.000000 1.000000
v -2.393223 -1.384905 -5.242524 0.000000 0.000000 1.000000 1.000000
v -0.463136 -1.402414 -5.276930 0.000000 0.000000 1.000000 1.000000
v 2.095854 -1.431225 -5.570998 0.000000 0.000000 1.000000 1.000000
v 3.407286 -1.401141 -3.760905 0.000000 0.000000 1.000000 1.000000
v 5.247544 -1.398793 -2.371392 0.000000 0.000000 1.000000 1.000000
v 4.755259 -1.399790 -1.545083 0.000000 0.000000 1.000000 1.000000
v 5.004977 -1.349769 1.484505 0.000000 0.000000 1.000000 1.000000
v 3.720845 -1.387724 4.595253 0.000000 0.000000 1.000000 1.000000
v 2.364110 -1.402304 4.494981 0.000000 0.000000 1.000000 1.000000
v 0.000010 -1.399789 5.000000 0.000000 0.000000 1.000000 1.000000
v 0.056902 -0.957134 5.745310 0.000000 0.000000 1.000000 1.000000
v 0.090915 -1.323588 4.490070 0.000000 0.000000 1.000000 1.000000
v -3.072484 -0.447221 3.889923 0.000000 0.000000 1.000000 1.000000
v -2.136348 -1.133604 3.545114 0.000000 0.000000 1.000000 1.000000
v -4.543049 -1.002688 1.109616 0.000000 0.000000 1.000000 1.000000
v 0.056902 -0.957134 5.745310 0.000000 0.000000 1.000000 1.000000
v -3.084977 -1.105513 4.285024 0.000000 0.000000 1.000000 1.000000
v -3.086678 -0.799968 3.751815 0.000000 0.000000 1.000000 1.000000
v -5.238671 -0.927087 1.821989 0.000000 0.000000 1.000000 1.000000
v -5.806689 -1.121568 -1.777304 0.000000 0.000000 1.000000 1.000000
v -4.642701 -0.513249 -2.497803 0.000000 0.000000 1.000000 1.000000
v -2.630867 -0.932929 -5.462398 0.000000 0.000000 1.000000 1.000000
v -2.276396 -0.824099 -4.298706 0.000000 0.000000 1.000000 1.000000
v 1.931598 -0.887622 -5.213457 0.000000 0.000000 1.000000 1.000000
v 4.765178 -0.890101 -1.254553 0.000000 0.000000 1.000000 1.000000
v 2.646022 -0.586312 -4.131401 0.000000 0.000000 1.000000 1.000000
v 5.053685 -0.891689 -2.766159 0.000000 0.000000 1.000000 1.000000
v 5.718689 -0.942541 1.674103 0.000000 0.000000 1.000000 1.000000
v 4.024969 -0.754724 3.000562 0.000000 0.000000 1.000000 1.000000
v 2.819190 -0.892246 5.016095 0.000000 0.000000 1.000000 1.000000
v 0.056902 -0.957134 5.745310 0.000000 0.000000 1.000000 1.000000
v -2.136348 -1.133604 3.545114 0.000000 0.000000 1.000000 1.000000
v -4.543049 -1.002688 1.109616 0.000000 0.000000 1.000000 1.000000
v -4.036220 -1.333046 0.274745 0.000000 0.000000 1.000000 1.000000
v -3.974406 -1.062750 -2.412438 0.000000 0.000000 1.000000 1.000000
v -2.853554 -1.331776 -2.676383 0.000000 0.000000 1.000000 1.000000
v -0.320736 -1.066041 -4.910313 0.000000 0.000000 1.000000 1.000000
v 0.162234 -1.295585 -4.191759 0.000000 0.000000 1.000000 1.000000
v -0.002811 -0.294464 6.004064 0.000000 0.000000 1.000000 1.000000
v -3.670363 -0.478565 4.608376 0.000000 0.000000 1.000000 1.000000
v -4.486706 0.112629 3.844823 0.000000 0.000000 1.000000 1.000000
v -5.238671 -0.927087 1.821989 0.000000 0.000000 1.000000 1.000000
v -5.773829 -0.048741 -1.255824 0.000000 0.000000 1.000000 1.000000
v -4.642701 -0.513249 -2.497803 0.000000 0.000000 1.000000 1.000000
v -2.553499 -0.072025 -5.477741 0.000000 0.000000 1.000000 1.000000
v -1.986795 -0.573171 -5.226209 0.000000 0.000000 1.000000 1.000000
v 0.872393 -0.545278 -5.699219 0.000000 0.000000 1.000000 1.000000
v 2.465296 -0.066270 -5.290652 0.000000 0.000000 1.000000 1.000000
v 4.750594 -0.428365 -3.603544 0.000000 0.000000 1.000000 1.000000
v 5.681990 -0.014062 -1.716745 0.000000 0.000000 1.000000 1.000000
v 5.422109 -0.539657 0.501557 0.000000 0.000000 1.000000 1.000000
v 4.585547 0.072461 3.803819 0.000000 0.000000 1.000000 1.000000
v 4.209503 -0.540000 4.125935 0.000000 0.000000 1.000000 1.000000
v -0.002811 -0.294464 6.004064 0.000000 0.000000 1.000000 1.000000
v -5.238671 -0.927087 1.821989 0.000000 0.000000 1.000000 1.000000
v -3.670363 -0.478565 4.608376 0.000000 0.000000 1.000000 1.000000
v -3.086678 -0.799968 3.751815 0.000000 0.000000 1.000000 1.000000
v 0.000010 -0.537260 5.000000 0.000000 0.000000 1.000000 1.000000
v -0.002811 -0.294464 6.004064 0.000000 0.000000 1.000000 1.000000
v -2.630867 -0.932929 -5.462398 0.000000 0.000000 1.000000 1.000000
v -5.806689 -1.121568 -1.777304 0.000000 0.000000 1.000000 1.000000
v -2.393223 -1.384905 -5.242524 0.000000 0.000000 1.000000 1.000000
v 2.095854 -1.431225 -5.570998 0.000000 0.000000 1.000000 1.000000
v 1.931598 -0.887622 -5.213457 0.000000 0.000000 1.000000 1.000000
v 5.053685 -0.891689 -2.766159 0.000000 0.000000 1.000000 1.000000
v 5.247544 -1.398793 -2.371392 0.000000 0.000000 1.000000 1.000000
v 5.718689 -0.942541 1.674103 0.000000 0.000000 1.000000 1.000000
v 5.004977 -1.349769 1.484505 0.000000 0.000000 1.000000 1.000000
v 3.720845 -1.387724 4.595253 0.000000 0.000000 1.000000 1.000000
v 2.819190 -0.892246 5.016095 0.000000 0.000000 1.000000 1.000000
v 0.056902 -0.957134 5.745310 0.000000 0.000000 1.000000 1.000000
v 5.441747 -12.851391 -1.387035 0.000000 0.000000 1.000000 1.000000
v 4.552042 -12.953055 -3.233460 0.000000 0.000000 1.000000 1.000000
v 5.445383 -12.981650 1.919203 0.000000 0.000000 1.000000 1.000000
v 2.820236 -12.806643 -5.018000 0.000000 0.000000 1.000000 1.000000
v -0.233322 -12.803217 -5.700154 0.000000 0.000000 1.000000 1.000000
v 0.016654 -0.007514 4.776968 0.000000 0.000000 1.000000 1.000000
v 4.585547 0.072461 3.803819 0.000000 0.000000 1.000000 1.000000
v -0.002811 -0.294464 6.004064 0.000000 0.000000 1.000000 1.000000
v 3.906185 -0.076625 3.184140 0.000000 0.000000 1.000000 1.000000
v 4.589882 -0.383446 -1.287098 0.000000 0.000000 1.000000 1.000000
v 5.681990 -0.014062 -1.716745 0.000000 0.000000 1.000000 1.000000
v 2.465296 -0.066270 -5.290652 0.000000 0.000000 1.000000 1.000000
v 3.226794 -0.048239 -3.605351 0.000000 0.000000 1.000000 1.000000
v -0.343466 -0.006888 -4.931611 0.000000 0.000000 1.000000 1.000000
v -2.553499 -0.072025 -5.477741 0.000000 0.000000 1.000000 1.000000
v -4.090303 -0.030644 -2.759654 0.000000 0.000000 1.000000 1.000000
v -5.773829 -0.048741 -1.255824 0.000000 0.000000 1.000000 1.000000
v -4.782831 0.002894 0.751077 0.000000 0.000000 1.000000 1.000000
v -4.486706 0.112629 3.844823 0.000000 0.000000 1.000000 1.000000
v -3.072484 -0.447221 3.889923 0.000000 0.000000 1.000000 1.000000
v 0.016654 -0.007514 4.776968 0.000000 0.000000 1.000000 1.000000
v -0.002811 -0.294464 6.004064 0.000000 0.000000 1.000000 1.000000
vt 14.000000 5.203125
vt 13.539062 5.156250
vt 13.968750 5.128906
vt 10.054688 5.128906
vt 10.632812 5.160156
vt 10.039062 5.195312
vt 11.195312 5.175781
vt 10.984375 5.121094
vt 11.406250 4.757812
vt 11.015625 4.701172
vt 11.406250 4.593750
vt 10.617188 4.634766
vt 10.570312 4.757812
vt 10.125000 4.755859
vt 10.156250 4.636719
vt 9.585938 4.628906
vt 9.585938 4.755859
vt 9.117188 4.753906
vt 9.148438 4.597656
vt 8.781250 4.703125
vt 8.218750 4.751953
vt 8.359375 4.636719
vt 7.996094 4.611328
vt 7.722656 4.593750
vt 7.695312 4.757812
vt 11.656250 5.132812
vt 12.257812 5.113281
vt 11.773438 5.195312
vt 12.320312 5.167969
vt 10.062500 6.496094
vt 10.062500 5.242188
vt 10.367188 6.484375
vt 10.359375 5.242188
vt 10.812500 6.468750
vt 10.859375 5.238281
vt 11.234375 6.472656
vt 11.234375 5.242188
vt 11.601562 6.480469
vt 11.554688 5.242188
vt 12.023438 6.480469
vt 12.062500 5.242188
vt 12.609375 6.464844
vt 12.648438 5.242188
vt 13.085938 6.472656
vt 13.101562 5.242188
vt 13.593750 6.492188
vt 13.578125 5.207031
vt 13.976562 6.496094
vt 13.968750 5.242188
vt 10.257812 4.099609
vt 9.820312 4.101562
vt 9.843750 3.916016
vt 10.148438 3.919922
vt 10.648438 4.105469
vt 10.492188 3.927734
vt 11.031250 4.091797
vt 11.054688 3.910156
vt 11.562500 4.093750
vt 11.468750 3.917969
vt 11.937500 4.087891
vt 11.921875 3.927734
vt 12.593750 4.103516
vt 12.328125 3.925781
vt 13.007812 4.093750
vt 12.750000 3.927734
vt 13.507812 4.093750
vt 13.343750 3.914062
vt 13.585938 3.906250
vt 13.984375 4.103516
vt 13.976562 3.912109
vt 8.687500 5.640625
vt 8.953125 5.660156
vt 8.781250 5.738281
vt 9.015625 5.742188
vt 9.125000 5.660156
vt 9.187500 5.742188
vt 9.304688 5.656250
vt 9.335938 5.742188
vt 9.468750 5.656250
vt 9.468750 5.742188
vt 9.710938 5.738281
vt 9.734375 5.656250
vt 10.023438 5.640625
vt 10.101562 5.738281
vt 10.976562 6.664062
vt 10.992188 6.816406
vt 10.640625 6.816406
vt 10.609375 6.667969
vt 10.210938 6.664062
vt 10.125000 6.820312
vt 9.812500 6.671875
vt 9.656250 6.820312
vt 9.351562 6.664062
vt 9.164062 6.828125
vt 8.804688 6.667969
vt 8.609375 6.820312
vt 8.296875 6.671875
vt 8.250000 6.820312
vt 7.878906 6.820312
vt 7.867188 6.664062
vt -3.619141 2.476562
vt -3.226562 2.433594
vt -3.011719 2.507812
vt -5.378906 2.293945
vt -4.976562 2.321289
vt -5.398438 2.391602
vt -5.835938 2.287109
vt -5.695312 2.399414
vt -5.972656 2.389648
vt -6.332031 2.306641
vt -5.937500 4.667969
vt -5.949219 4.552734
vt -5.472656 4.677734
vt -5.527344 4.533203
vt -4.792969 4.685547
vt -5.148438 4.544922
vt -4.500000 4.560547
vt -4.183594 4.679688
vt -3.826172 4.537109
vt -3.537109 4.683594
vt -3.498047 4.507812
vt -3.193359 4.503906
vt -2.808594 4.679688
vt -2.800781 4.515625
vt -2.316406 4.681641
vt -2.275391 4.513672
vt -1.781250 4.560547
vt -1.823242 4.681641
vt -6.542969 4.150391
vt -6.472656 3.953125
vt -6.101562 4.158203
vt -5.925781 3.968750
vt -5.589844 4.121094
vt -5.472656 3.972656
vt -5.062500 4.140625
vt -5.054688 3.974609
vt -4.582031 3.966797
vt -4.574219 4.144531
vt -4.183594 4.138672
vt -3.962891 3.982422
vt -3.802734 4.099609
vt -3.386719 3.990234
vt -3.425781 4.150391
vt -3.238281 2.402344
vt -3.328125 2.291016
vt -2.769531 2.311523
vt -3.851562 2.278320
vt -3.619141 2.388672
vt -4.066406 2.361328
vt -4.488281 2.315430
vt -5.410156 3.115234
vt -4.777344 2.831055
vt -5.273438 3.123047
vt -5.089844 3.136719
vt -4.949219 3.136719
vt -4.683594 3.130859
vt -1.195312 4.085938
vt -1.641602 3.746094
vt -1.675781 3.484375
vt -0.748047 3.970703
vt -0.605957 3.662109
vt -0.733887 3.261719
vt -1.075195 3.056641
vt -1.516602 3.226562
vt -6.781250 0.241211
vt -7.015625 0.250000
vt -7.242188 0.227539
vt -9.703125 0.224121
vt -9.406250 0.266113
vt -9.984375 0.247559
vt -4.054688 0.763306
vt -4.375000 0.721191
vt -3.833984 0.701904
vt 0.459473 0.056641
vt 1.106445 0.065918
vt 0.785645 0.083984
vt -7.117188 0.249023
vt -6.781250 0.226074
vt -6.707031 0.313477
vt -7.453125 0.345703
vt -7.593750 0.227051
vt -7.832031 0.288086
vt -8.335938 -0.014648
vt -7.957031 -0.021484
vt -7.886719 -0.012695
vt -7.246094 -0.020508
vt -7.535156 -0.007812
vt -7.027344 -0.004883
vt -6.761719 -0.019531
vt -6.527344 -0.012695
vt -6.183594 -0.020508
vt -6.078125 -0.009766
vt -5.546875 -0.017578
vt -5.546875 -0.001953
vt -13.992188 0.064941
vt -13.570312 0.077148
vt -13.992188 0.116211
vt -13.164062 0.102051
vt -13.054688 0.068848
vt -12.734375 0.124512
vt -12.554688 0.065430
vt -12.156250 0.110840
vt -11.937500 0.075684
vt -11.632812 0.114746
vt -11.375000 0.063965
vt -11.101562 0.112793
vt -11.031250 0.064941
vt -10.617188 0.066895
vt -10.218750 0.113281
vt -10.085938 0.065918
vt -9.757812 0.064941
vt -9.765625 0.118652
vt -5.042969 0.258789
vt -5.421875 0.348633
vt -5.339844 0.217773
vt -5.769531 0.292969
vt -14.031250 0.255371
vt -13.562500 0.272949
vt -13.515625 0.332031
vt -13.164062 0.261230
vt -12.726562 0.197754
vt -12.609375 0.288086
vt -12.179688 0.217773
vt -12.195312 0.333496
vt -11.625000 0.265625
vt -10.984375 0.347656
vt -11.500000 0.331543
vt -11.156250 0.230957
vt -10.617188 0.207031
vt -10.382812 0.340332
vt -10.101562 0.232422
vt -9.742188 0.227051
vt -1.821289 0.715332
vt -2.212891 0.758179
vt -2.279297 0.695557
vt -2.589844 0.748291
vt -2.685547 0.692627
vt -3.076172 0.750488
vt -3.097656 0.706055
vt -9.726562 0.063965
vt -9.281250 0.003906
vt -9.156250 0.119629
vt -8.898438 -0.084961
vt -8.539062 0.138184
vt -8.343750 -0.037109
vt -7.925781 0.143066
vt -7.878906 -0.017578
vt -7.535156 -0.008789
vt -7.343750 0.124512
vt -7.023438 -0.015625
vt -6.789062 0.129395
vt -6.527344 -0.013672
vt -6.128906 0.121094
vt -6.074219 -0.010742
vt -5.542969 0.056641
vt -8.898438 -0.009766
vt -9.265625 -0.007812
vt -9.265625 -0.021484
vt -9.718750 -0.017578
vt -9.718750 -0.001953
vt -12.179688 0.312988
vt -12.734375 0.200684
vt -12.164062 0.117188
vt -11.632812 0.097168
vt -11.632812 0.322754
vt -11.156250 0.314453
vt -11.101562 0.111816
vt -10.625000 0.297852
vt -10.632812 0.103027
vt -10.218750 0.110840
vt -10.101562 0.302246
vt -9.765625 0.274414
vt -0.435791 0.179688
vt -0.190186 0.220703
vt -0.829102 0.209473
vt 0.086426 0.186035
vt 0.448730 0.187500
vt -5.554688 0.243164
vt -6.128906 0.161133
vt -5.546875 0.097656
vt -6.136719 0.241211
vt -6.761719 0.275879
vt -6.789062 0.141113
vt -7.347656 0.134766
vt -7.156250 0.241211
vt -7.667969 0.238770
vt -7.933594 0.120605
vt -8.281250 0.250488
vt -8.531250 0.124512
vt -8.789062 0.238770
vt -9.156250 0.164062
vt -9.265625 0.241699
vt -9.718750 0.243164
vt -9.718750 0.097656
vt1 14.000000 5.203125
vt1 13.539062 5.156250
vt1 13.968750 5.128906
vt1 10.054688 5.128906
vt1 10.632812 5.160156
vt1 10.039062 5.195312
vt1 11.195312 5.175781
vt1 10.984375 5.121094
vt1 11.406250 4.757812
vt1 11.015625 4.701172
vt1 11.406250 4.593750
vt1 10.617188 4.634766
vt1 10.570312 4.757812
vt1 10.125000 4.755859
vt1 10.156250 4.636719
vt1 9.585938 4.628906
vt1 9.585938 4.755859
vt1 9.117188 4.753906
vt1 9.148438 4.597656
vt1 8.781250 4.703125
vt1 8.218750 4.751953
vt1 8.359375 4.636719
vt1 7.996094 4.611328
vt1 7.722656 4.593750
vt1 7.695312 4.757812
vt1 11.656250 5.132812
vt1 12.257812 5.113281
vt1 11.773438 5.195312
vt1 12.320312 5.167969
vt1 10.062500 6.496094
vt1 10.062500 5.242188
vt1 10.367188 6.484375
vt1 10.359375 5.242188
vt1 10.812500 6.468750
vt1 10.859375 5.238281
vt1 11.234375 6.472656
vt1 11.234375 5.242188
vt1 11.601562 6.480469
vt1 11.554688 5.242188
vt1 12.023438 6.480469
vt1 12.062500 5.242188
vt1 12.609375 6.464844
vt1 12.648438 5.242188
vt1 13.085938 6.472656
vt1 13.101562 5.242188
vt1 13.593750 6.492188
vt1 13.578125 5.207031
vt1 13.976562 6.496094
vt1 13.968750 5.242188
vt1 10.257812 4.099609
vt1 9.820312 4.101562
vt1 9.843750 3.916016
vt1 10.148438 3.919922
vt1 10.648438 4.105469
vt1 10.492188 3.927734
vt1 11.031250 4.091797
vt1 11.054688 3.910156
vt1 11.562500 4.093750
vt1 11.468750 3.917969
vt1 11.937500 4.087891
vt1 11.921875 3.927734
vt1 12.593750 4.103516
vt1 12.328125 3.925781
vt1 13.007812 4.093750
vt1 12.750000 3.927734
vt1 13.507812 4.093750
vt1 13.343750 3.914062
vt1 13.585938 3.906250
vt1 13.984375 4.103516
vt1 13.976562 3.912109
vt1 8.687500 5.640625
vt1 8.953125 5.660156
vt1 8.781250 5.738281
vt1 9.015625 5.742188
vt1 9.125000 5.660156
vt1 9.187500 5.742188
vt1 9.304688 5.656250
vt1 9.335938 5.742188
vt1 9.468750 5.656250
vt1 9.468750 5.742188
vt1 9.710938 5.738281
vt1 9.734375 5.656250
vt1 10.023438 5.640625
vt1 10.101562 5.738281
vt1 10.976562 6.664062
vt1 10.992188 6.816406
vt1 10.640625 6.816406
vt1 10.609375 6.667969
vt1 10.210938 6.664062
vt1 10.125000 6.820312
vt1 9.812500 6.671875
vt1 9.656250 6.820312
vt1 9.351562 6.664062
vt1 9.164062 6.828125
vt1 8.804688 6.667969
vt1 8.609375 6.820312
vt1 8.296875 6.671875
vt1 8.250000 6.820312
vt1 7.878906 6.820312
vt1 7.867188 6.664062
vt1 -3.619141 2.476562
vt1 -3.226562 2.433594
vt1 -3.011719 2.507812
vt1 -5.378906 2.293945
vt1 -4.976562 2.321289
vt1 -5.398438 2.391602
vt1 -5.835938 2.287109
vt1 -5.695312 2.399414
vt1 -5.972656 2.389648
vt1 -6.332031 2.306641
vt1 -5.937500 4.667969
vt1 -5.949219 4.552734
vt1 -5.472656 4.677734
vt1 -5.527344 4.533203
vt1 -4.792969 4.685547
vt1 -5.148438 4.544922
vt1 -4.500000 4.560547
vt1 -4.183594 4.679688
vt1 -3.826172 4.537109
vt1 -3.537109 4.683594
vt1 -3.498047 4.507812
vt1 -3.193359 4.503906
vt1 -2.808594 4.679688
vt1 -2.800781 4.515625
vt1 -2.316406 4.681641
vt1 -2.275391 4.513672
vt1 -1.781250 4.560547
vt1 -1.823242 4.681641
vt1 -6.542969 4.150391
vt1 -6.472656 3.953125
vt1 -6.101562 4.158203
vt1 -5.925781 3.968750
vt1 -5.589844 4.121094
vt1 -5.472656 3.972656
vt1 -5.062500 4.140625
vt1 -5.054688 3.974609
vt1 -4.582031 3.966797
vt1 -4.574219 4.144531
vt1 -4.183594 4.138672
vt1 -3.962891 3.982422
vt1 -3.802734 4.099609
vt1 -3.386719 3.990234
vt1 -3.425781 4.150391
vt1 -3.238281 2.402344
vt1 -3.328125 2.291016
vt1 -2.769531 2.311523
vt1 -3.851562 2.278320
vt1 -3.619141 2.388672
vt1 -4.066406 2.361328
vt1 -4.488281 2.315430
vt1 -5.410156 3.115234
vt1 -4.777344 2.831055
vt1 -5.273438 3.123047
vt1 -5.089844 3.136719
vt1 -4.949219 3.136719
vt1 -4.683594 3.130859
vt1 -1.195312 4.085938
vt1 -1.641602 3.746094
vt1 -1.675781 3.484375
vt1 -0.748047 3.970703
vt1 -0.605957 3.662109
vt1 -0.733887 3.261719
vt1 -1.075195 3.056641
vt1 -1.516602 3.226562
vt1 -6.781250 0.241211
vt1 -7.015625 0.250000
vt1 -7.242188 0.227539
vt1 -9.703125 0.224121
vt1 -9.406250 0.266113
vt1 -9.984375 0.247559
vt1 -4.054688 0.763306
vt1 -4.375000 0.721191
vt1 -3.833984 0.701904
vt1 0.459473 0.056641
vt1 1.106445 0.065918
vt1 0.785645 0.083984
vt1 -7.117188 0.249023
vt1 -6.781250 0.226074
vt1 -6.707031 0.313477
vt1 -7.453125 0.345703
vt1 -7.593750 0.227051
vt1 -7.832031 0.288086
vt1 -8.335938 -0.014648
vt1 -7.957031 -0.021484
vt1 -7.886719 -0.012695
vt1 -7.246094 -0.020508
vt1 -7.535156 -0.007812
vt1 -7.027344 -0.004883
vt1 -6.761719 -0.019531
vt1 -6.527344 -0.012695
vt1 -6.183594 -0.020508
vt1 -6.078125 -0.009766
vt1 -5.546875 -0.017578
vt1 -5.546875 -0.001953
vt1 -13.992188 0.064941
vt1 -13.570312 0.077148
vt1 -13.992188 0.116211
vt1 -13.164062 0.102051
vt1 -13.054688 0.068848
vt1 -12.734375 0.124512
vt1 -12.554688 0.065430
vt1 -12.156250 0.110840
vt1 -11.937500 0.075684
vt1 -11.632812 0.114746
vt1 -11.375000 0.063965
vt1 -11.101562 0.112793
vt1 -11.031250 0.064941
vt1 -10.617188 0.066895
vt1 -10.218750 0.113281
vt1 -10.085938 0.065918
vt1 -9.757812 0.064941
vt1 -9.765625 0.118652
vt1 -5.042969 0.258789
vt1 -5.421875 0.348633
vt1 -5.339844 0.217773
vt1 -5.769531 0.292969
vt1 -14.031250 0.255371
vt1 -13.562500 0.272949
vt1 -13.515625 0.332031
vt1 -13.164062 0.261230
vt1 -12.726562 0.197754
vt1 -12.609375 0.288086
vt1 -12.179688 0.217773
vt1 -12.195312 0.333496
vt1 -11.625000 0.265625
vt1 -10.984375 0.347656
vt1 -11.500000 0.331543
vt1 -11.156250 0.230957
vt1 -10.617188 0.207031
vt1 -10.382812 0.340332
vt1 -10.101562 0.232422
vt1 -9.742188 0.227051
vt1 -1.821289 0.715332
vt1 -2.212891 0.758179
vt1 -2.279297 0.695557
vt1 -2.589844 0.748291
vt1 -2.685547 0.692627
vt1 -3.076172 0.750488
vt1 -3.097656 0.706055
vt1 -9.726562 0.063965
vt1 -9.281250 0.003906
vt1 -9.156250 0.119629
vt1 -8.898438 -0.084961
vt1 -8.539062 0.138184
vt1 -8.343750 -0.037109
vt1 -7.925781 0.143066
vt1 -7.878906 -0.017578
vt1 -7.535156 -0.008789
vt1 -7.343750 0.124512
vt1 -7.023438 -0.015625
vt1 -6.789062 0.129395
vt1 -6.527344 -0.013672
vt1 -6.128906 0.121094
vt1 -6.074219 -0.010742
vt1 -5.542969 0.056641
vt1 -8.898438 -0.009766
vt1 -9.265625 -0.007812
vt1 -9.265625 -0.021484
vt1 -9.718750 -0.017578
vt1 -9.718750 -0.001953
vt1 -12.179688 0.312988
vt1 -12.734375 0.200684
vt1 -12.164062 0.117188
vt1 -11.632812 0.097168
vt1 -11.632812 0.322754
vt1 -11.156250 0.314453
vt1 -11.101562 0.111816
vt1 -10.625000 0.297852
vt1 -10.632812 0.103027
vt1 -10.218750 0.110840
vt1 -10.101562 0.302246
vt1 -9.765625 0.274414
vt1 -0.435791 0.179688
vt1 -0.190186 0.220703
vt1 -0.829102 0.209473
vt1 0.086426 0.186035
vt1 0.448730 0.187500
vt1 -5.554688 0.243164
vt1 -6.128906 0.161133
vt1 -5.546875 0.097656
vt1 -6.136719 0.241211
vt1 -6.761719 0.275879
vt1 -6.789062 0.141113
vt1 -7.347656 0.134766
vt1 -7.156250 0.241211
vt1 -7.667969 0.238770
vt1 -7.933594 0.120605
vt1 -8.281250 0.250488
vt1 -8.531250 0.124512
vt1 -8.789062 0.238770
vt1 -9.156250 0.164062
vt1 -9.265625 0.241699
vt1 -9.718750 0.243164
vt1 -9.718750 0.097656
vn 0.023622 0.000000 1.000000
vn -0.637795 0.000000 0.771653
vn 0.000000 0.000000 1.000000
vn 0.000000 0.000000 1.000000
vn 0.795276 0.000000 0.606299
vn -0.023622 0.000000 1.000000
vn 0.968504 -0.000000 -0.251968
vn 0.992126 0.000000 0.086614
vn -0.007874 -0.000000 -1.000000
vn 0.622047 -0.000000 -0.779527
vn 0.000000 -0.000000 -1.000000
vn 0.976378 -0.000000 -0.228346
vn 0.984252 -0.000000 -0.157480
vn 0.826772 0.000000 0.559055
vn 0.858268 0.000000 0.519685
vn 0.070866 0.000000 1.000000
vn 0.070866 0.000000 1.000000
vn -0.669291 0.000000 0.748031
vn -0.622047 0.000000 0.787401
vn -0.968504 0.000000 0.251968
vn -0.763780 -0.000000 -0.645669
vn -0.905512 -0.000000 -0.425197
vn -0.488189 -0.000000 -0.874016
vn -0.055118 -0.000000 -1.000000
vn 0.000000 -0.000000 -1.000000
vn 0.543307 -0.000000 -0.842520
vn -0.362205 -0.000000 -0.929134
vn 0.338583 -0.000000 -0.937008
vn -0.472441 -0.000000 -0.881890
vn 0.000000 0.000000 1.000000
vn 0.000000 0.000000 1.000000
vn 0.472441 0.000000 0.881890
vn 0.464567 0.000000 0.881890
vn 0.929134 0.000000 0.362205
vn 0.960630 0.000000 0.291339
vn 0.952756 -0.000000 -0.307087
vn 0.952756 -0.000000 -0.307087
vn 0.622047 -0.000000 -0.787401
vn 0.669291 -0.000000 -0.740157
vn -0.023622 -0.000000 -1.000000
vn -0.094488 -0.000000 -0.992126
vn -0.818898 -0.000000 -0.582677
vn -0.858268 -0.000000 -0.519685
vn -0.992126 0.000000 0.141732
vn -0.984252 0.000000 0.181102
vn -0.582677 0.000000 0.818897
vn -0.590551 0.000000 0.811023
vn 0.007874 0.000000 1.000000
vn 0.000000 0.000000 1.000000
vn 0.598425 0.000000 0.803149
vn -0.007874 0.000000 1.000000
vn 0.023622 0.000000 1.000000
vn 0.472441 0.000000 0.881890
vn 0.944882 0.000000 0.338583
vn 0.858268 0.000000 0.511811
vn 0.968504 -0.000000 -0.236220
vn 0.952756 -0.000000 -0.307087
vn 0.496063 -0.000000 -0.866142
vn 0.590551 -0.000000 -0.803149
vn -0.062992 -0.000000 -1.000000
vn -0.039370 -0.000000 -1.000000
vn -0.850394 -0.000000 -0.527559
vn -0.606299 -0.000000 -0.795275
vn -1.000000 0.000000 0.070866
vn -0.968504 -0.000000 -0.251968
vn -0.677165 0.000000 0.740157
vn -0.826772 0.000000 0.566929
vn -0.551181 0.000000 0.834646
vn 0.007874 0.000000 1.000000
vn 0.000000 0.000000 1.000000
vn 0.055118 0.000000 1.000000
vn -0.740157 0.000000 0.669291
vn -0.102362 0.000000 0.992126
vn -0.937008 0.000000 0.346457
vn -0.976378 -0.000000 -0.220472
vn -0.850394 -0.000000 -0.535433
vn -0.346457 -0.000000 -0.937008
vn -0.157480 -0.000000 -0.984252
vn 0.740157 -0.000000 -0.669291
vn 0.716535 -0.000000 -0.692913
vn 0.874016 0.000000 0.480315
vn 0.881890 0.000000 0.480315
vn 0.039370 0.000000 1.000000
vn -0.078740 0.000000 1.000000
vn 0.023622 0.000000 1.000000
vn -0.023622 0.000000 1.000000
vn 0.645669 0.000000 0.763779
vn 0.692913 0.000000 0.716535
vn 1.000000 0.000000 0.015748
vn 0.984252 -0.000000 -0.157480
vn 0.708661 -0.000000 -0.700787
vn 0.456693 -0.000000 -0.889764
vn -0.157480 -0.000000 -0.984252
vn -0.511811 -0.000000 -0.858268
vn -0.952756 -0.000000 -0.307087
vn -1.000000 0.000000 0.070866
vn -0.771654 0.000000 0.637795
vn -0.700787 0.000000 0.708661
vn -0.031496 0.000000 1.000000
vn 0.007874 0.000000 1.000000
vn 0.000000 -1.000000 0.000000
vn 0.000000 -1.000000 0.000000
vn 0.000000 -1.000000 0.000000
vn 0.000000 1.000000 -0.000000
vn 0.000000 1.000000 -0.000000
vn 0.000000 1.000000 -0.000000
vn 0.000000 1.000000 -0.000000
vn 0.000000 1.000000 -0.000000
vn 0.000000 1.000000 -0.000000
vn 0.000000 1.000000 -0.000000
vn 0.000000 -1.000000 0.000000
vn 0.000000 -1.000000 0.000000
vn 0.000000 -1.000000 0.000000
vn 0.000000 -1.000000 0.000000
vn 0.000000 -1.000000 0.000000
vn 0.000000 -1.000000 0.000000
vn 0.000000 -1.000000 0.000000
vn 0.000000 -1.000000 0.000000
vn 0.000000 -1.000000 0.000000
vn 0.000000 -1.000000 0.000000
vn 0.000000 -1.000000 0.000000
vn 0.000000 -1.000000 0.000000
vn 0.000000 -1.000000 0.000000
vn 0.000000 -1.000000 0.000000
vn 0.000000 -1.000000 0.000000
vn 0.000000 -1.000000 0.000000
vn 0.000000 -1.000000 0.000000
vn 0.000000 -1.000000 0.000000
vn 0.000000 -1.000000 0.000000
vn 0.000000 -1.000000 0.000000
vn 0.000000 -1.000000 0.000000
vn 0.000000 -1.000000 0.000000
vn 0.000000 -1.000000 0.000000
vn 0.000000 -1.000000 0.000000
vn 0.000000 -1.000000 0.000000
vn 0.000000 -1.000000 0.000000
vn 0.000000 -1.000000 0.000000
vn 0.000000 -1.000000 0.000000
vn 0.000000 -1.000000 0.000000
vn 0.000000 -1.000000 0.000000
vn 0.000000 -1.000000 0.000000
vn 0.000000 -1.000000 0.000000
vn 0.000000 -1.000000 0.000000
vn 0.000000 1.000000 -0.000000
vn 0.000000 1.000000 -0.000000
vn 0.000000 1.000000 -0.000000
vn 0.000000 1.000000 -0.000000
vn 0.000000 1.000000 -0.000000
vn 0.000000 1.000000 -0.000000
vn 0.000000 1.000000 -0.000000
vn 0.000000 -1.000000 0.000000
vn 0.000000 -1.000000 0.000000
vn 0.000000 -1.000000 0.000000
vn 0.000000 -1.000000 0.000000
vn 0.000000 -1.000000 0.000000
vn 0.000000 -1.000000 0.000000
vn 0.000000 1.000000 -0.000000
vn 0.000000 1.000000 -0.000000
vn 0.000000 1.000000 -0.000000
vn 0.000000 1.000000 -0.000000
vn 0.000000 1.000000 -0.000000
vn 0.000000 1.000000 -0.000000
vn 0.000000 1.000000 -0.000000
vn 0.000000 1.000000 -0.000000
vn -0.566929 0.000000 0.826772
vn -0.818898 0.000000 0.574803
vn -0.960630 0.000000 0.291339
vn 0.992126 0.000000 0.149606
vn 0.960630 -0.000000 -0.267716
vn 0.850394 0.000000 0.527559
vn 0.000000 1.000000 -0.000000
vn 0.000000 1.000000 -0.000000
vn 0.000000 1.000000 -0.000000
vn 0.000000 1.000000 -0.000000
vn 0.000000 1.000000 -0.000000
vn 0.000000 1.000000 -0.000000
vn 0.000000 1.000000 -0.000000
vn 0.000000 1.000000 -0.000000
vn 0.000000 1.000000 -0.000000
vn 0.000000 1.000000 -0.000000
vn 0.000000 1.000000 -0.000000
vn 0.000000 1.000000 -0.000000
vn 0.000000 -1.000000 0.000000
vn 0.000000 -1.000000 0.000000
vn 0.000000 -1.000000 0.000000
vn 0.000000 -1.000000 0.000000
vn 0.000000 -1.000000 0.000000
vn 0.000000 -1.000000 0.000000
vn 0.000000 -1.000000 0.000000
vn 0.000000 -1.000000 0.000000
vn 0.000000 -1.000000 0.000000
vn 0.000000 -1.000000 0.000000
vn 0.000000 -1.000000 0.000000
vn 0.000000 -1.000000 0.000000
vn 0.000000 -1.000000 0.000000
vn 0.000000 -1.000000 0.000000
vn 0.000000 -1.000000 0.000000
vn 0.000000 -1.000000 0.000000
vn 0.000000 -1.000000 0.000000
vn 0.000000 -1.000000 0.000000
vn 0.000000 -1.000000 0.000000
vn 0.000000 -1.000000 0.000000
vn 0.000000 -1.000000 0.000000
vn 0.000000 -1.000000 0.000000
vn 0.000000 -1.000000 0.000000
vn 0.000000 -1.000000 0.000000
vn 0.000000 -1.000000 0.000000
vn 0.000000 -1.000000 0.000000
vn 0.000000 -1.000000 0.000000
vn 0.000000 -1.000000 0.000000
vn 0.000000 -1.000000 0.000000
vn 0.000000 -1.000000 0.000000
vn 0.000000 1.000000 -0.000000
vn 0.000000 1.000000 -0.000000
vn 0.000000 1.000000 -0.000000
vn 0.000000 1.000000 -0.000000
vn 0.000000 1.000000 -0.000000
vn 0.000000 1.000000 -0.000000
vn 0.000000 1.000000 -0.000000
vn 0.000000 1.000000 -0.000000
vn 0.000000 1.000000 -0.000000
vn 0.000000 1.000000 -0.000000
vn 0.000000 1.000000 -0.000000
vn 0.000000 1.000000 -0.000000
vn 0.000000 1.000000 -0.000000
vn 0.000000 1.000000 -0.000000
vn 0.000000 1.000000 -0.000000
vn 0.000000 1.000000 -0.000000
vn 0.000000 1.000000 -0.000000
vn 0.000000 1.000000 -0.000000
vn 0.000000 1.000000 -0.000000
vn 0.000000 1.000000 -0.000000
vn 0.000000 1.000000 -0.000000
vn 0.000000 1.000000 -0.000000
vn 0.000000 1.000000 -0.000000
vn 0.000000 1.000000 -0.000000
vn 0.000000 1.000000 -0.000000
vn 0.000000 1.000000 -0.000000
vn 0.000000 1.000000 -0.000000
vn 0.007874 0.000000 1.000000
vn -0.622047 0.000000 0.787401
vn -0.755906 0.000000 0.653543
vn -0.944882 0.000000 0.322835
vn -0.976378 -0.000000 -0.212598
vn -0.881890 -0.000000 -0.472441
vn -0.425197 -0.000000 -0.905512
vn -0.362205 -0.000000 -0.929134
vn 0.149606 -0.000000 -0.992126
vn 0.425197 -0.000000 -0.905512
vn 0.795276 -0.000000 -0.606299
vn 0.952756 -0.000000 -0.291339
vn 0.992126 0.000000 0.102362
vn 0.771654 0.000000 0.637795
vn 0.708661 0.000000 0.708661
vn -0.007874 0.000000 1.000000
vn 0.000000 -1.000000 0.000000
vn 0.000000 -1.000000 0.000000
vn 0.000000 -1.000000 0.000000
vn 0.000000 -1.000000 0.000000
vn 0.000000 -1.000000 0.000000
vn -0.433071 -0.000000 -0.905512
vn -0.952756 -0.000000 -0.299213
vn -0.417323 -0.000000 -0.905512
vn 0.354331 -0.000000 -0.937008
vn 0.362205 -0.000000 -0.929134
vn 0.874016 -0.000000 -0.480315
vn 0.913386 -0.000000 -0.409449
vn 0.960630 0.000000 0.275591
vn 0.960630 0.000000 0.267716
vn 0.622047 0.000000 0.779527
vn 0.488189 0.000000 0.874016
vn 0.007874 0.000000 1.000000
vn 0.000000 -1.000000 0.000000
vn 0.000000 -1.000000 0.000000
vn 0.000000 -1.000000 0.000000
vn 0.000000 -1.000000 0.000000
vn 0.000000 -1.000000 0.000000
vn 0.000000 1.000000 -0.000000
vn 0.000000 1.000000 -0.000000
vn 0.000000 1.000000 -0.000000
vn 0.000000 1.000000 -0.000000
vn 0.000000 1.000000 -0.000000
vn 0.000000 1.000000 -0.000000
vn 0.000000 1.000000 -0.000000
vn 0.000000 1.000000 -0.000000
vn 0.000000 1.000000 -0.000000
vn 0.000000 1.000000 -0.000000
vn 0.000000 1.000000 -0.000000
vn 0.000000 1.000000 -0.000000
vn 0.000000 1.000000 -0.000000
vn 0.000000 1.000000 -0.000000
vn 0.000000 1.000000 -0.000000
vn 0.000000 1.000000 -0.000000
vn 0.000000 1.000000 -0.000000
tan 0.000000 1.000000 -0.000000 1.000000
tan 0.000000 0.970984 -0.000000 1.000000
tan 0.000000 1.000000 -0.000000 1.000000
tan 0.000000 1.000000 -0.000000 1.000000
tan 0.000000 0.947176 -0.000000 1.000000
tan 0.000000 1.000000 -0.000000 1.000000
tan 0.000000 0.968504 -0.000000 1.000000
tan 0.000000 0.992126 -0.000000 1.000000
tan 0.000000 -1.000000 0.000000 1.000000
tan 0.000000 -0.906814 0.000000 1.000000
tan 0.000000 -1.000000 0.000000 1.000000
tan 0.000000 -0.976378 0.000000 1.000000
tan 0.000000 -0.984252 0.000000 1.000000
tan 0.000000 -0.906194 0.000000 1.000000
tan 0.000000 -0.912890 0.000000 1.000000
tan 0.000000 -1.000000 0.000000 1.000000
tan 0.000000 -1.000000 0.000000 1.000000
tan 0.000000 -0.994482 0.000000 1.000000
tan 0.000000 -0.882758 0.000000 1.000000
tan 0.000000 -0.968504 0.000000 1.000000
tan 0.000000 -0.997954 0.000000 1.000000
tan 0.000000 -0.908860 0.000000 1.000000
tan 0.000000 -0.893236 0.000000 1.000000
tan 0.000000 -1.000000 0.000000 1.000000
tan 0.000000 -1.000000 0.000000 1.000000
tan 0.000000 0.885300 -0.000000 1.000000
tan 0.000000 0.929134 -0.000000 1.000000
tan 0.000000 0.937008 -0.000000 1.000000
tan 0.000000 0.896770 -0.000000 1.000000
tan 0.000000 1.000000 -0.000000 1.000000
tan 0.000000 1.000000 -0.000000 1.000000
tan 0.000000 0.889330 -0.000000 1.000000
tan 0.000000 0.896522 -0.000000 1.000000
tan 0.000000 0.931986 -0.000000 1.000000
tan 0.000000 0.960630 -0.000000 1.000000
tan 0.000000 0.962428 -0.000000 1.000000
tan 0.000000 0.962428 -0.000000 1.000000
tan 0.000000 0.960506 -0.000000 1.000000
tan 0.000000 0.973092 -0.000000 1.000000
tan 0.000000 1.000000 -0.000000 1.000000
tan 0.000000 0.992126 -0.000000 1.000000
tan 0.000000 0.944510 -0.000000 1.000000
tan 0.000000 0.900614 -0.000000 1.000000
tan 0.000000 0.992126 -0.000000 1.000000
tan 0.000000 0.984252 -0.000000 1.000000
tan 0.000000 0.918842 -0.000000 1.000000
tan 0.000000 0.848224 -0.000000 1.000000
tan 0.000000 1.000000 -0.000000 1.000000
tan 0.000000 1.000000 -0.000000 1.000000
tan 0.000000 0.872218 -0.000000 1.000000
tan 0.000000 1.000000 -0.000000 1.000000
tan 0.000000 1.000000 -0.000000 1.000000
tan 0.000000 0.893050 -0.000000 1.000000
tan 0.000000 0.944882 -0.000000 1.000000
tan 0.000000 0.878418 -0.000000 1.000000
tan 0.000000 0.968504 -0.000000 1.000000
tan 0.000000 0.947920 -0.000000 1.000000
tan 0.000000 0.873954 -0.000000 1.000000
tan 0.000000 0.835700 -0.000000 1.000000
tan 0.000000 1.000000 -0.000000 1.000000
tan 0.000000 1.000000 -0.000000 1.000000
tan 0.000000 0.867010 -0.000000 1.000000
tan 0.000000 0.981214 -0.000000 1.000000
tan 0.000000 1.000000 -0.000000 1.000000
tan 0.000000 0.970488 -0.000000 1.000000
tan 0.000000 0.996094 -0.000000 1.000000
tan 0.000000 0.873830 -0.000000 1.000000
tan 0.000000 0.865026 -0.000000 1.000000
tan 0.000000 1.000000 -0.000000 1.000000
tan 0.000000 1.000000 -0.000000 1.000000
tan 0.000000 -1.000000 0.000000 1.000000
tan 0.000000 -0.995226 0.000000 1.000000
tan 0.000000 -0.992126 0.000000 1.000000
tan 0.000000 -0.942464 0.000000 1.000000
tan 0.000000 -0.976378 0.000000 1.000000
tan 0.000000 -0.923802 0.000000 1.000000
tan 0.000000 -0.934280 0.000000 1.000000
tan 0.000000 -0.984252 0.000000 1.000000
tan 0.000000 -0.997458 0.000000 1.000000
tan 0.000000 -0.995040 0.000000 1.000000
tan 0.000000 -0.938992 0.000000 1.000000
tan 0.000000 -0.889454 0.000000 1.000000
tan 0.000000 -1.000000 0.000000 1.000000
tan 0.000000 -1.000000 0.000000 1.000000
tan 0.000000 -1.000000 0.000000 1.000000
tan 0.000000 -1.000000 0.000000 1.000000
tan 0.000000 -0.966148 0.000000 1.000000
tan 0.000000 -0.979602 0.000000 1.000000
tan 0.000000 -1.000000 0.000000 1.000000
tan 0.000000 -0.984252 0.000000 1.000000
tan 0.000000 -0.983198 0.000000 1.000000
tan 0.000000 -0.904148 0.000000 1.000000
tan 0.000000 -0.984252 0.000000 1.000000
tan 0.000000 -0.945502 0.000000 1.000000
tan 0.000000 -0.955174 0.000000 1.000000
tan 0.000000 -1.000000 0.000000 1.000000
tan 0.000000 -0.996652 0.000000 1.000000
tan 0.000000 -0.993676 0.000000 1.000000
tan 0.000000 -1.000000 0.000000 1.000000
tan 0.000000 -1.000000 0.000000 1.000000
tan -0.968504 -0.000000 -0.259842 1.000000
tan -0.960630 0.000000 0.291339 1.000000
tan -0.818898 0.000000 0.574803 1.000000
tan -0.952756 0.000000 0.307087 1.000000
tan -0.622047 0.000000 0.779527 1.000000
tan -0.960630 0.000000 0.275591 1.000000
tan -0.944882 -0.000000 -0.338583 1.000000
tan -0.992126 -0.000000 -0.149606 1.000000
tan -0.850394 -0.000000 -0.527559 1.000000
tan -0.456693 -0.000000 -0.889764 1.000000
tan 0.141732 0.000000 0.992126 1.000000
tan 0.062992 0.000000 1.000000 1.000000
tan 0.629921 0.000000 0.779527 1.000000
tan 0.590551 0.000000 0.803149 1.000000
tan 0.992126 -0.000000 -0.149606 1.000000
tan 0.937008 0.000000 0.346457 1.000000
tan 0.818898 -0.000000 -0.574803 1.000000
tan 0.456693 -0.000000 -0.889764 1.000000
tan -0.047244 -0.000000 -1.000000 1.000000
tan -0.496063 -0.000000 -0.866142 1.000000
tan -0.543307 -0.000000 -0.842520 1.000000
tan -0.858268 -0.000000 -0.511811 1.000000
tan -1.000000 0.000000 0.047244 1.000000
tan -1.000000 0.000000 0.078740 1.000000
tan -0.700787 0.000000 0.716535 1.000000
tan -0.661417 0.000000 0.748031 1.000000
tan -0.039370 0.000000 1.000000 1.000000
tan -0.125984 0.000000 0.992126 1.000000
tan 0.141732 -0.000000 -0.992126 1.000000
tan 0.204724 -0.000000 -0.976378 1.000000
tan 0.755906 -0.000000 -0.661417 1.000000
tan 0.944882 -0.000000 -0.330709 1.000000
tan 0.944882 0.000000 0.338583 1.000000
tan 0.834646 0.000000 0.551181 1.000000
tan 0.173228 0.000000 0.984252 1.000000
tan 0.157480 0.000000 0.984252 1.000000
tan -0.708661 0.000000 0.700787 1.000000
tan -0.724409 0.000000 0.692913 1.000000
tan -1.000000 -0.000000 -0.007874 1.000000
tan -0.889764 -0.000000 -0.464567 1.000000
tan -0.669291 -0.000000 -0.748031 1.000000
tan -0.102362 -0.000000 -0.992126 1.000000
tan -0.157480 -0.000000 -0.984252 1.000000
tan 0.960630 -0.000000 -0.283465 1.000000
tan 0.984252 -0.000000 -0.149606 1.000000
tan 0.551181 -0.000000 -0.834646 1.000000
tan 0.826772 0.000000 0.559055 1.000000
tan 0.960630 0.000000 0.267716 1.000000
tan 0.614173 0.000000 0.787401 1.000000
tan 0.031496 0.000000 1.000000 1.000000
tan 0.779528 -0.000000 -0.629921 1.000000
tan -0.700787 -0.000000 -0.716535 1.000000
tan 0.968504 0.000000 0.259842 1.000000
tan 0.307087 0.000000 0.952756 1.000000
tan -0.669291 0.000000 0.740157 1.000000
tan -0.913386 -0.000000 -0.401575 1.000000
tan -0.984252 0.000000 0.157480 1.000000
tan -0.984252 0.000000 0.157480 1.000000
tan -0.984252 0.000000 0.157480 1.000000
tan -0.984252 0.000000 0.157480 1.000000
tan -0.984252 0.000000 0.157480 1.000000
tan -0.984252 0.000000 0.157480 1.000000
tan -0.984252 0.000000 0.157480 1.000000
tan -0.984252 0.000000 0.157480 1.000000
tan 0.000000 0.853556 -0.000000 1.000000
tan 0.000000 0.910100 -0.000000 1.000000
tan 0.000000 0.958336 -0.000000 1.000000
tan 0.000000 0.992126 -0.000000 1.000000
tan 0.000000 0.960630 -0.000000 1.000000
tan 0.000000 0.871164 -0.000000 1.000000
tan -0.905512 -0.000000 -0.425197 1.000000
tan -0.456693 -0.000000 -0.889764 1.000000
tan -1.000000 0.000000 0.031496 1.000000
tan 0.055118 0.000000 1.000000 1.000000
tan 0.850394 0.000000 0.519685 1.000000
tan 0.519685 0.000000 0.850394 1.000000
tan -0.622047 0.000000 0.779527 1.000000
tan -0.062992 0.000000 1.000000 1.000000
tan 0.070866 0.000000 1.000000 1.000000
tan -0.960630 0.000000 0.267716 1.000000
tan -1.000000 0.000000 0.015748 1.000000
tan -0.905512 -0.000000 -0.417323 1.000000
tan 0.874016 0.000000 0.488189 1.000000
tan 0.472441 0.000000 0.881890 1.000000
tan 0.362205 0.000000 0.929134 1.000000
tan -0.551181 0.000000 0.834646 1.000000
tan -0.157480 0.000000 0.984252 1.000000
tan -0.795276 0.000000 0.614173 1.000000
tan -0.968504 0.000000 0.259842 1.000000
tan -0.992126 -0.000000 -0.094488 1.000000
tan -0.787402 -0.000000 -0.614173 1.000000
tan -0.677165 -0.000000 -0.732283 1.000000
tan -0.157480 -0.000000 -0.984252 1.000000
tan -0.157480 -0.000000 -0.984252 1.000000
tan 0.157480 -0.000000 -0.984252 1.000000
tan 0.566929 -0.000000 -0.818897 1.000000
tan 0.149606 -0.000000 -0.992126 1.000000
tan 0.944882 -0.000000 -0.330709 1.000000
tan 0.984252 -0.000000 -0.181102 1.000000
tan 0.952756 0.000000 0.291339 1.000000
tan 0.850394 0.000000 0.527559 1.000000
tan 0.409449 0.000000 0.913386 1.000000
tan 0.102362 0.000000 0.992126 1.000000
tan -0.354331 0.000000 0.937008 1.000000
tan -0.669291 0.000000 0.740157 1.000000
tan -0.913386 0.000000 0.409449 1.000000
tan -0.952756 0.000000 0.307087 1.000000
tan -0.960630 -0.000000 -0.283465 1.000000
tan -0.606299 -0.000000 -0.795275 1.000000
tan -0.448819 -0.000000 -0.897638 1.000000
tan -0.157480 -0.000000 -0.984252 1.000000
tan -0.165354 -0.000000 -0.984252 1.000000
tan 0.141732 -0.000000 -0.992126 1.000000
tan 0.622047 -0.000000 -0.787401 1.000000
tan 0.472441 -0.000000 -0.881890 1.000000
tan 0.968504 -0.000000 -0.244094 1.000000
tan -0.055118 0.000000 1.000000 1.000000
tan -0.582677 0.000000 0.811023 1.000000
tan -0.661417 0.000000 0.755905 1.000000
tan -0.944882 0.000000 0.330709 1.000000
tan -0.960630 -0.000000 -0.283465 1.000000
tan -0.889764 -0.000000 -0.464567 1.000000
tan -0.440945 -0.000000 -0.897638 1.000000
tan -0.456693 -0.000000 -0.889764 1.000000
tan 0.362205 -0.000000 -0.937008 1.000000
tan 0.968504 -0.000000 -0.251968 1.000000
tan 0.535433 -0.000000 -0.842520 1.000000
tan 0.874016 -0.000000 -0.488189 1.000000
tan 0.960630 0.000000 0.275591 1.000000
tan 0.779528 0.000000 0.629921 1.000000
tan 0.464567 0.000000 0.881890 1.000000
tan 0.133858 0.000000 0.992126 1.000000
tan 0.503937 -0.000000 -0.866142 1.000000
tan 0.968504 -0.000000 -0.236220 1.000000
tan 1.000000 -0.000000 -0.078740 1.000000
tan 0.858268 0.000000 0.519685 1.000000
tan 0.724409 0.000000 0.685039 1.000000
tan 0.055118 0.000000 1.000000 1.000000
tan -0.031496 0.000000 1.000000 1.000000
tan 0.000000 -1.000000 0.000000 1.000000
tan 0.000000 -0.927832 0.000000 1.000000
tan 0.000000 -0.953686 0.000000 1.000000
tan 0.000000 -0.947424 0.000000 1.000000
tan 0.000000 -0.976378 0.000000 1.000000
tan 0.000000 -0.889330 0.000000 1.000000
tan 0.000000 -0.905512 0.000000 1.000000
tan 0.000000 -0.929134 0.000000 1.000000
tan 0.000000 -0.992126 0.000000 1.000000
tan 0.000000 -0.908860 0.000000 1.000000
tan 0.000000 -0.971356 0.000000 1.000000
tan 0.000000 -0.950462 0.000000 1.000000
tan 0.000000 -0.992126 0.000000 1.000000
tan 0.000000 -0.930002 0.000000 1.000000
tan 0.000000 -0.998822 0.000000 1.000000
tan 0.000000 -1.000000 0.000000 1.000000
tan 0.944882 -0.000000 -0.330709 1.000000
tan 0.590551 -0.000000 -0.803149 1.000000
tan 0.637795 -0.000000 -0.771653 1.000000
tan 0.157480 -0.000000 -0.984252 1.000000
tan 0.157480 -0.000000 -0.984252 1.000000
tan 0.000000 -0.905512 0.000000 1.000000
tan 0.000000 -0.950400 0.000000 1.000000
tan 0.000000 -0.905512 0.000000 1.000000
tan 0.000000 -0.934218 0.000000 1.000000
tan 0.000000 -0.926282 0.000000 1.000000
tan 0.000000 -0.881580 0.000000 1.000000
tan 0.000000 -0.913386 0.000000 1.000000
tan 0.000000 -0.958460 0.000000 1.000000
tan 0.000000 -0.964846 0.000000 1.000000
tan 0.000000 -0.945936 0.000000 1.000000
tan 0.000000 -0.877860 0.000000 1.000000
tan 0.000000 -1.000000 0.000000 1.000000
tan 0.968504 -0.000000 -0.251968 1.000000
tan 0.803150 -0.000000 -0.590551 1.000000
tan 0.944882 0.000000 0.330709 1.000000
tan 0.496063 -0.000000 -0.866142 1.000000
tan -0.039370 -0.000000 -1.000000 1.000000
tan 0.157480 0.000000 0.984252 1.000000
tan 0.740157 0.000000 0.669291 1.000000
tan 0.157480 0.000000 0.984252 1.000000
tan 0.763780 0.000000 0.645669 1.000000
tan 0.968504 -0.000000 -0.259842 1.000000
tan 0.952756 -0.000000 -0.291339 1.000000
tan 0.425197 -0.000000 -0.905512 1.000000
tan 0.661417 -0.000000 -0.755905 1.000000
tan -0.055118 -0.000000 -1.000000 1.000000
tan -0.433071 -0.000000 -0.905512 1.000000
tan -0.826772 -0.000000 -0.566929 1.000000
tan -0.976378 -0.000000 -0.212598 1.000000
tan -0.984252 0.000000 0.165354 1.000000
tan -0.724409 0.000000 0.692913 1.000000
tan -0.622047 0.000000 0.787401 1.000000
tan -0.157480 0.000000 0.984252 1.000000
tan -0.157480 0.000000 0.984252 1.000000
f 3/3/3 2/2/2 1/1/1
f 6/6/6 5/5/5 4/4/4
f 8/8/8 5/5/5 7/7/7
f 11/11/11 10/10/10 9/9/9
f 13/13/13 10/10/10 12/12/12
f 13/13/13 12/12/12 14/14/14
f 15/15/15 14/14/14 12/12/12
f 14/14/14 15/15/15 16/16/16
f 17/17/17 14/14/14 16/16/16
f 17/17/17 16/16/16 18/18/18
f 19/19/19 18/18/18 16/16/16
f 20/20/20 18/18/18 19/19/19
f 22/22/22 21/21/21 20/20/20
f 22/22/22 23/23/23 21/21/21
f 23/23/23 24/24/24 21/21/21
f 25/25/25 21/21/21 24/24/24
f 28/28/28 27/27/27 26/26/26
f 28/28/28 29/29/29 27/27/27
f 32/32/32 31/31/31 30/30/30
f 33/33/33 31/31/31 32/32/32
f 34/34/34 33/33/33 32/32/32
f 35/35/35 33/33/33 34/34/34
f 36/36/36 35/35/35 34/34/34
f 35/35/35 36/36/36 37/37/37
f 38/38/38 37/37/37 36/36/36
f 37/37/37 38/38/38 39/39/39
f 38/38/38 40/40/40 39/39/39
f 39/39/39 40/40/40 41/41/41
f 40/40/40 42/42/42 41/41/41
f 41/41/41 42/42/42 43/43/43
f 42/42/42 44/44/44 43/43/43
f 45/45/45 43/43/43 44/44/44
f 44/44/44 46/46/46 45/45/45
f 47/47/47 45/45/45 46/46/46
f 48/48/48 47/47/47 46/46/46
f 49/49/49 47/47/47 48/48/48
f 52/52/52 51/51/51 50/50/50
f 53/53/53 52/52/52 50/50/50
f 50/50/50 54/54/54 53/53/53
f 55/55/55 53/53/53 54/54/54
f 54/54/54 56/56/56 55/55/55
f 55/55/55 56/56/56 57/57/57
f 56/56/56 58/58/58 57/57/57
f 59/59/59 57/57/57 58/58/58
f 58/58/58 60/60/60 59/59/59
f 59/59/59 60/60/60 61/61/61
f 60/60/60 62/62/62 61/61/61
f 61/61/61 62/62/62 63/63/63
f 64/64/64 63/63/63 62/62/62
f 64/64/64 65/65/65 63/63/63
f 66/66/66 65/65/65 64/64/64
f 66/66/66 67/67/67 65/65/65
f 66/66/66 68/68/68 67/67/67
f 68/68/68 66/66/66 69/69/69
f 70/70/70 68/68/68 69/69/69
f 73/73/73 72/72/72 71/71/71
f 72/72/72 73/73/73 74/74/74
f 72/72/72 74/74/74 75/75/75
f 75/75/75 74/74/74 76/76/76
f 75/75/75 76/76/76 77/77/77
f 76/76/76 78/78/78 77/77/77
f 77/77/77 78/78/78 79/79/79
f 80/80/80 79/79/79 78/78/78
f 80/80/80 81/81/81 79/79/79
f 79/79/79 81/81/81 82/82/82
f 82/82/82 81/81/81 83/83/83
f 81/81/81 84/84/84 83/83/83
f 87/87/87 86/86/86 85/85/85
f 88/88/88 87/87/87 85/85/85
f 88/88/88 89/89/89 87/87/87
f 90/90/90 87/87/87 89/89/89
f 89/89/89 91/91/91 90/90/90
f 90/90/90 91/91/91 92/92/92
f 91/91/91 93/93/93 92/92/92
f 92/92/92 93/93/93 94/94/94
f 95/95/95 94/94/94 93/93/93
f 95/95/95 96/96/96 94/94/94
f 97/97/97 96/96/96 95/95/95
f 97/97/97 98/98/98 96/96/96
f 99/99/99 98/98/98 97/97/97
f 99/99/99 97/97/97 100/100/100
f 103/103/103 102/102/102 101/101/101
f 106/106/106 105/105/105 104/104/104
f 104/104/104 107/107/107 106/106/106
f 108/108/108 106/106/106 107/107/107
f 108/108/108 107/107/107 109/109/109
f 109/109/109 107/107/107 110/110/110
f 113/113/113 112/112/112 111/111/111
f 113/113/113 114/114/114 112/112/112
f 113/113/113 115/115/115 114/114/114
f 116/116/116 114/114/114 115/115/115
f 117/117/117 116/116/116 115/115/115
f 118/118/118 117/117/117 115/115/115
f 117/117/117 118/118/118 119/119/119
f 118/118/118 120/120/120 119/119/119
f 121/121/121 119/119/119 120/120/120
f 121/121/121 120/120/120 122/122/122
f 123/123/123 122/122/122 120/120/120
f 122/122/122 123/123/123 124/124/124
f 123/123/123 125/125/125 124/124/124
f 124/124/124 125/125/125 126/126/126
f 126/126/126 125/125/125 127/127/127
f 128/128/128 127/127/127 125/125/125
f 131/131/131 130/130/130 129/129/129
f 132/132/132 130/130/130 131/131/131
f 133/133/133 132/132/132 131/131/131
f 132/132/132 133/133/133 134/134/134
f 133/133/133 135/135/135 134/134/134
f 136/136/136 134/134/134 135/135/135
f 137/137/137 136/136/136 135/135/135
f 137/137/137 135/135/135 138/138/138
f 139/139/139 137/137/137 138/138/138
f 140/140/140 137/137/137 139/139/139
f 139/139/139 141/141/141 140/140/140
f 140/140/140 141/141/141 142/142/142
f 143/143/143 142/142/142 141/141/141
f 146/146/146 145/145/145 144/144/144
f 144/144/144 145/145/145 147/147/147
f 148/148/148 144/144/144 147/147/147
f 148/148/148 147/147/147 149/149/149
f 149/149/149 147/147/147 150/150/150
f 153/153/153 152/152/152 151/151/151
f 153/153/153 154/154/154 152/152/152
f 155/155/155 152/152/152 154/154/154
f 156/156/156 152/152/152 155/155/155
f 159/159/159 158/158/158 157/157/157
f 159/159/159 157/157/157 160/160/160
f 159/159/159 160/160/160 161/161/161
f 159/159/159 161/161/161 162/162/162
f 159/159/159 162/162/162 163/163/163
f 159/159/159 163/163/163 164/164/164
f 167/167/167 166/166/166 165/165/165
f 170/170/170 169/169/169 168/168/168
f 173/173/173 172/172/172 171/171/171
f 176/176/176 175/175/175 174/174/174
f 179/179/179 178/178/178 177/177/177
f 181/181/181 180/180/180 177/177/177
f 180/180/180 181/181/181 182/182/182
f 185/185/185 184/184/184 183/183/183
f 185/185/185 187/187/187 186/186/186
f 188/188/188 186/186/186 187/187/187
f 186/186/186 188/188/188 189/189/189
f 189/189/189 188/188/188 190/190/190
f 192/192/192 191/191/191 190/190/190
f 191/191/191 192/192/192 193/193/193
f 194/194/194 193/193/193 192/192/192
f 197/197/197 196/196/196 195/195/195
f 199/199/199 196/196/196 198/198/198
f 198/198/198 200/200/200 199/199/199
f 201/201/201 199/199/199 200/200/200
f 200/200/200 202/202/202 201/201/201
f 201/201/201 202/202/202 203/203/203
f 203/203/203 202/202/202 204/204/204
f 203/203/203 204/204/204 205/205/205
f 206/206/206 205/205/205 204/204/204
f 205/205/205 206/206/206 207/207/207
f 207/207/207 206/206/206 208/208/208
f 210/210/210 208/208/208 209/209/209
f 210/210/210 209/209/209 211/211/211
f 212/212/212 211/211/211 209/209/209
f 215/215/215 214/214/214 213/213/213
f 215/215/215 216/216/216 214/214/214
f 219/219/219 218/218/218 217/217/217
f 219/219/219 220/220/220 218/218/218
f 222/222/222 221/221/221 220/220/220
f 221/221/221 222/222/222 223/223/223
f 224/224/224 223/223/223 222/222/222
f 225/225/225 223/223/223 224/224/224
f 225/225/225 227/227/227 226/226/226
f 228/228/228 225/225/225 226/226/226
f 229/229/229 228/228/228 226/226/226
f 230/230/230 229/229/229 226/226/226
f 229/229/229 230/230/230 231/231/231
f 231/231/231 230/230/230 232/232/232
f 235/235/235 234/234/234 233/233/233
f 234/234/234 235/235/235 236/236/236
f 236/236/236 235/235/235 237/237/237
f 237/237/237 238/238/238 236/236/236
f 238/238/238 237/237/237 239/239/239
f 242/242/242 241/241/241 240/240/240
f 243/243/243 241/241/241 242/242/242
f 242/242/242 244/244/244 243/243/243
f 245/245/245 243/243/243 244/244/244
f 245/245/245 244/244/244 246/246/246
f 247/247/247 245/245/245 246/246/246
f 248/248/248 247/247/247 246/246/246
f 248/248/248 246/246/246 249/249/249
f 250/250/250 248/248/248 249/249/249
f 250/250/250 249/249/249 251/251/251
f 251/251/251 252/252/252 250/250/250
f 252/252/252 251/251/251 253/253/253
f 253/253/253 254/254/254 252/252/252
f 253/253/253 255/255/255 254/254/254
f 258/258/258 257/257/257 256/256/256
f 257/257/257 258/258/258 259/259/259
f 260/260/260 257/257/257 259/259/259
f 263/263/263 262/262/262 261/261/261
f 264/264/264 263/263/263 261/261/261
f 264/264/264 261/261/261 265/265/265
f 264/264/264 265/265/265 266/266/266
f 267/267/267 264/264/264 266/266/266
f 267/267/267 266/266/266 268/268/268
f 268/268/268 269/269/269 267/267/267
f 268/268/268 270/270/270 269/269/269
f 268/268/268 271/271/271 270/270/270
f 271/271/271 272/272/272 270/270/270
f 275/275/275 274/274/274 273/273/273
f 274/274/274 276/276/276 273/273/273
f 277/277/277 276/276/276 274/274/274
f 280/280/280 279/279/279 278/278/278
f 281/281/281 278/278/278 279/279/279
f 282/282/282 281/281/281 279/279/279
f 282/282/282 279/279/279 283/283/283
f 283/283/283 284/284/284 282/282/282
f 285/285/285 282/282/282 284/284/284
f 286/286/286 285/285/285 284/284/284
f 284/284/284 287/287/287 286/286/286
f 286/286/286 287/287/287 288/288/288
f 289/289/289 288/288/288 287/287/287
f 290/290/290 288/288/288 289/289/289
f 291/291/291 290/290/290 289/289/289
f 291/291/291 292/292/292 290/290/290
f 292/292/292 291/291/291 293/293/293
f 294/294/294 293/293/293 291/291/291
