mtllib SM_Mast_LOD1@000002909DC05600.mtl
g SM_Mast_LOD1@000002909DC05600
#Vertices 242
#Indices 960
#Section 0 Offset 0 NumIndices 960 MaterialIndex 0 MI_Wood
v 0.000001 0.000009 9.847055 0.000000 0.000000 1.000000 1.000000
v 0.000001 157.230377 4.281184 0.000000 0.000000 1.000000 1.000000
v 0.485988 102.913803 6.184742 0.000000 0.000000 1.000000 1.000000
v 0.335879 157.230377 4.267885 0.000000 0.000000 1.000000 1.000000
v 0.772544 0.000001 9.816464 0.000000 0.000000 1.000000 1.000000
v 0.669702 157.230377 4.228311 0.000000 0.000000 1.000000 1.000000
v 1.033686 91.418045 6.529328 0.000000 0.000000 1.000000 1.000000
v 1.540361 0.000001 9.725445 0.000000 0.000000 1.000000 1.000000
v 0.999795 157.230377 4.162701 0.000000 0.000000 1.000000 1.000000
v 1.728651 68.963890 7.201009 0.000000 0.000000 1.000000 1.000000
v 2.298724 0.000001 9.574742 0.000000 0.000000 1.000000 1.000000
v 1.897689 104.615891 5.843271 0.000000 0.000000 1.000000 1.000000
v 1.322965 157.230377 4.071646 0.000000 0.000000 1.000000 1.000000
v 3.042909 0.000001 9.365105 0.000000 0.000000 1.000000 1.000000
v 1.638294 157.230377 3.955205 0.000000 0.000000 1.000000 1.000000
v 2.387723 101.871330 5.765870 0.000000 0.000000 1.000000 1.000000
v 3.768188 0.000001 9.097284 0.000000 0.000000 1.000000 1.000000
v 1.943550 157.230377 3.814412 0.000000 0.000000 1.000000 1.000000
v 3.001378 91.380463 5.891517 0.000000 0.000000 1.000000 1.000000
v 4.470298 0.000001 8.773449 0.000000 0.000000 1.000000 1.000000
v 2.237214 157.230377 3.650010 0.000000 0.000000 1.000000 1.000000
v 3.869076 68.975243 6.314039 0.000000 0.000000 1.000000 1.000000
v 5.144976 0.000001 8.395776 0.000000 0.000000 1.000000 1.000000
v 3.609594 104.662758 4.969462 0.000000 0.000000 1.000000 1.000000
v 2.516429 157.230377 3.463547 0.000000 0.000000 1.000000 1.000000
v 5.787956 0.000001 7.966434 0.000000 0.000000 1.000000 1.000000
v 2.780343 157.230377 3.255364 0.000000 0.000000 1.000000 1.000000
v 4.311797 90.600441 5.049148 0.000000 0.000000 1.000000 1.000000
v 6.394977 0.000001 7.487597 0.000000 0.000000 1.000000 1.000000
v 3.026844 157.230377 3.027441 0.000000 0.000000 1.000000 1.000000
v 5.672170 51.549091 5.672562 0.000000 0.000000 1.000000 1.000000
v 6.962653 0.000000 6.962649 0.000000 0.000000 1.000000 1.000000
v 7.487602 0.000000 6.394974 0.000000 0.000000 1.000000 1.000000
v 6.102305 51.460705 5.212050 0.000000 0.000000 1.000000 1.000000
v 3.255552 157.230377 2.780118 0.000000 0.000000 1.000000 1.000000
v 7.966438 0.000000 5.787954 0.000000 0.000000 1.000000 1.000000
v 6.490637 51.528217 4.715930 0.000000 0.000000 1.000000 1.000000
v 3.463712 157.230377 2.516202 0.000000 0.000000 1.000000 1.000000
v 8.395781 0.000000 5.144973 0.000000 0.000000 1.000000 1.000000
v 6.838390 51.596741 4.190794 0.000000 0.000000 1.000000 1.000000
v 3.650373 157.230377 2.236620 0.000000 0.000000 1.000000 1.000000
v 8.773455 0.000000 4.470295 0.000000 0.000000 1.000000 1.000000
v 7.147609 51.546455 3.642074 0.000000 0.000000 1.000000 1.000000
v 3.814545 157.230377 1.943301 0.000000 0.000000 1.000000 1.000000
v 9.097287 0.000000 3.768184 0.000000 0.000000 1.000000 1.000000
v 7.413256 51.491142 3.070822 0.000000 0.000000 1.000000 1.000000
v 3.955311 157.230377 1.638058 0.000000 0.000000 1.000000 1.000000
v 9.365108 -0.000000 3.042904 0.000000 0.000000 1.000000 1.000000
v 7.629623 51.547325 2.479183 0.000000 0.000000 1.000000 1.000000
v 4.071740 157.230377 1.322701 0.000000 0.000000 1.000000 1.000000
v 9.574743 -0.000000 2.298719 0.000000 0.000000 1.000000 1.000000
v 7.798384 51.606564 1.872420 0.000000 0.000000 1.000000 1.000000
v 4.162870 157.230377 0.999120 0.000000 0.000000 1.000000 1.000000
v 9.725446 -0.000000 1.540355 0.000000 0.000000 1.000000 1.000000
v 7.924622 51.507008 1.255304 0.000000 0.000000 1.000000 1.000000
v 4.228467 157.230377 0.668724 0.000000 0.000000 1.000000 1.000000
v 9.816464 -0.000000 0.772538 0.000000 0.000000 1.000000 1.000000
v 7.999608 51.484322 0.629662 0.000000 0.000000 1.000000 1.000000
v 4.267888 157.230377 0.336052 0.000000 0.000000 1.000000 1.000000
v 9.847054 -0.000000 -0.000004 0.000000 0.000000 1.000000 1.000000
v 6.622960 91.077751 0.000651 0.000000 0.000000 1.000000 1.000000
v 4.281201 157.230377 -0.000020 0.000000 0.000000 1.000000 1.000000
v 4.267871 157.230377 -0.336333 0.000000 0.000000 1.000000 1.000000
v 7.386067 68.870850 -0.581106 0.000000 0.000000 1.000000 1.000000
v 9.816463 -0.000000 -0.772546 0.000000 0.000000 1.000000 1.000000
v 6.060517 104.828743 -0.959123 0.000000 0.000000 1.000000 1.000000
v 4.228329 157.230377 -0.669722 0.000000 0.000000 1.000000 1.000000
v 9.725442 -0.000001 -1.540362 0.000000 0.000000 1.000000 1.000000
v 4.162808 157.230377 -0.999435 0.000000 0.000000 1.000000 1.000000
v 6.427559 91.436554 -1.542693 0.000000 0.000000 1.000000 1.000000
v 9.574739 -0.000001 -2.298724 0.000000 0.000000 1.000000 1.000000
v 4.071542 157.230377 -1.323370 0.000000 0.000000 1.000000 1.000000
v 7.044860 68.919495 -2.288836 0.000000 0.000000 1.000000 1.000000
v 9.365104 -0.000001 -3.042908 0.000000 0.000000 1.000000 1.000000
v 5.671906 104.747726 -2.348531 0.000000 0.000000 1.000000 1.000000
v 3.955224 157.230377 -1.638312 0.000000 0.000000 1.000000 1.000000
v 9.097282 -0.000001 -3.768186 0.000000 0.000000 1.000000 1.000000
v 3.814432 157.230377 -1.943568 0.000000 0.000000 1.000000 1.000000
v 5.891451 91.382881 -3.001348 0.000000 0.000000 1.000000 1.000000
v 8.773449 -0.000001 -4.470295 0.000000 0.000000 1.000000 1.000000
v 3.650028 157.230377 -2.237233 0.000000 0.000000 1.000000 1.000000
v 6.314077 68.974228 -3.869099 0.000000 0.000000 1.000000 1.000000
v 8.395775 -0.000001 -5.144971 0.000000 0.000000 1.000000 1.000000
v 4.968835 104.685150 -3.609136 0.000000 0.000000 1.000000 1.000000
v 3.463566 157.230377 -2.516446 0.000000 0.000000 1.000000 1.000000
v 7.966433 -0.000001 -5.787951 0.000000 0.000000 1.000000 1.000000
v 3.255382 157.230377 -2.780360 0.000000 0.000000 1.000000 1.000000
v 5.048079 90.640495 -4.310883 0.000000 0.000000 1.000000 1.000000
v 7.487596 -0.000001 -6.394971 0.000000 0.000000 1.000000 1.000000
v 3.027457 157.230377 -3.026863 0.000000 0.000000 1.000000 1.000000
v 5.672374 51.556812 -5.671978 0.000000 0.000000 1.000000 1.000000
v 6.962648 -0.000001 -6.962647 0.000000 0.000000 1.000000 1.000000
v 6.394973 -0.000001 -7.487595 0.000000 0.000000 1.000000 1.000000
v 5.211967 51.464523 -6.102203 0.000000 0.000000 1.000000 1.000000
v 2.780138 157.230377 -3.255569 0.000000 0.000000 1.000000 1.000000
v 5.787953 -0.000001 -7.966433 0.000000 0.000000 1.000000 1.000000
v 4.715915 51.529125 -6.490615 0.000000 0.000000 1.000000 1.000000
v 2.516220 157.230377 -3.463729 0.000000 0.000000 1.000000 1.000000
v 5.144972 -0.000001 -8.395775 0.000000 0.000000 1.000000 1.000000
v 4.190812 51.596176 -6.838408 0.000000 0.000000 1.000000 1.000000
v 2.236639 157.230377 -3.650391 0.000000 0.000000 1.000000 1.000000
v 4.470295 -0.000001 -8.773450 0.000000 0.000000 1.000000 1.000000
v 3.642082 51.546440 -7.147611 0.000000 0.000000 1.000000 1.000000
v 1.943320 157.230377 -3.814562 0.000000 0.000000 1.000000 1.000000
v 3.768186 -0.000001 -9.097284 0.000000 0.000000 1.000000 1.000000
v 3.070819 51.492016 -7.413229 0.000000 0.000000 1.000000 1.000000
v 1.638078 157.230377 -3.955328 0.000000 0.000000 1.000000 1.000000
v 3.042907 -0.000001 -9.365105 0.000000 0.000000 1.000000 1.000000
v 2.479432 51.525646 -7.630356 0.000000 0.000000 1.000000 1.000000
v 1.322720 157.230377 -4.071758 0.000000 0.000000 1.000000 1.000000
v 2.298723 -0.000002 -9.574742 0.000000 0.000000 1.000000 1.000000
v 1.872878 51.549568 -7.800357 0.000000 0.000000 1.000000 1.000000
v 0.999070 157.230377 -4.162904 0.000000 0.000000 1.000000 1.000000
v 1.540359 -0.000002 -9.725445 0.000000 0.000000 1.000000 1.000000
v 1.204099 60.724224 -7.602402 0.000000 0.000000 1.000000 1.000000
v 0.668159 157.230377 -4.228573 0.000000 0.000000 1.000000 1.000000
v 0.772543 -0.000002 -9.816464 0.000000 0.000000 1.000000 1.000000
v 0.580652 69.041893 -7.380039 0.000000 0.000000 1.000000 1.000000
v 0.336308 157.230377 -4.267890 0.000000 0.000000 1.000000 1.000000
v 0.000001 -0.000002 -9.847055 0.000000 0.000000 1.000000 1.000000
v -0.000665 91.083206 -6.622778 0.000000 0.000000 1.000000 1.000000
v 0.000000 157.230377 -4.281221 0.000000 0.000000 1.000000 1.000000
v -0.336076 157.230377 -4.267908 0.000000 0.000000 1.000000 1.000000
v -0.629672 51.483887 -7.999629 0.000000 0.000000 1.000000 1.000000
v -0.772542 -0.000002 -9.816464 0.000000 0.000000 1.000000 1.000000
v -0.668744 157.230377 -4.228485 0.000000 0.000000 1.000000 1.000000
v -1.255313 51.506592 -7.924642 0.000000 0.000000 1.000000 1.000000
v -1.540358 -0.000002 -9.725445 0.000000 0.000000 1.000000 1.000000
v -0.999141 157.230377 -4.162887 0.000000 0.000000 1.000000 1.000000
v -1.872432 51.605827 -7.798415 0.000000 0.000000 1.000000 1.000000
v -2.298721 -0.000002 -9.574742 0.000000 0.000000 1.000000 1.000000
v -1.322721 157.230377 -4.071757 0.000000 0.000000 1.000000 1.000000
v -2.479184 51.548080 -7.629601 0.000000 0.000000 1.000000 1.000000
v -3.042906 -0.000001 -9.365105 0.000000 0.000000 1.000000 1.000000
v -1.638077 157.230377 -3.955328 0.000000 0.000000 1.000000 1.000000
v -3.070825 51.491562 -7.413244 0.000000 0.000000 1.000000 1.000000
v -3.768185 -0.000001 -9.097284 0.000000 0.000000 1.000000 1.000000
v -1.943320 157.230377 -3.814561 0.000000 0.000000 1.000000 1.000000
v -3.642089 51.545933 -7.147627 0.000000 0.000000 1.000000 1.000000
v -4.470294 -0.000001 -8.773449 0.000000 0.000000 1.000000 1.000000
v -2.236639 157.230377 -3.650390 0.000000 0.000000 1.000000 1.000000
v -4.190806 51.596313 -6.838405 0.000000 0.000000 1.000000 1.000000
v -5.144970 -0.000001 -8.395776 0.000000 0.000000 1.000000 1.000000
v -2.516220 157.230377 -3.463730 0.000000 0.000000 1.000000 1.000000
v -4.715911 51.529243 -6.490611 0.000000 0.000000 1.000000 1.000000
v -5.787951 -0.000001 -7.966434 0.000000 0.000000 1.000000 1.000000
v -2.780135 157.230377 -3.255571 0.000000 0.000000 1.000000 1.000000
v -5.211986 51.463737 -6.102226 0.000000 0.000000 1.000000 1.000000
v -6.394971 -0.000001 -7.487597 0.000000 0.000000 1.000000 1.000000
v -3.027458 157.230377 -3.026862 0.000000 0.000000 1.000000 1.000000
v -5.672416 51.555050 -5.672027 0.000000 0.000000 1.000000 1.000000
v -6.962647 -0.000001 -6.962649 0.000000 0.000000 1.000000 1.000000
v -7.487596 -0.000001 -6.394975 0.000000 0.000000 1.000000 1.000000
v -5.048404 90.628441 -4.311161 0.000000 0.000000 1.000000 1.000000
v -3.255382 157.230377 -2.780361 0.000000 0.000000 1.000000 1.000000
v -7.966432 -0.000001 -5.787955 0.000000 0.000000 1.000000 1.000000
v -4.969030 104.678352 -3.609277 0.000000 0.000000 1.000000 1.000000
v -3.463566 157.230377 -2.516447 0.000000 0.000000 1.000000 1.000000
v -8.395774 -0.000001 -5.144974 0.000000 0.000000 1.000000 1.000000
v -3.650028 157.230377 -2.237234 0.000000 0.000000 1.000000 1.000000
v -6.314081 68.974113 -3.869104 0.000000 0.000000 1.000000 1.000000
v -8.773448 -0.000001 -4.470297 0.000000 0.000000 1.000000 1.000000
v -5.891469 91.382355 -3.001356 0.000000 0.000000 1.000000 1.000000
v -3.814431 157.230377 -1.943569 0.000000 0.000000 1.000000 1.000000
v -9.097282 -0.000001 -3.768188 0.000000 0.000000 1.000000 1.000000
v -5.671921 104.747337 -2.348534 0.000000 0.000000 1.000000 1.000000
v -3.955224 157.230377 -1.638313 0.000000 0.000000 1.000000 1.000000
v -9.365104 -0.000001 -3.042908 0.000000 0.000000 1.000000 1.000000
v -4.071541 157.230377 -1.323371 0.000000 0.000000 1.000000 1.000000
v -7.044868 68.919281 -2.288841 0.000000 0.000000 1.000000 1.000000
v -9.574739 -0.000001 -2.298725 0.000000 0.000000 1.000000 1.000000
v -6.427549 91.436829 -1.542692 0.000000 0.000000 1.000000 1.000000
v -4.162808 157.230377 -0.999435 0.000000 0.000000 1.000000 1.000000
v -9.725443 -0.000001 -1.540362 0.000000 0.000000 1.000000 1.000000
v -6.060511 104.828911 -0.959122 0.000000 0.000000 1.000000 1.000000
v -4.228329 157.230377 -0.669722 0.000000 0.000000 1.000000 1.000000
v -9.816463 -0.000000 -0.772546 0.000000 0.000000 1.000000 1.000000
v -4.267871 157.230377 -0.336333 0.000000 0.000000 1.000000 1.000000
v -7.386066 68.870865 -0.581106 0.000000 0.000000 1.000000 1.000000
v -9.847053 -0.000000 -0.000004 0.000000 0.000000 1.000000 1.000000
v -6.622957 91.077812 0.000652 0.000000 0.000000 1.000000 1.000000
v -4.281201 157.230377 -0.000020 0.000000 0.000000 1.000000 1.000000
v -4.267887 157.230377 0.336054 0.000000 0.000000 1.000000 1.000000
v -7.999588 51.484810 0.629660 0.000000 0.000000 1.000000 1.000000
v -9.816463 -0.000000 0.772538 0.000000 0.000000 1.000000 1.000000
v -4.228466 157.230377 0.668725 0.000000 0.000000 1.000000 1.000000
v -7.924630 51.506687 1.255308 0.000000 0.000000 1.000000 1.000000
v -9.725442 -0.000000 1.540355 0.000000 0.000000 1.000000 1.000000
v -4.162868 157.230377 0.999120 0.000000 0.000000 1.000000 1.000000
v -7.798406 51.605854 1.872424 0.000000 0.000000 1.000000 1.000000
v -9.574739 -0.000000 2.298718 0.000000 0.000000 1.000000 1.000000
v -4.071739 157.230377 1.322701 0.000000 0.000000 1.000000 1.000000
v -7.629605 51.547760 2.479178 0.000000 0.000000 1.000000 1.000000
v -9.365104 -0.000000 3.042902 0.000000 0.000000 1.000000 1.000000
v -3.955309 157.230377 1.638058 0.000000 0.000000 1.000000 1.000000
v -7.413257 51.490952 3.070823 0.000000 0.000000 1.000000 1.000000
v -9.097282 0.000000 3.768181 0.000000 0.000000 1.000000 1.000000
v -3.814543 157.230377 1.943299 0.000000 0.000000 1.000000 1.000000
v -7.147604 51.546474 3.642070 0.000000 0.000000 1.000000 1.000000
v -8.773449 0.000000 4.470290 0.000000 0.000000 1.000000 1.000000
v -3.650372 157.230377 2.236618 0.000000 0.000000 1.000000 1.000000
v -6.838399 51.596279 4.190798 0.000000 0.000000 1.000000 1.000000
v -8.395775 0.000000 5.144967 0.000000 0.000000 1.000000 1.000000
v -3.463711 157.230377 2.516200 0.000000 0.000000 1.000000 1.000000
v -6.490648 51.527718 4.715932 0.000000 0.000000 1.000000 1.000000
v -7.966433 0.000000 5.787947 0.000000 0.000000 1.000000 1.000000
v -3.255552 157.230377 2.780115 0.000000 0.000000 1.000000 1.000000
v -6.102325 51.459789 5.212068 0.000000 0.000000 1.000000 1.000000
v -7.487596 0.000000 6.394968 0.000000 0.000000 1.000000 1.000000
v -3.026845 157.230377 3.027437 0.000000 0.000000 1.000000 1.000000
v -5.672284 51.544411 5.672675 0.000000 0.000000 1.000000 1.000000
v -6.962648 0.000000 6.962645 0.000000 0.000000 1.000000 1.000000
v -6.394972 0.000001 7.487594 0.000000 0.000000 1.000000 1.000000
v -4.286247 91.710426 5.019294 0.000000 0.000000 1.000000 1.000000
v -2.780342 157.230377 3.255362 0.000000 0.000000 1.000000 1.000000
v -5.787953 0.000001 7.966433 0.000000 0.000000 1.000000 1.000000
v -3.633757 103.499725 5.002797 0.000000 0.000000 1.000000 1.000000
v -2.516427 157.230377 3.463547 0.000000 0.000000 1.000000 1.000000
v -5.145088 0.000001 8.395702 0.000000 0.000000 1.000000 1.000000
v -2.963902 117.922775 4.836602 0.000000 0.000000 1.000000 1.000000
v -2.236879 157.230377 3.650212 0.000000 0.000000 1.000000 1.000000
v -1.943629 157.230377 3.814372 0.000000 0.000000 1.000000 1.000000
v -3.642092 51.545837 7.147617 0.000000 0.000000 1.000000 1.000000
v -4.470295 0.000001 8.773450 0.000000 0.000000 1.000000 1.000000
v -3.768186 0.000001 9.097284 0.000000 0.000000 1.000000 1.000000
v -3.070832 51.491013 7.413250 0.000000 0.000000 1.000000 1.000000
v -1.637967 157.230377 3.955334 0.000000 0.000000 1.000000 1.000000
v -3.042906 0.000001 9.365105 0.000000 0.000000 1.000000 1.000000
v -2.479175 51.549080 7.629554 0.000000 0.000000 1.000000 1.000000
v -1.322721 157.230377 4.071720 0.000000 0.000000 1.000000 1.000000
v -2.298722 0.000001 9.574742 0.000000 0.000000 1.000000 1.000000
v -1.872798 51.562180 7.799903 0.000000 0.000000 1.000000 1.000000
v -1.540358 0.000001 9.725445 0.000000 0.000000 1.000000 1.000000
v -1.324242 117.922775 5.515778 0.000000 0.000000 1.000000 1.000000
v -0.999415 157.230377 4.162790 0.000000 0.000000 1.000000 1.000000
v -0.669876 157.230377 4.228284 0.000000 0.000000 1.000000 1.000000
v -1.255295 51.500019 7.924868 0.000000 0.000000 1.000000 1.000000
v -0.772542 0.000001 9.816464 0.000000 0.000000 1.000000 1.000000
v -0.518004 91.759689 6.578290 0.000000 0.000000 1.000000 1.000000
v -0.335878 157.230377 4.267885 0.000000 0.000000 1.000000 1.000000
v 0.000001 0.000009 9.847055 0.000000 0.000000 1.000000 1.000000
v 0.000001 157.230377 4.281184 0.000000 0.000000 1.000000 1.000000
vt 4.390625 -9.210938
vt 2.421875 10.343750
vt 3.041016 3.583984
vt 2.380859 10.343750
vt 4.292969 -9.226562
vt 2.337891 10.335938
vt 3.115234 2.147461
vt 4.195312 -9.234375
vt 2.294922 10.335938
vt 3.306641 -0.655273
vt 4.097656 -9.242188
vt 2.837891 3.779297
vt 2.253906 10.328125
vt 4.000000 -9.250000
vt 2.210938 10.328125
vt 2.806641 3.431641
vt 3.904297 -9.257812
vt 2.167969 10.320312
vt 2.853516 2.119141
vt 3.806641 -9.265625
vt 2.126953 10.320312
vt 3.013672 -0.678711
vt 3.708984 -9.273438
vt 2.593750 3.763672
vt 2.083984 10.312500
vt 3.611328 -9.281250
vt 2.041016 10.312500
vt 2.666016 2.005859
vt 3.513672 -9.289062
vt 1.999023 10.312500
vt 2.951172 -2.869141
vt 3.416016 -9.296875
vt 3.318359 -9.304688
vt 2.873047 -2.884766
vt 1.957031 10.304688
vt 3.220703 -9.312500
vt 2.792969 -2.882812
vt 1.915039 10.304688
vt 3.123047 -9.320312
vt 2.712891 -2.878906
vt 1.872070 10.304688
vt 3.025391 -9.320312
vt 2.632812 -2.890625
vt 1.830078 10.296875
vt 2.927734 -9.328125
vt 2.554688 -2.902344
vt 1.787109 10.296875
vt 2.830078 -9.335938
vt 2.474609 -2.900391
vt 1.745117 10.296875
vt 2.732422 -9.335938
vt 2.394531 -2.896484
vt 1.702148 10.289062
vt 2.634766 -9.343750
vt 2.316406 -2.912109
vt 1.660156 10.289062
vt 2.537109 -9.351562
vt 2.236328 -2.919922
vt 1.617188 10.289062
vt 2.439453 -9.351562
vt 1.939453 2.022461
vt 1.575195 10.289062
vt 1.532227 10.281250
vt 1.988281 -0.753906
vt 2.341797 -9.359375
vt 1.742188 3.736328
vt 1.490234 10.281250
vt 2.244141 -9.359375
vt 1.447266 10.281250
vt 1.740234 2.059570
vt 2.146484 -9.367188
vt 1.405273 10.281250
vt 1.767578 -0.756836
vt 2.048828 -9.367188
vt 1.559570 3.718750
vt 1.362305 10.281250
vt 1.952148 -9.375000
vt 1.320312 10.273438
vt 1.543945 2.046875
vt 1.854492 -9.375000
vt 1.277344 10.273438
vt 1.546875 -0.755859
vt 1.756836 -9.375000
vt 1.376953 3.707031
vt 1.235352 10.273438
vt 1.659180 -9.382812
vt 1.192383 10.273438
vt 1.348633 1.949707
vt 1.561523 -9.382812
vt 1.150391 10.273438
vt 1.360352 -2.937500
vt 1.462891 -9.382812
vt 1.365234 -9.382812
vt 1.281250 -2.951172
vt 1.107422 10.273438
vt 1.267578 -9.382812
vt 1.201172 -2.943359
vt 1.065430 10.273438
vt 1.169922 -9.382812
vt 1.122070 -2.935547
vt 1.022461 10.273438
vt 1.072266 -9.390625
vt 1.041992 -2.943359
vt 0.980469 10.273438
vt 0.974609 -9.390625
vt 0.962891 -2.949219
vt 0.937988 10.273438
vt 0.876953 -9.390625
vt 0.882812 -2.945312
vt 0.895508 10.273438
vt 0.779297 -9.390625
vt 0.803223 -2.943359
vt 0.853027 10.273438
vt 0.681641 -9.390625
vt 0.731445 -1.794922
vt 0.810059 10.273438
vt 0.583496 -9.382812
vt 0.664551 -0.753906
vt 0.768066 10.273438
vt 0.486084 -9.382812
vt 0.624512 2.002930
vt 0.725586 10.273438
vt 0.682617 10.273438
vt 0.484863 -2.947266
vt 0.388184 -9.382812
vt 0.640625 10.273438
vt 0.405029 -2.943359
vt 0.290527 -9.382812
vt 0.597656 10.273438
vt 0.325684 -2.929688
vt 0.192749 -9.382812
vt 0.555176 10.273438
vt 0.245972 -2.935547
vt 0.095093 -9.375000
vt 0.512695 10.273438
vt 0.166138 -2.939453
vt -0.002623 -9.375000
vt 0.470459 10.273438
vt 0.086792 -2.931641
vt -0.100342 -9.375000
vt 0.427979 10.281250
vt 0.007393 -2.921875
vt -0.197998 -9.367188
vt 0.385498 10.281250
vt -0.072449 -2.927734
vt -0.295654 -9.367188
vt 0.343018 10.281250
vt -0.152344 -2.933594
vt -0.393311 -9.359375
vt 0.300537 10.281250
vt -0.231567 -2.917969
vt -0.490967 -9.359375
vt -0.588867 -9.351562
vt -0.100647 1.965820
vt 0.258057 10.281250
vt -0.686523 -9.351562
vt -0.085876 3.724609
vt 0.215698 10.289062
vt -0.784180 -9.343750
vt 0.173340 10.289062
vt -0.364014 -0.732422
vt -0.881836 -9.343750
vt -0.293213 2.069336
vt 0.130737 10.289062
vt -0.979492 -9.335938
vt -0.268066 3.742188
vt 0.088379 10.296875
vt -1.077148 -9.328125
vt 0.045990 10.296875
vt -0.584473 -0.727539
vt -1.173828 -9.328125
vt -0.489502 2.086914
vt 0.003515 10.296875
vt -1.271484 -9.320312
vt -0.449951 3.761719
vt -0.038879 10.296875
vt -1.369141 -9.312500
vt -0.081238 10.304688
vt -0.805176 -0.720703
vt -1.466797 -9.304688
vt -0.688965 2.054688
vt -0.123718 10.304688
vt -0.166138 10.312500
vt -1.106445 -2.878906
vt -1.564453 -9.296875
vt -0.208374 10.312500
vt -1.185547 -2.871094
vt -1.662109 -9.289062
vt -0.250732 10.312500
vt -1.264648 -2.851562
vt -1.759766 -9.281250
vt -0.293213 10.320312
vt -1.343750 -2.853516
vt -1.857422 -9.281250
vt -0.335449 10.320312
vt -1.423828 -2.853516
vt -1.954102 -9.265625
vt -0.377930 10.328125
vt -1.502930 -2.839844
vt -2.050781 -9.257812
vt -0.420166 10.328125
vt -1.582031 -2.826172
vt -2.148438 -9.250000
vt -0.462646 10.335938
vt -1.662109 -2.828125
vt -2.246094 -9.242188
vt -0.504883 10.335938
vt -1.742188 -2.830078
vt -2.343750 -9.234375
vt -0.547363 10.343750
vt -1.820312 -2.810547
vt -2.441406 -9.226562
vt -2.539062 -9.218750
vt -1.401367 2.194336
vt -0.589355 10.343750
vt -2.634766 -9.203125
vt -1.316406 3.667969
vt -0.631836 10.351562
vt -2.732422 -9.195312
vt -1.188477 5.464844
vt -0.673828 10.351562
vt -0.716309 10.359375
vt -2.136719 -2.779297
vt -2.830078 -9.187500
vt -2.927734 -9.171875
vt -2.216797 -2.777344
vt -0.758789 10.359375
vt -3.023438 -9.164062
vt -2.294922 -2.761719
vt -0.800781 10.367188
vt -3.121094 -9.156250
vt -2.373047 -2.750000
vt -3.218750 -9.140625
vt -1.412109 5.492188
vt -0.842773 10.375000
vt -0.885254 10.375000
vt -2.453125 -2.748047
vt -3.316406 -9.132812
vt -1.921875 2.257812
vt -0.927246 10.382812
vt -3.412109 -9.117188
vt -0.969727 10.390625
vt1 4.390625 -9.210938
vt1 2.421875 10.343750
vt1 3.041016 3.583984
vt1 2.380859 10.343750
vt1 4.292969 -9.226562
vt1 2.337891 10.335938
vt1 3.115234 2.147461
vt1 4.195312 -9.234375
vt1 2.294922 10.335938
vt1 3.306641 -0.655273
vt1 4.097656 -9.242188
vt1 2.837891 3.779297
vt1 2.253906 10.328125
vt1 4.000000 -9.250000
vt1 2.210938 10.328125
vt1 2.806641 3.431641
vt1 3.904297 -9.257812
vt1 2.167969 10.320312
vt1 2.853516 2.119141
vt1 3.806641 -9.265625
vt1 2.126953 10.320312
vt1 3.013672 -0.678711
vt1 3.708984 -9.273438
vt1 2.593750 3.763672
vt1 2.083984 10.312500
vt1 3.611328 -9.281250
vt1 2.041016 10.312500
vt1 2.666016 2.005859
vt1 3.513672 -9.289062
vt1 1.999023 10.312500
vt1 2.951172 -2.869141
vt1 3.416016 -9.296875
vt1 3.318359 -9.304688
vt1 2.873047 -2.884766
vt1 1.957031 10.304688
vt1 3.220703 -9.312500
vt1 2.792969 -2.882812
vt1 1.915039 10.304688
vt1 3.123047 -9.320312
vt1 2.712891 -2.878906
vt1 1.872070 10.304688
vt1 3.025391 -9.320312
vt1 2.632812 -2.890625
vt1 1.830078 10.296875
vt1 2.927734 -9.328125
vt1 2.554688 -2.902344
vt1 1.787109 10.296875
vt1 2.830078 -9.335938
vt1 2.474609 -2.900391
vt1 1.745117 10.296875
vt1 2.732422 -9.335938
vt1 2.394531 -2.896484
vt1 1.702148 10.289062
vt1 2.634766 -9.343750
vt1 2.316406 -2.912109
vt1 1.660156 10.289062
vt1 2.537109 -9.351562
vt1 2.236328 -2.919922
vt1 1.617188 10.289062
vt1 2.439453 -9.351562
vt1 1.939453 2.022461
vt1 1.575195 10.289062
vt1 1.532227 10.281250
vt1 1.988281 -0.753906
vt1 2.341797 -9.359375
vt1 1.742188 3.736328
vt1 1.490234 10.281250
vt1 2.244141 -9.359375
vt1 1.447266 10.281250
vt1 1.740234 2.059570
vt1 2.146484 -9.367188
vt1 1.405273 10.281250
vt1 1.767578 -0.756836
vt1 2.048828 -9.367188
vt1 1.559570 3.718750
vt1 1.362305 10.281250
vt1 1.952148 -9.375000
vt1 1.320312 10.273438
vt1 1.543945 2.046875
vt1 1.854492 -9.375000
vt1 1.277344 10.273438
vt1 1.546875 -0.755859
vt1 1.756836 -9.375000
vt1 1.376953 3.707031
vt1 1.235352 10.273438
vt1 1.659180 -9.382812
vt1 1.192383 10.273438
vt1 1.348633 1.949707
vt1 1.561523 -9.382812
vt1 1.150391 10.273438
vt1 1.360352 -2.937500
vt1 1.462891 -9.382812
vt1 1.365234 -9.382812
vt1 1.281250 -2.951172
vt1 1.107422 10.273438
vt1 1.267578 -9.382812
vt1 1.201172 -2.943359
vt1 1.065430 10.273438
vt1 1.169922 -9.382812
vt1 1.122070 -2.935547
vt1 1.022461 10.273438
vt1 1.072266 -9.390625
vt1 1.041992 -2.943359
vt1 0.980469 10.273438
vt1 0.974609 -9.390625
vt1 0.962891 -2.949219
vt1 0.937988 10.273438
vt1 0.876953 -9.390625
vt1 0.882812 -2.945312
vt1 0.895508 10.273438
vt1 0.779297 -9.390625
vt1 0.803223 -2.943359
vt1 0.853027 10.273438
vt1 0.681641 -9.390625
vt1 0.731445 -1.794922
vt1 0.810059 10.273438
vt1 0.583496 -9.382812
vt1 0.664551 -0.753906
vt1 0.768066 10.273438
vt1 0.486084 -9.382812
vt1 0.624512 2.002930
vt1 0.725586 10.273438
vt1 0.682617 10.273438
vt1 0.484863 -2.947266
vt1 0.388184 -9.382812
vt1 0.640625 10.273438
vt1 0.405029 -2.943359
vt1 0.290527 -9.382812
vt1 0.597656 10.273438
vt1 0.325684 -2.929688
vt1 0.192749 -9.382812
vt1 0.555176 10.273438
vt1 0.245972 -2.935547
vt1 0.095093 -9.375000
vt1 0.512695 10.273438
vt1 0.166138 -2.939453
vt1 -0.002623 -9.375000
vt1 0.470459 10.273438
vt1 0.086792 -2.931641
vt1 -0.100342 -9.375000
vt1 0.427979 10.281250
vt1 0.007393 -2.921875
vt1 -0.197998 -9.367188
vt1 0.385498 10.281250
vt1 -0.072449 -2.927734
vt1 -0.295654 -9.367188
vt1 0.343018 10.281250
vt1 -0.152344 -2.933594
vt1 -0.393311 -9.359375
vt1 0.300537 10.281250
vt1 -0.231567 -2.917969
vt1 -0.490967 -9.359375
vt1 -0.588867 -9.351562
vt1 -0.100647 1.965820
vt1 0.258057 10.281250
vt1 -0.686523 -9.351562
vt1 -0.085876 3.724609
vt1 0.215698 10.289062
vt1 -0.784180 -9.343750
vt1 0.173340 10.289062
vt1 -0.364014 -0.732422
vt1 -0.881836 -9.343750
vt1 -0.293213 2.069336
vt1 0.130737 10.289062
vt1 -0.979492 -9.335938
vt1 -0.268066 3.742188
vt1 0.088379 10.296875
vt1 -1.077148 -9.328125
vt1 0.045990 10.296875
vt1 -0.584473 -0.727539
vt1 -1.173828 -9.328125
vt1 -0.489502 2.086914
vt1 0.003515 10.296875
vt1 -1.271484 -9.320312
vt1 -0.449951 3.761719
vt1 -0.038879 10.296875
vt1 -1.369141 -9.312500
vt1 -0.081238 10.304688
vt1 -0.805176 -0.720703
vt1 -1.466797 -9.304688
vt1 -0.688965 2.054688
vt1 -0.123718 10.304688
vt1 -0.166138 10.312500
vt1 -1.106445 -2.878906
vt1 -1.564453 -9.296875
vt1 -0.208374 10.312500
vt1 -1.185547 -2.871094
vt1 -1.662109 -9.289062
vt1 -0.250732 10.312500
vt1 -1.264648 -2.851562
vt1 -1.759766 -9.281250
vt1 -0.293213 10.320312
vt1 -1.343750 -2.853516
vt1 -1.857422 -9.281250
vt1 -0.335449 10.320312
vt1 -1.423828 -2.853516
vt1 -1.954102 -9.265625
vt1 -0.377930 10.328125
vt1 -1.502930 -2.839844
vt1 -2.050781 -9.257812
vt1 -0.420166 10.328125
vt1 -1.582031 -2.826172
vt1 -2.148438 -9.250000
vt1 -0.462646 10.335938
vt1 -1.662109 -2.828125
vt1 -2.246094 -9.242188
vt1 -0.504883 10.335938
vt1 -1.742188 -2.830078
vt1 -2.343750 -9.234375
vt1 -0.547363 10.343750
vt1 -1.820312 -2.810547
vt1 -2.441406 -9.226562
vt1 -2.539062 -9.218750
vt1 -1.401367 2.194336
vt1 -0.589355 10.343750
vt1 -2.634766 -9.203125
vt1 -1.316406 3.667969
vt1 -0.631836 10.351562
vt1 -2.732422 -9.195312
vt1 -1.188477 5.464844
vt1 -0.673828 10.351562
vt1 -0.716309 10.359375
vt1 -2.136719 -2.779297
vt1 -2.830078 -9.187500
vt1 -2.927734 -9.171875
vt1 -2.216797 -2.777344
vt1 -0.758789 10.359375
vt1 -3.023438 -9.164062
vt1 -2.294922 -2.761719
vt1 -0.800781 10.367188
vt1 -3.121094 -9.156250
vt1 -2.373047 -2.750000
vt1 -3.218750 -9.140625
vt1 -1.412109 5.492188
vt1 -0.842773 10.375000
vt1 -0.885254 10.375000
vt1 -2.453125 -2.748047
vt1 -3.316406 -9.132812
vt1 -1.921875 2.257812
vt1 -0.927246 10.382812
vt1 -3.412109 -9.117188
vt1 -0.969727 10.390625
vn 0.000000 0.031496 1.000000
vn 0.000000 0.031496 1.000000
vn 0.078740 0.031496 1.000000
vn 0.078740 0.031496 1.000000
vn 0.078740 0.031496 1.000000
vn 0.157480 0.031496 0.984252
vn 0.157480 0.031496 0.984252
vn 0.157480 0.031496 0.984252
vn 0.236220 0.031496 0.968504
vn 0.228346 0.031496 0.968504
vn 0.236220 0.031496 0.968504
vn 0.307087 0.031496 0.952756
vn 0.307087 0.031496 0.952756
vn 0.307087 0.031496 0.952756
vn 0.385827 0.031496 0.921260
vn 0.377953 0.031496 0.921260
vn 0.385827 0.031496 0.921260
vn 0.456693 0.031496 0.889764
vn 0.456693 0.031496 0.889764
vn 0.456693 0.031496 0.889764
vn 0.527559 0.031496 0.850394
vn 0.519685 0.031496 0.850394
vn 0.519685 0.031496 0.850394
vn 0.582677 0.031496 0.811023
vn 0.590551 0.031496 0.811023
vn 0.590551 0.031496 0.811023
vn 0.645669 0.031496 0.755905
vn 0.645669 0.031496 0.763779
vn 0.645669 0.031496 0.755905
vn 0.708661 0.031496 0.708661
vn 0.708661 0.031496 0.708661
vn 0.708661 0.031496 0.708661
vn 0.755906 0.031496 0.645669
vn 0.763780 0.031496 0.645669
vn 0.763780 0.031496 0.645669
vn 0.811024 0.031496 0.590551
vn 0.811024 0.031496 0.590551
vn 0.811024 0.031496 0.582677
vn 0.850394 0.031496 0.519685
vn 0.850394 0.031496 0.519685
vn 0.850394 0.031496 0.519685
vn 0.889764 0.031496 0.456693
vn 0.889764 0.031496 0.456693
vn 0.889764 0.031496 0.448819
vn 0.921260 0.031496 0.385827
vn 0.921260 0.031496 0.377953
vn 0.921260 0.031496 0.377953
vn 0.952756 0.031496 0.307087
vn 0.952756 0.031496 0.307087
vn 0.952756 0.031496 0.307087
vn 0.968504 0.031496 0.236220
vn 0.968504 0.031496 0.228346
vn 0.976378 0.031496 0.228346
vn 0.984252 0.031496 0.157480
vn 0.984252 0.031496 0.157480
vn 0.984252 0.031496 0.149606
vn 1.000000 0.031496 0.078740
vn 1.000000 0.031496 0.078740
vn 1.000000 0.031496 0.078740
vn 1.000000 0.031496 -0.000000
vn 1.000000 0.031496 -0.000000
vn 1.000000 0.031496 -0.000000
vn 1.000000 0.031496 -0.078740
vn 1.000000 0.031496 -0.078740
vn 1.000000 0.031496 -0.078740
vn 0.984252 0.031496 -0.157480
vn 0.984252 0.031496 -0.157480
vn 0.984252 0.031496 -0.157480
vn 0.968504 0.031496 -0.236220
vn 0.968504 0.031496 -0.228346
vn 0.968504 0.031496 -0.236220
vn 0.952756 0.031496 -0.314961
vn 0.952756 0.031496 -0.307087
vn 0.952756 0.031496 -0.307087
vn 0.921260 0.031496 -0.377953
vn 0.921260 0.031496 -0.385827
vn 0.921260 0.031496 -0.385827
vn 0.889764 0.031496 -0.456693
vn 0.889764 0.031496 -0.456693
vn 0.889764 0.031496 -0.456693
vn 0.850394 0.031496 -0.527559
vn 0.850394 0.031496 -0.519685
vn 0.850394 0.031496 -0.519685
vn 0.811024 0.031496 -0.582677
vn 0.811024 0.031496 -0.590551
vn 0.811024 0.031496 -0.590551
vn 0.755906 0.031496 -0.645669
vn 0.763780 0.031496 -0.645669
vn 0.755906 0.031496 -0.645669
vn 0.708661 0.031496 -0.708661
vn 0.708661 0.031496 -0.708661
vn 0.708661 0.031496 -0.708661
vn 0.645669 0.031496 -0.755905
vn 0.645669 0.031496 -0.763779
vn 0.645669 0.031496 -0.763779
vn 0.590551 0.031496 -0.811023
vn 0.590551 0.031496 -0.811023
vn 0.582677 0.031496 -0.811023
vn 0.519685 0.031496 -0.850394
vn 0.519685 0.031496 -0.850394
vn 0.519685 0.031496 -0.850394
vn 0.456693 0.031496 -0.889764
vn 0.456693 0.031496 -0.889764
vn 0.448819 0.031496 -0.889764
vn 0.385827 0.031496 -0.921260
vn 0.377953 0.031496 -0.921260
vn 0.377953 0.031496 -0.921260
vn 0.307087 0.031496 -0.952756
vn 0.307087 0.031496 -0.952756
vn 0.307087 0.031496 -0.952756
vn 0.236220 0.031496 -0.968504
vn 0.228346 0.031496 -0.968504
vn 0.228346 0.031496 -0.976378
vn 0.157480 0.031496 -0.984252
vn 0.157480 0.031496 -0.984252
vn 0.149606 0.031496 -0.984252
vn 0.078740 0.031496 -1.000000
vn 0.078740 0.031496 -1.000000
vn 0.078740 0.031496 -1.000000
vn 0.000000 0.031496 -1.000000
vn 0.000000 0.031496 -1.000000
vn 0.000000 0.031496 -1.000000
vn -0.078740 0.031496 -1.000000
vn -0.078740 0.031496 -1.000000
vn -0.078740 0.031496 -1.000000
vn -0.149606 0.031496 -0.984252
vn -0.157480 0.031496 -0.984252
vn -0.157480 0.031496 -0.984252
vn -0.228346 0.031496 -0.976378
vn -0.228346 0.031496 -0.968504
vn -0.236220 0.031496 -0.968504
vn -0.307087 0.031496 -0.952756
vn -0.307087 0.031496 -0.952756
vn -0.307087 0.031496 -0.952756
vn -0.377953 0.031496 -0.921260
vn -0.377953 0.031496 -0.921260
vn -0.385827 0.031496 -0.921260
vn -0.448819 0.031496 -0.889764
vn -0.456693 0.031496 -0.889764
vn -0.456693 0.031496 -0.889764
vn -0.519685 0.031496 -0.850394
vn -0.519685 0.031496 -0.850394
vn -0.519685 0.031496 -0.850394
vn -0.582677 0.031496 -0.811023
vn -0.590551 0.031496 -0.811023
vn -0.590551 0.031496 -0.811023
vn -0.645669 0.031496 -0.763779
vn -0.645669 0.031496 -0.763779
vn -0.645669 0.031496 -0.755905
vn -0.708661 0.031496 -0.708661
vn -0.708661 0.031496 -0.708661
vn -0.708661 0.031496 -0.708661
vn -0.755906 0.031496 -0.645669
vn -0.763780 0.031496 -0.645669
vn -0.755906 0.031496 -0.645669
vn -0.811024 0.031496 -0.590551
vn -0.811024 0.031496 -0.582677
vn -0.811024 0.031496 -0.590551
vn -0.850394 0.031496 -0.519685
vn -0.850394 0.031496 -0.527559
vn -0.850394 0.031496 -0.519685
vn -0.889764 0.031496 -0.456693
vn -0.889764 0.031496 -0.456693
vn -0.889764 0.031496 -0.456693
vn -0.921260 0.031496 -0.385827
vn -0.921260 0.031496 -0.377953
vn -0.921260 0.031496 -0.385827
vn -0.952756 0.031496 -0.307087
vn -0.952756 0.031496 -0.314961
vn -0.952756 0.031496 -0.307087
vn -0.968504 0.031496 -0.236220
vn -0.968504 0.031496 -0.228346
vn -0.968504 0.031496 -0.236220
vn -0.984252 0.031496 -0.157480
vn -0.984252 0.031496 -0.157480
vn -0.984252 0.031496 -0.157480
vn -1.000000 0.031496 -0.078740
vn -1.000000 0.031496 -0.078740
vn -1.000000 0.031496 -0.078740
vn -1.000000 0.031496 -0.000000
vn -1.000000 0.031496 -0.000000
vn -1.000000 0.031496 -0.000000
vn -1.000000 0.031496 0.078740
vn -1.000000 0.031496 0.078740
vn -1.000000 0.031496 0.078740
vn -0.984252 0.031496 0.149606
vn -0.984252 0.031496 0.157480
vn -0.984252 0.031496 0.157480
vn -0.976378 0.031496 0.228346
vn -0.968504 0.031496 0.228346
vn -0.968504 0.031496 0.236220
vn -0.952756 0.031496 0.307087
vn -0.952756 0.031496 0.307087
vn -0.952756 0.031496 0.307087
vn -0.921260 0.031496 0.377953
vn -0.921260 0.031496 0.377953
vn -0.921260 0.031496 0.385827
vn -0.889764 0.031496 0.448819
vn -0.889764 0.031496 0.456693
vn -0.889764 0.031496 0.456693
vn -0.850394 0.031496 0.519685
vn -0.850394 0.031496 0.519685
vn -0.850394 0.031496 0.519685
vn -0.811024 0.031496 0.582677
vn -0.811024 0.031496 0.590551
vn -0.811024 0.031496 0.590551
vn -0.763780 0.031496 0.645669
vn -0.763780 0.031496 0.645669
vn -0.755906 0.031496 0.645669
vn -0.708661 0.031496 0.708661
vn -0.708661 0.031496 0.708661
vn -0.708661 0.031496 0.708661
vn -0.645669 0.031496 0.755905
vn -0.645669 0.031496 0.763779
vn -0.645669 0.031496 0.755905
vn -0.590551 0.031496 0.811023
vn -0.582677 0.031496 0.811023
vn -0.590551 0.031496 0.811023
vn -0.519685 0.031496 0.850394
vn -0.519685 0.031496 0.850394
vn -0.519685 0.031496 0.850394
vn -0.456693 0.031496 0.889764
vn -0.456693 0.031496 0.889764
vn -0.456693 0.031496 0.889764
vn -0.385827 0.031496 0.921260
vn -0.377953 0.031496 0.921260
vn -0.377953 0.031496 0.921260
vn -0.307087 0.031496 0.952756
vn -0.307087 0.031496 0.952756
vn -0.307087 0.031496 0.952756
vn -0.236220 0.031496 0.968504
vn -0.228346 0.031496 0.968504
vn -0.157480 0.031496 0.984252
vn -0.236220 0.031496 0.968504
vn -0.236220 0.031496 0.968504
vn -0.157480 0.031496 0.984252
vn -0.157480 0.031496 0.984252
vn -0.078740 0.031496 1.000000
vn -0.078740 0.031496 1.000000
vn -0.078740 0.031496 1.000000
vn 0.000000 0.031496 1.000000
vn -0.007874 0.031496 1.000000
tan 0.094488 -0.992126 0.031248 1.000000
tan 0.094488 -0.992126 0.031248 1.000000
tan 0.094488 -0.992126 0.023808 1.000000
tan 0.094488 -0.992126 0.023808 1.000000
tan 0.094488 -0.992126 0.023808 1.000000
tan 0.100998 -0.977742 0.015128 1.000000
tan 0.100750 -0.976502 0.015128 1.000000
tan 0.100998 -0.977742 0.015128 1.000000
tan 0.106764 -0.960878 0.005208 1.000000
tan 0.106764 -0.960878 0.006076 1.000000
tan 0.099634 -0.964598 0.007068 1.000000
tan 0.120032 -0.945254 -0.007440 1.000000
tan 0.098518 -0.954926 -0.000186 1.000000
tan 0.098518 -0.954926 -0.000186 1.000000
tan 0.103788 -0.941348 -0.011284 1.000000
tan 0.130820 -0.916982 -0.022320 1.000000
tan 0.103788 -0.941348 -0.011284 1.000000
tan 0.109306 -0.936884 -0.022940 1.000000
tan 0.154628 -0.882944 -0.048112 1.000000
tan 0.109306 -0.936884 -0.022940 1.000000
tan 0.143840 -0.891004 -0.056234 1.000000
tan 0.156736 -0.875318 -0.063364 1.000000
tan 0.120776 -0.938186 -0.039060 1.000000
tan 0.240250 -0.839730 -0.139996 1.000000
tan 0.119722 -0.956414 -0.050034 1.000000
tan 0.119722 -0.956414 -0.050034 1.000000
tan 0.123752 -0.977494 -0.064976 1.000000
tan 0.316139 -0.854734 -0.232004 1.000000
tan 0.123752 -0.977494 -0.064976 1.000000
tan 0.166904 -0.982082 -0.123256 1.000000
tan 0.222456 -0.959762 -0.179800 1.000000
tan 0.122512 -0.993242 -0.078368 1.000000
tan 0.118048 -0.972410 -0.090768 1.000000
tan 0.185380 -0.927770 -0.174034 1.000000
tan 0.149792 -0.953190 -0.130696 1.000000
tan 0.099014 -0.962800 -0.084630 1.000000
tan 0.141856 -0.890694 -0.147312 1.000000
tan 0.122016 -0.907558 -0.120776 1.000000
tan 0.079608 -0.938186 -0.073408 1.000000
tan 0.104656 -0.882014 -0.117800 1.000000
tan 0.092380 -0.890198 -0.097216 1.000000
tan 0.070556 -0.936884 -0.072850 1.000000
tan 0.081592 -0.897142 -0.097092 1.000000
tan 0.077190 -0.900428 -0.089838 1.000000
tan 0.061628 -0.941348 -0.070308 1.000000
tan 0.064232 -0.927212 -0.079298 1.000000
tan 0.064232 -0.927212 -0.079298 1.000000
tan 0.050840 -0.962428 -0.059024 1.000000
tan 0.053258 -0.952756 -0.067518 1.000000
tan 0.053258 -0.955174 -0.067270 1.000000
tan 0.044516 -0.972224 -0.052886 1.000000
tan 0.045880 -0.968504 -0.061008 1.000000
tan 0.044082 -0.976378 -0.053816 1.000000
tan 0.040176 -0.985492 -0.054002 1.000000
tan 0.040176 -0.984252 -0.054250 1.000000
tan 0.039742 -0.984252 -0.054250 1.000000
tan 0.035216 -1.000000 -0.047244 1.000000
tan 0.035216 -1.000000 -0.047244 1.000000
tan 0.035216 -1.000000 -0.047244 1.000000
tan 0.031496 -1.000000 -0.047244 1.000000
tan 0.031496 -1.000000 -0.047244 1.000000
tan 0.031496 -1.000000 -0.047244 1.000000
tan 0.028396 -1.000000 -0.039370 1.000000
tan 0.028396 -1.000000 -0.039370 1.000000
tan 0.028396 -1.000000 -0.039370 1.000000
tan 0.025296 -0.984252 -0.038750 1.000000
tan 0.025296 -0.985492 -0.038998 1.000000
tan 0.025296 -0.985492 -0.038998 1.000000
tan 0.022196 -0.972224 -0.038626 1.000000
tan 0.022506 -0.968504 -0.038130 1.000000
tan 0.022196 -0.972224 -0.038626 1.000000
tan 0.019096 -0.955236 -0.037758 1.000000
tan 0.019406 -0.952756 -0.037510 1.000000
tan 0.019406 -0.962428 -0.038502 1.000000
tan 0.013640 -0.924236 -0.043772 1.000000
tan 0.019344 -0.948602 -0.031248 1.000000
tan 0.019344 -0.948602 -0.031248 1.000000
tan 0.013268 -0.943890 -0.039246 1.000000
tan 0.006324 -0.896956 -0.049538 1.000000
tan 0.013268 -0.943890 -0.039246 1.000000
tan 0.002170 -0.897700 -0.050096 1.000000
tan 0.002604 -0.888710 -0.049600 1.000000
tan 0.010292 -0.948974 -0.040672 1.000000
tan -0.019468 -0.876248 -0.074462 1.000000
tan 0.006014 -0.967450 -0.043338 1.000000
tan 0.006014 -0.967450 -0.043338 1.000000
tan 0.006448 -0.983446 -0.040424 1.000000
tan -0.041664 -0.929196 -0.094612 1.000000
tan 0.006448 -0.983446 -0.040424 1.000000
tan -0.011160 -1.004402 -0.055800 1.000000
tan -0.022568 -0.998822 -0.066960 1.000000
tan 0.000000 -1.004402 -0.044640 1.000000
tan -0.007192 -0.983446 -0.047120 1.000000
tan -0.023188 -0.961994 -0.059272 1.000000
tan -0.016182 -0.970302 -0.053692 1.000000
tan -0.001364 -0.973836 -0.038812 1.000000
tan -0.019344 -0.914502 -0.049600 1.000000
tan -0.012214 -0.920330 -0.044516 1.000000
tan 0.000496 -0.948974 -0.034844 1.000000
tan -0.010664 -0.895406 -0.039680 1.000000
tan -0.003472 -0.896894 -0.035340 1.000000
tan -0.002790 -0.943890 -0.034844 1.000000
tan -0.006014 -0.904148 -0.035092 1.000000
tan -0.005766 -0.907434 -0.035030 1.000000
tan -0.005022 -0.948602 -0.034534 1.000000
tan 0.000496 -0.927212 -0.031496 1.000000
tan -0.006758 -0.927212 -0.034472 1.000000
tan 0.000992 -0.962428 -0.031496 1.000000
tan 0.000000 -0.952756 -0.031496 1.000000
tan 0.000248 -0.955174 -0.031496 1.000000
tan 0.008122 -0.972224 -0.029636 1.000000
tan 0.007626 -0.968504 -0.029698 1.000000
tan 0.007688 -0.976378 -0.029698 1.000000
tan 0.007998 -0.985492 -0.030256 1.000000
tan 0.007750 -0.984252 -0.030256 1.000000
tan 0.007750 -0.984252 -0.030318 1.000000
tan 0.007874 -1.000000 -0.030876 1.000000
tan 0.007874 -1.000000 -0.030876 1.000000
tan 0.007874 -1.000000 -0.030876 1.000000
tan 0.015748 -1.000000 -0.031496 1.000000
tan 0.015748 -1.000000 -0.031496 1.000000
tan 0.015748 -1.000000 -0.031496 1.000000
tan 0.015748 -1.000000 -0.032736 1.000000
tan 0.015748 -1.000000 -0.032736 1.000000
tan 0.015748 -1.000000 -0.032736 1.000000
tan 0.015500 -0.984252 -0.033852 1.000000
tan 0.015500 -0.984252 -0.033976 1.000000
tan 0.015252 -0.985492 -0.033976 1.000000
tan 0.023064 -0.976378 -0.036890 1.000000
tan 0.022878 -0.968504 -0.036890 1.000000
tan 0.014756 -0.972224 -0.035216 1.000000
tan 0.029760 -0.955174 -0.041168 1.000000
tan 0.030008 -0.952756 -0.041168 1.000000
tan 0.021514 -0.962428 -0.038750 1.000000
tan 0.035774 -0.927212 -0.046376 1.000000
tan 0.035774 -0.927212 -0.046376 1.000000
tan 0.034038 -0.948602 -0.046686 1.000000
tan 0.040796 -0.907434 -0.052700 1.000000
tan 0.048050 -0.904148 -0.056668 1.000000
tan 0.030814 -0.943890 -0.049228 1.000000
tan 0.043648 -0.896894 -0.059892 1.000000
tan 0.057536 -0.888710 -0.068076 1.000000
tan 0.033232 -0.944882 -0.055304 1.000000
tan 0.056916 -0.913944 -0.076384 1.000000
tan 0.076818 -0.908116 -0.091202 1.000000
tan 0.039928 -0.962800 -0.066464 1.000000
tan 0.064294 -0.964288 -0.094116 1.000000
tan 0.089590 -0.950896 -0.114948 1.000000
tan 0.042904 -0.977494 -0.077376 1.000000
tan 0.061628 -0.993242 -0.105772 1.000000
tan 0.095356 -0.987662 -0.139252 1.000000
tan 0.033728 -0.998822 -0.078120 1.000000
tan 0.024304 -0.977494 -0.076136 1.000000
tan 0.128836 -0.906070 -0.196602 1.000000
tan 0.024304 -0.977494 -0.076136 1.000000
tan 0.017236 -0.967450 -0.075268 1.000000
tan 0.074772 -0.869862 -0.151094 1.000000
tan 0.017236 -0.967450 -0.075268 1.000000
tan 0.010416 -0.942278 -0.074152 1.000000
tan 0.022754 -0.897700 -0.090272 1.000000
tan 0.026040 -0.888710 -0.096472 1.000000
tan 0.001116 -0.943890 -0.067270 1.000000
tan 0.019096 -0.889950 -0.098580 1.000000
tan 0.001116 -0.943890 -0.067270 1.000000
tan -0.006944 -0.941348 -0.060264 1.000000
tan 0.004464 -0.916982 -0.087296 1.000000
tan -0.006944 -0.941348 -0.060264 1.000000
tan -0.009734 -0.962428 -0.068510 1.000000
tan -0.009176 -0.955236 -0.067766 1.000000
tan -0.009734 -0.952756 -0.067518 1.000000
tan -0.014756 -0.972224 -0.069130 1.000000
tan -0.015314 -0.968504 -0.068634 1.000000
tan -0.014756 -0.972224 -0.069130 1.000000
tan -0.021576 -0.985492 -0.062248 1.000000
tan -0.020336 -0.984252 -0.069750 1.000000
tan -0.021576 -0.985492 -0.062248 1.000000
tan -0.026536 -1.000000 -0.062992 1.000000
tan -0.026536 -1.000000 -0.062992 1.000000
tan -0.025916 -1.000000 -0.070866 1.000000
tan -0.031496 -1.000000 -0.070866 1.000000
tan -0.031496 -1.000000 -0.070866 1.000000
tan -0.031496 -1.000000 -0.070866 1.000000
tan -0.037076 -1.000000 -0.070866 1.000000
tan -0.037076 -1.000000 -0.070866 1.000000
tan -0.037696 -1.000000 -0.078740 1.000000
tan -0.043276 -0.984252 -0.077500 1.000000
tan -0.043896 -0.984252 -0.077500 1.000000
tan -0.043896 -0.985492 -0.077252 1.000000
tan -0.051274 -0.976378 -0.084568 1.000000
tan -0.051274 -0.968504 -0.083886 1.000000
tan -0.050096 -0.972224 -0.075764 1.000000
tan -0.062682 -0.947672 -0.097278 1.000000
tan -0.062682 -0.945254 -0.097526 1.000000
tan -0.060264 -0.954926 -0.089032 1.000000
tan -0.075888 -0.919958 -0.108314 1.000000
tan -0.078864 -0.919958 -0.115568 1.000000
tan -0.073780 -0.941348 -0.099324 1.000000
tan -0.094860 -0.900428 -0.124868 1.000000
tan -0.099324 -0.890136 -0.132122 1.000000
tan -0.084940 -0.933288 -0.101122 1.000000
tan -0.116932 -0.886106 -0.137640 1.000000
tan -0.128960 -0.871226 -0.158224 1.000000
tan -0.100068 -0.938186 -0.106888 1.000000
tan -0.153884 -0.896584 -0.165726 1.000000
tan -0.178808 -0.884308 -0.198400 1.000000
tan -0.122016 -0.956414 -0.116560 1.000000
tan -0.190216 -0.942092 -0.179056 1.000000
tan -0.235724 -0.910658 -0.234422 1.000000
tan -0.148304 -0.966458 -0.126480 1.000000
tan -0.216876 -0.965342 -0.173972 1.000000
tan -0.283093 -0.926282 -0.241924 1.000000
tan -0.155744 -0.982082 -0.112096 1.000000
tan -0.159216 -0.966458 -0.095728 1.000000
tan -0.394073 -0.813566 -0.299584 1.000000
tan -0.159216 -0.966458 -0.095728 1.000000
tan -0.158038 -0.956414 -0.077934 1.000000
tan -0.316635 -0.809597 -0.196044 1.000000
tan -0.158038 -0.956414 -0.077934 1.000000
tan -0.236344 -0.849650 -0.112964 1.000000
tan -0.147560 -0.931490 -0.055676 1.000000
tan -0.154256 -0.931490 -0.059768 1.000000
tan -0.162378 -0.893732 -0.051708 1.000000
tan -0.169136 -0.890136 -0.055304 1.000000
tan -0.137330 -0.929878 -0.037572 1.000000
tan -0.125550 -0.934094 -0.020646 1.000000
tan -0.152830 -0.912704 -0.031496 1.000000
tan -0.145576 -0.912704 -0.028520 1.000000
tan -0.128526 -0.954926 -0.009858 1.000000
tan -0.142538 -0.945254 -0.014694 1.000000
tan -0.135284 -0.947672 -0.012276 1.000000
tan -0.130138 -0.964598 -0.000372 1.000000
tan -0.129642 -0.960878 0.000682 1.000000
tan -0.124248 -0.977742 0.011408 1.000000
tan -0.122512 -0.964598 0.001488 1.000000
tan -0.130138 -0.964598 -0.000372 1.000000
tan -0.124000 -0.976502 0.011408 1.000000
tan -0.124000 -0.976502 0.011408 1.000000
tan -0.118110 -0.992126 0.021948 1.000000
tan -0.118110 -0.992126 0.021948 1.000000
tan -0.118110 -0.992126 0.021948 1.000000
tan -0.118110 -0.992126 0.031248 1.000000
tan -0.118110 -0.992126 0.030318 1.000000
f 3/3/3 2/2/2 1/1/1
f 2/2/2 3/3/3 4/4/4
f 1/1/1 5/5/5 3/3/3
f 6/6/6 4/4/4 3/3/3
f 7/7/7 3/3/3 5/5/5
f 3/3/3 7/7/7 6/6/6
f 5/5/5 8/8/8 7/7/7
f 9/9/9 6/6/6 7/7/7
f 10/10/10 7/7/7 8/8/8
f 7/7/7 10/10/10 9/9/9
f 8/8/8 11/11/11 10/10/10
f 12/12/12 9/9/9 10/10/10
f 12/12/12 10/10/10 11/11/11
f 9/9/9 12/12/12 13/13/13
f 11/11/11 14/14/14 12/12/12
f 15/15/15 13/13/13 12/12/12
f 16/16/16 12/12/12 14/14/14
f 12/12/12 16/16/16 15/15/15
f 14/14/14 17/17/17 16/16/16
f 18/18/18 15/15/15 16/16/16
f 19/19/19 16/16/16 17/17/17
f 16/16/16 19/19/19 18/18/18
f 17/17/17 20/20/20 19/19/19
f 21/21/21 18/18/18 19/19/19
f 22/22/22 19/19/19 20/20/20
f 19/19/19 22/22/22 21/21/21
f 20/20/20 23/23/23 22/22/22
f 24/24/24 21/21/21 22/22/22
f 24/24/24 22/22/22 23/23/23
f 21/21/21 24/24/24 25/25/25
f 23/23/23 26/26/26 24/24/24
f 27/27/27 25/25/25 24/24/24
f 28/28/28 24/24/24 26/26/26
f 24/24/24 28/28/28 27/27/27
f 26/26/26 29/29/29 28/28/28
f 30/30/30 27/27/27 28/28/28
f 31/31/31 28/28/28 29/29/29
f 28/28/28 31/31/31 30/30/30
f 29/29/29 32/32/32 31/31/31
f 32/32/32 33/33/33 31/31/31
f 31/31/31 34/34/34 30/30/30
f 34/34/34 31/31/31 33/33/33
f 35/35/35 30/30/30 34/34/34
f 33/33/33 36/36/36 34/34/34
f 34/34/34 37/37/37 35/35/35
f 37/37/37 34/34/34 36/36/36
f 38/38/38 35/35/35 37/37/37
f 36/36/36 39/39/39 37/37/37
f 37/37/37 40/40/40 38/38/38
f 40/40/40 37/37/37 39/39/39
f 41/41/41 38/38/38 40/40/40
f 39/39/39 42/42/42 40/40/40
f 40/40/40 43/43/43 41/41/41
f 43/43/43 40/40/40 42/42/42
f 44/44/44 41/41/41 43/43/43
f 42/42/42 45/45/45 43/43/43
f 43/43/43 46/46/46 44/44/44
f 46/46/46 43/43/43 45/45/45
f 47/47/47 44/44/44 46/46/46
f 45/45/45 48/48/48 46/46/46
f 46/46/46 49/49/49 47/47/47
f 49/49/49 46/46/46 48/48/48
f 50/50/50 47/47/47 49/49/49
f 48/48/48 51/51/51 49/49/49
f 49/49/49 52/52/52 50/50/50
f 52/52/52 49/49/49 51/51/51
f 53/53/53 50/50/50 52/52/52
f 51/51/51 54/54/54 52/52/52
f 52/52/52 55/55/55 53/53/53
f 55/55/55 52/52/52 54/54/54
f 56/56/56 53/53/53 55/55/55
f 54/54/54 57/57/57 55/55/55
f 55/55/55 58/58/58 56/56/56
f 58/58/58 55/55/55 57/57/57
f 59/59/59 56/56/56 58/58/58
f 57/57/57 60/60/60 58/58/58
f 58/58/58 61/61/61 59/59/59
f 61/61/61 58/58/58 60/60/60
f 62/62/62 59/59/59 61/61/61
f 62/62/62 61/61/61 63/63/63
f 61/61/61 60/60/60 64/64/64
f 61/61/61 64/64/64 63/63/63
f 60/60/60 65/65/65 64/64/64
f 63/63/63 64/64/64 66/66/66
f 64/64/64 65/65/65 66/66/66
f 63/63/63 66/66/66 67/67/67
f 65/65/65 68/68/68 66/66/66
f 67/67/67 66/66/66 69/69/69
f 66/66/66 68/68/68 70/70/70
f 66/66/66 70/70/70 69/69/69
f 68/68/68 71/71/71 70/70/70
f 69/69/69 70/70/70 72/72/72
f 70/70/70 71/71/71 73/73/73
f 70/70/70 73/73/73 72/72/72
f 71/71/71 74/74/74 73/73/73
f 72/72/72 73/73/73 75/75/75
f 73/73/73 74/74/74 75/75/75
f 72/72/72 75/75/75 76/76/76
f 74/74/74 77/77/77 75/75/75
f 76/76/76 75/75/75 78/78/78
f 75/75/75 77/77/77 79/79/79
f 75/75/75 79/79/79 78/78/78
f 77/77/77 80/80/80 79/79/79
f 78/78/78 79/79/79 81/81/81
f 79/79/79 80/80/80 82/82/82
f 79/79/79 82/82/82 81/81/81
f 80/80/80 83/83/83 82/82/82
f 81/81/81 82/82/82 84/84/84
f 82/82/82 83/83/83 84/84/84
f 81/81/81 84/84/84 85/85/85
f 83/83/83 86/86/86 84/84/84
f 85/85/85 84/84/84 87/87/87
f 84/84/84 86/86/86 88/88/88
f 84/84/84 88/88/88 87/87/87
f 86/86/86 89/89/89 88/88/88
f 87/87/87 88/88/88 90/90/90
f 88/88/88 89/89/89 91/91/91
f 88/88/88 91/91/91 90/90/90
f 89/89/89 92/92/92 91/91/91
f 92/92/92 93/93/93 91/91/91
f 91/91/91 94/94/94 90/90/90
f 94/94/94 91/91/91 93/93/93
f 95/95/95 90/90/90 94/94/94
f 93/93/93 96/96/96 94/94/94
f 94/94/94 97/97/97 95/95/95
f 97/97/97 94/94/94 96/96/96
f 98/98/98 95/95/95 97/97/97
f 96/96/96 99/99/99 97/97/97
f 97/97/97 100/100/100 98/98/98
f 100/100/100 97/97/97 99/99/99
f 101/101/101 98/98/98 100/100/100
f 99/99/99 102/102/102 100/100/100
f 100/100/100 103/103/103 101/101/101
f 103/103/103 100/100/100 102/102/102
f 104/104/104 101/101/101 103/103/103
f 102/102/102 105/105/105 103/103/103
f 103/103/103 106/106/106 104/104/104
f 106/106/106 103/103/103 105/105/105
f 107/107/107 104/104/104 106/106/106
f 105/105/105 108/108/108 106/106/106
f 106/106/106 109/109/109 107/107/107
f 109/109/109 106/106/106 108/108/108
f 110/110/110 107/107/107 109/109/109
f 108/108/108 111/111/111 109/109/109
f 109/109/109 112/112/112 110/110/110
f 112/112/112 109/109/109 111/111/111
f 113/113/113 110/110/110 112/112/112
f 111/111/111 114/114/114 112/112/112
f 112/112/112 115/115/115 113/113/113
f 115/115/115 112/112/112 114/114/114
f 116/116/116 113/113/113 115/115/115
f 114/114/114 117/117/117 115/115/115
f 115/115/115 118/118/118 116/116/116
f 118/118/118 115/115/115 117/117/117
f 119/119/119 116/116/116 118/118/118
f 117/117/117 120/120/120 118/118/118
f 118/118/118 121/121/121 119/119/119
f 121/121/121 118/118/118 120/120/120
f 122/122/122 119/119/119 121/121/121
f 122/122/122 121/121/121 123/123/123
f 121/121/121 120/120/120 124/124/124
f 124/124/124 123/123/123 121/121/121
f 125/125/125 124/124/124 120/120/120
f 123/123/123 124/124/124 126/126/126
f 124/124/124 125/125/125 127/127/127
f 127/127/127 126/126/126 124/124/124
f 128/128/128 127/127/127 125/125/125
f 126/126/126 127/127/127 129/129/129
f 127/127/127 128/128/128 130/130/130
f 130/130/130 129/129/129 127/127/127
f 131/131/131 130/130/130 128/128/128
f 129/129/129 130/130/130 132/132/132
f 130/130/130 131/131/131 133/133/133
f 133/133/133 132/132/132 130/130/130
f 134/134/134 133/133/133 131/131/131
f 132/132/132 133/133/133 135/135/135
f 133/133/133 134/134/134 136/136/136
f 136/136/136 135/135/135 133/133/133
f 137/137/137 136/136/136 134/134/134
f 135/135/135 136/136/136 138/138/138
f 136/136/136 137/137/137 139/139/139
f 139/139/139 138/138/138 136/136/136
f 140/140/140 139/139/139 137/137/137
f 138/138/138 139/139/139 141/141/141
f 139/139/139 140/140/140 142/142/142
f 142/142/142 141/141/141 139/139/139
f 143/143/143 142/142/142 140/140/140
f 141/141/141 142/142/142 144/144/144
f 142/142/142 143/143/143 145/145/145
f 145/145/145 144/144/144 142/142/142
f 146/146/146 145/145/145 143/143/143
f 144/144/144 145/145/145 147/147/147
f 145/145/145 146/146/146 148/148/148
f 148/148/148 147/147/147 145/145/145
f 149/149/149 148/148/148 146/146/146
f 147/147/147 148/148/148 150/150/150
f 148/148/148 149/149/149 151/151/151
f 151/151/151 150/150/150 148/148/148
f 152/152/152 151/151/151 149/149/149
f 152/152/152 153/153/153 151/151/151
f 151/151/151 154/154/154 150/150/150
f 154/154/154 151/151/151 153/153/153
f 155/155/155 150/150/150 154/154/154
f 153/153/153 156/156/156 154/154/154
f 154/154/154 157/157/157 155/155/155
f 157/157/157 154/154/154 156/156/156
f 158/158/158 155/155/155 157/157/157
f 156/156/156 159/159/159 157/157/157
f 157/157/157 160/160/160 158/158/158
f 161/161/161 157/157/157 159/159/159
f 160/160/160 157/157/157 161/161/161
f 159/159/159 162/162/162 161/161/161
f 161/161/161 163/163/163 160/160/160
f 163/163/163 161/161/161 162/162/162
f 164/164/164 160/160/160 163/163/163
f 162/162/162 165/165/165 163/163/163
f 163/163/163 166/166/166 164/164/164
f 166/166/166 163/163/163 165/165/165
f 167/167/167 164/164/164 166/166/166
f 165/165/165 168/168/168 166/166/166
f 166/166/166 169/169/169 167/167/167
f 170/170/170 166/166/166 168/168/168
f 169/169/169 166/166/166 170/170/170
f 168/168/168 171/171/171 170/170/170
f 170/170/170 172/172/172 169/169/169
f 172/172/172 170/170/170 171/171/171
f 173/173/173 169/169/169 172/172/172
f 171/171/171 174/174/174 172/172/172
f 172/172/172 175/175/175 173/173/173
f 175/175/175 172/172/172 174/174/174
f 176/176/176 173/173/173 175/175/175
f 174/174/174 177/177/177 175/175/175
f 175/175/175 178/178/178 176/176/176
f 179/179/179 175/175/175 177/177/177
f 178/178/178 175/175/175 179/179/179
f 177/177/177 180/180/180 179/179/179
f 179/179/179 181/181/181 178/178/178
f 181/181/181 179/179/179 180/180/180
f 182/182/182 178/178/178 181/181/181
f 182/182/182 181/181/181 183/183/183
f 181/181/181 180/180/180 184/184/184
f 184/184/184 183/183/183 181/181/181
f 185/185/185 184/184/184 180/180/180
f 186/186/186 183/183/183 184/184/184
f 187/187/187 184/184/184 185/185/185
f 187/187/187 186/186/186 184/184/184
f 188/188/188 187/187/187 185/185/185
f 189/189/189 186/186/186 187/187/187
f 190/190/190 187/187/187 188/188/188
f 190/190/190 189/189/189 187/187/187
f 191/191/191 190/190/190 188/188/188
f 192/192/192 189/189/189 190/190/190
f 193/193/193 190/190/190 191/191/191
f 193/193/193 192/192/192 190/190/190
f 194/194/194 193/193/193 191/191/191
f 195/195/195 192/192/192 193/193/193
f 196/196/196 193/193/193 194/194/194
f 193/193/193 196/196/196 195/195/195
f 197/197/197 196/196/196 194/194/194
f 198/198/198 195/195/195 196/196/196
f 199/199/199 196/196/196 197/197/197
f 196/196/196 199/199/199 198/198/198
f 200/200/200 199/199/199 197/197/197
f 201/201/201 198/198/198 199/199/199
f 202/202/202 199/199/199 200/200/200
f 199/199/199 202/202/202 201/201/201
f 200/200/200 203/203/203 202/202/202
f 204/204/204 201/201/201 202/202/202
f 205/205/205 202/202/202 203/203/203
f 202/202/202 205/205/205 204/204/204
f 203/203/203 206/206/206 205/205/205
f 207/207/207 204/204/204 205/205/205
f 208/208/208 205/205/205 206/206/206
f 205/205/205 208/208/208 207/207/207
f 206/206/206 209/209/209 208/208/208
f 210/210/210 207/207/207 208/208/208
f 211/211/211 208/208/208 209/209/209
f 208/208/208 211/211/211 210/210/210
f 209/209/209 212/212/212 211/211/211
f 212/212/212 213/213/213 211/211/211
f 211/211/211 214/214/214 210/210/210
f 214/214/214 211/211/211 213/213/213
f 215/215/215 210/210/210 214/214/214
f 213/213/213 216/216/216 214/214/214
f 214/214/214 217/217/217 215/215/215
f 217/217/217 214/214/214 216/216/216
f 218/218/218 215/215/215 217/217/217
f 216/216/216 219/219/219 217/217/217
f 217/217/217 220/220/220 218/218/218
f 220/220/220 217/217/217 219/219/219
f 221/221/221 218/218/218 220/220/220
f 220/220/220 222/222/222 221/221/221
f 219/219/219 223/223/223 220/220/220
f 222/222/222 220/220/220 223/223/223
f 223/223/223 219/219/219 224/224/224
f 224/224/224 225/225/225 223/223/223
f 223/223/223 226/226/226 222/222/222
f 226/226/226 223/223/223 225/225/225
f 227/227/227 222/222/222 226/226/226
f 225/225/225 228/228/228 226/226/226
f 226/226/226 229/229/229 227/227/227
f 229/229/229 226/226/226 228/228/228
f 230/230/230 227/227/227 229/229/229
f 228/228/228 231/231/231 229/229/229
f 232/232/232 229/229/229 231/231/231
f 229/229/229 232/232/232 230/230/230
f 231/231/231 233/233/233 232/232/232
f 234/234/234 230/230/230 232/232/232
f 235/235/235 230/230/230 234/234/234
f 234/234/234 236/236/236 235/235/235
f 237/237/237 232/232/232 233/233/233
f 232/232/232 237/237/237 234/234/234
f 236/236/236 234/234/234 237/237/237
f 233/233/233 238/238/238 237/237/237
f 237/237/237 239/239/239 236/236/236
f 239/239/239 237/237/237 238/238/238
f 240/240/240 236/236/236 239/239/239
f 238/238/238 241/241/241 239/239/239
f 239/239/239 242/242/242 240/240/240
f 242/242/242 239/239/239 241/241/241
