mtllib SM_Mast_Roof_LOD1@000002909DC0A400.mtl
g SM_Mast_Roof_LOD1@000002909DC0A400
#Vertices 57
#Indices 240
#Section 0 Offset 0 NumIndices 240 MaterialIndex 0 MI_RoofTile_A_01
v 0.000002 0.000002 15.147113 0.000000 1.000000 0.000000 1.000000
v -4.449204 3.474487 13.693236 0.000000 1.000000 0.000000 1.000000
v 0.000000 3.474487 14.397922 0.000000 1.000000 0.000000 1.000000
v -4.680715 0.000002 14.405761 0.000000 1.000000 0.000000 1.000000
v -0.001265 6.134891 11.427222 0.000000 1.000000 0.000000 1.000000
v -10.428507 3.207658 10.431316 0.000000 1.000000 0.000000 1.000000
v -10.794152 -0.013025 10.794155 0.000000 1.000000 0.000000 1.000000
v -5.357662 6.489816 9.739828 0.000000 1.000000 0.000000 1.000000
v 0.000000 8.038301 8.086009 0.000000 1.000000 0.000000 1.000000
v -14.405760 0.000001 4.680712 0.000000 1.000000 0.000000 1.000000
v -3.790010 8.038034 7.250836 0.000000 1.000000 0.000000 1.000000
v -13.693238 3.474486 4.449199 0.000000 1.000000 0.000000 1.000000
v -9.244899 6.236956 6.495912 0.000000 1.000000 0.000000 1.000000
v -7.797599 8.000072 2.892761 0.000000 1.000000 0.000000 1.000000
v -15.147113 0.000000 -0.000003 0.000000 1.000000 0.000000 1.000000
v -10.837311 6.545503 1.735180 0.000000 1.000000 0.000000 1.000000
v -7.690254 8.038301 -2.498718 0.000000 1.000000 0.000000 1.000000
v -14.397923 3.474486 -0.000003 0.000000 1.000000 0.000000 1.000000
v -10.118507 6.354264 -5.250958 0.000000 1.000000 0.000000 1.000000
v -5.731764 8.040310 -5.839814 0.000000 1.000000 0.000000 1.000000
v -13.102637 3.348325 -6.676569 0.000000 1.000000 0.000000 1.000000
v -13.601428 -0.013027 -6.930276 0.000000 1.000000 0.000000 1.000000
v -8.903249 -0.000001 -12.254272 0.000000 1.000000 0.000000 1.000000
v -8.462887 3.474484 -11.648166 0.000000 1.000000 0.000000 1.000000
v -2.410507 0.019607 -15.237600 0.000000 1.000000 0.000000 1.000000
v -4.836199 6.129410 -10.490701 0.000000 1.000000 0.000000 1.000000
v -1.214895 8.034181 -8.167670 0.000000 1.000000 0.000000 1.000000
v -2.251989 3.460742 -14.326829 0.000000 1.000000 0.000000 1.000000
v 4.449202 3.474484 -13.693236 0.000000 1.000000 0.000000 1.000000
v 4.680717 -0.000001 -14.405760 0.000000 1.000000 0.000000 1.000000
v 0.184176 6.237966 -11.297056 0.000000 1.000000 0.000000 1.000000
v 8.462886 3.474484 -11.648164 0.000000 1.000000 0.000000 1.000000
v 8.903251 -0.000001 -12.254272 0.000000 1.000000 0.000000 1.000000
v 5.075519 6.533697 -9.748226 0.000000 1.000000 0.000000 1.000000
v 3.712728 8.021784 -7.279999 0.000000 1.000000 0.000000 1.000000
v 6.541719 8.038300 -4.752841 0.000000 1.000000 0.000000 1.000000
v 9.217766 6.189168 -6.676093 0.000000 1.000000 0.000000 1.000000
v 8.069762 8.040257 -1.357022 0.000000 1.000000 0.000000 1.000000
v 13.131122 3.276628 -6.681968 0.000000 1.000000 0.000000 1.000000
v 13.601428 -0.013027 -6.930279 0.000000 1.000000 0.000000 1.000000
v 10.895374 6.507783 -1.693928 0.000000 1.000000 0.000000 1.000000
v 15.147113 0.000000 -0.000003 0.000000 1.000000 0.000000 1.000000
v 7.381466 8.044827 3.728020 0.000000 1.000000 0.000000 1.000000
v 14.397920 3.474486 -0.000003 0.000000 1.000000 0.000000 1.000000
v 13.693244 3.474486 4.449201 0.000000 1.000000 0.000000 1.000000
v 14.405770 0.000001 4.680715 0.000000 1.000000 0.000000 1.000000
v 9.946317 6.529030 5.092625 0.000000 1.000000 0.000000 1.000000
v 10.438812 3.217172 10.426611 0.000000 1.000000 0.000000 1.000000
v 10.794165 -0.013025 10.794155 0.000000 1.000000 0.000000 1.000000
v 4.680719 0.000002 14.405761 0.000000 1.000000 0.000000 1.000000
v 4.690773 6.505771 10.050395 0.000000 1.000000 0.000000 1.000000
v 3.709692 8.015831 7.277915 0.000000 1.000000 0.000000 1.000000
v 0.000000 8.038301 8.086009 0.000000 1.000000 0.000000 1.000000
v -0.001265 6.134891 11.427222 0.000000 1.000000 0.000000 1.000000
v 0.000000 3.474487 14.397922 0.000000 1.000000 0.000000 1.000000
v 4.449204 3.474487 13.693236 0.000000 1.000000 0.000000 1.000000
v 0.000002 0.000002 15.147113 0.000000 1.000000 0.000000 1.000000
vt -2.330078 0.049805
vt -1.884766 0.428223
vt -2.330078 0.428223
vt -1.884766 0.049805
vt -2.316406 0.923340
vt -1.207031 0.389648
vt -1.203125 0.048828
vt -1.604492 1.004528
vt -2.330078 1.494385
vt -0.488281 0.049805
vt -1.647461 1.494141
vt -0.488281 0.428223
vt -0.935059 0.946686
vt -0.591797 1.479980
vt -0.005226 0.049805
vt -0.254150 1.023010
vt 0.478516 1.494385
vt -0.005226 0.428223
vt 0.726562 0.969635
vt 1.250000 1.494629
vt 0.721191 0.410645
vt 0.723145 0.048828
vt 1.451172 0.049805
vt 1.451172 0.428223
vt 2.183594 0.053711
vt 1.751953 0.921936
vt 2.201172 1.494141
vt 2.177734 0.425781
vt 2.921875 0.428223
vt 2.921875 0.049805
vt 2.462891 0.947357
vt 3.412109 0.428223
vt 3.412109 0.049805
vt 3.183594 1.021393
vt 3.150391 1.488770
vt 3.900391 1.494385
vt 3.898438 0.932007
vt 4.613281 1.495117
vt 4.136719 0.398926
vt 4.140625 0.048828
vt 4.617188 1.014191
vt 4.871094 0.049805
vt 5.601562 1.497314
vt 4.871094 0.428223
vt 5.355469 0.428223
vt 5.355469 0.049805
vt 5.593750 1.008568
vt 6.058594 0.389648
vt 6.066406 0.048828
vt 6.753906 0.049805
vt 6.582031 1.009392
vt 6.511719 1.487305
vt 7.199219 1.494385
vt 7.191406 0.927368
vt 7.199219 0.428223
vt 6.753906 0.428223
vt 7.199219 0.049805
vt1 -2.330078 0.049805
vt1 -1.884766 0.428223
vt1 -2.330078 0.428223
vt1 -1.884766 0.049805
vt1 -2.316406 0.923340
vt1 -1.207031 0.389648
vt1 -1.203125 0.048828
vt1 -1.604492 1.004528
vt1 -2.330078 1.494385
vt1 -0.488281 0.049805
vt1 -1.647461 1.494141
vt1 -0.488281 0.428223
vt1 -0.935059 0.946686
vt1 -0.591797 1.479980
vt1 -0.005226 0.049805
vt1 -0.254150 1.023010
vt1 0.478516 1.494385
vt1 -0.005226 0.428223
vt1 0.726562 0.969635
vt1 1.250000 1.494629
vt1 0.721191 0.410645
vt1 0.723145 0.048828
vt1 1.451172 0.049805
vt1 1.451172 0.428223
vt1 2.183594 0.053711
vt1 1.751953 0.921936
vt1 2.201172 1.494141
vt1 2.177734 0.425781
vt1 2.921875 0.428223
vt1 2.921875 0.049805
vt1 2.462891 0.947357
vt1 3.412109 0.428223
vt1 3.412109 0.049805
vt1 3.183594 1.021393
vt1 3.150391 1.488770
vt1 3.900391 1.494385
vt1 3.898438 0.932007
vt1 4.613281 1.495117
vt1 4.136719 0.398926
vt1 4.140625 0.048828
vt1 4.617188 1.014191
vt1 4.871094 0.049805
vt1 5.601562 1.497314
vt1 4.871094 0.428223
vt1 5.355469 0.428223
vt1 5.355469 0.049805
vt1 5.593750 1.008568
vt1 6.058594 0.389648
vt1 6.066406 0.048828
vt1 6.753906 0.049805
vt1 6.582031 1.009392
vt1 6.511719 1.487305
vt1 7.199219 1.494385
vt1 7.191406 0.927368
vt1 7.199219 0.428223
vt1 6.753906 0.428223
vt1 7.199219 0.049805
vn 0.000000 0.212599 0.976378
vn -0.283465 0.417323 0.866142
vn 0.000000 0.417323 0.905512
vn -0.299213 0.212599 0.929134
vn 0.007874 0.842520 0.535433
vn -0.653543 0.385827 0.653543
vn -0.692913 0.204724 0.692913
vn -0.244094 0.858268 0.456693
vn 0.000000 0.881890 0.472441
vn -0.929134 0.212598 0.299213
vn -0.220472 0.881890 0.425197
vn -0.866142 0.417323 0.283464
vn -0.440945 0.842520 0.314961
vn -0.448819 0.874016 0.173228
vn -0.976378 0.212598 -0.000000
vn -0.511811 0.858268 0.078740
vn -0.448819 0.881890 -0.149606
vn -0.905512 0.417323 -0.000000
vn -0.464567 0.850394 -0.236221
vn -0.330709 0.881890 -0.346457
vn -0.818898 0.401575 -0.417323
vn -0.874016 0.204724 -0.440945
vn -0.574803 0.212598 -0.787401
vn -0.535433 0.417323 -0.732283
vn -0.149606 0.212598 -0.968504
vn -0.236220 0.834646 -0.496063
vn -0.070866 0.874016 -0.480315
vn -0.133858 0.417323 -0.897638
vn 0.283465 0.417323 -0.866142
vn 0.299213 0.212598 -0.929134
vn 0.007874 0.842520 -0.535433
vn 0.535433 0.417323 -0.732283
vn 0.574803 0.212598 -0.787401
vn 0.244094 0.850394 -0.464567
vn 0.212598 0.881890 -0.425197
vn 0.385827 0.881890 -0.275591
vn 0.433071 0.850394 -0.314961
vn 0.472441 0.881890 -0.078740
vn 0.818898 0.393701 -0.417323
vn 0.874016 0.204724 -0.440945
vn 0.519685 0.850394 -0.078740
vn 0.976378 0.212598 -0.000000
vn 0.433071 0.874016 0.220472
vn 0.905512 0.417323 -0.000000
vn 0.866142 0.417323 0.283464
vn 0.929134 0.212598 0.299213
vn 0.448819 0.866142 0.228346
vn 0.645669 0.385827 0.653543
vn 0.692913 0.204724 0.692913
vn 0.299213 0.212599 0.929134
vn 0.220472 0.858268 0.464567
vn 0.220472 0.881890 0.425197
vn 0.000000 0.881890 0.472441
vn 0.000000 0.826772 0.559055
vn 0.000000 0.417323 0.905512
vn 0.283465 0.417323 0.866142
vn 0.000000 0.212599 0.976378
tan -0.030752 -0.976378 0.212599 1.000000
tan -0.036146 -0.883874 0.414037 1.000000
tan -0.046066 -0.905512 0.417323 1.000000
tan -0.010044 -0.943270 0.212599 1.000000
tan -0.050654 -0.534999 0.842582 1.000000
tan -0.273421 -0.921136 0.270383 1.000000
tan -0.145080 -0.976626 0.143468 1.000000
tan -0.256805 -0.508153 0.817720 1.000000
tan -0.090768 -0.468721 0.874946 1.000000
tan -0.212598 -0.943270 0.010044 1.000000
tan -0.312481 -0.476533 0.826338 1.000000
tan -0.414037 -0.883874 0.036146 1.000000
tan -0.736376 -0.539153 0.411309 1.000000
tan -0.846488 -0.479695 0.227106 1.000000
tan -0.212598 -0.976378 0.000000 1.000000
tan -0.858268 -0.516771 0.054064 1.000000
tan -0.854114 -0.472379 -0.222208 1.000000
tan -0.417323 -0.905512 0.000000 1.000000
tan -0.816914 -0.509517 -0.227664 1.000000
tan -0.604129 -0.480253 -0.645793 1.000000
tan -0.401575 -0.848472 -0.028458 1.000000
tan -0.204724 -0.894848 -0.009672 1.000000
tan -0.080352 -0.948850 -0.197532 1.000000
tan -0.177444 -0.890756 -0.377891 1.000000
tan 0.000000 -0.968504 -0.212598 1.000000
tan -0.190588 -0.538285 -0.814929 1.000000
tan -0.075702 -0.486453 -0.874016 1.000000
tan -0.003286 -0.898692 -0.417323 1.000000
tan 0.036146 -0.883874 -0.414037 1.000000
tan 0.010044 -0.943270 -0.212598 1.000000
tan 0.006634 -0.535495 -0.842520 1.000000
tan 0.177444 -0.890756 -0.377891 1.000000
tan 0.080352 -0.948850 -0.197532 1.000000
tan 0.241056 -0.515469 -0.816913 1.000000
tan 0.305537 -0.472069 -0.826337 1.000000
tan 0.729121 -0.473061 -0.493025 1.000000
tan 0.729865 -0.530411 -0.428545 1.000000
tan 0.874946 -0.476161 -0.083328 1.000000
tan 0.393701 -0.848472 -0.027900 1.000000
tan 0.204724 -0.894848 -0.009672 1.000000
tan 0.850394 -0.524645 -0.053568 1.000000
tan 0.212598 -0.976378 0.000000 1.000000
tan 0.825842 -0.483849 0.295927 1.000000
tan 0.417323 -0.905512 0.000000 1.000000
tan 0.414037 -0.883874 0.036146 1.000000
tan 0.212598 -0.943270 0.010044 1.000000
tan 0.832042 -0.492281 0.231880 1.000000
tan 0.270383 -0.920764 0.276459 1.000000
tan 0.143468 -0.976626 0.145080 1.000000
tan 0.010044 -0.943270 0.212599 1.000000
tan 0.195982 -0.503937 0.837994 1.000000
tan 0.312481 -0.476533 0.826338 1.000000
tan 0.090768 -0.468721 0.874946 1.000000
tan 0.049972 -0.559055 0.826772 1.000000
tan 0.046066 -0.905512 0.417323 1.000000
tan 0.036146 -0.883874 0.414037 1.000000
tan 0.030752 -0.976378 0.212599 1.000000
f 3/3/3 2/2/2 1/1/1
f 1/1/1 2/2/2 4/4/4
f 3/3/3 5/5/5 2/2/2
f 2/2/2 6/6/6 4/4/4
f 4/4/4 6/6/6 7/7/7
f 8/8/8 2/2/2 5/5/5
f 2/2/2 8/8/8 6/6/6
f 5/5/5 9/9/9 8/8/8
f 7/7/7 6/6/6 10/10/10
f 11/11/11 8/8/8 9/9/9
f 12/12/12 10/10/10 6/6/6
f 8/8/8 11/11/11 13/13/13
f 13/13/13 6/6/6 8/8/8
f 6/6/6 13/13/13 12/12/12
f 14/14/14 13/13/13 11/11/11
f 10/10/10 12/12/12 15/15/15
f 13/13/13 14/14/14 16/16/16
f 16/16/16 12/12/12 13/13/13
f 14/14/14 17/17/17 16/16/16
f 18/18/18 15/15/15 12/12/12
f 12/12/12 16/16/16 18/18/18
f 19/19/19 16/16/16 17/17/17
f 16/16/16 19/19/19 18/18/18
f 20/20/20 19/19/19 17/17/17
f 18/18/18 21/21/21 15/15/15
f 21/21/21 18/18/18 19/19/19
f 22/22/22 15/15/15 21/21/21
f 22/22/22 21/21/21 23/23/23
f 24/24/24 23/23/23 21/21/21
f 21/21/21 19/19/19 24/24/24
f 23/23/23 24/24/24 25/25/25
f 20/20/20 26/26/26 19/19/19
f 26/26/26 24/24/24 19/19/19
f 27/27/27 26/26/26 20/20/20
f 28/28/28 25/25/25 24/24/24
f 24/24/24 26/26/26 28/28/28
f 25/25/25 28/28/28 29/29/29
f 30/30/30 25/25/25 29/29/29
f 31/31/31 28/28/28 26/26/26
f 28/28/28 31/31/31 29/29/29
f 26/26/26 27/27/27 31/31/31
f 30/30/30 29/29/29 32/32/32
f 33/33/33 30/30/30 32/32/32
f 34/34/34 29/29/29 31/31/31
f 31/31/31 27/27/27 34/34/34
f 32/32/32 29/29/29 34/34/34
f 35/35/35 34/34/34 27/27/27
f 35/35/35 36/36/36 34/34/34
f 37/37/37 34/34/34 36/36/36
f 34/34/34 37/37/37 32/32/32
f 37/37/37 36/36/36 38/38/38
f 33/33/33 32/32/32 39/39/39
f 39/39/39 32/32/32 37/37/37
f 39/39/39 40/40/40 33/33/33
f 38/38/38 41/41/41 37/37/37
f 41/41/41 39/39/39 37/37/37
f 40/40/40 39/39/39 42/42/42
f 38/38/38 43/43/43 41/41/41
f 44/44/44 42/42/42 39/39/39
f 39/39/39 41/41/41 44/44/44
f 45/45/45 42/42/42 44/44/44
f 45/45/45 46/46/46 42/42/42
f 41/41/41 47/47/47 44/44/44
f 47/47/47 45/45/45 44/44/44
f 43/43/43 47/47/47 41/41/41
f 48/48/48 46/46/46 45/45/45
f 45/45/45 47/47/47 48/48/48
f 48/48/48 49/49/49 46/46/46
f 49/49/49 48/48/48 50/50/50
f 47/47/47 43/43/43 51/51/51
f 51/51/51 48/48/48 47/47/47
f 52/52/52 51/51/51 43/43/43
f 52/52/52 53/53/53 51/51/51
f 54/54/54 51/51/51 53/53/53
f 54/54/54 55/55/55 51/51/51
f 56/56/56 50/50/50 48/48/48
f 48/48/48 51/51/51 56/56/56
f 56/56/56 51/51/51 55/55/55
f 50/50/50 56/56/56 57/57/57
f 55/55/55 57/57/57 56/56/56
