mtllib SM_Mast_Bridge_LOD2@000002909DC04800.mtl
g SM_Mast_Bridge_LOD2@000002909DC04800
#Vertices 107
#Indices 162
#Section 0 Offset 0 NumIndices 90 MaterialIndex 0 MI_BrickTile_C_01
#Section 1 Offset 90 NumIndices 66 MaterialIndex 1 MI_BrickTile_C_01
#Section 2 Offset 156 NumIndices 6 MaterialIndex 2 MI_FloorTile_A_01
v 5.463286 2.836082 1.974026 0.000000 0.000000 1.000000 1.000000
v 7.213124 3.154939 2.087041 0.000000 0.000000 1.000000 1.000000
v 5.604364 2.704405 3.020788 0.000000 0.000000 1.000000 1.000000
v 7.213124 3.154939 2.087041 0.000000 0.000000 1.000000 1.000000
v 8.794707 3.214922 3.132476 0.000000 0.000000 1.000000 1.000000
v 5.604364 2.704405 3.020788 0.000000 0.000000 1.000000 1.000000
v 6.014630 2.852475 -2.995051 0.000000 0.000000 1.000000 0.000000
v 6.971386 2.867596 -2.980368 0.000000 0.000000 1.000000 0.000000
v 6.397358 3.126224 -1.887561 0.000000 0.000000 1.000000 0.000000
v 8.035100 2.867603 -3.018729 0.000000 0.000000 1.000000 0.000000
v 9.000000 2.885485 -3.066584 0.000000 0.000000 1.000000 0.298039
v 8.482080 3.074785 -1.944001 0.000000 0.000000 1.000000 0.000000
v 3.568379 3.090684 2.285404 0.000000 0.000000 1.000000 1.000000
v 5.463286 2.836082 1.974026 0.000000 0.000000 1.000000 1.000000
v 5.604364 2.704405 3.020788 0.000000 0.000000 1.000000 1.000000
v 3.568379 3.090684 2.285404 0.000000 0.000000 1.000000 1.000000
v 2.490065 2.827367 3.069492 0.000000 0.000000 1.000000 1.000000
v 1.533194 3.019397 1.949670 0.000000 0.000000 1.000000 1.000000
v 3.522544 2.514737 -2.981930 0.000000 0.000000 1.000000 1.000000
v 2.440010 3.670413 -3.115022 0.000000 0.000000 1.000000 1.000000
v 1.534542 2.465315 -2.962337 0.000000 0.000000 1.000000 1.000000
v 3.568379 3.090684 2.285404 0.000000 0.000000 1.000000 1.000000
v 5.604364 2.704405 3.020788 0.000000 0.000000 1.000000 1.000000
v 2.490065 2.827367 3.069492 0.000000 0.000000 1.000000 1.000000
v 1.533194 3.019397 1.949670 0.000000 0.000000 1.000000 1.000000
v 2.490065 2.827367 3.069492 0.000000 0.000000 1.000000 1.000000
v 0.259821 3.299636 3.066415 0.000000 0.000000 1.000000 1.000000
v 3.522544 2.514737 -2.981930 0.000000 0.000000 1.000000 1.000000
v 4.879468 2.860657 -3.048442 0.000000 0.000000 1.000000 0.588235
v 4.179962 3.048946 -2.066654 0.000000 0.000000 1.000000 1.000000
v 2.440010 3.670413 -3.115022 0.000000 0.000000 1.000000 1.000000
v 3.522544 2.514737 -2.981930 0.000000 0.000000 1.000000 1.000000
v 4.179962 3.048946 -2.066654 0.000000 0.000000 1.000000 1.000000
v 1.529722 2.981680 -2.054597 0.000000 0.000000 1.000000 1.000000
v 2.440010 3.670413 -3.115022 0.000000 0.000000 1.000000 1.000000
v 4.179962 3.048946 -2.066654 0.000000 0.000000 1.000000 1.000000
v 1.534542 2.465315 -2.962337 0.000000 0.000000 1.000000 1.000000
v 2.440010 3.670413 -3.115022 0.000000 0.000000 1.000000 1.000000
v 1.529722 2.981680 -2.054597 0.000000 0.000000 1.000000 1.000000
v 0.224776 3.160899 -3.207889 0.000000 0.000000 1.000000 1.000000
v 1.534542 2.465315 -2.962337 0.000000 0.000000 1.000000 1.000000
v 1.529722 2.981680 -2.054597 0.000000 0.000000 1.000000 1.000000
v -0.000001 3.492380 -1.998770 0.000000 0.000000 1.000000 1.000000
v 0.224776 3.160899 -3.207889 0.000000 0.000000 1.000000 1.000000
v 1.529722 2.981680 -2.054597 0.000000 0.000000 1.000000 1.000000
v 6.971386 2.867596 -2.980368 0.000000 0.000000 1.000000 0.000000
v 8.482080 3.074785 -1.944001 0.000000 0.000000 1.000000 0.000000
v 6.397358 3.126224 -1.887561 0.000000 0.000000 1.000000 0.000000
v 8.035100 2.867603 -3.018729 0.000000 0.000000 1.000000 0.000000
v 6.014630 2.852475 -2.995051 0.000000 0.000000 1.000000 0.000000
v 4.179962 3.048946 -2.066654 0.000000 0.000000 1.000000 1.000000
v 4.879468 2.860657 -3.048442 0.000000 0.000000 1.000000 0.588235
v 6.397358 3.126224 -1.887561 0.000000 0.000000 1.000000 0.000000
v 8.794707 3.214922 3.132476 0.000000 0.000000 1.000000 1.000000
v 7.213124 3.154939 2.087041 0.000000 0.000000 1.000000 1.000000
v 8.999998 1.637554 2.000209 0.000000 0.000000 1.000000 1.000000
v 0.000000 1.637553 2.000211 0.000000 0.000000 1.000000 1.000000
v 5.463286 2.836082 1.974026 0.000000 0.000000 1.000000 1.000000
v 3.568379 3.090684 2.285404 0.000000 0.000000 1.000000 1.000000
v 1.533194 3.019397 1.949670 0.000000 0.000000 1.000000 1.000000
v 0.259821 3.299636 3.066415 0.000000 0.000000 1.000000 1.000000
v 9.000000 1.637556 -1.998770 0.000000 0.000000 1.000000 0.000000
v -0.000000 1.637555 -1.998769 0.000000 0.000000 1.000000 1.000000
v 8.482080 3.074785 -1.944001 0.000000 0.000000 1.000000 0.000000
v 6.397358 3.126224 -1.887561 0.000000 0.000000 1.000000 0.000000
v 4.179962 3.048946 -2.066654 0.000000 0.000000 1.000000 1.000000
v 1.529722 2.981680 -2.054597 0.000000 0.000000 1.000000 1.000000
v -0.000001 3.492380 -1.998770 0.000000 0.000000 1.000000 1.000000
v 8.035100 2.867603 -3.018729 0.000000 0.000000 1.000000 0.000000
v 8.999999 -3.492383 -2.999589 0.000000 0.000000 1.000000 0.294118
v 9.000000 2.885485 -3.066584 0.000000 0.000000 1.000000 0.298039
v 7.999999 -3.492383 -2.999589 0.000000 0.000000 1.000000 0.000000
v 4.879468 2.860657 -3.048442 0.000000 0.000000 1.000000 0.588235
v 4.999999 -3.492383 -2.999589 0.000000 0.000000 1.000000 0.000000
v 6.014630 2.852475 -2.995051 0.000000 0.000000 1.000000 0.000000
v 5.999999 -3.492383 -3.000409 0.000000 0.000000 1.000000 0.000000
v 6.971386 2.867596 -2.980368 0.000000 0.000000 1.000000 0.000000
v 7.999999 -3.492383 -2.999589 0.000000 0.000000 1.000000 0.000000
v 8.035100 2.867603 -3.018729 0.000000 0.000000 1.000000 0.000000
v 6.999999 -3.492383 -3.000409 0.000000 0.000000 1.000000 0.000000
v 6.014630 2.852475 -2.995051 0.000000 0.000000 1.000000 0.000000
v 5.999999 -3.492383 -3.000409 0.000000 0.000000 1.000000 0.000000
v 6.971386 2.867596 -2.980368 0.000000 0.000000 1.000000 0.000000
v 6.999999 -3.492383 -3.000409 0.000000 0.000000 1.000000 0.000000
v 8.794707 3.214922 3.132476 0.000000 0.000000 1.000000 1.000000
v 8.999996 -3.492382 3.000410 0.000000 0.000000 1.000000 1.000000
v 5.604364 2.704405 3.020788 0.000000 0.000000 1.000000 1.000000
v -0.000000 -3.492383 3.000409 0.000000 0.000000 1.000000 1.000000
v 2.490065 2.827367 3.069492 0.000000 0.000000 1.000000 1.000000
v 0.259821 3.299636 3.066415 0.000000 0.000000 1.000000 1.000000
v -0.000001 -3.492383 -2.999589 0.000000 0.000000 1.000000 1.000000
v -0.000000 -3.492383 3.000409 0.000000 0.000000 1.000000 1.000000
v 4.999999 -3.492383 -2.999589 0.000000 0.000000 1.000000 0.000000
v 8.999996 -3.492382 3.000410 0.000000 0.000000 1.000000 1.000000
v 5.999999 -3.492383 -3.000409 0.000000 0.000000 1.000000 0.000000
v 6.999999 -3.492383 -3.000409 0.000000 0.000000 1.000000 0.000000
v 7.999999 -3.492383 -2.999589 0.000000 0.000000 1.000000 0.000000
v 8.999999 -3.492383 -2.999589 0.000000 0.000000 1.000000 0.294118
v 3.522544 2.514737 -2.981930 0.000000 0.000000 1.000000 1.000000
v 4.999999 -3.492383 -2.999589 0.000000 0.000000 1.000000 0.000000
v 4.879468 2.860657 -3.048442 0.000000 0.000000 1.000000 0.588235
v -0.000001 -3.492383 -2.999589 0.000000 0.000000 1.000000 1.000000
v 0.224776 3.160899 -3.207889 0.000000 0.000000 1.000000 1.000000
v 0.000000 1.637553 2.000211 0.000000 0.000000 1.000000 1.000000
v -0.000000 1.637555 -1.998769 0.000000 0.000000 1.000000 1.000000
v 8.999998 1.637554 2.000209 0.000000 0.000000 1.000000 1.000000
v 9.000000 1.637556 -1.998770 0.000000 0.000000 1.000000 0.000000
vt 1.468750 0.839722
vt 1.279297 0.781860
vt 1.462891 0.763062
vt 1.125000 0.821655
vt 0.927246 0.721680
vt 1.322266 0.703369
vt 2.267578 0.597900
vt 2.353516 0.582031
vt 2.316406 0.711914
vt 2.800781 0.577148
vt 2.886719 0.565430
vt 2.832031 0.695068
vt 1.908203 0.760498
vt 1.708008 0.842896
vt 1.687500 0.777100
vt 2.208984 0.826050
vt 2.324219 0.754517
vt 2.441406 0.825562
vt -0.000388 2.512695
vt -0.135620 2.657227
vt -0.248901 2.506836
vt 2.068359 0.809814
vt 1.821289 0.712891
vt 2.197266 0.716309
vt 2.580078 0.847656
vt 2.457031 0.712891
vt 2.730469 0.727295
vt 1.650391 0.577637
vt 1.777344 0.571289
vt 1.741211 0.662842
vt 1.352539 0.550537
vt 1.524414 0.575684
vt 1.533203 0.692871
vt 1.228516 0.699219
vt 1.337891 0.553711
vt 1.506836 0.689453
vt 1.131836 0.588867
vt 1.299805 0.557373
vt 1.185547 0.695312
vt 0.895020 0.531250
vt 1.035156 0.578613
vt 0.998535 0.675293
vt 0.782227 0.698730
vt 0.823730 0.560547
vt 0.973633 0.691650
vt 2.517578 0.589600
vt 2.693359 0.709473
vt 2.480469 0.712646
vt 2.642578 0.590820
vt 2.148438 0.591797
vt 1.938477 0.708496
vt 2.017578 0.597168
vt 2.189453 0.711426
vt 2.121094 0.236816
vt 1.929688 0.228027
vt 2.152344 0.040039
vt 1.028320 0.040527
vt 1.710938 0.192383
vt 1.475586 0.217773
vt 1.220703 0.212402
vt 1.056641 0.248047
vt 1.030273 0.282715
vt 2.154297 0.282715
vt 1.094727 0.462402
vt 1.354492 0.464844
vt 1.631836 0.455566
vt 1.963867 0.450195
vt 2.154297 0.514404
vt 0.563477 2.556641
vt 0.684082 1.762207
vt 0.684082 2.559570
vt 0.559082 1.762207
vt 0.169067 2.555664
vt 0.184204 1.762207
vt 0.310791 2.554688
vt 0.309082 1.762207
vt 0.430420 2.556641
vt 0.559082 1.762207
vt 0.563477 2.556641
vt 0.434082 1.762207
vt 0.310791 2.554688
vt 0.309082 1.762207
vt 0.430420 2.556641
vt 0.434082 1.762207
vt 0.658203 0.174316
vt 0.684082 1.012489
vt 0.259521 0.238281
vt -0.440674 1.012413
vt -0.129395 0.222656
vt -0.407471 0.163574
vt -0.440674 1.762207
vt -0.440674 1.012459
vt 0.184204 1.762207
vt 0.684082 1.012474
vt 0.309082 1.762207
vt 0.434082 1.762207
vt 0.559082 1.762207
vt 0.684082 1.762207
vt -0.000418 2.512695
vt 0.184082 1.762207
vt 0.169189 2.555664
vt -0.440674 1.762207
vt -0.413818 2.593750
vt 1.206055 1.278320
vt 1.706055 1.278320
vt 1.206055 2.403320
vt 1.706055 2.403320
vt1 1.468750 0.839722
vt1 1.279297 0.781860
vt1 1.462891 0.763062
vt1 1.125000 0.821655
vt1 0.927246 0.721680
vt1 1.322266 0.703369
vt1 2.267578 0.597900
vt1 2.353516 0.582031
vt1 2.316406 0.711914
vt1 2.800781 0.577148
vt1 2.886719 0.565430
vt1 2.832031 0.695068
vt1 1.908203 0.760498
vt1 1.708008 0.842896
vt1 1.687500 0.777100
vt1 2.208984 0.826050
vt1 2.324219 0.754517
vt1 2.441406 0.825562
vt1 -0.000388 2.512695
vt1 -0.135620 2.657227
vt1 -0.248901 2.506836
vt1 2.068359 0.809814
vt1 1.821289 0.712891
vt1 2.197266 0.716309
vt1 2.580078 0.847656
vt1 2.457031 0.712891
vt1 2.730469 0.727295
vt1 1.650391 0.577637
vt1 1.777344 0.571289
vt1 1.741211 0.662842
vt1 1.352539 0.550537
vt1 1.524414 0.575684
vt1 1.533203 0.692871
vt1 1.228516 0.699219
vt1 1.337891 0.553711
vt1 1.506836 0.689453
vt1 1.131836 0.588867
vt1 1.299805 0.557373
vt1 1.185547 0.695312
vt1 0.895020 0.531250
vt1 1.035156 0.578613
vt1 0.998535 0.675293
vt1 0.782227 0.698730
vt1 0.823730 0.560547
vt1 0.973633 0.691650
vt1 2.517578 0.589600
vt1 2.693359 0.709473
vt1 2.480469 0.712646
vt1 2.642578 0.590820
vt1 2.148438 0.591797
vt1 1.938477 0.708496
vt1 2.017578 0.597168
vt1 2.189453 0.711426
vt1 2.121094 0.236816
vt1 1.929688 0.228027
vt1 2.152344 0.040039
vt1 1.028320 0.040527
vt1 1.710938 0.192383
vt1 1.475586 0.217773
vt1 1.220703 0.212402
vt1 1.056641 0.248047
vt1 1.030273 0.282715
vt1 2.154297 0.282715
vt1 1.094727 0.462402
vt1 1.354492 0.464844
vt1 1.631836 0.455566
vt1 1.963867 0.450195
vt1 2.154297 0.514404
vt1 0.563477 2.556641
vt1 0.684082 1.762207
vt1 0.684082 2.559570
vt1 0.559082 1.762207
vt1 0.169067 2.555664
vt1 0.184204 1.762207
vt1 0.310791 2.554688
vt1 0.309082 1.762207
vt1 0.430420 2.556641
vt1 0.559082 1.762207
vt1 0.563477 2.556641
vt1 0.434082 1.762207
vt1 0.310791 2.554688
vt1 0.309082 1.762207
vt1 0.430420 2.556641
vt1 0.434082 1.762207
vt1 0.658203 0.174316
vt1 0.684082 1.012489
vt1 0.259521 0.238281
vt1 -0.440674 1.012413
vt1 -0.129395 0.222656
vt1 -0.407471 0.163574
vt1 -0.440674 1.762207
vt1 -0.440674 1.012459
vt1 0.184204 1.762207
vt1 0.684082 1.012474
vt1 0.309082 1.762207
vt1 0.434082 1.762207
vt1 0.559082 1.762207
vt1 0.684082 1.762207
vt1 -0.000418 2.512695
vt1 0.184082 1.762207
vt1 0.169189 2.555664
vt1 -0.440674 1.762207
vt1 -0.413818 2.593750
vt1 1.206055 1.278320
vt1 1.706055 1.278320
vt1 1.206055 2.403320
vt1 1.706055 2.403320
vn 0.000000 1.000000 -0.000000
vn 0.000000 1.000000 -0.000000
vn 0.000000 1.000000 -0.000000
vn 0.000000 1.000000 -0.000000
vn 0.000000 1.000000 -0.000000
vn 0.000000 1.000000 -0.000000
vn 0.000000 1.000000 -0.000000
vn 0.000000 1.000000 -0.000000
vn 0.000000 1.000000 -0.000000
vn 0.000000 1.000000 -0.000000
vn 0.000000 1.000000 -0.000000
vn 0.000000 1.000000 -0.000000
vn 0.000000 1.000000 -0.000000
vn 0.000000 1.000000 -0.000000
vn 0.000000 1.000000 -0.000000
vn 0.000000 1.000000 -0.000000
vn 0.000000 1.000000 -0.000000
vn 0.000000 1.000000 -0.000000
vn 0.000000 -0.000000 -1.000000
vn 0.000000 -0.000000 -1.000000
vn 0.000000 -0.000000 -1.000000
vn 0.000000 1.000000 -0.000000
vn 0.000000 1.000000 -0.000000
vn 0.000000 1.000000 -0.000000
vn 0.000000 1.000000 -0.000000
vn 0.000000 1.000000 -0.000000
vn 0.000000 1.000000 -0.000000
vn -1.000000 0.000000 0.000000
vn -1.000000 0.000000 0.000000
vn -1.000000 0.000000 0.000000
vn 1.000000 0.000000 0.000000
vn 1.000000 0.000000 0.000000
vn 1.000000 0.000000 0.000000
vn 0.000000 1.000000 -0.000000
vn 0.000000 1.000000 -0.000000
vn 0.000000 1.000000 -0.000000
vn -1.000000 0.000000 0.000000
vn -1.000000 0.000000 0.000000
vn -1.000000 0.000000 0.000000
vn 1.000000 0.000000 0.000000
vn 1.000000 0.000000 0.000000
vn 1.000000 0.000000 0.000000
vn 0.000000 1.000000 -0.000000
vn 0.000000 1.000000 -0.000000
vn 0.000000 1.000000 -0.000000
vn 0.000000 1.000000 -0.000000
vn 0.000000 1.000000 -0.000000
vn 0.000000 1.000000 -0.000000
vn 0.000000 1.000000 -0.000000
vn 0.000000 1.000000 -0.000000
vn 0.000000 1.000000 -0.000000
vn 0.000000 1.000000 -0.000000
vn 0.000000 1.000000 -0.000000
vn 0.000000 -0.000000 -1.000000
vn 0.000000 -0.000000 -1.000000
vn 0.000000 -0.000000 -1.000000
vn 0.000000 -0.000000 -1.000000
vn 0.000000 -0.000000 -1.000000
vn 0.000000 -0.000000 -1.000000
vn 0.000000 -0.000000 -1.000000
vn 0.000000 -0.000000 -1.000000
vn 0.000000 0.000000 1.000000
vn 0.000000 0.000000 1.000000
vn 0.000000 0.000000 1.000000
vn 0.000000 0.000000 1.000000
vn 0.000000 0.000000 1.000000
vn 0.000000 0.000000 1.000000
vn 0.000000 0.000000 1.000000
vn 0.000000 -0.000000 -1.000000
vn 0.000000 -0.000000 -1.000000
vn 0.000000 -0.000000 -1.000000
vn 0.000000 -0.000000 -1.000000
vn 0.000000 -0.000000 -1.000000
vn 0.000000 -0.000000 -1.000000
vn 0.000000 -0.000000 -1.000000
vn 0.000000 -0.000000 -1.000000
vn 0.000000 -0.000000 -1.000000
vn 0.000000 -0.000000 -1.000000
vn 0.000000 -0.000000 -1.000000
vn 0.000000 -0.000000 -1.000000
vn 0.000000 -0.000000 -1.000000
vn 0.000000 -0.000000 -1.000000
vn 0.000000 -0.000000 -1.000000
vn 0.000000 -0.000000 -1.000000
vn 0.000000 0.000000 1.000000
vn 0.000000 0.000000 1.000000
vn 0.000000 0.000000 1.000000
vn 0.000000 0.000000 1.000000
vn 0.000000 0.000000 1.000000
vn 0.000000 0.000000 1.000000
vn 0.000000 -1.000000 0.000000
vn 0.000000 -1.000000 0.000000
vn 0.000000 -1.000000 0.000000
vn 0.000000 -1.000000 0.000000
vn 0.000000 -1.000000 0.000000
vn 0.000000 -1.000000 0.000000
vn 0.000000 -1.000000 0.000000
vn 0.000000 -1.000000 0.000000
vn 0.000000 -0.000000 -1.000000
vn 0.000000 -0.000000 -1.000000
vn 0.000000 -0.000000 -1.000000
vn 0.000000 -0.000000 -1.000000
vn 0.000000 -0.000000 -1.000000
vn 0.000000 1.000000 -0.000000
vn 0.000000 1.000000 -0.000000
vn 0.000000 1.000000 -0.000000
vn 0.000000 1.000000 -0.000000
tan 0.000000 0.000000 1.000000 1.000000
tan 0.000000 0.000000 1.000000 1.000000
tan 0.000000 0.000000 1.000000 1.000000
tan 0.000000 0.000000 1.000000 1.000000
tan 0.000000 0.000000 1.000000 1.000000
tan 0.000000 0.000000 1.000000 1.000000
tan 0.000000 -0.000000 -1.000000 1.000000
tan 0.000000 -0.000000 -1.000000 1.000000
tan 0.000000 -0.000000 -1.000000 1.000000
tan 0.000000 -0.000000 -1.000000 1.000000
tan 0.000000 -0.000000 -1.000000 1.000000
tan 0.000000 -0.000000 -1.000000 1.000000
tan 0.000000 0.000000 1.000000 1.000000
tan 0.000000 0.000000 1.000000 1.000000
tan 0.000000 0.000000 1.000000 1.000000
tan 0.000000 0.000000 1.000000 1.000000
tan 0.000000 0.000000 1.000000 1.000000
tan 0.000000 0.000000 1.000000 1.000000
tan 0.000000 -1.000000 0.000000 1.000000
tan 0.000000 -1.000000 0.000000 1.000000
tan 0.000000 -1.000000 0.000000 1.000000
tan 0.000000 0.000000 1.000000 1.000000
tan 0.000000 0.000000 1.000000 1.000000
tan 0.000000 0.000000 1.000000 1.000000
tan 0.000000 0.000000 1.000000 1.000000
tan 0.000000 0.000000 1.000000 1.000000
tan 0.000000 0.000000 1.000000 1.000000
tan 0.000000 -0.000000 -1.000000 1.000000
tan 0.000000 -0.000000 -1.000000 1.000000
tan 0.000000 -0.000000 -1.000000 1.000000
tan 0.000000 -0.000000 -1.000000 1.000000
tan 0.000000 -0.000000 -1.000000 1.000000
tan 0.000000 -0.000000 -1.000000 1.000000
tan 0.000000 -0.000000 -1.000000 1.000000
tan 0.000000 -0.000000 -1.000000 1.000000
tan 0.000000 -0.000000 -1.000000 1.000000
tan 0.000000 -0.000000 -1.000000 1.000000
tan 0.000000 -0.000000 -1.000000 1.000000
tan 0.000000 -0.000000 -1.000000 1.000000
tan 0.000000 -0.000000 -1.000000 1.000000
tan 0.000000 -0.000000 -1.000000 1.000000
tan 0.000000 -0.000000 -1.000000 1.000000
tan 0.000000 -0.000000 -1.000000 1.000000
tan 0.000000 -0.000000 -1.000000 1.000000
tan 0.000000 -0.000000 -1.000000 1.000000
tan 0.000000 -0.000000 -1.000000 1.000000
tan 0.000000 -0.000000 -1.000000 1.000000
tan 0.000000 -0.000000 -1.000000 1.000000
tan 0.000000 -0.000000 -1.000000 1.000000
tan 0.000000 -0.000000 -1.000000 1.000000
tan 0.000000 -0.000000 -1.000000 1.000000
tan 0.000000 -0.000000 -1.000000 1.000000
tan 0.000000 -0.000000 -1.000000 1.000000
tan 0.000000 -1.000000 0.000000 1.000000
tan 0.000000 -1.000000 0.000000 1.000000
tan 0.000000 -1.000000 0.000000 1.000000
tan 0.000000 -1.000000 0.000000 1.000000
tan 0.000000 -1.000000 0.000000 1.000000
tan 0.000000 -1.000000 0.000000 1.000000
tan 0.000000 -1.000000 0.000000 1.000000
tan 0.000000 -1.000000 0.000000 1.000000
tan 0.000000 -1.000000 0.000000 1.000000
tan 0.000000 -1.000000 0.000000 1.000000
tan 0.000000 -1.000000 0.000000 1.000000
tan 0.000000 -1.000000 0.000000 1.000000
tan 0.000000 -1.000000 0.000000 1.000000
tan 0.000000 -1.000000 0.000000 1.000000
tan 0.000000 -1.000000 0.000000 1.000000
tan 0.000000 -1.000000 0.000000 1.000000
tan 0.000000 -1.000000 0.000000 1.000000
tan 0.000000 -1.000000 0.000000 1.000000
tan 0.000000 -1.000000 0.000000 1.000000
tan 0.000000 -1.000000 0.000000 1.000000
tan 0.000000 -1.000000 0.000000 1.000000
tan 0.000000 -1.000000 0.000000 1.000000
tan 0.000000 -1.000000 0.000000 1.000000
tan 0.000000 -1.000000 0.000000 1.000000
tan 0.000000 -1.000000 0.000000 1.000000
tan 0.000000 -1.000000 0.000000 1.000000
tan 0.000000 -1.000000 0.000000 1.000000
tan 0.000000 -1.000000 0.000000 1.000000
tan 0.000000 -1.000000 0.000000 1.000000
tan 0.000000 -1.000000 0.000000 1.000000
tan 0.000000 -1.000000 0.000000 1.000000
tan 0.000000 1.000000 -0.000000 1.000000
tan 0.000000 1.000000 -0.000000 1.000000
tan 0.000000 1.000000 -0.000000 1.000000
tan 0.000000 1.000000 -0.000000 1.000000
tan 0.000000 1.000000 -0.000000 1.000000
tan 0.000000 1.000000 -0.000000 1.000000
tan 0.000000 0.000000 1.000000 1.000000
tan 0.000000 0.000000 1.000000 1.000000
tan 0.000000 0.000000 1.000000 1.000000
tan 0.000000 0.000000 1.000000 1.000000
tan 0.000000 0.000000 1.000000 1.000000
tan 0.000000 0.000000 1.000000 1.000000
tan 0.000000 0.000000 1.000000 1.000000
tan 0.000000 0.000000 1.000000 1.000000
tan 0.000000 -1.000000 0.000000 1.000000
tan 0.000000 -1.000000 0.000000 1.000000
tan 0.000000 -1.000000 0.000000 1.000000
tan 0.000000 -1.000000 0.000000 1.000000
tan 0.000000 -1.000000 0.000000 1.000000
tan -1.000000 0.000000 0.000000 1.000000
tan -1.000000 0.000000 0.000000 1.000000
tan -1.000000 0.000000 0.000000 1.000000
tan -1.000000 0.000000 0.000000 1.000000
f 3/3/3 2/2/2 1/1/1
f 6/6/6 5/5/5 4/4/4
f 9/9/9 8/8/8 7/7/7
f 12/12/12 11/11/11 10/10/10
f 15/15/15 14/14/14 13/13/13
f 18/18/18 17/17/17 16/16/16
f 21/21/21 20/20/20 19/19/19
f 24/24/24 23/23/23 22/22/22
f 27/27/27 26/26/26 25/25/25
f 30/30/30 29/29/29 28/28/28
f 33/33/33 32/32/32 31/31/31
f 36/36/36 35/35/35 34/34/34
f 39/39/39 38/38/38 37/37/37
f 42/42/42 41/41/41 40/40/40
f 45/45/45 44/44/44 43/43/43
f 48/48/48 47/47/47 46/46/46
f 49/49/49 46/46/46 47/47/47
f 52/52/52 51/51/51 50/50/50
f 53/53/53 50/50/50 51/51/51
f 56/56/56 55/55/55 54/54/54
f 56/56/56 57/57/57 55/55/55
f 58/58/58 55/55/55 57/57/57
f 57/57/57 59/59/59 58/58/58
f 57/57/57 60/60/60 59/59/59
f 60/60/60 57/57/57 61/61/61
f 64/64/64 63/63/63 62/62/62
f 64/64/64 65/65/65 63/63/63
f 66/66/66 63/63/63 65/65/65
f 67/67/67 63/63/63 66/66/66
f 68/68/68 63/63/63 67/67/67
f 71/71/71 70/70/70 69/69/69
f 72/72/72 69/69/69 70/70/70
f 75/75/75 74/74/74 73/73/73
f 76/76/76 74/74/74 75/75/75
f 79/79/79 78/78/78 77/77/77
f 80/80/80 77/77/77 78/78/78
f 83/83/83 82/82/82 81/81/81
f 84/84/84 82/82/82 83/83/83
f 87/87/87 86/86/86 85/85/85
f 86/86/86 87/87/87 88/88/88
f 87/87/87 89/89/89 88/88/88
f 89/89/89 90/90/90 88/88/88
f 93/93/93 92/92/92 91/91/91
f 92/92/92 93/93/93 94/94/94
f 95/95/95 94/94/94 93/93/93
f 96/96/96 94/94/94 95/95/95
f 97/97/97 94/94/94 96/96/96
f 98/98/98 94/94/94 97/97/97
f 101/101/101 100/100/100 99/99/99
f 100/100/100 102/102/102 99/99/99
f 99/99/99 102/102/102 21/21/21
f 21/21/21 102/102/102 103/103/103
f 106/106/106 105/105/105 104/104/104
f 107/107/107 105/105/105 106/106/106
