mtllib SM_Mast_LOD2@000002909DC05600.mtl
g SM_Mast_LOD2@000002909DC05600
#Vertices 162
#Indices 480
#Section 0 Offset 0 NumIndices 480 MaterialIndex 0 MI_Wood
v 0.000001 0.000009 9.847055 0.000000 0.000000 1.000000 1.000000
v 0.000001 157.230377 4.281184 0.000000 0.000000 1.000000 1.000000
v 0.333377 157.230362 4.268062 0.000000 0.000000 1.000000 1.000000
v 0.772544 0.000001 9.816464 0.000000 0.000000 1.000000 1.000000
v 0.668858 157.230362 4.228424 0.000000 0.000000 1.000000 1.000000
v 1.540361 0.000001 9.725445 0.000000 0.000000 1.000000 1.000000
v 2.298525 0.000003 9.574793 0.000000 0.000000 1.000000 1.000000
v 0.999795 157.230377 4.162701 0.000000 0.000000 1.000000 1.000000
v 1.320704 157.230362 4.072358 0.000000 0.000000 1.000000 1.000000
v 3.042909 0.000001 9.365105 0.000000 0.000000 1.000000 1.000000
v 1.636944 157.230362 3.955735 0.000000 0.000000 1.000000 1.000000
v 3.768188 0.000001 9.097284 0.000000 0.000000 1.000000 1.000000
v 1.942824 157.230362 3.814765 0.000000 0.000000 1.000000 1.000000
v 4.470298 0.000001 8.773449 0.000000 0.000000 1.000000 1.000000
v 5.144803 0.000002 8.395885 0.000000 0.000000 1.000000 1.000000
v 2.237214 157.230377 3.650010 0.000000 0.000000 1.000000 1.000000
v 2.514471 157.230362 3.464947 0.000000 0.000000 1.000000 1.000000
v 5.787956 0.000001 7.966434 0.000000 0.000000 1.000000 1.000000
v 2.779842 157.230347 3.255772 0.000000 0.000000 1.000000 1.000000
v 6.394977 0.000001 7.487597 0.000000 0.000000 1.000000 1.000000
v 6.962097 0.000002 6.963205 0.000000 0.000000 1.000000 1.000000
v 3.026844 157.230377 3.027441 0.000000 0.000000 1.000000 1.000000
v 7.487490 0.000001 6.395106 0.000000 0.000000 1.000000 1.000000
v 3.255552 157.230377 2.780118 0.000000 0.000000 1.000000 1.000000
v 7.966343 0.000001 5.788084 0.000000 0.000000 1.000000 1.000000
v 3.463712 157.230377 2.516202 0.000000 0.000000 1.000000 1.000000
v 8.395658 0.000001 5.145171 0.000000 0.000000 1.000000 1.000000
v 3.650373 157.230377 2.236620 0.000000 0.000000 1.000000 1.000000
v 8.773416 0.000002 4.470368 0.000000 0.000000 1.000000 1.000000
v 3.814545 157.230377 1.943301 0.000000 0.000000 1.000000 1.000000
v 9.097177 0.000002 3.768450 0.000000 0.000000 1.000000 1.000000
v 3.955311 157.230377 1.638058 0.000000 0.000000 1.000000 1.000000
v 9.365043 0.000001 3.043103 0.000000 0.000000 1.000000 1.000000
v 4.071740 157.230377 1.322701 0.000000 0.000000 1.000000 1.000000
v 9.574716 0.000002 2.298830 0.000000 0.000000 1.000000 1.000000
v 4.162870 157.230377 0.999120 0.000000 0.000000 1.000000 1.000000
v 9.725392 0.000001 1.540679 0.000000 0.000000 1.000000 1.000000
v 4.228467 157.230377 0.668724 0.000000 0.000000 1.000000 1.000000
v 9.816416 0.000002 0.773096 0.000000 0.000000 1.000000 1.000000
v 4.267888 157.230377 0.336052 0.000000 0.000000 1.000000 1.000000
v 4.281199 157.230347 0.001926 0.000000 0.000000 1.000000 1.000000
v 9.847054 -0.000000 -0.000004 0.000000 0.000000 1.000000 1.000000
v 9.816489 0.000001 -0.772253 0.000000 0.000000 1.000000 1.000000
v 4.267871 157.230377 -0.336333 0.000000 0.000000 1.000000 1.000000
v 4.228689 157.230377 -0.667331 0.000000 0.000000 1.000000 1.000000
v 9.725442 -0.000001 -1.540362 0.000000 0.000000 1.000000 1.000000
v 4.163012 157.230347 -0.998502 0.000000 0.000000 1.000000 1.000000
v 9.574739 -0.000001 -2.298724 0.000000 0.000000 1.000000 1.000000
v 9.365176 0.000001 -3.042692 0.000000 0.000000 1.000000 1.000000
v 4.071542 157.230377 -1.323370 0.000000 0.000000 1.000000 1.000000
v 3.956110 157.230362 -1.636129 0.000000 0.000000 1.000000 1.000000
v 9.097282 -0.000001 -3.768186 0.000000 0.000000 1.000000 1.000000
v 3.814806 157.230362 -1.942791 0.000000 0.000000 1.000000 1.000000
v 8.773449 -0.000001 -4.470295 0.000000 0.000000 1.000000 1.000000
v 8.395884 0.000001 -5.144799 0.000000 0.000000 1.000000 1.000000
v 3.650028 157.230377 -2.237233 0.000000 0.000000 1.000000 1.000000
v 3.464967 157.230362 -2.514487 0.000000 0.000000 1.000000 1.000000
v 7.966433 -0.000001 -5.787951 0.000000 0.000000 1.000000 1.000000
v 3.255780 157.230347 -2.779870 0.000000 0.000000 1.000000 1.000000
v 7.487596 -0.000001 -6.394971 0.000000 0.000000 1.000000 1.000000
v 6.963212 -0.000000 -6.962084 0.000000 0.000000 1.000000 1.000000
v 3.027457 157.230377 -3.026863 0.000000 0.000000 1.000000 1.000000
v 6.395107 -0.000000 -7.487482 0.000000 0.000000 1.000000 1.000000
v 2.780138 157.230377 -3.255569 0.000000 0.000000 1.000000 1.000000
v 5.788080 -0.000000 -7.966341 0.000000 0.000000 1.000000 1.000000
v 2.516220 157.230377 -3.463729 0.000000 0.000000 1.000000 1.000000
v 5.145173 -0.000000 -8.395650 0.000000 0.000000 1.000000 1.000000
v 2.236639 157.230377 -3.650391 0.000000 0.000000 1.000000 1.000000
v 4.470367 0.000000 -8.773412 0.000000 0.000000 1.000000 1.000000
v 1.943320 157.230377 -3.814562 0.000000 0.000000 1.000000 1.000000
v 3.768516 -0.000000 -9.097145 0.000000 0.000000 1.000000 1.000000
v 1.638078 157.230377 -3.955328 0.000000 0.000000 1.000000 1.000000
v 3.042983 0.000000 -9.365080 0.000000 0.000000 1.000000 1.000000
v 1.322720 157.230377 -4.071758 0.000000 0.000000 1.000000 1.000000
v 2.298862 0.000001 -9.574709 0.000000 0.000000 1.000000 1.000000
v 0.999070 157.230377 -4.162904 0.000000 0.000000 1.000000 1.000000
v 1.539774 0.000002 -9.725539 0.000000 0.000000 1.000000 1.000000
v 0.668159 157.230377 -4.228573 0.000000 0.000000 1.000000 1.000000
v 0.772788 0.000003 -9.816444 0.000000 0.000000 1.000000 1.000000
v 0.336308 157.230377 -4.267890 0.000000 0.000000 1.000000 1.000000
v -0.001524 157.230347 -4.281220 0.000000 0.000000 1.000000 1.000000
v 0.000001 -0.000002 -9.847055 0.000000 0.000000 1.000000 1.000000
v -0.773099 0.000000 -9.816416 0.000000 0.000000 1.000000 1.000000
v -0.336076 157.230377 -4.267908 0.000000 0.000000 1.000000 1.000000
v -0.668744 157.230377 -4.228485 0.000000 0.000000 1.000000 1.000000
v -1.540683 -0.000000 -9.725392 0.000000 0.000000 1.000000 1.000000
v -0.999141 157.230377 -4.162887 0.000000 0.000000 1.000000 1.000000
v -2.298832 0.000000 -9.574715 0.000000 0.000000 1.000000 1.000000
v -1.322721 157.230377 -4.071757 0.000000 0.000000 1.000000 1.000000
v -3.043105 -0.000001 -9.365039 0.000000 0.000000 1.000000 1.000000
v -1.638077 157.230377 -3.955328 0.000000 0.000000 1.000000 1.000000
v -3.768450 -0.000000 -9.097173 0.000000 0.000000 1.000000 1.000000
v -1.943320 157.230377 -3.814561 0.000000 0.000000 1.000000 1.000000
v -4.470365 0.000000 -8.773412 0.000000 0.000000 1.000000 1.000000
v -2.236639 157.230377 -3.650390 0.000000 0.000000 1.000000 1.000000
v -5.145168 -0.000000 -8.395653 0.000000 0.000000 1.000000 1.000000
v -2.516220 157.230377 -3.463730 0.000000 0.000000 1.000000 1.000000
v -5.788081 -0.000000 -7.966339 0.000000 0.000000 1.000000 1.000000
v -2.780135 157.230377 -3.255571 0.000000 0.000000 1.000000 1.000000
v -6.395105 -0.000000 -7.487484 0.000000 0.000000 1.000000 1.000000
v -3.027458 157.230377 -3.026862 0.000000 0.000000 1.000000 1.000000
v -6.963209 -0.000000 -6.962088 0.000000 0.000000 1.000000 1.000000
v -3.255784 157.230347 -2.779866 0.000000 0.000000 1.000000 1.000000
v -7.487596 -0.000001 -6.394975 0.000000 0.000000 1.000000 1.000000
v -7.966432 -0.000001 -5.787955 0.000000 0.000000 1.000000 1.000000
v -3.464966 157.230362 -2.514488 0.000000 0.000000 1.000000 1.000000
v -8.395886 0.000001 -5.144798 0.000000 0.000000 1.000000 1.000000
v -3.650028 157.230377 -2.237234 0.000000 0.000000 1.000000 1.000000
v -3.814808 157.230362 -1.942787 0.000000 0.000000 1.000000 1.000000
v -8.773448 -0.000001 -4.470297 0.000000 0.000000 1.000000 1.000000
v -9.097282 -0.000001 -3.768188 0.000000 0.000000 1.000000 1.000000
v -3.956110 157.230362 -1.636128 0.000000 0.000000 1.000000 1.000000
v -9.365178 0.000001 -3.042689 0.000000 0.000000 1.000000 1.000000
v -4.071541 157.230377 -1.323371 0.000000 0.000000 1.000000 1.000000
v -4.163011 157.230347 -0.998504 0.000000 0.000000 1.000000 1.000000
v -9.574739 -0.000001 -2.298725 0.000000 0.000000 1.000000 1.000000
v -9.725443 -0.000001 -1.540362 0.000000 0.000000 1.000000 1.000000
v -4.228688 157.230377 -0.667332 0.000000 0.000000 1.000000 1.000000
v -9.816489 0.000001 -0.772253 0.000000 0.000000 1.000000 1.000000
v -4.267871 157.230377 -0.336333 0.000000 0.000000 1.000000 1.000000
v -4.281199 157.230347 0.001928 0.000000 0.000000 1.000000 1.000000
v -9.847053 -0.000000 -0.000004 0.000000 0.000000 1.000000 1.000000
v -9.816414 0.000002 0.773096 0.000000 0.000000 1.000000 1.000000
v -4.267887 157.230377 0.336054 0.000000 0.000000 1.000000 1.000000
v -4.228466 157.230377 0.668725 0.000000 0.000000 1.000000 1.000000
v -9.725389 0.000001 1.540682 0.000000 0.000000 1.000000 1.000000
v -4.162868 157.230377 0.999120 0.000000 0.000000 1.000000 1.000000
v -9.574713 0.000002 2.298828 0.000000 0.000000 1.000000 1.000000
v -4.071739 157.230377 1.322701 0.000000 0.000000 1.000000 1.000000
v -9.365038 0.000001 3.043100 0.000000 0.000000 1.000000 1.000000
v -3.955309 157.230377 1.638058 0.000000 0.000000 1.000000 1.000000
v -9.097172 0.000002 3.768446 0.000000 0.000000 1.000000 1.000000
v -3.814543 157.230377 1.943299 0.000000 0.000000 1.000000 1.000000
v -8.773412 0.000002 4.470360 0.000000 0.000000 1.000000 1.000000
v -3.650372 157.230377 2.236618 0.000000 0.000000 1.000000 1.000000
v -8.395652 0.000001 5.145164 0.000000 0.000000 1.000000 1.000000
v -3.463711 157.230377 2.516200 0.000000 0.000000 1.000000 1.000000
v -7.966338 0.000001 5.788075 0.000000 0.000000 1.000000 1.000000
v -3.255552 157.230377 2.780115 0.000000 0.000000 1.000000 1.000000
v -7.487485 0.000001 6.395100 0.000000 0.000000 1.000000 1.000000
v -3.026845 157.230377 3.027437 0.000000 0.000000 1.000000 1.000000
v -6.962099 0.000002 6.963194 0.000000 0.000000 1.000000 1.000000
v -2.780055 157.230347 3.255588 0.000000 0.000000 1.000000 1.000000
v -6.394972 0.000001 7.487594 0.000000 0.000000 1.000000 1.000000
v -5.787953 0.000001 7.966433 0.000000 0.000000 1.000000 1.000000
v -2.514441 157.230362 3.464967 0.000000 0.000000 1.000000 1.000000
v -5.145088 0.000001 8.395702 0.000000 0.000000 1.000000 1.000000
v -2.237075 157.230362 3.650092 0.000000 0.000000 1.000000 1.000000
v -4.470837 0.000002 8.773172 0.000000 0.000000 1.000000 1.000000
v -1.943629 157.230377 3.814372 0.000000 0.000000 1.000000 1.000000
v -3.768363 0.000002 9.097210 0.000000 0.000000 1.000000 1.000000
v -1.637967 157.230377 3.955334 0.000000 0.000000 1.000000 1.000000
v -3.042981 0.000003 9.365080 0.000000 0.000000 1.000000 1.000000
v -1.322721 157.230377 4.071720 0.000000 0.000000 1.000000 1.000000
v -2.299076 0.000002 9.574656 0.000000 0.000000 1.000000 1.000000
v -0.998436 157.230377 4.163009 0.000000 0.000000 1.000000 1.000000
v -1.540924 0.000003 9.725351 0.000000 0.000000 1.000000 1.000000
v -0.669876 157.230377 4.228284 0.000000 0.000000 1.000000 1.000000
v -0.336768 157.230362 4.267817 0.000000 0.000000 1.000000 1.000000
v -0.772542 0.000001 9.816464 0.000000 0.000000 1.000000 1.000000
v 0.000001 0.000009 9.847055 0.000000 0.000000 1.000000 1.000000
v 0.000001 157.230377 4.281184 0.000000 0.000000 1.000000 1.000000
vt 4.390625 -9.210938
vt 2.421875 10.343750
vt 2.380859 10.343750
vt 4.292969 -9.226562
vt 2.337891 10.335938
vt 4.195312 -9.234375
vt 4.097656 -9.242188
vt 2.294922 10.335938
vt 2.253906 10.328125
vt 4.000000 -9.250000
vt 2.210938 10.328125
vt 3.904297 -9.257812
vt 2.167969 10.320312
vt 3.806641 -9.265625
vt 3.708984 -9.273438
vt 2.126953 10.320312
vt 2.083984 10.320312
vt 3.611328 -9.281250
vt 2.041016 10.312500
vt 3.513672 -9.289062
vt 3.416016 -9.296875
vt 1.999023 10.312500
vt 3.318359 -9.304688
vt 1.957031 10.304688
vt 3.220703 -9.312500
vt 1.915039 10.304688
vt 3.123047 -9.320312
vt 1.872070 10.304688
vt 3.025391 -9.320312
vt 1.830078 10.296875
vt 2.927734 -9.328125
vt 1.787109 10.296875
vt 2.830078 -9.335938
vt 1.745117 10.296875
vt 2.732422 -9.335938
vt 1.702148 10.289062
vt 2.634766 -9.343750
vt 1.660156 10.289062
vt 2.537109 -9.351562
vt 1.617188 10.289062
vt 1.575195 10.289062
vt 2.439453 -9.351562
vt 2.341797 -9.359375
vt 1.532227 10.281250
vt 1.490234 10.281250
vt 2.244141 -9.359375
vt 1.447266 10.281250
vt 2.146484 -9.367188
vt 2.048828 -9.367188
vt 1.405273 10.281250
vt 1.363281 10.281250
vt 1.952148 -9.375000
vt 1.320312 10.273438
vt 1.854492 -9.375000
vt 1.756836 -9.375000
vt 1.277344 10.273438
vt 1.235352 10.273438
vt 1.659180 -9.382812
vt 1.192383 10.273438
vt 1.561523 -9.382812
vt 1.463867 -9.382812
vt 1.150391 10.273438
vt 1.365234 -9.382812
vt 1.107422 10.273438
vt 1.267578 -9.382812
vt 1.065430 10.273438
vt 1.169922 -9.382812
vt 1.022461 10.273438
vt 1.072266 -9.390625
vt 0.980469 10.273438
vt 0.974609 -9.390625
vt 0.937988 10.273438
vt 0.876953 -9.390625
vt 0.895508 10.273438
vt 0.779297 -9.390625
vt 0.853027 10.273438
vt 0.681152 -9.390625
vt 0.810059 10.273438
vt 0.583496 -9.382812
vt 0.768066 10.273438
vt 0.725098 10.273438
vt 0.486084 -9.382812
vt 0.388184 -9.382812
vt 0.682617 10.273438
vt 0.640625 10.273438
vt 0.290527 -9.382812
vt 0.597656 10.273438
vt 0.192749 -9.382812
vt 0.555176 10.273438
vt 0.095032 -9.375000
vt 0.512695 10.273438
vt -0.002657 -9.375000
vt 0.470459 10.273438
vt -0.100342 -9.375000
vt 0.427979 10.281250
vt -0.197998 -9.367188
vt 0.385498 10.281250
vt -0.295654 -9.367188
vt 0.343018 10.281250
vt -0.393311 -9.359375
vt 0.300537 10.281250
vt -0.491211 -9.359375
vt 0.258057 10.281250
vt -0.588867 -9.351562
vt -0.686523 -9.351562
vt 0.215454 10.289062
vt -0.784180 -9.343750
vt 0.173340 10.289062
vt 0.130737 10.289062
vt -0.881836 -9.343750
vt -0.979492 -9.335938
vt 0.088074 10.296875
vt -1.077148 -9.328125
vt 0.045990 10.296875
vt 0.003405 10.296875
vt -1.173828 -9.328125
vt -1.271484 -9.320312
vt -0.039185 10.296875
vt -1.369141 -9.312500
vt -0.081238 10.304688
vt -0.123962 10.304688
vt -1.466797 -9.304688
vt -1.564453 -9.296875
vt -0.166138 10.312500
vt -0.208374 10.312500
vt -1.662109 -9.289062
vt -0.250732 10.312500
vt -1.759766 -9.281250
vt -0.293213 10.320312
vt -1.857422 -9.281250
vt -0.335449 10.320312
vt -1.954102 -9.265625
vt -0.377930 10.328125
vt -2.050781 -9.257812
vt -0.420166 10.328125
vt -2.148438 -9.250000
vt -0.462646 10.335938
vt -2.246094 -9.242188
vt -0.504883 10.335938
vt -2.343750 -9.234375
vt -0.547363 10.343750
vt -2.441406 -9.226562
vt -0.589355 10.343750
vt -2.539062 -9.218750
vt -2.634766 -9.203125
vt -0.631836 10.351562
vt -2.732422 -9.195312
vt -0.673828 10.351562
vt -2.830078 -9.187500
vt -0.716309 10.359375
vt -2.927734 -9.171875
vt -0.758789 10.359375
vt -3.023438 -9.164062
vt -0.800781 10.367188
vt -3.121094 -9.156250
vt -0.843262 10.375000
vt -3.218750 -9.140625
vt -0.885254 10.375000
vt -0.927246 10.382812
vt -3.316406 -9.132812
vt -3.412109 -9.117188
vt -0.969727 10.390625
vt1 4.390625 -9.210938
vt1 2.421875 10.343750
vt1 2.380859 10.343750
vt1 4.292969 -9.226562
vt1 2.337891 10.335938
vt1 4.195312 -9.234375
vt1 4.097656 -9.242188
vt1 2.294922 10.335938
vt1 2.253906 10.328125
vt1 4.000000 -9.250000
vt1 2.210938 10.328125
vt1 3.904297 -9.257812
vt1 2.167969 10.320312
vt1 3.806641 -9.265625
vt1 3.708984 -9.273438
vt1 2.126953 10.320312
vt1 2.083984 10.320312
vt1 3.611328 -9.281250
vt1 2.041016 10.312500
vt1 3.513672 -9.289062
vt1 3.416016 -9.296875
vt1 1.999023 10.312500
vt1 3.318359 -9.304688
vt1 1.957031 10.304688
vt1 3.220703 -9.312500
vt1 1.915039 10.304688
vt1 3.123047 -9.320312
vt1 1.872070 10.304688
vt1 3.025391 -9.320312
vt1 1.830078 10.296875
vt1 2.927734 -9.328125
vt1 1.787109 10.296875
vt1 2.830078 -9.335938
vt1 1.745117 10.296875
vt1 2.732422 -9.335938
vt1 1.702148 10.289062
vt1 2.634766 -9.343750
vt1 1.660156 10.289062
vt1 2.537109 -9.351562
vt1 1.617188 10.289062
vt1 1.575195 10.289062
vt1 2.439453 -9.351562
vt1 2.341797 -9.359375
vt1 1.532227 10.281250
vt1 1.490234 10.281250
vt1 2.244141 -9.359375
vt1 1.447266 10.281250
vt1 2.146484 -9.367188
vt1 2.048828 -9.367188
vt1 1.405273 10.281250
vt1 1.363281 10.281250
vt1 1.952148 -9.375000
vt1 1.320312 10.273438
vt1 1.854492 -9.375000
vt1 1.756836 -9.375000
vt1 1.277344 10.273438
vt1 1.235352 10.273438
vt1 1.659180 -9.382812
vt1 1.192383 10.273438
vt1 1.561523 -9.382812
vt1 1.463867 -9.382812
vt1 1.150391 10.273438
vt1 1.365234 -9.382812
vt1 1.107422 10.273438
vt1 1.267578 -9.382812
vt1 1.065430 10.273438
vt1 1.169922 -9.382812
vt1 1.022461 10.273438
vt1 1.072266 -9.390625
vt1 0.980469 10.273438
vt1 0.974609 -9.390625
vt1 0.937988 10.273438
vt1 0.876953 -9.390625
vt1 0.895508 10.273438
vt1 0.779297 -9.390625
vt1 0.853027 10.273438
vt1 0.681152 -9.390625
vt1 0.810059 10.273438
vt1 0.583496 -9.382812
vt1 0.768066 10.273438
vt1 0.725098 10.273438
vt1 0.486084 -9.382812
vt1 0.388184 -9.382812
vt1 0.682617 10.273438
vt1 0.640625 10.273438
vt1 0.290527 -9.382812
vt1 0.597656 10.273438
vt1 0.192749 -9.382812
vt1 0.555176 10.273438
vt1 0.095032 -9.375000
vt1 0.512695 10.273438
vt1 -0.002657 -9.375000
vt1 0.470459 10.273438
vt1 -0.100342 -9.375000
vt1 0.427979 10.281250
vt1 -0.197998 -9.367188
vt1 0.385498 10.281250
vt1 -0.295654 -9.367188
vt1 0.343018 10.281250
vt1 -0.393311 -9.359375
vt1 0.300537 10.281250
vt1 -0.491211 -9.359375
vt1 0.258057 10.281250
vt1 -0.588867 -9.351562
vt1 -0.686523 -9.351562
vt1 0.215454 10.289062
vt1 -0.784180 -9.343750
vt1 0.173340 10.289062
vt1 0.130737 10.289062
vt1 -0.881836 -9.343750
vt1 -0.979492 -9.335938
vt1 0.088074 10.296875
vt1 -1.077148 -9.328125
vt1 0.045990 10.296875
vt1 0.003405 10.296875
vt1 -1.173828 -9.328125
vt1 -1.271484 -9.320312
vt1 -0.039185 10.296875
vt1 -1.369141 -9.312500
vt1 -0.081238 10.304688
vt1 -0.123962 10.304688
vt1 -1.466797 -9.304688
vt1 -1.564453 -9.296875
vt1 -0.166138 10.312500
vt1 -0.208374 10.312500
vt1 -1.662109 -9.289062
vt1 -0.250732 10.312500
vt1 -1.759766 -9.281250
vt1 -0.293213 10.320312
vt1 -1.857422 -9.281250
vt1 -0.335449 10.320312
vt1 -1.954102 -9.265625
vt1 -0.377930 10.328125
vt1 -2.050781 -9.257812
vt1 -0.420166 10.328125
vt1 -2.148438 -9.250000
vt1 -0.462646 10.335938
vt1 -2.246094 -9.242188
vt1 -0.504883 10.335938
vt1 -2.343750 -9.234375
vt1 -0.547363 10.343750
vt1 -2.441406 -9.226562
vt1 -0.589355 10.343750
vt1 -2.539062 -9.218750
vt1 -2.634766 -9.203125
vt1 -0.631836 10.351562
vt1 -2.732422 -9.195312
vt1 -0.673828 10.351562
vt1 -2.830078 -9.187500
vt1 -0.716309 10.359375
vt1 -2.927734 -9.171875
vt1 -0.758789 10.359375
vt1 -3.023438 -9.164062
vt1 -0.800781 10.367188
vt1 -3.121094 -9.156250
vt1 -0.843262 10.375000
vt1 -3.218750 -9.140625
vt1 -0.885254 10.375000
vt1 -0.927246 10.382812
vt1 -3.316406 -9.132812
vt1 -3.412109 -9.117188
vt1 -0.969727 10.390625
vn 0.000000 0.031496 1.000000
vn 0.000000 0.031496 1.000000
vn 0.070866 0.031496 1.000000
vn 0.078740 0.031496 1.000000
vn 0.157480 0.031496 0.984252
vn 0.157480 0.031496 0.984252
vn 0.236220 0.031496 0.968504
vn 0.236220 0.031496 0.968504
vn 0.307087 0.031496 0.952756
vn 0.307087 0.031496 0.952756
vn 0.377953 0.031496 0.929134
vn 0.385827 0.031496 0.921260
vn 0.448819 0.031496 0.889764
vn 0.456693 0.031496 0.889764
vn 0.527559 0.031496 0.850394
vn 0.527559 0.031496 0.850394
vn 0.582677 0.031496 0.811023
vn 0.590551 0.031496 0.811023
vn 0.645669 0.031496 0.763779
vn 0.645669 0.031496 0.755905
vn 0.708661 0.031496 0.700787
vn 0.708661 0.031496 0.708661
vn 0.763780 0.031496 0.645669
vn 0.763780 0.031496 0.645669
vn 0.811024 0.031496 0.582677
vn 0.811024 0.031496 0.582677
vn 0.850394 0.031496 0.519685
vn 0.850394 0.031496 0.519685
vn 0.889764 0.031496 0.448819
vn 0.889764 0.031496 0.448819
vn 0.921260 0.031496 0.377953
vn 0.921260 0.031496 0.377953
vn 0.952756 0.031496 0.307087
vn 0.952756 0.031496 0.307087
vn 0.968504 0.031496 0.228346
vn 0.976378 0.031496 0.228346
vn 0.984252 0.031496 0.149606
vn 0.984252 0.031496 0.149606
vn 1.000000 0.031496 0.078740
vn 1.000000 0.031496 0.078740
vn 1.000000 0.031496 -0.000000
vn 1.000000 0.031496 -0.000000
vn 1.000000 0.031496 -0.078740
vn 1.000000 0.031496 -0.078740
vn 0.984252 0.031496 -0.149606
vn 0.984252 0.031496 -0.157480
vn 0.968504 0.031496 -0.228346
vn 0.968504 0.031496 -0.236220
vn 0.952756 0.031496 -0.314961
vn 0.952756 0.031496 -0.314961
vn 0.929134 0.031496 -0.377953
vn 0.921260 0.031496 -0.385827
vn 0.889764 0.031496 -0.448819
vn 0.889764 0.031496 -0.456693
vn 0.850394 0.031496 -0.527559
vn 0.850394 0.031496 -0.527559
vn 0.811024 0.031496 -0.582677
vn 0.811024 0.031496 -0.590551
vn 0.763780 0.031496 -0.645669
vn 0.755906 0.031496 -0.645669
vn 0.700787 0.031496 -0.708661
vn 0.708661 0.031496 -0.708661
vn 0.645669 0.031496 -0.763779
vn 0.645669 0.031496 -0.763779
vn 0.582677 0.031496 -0.811023
vn 0.582677 0.031496 -0.811023
vn 0.519685 0.031496 -0.850394
vn 0.519685 0.031496 -0.850394
vn 0.448819 0.031496 -0.889764
vn 0.448819 0.031496 -0.889764
vn 0.377953 0.031496 -0.921260
vn 0.377953 0.031496 -0.921260
vn 0.307087 0.031496 -0.952756
vn 0.307087 0.031496 -0.952756
vn 0.228346 0.031496 -0.976378
vn 0.228346 0.031496 -0.976378
vn 0.157480 0.031496 -0.984252
vn 0.149606 0.031496 -0.984252
vn 0.078740 0.031496 -1.000000
vn 0.078740 0.031496 -1.000000
vn 0.000000 0.031496 -1.000000
vn 0.000000 0.031496 -1.000000
vn -0.078740 0.031496 -1.000000
vn -0.078740 0.031496 -1.000000
vn -0.149606 0.031496 -0.984252
vn -0.149606 0.031496 -0.984252
vn -0.228346 0.031496 -0.976378
vn -0.228346 0.031496 -0.968504
vn -0.307087 0.031496 -0.952756
vn -0.307087 0.031496 -0.952756
vn -0.377953 0.031496 -0.921260
vn -0.377953 0.031496 -0.921260
vn -0.448819 0.031496 -0.889764
vn -0.448819 0.031496 -0.889764
vn -0.519685 0.031496 -0.850394
vn -0.519685 0.031496 -0.850394
vn -0.582677 0.031496 -0.811023
vn -0.582677 0.031496 -0.811023
vn -0.645669 0.031496 -0.763779
vn -0.645669 0.031496 -0.763779
vn -0.708661 0.031496 -0.708661
vn -0.700787 0.031496 -0.708661
vn -0.763780 0.031496 -0.645669
vn -0.755906 0.031496 -0.645669
vn -0.811024 0.031496 -0.590551
vn -0.811024 0.031496 -0.582677
vn -0.850394 0.031496 -0.527559
vn -0.850394 0.031496 -0.527559
vn -0.889764 0.031496 -0.448819
vn -0.889764 0.031496 -0.456693
vn -0.921260 0.031496 -0.385827
vn -0.929134 0.031496 -0.377953
vn -0.952756 0.031496 -0.314961
vn -0.952756 0.031496 -0.314961
vn -0.968504 0.031496 -0.228346
vn -0.968504 0.031496 -0.236220
vn -0.984252 0.031496 -0.157480
vn -0.984252 0.031496 -0.149606
vn -1.000000 0.031496 -0.078740
vn -1.000000 0.031496 -0.078740
vn -1.000000 0.031496 -0.000000
vn -1.000000 0.031496 -0.000000
vn -1.000000 0.031496 0.078740
vn -1.000000 0.031496 0.078740
vn -0.984252 0.031496 0.149606
vn -0.984252 0.031496 0.149606
vn -0.976378 0.031496 0.228346
vn -0.968504 0.031496 0.228346
vn -0.952756 0.031496 0.307087
vn -0.952756 0.031496 0.307087
vn -0.921260 0.031496 0.377953
vn -0.921260 0.031496 0.377953
vn -0.889764 0.031496 0.448819
vn -0.889764 0.031496 0.448819
vn -0.850394 0.031496 0.519685
vn -0.850394 0.031496 0.519685
vn -0.811024 0.031496 0.582677
vn -0.811024 0.031496 0.582677
vn -0.763780 0.031496 0.645669
vn -0.763780 0.031496 0.645669
vn -0.708661 0.031496 0.708661
vn -0.708661 0.031496 0.700787
vn -0.645669 0.031496 0.763779
vn -0.645669 0.031496 0.755905
vn -0.590551 0.031496 0.811023
vn -0.582677 0.031496 0.811023
vn -0.519685 0.031496 0.850394
vn -0.519685 0.031496 0.850394
vn -0.448819 0.031496 0.889764
vn -0.456693 0.031496 0.889764
vn -0.377953 0.031496 0.921260
vn -0.377953 0.031496 0.921260
vn -0.307087 0.031496 0.952756
vn -0.307087 0.031496 0.952756
vn -0.228346 0.031496 0.976378
vn -0.228346 0.031496 0.976378
vn -0.157480 0.031496 0.984252
vn -0.157480 0.031496 0.984252
vn -0.078740 0.031496 1.000000
vn -0.078740 0.031496 1.000000
vn 0.000000 0.031496 1.000000
vn -0.007874 0.031496 1.000000
tan 0.094488 -0.992126 0.031248 1.000000
tan 0.094488 -0.992126 0.031248 1.000000
tan 0.094488 -0.992126 0.024552 1.000000
tan 0.094488 -0.992126 0.023808 1.000000
tan 0.100750 -0.976502 0.015128 1.000000
tan 0.100998 -0.977742 0.015128 1.000000
tan 0.106764 -0.960878 0.005208 1.000000
tan 0.106764 -0.960878 0.005208 1.000000
tan 0.127534 -0.945254 -0.009858 1.000000
tan 0.098518 -0.954926 -0.000186 1.000000
tan 0.153636 -0.914502 -0.031496 1.000000
tan 0.103788 -0.941348 -0.011284 1.000000
tan 0.196168 -0.868746 -0.068200 1.000000
tan 0.109306 -0.936884 -0.022940 1.000000
tan 0.176328 -0.867692 -0.077252 1.000000
tan 0.143840 -0.891004 -0.056234 1.000000
tan 0.315395 -0.793043 -0.195796 1.000000
tan 0.119722 -0.956414 -0.050034 1.000000
tan 0.475045 -0.705375 -0.372497 1.000000
tan 0.123752 -0.977494 -0.064976 1.000000
tan 0.297229 -0.915804 -0.259408 1.000000
tan 0.166904 -0.982082 -0.123256 1.000000
tan 0.261393 -0.870916 -0.266724 1.000000
tan 0.149792 -0.953190 -0.130696 1.000000
tan 0.172484 -0.857090 -0.193750 1.000000
tan 0.122016 -0.907558 -0.120776 1.000000
tan 0.116932 -0.865646 -0.138880 1.000000
tan 0.092380 -0.890198 -0.097216 1.000000
tan 0.087792 -0.893360 -0.111352 1.000000
tan 0.077190 -0.900428 -0.089838 1.000000
tan 0.066960 -0.916982 -0.086800 1.000000
tan 0.064232 -0.927212 -0.079298 1.000000
tan 0.055676 -0.952756 -0.075020 1.000000
tan 0.053258 -0.955174 -0.067270 1.000000
tan 0.045880 -0.968504 -0.061008 1.000000
tan 0.044082 -0.976378 -0.053816 1.000000
tan 0.039742 -0.984252 -0.054250 1.000000
tan 0.039742 -0.984252 -0.054250 1.000000
tan 0.035216 -1.000000 -0.047244 1.000000
tan 0.035216 -1.000000 -0.047244 1.000000
tan 0.031496 -1.000000 -0.047244 1.000000
tan 0.031496 -1.000000 -0.047244 1.000000
tan 0.028396 -1.000000 -0.039370 1.000000
tan 0.028396 -1.000000 -0.039370 1.000000
tan 0.025606 -0.984252 -0.038750 1.000000
tan 0.025296 -0.985492 -0.038998 1.000000
tan 0.020708 -0.968504 -0.045756 1.000000
tan 0.022196 -0.972224 -0.038626 1.000000
tan 0.016616 -0.952756 -0.045012 1.000000
tan 0.019096 -0.955236 -0.037758 1.000000
tan 0.010664 -0.929134 -0.051212 1.000000
tan 0.019344 -0.948602 -0.031248 1.000000
tan -0.000310 -0.889764 -0.063054 1.000000
tan 0.013268 -0.943890 -0.039246 1.000000
tan -0.001984 -0.881084 -0.055800 1.000000
tan 0.002170 -0.897700 -0.050096 1.000000
tan -0.037572 -0.850518 -0.098270 1.000000
tan 0.006014 -0.967450 -0.043338 1.000000
tan -0.097092 -0.875132 -0.157542 1.000000
tan 0.006448 -0.983446 -0.040424 1.000000
tan -0.045880 -0.987972 -0.089280 1.000000
tan -0.011160 -1.004402 -0.055800 1.000000
tan -0.049476 -0.934280 -0.080352 1.000000
tan -0.016182 -0.970302 -0.053692 1.000000
tan -0.027466 -0.887222 -0.054188 1.000000
tan -0.012214 -0.920330 -0.044516 1.000000
tan -0.011656 -0.879038 -0.039680 1.000000
tan -0.003472 -0.896894 -0.035340 1.000000
tan -0.006262 -0.900366 -0.035030 1.000000
tan -0.005766 -0.907434 -0.035030 1.000000
tan -0.007006 -0.924236 -0.034472 1.000000
tan -0.006758 -0.927212 -0.034472 1.000000
tan 0.000000 -0.952756 -0.031496 1.000000
tan 0.000248 -0.955174 -0.031496 1.000000
tan 0.007688 -0.976378 -0.029698 1.000000
tan 0.007688 -0.976378 -0.029698 1.000000
tan 0.007750 -0.984252 -0.030256 1.000000
tan 0.007750 -0.984252 -0.030318 1.000000
tan 0.007874 -1.000000 -0.030876 1.000000
tan 0.007874 -1.000000 -0.030876 1.000000
tan 0.015748 -1.000000 -0.031496 1.000000
tan 0.015748 -1.000000 -0.031496 1.000000
tan 0.015748 -1.000000 -0.032736 1.000000
tan 0.015748 -1.000000 -0.032736 1.000000
tan 0.015500 -0.984252 -0.033852 1.000000
tan 0.015500 -0.984252 -0.033852 1.000000
tan 0.023064 -0.976378 -0.036890 1.000000
tan 0.022878 -0.968504 -0.036890 1.000000
tan 0.029760 -0.955174 -0.041168 1.000000
tan 0.030008 -0.952756 -0.041168 1.000000
tan 0.035774 -0.927212 -0.046376 1.000000
tan 0.043276 -0.924236 -0.049352 1.000000
tan 0.040796 -0.907434 -0.052700 1.000000
tan 0.055304 -0.900366 -0.059768 1.000000
tan 0.043648 -0.896894 -0.059892 1.000000
tan 0.071920 -0.872342 -0.076260 1.000000
tan 0.056916 -0.913944 -0.076384 1.000000
tan 0.104098 -0.880836 -0.108996 1.000000
tan 0.064294 -0.964288 -0.094116 1.000000
tan 0.145948 -0.917168 -0.161200 1.000000
tan 0.061628 -0.993242 -0.105772 1.000000
tan 0.146816 -0.965776 -0.188108 1.000000
tan 0.236344 -0.821936 -0.319672 1.000000
tan 0.024304 -0.977494 -0.076136 1.000000
tan 0.017236 -0.967450 -0.075268 1.000000
tan 0.107136 -0.831360 -0.194060 1.000000
tan 0.035216 -0.881084 -0.109368 1.000000
tan 0.022754 -0.897700 -0.090272 1.000000
tan 0.032364 -0.882758 -0.126108 1.000000
tan 0.001116 -0.943890 -0.067270 1.000000
tan -0.006944 -0.941348 -0.060264 1.000000
tan 0.007440 -0.921818 -0.095108 1.000000
tan -0.006696 -0.952756 -0.075020 1.000000
tan -0.009176 -0.955236 -0.067766 1.000000
tan -0.013516 -0.968504 -0.076260 1.000000
tan -0.014756 -0.972224 -0.069130 1.000000
tan -0.021576 -0.985492 -0.062248 1.000000
tan -0.020894 -0.984252 -0.069750 1.000000
tan -0.026536 -1.000000 -0.062992 1.000000
tan -0.026536 -1.000000 -0.062992 1.000000
tan -0.031496 -1.000000 -0.070866 1.000000
tan -0.031496 -1.000000 -0.070866 1.000000
tan -0.037076 -1.000000 -0.070866 1.000000
tan -0.037076 -1.000000 -0.070866 1.000000
tan -0.043276 -0.984252 -0.077500 1.000000
tan -0.043276 -0.984252 -0.077500 1.000000
tan -0.051274 -0.976378 -0.084568 1.000000
tan -0.051026 -0.960878 -0.083886 1.000000
tan -0.062682 -0.947672 -0.097278 1.000000
tan -0.065100 -0.945254 -0.105028 1.000000
tan -0.075888 -0.919958 -0.108314 1.000000
tan -0.084816 -0.916982 -0.130324 1.000000
tan -0.094860 -0.900428 -0.124868 1.000000
tan -0.108748 -0.886354 -0.153388 1.000000
tan -0.116932 -0.886106 -0.137640 1.000000
tan -0.149172 -0.852254 -0.192448 1.000000
tan -0.153884 -0.896584 -0.165726 1.000000
tan -0.222208 -0.837932 -0.263996 1.000000
tan -0.190216 -0.942092 -0.179056 1.000000
tan -0.321161 -0.835762 -0.339141 1.000000
tan -0.216876 -0.965342 -0.173972 1.000000
tan -0.373241 -0.860314 -0.338769 1.000000
tan -0.552731 -0.629053 -0.441317 1.000000
tan -0.159216 -0.966458 -0.095728 1.000000
tan -0.158038 -0.956414 -0.077934 1.000000
tan -0.391779 -0.750139 -0.252340 1.000000
tan -0.236344 -0.849650 -0.112964 1.000000
tan -0.163680 -0.879410 -0.067456 1.000000
tan -0.203670 -0.875814 -0.071734 1.000000
tan -0.162378 -0.893732 -0.051708 1.000000
tan -0.159836 -0.909728 -0.034472 1.000000
tan -0.145576 -0.912704 -0.028520 1.000000
tan -0.150040 -0.937752 -0.017360 1.000000
tan -0.135284 -0.947672 -0.012276 1.000000
tan -0.138384 -0.968690 -0.001116 1.000000
tan -0.130696 -0.968690 0.000682 1.000000
tan -0.124000 -0.976502 0.011408 1.000000
tan -0.124000 -0.976502 0.011408 1.000000
tan -0.125984 -0.992126 0.021328 1.000000
tan -0.118110 -0.992126 0.021948 1.000000
tan -0.118110 -0.992126 0.031248 1.000000
tan -0.118110 -0.992126 0.030318 1.000000
f 3/3/3 2/2/2 1/1/1
f 1/1/1 4/4/4 3/3/3
f 5/5/5 3/3/3 4/4/4
f 4/4/4 6/6/6 5/5/5
f 7/7/7 5/5/5 6/6/6
f 5/5/5 7/7/7 8/8/8
f 9/9/9 8/8/8 7/7/7
f 7/7/7 10/10/10 9/9/9
f 11/11/11 9/9/9 10/10/10
f 10/10/10 12/12/12 11/11/11
f 13/13/13 11/11/11 12/12/12
f 12/12/12 14/14/14 13/13/13
f 15/15/15 13/13/13 14/14/14
f 13/13/13 15/15/15 16/16/16
f 17/17/17 16/16/16 15/15/15
f 15/15/15 18/18/18 17/17/17
f 19/19/19 17/17/17 18/18/18
f 18/18/18 20/20/20 19/19/19
f 21/21/21 19/19/19 20/20/20
f 19/19/19 21/21/21 22/22/22
f 21/21/21 23/23/23 22/22/22
f 24/24/24 22/22/22 23/23/23
f 23/23/23 25/25/25 24/24/24
f 26/26/26 24/24/24 25/25/25
f 25/25/25 27/27/27 26/26/26
f 28/28/28 26/26/26 27/27/27
f 27/27/27 29/29/29 28/28/28
f 30/30/30 28/28/28 29/29/29
f 29/29/29 31/31/31 30/30/30
f 32/32/32 30/30/30 31/31/31
f 31/31/31 33/33/33 32/32/32
f 34/34/34 32/32/32 33/33/33
f 33/33/33 35/35/35 34/34/34
f 36/36/36 34/34/34 35/35/35
f 35/35/35 37/37/37 36/36/36
f 38/38/38 36/36/36 37/37/37
f 37/37/37 39/39/39 38/38/38
f 40/40/40 38/38/38 39/39/39
f 39/39/39 41/41/41 40/40/40
f 41/41/41 39/39/39 42/42/42
f 41/41/41 42/42/42 43/43/43
f 41/41/41 43/43/43 44/44/44
f 44/44/44 43/43/43 45/45/45
f 43/43/43 46/46/46 45/45/45
f 45/45/45 46/46/46 47/47/47
f 46/46/46 48/48/48 47/47/47
f 47/47/47 48/48/48 49/49/49
f 47/47/47 49/49/49 50/50/50
f 50/50/50 49/49/49 51/51/51
f 49/49/49 52/52/52 51/51/51
f 51/51/51 52/52/52 53/53/53
f 52/52/52 54/54/54 53/53/53
f 53/53/53 54/54/54 55/55/55
f 53/53/53 55/55/55 56/56/56
f 56/56/56 55/55/55 57/57/57
f 55/55/55 58/58/58 57/57/57
f 57/57/57 58/58/58 59/59/59
f 58/58/58 60/60/60 59/59/59
f 59/59/59 60/60/60 61/61/61
f 59/59/59 61/61/61 62/62/62
f 61/61/61 63/63/63 62/62/62
f 64/64/64 62/62/62 63/63/63
f 63/63/63 65/65/65 64/64/64
f 66/66/66 64/64/64 65/65/65
f 65/65/65 67/67/67 66/66/66
f 68/68/68 66/66/66 67/67/67
f 67/67/67 69/69/69 68/68/68
f 70/70/70 68/68/68 69/69/69
f 69/69/69 71/71/71 70/70/70
f 72/72/72 70/70/70 71/71/71
f 71/71/71 73/73/73 72/72/72
f 74/74/74 72/72/72 73/73/73
f 73/73/73 75/75/75 74/74/74
f 76/76/76 74/74/74 75/75/75
f 75/75/75 77/77/77 76/76/76
f 78/78/78 76/76/76 77/77/77
f 77/77/77 79/79/79 78/78/78
f 80/80/80 78/78/78 79/79/79
f 79/79/79 81/81/81 80/80/80
f 81/81/81 79/79/79 82/82/82
f 81/81/81 82/82/82 83/83/83
f 83/83/83 84/84/84 81/81/81
f 84/84/84 83/83/83 85/85/85
f 86/86/86 85/85/85 83/83/83
f 85/85/85 86/86/86 87/87/87
f 88/88/88 87/87/87 86/86/86
f 87/87/87 88/88/88 89/89/89
f 90/90/90 89/89/89 88/88/88
f 89/89/89 90/90/90 91/91/91
f 92/92/92 91/91/91 90/90/90
f 91/91/91 92/92/92 93/93/93
f 94/94/94 93/93/93 92/92/92
f 93/93/93 94/94/94 95/95/95
f 96/96/96 95/95/95 94/94/94
f 95/95/95 96/96/96 97/97/97
f 98/98/98 97/97/97 96/96/96
f 97/97/97 98/98/98 99/99/99
f 100/100/100 99/99/99 98/98/98
f 99/99/99 100/100/100 101/101/101
f 102/102/102 101/101/101 100/100/100
f 102/102/102 103/103/103 101/101/101
f 103/103/103 102/102/102 104/104/104
f 104/104/104 105/105/105 103/103/103
f 106/106/106 103/103/103 105/105/105
f 105/105/105 107/107/107 106/106/106
f 108/108/108 106/106/106 107/107/107
f 107/107/107 109/109/109 108/108/108
f 109/109/109 107/107/107 110/110/110
f 110/110/110 111/111/111 109/109/109
f 112/112/112 109/109/109 111/111/111
f 111/111/111 113/113/113 112/112/112
f 114/114/114 112/112/112 113/113/113
f 113/113/113 115/115/115 114/114/114
f 115/115/115 113/113/113 116/116/116
f 116/116/116 117/117/117 115/115/115
f 118/118/118 115/115/115 117/117/117
f 117/117/117 119/119/119 118/118/118
f 120/120/120 118/118/118 119/119/119
f 119/119/119 121/121/121 120/120/120
f 121/121/121 119/119/119 122/122/122
f 121/121/121 122/122/122 123/123/123
f 123/123/123 124/124/124 121/121/121
f 125/125/125 124/124/124 123/123/123
f 126/126/126 125/125/125 123/123/123
f 127/127/127 125/125/125 126/126/126
f 128/128/128 127/127/127 126/126/126
f 129/129/129 127/127/127 128/128/128
f 130/130/130 129/129/129 128/128/128
f 131/131/131 129/129/129 130/130/130
f 130/130/130 132/132/132 131/131/131
f 133/133/133 131/131/131 132/132/132
f 132/132/132 134/134/134 133/133/133
f 135/135/135 133/133/133 134/134/134
f 134/134/134 136/136/136 135/135/135
f 137/137/137 135/135/135 136/136/136
f 136/136/136 138/138/138 137/137/137
f 139/139/139 137/137/137 138/138/138
f 138/138/138 140/140/140 139/139/139
f 141/141/141 139/139/139 140/140/140
f 140/140/140 142/142/142 141/141/141
f 142/142/142 143/143/143 141/141/141
f 143/143/143 142/142/142 144/144/144
f 144/144/144 145/145/145 143/143/143
f 146/146/146 143/143/143 145/145/145
f 145/145/145 147/147/147 146/146/146
f 148/148/148 146/146/146 147/147/147
f 147/147/147 149/149/149 148/148/148
f 150/150/150 148/148/148 149/149/149
f 149/149/149 151/151/151 150/150/150
f 152/152/152 150/150/150 151/151/151
f 151/151/151 153/153/153 152/152/152
f 154/154/154 152/152/152 153/153/153
f 153/153/153 155/155/155 154/154/154
f 156/156/156 154/154/154 155/155/155
f 155/155/155 157/157/157 156/156/156
f 158/158/158 156/156/156 157/157/157
f 157/157/157 159/159/159 158/158/158
f 159/159/159 157/157/157 160/160/160
f 160/160/160 161/161/161 159/159/159
f 162/162/162 159/159/159 161/161/161
