mtllib SM_Mast_Bridge_LOD3@000002909DC04800.mtl
g SM_Mast_Bridge_LOD3@000002909DC04800
#Vertices 59
#Indices 81
#Section 0 Offset 0 NumIndices 36 MaterialIndex 0 MI_BrickTile_C_01
#Section 1 Offset 36 NumIndices 39 MaterialIndex 1 MI_BrickTile_C_01
#Section 2 Offset 75 NumIndices 6 MaterialIndex 2 MI_FloorTile_A_01
v 6.270020 2.986066 1.987993 0.000000 0.000000 1.000000 1.000000
v 8.794707 3.214922 3.132476 0.000000 0.000000 1.000000 1.000000
v 5.604364 2.704405 3.020788 0.000000 0.000000 1.000000 1.000000
v 6.052520 3.399626 -2.068852 0.000000 0.000000 1.000000 0.000000
v 6.512092 2.961983 -2.959589 0.000000 0.000000 1.000000 0.000000
v 8.352050 2.950048 -3.030125 0.000000 0.000000 1.000000 0.000000
v 9.000000 1.637556 -1.998770 0.000000 0.000000 1.000000 0.000000
v 0.210954 1.747399 -2.004341 0.000000 0.000000 1.000000 1.000000
v 6.052520 3.399626 -2.068852 0.000000 0.000000 1.000000 0.000000
v 2.275960 3.144168 2.156585 0.000000 0.000000 1.000000 1.000000
v 6.270020 2.986066 1.987993 0.000000 0.000000 1.000000 1.000000
v 5.604364 2.704405 3.020788 0.000000 0.000000 1.000000 1.000000
v 2.275960 3.144168 2.156585 0.000000 0.000000 1.000000 1.000000
v 5.604364 2.704405 3.020788 0.000000 0.000000 1.000000 1.000000
v 0.648205 3.066158 3.099926 0.000000 0.000000 1.000000 1.000000
v 0.210954 1.747399 -2.004341 0.000000 0.000000 1.000000 1.000000
v 4.567490 2.973850 -3.000360 0.000000 0.000000 1.000000 0.588235
v 6.052520 3.399626 -2.068852 0.000000 0.000000 1.000000 0.000000
v 0.224776 3.160899 -3.207889 0.000000 0.000000 1.000000 1.000000
v 4.567490 2.973850 -3.000360 0.000000 0.000000 1.000000 0.588235
v 0.210954 1.747399 -2.004341 0.000000 0.000000 1.000000 1.000000
v 6.512092 2.961983 -2.959589 0.000000 0.000000 1.000000 0.000000
v 6.052520 3.399626 -2.068852 0.000000 0.000000 1.000000 0.000000
v 4.567490 2.973850 -3.000360 0.000000 0.000000 1.000000 0.588235
v 8.794707 3.214922 3.132476 0.000000 0.000000 1.000000 1.000000
v 6.270020 2.986066 1.987993 0.000000 0.000000 1.000000 1.000000
v 8.999998 1.637554 2.000209 0.000000 0.000000 1.000000 1.000000
v 0.000000 1.637553 2.000211 0.000000 0.000000 1.000000 1.000000
v 2.275960 3.144168 2.156585 0.000000 0.000000 1.000000 1.000000
v 0.648205 3.066158 3.099926 0.000000 0.000000 1.000000 1.000000
v 4.567490 2.973850 -3.000360 0.000000 0.000000 1.000000 0.588235
v 5.499952 -3.494129 -2.998230 0.000000 0.000000 1.000000 0.000000
v 6.512092 2.961983 -2.959589 0.000000 0.000000 1.000000 0.000000
v 6.512092 2.961983 -2.959589 0.000000 0.000000 1.000000 0.000000
v 5.499952 -3.494129 -2.998230 0.000000 0.000000 1.000000 0.000000
v 6.999999 -3.492383 -3.000409 0.000000 0.000000 1.000000 0.000000
v 4.567490 2.973850 -3.000360 0.000000 0.000000 1.000000 0.588235
v -0.000001 -3.492383 -2.999589 0.000000 0.000000 1.000000 1.000000
v 5.499952 -3.494129 -2.998230 0.000000 0.000000 1.000000 0.000000
v 0.224776 3.160899 -3.207889 0.000000 0.000000 1.000000 1.000000
v 6.512092 2.961983 -2.959589 0.000000 0.000000 1.000000 0.000000
v 8.490752 -3.433794 -3.042701 0.000000 0.000000 1.000000 0.000000
v 8.352050 2.950048 -3.030125 0.000000 0.000000 1.000000 0.000000
v 6.999999 -3.492383 -3.000409 0.000000 0.000000 1.000000 0.000000
v 8.794707 3.214922 3.132476 0.000000 0.000000 1.000000 1.000000
v 8.999996 -3.492382 3.000410 0.000000 0.000000 1.000000 1.000000
v 5.604364 2.704405 3.020788 0.000000 0.000000 1.000000 1.000000
v -0.000000 -3.492383 3.000409 0.000000 0.000000 1.000000 1.000000
v 0.648205 3.066158 3.099926 0.000000 0.000000 1.000000 1.000000
v -0.000001 -3.492383 -2.999589 0.000000 0.000000 1.000000 1.000000
v -0.000000 -3.492383 3.000409 0.000000 0.000000 1.000000 1.000000
v 5.499952 -3.494129 -2.998230 0.000000 0.000000 1.000000 0.000000
v 8.999996 -3.492382 3.000410 0.000000 0.000000 1.000000 1.000000
v 6.999999 -3.492383 -3.000409 0.000000 0.000000 1.000000 0.000000
v 8.490752 -3.433794 -3.042701 0.000000 0.000000 1.000000 0.000000
v 0.000000 1.637553 2.000211 0.000000 0.000000 1.000000 1.000000
v 0.210954 1.747399 -2.004341 0.000000 0.000000 1.000000 1.000000
v 8.999998 1.637554 2.000209 0.000000 0.000000 1.000000 1.000000
v 9.000000 1.637556 -1.998770 0.000000 0.000000 1.000000 0.000000
vt 1.242188 0.822876
vt 0.927246 0.721680
vt 1.322266 0.703369
vt 2.423828 0.695312
vt 2.464844 0.592773
vt 2.679688 0.592773
vt 1.030273 0.282715
vt 2.128906 0.296387
vt 1.398438 0.500732
vt 2.042969 0.725586
vt 1.626953 0.868652
vt 1.687500 0.777100
vt 2.224609 0.827271
vt 1.821289 0.712891
vt 2.421875 0.724121
vt 1.090820 0.686523
vt 1.540039 0.625244
vt 1.695312 0.688965
vt 0.895020 0.531250
vt 1.286133 0.655518
vt 0.889648 0.655273
vt 2.205078 0.594238
vt 2.152344 0.699463
vt 1.982422 0.607422
vt 2.121094 0.236816
vt 1.816406 0.212891
vt 2.152344 0.040039
vt 1.028320 0.040527
vt 1.308594 0.226562
vt 1.094727 0.237305
vt 0.130493 2.570312
vt 0.246582 1.762207
vt 0.373047 2.568359
vt 0.373047 2.568359
vt 0.246582 1.762207
vt 0.434082 1.762207
vt 0.129639 2.570312
vt -0.440674 1.762207
vt 0.246704 1.761719
vt -0.413818 2.593750
vt 0.373047 2.568359
vt 0.620117 1.769531
vt 0.603027 2.567383
vt 0.434082 1.762207
vt 0.658203 0.174316
vt 0.684082 1.012489
vt 0.259521 0.238281
vt -0.440674 1.012413
vt -0.359131 0.192871
vt -0.440674 1.762207
vt -0.440674 1.012459
vt 0.246582 1.762207
vt 0.684082 1.012474
vt 0.434082 1.762207
vt 0.620117 1.767578
vt 1.206055 1.278320
vt 1.707031 1.304688
vt 1.206055 2.403320
vt 1.706055 2.403320
vt1 1.242188 0.822876
vt1 0.927246 0.721680
vt1 1.322266 0.703369
vt1 2.423828 0.695312
vt1 2.464844 0.592773
vt1 2.679688 0.592773
vt1 1.030273 0.282715
vt1 2.128906 0.296387
vt1 1.398438 0.500732
vt1 2.042969 0.725586
vt1 1.626953 0.868652
vt1 1.687500 0.777100
vt1 2.224609 0.827271
vt1 1.821289 0.712891
vt1 2.421875 0.724121
vt1 1.090820 0.686523
vt1 1.540039 0.625244
vt1 1.695312 0.688965
vt1 0.895020 0.531250
vt1 1.286133 0.655518
vt1 0.889648 0.655273
vt1 2.205078 0.594238
vt1 2.152344 0.699463
vt1 1.982422 0.607422
vt1 2.121094 0.236816
vt1 1.816406 0.212891
vt1 2.152344 0.040039
vt1 1.028320 0.040527
vt1 1.308594 0.226562
vt1 1.094727 0.237305
vt1 0.130493 2.570312
vt1 0.246582 1.762207
vt1 0.373047 2.568359
vt1 0.373047 2.568359
vt1 0.246582 1.762207
vt1 0.434082 1.762207
vt1 0.129639 2.570312
vt1 -0.440674 1.762207
vt1 0.246704 1.761719
vt1 -0.413818 2.593750
vt1 0.373047 2.568359
vt1 0.620117 1.769531
vt1 0.603027 2.567383
vt1 0.434082 1.762207
vt1 0.658203 0.174316
vt1 0.684082 1.012489
vt1 0.259521 0.238281
vt1 -0.440674 1.012413
vt1 -0.359131 0.192871
vt1 -0.440674 1.762207
vt1 -0.440674 1.012459
vt1 0.246582 1.762207
vt1 0.684082 1.012474
vt1 0.434082 1.762207
vt1 0.620117 1.767578
vt1 1.206055 1.278320
vt1 1.707031 1.304688
vt1 1.206055 2.403320
vt1 1.706055 2.403320
vn 0.000000 1.000000 -0.000000
vn 0.000000 1.000000 -0.000000
vn 0.000000 1.000000 -0.000000
vn 0.000000 1.000000 -0.000000
vn 0.000000 1.000000 -0.000000
vn 0.000000 1.000000 -0.000000
vn 0.000000 0.000000 1.000000
vn 0.000000 0.000000 1.000000
vn 0.000000 0.000000 1.000000
vn 0.000000 1.000000 -0.000000
vn 0.000000 1.000000 -0.000000
vn 0.000000 1.000000 -0.000000
vn 0.000000 1.000000 -0.000000
vn 0.000000 1.000000 -0.000000
vn 0.000000 1.000000 -0.000000
vn 0.000000 1.000000 -0.000000
vn 0.000000 1.000000 -0.000000
vn 0.000000 1.000000 -0.000000
vn 1.000000 0.000000 0.000000
vn 1.000000 0.000000 0.000000
vn 1.000000 0.000000 0.000000
vn 0.000000 1.000000 -0.000000
vn 0.000000 1.000000 -0.000000
vn 0.000000 1.000000 -0.000000
vn 0.000000 -0.000000 -1.000000
vn 0.000000 -0.000000 -1.000000
vn 0.000000 -0.000000 -1.000000
vn 0.000000 -0.000000 -1.000000
vn 0.000000 -0.000000 -1.000000
vn 0.000000 -0.000000 -1.000000
vn 0.000000 -0.000000 -1.000000
vn 0.000000 -0.000000 -1.000000
vn 0.000000 -0.000000 -1.000000
vn 0.000000 -0.000000 -1.000000
vn 0.000000 -0.000000 -1.000000
vn 0.000000 -0.000000 -1.000000
vn 0.000000 -0.000000 -1.000000
vn 0.000000 -0.000000 -1.000000
vn 0.000000 -0.000000 -1.000000
vn 0.000000 -0.000000 -1.000000
vn 0.000000 -0.000000 -1.000000
vn 0.000000 -0.000000 -1.000000
vn 0.000000 -0.000000 -1.000000
vn 0.000000 -0.000000 -1.000000
vn 0.000000 0.000000 1.000000
vn 0.000000 0.000000 1.000000
vn 0.000000 0.000000 1.000000
vn 0.000000 0.000000 1.000000
vn 0.000000 0.000000 1.000000
vn 0.000000 -1.000000 0.000000
vn 0.000000 -1.000000 0.000000
vn 0.000000 -1.000000 0.000000
vn 0.000000 -1.000000 0.000000
vn 0.000000 -1.000000 0.000000
vn 0.000000 -1.000000 0.000000
vn 0.000000 1.000000 -0.000000
vn 0.000000 1.000000 -0.000000
vn 0.000000 1.000000 -0.000000
vn 0.000000 1.000000 -0.000000
tan 0.000000 0.000000 1.000000 1.000000
tan 0.000000 0.000000 1.000000 1.000000
tan 0.000000 0.000000 1.000000 1.000000
tan 0.000000 -0.000000 -1.000000 1.000000
tan 0.000000 -0.000000 -1.000000 1.000000
tan 0.000000 -0.000000 -1.000000 1.000000
tan 0.000000 -1.000000 0.000000 1.000000
tan 0.000000 -1.000000 0.000000 1.000000
tan 0.000000 -1.000000 0.000000 1.000000
tan 0.000000 0.000000 1.000000 1.000000
tan 0.000000 0.000000 1.000000 1.000000
tan 0.000000 0.000000 1.000000 1.000000
tan 0.000000 0.000000 1.000000 1.000000
tan 0.000000 0.000000 1.000000 1.000000
tan 0.000000 0.000000 1.000000 1.000000
tan 0.000000 -0.000000 -1.000000 1.000000
tan 0.000000 -0.000000 -1.000000 1.000000
tan 0.000000 -0.000000 -1.000000 1.000000
tan 0.000000 -0.000000 -1.000000 1.000000
tan 0.000000 -0.000000 -1.000000 1.000000
tan 0.000000 -0.000000 -1.000000 1.000000
tan 0.000000 -0.000000 -1.000000 1.000000
tan 0.000000 -0.000000 -1.000000 1.000000
tan 0.000000 -0.000000 -1.000000 1.000000
tan 0.000000 -1.000000 0.000000 1.000000
tan 0.000000 -1.000000 0.000000 1.000000
tan 0.000000 -1.000000 0.000000 1.000000
tan 0.000000 -1.000000 0.000000 1.000000
tan 0.000000 -1.000000 0.000000 1.000000
tan 0.000000 -1.000000 0.000000 1.000000
tan 0.000000 -1.000000 0.000000 1.000000
tan 0.000000 -1.000000 0.000000 1.000000
tan 0.000000 -1.000000 0.000000 1.000000
tan 0.000000 -1.000000 0.000000 1.000000
tan 0.000000 -1.000000 0.000000 1.000000
tan 0.000000 -1.000000 0.000000 1.000000
tan 0.000000 -1.000000 0.000000 1.000000
tan 0.000000 -1.000000 0.000000 1.000000
tan 0.000000 -1.000000 0.000000 1.000000
tan 0.000000 -1.000000 0.000000 1.000000
tan 0.000000 -1.000000 0.000000 1.000000
tan 0.000000 -1.000000 0.000000 1.000000
tan 0.000000 -1.000000 0.000000 1.000000
tan 0.000000 -1.000000 0.000000 1.000000
tan 0.000000 1.000000 -0.000000 1.000000
tan 0.000000 1.000000 -0.000000 1.000000
tan 0.000000 1.000000 -0.000000 1.000000
tan 0.000000 1.000000 -0.000000 1.000000
tan 0.000000 1.000000 -0.000000 1.000000
tan 0.000000 0.000000 1.000000 1.000000
tan 0.000000 0.000000 1.000000 1.000000
tan 0.000000 0.000000 1.000000 1.000000
tan 0.000000 0.000000 1.000000 1.000000
tan 0.000000 0.000000 1.000000 1.000000
tan 0.000000 0.000000 1.000000 1.000000
tan -1.000000 0.000000 0.000000 1.000000
tan -1.000000 0.000000 0.000000 1.000000
tan -1.000000 0.000000 0.000000 1.000000
tan -1.000000 0.000000 0.000000 1.000000
f 3/3/3 2/2/2 1/1/1
f 6/6/6 5/5/5 4/4/4
f 9/9/9 8/8/8 7/7/7
f 12/12/12 11/11/11 10/10/10
f 15/15/15 14/14/14 13/13/13
f 18/18/18 17/17/17 16/16/16
f 21/21/21 20/20/20 19/19/19
f 24/24/24 23/23/23 22/22/22
f 27/27/27 26/26/26 25/25/25
f 27/27/27 28/28/28 26/26/26
f 28/28/28 29/29/29 26/26/26
f 29/29/29 28/28/28 30/30/30
f 33/33/33 32/32/32 31/31/31
f 36/36/36 35/35/35 34/34/34
f 39/39/39 38/38/38 37/37/37
f 37/37/37 38/38/38 40/40/40
f 43/43/43 42/42/42 41/41/41
f 44/44/44 41/41/41 42/42/42
f 47/47/47 46/46/46 45/45/45
f 46/46/46 47/47/47 48/48/48
f 47/47/47 49/49/49 48/48/48
f 52/52/52 51/51/51 50/50/50
f 51/51/51 52/52/52 53/53/53
f 54/54/54 53/53/53 52/52/52
f 55/55/55 53/53/53 54/54/54
f 58/58/58 57/57/57 56/56/56
f 59/59/59 57/57/57 58/58/58
