mtllib SM_Mansion_Roof_02_LOD3@000002909DC3C800.mtl
g SM_Mansion_Roof_02_LOD3@000002909DC3C800
#Vertices 22
#Indices 42
#Section 0 Offset 0 NumIndices 42 MaterialIndex 0 MI_RoofTile_A_01
v -5.000294 -0.000054 -4.995016 0.000000 1.000000 0.000000 1.000000
v 4.994844 -0.000068 -5.000635 0.000000 1.000000 0.000000 1.000000
v -1.783983 6.692856 -1.767320 0.000000 1.000000 0.000000 1.000000
v 1.750614 6.736746 -1.768110 0.000000 1.000000 0.000000 1.000000
v -0.003758 15.707955 0.002700 0.000000 1.000000 0.000000 1.000000
v -1.849944 6.473005 1.850195 0.000000 1.000000 0.000000 1.000000
v -1.783983 6.692856 -1.767320 0.000000 1.000000 0.000000 1.000000
v -0.003758 15.707955 0.002700 0.000000 1.000000 0.000000 1.000000
v -5.000294 -0.000054 -4.995016 0.000000 1.000000 0.000000 1.000000
v -4.998031 -0.000028 4.997454 0.000000 1.000000 0.000000 1.000000
v -0.003758 15.707955 0.002700 0.000000 1.000000 0.000000 1.000000
v 1.189180 9.037716 1.193813 0.000000 1.000000 0.000000 1.000000
v -1.849944 6.473005 1.850195 0.000000 1.000000 0.000000 1.000000
v 2.829610 4.303401 2.829971 0.000000 1.000000 0.000000 1.000000
v 4.998859 0.000286 4.997881 0.000000 1.000000 0.000000 1.000000
v -4.998031 -0.000028 4.997454 0.000000 1.000000 0.000000 1.000000
v 1.750614 6.736746 -1.768110 0.000000 1.000000 0.000000 1.000000
v 1.189180 9.037716 1.193813 0.000000 1.000000 0.000000 1.000000
v -0.003758 15.707955 0.002700 0.000000 1.000000 0.000000 1.000000
v 2.829610 4.303401 2.829971 0.000000 1.000000 0.000000 1.000000
v 4.998859 0.000286 4.997881 0.000000 1.000000 0.000000 1.000000
v 4.994844 -0.000068 -5.000635 0.000000 1.000000 0.000000 1.000000
vt -0.053314 0.729980
vt 1.195312 0.729736
vt 0.348633 1.657715
vt 0.789062 1.662109
vt 0.570801 2.803711
vt -0.663574 0.934326
vt -0.212524 0.962067
vt -0.432617 2.109375
vt 0.191772 0.035645
vt -1.056641 0.035645
vt -1.464844 2.649414
vt -1.614258 1.803223
vt -1.234375 1.474121
vt -1.819336 1.177612
vt -2.089844 0.575439
vt -0.840820 0.575439
vt -2.691406 0.972321
vt -2.320312 1.266357
vt -2.470703 2.112305
vt -2.117188 0.640625
vt -1.845703 0.038574
vt -3.095703 0.038574
vt1 -0.053314 0.729980
vt1 1.195312 0.729736
vt1 0.348633 1.657715
vt1 0.789062 1.662109
vt1 0.570801 2.803711
vt1 -0.663574 0.934326
vt1 -0.212524 0.962067
vt1 -0.432617 2.109375
vt1 0.191772 0.035645
vt1 -1.056641 0.035645
vt1 -1.464844 2.649414
vt1 -1.614258 1.803223
vt1 -1.234375 1.474121
vt1 -1.819336 1.177612
vt1 -2.089844 0.575439
vt1 -0.840820 0.575439
vt1 -2.691406 0.972321
vt1 -2.320312 1.266357
vt1 -2.470703 2.112305
vt1 -2.117188 0.640625
vt1 -1.845703 0.038574
vt1 -3.095703 0.038574
vn 0.000000 0.448819 -0.889764
vn 0.000000 0.448819 -0.889764
vn 0.000000 0.362205 -0.929134
vn 0.000000 0.330709 -0.944882
vn 0.000000 0.173228 -0.984252
vn -0.929134 0.370079 -0.000000
vn -0.944882 0.330709 -0.000000
vn -0.984252 0.173228 -0.000000
vn -0.889764 0.448819 -0.000000
vn -0.889764 0.448819 -0.000000
vn 0.000000 0.173228 0.984252
vn 0.000000 0.244095 0.968504
vn 0.000000 0.370079 0.929134
vn 0.000000 0.417323 0.905512
vn 0.000000 0.448819 0.889764
vn 0.000000 0.448819 0.889764
vn 0.929134 0.362205 -0.000000
vn 0.968504 0.244094 -0.000000
vn 0.984252 0.173228 -0.000000
vn 0.905512 0.417323 -0.000000
vn 0.889764 0.448819 -0.000000
vn 0.889764 0.448819 -0.000000
tan 0.000000 -0.889764 -0.448819 1.000000
tan 0.000000 -0.889764 -0.448819 1.000000
tan 0.000000 -0.929134 -0.362205 1.000000
tan 0.000000 -0.944882 -0.330709 1.000000
tan 0.000000 -0.984252 -0.173228 1.000000
tan -0.370079 -0.929134 0.000000 1.000000
tan -0.330709 -0.944882 0.000000 1.000000
tan -0.173228 -0.984252 0.000000 1.000000
tan -0.448819 -0.889764 0.000000 1.000000
tan -0.448819 -0.889764 0.000000 1.000000
tan 0.000000 -0.984252 0.173228 1.000000
tan 0.000000 -0.968504 0.244095 1.000000
tan 0.000000 -0.929134 0.370079 1.000000
tan 0.000000 -0.905512 0.417323 1.000000
tan 0.000000 -0.889764 0.448819 1.000000
tan 0.000000 -0.889764 0.448819 1.000000
tan 0.362205 -0.929134 0.000000 1.000000
tan 0.244094 -0.968504 0.000000 1.000000
tan 0.173228 -0.984252 0.000000 1.000000
tan 0.417323 -0.905512 0.000000 1.000000
tan 0.448819 -0.889764 0.000000 1.000000
tan 0.448819 -0.889764 0.000000 1.000000
f 3/3/3 2/2/2 1/1/1
f 4/4/4 2/2/2 3/3/3
f 5/5/5 4/4/4 3/3/3
f 8/8/8 7/7/7 6/6/6
f 9/9/9 6/6/6 7/7/7
f 10/10/10 6/6/6 9/9/9
f 13/13/13 12/12/12 11/11/11
f 12/12/12 13/13/13 14/14/14
f 14/14/14 13/13/13 15/15/15
f 13/13/13 16/16/16 15/15/15
f 19/19/19 18/18/18 17/17/17
f 18/18/18 20/20/20 17/17/17
f 20/20/20 21/21/21 17/17/17
f 17/17/17 21/21/21 22/22/22
