mtllib SM_Pillar_02_b_LOD1@000002909DC28F00.mtl
g SM_Pillar_02_b_LOD1@000002909DC28F00
#Vertices 393
#Indices 1692
#Section 0 Offset 0 NumIndices 114 MaterialIndex 1 MI_BrickTile_A_01
#Section 1 Offset 114 NumIndices 360 MaterialIndex 2 MI_ConcreteTrim_A_01
#Section 2 Offset 474 NumIndices 1218 MaterialIndex 0 MI_ConcreteTile_01
v -0.470713 1.669356 0.470713 0.000000 0.000000 1.000000 1.000000
v -0.400010 0.000000 0.500000 0.000000 0.000000 1.000000 1.000000
v -0.470713 0.000003 0.470713 0.000000 0.000000 1.000000 1.000000
v -0.470713 2.003227 0.470713 0.000000 0.000000 1.000000 1.000000
v -0.400010 2.003227 0.500000 0.000000 0.000000 1.000000 1.000000
v 0.400010 0.000000 0.500000 0.000000 0.000000 1.000000 1.000000
v 0.400010 2.003227 0.500000 0.000000 0.000000 1.000000 1.000000
v 0.470714 1.669356 0.470713 0.000000 0.000000 1.000000 1.000000
v 0.470714 2.003227 0.470713 0.000000 0.000000 1.000000 1.000000
v 0.470714 0.000003 0.470713 0.000000 0.000000 1.000000 1.000000
v -0.470713 1.669356 0.470713 0.000000 0.000000 1.000000 1.000000
v -0.500000 2.003227 0.400010 0.000000 0.000000 1.000000 1.000000
v -0.470713 2.003227 0.470713 0.000000 0.000000 1.000000 1.000000
v -0.500000 0.000000 0.400010 0.000000 0.000000 1.000000 1.000000
v -0.470713 0.000003 0.470713 0.000000 0.000000 1.000000 1.000000
v -0.500000 2.003227 -0.400010 0.000000 0.000000 1.000000 1.000000
v -0.500000 -0.000000 -0.400010 0.000000 0.000000 1.000000 1.000000
v -0.470713 2.003227 -0.470714 0.000000 0.000000 1.000000 1.000000
v -0.470713 1.669356 -0.470714 0.000000 0.000000 1.000000 1.000000
v -0.470713 1.335485 -0.470714 0.000000 0.000000 1.000000 1.000000
v -0.470713 1.001614 -0.470714 0.000000 0.000000 1.000000 1.000000
v -0.470713 0.667742 -0.470714 0.000000 0.000000 1.000000 1.000000
v -0.470714 0.000000 -0.470713 0.000000 0.000000 1.000000 1.000000
v 0.470714 1.669356 -0.470714 0.000000 0.000000 1.000000 1.000000
v 0.470714 0.000003 -0.470714 0.000000 0.000000 1.000000 1.000000
v 0.500000 -0.000000 -0.400010 0.000000 0.000000 1.000000 1.000000
v 0.500000 2.003227 -0.400010 0.000000 0.000000 1.000000 1.000000
v 0.470714 2.003227 -0.470714 0.000000 0.000000 1.000000 1.000000
v 0.500000 0.000000 0.400010 0.000000 0.000000 1.000000 1.000000
v 0.500000 2.003227 0.400010 0.000000 0.000000 1.000000 1.000000
v 0.470714 2.003227 0.470713 0.000000 0.000000 1.000000 1.000000
v 0.470714 1.669356 0.470713 0.000000 0.000000 1.000000 1.000000
v 0.470714 0.000003 0.470713 0.000000 0.000000 1.000000 1.000000
v 0.470714 1.669356 -0.470714 0.000000 0.000000 1.000000 1.000000
v 0.400010 -0.000000 -0.500000 0.000000 0.000000 1.000000 1.000000
v 0.470714 0.000003 -0.470714 0.000000 0.000000 1.000000 1.000000
v 0.470714 2.003227 -0.470714 0.000000 0.000000 1.000000 1.000000
v 0.400010 2.003227 -0.500000 0.000000 0.000000 1.000000 1.000000
v -0.400010 2.003227 -0.500000 0.000000 0.000000 1.000000 1.000000
v -0.400010 -0.000000 -0.500000 0.000000 0.000000 1.000000 1.000000
v -0.470713 2.003227 -0.470714 0.000000 0.000000 1.000000 1.000000
v -0.470713 1.669356 -0.470714 0.000000 0.000000 1.000000 1.000000
v -0.470713 1.335485 -0.470714 0.000000 0.000000 1.000000 1.000000
v -0.470713 1.001614 -0.470714 0.000000 0.000000 1.000000 1.000000
v -0.470713 0.667742 -0.470714 0.000000 0.000000 1.000000 1.000000
v -0.470714 0.000000 -0.470713 0.000000 0.000000 1.000000 1.000000
v -0.613925 2.452791 0.613925 0.000000 0.000000 1.000000 1.000000
v -0.613925 2.050436 0.613925 0.000000 0.000000 1.000000 1.000000
v -0.643212 2.452791 0.543221 0.000000 0.000000 1.000000 1.000000
v -0.643212 2.050436 0.543221 0.000000 0.000000 1.000000 1.000000
v -0.643212 2.050436 -0.543222 0.000000 0.000000 1.000000 1.000000
v -0.643212 2.452791 -0.543222 0.000000 0.000000 1.000000 1.000000
v -0.613925 2.452791 -0.613925 0.000000 0.000000 1.000000 1.000000
v -0.613925 2.050436 -0.613925 0.000000 0.000000 1.000000 1.000000
v -0.613925 2.050436 0.613925 0.000000 0.000000 1.000000 1.000000
v -0.613925 2.452791 0.613925 0.000000 0.000000 1.000000 1.000000
v -0.543222 2.050436 0.643211 0.000000 0.000000 1.000000 1.000000
v -0.543222 2.452791 0.643211 0.000000 0.000000 1.000000 1.000000
v 0.543222 2.452791 0.643211 0.000000 0.000000 1.000000 1.000000
v 0.543222 2.050436 0.643211 0.000000 0.000000 1.000000 1.000000
v 0.613925 2.050436 0.613925 0.000000 0.000000 1.000000 1.000000
v 0.613925 2.452791 0.613925 0.000000 0.000000 1.000000 1.000000
v -0.613925 2.050436 -0.613925 0.000000 0.000000 1.000000 1.000000
v -0.543222 2.452791 -0.643212 0.000000 0.000000 1.000000 1.000000
v -0.613925 2.452791 -0.613925 0.000000 0.000000 1.000000 1.000000
v -0.543222 2.050436 -0.643212 0.000000 0.000000 1.000000 1.000000
v 0.543222 2.050436 -0.643212 0.000000 0.000000 1.000000 1.000000
v 0.543222 2.452791 -0.643212 0.000000 0.000000 1.000000 1.000000
v 0.613925 2.452791 -0.613925 0.000000 0.000000 1.000000 1.000000
v 0.613925 2.050436 -0.613925 0.000000 0.000000 1.000000 1.000000
v 0.613925 2.452791 0.613925 0.000000 0.000000 1.000000 1.000000
v 0.643212 2.050436 0.543221 0.000000 0.000000 1.000000 1.000000
v 0.613925 2.050436 0.613925 0.000000 0.000000 1.000000 1.000000
v 0.643212 2.452791 0.543221 0.000000 0.000000 1.000000 1.000000
v 0.643212 2.452791 -0.543222 0.000000 0.000000 1.000000 1.000000
v 0.643212 2.050436 -0.543222 0.000000 0.000000 1.000000 1.000000
v 0.613925 2.050436 -0.613925 0.000000 0.000000 1.000000 1.000000
v 0.613925 2.452791 -0.613925 0.000000 0.000000 1.000000 1.000000
v 0.613925 2.452791 0.613925 0.000000 0.000000 1.000000 1.000000
v 0.566716 2.500000 0.566716 0.000000 0.000000 1.000000 1.000000
v 0.643212 2.452791 0.543221 0.000000 0.000000 1.000000 1.000000
v 0.596003 2.500000 0.496013 0.000000 0.000000 1.000000 1.000000
v 0.470714 2.500000 0.470713 0.000000 0.000000 1.000000 1.000000
v 0.500000 2.500000 0.400010 0.000000 0.000000 1.000000 1.000000
v 0.643212 2.452791 -0.543222 0.000000 0.000000 1.000000 1.000000
v 0.500000 2.500000 -0.400010 0.000000 0.000000 1.000000 1.000000
v 0.596003 2.500000 -0.496013 0.000000 0.000000 1.000000 1.000000
v 0.470714 2.500000 -0.470714 0.000000 0.000000 1.000000 1.000000
v 0.566716 2.500000 -0.566717 0.000000 0.000000 1.000000 1.000000
v 0.613925 2.452791 -0.613925 0.000000 0.000000 1.000000 1.000000
v 0.543222 2.452791 -0.643212 0.000000 0.000000 1.000000 1.000000
v 0.496013 2.500000 -0.596003 0.000000 0.000000 1.000000 1.000000
v 0.400010 2.500000 -0.500000 0.000000 0.000000 1.000000 1.000000
v -0.400010 2.500000 -0.500000 0.000000 0.000000 1.000000 1.000000
v -0.496013 2.500000 -0.596003 0.000000 0.000000 1.000000 1.000000
v -0.543222 2.452791 -0.643212 0.000000 0.000000 1.000000 1.000000
v -0.470713 2.500000 -0.470714 0.000000 0.000000 1.000000 1.000000
v -0.566717 2.500000 -0.566717 0.000000 0.000000 1.000000 1.000000
v -0.613925 2.452791 -0.613925 0.000000 0.000000 1.000000 1.000000
v -0.643212 2.452791 -0.543222 0.000000 0.000000 1.000000 1.000000
v -0.596003 2.500000 -0.496013 0.000000 0.000000 1.000000 1.000000
v -0.500000 2.500000 -0.400010 0.000000 0.000000 1.000000 1.000000
v -0.596003 2.500000 0.496013 0.000000 0.000000 1.000000 1.000000
v -0.500000 2.500000 0.400010 0.000000 0.000000 1.000000 1.000000
v -0.643212 2.452791 0.543221 0.000000 0.000000 1.000000 1.000000
v -0.470713 2.500000 0.470713 0.000000 0.000000 1.000000 1.000000
v -0.566717 2.500000 0.566716 0.000000 0.000000 1.000000 1.000000
v -0.613925 2.452791 0.613925 0.000000 0.000000 1.000000 1.000000
v -0.543222 2.452791 0.643211 0.000000 0.000000 1.000000 1.000000
v -0.496013 2.500000 0.596002 0.000000 0.000000 1.000000 1.000000
v -0.400010 2.500000 0.500000 0.000000 0.000000 1.000000 1.000000
v 0.543222 2.452791 0.643211 0.000000 0.000000 1.000000 1.000000
v 0.400010 2.500000 0.500000 0.000000 0.000000 1.000000 1.000000
v 0.566716 2.500000 0.566716 0.000000 0.000000 1.000000 1.000000
v 0.613925 2.452791 0.613925 0.000000 0.000000 1.000000 1.000000
v 0.496013 2.500000 0.596002 0.000000 0.000000 1.000000 1.000000
v 0.470714 2.500000 0.470713 0.000000 0.000000 1.000000 1.000000
v 0.643212 2.050436 0.543221 0.000000 0.000000 1.000000 1.000000
v 0.566716 2.003227 0.566716 0.000000 0.000000 1.000000 1.000000
v 0.613925 2.050436 0.613925 0.000000 0.000000 1.000000 1.000000
v 0.596003 2.003227 0.496013 0.000000 0.000000 1.000000 1.000000
v 0.470714 2.003227 0.470713 0.000000 0.000000 1.000000 1.000000
v 0.500000 2.003227 0.400010 0.000000 0.000000 1.000000 1.000000
v 0.643212 2.050436 -0.543222 0.000000 0.000000 1.000000 1.000000
v 0.500000 2.003227 -0.400010 0.000000 0.000000 1.000000 1.000000
v 0.596003 2.003227 -0.496013 0.000000 0.000000 1.000000 1.000000
v 0.470714 2.003227 -0.470714 0.000000 0.000000 1.000000 1.000000
v 0.566716 2.003227 -0.566716 0.000000 0.000000 1.000000 1.000000
v 0.613925 2.050436 -0.613925 0.000000 0.000000 1.000000 1.000000
v 0.543222 2.050436 -0.643212 0.000000 0.000000 1.000000 1.000000
v 0.496013 2.003227 -0.596003 0.000000 0.000000 1.000000 1.000000
v 0.400010 2.003227 -0.500000 0.000000 0.000000 1.000000 1.000000
v -0.400010 2.003227 -0.500000 0.000000 0.000000 1.000000 1.000000
v -0.496013 2.003227 -0.596003 0.000000 0.000000 1.000000 1.000000
v -0.543222 2.050436 -0.643212 0.000000 0.000000 1.000000 1.000000
v -0.470713 2.003227 -0.470714 0.000000 0.000000 1.000000 1.000000
v -0.566717 2.003227 -0.566716 0.000000 0.000000 1.000000 1.000000
v -0.613925 2.050436 -0.613925 0.000000 0.000000 1.000000 1.000000
v -0.643212 2.050436 -0.543222 0.000000 0.000000 1.000000 1.000000
v -0.596003 2.003227 -0.496013 0.000000 0.000000 1.000000 1.000000
v -0.500000 2.003227 -0.400010 0.000000 0.000000 1.000000 1.000000
v -0.596003 2.003227 0.496013 0.000000 0.000000 1.000000 1.000000
v -0.500000 2.003227 0.400010 0.000000 0.000000 1.000000 1.000000
v -0.643212 2.050436 0.543221 0.000000 0.000000 1.000000 1.000000
v -0.470713 2.003227 0.470713 0.000000 0.000000 1.000000 1.000000
v -0.566717 2.003227 0.566716 0.000000 0.000000 1.000000 1.000000
v -0.613925 2.050436 0.613925 0.000000 0.000000 1.000000 1.000000
v -0.543222 2.050436 0.643211 0.000000 0.000000 1.000000 1.000000
v -0.496013 2.003227 0.596003 0.000000 0.000000 1.000000 1.000000
v -0.400010 2.003227 0.500000 0.000000 0.000000 1.000000 1.000000
v 0.543222 2.050436 0.643211 0.000000 0.000000 1.000000 1.000000
v 0.400010 2.003227 0.500000 0.000000 0.000000 1.000000 1.000000
v 0.566716 2.003227 0.566716 0.000000 0.000000 1.000000 1.000000
v 0.613925 2.050436 0.613925 0.000000 0.000000 1.000000 1.000000
v 0.496013 2.003227 0.596003 0.000000 0.000000 1.000000 1.000000
v 0.470714 2.003227 0.470713 0.000000 0.000000 1.000000 1.000000
v 0.000001 2.500000 0.449999 0.000000 0.000000 1.000000 1.000000
v 0.000000 11.499999 0.449998 0.000000 0.000000 1.000000 1.000000
v 0.139058 2.500000 0.427974 0.000000 0.000000 1.000000 1.000000
v 0.139058 2.928571 0.427974 0.000000 0.000000 1.000000 1.000000
v 0.264504 2.500000 0.364057 0.000000 0.000000 1.000000 1.000000
v 0.139058 3.357142 0.427974 0.000000 0.000000 1.000000 1.000000
v 0.264504 2.928571 0.364057 0.000000 0.000000 1.000000 1.000000
v 0.364058 2.500000 0.264503 0.000000 0.000000 1.000000 1.000000
v 0.139058 3.785713 0.427974 0.000000 0.000000 1.000000 1.000000
v 0.364058 2.928571 0.264503 0.000000 0.000000 1.000000 1.000000
v 0.264504 3.357142 0.364057 0.000000 0.000000 1.000000 1.000000
v 0.427976 2.500000 0.139057 0.000000 0.000000 1.000000 1.000000
v 0.139058 11.499999 0.427973 0.000000 0.000000 1.000000 1.000000
v 0.364058 3.357142 0.264503 0.000000 0.000000 1.000000 1.000000
v 0.264504 3.785713 0.364057 0.000000 0.000000 1.000000 1.000000
v 0.364058 3.785713 0.264503 0.000000 0.000000 1.000000 1.000000
v 0.264504 4.214285 0.364056 0.000000 0.000000 1.000000 1.000000
v 0.364058 4.214285 0.264503 0.000000 0.000000 1.000000 1.000000
v 0.264504 4.642857 0.364056 0.000000 0.000000 1.000000 1.000000
v 0.364058 4.642857 0.264503 0.000000 0.000000 1.000000 1.000000
v 0.264504 5.071428 0.364056 0.000000 0.000000 1.000000 1.000000
v 0.364058 5.071428 0.264503 0.000000 0.000000 1.000000 1.000000
v 0.264504 5.500000 0.364056 0.000000 0.000000 1.000000 1.000000
v 0.364058 5.500000 0.264502 0.000000 0.000000 1.000000 1.000000
v 0.264504 5.928571 0.364056 0.000000 0.000000 1.000000 1.000000
v 0.364058 5.928571 0.264502 0.000000 0.000000 1.000000 1.000000
v 0.427976 5.928571 0.139056 0.000000 0.000000 1.000000 1.000000
v 0.450001 2.500000 -0.000001 0.000000 0.000000 1.000000 1.000000
v 0.264504 6.357142 0.364056 0.000000 0.000000 1.000000 1.000000
v 0.364058 6.357142 0.264502 0.000000 0.000000 1.000000 1.000000
v 0.264504 6.785714 0.364056 0.000000 0.000000 1.000000 1.000000
v 0.450001 11.499999 -0.000002 0.000000 0.000000 1.000000 1.000000
v 0.364058 6.785714 0.264502 0.000000 0.000000 1.000000 1.000000
v 0.427976 5.500000 -0.139059 0.000000 0.000000 1.000000 1.000000
v 0.427976 11.499999 0.139055 0.000000 0.000000 1.000000 1.000000
v 0.427976 2.500000 -0.139058 0.000000 0.000000 1.000000 1.000000
v 0.264504 7.214286 0.364056 0.000000 0.000000 1.000000 1.000000
v 0.364058 7.214286 0.264502 0.000000 0.000000 1.000000 1.000000
v 0.264504 7.642858 0.364056 0.000000 0.000000 1.000000 1.000000
v 0.364058 7.642858 0.264502 0.000000 0.000000 1.000000 1.000000
v 0.264504 8.071428 0.364056 0.000000 0.000000 1.000000 1.000000
v 0.364058 8.071428 0.264502 0.000000 0.000000 1.000000 1.000000
v 0.264504 8.499999 0.364056 0.000000 0.000000 1.000000 1.000000
v 0.364058 8.499999 0.264502 0.000000 0.000000 1.000000 1.000000
v 0.264504 8.928571 0.364056 0.000000 0.000000 1.000000 1.000000
v 0.364058 8.928571 0.264502 0.000000 0.000000 1.000000 1.000000
v 0.264504 9.357142 0.364056 0.000000 0.000000 1.000000 1.000000
v 0.364058 9.357142 0.264502 0.000000 0.000000 1.000000 1.000000
v 0.264504 9.785714 0.364056 0.000000 0.000000 1.000000 1.000000
v 0.364058 9.785714 0.264502 0.000000 0.000000 1.000000 1.000000
v 0.264504 10.214286 0.364056 0.000000 0.000000 1.000000 1.000000
v 0.364058 10.214286 0.264502 0.000000 0.000000 1.000000 1.000000
v 0.264504 10.642857 0.364056 0.000000 0.000000 1.000000 1.000000
v 0.264504 11.071428 0.364056 0.000000 0.000000 1.000000 1.000000
v 0.264504 11.499999 0.364056 0.000000 0.000000 1.000000 1.000000
v 0.364058 10.642857 0.264502 0.000000 0.000000 1.000000 1.000000
v 0.364058 11.071428 0.264502 0.000000 0.000000 1.000000 1.000000
v 0.364058 11.499999 0.264502 0.000000 0.000000 1.000000 1.000000
v 0.427976 11.499999 -0.139059 0.000000 0.000000 1.000000 1.000000
v 0.364058 5.500000 -0.264504 0.000000 0.000000 1.000000 1.000000
v 0.364058 5.071428 -0.264504 0.000000 0.000000 1.000000 1.000000
v 0.264504 5.071428 -0.364059 0.000000 0.000000 1.000000 1.000000
v 0.364058 4.642857 -0.264504 0.000000 0.000000 1.000000 1.000000
v 0.264504 4.642857 -0.364059 0.000000 0.000000 1.000000 1.000000
v 0.264504 5.500000 -0.364059 0.000000 0.000000 1.000000 1.000000
v 0.264504 4.214285 -0.364059 0.000000 0.000000 1.000000 1.000000
v 0.364058 5.928571 -0.264504 0.000000 0.000000 1.000000 1.000000
v 0.139058 2.500000 -0.427976 0.000000 0.000000 1.000000 1.000000
v 0.264504 5.928571 -0.364059 0.000000 0.000000 1.000000 1.000000
v 0.364058 4.214285 -0.264504 0.000000 0.000000 1.000000 1.000000
v 0.264504 3.785713 -0.364059 0.000000 0.000000 1.000000 1.000000
v 0.364058 3.785713 -0.264504 0.000000 0.000000 1.000000 1.000000
v 0.264504 3.357142 -0.364059 0.000000 0.000000 1.000000 1.000000
v 0.364058 3.357142 -0.264504 0.000000 0.000000 1.000000 1.000000
v 0.364058 2.928571 -0.264504 0.000000 0.000000 1.000000 1.000000
v 0.364058 2.500000 -0.264504 0.000000 0.000000 1.000000 1.000000
v 0.264504 2.500000 -0.364058 0.000000 0.000000 1.000000 1.000000
v 0.264504 2.928571 -0.364059 0.000000 0.000000 1.000000 1.000000
v 0.139058 5.928571 -0.427977 0.000000 0.000000 1.000000 1.000000
v 0.000001 2.500000 -0.450001 0.000000 0.000000 1.000000 1.000000
v 0.364058 6.357142 -0.264504 0.000000 0.000000 1.000000 1.000000
v 0.264504 6.357142 -0.364059 0.000000 0.000000 1.000000 1.000000
v 0.000001 11.499999 -0.450002 0.000000 0.000000 1.000000 1.000000
v 0.364058 6.785714 -0.264505 0.000000 0.000000 1.000000 1.000000
v -0.139057 5.500000 -0.427977 0.000000 0.000000 1.000000 1.000000
v -0.139057 2.500000 -0.427976 0.000000 0.000000 1.000000 1.000000
v 0.139058 11.499999 -0.427977 0.000000 0.000000 1.000000 1.000000
v -0.139057 11.499999 -0.427977 0.000000 0.000000 1.000000 1.000000
v 0.264504 6.785714 -0.364059 0.000000 0.000000 1.000000 1.000000
v 0.364058 7.214286 -0.264505 0.000000 0.000000 1.000000 1.000000
v 0.264504 7.214286 -0.364059 0.000000 0.000000 1.000000 1.000000
v 0.364058 7.642858 -0.264505 0.000000 0.000000 1.000000 1.000000
v 0.264504 7.642858 -0.364059 0.000000 0.000000 1.000000 1.000000
v 0.364058 8.071428 -0.264505 0.000000 0.000000 1.000000 1.000000
v 0.264504 8.071428 -0.364059 0.000000 0.000000 1.000000 1.000000
v 0.364058 8.499999 -0.264505 0.000000 0.000000 1.000000 1.000000
v 0.264504 8.499999 -0.364059 0.000000 0.000000 1.000000 1.000000
v 0.364058 8.928571 -0.264505 0.000000 0.000000 1.000000 1.000000
v 0.264504 8.928571 -0.364059 0.000000 0.000000 1.000000 1.000000
v 0.364058 9.357142 -0.264505 0.000000 0.000000 1.000000 1.000000
v 0.264504 9.357142 -0.364059 0.000000 0.000000 1.000000 1.000000
v 0.364058 9.785714 -0.264505 0.000000 0.000000 1.000000 1.000000
v 0.264504 9.785714 -0.364059 0.000000 0.000000 1.000000 1.000000
v 0.364058 10.214286 -0.264505 0.000000 0.000000 1.000000 1.000000
v 0.264504 10.214286 -0.364059 0.000000 0.000000 1.000000 1.000000
v 0.364058 10.642857 -0.264505 0.000000 0.000000 1.000000 1.000000
v 0.364058 11.071428 -0.264505 0.000000 0.000000 1.000000 1.000000
v 0.364058 11.499999 -0.264505 0.000000 0.000000 1.000000 1.000000
v 0.264504 10.642857 -0.364059 0.000000 0.000000 1.000000 1.000000
v 0.264504 11.071428 -0.364060 0.000000 0.000000 1.000000 1.000000
v 0.264504 11.499999 -0.364060 0.000000 0.000000 1.000000 1.000000
v -0.264503 2.928571 -0.364059 0.000000 0.000000 1.000000 1.000000
v -0.264503 2.500000 -0.364058 0.000000 0.000000 1.000000 1.000000
v -0.364057 2.500000 -0.264504 0.000000 0.000000 1.000000 1.000000
v -0.364057 2.928571 -0.264504 0.000000 0.000000 1.000000 1.000000
v -0.427975 2.500000 -0.139058 0.000000 0.000000 1.000000 1.000000
v -0.264503 3.357142 -0.364059 0.000000 0.000000 1.000000 1.000000
v -0.364057 3.357142 -0.264504 0.000000 0.000000 1.000000 1.000000
v -0.264503 3.785713 -0.364059 0.000000 0.000000 1.000000 1.000000
v -0.364057 3.785713 -0.264504 0.000000 0.000000 1.000000 1.000000
v -0.264503 4.214285 -0.364059 0.000000 0.000000 1.000000 1.000000
v -0.364057 4.214285 -0.264504 0.000000 0.000000 1.000000 1.000000
v -0.264503 4.642857 -0.364059 0.000000 0.000000 1.000000 1.000000
v -0.264503 5.071428 -0.364059 0.000000 0.000000 1.000000 1.000000
v -0.364057 4.642857 -0.264504 0.000000 0.000000 1.000000 1.000000
v -0.264503 5.500000 -0.364059 0.000000 0.000000 1.000000 1.000000
v -0.364057 5.071428 -0.264504 0.000000 0.000000 1.000000 1.000000
v -0.364057 5.500000 -0.264504 0.000000 0.000000 1.000000 1.000000
v -0.264503 5.928571 -0.364059 0.000000 0.000000 1.000000 1.000000
v -0.364057 5.928571 -0.264504 0.000000 0.000000 1.000000 1.000000
v -0.264503 6.357142 -0.364059 0.000000 0.000000 1.000000 1.000000
v -0.364057 6.357142 -0.264504 0.000000 0.000000 1.000000 1.000000
v -0.264503 6.785714 -0.364059 0.000000 0.000000 1.000000 1.000000
v -0.364057 6.785714 -0.264505 0.000000 0.000000 1.000000 1.000000
v -0.264503 7.214286 -0.364059 0.000000 0.000000 1.000000 1.000000
v -0.364057 7.214286 -0.264505 0.000000 0.000000 1.000000 1.000000
v -0.264503 7.642858 -0.364059 0.000000 0.000000 1.000000 1.000000
v -0.364057 7.642858 -0.264505 0.000000 0.000000 1.000000 1.000000
v -0.264503 8.071428 -0.364059 0.000000 0.000000 1.000000 1.000000
v -0.364057 8.071428 -0.264505 0.000000 0.000000 1.000000 1.000000
v -0.264503 8.499999 -0.364059 0.000000 0.000000 1.000000 1.000000
v -0.364057 8.499999 -0.264505 0.000000 0.000000 1.000000 1.000000
v -0.264503 8.928571 -0.364059 0.000000 0.000000 1.000000 1.000000
v -0.364057 8.928571 -0.264505 0.000000 0.000000 1.000000 1.000000
v -0.264503 9.357142 -0.364059 0.000000 0.000000 1.000000 1.000000
v -0.364057 9.357142 -0.264505 0.000000 0.000000 1.000000 1.000000
v -0.427975 9.357142 -0.139059 0.000000 0.000000 1.000000 1.000000
v -0.449999 2.500000 -0.000001 0.000000 0.000000 1.000000 1.000000
v -0.264503 9.785714 -0.364059 0.000000 0.000000 1.000000 1.000000
v -0.364057 9.785714 -0.264505 0.000000 0.000000 1.000000 1.000000
v -0.449999 11.499999 -0.000002 0.000000 0.000000 1.000000 1.000000
v -0.264503 10.214286 -0.364059 0.000000 0.000000 1.000000 1.000000
v -0.427975 11.499999 -0.139059 0.000000 0.000000 1.000000 1.000000
v -0.364057 10.214286 -0.264505 0.000000 0.000000 1.000000 1.000000
v -0.427975 8.928571 0.139056 0.000000 0.000000 1.000000 1.000000
v -0.264503 10.642857 -0.364059 0.000000 0.000000 1.000000 1.000000
v -0.427975 11.499999 0.139056 0.000000 0.000000 1.000000 1.000000
v -0.264503 11.071428 -0.364060 0.000000 0.000000 1.000000 1.000000
v -0.264503 11.499999 -0.364060 0.000000 0.000000 1.000000 1.000000
v -0.364057 10.642857 -0.264505 0.000000 0.000000 1.000000 1.000000
v -0.364057 11.071428 -0.264505 0.000000 0.000000 1.000000 1.000000
v -0.364057 11.499999 -0.264505 0.000000 0.000000 1.000000 1.000000
v -0.427975 2.500000 0.139057 0.000000 0.000000 1.000000 1.000000
v -0.364057 8.928571 0.264501 0.000000 0.000000 1.000000 1.000000
v -0.364057 8.499999 0.264502 0.000000 0.000000 1.000000 1.000000
v -0.364057 9.357142 0.264501 0.000000 0.000000 1.000000 1.000000
v -0.264503 8.499999 0.364056 0.000000 0.000000 1.000000 1.000000
v -0.264503 8.928571 0.364056 0.000000 0.000000 1.000000 1.000000
v -0.264503 9.357142 0.364056 0.000000 0.000000 1.000000 1.000000
v -0.264503 8.071428 0.364056 0.000000 0.000000 1.000000 1.000000
v -0.364057 9.785714 0.264501 0.000000 0.000000 1.000000 1.000000
v -0.364057 8.071428 0.264502 0.000000 0.000000 1.000000 1.000000
v -0.264503 7.642858 0.364056 0.000000 0.000000 1.000000 1.000000
v -0.364057 7.642858 0.264502 0.000000 0.000000 1.000000 1.000000
v -0.139057 11.499999 0.427973 0.000000 0.000000 1.000000 1.000000
v -0.264503 7.214286 0.364056 0.000000 0.000000 1.000000 1.000000
v -0.364057 7.214286 0.264502 0.000000 0.000000 1.000000 1.000000
v -0.264503 6.785714 0.364056 0.000000 0.000000 1.000000 1.000000
v -0.364057 6.785714 0.264502 0.000000 0.000000 1.000000 1.000000
v -0.264503 6.357142 0.364056 0.000000 0.000000 1.000000 1.000000
v -0.364057 6.357142 0.264502 0.000000 0.000000 1.000000 1.000000
v -0.264503 5.928571 0.364056 0.000000 0.000000 1.000000 1.000000
v -0.364057 5.928571 0.264502 0.000000 0.000000 1.000000 1.000000
v -0.264503 5.500000 0.364056 0.000000 0.000000 1.000000 1.000000
v -0.364057 5.500000 0.264502 0.000000 0.000000 1.000000 1.000000
v -0.264503 5.071428 0.364056 0.000000 0.000000 1.000000 1.000000
v -0.364057 5.071428 0.264502 0.000000 0.000000 1.000000 1.000000
v -0.264503 4.642857 0.364056 0.000000 0.000000 1.000000 1.000000
v -0.364057 4.642857 0.264502 0.000000 0.000000 1.000000 1.000000
v -0.264503 4.214285 0.364056 0.000000 0.000000 1.000000 1.000000
v -0.364057 4.214285 0.264502 0.000000 0.000000 1.000000 1.000000
v -0.264503 3.785713 0.364057 0.000000 0.000000 1.000000 1.000000
v -0.364057 3.785713 0.264502 0.000000 0.000000 1.000000 1.000000
v -0.364057 3.357142 0.264502 0.000000 0.000000 1.000000 1.000000
v -0.264503 3.357142 0.364057 0.000000 0.000000 1.000000 1.000000
v -0.364057 2.928571 0.264502 0.000000 0.000000 1.000000 1.000000
v -0.364057 2.500000 0.264502 0.000000 0.000000 1.000000 1.000000
v -0.264503 2.500000 0.364057 0.000000 0.000000 1.000000 1.000000
v -0.264503 2.928571 0.364057 0.000000 0.000000 1.000000 1.000000
v -0.139057 2.500000 0.427974 0.000000 0.000000 1.000000 1.000000
v -0.139057 2.928571 0.427974 0.000000 0.000000 1.000000 1.000000
v 0.000001 2.500000 0.449999 0.000000 0.000000 1.000000 1.000000
v 0.000000 11.499999 0.449998 0.000000 0.000000 1.000000 1.000000
v -0.139057 3.357142 0.427974 0.000000 0.000000 1.000000 1.000000
v -0.264503 11.071428 0.364056 0.000000 0.000000 1.000000 1.000000
v -0.264503 11.499999 0.364056 0.000000 0.000000 1.000000 1.000000
v -0.364057 11.499999 0.264501 0.000000 0.000000 1.000000 1.000000
v -0.364057 11.071428 0.264501 0.000000 0.000000 1.000000 1.000000
v -0.264503 10.642857 0.364056 0.000000 0.000000 1.000000 1.000000
v -0.364057 10.642857 0.264501 0.000000 0.000000 1.000000 1.000000
v -0.364057 10.214286 0.264501 0.000000 0.000000 1.000000 1.000000
v -0.264503 10.214286 0.364056 0.000000 0.000000 1.000000 1.000000
v -0.264503 9.785714 0.364056 0.000000 0.000000 1.000000 1.000000
v -0.470713 2.500000 0.470713 0.000000 0.000000 1.000000 1.000000
v -0.219666 2.500000 0.219666 0.000000 0.000000 1.000000 1.000000
v -0.400010 2.500000 0.500000 0.000000 0.000000 1.000000 1.000000
v -0.500000 2.500000 0.400010 0.000000 0.000000 1.000000 1.000000
v -0.186671 2.500000 0.233333 0.000000 0.000000 1.000000 1.000000
v -0.233333 2.500000 0.186671 0.000000 0.000000 1.000000 1.000000
v 0.400010 2.500000 0.500000 0.000000 0.000000 1.000000 1.000000
v -0.233333 2.500000 -0.186671 0.000000 0.000000 1.000000 1.000000
v 0.186671 2.500000 0.233333 0.000000 0.000000 1.000000 1.000000
v -0.500000 2.500000 -0.400010 0.000000 0.000000 1.000000 1.000000
v 0.219666 2.500000 0.219666 0.000000 0.000000 1.000000 1.000000
v -0.219666 2.500000 -0.219666 0.000000 0.000000 1.000000 1.000000
v 0.470714 2.500000 0.470713 0.000000 0.000000 1.000000 1.000000
v -0.470713 2.500000 -0.470714 0.000000 0.000000 1.000000 1.000000
v 0.500000 2.500000 0.400010 0.000000 0.000000 1.000000 1.000000
v -0.400010 2.500000 -0.500000 0.000000 0.000000 1.000000 1.000000
v 0.233333 2.500000 0.186671 0.000000 0.000000 1.000000 1.000000
v -0.186671 2.500000 -0.233333 0.000000 0.000000 1.000000 1.000000
v 0.500000 2.500000 -0.400010 0.000000 0.000000 1.000000 1.000000
v 0.186671 2.500000 -0.233333 0.000000 0.000000 1.000000 1.000000
v 0.233333 2.500000 -0.186671 0.000000 0.000000 1.000000 1.000000
v 0.400010 2.500000 -0.500000 0.000000 0.000000 1.000000 1.000000
v 0.219666 2.500000 -0.219666 0.000000 0.000000 1.000000 1.000000
v 0.470714 2.500000 -0.470714 0.000000 0.000000 1.000000 1.000000
vt -0.887207 -1.322266
vt -0.896484 -1.533203
vt -0.886719 -1.533203
vt -0.887207 -1.279297
vt -0.896973 -1.279297
vt -0.997559 -1.533203
vt -0.998047 -1.281250
vt -1.006836 -1.322266
vt -1.007812 -1.281250
vt -1.006836 -1.533203
vt -0.887207 -1.322266
vt -0.877441 -1.279297
vt -0.887207 -1.279297
vt -0.876953 -1.535156
vt -0.886719 -1.533203
vt -0.775391 -1.279297
vt -0.775391 -1.535156
vt -0.765625 -1.279297
vt -0.765625 -1.322266
vt -0.765625 -1.365234
vt -0.765625 -1.406250
vt -0.765625 -1.449219
vt -0.765625 -1.535156
vt -0.644043 -1.322266
vt -0.644531 -1.533203
vt -0.634277 -1.533203
vt -0.634277 -1.279297
vt -0.643555 -1.279297
vt -0.533691 -1.533203
vt -0.532715 -1.281250
vt -0.523438 -1.281250
vt -0.523438 -1.322266
vt -0.523926 -1.533203
vt -0.644043 -1.322266
vt -0.654297 -1.535156
vt -0.644531 -1.533203
vt -0.643555 -1.279297
vt -0.653320 -1.279297
vt -0.755859 -1.279297
vt -0.755859 -1.535156
vt -0.765625 -1.279297
vt -0.765625 -1.322266
vt -0.765625 -1.365234
vt -0.765625 -1.406250
vt -0.765625 -1.449219
vt -0.765625 -1.535156
vt 0.134277 0.958649
vt 0.134644 0.942108
vt 0.140137 0.959625
vt 0.140625 0.941284
vt 0.255127 0.941956
vt 0.254883 0.960510
vt 0.260986 0.959717
vt 0.260986 0.942810
vt 0.134644 0.942108
vt 0.134277 0.958649
vt 0.128906 0.941315
vt 0.128296 0.959259
vt 0.009636 0.958466
vt 0.010033 0.939270
vt 0.001523 0.938751
vt 0.001042 0.958801
vt 0.260986 0.942810
vt 0.266846 0.960571
vt 0.260986 0.959717
vt 0.266846 0.942017
vt 0.381592 0.941986
vt 0.381592 0.960327
vt 0.387451 0.959412
vt 0.387207 0.942902
vt 0.520996 0.960052
vt 0.511719 0.940491
vt 0.520508 0.939941
vt 0.512207 0.959717
vt 0.393311 0.960114
vt 0.393311 0.942169
vt 0.387207 0.942902
vt 0.387451 0.959412
vt 0.520996 0.960052
vt 0.515625 0.969513
vt 0.512207 0.959717
vt 0.507324 0.967407
vt 0.504883 0.981598
vt 0.496338 0.978485
vt 0.393311 0.960114
vt 0.404785 0.978622
vt 0.396484 0.967682
vt 0.387695 0.979675
vt 0.387451 0.966797
vt 0.387451 0.959412
vt 0.381592 0.960327
vt 0.378418 0.968079
vt 0.370361 0.979279
vt 0.278076 0.979156
vt 0.270020 0.968201
vt 0.266846 0.960571
vt 0.260742 0.979996
vt 0.260742 0.967133
vt 0.260986 0.959717
vt 0.254883 0.960510
vt 0.251709 0.968201
vt 0.243530 0.979340
vt 0.143188 0.967285
vt 0.151367 0.978302
vt 0.140137 0.959625
vt 0.134033 0.978836
vt 0.134155 0.966003
vt 0.134277 0.958649
vt 0.128296 0.959259
vt 0.125122 0.966858
vt 0.116943 0.977890
vt 0.009636 0.958466
vt 0.025589 0.977127
vt 0.006172 0.968262
vt 0.001042 0.958801
vt 0.014832 0.966125
vt 0.017136 0.980286
vt 0.511719 0.940491
vt 0.515137 0.930664
vt 0.520508 0.939941
vt 0.506348 0.932983
vt 0.503906 0.918823
vt 0.495605 0.922058
vt 0.393311 0.942169
vt 0.404297 0.923401
vt 0.396240 0.934509
vt 0.387207 0.922607
vt 0.387451 0.935486
vt 0.387207 0.942902
vt 0.381592 0.941986
vt 0.378418 0.934387
vt 0.370117 0.923157
vt 0.278320 0.923340
vt 0.270020 0.934265
vt 0.266846 0.942017
vt 0.260986 0.922485
vt 0.260986 0.935425
vt 0.260986 0.942810
vt 0.255127 0.941956
vt 0.251953 0.934326
vt 0.244019 0.923035
vt 0.143799 0.933594
vt 0.152100 0.922668
vt 0.140625 0.941284
vt 0.134888 0.921875
vt 0.134766 0.934753
vt 0.134644 0.942108
vt 0.128906 0.941315
vt 0.125854 0.933716
vt 0.117920 0.922485
vt 0.010033 0.939270
vt 0.026505 0.920959
vt 0.006840 0.929382
vt 0.001523 0.938751
vt 0.015442 0.931702
vt 0.018127 0.917603
vt -2.679688 1.424805
vt -2.679688 2.549805
vt -2.697266 1.424805
vt -2.697266 1.478516
vt -2.714844 1.424805
vt -2.697266 1.531738
vt -2.714844 1.478516
vt -2.732422 1.424805
vt -2.697266 1.585449
vt -2.732422 1.478516
vt -2.714844 1.531738
vt -2.751953 1.424805
vt -2.697266 2.549805
vt -2.732422 1.531738
vt -2.714844 1.585449
vt -2.732422 1.585449
vt -2.714844 1.639160
vt -2.732422 1.639160
vt -2.714844 1.692871
vt -2.732422 1.692871
vt -2.714844 1.746094
vt -2.732422 1.746094
vt -2.714844 1.799805
vt -2.732422 1.799805
vt -2.714844 1.853516
vt -2.732422 1.853516
vt -2.751953 1.853516
vt -2.769531 1.424805
vt -2.714844 1.906738
vt -2.732422 1.906738
vt -2.714844 1.960449
vt -2.769531 2.549805
vt -2.732422 1.960449
vt -2.787109 1.799805
vt -2.751953 2.549805
vt -2.787109 1.424805
vt -2.714844 2.013672
vt -2.732422 2.013672
vt -2.714844 2.067383
vt -2.732422 2.067383
vt -2.714844 2.121094
vt -2.732422 2.121094
vt -2.714844 2.174805
vt -2.732422 2.174805
vt -2.714844 2.228516
vt -2.732422 2.228516
vt -2.714844 2.281250
vt -2.732422 2.281250
vt -2.714844 2.334961
vt -2.732422 2.334961
vt -2.714844 2.388672
vt -2.732422 2.388672
vt -2.714844 2.442383
vt -2.714844 2.496094
vt -2.714844 2.549805
vt -2.732422 2.442383
vt -2.732422 2.496094
vt -2.732422 2.549805
vt -2.787109 2.549805
vt -2.804688 1.799805
vt -2.804688 1.746094
vt -2.822266 1.746094
vt -2.804688 1.692871
vt -2.822266 1.692871
vt -2.822266 1.799805
vt -2.822266 1.639160
vt -2.804688 1.853516
vt -2.839844 1.424805
vt -2.822266 1.853516
vt -2.804688 1.639160
vt -2.822266 1.585449
vt -2.804688 1.585449
vt -2.822266 1.531738
vt -2.804688 1.531738
vt -2.804688 1.478516
vt -2.804688 1.424805
vt -2.822266 1.424805
vt -2.822266 1.478516
vt -2.839844 1.853516
vt -2.857422 1.424805
vt -2.804688 1.906738
vt -2.822266 1.906738
vt -2.857422 2.549805
vt -2.804688 1.960449
vt -2.875000 1.799805
vt -2.875000 1.424805
vt -2.839844 2.549805
vt -2.875000 2.549805
vt -2.822266 1.960449
vt -2.804688 2.013672
vt -2.822266 2.013672
vt -2.804688 2.067383
vt -2.822266 2.067383
vt -2.804688 2.121094
vt -2.822266 2.121094
vt -2.804688 2.174805
vt -2.822266 2.174805
vt -2.804688 2.228516
vt -2.822266 2.228516
vt -2.804688 2.281250
vt -2.822266 2.281250
vt -2.804688 2.334961
vt -2.822266 2.334961
vt -2.804688 2.388672
vt -2.822266 2.388672
vt -2.804688 2.442383
vt -2.804688 2.496094
vt -2.804688 2.549805
vt -2.822266 2.442383
vt -2.822266 2.496094
vt -2.822266 2.549805
vt -2.892578 1.478516
vt -2.892578 1.424805
vt -2.910156 1.424805
vt -2.910156 1.478516
vt -2.927734 1.424805
vt -2.892578 1.531738
vt -2.910156 1.531738
vt -2.892578 1.585449
vt -2.910156 1.585449
vt -2.892578 1.639160
vt -2.910156 1.639160
vt -2.892578 1.692871
vt -2.892578 1.746094
vt -2.910156 1.692871
vt -2.892578 1.799805
vt -2.910156 1.746094
vt -2.910156 1.799805
vt -2.892578 1.853516
vt -2.910156 1.853516
vt -2.892578 1.906738
vt -2.910156 1.906738
vt -2.892578 1.960449
vt -2.910156 1.960449
vt -2.892578 2.013672
vt -2.910156 2.013672
vt -2.892578 2.067383
vt -2.910156 2.067383
vt -2.892578 2.121094
vt -2.910156 2.121094
vt -2.892578 2.174805
vt -2.910156 2.174805
vt -2.892578 2.228516
vt -2.910156 2.228516
vt -2.892578 2.281250
vt -2.910156 2.281250
vt -2.927734 2.281250
vt -2.945312 1.424805
vt -2.892578 2.334961
vt -2.910156 2.334961
vt -2.945312 2.549805
vt -2.892578 2.388672
vt -2.927734 2.549805
vt -2.910156 2.388672
vt -2.962891 2.228516
vt -2.892578 2.442383
vt -2.962891 2.549805
vt -2.892578 2.496094
vt -2.892578 2.549805
vt -2.910156 2.442383
vt -2.910156 2.496094
vt -2.910156 2.549805
vt -2.962891 1.424805
vt -2.980469 2.228516
vt -2.980469 2.174805
vt -2.980469 2.281250
vt -2.998047 2.174805
vt -2.998047 2.228516
vt -2.998047 2.281250
vt -2.998047 2.121094
vt -2.980469 2.334961
vt -2.980469 2.121094
vt -2.998047 2.067383
vt -2.980469 2.067383
vt -3.015625 2.549805
vt -2.998047 2.013672
vt -2.980469 2.013672
vt -2.998047 1.960449
vt -2.980469 1.960449
vt -2.998047 1.906738
vt -2.980469 1.906738
vt -2.998047 1.853516
vt -2.980469 1.853516
vt -2.998047 1.799805
vt -2.980469 1.799805
vt -2.998047 1.746094
vt -2.980469 1.746094
vt -2.998047 1.692871
vt -2.980469 1.692871
vt -2.998047 1.639160
vt -2.980469 1.639160
vt -2.998047 1.585449
vt -2.980469 1.585449
vt -2.980469 1.531738
vt -2.998047 1.531738
vt -2.980469 1.478516
vt -2.980469 1.424805
vt -2.998047 1.424805
vt -2.998047 1.478516
vt -3.015625 1.424805
vt -3.015625 1.478516
vt -3.033203 1.424805
vt -3.033203 2.549805
vt -3.015625 1.531738
vt -2.998047 2.496094
vt -2.998047 2.549805
vt -2.980469 2.549805
vt -2.980469 2.496094
vt -2.998047 2.442383
vt -2.980469 2.442383
vt -2.980469 2.388672
vt -2.998047 2.388672
vt -2.998047 2.334961
vt -3.474609 1.941406
vt -3.505859 1.909668
vt -3.470703 1.932617
vt -3.484375 1.944824
vt -3.503906 1.905762
vt -3.509766 1.911621
vt -3.470703 1.832520
vt -3.556641 1.911621
vt -3.503906 1.858887
vt -3.583984 1.944824
vt -3.505859 1.854980
vt -3.560547 1.909668
vt -3.474609 1.823730
vt -3.591797 1.941406
vt -3.484375 1.819824
vt -3.595703 1.932617
vt -3.509766 1.853027
vt -3.562500 1.905762
vt -3.583984 1.819824
vt -3.562500 1.858887
vt -3.556641 1.853027
vt -3.595703 1.832520
vt -3.560547 1.854980
vt -3.591797 1.823730
vt1 0.495605 0.966705
vt1 0.486084 0.755127
vt1 0.495850 0.755005
vt1 0.495361 1.009087
vt1 0.485596 1.008949
vt1 0.385254 0.755249
vt1 0.384521 1.008148
vt1 0.375244 0.965942
vt1 0.374756 1.008057
vt1 0.375244 0.755493
vt1 0.495605 0.966705
vt1 0.504883 1.009209
vt1 0.495361 1.009087
vt1 0.505859 0.754639
vt1 0.495850 0.755005
vt1 0.606934 1.009644
vt1 0.606934 0.754639
vt1 0.617188 1.009666
vt1 0.617188 0.967041
vt1 0.617188 0.924500
vt1 0.617188 0.882019
vt1 0.617188 0.839600
vt1 0.617188 0.754639
vt1 0.738281 0.966705
vt1 0.738281 0.755005
vt1 0.748047 0.755005
vt1 0.748535 1.008949
vt1 0.738770 1.009087
vt1 0.848633 0.755249
vt1 0.849609 1.008141
vt1 0.859375 1.008049
vt1 0.858887 0.965942
vt1 0.858887 0.755493
vt1 0.738281 0.966705
vt1 0.728516 0.754639
vt1 0.738281 0.755005
vt1 0.738770 1.009087
vt1 0.729004 1.009209
vt1 0.626953 1.009644
vt1 0.626953 0.754639
vt1 0.617188 1.009666
vt1 0.617188 0.967041
vt1 0.617188 0.924500
vt1 0.617188 0.882019
vt1 0.617188 0.839600
vt1 0.617188 0.754639
vt1 0.472168 0.461426
vt1 0.472168 0.455078
vt1 0.473145 0.461426
vt1 0.473145 0.455078
vt1 0.489502 0.455078
vt1 0.489258 0.461426
vt1 0.490234 0.461426
vt1 0.490234 0.455078
vt1 0.472168 0.455078
vt1 0.472168 0.461426
vt1 0.471436 0.455078
vt1 0.471436 0.461426
vt1 0.454346 0.461426
vt1 0.454590 0.454590
vt1 0.453369 0.454590
vt1 0.453125 0.461426
vt1 0.490234 0.455078
vt1 0.490967 0.461426
vt1 0.490234 0.461426
vt1 0.490967 0.455078
vt1 0.507324 0.455078
vt1 0.507324 0.461426
vt1 0.508301 0.461426
vt1 0.507812 0.455078
vt1 0.526855 0.461426
vt1 0.525879 0.455078
vt1 0.526855 0.455078
vt1 0.525879 0.461426
vt1 0.508789 0.461426
vt1 0.508789 0.455078
vt1 0.507812 0.455078
vt1 0.508301 0.461426
vt1 0.526855 0.461426
vt1 0.526367 0.462891
vt1 0.525879 0.461426
vt1 0.524902 0.462402
vt1 0.524902 0.464844
vt1 0.523438 0.464355
vt1 0.508789 0.461426
vt1 0.510742 0.464355
vt1 0.509277 0.462891
vt1 0.508301 0.464355
vt1 0.508301 0.462402
vt1 0.508301 0.461426
vt1 0.507324 0.461426
vt1 0.506836 0.462891
vt1 0.505859 0.464355
vt1 0.492676 0.464355
vt1 0.491455 0.462891
vt1 0.490967 0.461426
vt1 0.490234 0.464355
vt1 0.490234 0.462402
vt1 0.490234 0.461426
vt1 0.489258 0.461426
vt1 0.489014 0.462891
vt1 0.487793 0.464355
vt1 0.473389 0.462402
vt1 0.474609 0.464355
vt1 0.473145 0.461426
vt1 0.472168 0.464355
vt1 0.472168 0.462402
vt1 0.472168 0.461426
vt1 0.471436 0.461426
vt1 0.470947 0.462402
vt1 0.469727 0.463867
vt1 0.454346 0.461426
vt1 0.456787 0.463867
vt1 0.453857 0.462891
vt1 0.453125 0.461426
vt1 0.455322 0.462402
vt1 0.455566 0.464355
vt1 0.525879 0.455078
vt1 0.526367 0.453613
vt1 0.526855 0.455078
vt1 0.524902 0.453613
vt1 0.524414 0.451660
vt1 0.523438 0.452148
vt1 0.508789 0.455078
vt1 0.510254 0.452637
vt1 0.509277 0.454102
vt1 0.507812 0.452148
vt1 0.508301 0.454102
vt1 0.507812 0.455078
vt1 0.507324 0.455078
vt1 0.506836 0.454102
vt1 0.505371 0.452637
vt1 0.492676 0.452637
vt1 0.491455 0.454102
vt1 0.490967 0.455078
vt1 0.490234 0.452148
vt1 0.490234 0.454102
vt1 0.490234 0.455078
vt1 0.489502 0.455078
vt1 0.489014 0.454102
vt1 0.487793 0.452637
vt1 0.473633 0.454102
vt1 0.474609 0.452148
vt1 0.473145 0.455078
vt1 0.472168 0.452148
vt1 0.472168 0.454102
vt1 0.472168 0.455078
vt1 0.471436 0.455078
vt1 0.470947 0.454102
vt1 0.469971 0.452148
vt1 0.454590 0.454590
vt1 0.456787 0.452148
vt1 0.454102 0.453125
vt1 0.453369 0.454590
vt1 0.455322 0.453613
vt1 0.455566 0.451660
vt1 0.452881 0.451660
vt1 0.452881 0.593506
vt1 0.450684 0.451660
vt1 0.450684 0.458496
vt1 0.448242 0.451660
vt1 0.450684 0.465332
vt1 0.448242 0.458496
vt1 0.446045 0.451660
vt1 0.450684 0.472168
vt1 0.446045 0.458496
vt1 0.448242 0.465332
vt1 0.443848 0.451660
vt1 0.450684 0.593506
vt1 0.446045 0.465332
vt1 0.448242 0.472168
vt1 0.446045 0.472168
vt1 0.448242 0.478516
vt1 0.446045 0.478516
vt1 0.448242 0.485352
vt1 0.446045 0.485352
vt1 0.448242 0.492188
vt1 0.446045 0.492188
vt1 0.448242 0.499023
vt1 0.446045 0.499023
vt1 0.448242 0.505615
vt1 0.446045 0.505615
vt1 0.443848 0.505615
vt1 0.441650 0.451660
vt1 0.448242 0.512451
vt1 0.446045 0.512451
vt1 0.448242 0.519043
vt1 0.441650 0.593506
vt1 0.446045 0.519043
vt1 0.439453 0.499023
vt1 0.443848 0.593506
vt1 0.439453 0.451660
vt1 0.448242 0.525879
vt1 0.446045 0.525879
vt1 0.448242 0.532715
vt1 0.446045 0.532715
vt1 0.448242 0.539307
vt1 0.446045 0.539307
vt1 0.448242 0.546143
vt1 0.446045 0.546143
vt1 0.448242 0.552979
vt1 0.446045 0.552979
vt1 0.448242 0.559570
vt1 0.446045 0.559570
vt1 0.448242 0.566406
vt1 0.446045 0.566406
vt1 0.448242 0.573242
vt1 0.446045 0.573242
vt1 0.448242 0.580078
vt1 0.448242 0.586670
vt1 0.448242 0.593506
vt1 0.446045 0.580078
vt1 0.446045 0.586670
vt1 0.446045 0.593506
vt1 0.439453 0.593506
vt1 0.437256 0.499023
vt1 0.437256 0.492188
vt1 0.435059 0.492188
vt1 0.437256 0.485352
vt1 0.435059 0.485352
vt1 0.435059 0.499023
vt1 0.435059 0.478516
vt1 0.437256 0.505615
vt1 0.432861 0.451660
vt1 0.435059 0.505615
vt1 0.437256 0.478516
vt1 0.435059 0.472168
vt1 0.437256 0.472168
vt1 0.435059 0.465332
vt1 0.437256 0.465332
vt1 0.437256 0.458496
vt1 0.437256 0.451660
vt1 0.435059 0.451660
vt1 0.435059 0.458496
vt1 0.432861 0.505615
vt1 0.430664 0.451660
vt1 0.437256 0.512451
vt1 0.435059 0.512451
vt1 0.430664 0.593506
vt1 0.437256 0.519043
vt1 0.428467 0.499023
vt1 0.428467 0.451660
vt1 0.432861 0.593506
vt1 0.428467 0.593506
vt1 0.435059 0.519043
vt1 0.437256 0.525879
vt1 0.435059 0.525879
vt1 0.437256 0.532715
vt1 0.435059 0.532715
vt1 0.437256 0.539307
vt1 0.435059 0.539307
vt1 0.437256 0.546143
vt1 0.435059 0.546143
vt1 0.437256 0.552979
vt1 0.435059 0.552979
vt1 0.437256 0.559570
vt1 0.435059 0.559570
vt1 0.437256 0.566406
vt1 0.435059 0.566406
vt1 0.437256 0.573242
vt1 0.435059 0.573242
vt1 0.437256 0.580078
vt1 0.437256 0.586670
vt1 0.437256 0.593506
vt1 0.435059 0.580078
vt1 0.435059 0.586670
vt1 0.435059 0.593506
vt1 0.426025 0.458496
vt1 0.426025 0.451660
vt1 0.423828 0.451660
vt1 0.423828 0.458496
vt1 0.421631 0.451660
vt1 0.426025 0.465332
vt1 0.423828 0.465332
vt1 0.426025 0.472168
vt1 0.423828 0.472168
vt1 0.426025 0.478516
vt1 0.423828 0.478516
vt1 0.426025 0.485352
vt1 0.426025 0.492188
vt1 0.423828 0.485352
vt1 0.426025 0.499023
vt1 0.423828 0.492188
vt1 0.423828 0.499023
vt1 0.426025 0.505615
vt1 0.423828 0.505615
vt1 0.426025 0.512451
vt1 0.423828 0.512451
vt1 0.426025 0.519043
vt1 0.423828 0.519043
vt1 0.426025 0.525879
vt1 0.423828 0.525879
vt1 0.426025 0.532715
vt1 0.423828 0.532715
vt1 0.426025 0.539307
vt1 0.423828 0.539307
vt1 0.426025 0.546143
vt1 0.423828 0.546143
vt1 0.426025 0.552979
vt1 0.423828 0.552979
vt1 0.426025 0.559570
vt1 0.423828 0.559570
vt1 0.421631 0.559570
vt1 0.419434 0.451660
vt1 0.426025 0.566406
vt1 0.423828 0.566406
vt1 0.419434 0.593506
vt1 0.426025 0.573242
vt1 0.421631 0.593506
vt1 0.423828 0.573242
vt1 0.417236 0.552979
vt1 0.426025 0.580078
vt1 0.417236 0.593506
vt1 0.426025 0.586670
vt1 0.426025 0.593506
vt1 0.423828 0.580078
vt1 0.423828 0.586670
vt1 0.423828 0.593506
vt1 0.417236 0.451660
vt1 0.415039 0.552979
vt1 0.415039 0.546143
vt1 0.415039 0.559570
vt1 0.412842 0.546143
vt1 0.412842 0.552979
vt1 0.412842 0.559570
vt1 0.412842 0.539307
vt1 0.415039 0.566406
vt1 0.415039 0.539307
vt1 0.412842 0.532715
vt1 0.415039 0.532715
vt1 0.410645 0.593506
vt1 0.412842 0.525879
vt1 0.415039 0.525879
vt1 0.412842 0.519043
vt1 0.415039 0.519043
vt1 0.412842 0.512451
vt1 0.415039 0.512451
vt1 0.412842 0.505615
vt1 0.415039 0.505615
vt1 0.412842 0.499023
vt1 0.415039 0.499023
vt1 0.412842 0.492188
vt1 0.415039 0.492188
vt1 0.412842 0.485352
vt1 0.415039 0.485352
vt1 0.412842 0.478516
vt1 0.415039 0.478516
vt1 0.412842 0.472168
vt1 0.415039 0.472168
vt1 0.415039 0.465332
vt1 0.412842 0.465332
vt1 0.415039 0.458496
vt1 0.415039 0.451660
vt1 0.412842 0.451660
vt1 0.412842 0.458496
vt1 0.410645 0.451660
vt1 0.410645 0.458496
vt1 0.408447 0.451660
vt1 0.408447 0.593506
vt1 0.410645 0.465332
vt1 0.412842 0.586670
vt1 0.412842 0.593506
vt1 0.415039 0.593506
vt1 0.415039 0.586670
vt1 0.412842 0.580078
vt1 0.415039 0.580078
vt1 0.415039 0.573242
vt1 0.412842 0.573242
vt1 0.412842 0.566406
vt1 0.542480 0.466797
vt1 0.538574 0.462891
vt1 0.542969 0.465820
vt1 0.541504 0.467285
vt1 0.538574 0.462402
vt1 0.538086 0.463379
vt1 0.542969 0.453125
vt1 0.532227 0.463379
vt1 0.538574 0.456543
vt1 0.528809 0.467285
vt1 0.538574 0.456055
vt1 0.531738 0.462891
vt1 0.542480 0.452148
vt1 0.527344 0.466797
vt1 0.541504 0.451660
vt1 0.526855 0.465820
vt1 0.538086 0.456055
vt1 0.531250 0.462402
vt1 0.528809 0.451660
vt1 0.531250 0.456543
vt1 0.532227 0.456055
vt1 0.526855 0.453125
vt1 0.531738 0.456055
vt1 0.527344 0.452148
vn -0.385827 0.000000 0.921260
vn -0.031496 0.000000 1.000000
vn -0.385827 0.000000 0.921260
vn -0.385827 0.000000 0.921260
vn -0.031496 0.000000 1.000000
vn 0.031496 0.000000 1.000000
vn 0.031496 0.000000 1.000000
vn 0.385827 0.000000 0.921260
vn 0.385827 0.000000 0.921260
vn 0.385827 0.000000 0.921260
vn -0.921260 0.000000 0.385827
vn -1.000000 0.000000 0.031496
vn -0.921260 0.000000 0.385827
vn -1.000000 0.000000 0.031496
vn -0.921260 0.000000 0.385827
vn -1.000000 -0.000000 -0.031496
vn -1.000000 -0.000000 -0.031496
vn -0.921260 -0.000000 -0.385827
vn -0.921260 -0.000000 -0.385827
vn -0.921260 -0.000000 -0.385827
vn -0.921260 -0.000000 -0.385827
vn -0.921260 -0.000000 -0.385827
vn -0.921260 -0.000000 -0.385827
vn 0.921260 -0.000000 -0.385827
vn 0.921260 -0.000000 -0.385827
vn 1.000000 -0.000000 -0.031496
vn 1.000000 -0.000000 -0.031496
vn 0.921260 -0.000000 -0.385827
vn 1.000000 0.000000 0.031496
vn 1.000000 0.000000 0.031496
vn 0.921260 0.000000 0.385827
vn 0.921260 0.000000 0.385827
vn 0.921260 0.000000 0.385827
vn 0.385827 -0.000000 -0.921260
vn 0.031496 -0.000000 -1.000000
vn 0.385827 -0.000000 -0.921260
vn 0.385827 -0.000000 -0.921260
vn 0.031496 -0.000000 -1.000000
vn -0.031496 -0.000000 -1.000000
vn -0.031496 -0.000000 -1.000000
vn -0.385827 -0.000000 -0.921260
vn -0.385827 -0.000000 -0.921260
vn -0.385827 -0.000000 -0.921260
vn -0.385827 -0.000000 -0.921260
vn -0.385827 -0.000000 -0.921260
vn -0.385827 -0.000000 -0.921260
vn -0.921260 0.000000 0.385827
vn -0.921260 0.000000 0.385827
vn -1.000000 0.000000 0.023622
vn -1.000000 0.000000 0.023622
vn -1.000000 -0.000000 -0.023622
vn -1.000000 -0.000000 -0.023622
vn -0.921260 -0.000000 -0.385827
vn -0.921260 -0.000000 -0.385827
vn -0.385827 0.000000 0.921260
vn -0.385827 0.000000 0.921260
vn -0.023622 0.000000 1.000000
vn -0.023622 0.000000 1.000000
vn 0.023622 0.000000 1.000000
vn 0.023622 0.000000 1.000000
vn 0.385827 0.000000 0.921260
vn 0.385827 0.000000 0.921260
vn -0.385827 -0.000000 -0.921260
vn -0.023622 -0.000000 -1.000000
vn -0.385827 -0.000000 -0.921260
vn -0.023622 -0.000000 -1.000000
vn 0.023622 -0.000000 -1.000000
vn 0.023622 -0.000000 -1.000000
vn 0.385827 -0.000000 -0.921260
vn 0.385827 -0.000000 -0.921260
vn 0.921260 0.000000 0.385827
vn 1.000000 0.000000 0.023622
vn 0.921260 0.000000 0.385827
vn 1.000000 0.000000 0.023622
vn 1.000000 -0.000000 -0.023622
vn 1.000000 -0.000000 -0.023622
vn 0.921260 -0.000000 -0.385827
vn 0.921260 -0.000000 -0.385827
vn 0.409449 0.818898 0.409449
vn 0.212598 0.952756 0.212598
vn 0.692913 0.724409 0.031496
vn 0.488189 0.874016 0.007874
vn 0.000000 1.000000 -0.000000
vn 0.000000 1.000000 -0.000000
vn 0.692913 0.724409 -0.031496
vn 0.000000 1.000000 -0.000000
vn 0.488189 0.874016 -0.007874
vn 0.000000 1.000000 -0.000000
vn 0.212598 0.952756 -0.212599
vn 0.409449 0.818897 -0.409449
vn 0.031496 0.724409 -0.692913
vn 0.007874 0.874016 -0.488189
vn 0.000000 1.000000 -0.000000
vn 0.000000 1.000000 -0.000000
vn -0.007874 0.874016 -0.488189
vn -0.031496 0.724409 -0.692913
vn 0.000000 1.000000 -0.000000
vn -0.212598 0.952756 -0.212599
vn -0.409449 0.818897 -0.409449
vn -0.692913 0.724409 -0.031496
vn -0.488189 0.874016 -0.007874
vn 0.000000 1.000000 -0.000000
vn -0.488189 0.874016 0.007874
vn 0.000000 1.000000 -0.000000
vn -0.692913 0.724409 0.031496
vn 0.000000 1.000000 -0.000000
vn -0.212598 0.952756 0.212598
vn -0.409449 0.818898 0.409449
vn -0.031496 0.724409 0.692913
vn -0.007874 0.874016 0.488189
vn 0.000000 1.000000 -0.000000
vn 0.031496 0.724409 0.692913
vn 0.000000 1.000000 -0.000000
vn 0.212598 0.952756 0.212598
vn 0.409449 0.818898 0.409449
vn 0.007874 0.874016 0.488189
vn 0.000000 1.000000 -0.000000
vn 0.692913 -0.724409 0.031496
vn 0.212598 -0.952756 0.212599
vn 0.409449 -0.818897 0.409449
vn 0.488189 -0.874016 0.007874
vn 0.000000 -1.000000 0.000000
vn 0.000000 -1.000000 0.000000
vn 0.692913 -0.724409 -0.031496
vn 0.000000 -1.000000 0.000000
vn 0.488189 -0.874016 -0.007874
vn 0.000000 -1.000000 0.000000
vn 0.212598 -0.952756 -0.212598
vn 0.409449 -0.818898 -0.409449
vn 0.031496 -0.724409 -0.692913
vn 0.007874 -0.874016 -0.488189
vn 0.000000 -1.000000 0.000000
vn 0.000000 -1.000000 0.000000
vn -0.007874 -0.874016 -0.488189
vn -0.031496 -0.724409 -0.692913
vn 0.000000 -1.000000 0.000000
vn -0.212598 -0.952756 -0.212598
vn -0.409449 -0.818898 -0.409449
vn -0.692913 -0.724409 -0.031496
vn -0.488189 -0.874016 -0.007874
vn 0.000000 -1.000000 0.000000
vn -0.488189 -0.874016 0.007874
vn 0.000000 -1.000000 0.000000
vn -0.692913 -0.724409 0.031496
vn 0.000000 -1.000000 0.000000
vn -0.212598 -0.952756 0.212599
vn -0.409449 -0.818897 0.409449
vn -0.031496 -0.724409 0.692913
vn -0.007874 -0.874016 0.488189
vn 0.000000 -1.000000 0.000000
vn 0.031496 -0.724409 0.692913
vn 0.000000 -1.000000 0.000000
vn 0.212598 -0.952756 0.212599
vn 0.409449 -0.818897 0.409449
vn 0.007874 -0.874016 0.488189
vn 0.000000 -1.000000 0.000000
vn 0.000000 0.000000 1.000000
vn 0.000000 0.000000 1.000000
vn 0.307087 0.000000 0.952756
vn 0.307087 0.000000 0.952756
vn 0.590551 0.000000 0.811023
vn 0.307087 0.000000 0.952756
vn 0.590551 0.000000 0.811023
vn 0.811024 0.000000 0.590551
vn 0.307087 0.000000 0.952756
vn 0.811024 0.000000 0.590551
vn 0.590551 0.000000 0.811023
vn 0.952756 0.000000 0.307087
vn 0.307087 0.000000 0.952756
vn 0.811024 0.000000 0.590551
vn 0.590551 0.000000 0.811023
vn 0.811024 0.000000 0.590551
vn 0.590551 0.000000 0.811023
vn 0.811024 0.000000 0.590551
vn 0.590551 0.000000 0.811023
vn 0.811024 0.000000 0.590551
vn 0.590551 0.000000 0.811023
vn 0.811024 0.000000 0.590551
vn 0.590551 0.000000 0.811023
vn 0.811024 0.000000 0.590551
vn 0.590551 0.000000 0.811023
vn 0.811024 0.000000 0.590551
vn 0.952756 0.000000 0.307087
vn 1.000000 0.000000 0.000000
vn 0.590551 0.000000 0.811023
vn 0.811024 0.000000 0.590551
vn 0.590551 0.000000 0.811023
vn 1.000000 0.000000 0.000000
vn 0.811024 0.000000 0.590551
vn 0.952756 -0.000000 -0.307087
vn 0.952756 0.000000 0.307087
vn 0.952756 -0.000000 -0.307087
vn 0.590551 0.000000 0.811023
vn 0.811024 0.000000 0.590551
vn 0.590551 0.000000 0.811023
vn 0.811024 0.000000 0.590551
vn 0.590551 0.000000 0.811023
vn 0.811024 0.000000 0.590551
vn 0.590551 0.000000 0.811023
vn 0.811024 0.000000 0.590551
vn 0.590551 0.000000 0.811023
vn 0.811024 0.000000 0.590551
vn 0.590551 0.000000 0.811023
vn 0.811024 0.000000 0.590551
vn 0.590551 0.000000 0.811023
vn 0.811024 0.000000 0.590551
vn 0.590551 0.000000 0.811023
vn 0.811024 0.000000 0.590551
vn 0.590551 0.000000 0.811023
vn 0.590551 0.000000 0.811023
vn 0.590551 0.000000 0.811023
vn 0.811024 0.000000 0.590551
vn 0.811024 0.000000 0.590551
vn 0.811024 0.000000 0.590551
vn 0.952756 -0.000000 -0.307087
vn 0.811024 -0.000000 -0.590551
vn 0.811024 -0.000000 -0.590551
vn 0.590551 -0.000000 -0.811023
vn 0.811024 -0.000000 -0.590551
vn 0.590551 -0.000000 -0.811023
vn 0.590551 -0.000000 -0.811023
vn 0.590551 -0.000000 -0.811023
vn 0.811024 -0.000000 -0.590551
vn 0.307087 -0.000000 -0.952756
vn 0.590551 -0.000000 -0.811023
vn 0.811024 -0.000000 -0.590551
vn 0.590551 -0.000000 -0.811023
vn 0.811024 -0.000000 -0.590551
vn 0.590551 -0.000000 -0.811023
vn 0.811024 -0.000000 -0.590551
vn 0.811024 -0.000000 -0.590551
vn 0.811024 -0.000000 -0.590551
vn 0.590551 -0.000000 -0.811023
vn 0.590551 -0.000000 -0.811023
vn 0.307087 -0.000000 -0.952756
vn 0.000000 -0.000000 -1.000000
vn 0.811024 -0.000000 -0.590551
vn 0.590551 -0.000000 -0.811023
vn 0.000000 -0.000000 -1.000000
vn 0.811024 -0.000000 -0.590551
vn -0.307087 -0.000000 -0.952756
vn -0.307087 -0.000000 -0.952756
vn 0.307087 -0.000000 -0.952756
vn -0.307087 -0.000000 -0.952756
vn 0.590551 -0.000000 -0.811023
vn 0.811024 -0.000000 -0.590551
vn 0.590551 -0.000000 -0.811023
vn 0.811024 -0.000000 -0.590551
vn 0.590551 -0.000000 -0.811023
vn 0.811024 -0.000000 -0.590551
vn 0.590551 -0.000000 -0.811023
vn 0.811024 -0.000000 -0.590551
vn 0.590551 -0.000000 -0.811023
vn 0.811024 -0.000000 -0.590551
vn 0.590551 -0.000000 -0.811023
vn 0.811024 -0.000000 -0.590551
vn 0.590551 -0.000000 -0.811023
vn 0.811024 -0.000000 -0.590551
vn 0.590551 -0.000000 -0.811023
vn 0.811024 -0.000000 -0.590551
vn 0.590551 -0.000000 -0.811023
vn 0.811024 -0.000000 -0.590551
vn 0.811024 -0.000000 -0.590551
vn 0.811024 -0.000000 -0.590551
vn 0.590551 -0.000000 -0.811023
vn 0.590551 -0.000000 -0.811023
vn 0.590551 -0.000000 -0.811023
vn -0.590551 -0.000000 -0.811023
vn -0.590551 -0.000000 -0.811023
vn -0.811024 -0.000000 -0.590551
vn -0.811024 -0.000000 -0.590551
vn -0.952756 -0.000000 -0.307087
vn -0.590551 -0.000000 -0.811023
vn -0.811024 -0.000000 -0.590551
vn -0.590551 -0.000000 -0.811023
vn -0.811024 -0.000000 -0.590551
vn -0.590551 -0.000000 -0.811023
vn -0.811024 -0.000000 -0.590551
vn -0.590551 -0.000000 -0.811023
vn -0.590551 -0.000000 -0.811023
vn -0.811024 -0.000000 -0.590551
vn -0.590551 -0.000000 -0.811023
vn -0.811024 -0.000000 -0.590551
vn -0.811024 -0.000000 -0.590551
vn -0.590551 -0.000000 -0.811023
vn -0.811024 -0.000000 -0.590551
vn -0.590551 -0.000000 -0.811023
vn -0.811024 -0.000000 -0.590551
vn -0.590551 -0.000000 -0.811023
vn -0.811024 -0.000000 -0.590551
vn -0.590551 -0.000000 -0.811023
vn -0.811024 -0.000000 -0.590551
vn -0.590551 -0.000000 -0.811023
vn -0.811024 -0.000000 -0.590551
vn -0.590551 -0.000000 -0.811023
vn -0.811024 -0.000000 -0.590551
vn -0.590551 -0.000000 -0.811023
vn -0.811024 -0.000000 -0.590551
vn -0.590551 -0.000000 -0.811023
vn -0.811024 -0.000000 -0.590551
vn -0.590551 -0.000000 -0.811023
vn -0.811024 -0.000000 -0.590551
vn -0.952756 -0.000000 -0.307087
vn -1.000000 0.000000 0.000000
vn -0.590551 -0.000000 -0.811023
vn -0.811024 -0.000000 -0.590551
vn -1.000000 0.000000 0.000000
vn -0.590551 -0.000000 -0.811023
vn -0.952756 -0.000000 -0.307087
vn -0.811024 -0.000000 -0.590551
vn -0.952756 0.000000 0.307087
vn -0.590551 -0.000000 -0.811023
vn -0.952756 0.000000 0.307087
vn -0.590551 -0.000000 -0.811023
vn -0.590551 -0.000000 -0.811023
vn -0.811024 -0.000000 -0.590551
vn -0.811024 -0.000000 -0.590551
vn -0.811024 -0.000000 -0.590551
vn -0.952756 0.000000 0.307087
vn -0.811024 0.000000 0.590551
vn -0.811024 0.000000 0.590551
vn -0.811024 0.000000 0.590551
vn -0.590551 0.000000 0.811023
vn -0.590551 0.000000 0.811023
vn -0.590551 0.000000 0.811023
vn -0.590551 0.000000 0.811023
vn -0.811024 0.000000 0.590551
vn -0.811024 0.000000 0.590551
vn -0.590551 0.000000 0.811023
vn -0.811024 0.000000 0.590551
vn -0.307087 0.000000 0.952756
vn -0.590551 0.000000 0.811023
vn -0.811024 0.000000 0.590551
vn -0.590551 0.000000 0.811023
vn -0.811024 0.000000 0.590551
vn -0.590551 0.000000 0.811023
vn -0.811024 0.000000 0.590551
vn -0.590551 0.000000 0.811023
vn -0.811024 0.000000 0.590551
vn -0.590551 0.000000 0.811023
vn -0.811024 0.000000 0.590551
vn -0.590551 0.000000 0.811023
vn -0.811024 0.000000 0.590551
vn -0.590551 0.000000 0.811023
vn -0.811024 0.000000 0.590551
vn -0.590551 0.000000 0.811023
vn -0.811024 0.000000 0.590551
vn -0.590551 0.000000 0.811023
vn -0.811024 0.000000 0.590551
vn -0.811024 0.000000 0.590551
vn -0.590551 0.000000 0.811023
vn -0.811024 0.000000 0.590551
vn -0.811024 0.000000 0.590551
vn -0.590551 0.000000 0.811023
vn -0.590551 0.000000 0.811023
vn -0.307087 0.000000 0.952756
vn -0.307087 0.000000 0.952756
vn 0.000000 0.000000 1.000000
vn 0.000000 0.000000 1.000000
vn -0.307087 0.000000 0.952756
vn -0.590551 0.000000 0.811023
vn -0.590551 0.000000 0.811023
vn -0.811024 0.000000 0.590551
vn -0.811024 0.000000 0.590551
vn -0.590551 0.000000 0.811023
vn -0.811024 0.000000 0.590551
vn -0.811024 0.000000 0.590551
vn -0.590551 0.000000 0.811023
vn -0.590551 0.000000 0.811023
vn 0.000000 1.000000 -0.000000
vn 0.000000 1.000000 -0.000000
vn 0.000000 1.000000 -0.000000
vn 0.000000 1.000000 -0.000000
vn 0.000000 1.000000 -0.000000
vn 0.000000 1.000000 -0.000000
vn 0.000000 1.000000 -0.000000
vn 0.000000 1.000000 -0.000000
vn 0.000000 1.000000 -0.000000
vn 0.000000 1.000000 -0.000000
vn 0.000000 1.000000 -0.000000
vn 0.000000 1.000000 -0.000000
vn 0.000000 1.000000 -0.000000
vn 0.000000 1.000000 -0.000000
vn 0.000000 1.000000 -0.000000
vn 0.000000 1.000000 -0.000000
vn 0.000000 1.000000 -0.000000
vn 0.000000 1.000000 -0.000000
vn 0.000000 1.000000 -0.000000
vn 0.000000 1.000000 -0.000000
vn 0.000000 1.000000 -0.000000
vn 0.000000 1.000000 -0.000000
vn 0.000000 1.000000 -0.000000
vn 0.000000 1.000000 -0.000000
tan 0.007254 -0.948602 0.003038 1.000000
tan -0.007874 -1.000000 -0.000248 1.000000
tan -0.007254 -0.921260 -0.003038 1.000000
tan 0.014508 -0.948602 0.006076 1.000000
tan 0.007874 -1.000000 0.000248 1.000000
tan -0.007874 -1.000000 0.000248 1.000000
tan 0.007874 -1.000000 -0.000248 1.000000
tan 0.007254 -0.948602 -0.003038 1.000000
tan 0.007254 -0.948602 -0.003038 1.000000
tan -0.014508 -0.921260 0.006076 1.000000
tan 0.003038 -0.948602 0.007254 1.000000
tan 0.000248 -1.000000 0.007874 1.000000
tan 0.006076 -0.948602 0.014508 1.000000
tan 0.000000 -1.000000 0.000000 1.000000
tan -0.003038 -0.921260 -0.007254 1.000000
tan 0.000000 -1.000000 0.000000 1.000000
tan 0.000000 -1.000000 0.000000 1.000000
tan 0.000000 -0.948602 0.000000 1.000000
tan 0.000000 -0.948602 0.000000 1.000000
tan 0.000000 -0.948602 0.000000 1.000000
tan 0.000000 -0.948602 0.000000 1.000000
tan 0.000000 -0.948602 0.000000 1.000000
tan 0.000000 -0.927336 0.000000 1.000000
tan 0.003038 -0.948602 0.007254 1.000000
tan -0.003038 -0.921260 -0.007254 1.000000
tan -0.000248 -1.000000 -0.007874 1.000000
tan 0.000248 -1.000000 0.007874 1.000000
tan 0.006076 -0.948602 0.014508 1.000000
tan 0.000248 -1.000000 -0.007874 1.000000
tan -0.000248 -1.000000 0.007874 1.000000
tan -0.003038 -0.948602 0.007254 1.000000
tan -0.003038 -0.948602 0.007254 1.000000
tan 0.006076 -0.921260 -0.014508 1.000000
tan 0.007254 -0.948602 0.003038 1.000000
tan 0.000000 -1.000000 0.000000 1.000000
tan -0.007254 -0.921260 -0.003038 1.000000
tan 0.014508 -0.948602 0.006076 1.000000
tan 0.007874 -1.000000 0.000248 1.000000
tan 0.000000 -1.000000 0.000000 1.000000
tan 0.000000 -1.000000 0.000000 1.000000
tan 0.000000 -0.948602 0.000000 1.000000
tan 0.000000 -0.948602 0.000000 1.000000
tan 0.000000 -0.948602 0.000000 1.000000
tan 0.000000 -0.948602 0.000000 1.000000
tan 0.000000 -0.948602 0.000000 1.000000
tan 0.000000 -0.927336 0.000000 1.000000
tan 0.142786 -0.880278 0.340939 1.000000
tan -0.082026 -0.926840 -0.195858 1.000000
tan 0.003348 -0.992126 0.141732 1.000000
tan -0.002790 -0.992126 -0.118110 1.000000
tan -0.002790 -0.992126 0.118110 1.000000
tan 0.002604 -0.992126 -0.110236 1.000000
tan 0.078988 -0.926840 -0.188604 1.000000
tan -0.124558 -0.897824 0.297415 1.000000
tan 0.282907 -0.905078 0.118482 1.000000
tan -0.152334 -0.934094 -0.063798 1.000000
tan 0.118110 -0.992126 0.002790 1.000000
tan -0.086614 -1.000000 -0.002046 1.000000
tan -0.015748 -1.000000 0.000372 1.000000
tan 0.094488 -0.992126 -0.002232 1.000000
tan 0.137826 -0.934094 -0.057722 1.000000
tan -0.101556 -0.941348 0.042532 1.000000
tan 0.188604 -0.926840 -0.078988 1.000000
tan -0.110236 -0.992126 0.002604 1.000000
tan -0.297415 -0.897824 0.124558 1.000000
tan 0.118110 -0.992126 -0.002790 1.000000
tan -0.118110 -0.992126 -0.002790 1.000000
tan 0.141732 -0.992126 0.003348 1.000000
tan 0.224874 -0.919586 0.094178 1.000000
tan -0.319177 -0.887532 -0.133672 1.000000
tan 0.030380 -0.941348 -0.072540 1.000000
tan -0.001674 -1.000000 0.070866 1.000000
tan -0.066836 -0.934094 0.159588 1.000000
tan 0.001116 -1.000000 -0.047244 1.000000
tan -0.001860 -1.000000 -0.078740 1.000000
tan 0.002976 -0.992126 0.125984 1.000000
tan 0.075950 -0.926840 0.181350 1.000000
tan -0.103292 -0.912332 -0.246636 1.000000
tan 0.757641 -0.551305 0.344969 1.000000
tan 0.926096 -0.259470 0.236716 1.000000
tan 0.723665 -0.694401 0.050592 1.000000
tan 0.873954 -0.488499 0.038254 1.000000
tan 1.000000 0.000000 0.055118 1.000000
tan 1.000000 0.000000 0.007874 1.000000
tan 0.716225 -0.691177 -0.140120 1.000000
tan 1.000000 -0.000000 -0.078740 1.000000
tan 0.866948 -0.485523 -0.142290 1.000000
tan 0.732283 -0.000000 -0.677165 1.000000
tan 0.690185 -0.301321 -0.660177 1.000000
tan 0.586769 -0.580321 -0.573873 1.000000
tan 0.151280 -0.685969 -0.710273 1.000000
tan 0.166780 -0.481865 -0.860004 1.000000
tan 0.110236 -0.000000 -0.992126 1.000000
tan -0.086614 -0.000000 -0.992126 1.000000
tan -0.149172 -0.481741 -0.860066 1.000000
tan -0.151280 -0.691425 -0.715977 1.000000
tan -0.700787 -0.000000 -0.716535 1.000000
tan -0.675181 -0.301321 -0.675181 1.000000
tan -0.580321 -0.577097 -0.573873 1.000000
tan -0.716225 -0.691177 -0.140120 1.000000
tan -0.860066 -0.481741 -0.149172 1.000000
tan -0.992126 -0.000000 -0.094488 1.000000
tan -0.860004 -0.481865 0.166780 1.000000
tan -0.992126 0.000000 0.110236 1.000000
tan -0.710273 -0.686217 0.156984 1.000000
tan -0.685039 0.000000 0.724409 1.000000
tan -0.652675 -0.299646 0.690185 1.000000
tan -0.564201 -0.580321 0.596441 1.000000
tan -0.134416 -0.690929 0.716225 1.000000
tan -0.142290 -0.485523 0.866948 1.000000
tan -0.078740 0.000000 1.000000 1.000000
tan 0.050592 -0.694401 0.723665 1.000000
tan 0.007874 0.000000 1.000000 1.000000
tan 0.236716 -0.259470 0.926096 1.000000
tan 0.344969 -0.551305 0.757641 1.000000
tan 0.038254 -0.488499 0.873954 1.000000
tan 0.055118 0.000000 1.000000 1.000000
tan -0.723913 -0.694153 -0.039432 1.000000
tan -0.933598 -0.256123 -0.214210 1.000000
tan -0.764089 -0.548081 -0.332073 1.000000
tan -0.874016 -0.488375 -0.020646 1.000000
tan -1.000000 -0.000000 -0.039370 1.000000
tan -1.000000 0.000000 0.007874 1.000000
tan -0.716225 -0.691177 0.140120 1.000000
tan -0.992126 0.000000 0.102362 1.000000
tan -0.860066 -0.481741 0.149172 1.000000
tan -0.716535 0.000000 0.692913 1.000000
tan -0.682683 -0.301320 0.667679 1.000000
tan -0.586769 -0.580321 0.573873 1.000000
tan -0.151280 -0.691425 0.715977 1.000000
tan -0.156054 -0.481803 0.860066 1.000000
tan -0.102362 0.000000 0.992126 1.000000
tan 0.086614 0.000000 0.992126 1.000000
tan 0.149172 -0.481741 0.860066 1.000000
tan 0.145576 -0.691177 0.715977 1.000000
tan 0.700787 0.000000 0.716535 1.000000
tan 0.675181 -0.301320 0.675181 1.000000
tan 0.573873 -0.577097 0.580321 1.000000
tan 0.715977 -0.691425 0.151280 1.000000
tan 0.860066 -0.481803 0.156054 1.000000
tan 0.992126 0.000000 0.110236 1.000000
tan 0.860066 -0.481803 -0.156054 1.000000
tan 0.992126 -0.000000 -0.086614 1.000000
tan 0.715977 -0.691425 -0.151280 1.000000
tan 0.708661 -0.000000 -0.700787 1.000000
tan 0.667679 -0.299647 -0.675181 1.000000
tan 0.580321 -0.580321 -0.580321 1.000000
tan 0.145576 -0.691177 -0.715977 1.000000
tan 0.156054 -0.481803 -0.860066 1.000000
tan 0.110236 -0.000000 -0.992126 1.000000
tan -0.039432 -0.694153 -0.723913 1.000000
tan 0.015748 -0.000000 -1.000000 1.000000
tan -0.214210 -0.256123 -0.933598 1.000000
tan -0.332073 -0.548081 -0.764089 1.000000
tan -0.020646 -0.488375 -0.874016 1.000000
tan -0.031496 -0.000000 -1.000000 1.000000
tan 0.000000 -1.000000 0.000000 1.000000
tan 0.000000 -1.000000 0.000000 1.000000
tan 0.000000 -0.962428 0.000000 1.000000
tan 0.000000 -0.962428 0.000000 1.000000
tan 0.000000 -0.969186 0.000000 1.000000
tan 0.000000 -0.962428 0.000000 1.000000
tan 0.000000 -0.969186 0.000000 1.000000
tan 0.000000 -0.969186 0.000000 1.000000
tan 0.000000 -0.962428 0.000000 1.000000
tan 0.000000 -0.969186 0.000000 1.000000
tan 0.000000 -0.969186 0.000000 1.000000
tan 0.000000 -0.952756 0.000000 1.000000
tan 0.000000 -0.952756 0.000000 1.000000
tan 0.000000 -0.969186 0.000000 1.000000
tan 0.000000 -0.969186 0.000000 1.000000
tan 0.000000 -0.969186 0.000000 1.000000
tan 0.000000 -0.969186 0.000000 1.000000
tan 0.000000 -0.969186 0.000000 1.000000
tan 0.000000 -0.969186 0.000000 1.000000
tan 0.000000 -0.969186 0.000000 1.000000
tan 0.000000 -0.969186 0.000000 1.000000
tan 0.000000 -0.969186 0.000000 1.000000
tan 0.000000 -0.969186 0.000000 1.000000
tan 0.000000 -0.969186 0.000000 1.000000
tan 0.000000 -0.969186 0.000000 1.000000
tan 0.000000 -0.969186 0.000000 1.000000
tan 0.000000 -0.962428 0.000000 1.000000
tan 0.000000 -1.000000 0.000000 1.000000
tan 0.000000 -0.969186 0.000000 1.000000
tan 0.000000 -0.969186 0.000000 1.000000
tan 0.000000 -0.969186 0.000000 1.000000
tan 0.000000 -1.000000 0.000000 1.000000
tan 0.000000 -0.969186 0.000000 1.000000
tan 0.000000 -0.962428 0.000000 1.000000
tan 0.000000 -0.952756 0.000000 1.000000
tan 0.000000 -0.952756 0.000000 1.000000
tan 0.000000 -0.969186 0.000000 1.000000
tan 0.000000 -0.969186 0.000000 1.000000
tan 0.000000 -0.969186 0.000000 1.000000
tan 0.000000 -0.969186 0.000000 1.000000
tan 0.000000 -0.969186 0.000000 1.000000
tan 0.000000 -0.969186 0.000000 1.000000
tan 0.000000 -0.969186 0.000000 1.000000
tan 0.000000 -0.969186 0.000000 1.000000
tan 0.000000 -0.969186 0.000000 1.000000
tan 0.000000 -0.969186 0.000000 1.000000
tan 0.000000 -0.969186 0.000000 1.000000
tan 0.000000 -0.969186 0.000000 1.000000
tan 0.000000 -0.969186 0.000000 1.000000
tan 0.000000 -0.969186 0.000000 1.000000
tan 0.000000 -0.969186 0.000000 1.000000
tan 0.000000 -0.969186 0.000000 1.000000
tan 0.000000 -0.969186 0.000000 1.000000
tan 0.000000 -0.969186 0.000000 1.000000
tan 0.000000 -0.969186 0.000000 1.000000
tan 0.000000 -0.969186 0.000000 1.000000
tan 0.000000 -0.969186 0.000000 1.000000
tan 0.000000 -0.969186 0.000000 1.000000
tan 0.000000 -0.952756 0.000000 1.000000
tan 0.000000 -0.969186 0.000000 1.000000
tan 0.000000 -0.969186 0.000000 1.000000
tan 0.000000 -0.969186 0.000000 1.000000
tan 0.000000 -0.969186 0.000000 1.000000
tan 0.000000 -0.969186 0.000000 1.000000
tan 0.000000 -0.969186 0.000000 1.000000
tan 0.000000 -0.969186 0.000000 1.000000
tan 0.000000 -0.969186 0.000000 1.000000
tan 0.000000 -0.952756 0.000000 1.000000
tan 0.000000 -0.969186 0.000000 1.000000
tan 0.000000 -0.969186 0.000000 1.000000
tan 0.000000 -0.969186 0.000000 1.000000
tan 0.000000 -0.969186 0.000000 1.000000
tan 0.000000 -0.969186 0.000000 1.000000
tan 0.000000 -0.969186 0.000000 1.000000
tan 0.000000 -0.969186 0.000000 1.000000
tan 0.000000 -0.969186 0.000000 1.000000
tan 0.000000 -0.969186 0.000000 1.000000
tan 0.000000 -0.969186 0.000000 1.000000
tan 0.000000 -0.962428 0.000000 1.000000
tan 0.000000 -1.000000 0.000000 1.000000
tan 0.000000 -0.969186 0.000000 1.000000
tan 0.000000 -0.969186 0.000000 1.000000
tan 0.000000 -1.000000 0.000000 1.000000
tan 0.000000 -0.969186 0.000000 1.000000
tan 0.000000 -0.962428 0.000000 1.000000
tan 0.000000 -0.952756 0.000000 1.000000
tan 0.000000 -0.952756 0.000000 1.000000
tan 0.000000 -0.952756 0.000000 1.000000
tan 0.000000 -0.969186 0.000000 1.000000
tan 0.000000 -0.969186 0.000000 1.000000
tan 0.000000 -0.969186 0.000000 1.000000
tan 0.000000 -0.969186 0.000000 1.000000
tan 0.000000 -0.969186 0.000000 1.000000
tan 0.000000 -0.969186 0.000000 1.000000
tan 0.000000 -0.969186 0.000000 1.000000
tan 0.000000 -0.969186 0.000000 1.000000
tan 0.000000 -0.969186 0.000000 1.000000
tan 0.000000 -0.969186 0.000000 1.000000
tan 0.000000 -0.969186 0.000000 1.000000
tan 0.000000 -0.969186 0.000000 1.000000
tan 0.000000 -0.969186 0.000000 1.000000
tan 0.000000 -0.969186 0.000000 1.000000
tan 0.000000 -0.969186 0.000000 1.000000
tan 0.000000 -0.969186 0.000000 1.000000
tan 0.000000 -0.969186 0.000000 1.000000
tan 0.000000 -0.969186 0.000000 1.000000
tan 0.000000 -0.969186 0.000000 1.000000
tan 0.000000 -0.969186 0.000000 1.000000
tan 0.000000 -0.969186 0.000000 1.000000
tan 0.000000 -0.969186 0.000000 1.000000
tan 0.000000 -0.969186 0.000000 1.000000
tan 0.000000 -0.969186 0.000000 1.000000
tan 0.000000 -0.969186 0.000000 1.000000
tan 0.000000 -0.969186 0.000000 1.000000
tan 0.000000 -0.969186 0.000000 1.000000
tan 0.000000 -0.952756 0.000000 1.000000
tan 0.000000 -0.969186 0.000000 1.000000
tan 0.000000 -0.969186 0.000000 1.000000
tan 0.000000 -0.969186 0.000000 1.000000
tan 0.000000 -0.969186 0.000000 1.000000
tan 0.000000 -0.969186 0.000000 1.000000
tan 0.000000 -0.969186 0.000000 1.000000
tan 0.000000 -0.969186 0.000000 1.000000
tan 0.000000 -0.969186 0.000000 1.000000
tan 0.000000 -0.969186 0.000000 1.000000
tan 0.000000 -0.969186 0.000000 1.000000
tan 0.000000 -0.969186 0.000000 1.000000
tan 0.000000 -0.969186 0.000000 1.000000
tan 0.000000 -0.969186 0.000000 1.000000
tan 0.000000 -0.969186 0.000000 1.000000
tan 0.000000 -0.969186 0.000000 1.000000
tan 0.000000 -0.969186 0.000000 1.000000
tan 0.000000 -0.969186 0.000000 1.000000
tan 0.000000 -0.969186 0.000000 1.000000
tan 0.000000 -0.969186 0.000000 1.000000
tan 0.000000 -0.969186 0.000000 1.000000
tan 0.000000 -0.969186 0.000000 1.000000
tan 0.000000 -0.969186 0.000000 1.000000
tan 0.000000 -0.969186 0.000000 1.000000
tan 0.000000 -0.969186 0.000000 1.000000
tan 0.000000 -0.969186 0.000000 1.000000
tan 0.000000 -0.969186 0.000000 1.000000
tan 0.000000 -0.969186 0.000000 1.000000
tan 0.000000 -0.969186 0.000000 1.000000
tan 0.000000 -0.969186 0.000000 1.000000
tan 0.000000 -0.969186 0.000000 1.000000
tan 0.000000 -0.962428 0.000000 1.000000
tan 0.000000 -1.000000 0.000000 1.000000
tan 0.000000 -0.969186 0.000000 1.000000
tan 0.000000 -0.969186 0.000000 1.000000
tan 0.000000 -1.000000 0.000000 1.000000
tan 0.000000 -0.969186 0.000000 1.000000
tan 0.000000 -0.952756 0.000000 1.000000
tan 0.000000 -0.969186 0.000000 1.000000
tan 0.000000 -0.962428 0.000000 1.000000
tan 0.000000 -0.969186 0.000000 1.000000
tan 0.000000 -0.952756 0.000000 1.000000
tan 0.000000 -0.969186 0.000000 1.000000
tan 0.000000 -0.969186 0.000000 1.000000
tan 0.000000 -0.969186 0.000000 1.000000
tan 0.000000 -0.969186 0.000000 1.000000
tan 0.000000 -0.969186 0.000000 1.000000
tan 0.000000 -0.952756 0.000000 1.000000
tan 0.000000 -0.969186 0.000000 1.000000
tan 0.000000 -0.969186 0.000000 1.000000
tan 0.000000 -0.969186 0.000000 1.000000
tan 0.000000 -0.969186 0.000000 1.000000
tan 0.000000 -0.969186 0.000000 1.000000
tan 0.000000 -0.969186 0.000000 1.000000
tan 0.000000 -0.969186 0.000000 1.000000
tan 0.000000 -0.969186 0.000000 1.000000
tan 0.000000 -0.969186 0.000000 1.000000
tan 0.000000 -0.969186 0.000000 1.000000
tan 0.000000 -0.969186 0.000000 1.000000
tan 0.000000 -0.952756 0.000000 1.000000
tan 0.000000 -0.969186 0.000000 1.000000
tan 0.000000 -0.969186 0.000000 1.000000
tan 0.000000 -0.969186 0.000000 1.000000
tan 0.000000 -0.969186 0.000000 1.000000
tan 0.000000 -0.969186 0.000000 1.000000
tan 0.000000 -0.969186 0.000000 1.000000
tan 0.000000 -0.969186 0.000000 1.000000
tan 0.000000 -0.969186 0.000000 1.000000
tan 0.000000 -0.969186 0.000000 1.000000
tan 0.000000 -0.969186 0.000000 1.000000
tan 0.000000 -0.969186 0.000000 1.000000
tan 0.000000 -0.969186 0.000000 1.000000
tan 0.000000 -0.969186 0.000000 1.000000
tan 0.000000 -0.969186 0.000000 1.000000
tan 0.000000 -0.969186 0.000000 1.000000
tan 0.000000 -0.969186 0.000000 1.000000
tan 0.000000 -0.969186 0.000000 1.000000
tan 0.000000 -0.969186 0.000000 1.000000
tan 0.000000 -0.969186 0.000000 1.000000
tan 0.000000 -0.969186 0.000000 1.000000
tan 0.000000 -0.969186 0.000000 1.000000
tan 0.000000 -0.969186 0.000000 1.000000
tan 0.000000 -0.969186 0.000000 1.000000
tan 0.000000 -0.969186 0.000000 1.000000
tan 0.000000 -0.962428 0.000000 1.000000
tan 0.000000 -0.962428 0.000000 1.000000
tan 0.000000 -1.000000 0.000000 1.000000
tan 0.000000 -1.000000 0.000000 1.000000
tan 0.000000 -0.962428 0.000000 1.000000
tan 0.000000 -0.969186 0.000000 1.000000
tan 0.000000 -0.969186 0.000000 1.000000
tan 0.000000 -0.969186 0.000000 1.000000
tan 0.000000 -0.969186 0.000000 1.000000
tan 0.000000 -0.969186 0.000000 1.000000
tan 0.000000 -0.969186 0.000000 1.000000
tan 0.000000 -0.969186 0.000000 1.000000
tan 0.000000 -0.969186 0.000000 1.000000
tan 0.000000 -0.969186 0.000000 1.000000
tan 1.000000 0.000000 0.000000 1.000000
tan 1.000000 0.000000 0.000000 1.000000
tan 1.000000 0.000000 0.000000 1.000000
tan 1.000000 0.000000 0.000000 1.000000
tan 1.000000 0.000000 0.000000 1.000000
tan 1.000000 0.000000 0.000000 1.000000
tan 1.000000 0.000000 0.000000 1.000000
tan 1.000000 0.000000 0.000000 1.000000
tan 1.000000 0.000000 0.000000 1.000000
tan 1.000000 0.000000 0.000000 1.000000
tan 1.000000 0.000000 0.000000 1.000000
tan 1.000000 0.000000 0.000000 1.000000
tan 1.000000 0.000000 0.000000 1.000000
tan 1.000000 0.000000 0.000000 1.000000
tan 1.000000 0.000000 0.000000 1.000000
tan 1.000000 0.000000 0.000000 1.000000
tan 1.000000 0.000000 0.000000 1.000000
tan 1.000000 0.000000 0.000000 1.000000
tan 1.000000 0.000000 0.000000 1.000000
tan 1.000000 0.000000 0.000000 1.000000
tan 1.000000 0.000000 0.000000 1.000000
tan 1.000000 0.000000 0.000000 1.000000
tan 1.000000 0.000000 0.000000 1.000000
tan 1.000000 0.000000 0.000000 1.000000
f 3/3/3 2/2/2 1/1/1
f 1/1/1 2/2/2 4/4/4
f 5/5/5 4/4/4 2/2/2
f 5/5/5 2/2/2 6/6/6
f 7/7/7 5/5/5 6/6/6
f 6/6/6 8/8/8 7/7/7
f 9/9/9 7/7/7 8/8/8
f 8/8/8 6/6/6 10/10/10
f 13/13/13 12/12/12 11/11/11
f 14/14/14 11/11/11 12/12/12
f 11/11/11 14/14/14 15/15/15
f 12/12/12 16/16/16 14/14/14
f 17/17/17 14/14/14 16/16/16
f 16/16/16 18/18/18 17/17/17
f 19/19/19 17/17/17 18/18/18
f 20/20/20 17/17/17 19/19/19
f 21/21/21 17/17/17 20/20/20
f 22/22/22 17/17/17 21/21/21
f 23/23/23 17/17/17 22/22/22
f 26/26/26 25/25/25 24/24/24
f 24/24/24 27/27/27 26/26/26
f 27/27/27 24/24/24 28/28/28
f 27/27/27 29/29/29 26/26/26
f 30/30/30 29/29/29 27/27/27
f 31/31/31 29/29/29 30/30/30
f 29/29/29 31/31/31 32/32/32
f 29/29/29 32/32/32 33/33/33
f 36/36/36 35/35/35 34/34/34
f 34/34/34 35/35/35 37/37/37
f 37/37/37 35/35/35 38/38/38
f 35/35/35 39/39/39 38/38/38
f 39/39/39 35/35/35 40/40/40
f 39/39/39 42/42/42 41/41/41
f 40/40/40 42/42/42 39/39/39
f 40/40/40 43/43/43 42/42/42
f 40/40/40 44/44/44 43/43/43
f 40/40/40 45/45/45 44/44/44
f 40/40/40 46/46/46 45/45/45
f 49/49/49 48/48/48 47/47/47
f 48/48/48 49/49/49 50/50/50
f 50/50/50 49/49/49 51/51/51
f 51/51/51 49/49/49 52/52/52
f 53/53/53 51/51/51 52/52/52
f 51/51/51 53/53/53 54/54/54
f 57/57/57 56/56/56 55/55/55
f 58/58/58 56/56/56 57/57/57
f 57/57/57 59/59/59 58/58/58
f 59/59/59 57/57/57 60/60/60
f 61/61/61 59/59/59 60/60/60
f 62/62/62 59/59/59 61/61/61
f 65/65/65 64/64/64 63/63/63
f 66/66/66 63/63/63 64/64/64
f 64/64/64 67/67/67 66/66/66
f 67/67/67 64/64/64 68/68/68
f 69/69/69 67/67/67 68/68/68
f 70/70/70 67/67/67 69/69/69
f 73/73/73 72/72/72 71/71/71
f 74/74/74 71/71/71 72/72/72
f 74/74/74 72/72/72 75/75/75
f 75/75/75 72/72/72 76/76/76
f 76/76/76 77/77/77 75/75/75
f 78/78/78 75/75/75 77/77/77
f 81/81/81 80/80/80 79/79/79
f 82/82/82 80/80/80 81/81/81
f 82/82/82 83/83/83 80/80/80
f 84/84/84 83/83/83 82/82/82
f 81/81/81 85/85/85 82/82/82
f 84/84/84 82/82/82 86/86/86
f 86/86/86 82/82/82 87/87/87
f 87/87/87 82/82/82 85/85/85
f 86/86/86 87/87/87 88/88/88
f 87/87/87 85/85/85 89/89/89
f 89/89/89 88/88/88 87/87/87
f 90/90/90 89/89/89 85/85/85
f 91/91/91 89/89/89 90/90/90
f 89/89/89 92/92/92 88/88/88
f 91/91/91 92/92/92 89/89/89
f 93/93/93 88/88/88 92/92/92
f 93/93/93 92/92/92 94/94/94
f 92/92/92 91/91/91 95/95/95
f 94/94/94 92/92/92 95/95/95
f 95/95/95 91/91/91 96/96/96
f 94/94/94 95/95/95 97/97/97
f 95/95/95 96/96/96 98/98/98
f 98/98/98 97/97/97 95/95/95
f 99/99/99 98/98/98 96/96/96
f 98/98/98 99/99/99 100/100/100
f 97/97/97 98/98/98 101/101/101
f 100/100/100 101/101/101 98/98/98
f 97/97/97 101/101/101 102/102/102
f 101/101/101 100/100/100 103/103/103
f 101/101/101 103/103/103 102/102/102
f 104/104/104 102/102/102 103/103/103
f 105/105/105 103/103/103 100/100/100
f 104/104/104 103/103/103 106/106/106
f 103/103/103 105/105/105 107/107/107
f 107/107/107 106/106/106 103/103/103
f 108/108/108 107/107/107 105/105/105
f 108/108/108 109/109/109 107/107/107
f 110/110/110 106/106/106 107/107/107
f 110/110/110 107/107/107 109/109/109
f 106/106/106 110/110/110 111/111/111
f 109/109/109 112/112/112 110/110/110
f 111/111/111 110/110/110 113/113/113
f 115/115/115 114/114/114 112/112/112
f 116/116/116 113/113/113 110/110/110
f 116/116/116 110/110/110 112/112/112
f 116/116/116 112/112/112 114/114/114
f 113/113/113 116/116/116 117/117/117
f 114/114/114 117/117/117 116/116/116
f 120/120/120 119/119/119 118/118/118
f 121/121/121 118/118/118 119/119/119
f 119/119/119 122/122/122 121/121/121
f 123/123/123 121/121/121 122/122/122
f 118/118/118 121/121/121 124/124/124
f 123/123/123 125/125/125 121/121/121
f 125/125/125 126/126/126 121/121/121
f 126/126/126 124/124/124 121/121/121
f 127/127/127 126/126/126 125/125/125
f 124/124/124 126/126/126 128/128/128
f 128/128/128 126/126/126 127/127/127
f 128/128/128 129/129/129 124/124/124
f 129/129/129 128/128/128 130/130/130
f 128/128/128 127/127/127 131/131/131
f 131/131/131 130/130/130 128/128/128
f 132/132/132 131/131/131 127/127/127
f 132/132/132 133/133/133 131/131/131
f 131/131/131 134/134/134 130/130/130
f 133/133/133 134/134/134 131/131/131
f 135/135/135 130/130/130 134/134/134
f 136/136/136 134/134/134 133/133/133
f 135/135/135 134/134/134 137/137/137
f 134/134/134 136/136/136 137/137/137
f 135/135/135 137/137/137 138/138/138
f 138/138/138 137/137/137 139/139/139
f 137/137/137 136/136/136 140/140/140
f 140/140/140 139/139/139 137/137/137
f 141/141/141 140/140/140 136/136/136
f 140/140/140 142/142/142 139/139/139
f 140/140/140 141/141/141 142/142/142
f 143/143/143 142/142/142 141/141/141
f 144/144/144 139/139/139 142/142/142
f 142/142/142 143/143/143 145/145/145
f 142/142/142 146/146/146 144/144/144
f 142/142/142 145/145/145 146/146/146
f 144/144/144 146/146/146 147/147/147
f 147/147/147 146/146/146 148/148/148
f 146/146/146 145/145/145 149/149/149
f 149/149/149 148/148/148 146/146/146
f 150/150/150 149/149/149 145/145/145
f 149/149/149 151/151/151 148/148/148
f 150/150/150 152/152/152 149/149/149
f 154/154/154 151/151/151 153/153/153
f 155/155/155 149/149/149 152/152/152
f 155/155/155 151/151/151 149/149/149
f 155/155/155 153/153/153 151/151/151
f 152/152/152 156/156/156 155/155/155
f 153/153/153 155/155/155 156/156/156
f 159/159/159 158/158/158 157/157/157
f 160/160/160 158/158/158 159/159/159
f 161/161/161 160/160/160 159/159/159
f 162/162/162 158/158/158 160/160/160
f 163/163/163 160/160/160 161/161/161
f 163/163/163 162/162/162 160/160/160
f 164/164/164 163/163/163 161/161/161
f 165/165/165 158/158/158 162/162/162
f 166/166/166 163/163/163 164/164/164
f 167/167/167 162/162/162 163/163/163
f 166/166/166 167/167/167 163/163/163
f 167/167/167 165/165/165 162/162/162
f 168/168/168 166/166/166 164/164/164
f 169/169/169 158/158/158 165/165/165
f 170/170/170 167/167/167 166/166/166
f 168/168/168 170/170/170 166/166/166
f 171/171/171 165/165/165 167/167/167
f 167/167/167 170/170/170 171/171/171
f 171/171/171 169/169/169 165/165/165
f 172/172/172 171/171/171 170/170/170
f 168/168/168 172/172/172 170/170/170
f 171/171/171 172/172/172 173/173/173
f 173/173/173 169/169/169 171/171/171
f 174/174/174 173/173/173 172/172/172
f 168/168/168 174/174/174 172/172/172
f 174/174/174 175/175/175 173/173/173
f 175/175/175 169/169/169 173/173/173
f 176/176/176 175/175/175 174/174/174
f 168/168/168 176/176/176 174/174/174
f 175/175/175 176/176/176 177/177/177
f 177/177/177 169/169/169 175/175/175
f 178/178/178 177/177/177 176/176/176
f 168/168/168 178/178/178 176/176/176
f 178/178/178 179/179/179 177/177/177
f 179/179/179 169/169/169 177/177/177
f 180/180/180 179/179/179 178/178/178
f 168/168/168 180/180/180 178/178/178
f 179/179/179 180/180/180 181/181/181
f 181/181/181 169/169/169 179/179/179
f 168/168/168 182/182/182 180/180/180
f 182/182/182 181/181/181 180/180/180
f 182/182/182 168/168/168 183/183/183
f 184/184/184 183/183/183 168/168/168
f 181/181/181 182/182/182 185/185/185
f 185/185/185 169/169/169 181/181/181
f 186/186/186 185/185/185 182/182/182
f 183/183/183 186/186/186 182/182/182
f 185/185/185 186/186/186 187/187/187
f 187/187/187 169/169/169 185/185/185
f 183/183/183 184/184/184 188/188/188
f 189/189/189 187/187/187 186/186/186
f 190/190/190 188/188/188 184/184/184
f 186/186/186 183/183/183 191/191/191
f 188/188/188 191/191/191 183/183/183
f 191/191/191 189/189/189 186/186/186
f 184/184/184 192/192/192 190/190/190
f 187/187/187 189/189/189 193/193/193
f 193/193/193 169/169/169 187/187/187
f 194/194/194 193/193/193 189/189/189
f 191/191/191 194/194/194 189/189/189
f 193/193/193 194/194/194 195/195/195
f 195/195/195 169/169/169 193/193/193
f 196/196/196 195/195/195 194/194/194
f 191/191/191 196/196/196 194/194/194
f 195/195/195 196/196/196 197/197/197
f 197/197/197 169/169/169 195/195/195
f 198/198/198 197/197/197 196/196/196
f 191/191/191 198/198/198 196/196/196
f 197/197/197 198/198/198 199/199/199
f 199/199/199 169/169/169 197/197/197
f 200/200/200 199/199/199 198/198/198
f 191/191/191 200/200/200 198/198/198
f 199/199/199 200/200/200 201/201/201
f 201/201/201 169/169/169 199/199/199
f 202/202/202 201/201/201 200/200/200
f 191/191/191 202/202/202 200/200/200
f 201/201/201 202/202/202 203/203/203
f 203/203/203 169/169/169 201/201/201
f 204/204/204 203/203/203 202/202/202
f 191/191/191 204/204/204 202/202/202
f 203/203/203 204/204/204 205/205/205
f 205/205/205 169/169/169 203/203/203
f 206/206/206 205/205/205 204/204/204
f 191/191/191 206/206/206 204/204/204
f 205/205/205 206/206/206 207/207/207
f 207/207/207 169/169/169 205/205/205
f 208/208/208 207/207/207 206/206/206
f 191/191/191 208/208/208 206/206/206
f 209/209/209 169/169/169 207/207/207
f 207/207/207 208/208/208 209/209/209
f 210/210/210 169/169/169 209/209/209
f 211/211/211 169/169/169 210/210/210
f 212/212/212 209/209/209 208/208/208
f 209/209/209 212/212/212 210/210/210
f 191/191/191 212/212/212 208/208/208
f 210/210/210 213/213/213 211/211/211
f 213/213/213 210/210/210 212/212/212
f 191/191/191 213/213/213 212/212/212
f 214/214/214 211/211/211 213/213/213
f 191/191/191 214/214/214 213/213/213
f 188/188/188 190/190/190 215/215/215
f 216/216/216 215/215/215 190/190/190
f 190/190/190 217/217/217 216/216/216
f 217/217/217 190/190/190 192/192/192
f 217/217/217 218/218/218 216/216/216
f 192/192/192 219/219/219 217/217/217
f 217/217/217 220/220/220 218/218/218
f 219/219/219 220/220/220 217/217/217
f 216/216/216 218/218/218 221/221/221
f 219/219/219 222/222/222 220/220/220
f 216/216/216 221/221/221 223/223/223
f 215/215/215 216/216/216 223/223/223
f 220/220/220 224/224/224 218/218/218
f 218/218/218 224/224/224 221/221/221
f 222/222/222 224/224/224 220/220/220
f 223/223/223 221/221/221 225/225/225
f 221/221/221 224/224/224 225/225/225
f 226/226/226 222/222/222 219/219/219
f 192/192/192 226/226/226 219/219/219
f 226/226/226 227/227/227 222/222/222
f 227/227/227 224/224/224 222/222/222
f 228/228/228 227/227/227 226/226/226
f 192/192/192 228/228/228 226/226/226
f 228/228/228 229/229/229 227/227/227
f 229/229/229 224/224/224 227/227/227
f 192/192/192 230/230/230 228/228/228
f 230/230/230 229/229/229 228/228/228
f 192/192/192 231/231/231 230/230/230
f 192/192/192 232/232/232 231/231/231
f 232/232/232 233/233/233 231/231/231
f 230/230/230 234/234/234 229/229/229
f 231/231/231 234/234/234 230/230/230
f 231/231/231 233/233/233 234/234/234
f 234/234/234 224/224/224 229/229/229
f 233/233/233 224/224/224 234/234/234
f 225/225/225 224/224/224 235/235/235
f 224/224/224 236/236/236 235/235/235
f 223/223/223 225/225/225 237/237/237
f 215/215/215 223/223/223 237/237/237
f 225/225/225 235/235/235 238/238/238
f 237/237/237 225/225/225 238/238/238
f 235/235/235 236/236/236 239/239/239
f 237/237/237 238/238/238 240/240/240
f 215/215/215 237/237/237 240/240/240
f 236/236/236 241/241/241 239/239/239
f 236/236/236 242/242/242 241/241/241
f 235/235/235 239/239/239 243/243/243
f 238/238/238 235/235/235 243/243/243
f 239/239/239 241/241/241 244/244/244
f 240/240/240 238/238/238 245/245/245
f 238/238/238 243/243/243 245/245/245
f 240/240/240 245/245/245 246/246/246
f 215/215/215 240/240/240 246/246/246
f 246/246/246 245/245/245 247/247/247
f 245/245/245 243/243/243 247/247/247
f 246/246/246 247/247/247 248/248/248
f 215/215/215 246/246/246 248/248/248
f 248/248/248 247/247/247 249/249/249
f 247/247/247 243/243/243 249/249/249
f 248/248/248 249/249/249 250/250/250
f 215/215/215 248/248/248 250/250/250
f 250/250/250 249/249/249 251/251/251
f 249/249/249 243/243/243 251/251/251
f 250/250/250 251/251/251 252/252/252
f 215/215/215 250/250/250 252/252/252
f 252/252/252 251/251/251 253/253/253
f 251/251/251 243/243/243 253/253/253
f 252/252/252 253/253/253 254/254/254
f 215/215/215 252/252/252 254/254/254
f 254/254/254 253/253/253 255/255/255
f 253/253/253 243/243/243 255/255/255
f 254/254/254 255/255/255 256/256/256
f 215/215/215 254/254/254 256/256/256
f 256/256/256 255/255/255 257/257/257
f 255/255/255 243/243/243 257/257/257
f 256/256/256 257/257/257 258/258/258
f 215/215/215 256/256/256 258/258/258
f 258/258/258 257/257/257 259/259/259
f 257/257/257 243/243/243 259/259/259
f 258/258/258 259/259/259 260/260/260
f 215/215/215 258/258/258 260/260/260
f 259/259/259 243/243/243 261/261/261
f 260/260/260 259/259/259 261/261/261
f 215/215/215 260/260/260 262/262/262
f 260/260/260 261/261/261 262/262/262
f 215/215/215 262/262/262 263/263/263
f 215/215/215 263/263/263 264/264/264
f 262/262/262 261/261/261 265/265/265
f 262/262/262 265/265/265 263/263/263
f 261/261/261 243/243/243 265/265/265
f 263/263/263 266/266/266 264/264/264
f 263/263/263 265/265/265 266/266/266
f 265/265/265 243/243/243 266/266/266
f 264/264/264 266/266/266 267/267/267
f 266/266/266 243/243/243 267/267/267
f 242/242/242 269/269/269 268/268/268
f 269/269/269 270/270/270 268/268/268
f 268/268/268 270/270/270 271/271/271
f 270/270/270 272/272/272 271/271/271
f 268/268/268 271/271/271 273/273/273
f 242/242/242 268/268/268 273/273/273
f 273/273/273 271/271/271 274/274/274
f 271/271/271 272/272/272 274/274/274
f 273/273/273 274/274/274 275/275/275
f 242/242/242 273/273/273 275/275/275
f 275/275/275 274/274/274 276/276/276
f 274/274/274 272/272/272 276/276/276
f 275/275/275 276/276/276 277/277/277
f 242/242/242 275/275/275 277/277/277
f 277/277/277 276/276/276 278/278/278
f 276/276/276 272/272/272 278/278/278
f 242/242/242 277/277/277 279/279/279
f 277/277/277 278/278/278 279/279/279
f 242/242/242 279/279/279 280/280/280
f 242/242/242 280/280/280 241/241/241
f 279/279/279 278/278/278 281/281/281
f 279/279/279 281/281/281 280/280/280
f 278/278/278 272/272/272 281/281/281
f 241/241/241 280/280/280 282/282/282
f 280/280/280 281/281/281 283/283/283
f 280/280/280 283/283/283 282/282/282
f 281/281/281 272/272/272 283/283/283
f 241/241/241 282/282/282 244/244/244
f 282/282/282 283/283/283 284/284/284
f 283/283/283 272/272/272 284/284/284
f 282/282/282 284/284/284 285/285/285
f 244/244/244 282/282/282 285/285/285
f 285/285/285 284/284/284 286/286/286
f 284/284/284 272/272/272 286/286/286
f 285/285/285 286/286/286 287/287/287
f 244/244/244 285/285/285 287/287/287
f 287/287/287 286/286/286 288/288/288
f 286/286/286 272/272/272 288/288/288
f 287/287/287 288/288/288 289/289/289
f 244/244/244 287/287/287 289/289/289
f 289/289/289 288/288/288 290/290/290
f 288/288/288 272/272/272 290/290/290
f 289/289/289 290/290/290 291/291/291
f 244/244/244 289/289/289 291/291/291
f 291/291/291 290/290/290 292/292/292
f 290/290/290 272/272/272 292/292/292
f 291/291/291 292/292/292 293/293/293
f 244/244/244 291/291/291 293/293/293
f 293/293/293 292/292/292 294/294/294
f 292/292/292 272/272/272 294/294/294
f 293/293/293 294/294/294 295/295/295
f 244/244/244 293/293/293 295/295/295
f 295/295/295 294/294/294 296/296/296
f 294/294/294 272/272/272 296/296/296
f 295/295/295 296/296/296 297/297/297
f 244/244/244 295/295/295 297/297/297
f 297/297/297 296/296/296 298/298/298
f 296/296/296 272/272/272 298/298/298
f 297/297/297 298/298/298 299/299/299
f 244/244/244 297/297/297 299/299/299
f 298/298/298 272/272/272 300/300/300
f 299/299/299 298/298/298 300/300/300
f 299/299/299 300/300/300 301/301/301
f 244/244/244 299/299/299 301/301/301
f 300/300/300 272/272/272 302/302/302
f 301/301/301 300/300/300 302/302/302
f 303/303/303 302/302/302 272/272/272
f 272/272/272 304/304/304 303/303/303
f 301/301/301 302/302/302 305/305/305
f 244/244/244 301/301/301 305/305/305
f 302/302/302 303/303/303 306/306/306
f 305/305/305 302/302/302 306/306/306
f 307/307/307 303/303/303 304/304/304
f 305/305/305 306/306/306 308/308/308
f 244/244/244 305/305/305 308/308/308
f 309/309/309 306/306/306 303/303/303
f 303/303/303 307/307/307 309/309/309
f 308/308/308 306/306/306 310/310/310
f 306/306/306 309/309/309 310/310/310
f 304/304/304 311/311/311 307/307/307
f 308/308/308 310/310/310 312/312/312
f 244/244/244 308/308/308 312/312/312
f 313/313/313 307/307/307 311/311/311
f 244/244/244 312/312/312 314/314/314
f 244/244/244 314/314/314 315/315/315
f 312/312/312 310/310/310 316/316/316
f 312/312/312 316/316/316 314/314/314
f 310/310/310 309/309/309 316/316/316
f 314/314/314 317/317/317 315/315/315
f 314/314/314 316/316/316 317/317/317
f 316/316/316 309/309/309 317/317/317
f 315/315/315 317/317/317 318/318/318
f 317/317/317 309/309/309 318/318/318
f 311/311/311 304/304/304 319/319/319
f 311/311/311 320/320/320 313/313/313
f 320/320/320 311/311/311 321/321/321
f 319/319/319 321/321/321 311/311/311
f 322/322/322 313/313/313 320/320/320
f 321/321/321 323/323/323 320/320/320
f 320/320/320 324/324/324 322/322/322
f 324/324/324 320/320/320 323/323/323
f 325/325/325 322/322/322 324/324/324
f 323/323/323 321/321/321 326/326/326
f 322/322/322 325/325/325 327/327/327
f 327/327/327 313/313/313 322/322/322
f 326/326/326 321/321/321 328/328/328
f 321/321/321 319/319/319 328/328/328
f 326/326/326 328/328/328 329/329/329
f 329/329/329 328/328/328 330/330/330
f 328/328/328 319/319/319 330/330/330
f 331/331/331 326/326/326 329/329/329
f 331/331/331 323/323/323 326/326/326
f 331/331/331 324/324/324 323/323/323
f 331/331/331 325/325/325 324/324/324
f 329/329/329 330/330/330 332/332/332
f 331/331/331 329/329/329 332/332/332
f 333/333/333 332/332/332 330/330/330
f 330/330/330 319/319/319 333/333/333
f 332/332/332 333/333/333 334/334/334
f 331/331/331 332/332/332 334/334/334
f 335/335/335 334/334/334 333/333/333
f 333/333/333 319/319/319 335/335/335
f 334/334/334 335/335/335 336/336/336
f 331/331/331 334/334/334 336/336/336
f 337/337/337 336/336/336 335/335/335
f 335/335/335 319/319/319 337/337/337
f 336/336/336 337/337/337 338/338/338
f 331/331/331 336/336/336 338/338/338
f 339/339/339 338/338/338 337/337/337
f 337/337/337 319/319/319 339/339/339
f 338/338/338 339/339/339 340/340/340
f 331/331/331 338/338/338 340/340/340
f 341/341/341 340/340/340 339/339/339
f 339/339/339 319/319/319 341/341/341
f 340/340/340 341/341/341 342/342/342
f 331/331/331 340/340/340 342/342/342
f 343/343/343 342/342/342 341/341/341
f 341/341/341 319/319/319 343/343/343
f 342/342/342 343/343/343 344/344/344
f 331/331/331 342/342/342 344/344/344
f 345/345/345 344/344/344 343/343/343
f 343/343/343 319/319/319 345/345/345
f 344/344/344 345/345/345 346/346/346
f 331/331/331 344/344/344 346/346/346
f 347/347/347 346/346/346 345/345/345
f 345/345/345 319/319/319 347/347/347
f 346/346/346 347/347/347 348/348/348
f 331/331/331 346/346/346 348/348/348
f 347/347/347 319/319/319 349/349/349
f 349/349/349 348/348/348 347/347/347
f 349/349/349 319/319/319 350/350/350
f 348/348/348 349/349/349 351/351/351
f 350/350/350 351/351/351 349/349/349
f 350/350/350 319/319/319 352/352/352
f 352/352/352 319/319/319 353/353/353
f 353/353/353 354/354/354 352/352/352
f 352/352/352 355/355/355 350/350/350
f 355/355/355 352/352/352 354/354/354
f 351/351/351 350/350/350 355/355/355
f 356/356/356 355/355/355 354/354/354
f 357/357/357 355/355/355 356/356/356
f 357/357/357 351/351/351 355/355/355
f 358/358/358 357/357/357 356/356/356
f 359/359/359 357/357/357 358/358/358
f 360/360/360 351/351/351 357/357/357
f 359/359/359 360/360/360 357/357/357
f 360/360/360 348/348/348 351/351/351
f 359/359/359 331/331/331 360/360/360
f 331/331/331 348/348/348 360/360/360
f 331/331/331 362/362/362 361/361/361
f 362/362/362 363/363/363 361/361/361
f 361/361/361 363/363/363 364/364/364
f 363/363/363 313/313/313 364/364/364
f 361/361/361 364/364/364 365/365/365
f 331/331/331 361/361/361 365/365/365
f 364/364/364 313/313/313 366/366/366
f 366/366/366 365/365/365 364/364/364
f 366/366/366 313/313/313 367/367/367
f 367/367/367 313/313/313 327/327/327
f 365/365/365 366/366/366 368/368/368
f 368/368/368 366/366/366 367/367/367
f 331/331/331 365/365/365 368/368/368
f 327/327/327 369/369/369 367/367/367
f 368/368/368 367/367/367 369/369/369
f 331/331/331 368/368/368 369/369/369
f 369/369/369 327/327/327 325/325/325
f 331/331/331 369/369/369 325/325/325
f 372/372/372 371/371/371 370/370/370
f 370/370/370 371/371/371 373/373/373
f 371/371/371 372/372/372 374/374/374
f 375/375/375 373/373/373 371/371/371
f 374/374/374 372/372/372 376/376/376
f 375/375/375 377/377/377 373/373/373
f 378/378/378 374/374/374 376/376/376
f 377/377/377 379/379/379 373/373/373
f 378/378/378 376/376/376 380/380/380
f 381/381/381 379/379/379 377/377/377
f 382/382/382 380/380/380 376/376/376
f 379/379/379 381/381/381 383/383/383
f 384/384/384 380/380/380 382/382/382
f 383/383/383 381/381/381 385/385/385
f 386/386/386 380/380/380 384/384/384
f 387/387/387 385/385/385 381/381/381
f 386/386/386 384/384/384 388/388/388
f 387/387/387 389/389/389 385/385/385
f 390/390/390 386/386/386 388/388/388
f 389/389/389 391/391/391 385/385/385
f 390/390/390 388/388/388 392/392/392
f 392/392/392 391/391/391 389/389/389
f 393/393/393 392/392/392 388/388/388
f 393/393/393 391/391/391 392/392/392
