mtllib SM_Pillar_01_a_LOD3@000002909DC2C100.mtl
g SM_Pillar_01_a_LOD3@000002909DC2C100
#Vertices 65
#Indices 216
#Section 0 Offset 0 NumIndices 141 MaterialIndex 0 MI_Pillar_02
#Section 1 Offset 141 NumIndices 75 MaterialIndex 1 MI_Pillar_01
v -0.384093 5.356565 -0.377252 0.000000 0.000000 1.000000 1.000000
v 0.352191 5.343839 -0.363618 0.000000 0.000000 1.000000 1.000000
v -0.378367 5.371955 0.365107 0.000000 0.000000 1.000000 1.000000
v 0.364285 5.368679 0.373186 0.000000 0.000000 1.000000 1.000000
v 0.591213 4.171315 0.620963 0.000000 0.000000 1.000000 1.000000
v -0.578521 4.162589 0.598909 0.431373 0.431373 1.000000 1.000000
v 0.872800 4.447568 0.918871 0.000000 0.000000 1.000000 1.000000
v -0.821801 4.361833 0.826738 0.000000 0.000000 1.000000 1.000000
v -0.616040 4.168595 0.552656 0.427451 0.427451 1.000000 1.000000
v -0.719788 4.546400 0.714366 0.000000 0.000000 1.000000 1.000000
v 0.598198 4.650767 0.648197 0.000000 0.000000 1.000000 1.000000
v -0.795770 4.337851 -0.813649 0.000000 0.000000 1.000000 1.000000
v -0.615978 4.164339 -0.569828 1.000000 1.000000 1.000000 1.000000
v -0.571378 4.162175 -0.615891 1.000000 1.000000 1.000000 1.000000
v 0.568917 4.172226 -0.616026 0.752941 0.752941 1.000000 1.000000
v 0.631742 4.184865 -0.615606 0.835294 0.835294 1.000000 1.000000
v -0.721908 4.483304 -0.670605 0.000000 0.000000 1.000000 1.000000
v 0.872800 4.447568 0.918871 0.000000 0.000000 1.000000 1.000000
v 0.591213 4.171315 0.620963 0.000000 0.000000 1.000000 1.000000
v 0.686319 4.524992 -0.737657 0.000000 0.000000 1.000000 1.000000
v 0.598198 4.650767 0.648197 0.000000 0.000000 1.000000 1.000000
v 0.265121 5.204934 0.314701 0.000000 0.000000 1.000000 1.000000
v 0.364285 5.368679 0.373186 0.000000 0.000000 1.000000 1.000000
v 0.352191 5.343839 -0.363618 0.000000 0.000000 1.000000 1.000000
v -0.422739 5.038763 -0.426413 0.000000 0.000000 1.000000 1.000000
v -0.384093 5.356565 -0.377252 0.000000 0.000000 1.000000 1.000000
v -0.278540 5.220141 0.283777 0.000000 0.000000 1.000000 1.000000
v -0.378367 5.371955 0.365107 0.000000 0.000000 1.000000 1.000000
v 0.265121 5.204934 0.314701 0.000000 0.000000 1.000000 1.000000
v 0.364285 5.368679 0.373186 0.000000 0.000000 1.000000 1.000000
v 0.584738 0.739233 -0.520383 0.000000 1.000000 0.000000 1.000000
v 0.725569 0.555415 0.733287 0.000000 1.000000 0.000000 1.000000
v 0.520448 0.625057 0.535006 0.000000 1.000000 0.000000 1.000000
v 0.528173 0.386052 -0.515885 0.000000 1.000000 0.000000 1.000000
v 0.515130 0.445556 0.540702 0.000000 1.000000 0.000000 1.000000
v -0.651359 0.440305 -0.648491 0.000000 1.000000 0.000000 1.000000
v -0.513990 0.444321 -0.507921 0.000000 1.000000 0.000000 1.000000
v -0.536833 0.685532 -0.501321 0.000000 1.000000 0.000000 1.000000
v -0.524702 0.369498 0.556178 0.000000 1.000000 0.000000 1.000000
v -0.671650 0.624765 0.673880 0.000000 1.000000 0.000000 1.000000
v -0.526297 0.623881 0.535006 0.000000 1.000000 0.000000 1.000000
v 0.520448 0.625057 0.535006 0.000000 1.000000 0.000000 1.000000
v 0.725569 0.555415 0.733287 0.000000 1.000000 0.000000 1.000000
v 0.515130 0.445556 0.540702 0.000000 1.000000 0.000000 1.000000
v 0.571187 0.471250 0.612676 0.000000 1.000000 0.000000 1.000000
v -0.578521 4.162589 0.598909 0.431373 0.431373 1.000000 1.000000
v 0.591213 4.171315 0.620963 0.000000 0.000000 1.000000 1.000000
v -0.551890 0.417662 0.600361 0.000000 1.000000 0.000000 1.000000
v 0.764483 0.014163 0.834044 0.000000 1.000000 0.000000 1.000000
v -0.616040 4.168595 0.552656 0.427451 0.427451 1.000000 1.000000
v -0.767782 0.000421 0.788317 0.000000 1.000000 0.000000 1.000000
v -0.602879 0.449790 0.566476 0.000000 1.000000 0.000000 1.000000
v -0.796177 0.010434 -0.788150 0.000000 1.000000 0.000000 1.000000
v -0.593551 0.515884 -0.547070 0.000000 1.000000 0.000000 1.000000
v -0.615978 4.164339 -0.569828 1.000000 1.000000 1.000000 1.000000
v -0.545875 0.512306 -0.593508 0.000000 1.000000 0.000000 1.000000
v -0.571378 4.162175 -0.615891 1.000000 1.000000 1.000000 1.000000
v 0.568917 4.172226 -0.616026 0.752941 0.752941 1.000000 1.000000
v 0.555350 0.448739 -0.602836 0.000000 1.000000 0.000000 1.000000
v 0.749588 -0.001282 -0.758174 0.000000 1.000000 0.000000 1.000000
v 0.631742 4.184865 -0.615606 0.835294 0.835294 1.000000 1.000000
v 0.616539 0.408582 -0.561236 0.000000 1.000000 0.000000 1.000000
v 0.764483 0.014163 0.834044 0.000000 1.000000 0.000000 1.000000
v 0.571187 0.471250 0.612676 0.000000 1.000000 0.000000 1.000000
v 0.591213 4.171315 0.620963 0.000000 0.000000 1.000000 1.000000
vt 0.044006 0.121094
vt 0.045624 0.029297
vt 0.136719 0.120117
vt 0.137817 0.027832
vt 0.184326 0.698242
vt 0.325684 0.678711
vt 0.158325 0.761353
vt 0.331543 0.717529
vt 0.338135 0.679688
vt 0.335205 0.760010
vt 0.207153 0.814819
vt 0.479980 0.705566
vt 0.472168 0.673828
vt 0.482666 0.673828
vt 0.617676 0.683350
vt 0.629395 0.689941
vt 0.474121 0.744629
vt 0.793457 0.768677
vt 0.772949 0.701172
vt 0.607910 0.758423
vt 0.744141 0.822998
vt 0.658203 0.894348
vt 0.660645 0.918945
vt 0.575195 0.884888
vt 0.475098 0.831909
vt 0.475098 0.879761
vt 0.371094 0.867188
vt 0.375488 0.888855
vt 0.294678 0.888306
vt 0.289551 0.914673
vt 0.610352 0.095703
vt 0.776855 0.077637
vt 0.747559 0.104980
vt 0.612793 0.047363
vt 0.749023 0.042480
vt 0.481934 0.062500
vt 0.483154 0.045410
vt 0.479004 0.101562
vt 0.353271 0.049805
vt 0.356201 0.089844
vt 0.353760 0.107910
vt 0.215210 0.111328
vt 0.188599 0.079590
vt 0.215942 0.045898
vt 0.177856 0.219727
vt 0.329102 0.680420
vt 0.182983 0.695312
vt 0.320068 0.201172
vt 0.137451 0.159180
vt 0.334473 0.680176
vt 0.319092 0.139648
vt 0.329346 0.205078
vt 0.480469 0.138672
vt 0.474365 0.210938
vt 0.474365 0.674805
vt 0.486816 0.209961
vt 0.480957 0.674805
vt 0.621094 0.683838
vt 0.630371 0.205566
vt 0.641602 0.141602
vt 0.621582 0.686768
vt 0.641602 0.200195
vt 0.827637 0.165039
vt 0.788574 0.223145
vt 0.774902 0.702393
vt1 0.870117 0.194824
vt1 0.872070 0.078613
vt1 0.987305 0.193848
vt1 0.988770 0.076660
vt1 0.050659 0.717773
vt1 0.231079 0.692871
vt1 0.017487 0.798340
vt1 0.238525 0.742432
vt1 0.246704 0.694092
vt1 0.243042 0.796509
vt1 0.079773 0.866455
vt1 0.427734 0.727295
vt1 0.417725 0.686523
vt1 0.430908 0.686768
vt1 0.603027 0.698730
vt1 0.617676 0.707031
vt1 0.419922 0.776978
vt1 0.827148 0.807617
vt1 0.801270 0.721436
vt1 0.590820 0.794556
vt1 0.764160 0.876831
vt1 0.655273 0.967896
vt1 0.658203 0.999189
vt1 0.548828 0.955780
vt1 0.421387 0.888184
vt1 0.421387 0.949249
vt1 0.288818 0.933228
vt1 0.294434 0.960815
vt1 0.191528 0.960175
vt1 0.184814 0.993778
vt1 0.850098 0.782715
vt1 0.874512 1.013023
vt1 0.837402 0.972580
vt1 0.915039 0.785889
vt1 0.921387 0.974564
vt1 0.894043 0.604492
vt1 0.917480 0.606201
vt1 0.841797 0.600342
vt1 0.911133 0.426270
vt1 0.857910 0.430176
vt1 0.833496 0.427246
vt1 0.829102 0.234863
vt1 0.871582 0.197754
vt1 0.916992 0.235840
vt1 0.042450 0.107910
vt1 0.235107 0.695068
vt1 0.048950 0.714111
vt1 0.223633 0.083984
vt1 -0.009155 0.030762
vt1 0.242188 0.694824
vt1 0.222656 0.005371
vt1 0.235474 0.088867
vt1 0.428223 0.004395
vt1 0.420410 0.096191
vt1 0.420410 0.687988
vt1 0.436279 0.095703
vt1 0.428955 0.687988
vt1 0.607422 0.699463
vt1 0.619141 0.089844
vt1 0.633301 0.007812
vt1 0.608398 0.703125
vt1 0.633789 0.083008
vt1 0.871094 0.037598
vt1 0.821289 0.111816
vt1 0.803711 0.722900
vn -0.047244 0.992126 -0.086614
vn 0.039370 1.000000 -0.031496
vn -0.031496 1.000000 0.031496
vn 0.062992 0.992126 0.078740
vn 0.007874 -0.771653 0.637795
vn -0.023622 -0.787401 0.614173
vn -0.015748 -0.078740 1.000000
vn -0.527559 -0.700787 0.488189
vn -0.637795 -0.771653 0.023622
vn -0.472441 0.787401 0.393701
vn 0.055118 0.653543 0.755905
vn -0.393701 -0.716535 -0.574803
vn -0.629921 -0.779527 -0.015748
vn -0.015748 -0.811024 -0.590551
vn 0.031496 -0.779527 -0.622047
vn 0.417323 -0.881890 -0.204724
vn -0.385827 0.858268 -0.338583
vn 0.992126 0.078740 0.070866
vn 0.677165 -0.732283 0.070866
vn 0.354331 0.834646 -0.417323
vn 0.763780 0.645669 0.070866
vn 0.976378 0.102362 0.173228
vn 0.992126 0.070866 0.102362
vn 0.519685 -0.503937 -0.685039
vn -0.622047 0.527559 -0.574803
vn -0.598425 -0.559055 -0.574803
vn -0.496063 0.173228 0.850394
vn -0.866142 0.055118 0.496063
vn 0.015748 -0.102362 0.992126
vn 0.031496 0.078740 1.000000
vn 0.299213 0.921260 -0.259843
vn 0.960630 0.267716 -0.055118
vn 0.000000 1.000000 -0.000000
vn 0.070866 -0.984252 -0.165354
vn 0.000000 -1.000000 0.000000
vn -0.425197 -0.732283 -0.535433
vn 0.000000 -1.000000 0.000000
vn -0.086614 0.984252 -0.149606
vn 0.039370 -0.968504 0.228347
vn -0.543307 0.787401 0.299212
vn 0.000000 1.000000 -0.000000
vn 0.000000 1.000000 -0.000000
vn 0.110236 0.007874 0.992126
vn 0.000000 -1.000000 0.000000
vn 0.000000 0.015748 1.000000
vn -0.047244 -0.007874 1.000000
vn 0.000000 -0.015748 1.000000
vn -0.039370 0.157480 0.984252
vn -0.086614 0.228347 0.968504
vn -1.000000 -0.015748 0.039370
vn -0.543307 -0.102362 0.834646
vn -0.992126 0.102362 0.039370
vn -0.614173 0.472441 -0.629921
vn -1.000000 0.015748 -0.039370
vn -1.000000 -0.023622 -0.047244
vn -0.039370 0.015748 -1.000000
vn -0.039370 -0.023622 -1.000000
vn 0.039370 -0.015748 -1.000000
vn 0.039370 0.094488 -0.992126
vn 0.590551 -0.000000 -0.803149
vn 1.000000 -0.015748 -0.062992
vn 0.984252 0.157480 -0.015748
vn 0.976378 0.204724 0.094488
vn 0.992126 0.007874 0.094488
vn 0.992126 -0.015748 0.118110
tan 0.984314 0.055738 0.101556 1.000000
tan 1.000000 -0.041354 -0.062992 1.000000
tan 1.000000 0.033728 -0.070866 1.000000
tan 0.992126 -0.069192 0.078120 1.000000
tan -0.012152 -0.637919 -0.771653 1.000000
tan 0.031000 -0.615103 -0.787401 1.000000
tan -0.039370 -1.000000 -0.079360 1.000000
tan 0.540765 -0.718457 -0.446959 1.000000
tan 0.764834 -0.634819 -0.086924 1.000000
tan -0.610701 -0.616281 0.499721 1.000000
tan -0.022196 -0.755037 0.654411 1.000000
tan 0.362205 -0.694835 0.618079 1.000000
tan 0.773018 -0.626325 0.082398 1.000000
tan 0.090582 -0.587389 0.804266 1.000000
tan -0.105524 -0.620621 0.772397 1.000000
tan -0.854114 -0.454151 0.215264 1.000000
tan -0.662285 -0.513671 -0.547399 1.000000
tan 0.083762 -0.992126 -0.070308 1.000000
tan -0.731167 -0.681629 -0.056792 1.000000
tan 0.430467 -0.541819 -0.718147 1.000000
tan 0.651249 -0.763779 -0.060140 1.000000
tan 0.126108 -0.968690 -0.138384 1.000000
tan 0.092566 -0.968690 -0.226548 1.000000
tan -0.366421 -0.831979 0.334057 1.000000
tan -0.456879 -0.842086 -0.278442 1.000000
tan 0.399343 -0.819889 0.381673 1.000000
tan -0.262881 -0.872714 0.024428 1.000000
tan -0.120218 -0.927708 -0.106826 1.000000
tan -0.148428 -0.984314 -0.099200 1.000000
tan -0.314961 -0.952756 0.084940 1.000000
tan 0.587575 -0.391345 -0.710893 1.000000
tan 0.267717 -0.960630 0.000000 1.000000
tan 1.000000 -0.000000 -0.023622 1.000000
tan -0.666501 -0.169074 0.720751 1.000000
tan -1.000000 -0.000000 -0.007874 1.000000
tan 0.428483 -0.679645 0.589249 1.000000
tan 0.724409 0.000000 0.692913 1.000000
tan -0.713001 -0.165230 -0.674251 1.000000
tan 0.366049 -0.197284 -0.899870 1.000000
tan -0.704445 -0.621985 0.357679 1.000000
tan -0.716535 0.000000 0.692913 1.000000
tan -0.007874 0.000000 1.000000 1.000000
tan -0.015624 -0.992126 0.009610 1.000000
tan 0.007874 -0.000000 -1.000000 1.000000
tan -0.078740 -1.000000 0.015748 1.000000
tan -0.086614 -0.992126 -0.011904 1.000000
tan -0.086614 -0.992126 -0.015624 1.000000
tan -0.093000 -0.976502 0.152520 1.000000
tan -0.045756 -0.968504 0.224255 1.000000
tan 0.013268 -1.000000 -0.062992 1.000000
tan 0.093124 -0.947238 -0.055552 1.000000
tan -0.102362 -0.992126 0.000000 1.000000
tan -0.331081 -0.876806 -0.334801 1.000000
tan -0.015748 -1.000000 0.000000 1.000000
tan 0.023622 -1.000000 0.000000 1.000000
tan -0.023622 -1.000000 -0.014818 1.000000
tan -0.039370 -1.000000 0.025172 1.000000
tan -0.110236 -0.992126 0.011284 1.000000
tan -0.023436 -0.992126 -0.095418 1.000000
tan -0.056916 -0.960134 -0.041850 1.000000
tan -0.023560 -0.992126 -0.125984 1.000000
tan 0.154752 -0.976502 -0.093000 1.000000
tan 0.217248 -0.968690 -0.146072 1.000000
tan 0.018972 -0.984314 -0.117180 1.000000
tan -0.009238 -0.992126 -0.054684 1.000000
f 3/3/3 2/2/2 1/1/1
f 3/3/3 4/4/4 2/2/2
f 7/7/7 6/6/6 5/5/5
f 8/8/8 6/6/6 7/7/7
f 9/9/9 6/6/6 8/8/8
f 10/10/10 8/8/8 7/7/7
f 7/7/7 11/11/11 10/10/10
f 9/9/9 8/8/8 12/12/12
f 13/13/13 9/9/9 12/12/12
f 14/14/14 13/13/13 12/12/12
f 14/14/14 12/12/12 15/15/15
f 15/15/15 12/12/12 16/16/16
f 12/12/12 8/8/8 17/17/17
f 10/10/10 17/17/17 8/8/8
f 19/19/19 16/16/16 18/18/18
f 16/16/16 12/12/12 20/20/20
f 16/16/16 20/20/20 18/18/18
f 12/12/12 17/17/17 20/20/20
f 21/21/21 18/18/18 20/20/20
f 21/21/21 20/20/20 22/22/22
f 22/22/22 24/24/24 23/23/23
f 24/24/24 22/22/22 20/20/20
f 17/17/17 25/25/25 20/20/20
f 24/24/24 20/20/20 25/25/25
f 25/25/25 17/17/17 10/10/10
f 25/25/25 26/26/26 24/24/24
f 10/10/10 27/27/27 25/25/25
f 26/26/26 25/25/25 27/27/27
f 10/10/10 11/11/11 27/27/27
f 27/27/27 28/28/28 26/26/26
f 29/29/29 27/27/27 11/11/11
f 28/28/28 27/27/27 30/30/30
f 29/29/29 30/30/30 27/27/27
f 33/33/33 32/32/32 31/31/31
f 32/32/32 35/35/35 34/34/34
f 31/31/31 32/32/32 34/34/34
f 34/34/34 36/36/36 31/31/31
f 37/37/37 36/36/36 34/34/34
f 38/38/38 31/31/31 36/36/36
f 37/37/37 39/39/39 36/36/36
f 36/36/36 40/40/40 38/38/38
f 40/40/40 36/36/36 39/39/39
f 40/40/40 41/41/41 38/38/38
f 41/41/41 40/40/40 42/42/42
f 42/42/42 40/40/40 43/43/43
f 39/39/39 43/43/43 40/40/40
f 43/43/43 39/39/39 44/44/44
f 47/47/47 46/46/46 45/45/45
f 46/46/46 48/48/48 45/45/45
f 45/45/45 48/48/48 49/49/49
f 48/48/48 46/46/46 50/50/50
f 48/48/48 51/51/51 49/49/49
f 52/52/52 51/51/51 48/48/48
f 50/50/50 52/52/52 48/48/48
f 52/52/52 53/53/53 51/51/51
f 52/52/52 50/50/50 54/54/54
f 54/54/54 53/53/53 52/52/52
f 55/55/55 54/54/54 50/50/50
f 54/54/54 55/55/55 56/56/56
f 53/53/53 54/54/54 56/56/56
f 55/55/55 57/57/57 56/56/56
f 56/56/56 57/57/57 58/58/58
f 56/56/56 59/59/59 53/53/53
f 59/59/59 56/56/56 58/58/58
f 60/60/60 53/53/53 59/59/59
f 58/58/58 61/61/61 59/59/59
f 62/62/62 60/60/60 59/59/59
f 62/62/62 59/59/59 61/61/61
f 62/62/62 63/63/63 60/60/60
f 63/63/63 62/62/62 64/64/64
f 61/61/61 64/64/64 62/62/62
f 64/64/64 61/61/61 65/65/65
