mtllib SM_Pillar_Deco_LOD3@000002909DC14800.mtl
g SM_Pillar_Deco_LOD3@000002909DC14800
#Vertices 236
#Indices 918
#Section 0 Offset 0 NumIndices 918 MaterialIndex 0 MI_Pillar_A_01
v -0.032380 5.760523 -0.023990 0.000000 0.000000 1.000000 1.000000
v -0.026080 5.792290 0.054874 0.000000 0.000000 1.000000 1.000000
v 0.026149 5.755461 -0.016427 0.000000 0.000000 1.000000 1.000000
v -0.000567 6.523553 0.011796 0.000000 0.000000 1.000000 1.000000
v -0.010633 6.519252 -0.006533 0.000000 0.000000 1.000000 1.000000
v 0.010035 6.525796 0.000699 0.000000 0.000000 1.000000 1.000000
v 0.004701 6.509404 -0.008740 0.000000 0.000000 1.000000 1.000000
v 0.034918 5.749032 0.026942 0.000000 0.000000 1.000000 1.000000
v 0.001245 5.744311 0.032677 0.000000 0.000000 1.000000 1.000000
v -0.000567 6.523553 0.011796 0.000000 0.000000 1.000000 1.000000
v 0.010035 6.525796 0.000699 0.000000 0.000000 1.000000 1.000000
v 0.035208 5.746696 -0.014947 0.000000 0.000000 1.000000 1.000000
v 0.004701 6.509404 -0.008740 0.000000 0.000000 1.000000 1.000000
v 0.001806 5.740917 -0.034848 0.000000 0.000000 1.000000 1.000000
v -0.010633 6.519252 -0.006533 0.000000 0.000000 1.000000 1.000000
v -0.029027 5.742715 -0.020387 0.000000 0.000000 1.000000 1.000000
v -0.031475 5.741648 0.015931 0.000000 0.000000 1.000000 1.000000
v -0.000567 6.523553 0.011796 0.000000 0.000000 1.000000 1.000000
v 0.001245 5.744311 0.032677 0.000000 0.000000 1.000000 1.000000
v 0.014109 5.879225 0.007525 0.000000 0.000000 1.000000 1.000000
v 0.074235 6.155303 0.006871 0.000000 0.000000 1.000000 1.000000
v 0.024694 5.878771 -0.003922 0.000000 0.000000 1.000000 1.000000
v 0.110293 6.199866 0.008468 0.000000 0.000000 1.000000 1.000000
v 0.138524 6.179740 0.000560 0.000000 0.000000 1.000000 1.000000
v -0.091649 6.177000 0.011482 0.000000 0.000000 1.000000 1.000000
v -0.024694 5.878771 0.003921 0.000000 0.000000 1.000000 1.000000
v -0.074242 6.155322 -0.006876 0.000000 0.000000 1.000000 1.000000
v -0.138523 6.179740 -0.000560 0.000000 0.000000 1.000000 1.000000
v -0.162357 6.184084 0.018926 0.000000 0.000000 1.000000 1.000000
v -0.161421 6.051043 0.000301 0.000000 0.000000 1.000000 1.000000
v -0.185474 6.044697 0.018110 0.000000 0.000000 1.000000 1.000000
v -0.189542 6.020628 -0.004919 0.000000 0.000000 1.000000 1.000000
v -0.261054 6.153453 0.023565 0.000000 0.000000 1.000000 1.000000
v -0.246453 6.137472 -0.000001 0.000000 0.000000 1.000000 1.000000
v -0.287825 6.147996 0.000822 0.000000 0.000000 1.000000 1.000000
v -0.339090 6.001436 0.035082 0.000000 0.000000 1.000000 1.000000
v -0.326313 5.959725 -0.000000 0.000000 0.000000 1.000000 1.000000
v -0.355159 5.952400 0.000117 0.000000 0.000000 1.000000 1.000000
v -0.440549 6.097213 0.036243 0.000000 0.000000 1.000000 1.000000
v -0.443728 6.081650 -0.000001 0.000000 0.000000 1.000000 1.000000
v -0.488805 6.057030 -0.000122 0.000000 0.000000 1.000000 1.000000
v -0.254769 6.286009 0.024032 0.000000 0.000000 1.000000 1.000000
v -0.517509 6.060609 0.041108 0.000000 0.000000 1.000000 1.000000
v -0.459128 5.808391 0.044309 0.000000 0.000000 1.000000 1.000000
v -0.434913 5.752094 0.000668 0.000000 0.000000 1.000000 1.000000
v -0.479059 5.742733 0.000004 0.000000 0.000000 1.000000 1.000000
v -0.655014 5.968693 0.046411 0.000000 0.000000 1.000000 1.000000
v -0.733362 6.107800 -0.000001 0.000000 0.000000 1.000000 1.000000
v -0.787738 6.246225 0.056648 0.000000 0.000000 1.000000 1.000000
v -0.809445 6.380492 -0.000134 0.000000 0.000000 1.000000 1.000000
v -0.731317 6.336601 0.052217 0.000000 0.000000 1.000000 1.000000
v -0.743227 6.598100 0.053759 0.000000 0.000000 1.000000 1.000000
v -0.613965 6.838239 0.046581 0.000000 0.000000 1.000000 1.000000
v -0.607808 6.853122 -0.000009 0.000000 0.000000 1.000000 1.000000
v -0.599163 6.855406 -0.002171 0.000000 0.000000 1.000000 1.000000
v -0.639673 6.596000 0.046532 0.000000 0.000000 1.000000 1.000000
v -0.589297 6.370625 0.043430 0.000000 0.000000 1.000000 1.000000
v -0.614276 6.767167 0.039448 0.000000 0.000000 1.000000 1.000000
v -0.607760 6.776627 -0.000001 0.000000 0.000000 1.000000 1.000000
v -0.506572 6.414496 0.000044 0.000000 0.000000 1.000000 1.000000
v -0.485871 6.404547 0.037525 0.000000 0.000000 1.000000 1.000000
v -0.259545 6.318156 0.000280 0.000000 0.000000 1.000000 1.000000
v -0.099375 6.380067 -0.008733 0.000000 0.000000 1.000000 1.000000
v 0.000000 6.487545 0.007003 0.000000 0.000000 1.000000 1.000000
v -0.012114 6.515350 -0.002466 0.000000 0.000000 1.000000 1.000000
v 0.095467 6.389770 -0.000103 0.000000 0.000000 1.000000 1.000000
v 0.260733 6.299769 0.023645 0.000000 0.000000 1.000000 1.000000
v 0.236074 6.320354 0.000013 0.000000 0.000000 1.000000 1.000000
v 0.423730 6.382315 -0.000001 0.000000 0.000000 1.000000 1.000000
v 0.162573 6.183129 0.019154 0.000000 0.000000 1.000000 1.000000
v 0.161421 6.051043 -0.000302 0.000000 0.000000 1.000000 1.000000
v 0.185490 6.044667 0.018135 0.000000 0.000000 1.000000 1.000000
v 0.189303 6.021592 -0.005603 0.000000 0.000000 1.000000 1.000000
v 0.267414 6.158678 0.023696 0.000000 0.000000 1.000000 1.000000
v 0.246453 6.137472 -0.000001 0.000000 0.000000 1.000000 1.000000
v 0.277171 6.146913 0.000035 0.000000 0.000000 1.000000 1.000000
v 0.331124 5.990413 -0.000045 0.000000 0.000000 1.000000 1.000000
v 0.346868 5.991686 0.034260 0.000000 0.000000 1.000000 1.000000
v 0.355162 5.952384 0.000120 0.000000 0.000000 1.000000 1.000000
v 0.439258 6.096284 0.036202 0.000000 0.000000 1.000000 1.000000
v 0.443728 6.081650 -0.000001 0.000000 0.000000 1.000000 1.000000
v 0.488820 6.055356 -0.000113 0.000000 0.000000 1.000000 1.000000
v 0.517584 6.060299 0.041073 0.000000 0.000000 1.000000 1.000000
v 0.459128 5.808382 0.044315 0.000000 0.000000 1.000000 1.000000
v 0.434914 5.752095 0.000668 0.000000 0.000000 1.000000 1.000000
v 0.479059 5.742734 0.000004 0.000000 0.000000 1.000000 1.000000
v 0.655014 5.968693 0.046411 0.000000 0.000000 1.000000 1.000000
v 0.733372 6.107821 -0.000001 0.000000 0.000000 1.000000 1.000000
v 0.787738 6.246225 0.056648 0.000000 0.000000 1.000000 1.000000
v 0.809442 6.380508 0.000132 0.000000 0.000000 1.000000 1.000000
v 0.731319 6.336584 0.052217 0.000000 0.000000 1.000000 1.000000
v 0.743227 6.598101 0.053759 0.000000 0.000000 1.000000 1.000000
v 0.614168 6.840846 0.045257 0.000000 0.000000 1.000000 1.000000
v 0.607807 6.853122 0.000007 0.000000 0.000000 1.000000 1.000000
v 0.599163 6.855405 0.002169 0.000000 0.000000 1.000000 1.000000
v 0.639673 6.596000 0.046532 0.000000 0.000000 1.000000 1.000000
v 0.589327 6.370622 0.043431 0.000000 0.000000 1.000000 1.000000
v 0.614506 6.766029 0.039736 0.000000 0.000000 1.000000 1.000000
v 0.607760 6.776627 -0.000001 0.000000 0.000000 1.000000 1.000000
v 0.529129 6.453364 -0.000003 0.000000 0.000000 1.000000 1.000000
v 0.486001 6.404710 0.037535 0.000000 0.000000 1.000000 1.000000
v -0.024694 5.878771 0.003921 0.000000 0.000000 1.000000 1.000000
v -0.014109 5.879225 -0.007527 0.000000 0.000000 1.000000 1.000000
v -0.074242 6.155322 -0.006876 0.000000 0.000000 1.000000 1.000000
v -0.106990 6.188511 -0.012056 0.000000 0.000000 1.000000 1.000000
v -0.138523 6.179740 -0.000560 0.000000 0.000000 1.000000 1.000000
v -0.162510 6.183903 -0.019163 0.000000 0.000000 1.000000 1.000000
v -0.161421 6.051043 0.000301 0.000000 0.000000 1.000000 1.000000
v -0.189542 6.020628 -0.004919 0.000000 0.000000 1.000000 1.000000
v -0.099375 6.380067 -0.008733 0.000000 0.000000 1.000000 1.000000
v -0.258592 6.152265 -0.023757 0.000000 0.000000 1.000000 1.000000
v -0.246453 6.137472 -0.000001 0.000000 0.000000 1.000000 1.000000
v -0.287825 6.147996 0.000822 0.000000 0.000000 1.000000 1.000000
v -0.276525 6.290585 -0.026462 0.000000 0.000000 1.000000 1.000000
v -0.338884 6.001756 -0.034978 0.000000 0.000000 1.000000 1.000000
v -0.326313 5.959725 -0.000000 0.000000 0.000000 1.000000 1.000000
v -0.355159 5.952400 0.000117 0.000000 0.000000 1.000000 1.000000
v -0.439143 6.099919 -0.034874 0.000000 0.000000 1.000000 1.000000
v -0.443728 6.081650 -0.000001 0.000000 0.000000 1.000000 1.000000
v -0.488805 6.057030 -0.000122 0.000000 0.000000 1.000000 1.000000
v -0.259545 6.318156 0.000280 0.000000 0.000000 1.000000 1.000000
v -0.506572 6.414496 0.000044 0.000000 0.000000 1.000000 1.000000
v -0.512922 6.058708 -0.041315 0.000000 0.000000 1.000000 1.000000
v -0.486032 6.404748 -0.037538 0.000000 0.000000 1.000000 1.000000
v -0.589228 6.370893 -0.043423 0.000000 0.000000 1.000000 1.000000
v -0.614513 6.766035 -0.039741 0.000000 0.000000 1.000000 1.000000
v -0.607760 6.776627 -0.000001 0.000000 0.000000 1.000000 1.000000
v -0.599163 6.855406 -0.002171 0.000000 0.000000 1.000000 1.000000
v -0.639673 6.596000 -0.046535 0.000000 0.000000 1.000000 1.000000
v -0.614169 6.840848 -0.045258 0.000000 0.000000 1.000000 1.000000
v -0.607808 6.853122 -0.000009 0.000000 0.000000 1.000000 1.000000
v -0.809445 6.380492 -0.000134 0.000000 0.000000 1.000000 1.000000
v -0.731316 6.336498 -0.052219 0.000000 0.000000 1.000000 1.000000
v -0.743228 6.598099 -0.053761 0.000000 0.000000 1.000000 1.000000
v -0.787737 6.246224 -0.056650 0.000000 0.000000 1.000000 1.000000
v -0.733362 6.107800 -0.000001 0.000000 0.000000 1.000000 1.000000
v -0.655025 5.968707 -0.046412 0.000000 0.000000 1.000000 1.000000
v -0.479059 5.742733 0.000004 0.000000 0.000000 1.000000 1.000000
v -0.458906 5.808938 -0.044318 0.000000 0.000000 1.000000 1.000000
v -0.434913 5.752094 0.000668 0.000000 0.000000 1.000000 1.000000
v 0.091657 6.177023 -0.011485 0.000000 0.000000 1.000000 1.000000
v 0.024694 5.878771 -0.003922 0.000000 0.000000 1.000000 1.000000
v 0.074235 6.155303 0.006871 0.000000 0.000000 1.000000 1.000000
v 0.138524 6.179740 0.000560 0.000000 0.000000 1.000000 1.000000
v 0.162590 6.183915 -0.018828 0.000000 0.000000 1.000000 1.000000
v 0.161421 6.051043 -0.000302 0.000000 0.000000 1.000000 1.000000
v 0.189303 6.021592 -0.005603 0.000000 0.000000 1.000000 1.000000
v 0.221811 6.297135 -0.021884 0.000000 0.000000 1.000000 1.000000
v -0.012114 6.515350 -0.002466 0.000000 0.000000 1.000000 1.000000
v 0.095467 6.389770 -0.000103 0.000000 0.000000 1.000000 1.000000
v 0.236074 6.320354 0.000013 0.000000 0.000000 1.000000 1.000000
v 0.423730 6.382315 -0.000001 0.000000 0.000000 1.000000 1.000000
v 0.267434 6.158557 -0.023849 0.000000 0.000000 1.000000 1.000000
v 0.246453 6.137472 -0.000001 0.000000 0.000000 1.000000 1.000000
v 0.277171 6.146913 0.000035 0.000000 0.000000 1.000000 1.000000
v 0.331124 5.990413 -0.000045 0.000000 0.000000 1.000000 1.000000
v 0.347100 5.991958 -0.034338 0.000000 0.000000 1.000000 1.000000
v 0.355162 5.952384 0.000120 0.000000 0.000000 1.000000 1.000000
v 0.440405 6.098491 -0.035159 0.000000 0.000000 1.000000 1.000000
v 0.443728 6.081650 -0.000001 0.000000 0.000000 1.000000 1.000000
v 0.488820 6.055356 -0.000113 0.000000 0.000000 1.000000 1.000000
v 0.485894 6.404590 -0.037527 0.000000 0.000000 1.000000 1.000000
v 0.529129 6.453364 -0.000003 0.000000 0.000000 1.000000 1.000000
v 0.588905 6.370309 -0.043403 0.000000 0.000000 1.000000 1.000000
v 0.614287 6.767175 -0.039458 0.000000 0.000000 1.000000 1.000000
v 0.607760 6.776627 -0.000001 0.000000 0.000000 1.000000 1.000000
v 0.599163 6.855405 0.002169 0.000000 0.000000 1.000000 1.000000
v 0.512968 6.058901 -0.041341 0.000000 0.000000 1.000000 1.000000
v 0.613966 6.838239 -0.046583 0.000000 0.000000 1.000000 1.000000
v 0.607807 6.853122 0.000007 0.000000 0.000000 1.000000 1.000000
v 0.809442 6.380508 0.000132 0.000000 0.000000 1.000000 1.000000
v 0.639673 6.596000 -0.046535 0.000000 0.000000 1.000000 1.000000
v 0.731316 6.336504 -0.052219 0.000000 0.000000 1.000000 1.000000
v 0.743227 6.598101 -0.053761 0.000000 0.000000 1.000000 1.000000
v 0.787737 6.246223 -0.056650 0.000000 0.000000 1.000000 1.000000
v 0.733372 6.107821 -0.000001 0.000000 0.000000 1.000000 1.000000
v 0.655026 5.968707 -0.046412 0.000000 0.000000 1.000000 1.000000
v 0.479059 5.742734 0.000004 0.000000 0.000000 1.000000 1.000000
v 0.458906 5.808945 -0.044317 0.000000 0.000000 1.000000 1.000000
v 0.434914 5.752095 0.000668 0.000000 0.000000 1.000000 1.000000
v 0.056366 5.341218 0.344590 0.000000 0.000000 1.000000 1.000000
v 0.168248 5.447604 0.180076 0.000000 0.000000 1.000000 1.000000
v 0.279566 5.343288 0.221090 0.000000 0.000000 1.000000 1.000000
v -0.108068 5.350762 0.353591 0.000000 0.000000 1.000000 1.000000
v 0.379598 5.343772 -0.009081 0.000000 0.000000 1.000000 1.000000
v 0.003458 5.418578 0.241578 0.000000 0.000000 1.000000 1.000000
v 0.222649 5.422571 0.072344 0.000000 0.000000 1.000000 1.000000
v -0.173716 5.435276 0.170843 0.000000 0.000000 1.000000 1.000000
v 0.233965 5.422535 -0.037138 0.000000 0.000000 1.000000 1.000000
v -0.270790 5.344927 0.227864 0.000000 0.000000 1.000000 1.000000
v 0.175842 5.439633 -0.166246 0.000000 0.000000 1.000000 1.000000
v -0.375135 5.349269 0.021793 0.000000 0.000000 1.000000 1.000000
v 0.257209 5.352013 -0.249950 0.000000 0.000000 1.000000 1.000000
v -0.234180 5.422968 0.036244 0.000000 0.000000 1.000000 1.000000
v -0.218157 5.438137 -0.104108 0.000000 0.000000 1.000000 1.000000
v -0.279818 5.345089 -0.211132 0.000000 0.000000 1.000000 1.000000
v -0.042883 5.395076 -0.338670 0.000000 0.000000 1.000000 1.000000
v 0.010319 5.423994 -0.241969 0.000000 0.000000 1.000000 1.000000
v -0.137603 5.422571 -0.189395 0.000000 0.000000 1.000000 1.000000
v -0.157256 5.346242 -0.321508 0.000000 0.000000 1.000000 1.000000
v -0.112283 5.659774 -0.114268 0.000000 0.000000 1.000000 1.000000
v -0.172312 5.666506 -0.013656 0.000000 0.000000 1.000000 1.000000
v -0.148947 5.606106 -0.132512 0.000000 0.000000 1.000000 1.000000
v -0.003596 5.661492 -0.169770 0.000000 0.000000 1.000000 1.000000
v -0.186283 5.606099 0.012184 0.000000 0.000000 1.000000 1.000000
v -0.128429 5.675373 0.130014 0.000000 0.000000 1.000000 1.000000
v 0.040544 5.609973 -0.200641 0.000000 0.000000 1.000000 1.000000
v -0.061331 5.617662 0.192647 0.000000 0.000000 1.000000 1.000000
v 0.018159 5.662809 0.162998 0.000000 0.000000 1.000000 1.000000
v 0.162839 5.643514 -0.117423 0.000000 0.000000 1.000000 1.000000
v 0.127972 5.657834 -0.100159 0.000000 0.000000 1.000000 1.000000
v 0.191285 5.608438 -0.032873 0.000000 0.000000 1.000000 1.000000
v 0.158013 5.658977 0.000650 0.000000 0.000000 1.000000 1.000000
v 0.163155 5.643002 0.127250 0.000000 0.000000 1.000000 1.000000
v 0.149826 5.604531 0.113872 0.000000 0.000000 1.000000 1.000000
v 0.125946 5.658293 0.103344 0.000000 0.000000 1.000000 1.000000
v -0.294912 5.273573 0.011895 0.000000 0.000000 1.000000 1.000000
v -0.188873 5.273345 -0.229774 0.000000 0.000000 1.000000 1.000000
v -0.141938 5.641006 -0.143953 0.000000 0.000000 1.000000 1.000000
v 0.030115 5.273943 -0.289939 0.000000 0.000000 1.000000 1.000000
v -0.168423 5.652535 0.088990 0.000000 0.000000 1.000000 1.000000
v -0.166168 5.273596 0.249923 0.000000 0.000000 1.000000 1.000000
v 0.056771 5.645977 -0.177603 0.000000 0.000000 1.000000 1.000000
v 0.168397 5.273958 -0.231779 0.000000 0.000000 1.000000 1.000000
v -0.031475 5.741648 0.015931 0.000000 0.000000 1.000000 1.000000
v -0.029027 5.742715 -0.020387 0.000000 0.000000 1.000000 1.000000
v 0.001245 5.744311 0.032677 0.000000 0.000000 1.000000 1.000000
v 0.001806 5.740917 -0.034848 0.000000 0.000000 1.000000 1.000000
v 0.034918 5.749032 0.026942 0.000000 0.000000 1.000000 1.000000
v 0.035208 5.746696 -0.014947 0.000000 0.000000 1.000000 1.000000
v -0.019906 5.632955 0.185449 0.000000 0.000000 1.000000 1.000000
v 0.103183 5.273573 0.276713 0.000000 0.000000 1.000000 1.000000
v 0.189221 5.641443 -0.047873 0.000000 0.000000 1.000000 1.000000
v 0.283690 5.273564 -0.081367 0.000000 0.000000 1.000000 1.000000
v 0.263290 5.274090 0.123576 0.000000 0.000000 1.000000 1.000000
v 0.137623 5.633301 0.128019 0.000000 0.000000 1.000000 1.000000
vt 0.077820 0.488770
vt 0.075134 0.480469
vt 0.071045 0.488770
vt 0.072510 0.437988
vt 0.079285 0.440918
vt 0.072754 0.442383
vt 0.075317 0.445801
vt 0.929199 0.188477
vt 0.933105 0.188477
vt 0.924316 0.284668
vt 0.922363 0.285156
vt 0.925293 0.187988
vt 0.920898 0.282715
vt 0.920898 0.187500
vt 0.919434 0.284180
vt 0.916504 0.187500
vt 0.912109 0.187988
vt 0.916992 0.284668
vt 0.907715 0.188477
vt 0.838867 0.423340
vt 0.873535 0.432617
vt 0.838867 0.425781
vt 0.878906 0.435059
vt 0.876953 0.440430
vt 0.876465 0.409180
vt 0.838867 0.418457
vt 0.873047 0.410156
vt 0.876465 0.401855
vt 0.879395 0.397949
vt 0.863281 0.394531
vt 0.864258 0.390625
vt 0.860352 0.389648
vt 0.878906 0.382324
vt 0.874512 0.382324
vt 0.877441 0.379395
vt 0.868652 0.362305
vt 0.860840 0.363281
vt 0.862305 0.356445
vt 0.884277 0.355469
vt 0.879395 0.350098
vt 0.879883 0.345703
vt 0.894043 0.390625
vt 0.888184 0.344238
vt 0.869141 0.314453
vt 0.860840 0.309570
vt 0.869141 0.303711
vt 0.897461 0.323242
vt 0.916504 0.322754
vt 0.929199 0.334473
vt 0.947266 0.335449
vt 0.932617 0.346191
vt 0.960449 0.359863
vt 0.980469 0.385742
vt 0.985840 0.385742
vt 0.982910 0.389648
vt 0.954590 0.371094
vt 0.925293 0.362305
vt 0.973145 0.383789
vt 0.973145 0.389648
vt 0.925781 0.378418
vt 0.922363 0.374512
vt 0.901367 0.391602
vt 0.905273 0.408203
vt 0.913574 0.420898
vt 0.916016 0.420410
vt 0.905273 0.433105
vt 0.895996 0.452148
vt 0.900879 0.448730
vt 0.917480 0.459961
vt 0.879395 0.444824
vt 0.863281 0.448242
vt 0.864258 0.452148
vt 0.860352 0.453125
vt 0.879883 0.460449
vt 0.874512 0.459961
vt 0.876465 0.462402
vt 0.864746 0.478027
vt 0.868164 0.481445
vt 0.862793 0.485840
vt 0.884766 0.487305
vt 0.879883 0.492188
vt 0.880371 0.497070
vt 0.888672 0.498535
vt 0.869629 0.527832
vt 0.861816 0.532959
vt 0.870117 0.538574
vt 0.897949 0.519287
vt 0.916992 0.519287
vt 0.929688 0.507324
vt 0.947754 0.506348
vt 0.933105 0.495605
vt 0.960938 0.481934
vt 0.980957 0.456055
vt 0.986328 0.456055
vt 0.982910 0.452637
vt 0.955078 0.470703
vt 0.925781 0.479980
vt 0.973145 0.458008
vt 0.973145 0.452148
vt 0.931152 0.462402
vt 0.922363 0.467285
vt 0.832031 0.699219
vt 0.832520 0.696289
vt 0.866699 0.705811
vt 0.871582 0.709229
vt 0.869629 0.715332
vt 0.872559 0.719238
vt 0.857422 0.724365
vt 0.856445 0.728271
vt 0.894043 0.707520
vt 0.873047 0.735352
vt 0.868164 0.735352
vt 0.871094 0.739502
vt 0.890625 0.729004
vt 0.866211 0.758179
vt 0.858398 0.759644
vt 0.861328 0.763672
vt 0.882812 0.763306
vt 0.877441 0.769775
vt 0.878418 0.776855
vt 0.895996 0.724365
vt 0.921875 0.734863
vt 0.887207 0.775757
vt 0.918457 0.739258
vt 0.922852 0.751343
vt 0.968262 0.726318
vt 0.968262 0.721680
vt 0.976074 0.721924
vt 0.951172 0.739990
vt 0.974609 0.724609
vt 0.979492 0.722900
vt 0.948730 0.774414
vt 0.932129 0.765869
vt 0.958496 0.750000
vt 0.930664 0.777710
vt 0.920898 0.791260
vt 0.902344 0.794434
vt 0.881836 0.819092
vt 0.878418 0.809448
vt 0.875000 0.817627
vt 0.870117 0.682129
vt 0.832031 0.691650
vt 0.866699 0.683350
vt 0.870117 0.674316
vt 0.873535 0.670166
vt 0.858887 0.665527
vt 0.856934 0.661865
vt 0.888672 0.667725
vt 0.909180 0.696045
vt 0.897949 0.683350
vt 0.895020 0.667480
vt 0.913574 0.657471
vt 0.875000 0.653564
vt 0.868652 0.654053
vt 0.871582 0.650879
vt 0.862793 0.632812
vt 0.867188 0.630615
vt 0.861816 0.626465
vt 0.883789 0.626709
vt 0.877930 0.620117
vt 0.879883 0.613525
vt 0.919922 0.650635
vt 0.929199 0.657471
vt 0.924316 0.638428
vt 0.971680 0.660889
vt 0.973145 0.665039
vt 0.980957 0.663818
vt 0.888184 0.614746
vt 0.978027 0.661377
vt 0.982910 0.661621
vt 0.948242 0.613770
vt 0.953125 0.648438
vt 0.932617 0.623291
vt 0.959473 0.637451
vt 0.930664 0.611328
vt 0.920410 0.598145
vt 0.902344 0.595215
vt 0.879395 0.571777
vt 0.877930 0.582031
vt 0.872559 0.575195
vt 0.089722 0.603027
vt 0.066895 0.620117
vt 0.054565 0.604492
vt 0.108154 0.614014
vt 0.031067 0.627441
vt 0.088257 0.621582
vt 0.054718 0.627930
vt 0.103455 0.639404
vt 0.047363 0.639404
vt 0.121094 0.637695
vt 0.046906 0.656738
vt 0.119629 0.667969
vt 0.029388 0.663086
vt 0.102783 0.657471
vt 0.093018 0.671875
vt 0.095459 0.690674
vt 0.060608 0.688721
vt 0.060364 0.674316
vt 0.079529 0.677002
vt 0.073303 0.697021
vt 0.069275 0.574707
vt 0.083435 0.575439
vt 0.067932 0.583252
vt 0.057526 0.566162
vt 0.089539 0.580566
vt 0.096375 0.562744
vt 0.046906 0.564209
vt 0.103638 0.551270
vt 0.091919 0.545410
vt 0.053894 0.544922
vt 0.057587 0.547852
vt 0.058289 0.533203
vt 0.066833 0.539307
vt 0.080444 0.531006
vt 0.080627 0.528564
vt 0.079712 0.537109
vt 0.085205 0.827271
vt 0.032990 0.813110
vt 0.057159 0.787109
vt 0.014114 0.771118
vt 0.085754 0.786743
vt 0.129639 0.793701
vt 0.052673 0.762573
vt 0.021118 0.740723
vt 0.075806 0.770752
vt 0.072083 0.770874
vt 0.077087 0.767334
vt 0.070312 0.767822
vt 0.075623 0.764160
vt 0.072144 0.764404
vt 0.097595 0.768433
vt 0.126953 0.738525
vt 0.066162 0.744629
vt 0.048828 0.713135
vt 0.090088 0.710693
vt 0.088623 0.749023
vt1 0.312744 0.984993
vt1 0.304688 0.960388
vt1 0.292236 0.985237
vt1 0.238525 0.963928
vt1 0.263916 0.975479
vt1 0.239380 0.980438
vt1 0.249023 0.993534
vt1 0.015594 0.992455
vt1 0.004646 0.993073
vt1 0.031189 0.699707
vt1 0.036987 0.699463
vt1 0.028015 0.994003
vt1 0.040680 0.705566
vt1 0.041779 0.996445
vt1 0.046112 0.701904
vt1 0.054199 0.995583
vt1 0.067566 0.995293
vt1 0.053314 0.699951
vt1 0.081360 0.992928
vt1 0.385254 0.633545
vt1 0.489258 0.605225
vt1 0.384521 0.625244
vt1 0.506348 0.596680
vt1 0.499268 0.580811
vt1 0.498779 0.676514
vt1 0.385010 0.648438
vt1 0.488770 0.673584
vt1 0.498779 0.697754
vt1 0.506836 0.710205
vt1 0.458496 0.720947
vt1 0.460938 0.732910
vt1 0.448975 0.735352
vt1 0.506348 0.757324
vt1 0.492188 0.757568
vt1 0.500977 0.766357
vt1 0.474854 0.818726
vt1 0.450684 0.815430
vt1 0.455811 0.836060
vt1 0.522461 0.840088
vt1 0.507812 0.855225
vt1 0.509277 0.869263
vt1 0.551270 0.732910
vt1 0.534180 0.874390
vt1 0.476318 0.963745
vt1 0.451904 0.979218
vt1 0.477051 0.996630
vt1 0.562012 0.938293
vt1 0.619141 0.938873
vt1 0.657715 0.903076
vt1 0.712402 0.900208
vt1 0.668945 0.867065
vt1 0.753418 0.825928
vt1 0.813965 0.747803
vt1 0.830566 0.747803
vt1 0.821289 0.736328
vt1 0.734863 0.792114
vt1 0.646973 0.819214
vt1 0.791504 0.753540
vt1 0.791016 0.735352
vt1 0.647461 0.769653
vt1 0.637207 0.780884
vt1 0.574707 0.729248
vt1 0.584961 0.678467
vt1 0.611328 0.639893
vt1 0.619141 0.642090
vt1 0.585938 0.603760
vt1 0.557617 0.545898
vt1 0.573242 0.555664
vt1 0.622559 0.521484
vt1 0.507324 0.568115
vt1 0.458984 0.557617
vt1 0.461426 0.545654
vt1 0.450195 0.542969
vt1 0.509277 0.520020
vt1 0.492920 0.520996
vt1 0.499023 0.514160
vt1 0.462891 0.466797
vt1 0.473633 0.456055
vt1 0.457275 0.442383
vt1 0.523438 0.438965
vt1 0.509277 0.423340
vt1 0.510742 0.408691
vt1 0.535645 0.404297
vt1 0.478516 0.314941
vt1 0.454102 0.299316
vt1 0.479492 0.281738
vt1 0.563965 0.340820
vt1 0.621094 0.340820
vt1 0.659668 0.376953
vt1 0.714355 0.379883
vt1 0.670410 0.412598
vt1 0.754395 0.454590
vt1 0.815430 0.533447
vt1 0.831543 0.533203
vt1 0.821289 0.543701
vt1 0.736328 0.488281
vt1 0.647949 0.460449
vt1 0.791992 0.526855
vt1 0.791504 0.545166
vt1 0.664551 0.514404
vt1 0.638184 0.498535
vt1 0.004021 0.631104
vt1 0.004509 0.622314
vt1 0.108704 0.650879
vt1 0.123840 0.661865
vt1 0.117737 0.679932
vt1 0.127075 0.692383
vt1 0.080322 0.707275
vt1 0.077393 0.719482
vt1 0.192505 0.656006
vt1 0.127319 0.741211
vt1 0.113525 0.741455
vt1 0.122620 0.753784
vt1 0.181274 0.721680
vt1 0.107483 0.810669
vt1 0.083923 0.815308
vt1 0.092651 0.827637
vt1 0.157959 0.826416
vt1 0.141113 0.846069
vt1 0.144775 0.867920
vt1 0.197632 0.707520
vt1 0.275635 0.739746
vt1 0.171753 0.864380
vt1 0.265381 0.753296
vt1 0.279541 0.789917
vt1 0.416748 0.713379
vt1 0.417236 0.699219
vt1 0.441406 0.699951
vt1 0.364990 0.755127
vt1 0.436768 0.708008
vt1 0.451172 0.703125
vt1 0.357666 0.860352
vt1 0.307373 0.834106
vt1 0.387695 0.785767
vt1 0.302490 0.870605
vt1 0.272949 0.911621
vt1 0.217285 0.921448
vt1 0.154297 0.996588
vt1 0.144653 0.967133
vt1 0.133789 0.991928
vt1 0.118958 0.579102
vt1 0.004139 0.607666
vt1 0.108643 0.582520
vt1 0.119568 0.554932
vt1 0.129150 0.542725
vt1 0.084900 0.528320
vt1 0.079590 0.516846
vt1 0.175659 0.535156
vt1 0.238281 0.621094
vt1 0.204102 0.583008
vt1 0.195312 0.534668
vt1 0.251709 0.504150
vt1 0.133423 0.491699
vt1 0.115356 0.493652
vt1 0.123169 0.483887
vt1 0.097046 0.429199
vt1 0.109802 0.421875
vt1 0.094238 0.409668
vt1 0.161011 0.409668
vt1 0.143555 0.390137
vt1 0.149292 0.370117
vt1 0.270752 0.483398
vt1 0.299072 0.503662
vt1 0.283936 0.445801
vt1 0.428467 0.514160
vt1 0.432373 0.526611
vt1 0.455566 0.523438
vt1 0.174194 0.374023
vt1 0.446533 0.515381
vt1 0.461914 0.516113
vt1 0.356201 0.370605
vt1 0.371582 0.476074
vt1 0.309570 0.399902
vt1 0.391113 0.442871
vt1 0.303223 0.363281
vt1 0.271973 0.322754
vt1 0.216675 0.314453
vt1 0.147339 0.242676
vt1 0.142334 0.274414
vt1 0.126343 0.252930
vt1 0.379150 0.036133
vt1 0.309814 0.087891
vt1 0.272461 0.040039
vt1 0.434814 0.068848
vt1 0.201416 0.109863
vt1 0.374512 0.092285
vt1 0.272949 0.111328
vt1 0.420654 0.145996
vt1 0.250732 0.145996
vt1 0.474121 0.140625
vt1 0.249390 0.198242
vt1 0.469727 0.232422
vt1 0.196289 0.218262
vt1 0.418457 0.201172
vt1 0.388916 0.244141
vt1 0.396484 0.300781
vt1 0.290771 0.294922
vt1 0.290039 0.251953
vt1 0.348145 0.259766
vt1 0.329346 0.320312
vt1 0.829590 0.969376
vt1 0.872559 0.971237
vt1 0.825684 0.995285
vt1 0.793945 0.943237
vt1 0.891113 0.987221
vt1 0.912109 0.932495
vt1 0.761719 0.937317
vt1 0.934082 0.898010
vt1 0.898438 0.880310
vt1 0.782715 0.878967
vt1 0.793945 0.887878
vt1 0.796387 0.843384
vt1 0.822266 0.861450
vt1 0.863770 0.836792
vt1 0.864258 0.829224
vt1 0.861328 0.854736
vt1 0.837891 0.381836
vt1 0.670898 0.336426
vt1 0.748047 0.252930
vt1 0.610352 0.201660
vt1 0.839844 0.251953
vt1 0.979980 0.273926
vt1 0.733887 0.174316
vt1 0.632812 0.104004
vt1 0.808105 0.200684
vt1 0.795898 0.200684
vt1 0.812012 0.189453
vt1 0.790527 0.190918
vt1 0.807129 0.179688
vt1 0.795898 0.180176
vt1 0.877441 0.192871
vt1 0.971680 0.096680
vt1 0.776855 0.116699
vt1 0.721680 0.016113
vt1 0.853516 0.007324
vt1 0.849121 0.130859
vn -0.228346 0.921260 -0.307087
vn -0.307087 0.551181 0.779527
vn 0.629921 0.582677 -0.511811
vn 0.212598 -0.275590 0.937008
vn -0.637795 -0.322835 -0.700787
vn 0.976378 -0.204724 -0.031496
vn 0.307087 -0.622047 -0.716535
vn 0.811024 0.023622 0.582677
vn 0.070866 0.031496 1.000000
vn 0.362205 0.031496 0.929134
vn 1.000000 0.031496 -0.000000
vn 0.913386 0.031496 -0.401575
vn 0.464567 0.031496 -0.881890
vn 0.086614 0.031496 -0.992126
vn -0.881890 0.031496 -0.472441
vn -0.826772 0.031496 -0.559055
vn -0.858268 0.031496 0.511811
vn -0.314961 0.031496 0.944882
vn -0.133858 0.031496 0.992126
vn 0.086614 -0.015748 1.000000
vn 0.944882 -0.314961 -0.007874
vn 0.952756 -0.086614 -0.283465
vn 0.000000 -0.047244 1.000000
vn -0.874016 -0.488189 0.023622
vn -0.110236 -0.070866 0.992126
vn -0.322835 -0.055118 0.944882
vn -0.937008 -0.346457 -0.062992
vn 0.874016 -0.488189 0.000000
vn 0.125984 0.007874 0.992126
vn 1.000000 -0.062992 0.007874
vn -0.236220 -0.401575 0.881890
vn -0.716535 -0.692913 -0.078740
vn 0.070866 -0.070866 0.992126
vn -0.842520 -0.535433 0.000000
vn 0.850394 -0.511811 0.102362
vn 0.181102 -0.118110 0.976378
vn 0.992126 -0.110236 -0.015748
vn -0.708661 -0.700787 0.047244
vn -0.055118 -0.078740 0.992126
vn -0.771654 -0.637795 0.000000
vn 1.000000 -0.070866 -0.023622
vn 0.070866 0.062992 0.992126
vn 0.181102 0.023622 0.984252
vn 0.259843 -0.031496 0.960630
vn 0.984252 0.173228 -0.007874
vn -0.708661 -0.700787 -0.007874
vn -0.346457 -0.267716 0.897638
vn -0.874016 -0.480315 0.000000
vn -0.622047 -0.133858 0.771653
vn -0.992126 0.149606 -0.000000
vn 0.102362 0.015748 0.992126
vn -0.543307 0.220472 0.811023
vn -0.582677 0.425197 0.692913
vn -0.834646 0.543307 -0.062992
vn 0.992126 0.007874 -0.149606
vn 0.062992 0.000000 1.000000
vn 0.062992 0.007874 1.000000
vn 0.629921 0.078740 0.771653
vn 1.000000 0.000000 0.000000
vn 0.755906 0.653543 0.031496
vn 0.244094 0.220473 0.944882
vn -0.062992 1.000000 -0.031496
vn -0.637795 0.740157 -0.220472
vn 0.000000 0.094488 0.992126
vn -0.031496 0.968504 -0.244095
vn 0.645669 0.763779 -0.039370
vn -0.070866 0.094488 0.992126
vn 0.110236 0.992126 0.078740
vn -0.440945 0.897638 -0.007874
vn -0.141732 0.015748 0.992126
vn -1.000000 -0.086614 -0.007874
vn 0.236220 -0.401575 0.881890
vn 0.685039 -0.724409 -0.070866
vn -0.102362 -0.086614 0.992126
vn 0.842520 -0.535433 0.000000
vn -0.661417 -0.740157 0.078740
vn -0.984252 -0.157480 -0.039370
vn -0.165354 -0.196850 0.968504
vn 0.708661 -0.700787 0.047244
vn 0.055118 -0.086614 0.992126
vn 0.771654 -0.637795 0.000000
vn -1.000000 -0.070866 -0.023622
vn -0.173228 0.023622 0.984252
vn -0.259843 -0.031496 0.968504
vn -0.984252 0.173228 -0.007874
vn 0.708661 -0.700787 -0.007874
vn 0.346457 -0.267716 0.897638
vn 0.874016 -0.480315 0.000000
vn 0.622047 -0.133858 0.771653
vn 0.992126 0.149606 -0.000000
vn -0.102362 0.015748 0.992126
vn 0.543307 0.220472 0.811023
vn 0.598425 0.433071 0.677165
vn 0.834646 0.543307 -0.062992
vn -0.992126 0.015748 -0.125984
vn -0.062992 0.000000 1.000000
vn -0.062992 0.007874 1.000000
vn -0.629921 0.078740 0.771653
vn -1.000000 0.000000 0.000000
vn -0.874016 0.496063 -0.015748
vn -0.251969 0.220473 0.944882
vn -0.952756 -0.086614 0.283465
vn -0.086614 -0.015748 -1.000000
vn -0.944882 -0.314961 0.007874
vn -0.039370 -0.070866 -1.000000
vn 0.874016 -0.488189 -0.023622
vn 0.133858 0.015748 -0.992126
vn 1.000000 -0.086614 0.007874
vn -0.401575 -0.598425 -0.692913
vn -0.023622 0.086614 -1.000000
vn 0.070866 -0.086614 -0.992126
vn -0.842520 -0.535433 0.000000
vn 0.842520 -0.527559 -0.086614
vn 0.070866 0.078740 -0.992126
vn 0.188976 -0.118110 -0.976378
vn 0.992126 -0.110236 0.015748
vn -0.708661 -0.700787 -0.047244
vn 0.007874 -0.039370 -1.000000
vn -0.771654 -0.637795 0.000000
vn 1.000000 -0.078740 0.023622
vn -0.070866 1.000000 0.047244
vn 0.755906 0.653543 -0.039370
vn 0.228346 0.023622 -0.976378
vn 0.251969 0.220472 -0.944882
vn 0.062992 0.007874 -1.000000
vn 0.629921 0.078740 -0.771653
vn 1.000000 0.000000 0.000000
vn 0.992126 0.015748 0.125984
vn 0.062992 -0.000000 -1.000000
vn -0.598425 0.433071 -0.677165
vn -0.834646 0.543307 0.062992
vn -0.992126 0.149606 -0.000000
vn 0.102362 0.015748 -0.992126
vn -0.543307 0.220472 -0.811023
vn -0.622047 -0.133858 -0.771653
vn -0.874016 -0.480315 0.000000
vn -0.346457 -0.267717 -0.897638
vn -0.708661 -0.700787 0.007874
vn 0.259843 -0.039370 -0.960630
vn 0.984252 0.181102 -0.015748
vn 0.110236 -0.070866 -0.992126
vn 0.322835 -0.055118 -0.944882
vn 0.937008 -0.346457 0.062992
vn -0.874016 -0.488189 0.000000
vn -0.125984 -0.000000 -0.992126
vn -1.000000 -0.062992 -0.007874
vn 0.377953 -0.590551 -0.716535
vn -0.070866 0.086614 -0.992126
vn -0.007874 0.149606 -0.992126
vn 0.645669 0.763779 0.023622
vn 0.110236 0.992126 -0.086614
vn -0.440945 0.897638 0.007874
vn -0.110236 -0.086614 -0.992126
vn 0.842520 -0.535433 0.000000
vn -0.661417 -0.748031 -0.078740
vn -0.984252 -0.165354 0.039370
vn -0.157480 -0.196850 -0.968504
vn 0.708661 -0.700787 -0.047244
vn -0.007874 -0.039370 -1.000000
vn 0.771654 -0.637795 0.000000
vn -1.000000 -0.070866 0.023622
vn -0.244094 0.220472 -0.944882
vn -0.874016 0.496063 0.015748
vn -0.062992 0.007874 -1.000000
vn -0.629921 0.078740 -0.771653
vn -1.000000 0.000000 0.000000
vn -0.992126 0.007874 0.149606
vn -0.228346 0.023622 -0.976378
vn 0.582677 0.425197 -0.692913
vn 0.834646 0.543307 0.062992
vn 0.992126 0.149606 -0.000000
vn -0.062992 -0.000000 -1.000000
vn -0.102362 0.015748 -0.992126
vn 0.543307 0.220472 -0.811023
vn 0.622047 -0.133858 -0.771653
vn 0.874016 -0.480315 0.000000
vn 0.346457 -0.267717 -0.897638
vn 0.708661 -0.700787 0.007874
vn -0.259843 -0.039370 -0.960630
vn -0.984252 0.181102 -0.015748
vn 0.133858 0.440945 0.889764
vn 0.173228 0.976378 0.149606
vn 0.708661 0.433071 0.551181
vn -0.244094 0.456693 0.850394
vn 0.889764 0.448819 -0.023622
vn 0.007874 0.992126 0.141732
vn 0.133858 0.992126 0.047244
vn -0.125984 0.984252 0.110236
vn 0.157480 0.984252 -0.007874
vn -0.700787 0.401575 0.590551
vn 0.110236 0.992126 -0.094488
vn -0.897638 0.433071 0.047244
vn 0.645669 0.409449 -0.645669
vn -0.133858 0.992126 0.031496
vn -0.133858 0.992126 -0.039370
vn -0.724409 0.417323 -0.551181
vn -0.086614 0.692913 -0.716535
vn 0.007874 0.992126 -0.133858
vn -0.094488 0.984252 -0.125984
vn -0.370079 0.456693 -0.811024
vn -0.110236 0.992126 -0.039370
vn -0.456693 0.889764 -0.047244
vn -0.677165 -0.299213 -0.669291
vn 0.055118 0.921260 -0.393701
vn -0.889764 -0.448819 0.055118
vn -0.338583 0.874016 0.346457
vn 0.181102 -0.409449 -0.897638
vn -0.291339 -0.322834 0.897638
vn 0.015748 0.968504 0.259842
vn 0.677165 0.511811 -0.535433
vn 0.157480 0.984252 -0.047244
vn 0.881890 -0.448819 -0.157480
vn 0.118110 0.992126 -0.007874
vn 0.724409 0.409449 0.559055
vn 0.692913 -0.488189 0.535433
vn 0.086614 0.992126 0.078740
vn -0.960630 0.275591 0.047244
vn -0.614173 0.267716 -0.740157
vn -0.669291 0.307086 -0.677165
vn 0.110236 0.275590 -0.952756
vn -0.818898 0.370079 0.433071
vn -0.527559 0.267717 0.803149
vn 0.275591 0.370079 -0.889764
vn 0.566929 0.283464 -0.779527
vn -0.251969 0.960630 0.110236
vn -0.181102 0.968504 -0.157480
vn 0.023622 0.968504 0.251968
vn 0.031496 0.960630 -0.283465
vn 0.141732 0.984252 0.125984
vn 0.220472 0.976378 -0.078740
vn -0.102362 0.291339 0.952756
vn 0.346457 0.275591 0.897638
vn 0.913386 0.330709 -0.244095
vn 0.929134 0.275590 -0.259843
vn 0.858268 0.275591 0.425197
vn 0.700787 0.291339 0.653543
tan -0.060450 0.294501 0.928452 1.000000
tan 0.184450 -0.765763 0.614111 1.000000
tan -0.095914 0.693161 0.671089 1.000000
tan -0.526877 -0.771343 -0.107322 1.000000
tan -0.710521 0.085312 0.607353 1.000000
tan 0.139128 0.538657 0.811705 1.000000
tan 0.009796 0.721371 -0.622047 1.000000
tan 0.264555 -0.752743 -0.337715 1.000000
tan 0.007874 -1.000000 0.030938 1.000000
tan 0.526753 -0.760865 -0.179552 1.000000
tan 0.031496 -1.000000 -0.031496 1.000000
tan -0.000124 -0.916548 -0.072168 1.000000
tan -0.073656 -0.915184 -0.071486 1.000000
tan -0.015624 -0.992126 -0.032860 1.000000
tan 0.013888 -0.946618 -0.089032 1.000000
tan 0.061690 -0.882076 -0.140926 1.000000
tan -0.155186 -0.884928 -0.205778 1.000000
tan -0.387377 -0.868002 -0.100192 1.000000
tan -0.109368 -0.984314 0.016492 1.000000
tan -1.000000 0.023622 0.086986 1.000000
tan -0.149420 -0.468783 0.820882 1.000000
tan 0.268957 -0.135036 0.945254 1.000000
tan -0.992126 0.102362 0.004836 1.000000
tan -0.469093 0.825655 -0.292889 1.000000
tan -0.968690 -0.226548 -0.123814 1.000000
tan -0.944882 -0.037200 -0.325005 1.000000
tan -0.159960 0.568603 -0.747907 1.000000
tan -0.465125 -0.832723 0.279125 1.000000
tan -0.976502 -0.171864 0.125364 1.000000
tan -0.038564 -0.503937 0.866142 1.000000
tan -0.766384 -0.445781 -0.408271 1.000000
tan -0.694773 0.717155 0.011470 1.000000
tan -0.882758 -0.453097 0.030690 1.000000
tan -0.396305 0.623597 -0.639159 1.000000
tan -0.519871 -0.833530 0.151280 1.000000
tan -0.930250 -0.307521 0.135346 1.000000
tan -0.082212 -0.820261 0.562465 1.000000
tan -0.672639 0.659185 -0.311675 1.000000
tan -0.828074 -0.546841 -0.089404 1.000000
tan -0.487135 0.589373 -0.637299 1.000000
tan -0.065286 -0.984252 0.188976 1.000000
tan -0.945254 -0.312481 0.087358 1.000000
tan -0.635501 -0.751751 0.134974 1.000000
tan -0.718581 -0.642941 0.173290 1.000000
tan 0.172980 -0.984252 -0.031000 1.000000
tan 0.631285 -0.633455 -0.438155 1.000000
tan -0.643189 -0.629053 -0.435861 1.000000
tan 0.226920 -0.412921 -0.785913 1.000000
tan -0.762415 -0.117986 -0.635067 1.000000
tan -0.093062 -0.617149 -0.781201 1.000000
tan -0.828074 -0.546841 0.094116 1.000000
tan -0.816232 -0.070308 -0.527683 1.000000
tan -0.788642 -0.205344 -0.537169 1.000000
tan -0.543307 -0.835142 -0.004278 1.000000
tan 0.100502 0.695269 0.703081 1.000000
tan -0.897638 -0.440945 0.056544 1.000000
tan -0.803150 -0.598425 0.055304 1.000000
tan -0.771034 -0.029264 0.632401 1.000000
tan 0.000000 -0.173228 0.984252 1.000000
tan -0.013082 -0.031496 0.967512 1.000000
tan -0.714241 -0.617521 0.328601 1.000000
tan -0.921260 -0.045632 0.393701 1.000000
tan -0.751689 -0.646661 0.003596 1.000000
tan -0.992126 0.054684 -0.005208 1.000000
tan -0.972348 -0.031496 0.000496 1.000000
tan -0.750821 0.642011 0.141546 1.000000
tan -0.914006 0.390601 -0.102486 1.000000
tan -0.929630 0.130572 -0.343729 1.000000
tan -0.494637 -0.249613 -0.756153 1.000000
tan -0.976502 0.171864 -0.142228 1.000000
tan -0.039742 0.535433 -0.842520 1.000000
tan -0.759440 0.459669 0.412735 1.000000
tan -0.726641 -0.686713 -0.004464 1.000000
tan -0.874946 0.460909 -0.050034 1.000000
tan -0.392089 -0.616963 0.645793 1.000000
tan -0.734329 0.667369 0.104904 1.000000
tan -0.102920 0.790501 -0.589001 1.000000
tan -0.907496 0.327919 -0.088288 1.000000
tan -0.667493 -0.653605 0.317255 1.000000
tan -0.820262 0.554653 0.093992 1.000000
tan -0.482113 -0.583297 0.643375 1.000000
tan -0.065286 0.984252 -0.188976 1.000000
tan -0.627751 0.759501 -0.128712 1.000000
tan -0.716845 0.655837 -0.170996 1.000000
tan 0.172980 0.984252 0.031000 1.000000
tan 0.631223 0.633517 0.427057 1.000000
tan -0.636121 0.629053 0.433133 1.000000
tan 0.234484 0.426685 0.779031 1.000000
tan -0.762415 0.117986 0.635067 1.000000
tan -0.094240 0.624961 0.773389 1.000000
tan -0.828074 0.554653 -0.094240 1.000000
tan -0.816232 0.070308 0.527683 1.000000
tan -0.784550 0.228657 0.547089 1.000000
tan -0.543803 0.835142 -0.002294 1.000000
tan 0.081592 -0.671833 -0.726517 1.000000
tan -0.889764 0.448819 -0.056048 1.000000
tan -0.795276 0.598425 -0.054808 1.000000
tan -0.771034 0.035340 -0.633021 1.000000
tan 0.000000 0.181102 -0.984252 1.000000
tan 0.155744 0.247132 -0.859136 1.000000
tan -0.714241 0.617521 -0.334553 1.000000
tan -0.271685 -0.105028 -0.945254 1.000000
tan 1.000000 0.039370 -0.087234 1.000000
tan 0.164486 -0.513423 -0.798561 1.000000
tan 0.984252 0.188976 -0.052142 1.000000
tan 0.475293 0.839420 0.237832 1.000000
tan 0.976502 0.179676 0.134602 1.000000
tan 0.055056 0.700787 0.716535 1.000000
tan 0.627193 0.368591 -0.681815 1.000000
tan 1.000000 0.062992 -0.018166 1.000000
tan 0.828074 0.539029 0.012090 1.000000
tan 0.472193 -0.743010 -0.454647 1.000000
tan 0.532271 0.838614 0.069626 1.000000
tan 0.812450 0.578089 0.103912 1.000000
tan 0.868746 0.453593 0.113274 1.000000
tan 0.109492 0.992126 0.046872 1.000000
tan 0.652799 -0.634261 -0.383781 1.000000
tan 0.771654 0.637795 -0.019034 1.000000
tan 0.532333 -0.644057 -0.540331 1.000000
tan 0.078740 1.000000 -0.000000 1.000000
tan 0.889764 0.041106 0.464567 1.000000
tan -0.288673 0.385455 0.856036 1.000000
tan 0.391903 0.893608 0.113274 1.000000
tan 0.662161 0.669601 0.332817 1.000000
tan 0.700787 0.708661 0.049724 1.000000
tan 0.771654 0.030380 0.633021 1.000000
tan 0.000000 0.196850 0.976378 1.000000
tan -0.098704 -0.531217 0.843698 1.000000
tan 0.858268 0.519685 0.054064 1.000000
tan 0.779404 0.403125 -0.430963 1.000000
tan 0.545663 0.821502 0.144584 1.000000
tan 0.104842 0.695269 -0.710893 1.000000
tan 0.742141 0.656209 0.086986 1.000000
tan 0.811582 0.100130 -0.516461 1.000000
tan 0.755286 0.147188 -0.634385 1.000000
tan -0.332817 0.605617 -0.648273 1.000000
tan 0.586645 0.678529 -0.428793 1.000000
tan -0.690495 0.696261 -0.177320 1.000000
tan -0.189100 0.937938 -0.089590 1.000000
tan -0.154752 0.790501 -0.581251 1.000000
tan 0.960878 -0.242172 0.124062 1.000000
tan 0.944882 -0.029760 0.324571 1.000000
tan 0.169632 0.590737 0.725773 1.000000
tan 0.476657 -0.853370 -0.189658 1.000000
tan 0.960878 -0.234360 -0.122016 1.000000
tan 0.042656 -0.574803 -0.818897 1.000000
tan 0.739227 -0.271188 0.613429 1.000000
tan 0.882758 -0.453097 -0.102610 1.000000
tan 0.726517 0.671833 0.095542 1.000000
tan 0.757022 -0.643561 0.116560 1.000000
tan 0.874946 -0.138818 -0.476533 1.000000
tan 0.374481 0.191146 -0.819766 1.000000
tan 0.757766 -0.640585 -0.028272 1.000000
tan 0.459545 0.723107 0.492033 1.000000
tan 0.739661 -0.667989 0.132742 1.000000
tan 0.147684 -0.945502 -0.279000 1.000000
tan 0.869366 -0.419431 -0.056110 1.000000
tan 0.671895 0.658813 0.306033 1.000000
tan 0.755906 -0.653543 0.019778 1.000000
tan 0.512245 0.619753 0.591853 1.000000
tan 0.071796 -1.000000 0.039370 1.000000
tan 0.677041 -0.662161 -0.329407 1.000000
tan -0.205902 -0.336599 -0.824725 1.000000
tan 0.724409 -0.685039 -0.051026 1.000000
tan 0.771654 -0.012152 -0.631161 1.000000
tan 0.000000 -0.047244 -1.000000 1.000000
tan -0.067394 0.859322 -0.492157 1.000000
tan 0.407279 -0.885920 -0.116684 1.000000
tan 0.791990 -0.231756 0.523777 1.000000
tan 0.545291 -0.835142 -0.022010 1.000000
tan 0.097774 -0.648397 0.757765 1.000000
tan 0.905512 -0.433071 -0.057040 1.000000
tan 0.773390 -0.617149 -0.089590 1.000000
tan 0.816232 -0.063922 0.529419 1.000000
tan 0.755286 -0.141112 0.633331 1.000000
tan -0.317689 -0.578089 0.668919 1.000000
tan 0.593713 -0.671461 0.429413 1.000000
tan -0.674437 -0.679087 0.260587 1.000000
tan 0.105896 -0.953066 0.010416 1.000000
tan -0.168206 -0.875752 0.441751 1.000000
tan 0.231136 -0.863848 0.393329 1.000000
tan 0.361337 -0.203112 0.907186 1.000000
tan -0.115940 -0.639221 0.651311 1.000000
tan 0.253457 -0.811209 0.508401 1.000000
tan 0.413107 -0.799615 0.367661 1.000000
tan 0.421849 -0.131688 0.898382 1.000000
tan 0.468721 -0.104904 0.874946 1.000000
tan 0.448633 -0.040548 0.874760 1.000000
tan 0.503751 -0.073842 0.844752 1.000000
tan 0.597061 -0.074710 0.759315 1.000000
tan 0.444541 0.034596 0.881890 1.000000
tan 0.422531 0.841466 0.314651 1.000000
tan 0.630417 0.132184 0.714241 1.000000
tan 0.476533 0.036518 0.874946 1.000000
tan 0.484345 0.099758 0.867134 1.000000
tan -0.018848 0.728749 0.576539 1.000000
tan 0.000000 0.716535 0.692913 1.000000
tan 0.445285 0.115568 0.882758 1.000000
tan 0.449501 0.155248 0.875752 1.000000
tan 0.057102 0.831422 0.442123 1.000000
tan 0.937442 0.117180 0.328105 1.000000
tan 0.869118 0.455205 0.171554 1.000000
tan 0.502387 0.397979 -0.686217 1.000000
tan 0.481865 0.309257 0.791121 1.000000
tan -0.396615 0.828012 0.339885 1.000000
tan 0.726269 0.048484 0.587451 1.000000
tan 0.842458 0.370451 0.000992 1.000000
tan 0.874450 -0.230764 0.200818 1.000000
tan 0.600409 -0.212350 0.755099 1.000000
tan 0.702089 -0.235352 0.662967 1.000000
tan 0.914502 -0.128464 0.372001 1.000000
tan -0.322649 -0.778969 0.413231 1.000000
tan 0.867134 -0.099386 0.484345 1.000000
tan 0.671957 -0.615909 -0.419617 1.000000
tan -0.324013 -0.821378 -0.329593 1.000000
tan 0.914006 -0.110174 0.382789 1.000000
tan 0.276025 0.907682 0.317688 1.000000
tan 0.764338 0.157976 -0.577097 1.000000
tan 0.727385 0.285820 -0.589311 1.000000
tan 0.945254 0.097526 0.137578 1.000000
tan 0.569161 0.587141 0.574493 1.000000
tan 0.805258 -0.002170 0.529667 1.000000
tan 0.890322 0.157294 0.341187 1.000000
tan 0.814124 -0.112158 0.551305 1.000000
tan 0.960630 0.245892 0.052948 1.000000
tan 0.968504 0.183582 0.015252 1.000000
tan 0.968504 -0.043462 0.076260 1.000000
tan 0.953066 0.002232 0.113460 1.000000
tan 0.843760 -0.186124 0.504867 1.000000
tan 0.976378 -0.214272 0.076880 1.000000
tan 0.952756 -0.052514 0.118420 1.000000
tan 0.878604 -0.179428 -0.284023 1.000000
tan 0.403249 -0.829003 0.385765 1.000000
tan 0.377643 -0.673073 0.636493 1.000000
tan 0.472441 -0.699361 -0.500341 1.000000
tan 0.708165 -0.325129 -0.614421 1.000000
f 3/3/3 2/2/2 1/1/1
f 6/6/6 5/5/5 4/4/4
f 7/7/7 5/5/5 6/6/6
f 10/10/10 9/9/9 8/8/8
f 10/10/10 8/8/8 11/11/11
f 11/11/11 8/8/8 12/12/12
f 11/11/11 12/12/12 13/13/13
f 13/13/13 12/12/12 14/14/14
f 13/13/13 14/14/14 15/15/15
f 15/15/15 14/14/14 16/16/16
f 15/15/15 16/16/16 17/17/17
f 15/15/15 17/17/17 18/18/18
f 18/18/18 17/17/17 19/19/19
f 22/22/22 21/21/21 20/20/20
f 20/20/20 21/21/21 23/23/23
f 21/21/21 24/24/24 23/23/23
f 25/25/25 20/20/20 23/23/23
f 26/26/26 20/20/20 25/25/25
f 27/27/27 26/26/26 25/25/25
f 27/27/27 25/25/25 28/28/28
f 28/28/28 25/25/25 29/29/29
f 25/25/25 23/23/23 29/29/29
f 28/28/28 29/29/29 30/30/30
f 30/30/30 29/29/29 31/31/31
f 32/32/32 30/30/30 31/31/31
f 32/32/32 31/31/31 33/33/33
f 33/33/33 31/31/31 29/29/29
f 32/32/32 33/33/33 34/34/34
f 34/34/34 33/33/33 35/35/35
f 35/35/35 33/33/33 36/36/36
f 35/35/35 36/36/36 37/37/37
f 37/37/37 36/36/36 38/38/38
f 38/38/38 36/36/36 39/39/39
f 39/39/39 36/36/36 33/33/33
f 38/38/38 39/39/39 40/40/40
f 40/40/40 39/39/39 41/41/41
f 29/29/29 42/42/42 33/33/33
f 39/39/39 33/33/33 42/42/42
f 23/23/23 42/42/42 29/29/29
f 41/41/41 39/39/39 43/43/43
f 39/39/39 42/42/42 43/43/43
f 41/41/41 43/43/43 44/44/44
f 45/45/45 41/41/41 44/44/44
f 45/45/45 44/44/44 46/46/46
f 46/46/46 44/44/44 47/47/47
f 44/44/44 43/43/43 47/47/47
f 46/46/46 47/47/47 48/48/48
f 48/48/48 47/47/47 49/49/49
f 48/48/48 49/49/49 50/50/50
f 51/51/51 47/47/47 43/43/43
f 49/49/49 47/47/47 51/51/51
f 52/52/52 50/50/50 49/49/49
f 51/51/51 52/52/52 49/49/49
f 53/53/53 50/50/50 52/52/52
f 54/54/54 50/50/50 53/53/53
f 54/54/54 53/53/53 55/55/55
f 51/51/51 56/56/56 52/52/52
f 53/53/53 52/52/52 56/56/56
f 43/43/43 57/57/57 51/51/51
f 51/51/51 57/57/57 56/56/56
f 43/43/43 42/42/42 57/57/57
f 56/56/56 58/58/58 53/53/53
f 53/53/53 58/58/58 55/55/55
f 57/57/57 58/58/58 56/56/56
f 59/59/59 55/55/55 58/58/58
f 60/60/60 59/59/59 58/58/58
f 61/61/61 58/58/58 57/57/57
f 61/61/61 60/60/60 58/58/58
f 57/57/57 42/42/42 61/61/61
f 42/42/42 60/60/60 61/61/61
f 62/62/62 60/60/60 42/42/42
f 63/63/63 62/62/62 42/42/42
f 64/64/64 63/63/63 42/42/42
f 65/65/65 63/63/63 64/64/64
f 42/42/42 23/23/23 64/64/64
f 65/65/65 64/64/64 66/66/66
f 66/66/66 64/64/64 67/67/67
f 23/23/23 67/67/67 64/64/64
f 66/66/66 67/67/67 68/68/68
f 68/68/68 67/67/67 69/69/69
f 70/70/70 67/67/67 23/23/23
f 23/23/23 24/24/24 70/70/70
f 24/24/24 71/71/71 70/70/70
f 72/72/72 70/70/70 71/71/71
f 71/71/71 73/73/73 72/72/72
f 70/70/70 72/72/72 74/74/74
f 72/72/72 73/73/73 74/74/74
f 74/74/74 67/67/67 70/70/70
f 73/73/73 75/75/75 74/74/74
f 75/75/75 76/76/76 74/74/74
f 76/76/76 77/77/77 74/74/74
f 74/74/74 77/77/77 78/78/78
f 77/77/77 79/79/79 78/78/78
f 74/74/74 78/78/78 80/80/80
f 78/78/78 79/79/79 80/80/80
f 67/67/67 74/74/74 80/80/80
f 79/79/79 81/81/81 80/80/80
f 81/81/81 82/82/82 80/80/80
f 80/80/80 82/82/82 83/83/83
f 83/83/83 67/67/67 80/80/80
f 83/83/83 82/82/82 84/84/84
f 85/85/85 84/84/84 82/82/82
f 85/85/85 86/86/86 84/84/84
f 84/84/84 86/86/86 87/87/87
f 87/87/87 83/83/83 84/84/84
f 86/86/86 88/88/88 87/87/87
f 87/87/87 88/88/88 89/89/89
f 88/88/88 90/90/90 89/89/89
f 83/83/83 87/87/87 91/91/91
f 91/91/91 87/87/87 89/89/89
f 90/90/90 92/92/92 89/89/89
f 89/89/89 92/92/92 91/91/91
f 90/90/90 93/93/93 92/92/92
f 94/94/94 93/93/93 90/90/90
f 94/94/94 95/95/95 93/93/93
f 92/92/92 96/96/96 91/91/91
f 96/96/96 92/92/92 93/93/93
f 91/91/91 97/97/97 83/83/83
f 96/96/96 97/97/97 91/91/91
f 97/97/97 67/67/67 83/83/83
f 93/93/93 98/98/98 96/96/96
f 95/95/95 98/98/98 93/93/93
f 96/96/96 98/98/98 97/97/97
f 95/95/95 99/99/99 98/98/98
f 100/100/100 98/98/98 99/99/99
f 97/97/97 101/101/101 67/67/67
f 97/97/97 98/98/98 101/101/101
f 100/100/100 101/101/101 98/98/98
f 69/69/69 67/67/67 101/101/101
f 69/69/69 101/101/101 100/100/100
f 104/104/104 103/103/103 102/102/102
f 105/105/105 103/103/103 104/104/104
f 106/106/106 105/105/105 104/104/104
f 107/107/107 105/105/105 106/106/106
f 108/108/108 107/107/107 106/106/106
f 108/108/108 109/109/109 107/107/107
f 110/110/110 103/103/103 105/105/105
f 110/110/110 105/105/105 107/107/107
f 111/111/111 107/107/107 109/109/109
f 112/112/112 111/111/111 109/109/109
f 113/113/113 111/111/111 112/112/112
f 111/111/111 114/114/114 107/107/107
f 107/107/107 114/114/114 110/110/110
f 115/115/115 111/111/111 113/113/113
f 116/116/116 115/115/115 113/113/113
f 117/117/117 115/115/115 116/116/116
f 115/115/115 118/118/118 111/111/111
f 118/118/118 115/115/115 117/117/117
f 118/118/118 114/114/114 111/111/111
f 119/119/119 118/118/118 117/117/117
f 120/120/120 118/118/118 119/119/119
f 114/114/114 121/121/121 110/110/110
f 114/114/114 122/122/122 121/121/121
f 123/123/123 118/118/118 120/120/120
f 124/124/124 122/122/122 114/114/114
f 114/114/114 118/118/118 125/125/125
f 124/124/124 114/114/114 125/125/125
f 123/123/123 125/125/125 118/118/118
f 126/126/126 122/122/122 124/124/124
f 124/124/124 125/125/125 126/126/126
f 126/126/126 127/127/127 122/122/122
f 126/126/126 128/128/128 127/127/127
f 126/126/126 125/125/125 129/129/129
f 128/128/128 126/126/126 130/130/130
f 130/130/130 126/126/126 129/129/129
f 128/128/128 130/130/130 131/131/131
f 130/130/130 132/132/132 131/131/131
f 125/125/125 133/133/133 129/129/129
f 133/133/133 125/125/125 123/123/123
f 134/134/134 130/130/130 129/129/129
f 134/134/134 132/132/132 130/130/130
f 134/134/134 129/129/129 133/133/133
f 135/135/135 132/132/132 134/134/134
f 135/135/135 134/134/134 133/133/133
f 132/132/132 135/135/135 136/136/136
f 135/135/135 133/133/133 137/137/137
f 135/135/135 137/137/137 136/136/136
f 137/137/137 133/133/133 123/123/123
f 136/136/136 137/137/137 138/138/138
f 137/137/137 123/123/123 139/139/139
f 137/137/137 139/139/139 138/138/138
f 139/139/139 123/123/123 120/120/120
f 138/138/138 139/139/139 140/140/140
f 139/139/139 120/120/120 140/140/140
f 110/110/110 141/141/141 103/103/103
f 103/103/103 141/141/141 142/142/142
f 141/141/141 143/143/143 142/142/142
f 141/141/141 144/144/144 143/143/143
f 145/145/145 144/144/144 141/141/141
f 110/110/110 145/145/145 141/141/141
f 145/145/145 146/146/146 144/144/144
f 146/146/146 145/145/145 147/147/147
f 148/148/148 145/145/145 110/110/110
f 148/148/148 110/110/110 149/149/149
f 148/148/148 149/149/149 150/150/150
f 151/151/151 148/148/148 150/150/150
f 152/152/152 148/148/148 151/151/151
f 153/153/153 147/147/147 145/145/145
f 148/148/148 153/153/153 145/145/145
f 153/153/153 154/154/154 147/147/147
f 153/153/153 155/155/155 154/154/154
f 153/153/153 156/156/156 155/155/155
f 157/157/157 156/156/156 153/153/153
f 157/157/157 158/158/158 156/156/156
f 159/159/159 157/157/157 153/153/153
f 159/159/159 158/158/158 157/157/157
f 159/159/159 153/153/153 148/148/148
f 159/159/159 160/160/160 158/158/158
f 159/159/159 161/161/161 160/160/160
f 162/162/162 148/148/148 152/152/152
f 163/163/163 162/162/162 152/152/152
f 159/159/159 148/148/148 164/164/164
f 148/148/148 162/162/162 164/164/164
f 165/165/165 162/162/162 163/163/163
f 162/162/162 165/165/165 164/164/164
f 166/166/166 165/165/165 163/163/163
f 165/165/165 166/166/166 167/167/167
f 168/168/168 159/159/159 164/164/164
f 168/168/168 161/161/161 159/159/159
f 167/167/167 169/169/169 165/165/165
f 169/169/169 167/167/167 170/170/170
f 171/171/171 169/169/169 170/170/170
f 164/164/164 165/165/165 172/172/172
f 165/165/165 169/169/169 172/172/172
f 164/164/164 172/172/172 173/173/173
f 164/164/164 173/173/173 168/168/168
f 174/174/174 172/172/172 169/169/169
f 172/172/172 174/174/174 173/173/173
f 174/174/174 169/169/169 171/171/171
f 175/175/175 174/174/174 171/171/171
f 175/175/175 173/173/173 174/174/174
f 175/175/175 171/171/171 176/176/176
f 177/177/177 173/173/173 175/175/175
f 175/175/175 176/176/176 177/177/177
f 168/168/168 173/173/173 177/177/177
f 177/177/177 176/176/176 178/178/178
f 168/168/168 177/177/177 179/179/179
f 177/177/177 178/178/178 179/179/179
f 179/179/179 161/161/161 168/168/168
f 179/179/179 178/178/178 180/180/180
f 161/161/161 179/179/179 180/180/180
f 183/183/183 182/182/182 181/181/181
f 181/181/181 182/182/182 184/184/184
f 183/183/183 185/185/185 182/182/182
f 182/182/182 186/186/186 184/184/184
f 185/185/185 187/187/187 182/182/182
f 184/184/184 186/186/186 188/188/188
f 185/185/185 189/189/189 187/187/187
f 190/190/190 184/184/184 188/188/188
f 191/191/191 189/189/189 185/185/185
f 190/190/190 188/188/188 192/192/192
f 193/193/193 191/191/191 185/185/185
f 192/192/192 188/188/188 194/194/194
f 194/194/194 195/195/195 192/192/192
f 192/192/192 195/195/195 196/196/196
f 193/193/193 197/197/197 191/191/191
f 196/196/196 195/195/195 197/197/197
f 197/197/197 198/198/198 191/191/191
f 195/195/195 199/199/199 197/197/197
f 197/197/197 199/199/199 198/198/198
f 200/200/200 196/196/196 197/197/197
f 200/200/200 197/197/197 193/193/193
f 203/203/203 202/202/202 201/201/201
f 203/203/203 201/201/201 204/204/204
f 205/205/205 202/202/202 203/203/203
f 205/205/205 206/206/206 202/202/202
f 207/207/207 203/203/203 204/204/204
f 208/208/208 206/206/206 205/205/205
f 208/208/208 209/209/209 206/206/206
f 207/207/207 204/204/204 210/210/210
f 210/210/210 204/204/204 211/211/211
f 212/212/212 207/207/207 210/210/210
f 210/210/210 211/211/211 213/213/213
f 212/212/212 210/210/210 214/214/214
f 210/210/210 213/213/213 214/214/214
f 212/212/212 214/214/214 215/215/215
f 215/215/215 214/214/214 208/208/208
f 214/214/214 209/209/209 208/208/208
f 214/214/214 213/213/213 216/216/216
f 214/214/214 216/216/216 209/209/209
f 219/219/219 218/218/218 217/217/217
f 219/219/219 220/220/220 218/218/218
f 219/219/219 217/217/217 221/221/221
f 221/221/221 217/217/217 222/222/222
f 223/223/223 220/220/220 219/219/219
f 223/223/223 224/224/224 220/220/220
f 221/221/221 225/225/225 219/219/219
f 219/219/219 225/225/225 226/226/226
f 226/226/226 223/223/223 219/219/219
f 221/221/221 227/227/227 225/225/225
f 226/226/226 228/228/228 223/223/223
f 229/229/229 227/227/227 221/221/221
f 223/223/223 228/228/228 230/230/230
f 221/221/221 222/222/222 231/231/231
f 221/221/221 231/231/231 229/229/229
f 231/231/231 222/222/222 232/232/232
f 230/230/230 233/233/233 223/223/223
f 230/230/230 229/229/229 233/233/233
f 233/233/233 224/224/224 223/223/223
f 234/234/234 224/224/224 233/233/233
f 233/233/233 235/235/235 234/234/234
f 229/229/229 236/236/236 233/233/233
f 236/236/236 235/235/235 233/233/233
f 229/229/229 231/231/231 236/236/236
f 236/236/236 232/232/232 235/235/235
f 231/231/231 232/232/232 236/236/236
