mtllib SM_Pillar_Trim_02.mtl
g SM_Pillar_Trim_02
#Vertices 420
#Indices 1200
#Section 0 Offset 0 NumIndices 1200 MaterialIndex 0 MI_ConcreteTrim_A_01
v -0.000000 0.000000 0.880858
v 0.000000 -0.001572 0.450000
v 0.139058 -0.001572 0.427975
v 0.272200 0.000000 0.837746
v 0.264504 -0.001572 0.364058
v 0.517756 0.000000 0.712629
v 0.712630 0.000000 0.517756
v 0.364058 -0.001572 0.264504
v 0.427975 -0.001572 0.139058
v 0.837746 0.000000 0.272200
v 0.450000 -0.001572 0.000000
v 0.880859 -0.000000 -0.000000
v 0.427975 -0.001572 -0.139058
v 0.837746 -0.000000 -0.272200
v 0.712629 -0.000000 -0.517756
v 0.364058 -0.001572 -0.264503
v 0.264503 -0.001572 -0.364058
v 0.517755 -0.000000 -0.712629
v 0.139058 -0.001572 -0.427975
v 0.272200 -0.000000 -0.837746
v 0.000000 -0.000000 -0.880858
v 0.000000 -0.001572 -0.450000
v -0.139058 -0.001572 -0.427975
v -0.272200 -0.000000 -0.837746
v -0.517755 -0.000000 -0.712629
v -0.264503 -0.001572 -0.364058
v -0.712629 -0.000000 -0.517756
v -0.364058 -0.001572 -0.264503
v -0.427975 -0.001572 -0.139058
v -0.837746 -0.000000 -0.272200
v -0.880859 -0.000000 -0.000000
v -0.450000 -0.001572 0.000000
v -0.427975 -0.001572 0.139058
v -0.837746 0.000000 0.272200
v -0.712629 0.000000 0.517756
v -0.364058 -0.001572 0.264503
v -0.264503 -0.001572 0.364058
v -0.517755 0.000000 0.712629
v -0.139058 -0.001572 0.427975
v -0.272200 0.000000 0.837746
v -0.000000 0.000000 0.880858
v 0.000000 -0.001572 0.450000
v -0.000000 -0.954591 0.680136
v -0.000000 -0.501463 0.682185
v 0.210173 -0.954591 0.646848
v 0.210807 -0.501463 0.648797
v 0.399774 -0.954591 0.550242
v 0.400979 -0.501463 0.551900
v 0.550242 -0.954591 0.399774
v 0.551900 -0.501463 0.400979
v 0.648797 -0.501464 0.210807
v 0.646848 -0.954591 0.210174
v 0.682185 -0.501464 0.000000
v 0.680136 -0.954591 0.000000
v 0.646848 -0.954591 -0.210174
v 0.648797 -0.501464 -0.210807
v 0.550242 -0.954591 -0.399774
v 0.551900 -0.501464 -0.400978
v 0.400978 -0.501464 -0.551899
v 0.399774 -0.954591 -0.550241
v 0.210807 -0.501464 -0.648797
v 0.210174 -0.954591 -0.646848
v -0.000000 -0.501464 -0.682185
v -0.000000 -0.954591 -0.680136
v -0.210174 -0.954591 -0.646848
v -0.210807 -0.501464 -0.648797
v -0.399774 -0.954591 -0.550241
v -0.400979 -0.501464 -0.551899
v -0.551900 -0.501464 -0.400978
v -0.550242 -0.954591 -0.399774
v -0.648797 -0.501464 -0.210807
v -0.646848 -0.954591 -0.210174
v -0.682185 -0.501464 0.000000
v -0.680136 -0.954591 0.000000
v -0.646848 -0.954591 0.210174
v -0.648797 -0.501464 0.210807
v -0.550242 -0.954591 0.399774
v -0.551900 -0.501463 0.400978
v -0.400978 -0.501463 0.551900
v -0.399774 -0.954591 0.550242
v -0.210807 -0.501463 0.648797
v -0.210174 -0.954591 0.646848
v -0.000000 -0.501463 0.682185
v -0.000000 -0.954591 0.680136
v -0.000000 -0.500585 0.835870
v -0.258298 -0.500585 0.794960
v -0.000000 -0.453053 0.883447
v -0.273000 -0.453053 0.840208
v -0.491312 -0.500585 0.676233
v -0.519277 -0.453053 0.714724
v -0.676233 -0.500585 0.491312
v -0.714724 -0.453053 0.519278
v -0.794960 -0.500585 0.258298
v -0.840208 -0.453053 0.273000
v -0.883447 -0.453053 0.000000
v -0.835870 -0.500585 0.000000
v -0.840208 -0.453053 -0.273000
v -0.794960 -0.500585 -0.258298
v -0.714724 -0.453053 -0.519277
v -0.676233 -0.500585 -0.491312
v -0.519277 -0.453053 -0.714724
v -0.491312 -0.500585 -0.676233
v -0.258298 -0.500585 -0.794959
v -0.273000 -0.453053 -0.840208
v -0.000000 -0.453053 -0.883447
v -0.000000 -0.500585 -0.835870
v 0.258298 -0.500585 -0.794959
v 0.273000 -0.453053 -0.840208
v 0.491312 -0.500585 -0.676233
v 0.519277 -0.453053 -0.714724
v 0.714724 -0.453053 -0.519277
v 0.676233 -0.500585 -0.491312
v 0.794960 -0.500585 -0.258298
v 0.840208 -0.453053 -0.273000
v 0.883447 -0.453053 0.000000
v 0.835870 -0.500585 0.000000
v 0.840209 -0.453053 0.273000
v 0.794960 -0.500585 0.258298
v 0.676233 -0.500585 0.491312
v 0.714724 -0.453053 0.519278
v 0.519278 -0.453053 0.714724
v 0.491312 -0.500585 0.676233
v 0.273000 -0.453053 0.840209
v 0.258298 -0.500585 0.794960
v -0.000000 -0.453053 0.883447
v -0.000000 -0.500585 0.835870
v -0.000000 -0.453053 0.883447
v -0.272200 0.000000 0.837746
v -0.000000 0.000000 0.880858
v -0.273000 -0.453053 0.840208
v -0.517755 0.000000 0.712629
v -0.519277 -0.453053 0.714724
v -0.712629 0.000000 0.517756
v -0.714724 -0.453053 0.519278
v -0.840208 -0.453053 0.273000
v -0.837746 0.000000 0.272200
v -0.883447 -0.453053 0.000000
v -0.880859 -0.000000 -0.000000
v -0.837746 -0.000000 -0.272200
v -0.840208 -0.453053 -0.273000
v -0.712629 -0.000000 -0.517756
v -0.714724 -0.453053 -0.519277
v -0.519277 -0.453053 -0.714724
v -0.517755 -0.000000 -0.712629
v -0.273000 -0.453053 -0.840208
v -0.272200 -0.000000 -0.837746
v -0.000000 -0.453053 -0.883447
v 0.000000 -0.000000 -0.880858
v 0.272200 -0.000000 -0.837746
v 0.273000 -0.453053 -0.840208
v 0.517755 -0.000000 -0.712629
v 0.519277 -0.453053 -0.714724
v 0.714724 -0.453053 -0.519277
v 0.712629 -0.000000 -0.517756
v 0.840208 -0.453053 -0.273000
v 0.837746 -0.000000 -0.272200
v 0.883447 -0.453053 0.000000
v 0.880859 -0.000000 -0.000000
v 0.837746 0.000000 0.272200
v 0.840209 -0.453053 0.273000
v 0.712630 0.000000 0.517756
v 0.714724 -0.453053 0.519278
v 0.517756 0.000000 0.712629
v 0.519278 -0.453053 0.714724
v 0.273000 -0.453053 0.840209
v 0.272200 0.000000 0.837746
v -0.000000 -0.453053 0.883447
v -0.000000 0.000000 0.880858
v -0.153855 -1.454337 0.473517
v -0.000000 -1.001572 0.498425
v -0.000000 -1.454337 0.497885
v -0.154022 -1.001572 0.474030
v -0.292649 -1.454337 0.402797
v -0.292967 -1.001572 0.403234
v -0.402797 -1.454337 0.292649
v -0.403234 -1.001572 0.292967
v -0.474030 -1.001572 0.154022
v -0.473517 -1.454337 0.153855
v -0.498425 -1.001572 0.000000
v -0.497885 -1.454337 0.000000
v -0.473517 -1.454337 -0.153855
v -0.474030 -1.001572 -0.154022
v -0.402797 -1.454337 -0.292649
v -0.403234 -1.001572 -0.292966
v -0.292967 -1.001572 -0.403234
v -0.292649 -1.454337 -0.402797
v -0.154022 -1.001572 -0.474030
v -0.153855 -1.454337 -0.473516
v -0.000000 -1.001572 -0.498425
v -0.000000 -1.454337 -0.497885
v 0.153855 -1.454337 -0.473516
v 0.154022 -1.001572 -0.474030
v 0.292649 -1.454337 -0.402797
v 0.292967 -1.001572 -0.403234
v 0.402797 -1.454337 -0.292649
v 0.403234 -1.001572 -0.292966
v 0.474030 -1.001572 -0.154022
v 0.473517 -1.454337 -0.153855
v 0.498425 -1.001572 0.000000
v 0.497885 -1.454337 0.000000
v 0.473517 -1.454337 0.153855
v 0.474030 -1.001572 0.154022
v 0.402797 -1.454337 0.292650
v 0.403234 -1.001572 0.292967
v 0.292967 -1.001572 0.403234
v 0.292650 -1.454337 0.402797
v 0.154022 -1.001572 0.474030
v 0.153855 -1.454337 0.473517
v -0.000000 -1.001572 0.498425
v -0.000000 -1.454337 0.497885
v -0.139059 -1.501572 0.427980
v 0.000000 -1.501572 0.450005
v 0.000000 -1.501572 0.450000
v -0.139058 -1.501572 0.427976
v -0.264506 -1.501572 0.364062
v -0.264503 -1.501572 0.364058
v -0.364058 -1.501572 0.264503
v -0.364062 -1.501572 0.264506
v -0.427975 -1.501572 0.139058
v -0.427980 -1.501572 0.139059
v -0.450000 -1.501572 0.000000
v -0.450005 -1.501572 0.000000
v -0.427980 -1.501572 -0.139059
v -0.427975 -1.501572 -0.139057
v -0.364062 -1.501572 -0.264506
v -0.364058 -1.501572 -0.264503
v -0.264506 -1.501572 -0.364061
v -0.264503 -1.501572 -0.364057
v -0.139058 -1.501572 -0.427975
v -0.139059 -1.501572 -0.427980
v 0.000000 -1.501572 -0.450000
v 0.000000 -1.501572 -0.450005
v 0.139059 -1.501572 -0.427980
v 0.139058 -1.501572 -0.427975
v 0.264506 -1.501572 -0.364061
v 0.264503 -1.501572 -0.364057
v 0.364058 -1.501572 -0.264503
v 0.364062 -1.501572 -0.264506
v 0.427975 -1.501572 -0.139057
v 0.427980 -1.501572 -0.139059
v 0.450000 -1.501572 0.000000
v 0.450005 -1.501572 0.000000
v 0.427980 -1.501572 0.139059
v 0.427975 -1.501572 0.139058
v 0.364062 -1.501572 0.264507
v 0.364058 -1.501572 0.264504
v 0.264504 -1.501572 0.364058
v 0.264507 -1.501572 0.364062
v 0.139058 -1.501572 0.427976
v 0.139059 -1.501572 0.427980
v 0.000000 -1.501572 0.450000
v 0.000000 -1.501572 0.450005
v -0.154022 -1.001572 0.474030
v -0.000000 -1.001721 0.632151
v -0.000000 -1.001572 0.498425
v -0.195345 -1.001721 0.601211
v -0.292967 -1.001572 0.403234
v -0.371569 -1.001721 0.511421
v -0.403234 -1.001572 0.292967
v -0.511421 -1.001721 0.371569
v -0.474030 -1.001572 0.154022
v -0.601211 -1.001721 0.195345
v -0.632151 -1.001721 0.000000
v -0.498425 -1.001572 0.000000
v -0.474030 -1.001572 -0.154022
v -0.601211 -1.001721 -0.195345
v -0.511421 -1.001721 -0.371569
v -0.403234 -1.001572 -0.292966
v -0.371569 -1.001722 -0.511420
v -0.292967 -1.001572 -0.403234
v -0.195345 -1.001722 -0.601211
v -0.154022 -1.001572 -0.474030
v -0.000000 -1.001722 -0.632151
v -0.000000 -1.001572 -0.498425
v 0.154022 -1.001572 -0.474030
v 0.195345 -1.001722 -0.601211
v 0.292967 -1.001572 -0.403234
v 0.371569 -1.001722 -0.511420
v 0.403234 -1.001572 -0.292966
v 0.511421 -1.001721 -0.371569
v 0.474030 -1.001572 -0.154022
v 0.601211 -1.001721 -0.195345
v 0.632151 -1.001721 0.000000
v 0.498425 -1.001572 0.000000
v 0.601211 -1.001721 0.195345
v 0.474030 -1.001572 0.154022
v 0.403234 -1.001572 0.292967
v 0.511421 -1.001721 0.371569
v 0.292967 -1.001572 0.403234
v 0.371569 -1.001721 0.511421
v 0.195345 -1.001721 0.601211
v 0.154022 -1.001572 0.474030
v -0.000000 -1.001572 0.498425
v -0.000000 -1.001721 0.632151
v -0.000000 -0.500585 0.835870
v 0.210807 -0.501463 0.648797
v -0.000000 -0.501463 0.682185
v 0.258298 -0.500585 0.794960
v 0.400979 -0.501463 0.551900
v 0.491312 -0.500585 0.676233
v 0.551900 -0.501463 0.400979
v 0.676233 -0.500585 0.491312
v 0.794960 -0.500585 0.258298
v 0.648797 -0.501464 0.210807
v 0.682185 -0.501464 0.000000
v 0.835870 -0.500585 0.000000
v 0.648797 -0.501464 -0.210807
v 0.794960 -0.500585 -0.258298
v 0.551900 -0.501464 -0.400978
v 0.676233 -0.500585 -0.491312
v 0.400978 -0.501464 -0.551899
v 0.491312 -0.500585 -0.676233
v 0.210807 -0.501464 -0.648797
v 0.258298 -0.500585 -0.794959
v -0.000000 -0.500585 -0.835870
v -0.000000 -0.501464 -0.682185
v -0.210807 -0.501464 -0.648797
v -0.258298 -0.500585 -0.794959
v -0.491312 -0.500585 -0.676233
v -0.400979 -0.501464 -0.551899
v -0.676233 -0.500585 -0.491312
v -0.551900 -0.501464 -0.400978
v -0.648797 -0.501464 -0.210807
v -0.794960 -0.500585 -0.258298
v -0.835870 -0.500585 0.000000
v -0.682185 -0.501464 0.000000
v -0.648797 -0.501464 0.210807
v -0.794960 -0.500585 0.258298
v -0.551900 -0.501463 0.400978
v -0.676233 -0.500585 0.491312
v -0.400978 -0.501463 0.551900
v -0.491312 -0.500585 0.676233
v -0.210807 -0.501463 0.648797
v -0.258298 -0.500585 0.794960
v -0.000000 -0.500585 0.835870
v -0.000000 -0.501463 0.682185
v 0.000000 -1.501572 0.450005
v -0.139059 -1.501572 0.427980
v -0.000000 -1.454337 0.497885
v -0.153855 -1.454337 0.473517
v -0.292649 -1.454337 0.402797
v -0.264506 -1.501572 0.364062
v -0.364062 -1.501572 0.264506
v -0.402797 -1.454337 0.292649
v -0.427980 -1.501572 0.139059
v -0.473517 -1.454337 0.153855
v -0.497885 -1.454337 0.000000
v -0.450005 -1.501572 0.000000
v -0.427980 -1.501572 -0.139059
v -0.473517 -1.454337 -0.153855
v -0.402797 -1.454337 -0.292649
v -0.364062 -1.501572 -0.264506
v -0.292649 -1.454337 -0.402797
v -0.264506 -1.501572 -0.364061
v -0.139059 -1.501572 -0.427980
v -0.153855 -1.454337 -0.473516
v -0.000000 -1.454337 -0.497885
v 0.000000 -1.501572 -0.450005
v 0.139059 -1.501572 -0.427980
v 0.153855 -1.454337 -0.473516
v 0.292649 -1.454337 -0.402797
v 0.264506 -1.501572 -0.364061
v 0.364062 -1.501572 -0.264506
v 0.402797 -1.454337 -0.292649
v 0.427980 -1.501572 -0.139059
v 0.473517 -1.454337 -0.153855
v 0.497885 -1.454337 0.000000
v 0.450005 -1.501572 0.000000
v 0.473517 -1.454337 0.153855
v 0.427980 -1.501572 0.139059
v 0.364062 -1.501572 0.264507
v 0.402797 -1.454337 0.292650
v 0.292650 -1.454337 0.402797
v 0.264507 -1.501572 0.364062
v 0.153855 -1.454337 0.473517
v 0.139059 -1.501572 0.427980
v 0.000000 -1.501572 0.450005
v -0.000000 -1.454337 0.497885
v -0.000000 -1.001721 0.632151
v -0.195345 -1.001721 0.601211
v -0.000000 -0.954591 0.680136
v -0.210174 -0.954591 0.646848
v -0.399774 -0.954591 0.550242
v -0.371569 -1.001721 0.511421
v -0.511421 -1.001721 0.371569
v -0.550242 -0.954591 0.399774
v -0.646848 -0.954591 0.210174
v -0.601211 -1.001721 0.195345
v -0.680136 -0.954591 0.000000
v -0.632151 -1.001721 0.000000
v -0.601211 -1.001721 -0.195345
v -0.646848 -0.954591 -0.210174
v -0.550242 -0.954591 -0.399774
v -0.511421 -1.001721 -0.371569
v -0.371569 -1.001722 -0.511420
v -0.399774 -0.954591 -0.550241
v -0.195345 -1.001722 -0.601211
v -0.210174 -0.954591 -0.646848
v -0.000000 -0.954591 -0.680136
v -0.000000 -1.001722 -0.632151
v 0.195345 -1.001722 -0.601211
v 0.210174 -0.954591 -0.646848
v 0.399774 -0.954591 -0.550241
v 0.371569 -1.001722 -0.511420
v 0.511421 -1.001721 -0.371569
v 0.550242 -0.954591 -0.399774
v 0.646848 -0.954591 -0.210174
v 0.601211 -1.001721 -0.195345
v 0.680136 -0.954591 0.000000
v 0.632151 -1.001721 0.000000
v 0.646848 -0.954591 0.210174
v 0.601211 -1.001721 0.195345
v 0.511421 -1.001721 0.371569
v 0.550242 -0.954591 0.399774
v 0.371569 -1.001721 0.511421
v 0.399774 -0.954591 0.550242
v 0.210173 -0.954591 0.646848
v 0.195345 -1.001721 0.601211
v -0.000000 -1.001721 0.632151
v -0.000000 -0.954591 0.680136
vt 0.202393 0.687988
vt 0.202393 0.726074
vt 0.173340 0.726074
vt 0.173340 0.687988
vt 0.145020 0.726074
vt 0.145020 0.687988
vt 0.117432 0.687988
vt 0.117432 0.726074
vt 0.090820 0.726074
vt 0.090820 0.687988
vt 0.065369 0.726074
vt 0.065369 0.687988
vt 0.040894 0.726074
vt 0.040894 0.687988
vt 0.017380 0.687988
vt 0.017380 0.726074
vt -0.005833 0.726074
vt -0.005833 0.687988
vt -0.029037 0.726074
vt -0.029037 0.687988
vt -0.052277 0.687988
vt -0.052277 0.726074
vt -0.075745 0.726074
vt -0.075745 0.687988
vt -0.098816 0.687988
vt -0.098816 0.726074
vt -0.122192 0.687988
vt -0.122192 0.726074
vt -0.145874 0.726074
vt -0.145874 0.687988
vt -0.170166 0.687988
vt -0.170166 0.726074
vt -0.195312 0.726074
vt -0.195312 0.687988
vt -0.221436 0.687988
vt -0.221436 0.726074
vt -0.248535 0.726074
vt -0.248535 0.687988
vt -0.276123 0.726074
vt -0.276123 0.687988
vt -0.301758 0.687988
vt -0.301758 0.726074
vt 0.834473 0.750977
vt 0.834473 0.786255
vt 0.805176 0.750977
vt 0.805176 0.786255
vt 0.776855 0.750977
vt 0.776855 0.786255
vt 0.749023 0.750977
vt 0.749023 0.786255
vt 0.722656 0.786255
vt 0.722656 0.750977
vt 0.697266 0.786255
vt 0.697266 0.750977
vt 0.672852 0.750977
vt 0.672852 0.786255
vt 0.649414 0.750977
vt 0.649414 0.786255
vt 0.625977 0.786255
vt 0.625977 0.750977
vt 0.602539 0.786255
vt 0.602539 0.750977
vt 0.579590 0.786255
vt 0.579590 0.750977
vt 0.556152 0.750977
vt 0.556152 0.786255
vt 0.532715 0.750977
vt 0.532715 0.786255
vt 0.509766 0.786255
vt 0.509766 0.750977
vt 0.486084 0.786255
vt 0.486084 0.750977
vt 0.461670 0.786255
vt 0.461670 0.750977
vt 0.436523 0.750977
vt 0.436523 0.786255
vt 0.410400 0.750977
vt 0.410400 0.786255
vt 0.383301 0.786255
vt 0.383301 0.750977
vt 0.355713 0.786255
vt 0.355713 0.750977
vt 0.330078 0.786255
vt 0.330078 0.750977
vt -0.301758 0.624512
vt -0.276123 0.624512
vt -0.301758 0.638428
vt -0.276123 0.638428
vt -0.248535 0.624512
vt -0.248535 0.638428
vt -0.221436 0.624512
vt -0.221436 0.638428
vt -0.195312 0.624512
vt -0.195312 0.638428
vt -0.170166 0.638428
vt -0.170166 0.624512
vt -0.145874 0.638428
vt -0.145874 0.624512
vt -0.122192 0.638428
vt -0.122192 0.624512
vt -0.098816 0.638428
vt -0.098816 0.624512
vt -0.075745 0.624512
vt -0.075745 0.638428
vt -0.052277 0.638428
vt -0.052277 0.624512
vt -0.029037 0.624512
vt -0.029037 0.638428
vt -0.005833 0.624512
vt -0.005833 0.638428
vt 0.017380 0.638428
vt 0.017380 0.624512
vt 0.040894 0.624512
vt 0.040894 0.638428
vt 0.065369 0.638428
vt 0.065369 0.624512
vt 0.090820 0.638428
vt 0.090820 0.624512
vt 0.117432 0.624512
vt 0.117432 0.638428
vt 0.145020 0.638428
vt 0.145020 0.624512
vt 0.173340 0.638428
vt 0.173340 0.624512
vt 0.202393 0.638428
vt 0.202393 0.624512
vt -0.301758 0.638428
vt -0.276123 0.687988
vt -0.301758 0.687988
vt -0.276123 0.638428
vt -0.248535 0.687988
vt -0.248535 0.638428
vt -0.221436 0.687988
vt -0.221436 0.638428
vt -0.195312 0.638428
vt -0.195312 0.687988
vt -0.170166 0.638428
vt -0.170166 0.687988
vt -0.145874 0.687988
vt -0.145874 0.638428
vt -0.122192 0.687988
vt -0.122192 0.638428
vt -0.098816 0.638428
vt -0.098816 0.687988
vt -0.075745 0.638428
vt -0.075745 0.687988
vt -0.052277 0.638428
vt -0.052277 0.687988
vt -0.029037 0.687988
vt -0.029037 0.638428
vt -0.005833 0.687988
vt -0.005833 0.638428
vt 0.017380 0.638428
vt 0.017380 0.687988
vt 0.040894 0.638428
vt 0.040894 0.687988
vt 0.065369 0.638428
vt 0.065369 0.687988
vt 0.090820 0.687988
vt 0.090820 0.638428
vt 0.117432 0.687988
vt 0.117432 0.638428
vt 0.145020 0.687988
vt 0.145020 0.638428
vt 0.173340 0.638428
vt 0.173340 0.687988
vt 0.202393 0.638428
vt 0.202393 0.687988
vt 0.355713 0.375488
vt 0.330078 0.450684
vt 0.330078 0.375488
vt 0.355713 0.450684
vt 0.383301 0.375488
vt 0.383301 0.450684
vt 0.410400 0.375488
vt 0.410400 0.450684
vt 0.436523 0.450684
vt 0.436523 0.375488
vt 0.461670 0.450684
vt 0.461670 0.375488
vt 0.486084 0.375488
vt 0.486084 0.450684
vt 0.509766 0.375488
vt 0.509766 0.450684
vt 0.532715 0.450684
vt 0.532715 0.375488
vt 0.556152 0.450684
vt 0.556152 0.375488
vt 0.579590 0.450684
vt 0.579590 0.375488
vt 0.602539 0.375488
vt 0.602539 0.450684
vt 0.625977 0.375488
vt 0.625977 0.450684
vt 0.649414 0.375488
vt 0.649414 0.450684
vt 0.672852 0.450684
vt 0.672852 0.375488
vt 0.697266 0.450684
vt 0.697266 0.375488
vt 0.722656 0.375488
vt 0.722656 0.450684
vt 0.749023 0.375488
vt 0.749023 0.450684
vt 0.776855 0.450684
vt 0.776855 0.375488
vt 0.805176 0.450684
vt 0.805176 0.375488
vt 0.834473 0.450684
vt 0.834473 0.375488
vt 0.355713 0.359375
vt 0.330078 0.359375
vt 0.330078 0.359375
vt 0.355713 0.359375
vt 0.383301 0.359375
vt 0.383301 0.359375
vt 0.410400 0.359375
vt 0.410400 0.359375
vt 0.436523 0.359375
vt 0.436523 0.359375
vt 0.461670 0.359375
vt 0.461670 0.359375
vt 0.486084 0.359375
vt 0.486084 0.359375
vt 0.509766 0.359375
vt 0.509766 0.359375
vt 0.532715 0.359375
vt 0.532715 0.359375
vt 0.556152 0.359375
vt 0.556152 0.359375
vt 0.579590 0.359375
vt 0.579590 0.359375
vt 0.602539 0.359375
vt 0.602539 0.359375
vt 0.625977 0.359375
vt 0.625977 0.359375
vt 0.649414 0.359375
vt 0.649414 0.359375
vt 0.672852 0.359375
vt 0.672852 0.359375
vt 0.697266 0.359375
vt 0.697266 0.359375
vt 0.722656 0.359375
vt 0.722656 0.359375
vt 0.749023 0.359375
vt 0.749023 0.359375
vt 0.776855 0.359375
vt 0.776855 0.359375
vt 0.805176 0.359375
vt 0.805176 0.359375
vt 0.834473 0.359375
vt 0.834473 0.359375
vt 0.355713 0.720703
vt 0.330078 0.740234
vt 0.330078 0.720703
vt 0.355713 0.740234
vt 0.383301 0.720703
vt 0.383301 0.740234
vt 0.410400 0.720703
vt 0.410400 0.740234
vt 0.436523 0.720703
vt 0.436523 0.740234
vt 0.461670 0.740234
vt 0.461670 0.720703
vt 0.486084 0.720703
vt 0.486084 0.740234
vt 0.509766 0.740234
vt 0.509766 0.720703
vt 0.532715 0.740234
vt 0.532715 0.720703
vt 0.556152 0.740234
vt 0.556152 0.720703
vt 0.579590 0.740234
vt 0.579590 0.720703
vt 0.602539 0.720703
vt 0.602539 0.740234
vt 0.625977 0.720703
vt 0.625977 0.740234
vt 0.649414 0.720703
vt 0.649414 0.740234
vt 0.672852 0.720703
vt 0.672852 0.740234
vt 0.697266 0.740234
vt 0.697266 0.720703
vt 0.722656 0.740234
vt 0.722656 0.720703
vt 0.749023 0.720703
vt 0.749023 0.740234
vt 0.776855 0.720703
vt 0.776855 0.740234
vt 0.805176 0.740234
vt 0.805176 0.720703
vt 0.834473 0.720703
vt 0.834473 0.740234
vt 0.202393 0.624512
vt 0.173340 0.596680
vt 0.202393 0.596680
vt 0.173340 0.624512
vt 0.145020 0.596680
vt 0.145020 0.624512
vt 0.117432 0.596680
vt 0.117432 0.624512
vt 0.090820 0.624512
vt 0.090820 0.596680
vt 0.065369 0.596680
vt 0.065369 0.624512
vt 0.040894 0.596680
vt 0.040894 0.624512
vt 0.017380 0.596680
vt 0.017380 0.624512
vt -0.005833 0.596680
vt -0.005833 0.624512
vt -0.029037 0.596680
vt -0.029037 0.624512
vt -0.052277 0.624512
vt -0.052277 0.596680
vt -0.075745 0.596680
vt -0.075745 0.624512
vt -0.098816 0.624512
vt -0.098816 0.596680
vt -0.122192 0.624512
vt -0.122192 0.596680
vt -0.145874 0.596680
vt -0.145874 0.624512
vt -0.170166 0.624512
vt -0.170166 0.596680
vt -0.195312 0.596680
vt -0.195312 0.624512
vt -0.221436 0.596680
vt -0.221436 0.624512
vt -0.248535 0.596680
vt -0.248535 0.624512
vt -0.276123 0.596680
vt -0.276123 0.624512
vt -0.301758 0.624512
vt -0.301758 0.596680
vt 0.330078 0.359375
vt 0.355713 0.359375
vt 0.330078 0.375488
vt 0.355713 0.375488
vt 0.383301 0.375488
vt 0.383301 0.359375
vt 0.410400 0.359375
vt 0.410400 0.375488
vt 0.436523 0.359375
vt 0.436523 0.375488
vt 0.461670 0.375488
vt 0.461670 0.359375
vt 0.486084 0.359375
vt 0.486084 0.375488
vt 0.509766 0.375488
vt 0.509766 0.359375
vt 0.532715 0.375488
vt 0.532715 0.359375
vt 0.556152 0.359375
vt 0.556152 0.375488
vt 0.579590 0.375488
vt 0.579590 0.359375
vt 0.602539 0.359375
vt 0.602539 0.375488
vt 0.625977 0.375488
vt 0.625977 0.359375
vt 0.649414 0.359375
vt 0.649414 0.375488
vt 0.672852 0.359375
vt 0.672852 0.375488
vt 0.697266 0.375488
vt 0.697266 0.359375
vt 0.722656 0.375488
vt 0.722656 0.359375
vt 0.749023 0.359375
vt 0.749023 0.375488
vt 0.776855 0.375488
vt 0.776855 0.359375
vt 0.805176 0.375488
vt 0.805176 0.359375
vt 0.834473 0.359375
vt 0.834473 0.375488
vt 0.330078 0.740234
vt 0.355713 0.740234
vt 0.330078 0.750977
vt 0.355713 0.750977
vt 0.383301 0.750977
vt 0.383301 0.740234
vt 0.410400 0.740234
vt 0.410400 0.750977
vt 0.436523 0.750977
vt 0.436523 0.740234
vt 0.461670 0.750977
vt 0.461670 0.740234
vt 0.486084 0.740234
vt 0.486084 0.750977
vt 0.509766 0.750977
vt 0.509766 0.740234
vt 0.532715 0.740234
vt 0.532715 0.750977
vt 0.556152 0.740234
vt 0.556152 0.750977
vt 0.579590 0.750977
vt 0.579590 0.740234
vt 0.602539 0.740234
vt 0.602539 0.750977
vt 0.625977 0.750977
vt 0.625977 0.740234
vt 0.649414 0.740234
vt 0.649414 0.750977
vt 0.672852 0.750977
vt 0.672852 0.740234
vt 0.697266 0.750977
vt 0.697266 0.740234
vt 0.722656 0.750977
vt 0.722656 0.740234
vt 0.749023 0.740234
vt 0.749023 0.750977
vt 0.776855 0.740234
vt 0.776855 0.750977
vt 0.805176 0.750977
vt 0.805176 0.740234
vt 0.834473 0.740234
vt 0.834473 0.750977
vt1 0.991699 0.867920
vt1 0.991699 0.991936
vt1 0.935059 0.991936
vt1 0.935059 0.867920
vt1 0.879883 0.991936
vt1 0.879883 0.867920
vt1 0.825684 0.867920
vt1 0.825684 0.991936
vt1 0.773926 0.991936
vt1 0.773926 0.867920
vt1 0.724121 0.991936
vt1 0.724121 0.867920
vt1 0.676758 0.991936
vt1 0.676758 0.867920
vt1 0.630859 0.867920
vt1 0.630859 0.991936
vt1 0.585449 0.991936
vt1 0.585449 0.867920
vt1 0.540039 0.991936
vt1 0.540039 0.867920
vt1 0.494873 0.867920
vt1 0.494873 0.991936
vt1 0.448975 0.991936
vt1 0.448975 0.867920
vt1 0.404053 0.867920
vt1 0.404053 0.991936
vt1 0.358398 0.867920
vt1 0.358398 0.991936
vt1 0.312256 0.991936
vt1 0.312256 0.867920
vt1 0.264648 0.867920
vt1 0.264648 0.991936
vt1 0.215698 0.991936
vt1 0.215698 0.867920
vt1 0.164673 0.867920
vt1 0.164673 0.991936
vt1 0.111938 0.991936
vt1 0.111938 0.867920
vt1 0.058044 0.991936
vt1 0.058044 0.867920
vt1 0.008064 0.867920
vt1 0.008064 0.991936
vt1 0.991699 0.119629
vt1 0.991699 0.233887
vt1 0.935059 0.119629
vt1 0.935059 0.233887
vt1 0.879883 0.119629
vt1 0.879883 0.233887
vt1 0.825684 0.119629
vt1 0.825684 0.233887
vt1 0.773926 0.233887
vt1 0.773926 0.119629
vt1 0.724121 0.233887
vt1 0.724121 0.119629
vt1 0.676758 0.119629
vt1 0.676758 0.233887
vt1 0.630859 0.119629
vt1 0.630859 0.233887
vt1 0.585449 0.233887
vt1 0.585449 0.119629
vt1 0.540039 0.233887
vt1 0.540039 0.119629
vt1 0.494873 0.233887
vt1 0.494873 0.119629
vt1 0.448975 0.119629
vt1 0.448975 0.233887
vt1 0.404053 0.119629
vt1 0.404053 0.233887
vt1 0.358398 0.233887
vt1 0.358398 0.119629
vt1 0.312256 0.233887
vt1 0.312256 0.119629
vt1 0.264648 0.233887
vt1 0.264648 0.119629
vt1 0.215698 0.119629
vt1 0.215698 0.233887
vt1 0.164673 0.119629
vt1 0.164673 0.233887
vt1 0.111938 0.233887
vt1 0.111938 0.119629
vt1 0.058044 0.233887
vt1 0.058044 0.119629
vt1 0.008064 0.233887
vt1 0.008064 0.119629
vt1 0.008064 0.662842
vt1 0.058044 0.662842
vt1 0.008064 0.707764
vt1 0.058044 0.707764
vt1 0.111938 0.662842
vt1 0.111938 0.707764
vt1 0.164673 0.662842
vt1 0.164673 0.707764
vt1 0.215698 0.662842
vt1 0.215698 0.707764
vt1 0.264648 0.707764
vt1 0.264648 0.662842
vt1 0.312256 0.707764
vt1 0.312256 0.662842
vt1 0.358398 0.707764
vt1 0.358398 0.662842
vt1 0.404053 0.707764
vt1 0.404053 0.662842
vt1 0.448975 0.662842
vt1 0.448975 0.707764
vt1 0.494873 0.707764
vt1 0.494873 0.662842
vt1 0.540039 0.662842
vt1 0.540039 0.707764
vt1 0.585449 0.662842
vt1 0.585449 0.707764
vt1 0.630859 0.707764
vt1 0.630859 0.662842
vt1 0.676758 0.662842
vt1 0.676758 0.707764
vt1 0.724121 0.707764
vt1 0.724121 0.662842
vt1 0.773926 0.707764
vt1 0.773926 0.662842
vt1 0.825684 0.662842
vt1 0.825684 0.707764
vt1 0.879883 0.707764
vt1 0.879883 0.662842
vt1 0.935059 0.707764
vt1 0.935059 0.662842
vt1 0.991699 0.707764
vt1 0.991699 0.662842
vt1 0.008064 0.707764
vt1 0.058044 0.867920
vt1 0.008064 0.867920
vt1 0.058044 0.707764
vt1 0.111938 0.867920
vt1 0.111938 0.707764
vt1 0.164673 0.867920
vt1 0.164673 0.707764
vt1 0.215698 0.707764
vt1 0.215698 0.867920
vt1 0.264648 0.707764
vt1 0.264648 0.867920
vt1 0.312256 0.867920
vt1 0.312256 0.707764
vt1 0.358398 0.867920
vt1 0.358398 0.707764
vt1 0.404053 0.707764
vt1 0.404053 0.867920
vt1 0.448975 0.707764
vt1 0.448975 0.867920
vt1 0.494873 0.707764
vt1 0.494873 0.867920
vt1 0.540039 0.867920
vt1 0.540039 0.707764
vt1 0.585449 0.867920
vt1 0.585449 0.707764
vt1 0.630859 0.707764
vt1 0.630859 0.867920
vt1 0.676758 0.707764
vt1 0.676758 0.867920
vt1 0.724121 0.707764
vt1 0.724121 0.867920
vt1 0.773926 0.867920
vt1 0.773926 0.707764
vt1 0.825684 0.867920
vt1 0.825684 0.707764
vt1 0.879883 0.867920
vt1 0.879883 0.707764
vt1 0.935059 0.707764
vt1 0.935059 0.867920
vt1 0.991699 0.707764
vt1 0.991699 0.867920
vt1 0.058044 0.312500
vt1 0.008064 0.556641
vt1 0.008064 0.312500
vt1 0.058044 0.556641
vt1 0.111938 0.312500
vt1 0.111938 0.556641
vt1 0.164673 0.312500
vt1 0.164673 0.556641
vt1 0.215698 0.556641
vt1 0.215698 0.312500
vt1 0.264648 0.556641
vt1 0.264648 0.312500
vt1 0.312256 0.312500
vt1 0.312256 0.556641
vt1 0.358398 0.312500
vt1 0.358398 0.556641
vt1 0.404053 0.556641
vt1 0.404053 0.312500
vt1 0.448975 0.556641
vt1 0.448975 0.312500
vt1 0.494873 0.556641
vt1 0.494873 0.312500
vt1 0.540039 0.312500
vt1 0.540039 0.556641
vt1 0.585449 0.312500
vt1 0.585449 0.556641
vt1 0.630859 0.312500
vt1 0.630859 0.556641
vt1 0.676758 0.556641
vt1 0.676758 0.312500
vt1 0.724121 0.556641
vt1 0.724121 0.312500
vt1 0.773926 0.312500
vt1 0.773926 0.556641
vt1 0.825684 0.312500
vt1 0.825684 0.556641
vt1 0.879883 0.556641
vt1 0.879883 0.312500
vt1 0.935059 0.556641
vt1 0.935059 0.312500
vt1 0.991699 0.556641
vt1 0.991699 0.312500
vt1 0.058044 0.260742
vt1 0.008064 0.260742
vt1 0.008064 0.260742
vt1 0.058044 0.260742
vt1 0.111938 0.260742
vt1 0.111938 0.260742
vt1 0.164673 0.260742
vt1 0.164673 0.260742
vt1 0.215698 0.260742
vt1 0.215698 0.260742
vt1 0.264648 0.260742
vt1 0.264648 0.260742
vt1 0.312256 0.260742
vt1 0.312256 0.260742
vt1 0.358398 0.260742
vt1 0.358398 0.260742
vt1 0.404053 0.260742
vt1 0.404053 0.260742
vt1 0.448975 0.260742
vt1 0.448975 0.260742
vt1 0.494873 0.260742
vt1 0.494873 0.260742
vt1 0.540039 0.260742
vt1 0.540039 0.260742
vt1 0.585449 0.260742
vt1 0.585449 0.260742
vt1 0.630859 0.260742
vt1 0.630859 0.260742
vt1 0.676758 0.260742
vt1 0.676758 0.260742
vt1 0.724121 0.260742
vt1 0.724121 0.260742
vt1 0.773926 0.260742
vt1 0.773926 0.260742
vt1 0.825684 0.260742
vt1 0.825684 0.260742
vt1 0.879883 0.260742
vt1 0.879883 0.260742
vt1 0.935059 0.260742
vt1 0.935059 0.260742
vt1 0.991699 0.260742
vt1 0.991699 0.260742
vt1 0.058044 0.021973
vt1 0.008064 0.084961
vt1 0.008064 0.021973
vt1 0.058044 0.084961
vt1 0.111938 0.021973
vt1 0.111938 0.084961
vt1 0.164673 0.021973
vt1 0.164673 0.084961
vt1 0.215698 0.021973
vt1 0.215698 0.084961
vt1 0.264648 0.084961
vt1 0.264648 0.021973
vt1 0.312256 0.021973
vt1 0.312256 0.084961
vt1 0.358398 0.084961
vt1 0.358398 0.021973
vt1 0.404053 0.084961
vt1 0.404053 0.021973
vt1 0.448975 0.084961
vt1 0.448975 0.021973
vt1 0.494873 0.084961
vt1 0.494873 0.021973
vt1 0.540039 0.021973
vt1 0.540039 0.084961
vt1 0.585449 0.021973
vt1 0.585449 0.084961
vt1 0.630859 0.021973
vt1 0.630859 0.084961
vt1 0.676758 0.021973
vt1 0.676758 0.084961
vt1 0.724121 0.084961
vt1 0.724121 0.021973
vt1 0.773926 0.084961
vt1 0.773926 0.021973
vt1 0.825684 0.021973
vt1 0.825684 0.084961
vt1 0.879883 0.021973
vt1 0.879883 0.084961
vt1 0.935059 0.084961
vt1 0.935059 0.021973
vt1 0.991699 0.021973
vt1 0.991699 0.084961
vt1 0.991699 0.662842
vt1 0.935059 0.572266
vt1 0.991699 0.572266
vt1 0.935059 0.662842
vt1 0.879883 0.572266
vt1 0.879883 0.662842
vt1 0.825684 0.572266
vt1 0.825684 0.662842
vt1 0.773926 0.662842
vt1 0.773926 0.572266
vt1 0.724121 0.572266
vt1 0.724121 0.662842
vt1 0.676758 0.572266
vt1 0.676758 0.662842
vt1 0.630859 0.572266
vt1 0.630859 0.662842
vt1 0.585449 0.572266
vt1 0.585449 0.662842
vt1 0.540039 0.572266
vt1 0.540039 0.662842
vt1 0.494873 0.662842
vt1 0.494873 0.572266
vt1 0.448975 0.572266
vt1 0.448975 0.662842
vt1 0.404053 0.662842
vt1 0.404053 0.572266
vt1 0.358398 0.662842
vt1 0.358398 0.572266
vt1 0.312256 0.572266
vt1 0.312256 0.662842
vt1 0.264648 0.662842
vt1 0.264648 0.572266
vt1 0.215698 0.572266
vt1 0.215698 0.662842
vt1 0.164673 0.572266
vt1 0.164673 0.662842
vt1 0.111938 0.572266
vt1 0.111938 0.662842
vt1 0.058044 0.572266
vt1 0.058044 0.662842
vt1 0.008064 0.662842
vt1 0.008064 0.572266
vt1 0.008064 0.260742
vt1 0.058044 0.260742
vt1 0.008064 0.312500
vt1 0.058044 0.312500
vt1 0.111938 0.312500
vt1 0.111938 0.260742
vt1 0.164673 0.260742
vt1 0.164673 0.312500
vt1 0.215698 0.260742
vt1 0.215698 0.312500
vt1 0.264648 0.312500
vt1 0.264648 0.260742
vt1 0.312256 0.260742
vt1 0.312256 0.312500
vt1 0.358398 0.312500
vt1 0.358398 0.260742
vt1 0.404053 0.312500
vt1 0.404053 0.260742
vt1 0.448975 0.260742
vt1 0.448975 0.312500
vt1 0.494873 0.312500
vt1 0.494873 0.260742
vt1 0.540039 0.260742
vt1 0.540039 0.312500
vt1 0.585449 0.312500
vt1 0.585449 0.260742
vt1 0.630859 0.260742
vt1 0.630859 0.312500
vt1 0.676758 0.260742
vt1 0.676758 0.312500
vt1 0.724121 0.312500
vt1 0.724121 0.260742
vt1 0.773926 0.312500
vt1 0.773926 0.260742
vt1 0.825684 0.260742
vt1 0.825684 0.312500
vt1 0.879883 0.312500
vt1 0.879883 0.260742
vt1 0.935059 0.312500
vt1 0.935059 0.260742
vt1 0.991699 0.260742
vt1 0.991699 0.312500
vt1 0.008064 0.084961
vt1 0.058044 0.084961
vt1 0.008064 0.119629
vt1 0.058044 0.119629
vt1 0.111938 0.119629
vt1 0.111938 0.084961
vt1 0.164673 0.084961
vt1 0.164673 0.119629
vt1 0.215698 0.119629
vt1 0.215698 0.084961
vt1 0.264648 0.119629
vt1 0.264648 0.084961
vt1 0.312256 0.084961
vt1 0.312256 0.119629
vt1 0.358398 0.119629
vt1 0.358398 0.084961
vt1 0.404053 0.084961
vt1 0.404053 0.119629
vt1 0.448975 0.084961
vt1 0.448975 0.119629
vt1 0.494873 0.119629
vt1 0.494873 0.084961
vt1 0.540039 0.084961
vt1 0.540039 0.119629
vt1 0.585449 0.119629
vt1 0.585449 0.084961
vt1 0.630859 0.084961
vt1 0.630859 0.119629
vt1 0.676758 0.119629
vt1 0.676758 0.084961
vt1 0.724121 0.119629
vt1 0.724121 0.084961
vt1 0.773926 0.119629
vt1 0.773926 0.084961
vt1 0.825684 0.084961
vt1 0.825684 0.119629
vt1 0.879883 0.084961
vt1 0.879883 0.119629
vt1 0.935059 0.119629
vt1 0.935059 0.084961
vt1 0.991699 0.084961
vt1 0.991699 0.119629
vn 0.000000 1.000000 -0.000000
vn 0.000000 1.000000 -0.000000
vn 0.000000 1.000000 -0.000000
vn 0.000000 1.000000 -0.000000
vn 0.000000 1.000000 -0.000000
vn 0.000000 1.000000 -0.000000
vn 0.000000 1.000000 -0.000000
vn 0.000000 1.000000 -0.000000
vn 0.000000 1.000000 -0.000000
vn 0.000000 1.000000 -0.000000
vn 0.000000 1.000000 -0.000000
vn 0.000000 1.000000 -0.000000
vn 0.000000 1.000000 -0.000000
vn 0.000000 1.000000 -0.000000
vn 0.000000 1.000000 -0.000000
vn 0.000000 1.000000 -0.000000
vn 0.000000 1.000000 -0.000000
vn 0.000000 1.000000 -0.000000
vn 0.000000 1.000000 -0.000000
vn 0.000000 1.000000 -0.000000
vn 0.000000 1.000000 -0.000000
vn 0.000000 1.000000 -0.000000
vn 0.000000 1.000000 -0.000000
vn 0.000000 1.000000 -0.000000
vn 0.000000 1.000000 -0.000000
vn 0.000000 1.000000 -0.000000
vn 0.000000 1.000000 -0.000000
vn 0.000000 1.000000 -0.000000
vn 0.000000 1.000000 -0.000000
vn 0.000000 1.000000 -0.000000
vn 0.000000 1.000000 -0.000000
vn 0.000000 1.000000 -0.000000
vn 0.000000 1.000000 -0.000000
vn 0.000000 1.000000 -0.000000
vn 0.000000 1.000000 -0.000000
vn 0.000000 1.000000 -0.000000
vn 0.000000 1.000000 -0.000000
vn 0.000000 1.000000 -0.000000
vn 0.000000 1.000000 -0.000000
vn 0.000000 1.000000 -0.000000
vn 0.000000 1.000000 -0.000000
vn 0.000000 1.000000 -0.000000
vn 0.000000 -0.007874 1.000000
vn 0.000000 -0.007874 1.000000
vn 0.307087 -0.007874 0.952756
vn 0.307087 -0.007874 0.952756
vn 0.590551 -0.007874 0.811023
vn 0.590551 -0.007874 0.811023
vn 0.811024 -0.007874 0.590551
vn 0.811024 -0.007874 0.590551
vn 0.952756 -0.007874 0.307087
vn 0.952756 -0.007874 0.307087
vn 1.000000 -0.007874 0.000000
vn 1.000000 -0.007874 0.000000
vn 0.952756 -0.007874 -0.307087
vn 0.952756 -0.007874 -0.307087
vn 0.811024 -0.007874 -0.590551
vn 0.811024 -0.007874 -0.590551
vn 0.590551 -0.007874 -0.811023
vn 0.590551 -0.007874 -0.811023
vn 0.307087 -0.007874 -0.952756
vn 0.307087 -0.007874 -0.952756
vn 0.000000 -0.007874 -1.000000
vn 0.000000 -0.007874 -1.000000
vn -0.307087 -0.007874 -0.952756
vn -0.307087 -0.007874 -0.952756
vn -0.590551 -0.007874 -0.811023
vn -0.590551 -0.007874 -0.811023
vn -0.811024 -0.007874 -0.590551
vn -0.811024 -0.007874 -0.590551
vn -0.952756 -0.007874 -0.307087
vn -0.952756 -0.007874 -0.307087
vn -1.000000 -0.007874 0.000000
vn -1.000000 -0.007874 0.000000
vn -0.952756 -0.007874 0.307087
vn -0.952756 -0.007874 0.307087
vn -0.811024 -0.007874 0.590551
vn -0.811024 -0.007874 0.590551
vn -0.590551 -0.007874 0.811023
vn -0.590551 -0.007874 0.811023
vn -0.307087 -0.007874 0.952756
vn -0.307087 -0.007874 0.952756
vn 0.000000 -0.007874 1.000000
vn 0.000000 -0.007874 1.000000
vn 0.000000 -0.708661 0.708661
vn -0.220472 -0.708661 0.669291
vn 0.000000 -0.708661 0.708661
vn -0.220472 -0.708661 0.669291
vn -0.417323 -0.708661 0.574803
vn -0.417323 -0.708661 0.574803
vn -0.574803 -0.708661 0.417323
vn -0.574803 -0.708661 0.417323
vn -0.669291 -0.708661 0.220472
vn -0.669291 -0.708661 0.220472
vn -0.708661 -0.708661 0.000000
vn -0.708661 -0.708661 0.000000
vn -0.669291 -0.708661 -0.220472
vn -0.669291 -0.708661 -0.220472
vn -0.574803 -0.708661 -0.417323
vn -0.574803 -0.708661 -0.417323
vn -0.417323 -0.708661 -0.574803
vn -0.417323 -0.708661 -0.574803
vn -0.220472 -0.708661 -0.669291
vn -0.220472 -0.708661 -0.669291
vn 0.000000 -0.708661 -0.708661
vn 0.000000 -0.708661 -0.708661
vn 0.220472 -0.708661 -0.669291
vn 0.220472 -0.708661 -0.669291
vn 0.417323 -0.708661 -0.574803
vn 0.417323 -0.708661 -0.574803
vn 0.574803 -0.708661 -0.417323
vn 0.574803 -0.708661 -0.417323
vn 0.669291 -0.708661 -0.220472
vn 0.669291 -0.708661 -0.220472
vn 0.708661 -0.708661 0.000000
vn 0.708661 -0.708661 0.000000
vn 0.669291 -0.708661 0.220472
vn 0.669291 -0.708661 0.220472
vn 0.574803 -0.708661 0.417323
vn 0.574803 -0.708661 0.417323
vn 0.417323 -0.708661 0.574803
vn 0.417323 -0.708661 0.574803
vn 0.220472 -0.708661 0.669291
vn 0.220472 -0.708661 0.669291
vn 0.000000 -0.708661 0.708661
vn 0.000000 -0.708661 0.708661
vn 0.000000 0.007874 1.000000
vn -0.307087 0.007874 0.952756
vn 0.000000 0.007874 1.000000
vn -0.307087 0.007874 0.952756
vn -0.590551 0.007874 0.811023
vn -0.590551 0.007874 0.811023
vn -0.811024 0.007874 0.590551
vn -0.811024 0.007874 0.590551
vn -0.952756 0.007874 0.307087
vn -0.952756 0.007874 0.307087
vn -1.000000 0.007874 -0.000000
vn -1.000000 0.007874 -0.000000
vn -0.952756 0.007874 -0.307087
vn -0.952756 0.007874 -0.307087
vn -0.811024 0.007874 -0.590551
vn -0.811024 0.007874 -0.590551
vn -0.590551 0.007874 -0.811023
vn -0.590551 0.007874 -0.811023
vn -0.307087 0.007874 -0.952756
vn -0.307087 0.007874 -0.952756
vn 0.000000 0.007874 -1.000000
vn 0.000000 0.007874 -1.000000
vn 0.307087 0.007874 -0.952756
vn 0.307087 0.007874 -0.952756
vn 0.590551 0.007874 -0.811023
vn 0.590551 0.007874 -0.811023
vn 0.811024 0.007874 -0.590551
vn 0.811024 0.007874 -0.590551
vn 0.952756 0.007874 -0.307087
vn 0.952756 0.007874 -0.307087
vn 1.000000 0.007874 -0.000000
vn 1.000000 0.007874 -0.000000
vn 0.952756 0.007874 0.307087
vn 0.952756 0.007874 0.307087
vn 0.811024 0.007874 0.590551
vn 0.811024 0.007874 0.590551
vn 0.590551 0.007874 0.811023
vn 0.590551 0.007874 0.811023
vn 0.307087 0.007874 0.952756
vn 0.307087 0.007874 0.952756
vn 0.000000 0.007874 1.000000
vn 0.000000 0.007874 1.000000
vn -0.307087 0.000000 0.952756
vn 0.000000 0.000000 1.000000
vn 0.000000 0.000000 1.000000
vn -0.307087 0.000000 0.952756
vn -0.590551 0.000000 0.811023
vn -0.590551 0.000000 0.811023
vn -0.811024 0.000000 0.590551
vn -0.811024 0.000000 0.590551
vn -0.952756 0.000000 0.307087
vn -0.952756 0.000000 0.307087
vn -1.000000 0.000000 0.000000
vn -1.000000 0.000000 0.000000
vn -0.952756 -0.000000 -0.307087
vn -0.952756 -0.000000 -0.307087
vn -0.811024 -0.000000 -0.590551
vn -0.811024 -0.000000 -0.590551
vn -0.590551 -0.000000 -0.811023
vn -0.590551 -0.000000 -0.811023
vn -0.307087 -0.000000 -0.952756
vn -0.307087 -0.000000 -0.952756
vn 0.000000 -0.000000 -1.000000
vn 0.000000 -0.000000 -1.000000
vn 0.307087 -0.000000 -0.952756
vn 0.307087 -0.000000 -0.952756
vn 0.590551 -0.000000 -0.811023
vn 0.590551 -0.000000 -0.811023
vn 0.811024 -0.000000 -0.590551
vn 0.811024 -0.000000 -0.590551
vn 0.952756 -0.000000 -0.307087
vn 0.952756 -0.000000 -0.307087
vn 1.000000 0.000000 0.000000
vn 1.000000 0.000000 0.000000
vn 0.952756 0.000000 0.307087
vn 0.952756 0.000000 0.307087
vn 0.811024 0.000000 0.590551
vn 0.811024 0.000000 0.590551
vn 0.590551 0.000000 0.811023
vn 0.590551 0.000000 0.811023
vn 0.307087 0.000000 0.952756
vn 0.307087 0.000000 0.952756
vn 0.000000 0.000000 1.000000
vn 0.000000 0.000000 1.000000
vn 0.000000 -1.000000 -0.007874
vn 0.000000 -1.000000 -0.023622
vn 0.000000 -1.000000 -0.023622
vn 0.000000 -1.000000 -0.007874
vn 0.000000 -1.000000 0.007874
vn 0.000000 -1.000000 0.007874
vn 0.000000 -1.000000 0.000000
vn 0.000000 -1.000000 0.000000
vn 0.000000 -1.000000 0.000000
vn 0.000000 -1.000000 0.000000
vn 0.000000 -1.000000 0.000000
vn 0.000000 -1.000000 0.000000
vn 0.000000 -1.000000 0.000000
vn 0.000000 -1.000000 0.000000
vn 0.000000 -1.000000 0.000000
vn 0.000000 -1.000000 0.000000
vn 0.000000 -1.000000 0.007874
vn 0.000000 -1.000000 0.007874
vn 0.000000 -1.000000 0.015748
vn 0.000000 -1.000000 0.015748
vn 0.000000 -1.000000 0.031496
vn 0.000000 -1.000000 0.031496
vn 0.000000 -1.000000 0.015748
vn 0.000000 -1.000000 0.015748
vn 0.000000 -1.000000 -0.007874
vn 0.000000 -1.000000 -0.007874
vn 0.000000 -1.000000 0.000000
vn 0.000000 -1.000000 0.000000
vn 0.000000 -1.000000 0.000000
vn 0.000000 -1.000000 0.000000
vn 0.000000 -1.000000 0.000000
vn 0.000000 -1.000000 0.000000
vn 0.000000 -1.000000 0.000000
vn 0.000000 -1.000000 0.000000
vn 0.000000 -1.000000 0.000000
vn 0.000000 -1.000000 0.000000
vn 0.000000 -1.000000 -0.007874
vn 0.000000 -1.000000 -0.007874
vn 0.000000 -1.000000 -0.015748
vn 0.000000 -1.000000 -0.015748
vn 0.000000 -1.000000 -0.023622
vn 0.000000 -1.000000 -0.023622
vn 0.000000 -1.000000 0.000000
vn 0.000000 -1.000000 0.000000
vn 0.000000 -1.000000 0.000000
vn 0.000000 -1.000000 0.000000
vn 0.000000 -1.000000 0.000000
vn 0.000000 -1.000000 0.000000
vn 0.000000 -1.000000 0.000000
vn 0.000000 -1.000000 0.000000
vn 0.000000 -1.000000 0.000000
vn 0.000000 -1.000000 0.000000
vn 0.000000 -1.000000 0.000000
vn 0.000000 -1.000000 0.000000
vn 0.000000 -1.000000 0.000000
vn 0.000000 -1.000000 0.000000
vn 0.000000 -1.000000 0.000000
vn 0.000000 -1.000000 0.000000
vn 0.000000 -1.000000 0.000000
vn 0.000000 -1.000000 0.000000
vn 0.000000 -1.000000 0.000000
vn 0.000000 -1.000000 0.000000
vn 0.000000 -1.000000 0.000000
vn 0.000000 -1.000000 0.000000
vn 0.000000 -1.000000 0.000000
vn 0.000000 -1.000000 0.000000
vn 0.000000 -1.000000 0.000000
vn 0.000000 -1.000000 0.000000
vn 0.000000 -1.000000 0.000000
vn 0.000000 -1.000000 0.000000
vn 0.000000 -1.000000 0.000000
vn 0.000000 -1.000000 0.000000
vn 0.000000 -1.000000 0.000000
vn 0.000000 -1.000000 0.000000
vn 0.000000 -1.000000 0.000000
vn 0.000000 -1.000000 0.000000
vn 0.000000 -1.000000 0.000000
vn 0.000000 -1.000000 0.000000
vn 0.000000 -1.000000 0.000000
vn 0.000000 -1.000000 0.000000
vn 0.000000 -1.000000 0.000000
vn 0.000000 -1.000000 0.000000
vn 0.000000 -1.000000 0.000000
vn 0.000000 -1.000000 0.000000
vn 0.000000 -1.000000 0.007874
vn 0.000000 -1.000000 0.007874
vn 0.000000 -1.000000 0.007874
vn 0.000000 -1.000000 0.007874
vn 0.000000 -1.000000 0.007874
vn 0.000000 -1.000000 0.007874
vn 0.007874 -1.000000 0.000000
vn 0.007874 -1.000000 0.000000
vn 0.007874 -1.000000 0.000000
vn 0.007874 -1.000000 0.000000
vn 0.007874 -1.000000 0.000000
vn 0.007874 -1.000000 0.000000
vn 0.007874 -1.000000 0.000000
vn 0.007874 -1.000000 0.000000
vn 0.007874 -1.000000 0.000000
vn 0.007874 -1.000000 0.000000
vn 0.000000 -1.000000 -0.007874
vn 0.000000 -1.000000 -0.007874
vn 0.000000 -1.000000 -0.007874
vn 0.000000 -1.000000 -0.007874
vn 0.000000 -1.000000 -0.007874
vn 0.000000 -1.000000 -0.007874
vn 0.000000 -1.000000 -0.007874
vn 0.000000 -1.000000 -0.007874
vn 0.000000 -1.000000 -0.007874
vn 0.000000 -1.000000 -0.007874
vn -0.007874 -1.000000 0.000000
vn -0.007874 -1.000000 0.000000
vn -0.007874 -1.000000 0.000000
vn -0.007874 -1.000000 0.000000
vn -0.007874 -1.000000 0.000000
vn -0.007874 -1.000000 0.000000
vn -0.007874 -1.000000 0.000000
vn -0.007874 -1.000000 0.000000
vn -0.007874 -1.000000 0.000000
vn -0.007874 -1.000000 0.000000
vn 0.000000 -1.000000 0.007874
vn 0.000000 -1.000000 0.007874
vn 0.000000 -1.000000 0.007874
vn 0.000000 -1.000000 0.007874
vn 0.000000 -1.000000 0.007874
vn 0.000000 -1.000000 0.007874
vn 0.000000 -0.708661 0.700787
vn -0.220472 -0.708661 0.669291
vn 0.000000 -0.708661 0.700787
vn -0.220472 -0.708661 0.669291
vn -0.409449 -0.708661 0.566929
vn -0.409449 -0.708661 0.566929
vn -0.566929 -0.708661 0.409449
vn -0.566929 -0.708661 0.409449
vn -0.669291 -0.708661 0.220472
vn -0.669291 -0.708661 0.220472
vn -0.700787 -0.708661 0.000000
vn -0.700787 -0.708661 0.000000
vn -0.669291 -0.708661 -0.220472
vn -0.669291 -0.708661 -0.220472
vn -0.566929 -0.708661 -0.409449
vn -0.566929 -0.708661 -0.409449
vn -0.409449 -0.708661 -0.566929
vn -0.409449 -0.708661 -0.566929
vn -0.220472 -0.708661 -0.669291
vn -0.220472 -0.708661 -0.669291
vn 0.000000 -0.708661 -0.700787
vn 0.000000 -0.708661 -0.700787
vn 0.220472 -0.708661 -0.669291
vn 0.220472 -0.708661 -0.669291
vn 0.409449 -0.708661 -0.566929
vn 0.409449 -0.708661 -0.566929
vn 0.566929 -0.708661 -0.409449
vn 0.566929 -0.708661 -0.409449
vn 0.669291 -0.708661 -0.220472
vn 0.669291 -0.708661 -0.220472
vn 0.700787 -0.708661 0.000000
vn 0.700787 -0.708661 0.000000
vn 0.669291 -0.708661 0.220472
vn 0.669291 -0.708661 0.220472
vn 0.566929 -0.708661 0.409449
vn 0.566929 -0.708661 0.409449
vn 0.409449 -0.708661 0.566929
vn 0.409449 -0.708661 0.566929
vn 0.220472 -0.708661 0.669291
vn 0.220472 -0.708661 0.669291
vn 0.000000 -0.708661 0.700787
vn 0.000000 -0.708661 0.700787
vn 0.000000 -0.716535 0.700787
vn -0.212598 -0.716535 0.669291
vn 0.000000 -0.716535 0.700787
vn -0.212598 -0.716535 0.669291
vn -0.409449 -0.716535 0.566929
vn -0.409449 -0.716535 0.566929
vn -0.566929 -0.716535 0.409449
vn -0.566929 -0.716535 0.409449
vn -0.669291 -0.716535 0.212598
vn -0.669291 -0.716535 0.212598
vn -0.700787 -0.716535 0.000000
vn -0.700787 -0.716535 0.000000
vn -0.669291 -0.716535 -0.212598
vn -0.669291 -0.716535 -0.212598
vn -0.566929 -0.716535 -0.409449
vn -0.566929 -0.716535 -0.409449
vn -0.409449 -0.716535 -0.566929
vn -0.409449 -0.716535 -0.566929
vn -0.212598 -0.716535 -0.669291
vn -0.212598 -0.716535 -0.669291
vn 0.000000 -0.716535 -0.700787
vn 0.000000 -0.716535 -0.700787
vn 0.212598 -0.716535 -0.669291
vn 0.212598 -0.716535 -0.669291
vn 0.409449 -0.716535 -0.566929
vn 0.409449 -0.716535 -0.566929
vn 0.566929 -0.716535 -0.409449
vn 0.566929 -0.716535 -0.409449
vn 0.669291 -0.716535 -0.212598
vn 0.669291 -0.716535 -0.212598
vn 0.700787 -0.716535 0.000000
vn 0.700787 -0.716535 0.000000
vn 0.669291 -0.716535 0.212598
vn 0.669291 -0.716535 0.212598
vn 0.566929 -0.716535 0.409449
vn 0.566929 -0.716535 0.409449
vn 0.409449 -0.716535 0.566929
vn 0.409449 -0.716535 0.566929
vn 0.212598 -0.716535 0.669291
vn 0.212598 -0.716535 0.669291
vn 0.000000 -0.716535 0.700787
vn 0.000000 -0.716535 0.700787
tan 0.157480 0.000000 0.984252 1.000000
tan 0.157480 0.000000 0.984252 1.000000
tan 0.307087 0.000000 0.952756 1.000000
tan 0.307087 0.000000 0.952756 1.000000
tan 0.590551 0.000000 0.811023 1.000000
tan 0.590551 0.000000 0.811023 1.000000
tan 0.811024 0.000000 0.590551 1.000000
tan 0.811024 0.000000 0.590551 1.000000
tan 0.952756 0.000000 0.307087 1.000000
tan 0.952756 0.000000 0.307087 1.000000
tan 1.000000 0.000000 0.000000 1.000000
tan 1.000000 0.000000 0.000000 1.000000
tan 0.952756 -0.000000 -0.307087 1.000000
tan 0.952756 -0.000000 -0.307087 1.000000
tan 0.811024 -0.000000 -0.590551 1.000000
tan 0.811024 -0.000000 -0.590551 1.000000
tan 0.590551 -0.000000 -0.811023 1.000000
tan 0.590551 -0.000000 -0.811023 1.000000
tan 0.307087 -0.000000 -0.952756 1.000000
tan 0.307087 -0.000000 -0.952756 1.000000
tan 0.000000 -0.000000 -1.000000 1.000000
tan 0.000000 -0.000000 -1.000000 1.000000
tan -0.307087 -0.000000 -0.952756 1.000000
tan -0.307087 -0.000000 -0.952756 1.000000
tan -0.590551 -0.000000 -0.811023 1.000000
tan -0.590551 -0.000000 -0.811023 1.000000
tan -0.811024 -0.000000 -0.590551 1.000000
tan -0.811024 -0.000000 -0.590551 1.000000
tan -0.952756 -0.000000 -0.307087 1.000000
tan -0.952756 -0.000000 -0.307087 1.000000
tan -1.000000 0.000000 0.000000 1.000000
tan -1.000000 0.000000 0.000000 1.000000
tan -0.952756 0.000000 0.307087 1.000000
tan -0.952756 0.000000 0.307087 1.000000
tan -0.811024 0.000000 0.590551 1.000000
tan -0.811024 0.000000 0.590551 1.000000
tan -0.590551 0.000000 0.811023 1.000000
tan -0.590551 0.000000 0.811023 1.000000
tan -0.307087 0.000000 0.952756 1.000000
tan -0.307087 0.000000 0.952756 1.000000
tan -0.157480 0.000000 0.984252 1.000000
tan -0.157480 0.000000 0.984252 1.000000
tan 0.000000 -1.000000 -0.007874 1.000000
tan 0.000000 -1.000000 -0.007874 1.000000
tan -0.002418 -1.002046 -0.007502 1.000000
tan -0.002418 -1.002046 -0.007502 1.000000
tan -0.004650 -1.006510 -0.006386 1.000000
tan -0.004650 -1.006510 -0.006386 1.000000
tan -0.006386 -1.006510 -0.004650 1.000000
tan -0.006386 -1.006510 -0.004650 1.000000
tan -0.007502 -1.002046 -0.002418 1.000000
tan -0.007502 -1.002046 -0.002418 1.000000
tan -0.007874 -1.000000 0.000000 1.000000
tan -0.007874 -1.000000 0.000000 1.000000
tan -0.007502 -1.002046 0.002418 1.000000
tan -0.007502 -1.002046 0.002418 1.000000
tan -0.006386 -1.006510 0.004650 1.000000
tan -0.006386 -1.006510 0.004650 1.000000
tan -0.004650 -1.006510 0.006386 1.000000
tan -0.004650 -1.006510 0.006386 1.000000
tan -0.002418 -1.002046 0.007502 1.000000
tan -0.002418 -1.002046 0.007502 1.000000
tan 0.000000 -1.000000 0.007874 1.000000
tan 0.000000 -1.000000 0.007874 1.000000
tan 0.002418 -1.002046 0.007502 1.000000
tan 0.002418 -1.002046 0.007502 1.000000
tan 0.004650 -1.006510 0.006386 1.000000
tan 0.004650 -1.006510 0.006386 1.000000
tan 0.006386 -1.006510 0.004650 1.000000
tan 0.006386 -1.006510 0.004650 1.000000
tan 0.007502 -1.002046 0.002418 1.000000
tan 0.007502 -1.002046 0.002418 1.000000
tan 0.007874 -1.000000 0.000000 1.000000
tan 0.007874 -1.000000 0.000000 1.000000
tan 0.007502 -1.002046 -0.002418 1.000000
tan 0.007502 -1.002046 -0.002418 1.000000
tan 0.006386 -1.006510 -0.004650 1.000000
tan 0.006386 -1.006510 -0.004650 1.000000
tan 0.004650 -1.006510 -0.006386 1.000000
tan 0.004650 -1.006510 -0.006386 1.000000
tan 0.002418 -1.002046 -0.007502 1.000000
tan 0.002418 -1.002046 -0.007502 1.000000
tan 0.000000 -1.000000 -0.007874 1.000000
tan 0.000000 -1.000000 -0.007874 1.000000
tan 0.111600 -0.703081 -0.703081 1.000000
tan 0.217620 -0.705375 -0.675181 1.000000
tan 0.111600 -0.703081 -0.703081 1.000000
tan 0.217620 -0.705375 -0.675181 1.000000
tan 0.418501 -0.712629 -0.574741 1.000000
tan 0.418501 -0.712629 -0.574741 1.000000
tan 0.574741 -0.712629 -0.418501 1.000000
tan 0.574741 -0.712629 -0.418501 1.000000
tan 0.675181 -0.705375 -0.217620 1.000000
tan 0.675181 -0.705375 -0.217620 1.000000
tan 0.708661 -0.708661 0.000000 1.000000
tan 0.708661 -0.708661 0.000000 1.000000
tan 0.675181 -0.705375 0.217621 1.000000
tan 0.675181 -0.705375 0.217621 1.000000
tan 0.574741 -0.712629 0.418501 1.000000
tan 0.574741 -0.712629 0.418501 1.000000
tan 0.418501 -0.712629 0.574741 1.000000
tan 0.418501 -0.712629 0.574741 1.000000
tan 0.217620 -0.705375 0.675181 1.000000
tan 0.217620 -0.705375 0.675181 1.000000
tan 0.000000 -0.708661 0.708661 1.000000
tan 0.000000 -0.708661 0.708661 1.000000
tan -0.217620 -0.705375 0.675181 1.000000
tan -0.217620 -0.705375 0.675181 1.000000
tan -0.418501 -0.712629 0.574741 1.000000
tan -0.418501 -0.712629 0.574741 1.000000
tan -0.574741 -0.712629 0.418501 1.000000
tan -0.574741 -0.712629 0.418501 1.000000
tan -0.675181 -0.705375 0.217621 1.000000
tan -0.675181 -0.705375 0.217621 1.000000
tan -0.708661 -0.708661 0.000000 1.000000
tan -0.708661 -0.708661 0.000000 1.000000
tan -0.675181 -0.705375 -0.217620 1.000000
tan -0.675181 -0.705375 -0.217620 1.000000
tan -0.574741 -0.712629 -0.418501 1.000000
tan -0.574741 -0.712629 -0.418501 1.000000
tan -0.418501 -0.712629 -0.574741 1.000000
tan -0.418501 -0.712629 -0.574741 1.000000
tan -0.217620 -0.705375 -0.675181 1.000000
tan -0.217620 -0.705375 -0.675181 1.000000
tan -0.111600 -0.703081 -0.703081 1.000000
tan -0.111600 -0.703081 -0.703081 1.000000
tan 0.000000 -1.000000 0.007874 1.000000
tan -0.002418 -1.002046 0.007502 1.000000
tan 0.000000 -1.000000 0.007874 1.000000
tan -0.002418 -1.002046 0.007502 1.000000
tan -0.004650 -1.006510 0.006386 1.000000
tan -0.004650 -1.006510 0.006386 1.000000
tan -0.006386 -1.006510 0.004650 1.000000
tan -0.006386 -1.006510 0.004650 1.000000
tan -0.007502 -1.002046 0.002418 1.000000
tan -0.007502 -1.002046 0.002418 1.000000
tan -0.007874 -1.000000 0.000000 1.000000
tan -0.007874 -1.000000 0.000000 1.000000
tan -0.007502 -1.002046 -0.002418 1.000000
tan -0.007502 -1.002046 -0.002418 1.000000
tan -0.006386 -1.006510 -0.004650 1.000000
tan -0.006386 -1.006510 -0.004650 1.000000
tan -0.004650 -1.006510 -0.006386 1.000000
tan -0.004650 -1.006510 -0.006386 1.000000
tan -0.002418 -1.002046 -0.007502 1.000000
tan -0.002418 -1.002046 -0.007502 1.000000
tan 0.000000 -1.000000 -0.007874 1.000000
tan 0.000000 -1.000000 -0.007874 1.000000
tan 0.002418 -1.002046 -0.007502 1.000000
tan 0.002418 -1.002046 -0.007502 1.000000
tan 0.004650 -1.006510 -0.006386 1.000000
tan 0.004650 -1.006510 -0.006386 1.000000
tan 0.006386 -1.006510 -0.004650 1.000000
tan 0.006386 -1.006510 -0.004650 1.000000
tan 0.007502 -1.002046 -0.002418 1.000000
tan 0.007502 -1.002046 -0.002418 1.000000
tan 0.007874 -1.000000 0.000000 1.000000
tan 0.007874 -1.000000 0.000000 1.000000
tan 0.007502 -1.002046 0.002418 1.000000
tan 0.007502 -1.002046 0.002418 1.000000
tan 0.006386 -1.006510 0.004650 1.000000
tan 0.006386 -1.006510 0.004650 1.000000
tan 0.004650 -1.006510 0.006386 1.000000
tan 0.004650 -1.006510 0.006386 1.000000
tan 0.002418 -1.002046 0.007502 1.000000
tan 0.002418 -1.002046 0.007502 1.000000
tan 0.000000 -1.000000 0.007874 1.000000
tan 0.000000 -1.000000 0.007874 1.000000
tan 0.000000 -1.002046 0.000000 1.000000
tan 0.000000 -1.000000 0.000000 1.000000
tan 0.000000 -1.000000 0.000000 1.000000
tan 0.000000 -1.002046 0.000000 1.000000
tan 0.000000 -1.006510 0.000000 1.000000
tan 0.000000 -1.006510 0.000000 1.000000
tan 0.000000 -1.006510 0.000000 1.000000
tan 0.000000 -1.006510 0.000000 1.000000
tan 0.000000 -1.002046 0.000000 1.000000
tan 0.000000 -1.002046 0.000000 1.000000
tan 0.000000 -1.000000 0.000000 1.000000
tan 0.000000 -1.000000 0.000000 1.000000
tan 0.000000 -1.002046 0.000000 1.000000
tan 0.000000 -1.002046 0.000000 1.000000
tan 0.000000 -1.006510 0.000000 1.000000
tan 0.000000 -1.006510 0.000000 1.000000
tan 0.000000 -1.006510 0.000000 1.000000
tan 0.000000 -1.006510 0.000000 1.000000
tan 0.000000 -1.002046 0.000000 1.000000
tan 0.000000 -1.002046 0.000000 1.000000
tan 0.000000 -1.000000 0.000000 1.000000
tan 0.000000 -1.000000 0.000000 1.000000
tan 0.000000 -1.002046 0.000000 1.000000
tan 0.000000 -1.002046 0.000000 1.000000
tan 0.000000 -1.006510 0.000000 1.000000
tan 0.000000 -1.006510 0.000000 1.000000
tan 0.000000 -1.006510 0.000000 1.000000
tan 0.000000 -1.006510 0.000000 1.000000
tan 0.000000 -1.002046 0.000000 1.000000
tan 0.000000 -1.002046 0.000000 1.000000
tan 0.000000 -1.000000 0.000000 1.000000
tan 0.000000 -1.000000 0.000000 1.000000
tan 0.000000 -1.002046 0.000000 1.000000
tan 0.000000 -1.002046 0.000000 1.000000
tan 0.000000 -1.006510 0.000000 1.000000
tan 0.000000 -1.006510 0.000000 1.000000
tan 0.000000 -1.006510 0.000000 1.000000
tan 0.000000 -1.006510 0.000000 1.000000
tan 0.000000 -1.002046 0.000000 1.000000
tan 0.000000 -1.002046 0.000000 1.000000
tan 0.000000 -1.000000 0.000000 1.000000
tan 0.000000 -1.000000 0.000000 1.000000
tan 0.307087 0.007502 -0.952756 1.000000
tan 0.157666 0.023250 -0.984252 1.000000
tan 0.157666 0.023250 -0.984252 1.000000
tan 0.307087 0.007502 -0.952756 1.000000
tan 0.590613 -0.006386 -0.811023 1.000000
tan 0.590613 -0.006386 -0.811023 1.000000
tan 0.811024 -0.000000 -0.590551 1.000000
tan 0.811024 -0.000000 -0.590551 1.000000
tan 0.952756 -0.000000 -0.307087 1.000000
tan 0.952756 -0.000000 -0.307087 1.000000
tan 1.000000 0.000000 0.000000 1.000000
tan 1.000000 0.000000 0.000000 1.000000
tan 0.952756 0.000000 0.307087 1.000000
tan 0.952756 0.000000 0.307087 1.000000
tan 0.811024 0.000000 0.590551 1.000000
tan 0.811024 0.000000 0.590551 1.000000
tan 0.590613 0.006386 0.811023 1.000000
tan 0.590613 0.006386 0.811023 1.000000
tan 0.307211 0.015004 0.952756 1.000000
tan 0.307211 0.015004 0.952756 1.000000
tan 0.000000 0.031496 1.000000 1.000000
tan 0.000000 0.031496 1.000000 1.000000
tan -0.307211 0.015004 0.952756 1.000000
tan -0.307211 0.015004 0.952756 1.000000
tan -0.590613 -0.006386 0.811023 1.000000
tan -0.590613 -0.006386 0.811023 1.000000
tan -0.811024 0.000000 0.590551 1.000000
tan -0.811024 0.000000 0.590551 1.000000
tan -0.952756 0.000000 0.307087 1.000000
tan -0.952756 0.000000 0.307087 1.000000
tan -1.000000 0.000000 0.000000 1.000000
tan -1.000000 0.000000 0.000000 1.000000
tan -0.952756 -0.000000 -0.307087 1.000000
tan -0.952756 -0.000000 -0.307087 1.000000
tan -0.811024 -0.000000 -0.590551 1.000000
tan -0.811024 -0.000000 -0.590551 1.000000
tan -0.590613 0.006386 -0.811023 1.000000
tan -0.590613 0.006386 -0.811023 1.000000
tan -0.307211 0.015004 -0.952756 1.000000
tan -0.307211 0.015004 -0.952756 1.000000
tan -0.157666 0.023250 -0.984252 1.000000
tan -0.157666 0.023250 -0.984252 1.000000
tan 0.307087 -0.000000 -0.952756 1.000000
tan 0.157480 -0.000000 -0.984252 1.000000
tan 0.157480 -0.000000 -0.984252 1.000000
tan 0.307087 -0.000000 -0.952756 1.000000
tan 0.590551 -0.000000 -0.811023 1.000000
tan 0.590551 -0.000000 -0.811023 1.000000
tan 0.811024 -0.000000 -0.590551 1.000000
tan 0.811024 -0.000000 -0.590551 1.000000
tan 0.952756 -0.000000 -0.307087 1.000000
tan 0.952756 -0.000000 -0.307087 1.000000
tan 1.000000 0.000000 0.000000 1.000000
tan 1.000000 0.000000 0.000000 1.000000
tan 0.952756 0.000000 0.307087 1.000000
tan 0.952756 0.000000 0.307087 1.000000
tan 0.811024 0.000000 0.590551 1.000000
tan 0.811024 0.000000 0.590551 1.000000
tan 0.590551 0.000000 0.811023 1.000000
tan 0.590551 0.000000 0.811023 1.000000
tan 0.307087 0.000000 0.952756 1.000000
tan 0.307087 0.000000 0.952756 1.000000
tan 0.000000 0.000000 1.000000 1.000000
tan 0.000000 0.000000 1.000000 1.000000
tan -0.307087 0.000000 0.952756 1.000000
tan -0.307087 0.000000 0.952756 1.000000
tan -0.590551 0.000000 0.811023 1.000000
tan -0.590551 0.000000 0.811023 1.000000
tan -0.811024 0.000000 0.590551 1.000000
tan -0.811024 0.000000 0.590551 1.000000
tan -0.952756 0.000000 0.307087 1.000000
tan -0.952756 0.000000 0.307087 1.000000
tan -1.000000 0.000000 0.000000 1.000000
tan -1.000000 0.000000 0.000000 1.000000
tan -0.952756 -0.000000 -0.307087 1.000000
tan -0.952756 -0.000000 -0.307087 1.000000
tan -0.811024 -0.000000 -0.590551 1.000000
tan -0.811024 -0.000000 -0.590551 1.000000
tan -0.590551 -0.000000 -0.811023 1.000000
tan -0.590551 -0.000000 -0.811023 1.000000
tan -0.307087 -0.000000 -0.952756 1.000000
tan -0.307087 -0.000000 -0.952756 1.000000
tan -0.157480 -0.000000 -0.984252 1.000000
tan -0.157480 -0.000000 -0.984252 1.000000
tan -0.157480 -0.007750 -0.984252 1.000000
tan -0.307087 -0.007502 -0.952756 1.000000
tan -0.157480 -0.007750 -0.984252 1.000000
tan -0.307087 -0.007502 -0.952756 1.000000
tan -0.590551 -0.006386 -0.811023 1.000000
tan -0.590551 -0.006386 -0.811023 1.000000
tan -0.811024 -0.006386 -0.590551 1.000000
tan -0.811024 -0.006386 -0.590551 1.000000
tan -0.952756 -0.007502 -0.307087 1.000000
tan -0.952756 -0.007502 -0.307087 1.000000
tan -1.000000 -0.007874 0.000000 1.000000
tan -1.000000 -0.007874 0.000000 1.000000
tan -0.952756 -0.007502 0.307087 1.000000
tan -0.952756 -0.007502 0.307087 1.000000
tan -0.811024 -0.006386 0.590551 1.000000
tan -0.811024 -0.006386 0.590551 1.000000
tan -0.590551 -0.006386 0.811023 1.000000
tan -0.590551 -0.006386 0.811023 1.000000
tan -0.307087 -0.007502 0.952756 1.000000
tan -0.307087 -0.007502 0.952756 1.000000
tan 0.000000 -0.007874 1.000000 1.000000
tan 0.000000 -0.007874 1.000000 1.000000
tan 0.307087 -0.007502 0.952756 1.000000
tan 0.307087 -0.007502 0.952756 1.000000
tan 0.590551 -0.006386 0.811023 1.000000
tan 0.590551 -0.006386 0.811023 1.000000
tan 0.811024 -0.006386 0.590551 1.000000
tan 0.811024 -0.006386 0.590551 1.000000
tan 0.952756 -0.007502 0.307087 1.000000
tan 0.952756 -0.007502 0.307087 1.000000
tan 1.000000 -0.007874 0.000000 1.000000
tan 1.000000 -0.007874 0.000000 1.000000
tan 0.952756 -0.007502 -0.307087 1.000000
tan 0.952756 -0.007502 -0.307087 1.000000
tan 0.811024 -0.006386 -0.590551 1.000000
tan 0.811024 -0.006386 -0.590551 1.000000
tan 0.590551 -0.006386 -0.811023 1.000000
tan 0.590551 -0.006386 -0.811023 1.000000
tan 0.307087 -0.007502 -0.952756 1.000000
tan 0.307087 -0.007502 -0.952756 1.000000
tan 0.157480 -0.007750 -0.984252 1.000000
tan 0.157480 -0.007750 -0.984252 1.000000
tan 0.110980 -0.695269 -0.703081 1.000000
tan 0.217620 -0.705375 -0.675181 1.000000
tan 0.110980 -0.695269 -0.703081 1.000000
tan 0.217620 -0.705375 -0.675181 1.000000
tan 0.418501 -0.701593 -0.574741 1.000000
tan 0.418501 -0.701593 -0.574741 1.000000
tan 0.574741 -0.701593 -0.418501 1.000000
tan 0.574741 -0.701593 -0.418501 1.000000
tan 0.675181 -0.705375 -0.217620 1.000000
tan 0.675181 -0.705375 -0.217620 1.000000
tan 0.708661 -0.700787 0.000000 1.000000
tan 0.708661 -0.700787 0.000000 1.000000
tan 0.675181 -0.705375 0.217621 1.000000
tan 0.675181 -0.705375 0.217621 1.000000
tan 0.574741 -0.701593 0.418501 1.000000
tan 0.574741 -0.701593 0.418501 1.000000
tan 0.418501 -0.701593 0.574741 1.000000
tan 0.418501 -0.701593 0.574741 1.000000
tan 0.217620 -0.705375 0.675181 1.000000
tan 0.217620 -0.705375 0.675181 1.000000
tan 0.000000 -0.700787 0.708661 1.000000
tan 0.000000 -0.700787 0.708661 1.000000
tan -0.217620 -0.705375 0.675181 1.000000
tan -0.217620 -0.705375 0.675181 1.000000
tan -0.418501 -0.701593 0.574741 1.000000
tan -0.418501 -0.701593 0.574741 1.000000
tan -0.574741 -0.701593 0.418501 1.000000
tan -0.574741 -0.701593 0.418501 1.000000
tan -0.675181 -0.705375 0.217621 1.000000
tan -0.675181 -0.705375 0.217621 1.000000
tan -0.708661 -0.700787 0.000000 1.000000
tan -0.708661 -0.700787 0.000000 1.000000
tan -0.675181 -0.705375 -0.217620 1.000000
tan -0.675181 -0.705375 -0.217620 1.000000
tan -0.574741 -0.701593 -0.418501 1.000000
tan -0.574741 -0.701593 -0.418501 1.000000
tan -0.418501 -0.701593 -0.574741 1.000000
tan -0.418501 -0.701593 -0.574741 1.000000
tan -0.217620 -0.705375 -0.675181 1.000000
tan -0.217620 -0.705375 -0.675181 1.000000
tan -0.110980 -0.695269 -0.703081 1.000000
tan -0.110980 -0.695269 -0.703081 1.000000
tan 0.111600 -0.695269 -0.710893 1.000000
tan 0.220038 -0.702957 -0.682683 1.000000
tan 0.111600 -0.695269 -0.710893 1.000000
tan 0.220038 -0.702957 -0.682683 1.000000
tan 0.423151 -0.701593 -0.581127 1.000000
tan 0.423151 -0.701593 -0.581127 1.000000
tan 0.581127 -0.701593 -0.423151 1.000000
tan 0.581127 -0.701593 -0.423151 1.000000
tan 0.682683 -0.702957 -0.220038 1.000000
tan 0.682683 -0.702957 -0.220038 1.000000
tan 0.716535 -0.700787 0.000000 1.000000
tan 0.716535 -0.700787 0.000000 1.000000
tan 0.682683 -0.702957 0.220039 1.000000
tan 0.682683 -0.702957 0.220039 1.000000
tan 0.581127 -0.701593 0.423151 1.000000
tan 0.581127 -0.701593 0.423151 1.000000
tan 0.423151 -0.701593 0.581127 1.000000
tan 0.423151 -0.701593 0.581127 1.000000
tan 0.220038 -0.702957 0.682683 1.000000
tan 0.220038 -0.702957 0.682683 1.000000
tan 0.000000 -0.700787 0.716535 1.000000
tan 0.000000 -0.700787 0.716535 1.000000
tan -0.220038 -0.702957 0.682683 1.000000
tan -0.220038 -0.702957 0.682683 1.000000
tan -0.423151 -0.701593 0.581127 1.000000
tan -0.423151 -0.701593 0.581127 1.000000
tan -0.581127 -0.701593 0.423151 1.000000
tan -0.581127 -0.701593 0.423151 1.000000
tan -0.682683 -0.702957 0.220039 1.000000
tan -0.682683 -0.702957 0.220039 1.000000
tan -0.716535 -0.700787 0.000000 1.000000
tan -0.716535 -0.700787 0.000000 1.000000
tan -0.682683 -0.702957 -0.220038 1.000000
tan -0.682683 -0.702957 -0.220038 1.000000
tan -0.581127 -0.701593 -0.423151 1.000000
tan -0.581127 -0.701593 -0.423151 1.000000
tan -0.423151 -0.701593 -0.581127 1.000000
tan -0.423151 -0.701593 -0.581127 1.000000
tan -0.220038 -0.702957 -0.682683 1.000000
tan -0.220038 -0.702957 -0.682683 1.000000
tan -0.111600 -0.695269 -0.710893 1.000000
tan -0.111600 -0.695269 -0.710893 1.000000
f 3/3/3 2/2/2 1/1/1
f 1/1/1 4/4/4 3/3/3
f 5/5/5 3/3/3 4/4/4
f 6/6/6 5/5/5 4/4/4
f 6/6/6 7/7/7 5/5/5
f 8/8/8 5/5/5 7/7/7
f 8/8/8 7/7/7 9/9/9
f 10/10/10 9/9/9 7/7/7
f 9/9/9 10/10/10 11/11/11
f 11/11/11 10/10/10 12/12/12
f 11/11/11 12/12/12 13/13/13
f 12/12/12 14/14/14 13/13/13
f 14/14/14 15/15/15 13/13/13
f 16/16/16 13/13/13 15/15/15
f 17/17/17 16/16/16 15/15/15
f 15/15/15 18/18/18 17/17/17
f 19/19/19 17/17/17 18/18/18
f 20/20/20 19/19/19 18/18/18
f 20/20/20 21/21/21 19/19/19
f 22/22/22 19/19/19 21/21/21
f 22/22/22 21/21/21 23/23/23
f 24/24/24 23/23/23 21/21/21
f 24/24/24 25/25/25 23/23/23
f 26/26/26 23/23/23 25/25/25
f 25/25/25 27/27/27 26/26/26
f 28/28/28 26/26/26 27/27/27
f 29/29/29 28/28/28 27/27/27
f 27/27/27 30/30/30 29/29/29
f 30/30/30 31/31/31 29/29/29
f 32/32/32 29/29/29 31/31/31
f 33/33/33 32/32/32 31/31/31
f 34/34/34 33/33/33 31/31/31
f 34/34/34 35/35/35 33/33/33
f 36/36/36 33/33/33 35/35/35
f 36/36/36 35/35/35 37/37/37
f 38/38/38 37/37/37 35/35/35
f 37/37/37 38/38/38 39/39/39
f 38/38/38 40/40/40 39/39/39
f 40/40/40 41/41/41 39/39/39
f 42/42/42 39/39/39 41/41/41
f 45/45/45 44/44/44 43/43/43
f 46/46/46 44/44/44 45/45/45
f 47/47/47 46/46/46 45/45/45
f 48/48/48 46/46/46 47/47/47
f 49/49/49 48/48/48 47/47/47
f 50/50/50 48/48/48 49/49/49
f 50/50/50 49/49/49 51/51/51
f 52/52/52 51/51/51 49/49/49
f 51/51/51 52/52/52 53/53/53
f 54/54/54 53/53/53 52/52/52
f 55/55/55 53/53/53 54/54/54
f 53/53/53 55/55/55 56/56/56
f 57/57/57 56/56/56 55/55/55
f 56/56/56 57/57/57 58/58/58
f 58/58/58 57/57/57 59/59/59
f 60/60/60 59/59/59 57/57/57
f 59/59/59 60/60/60 61/61/61
f 62/62/62 61/61/61 60/60/60
f 61/61/61 62/62/62 63/63/63
f 64/64/64 63/63/63 62/62/62
f 64/64/64 65/65/65 63/63/63
f 63/63/63 65/65/65 66/66/66
f 65/65/65 67/67/67 66/66/66
f 66/66/66 67/67/67 68/68/68
f 69/69/69 68/68/68 67/67/67
f 70/70/70 69/69/69 67/67/67
f 69/69/69 70/70/70 71/71/71
f 72/72/72 71/71/71 70/70/70
f 71/71/71 72/72/72 73/73/73
f 74/74/74 73/73/73 72/72/72
f 74/74/74 75/75/75 73/73/73
f 76/76/76 73/73/73 75/75/75
f 75/75/75 77/77/77 76/76/76
f 78/78/78 76/76/76 77/77/77
f 78/78/78 77/77/77 79/79/79
f 80/80/80 79/79/79 77/77/77
f 79/79/79 80/80/80 81/81/81
f 82/82/82 81/81/81 80/80/80
f 81/81/81 82/82/82 83/83/83
f 84/84/84 83/83/83 82/82/82
f 87/87/87 86/86/86 85/85/85
f 86/86/86 87/87/87 88/88/88
f 88/88/88 89/89/89 86/86/86
f 88/88/88 90/90/90 89/89/89
f 90/90/90 91/91/91 89/89/89
f 92/92/92 91/91/91 90/90/90
f 91/91/91 92/92/92 93/93/93
f 94/94/94 93/93/93 92/92/92
f 94/94/94 95/95/95 93/93/93
f 96/96/96 93/93/93 95/95/95
f 95/95/95 97/97/97 96/96/96
f 98/98/98 96/96/96 97/97/97
f 97/97/97 99/99/99 98/98/98
f 100/100/100 98/98/98 99/99/99
f 99/99/99 101/101/101 100/100/100
f 102/102/102 100/100/100 101/101/101
f 101/101/101 103/103/103 102/102/102
f 104/104/104 103/103/103 101/101/101
f 104/104/104 105/105/105 103/103/103
f 106/106/106 103/103/103 105/105/105
f 106/106/106 105/105/105 107/107/107
f 108/108/108 107/107/107 105/105/105
f 107/107/107 108/108/108 109/109/109
f 109/109/109 108/108/108 110/110/110
f 110/110/110 111/111/111 109/109/109
f 112/112/112 109/109/109 111/111/111
f 111/111/111 113/113/113 112/112/112
f 113/113/113 111/111/111 114/114/114
f 114/114/114 115/115/115 113/113/113
f 116/116/116 113/113/113 115/115/115
f 115/115/115 117/117/117 116/116/116
f 118/118/118 116/116/116 117/117/117
f 118/118/118 117/117/117 119/119/119
f 120/120/120 119/119/119 117/117/117
f 120/120/120 121/121/121 119/119/119
f 122/122/122 119/119/119 121/121/121
f 121/121/121 123/123/123 122/122/122
f 124/124/124 122/122/122 123/123/123
f 123/123/123 125/125/125 124/124/124
f 126/126/126 124/124/124 125/125/125
f 129/129/129 128/128/128 127/127/127
f 130/130/130 127/127/127 128/128/128
f 128/128/128 131/131/131 130/130/130
f 132/132/132 130/130/130 131/131/131
f 131/131/131 133/133/133 132/132/132
f 134/134/134 132/132/132 133/133/133
f 134/134/134 133/133/133 135/135/135
f 133/133/133 136/136/136 135/135/135
f 135/135/135 136/136/136 137/137/137
f 136/136/136 138/138/138 137/137/137
f 138/138/138 139/139/139 137/137/137
f 140/140/140 137/137/137 139/139/139
f 139/139/139 141/141/141 140/140/140
f 142/142/142 140/140/140 141/141/141
f 143/143/143 142/142/142 141/141/141
f 141/141/141 144/144/144 143/143/143
f 145/145/145 143/143/143 144/144/144
f 144/144/144 146/146/146 145/145/145
f 147/147/147 145/145/145 146/146/146
f 147/147/147 146/146/146 148/148/148
f 148/148/148 149/149/149 147/147/147
f 150/150/150 147/147/147 149/149/149
f 149/149/149 151/151/151 150/150/150
f 152/152/152 150/150/150 151/151/151
f 153/153/153 152/152/152 151/151/151
f 154/154/154 153/153/153 151/151/151
f 155/155/155 153/153/153 154/154/154
f 156/156/156 155/155/155 154/154/154
f 156/156/156 157/157/157 155/155/155
f 158/158/158 157/157/157 156/156/156
f 158/158/158 159/159/159 157/157/157
f 160/160/160 157/157/157 159/159/159
f 159/159/159 161/161/161 160/160/160
f 162/162/162 160/160/160 161/161/161
f 161/161/161 163/163/163 162/162/162
f 164/164/164 162/162/162 163/163/163
f 164/164/164 163/163/163 165/165/165
f 166/166/166 165/165/165 163/163/163
f 165/165/165 166/166/166 167/167/167
f 168/168/168 167/167/167 166/166/166
f 171/171/171 170/170/170 169/169/169
f 172/172/172 169/169/169 170/170/170
f 169/169/169 172/172/172 173/173/173
f 174/174/174 173/173/173 172/172/172
f 173/173/173 174/174/174 175/175/175
f 176/176/176 175/175/175 174/174/174
f 176/176/176 177/177/177 175/175/175
f 178/178/178 175/175/175 177/177/177
f 177/177/177 179/179/179 178/178/178
f 180/180/180 178/178/178 179/179/179
f 180/180/180 179/179/179 181/181/181
f 179/179/179 182/182/182 181/181/181
f 181/181/181 182/182/182 183/183/183
f 182/182/182 184/184/184 183/183/183
f 184/184/184 185/185/185 183/183/183
f 186/186/186 183/183/183 185/185/185
f 185/185/185 187/187/187 186/186/186
f 188/188/188 186/186/186 187/187/187
f 187/187/187 189/189/189 188/188/188
f 190/190/190 188/188/188 189/189/189
f 191/191/191 190/190/190 189/189/189
f 189/189/189 192/192/192 191/191/191
f 193/193/193 191/191/191 192/192/192
f 192/192/192 194/194/194 193/193/193
f 195/195/195 193/193/193 194/194/194
f 194/194/194 196/196/196 195/195/195
f 196/196/196 197/197/197 195/195/195
f 198/198/198 195/195/195 197/197/197
f 197/197/197 199/199/199 198/198/198
f 200/200/200 198/198/198 199/199/199
f 200/200/200 199/199/199 201/201/201
f 202/202/202 201/201/201 199/199/199
f 203/203/203 201/201/201 202/202/202
f 204/204/204 203/203/203 202/202/202
f 204/204/204 205/205/205 203/203/203
f 206/206/206 203/203/203 205/205/205
f 205/205/205 207/207/207 206/206/206
f 208/208/208 206/206/206 207/207/207
f 207/207/207 209/209/209 208/208/208
f 210/210/210 208/208/208 209/209/209
f 213/213/213 212/212/212 211/211/211
f 211/211/211 214/214/214 213/213/213
f 214/214/214 211/211/211 215/215/215
f 215/215/215 216/216/216 214/214/214
f 216/216/216 215/215/215 217/217/217
f 218/218/218 217/217/217 215/215/215
f 217/217/217 218/218/218 219/219/219
f 220/220/220 219/219/219 218/218/218
f 219/219/219 220/220/220 221/221/221
f 222/222/222 221/221/221 220/220/220
f 222/222/222 223/223/223 221/221/221
f 224/224/224 221/221/221 223/223/223
f 223/223/223 225/225/225 224/224/224
f 226/226/226 224/224/224 225/225/225
f 226/226/226 225/225/225 227/227/227
f 227/227/227 228/228/228 226/226/226
f 228/228/228 227/227/227 229/229/229
f 230/230/230 229/229/229 227/227/227
f 229/229/229 230/230/230 231/231/231
f 232/232/232 231/231/231 230/230/230
f 231/231/231 232/232/232 233/233/233
f 234/234/234 231/231/231 233/233/233
f 233/233/233 235/235/235 234/234/234
f 236/236/236 234/234/234 235/235/235
f 236/236/236 235/235/235 237/237/237
f 238/238/238 237/237/237 235/235/235
f 237/237/237 238/238/238 239/239/239
f 240/240/240 239/239/239 238/238/238
f 239/239/239 240/240/240 241/241/241
f 242/242/242 241/241/241 240/240/240
f 241/241/241 242/242/242 243/243/243
f 244/244/244 241/241/241 243/243/243
f 244/244/244 243/243/243 245/245/245
f 246/246/246 244/244/244 245/245/245
f 246/246/246 245/245/245 247/247/247
f 248/248/248 247/247/247 245/245/245
f 247/247/247 248/248/248 249/249/249
f 250/250/250 249/249/249 248/248/248
f 249/249/249 250/250/250 251/251/251
f 252/252/252 251/251/251 250/250/250
f 255/255/255 254/254/254 253/253/253
f 256/256/256 253/253/253 254/254/254
f 253/253/253 256/256/256 257/257/257
f 258/258/258 257/257/257 256/256/256
f 257/257/257 258/258/258 259/259/259
f 260/260/260 259/259/259 258/258/258
f 259/259/259 260/260/260 261/261/261
f 262/262/262 261/261/261 260/260/260
f 262/262/262 263/263/263 261/261/261
f 264/264/264 261/261/261 263/263/263
f 264/264/264 263/263/263 265/265/265
f 266/266/266 265/265/265 263/263/263
f 266/266/266 267/267/267 265/265/265
f 268/268/268 265/265/265 267/267/267
f 267/267/267 269/269/269 268/268/268
f 269/269/269 270/270/270 268/268/268
f 271/271/271 270/270/270 269/269/269
f 271/271/271 272/272/272 270/270/270
f 272/272/272 271/271/271 273/273/273
f 274/274/274 272/272/272 273/273/273
f 274/274/274 273/273/273 275/275/275
f 276/276/276 275/275/275 273/273/273
f 275/275/275 276/276/276 277/277/277
f 278/278/278 277/277/277 276/276/276
f 277/277/277 278/278/278 279/279/279
f 280/280/280 279/279/279 278/278/278
f 279/279/279 280/280/280 281/281/281
f 282/282/282 281/281/281 280/280/280
f 282/282/282 283/283/283 281/281/281
f 283/283/283 284/284/284 281/281/281
f 284/284/284 283/283/283 285/285/285
f 285/285/285 286/286/286 284/284/284
f 286/286/286 285/285/285 287/287/287
f 288/288/288 287/287/287 285/285/285
f 287/287/287 288/288/288 289/289/289
f 290/290/290 289/289/289 288/288/288
f 290/290/290 291/291/291 289/289/289
f 292/292/292 289/289/289 291/291/291
f 292/292/292 291/291/291 293/293/293
f 294/294/294 293/293/293 291/291/291
f 297/297/297 296/296/296 295/295/295
f 298/298/298 295/295/295 296/296/296
f 296/296/296 299/299/299 298/298/298
f 300/300/300 298/298/298 299/299/299
f 299/299/299 301/301/301 300/300/300
f 301/301/301 302/302/302 300/300/300
f 302/302/302 301/301/301 303/303/303
f 304/304/304 303/303/303 301/301/301
f 303/303/303 304/304/304 305/305/305
f 305/305/305 306/306/306 303/303/303
f 306/306/306 305/305/305 307/307/307
f 308/308/308 306/306/306 307/307/307
f 308/308/308 307/307/307 309/309/309
f 310/310/310 308/308/308 309/309/309
f 309/309/309 311/311/311 310/310/310
f 312/312/312 310/310/310 311/311/311
f 311/311/311 313/313/313 312/312/312
f 314/314/314 312/312/312 313/313/313
f 314/314/314 313/313/313 315/315/315
f 316/316/316 315/315/315 313/313/313
f 316/316/316 317/317/317 315/315/315
f 317/317/317 318/318/318 315/315/315
f 318/318/318 317/317/317 319/319/319
f 320/320/320 319/319/319 317/317/317
f 319/319/319 320/320/320 321/321/321
f 322/322/322 321/321/321 320/320/320
f 322/322/322 323/323/323 321/321/321
f 324/324/324 321/321/321 323/323/323
f 324/324/324 323/323/323 325/325/325
f 326/326/326 325/325/325 323/323/323
f 326/326/326 327/327/327 325/325/325
f 328/328/328 325/325/325 327/327/327
f 327/327/327 329/329/329 328/328/328
f 329/329/329 330/330/330 328/328/328
f 329/329/329 331/331/331 330/330/330
f 331/331/331 332/332/332 330/330/330
f 332/332/332 331/331/331 333/333/333
f 332/332/332 333/333/333 334/334/334
f 334/334/334 333/333/333 335/335/335
f 336/336/336 335/335/335 333/333/333
f 339/339/339 338/338/338 337/337/337
f 338/338/338 339/339/339 340/340/340
f 340/340/340 341/341/341 338/338/338
f 342/342/342 338/338/338 341/341/341
f 342/342/342 341/341/341 343/343/343
f 344/344/344 343/343/343 341/341/341
f 343/343/343 344/344/344 345/345/345
f 346/346/346 345/345/345 344/344/344
f 346/346/346 347/347/347 345/345/345
f 348/348/348 345/345/345 347/347/347
f 348/348/348 347/347/347 349/349/349
f 349/349/349 347/347/347 350/350/350
f 350/350/350 351/351/351 349/349/349
f 352/352/352 349/349/349 351/351/351
f 351/351/351 353/353/353 352/352/352
f 354/354/354 352/352/352 353/353/353
f 353/353/353 355/355/355 354/354/354
f 356/356/356 355/355/355 353/353/353
f 356/356/356 357/357/357 355/355/355
f 358/358/358 355/355/355 357/357/357
f 358/358/358 357/357/357 359/359/359
f 360/360/360 359/359/359 357/357/357
f 360/360/360 361/361/361 359/359/359
f 362/362/362 359/359/359 361/361/361
f 362/362/362 361/361/361 363/363/363
f 363/363/363 361/361/361 364/364/364
f 364/364/364 365/365/365 363/363/363
f 365/365/365 364/364/364 366/366/366
f 366/366/366 367/367/367 365/365/365
f 368/368/368 365/365/365 367/367/367
f 367/367/367 369/369/369 368/368/368
f 370/370/370 368/368/368 369/369/369
f 370/370/370 369/369/369 371/371/371
f 372/372/372 371/371/371 369/369/369
f 372/372/372 373/373/373 371/371/371
f 374/374/374 371/371/371 373/373/373
f 373/373/373 375/375/375 374/374/374
f 376/376/376 374/374/374 375/375/375
f 376/376/376 375/375/375 377/377/377
f 377/377/377 375/375/375 378/378/378
f 381/381/381 380/380/380 379/379/379
f 380/380/380 381/381/381 382/382/382
f 382/382/382 383/383/383 380/380/380
f 384/384/384 380/380/380 383/383/383
f 383/383/383 385/385/385 384/384/384
f 386/386/386 385/385/385 383/383/383
f 386/386/386 387/387/387 385/385/385
f 388/388/388 385/385/385 387/387/387
f 387/387/387 389/389/389 388/388/388
f 390/390/390 388/388/388 389/389/389
f 390/390/390 389/389/389 391/391/391
f 391/391/391 389/389/389 392/392/392
f 392/392/392 393/393/393 391/391/391
f 394/394/394 391/391/391 393/393/393
f 394/394/394 393/393/393 395/395/395
f 396/396/396 395/395/395 393/393/393
f 396/396/396 397/397/397 395/395/395
f 398/398/398 397/397/397 396/396/396
f 398/398/398 399/399/399 397/397/397
f 400/400/400 397/397/397 399/399/399
f 400/400/400 399/399/399 401/401/401
f 402/402/402 401/401/401 399/399/399
f 402/402/402 403/403/403 401/401/401
f 404/404/404 401/401/401 403/403/403
f 404/404/404 403/403/403 405/405/405
f 405/405/405 403/403/403 406/406/406
f 406/406/406 407/407/407 405/405/405
f 408/408/408 405/405/405 407/407/407
f 407/407/407 409/409/409 408/408/408
f 410/410/410 408/408/408 409/409/409
f 409/409/409 411/411/411 410/410/410
f 412/412/412 410/410/410 411/411/411
f 412/412/412 411/411/411 413/413/413
f 414/414/414 413/413/413 411/411/411
f 413/413/413 414/414/414 415/415/415
f 416/416/416 415/415/415 414/414/414
f 416/416/416 417/417/417 415/415/415
f 418/418/418 415/415/415 417/417/417
f 418/418/418 417/417/417 419/419/419
f 419/419/419 417/417/417 420/420/420
