mtllib SM_Pillar_Trim_02_LOD3.mtl
g SM_Pillar_Trim_02_LOD3
#Vertices 63
#Indices 147
#Section 0 Offset 0 NumIndices 147 MaterialIndex 0 MI_ConcreteTrim_A_01
v 0.710224 -0.976883 -0.135764
v -0.047376 -0.969669 -0.710381
v 0.421256 -0.965333 -0.443597
v 0.421256 -0.965333 -0.443597
v 0.429821 -0.962416 0.502954
v 0.710224 -0.976883 -0.135764
v -0.078781 0.004876 0.959939
v -0.000994 -0.498286 0.813623
v -0.585893 -0.481442 0.570678
v -0.937588 0.005138 0.094965
v -0.901681 -0.472355 -0.195602
v -0.501224 0.002071 -0.760795
v -0.231559 -0.493876 -0.903092
v 0.426416 -0.003701 -0.841527
v 0.382966 -0.486240 -0.713673
v 0.803647 -0.498489 -0.170961
v 0.880076 0.000668 -0.139397
v 0.712121 0.015088 0.619389
v 0.623505 -0.503097 0.556051
v -0.000994 -0.498286 0.813623
v -0.078781 0.004876 0.959939
v -0.000994 -0.498286 0.813623
v 0.000398 -0.967983 0.694941
v -0.585893 -0.481442 0.570678
v -0.629431 -0.987565 0.047669
v -0.607027 -0.511210 -0.448707
v -0.047376 -0.969669 -0.710381
v 0.382966 -0.486240 -0.713673
v 0.710224 -0.976883 -0.135764
v 0.803647 -0.498489 -0.170961
v 0.429821 -0.962416 0.502954
v 0.623505 -0.503097 0.556051
v -0.000994 -0.498286 0.813623
v 0.000398 -0.967983 0.694941
v 0.030541 -1.471831 0.601356
v 0.000398 -0.967983 0.694941
v 0.429821 -0.962416 0.502954
v 0.527276 -1.465508 -0.234290
v 0.421256 -0.965333 -0.443597
v -0.324550 -1.467212 -0.503813
v -0.047376 -0.969669 -0.710381
v -0.629431 -0.987565 0.047669
v -0.439504 -1.466161 0.260206
v 0.000398 -0.967983 0.694941
v 0.030541 -1.471831 0.601356
v -0.901681 -0.472355 -0.195602
v -0.585893 -0.481442 0.570678
v -0.607027 -0.511210 -0.448707
v -0.231559 -0.493876 -0.903092
v 0.382966 -0.486240 -0.713673
v -0.078781 0.004876 0.959939
v -0.373693 -0.001534 0.295211
v 0.069650 -0.001652 0.480768
v -0.937588 0.005138 0.094965
v -0.389700 -0.000993 -0.302269
v -0.501224 0.002071 -0.760795
v 0.426416 -0.003701 -0.841527
v 0.156586 -0.001499 -0.440350
v 0.476336 -0.001477 -0.075723
v 0.880076 0.000668 -0.139397
v 0.712121 0.015088 0.619389
v 0.069650 -0.001652 0.480768
v -0.078781 0.004876 0.959939
vt 0.681641 0.745605
vt 0.573730 0.755127
vt 0.632812 0.737061
vt 0.636719 0.725586
vt 0.777832 0.732910
vt 0.676270 0.747803
vt -0.296631 0.688965
vt -0.298340 0.632568
vt -0.233398 0.635010
vt -0.177246 0.688232
vt -0.153442 0.636475
vt -0.095398 0.687988
vt -0.071167 0.633789
vt -0.017776 0.688232
vt -0.015335 0.634521
vt 0.049194 0.632812
vt 0.052917 0.687744
vt 0.124084 0.688965
vt 0.124939 0.632812
vt 0.198120 0.632812
vt 0.212891 0.689209
vt 0.327393 0.786255
vt 0.330322 0.749023
vt 0.397217 0.789673
vt 0.455078 0.748291
vt 0.511230 0.786011
vt 0.574219 0.747803
vt 0.614746 0.787964
vt 0.681641 0.749268
vt 0.677246 0.787354
vt 0.767090 0.749756
vt 0.757324 0.785278
vt 0.839844 0.787598
vt 0.834473 0.750977
vt 0.826172 0.371094
vt 0.839355 0.451660
vt 0.774902 0.458496
vt 0.664062 0.373047
vt 0.637207 0.456543
vt 0.537598 0.373535
vt 0.579102 0.455078
vt 0.453369 0.454102
vt 0.419434 0.373535
vt 0.325195 0.452148
vt 0.321289 0.373047
vt -0.151489 0.625244
vt -0.234619 0.615234
vt -0.116516 0.592285
vt -0.073181 0.638428
vt -0.016144 0.611084
vt -0.296143 0.688477
vt -0.229614 0.727051
vt -0.315186 0.725830
vt -0.178345 0.687500
vt -0.120300 0.727783
vt -0.091492 0.687744
vt -0.017273 0.689941
vt -0.025360 0.726074
vt 0.053925 0.726074
vt 0.050934 0.687744
vt 0.127075 0.686035
vt 0.179810 0.728760
vt 0.212769 0.682617
vt1 0.693848 0.102539
vt1 0.483398 0.133301
vt1 0.599121 0.074707
vt1 0.605957 0.037109
vt1 0.881836 0.061035
vt1 0.683105 0.109375
vt1 0.018051 0.871704
vt1 0.014580 0.688965
vt1 0.141479 0.696777
vt1 0.250977 0.869019
vt1 0.297363 0.701172
vt1 0.410645 0.868286
vt1 0.458008 0.692627
vt1 0.562012 0.869019
vt1 0.566895 0.695557
vt1 0.692871 0.689453
vt1 0.700195 0.867798
vt1 0.838867 0.871826
vt1 0.840820 0.689697
vt1 0.983398 0.689209
vt1 1.011719 0.871948
vt1 0.002913 0.233887
vt1 0.008751 0.113281
vt1 0.138794 0.245117
vt1 0.251953 0.110840
vt1 0.361328 0.233398
vt1 0.484375 0.109375
vt1 0.563965 0.239258
vt1 0.693848 0.113770
vt1 0.685547 0.237305
vt1 0.860840 0.115723
vt1 0.841797 0.230469
vt1 1.001953 0.238281
vt1 0.992188 0.119629
vt1 0.976562 0.298828
vt1 1.000977 0.560059
vt1 0.875488 0.582520
vt1 0.659180 0.305176
vt1 0.607422 0.574707
vt1 0.412842 0.307129
vt1 0.493896 0.569824
vt1 0.248413 0.567383
vt1 0.182495 0.306641
vt1 -0.001669 0.561768
vt1 -0.009148 0.304199
vt1 0.301025 0.664795
vt1 0.138916 0.632812
vt1 0.369385 0.558105
vt1 0.454102 0.708008
vt1 0.565430 0.619385
vt1 0.019104 0.870117
vt1 0.148804 0.994690
vt1 -0.018188 0.990875
vt1 0.248901 0.866943
vt1 0.362061 0.996822
vt1 0.418457 0.867432
vt1 0.562988 0.874756
vt1 0.547363 0.991371
vt1 0.702148 0.991913
vt1 0.696289 0.867065
vt1 0.844727 0.861694
vt1 0.947754 1.000634
vt1 1.011719 0.850708
vn 0.716535 -0.685039 -0.133858
vn -0.055118 -0.708661 -0.700787
vn 0.464567 -0.716535 -0.519685
vn 0.000000 -1.000000 0.000000
vn 0.000000 -1.000000 0.000000
vn 0.000000 -1.000000 0.000000
vn -0.118110 0.007874 0.992126
vn -0.031496 0.007874 1.000000
vn -0.724409 0.007874 0.685039
vn -0.992126 0.007874 0.094488
vn -0.976378 0.007874 -0.220472
vn -0.551181 0.007874 -0.834646
vn -0.251969 0.007874 -0.968504
vn 0.456693 0.007874 -0.889764
vn 0.496063 0.007874 -0.866142
vn 0.976378 0.007874 -0.204724
vn 0.984252 0.007874 -0.157480
vn 0.755906 0.007874 0.653543
vn 0.755906 0.007874 0.653543
vn 0.047244 0.007874 1.000000
vn -0.094488 0.007874 0.992126
vn 0.031496 -0.007874 1.000000
vn -0.078740 -0.007874 1.000000
vn -0.708661 -0.007874 0.700787
vn -0.992126 -0.007874 0.102362
vn -0.803150 -0.007874 -0.598425
vn -0.094488 -0.007874 -0.992126
vn 0.464567 -0.007874 -0.889764
vn 0.976378 -0.007874 -0.220472
vn 0.976378 -0.007874 -0.228346
vn 0.677165 -0.007874 0.732283
vn 0.748031 -0.007874 0.669291
vn -0.055118 -0.007874 1.000000
vn 0.000000 -0.007874 1.000000
vn 0.188976 0.000000 0.984252
vn -0.055118 0.000000 1.000000
vn 0.629921 0.000000 0.779527
vn 0.921260 -0.000000 -0.393701
vn 0.724409 -0.000000 -0.685039
vn -0.527559 -0.000000 -0.850394
vn -0.149606 -0.000000 -0.992126
vn -0.992126 0.000000 0.094488
vn -0.874016 0.000000 0.480315
vn -0.055118 0.000000 1.000000
vn 0.031496 0.000000 1.000000
vn -0.007874 -1.000000 0.000000
vn -0.007874 -1.000000 0.007874
vn -0.007874 -1.000000 -0.007874
vn 0.000000 -1.000000 -0.007874
vn 0.000000 -1.000000 -0.007874
vn 0.000000 1.000000 -0.000000
vn 0.000000 1.000000 -0.000000
vn 0.000000 1.000000 -0.000000
vn 0.000000 1.000000 -0.000000
vn 0.000000 1.000000 -0.000000
vn 0.000000 1.000000 -0.000000
vn 0.000000 1.000000 -0.000000
vn 0.000000 1.000000 -0.000000
vn 0.000000 1.000000 -0.000000
vn 0.000000 1.000000 -0.000000
vn 0.000000 1.000000 -0.000000
vn 0.000000 1.000000 -0.000000
vn 0.000000 1.000000 -0.000000
tan -0.685039 -0.720751 0.021576 1.000000
tan 0.027900 -0.702957 0.708661 1.000000
tan -0.355447 -0.680575 0.620621 1.000000
tan -0.724409 0.000000 0.692913 1.000000
tan -0.606299 -0.000000 -0.795275 1.000000
tan -0.976378 0.000000 0.220472 1.000000
tan 0.000000 -0.992126 0.007874 1.000000
tan 0.000000 -1.000000 0.007874 1.000000
tan -0.006696 -0.972038 0.004092 1.000000
tan -0.007874 -0.992126 0.000000 1.000000
tan -0.007874 -0.976378 0.000000 1.000000
tan -0.001612 -0.927770 -0.007688 1.000000
tan 0.000000 -0.968504 -0.007874 1.000000
tan 0.000620 -0.925724 -0.007874 1.000000
tan 0.000434 -0.893484 -0.007874 1.000000
tan 0.007874 -0.976378 0.000000 1.000000
tan 0.007874 -0.984252 0.000000 1.000000
tan 0.007192 -0.958026 0.003224 1.000000
tan 0.007750 -0.857214 0.001364 1.000000
tan 0.000000 -1.000000 0.007874 1.000000
tan 0.000000 -0.992126 0.007874 1.000000
tan 0.000000 -1.000000 -0.007874 1.000000
tan 0.000000 -1.000000 -0.007874 1.000000
tan 0.005704 -0.998946 -0.005456 1.000000
tan 0.007874 -0.992126 0.000000 1.000000
tan 0.006634 -0.997086 0.004216 1.000000
tan 0.000000 -0.992126 0.007874 1.000000
tan -0.000186 -0.900738 0.007874 1.000000
tan -0.007874 -0.974642 -0.000062 1.000000
tan -0.007874 -0.976378 0.000000 1.000000
tan -0.005332 -0.994792 -0.005766 1.000000
tan -0.006882 -0.975262 -0.003782 1.000000
tan 0.000000 -1.000000 -0.007874 1.000000
tan 0.000000 -1.000000 -0.007874 1.000000
tan 0.000000 -0.984252 0.000000 1.000000
tan 0.000000 -1.000000 0.000000 1.000000
tan 0.000000 -0.999008 0.000000 1.000000
tan 0.000000 -0.939860 0.000000 1.000000
tan 0.000000 -1.000372 0.000000 1.000000
tan 0.000000 -0.966458 0.000000 1.000000
tan 0.000000 -0.990948 0.000000 1.000000
tan 0.000000 -0.992126 0.000000 1.000000
tan 0.000000 -0.892926 0.000000 1.000000
tan 0.000000 -1.000000 0.000000 1.000000
tan 0.000000 -1.000000 0.000000 1.000000
tan 0.976378 -0.007688 0.228346 1.000000
tan 0.692913 -0.011098 -0.716535 1.000000
tan 0.779528 -0.011098 0.629921 1.000000
tan 0.259843 -0.007626 0.968504 1.000000
tan -0.472441 -0.006944 0.881890 1.000000
tan -0.196850 0.000000 0.984252 1.000000
tan -0.740157 0.000000 0.677165 1.000000
tan -0.047244 0.000000 1.000000 1.000000
tan -0.992126 0.000000 0.094488 1.000000
tan -0.795276 -0.000000 -0.606299 1.000000
tan -0.503937 -0.000000 -0.858268 1.000000
tan 0.440945 -0.000000 -0.897638 1.000000
tan 0.362205 -0.000000 -0.937008 1.000000
tan 0.992126 -0.000000 -0.141732 1.000000
tan 0.984252 -0.000000 -0.181102 1.000000
tan 0.732283 0.000000 0.685039 1.000000
tan 0.307087 0.000000 0.952756 1.000000
tan 0.078740 0.000000 1.000000 1.000000
f 3/3/3 2/2/2 1/1/1
f 6/6/6 5/5/5 4/4/4
f 9/9/9 8/8/8 7/7/7
f 7/7/7 10/10/10 9/9/9
f 9/9/9 10/10/10 11/11/11
f 10/10/10 12/12/12 11/11/11
f 13/13/13 11/11/11 12/12/12
f 13/13/13 12/12/12 14/14/14
f 15/15/15 13/13/13 14/14/14
f 16/16/16 15/15/15 14/14/14
f 17/17/17 16/16/16 14/14/14
f 17/17/17 18/18/18 16/16/16
f 19/19/19 16/16/16 18/18/18
f 19/19/19 18/18/18 20/20/20
f 21/21/21 20/20/20 18/18/18
f 24/24/24 23/23/23 22/22/22
f 23/23/23 24/24/24 25/25/25
f 24/24/24 26/26/26 25/25/25
f 25/25/25 26/26/26 27/27/27
f 28/28/28 27/27/27 26/26/26
f 27/27/27 28/28/28 29/29/29
f 30/30/30 29/29/29 28/28/28
f 29/29/29 30/30/30 31/31/31
f 32/32/32 31/31/31 30/30/30
f 32/32/32 33/33/33 31/31/31
f 31/31/31 33/33/33 34/34/34
f 37/37/37 36/36/36 35/35/35
f 35/35/35 38/38/38 37/37/37
f 37/37/37 38/38/38 39/39/39
f 38/38/38 40/40/40 39/39/39
f 41/41/41 39/39/39 40/40/40
f 42/42/42 41/41/41 40/40/40
f 43/43/43 42/42/42 40/40/40
f 44/44/44 42/42/42 43/43/43
f 45/45/45 44/44/44 43/43/43
f 48/48/48 47/47/47 46/46/46
f 49/49/49 48/48/48 46/46/46
f 50/50/50 48/48/48 49/49/49
f 53/53/53 52/52/52 51/51/51
f 51/51/51 52/52/52 54/54/54
f 52/52/52 55/55/55 54/54/54
f 56/56/56 54/54/54 55/55/55
f 56/56/56 55/55/55 57/57/57
f 58/58/58 57/57/57 55/55/55
f 58/58/58 59/59/59 57/57/57
f 60/60/60 57/57/57 59/59/59
f 59/59/59 61/61/61 60/60/60
f 62/62/62 61/61/61 59/59/59
f 63/63/63 61/61/61 62/62/62
