mtllib SM_Pillar_01_a_LOD2@000002909DC2C100.mtl
g SM_Pillar_01_a_LOD2@000002909DC2C100
#Vertices 108
#Indices 429
#Section 0 Offset 0 NumIndices 312 MaterialIndex 0 MI_Pillar_02
#Section 1 Offset 312 NumIndices 117 MaterialIndex 1 MI_Pillar_01
v -0.379438 5.371152 -0.373724 0.000000 0.000000 1.000000 1.000000
v 0.364439 5.369583 -0.377401 0.000000 0.000000 1.000000 1.000000
v -0.378367 5.371955 0.365107 0.000000 0.000000 1.000000 1.000000
v 0.364285 5.368679 0.373186 0.000000 0.000000 1.000000 1.000000
v 0.834687 4.405273 0.881665 0.000000 0.000000 1.000000 1.000000
v 0.615595 4.172557 0.553755 0.062745 0.062745 1.000000 1.000000
v 0.569271 4.173658 0.599357 0.109804 0.109804 1.000000 1.000000
v 0.804767 4.347442 -0.782654 0.000000 0.000000 1.000000 1.000000
v 0.615629 4.167458 -0.569907 0.835294 0.835294 1.000000 1.000000
v 0.568917 4.172226 -0.616026 0.752941 0.752941 1.000000 1.000000
v 0.863708 4.487746 -0.812708 0.000000 0.000000 1.000000 1.000000
v 0.838654 4.487990 0.882717 0.000000 0.000000 1.000000 1.000000
v 0.591544 4.498114 0.635682 0.000000 0.000000 1.000000 1.000000
v -0.795770 4.337851 -0.813649 0.000000 0.000000 1.000000 1.000000
v -0.571378 4.162175 -0.615891 1.000000 1.000000 1.000000 1.000000
v -0.615978 4.164339 -0.569828 1.000000 1.000000 1.000000 1.000000
v -0.616040 4.168595 0.552656 0.427451 0.427451 1.000000 1.000000
v 0.840899 4.472980 -0.887769 0.000000 0.000000 1.000000 1.000000
v 0.631799 4.486322 -0.630539 0.000000 0.000000 1.000000 1.000000
v 0.591637 4.808524 0.641848 0.000000 0.000000 1.000000 1.000000
v -0.816269 4.483792 -0.858920 0.000000 0.000000 1.000000 1.000000
v -0.812473 4.341762 0.770942 0.000000 0.000000 1.000000 1.000000
v -0.578521 4.162589 0.598909 0.431373 0.431373 1.000000 1.000000
v -0.862481 4.483792 -0.812708 0.000000 0.000000 1.000000 1.000000
v 0.569271 4.173658 0.599357 0.109804 0.109804 1.000000 1.000000
v 0.834687 4.405273 0.881665 0.000000 0.000000 1.000000 1.000000
v -0.771545 4.358112 0.821531 0.000000 0.000000 1.000000 1.000000
v -0.853390 4.485997 0.859767 0.000000 0.000000 1.000000 1.000000
v 0.838654 4.487990 0.882717 0.000000 0.000000 1.000000 1.000000
v 0.591544 4.498114 0.635682 0.000000 0.000000 1.000000 1.000000
v -0.636683 4.480011 0.634488 0.000000 0.000000 1.000000 1.000000
v 0.591637 4.808524 0.641848 0.000000 0.000000 1.000000 1.000000
v -0.633731 4.478801 -0.632053 0.000000 0.000000 1.000000 1.000000
v -0.545084 4.839660 0.595840 0.000000 0.000000 1.000000 1.000000
v 0.429341 4.942739 0.490497 0.000000 0.000000 1.000000 1.000000
v -0.607391 4.818764 0.552911 0.000000 0.000000 1.000000 1.000000
v -0.287709 5.180215 0.293035 0.000000 0.000000 1.000000 1.000000
v 0.265121 5.204934 0.314701 0.000000 0.000000 1.000000 1.000000
v -0.601676 4.836953 -0.561281 0.000000 0.000000 1.000000 1.000000
v -0.324930 5.235576 0.328612 0.000000 0.000000 1.000000 1.000000
v 0.364285 5.368679 0.373186 0.000000 0.000000 1.000000 1.000000
v -0.378367 5.371955 0.365107 0.000000 0.000000 1.000000 1.000000
v -0.301901 5.152723 -0.255537 0.000000 0.000000 1.000000 1.000000
v -0.331039 5.243090 -0.330850 0.000000 0.000000 1.000000 1.000000
v -0.379438 5.371152 -0.373724 0.000000 0.000000 1.000000 1.000000
v 0.364439 5.369583 -0.377401 0.000000 0.000000 1.000000 1.000000
v -0.318320 5.061573 -0.362241 0.000000 0.000000 1.000000 1.000000
v 0.314757 5.250430 -0.314524 0.000000 0.000000 1.000000 1.000000
v 0.364285 5.368679 0.373186 0.000000 0.000000 1.000000 1.000000
v 0.265121 5.204934 0.314701 0.000000 0.000000 1.000000 1.000000
v -0.572259 4.818855 -0.623987 0.000000 0.000000 1.000000 1.000000
v 0.406398 4.994304 -0.420135 0.000000 0.000000 1.000000 1.000000
v 0.429341 4.942739 0.490497 0.000000 0.000000 1.000000 1.000000
v 0.566340 4.813807 -0.623987 0.000000 0.000000 1.000000 1.000000
v 0.612588 4.813807 -0.577739 0.000000 0.000000 1.000000 1.000000
v 0.520448 0.625057 -0.492355 0.000000 1.000000 0.000000 1.000000
v 0.662376 0.629288 0.673858 0.000000 1.000000 0.000000 1.000000
v 0.520448 0.625057 0.535006 0.000000 1.000000 0.000000 1.000000
v 0.646570 0.631744 -0.631808 0.000000 1.000000 0.000000 1.000000
v -0.526297 0.623881 -0.492355 0.000000 1.000000 0.000000 1.000000
v 0.655329 0.607405 -0.607671 0.000000 1.000000 0.000000 1.000000
v 0.657436 0.450812 0.673850 0.000000 1.000000 0.000000 1.000000
v -0.658878 0.624954 -0.625762 0.000000 1.000000 0.000000 1.000000
v 0.654186 0.448992 -0.635498 0.000000 1.000000 0.000000 1.000000
v 0.515130 0.445556 0.540702 0.000000 1.000000 0.000000 1.000000
v 0.515130 0.446440 -0.507921 0.000000 1.000000 0.000000 1.000000
v -0.526297 0.623881 0.535006 0.000000 1.000000 0.000000 1.000000
v -0.633299 0.445448 -0.644896 0.000000 1.000000 0.000000 1.000000
v -0.513990 0.444321 -0.507921 0.000000 1.000000 0.000000 1.000000
v -0.671650 0.624765 0.673880 0.000000 1.000000 0.000000 1.000000
v 0.520448 0.625057 0.535006 0.000000 1.000000 0.000000 1.000000
v 0.662376 0.629288 0.673858 0.000000 1.000000 0.000000 1.000000
v -0.664230 0.458649 -0.625623 0.000000 1.000000 0.000000 1.000000
v -0.633019 0.440872 0.682523 0.000000 1.000000 0.000000 1.000000
v -0.513990 0.443437 0.540702 0.000000 1.000000 0.000000 1.000000
v 0.657436 0.450812 0.673850 0.000000 1.000000 0.000000 1.000000
v 0.515130 0.445556 0.540702 0.000000 1.000000 0.000000 1.000000
v 0.736814 -0.002237 0.780421 0.000000 1.000000 0.000000 1.000000
v -0.752231 -0.000633 0.796665 0.000000 1.000000 0.000000 1.000000
v 0.698101 0.266697 0.766860 0.000000 1.000000 0.000000 1.000000
v -0.609303 0.332490 0.665158 0.000000 1.000000 0.000000 1.000000
v 0.549134 0.477932 0.593793 0.000000 1.000000 0.000000 1.000000
v -0.602879 0.449790 0.566476 0.000000 1.000000 0.000000 1.000000
v -0.761043 -0.001372 0.714831 0.000000 1.000000 0.000000 1.000000
v -0.546463 0.503977 0.594600 0.000000 1.000000 0.000000 1.000000
v -0.578521 4.162589 0.598909 0.431373 0.431373 1.000000 1.000000
v 0.569271 4.173658 0.599357 0.109804 0.109804 1.000000 1.000000
v -0.616040 4.168595 0.552656 0.427451 0.427451 1.000000 1.000000
v -0.593551 0.515884 -0.547070 0.000000 1.000000 0.000000 1.000000
v -0.615978 4.164339 -0.569828 1.000000 1.000000 1.000000 1.000000
v -0.708617 0.303383 -0.650313 0.000000 1.000000 0.000000 1.000000
v -0.761043 -0.001372 -0.711876 0.000000 1.000000 0.000000 1.000000
v -0.738401 0.009201 -0.791361 0.000000 1.000000 0.000000 1.000000
v -0.545875 0.512306 -0.593508 0.000000 1.000000 0.000000 1.000000
v -0.571378 4.162175 -0.615891 1.000000 1.000000 1.000000 1.000000
v 0.568917 4.172226 -0.616026 0.752941 0.752941 1.000000 1.000000
v 0.555350 0.448739 -0.602836 0.000000 1.000000 0.000000 1.000000
v 0.711876 -0.001372 -0.758089 0.000000 1.000000 0.000000 1.000000
v 0.615629 4.167458 -0.569907 0.835294 0.835294 1.000000 1.000000
v 0.758089 -0.001372 -0.711876 0.000000 1.000000 0.000000 1.000000
v 0.594072 0.513436 -0.547235 0.000000 1.000000 0.000000 1.000000
v 0.709456 0.303435 -0.647757 0.000000 1.000000 0.000000 1.000000
v 0.736814 -0.002237 0.780421 0.000000 1.000000 0.000000 1.000000
v 0.698101 0.266697 0.766860 0.000000 1.000000 0.000000 1.000000
v 0.592972 0.497825 0.546449 0.000000 1.000000 0.000000 1.000000
v 0.615595 4.172557 0.553755 0.062745 0.062745 1.000000 1.000000
v 0.549134 0.477932 0.593793 0.000000 1.000000 0.000000 1.000000
v 0.569271 4.173658 0.599357 0.109804 0.109804 1.000000 1.000000
vt 0.044434 0.120605
vt 0.043945 0.027832
vt 0.136719 0.120117
vt 0.137817 0.027832
vt 0.791504 0.758911
vt 0.765625 0.702393
vt 0.774414 0.701416
vt 0.619629 0.716309
vt 0.628906 0.684814
vt 0.617676 0.683350
vt 0.616699 0.735840
vt 0.786621 0.774780
vt 0.749512 0.804077
vt 0.479980 0.705566
vt 0.482666 0.673828
vt 0.472168 0.673828
vt 0.338135 0.679688
vt 0.613281 0.730957
vt 0.609375 0.763550
vt 0.732910 0.844482
vt 0.478760 0.726318
vt 0.332520 0.714600
vt 0.325684 0.678711
vt 0.474121 0.723877
vt 0.186646 0.695557
vt 0.161621 0.754639
vt 0.331299 0.717285
vt 0.336914 0.732910
vt 0.167847 0.764526
vt 0.204102 0.792847
vt 0.340332 0.759399
vt 0.221680 0.836060
vt 0.475586 0.752686
vt 0.348877 0.804321
vt 0.251465 0.855835
vt 0.350342 0.801270
vt 0.369629 0.862549
vt 0.294678 0.888306
vt 0.476318 0.797241
vt 0.373047 0.870605
vt 0.289551 0.914673
vt 0.375488 0.888855
vt 0.461426 0.853271
vt 0.474121 0.864502
vt 0.474121 0.882263
vt 0.572754 0.890625
vt 0.478027 0.838989
vt 0.576660 0.873413
vt 0.660645 0.918945
vt 0.658203 0.894348
vt 0.477539 0.794922
vt 0.586914 0.836548
vt 0.701172 0.867188
vt 0.595703 0.802002
vt 0.599609 0.803467
vt 0.611328 0.101562
vt 0.766602 0.086426
vt 0.747559 0.104980
vt 0.611328 0.084473
vt 0.481934 0.104980
vt 0.611816 0.081055
vt 0.766602 0.062500
vt 0.482666 0.088379
vt 0.609375 0.060547
vt 0.749023 0.042480
vt 0.610840 0.043457
vt 0.353760 0.107910
vt 0.483154 0.062012
vt 0.483154 0.045410
vt 0.356201 0.089844
vt 0.215210 0.111328
vt 0.196411 0.090820
vt 0.481201 0.065918
vt 0.352295 0.064453
vt 0.353760 0.048340
vt 0.197021 0.064453
vt 0.215942 0.045898
vt 0.144775 0.157227
vt 0.319092 0.139648
vt 0.154053 0.190430
vt 0.317627 0.187500
vt 0.180664 0.220703
vt 0.329346 0.205078
vt 0.323975 0.139160
vt 0.320557 0.212402
vt 0.329102 0.680420
vt 0.185791 0.695312
vt 0.334473 0.680176
vt 0.474365 0.210938
vt 0.474365 0.674805
vt 0.476074 0.179199
vt 0.477783 0.138672
vt 0.478027 0.138672
vt 0.486816 0.209961
vt 0.480957 0.674805
vt 0.621094 0.683838
vt 0.630371 0.205566
vt 0.638184 0.141602
vt 0.627441 0.685059
vt 0.645020 0.141602
vt 0.640137 0.214355
vt 0.644043 0.182129
vt 0.821289 0.161621
vt 0.814453 0.197754
vt 0.780273 0.225586
vt 0.766602 0.701660
vt 0.789551 0.223633
vt 0.774902 0.701904
vt1 0.870605 0.194336
vt1 0.870117 0.076660
vt1 0.987305 0.193848
vt1 0.988770 0.076660
vt1 0.824707 0.795166
vt1 0.791992 0.723145
vt1 0.802734 0.721680
vt1 0.605957 0.740723
vt1 0.617676 0.700684
vt1 0.603027 0.698730
vt1 0.602051 0.765625
vt1 0.818848 0.815430
vt1 0.770996 0.852783
vt1 0.427734 0.727295
vt1 0.430908 0.686768
vt1 0.417725 0.686523
vt1 0.246704 0.694092
vt1 0.597656 0.759644
vt1 0.592773 0.801025
vt1 0.750000 0.904297
vt1 0.425781 0.753662
vt1 0.239746 0.738770
vt1 0.231079 0.692871
vt1 0.420166 0.750488
vt1 0.053650 0.714600
vt1 0.021683 0.789795
vt1 0.237915 0.741943
vt1 0.245239 0.761841
vt1 0.029694 0.802246
vt1 0.075867 0.838379
vt1 0.249634 0.795776
vt1 0.098206 0.893555
vt1 0.421875 0.787109
vt1 0.260498 0.853027
vt1 0.136353 0.918762
vt1 0.262451 0.849121
vt1 0.286865 0.927246
vt1 0.191528 0.960175
vt1 0.422852 0.844116
vt1 0.291016 0.937592
vt1 0.184814 0.993778
vt1 0.294434 0.960815
vt1 0.404053 0.915527
vt1 0.420166 0.929810
vt1 0.420166 0.952423
vt1 0.545898 0.963135
vt1 0.425293 0.897278
vt1 0.550781 0.941193
vt1 0.658203 0.999189
vt1 0.655273 0.967896
vt1 0.424316 0.841064
vt1 0.563965 0.894165
vt1 0.709961 0.933289
vt1 0.574707 0.850098
vt1 0.580078 0.852051
vt1 0.842285 0.783813
vt1 0.862305 0.999327
vt1 0.837402 0.972580
vt1 0.864746 0.783936
vt1 0.837402 0.604736
vt1 0.869629 0.784912
vt1 0.894531 0.998780
vt1 0.859375 0.605469
vt1 0.896973 0.781616
vt1 0.921387 0.974564
vt1 0.919922 0.783569
vt1 0.833496 0.427246
vt1 0.895020 0.606201
vt1 0.917480 0.606201
vt1 0.857910 0.430176
vt1 0.829102 0.234863
vt1 0.856445 0.208984
vt1 0.890137 0.603271
vt1 0.891602 0.424805
vt1 0.913574 0.426758
vt1 0.892090 0.209473
vt1 0.916992 0.235840
vt1 0.000231 0.027832
vt1 0.222656 0.005859
vt1 0.012009 0.070312
vt1 0.220825 0.066406
vt1 0.045990 0.108887
vt1 0.235474 0.088867
vt1 0.228638 0.004883
vt1 0.224487 0.098145
vt1 0.235107 0.695068
vt1 0.052460 0.714111
vt1 0.242188 0.694824
vt1 0.420410 0.096191
vt1 0.420410 0.687988
vt1 0.422607 0.055664
vt1 0.424805 0.004395
vt1 0.425049 0.004395
vt1 0.436279 0.095703
vt1 0.428955 0.687988
vt1 0.607422 0.699463
vt1 0.619141 0.089844
vt1 0.629395 0.008301
vt1 0.615234 0.701172
vt1 0.638184 0.008301
vt1 0.631836 0.100586
vt1 0.636719 0.059570
vt1 0.862793 0.033691
vt1 0.854004 0.079590
vt1 0.810547 0.115234
vt1 0.792969 0.722168
vt1 0.822754 0.112305
vt1 0.803711 0.722656
vn -0.047244 0.992126 -0.078740
vn 0.039370 1.000000 -0.031496
vn -0.031496 1.000000 0.031496
vn 0.062992 0.992126 0.078740
vn 0.818898 -0.566929 0.070866
vn 0.685039 -0.724409 0.023622
vn 0.433071 -0.803149 0.409449
vn 0.566929 -0.779527 -0.283464
vn 0.677165 -0.732283 -0.015748
vn 0.031496 -0.779527 -0.622047
vn 0.669291 0.748031 -0.015748
vn 0.606299 0.795275 0.047244
vn 0.582677 0.811023 0.070866
vn -0.393701 -0.716535 -0.574803
vn -0.015748 -0.811024 -0.590551
vn -0.629921 -0.779527 -0.015748
vn -0.637795 -0.771653 0.023622
vn 0.007874 0.574803 -0.818898
vn 0.338583 0.874016 -0.346457
vn 0.960630 0.259842 0.086614
vn -0.023622 0.732283 -0.677165
vn -0.740157 -0.677165 0.039370
vn -0.023622 -0.787401 0.614173
vn -0.692913 0.716535 -0.015748
vn 0.007874 -0.787401 0.622047
vn 0.000000 -0.385827 0.921260
vn -0.023622 -0.598425 0.795276
vn -0.307087 0.826772 0.480315
vn 0.000000 0.692913 0.716535
vn 0.000000 0.795276 0.598425
vn -0.338583 0.874016 0.338583
vn 0.000000 0.181102 0.984252
vn -0.354331 0.874016 -0.338583
vn -0.039370 0.417323 0.913386
vn 0.007874 0.755905 0.653543
vn -0.889764 0.448819 0.047244
vn -0.456693 0.511811 0.724409
vn 0.015748 -0.102362 0.992126
vn -0.913386 0.401575 -0.039370
vn -0.377953 -0.732283 0.559055
vn 0.031496 0.078740 1.000000
vn -0.866142 0.055118 0.496063
vn -0.858268 0.511811 -0.047244
vn -0.496063 -0.763779 -0.417323
vn -0.740157 0.062992 -0.669291
vn 0.503937 0.078740 -0.858268
vn -0.031496 0.748031 -0.661417
vn 0.574803 -0.503937 -0.645669
vn 0.992126 0.070866 0.102362
vn 0.976378 0.102362 0.173228
vn -0.039370 0.212598 -0.976378
vn 0.370079 0.881890 -0.299213
vn 0.606299 0.787401 0.118110
vn 0.039370 0.204724 -0.976378
vn 0.976378 0.228346 -0.047244
vn 0.000000 1.000000 -0.000000
vn 0.724409 0.692913 -0.023622
vn 0.000000 1.000000 -0.000000
vn 0.055118 0.803149 -0.590551
vn 0.000000 1.000000 -0.000000
vn 0.992126 0.110236 -0.015748
vn 0.881890 -0.472441 0.007874
vn -0.354331 0.858268 -0.362205
vn 0.385827 -0.818898 -0.425197
vn 0.000000 -1.000000 0.000000
vn 0.000000 -1.000000 0.000000
vn 0.000000 1.000000 -0.000000
vn -0.039370 -0.748031 -0.669291
vn 0.000000 -1.000000 0.000000
vn -0.543307 0.787401 0.299212
vn 0.000000 1.000000 -0.000000
vn 0.031496 0.606299 0.795275
vn -0.976378 -0.212598 -0.015748
vn -0.062992 -0.842520 0.535433
vn 0.000000 -1.000000 0.000000
vn 0.062992 -0.685039 0.732283
vn 0.000000 -1.000000 0.000000
vn 0.000000 -0.094488 0.992126
vn -0.023622 -0.110236 0.992126
vn 0.000000 0.409449 0.913386
vn -0.023622 0.653543 0.755905
vn 0.000000 0.015748 1.000000
vn -0.992126 0.102362 0.039370
vn -1.000000 0.007874 0.031496
vn -0.039370 0.031496 1.000000
vn -0.047244 -0.007874 1.000000
vn 0.000000 -0.015748 1.000000
vn -1.000000 -0.015748 0.039370
vn -1.000000 0.015748 -0.039370
vn -1.000000 -0.023622 -0.047244
vn -0.858268 0.511811 -0.031496
vn -1.000000 0.007874 -0.031496
vn -0.031496 0.354331 -0.937008
vn -0.039370 0.015748 -1.000000
vn -0.039370 -0.023622 -1.000000
vn 0.039370 -0.015748 -1.000000
vn 0.039370 0.094488 -0.992126
vn 0.031496 0.007874 -1.000000
vn 1.000000 -0.015748 -0.039370
vn 1.000000 -0.000000 -0.031496
vn 1.000000 0.031496 -0.039370
vn 0.874016 0.488189 -0.031496
vn 1.000000 -0.007874 0.070866
vn 0.850394 0.519685 0.094488
vn 1.000000 0.007874 0.039370
vn 1.000000 -0.015748 0.039370
vn 0.724409 0.039370 0.685039
vn 0.716535 -0.015748 0.700787
tan 0.984314 0.054312 0.093744 1.000000
tan 1.000000 -0.041354 -0.062992 1.000000
tan 1.000000 0.033728 -0.070866 1.000000
tan 0.992126 -0.069192 0.078120 1.000000
tan -0.555211 -0.813565 -0.092752 1.000000
tan -0.723665 -0.686341 -0.061504 1.000000
tan -0.629301 -0.595511 -0.502511 1.000000
tan -0.753302 -0.622729 0.205902 1.000000
tan -0.732035 -0.677661 0.033728 1.000000
tan -0.105524 -0.620621 0.772397 1.000000
tan 0.703825 -0.636741 -0.332631 1.000000
tan 0.794904 -0.609275 0.054870 1.000000
tan 0.811582 -0.584351 0.014570 1.000000
tan 0.362205 -0.694835 0.618079 1.000000
tan 0.090582 -0.587389 0.804266 1.000000
tan 0.773018 -0.626325 0.082398 1.000000
tan 0.764834 -0.634819 -0.086924 1.000000
tan -0.081902 -0.812388 -0.571021 1.000000
tan 0.561597 -0.483229 -0.670221 1.000000
tan 0.273483 -0.907682 -0.310124 1.000000
tan -0.318247 -0.645979 -0.687457 1.000000
tan 0.675925 -0.742017 -0.055304 1.000000
tan 0.031000 -0.615103 -0.787401 1.000000
tan -0.709777 -0.688945 -0.116808 1.000000
tan -0.023498 -0.622233 -0.787339 1.000000
tan -0.043524 -0.921260 -0.385827 1.000000
tan 0.037572 -0.795276 -0.597309 1.000000
tan -0.443735 -0.570463 0.698245 1.000000
tan -0.022196 -0.716535 0.692913 1.000000
tan -0.036022 -0.598425 0.795276 1.000000
tan -0.663339 -0.477215 0.568541 1.000000
tan -0.178250 -0.968752 0.178250 1.000000
tan -0.626263 -0.491165 -0.612499 1.000000
tan -0.111166 -0.906504 0.409387 1.000000
tan -0.040052 -0.653233 0.756029 1.000000
tan -0.446215 -0.890136 0.052576 1.000000
tan -0.359167 -0.803397 0.341187 1.000000
tan -0.148428 -0.984314 -0.099200 1.000000
tan -0.398785 -0.914006 -0.071052 1.000000
tan 0.325625 -0.670035 -0.657511 1.000000
tan -0.314961 -0.952756 0.084940 1.000000
tan -0.120218 -0.927708 -0.106826 1.000000
tan -0.509579 -0.858268 -0.040548 1.000000
tan 0.610143 -0.644863 0.454957 1.000000
tan -0.119102 -0.989708 0.038564 1.000000
tan -0.256061 -0.888710 -0.231880 1.000000
tan -0.043710 -0.662161 -0.746791 1.000000
tan -0.420361 -0.855850 0.293757 1.000000
tan 0.092566 -0.968690 -0.226548 1.000000
tan 0.126108 -0.968690 -0.138384 1.000000
tan -0.186186 -0.961312 -0.201810 1.000000
tan 0.657325 -0.474735 -0.586211 1.000000
tan 0.792052 -0.598859 -0.073470 1.000000
tan -0.038440 -0.976378 -0.206274 1.000000
tan 0.199764 -0.922934 -0.332383 1.000000
tan 0.708661 -0.000000 -0.700787 1.000000
tan 0.692727 -0.724409 -0.005704 1.000000
tan 1.000000 -0.000000 -0.023622 1.000000
tan 0.265237 -0.579577 -0.763469 1.000000
tan -0.685039 -0.000000 -0.724409 1.000000
tan 0.110112 -0.992126 -0.007812 1.000000
tan -0.472379 -0.881952 -0.010664 1.000000
tan -0.594705 -0.505053 -0.614979 1.000000
tan -0.525637 -0.574183 0.628867 1.000000
tan -1.000000 -0.000000 -0.007874 1.000000
tan -0.700787 0.000000 0.708661 1.000000
tan -0.716535 0.000000 0.692913 1.000000
tan 0.190030 -0.661541 0.728191 1.000000
tan 0.724409 0.000000 0.692913 1.000000
tan -0.704445 -0.621985 0.357679 1.000000
tan -0.007874 0.000000 1.000000 1.000000
tan 0.006572 -0.796267 0.606795 1.000000
tan 0.211978 -0.961002 -0.169136 1.000000
tan 0.297911 -0.527249 -0.794593 1.000000
tan 0.708661 -0.000000 -0.700787 1.000000
tan -0.076260 -0.732469 -0.678653 1.000000
tan 0.007874 -0.000000 -1.000000 1.000000
tan -0.101556 -0.984314 -0.093744 1.000000
tan 0.031248 -0.992126 -0.109492 1.000000
tan -0.057536 -0.913386 0.409449 1.000000
tan -0.168082 -0.746419 0.640089 1.000000
tan -0.078740 -1.000000 0.015748 1.000000
tan -0.102362 -0.992126 0.000000 1.000000
tan -0.006634 -1.000000 0.039370 1.000000
tan -0.078740 -1.000000 0.028396 1.000000
tan -0.086614 -0.992126 -0.011904 1.000000
tan -0.086614 -0.992126 -0.015624 1.000000
tan 0.013268 -1.000000 -0.062992 1.000000
tan -0.015748 -1.000000 0.000000 1.000000
tan 0.023622 -1.000000 0.000000 1.000000
tan -0.509083 -0.858516 -0.078368 1.000000
tan -0.007378 -1.000000 -0.015748 1.000000
tan -0.051646 -0.937008 -0.352595 1.000000
tan -0.023622 -1.000000 -0.014818 1.000000
tan -0.039370 -1.000000 0.025172 1.000000
tan -0.110236 -0.992126 0.011284 1.000000
tan -0.023436 -0.992126 -0.095418 1.000000
tan -0.007874 -1.000000 -0.008122 1.000000
tan -0.020274 -0.992126 -0.118110 1.000000
tan -0.001736 -1.000000 -0.055118 1.000000
tan 0.027218 -0.992126 -0.102362 1.000000
tan 0.480625 -0.867382 -0.107074 1.000000
tan 0.005084 -0.984252 -0.181102 1.000000
tan 0.524521 -0.843698 -0.080352 1.000000
tan 0.010974 -1.000000 -0.078740 1.000000
tan -0.013268 -1.000000 -0.062992 1.000000
tan 0.543679 -0.640771 -0.538099 1.000000
tan -0.006014 -1.004774 -0.016430 1.000000
f 3/3/3 2/2/2 1/1/1
f 3/3/3 4/4/4 2/2/2
f 7/7/7 6/6/6 5/5/5
f 6/6/6 8/8/8 5/5/5
f 9/9/9 8/8/8 6/6/6
f 10/10/10 8/8/8 9/9/9
f 8/8/8 11/11/11 5/5/5
f 12/12/12 5/5/5 11/11/11
f 13/13/13 12/12/12 11/11/11
f 10/10/10 14/14/14 8/8/8
f 15/15/15 14/14/14 10/10/10
f 15/15/15 16/16/16 14/14/14
f 16/16/16 17/17/17 14/14/14
f 11/11/11 8/8/8 18/18/18
f 8/8/8 14/14/14 18/18/18
f 19/19/19 13/13/13 11/11/11
f 11/11/11 18/18/18 19/19/19
f 20/20/20 13/13/13 19/19/19
f 14/14/14 21/21/21 18/18/18
f 19/19/19 18/18/18 21/21/21
f 17/17/17 22/22/22 14/14/14
f 17/17/17 23/23/23 22/22/22
f 24/24/24 21/21/21 14/14/14
f 14/14/14 22/22/22 24/24/24
f 26/26/26 23/23/23 25/25/25
f 27/27/27 22/22/22 23/23/23
f 27/27/27 23/23/23 26/26/26
f 27/27/27 28/28/28 22/22/22
f 28/28/28 27/27/27 26/26/26
f 28/28/28 24/24/24 22/22/22
f 29/29/29 28/28/28 26/26/26
f 29/29/29 30/30/30 28/28/28
f 31/31/31 28/28/28 30/30/30
f 28/28/28 31/31/31 24/24/24
f 30/30/30 32/32/32 31/31/31
f 21/21/21 24/24/24 33/33/33
f 33/33/33 24/24/24 31/31/31
f 33/33/33 19/19/19 21/21/21
f 34/34/34 31/31/31 32/32/32
f 32/32/32 35/35/35 34/34/34
f 34/34/34 36/36/36 31/31/31
f 31/31/31 36/36/36 33/33/33
f 34/34/34 35/35/35 37/37/37
f 36/36/36 34/34/34 37/37/37
f 38/38/38 37/37/37 35/35/35
f 39/39/39 33/33/33 36/36/36
f 40/40/40 37/37/37 38/38/38
f 38/38/38 41/41/41 40/40/40
f 42/42/42 40/40/40 41/41/41
f 36/36/36 37/37/37 43/43/43
f 43/43/43 39/39/39 36/36/36
f 37/37/37 40/40/40 44/44/44
f 40/40/40 42/42/42 44/44/44
f 44/44/44 43/43/43 37/37/37
f 44/44/44 42/42/42 45/45/45
f 44/44/44 45/45/45 46/46/46
f 39/39/39 43/43/43 47/47/47
f 44/44/44 47/47/47 43/43/43
f 48/48/48 44/44/44 46/46/46
f 47/47/47 44/44/44 48/48/48
f 46/46/46 49/49/49 48/48/48
f 50/50/50 48/48/48 49/49/49
f 51/51/51 39/39/39 47/47/47
f 39/39/39 51/51/51 33/33/33
f 48/48/48 52/52/52 47/47/47
f 48/48/48 50/50/50 52/52/52
f 47/47/47 52/52/52 51/51/51
f 53/53/53 52/52/52 50/50/50
f 53/53/53 20/20/20 52/52/52
f 33/33/33 51/51/51 54/54/54
f 54/54/54 51/51/51 52/52/52
f 19/19/19 33/33/33 54/54/54
f 55/55/55 52/52/52 20/20/20
f 55/55/55 54/54/54 52/52/52
f 19/19/19 55/55/55 20/20/20
f 54/54/54 55/55/55 19/19/19
f 58/58/58 57/57/57 56/56/56
f 56/56/56 57/57/57 59/59/59
f 56/56/56 59/59/59 60/60/60
f 59/59/59 57/57/57 61/61/61
f 57/57/57 62/62/62 61/61/61
f 60/60/60 59/59/59 63/63/63
f 61/61/61 62/62/62 64/64/64
f 61/61/61 64/64/64 59/59/59
f 62/62/62 65/65/65 64/64/64
f 66/66/66 64/64/64 65/65/65
f 60/60/60 63/63/63 67/67/67
f 66/66/66 68/68/68 64/64/64
f 64/64/64 68/68/68 59/59/59
f 63/63/63 59/59/59 68/68/68
f 69/69/69 68/68/68 66/66/66
f 70/70/70 67/67/67 63/63/63
f 67/67/67 70/70/70 71/71/71
f 71/71/71 70/70/70 72/72/72
f 68/68/68 73/73/73 63/63/63
f 73/73/73 70/70/70 63/63/63
f 69/69/69 74/74/74 68/68/68
f 68/68/68 74/74/74 73/73/73
f 70/70/70 73/73/73 74/74/74
f 74/74/74 72/72/72 70/70/70
f 75/75/75 74/74/74 69/69/69
f 72/72/72 74/74/74 76/76/76
f 75/75/75 77/77/77 74/74/74
f 76/76/76 74/74/74 77/77/77
f 80/80/80 79/79/79 78/78/78
f 81/81/81 79/79/79 80/80/80
f 82/82/82 81/81/81 80/80/80
f 83/83/83 79/79/79 81/81/81
f 84/84/84 79/79/79 83/83/83
f 85/85/85 81/81/81 82/82/82
f 81/81/81 85/85/85 83/83/83
f 87/87/87 86/86/86 82/82/82
f 86/86/86 85/85/85 82/82/82
f 85/85/85 86/86/86 88/88/88
f 88/88/88 83/83/83 85/85/85
f 83/83/83 88/88/88 89/89/89
f 90/90/90 89/89/89 88/88/88
f 83/83/83 91/91/91 84/84/84
f 89/89/89 91/91/91 83/83/83
f 92/92/92 84/84/84 91/91/91
f 93/93/93 92/92/92 91/91/91
f 89/89/89 90/90/90 94/94/94
f 91/91/91 89/89/89 94/94/94
f 94/94/94 93/93/93 91/91/91
f 90/90/90 95/95/95 94/94/94
f 94/94/94 95/95/95 96/96/96
f 94/94/94 97/97/97 93/93/93
f 97/97/97 94/94/94 96/96/96
f 98/98/98 93/93/93 97/97/97
f 96/96/96 99/99/99 97/97/97
f 100/100/100 98/98/98 97/97/97
f 101/101/101 97/97/97 99/99/99
f 102/102/102 100/100/100 97/97/97
f 102/102/102 97/97/97 101/101/101
f 102/102/102 103/103/103 100/100/100
f 104/104/104 103/103/103 102/102/102
f 99/99/99 105/105/105 101/101/101
f 101/101/101 105/105/105 102/102/102
f 104/104/104 102/102/102 105/105/105
f 105/105/105 99/99/99 106/106/106
f 105/105/105 107/107/107 104/104/104
f 105/105/105 106/106/106 108/108/108
f 108/108/108 107/107/107 105/105/105
