mtllib SM_Paver_LOD2@000002909DC2EB00.mtl
g SM_Paver_LOD2@000002909DC2EB00
#Vertices 89
#Indices 450
#Section 0 Offset 0 NumIndices 450 MaterialIndex 0 MI_Paver
v 0.216822 0.107197 0.481567 1.000000 1.000000 1.000000 1.000000
v 0.059788 0.106416 0.479624 1.000000 1.000000 1.000000 1.000000
v 0.060362 0.120316 0.433946 1.000000 1.000000 1.000000 1.000000
v 0.425696 0.114511 0.443299 1.000000 1.000000 1.000000 1.000000
v 0.354692 0.092146 0.479037 1.000000 1.000000 1.000000 1.000000
v 0.061211 0.122628 0.391137 1.000000 1.000000 1.000000 1.000000
v 0.448326 0.063647 0.480836 1.000000 1.000000 1.000000 1.000000
v 0.427146 0.121336 0.349876 1.000000 1.000000 1.000000 1.000000
v 0.068617 0.123762 0.172026 1.000000 1.000000 1.000000 1.000000
v 0.493198 0.050207 0.444215 1.000000 1.000000 1.000000 1.000000
v 0.456489 -0.045856 0.492385 1.000000 1.000000 1.000000 1.000000
v 0.486082 0.111894 0.348913 1.000000 1.000000 1.000000 1.000000
v 0.499988 -0.064918 0.408666 1.000000 1.000000 1.000000 1.000000
v 0.496458 0.065864 0.352195 1.000000 1.000000 1.000000 1.000000
v 0.447167 -0.084947 0.490139 1.000000 1.000000 1.000000 1.000000
v 0.459976 0.113183 -0.313327 1.000000 1.000000 1.000000 1.000000
v 0.493002 -0.033229 -0.343670 1.000000 1.000000 1.000000 1.000000
v 0.410420 0.116096 -0.405560 1.000000 1.000000 1.000000 1.000000
v 0.482465 0.062875 -0.417694 1.000000 1.000000 1.000000 1.000000
v 0.333246 0.121616 -0.409069 1.000000 1.000000 1.000000 1.000000
v 0.428020 0.087755 -0.472990 1.000000 1.000000 1.000000 1.000000
v -0.099015 0.123743 0.200775 1.000000 1.000000 1.000000 1.000000
v -0.270839 0.125572 0.214223 1.000000 1.000000 1.000000 1.000000
v 0.489224 -0.067031 -0.436974 1.000000 1.000000 1.000000 1.000000
v -0.395484 0.115665 -0.312606 1.000000 1.000000 1.000000 1.000000
v 0.496695 -0.093327 -0.133496 1.000000 1.000000 1.000000 1.000000
v 0.477876 -0.030090 -0.482155 1.000000 1.000000 1.000000 1.000000
v 0.474716 -0.112852 0.403441 1.000000 1.000000 1.000000 1.000000
v 0.460546 -0.110096 -0.427814 1.000000 1.000000 1.000000 1.000000
v 0.423042 -0.119792 0.420822 1.000000 1.000000 1.000000 1.000000
v 0.404089 -0.101938 -0.467565 1.000000 1.000000 1.000000 1.000000
v 0.401015 -0.116271 -0.416546 1.000000 1.000000 1.000000 1.000000
v 0.307312 -0.123234 -0.347039 1.000000 1.000000 1.000000 1.000000
v -0.364810 -0.117559 -0.440164 1.000000 1.000000 1.000000 1.000000
v 0.412091 -0.050521 -0.492701 1.000000 1.000000 1.000000 1.000000
v -0.342586 -0.099090 -0.481893 1.000000 1.000000 1.000000 1.000000
v 0.400947 0.073840 -0.486768 1.000000 1.000000 1.000000 1.000000
v -0.346495 -0.055880 -0.493700 1.000000 1.000000 1.000000 1.000000
v 0.315439 0.118793 -0.462972 1.000000 1.000000 1.000000 1.000000
v 0.115519 0.049786 -0.494688 1.000000 1.000000 1.000000 1.000000
v 0.021746 0.117848 -0.444653 1.000000 1.000000 1.000000 1.000000
v -0.097976 0.103558 -0.486607 1.000000 1.000000 1.000000 1.000000
v -0.184814 0.044550 -0.492293 1.000000 1.000000 1.000000 1.000000
v -0.371196 0.108048 -0.418958 1.000000 1.000000 1.000000 1.000000
v -0.405486 0.044027 -0.487109 1.000000 1.000000 1.000000 1.000000
v -0.470342 0.086541 -0.410896 1.000000 1.000000 1.000000 1.000000
v -0.469642 -0.054301 -0.487290 1.000000 1.000000 1.000000 1.000000
v -0.489463 0.114398 -0.190908 1.000000 1.000000 1.000000 1.000000
v -0.421327 -0.121166 -0.398938 1.000000 1.000000 1.000000 1.000000
v -0.494833 0.033658 -0.402204 1.000000 1.000000 1.000000 1.000000
v -0.475651 -0.106891 -0.395823 1.000000 1.000000 1.000000 1.000000
v -0.494572 -0.062235 -0.393123 1.000000 1.000000 1.000000 1.000000
v -0.497516 0.055547 -0.165917 1.000000 1.000000 1.000000 1.000000
v -0.429219 -0.123769 0.092358 1.000000 1.000000 1.000000 1.000000
v -0.367406 -0.122891 0.372531 1.000000 1.000000 1.000000 1.000000
v -0.478559 -0.120394 0.011031 1.000000 1.000000 1.000000 1.000000
v -0.463713 -0.097269 0.384989 1.000000 1.000000 1.000000 1.000000
v -0.496190 -0.078206 0.059623 1.000000 1.000000 1.000000 1.000000
v -0.497051 0.044278 0.354457 1.000000 1.000000 1.000000 1.000000
v -0.491886 -0.020294 0.376149 1.000000 1.000000 1.000000 1.000000
v -0.477574 -0.045697 0.466072 1.000000 1.000000 1.000000 1.000000
v -0.490436 0.116093 0.241563 1.000000 1.000000 1.000000 1.000000
v -0.389392 -0.113578 0.445432 1.000000 1.000000 1.000000 1.000000
v -0.484661 0.047206 0.458230 1.000000 1.000000 1.000000 1.000000
v 0.365549 -0.117811 0.460533 1.000000 1.000000 1.000000 1.000000
v -0.038659 -0.099040 0.490881 1.000000 1.000000 1.000000 1.000000
v -0.379057 -0.053948 0.490239 1.000000 1.000000 1.000000 1.000000
v 0.324530 -0.049325 0.496481 1.000000 1.000000 1.000000 1.000000
v 0.456489 -0.045856 0.492385 1.000000 1.000000 1.000000 1.000000
v 0.448326 0.063647 0.480836 1.000000 1.000000 1.000000 1.000000
v -0.417858 0.049392 0.491154 1.000000 1.000000 1.000000 1.000000
v 0.333938 0.055982 0.487640 1.000000 1.000000 1.000000 1.000000
v 0.354692 0.092146 0.479037 1.000000 1.000000 1.000000 1.000000
v 0.216822 0.107197 0.481567 1.000000 1.000000 1.000000 1.000000
v 0.059788 0.106416 0.479624 1.000000 1.000000 1.000000 1.000000
v -0.235478 0.060944 0.496798 1.000000 1.000000 1.000000 1.000000
v -0.430386 0.098900 0.467055 1.000000 1.000000 1.000000 1.000000
v 0.060362 0.120316 0.433946 1.000000 1.000000 1.000000 1.000000
v -0.492537 0.107986 0.386868 1.000000 1.000000 1.000000 1.000000
v -0.267521 0.117897 0.430601 1.000000 1.000000 1.000000 1.000000
v 0.061211 0.122628 0.391137 1.000000 1.000000 1.000000 1.000000
v -0.356194 0.119106 0.360215 1.000000 1.000000 1.000000 1.000000
v -0.280912 0.122383 0.321011 1.000000 1.000000 1.000000 1.000000
v -0.356194 0.119106 0.360215 1.000000 1.000000 1.000000 1.000000
v -0.099015 0.123743 0.200775 1.000000 1.000000 1.000000 1.000000
v 0.068617 0.123762 0.172026 1.000000 1.000000 1.000000 1.000000
v -0.270839 0.125572 0.214223 1.000000 1.000000 1.000000 1.000000
v -0.406078 0.121945 0.215748 1.000000 1.000000 1.000000 1.000000
v -0.280912 0.122383 0.321011 1.000000 1.000000 1.000000 1.000000
vt 0.086365 0.080566
vt 0.129639 0.000488
vt 0.150757 0.008789
vt 0.033752 0.243652
vt 0.027390 0.191406
vt 0.156372 0.016113
vt -0.002432 0.331055
vt 0.068542 0.213379
vt 0.394775 0.006836
vt 0.020035 0.364258
vt 0.024673 0.486328
vt 0.075928 0.284180
vt 0.042603 0.442383
vt 0.070618 0.323242
vt 0.090332 0.569092
vt 0.321533 0.269531
vt 0.312500 0.334961
vt 0.355225 0.274414
vt 0.340820 0.294922
vt 0.355225 0.245117
vt 0.362061 0.297363
vt 0.689941 0.087402
vt 0.797363 0.196777
vt 0.335938 0.340332
vt 0.675781 0.312988
vt 0.247070 0.377441
vt 0.348633 0.330078
vt 0.076782 0.483887
vt 0.347412 0.351562
vt 0.109863 0.550537
vt 0.360352 0.358398
vt 0.351318 0.370605
vt 0.335938 0.403809
vt 0.581055 0.420898
vt 0.366943 0.339844
vt 0.572266 0.396973
vt 0.371826 0.299316
vt 0.577148 0.378418
vt 0.392822 0.276855
vt 0.460938 0.305664
vt 0.493896 0.263672
vt 0.527832 0.291992
vt 0.544922 0.325195
vt 0.621094 0.328125
vt 0.604492 0.357422
vt 0.635742 0.367676
vt 0.604004 0.390137
vt 0.711426 0.377930
vt 0.606445 0.434082
vt 0.637207 0.387207
vt 0.612793 0.421387
vt 0.626953 0.408691
vt 0.705078 0.424805
vt 0.647949 0.593018
vt 0.602051 0.739746
vt 0.663086 0.552002
vt 0.678711 0.707031
vt 0.691406 0.555420
vt 0.772461 0.647705
vt 0.722656 0.708496
vt 0.691406 0.741211
vt 0.792969 0.569580
vt 0.642578 0.745117
vt 0.732422 0.751831
vt 0.147461 0.634033
vt 0.411377 0.761475
vt 0.648926 0.780640
vt 0.159058 0.687256
vt 0.091064 0.590576
vt 0.092590 0.669189
vt 0.705566 0.787720
vt 0.141113 0.710449
vt 0.129639 0.712402
vt 0.213623 0.778076
vt 0.359863 0.841553
vt 0.564941 0.849243
vt 0.719727 0.816528
vt 0.380859 0.870850
vt 0.780273 0.683594
vt 0.581543 0.863037
vt 0.399170 0.895203
vt 0.643555 0.887146
vt 0.586426 0.911987
vt 0.868164 0.609863
vt 0.495605 0.974716
vt 0.417236 0.999999
vt 0.582031 0.964081
vt 0.838867 0.462402
vt 0.902344 0.505615
vt1 0.102234 0.087402
vt1 0.149414 0.008301
vt1 0.172485 0.017090
vt1 0.044861 0.248047
vt1 0.037933 0.196289
vt1 0.178467 0.023926
vt1 0.005409 0.333496
vt1 0.082764 0.218262
vt1 0.438477 0.014648
vt1 0.029907 0.366211
vt1 0.034943 0.486328
vt1 0.090881 0.288086
vt1 0.054504 0.442871
vt1 0.085083 0.326172
vt1 0.106567 0.567871
vt1 0.358643 0.272949
vt1 0.348633 0.337891
vt1 0.395508 0.277832
vt1 0.379639 0.298340
vt1 0.395264 0.249512
vt1 0.402832 0.300781
vt1 0.760254 0.094238
vt1 0.877441 0.202148
vt1 0.374268 0.342773
vt1 0.744629 0.316406
vt1 0.277344 0.379395
vt1 0.388184 0.333008
vt1 0.091797 0.483887
vt1 0.386719 0.354004
vt1 0.127808 0.549805
vt1 0.400879 0.360352
vt1 0.391113 0.372559
vt1 0.374512 0.405273
vt1 0.641602 0.422363
vt1 0.408203 0.342285
vt1 0.631836 0.398926
vt1 0.413574 0.302734
vt1 0.637207 0.380371
vt1 0.436279 0.280273
vt1 0.510742 0.309082
vt1 0.546387 0.267578
vt1 0.583496 0.294922
vt1 0.602539 0.328125
vt1 0.685547 0.331055
vt1 0.667480 0.359375
vt1 0.701172 0.369629
vt1 0.666992 0.391602
vt1 0.784180 0.379883
vt1 0.669434 0.435059
vt1 0.703125 0.389160
vt1 0.676270 0.422363
vt1 0.691406 0.410156
vt1 0.777344 0.425781
vt1 0.714844 0.591553
vt1 0.664551 0.735840
vt1 0.730957 0.551270
vt1 0.748047 0.703613
vt1 0.761719 0.554443
vt1 0.850586 0.645264
vt1 0.796387 0.705078
vt1 0.762207 0.737305
vt1 0.873047 0.568359
vt1 0.708984 0.740967
vt1 0.806641 0.747803
vt1 0.168823 0.631836
vt1 0.456543 0.757324
vt1 0.715332 0.776123
vt1 0.181519 0.684082
vt1 0.107361 0.589111
vt1 0.109009 0.666504
vt1 0.777344 0.783081
vt1 0.161987 0.707031
vt1 0.149414 0.708984
vt1 0.240967 0.773560
vt1 0.400391 0.836060
vt1 0.624023 0.843628
vt1 0.792969 0.811401
vt1 0.423340 0.864868
vt1 0.858398 0.680664
vt1 0.642090 0.857178
vt1 0.443115 0.888855
vt1 0.709961 0.880920
vt1 0.647949 0.905334
vt1 0.954590 0.608154
vt1 0.548340 0.967072
vt1 0.463135 0.991936
vt1 0.642578 0.956604
vt1 0.922363 0.462891
vt1 0.991699 0.505371
vn 0.031496 0.653543 0.755905
vn -0.007874 0.700787 0.708661
vn -0.007874 0.984252 0.157480
vn 0.086614 0.952756 0.283464
vn 0.110236 0.543307 0.834646
vn -0.007874 1.000000 0.031496
vn 0.322835 0.377953 0.866142
vn 0.039370 1.000000 0.023622
vn 0.000000 1.000000 -0.000000
vn 0.905512 0.188976 0.370079
vn 0.354331 0.000000 0.937008
vn 0.622047 0.779527 0.015748
vn 0.992126 -0.125984 0.055118
vn 0.992126 0.118110 -0.000000
vn 0.181102 -0.472441 0.866142
vn 0.559055 0.826772 -0.039370
vn 1.000000 0.031496 -0.015748
vn 0.181102 0.984252 -0.070866
vn 0.929134 0.354331 -0.086614
vn 0.007874 1.000000 -0.015748
vn 0.338583 0.637795 -0.692913
vn 0.000000 1.000000 -0.000000
vn -0.007874 1.000000 0.007874
vn 0.952756 -0.267717 -0.149606
vn -0.031496 1.000000 -0.031496
vn 0.921260 -0.393701 -0.015748
vn 0.629921 -0.023622 -0.771653
vn 0.464567 -0.881890 0.070866
vn 0.377953 -0.921260 -0.094488
vn 0.031496 -1.000000 0.039370
vn 0.015748 -0.771653 -0.637795
vn 0.070866 -0.992126 -0.086614
vn 0.000000 -1.000000 -0.015748
vn -0.007874 -0.968504 -0.236220
vn 0.015748 -0.149606 -0.992126
vn 0.007874 -0.653543 -0.763779
vn 0.133858 0.251968 -0.960630
vn -0.007874 -0.165354 -0.984252
vn 0.015748 0.929134 -0.377953
vn -0.007874 -0.000000 -1.000000
vn -0.015748 0.992126 -0.125984
vn -0.062992 0.622047 -0.779527
vn -0.015748 0.133858 -0.992126
vn -0.102362 0.960630 -0.251969
vn -0.141732 0.433071 -0.889764
vn -0.574803 0.755905 -0.307087
vn -0.535433 -0.244095 -0.803149
vn -0.582677 0.811023 -0.047244
vn -0.031496 -1.000000 -0.023622
vn -0.960630 0.244094 -0.118110
vn -0.606299 -0.787401 -0.118110
vn -0.984252 -0.149606 -0.039370
vn -1.000000 0.070866 -0.000000
vn -0.039370 -1.000000 0.007874
vn -0.015748 -1.000000 0.015748
vn -0.551181 -0.834646 0.023622
vn -0.637795 -0.763779 0.118110
vn -0.984252 -0.173228 0.000000
vn -1.000000 0.039370 0.023622
vn -0.984252 -0.133858 0.102362
vn -0.740157 -0.275590 0.614173
vn -0.661417 0.748031 0.023622
vn -0.086614 -0.929134 0.362205
vn -0.787402 0.181102 0.590551
vn 0.047244 -0.968504 0.236221
vn -0.031496 -0.511811 0.858268
vn -0.062992 -0.275590 0.960630
vn 0.000000 0.000000 1.000000
vn 0.354331 0.000000 0.937008
vn 0.322835 0.307087 0.897638
vn -0.220472 0.188976 0.960630
vn 0.039370 0.149606 0.984252
vn 0.110236 0.543307 0.834646
vn 0.031496 0.653543 0.755905
vn -0.007874 0.700787 0.708661
vn 0.000000 0.133858 0.992126
vn -0.118110 0.889764 0.448819
vn -0.007874 0.984252 0.157480
vn -0.433071 0.889764 0.157480
vn -0.023622 0.992126 0.141732
vn -0.007874 1.000000 0.031496
vn -0.062992 0.992126 0.094488
vn -0.007874 1.000000 0.015748
vn -0.062992 0.992126 0.094488
vn 0.000000 1.000000 -0.000000
vn 0.000000 1.000000 -0.000000
vn -0.015748 1.000000 0.007874
vn -0.031496 1.000000 0.007874
vn -0.015748 1.000000 0.015748
tan -0.869056 -0.342489 0.332321 1.000000
tan -0.782442 -0.445161 0.431521 1.000000
tan -0.954492 -0.048546 0.255688 1.000000
tan -0.937752 0.138818 -0.180048 1.000000
tan -0.951516 0.096100 0.063116 1.000000
tan -0.992126 -0.003596 -0.133858 1.000000
tan -0.467977 0.758633 -0.156612 1.000000
tan -0.937008 0.044888 -0.338583 1.000000
tan -0.622047 0.000000 0.779527 1.000000
tan -0.206460 0.908426 0.041292 1.000000
tan 0.391035 0.865212 -0.147870 1.000000
tan -0.779404 0.622915 -0.047864 1.000000
tan 0.137020 0.921818 -0.359353 1.000000
tan -0.116250 0.976502 -0.195300 1.000000
tan 0.683861 -0.550685 -0.443363 1.000000
tan -0.819952 0.558063 0.076012 1.000000
tan -0.032736 1.000000 -0.078740 1.000000
tan -0.782752 0.186992 0.596751 1.000000
tan -0.346829 0.929134 0.080476 1.000000
tan -0.480315 0.017670 0.881890 1.000000
tan -0.175770 0.758943 0.612685 1.000000
tan 0.976378 0.000000 0.228346 1.000000
tan 0.992126 0.008742 -0.118110 1.000000
tan 0.238762 0.937752 -0.157542 1.000000
tan 0.984252 0.036456 0.173228 1.000000
tan 0.392337 0.921260 -0.079794 1.000000
tan 0.187302 0.863042 0.126480 1.000000
tan 0.875504 0.451981 -0.114762 1.000000
tan 0.877736 0.389113 -0.282907 1.000000
tan 0.937008 0.016182 -0.338583 1.000000
tan 0.041478 0.638539 -0.771529 1.000000
tan 0.640585 0.111910 -0.757765 1.000000
tan 0.598425 0.012648 -0.803149 1.000000
tan -0.053382 0.236654 -0.968504 1.000000
tan 0.101556 0.984314 -0.146816 1.000000
tan 0.023188 0.763841 -0.653357 1.000000
tan -0.068076 0.960630 0.242482 1.000000
tan 0.147250 0.976502 -0.165230 1.000000
tan -0.139004 0.377333 0.921818 1.000000
tan 0.055118 1.000000 -0.000434 1.000000
tan 0.171864 0.126728 0.976502 1.000000
tan 0.023312 0.780024 0.620559 1.000000
tan 0.187488 0.976502 0.128774 1.000000
tan 0.771530 0.232997 0.574865 1.000000
tan 0.353711 0.820820 0.343171 1.000000
tan 0.777668 0.586893 -0.010974 1.000000
tan 0.689317 0.417385 -0.586397 1.000000
tan 0.811396 0.580817 -0.036518 1.000000
tan -0.196850 0.029450 -0.984252 1.000000
tan 0.272243 0.877426 -0.400893 1.000000
tan -0.730361 0.609027 -0.310993 1.000000
tan -0.096596 0.790501 -0.589001 1.000000
tan 0.061938 0.874016 -0.480315 1.000000
tan -0.417323 0.009238 -0.913386 1.000000
tan -0.133858 -0.013516 -0.992126 1.000000
tan -0.737368 0.475107 -0.418129 1.000000
tan -0.181660 0.000930 -0.974952 1.000000
tan -0.120032 0.682001 -0.713001 1.000000
tan -0.000930 0.496063 -0.866142 1.000000
tan -0.121830 0.155000 -0.968752 1.000000
tan -0.571951 -0.179304 -0.769731 1.000000
tan 0.665881 0.602269 -0.427181 1.000000
tan -0.124372 -0.347759 -0.921818 1.000000
tan -0.604439 -0.075950 -0.782627 1.000000
tan 0.678715 -0.136152 -0.693967 1.000000
tan 0.081096 -0.851510 -0.504805 1.000000
tan -0.302561 -0.915246 -0.282410 1.000000
tan 0.724409 -0.692913 0.000000 1.000000
tan 0.582863 -0.751751 -0.220410 1.000000
tan 0.485461 -0.761361 0.085870 1.000000
tan -0.680761 -0.680761 -0.022320 1.000000
tan 0.682001 -0.705251 0.079918 1.000000
tan 0.440449 -0.759997 0.436543 1.000000
tan 0.405171 -0.697625 0.586273 1.000000
tan 0.116560 -0.702461 0.695951 1.000000
tan -0.124992 -0.984314 0.132804 1.000000
tan -0.613119 -0.408643 0.648769 1.000000
tan -0.023250 -0.157666 0.984252 1.000000
tan 0.355199 0.323331 -0.850022 1.000000
tan -0.156240 -0.143220 0.976502 1.000000
tan -0.110236 -0.032116 0.992126 1.000000
tan -0.328105 -0.110112 0.937442 1.000000
tan -0.086614 -0.016430 1.000000 1.000000
tan 0.429661 0.112840 -0.898382 1.000000
tan -0.102362 0.000000 0.992126 1.000000
tan -0.141732 0.000000 0.992126 1.000000
tan -0.055118 -0.008742 1.000000 1.000000
tan 0.763780 0.029140 -0.645669 1.000000
tan 0.614173 0.022072 -0.787401 1.000000
f 3/3/3 2/2/2 1/1/1
f 1/1/1 4/4/4 3/3/3
f 1/1/1 5/5/5 4/4/4
f 6/6/6 3/3/3 4/4/4
f 4/4/4 5/5/5 7/7/7
f 4/4/4 8/8/8 6/6/6
f 9/9/9 6/6/6 8/8/8
f 4/4/4 7/7/7 10/10/10
f 10/10/10 7/7/7 11/11/11
f 12/12/12 8/8/8 4/4/4
f 4/4/4 10/10/10 12/12/12
f 11/11/11 13/13/13 10/10/10
f 10/10/10 14/14/14 12/12/12
f 10/10/10 13/13/13 14/14/14
f 13/13/13 11/11/11 15/15/15
f 16/16/16 12/12/12 14/14/14
f 8/8/8 12/12/12 16/16/16
f 17/17/17 14/14/14 13/13/13
f 18/18/18 8/8/8 16/16/16
f 14/14/14 19/19/19 16/16/16
f 18/18/18 16/16/16 19/19/19
f 17/17/17 19/19/19 14/14/14
f 8/8/8 18/18/18 20/20/20
f 9/9/9 8/8/8 20/20/20
f 21/21/21 18/18/18 19/19/19
f 20/20/20 18/18/18 21/21/21
f 23/23/23 22/22/22 9/9/9
f 9/9/9 20/20/20 23/23/23
f 17/17/17 24/24/24 19/19/19
f 25/25/25 23/23/23 20/20/20
f 26/26/26 24/24/24 17/17/17
f 26/26/26 17/17/17 13/13/13
f 19/19/19 24/24/24 27/27/27
f 21/21/21 19/19/19 27/27/27
f 28/28/28 26/26/26 13/13/13
f 15/15/15 28/28/28 13/13/13
f 24/24/24 26/26/26 29/29/29
f 28/28/28 29/29/29 26/26/26
f 27/27/27 24/24/24 29/29/29
f 29/29/29 28/28/28 30/30/30
f 30/30/30 28/28/28 15/15/15
f 29/29/29 31/31/31 27/27/27
f 30/30/30 32/32/32 29/29/29
f 29/29/29 32/32/32 31/31/31
f 33/33/33 32/32/32 30/30/30
f 32/32/32 34/34/34 31/31/31
f 33/33/33 34/34/34 32/32/32
f 31/31/31 35/35/35 27/27/27
f 34/34/34 36/36/36 31/31/31
f 27/27/27 35/35/35 37/37/37
f 27/27/27 37/37/37 21/21/21
f 38/38/38 31/31/31 36/36/36
f 31/31/31 38/38/38 35/35/35
f 37/37/37 39/39/39 21/21/21
f 21/21/21 39/39/39 20/20/20
f 37/37/37 35/35/35 40/40/40
f 20/20/20 39/39/39 41/41/41
f 41/41/41 25/25/25 20/20/20
f 39/39/39 37/37/37 42/42/42
f 42/42/42 41/41/41 39/39/39
f 42/42/42 37/37/37 40/40/40
f 35/35/35 43/43/43 40/40/40
f 42/42/42 40/40/40 43/43/43
f 38/38/38 43/43/43 35/35/35
f 44/44/44 41/41/41 42/42/42
f 41/41/41 44/44/44 25/25/25
f 42/42/42 43/43/43 45/45/45
f 44/44/44 42/42/42 45/45/45
f 45/45/45 43/43/43 38/38/38
f 46/46/46 44/44/44 45/45/45
f 46/46/46 25/25/25 44/44/44
f 45/45/45 38/38/38 47/47/47
f 46/46/46 45/45/45 47/47/47
f 47/47/47 38/38/38 36/36/36
f 47/47/47 36/36/36 34/34/34
f 46/46/46 48/48/48 25/25/25
f 34/34/34 49/49/49 47/47/47
f 33/33/33 49/49/49 34/34/34
f 47/47/47 50/50/50 46/46/46
f 48/48/48 46/46/46 50/50/50
f 49/49/49 51/51/51 47/47/47
f 47/47/47 52/52/52 50/50/50
f 47/47/47 51/51/51 52/52/52
f 50/50/50 53/53/53 48/48/48
f 52/52/52 53/53/53 50/50/50
f 51/51/51 49/49/49 54/54/54
f 55/55/55 49/49/49 33/33/33
f 55/55/55 54/54/54 49/49/49
f 30/30/30 55/55/55 33/33/33
f 56/56/56 51/51/51 54/54/54
f 52/52/52 51/51/51 56/56/56
f 57/57/57 56/56/56 54/54/54
f 55/55/55 57/57/57 54/54/54
f 56/56/56 58/58/58 52/52/52
f 58/58/58 56/56/56 57/57/57
f 52/52/52 59/59/59 53/53/53
f 58/58/58 59/59/59 52/52/52
f 48/48/48 53/53/53 59/59/59
f 57/57/57 60/60/60 58/58/58
f 60/60/60 59/59/59 58/58/58
f 60/60/60 57/57/57 61/61/61
f 62/62/62 48/48/48 59/59/59
f 57/57/57 63/63/63 61/61/61
f 57/57/57 55/55/55 63/63/63
f 60/60/60 61/61/61 64/64/64
f 64/64/64 59/59/59 60/60/60
f 65/65/65 63/63/63 55/55/55
f 65/65/65 55/55/55 30/30/30
f 15/15/15 65/65/65 30/30/30
f 63/63/63 65/65/65 66/66/66
f 15/15/15 66/66/66 65/65/65
f 63/63/63 67/67/67 61/61/61
f 66/66/66 67/67/67 63/63/63
f 64/64/64 61/61/61 67/67/67
f 68/68/68 66/66/66 15/15/15
f 66/66/66 68/68/68 67/67/67
f 69/69/69 68/68/68 15/15/15
f 69/69/69 70/70/70 68/68/68
f 67/67/67 71/71/71 64/64/64
f 70/70/70 72/72/72 68/68/68
f 70/70/70 73/73/73 72/72/72
f 73/73/73 74/74/74 72/72/72
f 72/72/72 74/74/74 75/75/75
f 67/67/67 68/68/68 76/76/76
f 68/68/68 72/72/72 76/76/76
f 67/67/67 76/76/76 71/71/71
f 75/75/75 76/76/76 72/72/72
f 71/71/71 76/76/76 77/77/77
f 75/75/75 77/77/77 76/76/76
f 64/64/64 71/71/71 77/77/77
f 77/77/77 75/75/75 78/78/78
f 79/79/79 64/64/64 77/77/77
f 79/79/79 59/59/59 64/64/64
f 79/79/79 62/62/62 59/59/59
f 78/78/78 80/80/80 77/77/77
f 80/80/80 78/78/78 81/81/81
f 80/80/80 82/82/82 77/77/77
f 83/83/83 82/82/82 80/80/80
f 81/81/81 83/83/83 80/80/80
f 77/77/77 84/84/84 79/79/79
f 85/85/85 83/83/83 81/81/81
f 81/81/81 86/86/86 85/85/85
f 85/85/85 87/87/87 83/83/83
f 79/79/79 84/84/84 88/88/88
f 88/88/88 62/62/62 79/79/79
f 88/88/88 84/84/84 89/89/89
f 88/88/88 48/48/48 62/62/62
f 89/89/89 23/23/23 88/88/88
f 48/48/48 88/88/88 25/25/25
f 88/88/88 23/23/23 25/25/25
