mtllib SM_Pillar_02_b_LOD3@000002909DC28F00.mtl
g SM_Pillar_02_b_LOD3@000002909DC28F00
#Vertices 162
#Indices 423
#Section 0 Offset 0 NumIndices 72 MaterialIndex 1 MI_BrickTile_A_01
#Section 1 Offset 72 NumIndices 225 MaterialIndex 2 MI_ConcreteTrim_A_01
#Section 2 Offset 297 NumIndices 126 MaterialIndex 0 MI_ConcreteTile_01
v -0.470713 2.003227 -0.470714 0.000000 0.000000 1.000000 1.000000
v -0.500000 -0.000000 -0.400010 0.000000 0.000000 1.000000 1.000000
v -0.470708 0.000004 -0.470718 0.000000 0.000000 1.000000 1.000000
v -0.500000 2.003227 -0.400010 0.000000 0.000000 1.000000 1.000000
v -0.500000 0.000000 0.400010 0.000000 0.000000 1.000000 1.000000
v -0.503768 2.001823 0.409982 0.000000 0.000000 1.000000 1.000000
v -0.470718 0.000004 0.470708 0.000000 0.000000 1.000000 1.000000
v -0.470713 2.003227 0.470713 0.000000 0.000000 1.000000 1.000000
v -0.470713 2.003227 0.470713 0.000000 0.000000 1.000000 1.000000
v -0.400010 0.000000 0.500000 0.000000 0.000000 1.000000 1.000000
v -0.470718 0.000004 0.470708 0.000000 0.000000 1.000000 1.000000
v -0.400010 2.003227 0.500000 0.000000 0.000000 1.000000 1.000000
v 0.400010 0.000000 0.500000 0.000000 0.000000 1.000000 1.000000
v 0.400010 2.003227 0.500000 0.000000 0.000000 1.000000 1.000000
v 0.470708 0.000004 0.470718 0.000000 0.000000 1.000000 1.000000
v 0.470714 2.003227 0.470713 0.000000 0.000000 1.000000 1.000000
v 0.470714 2.003227 -0.470714 0.000000 0.000000 1.000000 1.000000
v 0.400010 -0.000000 -0.500000 0.000000 0.000000 1.000000 1.000000
v 0.470718 0.000004 -0.470708 0.000000 0.000000 1.000000 1.000000
v 0.400010 2.003227 -0.500000 0.000000 0.000000 1.000000 1.000000
v -0.400010 2.003227 -0.500000 0.000000 0.000000 1.000000 1.000000
v -0.400010 -0.000000 -0.500000 0.000000 0.000000 1.000000 1.000000
v -0.470708 0.000004 -0.470718 0.000000 0.000000 1.000000 1.000000
v -0.470713 2.003227 -0.470714 0.000000 0.000000 1.000000 1.000000
v 0.470708 0.000004 0.470718 0.000000 0.000000 1.000000 1.000000
v 0.470714 2.003227 0.470713 0.000000 0.000000 1.000000 1.000000
v 0.500000 0.000000 0.400010 0.000000 0.000000 1.000000 1.000000
v 0.500000 2.003227 0.400010 0.000000 0.000000 1.000000 1.000000
v 0.500000 2.003227 -0.400010 0.000000 0.000000 1.000000 1.000000
v 0.500000 -0.000000 -0.400010 0.000000 0.000000 1.000000 1.000000
v 0.470718 0.000004 -0.470708 0.000000 0.000000 1.000000 1.000000
v 0.470714 2.003227 -0.470714 0.000000 0.000000 1.000000 1.000000
v 0.575188 1.997523 0.573821 0.000000 0.000000 1.000000 1.000000
v 0.543222 2.050436 0.643211 0.000000 0.000000 1.000000 1.000000
v 0.613925 2.050436 0.613925 0.000000 0.000000 1.000000 1.000000
v -0.565387 2.045488 0.650525 0.000000 0.000000 1.000000 1.000000
v 0.470714 2.003227 0.470713 0.000000 0.000000 1.000000 1.000000
v 0.400010 2.003227 0.500000 0.000000 0.000000 1.000000 1.000000
v -0.400010 2.003227 0.500000 0.000000 0.000000 1.000000 1.000000
v -0.470713 2.003227 0.470713 0.000000 0.000000 1.000000 1.000000
v -0.503768 2.001823 0.409982 0.000000 0.000000 1.000000 1.000000
v -0.613925 2.050436 0.613925 0.000000 0.000000 1.000000 1.000000
v -0.643212 2.050436 0.543221 0.000000 0.000000 1.000000 1.000000
v -0.647447 2.047566 -0.563669 0.000000 0.000000 1.000000 1.000000
v -0.500000 2.003227 -0.400010 0.000000 0.000000 1.000000 1.000000
v -0.470713 2.003227 -0.470714 0.000000 0.000000 1.000000 1.000000
v -0.553526 2.046417 -0.649935 0.000000 0.000000 1.000000 1.000000
v -0.613925 2.050436 -0.613925 0.000000 0.000000 1.000000 1.000000
v -0.400010 2.003227 -0.500000 0.000000 0.000000 1.000000 1.000000
v 0.526201 1.982425 -0.528912 0.000000 0.000000 1.000000 1.000000
v 0.543222 2.050436 -0.643212 0.000000 0.000000 1.000000 1.000000
v 0.400010 2.003227 -0.500000 0.000000 0.000000 1.000000 1.000000
v 0.613925 2.050436 -0.613925 0.000000 0.000000 1.000000 1.000000
v 0.470714 2.003227 -0.470714 0.000000 0.000000 1.000000 1.000000
v 0.643212 2.050436 -0.543222 0.000000 0.000000 1.000000 1.000000
v 0.500000 2.003227 -0.400010 0.000000 0.000000 1.000000 1.000000
v 0.575188 1.997523 0.573821 0.000000 0.000000 1.000000 1.000000
v 0.643212 2.050436 0.543221 0.000000 0.000000 1.000000 1.000000
v 0.613925 2.050436 0.613925 0.000000 0.000000 1.000000 1.000000
v 0.500000 2.003227 0.400010 0.000000 0.000000 1.000000 1.000000
v 0.470714 2.003227 0.470713 0.000000 0.000000 1.000000 1.000000
v 0.470714 2.500000 0.470713 0.000000 0.000000 1.000000 1.000000
v 0.575173 2.505709 0.573806 0.000000 0.000000 1.000000 1.000000
v 0.400010 2.500000 0.500000 0.000000 0.000000 1.000000 1.000000
v -0.444428 2.516564 0.499178 0.000000 0.000000 1.000000 1.000000
v 0.543222 2.452791 0.643211 0.000000 0.000000 1.000000 1.000000
v 0.613925 2.452791 0.613925 0.000000 0.000000 1.000000 1.000000
v -0.543222 2.452791 0.643211 0.000000 0.000000 1.000000 1.000000
v -0.613925 2.452791 0.613925 0.000000 0.000000 1.000000 1.000000
v -0.643212 2.452791 0.543221 0.000000 0.000000 1.000000 1.000000
v -0.500984 2.511831 0.407094 0.000000 0.000000 1.000000 1.000000
v -0.650119 2.457082 -0.568456 0.000000 0.000000 1.000000 1.000000
v -0.497945 2.499523 -0.447372 0.000000 0.000000 1.000000 1.000000
v -0.555359 2.455475 -0.647275 0.000000 0.000000 1.000000 1.000000
v -0.613925 2.452791 -0.613925 0.000000 0.000000 1.000000 1.000000
v -0.400010 2.500000 -0.500000 0.000000 0.000000 1.000000 1.000000
v 0.410758 2.514894 -0.500722 0.000000 0.000000 1.000000 1.000000
v 0.543222 2.452791 -0.643212 0.000000 0.000000 1.000000 1.000000
v 0.647403 2.456056 -0.564722 0.000000 0.000000 1.000000 1.000000
v 0.613925 2.452791 -0.613925 0.000000 0.000000 1.000000 1.000000
v 0.498609 2.499249 -0.442315 0.000000 0.000000 1.000000 1.000000
v 0.575173 2.505709 0.573806 0.000000 0.000000 1.000000 1.000000
v 0.643212 2.452791 0.543221 0.000000 0.000000 1.000000 1.000000
v 0.613925 2.452791 0.613925 0.000000 0.000000 1.000000 1.000000
v 0.500000 2.500000 0.400010 0.000000 0.000000 1.000000 1.000000
v 0.470714 2.500000 0.470713 0.000000 0.000000 1.000000 1.000000
v -0.613925 2.452791 0.613925 0.000000 0.000000 1.000000 1.000000
v -0.613925 2.050436 0.613925 0.000000 0.000000 1.000000 1.000000
v -0.643212 2.452791 0.543221 0.000000 0.000000 1.000000 1.000000
v -0.643212 2.050436 0.543221 0.000000 0.000000 1.000000 1.000000
v -0.647447 2.047566 -0.563669 0.000000 0.000000 1.000000 1.000000
v -0.650119 2.457082 -0.568456 0.000000 0.000000 1.000000 1.000000
v -0.613925 2.452791 -0.613925 0.000000 0.000000 1.000000 1.000000
v -0.613925 2.050436 -0.613925 0.000000 0.000000 1.000000 1.000000
v -0.613925 2.050436 0.613925 0.000000 0.000000 1.000000 1.000000
v -0.613925 2.452791 0.613925 0.000000 0.000000 1.000000 1.000000
v -0.565387 2.045488 0.650525 0.000000 0.000000 1.000000 1.000000
v -0.543222 2.452791 0.643211 0.000000 0.000000 1.000000 1.000000
v 0.543222 2.452791 0.643211 0.000000 0.000000 1.000000 1.000000
v 0.543222 2.050436 0.643211 0.000000 0.000000 1.000000 1.000000
v 0.613925 2.050436 0.613925 0.000000 0.000000 1.000000 1.000000
v 0.613925 2.452791 0.613925 0.000000 0.000000 1.000000 1.000000
v -0.613925 2.050436 -0.613925 0.000000 0.000000 1.000000 1.000000
v -0.555359 2.455475 -0.647275 0.000000 0.000000 1.000000 1.000000
v -0.613925 2.452791 -0.613925 0.000000 0.000000 1.000000 1.000000
v -0.553526 2.046417 -0.649935 0.000000 0.000000 1.000000 1.000000
v 0.543222 2.050436 -0.643212 0.000000 0.000000 1.000000 1.000000
v 0.543222 2.452791 -0.643212 0.000000 0.000000 1.000000 1.000000
v 0.613925 2.452791 -0.613925 0.000000 0.000000 1.000000 1.000000
v 0.613925 2.050436 -0.613925 0.000000 0.000000 1.000000 1.000000
v 0.613925 2.452791 0.613925 0.000000 0.000000 1.000000 1.000000
v 0.643212 2.050436 0.543221 0.000000 0.000000 1.000000 1.000000
v 0.613925 2.050436 0.613925 0.000000 0.000000 1.000000 1.000000
v 0.643212 2.452791 0.543221 0.000000 0.000000 1.000000 1.000000
v 0.647403 2.456056 -0.564722 0.000000 0.000000 1.000000 1.000000
v 0.643212 2.050436 -0.543222 0.000000 0.000000 1.000000 1.000000
v 0.613925 2.050436 -0.613925 0.000000 0.000000 1.000000 1.000000
v 0.613925 2.452791 -0.613925 0.000000 0.000000 1.000000 1.000000
v 0.000001 2.500000 0.449999 0.000000 0.000000 1.000000 1.000000
v 0.000000 11.499999 0.449998 0.000000 0.000000 1.000000 1.000000
v 0.139058 2.500000 0.427974 0.000000 0.000000 1.000000 1.000000
v 0.205829 11.499999 0.403913 0.000000 0.000000 1.000000 1.000000
v 0.322467 2.499993 0.319294 0.000000 0.000000 1.000000 1.000000
v 0.364057 11.499999 0.264503 0.000000 0.000000 1.000000 1.000000
v 0.427976 2.500000 0.139057 0.000000 0.000000 1.000000 1.000000
v 0.447856 11.500005 0.073202 0.000000 0.000000 1.000000 1.000000
v 0.447754 2.500000 -0.070922 0.000000 0.000000 1.000000 1.000000
v 0.427976 11.499999 -0.139059 0.000000 0.000000 1.000000 1.000000
v 0.364052 2.500000 -0.264513 0.000000 0.000000 1.000000 1.000000
v 0.364070 11.499999 -0.264490 0.000000 0.000000 1.000000 1.000000
v 0.264498 2.500000 -0.364062 0.000000 0.000000 1.000000 1.000000
v 0.208043 11.500005 -0.403305 0.000000 0.000000 1.000000 1.000000
v 0.070916 2.500000 -0.447755 0.000000 0.000000 1.000000 1.000000
v 0.000001 11.499999 -0.450002 0.000000 0.000000 1.000000 1.000000
v -0.192845 2.500006 -0.415274 0.000000 0.000000 1.000000 1.000000
v -0.218142 11.499999 -0.399423 0.000000 0.000000 1.000000 1.000000
v -0.364061 2.500000 -0.264499 0.000000 0.000000 1.000000 1.000000
v -0.364054 11.499999 -0.264510 0.000000 0.000000 1.000000 1.000000
v -0.427975 2.500000 -0.139058 0.000000 0.000000 1.000000 1.000000
v -0.427975 11.499999 -0.139060 0.000000 0.000000 1.000000 1.000000
v -0.449999 2.500000 -0.000001 0.000000 0.000000 1.000000 1.000000
v -0.447753 11.499999 0.070915 0.000000 0.000000 1.000000 1.000000
v -0.403305 2.499993 0.208034 0.000000 0.000000 1.000000 1.000000
v -0.364059 11.499999 0.264498 0.000000 0.000000 1.000000 1.000000
v -0.264504 2.500000 0.364056 0.000000 0.000000 1.000000 1.000000
v -0.205823 11.499999 0.403915 0.000000 0.000000 1.000000 1.000000
v -0.139057 2.500000 0.427975 0.000000 0.000000 1.000000 1.000000
v 0.000000 11.499999 0.449998 0.000000 0.000000 1.000000 1.000000
v 0.000001 2.500000 0.449999 0.000000 0.000000 1.000000 1.000000
v 0.470714 2.500000 0.470713 0.000000 0.000000 1.000000 1.000000
v 0.229720 2.500000 0.230307 0.000000 0.000000 1.000000 1.000000
v 0.500000 2.500000 0.400010 0.000000 0.000000 1.000000 1.000000
v 0.400010 2.500000 0.500000 0.000000 0.000000 1.000000 1.000000
v 0.498609 2.499249 -0.442315 0.000000 0.000000 1.000000 1.000000
v -0.229956 2.500000 0.229392 0.000000 0.000000 1.000000 1.000000
v 0.229956 2.500000 -0.229393 0.000000 0.000000 1.000000 1.000000
v -0.444428 2.516564 0.499178 0.000000 0.000000 1.000000 1.000000
v 0.410758 2.514894 -0.500722 0.000000 0.000000 1.000000 1.000000
v -0.500984 2.511831 0.407094 0.000000 0.000000 1.000000 1.000000
v -0.400010 2.500000 -0.500000 0.000000 0.000000 1.000000 1.000000
v -0.229719 2.500000 -0.230307 0.000000 0.000000 1.000000 1.000000
v -0.497945 2.499523 -0.447372 0.000000 0.000000 1.000000 1.000000
vt -0.765625 -1.279297
vt -0.775391 -1.535156
vt -0.765625 -1.535156
vt -0.775391 -1.279297
vt -0.876953 -1.535156
vt -0.878906 -1.279297
vt -0.886719 -1.533203
vt -0.887207 -1.279297
vt -0.887207 -1.279297
vt -0.896484 -1.533203
vt -0.886719 -1.533203
vt -0.896973 -1.279297
vt -0.997559 -1.533203
vt -0.998047 -1.281250
vt -1.006836 -1.533203
vt -1.007812 -1.281250
vt -0.643555 -1.279297
vt -0.654297 -1.535156
vt -0.644531 -1.533203
vt -0.653320 -1.279297
vt -0.755859 -1.279297
vt -0.755859 -1.535156
vt -0.765625 -1.535156
vt -0.765625 -1.279297
vt -0.523926 -1.533203
vt -0.523438 -1.281250
vt -0.533691 -1.533203
vt -0.532715 -1.281250
vt -0.634277 -1.279297
vt -0.634277 -1.533203
vt -0.644531 -1.533203
vt -0.643555 -1.279297
vt 0.006535 0.929260
vt 0.010033 0.939270
vt 0.001523 0.938751
vt 0.131836 0.941010
vt 0.018127 0.917603
vt 0.026505 0.920959
vt 0.117920 0.922485
vt 0.134888 0.921875
vt 0.152466 0.923462
vt 0.134644 0.942108
vt 0.140625 0.941284
vt 0.257324 0.941589
vt 0.244019 0.923035
vt 0.260986 0.922485
vt 0.265137 0.941742
vt 0.260986 0.942810
vt 0.278320 0.923340
vt 0.385254 0.927185
vt 0.381592 0.941986
vt 0.370117 0.923157
vt 0.387207 0.942902
vt 0.387207 0.922607
vt 0.393311 0.942169
vt 0.404297 0.923401
vt 0.514648 0.930603
vt 0.511719 0.940491
vt 0.520508 0.939941
vt 0.495605 0.922058
vt 0.503906 0.918823
vt 0.017136 0.980286
vt 0.005867 0.968353
vt 0.025589 0.977127
vt 0.122437 0.977295
vt 0.009636 0.958466
vt 0.001042 0.958801
vt 0.128296 0.959259
vt 0.134277 0.958649
vt 0.140137 0.959625
vt 0.151978 0.978073
vt 0.257812 0.960693
vt 0.251221 0.979599
vt 0.264648 0.960968
vt 0.260986 0.959717
vt 0.278076 0.979156
vt 0.370605 0.979004
vt 0.381592 0.960327
vt 0.391113 0.960510
vt 0.387451 0.959412
vt 0.399658 0.978790
vt 0.515625 0.969574
vt 0.512207 0.959717
vt 0.520996 0.960052
vt 0.496338 0.978485
vt 0.504883 0.981598
vt 0.134277 0.958649
vt 0.134644 0.942108
vt 0.140137 0.959625
vt 0.140625 0.941284
vt 0.257324 0.941833
vt 0.257568 0.960693
vt 0.260986 0.959717
vt 0.260986 0.942810
vt 0.134644 0.942108
vt 0.134277 0.958649
vt 0.131226 0.941132
vt 0.128296 0.959259
vt 0.009636 0.958466
vt 0.010033 0.939270
vt 0.001523 0.938751
vt 0.001042 0.958801
vt 0.260986 0.942810
vt 0.265625 0.960693
vt 0.260986 0.959717
vt 0.265869 0.941833
vt 0.381592 0.941986
vt 0.381592 0.960327
vt 0.387451 0.959412
vt 0.387207 0.942902
vt 0.520996 0.960052
vt 0.511719 0.940491
vt 0.520508 0.939941
vt 0.512207 0.959717
vt 0.391113 0.960297
vt 0.393311 0.942169
vt 0.387207 0.942902
vt 0.387451 0.959412
vt -2.679688 1.424805
vt -2.679688 2.549805
vt -2.697266 1.424805
vt -2.707031 2.549805
vt -2.724609 1.424805
vt -2.732422 2.549805
vt -2.751953 1.424805
vt -2.759766 2.549805
vt -2.777344 1.424805
vt -2.787109 2.549805
vt -2.804688 1.424805
vt -2.804688 2.549805
vt -2.822266 1.424805
vt -2.830078 2.549805
vt -2.847656 1.424805
vt -2.857422 2.549805
vt -2.880859 1.424805
vt -2.884766 2.549805
vt -2.910156 1.424805
vt -2.910156 2.549805
vt -2.927734 1.424805
vt -2.927734 2.549805
vt -2.945312 1.424805
vt -2.953125 2.549805
vt -2.970703 1.424805
vt -2.980469 2.549805
vt -2.998047 1.424805
vt -3.005859 2.549805
vt -3.015625 1.424805
vt -3.033203 2.549805
vt -3.033203 1.424805
vt -3.474609 1.823730
vt -3.503906 1.853516
vt -3.484375 1.819824
vt -3.470703 1.832520
vt -3.589844 1.820312
vt -3.505859 1.911133
vt -3.562500 1.853516
vt -3.470703 1.937988
vt -3.595703 1.831055
vt -3.482422 1.944824
vt -3.595703 1.932617
vt -3.562500 1.911133
vt -3.589844 1.944824
vt1 0.617188 1.009666
vt1 0.606934 0.754639
vt1 0.617188 0.754517
vt1 0.606934 1.009644
vt1 0.505859 0.754639
vt1 0.503906 1.009026
vt1 0.496094 0.754883
vt1 0.495361 1.009087
vt1 0.495361 1.009087
vt1 0.486084 0.755127
vt1 0.496094 0.755005
vt1 0.485596 1.008949
vt1 0.385254 0.755249
vt1 0.384521 1.008148
vt1 0.375488 0.755371
vt1 0.374756 1.008057
vt1 0.738770 1.009087
vt1 0.728516 0.754639
vt1 0.737793 0.754883
vt1 0.729004 1.009209
vt1 0.626953 1.009644
vt1 0.626953 0.754639
vt1 0.617188 0.754517
vt1 0.617188 1.009666
vt1 0.858398 0.755493
vt1 0.859375 1.008049
vt1 0.848633 0.755249
vt1 0.849609 1.008141
vt1 0.748535 1.008949
vt1 0.748047 0.755005
vt1 0.738281 0.755005
vt1 0.738770 1.009087
vt1 0.454102 0.453125
vt1 0.454590 0.454590
vt1 0.453369 0.454590
vt1 0.471924 0.455078
vt1 0.455566 0.451660
vt1 0.456787 0.452148
vt1 0.469971 0.452148
vt1 0.472168 0.452148
vt1 0.474854 0.452637
vt1 0.472168 0.455078
vt1 0.473145 0.455078
vt1 0.489746 0.455078
vt1 0.487793 0.452637
vt1 0.490234 0.452148
vt1 0.490723 0.455078
vt1 0.490234 0.455078
vt1 0.492676 0.452637
vt1 0.507812 0.453125
vt1 0.507324 0.455078
vt1 0.505371 0.452637
vt1 0.507812 0.455078
vt1 0.507812 0.452148
vt1 0.508789 0.455078
vt1 0.510254 0.452637
vt1 0.526367 0.453613
vt1 0.525879 0.455078
vt1 0.526855 0.455078
vt1 0.523438 0.452148
vt1 0.524414 0.451660
vt1 0.455566 0.464355
vt1 0.453857 0.462891
vt1 0.456787 0.463867
vt1 0.470459 0.463867
vt1 0.454346 0.461426
vt1 0.453125 0.461426
vt1 0.471436 0.461426
vt1 0.472168 0.461426
vt1 0.473145 0.461426
vt1 0.474609 0.464355
vt1 0.489746 0.461426
vt1 0.488770 0.464355
vt1 0.490723 0.461914
vt1 0.490234 0.461426
vt1 0.492676 0.464355
vt1 0.505859 0.464355
vt1 0.507324 0.461426
vt1 0.508789 0.461426
vt1 0.508301 0.461426
vt1 0.509766 0.464355
vt1 0.526367 0.462891
vt1 0.525879 0.461426
vt1 0.526855 0.461426
vt1 0.523438 0.464355
vt1 0.524902 0.464844
vt1 0.472168 0.461426
vt1 0.472168 0.455078
vt1 0.473145 0.461426
vt1 0.473145 0.455078
vt1 0.489746 0.455078
vt1 0.489746 0.461914
vt1 0.490234 0.461426
vt1 0.490234 0.455078
vt1 0.472168 0.455078
vt1 0.472168 0.461426
vt1 0.471680 0.455078
vt1 0.471436 0.461426
vt1 0.454346 0.461426
vt1 0.454590 0.454590
vt1 0.453369 0.454590
vt1 0.453125 0.461426
vt1 0.490234 0.455078
vt1 0.490967 0.461914
vt1 0.490234 0.461426
vt1 0.490967 0.455078
vt1 0.507324 0.455078
vt1 0.507324 0.461426
vt1 0.508301 0.461426
vt1 0.507812 0.455078
vt1 0.526855 0.461426
vt1 0.525879 0.455078
vt1 0.526855 0.455078
vt1 0.525879 0.461426
vt1 0.508789 0.461426
vt1 0.508789 0.455078
vt1 0.507812 0.455078
vt1 0.508301 0.461426
vt1 0.452881 0.451660
vt1 0.452881 0.593506
vt1 0.450684 0.451660
vt1 0.449463 0.593506
vt1 0.447266 0.451660
vt1 0.446045 0.593506
vt1 0.443848 0.451660
vt1 0.442871 0.593506
vt1 0.440674 0.451660
vt1 0.439453 0.593506
vt1 0.437256 0.451660
vt1 0.437256 0.593506
vt1 0.435059 0.451660
vt1 0.433838 0.593506
vt1 0.431641 0.451660
vt1 0.430664 0.593506
vt1 0.427490 0.451660
vt1 0.427002 0.593506
vt1 0.423828 0.451660
vt1 0.423828 0.593506
vt1 0.421631 0.451660
vt1 0.421631 0.593506
vt1 0.419434 0.451660
vt1 0.418457 0.593506
vt1 0.416016 0.451660
vt1 0.415039 0.593506
vt1 0.412842 0.451660
vt1 0.411621 0.593506
vt1 0.410645 0.451660
vt1 0.408447 0.593506
vt1 0.408447 0.451660
vt1 0.542480 0.452148
vt1 0.538574 0.456055
vt1 0.541504 0.451660
vt1 0.542969 0.453125
vt1 0.527832 0.451660
vt1 0.538574 0.463379
vt1 0.531250 0.456055
vt1 0.542969 0.466797
vt1 0.526855 0.453125
vt1 0.541504 0.467285
vt1 0.526855 0.465820
vt1 0.531250 0.463379
vt1 0.527832 0.467285
vn -0.921260 -0.000000 -0.385827
vn -1.000000 -0.000000 -0.031496
vn -0.921260 -0.000000 -0.385827
vn -1.000000 -0.000000 -0.031496
vn -1.000000 0.000000 0.031496
vn -1.000000 0.000000 0.039370
vn -0.921260 0.000000 0.385827
vn -0.921260 0.000000 0.385827
vn -0.385827 0.000000 0.921260
vn -0.031496 0.000000 1.000000
vn -0.385827 0.000000 0.921260
vn -0.031496 0.000000 1.000000
vn 0.031496 0.000000 1.000000
vn 0.031496 0.000000 1.000000
vn 0.385827 0.000000 0.921260
vn 0.385827 0.000000 0.921260
vn 0.385827 -0.000000 -0.921260
vn 0.031496 -0.000000 -1.000000
vn 0.385827 -0.000000 -0.921260
vn 0.031496 -0.000000 -1.000000
vn -0.031496 -0.000000 -1.000000
vn -0.031496 -0.000000 -1.000000
vn -0.385827 -0.000000 -0.921260
vn -0.385827 -0.000000 -0.921260
vn 0.921260 0.000000 0.385827
vn 0.921260 0.000000 0.385827
vn 1.000000 0.000000 0.031496
vn 1.000000 0.000000 0.031496
vn 1.000000 -0.000000 -0.031496
vn 1.000000 -0.000000 -0.031496
vn 0.921260 -0.000000 -0.385827
vn 0.921260 -0.000000 -0.385827
vn 0.047244 -0.921260 0.377953
vn 0.031496 -0.724409 0.692913
vn 0.409449 -0.818897 0.409449
vn -0.031496 -0.732283 0.677165
vn 0.000000 -1.000000 0.000000
vn 0.000000 -1.000000 0.000000
vn 0.000000 -1.000000 0.000000
vn 0.000000 -1.000000 0.000000
vn -0.102362 -0.992126 -0.007874
vn -0.409449 -0.818897 0.409449
vn -0.692913 -0.724409 0.031496
vn -0.669291 -0.740157 -0.039370
vn 0.000000 -1.000000 0.000000
vn 0.000000 -1.000000 0.000000
vn -0.031496 -0.724409 -0.685039
vn -0.409449 -0.818898 -0.409449
vn 0.000000 -1.000000 0.000000
vn 0.086614 -0.984252 -0.125984
vn 0.031496 -0.724409 -0.692913
vn 0.000000 -1.000000 0.000000
vn 0.409449 -0.818898 -0.409449
vn 0.000000 -1.000000 0.000000
vn 0.692913 -0.724409 -0.031496
vn 0.000000 -1.000000 0.000000
vn 0.393701 -0.921260 0.031496
vn 0.692913 -0.724409 0.031496
vn 0.409449 -0.818897 0.409449
vn 0.000000 -1.000000 0.000000
vn 0.000000 -1.000000 0.000000
vn 0.000000 1.000000 -0.000000
vn 0.047244 0.921260 0.377953
vn 0.000000 1.000000 -0.000000
vn 0.015748 0.992126 0.086614
vn 0.031496 0.724409 0.692913
vn 0.409449 0.818898 0.409449
vn -0.031496 0.724409 0.692913
vn -0.409449 0.818898 0.409449
vn -0.692913 0.724409 0.031496
vn -0.078740 1.000000 -0.007874
vn -0.677165 0.732283 -0.039370
vn -0.023622 1.000000 0.023622
vn -0.023622 0.724409 -0.685039
vn -0.409449 0.818897 -0.409449
vn 0.000000 1.000000 -0.000000
vn -0.007874 1.000000 -0.078740
vn 0.031496 0.724409 -0.692913
vn 0.669291 0.740157 -0.039370
vn 0.409449 0.818897 -0.409449
vn 0.000000 1.000000 -0.000000
vn 0.393701 0.921260 0.031496
vn 0.692913 0.724409 0.031496
vn 0.409449 0.818898 0.409449
vn 0.000000 1.000000 -0.000000
vn 0.000000 1.000000 -0.000000
vn -0.921260 0.000000 0.385827
vn -0.921260 0.000000 0.385827
vn -1.000000 0.000000 0.023622
vn -1.000000 0.000000 0.023622
vn -1.000000 -0.000000 -0.031496
vn -1.000000 -0.000000 -0.031496
vn -0.921260 -0.000000 -0.385827
vn -0.921260 -0.000000 -0.385827
vn -0.385827 0.000000 0.921260
vn -0.385827 0.000000 0.921260
vn -0.031496 0.000000 1.000000
vn -0.023622 0.000000 1.000000
vn 0.023622 0.000000 1.000000
vn 0.023622 0.000000 1.000000
vn 0.385827 0.000000 0.921260
vn 0.385827 0.000000 0.921260
vn -0.385827 -0.000000 -0.921260
vn -0.031496 -0.000000 -1.000000
vn -0.385827 -0.000000 -0.921260
vn -0.031496 -0.000000 -1.000000
vn 0.023622 -0.000000 -1.000000
vn 0.023622 -0.000000 -1.000000
vn 0.385827 -0.000000 -0.921260
vn 0.385827 -0.000000 -0.921260
vn 0.921260 0.000000 0.385827
vn 1.000000 0.000000 0.023622
vn 0.921260 0.000000 0.385827
vn 1.000000 0.000000 0.023622
vn 1.000000 -0.000000 -0.031496
vn 1.000000 -0.000000 -0.023622
vn 0.921260 -0.000000 -0.385827
vn 0.921260 -0.000000 -0.385827
vn 0.000000 0.000000 1.000000
vn 0.000000 0.000000 1.000000
vn 0.307087 0.000000 0.952756
vn 0.456693 0.000000 0.889764
vn 0.708661 0.000000 0.700787
vn 0.811024 0.000000 0.590551
vn 0.952756 0.000000 0.307087
vn 0.984252 0.000000 0.157480
vn 0.984252 -0.000000 -0.157480
vn 0.952756 -0.000000 -0.307087
vn 0.811024 -0.000000 -0.590551
vn 0.811024 -0.000000 -0.590551
vn 0.590551 -0.000000 -0.811023
vn 0.456693 -0.000000 -0.889764
vn 0.157480 -0.000000 -0.984252
vn 0.000000 -0.000000 -1.000000
vn -0.417323 -0.000000 -0.905512
vn -0.480315 -0.000000 -0.874016
vn -0.811024 -0.000000 -0.590551
vn -0.811024 -0.000000 -0.590551
vn -0.952756 -0.000000 -0.307087
vn -0.952756 -0.000000 -0.307087
vn -1.000000 0.000000 0.000000
vn -0.984252 0.000000 0.157480
vn -0.889764 0.000000 0.456693
vn -0.811024 0.000000 0.590551
vn -0.590551 0.000000 0.811023
vn -0.456693 0.000000 0.889764
vn -0.307087 0.000000 0.952756
vn 0.000000 0.000000 1.000000
vn 0.000000 0.000000 1.000000
vn 0.000000 1.000000 -0.000000
vn 0.000000 1.000000 -0.000000
vn 0.000000 1.000000 -0.000000
vn 0.000000 1.000000 -0.000000
vn 0.000000 1.000000 -0.000000
vn 0.000000 1.000000 -0.000000
vn 0.000000 1.000000 -0.000000
vn 0.000000 1.000000 -0.000000
vn 0.000000 1.000000 -0.000000
vn 0.000000 1.000000 -0.000000
vn 0.000000 1.000000 -0.000000
vn 0.000000 1.000000 -0.000000
vn 0.000000 1.000000 -0.000000
tan 0.000000 -0.948602 0.000000 1.000000
tan 0.000000 -1.000000 0.000000 1.000000
tan 0.000000 -0.921260 0.000000 1.000000
tan 0.000000 -1.000000 0.000000 1.000000
tan 0.000000 -1.000000 0.000000 1.000000
tan 0.000310 -1.000000 0.007874 1.000000
tan -0.003038 -0.924298 -0.007254 1.000000
tan 0.006076 -0.948602 0.014508 1.000000
tan 0.014508 -0.948602 0.006076 1.000000
tan -0.007874 -1.000000 -0.000248 1.000000
tan -0.014508 -0.921260 -0.006076 1.000000
tan 0.007874 -1.000000 0.000248 1.000000
tan -0.007874 -1.000000 0.000248 1.000000
tan 0.007874 -1.000000 -0.000248 1.000000
tan -0.007254 -0.924298 0.003038 1.000000
tan 0.007254 -0.948602 -0.003038 1.000000
tan 0.014508 -0.948602 0.006076 1.000000
tan 0.000000 -1.000000 0.000000 1.000000
tan -0.014508 -0.921260 -0.006076 1.000000
tan 0.007874 -1.000000 0.000248 1.000000
tan 0.000000 -1.000000 0.000000 1.000000
tan 0.000000 -1.000000 0.000000 1.000000
tan -0.007254 -0.924298 0.003038 1.000000
tan 0.000000 -0.948602 0.000000 1.000000
tan 0.006076 -0.921260 -0.014508 1.000000
tan -0.003038 -0.948602 0.007254 1.000000
tan 0.000248 -1.000000 -0.007874 1.000000
tan -0.000248 -1.000000 0.007874 1.000000
tan 0.000248 -1.000000 0.007874 1.000000
tan -0.000248 -1.000000 -0.007874 1.000000
tan -0.003038 -0.924298 -0.007254 1.000000
tan 0.006076 -0.948602 0.014508 1.000000
tan -0.050778 -0.380557 -0.921260 1.000000
tan -0.039432 -0.694153 -0.723913 1.000000
tan -0.332073 -0.548081 -0.764089 1.000000
tan 0.074090 -0.679893 -0.731787 1.000000
tan -0.031496 -0.000000 -1.000000 1.000000
tan 0.015748 -0.000000 -1.000000 1.000000
tan 0.110236 -0.000000 -0.992126 1.000000
tan 0.708661 -0.000000 -0.700787 1.000000
tan 0.984314 -0.100626 -0.117180 1.000000
tan 0.580321 -0.580321 -0.580321 1.000000
tan 0.715977 -0.691425 -0.151280 1.000000
tan 0.733399 -0.667431 0.079918 1.000000
tan 0.992126 0.000000 0.110236 1.000000
tan 0.700787 0.000000 0.716535 1.000000
tan 0.084630 -0.682621 0.717961 1.000000
tan 0.573873 -0.577097 0.580321 1.000000
tan 0.086614 0.000000 0.992126 1.000000
tan -0.581251 -0.153326 0.798251 1.000000
tan -0.151280 -0.691425 0.715977 1.000000
tan -0.102362 0.000000 0.992126 1.000000
tan -0.586769 -0.580321 0.573873 1.000000
tan -0.716535 0.000000 0.692913 1.000000
tan -0.716225 -0.691177 0.140120 1.000000
tan -0.992126 0.000000 0.102362 1.000000
tan -0.921260 -0.395189 -0.043524 1.000000
tan -0.723913 -0.694153 -0.039432 1.000000
tan -0.764089 -0.548081 -0.332073 1.000000
tan -1.000000 0.000000 0.007874 1.000000
tan -1.000000 -0.000000 -0.039370 1.000000
tan 0.055118 0.000000 1.000000 1.000000
tan 0.058032 -0.380929 0.921260 1.000000
tan 0.007874 0.000000 1.000000 1.000000
tan -0.164052 -0.082646 0.976502 1.000000
tan 0.050592 -0.694401 0.723665 1.000000
tan 0.344969 -0.551305 0.757641 1.000000
tan -0.134416 -0.690929 0.716225 1.000000
tan -0.564201 -0.580321 0.596441 1.000000
tan -0.710273 -0.686217 0.156984 1.000000
tan -0.992126 -0.077004 0.141732 1.000000
tan -0.725587 -0.675243 -0.079422 1.000000
tan -0.976378 -0.017484 -0.236220 1.000000
tan -0.084630 -0.681877 -0.718147 1.000000
tan -0.580321 -0.577097 -0.573873 1.000000
tan -0.086614 -0.000000 -0.992126 1.000000
tan 0.149606 -0.076942 -0.992126 1.000000
tan 0.151280 -0.685969 -0.710273 1.000000
tan 0.739227 -0.672701 -0.079918 1.000000
tan 0.586769 -0.580321 -0.573873 1.000000
tan 0.992126 -0.000000 -0.133858 1.000000
tan 0.921260 -0.395685 0.058032 1.000000
tan 0.723665 -0.694401 0.050592 1.000000
tan 0.757641 -0.551305 0.344969 1.000000
tan 1.000000 0.000000 0.007874 1.000000
tan 1.000000 0.000000 0.055118 1.000000
tan 0.142786 -0.880278 0.340939 1.000000
tan -0.082026 -0.926840 -0.195858 1.000000
tan 0.003348 -0.992126 0.141732 1.000000
tan -0.002790 -0.992126 -0.118110 1.000000
tan -0.003720 -0.992126 0.118110 1.000000
tan 0.003720 -0.992126 -0.118110 1.000000
tan 0.078988 -0.926840 -0.188604 1.000000
tan -0.124558 -0.897824 0.297415 1.000000
tan 0.282907 -0.905078 0.118482 1.000000
tan -0.152334 -0.934094 -0.063798 1.000000
tan 0.118110 -0.992126 0.003720 1.000000
tan -0.086614 -1.000000 -0.002046 1.000000
tan -0.015748 -1.000000 0.000372 1.000000
tan 0.094488 -0.992126 -0.002232 1.000000
tan 0.137826 -0.934094 -0.057722 1.000000
tan -0.101556 -0.941348 0.042532 1.000000
tan 0.188604 -0.926840 -0.078988 1.000000
tan -0.110236 -0.992126 0.003472 1.000000
tan -0.297415 -0.897824 0.124558 1.000000
tan 0.125984 -0.992126 -0.003968 1.000000
tan -0.118110 -0.992126 -0.002790 1.000000
tan 0.141732 -0.992126 0.003348 1.000000
tan 0.224874 -0.919586 0.094178 1.000000
tan -0.319177 -0.887532 -0.133672 1.000000
tan 0.030380 -0.941348 -0.072540 1.000000
tan -0.001674 -1.000000 0.070866 1.000000
tan -0.066836 -0.934094 0.159588 1.000000
tan 0.001116 -1.000000 -0.047244 1.000000
tan -0.002480 -1.000000 -0.078740 1.000000
tan 0.002976 -0.992126 0.125984 1.000000
tan 0.075950 -0.926840 0.181350 1.000000
tan -0.103292 -0.912332 -0.246636 1.000000
tan 0.000000 -1.000000 0.000000 1.000000
tan 0.000000 -1.000000 0.000000 1.000000
tan 0.000000 -0.952756 0.000000 1.000000
tan 0.000000 -0.882572 0.000000 1.000000
tan 0.000000 -0.998760 0.000000 1.000000
tan 0.000000 -0.829624 0.000000 1.000000
tan 0.000000 -0.952756 0.000000 1.000000
tan 0.000000 -0.984252 0.000000 1.000000
tan 0.000000 -0.984252 0.000000 1.000000
tan 0.000000 -0.952756 0.000000 1.000000
tan 0.000000 -0.895902 0.000000 1.000000
tan 0.000000 -0.815673 0.000000 1.000000
tan 0.000000 -0.879038 0.000000 1.000000
tan 0.000000 -0.882572 0.000000 1.000000
tan 0.000000 -0.984252 0.000000 1.000000
tan 0.000000 -1.000000 0.000000 1.000000
tan 0.000000 -0.902226 0.000000 1.000000
tan 0.000000 -0.862670 0.000000 1.000000
tan 0.000000 -0.811023 0.000000 1.000000
tan 0.000000 -0.905202 0.000000 1.000000
tan 0.000000 -0.952756 0.000000 1.000000
tan 0.000000 -0.952756 0.000000 1.000000
tan 0.000000 -1.000000 0.000000 1.000000
tan 0.000000 -0.984252 0.000000 1.000000
tan 0.000000 -0.882572 0.000000 1.000000
tan 0.000000 -0.883688 0.000000 1.000000
tan 0.000000 -0.838924 0.000000 1.000000
tan 0.000000 -0.889764 0.000000 1.000000
tan 0.000000 -0.952756 0.000000 1.000000
tan 0.000000 -1.000000 0.000000 1.000000
tan 0.000000 -1.000000 0.000000 1.000000
tan 1.000000 0.000000 0.000000 1.000000
tan 1.000000 0.000000 0.000000 1.000000
tan 1.000000 0.000000 0.000000 1.000000
tan 1.000000 0.000000 0.000000 1.000000
tan 1.000000 0.000000 0.000000 1.000000
tan 1.000000 0.000000 0.000000 1.000000
tan 1.000000 0.000000 0.000000 1.000000
tan 1.000000 0.000000 0.000000 1.000000
tan 1.000000 0.000000 0.000000 1.000000
tan 1.000000 0.000000 0.000000 1.000000
tan 1.000000 0.000000 0.000000 1.000000
tan 1.000000 0.000000 0.000000 1.000000
tan 1.000000 0.000000 0.000000 1.000000
f 3/3/3 2/2/2 1/1/1
f 4/4/4 1/1/1 2/2/2
f 2/2/2 5/5/5 4/4/4
f 6/6/6 4/4/4 5/5/5
f 5/5/5 7/7/7 6/6/6
f 8/8/8 6/6/6 7/7/7
f 11/11/11 10/10/10 9/9/9
f 12/12/12 9/9/9 10/10/10
f 12/12/12 10/10/10 13/13/13
f 14/14/14 12/12/12 13/13/13
f 13/13/13 15/15/15 14/14/14
f 16/16/16 14/14/14 15/15/15
f 19/19/19 18/18/18 17/17/17
f 17/17/17 18/18/18 20/20/20
f 18/18/18 21/21/21 20/20/20
f 21/21/21 18/18/18 22/22/22
f 22/22/22 23/23/23 21/21/21
f 21/21/21 23/23/23 24/24/24
f 27/27/27 26/26/26 25/25/25
f 26/26/26 27/27/27 28/28/28
f 28/28/28 27/27/27 29/29/29
f 29/29/29 27/27/27 30/30/30
f 31/31/31 29/29/29 30/30/30
f 29/29/29 31/31/31 32/32/32
f 35/35/35 34/34/34 33/33/33
f 33/33/33 34/34/34 36/36/36
f 38/38/38 37/37/37 33/33/33
f 33/33/33 36/36/36 38/38/38
f 39/39/39 38/38/38 36/36/36
f 39/39/39 36/36/36 40/40/40
f 41/41/41 40/40/40 36/36/36
f 43/43/43 36/36/36 42/42/42
f 41/41/41 36/36/36 43/43/43
f 43/43/43 44/44/44 41/41/41
f 44/44/44 45/45/45 41/41/41
f 45/45/45 44/44/44 46/46/46
f 47/47/47 46/46/46 44/44/44
f 47/47/47 44/44/44 48/48/48
f 46/46/46 47/47/47 49/49/49
f 49/49/49 47/47/47 50/50/50
f 50/50/50 47/47/47 51/51/51
f 52/52/52 49/49/49 50/50/50
f 53/53/53 50/50/50 51/51/51
f 52/52/52 50/50/50 54/54/54
f 50/50/50 53/53/53 55/55/55
f 54/54/54 50/50/50 56/56/56
f 50/50/50 55/55/55 57/57/57
f 56/56/56 50/50/50 57/57/57
f 58/58/58 57/57/57 55/55/55
f 59/59/59 57/57/57 58/58/58
f 60/60/60 56/56/56 57/57/57
f 60/60/60 57/57/57 61/61/61
f 64/64/64 63/63/63 62/62/62
f 63/63/63 64/64/64 65/65/65
f 67/67/67 63/63/63 66/66/66
f 63/63/63 65/65/65 66/66/66
f 68/68/68 66/66/66 65/65/65
f 69/69/69 68/68/68 65/65/65
f 69/69/69 65/65/65 70/70/70
f 71/71/71 70/70/70 65/65/65
f 70/70/70 71/71/71 72/72/72
f 72/72/72 71/71/71 73/73/73
f 72/72/72 73/73/73 74/74/74
f 75/75/75 72/72/72 74/74/74
f 76/76/76 74/74/74 73/73/73
f 76/76/76 77/77/77 74/74/74
f 77/77/77 78/78/78 74/74/74
f 78/78/78 77/77/77 79/79/79
f 78/78/78 79/79/79 80/80/80
f 79/79/79 77/77/77 81/81/81
f 81/81/81 82/82/82 79/79/79
f 83/83/83 79/79/79 82/82/82
f 83/83/83 82/82/82 84/84/84
f 85/85/85 82/82/82 81/81/81
f 85/85/85 86/86/86 82/82/82
f 89/89/89 88/88/88 87/87/87
f 88/88/88 89/89/89 90/90/90
f 90/90/90 89/89/89 91/91/91
f 91/91/91 89/89/89 92/92/92
f 93/93/93 91/91/91 92/92/92
f 91/91/91 93/93/93 94/94/94
f 97/97/97 96/96/96 95/95/95
f 98/98/98 96/96/96 97/97/97
f 97/97/97 99/99/99 98/98/98
f 99/99/99 97/97/97 100/100/100
f 101/101/101 99/99/99 100/100/100
f 102/102/102 99/99/99 101/101/101
f 105/105/105 104/104/104 103/103/103
f 106/106/106 103/103/103 104/104/104
f 104/104/104 107/107/107 106/106/106
f 107/107/107 104/104/104 108/108/108
f 109/109/109 107/107/107 108/108/108
f 110/110/110 107/107/107 109/109/109
f 113/113/113 112/112/112 111/111/111
f 114/114/114 111/111/111 112/112/112
f 114/114/114 112/112/112 115/115/115
f 115/115/115 112/112/112 116/116/116
f 116/116/116 117/117/117 115/115/115
f 118/118/118 115/115/115 117/117/117
f 121/121/121 120/120/120 119/119/119
f 122/122/122 120/120/120 121/121/121
f 123/123/123 122/122/122 121/121/121
f 123/123/123 124/124/124 122/122/122
f 125/125/125 124/124/124 123/123/123
f 124/124/124 125/125/125 126/126/126
f 125/125/125 127/127/127 126/126/126
f 126/126/126 127/127/127 128/128/128
f 129/129/129 128/128/128 127/127/127
f 128/128/128 129/129/129 130/130/130
f 129/129/129 131/131/131 130/130/130
f 130/130/130 131/131/131 132/132/132
f 131/131/131 133/133/133 132/132/132
f 133/133/133 134/134/134 132/132/132
f 133/133/133 135/135/135 134/134/134
f 134/134/134 135/135/135 136/136/136
f 135/135/135 137/137/137 136/136/136
f 136/136/136 137/137/137 138/138/138
f 137/137/137 139/139/139 138/138/138
f 140/140/140 138/138/138 139/139/139
f 139/139/139 141/141/141 140/140/140
f 142/142/142 140/140/140 141/141/141
f 142/142/142 141/141/141 143/143/143
f 143/143/143 144/144/144 142/142/142
f 145/145/145 144/144/144 143/143/143
f 146/146/146 144/144/144 145/145/145
f 146/146/146 145/145/145 147/147/147
f 148/148/148 146/146/146 147/147/147
f 148/148/148 147/147/147 149/149/149
f 152/152/152 151/151/151 150/150/150
f 150/150/150 151/151/151 153/153/153
f 151/151/151 152/152/152 154/154/154
f 151/151/151 155/155/155 153/153/153
f 156/156/156 151/151/151 154/154/154
f 155/155/155 157/157/157 153/153/153
f 154/154/154 158/158/158 156/156/156
f 157/157/157 155/155/155 159/159/159
f 156/156/156 158/158/158 160/160/160
f 155/155/155 161/161/161 159/159/159
f 161/161/161 156/156/156 160/160/160
f 161/161/161 162/162/162 159/159/159
f 162/162/162 161/161/161 160/160/160
