mtllib SM_Pillar_01_b_LOD2@000002909DC27200.mtl
g SM_Pillar_01_b_LOD2@000002909DC27200
#Vertices 101
#Indices 357
#Section 0 Offset 0 NumIndices 255 MaterialIndex 0 MI_Pillar_02
#Section 1 Offset 255 NumIndices 102 MaterialIndex 1 MI_Pillar_01
v 0.364688 3.258175 0.374439 0.000000 0.000000 1.000000 1.000000
v -0.379846 3.261899 0.364936 0.000000 0.000000 1.000000 1.000000
v 0.368768 3.259034 -0.377775 0.000000 0.000000 1.000000 1.000000
v -0.378115 3.260814 -0.374577 0.000000 0.000000 1.000000 1.000000
v 0.611905 2.050220 0.616909 0.000000 0.000000 1.000000 1.000000
v -0.581169 2.044074 0.597537 0.000000 0.000000 1.000000 1.000000
v 0.729993 2.212398 0.791227 0.000000 0.000000 1.000000 1.000000
v -0.820894 2.234033 0.809287 0.000000 0.000000 1.000000 1.000000
v -0.612318 2.046568 0.557801 0.000000 0.000000 1.000000 1.000000
v 0.880998 2.356617 0.925260 0.000000 0.000000 1.000000 1.000000
v -0.747606 2.203082 -0.785398 0.000000 0.000000 1.000000 1.000000
v -0.618000 2.044754 -0.617629 0.000000 0.000000 1.000000 1.000000
v 0.611595 2.051214 -0.619189 0.000000 0.000000 1.000000 1.000000
v -0.864365 2.372502 0.861017 0.000000 0.000000 1.000000 1.000000
v 0.771906 2.209750 -0.788070 0.000000 0.000000 1.000000 1.000000
v 0.611905 2.050220 0.616909 0.000000 0.000000 1.000000 1.000000
v 0.729993 2.212398 0.791227 0.000000 0.000000 1.000000 1.000000
v 0.880998 2.356617 0.925260 0.000000 0.000000 1.000000 1.000000
v -0.859827 2.369721 -0.893117 0.000000 0.000000 1.000000 1.000000
v 0.865458 2.378868 -0.850846 0.000000 0.000000 1.000000 1.000000
v 0.590376 2.390372 0.634034 0.000000 0.000000 1.000000 1.000000
v 0.637674 2.369777 -0.636048 0.000000 0.000000 1.000000 1.000000
v 0.591351 2.707132 0.642782 0.000000 0.000000 1.000000 1.000000
v -0.628209 2.376397 -0.632229 0.000000 0.000000 1.000000 1.000000
v -0.637485 2.368891 0.635622 0.000000 0.000000 1.000000 1.000000
v 0.590376 2.390372 0.634034 0.000000 0.000000 1.000000 1.000000
v 0.572971 2.736981 -0.533409 0.000000 0.000000 1.000000 1.000000
v 0.429462 2.840695 0.493093 0.000000 0.000000 1.000000 1.000000
v 0.265401 3.095833 0.317240 0.000000 0.000000 1.000000 1.000000
v 0.556072 2.710459 -0.616276 0.000000 0.000000 1.000000 1.000000
v 0.290797 3.080740 -0.296195 0.000000 0.000000 1.000000 1.000000
v 0.368768 3.259034 -0.377775 0.000000 0.000000 1.000000 1.000000
v 0.364688 3.258175 0.374439 0.000000 0.000000 1.000000 1.000000
v -0.572259 2.708696 -0.623987 0.000000 0.000000 1.000000 1.000000
v -0.309690 3.131523 -0.310256 0.000000 0.000000 1.000000 1.000000
v -0.378115 3.260814 -0.374577 0.000000 0.000000 1.000000 1.000000
v -0.379846 3.261899 0.364936 0.000000 0.000000 1.000000 1.000000
v -0.448507 2.855354 -0.441214 0.000000 0.000000 1.000000 1.000000
v -0.284353 3.091331 0.282359 0.000000 0.000000 1.000000 1.000000
v 0.364688 3.258175 0.374439 0.000000 0.000000 1.000000 1.000000
v 0.265401 3.095833 0.317240 0.000000 0.000000 1.000000 1.000000
v 0.429462 2.840695 0.493093 0.000000 0.000000 1.000000 1.000000
v -0.618507 2.708696 -0.577739 0.000000 0.000000 1.000000 1.000000
v -0.592623 2.731801 0.542913 0.000000 0.000000 1.000000 1.000000
v -0.562609 2.710074 0.613195 0.000000 0.000000 1.000000 1.000000
v 0.591351 2.707132 0.642782 0.000000 0.000000 1.000000 1.000000
v 0.520448 0.625057 -0.492355 0.000000 0.000000 1.000000 1.000000
v 0.662232 0.629801 0.673523 0.000000 0.000000 1.000000 1.000000
v 0.520448 0.625057 0.535006 0.000000 0.000000 1.000000 1.000000
v 0.659122 0.626234 -0.620660 0.000000 0.000000 1.000000 1.000000
v 0.655688 0.447297 0.672553 0.000000 0.000000 1.000000 1.000000
v -0.526297 0.623881 -0.492355 0.000000 0.000000 1.000000 1.000000
v 0.643626 0.444296 -0.642146 0.000000 0.000000 1.000000 1.000000
v 0.515130 0.445556 0.540702 0.000000 0.000000 1.000000 1.000000
v 0.515130 0.446440 -0.507921 0.000000 0.000000 1.000000 1.000000
v -0.655206 0.628104 -0.633451 0.000000 0.000000 1.000000 1.000000
v -0.526297 0.623881 0.535006 0.000000 0.000000 1.000000 1.000000
v -0.653082 0.436989 -0.633728 0.000000 0.000000 1.000000 1.000000
v -0.513990 0.444321 -0.507921 0.000000 0.000000 1.000000 1.000000
v -0.673365 0.624448 0.672523 0.000000 0.000000 1.000000 1.000000
v 0.520448 0.625057 0.535006 0.000000 0.000000 1.000000 1.000000
v 0.662232 0.629801 0.673523 0.000000 0.000000 1.000000 1.000000
v -0.633852 0.439754 0.681769 0.000000 0.000000 1.000000 1.000000
v -0.513990 0.443437 0.540702 0.000000 0.000000 1.000000 1.000000
v 0.655688 0.447297 0.672553 0.000000 0.000000 1.000000 1.000000
v 0.515130 0.445556 0.540702 0.000000 0.000000 1.000000 1.000000
v 0.611905 2.050220 0.616909 0.000000 0.000000 1.000000 1.000000
v 0.567340 2.033622 0.599337 0.000000 0.000000 1.000000 1.000000
v -0.581169 2.044074 0.597537 0.000000 0.000000 1.000000 1.000000
v -0.618000 2.044754 -0.617629 0.000000 0.000000 1.000000 1.000000
v -0.612318 2.046568 0.557801 0.000000 0.000000 1.000000 1.000000
v -0.615634 2.033622 -0.567340 0.000000 0.000000 1.000000 1.000000
v 0.567340 2.033622 -0.615630 0.000000 0.000000 1.000000 1.000000
v 0.611595 2.051214 -0.619189 0.000000 0.000000 1.000000 1.000000
v 0.741761 -0.002905 0.788094 0.000000 0.000000 1.000000 1.000000
v -0.714829 -0.001372 0.761045 0.000000 0.000000 1.000000 1.000000
v 0.696814 0.268842 0.765911 0.000000 0.000000 1.000000 1.000000
v -0.561218 0.438682 0.609206 0.000000 0.000000 1.000000 1.000000
v 0.565076 0.479844 0.615832 0.000000 0.000000 1.000000 1.000000
v 0.567340 2.033622 0.599337 0.000000 0.000000 1.000000 1.000000
v -0.581169 2.044074 0.597537 0.000000 0.000000 1.000000 1.000000
v -0.800971 0.009630 0.749675 0.000000 0.000000 1.000000 1.000000
v -0.612318 2.046568 0.557801 0.000000 0.000000 1.000000 1.000000
v -0.593725 0.482943 0.547410 0.000000 0.000000 1.000000 1.000000
v -0.603002 0.452425 -0.559782 0.000000 0.000000 1.000000 1.000000
v -0.761043 -0.001372 -0.711876 0.000000 0.000000 1.000000 1.000000
v -0.615634 2.033622 -0.567340 0.000000 0.000000 1.000000 1.000000
v -0.738977 0.007145 -0.786930 0.000000 0.000000 1.000000 1.000000
v -0.545377 0.483525 -0.593546 0.000000 0.000000 1.000000 1.000000
v -0.618000 2.044754 -0.617629 0.000000 0.000000 1.000000 1.000000
v 0.561616 0.468136 -0.605169 0.000000 0.000000 1.000000 1.000000
v 0.711876 -0.001372 -0.758089 0.000000 0.000000 1.000000 1.000000
v 0.567340 2.033622 -0.615630 0.000000 0.000000 1.000000 1.000000
v 0.786639 0.007375 -0.730115 0.000000 0.000000 1.000000 1.000000
v 0.592261 0.492377 -0.545328 0.000000 0.000000 1.000000 1.000000
v 0.611595 2.051214 -0.619189 0.000000 0.000000 1.000000 1.000000
v 0.611905 2.050220 0.616909 0.000000 0.000000 1.000000 1.000000
v 0.741761 -0.002905 0.788094 0.000000 0.000000 1.000000 1.000000
v 0.696814 0.268842 0.765911 0.000000 0.000000 1.000000 1.000000
v 0.565076 0.479844 0.615832 0.000000 0.000000 1.000000 1.000000
v 0.567340 2.033622 0.599337 0.000000 0.000000 1.000000 1.000000
vt 0.138062 0.027344
vt 0.136719 0.120605
vt 0.043884 0.026855
vt 0.044342 0.120605
vt 0.181396 0.697021
vt 0.327881 0.678955
vt 0.170410 0.734131
vt 0.335693 0.714844
vt 0.341309 0.680176
vt 0.161011 0.762573
vt 0.477539 0.699707
vt 0.475098 0.673340
vt 0.622559 0.683350
vt 0.336670 0.732422
vt 0.617188 0.711670
vt 0.773438 0.701904
vt 0.788574 0.735107
vt 0.792480 0.770996
vt 0.476807 0.723877
vt 0.614258 0.734619
vt 0.749023 0.804199
vt 0.609863 0.762695
vt 0.732422 0.845337
vt 0.475586 0.753540
vt 0.340088 0.759399
vt 0.204712 0.793701
vt 0.598145 0.809204
vt 0.700684 0.867554
vt 0.658691 0.894348
vt 0.597168 0.803589
vt 0.575684 0.865234
vt 0.570801 0.890198
vt 0.661133 0.918823
vt 0.477539 0.794922
vt 0.474121 0.862671
vt 0.474365 0.882202
vt 0.375488 0.888855
vt 0.473389 0.822754
vt 0.372314 0.864868
vt 0.289307 0.914551
vt 0.294922 0.888489
vt 0.251221 0.856812
vt 0.473389 0.794189
vt 0.354736 0.804321
vt 0.349121 0.800781
vt 0.221680 0.836670
vt 0.611328 0.101562
vt 0.766602 0.086426
vt 0.747559 0.104980
vt 0.611816 0.083984
vt 0.766113 0.062012
vt 0.481934 0.104980
vt 0.608398 0.060059
vt 0.749023 0.042480
vt 0.610840 0.043457
vt 0.483154 0.088867
vt 0.353760 0.107910
vt 0.481201 0.062012
vt 0.483154 0.045410
vt 0.356445 0.089355
vt 0.215210 0.111328
vt 0.196411 0.091309
vt 0.352295 0.064453
vt 0.353760 0.048340
vt 0.196777 0.063965
vt 0.215942 0.045898
vt 0.181030 0.694824
vt 0.186157 0.691650
vt 0.328125 0.678955
vt 0.476807 0.673096
vt 0.335938 0.678711
vt 0.472900 0.672119
vt 0.619141 0.680664
vt 0.622559 0.683350
vt 0.144165 0.157715
vt 0.316406 0.138672
vt 0.154175 0.191406
vt 0.320801 0.199219
vt 0.177124 0.217285
vt 0.179443 0.459473
vt 0.329102 0.446777
vt 0.318604 0.141113
vt 0.335449 0.446777
vt 0.330811 0.206543
vt 0.474609 0.199219
vt 0.477783 0.138672
vt 0.472900 0.438965
vt 0.479736 0.140137
vt 0.486084 0.204102
vt 0.475586 0.440430
vt 0.630371 0.204590
vt 0.638184 0.141602
vt 0.620605 0.448730
vt 0.644531 0.143066
vt 0.640625 0.208008
vt 0.622559 0.451660
vt 0.789062 0.469238
vt 0.822266 0.162109
vt 0.815430 0.198730
vt 0.790039 0.220703
vt 0.789062 0.466309
vt1 0.860840 0.486816
vt1 0.862793 0.614502
vt1 0.990234 0.486328
vt1 0.989746 0.614502
vt1 0.024170 0.269531
vt1 0.242432 0.242188
vt1 0.007874 0.325195
vt1 0.253662 0.296387
vt1 0.262207 0.244141
vt1 -0.006237 0.368164
vt1 0.465088 0.273438
vt1 0.461426 0.233887
vt1 0.681152 0.248535
vt1 0.255371 0.322754
vt1 0.672852 0.291504
vt1 0.905273 0.276855
vt1 0.927734 0.326660
vt1 0.933594 0.380859
vt1 0.464111 0.309570
vt1 0.668945 0.325684
vt1 0.869141 0.430664
vt1 0.662109 0.368164
vt1 0.844727 0.492188
vt1 0.462158 0.354492
vt1 0.260498 0.363281
vt1 0.058777 0.415039
vt1 0.644531 0.437988
vt1 0.796875 0.525879
vt1 0.734863 0.566162
vt1 0.643555 0.429688
vt1 0.611328 0.522217
vt1 0.603516 0.559814
vt1 0.737793 0.603027
vt1 0.464844 0.416504
vt1 0.460205 0.518311
vt1 0.460205 0.547852
vt1 0.313232 0.557861
vt1 0.458740 0.458496
vt1 0.308594 0.521729
vt1 0.184937 0.596436
vt1 0.193115 0.557373
vt1 0.128296 0.509766
vt1 0.458740 0.415527
vt1 0.282227 0.430664
vt1 0.273926 0.425293
vt1 0.084045 0.479492
vt1 0.631836 0.204102
vt1 0.866211 0.182617
vt1 0.836914 0.209473
vt1 0.632812 0.178711
vt1 0.865234 0.146973
vt1 0.437256 0.209473
vt1 0.627441 0.143555
vt1 0.839355 0.118164
vt1 0.631836 0.119629
vt1 0.439209 0.186035
vt1 0.244385 0.213867
vt1 0.436035 0.146973
vt1 0.438965 0.122559
vt1 0.248169 0.187012
vt1 0.035645 0.218262
vt1 0.007286 0.188965
vt1 0.241943 0.149902
vt1 0.244141 0.126953
vt1 0.007820 0.149414
vt1 0.036774 0.123047
vt1 0.023666 0.266113
vt1 0.031250 0.261230
vt1 0.242432 0.242188
vt1 0.463867 0.233398
vt1 0.254150 0.242188
vt1 0.458252 0.231934
vt1 0.676270 0.245117
vt1 0.681152 0.248535
vt1 -0.000771 0.629639
vt1 0.232422 0.607178
vt1 0.012665 0.669678
vt1 0.238159 0.679443
vt1 0.043732 0.700684
vt1 0.046936 0.988182
vt1 0.249390 0.973221
vt1 0.235107 0.610107
vt1 0.258301 0.973160
vt1 0.251709 0.687744
vt1 0.446289 0.679443
vt1 0.450684 0.607422
vt1 0.444092 0.963593
vt1 0.453613 0.608887
vt1 0.461914 0.685303
vt1 0.447754 0.965515
vt1 0.657227 0.685547
vt1 0.667969 0.610840
vt1 0.643555 0.975159
vt1 0.676758 0.612549
vt1 0.670898 0.689453
vt1 0.646484 0.978714
vt1 0.872070 0.999960
vt1 0.916504 0.635010
vt1 0.907715 0.678467
vt1 0.873047 0.704834
vt1 0.872070 0.996033
vn 0.055118 0.992126 0.102362
vn -0.031496 1.000000 0.031496
vn 0.039370 1.000000 -0.031496
vn -0.055118 0.992126 -0.078740
vn 0.007874 -0.755905 0.653543
vn -0.015748 -0.818897 0.566929
vn 0.000000 -0.645669 0.763779
vn -0.409449 -0.763779 0.503937
vn -0.637795 -0.755905 -0.118110
vn 0.000000 0.535433 0.842520
vn -0.456693 -0.779527 -0.425197
vn -0.629921 -0.748031 -0.204724
vn 0.228346 -0.842520 -0.496063
vn -0.456693 0.818898 0.346457
vn 0.496063 -0.787401 -0.370079
vn 0.669291 -0.740157 0.031496
vn 0.503937 -0.858268 0.078740
vn 0.787402 0.614173 0.055118
vn -0.291339 0.740157 -0.606299
vn 0.456693 0.834646 -0.307087
vn 0.543307 0.834646 0.062992
vn 0.370079 0.874016 -0.314961
vn 0.960630 0.267716 0.086614
vn -0.330709 0.858268 -0.401575
vn -0.370079 0.874016 0.322835
vn 0.000000 0.748031 0.669291
vn 0.858268 0.503937 -0.055118
vn 0.582677 0.811023 0.094488
vn 0.976378 0.141732 0.157480
vn 0.039370 0.346457 -0.937008
vn 0.551181 0.133858 -0.818897
vn 0.748031 0.102362 -0.653543
vn 0.992126 0.062992 0.133858
vn -0.039370 0.196850 -0.976378
vn -0.606299 -0.433071 -0.669291
vn -0.740157 0.062992 -0.669291
vn -0.874016 0.062992 0.488189
vn -0.346457 0.866142 -0.362205
vn -0.645669 0.299213 0.708661
vn 0.023622 0.000000 1.000000
vn -0.007874 -0.007874 1.000000
vn 0.007874 0.740157 0.669291
vn -0.976378 0.220472 -0.039370
vn -0.905512 0.425197 0.039370
vn -0.039370 0.346457 0.937008
vn 0.000000 0.149606 0.992126
vn 0.000000 1.000000 -0.000000
vn 0.740157 0.677165 -0.007874
vn 0.000000 1.000000 -0.000000
vn 0.566929 0.771653 -0.299213
vn 0.866142 -0.503937 -0.007874
vn 0.000000 1.000000 -0.000000
vn 0.322835 -0.755905 -0.566929
vn 0.000000 -1.000000 0.000000
vn 0.000000 -1.000000 0.000000
vn -0.322835 0.818897 -0.480315
vn 0.000000 1.000000 -0.000000
vn -0.503937 -0.803150 -0.314961
vn 0.000000 -1.000000 0.000000
vn -0.566929 0.763779 0.291338
vn 0.000000 1.000000 -0.000000
vn 0.031496 0.622047 0.779527
vn -0.062992 -0.826771 0.559055
vn 0.000000 -1.000000 0.000000
vn 0.047244 -0.763779 0.645669
vn 0.000000 -1.000000 0.000000
vn 0.007874 -0.472441 0.881890
vn 0.000000 -0.007874 1.000000
vn -0.031496 -0.496063 0.866142
vn -0.409449 -0.622047 -0.669291
vn -0.897638 -0.433071 0.015748
vn -1.000000 -0.023622 -0.039370
vn 0.039370 -0.023622 -1.000000
vn 0.653543 -0.622047 -0.433071
vn 0.000000 -0.094488 0.992126
vn -0.031496 -0.102362 0.992126
vn 0.000000 0.417323 0.913386
vn -0.039370 0.149606 0.984252
vn 0.000000 0.062992 1.000000
vn 0.000000 -0.007874 1.000000
vn -0.047244 -0.007874 1.000000
vn -0.944882 0.322835 0.023622
vn -1.000000 -0.023622 0.047244
vn -1.000000 0.039370 0.039370
vn -0.992126 0.125984 -0.039370
vn -1.000000 0.007874 -0.031496
vn -1.000000 -0.023622 -0.039370
vn -0.023622 0.181102 -0.984252
vn -0.039370 0.039370 -1.000000
vn -0.062992 -0.023622 -1.000000
vn 0.039370 0.165354 -0.984252
vn 0.031496 0.007874 -1.000000
vn 0.039370 -0.023622 -1.000000
vn 0.984252 0.157480 -0.039370
vn 1.000000 0.023622 -0.039370
vn 1.000000 -0.015748 -0.078740
vn 1.000000 -0.015748 0.062992
vn 1.000000 0.000000 0.062992
vn 0.826772 0.559055 0.086614
vn 0.992126 0.055118 0.118110
vn 0.708661 -0.015748 0.708661
tan 0.984314 -0.066774 0.117180 1.000000
tan 1.000000 0.033728 -0.070866 1.000000
tan 1.000000 -0.041354 -0.062992 1.000000
tan 0.984314 0.062124 0.093744 1.000000
tan -0.011904 -0.653667 -0.755905 1.000000
tan 0.092752 -0.564077 -0.812201 1.000000
tan -0.011098 -0.763779 -0.645669 1.000000
tan 0.573253 -0.640337 -0.504743 1.000000
tan 0.759625 -0.646165 0.033480 1.000000
tan -0.039804 -0.842520 0.535433 1.000000
tan 0.582553 -0.623101 0.516647 1.000000
tan 0.704631 -0.663029 0.254511 1.000000
tan -0.302437 -0.545725 0.787650 1.000000
tan -0.645793 -0.573253 0.503689 1.000000
tan -0.598115 -0.619753 0.516895 1.000000
tan -0.739661 -0.670283 -0.033852 1.000000
tan -0.851510 -0.508029 -0.087854 1.000000
tan 0.616343 -0.788703 -0.016492 1.000000
tan -0.311551 -0.670779 -0.669167 1.000000
tan 0.638539 -0.549445 -0.543741 1.000000
tan 0.835142 -0.544795 0.015438 1.000000
tan 0.600657 -0.484593 -0.638973 1.000000
tan 0.280241 -0.907682 -0.302560 1.000000
tan -0.557319 -0.520243 -0.652923 1.000000
tan -0.683861 -0.491847 0.547647 1.000000
tan -0.039370 -0.669291 0.748031 1.000000
tan 0.487321 -0.846054 -0.147064 1.000000
tan 0.814000 -0.575237 -0.082212 1.000000
tan 0.165540 -0.961002 -0.161448 1.000000
tan -0.012028 -0.937318 -0.347077 1.000000
tan -0.176018 -0.919462 -0.268770 1.000000
tan -0.216752 -0.878604 -0.385703 1.000000
tan 0.095790 -0.960878 -0.257796 1.000000
tan -0.176824 -0.961002 -0.186620 1.000000
tan 0.208010 -0.894104 0.390105 1.000000
tan -0.119598 -0.984996 0.039556 1.000000
tan -0.126852 -0.930250 -0.107074 1.000000
tan -0.600161 -0.502449 -0.627441 1.000000
tan -0.314713 -0.929630 0.105772 1.000000
tan -0.299213 -0.952756 0.007068 1.000000
tan -0.188976 -0.984252 -0.009238 1.000000
tan -0.039680 -0.668981 0.740281 1.000000
tan -0.217682 -0.976378 -0.069192 1.000000
tan -0.423027 -0.905512 0.049910 1.000000
tan -0.182528 -0.922872 0.333561 1.000000
tan -0.210924 -0.968690 0.146072 1.000000
tan 0.708661 -0.000000 -0.700787 1.000000
tan 0.677103 -0.740157 -0.005828 1.000000
tan 1.000000 -0.000000 -0.023622 1.000000
tan 0.692665 -0.638477 -0.334181 1.000000
tan -0.503999 -0.866142 -0.006820 1.000000
tan -0.685039 -0.000000 -0.724409 1.000000
tan -0.403249 -0.653729 0.642011 1.000000
tan -1.000000 -0.000000 -0.007874 1.000000
tan -0.700787 0.000000 0.708661 1.000000
tan -0.497613 -0.578957 -0.652613 1.000000
tan -0.716535 0.000000 0.692913 1.000000
tan 0.682745 -0.591729 0.416517 1.000000
tan 0.724409 0.000000 0.692913 1.000000
tan -0.691611 -0.639531 0.330771 1.000000
tan -0.007874 0.000000 1.000000 1.000000
tan 0.013454 -0.780519 0.622295 1.000000
tan 0.264989 -0.551491 -0.785727 1.000000
tan 0.700787 -0.000000 -0.708661 1.000000
tan -0.106392 -0.646537 -0.757021 1.000000
tan 0.015748 -0.000000 -1.000000 1.000000
tan -0.038440 -0.881952 -0.472131 1.000000
tan -0.086614 -1.000000 -0.007874 1.000000
tan 0.011718 -0.866886 -0.496063 1.000000
tan 0.181226 -0.756959 0.592659 1.000000
tan 0.432327 -0.897638 -0.042408 1.000000
tan 0.023622 -1.000000 0.000000 1.000000
tan -0.141732 -0.992126 0.017856 1.000000
tan -0.582677 -0.774133 0.232625 1.000000
tan -0.101556 -0.984314 -0.093744 1.000000
tan 0.039060 -0.992126 -0.101122 1.000000
tan -0.057536 -0.913386 0.417323 1.000000
tan -0.085250 -0.984252 0.146196 1.000000
tan -0.086614 -1.000000 0.062992 1.000000
tan -0.070866 -1.000000 -0.007874 1.000000
tan -0.070866 -1.000000 -0.011222 1.000000
tan -0.317131 -0.937442 0.126480 1.000000
tan 0.020646 -1.000000 -0.062992 1.000000
tan -0.039370 -1.000000 0.000000 1.000000
tan -0.124744 -0.992126 -0.031248 1.000000
tan -0.007378 -1.000000 -0.015748 1.000000
tan 0.023622 -1.000000 0.000000 1.000000
tan -0.093000 -0.976502 -0.177444 1.000000
tan -0.047244 -1.000000 -0.037510 1.000000
tan -0.015748 -1.000000 0.024614 1.000000
tan 0.000000 -0.984252 -0.165354 1.000000
tan -0.007874 -1.000000 -0.008122 1.000000
tan -0.102362 -0.992126 0.019406 1.000000
tan 0.151590 -0.976502 -0.116250 1.000000
tan 0.019406 -0.992126 -0.102362 1.000000
tan -0.024304 -0.992126 -0.110236 1.000000
tan -0.012276 -1.000000 -0.055118 1.000000
tan 0.010912 -0.984252 -0.173228 1.000000
tan 0.565875 -0.826772 -0.065100 1.000000
tan 0.072354 -0.984314 -0.148428 1.000000
tan 0.011160 -1.004402 -0.033480 1.000000
f 3/3/3 2/2/2 1/1/1
f 4/4/4 2/2/2 3/3/3
f 7/7/7 6/6/6 5/5/5
f 8/8/8 6/6/6 7/7/7
f 9/9/9 6/6/6 8/8/8
f 10/10/10 8/8/8 7/7/7
f 8/8/8 11/11/11 9/9/9
f 9/9/9 11/11/11 12/12/12
f 11/11/11 13/13/13 12/12/12
f 10/10/10 14/14/14 8/8/8
f 15/15/15 13/13/13 11/11/11
f 15/15/15 16/16/16 13/13/13
f 17/17/17 16/16/16 15/15/15
f 15/15/15 18/18/18 17/17/17
f 8/8/8 19/19/19 11/11/11
f 19/19/19 15/15/15 11/11/11
f 14/14/14 19/19/19 8/8/8
f 20/20/20 18/18/18 15/15/15
f 19/19/19 20/20/20 15/15/15
f 18/18/18 20/20/20 21/21/21
f 21/21/21 20/20/20 22/22/22
f 20/20/20 19/19/19 22/22/22
f 22/22/22 23/23/23 21/21/21
f 19/19/19 14/14/14 24/24/24
f 22/22/22 19/19/19 24/24/24
f 14/14/14 10/10/10 25/25/25
f 24/24/24 14/14/14 25/25/25
f 25/25/25 10/10/10 26/26/26
f 27/27/27 23/23/23 22/22/22
f 27/27/27 28/28/28 23/23/23
f 29/29/29 28/28/28 27/27/27
f 27/27/27 22/22/22 30/30/30
f 24/24/24 30/30/30 22/22/22
f 31/31/31 29/29/29 27/27/27
f 31/31/31 27/27/27 30/30/30
f 33/33/33 29/29/29 32/32/32
f 32/32/32 29/29/29 31/31/31
f 34/34/34 30/30/30 24/24/24
f 35/35/35 32/32/32 31/31/31
f 36/36/36 32/32/32 35/35/35
f 36/36/36 35/35/35 37/37/37
f 31/31/31 30/30/30 38/38/38
f 35/35/35 31/31/31 38/38/38
f 38/38/38 30/30/30 34/34/34
f 37/37/37 35/35/35 39/39/39
f 35/35/35 38/38/38 39/39/39
f 37/37/37 39/39/39 40/40/40
f 40/40/40 39/39/39 41/41/41
f 41/41/41 39/39/39 42/42/42
f 38/38/38 34/34/34 43/43/43
f 34/34/34 24/24/24 43/43/43
f 25/25/25 43/43/43 24/24/24
f 44/44/44 38/38/38 43/43/43
f 44/44/44 43/43/43 25/25/25
f 39/39/39 38/38/38 44/44/44
f 44/44/44 25/25/25 45/45/45
f 39/39/39 44/44/44 45/45/45
f 39/39/39 45/45/45 42/42/42
f 26/26/26 45/45/45 25/25/25
f 42/42/42 45/45/45 46/46/46
f 46/46/46 45/45/45 26/26/26
f 49/49/49 48/48/48 47/47/47
f 47/47/47 48/48/48 50/50/50
f 48/48/48 51/51/51 50/50/50
f 47/47/47 50/50/50 52/52/52
f 50/50/50 51/51/51 53/53/53
f 54/54/54 53/53/53 51/51/51
f 55/55/55 53/53/53 54/54/54
f 52/52/52 50/50/50 56/56/56
f 50/50/50 53/53/53 56/56/56
f 52/52/52 56/56/56 57/57/57
f 55/55/55 58/58/58 53/53/53
f 56/56/56 53/53/53 58/58/58
f 59/59/59 58/58/58 55/55/55
f 57/57/57 56/56/56 60/60/60
f 56/56/56 58/58/58 60/60/60
f 57/57/57 60/60/60 61/61/61
f 61/61/61 60/60/60 62/62/62
f 59/59/59 63/63/63 58/58/58
f 60/60/60 58/58/58 63/63/63
f 63/63/63 62/62/62 60/60/60
f 64/64/64 63/63/63 59/59/59
f 65/65/65 62/62/62 63/63/63
f 64/64/64 65/65/65 63/63/63
f 66/66/66 65/65/65 64/64/64
f 69/69/69 68/68/68 67/67/67
f 72/72/72 71/71/71 70/70/70
f 70/70/70 74/74/74 73/73/73
f 77/77/77 76/76/76 75/75/75
f 78/78/78 76/76/76 77/77/77
f 77/77/77 79/79/79 78/78/78
f 80/80/80 78/78/78 79/79/79
f 81/81/81 78/78/78 80/80/80
f 78/78/78 82/82/82 76/76/76
f 83/83/83 78/78/78 81/81/81
f 78/78/78 84/84/84 82/82/82
f 84/84/84 78/78/78 83/83/83
f 82/82/82 84/84/84 85/85/85
f 83/83/83 85/85/85 84/84/84
f 85/85/85 86/86/86 82/82/82
f 87/87/87 85/85/85 83/83/83
f 85/85/85 88/88/88 86/86/86
f 85/85/85 87/87/87 89/89/89
f 85/85/85 89/89/89 88/88/88
f 89/89/89 87/87/87 90/90/90
f 88/88/88 89/89/89 91/91/91
f 90/90/90 91/91/91 89/89/89
f 91/91/91 92/92/92 88/88/88
f 93/93/93 91/91/91 90/90/90
f 91/91/91 94/94/94 92/92/92
f 91/91/91 93/93/93 95/95/95
f 91/91/91 95/95/95 94/94/94
f 95/95/95 93/93/93 96/96/96
f 97/97/97 95/95/95 96/96/96
f 99/99/99 98/98/98 94/94/94
f 94/94/94 95/95/95 99/99/99
f 99/99/99 95/95/95 100/100/100
f 100/100/100 95/95/95 97/97/97
f 101/101/101 100/100/100 97/97/97
