mtllib SM_Pillar_02_a_LOD3@000002909DC26B00.mtl
g SM_Pillar_02_a_LOD3@000002909DC26B00
#Vertices 257
#Indices 849
#Section 0 Offset 0 NumIndices 630 MaterialIndex 0 MI_ConcreteTile_01
#Section 1 Offset 630 NumIndices 72 MaterialIndex 1 MI_BrickTile_A_01
#Section 2 Offset 702 NumIndices 147 MaterialIndex 2 MI_ConcreteTrim_A_01
v 0.000003 19.109634 0.449996 0.000000 0.000000 1.000000 1.000000
v 0.139058 2.500000 0.427975 0.000000 0.000000 1.000000 1.000000
v -0.000001 2.500058 0.450000 0.000000 0.000000 1.000000 1.000000
v 0.205186 19.109911 0.404767 0.000000 0.000000 1.000000 1.000000
v 0.320535 2.500000 0.320580 0.000000 0.000000 1.000000 1.000000
v 0.364470 19.109705 0.263904 0.000000 0.000000 1.000000 1.000000
v 0.452218 2.499980 0.078366 0.000000 0.000000 1.000000 1.000000
v 0.428432 19.109716 0.137367 0.000000 0.000000 1.000000 1.000000
v 0.448380 19.110035 -0.069742 0.000000 0.000000 1.000000 1.000000
v 0.403895 2.500000 -0.205873 0.000000 0.000000 1.000000 1.000000
v 0.364019 19.109703 -0.264541 0.000000 0.000000 1.000000 1.000000
v 0.264489 2.500000 -0.364069 0.000000 0.000000 1.000000 1.000000
v 0.264082 19.109709 -0.364312 0.000000 0.000000 1.000000 1.000000
v 0.071761 2.500015 -0.452879 0.000000 0.000000 1.000000 1.000000
v 0.070830 19.109926 -0.447766 0.000000 0.000000 1.000000 1.000000
v -0.138239 19.109703 -0.428225 0.000000 0.000000 1.000000 1.000000
v -0.139057 2.500000 -0.427976 0.000000 0.000000 1.000000 1.000000
v -0.324416 19.109324 -0.324092 0.000000 0.000000 1.000000 1.000000
v -0.320537 2.500000 -0.320592 0.000000 0.000000 1.000000 1.000000
v -0.427975 2.500000 -0.139058 0.000000 0.000000 1.000000 1.000000
v -0.428225 19.109709 -0.138178 0.000000 0.000000 1.000000 1.000000
v -0.451900 2.499990 0.057268 0.000000 0.000000 1.000000 1.000000
v -0.449971 19.109709 0.000737 0.000000 0.000000 1.000000 1.000000
v -0.404199 19.109938 0.205432 0.000000 0.000000 1.000000 1.000000
v -0.364061 2.500000 0.264499 0.000000 0.000000 1.000000 1.000000
v -0.217761 19.109324 0.404881 0.000000 0.000000 1.000000 1.000000
v -0.205968 2.499992 0.403867 0.000000 0.000000 1.000000 1.000000
v -0.000001 2.500058 0.450000 0.000000 0.000000 1.000000 1.000000
v 0.000003 19.109634 0.449996 0.000000 0.000000 1.000000 1.000000
v -0.000958 19.153315 0.767834 0.000000 0.000000 1.000000 1.000000
v 0.205186 19.109911 0.404767 0.000000 0.000000 1.000000 1.000000
v 0.000003 19.109634 0.449996 0.000000 0.000000 1.000000 1.000000
v 0.473462 19.152306 0.607418 0.000000 0.000000 1.000000 1.000000
v 0.364470 19.109705 0.263904 0.000000 0.000000 1.000000 1.000000
v 0.000227 19.186451 0.780448 0.000000 0.000000 1.000000 1.000000
v 0.770560 19.149580 0.035182 0.000000 0.000000 1.000000 1.000000
v 0.428432 19.109716 0.137367 0.000000 0.000000 1.000000 1.000000
v 0.448380 19.110035 -0.069742 0.000000 0.000000 1.000000 1.000000
v 0.364019 19.109703 -0.264541 0.000000 0.000000 1.000000 1.000000
v 0.380697 19.208021 0.687376 0.000000 0.000000 1.000000 1.000000
v 0.435619 19.149342 -0.631457 0.000000 0.000000 1.000000 1.000000
v 0.264082 19.109709 -0.364312 0.000000 0.000000 1.000000 1.000000
v 0.070830 19.109926 -0.447766 0.000000 0.000000 1.000000 1.000000
v 0.704549 19.198418 0.347648 0.000000 0.000000 1.000000 1.000000
v 0.780790 19.202942 -0.143942 0.000000 0.000000 1.000000 1.000000
v -0.134675 19.151983 -0.741770 0.000000 0.000000 1.000000 1.000000
v -0.138239 19.109703 -0.428225 0.000000 0.000000 1.000000 1.000000
v 0.434926 19.215792 -0.680854 0.000000 0.000000 1.000000 1.000000
v 0.711742 19.328939 0.290036 0.000000 0.000000 1.000000 1.000000
v 0.665407 19.325588 -0.348839 0.000000 0.000000 1.000000 1.000000
v 0.313960 19.357010 0.658159 0.000000 0.000000 1.000000 1.000000
v -0.000010 19.361393 0.709108 0.000000 0.000000 1.000000 1.000000
v 0.206733 19.391094 0.405712 0.000000 0.000000 1.000000 1.000000
v 0.000000 19.390696 0.449998 0.000000 0.000000 1.000000 1.000000
v 0.615184 19.362976 0.311414 0.000000 0.000000 1.000000 1.000000
v 0.364058 19.390696 0.264501 0.000000 0.000000 1.000000 1.000000
v 0.449712 19.390287 0.071214 0.000000 0.000000 1.000000 1.000000
v 0.672058 19.363754 -0.199797 0.000000 0.000000 1.000000 1.000000
v 0.427975 19.390696 -0.139060 0.000000 0.000000 1.000000 1.000000
v 0.321969 19.390556 -0.321958 0.000000 0.000000 1.000000 1.000000
v 0.249889 19.363762 -0.669818 0.000000 0.000000 1.000000 1.000000
v 0.139058 19.390696 -0.427978 0.000000 0.000000 1.000000 1.000000
v -0.071257 19.390587 -0.449712 0.000000 0.000000 1.000000 1.000000
v 0.127177 19.328009 -0.760604 0.000000 0.000000 1.000000 1.000000
v -0.343799 19.362728 -0.602415 0.000000 0.000000 1.000000 1.000000
v -0.325178 19.390553 -0.325143 0.000000 0.000000 1.000000 1.000000
v -0.144459 19.204233 -0.779223 0.000000 0.000000 1.000000 1.000000
v -0.525062 19.327606 -0.537544 0.000000 0.000000 1.000000 1.000000
v -0.691526 19.362522 -0.171788 0.000000 0.000000 1.000000 1.000000
v -0.449704 19.390707 -0.071275 0.000000 0.000000 1.000000 1.000000
v -0.427975 19.390696 0.139055 0.000000 0.000000 1.000000 1.000000
v -0.528255 19.150785 -0.536180 0.000000 0.000000 1.000000 1.000000
v -0.324416 19.109324 -0.324092 0.000000 0.000000 1.000000 1.000000
v -0.631114 19.201281 -0.499379 0.000000 0.000000 1.000000 1.000000
v -0.735245 19.151432 -0.150893 0.000000 0.000000 1.000000 1.000000
v -0.428225 19.109709 -0.138178 0.000000 0.000000 1.000000 1.000000
v -0.449971 19.109709 0.000737 0.000000 0.000000 1.000000 1.000000
v -0.404199 19.109938 0.205432 0.000000 0.000000 1.000000 1.000000
v -0.734480 19.325197 -0.114893 0.000000 0.000000 1.000000 1.000000
v -0.780839 19.203026 0.143054 0.000000 0.000000 1.000000 1.000000
v -0.635713 19.150433 0.446672 0.000000 0.000000 1.000000 1.000000
v -0.217761 19.109324 0.404881 0.000000 0.000000 1.000000 1.000000
v -0.598909 19.270967 0.571162 0.000000 0.000000 1.000000 1.000000
v -0.000958 19.153315 0.767834 0.000000 0.000000 1.000000 1.000000
v 0.000003 19.109634 0.449996 0.000000 0.000000 1.000000 1.000000
v 0.000227 19.186451 0.780448 0.000000 0.000000 1.000000 1.000000
v -0.000010 19.361393 0.709108 0.000000 0.000000 1.000000 1.000000
v -0.515418 19.363855 0.486928 0.000000 0.000000 1.000000 1.000000
v -0.321957 19.390457 0.321959 0.000000 0.000000 1.000000 1.000000
v -0.139058 19.390696 0.427973 0.000000 0.000000 1.000000 1.000000
v 0.000000 19.390696 0.449998 0.000000 0.000000 1.000000 1.000000
v 0.493491 2.499311 0.494823 0.000000 0.000000 1.000000 1.000000
v -0.448568 2.515323 0.499249 0.000000 0.000000 1.000000 1.000000
v -0.229393 2.500000 0.229956 0.000000 0.000000 1.000000 1.000000
v -0.500001 2.500000 0.400010 0.000000 0.000000 1.000000 1.000000
v 0.230306 2.500000 0.229719 0.000000 0.000000 1.000000 1.000000
v -0.230308 2.500000 -0.229719 0.000000 0.000000 1.000000 1.000000
v 0.499999 2.500000 -0.400009 0.000000 0.000000 1.000000 1.000000
v -0.498861 2.514635 -0.444720 0.000000 0.000000 1.000000 1.000000
v 0.229392 2.500000 -0.229956 0.000000 0.000000 1.000000 1.000000
v -0.406826 2.511821 -0.500992 0.000000 0.000000 1.000000 1.000000
v 0.447421 2.499511 -0.497937 0.000000 0.000000 1.000000 1.000000
v -0.642401 20.485964 0.303672 0.000000 0.000000 1.000000 1.000000
v -0.771712 20.071918 -0.000158 0.000000 0.000000 1.000000 1.000000
v -0.695475 20.455881 -0.000073 0.000000 0.000000 1.000000 1.000000
v -0.451520 20.807816 -0.001645 0.000000 0.000000 1.000000 1.000000
v -0.683960 19.976419 0.336340 0.000000 0.000000 1.000000 1.000000
v -0.572597 19.627979 -0.000321 0.000000 0.000000 1.000000 1.000000
v -0.147939 20.816286 0.423913 0.000000 0.000000 1.000000 1.000000
v 0.153104 20.930943 -0.000029 0.000000 0.000000 1.000000 1.000000
v -0.455548 20.302309 0.611026 0.000000 0.000000 1.000000 1.000000
v -0.458975 19.691614 0.458861 0.000000 0.000000 1.000000 1.000000
v -0.178195 19.393028 0.000298 0.000000 0.000000 1.000000 1.000000
v 0.436712 20.680473 0.391961 0.000000 0.000000 1.000000 1.000000
v 0.647499 20.565714 0.000346 0.000000 0.000000 1.000000 1.000000
v -0.005164 20.462658 0.724924 0.000000 0.000000 1.000000 1.000000
v 0.655903 20.378384 0.342481 0.000000 0.000000 1.000000 1.000000
v 0.772013 20.118753 -0.000661 0.000000 0.000000 1.000000 1.000000
v 0.359471 20.195818 0.683716 0.000000 0.000000 1.000000 1.000000
v -0.121104 20.030544 0.761015 0.000000 0.000000 1.000000 1.000000
v 0.630869 19.931461 0.428404 0.000000 0.000000 1.000000 1.000000
v 0.614256 19.693336 0.000117 0.000000 0.000000 1.000000 1.000000
v 0.206184 19.810371 0.655132 0.000000 0.000000 1.000000 1.000000
v -0.102124 19.536551 0.503196 0.000000 0.000000 1.000000 1.000000
v 0.255017 19.395885 0.001465 0.000000 0.000000 1.000000 1.000000
v 0.430467 19.598888 0.344898 0.000000 0.000000 1.000000 1.000000
v -0.771712 20.071918 -0.000158 0.000000 0.000000 1.000000 1.000000
v -0.635069 20.454464 -0.345790 0.000000 0.000000 1.000000 1.000000
v -0.695475 20.455881 -0.000073 0.000000 0.000000 1.000000 1.000000
v -0.451520 20.807816 -0.001645 0.000000 0.000000 1.000000 1.000000
v -0.652361 19.876019 -0.366571 0.000000 0.000000 1.000000 1.000000
v -0.572597 19.627979 -0.000321 0.000000 0.000000 1.000000 1.000000
v -0.225804 20.557182 -0.644982 0.000000 0.000000 1.000000 1.000000
v -0.239884 19.456932 -0.263095 0.000000 0.000000 1.000000 1.000000
v -0.178195 19.393028 0.000298 0.000000 0.000000 1.000000 1.000000
v -0.356420 20.160351 -0.685948 0.000000 0.000000 1.000000 1.000000
v -0.303566 19.760118 -0.612829 0.000000 0.000000 1.000000 1.000000
v 0.288646 19.453819 -0.253423 0.000000 0.000000 1.000000 1.000000
v 0.255017 19.395885 0.001465 0.000000 0.000000 1.000000 1.000000
v 0.614256 19.693336 0.000117 0.000000 0.000000 1.000000 1.000000
v 0.085932 19.658045 -0.604799 0.000000 0.000000 1.000000 1.000000
v 0.118922 20.104324 -0.774996 0.000000 0.000000 1.000000 1.000000
v 0.597531 19.887226 -0.467795 0.000000 0.000000 1.000000 1.000000
v 0.772013 20.118753 -0.000661 0.000000 0.000000 1.000000 1.000000
v 0.357164 20.418221 -0.643303 0.000000 0.000000 1.000000 1.000000
v 0.673828 20.388327 -0.318952 0.000000 0.000000 1.000000 1.000000
v 0.647499 20.565714 0.000346 0.000000 0.000000 1.000000 1.000000
v 0.006515 20.821959 -0.421652 0.000000 0.000000 1.000000 1.000000
v 0.153104 20.930943 -0.000029 0.000000 0.000000 1.000000 1.000000
v 0.406442 20.736670 -0.292113 0.000000 0.000000 1.000000 1.000000
v 0.449712 19.390287 0.071214 0.000000 0.000000 1.000000 1.000000
v 0.364058 19.390696 0.264501 0.000000 0.000000 1.000000 1.000000
v 0.255017 19.395885 0.001465 0.000000 0.000000 1.000000 1.000000
v 0.427975 19.390696 -0.139060 0.000000 0.000000 1.000000 1.000000
v 0.206733 19.391094 0.405712 0.000000 0.000000 1.000000 1.000000
v 0.321969 19.390556 -0.321958 0.000000 0.000000 1.000000 1.000000
v 0.000000 19.390696 0.449998 0.000000 0.000000 1.000000 1.000000
v 0.139058 19.390696 -0.427978 0.000000 0.000000 1.000000 1.000000
v -0.139058 19.390696 0.427973 0.000000 0.000000 1.000000 1.000000
v -0.071257 19.390587 -0.449712 0.000000 0.000000 1.000000 1.000000
v -0.321957 19.390457 0.321959 0.000000 0.000000 1.000000 1.000000
v -0.325178 19.390553 -0.325143 0.000000 0.000000 1.000000 1.000000
v -0.427975 19.390696 0.139055 0.000000 0.000000 1.000000 1.000000
v -0.449704 19.390707 -0.071275 0.000000 0.000000 1.000000 1.000000
v -0.477001 1.972372 -0.476659 0.000000 0.000000 1.000000 1.000000
v -0.500001 -0.000000 -0.400009 0.000000 0.000000 1.000000 1.000000
v -0.470708 0.000003 -0.470718 0.000000 0.000000 1.000000 1.000000
v -0.500001 2.003227 -0.400009 0.000000 0.000000 1.000000 1.000000
v -0.500001 0.000000 0.400010 0.000000 0.000000 1.000000 1.000000
v -0.500001 2.003227 0.400010 0.000000 0.000000 1.000000 1.000000
v -0.470719 0.000003 0.470708 0.000000 0.000000 1.000000 1.000000
v -0.470714 2.003227 0.470714 0.000000 0.000000 1.000000 1.000000
v -0.470714 2.003227 0.470714 0.000000 0.000000 1.000000 1.000000
v -0.400011 0.000000 0.500001 0.000000 0.000000 1.000000 1.000000
v -0.470719 0.000003 0.470708 0.000000 0.000000 1.000000 1.000000
v -0.400011 2.003227 0.500000 0.000000 0.000000 1.000000 1.000000
v 0.400009 0.000000 0.500001 0.000000 0.000000 1.000000 1.000000
v 0.400009 2.003227 0.500000 0.000000 0.000000 1.000000 1.000000
v 0.470707 0.000003 0.470719 0.000000 0.000000 1.000000 1.000000
v 0.470713 2.003227 0.470714 0.000000 0.000000 1.000000 1.000000
v 0.470713 2.003227 -0.470713 0.000000 0.000000 1.000000 1.000000
v 0.400009 -0.000000 -0.499999 0.000000 0.000000 1.000000 1.000000
v 0.470718 0.000002 -0.470707 0.000000 0.000000 1.000000 1.000000
v 0.400009 2.003227 -0.500000 0.000000 0.000000 1.000000 1.000000
v -0.400011 2.003227 -0.500000 0.000000 0.000000 1.000000 1.000000
v -0.400011 -0.000000 -0.499999 0.000000 0.000000 1.000000 1.000000
v -0.470708 0.000003 -0.470718 0.000000 0.000000 1.000000 1.000000
v -0.477001 1.972372 -0.476659 0.000000 0.000000 1.000000 1.000000
v 0.470707 0.000003 0.470719 0.000000 0.000000 1.000000 1.000000
v 0.470713 2.003227 0.470714 0.000000 0.000000 1.000000 1.000000
v 0.499999 0.000000 0.400010 0.000000 0.000000 1.000000 1.000000
v 0.499999 2.003227 0.400010 0.000000 0.000000 1.000000 1.000000
v 0.499999 2.003227 -0.400009 0.000000 0.000000 1.000000 1.000000
v 0.499999 -0.000000 -0.400009 0.000000 0.000000 1.000000 1.000000
v 0.470718 0.000002 -0.470707 0.000000 0.000000 1.000000 1.000000
v 0.470713 2.003227 -0.470713 0.000000 0.000000 1.000000 1.000000
v -0.626614 2.452466 0.636932 0.000000 0.000000 1.000000 1.000000
v -0.640808 2.049748 0.623020 0.000000 0.000000 1.000000 1.000000
v -0.647644 2.455846 0.563632 0.000000 0.000000 1.000000 1.000000
v -0.639780 2.049304 -0.638493 0.000000 0.000000 1.000000 1.000000
v -0.636702 2.453214 -0.619881 0.000000 0.000000 1.000000 1.000000
v -0.640808 2.049748 0.623020 0.000000 0.000000 1.000000 1.000000
v -0.626614 2.452466 0.636932 0.000000 0.000000 1.000000 1.000000
v -0.555843 2.045903 0.650156 0.000000 0.000000 1.000000 1.000000
v 0.543221 2.452791 0.643212 0.000000 0.000000 1.000000 1.000000
v 0.646037 2.045378 0.644524 0.000000 0.000000 1.000000 1.000000
v 0.623658 2.484708 0.622687 0.000000 0.000000 1.000000 1.000000
v -0.636702 2.453214 -0.619881 0.000000 0.000000 1.000000 1.000000
v -0.639780 2.049304 -0.638493 0.000000 0.000000 1.000000 1.000000
v -0.543222 2.452791 -0.643211 0.000000 0.000000 1.000000 1.000000
v 0.555513 2.047650 -0.647341 0.000000 0.000000 1.000000 1.000000
v 0.621831 2.453154 -0.640694 0.000000 0.000000 1.000000 1.000000
v 0.639948 2.049844 -0.628064 0.000000 0.000000 1.000000 1.000000
v 0.646037 2.045378 0.644524 0.000000 0.000000 1.000000 1.000000
v 0.470713 2.003227 0.470714 0.000000 0.000000 1.000000 1.000000
v 0.400009 2.003227 0.500000 0.000000 0.000000 1.000000 1.000000
v -0.555843 2.045903 0.650156 0.000000 0.000000 1.000000 1.000000
v -0.400011 2.003227 0.500000 0.000000 0.000000 1.000000 1.000000
v -0.470714 2.003227 0.470714 0.000000 0.000000 1.000000 1.000000
v -0.640808 2.049748 0.623020 0.000000 0.000000 1.000000 1.000000
v -0.500001 2.003227 0.400010 0.000000 0.000000 1.000000 1.000000
v -0.477001 1.972372 -0.476659 0.000000 0.000000 1.000000 1.000000
v -0.500001 2.003227 -0.400009 0.000000 0.000000 1.000000 1.000000
v -0.639780 2.049304 -0.638493 0.000000 0.000000 1.000000 1.000000
v 0.555513 2.047650 -0.647341 0.000000 0.000000 1.000000 1.000000
v 0.400009 2.003227 -0.500000 0.000000 0.000000 1.000000 1.000000
v -0.400011 2.003227 -0.500000 0.000000 0.000000 1.000000 1.000000
v 0.470713 2.003227 -0.470713 0.000000 0.000000 1.000000 1.000000
v 0.639948 2.049844 -0.628064 0.000000 0.000000 1.000000 1.000000
v 0.499999 2.003227 -0.400009 0.000000 0.000000 1.000000 1.000000
v 0.646037 2.045378 0.644524 0.000000 0.000000 1.000000 1.000000
v 0.499999 2.003227 0.400010 0.000000 0.000000 1.000000 1.000000
v 0.470713 2.003227 0.470714 0.000000 0.000000 1.000000 1.000000
v 0.646037 2.045378 0.644524 0.000000 0.000000 1.000000 1.000000
v 0.623658 2.484708 0.622687 0.000000 0.000000 1.000000 1.000000
v 0.643211 2.452791 0.543222 0.000000 0.000000 1.000000 1.000000
v 0.648153 2.456054 -0.555440 0.000000 0.000000 1.000000 1.000000
v 0.639948 2.049844 -0.628064 0.000000 0.000000 1.000000 1.000000
v 0.621831 2.453154 -0.640694 0.000000 0.000000 1.000000 1.000000
v 0.499999 2.500000 -0.400009 0.000000 0.000000 1.000000 1.000000
v 0.623658 2.484708 0.622687 0.000000 0.000000 1.000000 1.000000
v 0.493491 2.499311 0.494823 0.000000 0.000000 1.000000 1.000000
v 0.648153 2.456054 -0.555440 0.000000 0.000000 1.000000 1.000000
v 0.643211 2.452791 0.543222 0.000000 0.000000 1.000000 1.000000
v 0.447421 2.499511 -0.497937 0.000000 0.000000 1.000000 1.000000
v 0.621831 2.453154 -0.640694 0.000000 0.000000 1.000000 1.000000
v -0.406826 2.511821 -0.500992 0.000000 0.000000 1.000000 1.000000
v -0.543222 2.452791 -0.643211 0.000000 0.000000 1.000000 1.000000
v -0.498861 2.514635 -0.444720 0.000000 0.000000 1.000000 1.000000
v -0.636702 2.453214 -0.619881 0.000000 0.000000 1.000000 1.000000
v -0.647644 2.455846 0.563632 0.000000 0.000000 1.000000 1.000000
v -0.500001 2.500000 0.400010 0.000000 0.000000 1.000000 1.000000
v -0.448568 2.515323 0.499249 0.000000 0.000000 1.000000 1.000000
v -0.626614 2.452466 0.636932 0.000000 0.000000 1.000000 1.000000
v 0.543221 2.452791 0.643212 0.000000 0.000000 1.000000 1.000000
v 0.623658 2.484708 0.622687 0.000000 0.000000 1.000000 1.000000
v 0.493491 2.499311 0.494823 0.000000 0.000000 1.000000 1.000000
vt -2.683594 2.963867
vt -2.699219 0.945038
vt -2.681641 0.945038
vt -2.708984 2.977539
vt -2.724609 0.945099
vt -2.734375 2.977539
vt -2.757812 0.943695
vt -2.751953 2.969727
vt -2.777344 2.980469
vt -2.792969 0.945038
vt -2.802734 2.973633
vt -2.818359 0.944946
vt -2.820312 2.980469
vt -2.843750 0.944977
vt -2.845703 2.977539
vt -2.871094 2.972656
vt -2.869141 0.944916
vt -2.896484 2.980469
vt -2.894531 0.944305
vt -2.919922 0.944885
vt -2.921875 2.970703
vt -2.943359 0.944183
vt -2.937500 2.973633
vt -2.962891 2.983398
vt -2.970703 0.944855
vt -2.996094 2.969727
vt -2.996094 0.945343
vt -3.021484 0.944824
vt -3.023438 2.988281
vt -3.099609 2.315430
vt -3.142578 2.270508
vt -3.111328 2.269531
vt -3.158203 2.307617
vt -3.177734 2.266602
vt -3.099609 2.320312
vt -3.224609 2.297852
vt -3.203125 2.264648
vt -3.238281 2.261719
vt -3.275391 2.260742
vt -3.146484 2.316406
vt -3.302734 2.296875
vt -3.300781 2.259766
vt -3.333984 2.259766
vt -3.193359 2.310547
vt -3.244141 2.307617
vt -3.365234 2.296875
vt -3.375000 2.259766
vt -3.306641 2.305664
vt -3.201172 2.327148
vt -3.267578 2.323242
vt -3.142578 2.336914
vt -3.107422 2.347656
vt -3.154297 2.370117
vt -3.126953 2.376953
vt -3.195312 2.335938
vt -3.187500 2.366211
vt -3.220703 2.363281
vt -3.253906 2.333008
vt -3.255859 2.362305
vt -3.289062 2.360352
vt -3.322266 2.330078
vt -3.326172 2.360352
vt -3.363281 2.360352
vt -3.335938 2.323242
vt -3.388672 2.331055
vt -3.410156 2.361328
vt -3.363281 2.305664
vt -3.408203 2.323242
vt -3.449219 2.333008
vt -3.455078 2.364258
vt -3.490234 2.366211
vt -3.412109 2.298828
vt -3.414062 2.260742
vt -3.419922 2.306641
vt -3.455078 2.299805
vt -3.447266 2.262695
vt -3.472656 2.264648
vt -3.505859 2.266602
vt -3.457031 2.326172
vt -3.484375 2.310547
vt -3.517578 2.305664
vt -3.554688 2.273438
vt -3.527344 2.324219
vt -3.599609 2.308594
vt -3.583984 2.270508
vt -3.599609 2.316406
vt -3.595703 2.343750
vt -3.527344 2.339844
vt -3.523438 2.368164
vt -3.558594 2.372070
vt -3.578125 2.377930
vt -3.472656 1.820801
vt -3.470703 1.938477
vt -3.503906 1.911133
vt -3.484375 1.944824
vt -3.503906 1.853516
vt -3.562500 1.911133
vt -3.583984 1.819824
vt -3.589844 1.944824
vt -3.562500 1.853516
vt -3.595703 1.933105
vt -3.595703 1.826660
vt -3.580078 2.045898
vt -3.628906 2.102539
vt -3.615234 2.037109
vt -3.570312 1.980957
vt -3.585938 2.114258
vt -3.597656 2.181641
vt -3.509766 2.009766
vt -3.462891 1.958008
vt -3.546875 2.075195
vt -3.552734 2.148438
vt -3.529297 2.224609
vt -3.435547 2.027344
vt -3.376953 2.025391
vt -3.494141 2.060547
vt -3.406250 2.065430
vt -3.357422 2.102539
vt -3.453125 2.090820
vt -3.507812 2.106445
vt -3.416016 2.123047
vt -3.386719 2.175781
vt -3.470703 2.132812
vt -3.507812 2.167969
vt -3.455078 2.224609
vt -3.439453 2.168945
vt -3.326172 2.087891
vt -3.273438 2.141602
vt -3.312500 2.153320
vt -3.265625 2.211914
vt -3.275391 2.066406
vt -3.291016 2.009766
vt -3.214844 2.145508
vt -3.226562 2.001953
vt -3.222656 1.968750
vt -3.230469 2.101562
vt -3.226562 2.055664
vt -3.150391 2.000000
vt -3.148438 1.968750
vt -3.082031 2.018555
vt -3.181641 2.042969
vt -3.177734 2.093750
vt -3.119141 2.065430
vt -3.054688 2.092773
vt -3.150391 2.128906
vt -3.097656 2.129883
vt -3.074219 2.169922
vt -3.187500 2.184570
vt -3.160156 2.234375
vt -3.132812 2.180664
vt -3.539062 1.904297
vt -3.558594 1.920898
vt -3.556641 1.885254
vt -3.529297 1.879395
vt -3.583984 1.927734
vt -3.529297 1.853027
vt -3.609375 1.920898
vt -3.544922 1.831055
vt -3.625000 1.910645
vt -3.566406 1.816406
vt -3.638672 1.888184
vt -3.601562 1.815918
vt -3.640625 1.861816
vt -3.630859 1.837402
vt -0.750000 -1.007812
vt -0.759277 -1.253906
vt -0.750488 -1.253906
vt -0.761230 -1.003906
vt -0.859863 -1.253906
vt -0.863281 -1.003906
vt -0.869629 -1.253906
vt -0.874512 -1.005859
vt -0.874512 -1.005859
vt -0.878418 -1.253906
vt -0.868652 -1.253906
vt -0.885742 -1.005859
vt -0.978027 -1.257812
vt -0.986328 -1.009766
vt -0.987305 -1.257812
vt -0.995605 -1.011719
vt -0.625977 -1.005859
vt -0.640625 -1.253906
vt -0.631836 -1.253906
vt -0.637207 -1.003906
vt -0.739258 -1.003906
vt -0.741211 -1.253906
vt -0.750977 -1.253906
vt -0.750977 -1.007812
vt -0.513184 -1.257812
vt -0.504883 -1.011719
vt -0.522461 -1.257812
vt -0.514648 -1.009766
vt -0.615234 -1.005859
vt -0.622070 -1.253906
vt -0.631836 -1.253906
vt -0.625977 -1.005859
vt 0.638672 0.931213
vt 0.638184 0.916260
vt 0.643555 0.932556
vt 0.770508 0.916931
vt 0.768066 0.933228
vt 0.641113 0.917297
vt 0.642090 0.932007
vt 0.635254 0.916077
vt 0.514648 0.931274
vt 0.503906 0.913757
vt 0.505371 0.933044
vt 0.764648 0.932312
vt 0.762695 0.917053
vt 0.771973 0.933350
vt 0.888184 0.916809
vt 0.895020 0.932983
vt 0.893555 0.918030
vt 0.503906 0.913513
vt 0.523438 0.892517
vt 0.531738 0.895874
vt 0.636230 0.915955
vt 0.623047 0.897400
vt 0.640137 0.896729
vt 0.637207 0.915344
vt 0.657227 0.897583
vt 0.766113 0.895996
vt 0.749023 0.897949
vt 0.766602 0.916992
vt 0.888184 0.916565
vt 0.875488 0.898071
vt 0.783691 0.898254
vt 0.892578 0.897522
vt 0.889160 0.916626
vt 0.909668 0.898315
vt 1.029297 0.915100
vt 1.000977 0.896973
vt 1.008789 0.893677
vt 1.028320 0.915100
vt 1.026367 0.934204
vt 1.017578 0.932495
vt 0.897461 0.933044
vt 0.889648 0.917297
vt 0.891602 0.932007
vt 0.910156 0.951416
vt 1.027344 0.936279
vt 1.012695 0.951965
vt 0.896973 0.933228
vt 1.017578 0.932495
vt 0.883301 0.952240
vt 0.895508 0.933899
vt 0.784180 0.951721
vt 0.771973 0.933350
vt 0.753906 0.951813
vt 0.768066 0.933350
vt 0.642578 0.932861
vt 0.656738 0.951080
vt 0.627930 0.950226
vt 0.642578 0.932129
vt 0.514648 0.931274
vt 0.505859 0.935181
vt 0.520020 0.950470
vt1 0.298584 0.581055
vt1 0.296631 0.342773
vt1 0.298828 0.342773
vt1 0.295654 0.582520
vt1 0.293701 0.342773
vt1 0.292480 0.582764
vt1 0.289795 0.342773
vt1 0.290527 0.581543
vt1 0.287598 0.583008
vt1 0.285889 0.342773
vt1 0.284668 0.582275
vt1 0.282715 0.342773
vt1 0.282715 0.583008
vt1 0.279785 0.342773
vt1 0.279541 0.582520
vt1 0.276611 0.582031
vt1 0.276855 0.342773
vt1 0.273682 0.583008
vt1 0.273682 0.342773
vt1 0.270752 0.342773
vt1 0.270508 0.581787
vt1 0.268066 0.342773
vt1 0.268555 0.582275
vt1 0.265625 0.583252
vt1 0.264893 0.342773
vt1 0.261719 0.581787
vt1 0.261719 0.342773
vt1 0.258789 0.342773
vt1 0.258545 0.583740
vt1 0.249756 0.504639
vt1 0.244629 0.499512
vt1 0.248169 0.499512
vt1 0.242798 0.503662
vt1 0.240356 0.499023
vt1 0.249634 0.505127
vt1 0.234863 0.502441
vt1 0.237549 0.498535
vt1 0.233276 0.498535
vt1 0.228882 0.498047
vt1 0.244141 0.504639
vt1 0.225586 0.502441
vt1 0.225952 0.498047
vt1 0.221924 0.498047
vt1 0.238525 0.503906
vt1 0.232666 0.503662
vt1 0.218262 0.502441
vt1 0.217285 0.498047
vt1 0.225220 0.503418
vt1 0.237671 0.505859
vt1 0.229858 0.505371
vt1 0.244507 0.507080
vt1 0.248779 0.508301
vt1 0.243042 0.510986
vt1 0.246460 0.511719
vt1 0.238403 0.506836
vt1 0.239258 0.510498
vt1 0.235352 0.510010
vt1 0.231445 0.506592
vt1 0.231079 0.510010
vt1 0.227173 0.509766
vt1 0.223389 0.506348
vt1 0.222778 0.509766
vt1 0.218506 0.509766
vt1 0.221680 0.505371
vt1 0.215454 0.506348
vt1 0.213013 0.510010
vt1 0.218384 0.503418
vt1 0.213135 0.505371
vt1 0.208374 0.506592
vt1 0.207642 0.510254
vt1 0.203491 0.510498
vt1 0.212891 0.502441
vt1 0.212646 0.498047
vt1 0.211914 0.503418
vt1 0.207764 0.502686
vt1 0.208496 0.498535
vt1 0.205688 0.498535
vt1 0.201660 0.499023
vt1 0.207397 0.505615
vt1 0.204224 0.503906
vt1 0.200317 0.503418
vt1 0.195923 0.499512
vt1 0.199097 0.505615
vt1 0.190674 0.503662
vt1 0.192505 0.499512
vt1 0.190674 0.504639
vt1 0.191162 0.507812
vt1 0.199219 0.507324
vt1 0.199585 0.510742
vt1 0.195557 0.511230
vt1 0.193359 0.511719
vt1 0.205688 0.446289
vt1 0.205811 0.459961
vt1 0.201782 0.457031
vt1 0.204346 0.460938
vt1 0.201782 0.450195
vt1 0.195068 0.457031
vt1 0.192505 0.446289
vt1 0.191895 0.460938
vt1 0.195068 0.450195
vt1 0.191040 0.459473
vt1 0.191040 0.446777
vt1 0.192871 0.472656
vt1 0.187134 0.479492
vt1 0.188843 0.471680
vt1 0.194214 0.465332
vt1 0.192261 0.480957
vt1 0.190796 0.488770
vt1 0.201172 0.468750
vt1 0.206665 0.462402
vt1 0.197021 0.476562
vt1 0.196289 0.484863
vt1 0.198975 0.494141
vt1 0.209961 0.470703
vt1 0.216797 0.470703
vt1 0.203125 0.474609
vt1 0.213501 0.475098
vt1 0.219116 0.479492
vt1 0.207886 0.478027
vt1 0.201538 0.479980
vt1 0.212280 0.481934
vt1 0.215698 0.488281
vt1 0.205811 0.482910
vt1 0.201538 0.487305
vt1 0.207642 0.494141
vt1 0.209595 0.487305
vt1 0.222900 0.478027
vt1 0.229004 0.483887
vt1 0.224487 0.485352
vt1 0.229980 0.492188
vt1 0.228760 0.475098
vt1 0.226929 0.468750
vt1 0.236084 0.484375
vt1 0.234741 0.467773
vt1 0.235107 0.463867
vt1 0.234253 0.479492
vt1 0.234741 0.474121
vt1 0.243530 0.467285
vt1 0.243896 0.463867
vt1 0.251465 0.469727
vt1 0.239990 0.472656
vt1 0.240356 0.478516
vt1 0.247437 0.475098
vt1 0.254883 0.478516
vt1 0.243652 0.482422
vt1 0.249756 0.482910
vt1 0.252441 0.487305
vt1 0.239258 0.489258
vt1 0.242554 0.495117
vt1 0.245605 0.488770
vt1 0.197876 0.456055
vt1 0.195435 0.458008
vt1 0.195801 0.454102
vt1 0.198975 0.453125
vt1 0.192505 0.458984
vt1 0.198853 0.450195
vt1 0.189453 0.458008
vt1 0.197144 0.447266
vt1 0.187744 0.457031
vt1 0.194580 0.445801
vt1 0.186035 0.454102
vt1 0.190308 0.445801
vt1 0.185913 0.451172
vt1 0.187012 0.448242
vt1 0.394287 1.005569
vt1 0.384766 0.760010
vt1 0.394043 0.760010
vt1 0.382812 1.009460
vt1 0.284424 0.758911
vt1 0.280762 1.008537
vt1 0.274658 0.758667
vt1 0.269775 1.008202
vt1 0.269775 1.008202
vt1 0.265869 0.758545
vt1 0.275391 0.758667
vt1 0.258789 1.008026
vt1 0.166260 0.755127
vt1 0.158203 1.002848
vt1 0.156860 0.755127
vt1 0.148682 1.002142
vt1 0.518066 1.008270
vt1 0.503418 0.758911
vt1 0.512695 0.758667
vt1 0.506836 1.008545
vt1 0.405029 1.009521
vt1 0.403320 0.760010
vt1 0.393311 0.760010
vt1 0.393311 1.005566
vt1 0.631348 0.755371
vt1 0.639160 1.002390
vt1 0.621582 0.755249
vt1 0.629395 1.003057
vt1 0.529297 1.008125
vt1 0.521973 0.758667
vt1 0.512207 0.758789
vt1 0.518066 1.008270
vt1 0.434082 0.484863
vt1 0.433838 0.479492
vt1 0.434570 0.484863
vt1 0.449463 0.479492
vt1 0.449219 0.485352
vt1 0.434326 0.479980
vt1 0.434326 0.484863
vt1 0.433594 0.479492
vt1 0.419434 0.484863
vt1 0.418213 0.479492
vt1 0.418213 0.485352
vt1 0.448975 0.484863
vt1 0.448486 0.479492
vt1 0.449707 0.485352
vt1 0.463379 0.479492
vt1 0.464111 0.484863
vt1 0.464111 0.479980
vt1 0.418213 0.479492
vt1 0.420410 0.477051
vt1 0.421387 0.477051
vt1 0.433594 0.479492
vt1 0.432129 0.477539
vt1 0.434082 0.477539
vt1 0.433838 0.479492
vt1 0.436279 0.477539
vt1 0.448975 0.477051
vt1 0.447021 0.477539
vt1 0.448975 0.479492
vt1 0.463379 0.479492
vt1 0.461914 0.477539
vt1 0.451172 0.477539
vt1 0.463867 0.477539
vt1 0.463623 0.479492
vt1 0.466064 0.477539
vt1 0.479980 0.479492
vt1 0.476807 0.477539
vt1 0.477783 0.477051
vt1 0.479980 0.479492
vt1 0.479736 0.485352
vt1 0.478760 0.484863
vt1 0.464600 0.485352
vt1 0.463623 0.479980
vt1 0.463867 0.484863
vt1 0.466064 0.487305
vt1 0.479736 0.485352
vt1 0.478027 0.487305
vt1 0.464355 0.484863
vt1 0.478760 0.484863
vt1 0.462891 0.487305
vt1 0.464355 0.485352
vt1 0.451172 0.487305
vt1 0.449707 0.485352
vt1 0.447510 0.487305
vt1 0.449219 0.485352
vt1 0.434326 0.484863
vt1 0.436035 0.487305
vt1 0.432617 0.487305
vt1 0.434326 0.484863
vt1 0.419434 0.484863
vt1 0.418213 0.485352
vt1 0.419922 0.487305
vn 0.000000 0.000000 1.000000
vn 0.307087 0.000000 0.952756
vn 0.000000 0.000000 1.000000
vn 0.448819 0.000000 0.889764
vn 0.708661 0.000000 0.708661
vn 0.811024 0.000000 0.582677
vn 0.984252 0.000000 0.173228
vn 0.952756 0.000000 0.307087
vn 0.984252 -0.000000 -0.157480
vn 0.889764 -0.000000 -0.456693
vn 0.811024 -0.000000 -0.590551
vn 0.590551 -0.000000 -0.811023
vn 0.590551 -0.000000 -0.811023
vn 0.157480 -0.000000 -0.984252
vn 0.157480 -0.000000 -0.984252
vn -0.307087 -0.000000 -0.952756
vn -0.307087 -0.000000 -0.952756
vn -0.708661 -0.000000 -0.708661
vn -0.708661 -0.000000 -0.708661
vn -0.952756 -0.000000 -0.307087
vn -0.952756 -0.000000 -0.307087
vn -0.992126 0.000000 0.125984
vn -1.000000 0.000000 0.000000
vn -0.889764 0.000000 0.456693
vn -0.811024 0.000000 0.590551
vn -0.472441 0.000000 0.881890
vn -0.456693 0.000000 0.889764
vn 0.000000 0.000000 1.000000
vn 0.000000 0.000000 1.000000
vn 0.000000 -0.976378 0.228347
vn 0.070866 -0.992126 0.133858
vn 0.000000 -0.992126 0.141732
vn 0.165354 -0.960630 0.228347
vn 0.118110 -0.992126 0.086614
vn 0.015748 0.078740 1.000000
vn 0.181102 -0.984252 0.000000
vn 0.141732 -0.992126 0.047244
vn 0.141732 -0.992126 -0.023622
vn 0.118110 -0.992126 -0.086614
vn 0.464567 0.259843 0.842520
vn 0.133858 -0.968504 -0.204724
vn 0.086614 -0.992126 -0.118110
vn 0.023622 -0.992126 -0.141732
vn 0.889764 0.157480 0.425197
vn 0.968504 0.165354 -0.181102
vn -0.039370 -0.984252 -0.181102
vn -0.047244 -0.992126 -0.141732
vn 0.511811 0.173228 -0.842520
vn 0.858268 0.385827 0.338583
vn 0.811024 0.393701 -0.433071
vn 0.251969 0.818898 0.511811
vn -0.007874 0.913386 0.417323
vn 0.031496 1.000000 0.062992
vn 0.000000 1.000000 0.070866
vn 0.125984 0.992126 0.070866
vn 0.062992 1.000000 0.039370
vn 0.070866 1.000000 0.007874
vn 0.125984 0.992126 -0.055118
vn 0.070866 1.000000 -0.023622
vn 0.055118 1.000000 -0.055118
vn 0.055118 0.992126 -0.133858
vn 0.023622 1.000000 -0.070866
vn -0.007874 1.000000 -0.070866
vn 0.118110 0.425197 -0.897638
vn -0.070866 0.992126 -0.125984
vn -0.055118 1.000000 -0.055118
vn -0.173228 0.149606 -0.968504
vn -0.645669 0.377953 -0.661417
vn -0.149606 0.984252 -0.039370
vn -0.070866 1.000000 -0.007874
vn -0.070866 1.000000 0.023622
vn -0.188976 -0.968504 -0.181102
vn -0.110236 -0.992126 -0.102362
vn -0.795276 0.196850 -0.574803
vn -0.181102 -0.984252 -0.039370
vn -0.141732 -0.992126 -0.047244
vn -0.141732 -0.992126 0.000000
vn -0.133858 -0.992126 0.062992
vn -0.913386 0.385827 -0.141732
vn -0.968504 0.165354 0.181102
vn -0.188976 -0.968504 0.133858
vn -0.070866 -0.992126 0.133858
vn -0.653543 0.283465 0.700787
vn 0.023622 -0.984252 0.188976
vn 0.000000 -0.992126 0.141732
vn -0.007874 0.070866 1.000000
vn 0.007874 0.897638 0.433071
vn -0.110236 0.992126 0.047244
vn -0.055118 1.000000 0.055118
vn -0.023622 1.000000 0.070866
vn 0.000000 1.000000 0.070866
vn 0.000000 1.000000 -0.000000
vn 0.000000 1.000000 -0.000000
vn 0.000000 1.000000 -0.000000
vn 0.000000 1.000000 -0.000000
vn 0.000000 1.000000 -0.000000
vn 0.000000 1.000000 -0.000000
vn 0.000000 1.000000 -0.000000
vn 0.000000 1.000000 -0.000000
vn 0.000000 1.000000 -0.000000
vn 0.000000 1.000000 -0.000000
vn 0.000000 1.000000 -0.000000
vn -0.818898 0.425197 0.385827
vn -0.992126 -0.094488 0.000000
vn -0.913386 0.401575 -0.000000
vn -0.574803 0.818897 -0.007874
vn -0.874016 -0.220472 0.433071
vn -0.748031 -0.669291 0.000000
vn -0.181102 0.818898 0.543307
vn 0.196850 0.976378 0.007874
vn -0.582677 0.196850 0.787401
vn -0.582677 -0.566929 0.582677
vn -0.259843 -0.960630 0.015748
vn 0.551181 0.661417 0.503937
vn 0.842520 0.535433 -0.000000
vn -0.007874 0.393701 0.921260
vn 0.850394 0.291339 0.440945
vn 1.000000 -0.039370 0.000000
vn 0.464567 0.062992 0.881890
vn -0.157480 -0.149606 0.976378
vn 0.795276 -0.267716 0.543307
vn 0.811024 -0.590551 0.000000
vn 0.267717 -0.433071 0.858268
vn -0.125984 -0.755905 0.637795
vn 0.338583 -0.937008 0.031496
vn 0.559055 -0.700787 0.448819
vn -0.992126 -0.094488 0.000000
vn -0.811024 0.385827 -0.440945
vn -0.913386 0.401575 -0.000000
vn -0.582677 0.818897 -0.015748
vn -0.818898 -0.338583 -0.464567
vn -0.748031 -0.669291 0.000000
vn -0.283465 0.503937 -0.818898
vn -0.322835 -0.881890 -0.346457
vn -0.267717 -0.960630 -0.015748
vn -0.464567 0.015748 -0.889764
vn -0.385827 -0.488189 -0.779527
vn 0.377953 -0.866142 -0.330709
vn 0.346457 -0.937008 0.007874
vn 0.811024 -0.590551 0.000000
vn 0.110236 -0.614173 -0.779527
vn 0.149606 -0.055118 -0.984252
vn 0.748031 -0.322835 -0.582677
vn 1.000000 -0.039370 0.000000
vn 0.456693 0.338583 -0.818898
vn 0.858268 0.299213 -0.409449
vn 0.842520 0.535433 -0.000000
vn 0.007874 0.834646 -0.551181
vn 0.212598 0.976378 -0.015748
vn 0.535433 0.755905 -0.385827
vn 0.070866 1.000000 0.007874
vn 0.062992 1.000000 0.039370
vn 0.039370 1.000000 -0.000000
vn 0.070866 1.000000 -0.023622
vn 0.031496 1.000000 0.062992
vn 0.055118 1.000000 -0.055118
vn 0.000000 1.000000 0.070866
vn 0.023622 1.000000 -0.070866
vn -0.023622 1.000000 0.070866
vn -0.007874 1.000000 -0.070866
vn -0.055118 1.000000 0.055118
vn -0.055118 1.000000 -0.055118
vn -0.070866 1.000000 0.023622
vn -0.070866 1.000000 -0.007874
vn -0.921260 -0.000000 -0.393701
vn -1.000000 -0.000000 -0.031496
vn -0.921260 -0.000000 -0.385827
vn -1.000000 -0.000000 -0.031496
vn -1.000000 0.000000 0.031496
vn -1.000000 0.000000 0.031496
vn -0.921260 0.000000 0.385827
vn -0.921260 0.000000 0.385827
vn -0.385827 0.000000 0.921260
vn -0.031496 0.000000 1.000000
vn -0.385827 0.000000 0.921260
vn -0.031496 0.000000 1.000000
vn 0.031496 0.000000 1.000000
vn 0.031496 0.000000 1.000000
vn 0.385827 0.000000 0.921260
vn 0.385827 0.000000 0.921260
vn 0.385827 -0.000000 -0.921260
vn 0.031496 -0.000000 -1.000000
vn 0.385827 -0.000000 -0.921260
vn 0.031496 -0.000000 -1.000000
vn -0.031496 -0.000000 -1.000000
vn -0.031496 -0.000000 -1.000000
vn -0.385827 -0.000000 -0.921260
vn -0.393701 -0.000000 -0.921260
vn 0.921260 0.000000 0.385827
vn 0.921260 0.000000 0.385827
vn 1.000000 0.000000 0.031496
vn 1.000000 0.000000 0.031496
vn 1.000000 -0.000000 -0.031496
vn 1.000000 -0.000000 -0.031496
vn 0.921260 -0.000000 -0.385827
vn 0.921260 -0.000000 -0.385827
vn -0.897638 0.000000 0.448819
vn -1.000000 0.000000 0.086614
vn -1.000000 0.000000 0.031496
vn -1.000000 -0.000000 -0.062992
vn -0.992126 -0.000000 -0.094488
vn -0.464567 0.000000 0.881890
vn -0.094488 0.000000 0.992126
vn -0.031496 0.000000 1.000000
vn 0.023622 0.000000 1.000000
vn 0.102362 0.000000 0.992126
vn 0.409449 0.000000 0.913386
vn -0.464567 -0.000000 -0.889764
vn -0.094488 -0.000000 -0.992126
vn -0.023622 -0.000000 -1.000000
vn 0.031496 -0.000000 -1.000000
vn 0.086614 -0.000000 -1.000000
vn 0.456693 -0.000000 -0.889764
vn 0.078740 -0.748031 0.653543
vn 0.000000 -1.000000 0.000000
vn 0.000000 -1.000000 0.000000
vn -0.031496 -0.724409 0.692913
vn 0.000000 -1.000000 0.000000
vn 0.000000 -1.000000 0.000000
vn -0.645669 -0.763779 0.062992
vn 0.000000 -1.000000 0.000000
vn 0.000000 -1.000000 0.000000
vn 0.000000 -1.000000 0.000000
vn -0.417323 -0.811024 -0.401575
vn 0.039370 -0.724409 -0.685039
vn 0.000000 -1.000000 0.000000
vn 0.000000 -1.000000 0.000000
vn 0.000000 -1.000000 0.000000
vn 0.645669 -0.755905 -0.078740
vn 0.000000 -1.000000 0.000000
vn 0.677165 -0.740157 0.055118
vn 0.000000 -1.000000 0.000000
vn 0.000000 -1.000000 0.000000
vn 1.000000 0.000000 0.078740
vn 0.913386 0.000000 0.401575
vn 1.000000 0.000000 0.023622
vn 1.000000 -0.000000 -0.031496
vn 1.000000 -0.000000 -0.086614
vn 0.881890 -0.000000 -0.472441
vn 0.000000 1.000000 -0.000000
vn 0.582677 0.811023 0.047244
vn -0.007874 1.000000 -0.000000
vn 0.692913 0.724409 -0.031496
vn 0.692913 0.724409 0.031496
vn -0.023622 1.000000 -0.023622
vn 0.062992 0.763779 -0.645669
vn 0.007874 1.000000 -0.078740
vn -0.031496 0.724409 -0.692913
vn -0.070866 1.000000 0.015748
vn -0.645669 0.755905 -0.110236
vn -0.677165 0.740157 0.031496
vn 0.000000 1.000000 -0.000000
vn 0.007874 1.000000 0.086614
vn -0.094488 0.748031 0.653543
vn 0.031496 0.724409 0.692913
vn 0.078740 0.826772 0.559055
vn 0.000000 1.000000 -0.007874
tan 0.000000 -1.000000 0.000000 1.000000
tan 0.000000 -0.952756 0.000000 1.000000
tan 0.000000 -1.000000 0.000000 1.000000
tan 0.007006 -0.875628 -0.003534 1.000000
tan 0.005580 -0.998822 -0.005580 1.000000
tan 0.004588 -0.838552 -0.006386 1.000000
tan 0.000000 -0.984252 0.000000 1.000000
tan 0.000000 -0.952756 0.000000 1.000000
tan 0.000000 -0.984252 0.000000 1.000000
tan -0.003596 -0.878976 -0.007006 1.000000
tan 0.000000 -0.869738 0.000000 1.000000
tan -0.012772 -0.815673 -0.009300 1.000000
tan 0.000000 -0.895902 0.000000 1.000000
tan 0.000000 -0.984252 0.000000 1.000000
tan 0.000000 -0.984252 0.000000 1.000000
tan 0.000000 -0.952756 0.000000 1.000000
tan 0.000000 -0.952756 0.000000 1.000000
tan -0.011160 -1.004402 0.011160 1.000000
tan -0.022320 -0.998822 0.022320 1.000000
tan 0.000000 -0.952756 0.000000 1.000000
tan 0.000000 -0.952756 0.000000 1.000000
tan 0.000000 -0.992126 0.000000 1.000000
tan 0.000000 -1.000000 0.000000 1.000000
tan 0.000000 -0.886168 0.000000 1.000000
tan 0.004650 -0.811023 0.006386 1.000000
tan 0.006944 -0.870730 0.003720 1.000000
tan 0.007006 -0.882572 0.003596 1.000000
tan 0.000000 -1.000000 0.000000 1.000000
tan 0.000000 -1.000000 0.000000 1.000000
tan -0.076880 -0.228347 -0.976378 1.000000
tan -0.328105 -0.149916 -0.937442 1.000000
tan -0.187488 -0.139500 -0.976502 1.000000
tan -0.446277 -0.278195 -0.847170 1.000000
tan -0.734329 -0.145390 -0.664021 1.000000
tan 0.125984 -0.992126 0.076136 1.000000
tan -0.976502 -0.179676 -0.085250 1.000000
tan -0.914006 -0.148800 -0.382789 1.000000
tan -0.992126 -0.143406 0.070308 1.000000
tan -0.828074 -0.146320 0.546841 1.000000
tan 0.159774 -0.865832 0.178932 1.000000
tan -0.533821 -0.244652 0.808358 1.000000
tan -0.593713 -0.146692 0.796825 1.000000
tan -0.179676 -0.143778 0.976502 1.000000
tan 0.203112 -0.886106 -0.096844 1.000000
tan 0.159650 -0.968504 -0.030504 1.000000
tan 0.178250 -0.185380 0.968752 1.000000
tan 0.320293 -0.149172 0.937442 1.000000
tan -0.013888 -0.905822 -0.194680 1.000000
tan 0.404489 -0.860934 -0.044268 1.000000
tan 0.380061 -0.831484 -0.044144 1.000000
tan 0.211978 -0.557195 0.787153 1.000000
tan 0.204662 -0.405729 0.891872 1.000000
tan 0.598425 -0.069440 0.803149 1.000000
tan 0.472441 -0.062496 0.881890 1.000000
tan 0.914006 -0.143406 0.382789 1.000000
tan 0.866142 -0.074400 0.503937 1.000000
tan 0.992126 -0.071176 0.110236 1.000000
tan 0.945254 -0.136958 -0.304669 1.000000
tan 0.937008 -0.074772 -0.354331 1.000000
tan 0.700787 -0.077686 -0.708661 1.000000
tan 0.289045 -0.144646 -0.953066 1.000000
tan 0.299213 -0.074586 -0.952756 1.000000
tan -0.157480 -0.070990 -0.984252 1.000000
tan 0.003348 -0.898568 -0.425197 1.000000
tan -0.453097 -0.144460 -0.882758 1.000000
tan -0.692913 -0.078120 -0.724409 1.000000
tan 0.007626 -0.968504 -0.150970 1.000000
tan -0.197904 -0.921818 -0.333561 1.000000
tan -0.953252 -0.155124 -0.255750 1.000000
tan -0.976378 -0.070928 -0.220472 1.000000
tan -0.976378 -0.074586 0.228346 1.000000
tan 0.701593 -0.260958 0.663463 1.000000
tan 0.757766 -0.150288 0.640585 1.000000
tan -0.127286 -0.906008 -0.134168 1.000000
tan 0.976502 -0.185256 0.139500 1.000000
tan 0.968690 -0.149172 0.226548 1.000000
tan 0.984314 -0.140616 -0.093744 1.000000
tan 0.859322 -0.147188 -0.492157 1.000000
tan -0.382479 -0.912270 -0.018538 1.000000
tan -0.173910 -0.968504 -0.045756 1.000000
tan 0.754975 -0.230578 -0.602455 1.000000
tan 0.382789 -0.150660 -0.914006 1.000000
tan -0.417819 -0.884060 -0.032054 1.000000
tan 0.108500 -0.184884 -0.976502 1.000000
tan 0.234360 -0.137268 -0.960878 1.000000
tan -0.055118 -1.000000 0.070432 1.000000
tan -0.151838 -0.424949 0.883564 1.000000
tan -0.773390 -0.115692 0.624961 1.000000
tan -0.779528 -0.077252 0.622047 1.000000
tan -0.472441 -0.073656 0.881890 1.000000
tan -0.409449 -0.064728 0.913386 1.000000
tan 1.000000 0.000000 0.000000 1.000000
tan 1.000000 0.000000 0.000000 1.000000
tan 1.000000 0.000000 0.000000 1.000000
tan 1.000000 0.000000 0.000000 1.000000
tan 1.000000 0.000000 0.000000 1.000000
tan 1.000000 0.000000 0.000000 1.000000
tan 1.000000 0.000000 0.000000 1.000000
tan 1.000000 0.000000 0.000000 1.000000
tan 1.000000 0.000000 0.000000 1.000000
tan 1.000000 0.000000 0.000000 1.000000
tan 1.000000 0.000000 0.000000 1.000000
tan 0.330089 0.796515 -0.177196 1.000000
tan -0.094488 0.992126 0.062496 1.000000
tan 0.388927 0.884618 -0.222953 1.000000
tan 0.806064 0.564449 -0.139934 1.000000
tan -0.157356 0.867134 0.123876 1.000000
tan -0.664021 0.742141 0.102300 1.000000
tan 0.083824 0.557567 -0.812450 1.000000
tan -0.461281 0.099944 -0.861058 1.000000
tan -0.182900 0.820633 -0.340505 1.000000
tan -0.305537 0.816666 0.489057 1.000000
tan -0.476533 0.142538 0.832042 1.000000
tan -0.448633 0.744869 -0.486949 1.000000
tan -0.531217 0.835886 -0.123628 1.000000
tan 0.000000 0.921260 -0.393701 1.000000
tan -0.210366 0.837002 -0.147312 1.000000
tan 0.039370 1.000000 0.047244 1.000000
tan -0.036208 0.892864 -0.044702 1.000000
tan -0.015376 0.976378 0.147126 1.000000
tan -0.144150 0.669601 0.540951 1.000000
tan 0.581251 0.798251 0.137020 1.000000
tan -0.040486 0.862484 0.447827 1.000000
tan 0.000000 0.637795 0.755905 1.000000
tan 0.545973 0.222829 0.759935 1.000000
tan 0.528613 0.718519 0.463451 1.000000
tan 0.093744 -0.984314 0.093744 1.000000
tan -0.262571 -0.795895 -0.213466 1.000000
tan -0.392089 -0.891810 -0.201376 1.000000
tan -0.812450 -0.579949 -0.096720 1.000000
tan 0.252775 -0.806001 0.141856 1.000000
tan 0.664021 -0.742141 0.113460 1.000000
tan 0.044144 -0.812202 -0.515097 1.000000
tan 0.368033 -0.448447 0.798562 1.000000
tan 0.484097 -0.148552 0.832042 1.000000
tan 0.042036 -0.889764 -0.037696 1.000000
tan -0.045260 -0.782565 0.512493 1.000000
tan -0.555025 -0.496249 0.665385 1.000000
tan -0.649265 -0.234360 0.678777 1.000000
tan -0.585901 -0.804637 0.119598 1.000000
tan 0.006138 -0.779527 0.615041 1.000000
tan 0.000000 -0.984252 0.055118 1.000000
tan 0.130634 -0.694587 0.552545 1.000000
tan -0.039370 -1.000000 0.039370 1.000000
tan -0.100502 -0.816046 -0.393453 1.000000
tan 0.213900 -0.841528 -0.166594 1.000000
tan 0.527001 -0.829252 -0.128464 1.000000
tan 0.019716 -0.551367 -0.834646 1.000000
tan 0.507409 -0.124000 -0.837994 1.000000
tan 0.592039 -0.659743 -0.470953 1.000000
tan -0.456693 0.039370 -0.889764 1.000000
tan -0.456693 0.063798 -0.889764 1.000000
tan -0.456693 0.017980 -0.889764 1.000000
tan -0.456693 0.011346 -0.889764 1.000000
tan -0.448819 0.070184 -0.889764 1.000000
tan -0.448819 -0.024304 -0.889764 1.000000
tan -0.448819 0.063054 -0.889764 1.000000
tan -0.448819 -0.052452 -0.889764 1.000000
tan -0.448819 0.052452 -0.889764 1.000000
tan -0.448819 -0.067146 -0.897638 1.000000
tan -0.448819 0.024304 -0.889764 1.000000
tan -0.456693 -0.074214 -0.889764 1.000000
tan -0.456693 -0.011346 -0.889764 1.000000
tan -0.456693 -0.039370 -0.889764 1.000000
tan 0.003100 -0.927460 -0.007254 1.000000
tan -0.000248 -1.000000 0.007874 1.000000
tan -0.006076 -0.921260 0.014508 1.000000
tan 0.000000 -1.000000 0.000000 1.000000
tan 0.000496 -1.000000 0.015748 1.000000
tan 0.000744 -1.000000 0.023622 1.000000
tan 0.018228 -0.924298 0.043524 1.000000
tan 0.018228 -0.948602 0.043524 1.000000
tan 0.021762 -0.948602 0.009114 1.000000
tan 0.023622 -1.000000 0.000744 1.000000
tan 0.058032 -0.921260 0.024304 1.000000
tan 0.031496 -1.000000 0.000992 1.000000
tan 0.039370 -1.000000 -0.001240 1.000000
tan 0.062992 -1.000000 -0.001984 1.000000
tan 0.065286 -0.924298 -0.027342 1.000000
tan 0.087048 -0.941348 -0.036456 1.000000
tan 0.036270 -0.948602 0.015190 1.000000
tan 0.015748 -1.000000 0.000496 1.000000
tan 0.029016 -0.921260 0.012152 1.000000
tan 0.023622 -1.000000 0.000744 1.000000
tan 0.000000 -1.000000 0.000000 1.000000
tan 0.007874 -1.000000 -0.000248 1.000000
tan -0.007254 -0.924298 0.003038 1.000000
tan -0.014508 -0.927460 0.006200 1.000000
tan -0.024304 -0.921260 0.058032 1.000000
tan -0.033418 -0.941348 0.079794 1.000000
tan -0.000992 -1.000000 0.031496 1.000000
tan -0.001984 -1.000000 0.062992 1.000000
tan 0.000992 -1.000000 0.031496 1.000000
tan 0.000744 -1.000000 0.023622 1.000000
tan 0.015190 -0.924298 0.036270 1.000000
tan 0.006076 -0.948602 0.014508 1.000000
tan 0.247380 -0.756277 0.494761 1.000000
tan -0.014322 -0.984252 -0.165354 1.000000
tan 0.004960 -0.984252 0.157480 1.000000
tan -0.010416 -0.984252 0.165354 1.000000
tan 0.014880 -0.976502 -0.156240 1.000000
tan 0.423585 -0.781759 0.223139 1.000000
tan -0.117180 -0.984314 -0.011160 1.000000
tan 0.133858 -0.992126 0.004216 1.000000
tan -0.015748 -1.000000 0.000372 1.000000
tan 0.117180 -0.984314 -0.012090 1.000000
tan -0.172608 -0.905450 0.077376 1.000000
tan -0.448385 -0.781635 0.234113 1.000000
tan 0.164052 -0.976502 -0.015624 1.000000
tan -0.125984 -0.992126 0.002976 1.000000
tan -0.133858 -0.992126 -0.004216 1.000000
tan 0.196850 -0.984252 0.017050 1.000000
tan -0.469403 -0.767437 -0.240932 1.000000
tan -0.029450 -0.656643 -0.748031 1.000000
tan -0.031496 -0.000000 -1.000000 1.000000
tan 0.015748 -0.000000 -1.000000 1.000000
tan 0.079112 -0.690185 -0.717961 1.000000
tan 0.110236 -0.000000 -0.992126 1.000000
tan 0.708661 -0.000000 -0.700787 1.000000
tan 0.756774 -0.646041 -0.076322 1.000000
tan 1.000000 -0.000000 -0.086614 1.000000
tan 0.692913 0.000000 0.716535 1.000000
tan 0.992126 0.000000 0.102362 1.000000
tan 0.542873 -0.576663 0.600471 1.000000
tan -0.084320 -0.683055 0.717465 1.000000
tan -0.102362 0.000000 0.992126 1.000000
tan 0.094488 0.000000 0.992126 1.000000
tan -0.716535 0.000000 0.692913 1.000000
tan -0.749334 -0.648025 0.076508 1.000000
tan -0.992126 0.000000 0.102362 1.000000
tan -0.740157 -0.679335 -0.029140 1.000000
tan -1.000000 0.000000 0.007874 1.000000
tan -1.000000 -0.000000 -0.039370 1.000000
tan -0.006820 -1.000000 0.086614 1.000000
tan 0.050592 -0.912518 -0.115072 1.000000
tan 0.001116 -1.000000 -0.047244 1.000000
tan -0.002976 -0.992126 -0.094488 1.000000
tan 0.014322 -0.984252 0.165354 1.000000
tan -0.212040 -0.795834 -0.395809 1.000000
tan 1.000000 -0.000000 -0.078740 1.000000
tan 0.811024 -0.585653 0.051088 1.000000
tan 1.000000 0.007874 0.023622 1.000000
tan 0.723665 -0.695393 -0.073408 1.000000
tan 0.723665 -0.694401 0.050592 1.000000
tan 0.251969 -0.016926 -0.968504 1.000000
tan 0.076322 -0.651125 -0.762787 1.000000
tan -0.118110 -0.077190 -0.992126 1.000000
tan -0.151280 -0.691425 -0.715977 1.000000
tan -0.984252 -0.067022 -0.173228 1.000000
tan -0.746481 -0.657077 -0.133424 1.000000
tan -0.733833 -0.675057 0.086428 1.000000
tan -0.992126 0.000000 0.110236 1.000000
tan -0.196850 -0.083018 0.976378 1.000000
tan -0.114824 -0.660301 0.739165 1.000000
tan 0.050592 -0.694401 0.723665 1.000000
tan 0.058590 -0.564635 0.826772 1.000000
tan 0.039370 0.007874 1.000000 1.000000
f 3/3/3 2/2/2 1/1/1
f 4/4/4 1/1/1 2/2/2
f 4/4/4 2/2/2 5/5/5
f 6/6/6 4/4/4 5/5/5
f 7/7/7 6/6/6 5/5/5
f 6/6/6 7/7/7 8/8/8
f 8/8/8 7/7/7 9/9/9
f 7/7/7 10/10/10 9/9/9
f 11/11/11 9/9/9 10/10/10
f 10/10/10 12/12/12 11/11/11
f 11/11/11 12/12/12 13/13/13
f 12/12/12 14/14/14 13/13/13
f 13/13/13 14/14/14 15/15/15
f 14/14/14 16/16/16 15/15/15
f 14/14/14 17/17/17 16/16/16
f 17/17/17 18/18/18 16/16/16
f 17/17/17 19/19/19 18/18/18
f 19/19/19 20/20/20 18/18/18
f 21/21/21 18/18/18 20/20/20
f 20/20/20 22/22/22 21/21/21
f 23/23/23 21/21/21 22/22/22
f 24/24/24 23/23/23 22/22/22
f 24/24/24 22/22/22 25/25/25
f 26/26/26 24/24/24 25/25/25
f 26/26/26 25/25/25 27/27/27
f 27/27/27 28/28/28 26/26/26
f 29/29/29 26/26/26 28/28/28
f 32/32/32 31/31/31 30/30/30
f 33/33/33 30/30/30 31/31/31
f 34/34/34 33/33/33 31/31/31
f 30/30/30 33/33/33 35/35/35
f 33/33/33 34/34/34 36/36/36
f 37/37/37 36/36/36 34/34/34
f 38/38/38 36/36/36 37/37/37
f 39/39/39 36/36/36 38/38/38
f 40/40/40 35/35/35 33/33/33
f 41/41/41 36/36/36 39/39/39
f 42/42/42 41/41/41 39/39/39
f 42/42/42 43/43/43 41/41/41
f 44/44/44 33/33/33 36/36/36
f 33/33/33 44/44/44 40/40/40
f 36/36/36 41/41/41 45/45/45
f 45/45/45 44/44/44 36/36/36
f 41/41/41 43/43/43 46/46/46
f 43/43/43 47/47/47 46/46/46
f 48/48/48 45/45/45 41/41/41
f 41/41/41 46/46/46 48/48/48
f 49/49/49 44/44/44 45/45/45
f 44/44/44 49/49/49 40/40/40
f 48/48/48 50/50/50 45/45/45
f 49/49/49 45/45/45 50/50/50
f 40/40/40 51/51/51 35/35/35
f 51/51/51 40/40/40 49/49/49
f 52/52/52 35/35/35 51/51/51
f 54/54/54 52/52/52 53/53/53
f 51/51/51 53/53/53 52/52/52
f 55/55/55 53/53/53 51/51/51
f 55/55/55 51/51/51 49/49/49
f 56/56/56 53/53/53 55/55/55
f 57/57/57 56/56/56 55/55/55
f 49/49/49 58/58/58 55/55/55
f 55/55/55 58/58/58 57/57/57
f 49/49/49 50/50/50 58/58/58
f 57/57/57 58/58/58 59/59/59
f 59/59/59 58/58/58 60/60/60
f 58/58/58 61/61/61 60/60/60
f 58/58/58 50/50/50 61/61/61
f 61/61/61 62/62/62 60/60/60
f 63/63/63 62/62/62 61/61/61
f 64/64/64 61/61/61 50/50/50
f 48/48/48 64/64/64 50/50/50
f 65/65/65 63/63/63 61/61/61
f 65/65/65 61/61/61 64/64/64
f 63/63/63 65/65/65 66/66/66
f 48/48/48 67/67/67 64/64/64
f 67/67/67 48/48/48 46/46/46
f 64/64/64 68/68/68 65/65/65
f 64/64/64 67/67/67 68/68/68
f 69/69/69 66/66/66 65/65/65
f 69/69/69 65/65/65 68/68/68
f 66/66/66 69/69/69 70/70/70
f 70/70/70 69/69/69 71/71/71
f 67/67/67 46/46/46 72/72/72
f 46/46/46 47/47/47 72/72/72
f 73/73/73 72/72/72 47/47/47
f 72/72/72 74/74/74 67/67/67
f 74/74/74 68/68/68 67/67/67
f 72/72/72 73/73/73 75/75/75
f 74/74/74 72/72/72 75/75/75
f 76/76/76 75/75/75 73/73/73
f 77/77/77 75/75/75 76/76/76
f 77/77/77 78/78/78 75/75/75
f 79/79/79 68/68/68 74/74/74
f 79/79/79 69/69/69 68/68/68
f 80/80/80 74/74/74 75/75/75
f 74/74/74 80/80/80 79/79/79
f 81/81/81 75/75/75 78/78/78
f 81/81/81 80/80/80 75/75/75
f 82/82/82 81/81/81 78/78/78
f 79/79/79 80/80/80 83/83/83
f 81/81/81 83/83/83 80/80/80
f 79/79/79 83/83/83 69/69/69
f 81/81/81 82/82/82 84/84/84
f 85/85/85 84/84/84 82/82/82
f 83/83/83 81/81/81 84/84/84
f 84/84/84 86/86/86 83/83/83
f 87/87/87 83/83/83 86/86/86
f 88/88/88 69/69/69 83/83/83
f 83/83/83 87/87/87 88/88/88
f 88/88/88 71/71/71 69/69/69
f 71/71/71 88/88/88 89/89/89
f 89/89/89 88/88/88 90/90/90
f 88/88/88 87/87/87 90/90/90
f 91/91/91 90/90/90 87/87/87
f 94/94/94 93/93/93 92/92/92
f 93/93/93 94/94/94 95/95/95
f 96/96/96 94/94/94 92/92/92
f 94/94/94 97/97/97 95/95/95
f 96/96/96 92/92/92 98/98/98
f 97/97/97 99/99/99 95/95/95
f 100/100/100 96/96/96 98/98/98
f 99/99/99 97/97/97 101/101/101
f 97/97/97 100/100/100 101/101/101
f 102/102/102 100/100/100 98/98/98
f 100/100/100 102/102/102 101/101/101
f 105/105/105 104/104/104 103/103/103
f 106/106/106 105/105/105 103/103/103
f 107/107/107 103/103/103 104/104/104
f 108/108/108 107/107/107 104/104/104
f 103/103/103 109/109/109 106/106/106
f 106/106/106 109/109/109 110/110/110
f 103/103/103 107/107/107 111/111/111
f 109/109/109 103/103/103 111/111/111
f 107/107/107 108/108/108 112/112/112
f 111/111/111 107/107/107 112/112/112
f 112/112/112 108/108/108 113/113/113
f 110/110/110 109/109/109 114/114/114
f 110/110/110 114/114/114 115/115/115
f 116/116/116 109/109/109 111/111/111
f 109/109/109 116/116/116 114/114/114
f 114/114/114 117/117/117 115/115/115
f 118/118/118 115/115/115 117/117/117
f 119/119/119 114/114/114 116/116/116
f 114/114/114 119/119/119 117/117/117
f 116/116/116 111/111/111 120/120/120
f 119/119/119 116/116/116 120/120/120
f 111/111/111 112/112/112 120/120/120
f 117/117/117 121/121/121 118/118/118
f 119/119/119 121/121/121 117/117/117
f 122/122/122 118/118/118 121/121/121
f 119/119/119 120/120/120 123/123/123
f 121/121/121 119/119/119 123/123/123
f 124/124/124 120/120/120 112/112/112
f 120/120/120 124/124/124 123/123/123
f 113/113/113 124/124/124 112/112/112
f 125/125/125 124/124/124 113/113/113
f 121/121/121 123/123/123 126/126/126
f 126/126/126 123/123/123 124/124/124
f 121/121/121 126/126/126 122/122/122
f 126/126/126 124/124/124 125/125/125
f 125/125/125 122/122/122 126/126/126
f 129/129/129 128/128/128 127/127/127
f 130/130/130 128/128/128 129/129/129
f 131/131/131 127/127/127 128/128/128
f 132/132/132 127/127/127 131/131/131
f 128/128/128 130/130/130 133/133/133
f 134/134/134 132/132/132 131/131/131
f 135/135/135 132/132/132 134/134/134
f 128/128/128 136/136/136 131/131/131
f 133/133/133 136/136/136 128/128/128
f 131/131/131 137/137/137 134/134/134
f 137/137/137 131/131/131 136/136/136
f 138/138/138 135/135/135 134/134/134
f 139/139/139 135/135/135 138/138/138
f 140/140/140 139/139/139 138/138/138
f 134/134/134 137/137/137 141/141/141
f 138/138/138 134/134/134 141/141/141
f 137/137/137 136/136/136 142/142/142
f 141/141/141 137/137/137 142/142/142
f 136/136/136 133/133/133 142/142/142
f 143/143/143 138/138/138 141/141/141
f 141/141/141 142/142/142 143/143/143
f 138/138/138 143/143/143 140/140/140
f 144/144/144 140/140/140 143/143/143
f 142/142/142 133/133/133 145/145/145
f 145/145/145 143/143/143 142/142/142
f 143/143/143 146/146/146 144/144/144
f 146/146/146 143/143/143 145/145/145
f 147/147/147 144/144/144 146/146/146
f 145/145/145 133/133/133 148/148/148
f 148/148/148 133/133/133 130/130/130
f 130/130/130 149/149/149 148/148/148
f 146/146/146 145/145/145 150/150/150
f 150/150/150 145/145/145 148/148/148
f 146/146/146 150/150/150 147/147/147
f 148/148/148 149/149/149 150/150/150
f 149/149/149 147/147/147 150/150/150
f 153/153/153 152/152/152 151/151/151
f 153/153/153 151/151/151 154/154/154
f 153/153/153 155/155/155 152/152/152
f 153/153/153 154/154/154 156/156/156
f 153/153/153 157/157/157 155/155/155
f 153/153/153 156/156/156 158/158/158
f 153/153/153 159/159/159 157/157/157
f 153/153/153 158/158/158 160/160/160
f 153/153/153 161/161/161 159/159/159
f 153/153/153 160/160/160 162/162/162
f 153/153/153 163/163/163 161/161/161
f 153/153/153 162/162/162 164/164/164
f 153/153/153 164/164/164 163/163/163
f 167/167/167 166/166/166 165/165/165
f 168/168/168 165/165/165 166/166/166
f 166/166/166 169/169/169 168/168/168
f 170/170/170 168/168/168 169/169/169
f 169/169/169 171/171/171 170/170/170
f 172/172/172 170/170/170 171/171/171
f 175/175/175 174/174/174 173/173/173
f 176/176/176 173/173/173 174/174/174
f 176/176/176 174/174/174 177/177/177
f 178/178/178 176/176/176 177/177/177
f 177/177/177 179/179/179 178/178/178
f 180/180/180 178/178/178 179/179/179
f 183/183/183 182/182/182 181/181/181
f 181/181/181 182/182/182 184/184/184
f 182/182/182 185/185/185 184/184/184
f 185/185/185 182/182/182 186/186/186
f 186/186/186 187/187/187 185/185/185
f 185/185/185 187/187/187 188/188/188
f 191/191/191 190/190/190 189/189/189
f 190/190/190 191/191/191 192/192/192
f 192/192/192 191/191/191 193/193/193
f 193/193/193 191/191/191 194/194/194
f 195/195/195 193/193/193 194/194/194
f 193/193/193 195/195/195 196/196/196
f 199/199/199 198/198/198 197/197/197
f 198/198/198 199/199/199 200/200/200
f 200/200/200 199/199/199 201/201/201
f 204/204/204 203/203/203 202/202/202
f 204/204/204 205/205/205 203/203/203
f 205/205/205 204/204/204 206/206/206
f 207/207/207 205/205/205 206/206/206
f 210/210/210 209/209/209 208/208/208
f 210/210/210 211/211/211 209/209/209
f 211/211/211 210/210/210 212/212/212
f 213/213/213 211/211/211 212/212/212
f 216/216/216 215/215/215 214/214/214
f 214/214/214 217/217/217 216/216/216
f 217/217/217 218/218/218 216/216/216
f 218/218/218 217/217/217 219/219/219
f 220/220/220 219/219/219 217/217/217
f 220/220/220 221/221/221 219/219/219
f 221/221/221 220/220/220 222/222/222
f 223/223/223 221/221/221 222/222/222
f 222/222/222 220/220/220 224/224/224
f 224/224/224 225/225/225 222/222/222
f 227/227/227 222/222/222 226/226/226
f 225/225/225 226/226/226 222/222/222
f 226/226/226 225/225/225 228/228/228
f 229/229/229 228/228/228 225/225/225
f 228/228/228 229/229/229 230/230/230
f 230/230/230 229/229/229 231/231/231
f 232/232/232 230/230/230 231/231/231
f 232/232/232 231/231/231 233/233/233
f 236/236/236 235/235/235 234/234/234
f 236/236/236 234/234/234 237/237/237
f 237/237/237 234/234/234 238/238/238
f 239/239/239 237/237/237 238/238/238
f 242/242/242 241/241/241 240/240/240
f 240/240/240 241/241/241 243/243/243
f 241/241/241 244/244/244 243/243/243
f 240/240/240 243/243/243 245/245/245
f 246/246/246 245/245/245 243/243/243
f 246/246/246 247/247/247 245/245/245
f 247/247/247 246/246/246 248/248/248
f 247/247/247 248/248/248 249/249/249
f 250/250/250 249/249/249 248/248/248
f 249/249/249 250/250/250 251/251/251
f 252/252/252 249/249/249 251/251/251
f 252/252/252 251/251/251 253/253/253
f 253/253/253 251/251/251 254/254/254
f 254/254/254 255/255/255 253/253/253
f 256/256/256 253/253/253 255/255/255
f 256/256/256 257/257/257 253/253/253
