mtllib SM_Path_LOD3@000002909DC3A400.mtl
g SM_Path_LOD3@000002909DC3A400
#Vertices 16
#Indices 75
#Section 0 Offset 0 NumIndices 75 MaterialIndex 0 MI_FloorTile_A_01
v 5.993442 -0.082034 -28.330585 0.000000 1.000000 0.000000 1.000000
v 4.404490 0.313413 -24.670401 0.000000 1.000000 0.000000 1.000000
v -6.009461 0.005979 -28.340042 0.000000 1.000000 0.000000 1.000000
v 4.628194 0.264686 -18.781439 0.000000 1.000000 0.000000 1.000000
v -0.369087 0.577690 -24.855335 0.000000 1.000000 0.000000 1.000000
v -4.759776 0.262957 -20.986591 0.000000 1.000000 0.000000 1.000000
v -6.002683 -0.049584 -1.039541 0.000000 1.000000 0.000000 1.000000
v 6.007142 -0.000212 -9.652676 0.000000 1.000000 0.000000 1.000000
v -4.063807 0.505954 -15.380357 0.000000 1.000000 0.000000 1.000000
v 4.203383 0.428459 -15.227452 0.000000 1.000000 0.000000 1.000000
v -4.783237 0.321229 -10.739302 0.000000 1.000000 0.000000 1.000000
v 4.539647 0.324168 -11.860147 0.000000 1.000000 0.000000 1.000000
v 4.488780 0.544599 -9.226861 0.000000 1.000000 0.000000 1.000000
v 4.471417 0.292195 -4.804548 0.000000 1.000000 0.000000 1.000000
v 5.993046 -0.091970 -1.038993 0.000000 1.000000 0.000000 1.000000
v -3.575959 0.378656 -3.628700 0.000000 1.000000 0.000000 1.000000
vt 1.102539 -1.582031
vt 0.938965 -1.017578
vt -0.103516 -1.583984
vt 0.962402 -0.115234
vt 0.462402 -1.041016
vt 0.023376 -0.451172
vt -0.112061 2.608398
vt 1.126953 1.284912
vt 0.098022 0.406738
vt 0.918457 0.429688
vt 0.025467 1.118164
vt 0.955566 0.945709
vt 0.947754 1.349854
vt 0.946289 2.027344
vt 1.099609 2.610352
vt 0.145386 2.206055
vt1 0.971680 0.009277
vt1 0.844238 0.141602
vt1 0.032410 0.008789
vt1 0.862305 0.353027
vt1 0.473145 0.135742
vt1 0.131226 0.273926
vt1 0.025726 0.991119
vt1 0.990723 0.680908
vt1 0.189331 0.475098
vt1 0.828125 0.480469
vt1 0.132812 0.641846
vt1 0.857422 0.601562
vt1 0.851074 0.696289
vt1 0.850098 0.854980
vt1 0.969727 0.991600
vt1 0.226196 0.896790
vn 0.125984 0.992126 -0.047244
vn 0.078740 1.000000 -0.023622
vn -0.110236 0.984252 -0.125984
vn 0.086614 0.992126 -0.000000
vn 0.015748 1.000000 -0.055118
vn -0.125984 0.992126 0.007874
vn -0.228346 0.968504 0.078740
vn 0.314961 0.944882 -0.000000
vn -0.015748 1.000000 -0.007874
vn 0.031496 1.000000 -0.007874
vn -0.039370 1.000000 -0.000000
vn 0.070866 1.000000 -0.007874
vn 0.039370 1.000000 -0.000000
vn 0.047244 1.000000 0.039370
vn 0.078740 0.992126 0.102362
vn -0.047244 1.000000 0.055118
tan 0.007812 -0.048236 -0.992126 1.000000
tan 0.000000 -0.023622 -1.000000 1.000000
tan -0.015500 -0.127720 -0.984252 1.000000
tan 0.000000 -0.000000 -0.992126 1.000000
tan 0.000000 -0.055118 -1.000000 1.000000
tan 0.000000 0.007874 -0.992126 1.000000
tan 0.015252 0.082336 -0.968504 1.000000
tan 0.000000 -0.000000 -0.944882 1.000000
tan 0.000000 -0.007874 -1.000000 1.000000
tan 0.000000 -0.007874 -1.000000 1.000000
tan 0.000000 -0.000000 -1.000000 1.000000
tan 0.000000 -0.007874 -1.000000 1.000000
tan 0.000000 -0.000000 -1.000000 1.000000
tan -0.007874 0.039742 -1.000000 1.000000
tan -0.007812 0.102982 -0.992126 1.000000
tan 0.000000 0.055118 -1.000000 1.000000
f 3/3/3 2/2/2 1/1/1
f 4/4/4 1/1/1 2/2/2
f 5/5/5 2/2/2 3/3/3
f 2/2/2 5/5/5 4/4/4
f 3/3/3 6/6/6 5/5/5
f 6/6/6 4/4/4 5/5/5
f 7/7/7 6/6/6 3/3/3
f 1/1/1 4/4/4 8/8/8
f 4/4/4 6/6/6 9/9/9
f 7/7/7 9/9/9 6/6/6
f 9/9/9 10/10/10 4/4/4
f 10/10/10 8/8/8 4/4/4
f 7/7/7 11/11/11 9/9/9
f 10/10/10 9/9/9 11/11/11
f 12/12/12 8/8/8 10/10/10
f 11/11/11 12/12/12 10/10/10
f 13/13/13 8/8/8 12/12/12
f 11/11/11 13/13/13 12/12/12
f 14/14/14 8/8/8 13/13/13
f 11/11/11 14/14/14 13/13/13
f 14/14/14 15/15/15 8/8/8
f 7/7/7 16/16/16 11/11/11
f 7/7/7 15/15/15 16/16/16
f 16/16/16 14/14/14 11/11/11
f 14/14/14 16/16/16 15/15/15
