mtllib SM_Path@000002909DC3A400.mtl
g SM_Path@000002909DC3A400
#Vertices 121
#Indices 600
#Section 0 Offset 0 NumIndices 600 MaterialIndex 0 MI_FloorTile_A_01
v 6.000000 -0.059081 -25.604502 0.000000 1.000000 0.000000 1.000000
v 4.800000 -0.059081 -28.334503 0.000000 1.000000 0.000000 1.000000
v 6.000000 -0.059081 -28.334503 0.000000 1.000000 0.000000 1.000000
v 4.800000 0.258349 -25.604502 0.000000 1.000000 0.000000 1.000000
v 3.600000 -0.059081 -28.334503 0.000000 1.000000 0.000000 1.000000
v 6.000000 -0.059080 -22.874504 0.000000 1.000000 0.000000 1.000000
v 3.600000 0.295085 -25.604502 0.000000 1.000000 0.000000 1.000000
v 2.400000 -0.059081 -28.334503 0.000000 1.000000 0.000000 1.000000
v 4.800000 0.261375 -22.874504 0.000000 1.000000 0.000000 1.000000
v 6.000000 -0.059080 -20.144503 0.000000 1.000000 0.000000 1.000000
v 2.400000 0.297552 -25.604502 0.000000 1.000000 0.000000 1.000000
v 1.200000 -0.059081 -28.334503 0.000000 1.000000 0.000000 1.000000
v 3.600000 0.343011 -22.874504 0.000000 1.000000 0.000000 1.000000
v 4.800000 0.258350 -20.144503 0.000000 1.000000 0.000000 1.000000
v 6.000000 -0.059080 -17.414501 0.000000 1.000000 0.000000 1.000000
v 1.200000 0.311877 -25.604502 0.000000 1.000000 0.000000 1.000000
v -0.000000 -0.059081 -28.334503 0.000000 1.000000 0.000000 1.000000
v 4.800000 0.258350 -17.414501 0.000000 1.000000 0.000000 1.000000
v 6.000000 -0.056353 -14.684503 0.000000 1.000000 0.000000 1.000000
v 3.600000 0.295086 -20.144503 0.000000 1.000000 0.000000 1.000000
v 2.400000 0.420546 -22.874504 0.000000 1.000000 0.000000 1.000000
v 4.800000 0.390282 -14.684503 0.000000 1.000000 0.000000 1.000000
v 6.000000 -0.056392 -11.954504 0.000000 1.000000 0.000000 1.000000
v 3.600000 0.295086 -17.414501 0.000000 1.000000 0.000000 1.000000
v 2.400000 0.297553 -20.144503 0.000000 1.000000 0.000000 1.000000
v 4.800000 0.273010 -11.954504 0.000000 1.000000 0.000000 1.000000
v 6.000000 0.077596 -9.224504 0.000000 1.000000 0.000000 1.000000
v 3.600000 0.550835 -14.684503 0.000000 1.000000 0.000000 1.000000
v 4.800000 0.474323 -9.224504 0.000000 1.000000 0.000000 1.000000
v 6.000000 -0.058299 -6.494504 0.000000 1.000000 0.000000 1.000000
v 3.600000 0.316213 -11.954504 0.000000 1.000000 0.000000 1.000000
v 2.400000 0.296308 -17.414501 0.000000 1.000000 0.000000 1.000000
v 2.400000 0.487758 -14.684503 0.000000 1.000000 0.000000 1.000000
v 3.600000 0.540025 -9.224504 0.000000 1.000000 0.000000 1.000000
v 4.800000 0.270261 -6.494504 0.000000 1.000000 0.000000 1.000000
v 6.000000 -0.086933 -3.764504 0.000000 1.000000 0.000000 1.000000
v 2.400000 0.310968 -11.954504 0.000000 1.000000 0.000000 1.000000
v 4.800000 0.226463 -3.764504 0.000000 1.000000 0.000000 1.000000
v 6.000000 -0.060985 -1.034505 0.000000 1.000000 0.000000 1.000000
v 4.800000 -0.061828 -1.034505 0.000000 1.000000 0.000000 1.000000
v 3.600000 0.314306 -6.494504 0.000000 1.000000 0.000000 1.000000
v 3.600000 0.268779 -3.764504 0.000000 1.000000 0.000000 1.000000
v 3.600000 -0.060985 -1.034505 0.000000 1.000000 0.000000 1.000000
v 2.400000 0.510179 -9.224504 0.000000 1.000000 0.000000 1.000000
v 2.400000 0.309397 -6.494504 0.000000 1.000000 0.000000 1.000000
v 2.400000 0.301786 -3.764504 0.000000 1.000000 0.000000 1.000000
v 2.400000 -0.059428 -1.034505 0.000000 1.000000 0.000000 1.000000
v 1.200000 0.474501 -9.224504 0.000000 1.000000 0.000000 1.000000
v 1.200000 0.352411 -3.764504 0.000000 1.000000 0.000000 1.000000
v 1.200000 -0.057817 -1.034505 0.000000 1.000000 0.000000 1.000000
v 1.200000 0.299035 -6.494504 0.000000 1.000000 0.000000 1.000000
v -0.000000 0.395014 -3.764504 0.000000 1.000000 0.000000 1.000000
v -0.000000 -0.052203 -1.034505 0.000000 1.000000 0.000000 1.000000
v -0.000000 0.301963 -6.494504 0.000000 1.000000 0.000000 1.000000
v -0.000000 0.431608 -9.224504 0.000000 1.000000 0.000000 1.000000
v -1.200000 0.409966 -3.764504 0.000000 1.000000 0.000000 1.000000
v -1.200000 -0.049170 -1.034505 0.000000 1.000000 0.000000 1.000000
v -1.200000 0.305471 -6.494504 0.000000 1.000000 0.000000 1.000000
v -1.200000 0.364790 -9.224504 0.000000 1.000000 0.000000 1.000000
v -2.400000 0.395434 -3.764504 0.000000 1.000000 0.000000 1.000000
v -2.400000 -0.052203 -1.034505 0.000000 1.000000 0.000000 1.000000
v -2.400000 0.304552 -6.494504 0.000000 1.000000 0.000000 1.000000
v -2.400000 0.334070 -9.224504 0.000000 1.000000 0.000000 1.000000
v -3.600000 0.359190 -3.764504 0.000000 1.000000 0.000000 1.000000
v -3.600000 -0.057817 -1.034505 0.000000 1.000000 0.000000 1.000000
v -3.600000 0.300080 -6.494504 0.000000 1.000000 0.000000 1.000000
v -3.600000 0.355355 -9.224504 0.000000 1.000000 0.000000 1.000000
v -4.800000 0.282838 -3.764504 0.000000 1.000000 0.000000 1.000000
v -4.800000 -0.059078 -1.034505 0.000000 1.000000 0.000000 1.000000
v -6.000000 -0.057532 -3.764504 0.000000 1.000000 0.000000 1.000000
v -6.000000 -0.059078 -1.034505 0.000000 1.000000 0.000000 1.000000
v -6.000000 -0.058604 -6.494504 0.000000 1.000000 0.000000 1.000000
v -4.800000 0.260941 -6.494504 0.000000 1.000000 0.000000 1.000000
v -6.000000 -0.023258 -9.224504 0.000000 1.000000 0.000000 1.000000
v -4.800000 0.529930 -9.224504 0.000000 1.000000 0.000000 1.000000
v -6.000000 -0.058604 -11.954504 0.000000 1.000000 0.000000 1.000000
v -4.800000 0.260940 -11.954504 0.000000 1.000000 0.000000 1.000000
v -6.000000 -0.057618 -14.684503 0.000000 1.000000 0.000000 1.000000
v -3.600000 0.298818 -11.954504 0.000000 1.000000 0.000000 1.000000
v -4.800000 0.284846 -14.684503 0.000000 1.000000 0.000000 1.000000
v -6.000000 0.015221 -17.414501 0.000000 1.000000 0.000000 1.000000
v -2.400000 0.298898 -11.954504 0.000000 1.000000 0.000000 1.000000
v -3.600000 0.566029 -14.684503 0.000000 1.000000 0.000000 1.000000
v -4.800000 0.375265 -17.414501 0.000000 1.000000 0.000000 1.000000
v -6.000000 -0.057619 -20.144503 0.000000 1.000000 0.000000 1.000000
v -1.200000 0.302225 -11.954504 0.000000 1.000000 0.000000 1.000000
v -4.800000 0.266319 -20.144503 0.000000 1.000000 0.000000 1.000000
v -6.000000 -0.059080 -22.874504 0.000000 1.000000 0.000000 1.000000
v -3.600000 0.428242 -17.414501 0.000000 1.000000 0.000000 1.000000
v -2.400000 0.382354 -14.684503 0.000000 1.000000 0.000000 1.000000
v -4.800000 0.261375 -22.874504 0.000000 1.000000 0.000000 1.000000
v -6.000000 -0.059081 -25.604502 0.000000 1.000000 0.000000 1.000000
v -3.600000 0.306571 -20.144503 0.000000 1.000000 0.000000 1.000000
v -2.400000 0.412619 -17.414501 0.000000 1.000000 0.000000 1.000000
v -4.800000 0.258349 -25.604502 0.000000 1.000000 0.000000 1.000000
v -6.000000 -0.059081 -28.334503 0.000000 1.000000 0.000000 1.000000
v -4.800000 -0.059081 -28.334503 0.000000 1.000000 0.000000 1.000000
v -3.600000 0.343011 -22.874504 0.000000 1.000000 0.000000 1.000000
v -3.600000 0.298421 -25.604502 0.000000 1.000000 0.000000 1.000000
v -3.600000 -0.059081 -28.334503 0.000000 1.000000 0.000000 1.000000
v -2.400000 0.305522 -20.144503 0.000000 1.000000 0.000000 1.000000
v -2.400000 0.420546 -22.874504 0.000000 1.000000 0.000000 1.000000
v -2.400000 0.415756 -25.604502 0.000000 1.000000 0.000000 1.000000
v -2.400000 -0.059081 -28.334503 0.000000 1.000000 0.000000 1.000000
v -1.200000 0.310003 -20.144503 0.000000 1.000000 0.000000 1.000000
v -1.200000 0.518492 -25.604502 0.000000 1.000000 0.000000 1.000000
v -1.200000 -0.059081 -28.334503 0.000000 1.000000 0.000000 1.000000
v -1.200000 0.491483 -22.874504 0.000000 1.000000 0.000000 1.000000
v -0.000000 0.432681 -25.604502 0.000000 1.000000 0.000000 1.000000
v -0.000000 0.519926 -22.874504 0.000000 1.000000 0.000000 1.000000
v 1.200000 0.491483 -22.874504 0.000000 1.000000 0.000000 1.000000
v 1.200000 0.308542 -20.144503 0.000000 1.000000 0.000000 1.000000
v -0.000000 0.314478 -20.144503 0.000000 1.000000 0.000000 1.000000
v 1.200000 0.303541 -17.414501 0.000000 1.000000 0.000000 1.000000
v -0.000000 0.333069 -17.414501 0.000000 1.000000 0.000000 1.000000
v 1.200000 0.395982 -14.684503 0.000000 1.000000 0.000000 1.000000
v -1.200000 0.376050 -17.414501 0.000000 1.000000 0.000000 1.000000
v -0.000000 0.406417 -14.684503 0.000000 1.000000 0.000000 1.000000
v 1.200000 0.304437 -11.954504 0.000000 1.000000 0.000000 1.000000
v -1.200000 0.393794 -14.684503 0.000000 1.000000 0.000000 1.000000
v -0.000000 0.304689 -11.954504 0.000000 1.000000 0.000000 1.000000
vt 1.111328 -1.164062
vt 0.979980 -1.582031
vt 1.099609 -1.583984
vt 0.977051 -1.160156
vt 0.859863 -1.583984
vt 1.114258 -0.743164
vt 0.857910 -1.160156
vt 0.739746 -1.583984
vt 0.979492 -0.742188
vt 1.114258 -0.324219
vt 0.739258 -1.160156
vt 0.619629 -1.583984
vt 0.858887 -0.742188
vt 0.979004 -0.324219
vt 1.116211 0.092773
vt 0.620605 -1.160156
vt 0.499512 -1.583984
vt 0.980957 0.093750
vt 1.127930 0.511719
vt 0.859375 -0.324219
vt 0.738770 -0.741211
vt 0.980469 0.512451
vt 1.120117 0.929688
vt 0.860840 0.093750
vt 0.739746 -0.323242
vt 0.983398 0.931335
vt 1.121094 1.350586
vt 0.858398 0.512695
vt 0.978516 1.350342
vt 1.118164 1.772949
vt 0.862793 0.931213
vt 0.740723 0.094238
vt 0.739746 0.512939
vt 0.859375 1.350098
vt 0.981934 1.769531
vt 1.112305 2.192383
vt 0.742188 0.931213
vt 0.978516 2.187500
vt 1.100586 2.611328
vt 0.981934 2.609375
vt 0.861816 1.769043
vt 0.859375 2.187500
vt 0.861816 2.610352
vt 0.741211 1.350098
vt 0.741699 1.769043
vt 0.740234 2.186523
vt 0.742188 2.610352
vt 0.622070 1.350098
vt 0.620605 2.185547
vt 0.622070 2.611328
vt 0.622070 1.768555
vt 0.501465 2.185547
vt 0.501953 2.612305
vt 0.501953 1.768066
vt 0.503418 1.350098
vt 0.382812 2.184570
vt 0.381592 2.612305
vt 0.382324 1.768066
vt 0.384033 1.350098
vt 0.264160 2.184570
vt 0.261230 2.611328
vt 0.262207 1.768066
vt 0.265625 1.350098
vt 0.145264 2.185547
vt 0.141113 2.610352
vt 0.142090 1.768066
vt 0.147583 1.350098
vt 0.025681 2.186523
vt 0.020874 2.609375
vt -0.111206 2.191406
vt -0.098572 2.611328
vt -0.114319 1.770996
vt 0.021378 1.768555
vt -0.134766 1.350830
vt 0.025467 1.350342
vt -0.116455 0.931702
vt 0.019562 0.932678
vt -0.125488 0.514893
vt 0.140625 0.931946
vt 0.011360 0.513428
vt -0.116882 0.094727
vt 0.261230 0.931763
vt 0.141724 0.512451
vt 0.022278 0.095703
vt -0.115662 -0.323242
vt 0.381592 0.931641
vt 0.020172 -0.322266
vt -0.116394 -0.741211
vt 0.142212 0.096191
vt 0.265137 0.513184
vt 0.019058 -0.741211
vt -0.113892 -1.164062
vt 0.140259 -0.322266
vt 0.261719 0.095703
vt 0.020569 -1.158203
vt -0.102112 -1.583984
vt 0.017395 -1.582031
vt 0.139526 -0.740234
vt 0.139404 -1.158203
vt 0.137573 -1.582031
vt 0.260010 -0.322266
vt 0.259766 -0.740234
vt 0.260254 -1.156250
vt 0.257812 -1.583984
vt 0.380127 -0.322266
vt 0.380127 -1.154297
vt 0.378662 -1.585938
vt 0.380127 -0.741211
vt 0.499512 -1.156250
vt 0.499512 -0.741211
vt 0.618652 -0.741211
vt 0.619629 -0.323242
vt 0.500000 -0.322266
vt 0.621094 0.094238
vt 0.501465 0.094727
vt 0.620117 0.512939
vt 0.381592 0.095215
vt 0.501953 0.513184
vt 0.622070 0.931274
vt 0.383301 0.513184
vt 0.501953 0.931519
vt1 0.979004 0.106934
vt1 0.876465 0.008789
vt1 0.969238 0.008301
vt1 0.874023 0.107910
vt1 0.782715 0.008789
vt1 0.980957 0.205566
vt1 0.781250 0.107910
vt1 0.688965 0.008789
vt1 0.875977 0.206055
vt1 0.980469 0.303711
vt1 0.688477 0.107910
vt1 0.595703 0.008301
vt1 0.781738 0.206055
vt1 0.875488 0.303711
vt1 0.982422 0.401855
vt1 0.596191 0.107910
vt1 0.501953 0.008301
vt1 0.876953 0.401855
vt1 0.991699 0.500000
vt1 0.782227 0.304199
vt1 0.687988 0.206055
vt1 0.876465 0.500000
vt1 0.985352 0.597656
vt1 0.783203 0.401855
vt1 0.688965 0.304199
vt1 0.878906 0.598145
vt1 0.985840 0.696289
vt1 0.781250 0.500000
vt1 0.875000 0.696289
vt1 0.983887 0.795288
vt1 0.784668 0.598145
vt1 0.689941 0.401855
vt1 0.688965 0.500000
vt1 0.782227 0.696289
vt1 0.877930 0.794434
vt1 0.979492 0.893616
vt1 0.690918 0.598145
vt1 0.875000 0.892517
vt1 0.970703 0.991867
vt1 0.877441 0.991226
vt1 0.784180 0.794434
vt1 0.782227 0.892395
vt1 0.784180 0.991447
vt1 0.689941 0.696289
vt1 0.690430 0.794434
vt1 0.689453 0.892273
vt1 0.690918 0.991638
vt1 0.597656 0.696289
vt1 0.596191 0.892090
vt1 0.597168 0.991798
vt1 0.597168 0.794312
vt1 0.503418 0.891968
vt1 0.503906 0.991905
vt1 0.503906 0.794189
vt1 0.504883 0.696289
vt1 0.411133 0.891846
vt1 0.410156 0.991936
vt1 0.410645 0.794189
vt1 0.412109 0.696289
vt1 0.318604 0.891907
vt1 0.316406 0.991814
vt1 0.317139 0.794189
vt1 0.319824 0.696289
vt1 0.226196 0.891968
vt1 0.222900 0.991570
vt1 0.223633 0.794189
vt1 0.227905 0.696289
vt1 0.132935 0.892212
vt1 0.129272 0.991203
vt1 0.026398 0.893311
vt1 0.036224 0.991852
vt1 0.023972 0.794922
vt1 0.129639 0.794312
vt1 0.008064 0.696533
vt1 0.132812 0.696289
vt1 0.022308 0.598145
vt1 0.128174 0.598389
vt1 0.015259 0.500488
vt1 0.222534 0.598145
vt1 0.121887 0.500244
vt1 0.021973 0.402344
vt1 0.316406 0.598145
vt1 0.223389 0.500000
vt1 0.130371 0.402344
vt1 0.022964 0.304199
vt1 0.410156 0.598145
vt1 0.128662 0.304199
vt1 0.022369 0.206055
vt1 0.223755 0.402344
vt1 0.319336 0.500000
vt1 0.127808 0.206055
vt1 0.024323 0.107422
vt1 0.222290 0.304199
vt1 0.316895 0.402344
vt1 0.129028 0.108398
vt1 0.033508 0.008789
vt1 0.126587 0.009277
vt1 0.221680 0.206543
vt1 0.221680 0.108398
vt1 0.220093 0.008789
vt1 0.315674 0.304199
vt1 0.315430 0.206543
vt1 0.315674 0.108887
vt1 0.313721 0.008301
vt1 0.408936 0.304199
vt1 0.408936 0.108887
vt1 0.407959 0.008301
vt1 0.408936 0.206055
vt1 0.501953 0.108887
vt1 0.501953 0.206055
vt1 0.594727 0.206055
vt1 0.595703 0.304199
vt1 0.502441 0.304199
vt1 0.596680 0.401855
vt1 0.503418 0.402344
vt1 0.595703 0.500000
vt1 0.410156 0.402344
vt1 0.503906 0.500000
vt1 0.597168 0.598145
vt1 0.411621 0.500000
vt1 0.503906 0.598145
vn 0.196850 0.984252 -0.031496
vn 0.070866 0.992126 -0.086614
vn 0.133858 0.992126 -0.055118
vn 0.118110 0.992126 -0.047244
vn 0.007874 0.992126 -0.125984
vn 0.259843 0.968504 -0.000000
vn 0.023622 1.000000 -0.070866
vn 0.000000 0.992126 -0.133858
vn 0.157480 0.984252 -0.000000
vn 0.259843 0.968504 -0.000000
vn 0.015748 0.992126 -0.086614
vn 0.031496 0.992126 -0.141732
vn 0.039370 1.000000 -0.000000
vn 0.149606 0.992126 -0.000000
vn 0.283465 0.960630 -0.015748
vn 0.039370 0.992126 -0.102362
vn 0.039370 0.984252 -0.173228
vn 0.173228 0.984252 -0.023622
vn 0.307087 0.952756 -0.000000
vn 0.031496 1.000000 0.007874
vn 0.031496 1.000000 -0.000000
vn 0.196850 0.984252 -0.000000
vn 0.299213 0.952756 -0.015748
vn 0.023622 1.000000 -0.039370
vn 0.015748 1.000000 0.023622
vn 0.188976 0.984252 -0.015748
vn 0.291339 0.960630 -0.000000
vn 0.031496 1.000000 -0.000000
vn 0.165354 0.984252 -0.000000
vn 0.275591 0.960630 0.039370
vn 0.023622 1.000000 -0.000000
vn -0.015748 1.000000 -0.031496
vn -0.031496 1.000000 -0.000000
vn 0.015748 1.000000 -0.000000
vn 0.165354 0.984252 0.039370
vn 0.196850 0.984252 0.031496
vn -0.023622 1.000000 -0.007874
vn 0.110236 0.992126 0.047244
vn 0.125984 0.992126 0.047244
vn 0.070866 0.992126 0.078740
vn 0.023622 1.000000 0.047244
vn 0.023622 1.000000 0.062992
vn 0.015748 0.992126 0.118110
vn -0.015748 1.000000 -0.000000
vn 0.000000 1.000000 0.039370
vn 0.015748 1.000000 0.070866
vn 0.015748 0.992126 0.133858
vn -0.015748 1.000000 -0.000000
vn 0.015748 1.000000 0.062992
vn 0.023622 0.992126 0.149606
vn 0.000000 1.000000 0.023622
vn 0.015748 1.000000 0.062992
vn 0.015748 0.984252 0.157480
vn -0.007874 1.000000 0.007874
vn -0.023622 1.000000 -0.000000
vn 0.000000 1.000000 0.062992
vn 0.000000 0.984252 0.165354
vn -0.007874 1.000000 -0.007874
vn -0.023622 1.000000 -0.000000
vn -0.015748 1.000000 0.062992
vn -0.015748 0.984252 0.157480
vn -0.007874 1.000000 -0.007874
vn 0.000000 1.000000 -0.000000
vn -0.031496 1.000000 0.062992
vn -0.023622 0.992126 0.149606
vn 0.000000 1.000000 0.007874
vn 0.031496 1.000000 -0.000000
vn -0.125984 0.992126 0.047244
vn -0.086614 0.992126 0.102362
vn -0.204724 0.976378 0.031496
vn -0.141732 0.984252 0.062992
vn -0.307087 0.952756 0.023622
vn -0.157480 0.984252 0.023622
vn -0.338583 0.937008 -0.000000
vn -0.149606 0.992126 -0.000000
vn -0.307087 0.952756 -0.023622
vn -0.181102 0.984252 -0.015748
vn -0.275591 0.960630 0.015748
vn 0.000000 1.000000 0.007874
vn -0.204724 0.976378 0.015748
vn -0.275591 0.960630 -0.000000
vn 0.015748 1.000000 0.015748
vn -0.031496 1.000000 0.023622
vn -0.181102 0.984252 -0.015748
vn -0.267717 0.960630 -0.015748
vn -0.015748 1.000000 -0.000000
vn -0.157480 0.984252 -0.015748
vn -0.259843 0.968504 -0.000000
vn -0.023622 1.000000 -0.031496
vn 0.039370 1.000000 0.023622
vn -0.157480 0.984252 -0.000000
vn -0.196850 0.984252 -0.031496
vn -0.031496 1.000000 -0.015748
vn 0.031496 1.000000 -0.023622
vn -0.118110 0.992126 -0.047244
vn -0.133858 0.992126 -0.055118
vn -0.070866 0.992126 -0.086614
vn -0.055118 1.000000 0.007874
vn -0.047244 1.000000 -0.070866
vn -0.031496 0.992126 -0.133858
vn -0.007874 1.000000 -0.000000
vn -0.055118 1.000000 0.015748
vn -0.062992 0.992126 -0.086614
vn -0.047244 0.984252 -0.173228
vn 0.000000 1.000000 0.015748
vn -0.015748 0.992126 -0.094488
vn 0.000000 0.984252 -0.188976
vn -0.023622 1.000000 0.031496
vn 0.039370 0.992126 -0.102362
vn 0.023622 1.000000 0.023622
vn 0.039370 1.000000 0.007874
vn 0.015748 1.000000 0.031496
vn 0.007874 1.000000 0.031496
vn 0.000000 1.000000 -0.023622
vn 0.015748 1.000000 -0.015748
vn -0.015748 1.000000 -0.000000
vn 0.015748 1.000000 -0.015748
vn 0.007874 1.000000 0.007874
vn -0.015748 1.000000 -0.007874
vn 0.000000 1.000000 0.015748
vn -0.015748 1.000000 -0.007874
tan 0.017050 -0.035650 -1.007502 1.000000
tan 0.001674 -0.087172 -0.997148 1.000000
tan 0.016492 -0.057846 -1.001178 1.000000
tan 0.002604 -0.047802 -0.997334 1.000000
tan -0.000992 -0.125984 -0.992188 1.000000
tan 0.007626 -0.002046 -1.005518 1.000000
tan -0.001674 -0.070866 -1.000558 1.000000
tan 0.000000 -0.133858 -0.992126 1.000000
tan 0.000000 -0.000000 -0.993552 1.000000
tan 0.000000 -0.000000 -1.005518 1.000000
tan -0.001364 -0.086614 -0.992374 1.000000
tan -0.004464 -0.141732 -0.993118 1.000000
tan 0.000000 -0.000000 -1.001550 1.000000
tan 0.000000 -0.000000 -1.006696 1.000000
tan 0.003100 -0.017360 -1.003162 1.000000
tan 0.003782 -0.102672 -0.993676 1.000000
tan 0.000930 -0.173538 -0.985802 1.000000
tan -0.004092 -0.023250 -0.998760 1.000000
tan 0.007502 -0.002418 -1.002046 1.000000
tan 0.000248 0.007874 -1.000992 1.000000
tan 0.000000 -0.000000 -1.000992 1.000000
tan 0.000000 -0.000000 -1.007502 1.000000
tan 0.002790 -0.017360 -0.997272 1.000000
tan -0.000930 -0.039370 -1.000558 1.000000
tan 0.000372 0.023622 -1.000248 1.000000
tan -0.002976 -0.015500 -1.004464 1.000000
tan 0.000000 -0.000000 -1.007688 1.000000
tan 0.000000 -0.000000 -1.000992 1.000000
tan 0.000000 -0.000000 -0.996094 1.000000
tan -0.004278 0.042160 -0.998760 1.000000
tan 0.000000 -0.000000 -1.000558 1.000000
tan 0.000496 -0.031496 -1.000248 1.000000
tan 0.000000 -0.000000 -1.000992 1.000000
tan 0.000000 -0.000000 -1.000248 1.000000
tan -0.001550 0.040052 -0.994792 1.000000
tan -0.017050 0.035650 -1.007502 1.000000
tan 0.000186 -0.007874 -1.000558 1.000000
tan -0.010416 0.048608 -0.996466 1.000000
tan -0.017484 0.049848 -1.000186 1.000000
tan -0.002232 0.079298 -0.997148 1.000000
tan 0.000744 0.047244 -1.000372 1.000000
tan 0.001488 0.062992 -1.000558 1.000000
tan 0.001860 0.118110 -0.992374 1.000000
tan 0.000000 -0.000000 -1.000248 1.000000
tan 0.000000 0.039370 -1.000000 1.000000
tan 0.001116 0.070866 -1.000248 1.000000
tan 0.002108 0.133858 -0.992374 1.000000
tan 0.000000 -0.000000 -1.000248 1.000000
tan 0.000992 0.062992 -1.000248 1.000000
tan 0.003534 0.149606 -0.992684 1.000000
tan 0.000000 0.023622 -1.000000 1.000000
tan 0.000992 0.062992 -1.000248 1.000000
tan 0.002480 0.157480 -0.984500 1.000000
tan -0.000062 0.007874 -1.000062 1.000000
tan 0.000000 -0.000000 -1.000558 1.000000
tan 0.000000 0.062992 -1.000000 1.000000
tan 0.000000 0.165354 -0.984252 1.000000
tan 0.000062 -0.007874 -1.000062 1.000000
tan 0.000000 -0.000000 -1.000558 1.000000
tan -0.000992 0.062992 -1.000248 1.000000
tan -0.002480 0.157480 -0.984500 1.000000
tan 0.000062 -0.007874 -1.000062 1.000000
tan 0.000000 -0.000000 -1.000000 1.000000
tan -0.001984 0.062992 -1.000992 1.000000
tan -0.003534 0.149606 -0.992684 1.000000
tan 0.000000 0.007874 -1.000000 1.000000
tan 0.000000 -0.000000 -1.000992 1.000000
tan 0.001860 0.047864 -1.000186 1.000000
tan -0.001054 0.103044 -0.999628 1.000000
tan 0.016616 0.035588 -0.995226 1.000000
tan 0.014322 0.065844 -0.996590 1.000000
tan 0.007750 0.027342 -1.002046 1.000000
tan 0.004030 0.024490 -0.993552 1.000000
tan 0.000000 -0.000000 -0.992622 1.000000
tan 0.000000 -0.000000 -1.006696 1.000000
tan -0.000248 -0.024924 -1.002046 1.000000
tan 0.002852 -0.015500 -1.001550 1.000000
tan 0.003224 0.017298 -0.998760 1.000000
tan 0.000000 0.007874 -1.000000 1.000000
tan 0.004464 0.016988 -0.995226 1.000000
tan 0.000000 -0.000000 -0.998760 1.000000
tan 0.000248 0.015748 -1.000248 1.000000
tan -0.000744 0.023622 -1.000992 1.000000
tan 0.002852 -0.015500 -1.001550 1.000000
tan -0.003348 -0.017236 -0.994482 1.000000
tan 0.000000 -0.000000 -1.000248 1.000000
tan 0.002480 -0.015500 -0.993552 1.000000
tan 0.000000 -0.000000 -1.005518 1.000000
tan 0.000744 -0.031496 -1.000558 1.000000
tan 0.000930 0.023622 -1.001550 1.000000
tan 0.000000 -0.000000 -0.993552 1.000000
tan -0.009300 -0.034100 -1.007502 1.000000
tan 0.000496 -0.015748 -1.000992 1.000000
tan -0.000744 -0.023622 -1.000992 1.000000
tan -0.002232 -0.047802 -0.998264 1.000000
tan -0.008246 -0.056792 -1.002232 1.000000
tan -0.001674 -0.087172 -0.997148 1.000000
tan -0.000434 0.007874 -1.003038 1.000000
tan 0.003348 -0.070866 -1.002232 1.000000
tan 0.004216 -0.133858 -0.993118 1.000000
tan 0.000000 -0.000000 -1.000062 1.000000
tan -0.000868 0.015748 -1.003038 1.000000
tan -0.002356 -0.087110 -0.996094 1.000000
tan 0.008184 -0.173228 -0.986484 1.000000
tan 0.000000 0.015748 -1.000000 1.000000
tan 0.001488 -0.094488 -0.992374 1.000000
tan 0.000000 -0.188976 -0.984252 1.000000
tan -0.000744 0.031496 -1.000558 1.000000
tan 0.003782 -0.102672 -0.993676 1.000000
tan 0.000558 0.023622 -1.000558 1.000000
tan 0.000310 0.007874 -1.001550 1.000000
tan 0.000496 0.031496 -1.000248 1.000000
tan 0.000248 0.031496 -1.000062 1.000000
tan 0.000000 -0.023622 -1.000000 1.000000
tan -0.000248 -0.015748 -1.000248 1.000000
tan 0.000000 -0.000000 -1.000248 1.000000
tan -0.000248 -0.015748 -1.000248 1.000000
tan 0.000062 0.007874 -1.000062 1.000000
tan 0.000124 -0.007874 -1.000248 1.000000
tan 0.000000 0.015748 -1.000000 1.000000
tan 0.000124 -0.007874 -1.000248 1.000000
f 3/3/3 2/2/2 1/1/1
f 4/4/4 1/1/1 2/2/2
f 5/5/5 4/4/4 2/2/2
f 1/1/1 4/4/4 6/6/6
f 7/7/7 4/4/4 5/5/5
f 8/8/8 7/7/7 5/5/5
f 9/9/9 6/6/6 4/4/4
f 7/7/7 9/9/9 4/4/4
f 9/9/9 10/10/10 6/6/6
f 11/11/11 7/7/7 8/8/8
f 12/12/12 11/11/11 8/8/8
f 13/13/13 9/9/9 7/7/7
f 11/11/11 13/13/13 7/7/7
f 14/14/14 10/10/10 9/9/9
f 13/13/13 14/14/14 9/9/9
f 10/10/10 14/14/14 15/15/15
f 16/16/16 11/11/11 12/12/12
f 17/17/17 16/16/16 12/12/12
f 18/18/18 15/15/15 14/14/14
f 15/15/15 18/18/18 19/19/19
f 20/20/20 14/14/14 13/13/13
f 20/20/20 18/18/18 14/14/14
f 21/21/21 13/13/13 11/11/11
f 13/13/13 21/21/21 20/20/20
f 16/16/16 21/21/21 11/11/11
f 22/22/22 19/19/19 18/18/18
f 19/19/19 22/22/22 23/23/23
f 24/24/24 18/18/18 20/20/20
f 24/24/24 22/22/22 18/18/18
f 25/25/25 20/20/20 21/21/21
f 25/25/25 24/24/24 20/20/20
f 26/26/26 23/23/23 22/22/22
f 23/23/23 26/26/26 27/27/27
f 28/28/28 22/22/22 24/24/24
f 28/28/28 26/26/26 22/22/22
f 29/29/29 27/27/27 26/26/26
f 29/29/29 30/30/30 27/27/27
f 31/31/31 26/26/26 28/28/28
f 31/31/31 29/29/29 26/26/26
f 32/32/32 28/28/28 24/24/24
f 32/32/32 24/24/24 25/25/25
f 33/33/33 31/31/31 28/28/28
f 33/33/33 28/28/28 32/32/32
f 34/34/34 29/29/29 31/31/31
f 35/35/35 30/30/30 29/29/29
f 34/34/34 35/35/35 29/29/29
f 35/35/35 36/36/36 30/30/30
f 37/37/37 34/34/34 31/31/31
f 37/37/37 31/31/31 33/33/33
f 38/38/38 36/36/36 35/35/35
f 38/38/38 39/39/39 36/36/36
f 40/40/40 39/39/39 38/38/38
f 41/41/41 35/35/35 34/34/34
f 41/41/41 38/38/38 35/35/35
f 42/42/42 40/40/40 38/38/38
f 42/42/42 38/38/38 41/41/41
f 43/43/43 40/40/40 42/42/42
f 44/44/44 41/41/41 34/34/34
f 44/44/44 34/34/34 37/37/37
f 45/45/45 42/42/42 41/41/41
f 45/45/45 41/41/41 44/44/44
f 46/46/46 43/43/43 42/42/42
f 46/46/46 42/42/42 45/45/45
f 47/47/47 43/43/43 46/46/46
f 44/44/44 48/48/48 45/45/45
f 46/46/46 49/49/49 47/47/47
f 50/50/50 47/47/47 49/49/49
f 45/45/45 51/51/51 46/46/46
f 49/49/49 46/46/46 51/51/51
f 51/51/51 45/45/45 48/48/48
f 49/49/49 52/52/52 50/50/50
f 53/53/53 50/50/50 52/52/52
f 54/54/54 49/49/49 51/51/51
f 52/52/52 49/49/49 54/54/54
f 55/55/55 51/51/51 48/48/48
f 54/54/54 51/51/51 55/55/55
f 56/56/56 53/53/53 52/52/52
f 57/57/57 53/53/53 56/56/56
f 58/58/58 52/52/52 54/54/54
f 56/56/56 52/52/52 58/58/58
f 59/59/59 54/54/54 55/55/55
f 58/58/58 54/54/54 59/59/59
f 56/56/56 60/60/60 57/57/57
f 61/61/61 57/57/57 60/60/60
f 62/62/62 56/56/56 58/58/58
f 60/60/60 56/56/56 62/62/62
f 63/63/63 58/58/58 59/59/59
f 62/62/62 58/58/58 63/63/63
f 64/64/64 61/61/61 60/60/60
f 65/65/65 61/61/61 64/64/64
f 66/66/66 60/60/60 62/62/62
f 64/64/64 60/60/60 66/66/66
f 67/67/67 62/62/62 63/63/63
f 66/66/66 62/62/62 67/67/67
f 68/68/68 65/65/65 64/64/64
f 69/69/69 65/65/65 68/68/68
f 71/71/71 69/69/69 70/70/70
f 70/70/70 69/69/69 68/68/68
f 70/70/70 68/68/68 72/72/72
f 68/68/68 64/64/64 73/73/73
f 72/72/72 68/68/68 73/73/73
f 73/73/73 64/64/64 66/66/66
f 72/72/72 73/73/73 74/74/74
f 73/73/73 66/66/66 75/75/75
f 74/74/74 73/73/73 75/75/75
f 75/75/75 66/66/66 67/67/67
f 74/74/74 75/75/75 76/76/76
f 76/76/76 75/75/75 77/77/77
f 75/75/75 67/67/67 77/77/77
f 76/76/76 77/77/77 78/78/78
f 77/77/77 67/67/67 79/79/79
f 67/67/67 63/63/63 79/79/79
f 78/78/78 77/77/77 80/80/80
f 77/77/77 79/79/79 80/80/80
f 78/78/78 80/80/80 81/81/81
f 79/79/79 63/63/63 82/82/82
f 63/63/63 59/59/59 82/82/82
f 83/83/83 80/80/80 79/79/79
f 79/79/79 82/82/82 83/83/83
f 81/81/81 80/80/80 84/84/84
f 80/80/80 83/83/83 84/84/84
f 81/81/81 84/84/84 85/85/85
f 86/86/86 82/82/82 59/59/59
f 59/59/59 55/55/55 86/86/86
f 85/85/85 84/84/84 87/87/87
f 85/85/85 87/87/87 88/88/88
f 84/84/84 83/83/83 89/89/89
f 84/84/84 89/89/89 87/87/87
f 83/83/83 82/82/82 90/90/90
f 83/83/83 90/90/90 89/89/89
f 82/82/82 86/86/86 90/90/90
f 88/88/88 87/87/87 91/91/91
f 88/88/88 91/91/91 92/92/92
f 87/87/87 89/89/89 93/93/93
f 87/87/87 93/93/93 91/91/91
f 89/89/89 90/90/90 94/94/94
f 89/89/89 94/94/94 93/93/93
f 92/92/92 91/91/91 95/95/95
f 92/92/92 95/95/95 96/96/96
f 96/96/96 95/95/95 97/97/97
f 98/98/98 91/91/91 93/93/93
f 91/91/91 98/98/98 95/95/95
f 95/95/95 99/99/99 97/97/97
f 95/95/95 98/98/98 99/99/99
f 97/97/97 99/99/99 100/100/100
f 93/93/93 101/101/101 98/98/98
f 93/93/93 94/94/94 101/101/101
f 98/98/98 102/102/102 99/99/99
f 98/98/98 101/101/101 102/102/102
f 99/99/99 103/103/103 100/100/100
f 99/99/99 102/102/102 103/103/103
f 100/100/100 103/103/103 104/104/104
f 101/101/101 105/105/105 102/102/102
f 103/103/103 106/106/106 104/104/104
f 107/107/107 104/104/104 106/106/106
f 102/102/102 108/108/108 103/103/103
f 106/106/106 103/103/103 108/108/108
f 102/102/102 105/105/105 108/108/108
f 106/106/106 109/109/109 107/107/107
f 107/107/107 109/109/109 17/17/17
f 109/109/109 16/16/16 17/17/17
f 108/108/108 110/110/110 106/106/106
f 106/106/106 110/110/110 109/109/109
f 109/109/109 111/111/111 16/16/16
f 110/110/110 111/111/111 109/109/109
f 111/111/111 21/21/21 16/16/16
f 111/111/111 25/25/25 21/21/21
f 112/112/112 25/25/25 111/111/111
f 110/110/110 112/112/112 111/111/111
f 112/112/112 32/32/32 25/25/25
f 108/108/108 113/113/113 110/110/110
f 113/113/113 112/112/112 110/110/110
f 105/105/105 113/113/113 108/108/108
f 114/114/114 32/32/32 112/112/112
f 113/113/113 114/114/114 112/112/112
f 114/114/114 33/33/33 32/32/32
f 105/105/105 115/115/115 113/113/113
f 115/115/115 114/114/114 113/113/113
f 116/116/116 33/33/33 114/114/114
f 115/115/115 116/116/116 114/114/114
f 33/33/33 116/116/116 37/37/37
f 117/117/117 115/115/115 105/105/105
f 105/105/105 101/101/101 117/117/117
f 94/94/94 117/117/117 101/101/101
f 118/118/118 116/116/116 115/115/115
f 117/117/117 118/118/118 115/115/115
f 119/119/119 37/37/37 116/116/116
f 116/116/116 118/118/118 119/119/119
f 119/119/119 44/44/44 37/37/37
f 48/48/48 44/44/44 119/119/119
f 117/117/117 94/94/94 120/120/120
f 120/120/120 118/118/118 117/117/117
f 90/90/90 120/120/120 94/94/94
f 120/120/120 90/90/90 86/86/86
f 121/121/121 119/119/119 118/118/118
f 120/120/120 121/121/121 118/118/118
f 121/121/121 48/48/48 119/119/119
f 86/86/86 121/121/121 120/120/120
f 55/55/55 48/48/48 121/121/121
f 86/86/86 55/55/55 121/121/121
