mtllib SM_Pillar_Trim_02_LOD1.mtl
g SM_Pillar_Trim_02_LOD1
#Vertices 317
#Indices 897
#Section 0 Offset 0 NumIndices 897 MaterialIndex 0 MI_ConcreteTrim_A_01
v -0.221460 -1.454214 0.452322
v -0.000000 -1.454337 0.497885
v -0.015093 -1.499559 0.462015
v -0.321251 -1.500439 0.321238
v -0.402797 -1.454337 0.292649
v -0.427979 -1.501573 0.139059
v -0.494741 -1.453643 0.083565
v -0.448316 -1.500901 -0.088536
v -0.473517 -1.454337 -0.153855
v -0.357875 -1.454999 -0.357882
v -0.321251 -1.500439 -0.321237
v -0.088541 -1.500901 -0.448315
v -0.153855 -1.454337 -0.473516
v 0.083556 -1.453643 -0.494742
v 0.139059 -1.501573 -0.427979
v 0.350520 -1.454647 -0.366806
v 0.321251 -1.500439 -0.321237
v 0.427979 -1.501573 -0.139059
v 0.473517 -1.454337 -0.153855
v 0.496142 -1.453729 0.078581
v 0.448714 -1.500440 0.071068
v 0.364061 -1.501573 0.264506
v 0.402797 -1.454337 0.292650
v 0.225642 -1.454353 0.450944
v 0.206252 -1.500439 0.404791
v -0.015093 -1.499559 0.462015
v -0.000000 -1.454337 0.497885
v -0.000000 -1.001721 0.632151
v -0.195345 -1.001721 0.601211
v -0.000000 -0.954591 0.680136
v -0.308703 -0.954549 0.615353
v -0.371569 -1.001721 0.511421
v -0.511421 -1.001721 0.371569
v -0.550242 -0.954591 0.399774
v -0.646848 -0.954591 0.210174
v -0.601211 -1.001721 0.195345
v -0.677327 -0.953593 -0.106528
v -0.632151 -1.001721 0.000000
v -0.601211 -1.001721 -0.195345
v -0.491861 -0.954675 -0.491839
v -0.511421 -1.001721 -0.371569
v -0.371569 -1.001722 -0.511420
v -0.195345 -1.001722 -0.601211
v -0.106535 -0.953593 -0.677325
v -0.000000 -1.001722 -0.632151
v 0.195345 -1.001722 -0.601211
v 0.290867 -0.954024 -0.625742
v 0.371569 -1.001722 -0.511420
v 0.511421 -1.001721 -0.371569
v 0.550242 -0.954591 -0.399774
v 0.677101 -0.953593 -0.107955
v 0.601211 -1.001721 -0.195345
v 0.632151 -1.001721 0.000000
v 0.619301 -0.954571 0.316648
v 0.601211 -1.001721 0.195345
v 0.511421 -1.001721 0.371569
v 0.371569 -1.001721 0.511421
v 0.307288 -0.954506 0.615943
v 0.195345 -1.001721 0.601211
v -0.000000 -1.001721 0.632151
v -0.000000 -0.954591 0.680136
v -0.000000 -0.500585 0.835870
v -0.258298 -0.500585 0.794960
v -0.000000 -0.453053 0.883447
v -0.273000 -0.453053 0.840208
v -0.491312 -0.500585 0.676233
v -0.519277 -0.453053 0.714724
v -0.676233 -0.500585 0.491312
v -0.714724 -0.453053 0.519278
v -0.794960 -0.500585 0.258298
v -0.840208 -0.453053 0.273000
v -0.883447 -0.453053 0.000000
v -0.835870 -0.500585 0.000000
v -0.840208 -0.453053 -0.273000
v -0.794960 -0.500585 -0.258298
v -0.714724 -0.453053 -0.519277
v -0.676233 -0.500585 -0.491312
v -0.519277 -0.453053 -0.714724
v -0.491312 -0.500585 -0.676233
v -0.258298 -0.500585 -0.794959
v -0.273000 -0.453053 -0.840208
v -0.000000 -0.453053 -0.883447
v -0.000000 -0.500585 -0.835870
v 0.258298 -0.500585 -0.794959
v 0.273000 -0.453053 -0.840208
v 0.491312 -0.500585 -0.676233
v 0.519277 -0.453053 -0.714724
v 0.714724 -0.453053 -0.519277
v 0.676233 -0.500585 -0.491312
v 0.794960 -0.500585 -0.258298
v 0.840208 -0.453053 -0.273000
v 0.883447 -0.453053 0.000000
v 0.835870 -0.500585 0.000000
v 0.840209 -0.453053 0.273000
v 0.794960 -0.500585 0.258298
v 0.676233 -0.500585 0.491312
v 0.714724 -0.453053 0.519278
v 0.519278 -0.453053 0.714724
v 0.491312 -0.500585 0.676233
v 0.273000 -0.453053 0.840209
v 0.258298 -0.500585 0.794960
v -0.000000 -0.453053 0.883447
v -0.000000 -0.500585 0.835870
v -0.000000 -0.453053 0.883447
v -0.272200 0.000000 0.837746
v -0.000000 0.000000 0.880858
v -0.273000 -0.453053 0.840208
v -0.517755 0.000000 0.712629
v -0.519277 -0.453053 0.714724
v -0.712629 0.000000 0.517756
v -0.714724 -0.453053 0.519278
v -0.840208 -0.453053 0.273000
v -0.837746 0.000000 0.272200
v -0.883447 -0.453053 0.000000
v -0.880859 -0.000000 -0.000000
v -0.837746 -0.000000 -0.272200
v -0.840208 -0.453053 -0.273000
v -0.712629 -0.000000 -0.517756
v -0.714724 -0.453053 -0.519277
v -0.519277 -0.453053 -0.714724
v -0.517755 -0.000000 -0.712629
v -0.273000 -0.453053 -0.840208
v -0.272200 -0.000000 -0.837746
v -0.000000 -0.453053 -0.883447
v 0.000000 -0.000000 -0.880858
v 0.272200 -0.000000 -0.837746
v 0.273000 -0.453053 -0.840208
v 0.517755 -0.000000 -0.712629
v 0.519277 -0.453053 -0.714724
v 0.714724 -0.453053 -0.519277
v 0.712629 -0.000000 -0.517756
v 0.840208 -0.453053 -0.273000
v 0.837746 -0.000000 -0.272200
v 0.883447 -0.453053 0.000000
v 0.880859 -0.000000 -0.000000
v 0.837746 0.000000 0.272200
v 0.840209 -0.453053 0.273000
v 0.712630 0.000000 0.517756
v 0.714724 -0.453053 0.519278
v 0.517756 0.000000 0.712629
v 0.519278 -0.453053 0.714724
v 0.273000 -0.453053 0.840209
v 0.272200 0.000000 0.837746
v -0.000000 -0.453053 0.883447
v -0.000000 0.000000 0.880858
v -0.000000 -1.001572 0.498425
v 0.225642 -1.454353 0.450944
v -0.000000 -1.454337 0.497885
v 0.247580 -1.001673 0.442699
v 0.402797 -1.454337 0.292650
v 0.447776 -1.001221 0.228302
v 0.496142 -1.453729 0.078581
v 0.503062 -1.001840 -0.081460
v 0.473517 -1.454337 -0.153855
v 0.350520 -1.454647 -0.366806
v 0.356858 -1.001502 -0.356855
v 0.154022 -1.001572 -0.474030
v 0.083556 -1.453643 -0.494742
v -0.098168 -1.001747 -0.497121
v -0.153855 -1.454337 -0.473516
v -0.357875 -1.454999 -0.357882
v -0.356859 -1.001502 -0.356854
v -0.497062 -1.001767 -0.098339
v -0.473517 -1.454337 -0.153855
v -0.494741 -1.453643 0.083565
v -0.474030 -1.001572 0.154022
v -0.402797 -1.454337 0.292649
v -0.355432 -1.001163 0.355467
v -0.221460 -1.454214 0.452322
v -0.154022 -1.001572 0.474030
v -0.000000 -1.001572 0.498425
v -0.000000 -1.454337 0.497885
v -0.154022 -1.001572 0.474030
v -0.000000 -1.001721 0.632151
v -0.000000 -1.001572 0.498425
v -0.195345 -1.001721 0.601211
v -0.355432 -1.001163 0.355467
v -0.371569 -1.001721 0.511421
v -0.511421 -1.001721 0.371569
v -0.474030 -1.001572 0.154022
v -0.601211 -1.001721 0.195345
v -0.632151 -1.001721 0.000000
v -0.497062 -1.001767 -0.098339
v -0.601211 -1.001721 -0.195345
v -0.511421 -1.001721 -0.371569
v -0.356859 -1.001502 -0.356854
v -0.371569 -1.001722 -0.511420
v -0.195345 -1.001722 -0.601211
v -0.098168 -1.001747 -0.497121
v -0.000000 -1.001722 -0.632151
v 0.154022 -1.001572 -0.474030
v 0.195345 -1.001722 -0.601211
v 0.356858 -1.001502 -0.356855
v 0.371569 -1.001722 -0.511420
v 0.511421 -1.001721 -0.371569
v 0.503062 -1.001840 -0.081460
v 0.601211 -1.001721 -0.195345
v 0.632151 -1.001721 0.000000
v 0.601211 -1.001721 0.195345
v 0.447776 -1.001221 0.228302
v 0.511421 -1.001721 0.371569
v 0.247580 -1.001673 0.442699
v 0.371569 -1.001721 0.511421
v 0.195345 -1.001721 0.601211
v -0.000000 -1.001572 0.498425
v -0.000000 -1.001721 0.632151
v -0.000000 -0.500585 0.835870
v 0.210807 -0.501463 0.648797
v -0.000000 -0.501463 0.682185
v 0.258298 -0.500585 0.794960
v 0.400979 -0.501463 0.551900
v 0.491312 -0.500585 0.676233
v 0.551900 -0.501463 0.400979
v 0.676233 -0.500585 0.491312
v 0.794960 -0.500585 0.258298
v 0.648797 -0.501464 0.210807
v 0.682185 -0.501464 0.000000
v 0.835870 -0.500585 0.000000
v 0.648797 -0.501464 -0.210807
v 0.794960 -0.500585 -0.258298
v 0.551900 -0.501464 -0.400978
v 0.676233 -0.500585 -0.491312
v 0.400978 -0.501464 -0.551899
v 0.491312 -0.500585 -0.676233
v 0.210807 -0.501464 -0.648797
v 0.258298 -0.500585 -0.794959
v -0.000000 -0.500585 -0.835870
v -0.000000 -0.501464 -0.682185
v -0.210807 -0.501464 -0.648797
v -0.258298 -0.500585 -0.794959
v -0.491312 -0.500585 -0.676233
v -0.400979 -0.501464 -0.551899
v -0.676233 -0.500585 -0.491312
v -0.551900 -0.501464 -0.400978
v -0.648797 -0.501464 -0.210807
v -0.794960 -0.500585 -0.258298
v -0.835870 -0.500585 0.000000
v -0.682185 -0.501464 0.000000
v -0.648797 -0.501464 0.210807
v -0.794960 -0.500585 0.258298
v -0.551900 -0.501463 0.400978
v -0.676233 -0.500585 0.491312
v -0.400978 -0.501463 0.551900
v -0.491312 -0.500585 0.676233
v -0.210807 -0.501463 0.648797
v -0.258298 -0.500585 0.794960
v -0.000000 -0.500585 0.835870
v -0.000000 -0.501463 0.682185
v -0.000000 0.000000 0.880858
v -0.139058 -0.001572 0.427975
v 0.000000 -0.001572 0.450000
v -0.272200 0.000000 0.837746
v -0.517755 0.000000 0.712629
v -0.321962 -0.001560 0.321962
v -0.712629 0.000000 0.517756
v -0.427975 -0.001572 0.139058
v -0.837746 0.000000 0.272200
v -0.880859 -0.000000 -0.000000
v -0.449717 -0.001573 -0.071229
v -0.837746 -0.000000 -0.272200
v -0.712629 -0.000000 -0.517756
v -0.364058 -0.001572 -0.264503
v -0.194218 -0.001578 -0.414007
v -0.517755 -0.000000 -0.712629
v -0.272200 -0.000000 -0.837746
v 0.000000 -0.000000 -0.880858
v 0.071229 -0.001573 -0.449717
v 0.272200 -0.000000 -0.837746
v 0.517755 -0.000000 -0.712629
v 0.264503 -0.001572 -0.364058
v 0.712629 -0.000000 -0.517756
v 0.414007 -0.001567 -0.194218
v 0.837746 -0.000000 -0.272200
v 0.880859 -0.000000 -0.000000
v 0.449717 -0.001573 0.071228
v 0.837746 0.000000 0.272200
v 0.712630 0.000000 0.517756
v 0.364058 -0.001572 0.264504
v 0.206713 -0.001581 0.405695
v 0.517756 0.000000 0.712629
v 0.272200 0.000000 0.837746
v -0.000000 0.000000 0.880858
v 0.000000 -0.001572 0.450000
v -0.308703 -0.954549 0.615353
v -0.000000 -0.501463 0.682185
v -0.000000 -0.954591 0.680136
v -0.210807 -0.501463 0.648797
v -0.400978 -0.501463 0.551900
v -0.550242 -0.954591 0.399774
v -0.551900 -0.501463 0.400978
v -0.648797 -0.501464 0.210807
v -0.646848 -0.954591 0.210174
v -0.682185 -0.501464 0.000000
v -0.677327 -0.953593 -0.106528
v -0.648797 -0.501464 -0.210807
v -0.491861 -0.954675 -0.491839
v -0.551900 -0.501464 -0.400978
v -0.400979 -0.501464 -0.551899
v -0.210807 -0.501464 -0.648797
v -0.106535 -0.953593 -0.677325
v -0.000000 -0.501464 -0.682185
v 0.290867 -0.954024 -0.625742
v 0.210807 -0.501464 -0.648797
v 0.400978 -0.501464 -0.551899
v 0.550242 -0.954591 -0.399774
v 0.551900 -0.501464 -0.400978
v 0.648797 -0.501464 -0.210807
v 0.677101 -0.953593 -0.107955
v 0.682185 -0.501464 0.000000
v 0.619301 -0.954571 0.316648
v 0.648797 -0.501464 0.210807
v 0.551900 -0.501463 0.400979
v 0.400979 -0.501463 0.551900
v 0.307288 -0.954506 0.615943
v 0.210807 -0.501463 0.648797
v -0.000000 -0.501463 0.682185
v -0.000000 -0.954591 0.680136
vt 0.367676 0.375488
vt 0.330078 0.375488
vt 0.332520 0.358887
vt 0.397217 0.359863
vt 0.410400 0.375488
vt 0.436523 0.359375
vt 0.447998 0.375488
vt 0.477295 0.359375
vt 0.486084 0.375488
vt 0.521484 0.374512
vt 0.520996 0.359863
vt 0.564453 0.359375
vt 0.556152 0.375488
vt 0.592285 0.375488
vt 0.602539 0.359375
vt 0.635742 0.375000
vt 0.637695 0.359863
vt 0.672852 0.359375
vt 0.672852 0.375488
vt 0.709473 0.374512
vt 0.709473 0.359863
vt 0.749023 0.359375
vt 0.749023 0.375488
vt 0.791504 0.375000
vt 0.790527 0.359863
vt 0.837891 0.361328
vt 0.834473 0.375488
vt 0.330078 0.740234
vt 0.355713 0.740234
vt 0.330078 0.750977
vt 0.368652 0.750854
vt 0.383301 0.740234
vt 0.410400 0.740234
vt 0.410400 0.750977
vt 0.436523 0.750977
vt 0.436523 0.740234
vt 0.474121 0.750732
vt 0.461670 0.740234
vt 0.486084 0.740234
vt 0.521484 0.751099
vt 0.509766 0.740234
vt 0.532715 0.740234
vt 0.556152 0.740234
vt 0.567383 0.750732
vt 0.579590 0.740234
vt 0.602539 0.740234
vt 0.611328 0.750854
vt 0.625977 0.740234
vt 0.649414 0.740234
vt 0.649414 0.750977
vt 0.684570 0.750732
vt 0.672852 0.740234
vt 0.697266 0.740234
vt 0.735840 0.751099
vt 0.722656 0.740234
vt 0.749023 0.740234
vt 0.776855 0.740234
vt 0.791504 0.750977
vt 0.805176 0.740234
vt 0.834473 0.740234
vt 0.834473 0.750977
vt -0.301758 0.624512
vt -0.276123 0.624512
vt -0.301758 0.638428
vt -0.276123 0.638428
vt -0.248535 0.624512
vt -0.248535 0.638428
vt -0.221436 0.624512
vt -0.221436 0.638428
vt -0.195312 0.624512
vt -0.195312 0.638428
vt -0.170166 0.638428
vt -0.170166 0.624512
vt -0.145874 0.638428
vt -0.145874 0.624512
vt -0.122192 0.638428
vt -0.122192 0.624512
vt -0.098816 0.638428
vt -0.098816 0.624512
vt -0.075745 0.624512
vt -0.075745 0.638428
vt -0.052277 0.638428
vt -0.052277 0.624512
vt -0.029037 0.624512
vt -0.029037 0.638428
vt -0.005833 0.624512
vt -0.005833 0.638428
vt 0.017380 0.638428
vt 0.017380 0.624512
vt 0.040894 0.624512
vt 0.040894 0.638428
vt 0.065369 0.638428
vt 0.065369 0.624512
vt 0.090820 0.638428
vt 0.090820 0.624512
vt 0.117432 0.624512
vt 0.117432 0.638428
vt 0.145020 0.638428
vt 0.145020 0.624512
vt 0.173340 0.638428
vt 0.173340 0.624512
vt 0.202393 0.638428
vt 0.202393 0.624512
vt -0.301758 0.638428
vt -0.276123 0.687988
vt -0.301758 0.687988
vt -0.276123 0.638428
vt -0.248535 0.687988
vt -0.248535 0.638428
vt -0.221436 0.687988
vt -0.221436 0.638428
vt -0.195312 0.638428
vt -0.195312 0.687988
vt -0.170166 0.638428
vt -0.170166 0.687988
vt -0.145874 0.687988
vt -0.145874 0.638428
vt -0.122192 0.687988
vt -0.122192 0.638428
vt -0.098816 0.638428
vt -0.098816 0.687988
vt -0.075745 0.638428
vt -0.075745 0.687988
vt -0.052277 0.638428
vt -0.052277 0.687988
vt -0.029037 0.687988
vt -0.029037 0.638428
vt -0.005833 0.687988
vt -0.005833 0.638428
vt 0.017380 0.638428
vt 0.017380 0.687988
vt 0.040894 0.638428
vt 0.040894 0.687988
vt 0.065369 0.638428
vt 0.065369 0.687988
vt 0.090820 0.687988
vt 0.090820 0.638428
vt 0.117432 0.687988
vt 0.117432 0.638428
vt 0.145020 0.687988
vt 0.145020 0.638428
vt 0.173340 0.638428
vt 0.173340 0.687988
vt 0.202393 0.638428
vt 0.202393 0.687988
vt 0.834473 0.450684
vt 0.791504 0.375488
vt 0.834473 0.375488
vt 0.787598 0.450684
vt 0.749023 0.375488
vt 0.735840 0.450684
vt 0.709961 0.375488
vt 0.684570 0.450684
vt 0.672852 0.375488
vt 0.635742 0.375488
vt 0.637695 0.450684
vt 0.602539 0.450684
vt 0.591797 0.375488
vt 0.564941 0.450684
vt 0.556152 0.375488
vt 0.521484 0.375488
vt 0.521484 0.450684
vt 0.477051 0.450684
vt 0.486084 0.375488
vt 0.448486 0.375488
vt 0.436523 0.450684
vt 0.410400 0.375488
vt 0.396973 0.450684
vt 0.367920 0.375488
vt 0.355713 0.450684
vt 0.330078 0.450684
vt 0.330078 0.375488
vt 0.355713 0.720703
vt 0.330078 0.740234
vt 0.330078 0.720703
vt 0.355713 0.740234
vt 0.396973 0.720459
vt 0.383301 0.740234
vt 0.410400 0.740234
vt 0.436523 0.720703
vt 0.436523 0.740234
vt 0.461670 0.740234
vt 0.477783 0.720947
vt 0.486084 0.740234
vt 0.509766 0.740234
vt 0.521484 0.720703
vt 0.532715 0.740234
vt 0.556152 0.740234
vt 0.564453 0.721191
vt 0.579590 0.740234
vt 0.602539 0.720703
vt 0.602539 0.740234
vt 0.637695 0.720703
vt 0.625977 0.740234
vt 0.649414 0.740234
vt 0.684082 0.720947
vt 0.672852 0.740234
vt 0.697266 0.740234
vt 0.722656 0.740234
vt 0.736328 0.720947
vt 0.749023 0.740234
vt 0.786621 0.721191
vt 0.776855 0.740234
vt 0.805176 0.740234
vt 0.834473 0.720703
vt 0.834473 0.740234
vt 0.202393 0.624512
vt 0.173340 0.596680
vt 0.202393 0.596680
vt 0.173340 0.624512
vt 0.145020 0.596680
vt 0.145020 0.624512
vt 0.117432 0.596680
vt 0.117432 0.624512
vt 0.090820 0.624512
vt 0.090820 0.596680
vt 0.065369 0.596680
vt 0.065369 0.624512
vt 0.040894 0.596680
vt 0.040894 0.624512
vt 0.017380 0.596680
vt 0.017380 0.624512
vt -0.005833 0.596680
vt -0.005833 0.624512
vt -0.029037 0.596680
vt -0.029037 0.624512
vt -0.052277 0.624512
vt -0.052277 0.596680
vt -0.075745 0.596680
vt -0.075745 0.624512
vt -0.098816 0.624512
vt -0.098816 0.596680
vt -0.122192 0.624512
vt -0.122192 0.596680
vt -0.145874 0.596680
vt -0.145874 0.624512
vt -0.170166 0.624512
vt -0.170166 0.596680
vt -0.195312 0.596680
vt -0.195312 0.624512
vt -0.221436 0.596680
vt -0.221436 0.624512
vt -0.248535 0.596680
vt -0.248535 0.624512
vt -0.276123 0.596680
vt -0.276123 0.624512
vt -0.301758 0.624512
vt -0.301758 0.596680
vt -0.301758 0.687988
vt -0.276123 0.726074
vt -0.301758 0.726074
vt -0.276123 0.687988
vt -0.248535 0.687988
vt -0.237061 0.725830
vt -0.221436 0.687988
vt -0.195312 0.726074
vt -0.195312 0.687988
vt -0.170166 0.687988
vt -0.154907 0.726318
vt -0.145874 0.687988
vt -0.122192 0.687988
vt -0.122192 0.726074
vt -0.084595 0.726318
vt -0.098816 0.687988
vt -0.075745 0.687988
vt -0.052277 0.687988
vt -0.037750 0.726318
vt -0.029037 0.687988
vt -0.005833 0.687988
vt -0.005833 0.726074
vt 0.017380 0.687988
vt 0.033630 0.726074
vt 0.040894 0.687988
vt 0.065369 0.687988
vt 0.077942 0.726318
vt 0.090820 0.687988
vt 0.117432 0.687988
vt 0.117432 0.726074
vt 0.157593 0.726318
vt 0.145020 0.687988
vt 0.173340 0.687988
vt 0.202393 0.687988
vt 0.202393 0.726074
vt 0.368652 0.750977
vt 0.330078 0.786255
vt 0.330078 0.750977
vt 0.355713 0.786255
vt 0.383301 0.786255
vt 0.410400 0.750977
vt 0.410400 0.786255
vt 0.436523 0.786255
vt 0.436523 0.750977
vt 0.461670 0.786255
vt 0.473877 0.750977
vt 0.486084 0.786255
vt 0.521484 0.750977
vt 0.509766 0.786255
vt 0.532715 0.786255
vt 0.556152 0.786255
vt 0.567871 0.750977
vt 0.579590 0.786255
vt 0.611816 0.750977
vt 0.602539 0.786255
vt 0.625977 0.786255
vt 0.649414 0.750977
vt 0.649414 0.786255
vt 0.672852 0.786255
vt 0.684570 0.750977
vt 0.697266 0.786255
vt 0.735840 0.750977
vt 0.722656 0.786255
vt 0.749023 0.786255
vt 0.776855 0.786255
vt 0.791504 0.750977
vt 0.805176 0.786255
vt 0.834473 0.786255
vt 0.834473 0.750977
vt1 0.081238 0.313477
vt1 0.008064 0.312500
vt1 0.013054 0.259766
vt1 0.139160 0.262207
vt1 0.164673 0.312500
vt1 0.215698 0.260742
vt1 0.238159 0.312988
vt1 0.295166 0.261719
vt1 0.312256 0.312500
vt1 0.381348 0.310547
vt1 0.380859 0.262207
vt1 0.465576 0.261719
vt1 0.448975 0.312500
vt1 0.519531 0.312988
vt1 0.540039 0.260742
vt1 0.604492 0.311523
vt1 0.608398 0.262207
vt1 0.676758 0.260742
vt1 0.676758 0.312500
vt1 0.748535 0.310059
vt1 0.748047 0.262207
vt1 0.825684 0.260742
vt1 0.825684 0.312500
vt1 0.908203 0.310547
vt1 0.906738 0.262207
vt1 0.998535 0.266602
vt1 0.991699 0.312500
vt1 0.008064 0.084961
vt1 0.058044 0.084961
vt1 0.008064 0.119629
vt1 0.083252 0.119629
vt1 0.111938 0.084961
vt1 0.164673 0.084961
vt1 0.164673 0.119629
vt1 0.215698 0.119629
vt1 0.215698 0.084961
vt1 0.289062 0.119141
vt1 0.264648 0.084961
vt1 0.312256 0.084961
vt1 0.381592 0.120117
vt1 0.358398 0.084961
vt1 0.404053 0.084961
vt1 0.448975 0.084961
vt1 0.471680 0.119141
vt1 0.494873 0.084961
vt1 0.540039 0.084961
vt1 0.557129 0.119141
vt1 0.585449 0.084961
vt1 0.630859 0.084961
vt1 0.630859 0.119629
vt1 0.699707 0.119141
vt1 0.676758 0.084961
vt1 0.724121 0.084961
vt1 0.799805 0.120117
vt1 0.773926 0.084961
vt1 0.825684 0.084961
vt1 0.879883 0.084961
vt1 0.908203 0.119629
vt1 0.935059 0.084961
vt1 0.991699 0.084961
vt1 0.991699 0.119629
vt1 0.008064 0.662842
vt1 0.058044 0.662842
vt1 0.008064 0.707764
vt1 0.058044 0.707764
vt1 0.111938 0.662842
vt1 0.111938 0.707764
vt1 0.164673 0.662842
vt1 0.164673 0.707764
vt1 0.215698 0.662842
vt1 0.215698 0.707764
vt1 0.264648 0.707764
vt1 0.264648 0.662842
vt1 0.312256 0.707764
vt1 0.312256 0.662842
vt1 0.358398 0.707764
vt1 0.358398 0.662842
vt1 0.404053 0.707764
vt1 0.404053 0.662842
vt1 0.448975 0.662842
vt1 0.448975 0.707764
vt1 0.494873 0.707764
vt1 0.494873 0.662842
vt1 0.540039 0.662842
vt1 0.540039 0.707764
vt1 0.585449 0.662842
vt1 0.585449 0.707764
vt1 0.630859 0.707764
vt1 0.630859 0.662842
vt1 0.676758 0.662842
vt1 0.676758 0.707764
vt1 0.724121 0.707764
vt1 0.724121 0.662842
vt1 0.773926 0.707764
vt1 0.773926 0.662842
vt1 0.825684 0.662842
vt1 0.825684 0.707764
vt1 0.879883 0.707764
vt1 0.879883 0.662842
vt1 0.935059 0.707764
vt1 0.935059 0.662842
vt1 0.991699 0.707764
vt1 0.991699 0.662842
vt1 0.008064 0.707764
vt1 0.058044 0.867920
vt1 0.008064 0.867920
vt1 0.058044 0.707764
vt1 0.111938 0.867920
vt1 0.111938 0.707764
vt1 0.164673 0.867920
vt1 0.164673 0.707764
vt1 0.215698 0.707764
vt1 0.215698 0.867920
vt1 0.264648 0.707764
vt1 0.264648 0.867920
vt1 0.312256 0.867920
vt1 0.312256 0.707764
vt1 0.358398 0.867920
vt1 0.358398 0.707764
vt1 0.404053 0.707764
vt1 0.404053 0.867920
vt1 0.448975 0.707764
vt1 0.448975 0.867920
vt1 0.494873 0.707764
vt1 0.494873 0.867920
vt1 0.540039 0.867920
vt1 0.540039 0.707764
vt1 0.585449 0.867920
vt1 0.585449 0.707764
vt1 0.630859 0.707764
vt1 0.630859 0.867920
vt1 0.676758 0.707764
vt1 0.676758 0.867920
vt1 0.724121 0.707764
vt1 0.724121 0.867920
vt1 0.773926 0.867920
vt1 0.773926 0.707764
vt1 0.825684 0.867920
vt1 0.825684 0.707764
vt1 0.879883 0.867920
vt1 0.879883 0.707764
vt1 0.935059 0.707764
vt1 0.935059 0.867920
vt1 0.991699 0.707764
vt1 0.991699 0.867920
vt1 0.991699 0.556641
vt1 0.908203 0.312500
vt1 0.991699 0.312500
vt1 0.900391 0.556396
vt1 0.825684 0.312500
vt1 0.799805 0.556885
vt1 0.749023 0.312988
vt1 0.699219 0.556396
vt1 0.676758 0.312500
vt1 0.604492 0.312500
vt1 0.607910 0.556396
vt1 0.540039 0.556641
vt1 0.519043 0.312988
vt1 0.466309 0.556641
vt1 0.448975 0.312500
vt1 0.381348 0.312500
vt1 0.381348 0.556396
vt1 0.294678 0.556641
vt1 0.312256 0.312500
vt1 0.238892 0.312988
vt1 0.215698 0.556641
vt1 0.164673 0.312500
vt1 0.138672 0.556885
vt1 0.081787 0.312500
vt1 0.058044 0.556641
vt1 0.008064 0.556641
vt1 0.008064 0.312500
vt1 0.058044 0.021973
vt1 0.008064 0.084961
vt1 0.008064 0.021973
vt1 0.058044 0.084961
vt1 0.138550 0.020996
vt1 0.111938 0.084961
vt1 0.164673 0.084961
vt1 0.215698 0.021973
vt1 0.215698 0.084961
vt1 0.264648 0.084961
vt1 0.296143 0.022461
vt1 0.312256 0.084961
vt1 0.358398 0.084961
vt1 0.381348 0.021973
vt1 0.404053 0.084961
vt1 0.448975 0.084961
vt1 0.465332 0.023438
vt1 0.494873 0.084961
vt1 0.540039 0.021973
vt1 0.540039 0.084961
vt1 0.607910 0.021973
vt1 0.585449 0.084961
vt1 0.630859 0.084961
vt1 0.698730 0.021973
vt1 0.676758 0.084961
vt1 0.724121 0.084961
vt1 0.773926 0.084961
vt1 0.800781 0.022461
vt1 0.825684 0.084961
vt1 0.898438 0.022949
vt1 0.879883 0.084961
vt1 0.935059 0.084961
vt1 0.991699 0.021973
vt1 0.991699 0.084961
vt1 0.991699 0.662842
vt1 0.935059 0.572266
vt1 0.991699 0.572266
vt1 0.935059 0.662842
vt1 0.879883 0.572266
vt1 0.879883 0.662842
vt1 0.825684 0.572266
vt1 0.825684 0.662842
vt1 0.773926 0.662842
vt1 0.773926 0.572266
vt1 0.724121 0.572266
vt1 0.724121 0.662842
vt1 0.676758 0.572266
vt1 0.676758 0.662842
vt1 0.630859 0.572266
vt1 0.630859 0.662842
vt1 0.585449 0.572266
vt1 0.585449 0.662842
vt1 0.540039 0.572266
vt1 0.540039 0.662842
vt1 0.494873 0.662842
vt1 0.494873 0.572266
vt1 0.448975 0.572266
vt1 0.448975 0.662842
vt1 0.404053 0.662842
vt1 0.404053 0.572266
vt1 0.358398 0.662842
vt1 0.358398 0.572266
vt1 0.312256 0.572266
vt1 0.312256 0.662842
vt1 0.264648 0.662842
vt1 0.264648 0.572266
vt1 0.215698 0.572266
vt1 0.215698 0.662842
vt1 0.164673 0.572266
vt1 0.164673 0.662842
vt1 0.111938 0.572266
vt1 0.111938 0.662842
vt1 0.058044 0.572266
vt1 0.058044 0.662842
vt1 0.008064 0.662842
vt1 0.008064 0.572266
vt1 0.008064 0.867920
vt1 0.058044 0.991936
vt1 0.008064 0.991936
vt1 0.058044 0.867920
vt1 0.111938 0.867920
vt1 0.134277 0.990952
vt1 0.164673 0.867920
vt1 0.215698 0.991936
vt1 0.215698 0.867920
vt1 0.264648 0.867920
vt1 0.294678 0.992020
vt1 0.312256 0.867920
vt1 0.358398 0.867920
vt1 0.358398 0.991936
vt1 0.431641 0.992359
vt1 0.404053 0.867920
vt1 0.448975 0.867920
vt1 0.494873 0.867920
vt1 0.522949 0.992020
vt1 0.540039 0.867920
vt1 0.585449 0.867920
vt1 0.585449 0.991936
vt1 0.630859 0.867920
vt1 0.662598 0.991486
vt1 0.676758 0.867920
vt1 0.724121 0.867920
vt1 0.749023 0.992020
vt1 0.773926 0.867920
vt1 0.825684 0.867920
vt1 0.825684 0.991936
vt1 0.904297 0.992664
vt1 0.879883 0.867920
vt1 0.935059 0.867920
vt1 0.991699 0.867920
vt1 0.991699 0.991936
vt1 0.083374 0.119629
vt1 0.008064 0.233887
vt1 0.008064 0.119629
vt1 0.058044 0.233887
vt1 0.111938 0.233887
vt1 0.164673 0.119629
vt1 0.164673 0.233887
vt1 0.215698 0.233887
vt1 0.215698 0.119629
vt1 0.264648 0.233887
vt1 0.288574 0.119629
vt1 0.312256 0.233887
vt1 0.381348 0.119629
vt1 0.358398 0.233887
vt1 0.404053 0.233887
vt1 0.448975 0.233887
vt1 0.471924 0.119629
vt1 0.494873 0.233887
vt1 0.557617 0.119629
vt1 0.540039 0.233887
vt1 0.585449 0.233887
vt1 0.630859 0.119629
vt1 0.630859 0.233887
vt1 0.676758 0.233887
vt1 0.699707 0.119629
vt1 0.724121 0.233887
vt1 0.799316 0.119629
vt1 0.773926 0.233887
vt1 0.825684 0.233887
vt1 0.879883 0.233887
vt1 0.908691 0.119629
vt1 0.935059 0.233887
vt1 0.991699 0.233887
vt1 0.991699 0.119629
vn -0.307087 -0.708661 0.637795
vn 0.000000 -0.708661 0.700787
vn -0.031496 -0.700787 0.708661
vn -0.503937 -0.708661 0.496063
vn -0.566929 -0.708661 0.409449
vn -0.669291 -0.708661 0.220472
vn -0.692913 -0.708661 0.118110
vn -0.692913 -0.708661 -0.141732
vn -0.669291 -0.708661 -0.220472
vn -0.503937 -0.700787 -0.503937
vn -0.503937 -0.708661 -0.496063
vn -0.141732 -0.708661 -0.692913
vn -0.220472 -0.708661 -0.669291
vn 0.118110 -0.708661 -0.692913
vn 0.220472 -0.708661 -0.669291
vn 0.488189 -0.700787 -0.511811
vn 0.503937 -0.708661 -0.496063
vn 0.669291 -0.708661 -0.220472
vn 0.669291 -0.708661 -0.220472
vn 0.700787 -0.708661 0.110236
vn 0.692913 -0.708661 0.110236
vn 0.566929 -0.708661 0.409449
vn 0.566929 -0.708661 0.409449
vn 0.314961 -0.708661 0.637795
vn 0.322835 -0.708661 0.629921
vn -0.023622 -0.708661 0.708661
vn 0.000000 -0.708661 0.700787
vn 0.000000 -0.716535 0.700787
vn -0.212598 -0.716535 0.669291
vn 0.000000 -0.716535 0.700787
vn -0.314961 -0.708661 0.629921
vn -0.409449 -0.716535 0.566929
vn -0.566929 -0.716535 0.409449
vn -0.566929 -0.716535 0.409449
vn -0.669291 -0.716535 0.212598
vn -0.669291 -0.716535 0.212598
vn -0.692913 -0.708661 -0.110236
vn -0.700787 -0.716535 0.000000
vn -0.669291 -0.716535 -0.212598
vn -0.503937 -0.708661 -0.503937
vn -0.566929 -0.716535 -0.409449
vn -0.409449 -0.716535 -0.566929
vn -0.212598 -0.716535 -0.669291
vn -0.110236 -0.708661 -0.692913
vn 0.000000 -0.716535 -0.700787
vn 0.212598 -0.716535 -0.669291
vn 0.299213 -0.708661 -0.637795
vn 0.409449 -0.716535 -0.566929
vn 0.566929 -0.716535 -0.409449
vn 0.566929 -0.716535 -0.409449
vn 0.692913 -0.708661 -0.110236
vn 0.669291 -0.716535 -0.212598
vn 0.700787 -0.716535 0.000000
vn 0.629921 -0.708661 0.322835
vn 0.669291 -0.716535 0.212598
vn 0.566929 -0.716535 0.409449
vn 0.409449 -0.716535 0.566929
vn 0.314961 -0.708661 0.629921
vn 0.212598 -0.716535 0.669291
vn 0.000000 -0.716535 0.700787
vn 0.000000 -0.716535 0.700787
vn 0.000000 -0.708661 0.708661
vn -0.220472 -0.708661 0.669291
vn 0.000000 -0.708661 0.708661
vn -0.220472 -0.708661 0.669291
vn -0.417323 -0.708661 0.574803
vn -0.417323 -0.708661 0.574803
vn -0.574803 -0.708661 0.417323
vn -0.574803 -0.708661 0.417323
vn -0.669291 -0.708661 0.220472
vn -0.669291 -0.708661 0.220472
vn -0.708661 -0.708661 0.000000
vn -0.708661 -0.708661 0.000000
vn -0.669291 -0.708661 -0.220472
vn -0.669291 -0.708661 -0.220472
vn -0.574803 -0.708661 -0.417323
vn -0.574803 -0.708661 -0.417323
vn -0.417323 -0.708661 -0.574803
vn -0.417323 -0.708661 -0.574803
vn -0.220472 -0.708661 -0.669291
vn -0.220472 -0.708661 -0.669291
vn 0.000000 -0.708661 -0.708661
vn 0.000000 -0.708661 -0.708661
vn 0.220472 -0.708661 -0.669291
vn 0.220472 -0.708661 -0.669291
vn 0.417323 -0.708661 -0.574803
vn 0.417323 -0.708661 -0.574803
vn 0.574803 -0.708661 -0.417323
vn 0.574803 -0.708661 -0.417323
vn 0.669291 -0.708661 -0.220472
vn 0.669291 -0.708661 -0.220472
vn 0.708661 -0.708661 0.000000
vn 0.708661 -0.708661 0.000000
vn 0.669291 -0.708661 0.220472
vn 0.669291 -0.708661 0.220472
vn 0.574803 -0.708661 0.417323
vn 0.574803 -0.708661 0.417323
vn 0.417323 -0.708661 0.574803
vn 0.417323 -0.708661 0.574803
vn 0.220472 -0.708661 0.669291
vn 0.220472 -0.708661 0.669291
vn 0.000000 -0.708661 0.708661
vn 0.000000 -0.708661 0.708661
vn 0.000000 0.007874 1.000000
vn -0.307087 0.007874 0.952756
vn 0.000000 0.007874 1.000000
vn -0.307087 0.007874 0.952756
vn -0.590551 0.007874 0.811023
vn -0.590551 0.007874 0.811023
vn -0.811024 0.007874 0.590551
vn -0.811024 0.007874 0.590551
vn -0.952756 0.007874 0.307087
vn -0.952756 0.007874 0.307087
vn -1.000000 0.007874 -0.000000
vn -1.000000 0.007874 -0.000000
vn -0.952756 0.007874 -0.307087
vn -0.952756 0.007874 -0.307087
vn -0.811024 0.007874 -0.590551
vn -0.811024 0.007874 -0.590551
vn -0.590551 0.007874 -0.811023
vn -0.590551 0.007874 -0.811023
vn -0.307087 0.007874 -0.952756
vn -0.307087 0.007874 -0.952756
vn 0.000000 0.007874 -1.000000
vn 0.000000 0.007874 -1.000000
vn 0.307087 0.007874 -0.952756
vn 0.307087 0.007874 -0.952756
vn 0.590551 0.007874 -0.811023
vn 0.590551 0.007874 -0.811023
vn 0.811024 0.007874 -0.590551
vn 0.811024 0.007874 -0.590551
vn 0.952756 0.007874 -0.307087
vn 0.952756 0.007874 -0.307087
vn 1.000000 0.007874 -0.000000
vn 1.000000 0.007874 -0.000000
vn 0.952756 0.007874 0.307087
vn 0.952756 0.007874 0.307087
vn 0.811024 0.007874 0.590551
vn 0.811024 0.007874 0.590551
vn 0.590551 0.007874 0.811023
vn 0.590551 0.007874 0.811023
vn 0.307087 0.007874 0.952756
vn 0.307087 0.007874 0.952756
vn 0.000000 0.007874 1.000000
vn 0.000000 0.007874 1.000000
vn 0.000000 0.000000 1.000000
vn 0.448819 0.000000 0.897638
vn 0.000000 0.000000 1.000000
vn 0.488189 0.000000 0.874016
vn 0.811024 0.000000 0.590551
vn 0.889764 0.000000 0.456693
vn 0.984252 0.000000 0.157480
vn 0.984252 -0.000000 -0.165354
vn 0.952756 -0.000000 -0.307087
vn 0.692913 -0.000000 -0.724409
vn 0.708661 -0.000000 -0.708661
vn 0.307087 -0.000000 -0.952756
vn 0.165354 -0.000000 -0.984252
vn -0.196850 -0.000000 -0.984252
vn -0.307087 -0.000000 -0.952756
vn -0.708661 -0.000000 -0.708661
vn -0.708661 -0.000000 -0.708661
vn -0.984252 -0.000000 -0.196850
vn -0.952756 -0.000000 -0.307087
vn -0.984252 0.000000 0.165354
vn -0.952756 0.000000 0.307087
vn -0.811024 0.000000 0.590551
vn -0.708661 0.000000 0.708661
vn -0.440945 0.000000 0.897638
vn -0.307087 0.000000 0.952756
vn 0.000000 0.000000 1.000000
vn 0.000000 0.000000 1.000000
vn 0.000000 -1.000000 0.000000
vn 0.000000 -1.000000 0.000000
vn 0.000000 -1.000000 0.000000
vn 0.000000 -1.000000 0.000000
vn 0.000000 -1.000000 0.000000
vn 0.000000 -1.000000 0.000000
vn 0.000000 -1.000000 0.000000
vn 0.000000 -1.000000 0.000000
vn 0.000000 -1.000000 0.000000
vn 0.000000 -1.000000 0.000000
vn 0.000000 -1.000000 0.000000
vn 0.000000 -1.000000 0.000000
vn 0.000000 -1.000000 0.000000
vn 0.000000 -1.000000 0.000000
vn 0.000000 -1.000000 0.000000
vn 0.000000 -1.000000 0.000000
vn 0.000000 -1.000000 0.000000
vn 0.000000 -1.000000 0.000000
vn 0.000000 -1.000000 0.000000
vn 0.000000 -1.000000 0.000000
vn 0.000000 -1.000000 0.000000
vn 0.000000 -1.000000 0.000000
vn 0.000000 -1.000000 0.000000
vn 0.000000 -1.000000 0.000000
vn 0.000000 -1.000000 0.000000
vn 0.000000 -1.000000 0.000000
vn 0.000000 -1.000000 0.000000
vn 0.000000 -1.000000 0.000000
vn 0.000000 -1.000000 0.000000
vn 0.000000 -1.000000 0.000000
vn 0.000000 -1.000000 0.000000
vn 0.000000 -1.000000 0.000000
vn 0.000000 -1.000000 0.000000
vn 0.000000 -1.000000 0.000000
vn 0.000000 -1.000000 0.007874
vn 0.000000 -1.000000 0.007874
vn 0.000000 -1.000000 0.007874
vn 0.000000 -1.000000 0.007874
vn 0.000000 -1.000000 0.007874
vn 0.000000 -1.000000 0.007874
vn 0.007874 -1.000000 0.000000
vn 0.007874 -1.000000 0.000000
vn 0.007874 -1.000000 0.000000
vn 0.007874 -1.000000 0.000000
vn 0.007874 -1.000000 0.000000
vn 0.007874 -1.000000 0.000000
vn 0.007874 -1.000000 0.000000
vn 0.007874 -1.000000 0.000000
vn 0.007874 -1.000000 0.000000
vn 0.007874 -1.000000 0.000000
vn 0.000000 -1.000000 -0.007874
vn 0.000000 -1.000000 -0.007874
vn 0.000000 -1.000000 -0.007874
vn 0.000000 -1.000000 -0.007874
vn 0.000000 -1.000000 -0.007874
vn 0.000000 -1.000000 -0.007874
vn 0.000000 -1.000000 -0.007874
vn 0.000000 -1.000000 -0.007874
vn 0.000000 -1.000000 -0.007874
vn 0.000000 -1.000000 -0.007874
vn -0.007874 -1.000000 0.000000
vn -0.007874 -1.000000 0.000000
vn -0.007874 -1.000000 0.000000
vn -0.007874 -1.000000 0.000000
vn -0.007874 -1.000000 0.000000
vn -0.007874 -1.000000 0.000000
vn -0.007874 -1.000000 0.000000
vn -0.007874 -1.000000 0.000000
vn -0.007874 -1.000000 0.000000
vn -0.007874 -1.000000 0.000000
vn 0.000000 -1.000000 0.007874
vn 0.000000 -1.000000 0.007874
vn 0.000000 -1.000000 0.007874
vn 0.000000 -1.000000 0.007874
vn 0.000000 -1.000000 0.007874
vn 0.000000 -1.000000 0.007874
vn 0.000000 1.000000 -0.000000
vn 0.000000 1.000000 -0.000000
vn 0.000000 1.000000 -0.000000
vn 0.000000 1.000000 -0.000000
vn 0.000000 1.000000 -0.000000
vn 0.000000 1.000000 -0.000000
vn 0.000000 1.000000 -0.000000
vn 0.000000 1.000000 -0.000000
vn 0.000000 1.000000 -0.000000
vn 0.000000 1.000000 -0.000000
vn 0.000000 1.000000 -0.000000
vn 0.000000 1.000000 -0.000000
vn 0.000000 1.000000 -0.000000
vn 0.000000 1.000000 -0.000000
vn 0.000000 1.000000 -0.000000
vn 0.000000 1.000000 -0.000000
vn 0.000000 1.000000 -0.000000
vn 0.000000 1.000000 -0.000000
vn 0.000000 1.000000 -0.000000
vn 0.000000 1.000000 -0.000000
vn 0.000000 1.000000 -0.000000
vn 0.000000 1.000000 -0.000000
vn 0.000000 1.000000 -0.000000
vn 0.000000 1.000000 -0.000000
vn 0.000000 1.000000 -0.000000
vn 0.000000 1.000000 -0.000000
vn 0.000000 1.000000 -0.000000
vn 0.000000 1.000000 -0.000000
vn 0.000000 1.000000 -0.000000
vn 0.000000 1.000000 -0.000000
vn 0.000000 1.000000 -0.000000
vn 0.000000 1.000000 -0.000000
vn 0.000000 1.000000 -0.000000
vn 0.000000 1.000000 -0.000000
vn 0.000000 1.000000 -0.000000
vn -0.448819 -0.007874 0.897638
vn 0.000000 -0.007874 1.000000
vn 0.000000 -0.007874 1.000000
vn -0.307087 -0.007874 0.952756
vn -0.590551 -0.007874 0.811023
vn -0.811024 -0.007874 0.590551
vn -0.811024 -0.007874 0.590551
vn -0.952756 -0.007874 0.307087
vn -0.952756 -0.007874 0.307087
vn -1.000000 -0.007874 0.000000
vn -0.984252 -0.007874 -0.157480
vn -0.952756 -0.007874 -0.307087
vn -0.708661 -0.007874 -0.708661
vn -0.811024 -0.007874 -0.590551
vn -0.590551 -0.007874 -0.811023
vn -0.307087 -0.007874 -0.952756
vn -0.157480 -0.007874 -0.984252
vn 0.000000 -0.007874 -1.000000
vn 0.417323 -0.007874 -0.905512
vn 0.307087 -0.007874 -0.952756
vn 0.590551 -0.007874 -0.811023
vn 0.811024 -0.007874 -0.590551
vn 0.811024 -0.007874 -0.590551
vn 0.952756 -0.007874 -0.307087
vn 0.984252 -0.007874 -0.157480
vn 1.000000 -0.007874 0.000000
vn 0.889764 -0.007874 0.456693
vn 0.952756 -0.007874 0.307087
vn 0.811024 -0.007874 0.590551
vn 0.590551 -0.007874 0.811023
vn 0.448819 -0.007874 0.897638
vn 0.307087 -0.007874 0.952756
vn 0.000000 -0.007874 1.000000
vn 0.000000 -0.007874 1.000000
tan 0.139500 -0.683179 -0.691921 1.000000
tan 0.055490 -0.700787 -0.708661 1.000000
tan -0.010974 -0.707917 -0.700539 1.000000
tan 0.491041 -0.708537 -0.513361 1.000000
tan 0.608221 -0.696137 -0.362701 1.000000
tan 0.703081 -0.688325 -0.078120 1.000000
tan 0.708661 -0.697563 -0.027900 1.000000
tan 0.708661 -0.695145 0.011160 1.000000
tan 0.697501 -0.700415 0.133920 1.000000
tan 0.496621 -0.714241 0.496621 1.000000
tan 0.491041 -0.708537 0.513361 1.000000
tan 0.011160 -0.695145 0.708661 1.000000
tan 0.133920 -0.700415 0.697501 1.000000
tan -0.027900 -0.697563 0.708661 1.000000
tan -0.078120 -0.688325 0.703081 1.000000
tan -0.469031 -0.709591 0.524211 1.000000
tan -0.491041 -0.708537 0.513361 1.000000
tan -0.703081 -0.688325 0.078120 1.000000
tan -0.697501 -0.700415 0.133920 1.000000
tan -0.708661 -0.704259 -0.022320 1.000000
tan -0.708661 -0.695517 -0.016740 1.000000
tan -0.636121 -0.686217 -0.306901 1.000000
tan -0.608221 -0.696137 -0.362701 1.000000
tan -0.133920 -0.687271 -0.697501 1.000000
tan -0.117180 -0.673383 -0.697501 1.000000
tan -0.011160 -0.708475 -0.708847 1.000000
tan -0.055490 -0.700787 -0.708661 1.000000
tan 0.055800 -0.700787 -0.716535 1.000000
tan 0.135408 -0.698927 -0.705251 1.000000
tan 0.055800 -0.700787 -0.716535 1.000000
tan 0.150660 -0.682001 -0.691921 1.000000
tan 0.366731 -0.696137 -0.614979 1.000000
tan 0.614979 -0.696137 -0.366731 1.000000
tan 0.614979 -0.696137 -0.366731 1.000000
tan 0.705251 -0.698927 -0.135408 1.000000
tan 0.705251 -0.698927 -0.135408 1.000000
tan 0.708661 -0.697253 0.027900 1.000000
tan 0.716535 -0.700787 0.000000 1.000000
tan 0.705251 -0.698927 0.135408 1.000000
tan 0.502201 -0.714241 0.502201 1.000000
tan 0.614979 -0.696137 0.366731 1.000000
tan 0.366731 -0.696137 0.614979 1.000000
tan 0.135408 -0.698927 0.705251 1.000000
tan 0.027900 -0.697253 0.708661 1.000000
tan 0.000000 -0.700787 0.716535 1.000000
tan -0.135408 -0.698927 0.705251 1.000000
tan -0.128340 -0.681939 0.697501 1.000000
tan -0.366731 -0.696137 0.614979 1.000000
tan -0.614979 -0.696137 0.366731 1.000000
tan -0.614979 -0.696137 0.366731 1.000000
tan -0.708661 -0.697253 0.027900 1.000000
tan -0.705251 -0.698927 0.135408 1.000000
tan -0.716535 -0.700787 0.000000 1.000000
tan -0.691921 -0.686217 -0.156240 1.000000
tan -0.705251 -0.698927 -0.135408 1.000000
tan -0.614979 -0.696137 -0.366731 1.000000
tan -0.366731 -0.696137 -0.614979 1.000000
tan -0.150660 -0.682001 -0.691921 1.000000
tan -0.135408 -0.698927 -0.705251 1.000000
tan -0.055800 -0.700787 -0.716535 1.000000
tan -0.055800 -0.700787 -0.716535 1.000000
tan 0.055800 -0.708661 -0.708661 1.000000
tan 0.128340 -0.698679 -0.697501 1.000000
tan 0.055800 -0.708661 -0.708661 1.000000
tan 0.128340 -0.698679 -0.697501 1.000000
tan 0.362701 -0.706925 -0.608221 1.000000
tan 0.362701 -0.706925 -0.608221 1.000000
tan 0.608221 -0.706925 -0.362701 1.000000
tan 0.608221 -0.706925 -0.362701 1.000000
tan 0.697501 -0.698679 -0.128340 1.000000
tan 0.697501 -0.698679 -0.128340 1.000000
tan 0.708661 -0.708661 0.000000 1.000000
tan 0.708661 -0.708661 0.000000 1.000000
tan 0.697501 -0.698679 0.128340 1.000000
tan 0.697501 -0.698679 0.128340 1.000000
tan 0.608221 -0.706925 0.362701 1.000000
tan 0.608221 -0.706925 0.362701 1.000000
tan 0.362701 -0.706925 0.608221 1.000000
tan 0.362701 -0.706925 0.608221 1.000000
tan 0.128340 -0.698679 0.697501 1.000000
tan 0.128340 -0.698679 0.697501 1.000000
tan 0.000000 -0.708661 0.708661 1.000000
tan 0.000000 -0.708661 0.708661 1.000000
tan -0.128340 -0.698679 0.697501 1.000000
tan -0.128340 -0.698679 0.697501 1.000000
tan -0.362701 -0.706925 0.608221 1.000000
tan -0.362701 -0.706925 0.608221 1.000000
tan -0.608221 -0.706925 0.362701 1.000000
tan -0.608221 -0.706925 0.362701 1.000000
tan -0.697501 -0.698679 0.128340 1.000000
tan -0.697501 -0.698679 0.128340 1.000000
tan -0.708661 -0.708661 0.000000 1.000000
tan -0.708661 -0.708661 0.000000 1.000000
tan -0.697501 -0.698679 -0.128340 1.000000
tan -0.697501 -0.698679 -0.128340 1.000000
tan -0.608221 -0.706925 -0.362701 1.000000
tan -0.608221 -0.706925 -0.362701 1.000000
tan -0.362701 -0.706925 -0.608221 1.000000
tan -0.362701 -0.706925 -0.608221 1.000000
tan -0.128340 -0.698679 -0.697501 1.000000
tan -0.128340 -0.698679 -0.697501 1.000000
tan -0.055800 -0.708661 -0.708661 1.000000
tan -0.055800 -0.708661 -0.708661 1.000000
tan 0.000000 -1.000000 0.007874 1.000000
tan -0.000248 -0.962428 0.007874 1.000000
tan 0.000000 -1.000000 0.007874 1.000000
tan -0.000248 -0.962428 0.007874 1.000000
tan -0.002790 -0.969186 0.007378 1.000000
tan -0.002790 -0.969186 0.007378 1.000000
tan -0.007378 -0.969186 0.002790 1.000000
tan -0.007378 -0.969186 0.002790 1.000000
tan -0.007874 -0.962428 0.000248 1.000000
tan -0.007874 -0.962428 0.000248 1.000000
tan -0.007874 -1.000000 0.000000 1.000000
tan -0.007874 -1.000000 0.000000 1.000000
tan -0.007874 -0.962428 -0.000248 1.000000
tan -0.007874 -0.962428 -0.000248 1.000000
tan -0.007378 -0.969186 -0.002790 1.000000
tan -0.007378 -0.969186 -0.002790 1.000000
tan -0.002790 -0.969186 -0.007378 1.000000
tan -0.002790 -0.969186 -0.007378 1.000000
tan -0.000248 -0.962428 -0.007874 1.000000
tan -0.000248 -0.962428 -0.007874 1.000000
tan 0.000000 -1.000000 -0.007874 1.000000
tan 0.000000 -1.000000 -0.007874 1.000000
tan 0.000248 -0.962428 -0.007874 1.000000
tan 0.000248 -0.962428 -0.007874 1.000000
tan 0.002790 -0.969186 -0.007378 1.000000
tan 0.002790 -0.969186 -0.007378 1.000000
tan 0.007378 -0.969186 -0.002790 1.000000
tan 0.007378 -0.969186 -0.002790 1.000000
tan 0.007874 -0.962428 -0.000248 1.000000
tan 0.007874 -0.962428 -0.000248 1.000000
tan 0.007874 -1.000000 0.000000 1.000000
tan 0.007874 -1.000000 0.000000 1.000000
tan 0.007874 -0.962428 0.000248 1.000000
tan 0.007874 -0.962428 0.000248 1.000000
tan 0.007378 -0.969186 0.002790 1.000000
tan 0.007378 -0.969186 0.002790 1.000000
tan 0.002790 -0.969186 0.007378 1.000000
tan 0.002790 -0.969186 0.007378 1.000000
tan 0.000248 -0.962428 0.007874 1.000000
tan 0.000248 -0.962428 0.007874 1.000000
tan 0.000000 -1.000000 0.007874 1.000000
tan 0.000000 -1.000000 0.007874 1.000000
tan 0.000000 -1.000000 0.000000 1.000000
tan 0.000000 -0.911774 0.000000 1.000000
tan 0.000000 -1.000000 0.000000 1.000000
tan 0.000000 -0.897080 0.000000 1.000000
tan 0.000000 -0.969186 0.000000 1.000000
tan 0.000000 -0.904148 0.000000 1.000000
tan 0.000000 -0.984252 0.000000 1.000000
tan 0.000000 -0.984252 0.000000 1.000000
tan 0.000000 -0.962428 0.000000 1.000000
tan 0.000000 -1.001178 0.000000 1.000000
tan 0.000000 -1.004402 0.000000 1.000000
tan 0.000000 -0.962428 0.000000 1.000000
tan 0.000000 -0.984252 0.000000 1.000000
tan 0.000000 -0.984252 0.000000 1.000000
tan 0.000000 -0.962428 0.000000 1.000000
tan 0.000000 -1.004402 0.000000 1.000000
tan 0.000000 -1.004402 0.000000 1.000000
tan 0.000000 -0.984252 0.000000 1.000000
tan 0.000000 -0.962428 0.000000 1.000000
tan 0.000000 -0.984252 0.000000 1.000000
tan 0.000000 -0.962428 0.000000 1.000000
tan 0.000000 -0.969186 0.000000 1.000000
tan 0.000000 -0.998822 0.000000 1.000000
tan 0.000000 -0.908054 0.000000 1.000000
tan 0.000000 -0.962428 0.000000 1.000000
tan 0.000000 -1.000000 0.000000 1.000000
tan 0.000000 -1.000000 0.000000 1.000000
tan 0.307087 -0.000000 -0.952756 1.000000
tan 0.157480 -0.000000 -0.984252 1.000000
tan 0.157480 -0.000000 -0.984252 1.000000
tan 0.307087 -0.000000 -0.952756 1.000000
tan 0.708661 -0.000000 -0.708661 1.000000
tan 0.590551 -0.000000 -0.811023 1.000000
tan 0.811024 -0.000000 -0.590551 1.000000
tan 0.952756 -0.000000 -0.307087 1.000000
tan 0.952756 -0.000000 -0.307087 1.000000
tan 1.000000 0.000000 0.000000 1.000000
tan 0.976378 0.000000 0.204724 1.000000
tan 0.952756 0.000000 0.307087 1.000000
tan 0.811024 0.000000 0.590551 1.000000
tan 0.708661 0.000000 0.708661 1.000000
tan 0.590551 0.000000 0.811023 1.000000
tan 0.307087 0.000000 0.952756 1.000000
tan 0.196850 0.000000 0.976378 1.000000
tan 0.000000 0.000000 1.000000 1.000000
tan -0.307087 0.000000 0.952756 1.000000
tan -0.307087 0.000000 0.952756 1.000000
tan -0.708661 0.000000 0.708661 1.000000
tan -0.590551 0.000000 0.811023 1.000000
tan -0.811024 0.000000 0.590551 1.000000
tan -0.984252 0.000000 0.165354 1.000000
tan -0.952756 0.000000 0.307087 1.000000
tan -1.000000 0.000000 0.000000 1.000000
tan -0.952756 -0.000000 -0.307087 1.000000
tan -0.889764 -0.000000 -0.464567 1.000000
tan -0.811024 -0.000000 -0.590551 1.000000
tan -0.488189 -0.000000 -0.874016 1.000000
tan -0.590551 -0.000000 -0.811023 1.000000
tan -0.307087 -0.000000 -0.952756 1.000000
tan -0.157480 -0.000000 -0.984252 1.000000
tan -0.157480 -0.000000 -0.984252 1.000000
tan -0.157480 -0.007750 -0.984252 1.000000
tan -0.307087 -0.007502 -0.952756 1.000000
tan -0.157480 -0.007750 -0.984252 1.000000
tan -0.307087 -0.007502 -0.952756 1.000000
tan -0.590551 -0.006386 -0.811023 1.000000
tan -0.590551 -0.006386 -0.811023 1.000000
tan -0.811024 -0.006386 -0.590551 1.000000
tan -0.811024 -0.006386 -0.590551 1.000000
tan -0.952756 -0.007502 -0.307087 1.000000
tan -0.952756 -0.007502 -0.307087 1.000000
tan -1.000000 -0.007874 0.000000 1.000000
tan -1.000000 -0.007874 0.000000 1.000000
tan -0.952756 -0.007502 0.307087 1.000000
tan -0.952756 -0.007502 0.307087 1.000000
tan -0.811024 -0.006386 0.590551 1.000000
tan -0.811024 -0.006386 0.590551 1.000000
tan -0.590551 -0.006386 0.811023 1.000000
tan -0.590551 -0.006386 0.811023 1.000000
tan -0.307087 -0.007502 0.952756 1.000000
tan -0.307087 -0.007502 0.952756 1.000000
tan 0.000000 -0.007874 1.000000 1.000000
tan 0.000000 -0.007874 1.000000 1.000000
tan 0.307087 -0.007502 0.952756 1.000000
tan 0.307087 -0.007502 0.952756 1.000000
tan 0.590551 -0.006386 0.811023 1.000000
tan 0.590551 -0.006386 0.811023 1.000000
tan 0.811024 -0.006386 0.590551 1.000000
tan 0.811024 -0.006386 0.590551 1.000000
tan 0.952756 -0.007502 0.307087 1.000000
tan 0.952756 -0.007502 0.307087 1.000000
tan 1.000000 -0.007874 0.000000 1.000000
tan 1.000000 -0.007874 0.000000 1.000000
tan 0.952756 -0.007502 -0.307087 1.000000
tan 0.952756 -0.007502 -0.307087 1.000000
tan 0.811024 -0.006386 -0.590551 1.000000
tan 0.811024 -0.006386 -0.590551 1.000000
tan 0.590551 -0.006386 -0.811023 1.000000
tan 0.590551 -0.006386 -0.811023 1.000000
tan 0.307087 -0.007502 -0.952756 1.000000
tan 0.307087 -0.007502 -0.952756 1.000000
tan 0.157480 -0.007750 -0.984252 1.000000
tan 0.157480 -0.007750 -0.984252 1.000000
tan -0.157480 0.000000 0.984252 1.000000
tan -0.307087 0.000000 0.952756 1.000000
tan -0.157480 0.000000 0.984252 1.000000
tan -0.307087 0.000000 0.952756 1.000000
tan -0.590551 0.000000 0.811023 1.000000
tan -0.685039 0.000000 0.724409 1.000000
tan -0.811024 0.000000 0.590551 1.000000
tan -0.952756 0.000000 0.307087 1.000000
tan -0.952756 0.000000 0.307087 1.000000
tan -1.000000 0.000000 0.000000 1.000000
tan -0.984252 -0.000000 -0.196850 1.000000
tan -0.952756 -0.000000 -0.307087 1.000000
tan -0.811024 -0.000000 -0.590551 1.000000
tan -0.811024 -0.000000 -0.590551 1.000000
tan -0.417323 -0.000000 -0.905512 1.000000
tan -0.590551 -0.000000 -0.811023 1.000000
tan -0.307087 -0.000000 -0.952756 1.000000
tan 0.000000 -0.000000 -1.000000 1.000000
tan 0.196850 -0.000000 -0.984252 1.000000
tan 0.307087 -0.000000 -0.952756 1.000000
tan 0.590551 -0.000000 -0.811023 1.000000
tan 0.590551 -0.000000 -0.811023 1.000000
tan 0.811024 -0.000000 -0.590551 1.000000
tan 0.921260 -0.000000 -0.393701 1.000000
tan 0.952756 -0.000000 -0.307087 1.000000
tan 1.000000 0.000000 0.000000 1.000000
tan 0.984252 0.000000 0.157480 1.000000
tan 0.952756 0.000000 0.307087 1.000000
tan 0.811024 0.000000 0.590551 1.000000
tan 0.811024 0.000000 0.590551 1.000000
tan 0.456693 0.000000 0.889764 1.000000
tan 0.590551 0.000000 0.811023 1.000000
tan 0.307087 0.000000 0.952756 1.000000
tan 0.157480 0.000000 0.984252 1.000000
tan 0.157480 0.000000 0.984252 1.000000
tan 0.000248 -0.911774 -0.007874 1.000000
tan 0.000000 -1.000000 -0.007874 1.000000
tan 0.000000 -1.000000 -0.007874 1.000000
tan 0.000248 -0.962428 -0.007874 1.000000
tan 0.002790 -0.969186 -0.007378 1.000000
tan 0.007378 -0.969186 -0.002790 1.000000
tan 0.007378 -0.969186 -0.002790 1.000000
tan 0.007874 -0.962428 -0.000248 1.000000
tan 0.007874 -0.962428 -0.000248 1.000000
tan 0.007874 -1.000000 0.000000 1.000000
tan 0.007874 -0.984252 0.000000 1.000000
tan 0.007874 -0.962428 0.000248 1.000000
tan 0.005580 -1.004402 0.005580 1.000000
tan 0.007378 -0.969186 0.002790 1.000000
tan 0.002790 -0.969186 0.007378 1.000000
tan 0.000248 -0.962428 0.007874 1.000000
tan 0.000000 -0.984252 0.007874 1.000000
tan 0.000000 -1.000000 0.007874 1.000000
tan -0.000124 -0.912084 0.007874 1.000000
tan -0.000248 -0.962428 0.007874 1.000000
tan -0.002790 -0.969186 0.007378 1.000000
tan -0.007378 -0.969186 0.002790 1.000000
tan -0.007378 -0.969186 0.002790 1.000000
tan -0.007874 -0.962428 0.000248 1.000000
tan -0.007874 -0.984252 0.000000 1.000000
tan -0.007874 -1.000000 0.000000 1.000000
tan -0.007874 -0.904148 -0.000248 1.000000
tan -0.007874 -0.962428 -0.000248 1.000000
tan -0.007378 -0.969186 -0.002790 1.000000
tan -0.002790 -0.969186 -0.007378 1.000000
tan -0.000248 -0.911774 -0.007874 1.000000
tan -0.000248 -0.962428 -0.007874 1.000000
tan 0.000000 -1.000000 -0.007874 1.000000
tan 0.000000 -1.000000 -0.007874 1.000000
f 3/3/3 2/2/2 1/1/1
f 4/4/4 3/3/3 1/1/1
f 5/5/5 4/4/4 1/1/1
f 4/4/4 5/5/5 6/6/6
f 7/7/7 6/6/6 5/5/5
f 8/8/8 6/6/6 7/7/7
f 8/8/8 7/7/7 9/9/9
f 9/9/9 10/10/10 8/8/8
f 11/11/11 8/8/8 10/10/10
f 10/10/10 12/12/12 11/11/11
f 13/13/13 12/12/12 10/10/10
f 13/13/13 14/14/14 12/12/12
f 12/12/12 14/14/14 15/15/15
f 14/14/14 16/16/16 15/15/15
f 17/17/17 15/15/15 16/16/16
f 16/16/16 18/18/18 17/17/17
f 18/18/18 16/16/16 19/19/19
f 19/19/19 20/20/20 18/18/18
f 21/21/21 18/18/18 20/20/20
f 21/21/21 20/20/20 22/22/22
f 23/23/23 22/22/22 20/20/20
f 23/23/23 24/24/24 22/22/22
f 25/25/25 22/22/22 24/24/24
f 25/25/25 24/24/24 26/26/26
f 26/26/26 24/24/24 27/27/27
f 30/30/30 29/29/29 28/28/28
f 29/29/29 30/30/30 31/31/31
f 32/32/32 29/29/29 31/31/31
f 31/31/31 33/33/33 32/32/32
f 34/34/34 33/33/33 31/31/31
f 34/34/34 35/35/35 33/33/33
f 36/36/36 33/33/33 35/35/35
f 35/35/35 37/37/37 36/36/36
f 38/38/38 36/36/36 37/37/37
f 38/38/38 37/37/37 39/39/39
f 37/37/37 40/40/40 39/39/39
f 41/41/41 39/39/39 40/40/40
f 41/41/41 40/40/40 42/42/42
f 40/40/40 43/43/43 42/42/42
f 44/44/44 43/43/43 40/40/40
f 45/45/45 43/43/43 44/44/44
f 45/45/45 44/44/44 46/46/46
f 47/47/47 46/46/46 44/44/44
f 48/48/48 46/46/46 47/47/47
f 48/48/48 47/47/47 49/49/49
f 49/49/49 47/47/47 50/50/50
f 50/50/50 51/51/51 49/49/49
f 52/52/52 49/49/49 51/51/51
f 53/53/53 52/52/52 51/51/51
f 51/51/51 54/54/54 53/53/53
f 55/55/55 53/53/53 54/54/54
f 55/55/55 54/54/54 56/56/56
f 56/56/56 54/54/54 57/57/57
f 58/58/58 57/57/57 54/54/54
f 59/59/59 57/57/57 58/58/58
f 59/59/59 58/58/58 60/60/60
f 60/60/60 58/58/58 61/61/61
f 64/64/64 63/63/63 62/62/62
f 63/63/63 64/64/64 65/65/65
f 65/65/65 66/66/66 63/63/63
f 65/65/65 67/67/67 66/66/66
f 67/67/67 68/68/68 66/66/66
f 69/69/69 68/68/68 67/67/67
f 68/68/68 69/69/69 70/70/70
f 71/71/71 70/70/70 69/69/69
f 71/71/71 72/72/72 70/70/70
f 73/73/73 70/70/70 72/72/72
f 72/72/72 74/74/74 73/73/73
f 75/75/75 73/73/73 74/74/74
f 74/74/74 76/76/76 75/75/75
f 77/77/77 75/75/75 76/76/76
f 76/76/76 78/78/78 77/77/77
f 79/79/79 77/77/77 78/78/78
f 78/78/78 80/80/80 79/79/79
f 81/81/81 80/80/80 78/78/78
f 81/81/81 82/82/82 80/80/80
f 83/83/83 80/80/80 82/82/82
f 83/83/83 82/82/82 84/84/84
f 85/85/85 84/84/84 82/82/82
f 84/84/84 85/85/85 86/86/86
f 86/86/86 85/85/85 87/87/87
f 87/87/87 88/88/88 86/86/86
f 89/89/89 86/86/86 88/88/88
f 88/88/88 90/90/90 89/89/89
f 90/90/90 88/88/88 91/91/91
f 91/91/91 92/92/92 90/90/90
f 93/93/93 90/90/90 92/92/92
f 92/92/92 94/94/94 93/93/93
f 95/95/95 93/93/93 94/94/94
f 95/95/95 94/94/94 96/96/96
f 97/97/97 96/96/96 94/94/94
f 97/97/97 98/98/98 96/96/96
f 99/99/99 96/96/96 98/98/98
f 98/98/98 100/100/100 99/99/99
f 101/101/101 99/99/99 100/100/100
f 100/100/100 102/102/102 101/101/101
f 103/103/103 101/101/101 102/102/102
f 106/106/106 105/105/105 104/104/104
f 107/107/107 104/104/104 105/105/105
f 105/105/105 108/108/108 107/107/107
f 109/109/109 107/107/107 108/108/108
f 108/108/108 110/110/110 109/109/109
f 111/111/111 109/109/109 110/110/110
f 111/111/111 110/110/110 112/112/112
f 110/110/110 113/113/113 112/112/112
f 112/112/112 113/113/113 114/114/114
f 113/113/113 115/115/115 114/114/114
f 115/115/115 116/116/116 114/114/114
f 117/117/117 114/114/114 116/116/116
f 116/116/116 118/118/118 117/117/117
f 119/119/119 117/117/117 118/118/118
f 120/120/120 119/119/119 118/118/118
f 118/118/118 121/121/121 120/120/120
f 122/122/122 120/120/120 121/121/121
f 121/121/121 123/123/123 122/122/122
f 124/124/124 122/122/122 123/123/123
f 124/124/124 123/123/123 125/125/125
f 125/125/125 126/126/126 124/124/124
f 127/127/127 124/124/124 126/126/126
f 126/126/126 128/128/128 127/127/127
f 129/129/129 127/127/127 128/128/128
f 130/130/130 129/129/129 128/128/128
f 131/131/131 130/130/130 128/128/128
f 132/132/132 130/130/130 131/131/131
f 133/133/133 132/132/132 131/131/131
f 133/133/133 134/134/134 132/132/132
f 135/135/135 134/134/134 133/133/133
f 135/135/135 136/136/136 134/134/134
f 137/137/137 134/134/134 136/136/136
f 136/136/136 138/138/138 137/137/137
f 139/139/139 137/137/137 138/138/138
f 138/138/138 140/140/140 139/139/139
f 141/141/141 139/139/139 140/140/140
f 141/141/141 140/140/140 142/142/142
f 143/143/143 142/142/142 140/140/140
f 142/142/142 143/143/143 144/144/144
f 145/145/145 144/144/144 143/143/143
f 148/148/148 147/147/147 146/146/146
f 149/149/149 146/146/146 147/147/147
f 147/147/147 150/150/150 149/149/149
f 151/151/151 149/149/149 150/150/150
f 150/150/150 152/152/152 151/151/151
f 151/151/151 152/152/152 153/153/153
f 152/152/152 154/154/154 153/153/153
f 154/154/154 155/155/155 153/153/153
f 156/156/156 153/153/153 155/155/155
f 157/157/157 156/156/156 155/155/155
f 155/155/155 158/158/158 157/157/157
f 159/159/159 157/157/157 158/158/158
f 158/158/158 160/160/160 159/159/159
f 160/160/160 161/161/161 159/159/159
f 162/162/162 159/159/159 161/161/161
f 163/163/163 162/162/162 161/161/161
f 164/164/164 163/163/163 161/161/161
f 165/165/165 163/163/163 164/164/164
f 166/166/166 163/163/163 165/165/165
f 165/165/165 167/167/167 166/166/166
f 168/168/168 166/166/166 167/167/167
f 169/169/169 168/168/168 167/167/167
f 168/168/168 169/169/169 170/170/170
f 170/170/170 169/169/169 171/171/171
f 172/172/172 171/171/171 169/169/169
f 175/175/175 174/174/174 173/173/173
f 176/176/176 173/173/173 174/174/174
f 173/173/173 176/176/176 177/177/177
f 178/178/178 177/177/177 176/176/176
f 179/179/179 177/177/177 178/178/178
f 177/177/177 179/179/179 180/180/180
f 181/181/181 180/180/180 179/179/179
f 181/181/181 182/182/182 180/180/180
f 183/183/183 180/180/180 182/182/182
f 184/184/184 183/183/183 182/182/182
f 184/184/184 185/185/185 183/183/183
f 186/186/186 183/183/183 185/185/185
f 185/185/185 187/187/187 186/186/186
f 188/188/188 186/186/186 187/187/187
f 188/188/188 189/189/189 186/186/186
f 189/189/189 188/188/188 190/190/190
f 189/189/189 190/190/190 191/191/191
f 192/192/192 191/191/191 190/190/190
f 191/191/191 192/192/192 193/193/193
f 194/194/194 193/193/193 192/192/192
f 195/195/195 193/193/193 194/194/194
f 193/193/193 195/195/195 196/196/196
f 197/197/197 196/196/196 195/195/195
f 197/197/197 198/198/198 196/196/196
f 196/196/196 198/198/198 199/199/199
f 199/199/199 200/200/200 196/196/196
f 201/201/201 200/200/200 199/199/199
f 200/200/200 201/201/201 202/202/202
f 203/203/203 202/202/202 201/201/201
f 203/203/203 204/204/204 202/202/202
f 202/202/202 204/204/204 205/205/205
f 206/206/206 205/205/205 204/204/204
f 209/209/209 208/208/208 207/207/207
f 210/210/210 207/207/207 208/208/208
f 208/208/208 211/211/211 210/210/210
f 212/212/212 210/210/210 211/211/211
f 211/211/211 213/213/213 212/212/212
f 213/213/213 214/214/214 212/212/212
f 214/214/214 213/213/213 215/215/215
f 216/216/216 215/215/215 213/213/213
f 215/215/215 216/216/216 217/217/217
f 217/217/217 218/218/218 215/215/215
f 218/218/218 217/217/217 219/219/219
f 220/220/220 218/218/218 219/219/219
f 220/220/220 219/219/219 221/221/221
f 222/222/222 220/220/220 221/221/221
f 221/221/221 223/223/223 222/222/222
f 224/224/224 222/222/222 223/223/223
f 223/223/223 225/225/225 224/224/224
f 226/226/226 224/224/224 225/225/225
f 226/226/226 225/225/225 227/227/227
f 228/228/228 227/227/227 225/225/225
f 228/228/228 229/229/229 227/227/227
f 229/229/229 230/230/230 227/227/227
f 230/230/230 229/229/229 231/231/231
f 232/232/232 231/231/231 229/229/229
f 231/231/231 232/232/232 233/233/233
f 234/234/234 233/233/233 232/232/232
f 234/234/234 235/235/235 233/233/233
f 236/236/236 233/233/233 235/235/235
f 236/236/236 235/235/235 237/237/237
f 238/238/238 237/237/237 235/235/235
f 238/238/238 239/239/239 237/237/237
f 240/240/240 237/237/237 239/239/239
f 239/239/239 241/241/241 240/240/240
f 241/241/241 242/242/242 240/240/240
f 241/241/241 243/243/243 242/242/242
f 243/243/243 244/244/244 242/242/242
f 244/244/244 243/243/243 245/245/245
f 244/244/244 245/245/245 246/246/246
f 246/246/246 245/245/245 247/247/247
f 248/248/248 247/247/247 245/245/245
f 251/251/251 250/250/250 249/249/249
f 252/252/252 249/249/249 250/250/250
f 253/253/253 252/252/252 250/250/250
f 254/254/254 253/253/253 250/250/250
f 253/253/253 254/254/254 255/255/255
f 254/254/254 256/256/256 255/255/255
f 257/257/257 255/255/255 256/256/256
f 257/257/257 256/256/256 258/258/258
f 256/256/256 259/259/259 258/258/258
f 260/260/260 258/258/258 259/259/259
f 261/261/261 260/260/260 259/259/259
f 259/259/259 262/262/262 261/261/261
f 262/262/262 263/263/263 261/261/261
f 264/264/264 261/261/261 263/263/263
f 265/265/265 264/264/264 263/263/263
f 265/265/265 263/263/263 266/266/266
f 267/267/267 266/266/266 263/263/263
f 268/268/268 266/266/266 267/267/267
f 268/268/268 267/267/267 269/269/269
f 267/267/267 270/270/270 269/269/269
f 271/271/271 269/269/269 270/270/270
f 270/270/270 272/272/272 271/271/271
f 273/273/273 271/271/271 272/272/272
f 274/274/274 273/273/273 272/272/272
f 275/275/275 274/274/274 272/272/272
f 275/275/275 276/276/276 274/274/274
f 276/276/276 275/275/275 277/277/277
f 278/278/278 277/277/277 275/275/275
f 278/278/278 279/279/279 277/277/277
f 280/280/280 277/277/277 279/279/279
f 280/280/280 279/279/279 281/281/281
f 282/282/282 281/281/281 279/279/279
f 279/279/279 283/283/283 282/282/282
f 286/286/286 285/285/285 284/284/284
f 287/287/287 284/284/284 285/285/285
f 288/288/288 284/284/284 287/287/287
f 284/284/284 288/288/288 289/289/289
f 290/290/290 289/289/289 288/288/288
f 290/290/290 291/291/291 289/289/289
f 292/292/292 289/289/289 291/291/291
f 291/291/291 293/293/293 292/292/292
f 294/294/294 292/292/292 293/293/293
f 295/295/295 294/294/294 293/293/293
f 294/294/294 295/295/295 296/296/296
f 297/297/297 296/296/296 295/295/295
f 297/297/297 298/298/298 296/296/296
f 299/299/299 296/296/296 298/298/298
f 300/300/300 296/296/296 299/299/299
f 301/301/301 300/300/300 299/299/299
f 300/300/300 301/301/301 302/302/302
f 303/303/303 302/302/302 301/301/301
f 304/304/304 302/302/302 303/303/303
f 302/302/302 304/304/304 305/305/305
f 306/306/306 305/305/305 304/304/304
f 307/307/307 305/305/305 306/306/306
f 305/305/305 307/307/307 308/308/308
f 309/309/309 308/308/308 307/307/307
f 308/308/308 309/309/309 310/310/310
f 311/311/311 310/310/310 309/309/309
f 312/312/312 310/310/310 311/311/311
f 312/312/312 313/313/313 310/310/310
f 310/310/310 313/313/313 314/314/314
f 313/313/313 315/315/315 314/314/314
f 315/315/315 316/316/316 314/314/314
f 314/314/314 316/316/316 317/317/317
