mtllib SM_Pillar_01_a@000002909DC2C100.mtl
g SM_Pillar_01_a@000002909DC2C100
#Vertices 342
#Indices 1722
#Section 0 Offset 0 NumIndices 1146 MaterialIndex 0 MI_Pillar_02
#Section 1 Offset 1146 NumIndices 576 MaterialIndex 1 MI_Pillar_01
v 0.520448 0.625057 -0.492355 0.000000 1.000000 0.000000 1.000000
v 0.637940 0.625189 0.650322 0.000000 1.000000 0.000000 1.000000
v 0.520448 0.625057 0.535006 0.000000 1.000000 0.000000 1.000000
v 0.637940 0.625189 -0.607671 0.000000 1.000000 0.000000 1.000000
v -0.526297 0.623881 -0.492355 0.000000 1.000000 0.000000 1.000000
v 0.655329 0.607405 -0.607671 0.000000 1.000000 0.000000 1.000000
v 0.655329 0.607405 0.650322 0.000000 1.000000 0.000000 1.000000
v 0.655132 0.475387 0.650322 0.000000 1.000000 0.000000 1.000000
v -0.643788 0.623749 -0.607671 0.000000 1.000000 0.000000 1.000000
v -0.526297 0.623881 0.535006 0.000000 1.000000 0.000000 1.000000
v 0.630840 0.607405 -0.645078 0.000000 1.000000 0.000000 1.000000
v 0.655132 0.475386 -0.607671 0.000000 1.000000 0.000000 1.000000
v 0.630643 0.445694 0.658404 0.000000 1.000000 0.000000 1.000000
v 0.630643 0.475386 -0.645078 0.000000 1.000000 0.000000 1.000000
v 0.630643 0.446777 -0.625623 0.000000 1.000000 0.000000 1.000000
v 0.515130 0.445556 0.540702 0.000000 1.000000 0.000000 1.000000
v 0.515130 0.446440 -0.507921 0.000000 1.000000 0.000000 1.000000
v -0.629504 0.471777 -0.645078 0.000000 1.000000 0.000000 1.000000
v -0.629504 0.444183 -0.625623 0.000000 1.000000 0.000000 1.000000
v -0.513990 0.444321 -0.507921 0.000000 1.000000 0.000000 1.000000
v -0.637667 0.599080 -0.645078 0.000000 1.000000 0.000000 1.000000
v -0.662044 0.603161 -0.607671 0.000000 1.000000 0.000000 1.000000
v -0.664230 0.458649 -0.625623 0.000000 1.000000 0.000000 1.000000
v -0.629504 0.443100 0.658404 0.000000 1.000000 0.000000 1.000000
v -0.513990 0.443437 0.540702 0.000000 1.000000 0.000000 1.000000
v 0.515130 0.445556 0.540702 0.000000 1.000000 0.000000 1.000000
v 0.630643 0.445694 0.658404 0.000000 1.000000 0.000000 1.000000
v -0.664230 0.457566 0.658404 0.000000 1.000000 0.000000 1.000000
v -0.662044 0.603161 0.650322 0.000000 1.000000 0.000000 1.000000
v -0.629504 0.471777 0.690654 0.000000 1.000000 0.000000 1.000000
v -0.643788 0.623749 0.650322 0.000000 1.000000 0.000000 1.000000
v 0.520448 0.625057 0.535006 0.000000 1.000000 0.000000 1.000000
v 0.637940 0.625189 0.650322 0.000000 1.000000 0.000000 1.000000
v -0.637667 0.599080 0.690654 0.000000 1.000000 0.000000 1.000000
v 0.630840 0.607405 0.690654 0.000000 1.000000 0.000000 1.000000
v 0.655329 0.607405 0.650322 0.000000 1.000000 0.000000 1.000000
v 0.630643 0.475387 0.690654 0.000000 1.000000 0.000000 1.000000
v 0.655132 0.475387 0.650322 0.000000 1.000000 0.000000 1.000000
v 0.367308 5.355673 0.323199 0.000000 0.000000 1.000000 1.000000
v 0.321990 5.306445 0.368821 0.000000 0.000000 1.000000 1.000000
v 0.321585 5.355631 0.368821 0.000000 0.000000 1.000000 1.000000
v 0.367612 5.306445 0.323199 0.000000 0.000000 1.000000 1.000000
v 0.367612 5.306445 -0.323209 0.000000 0.000000 1.000000 1.000000
v 0.367292 5.355663 -0.323229 0.000000 0.000000 1.000000 1.000000
v 0.348004 5.289673 0.307474 0.000000 0.000000 1.000000 1.000000
v 0.302382 5.289673 0.353096 0.000000 0.000000 1.000000 1.000000
v 0.321588 5.355639 -0.379055 0.000000 0.000000 1.000000 1.000000
v 0.283786 5.252239 0.337563 0.000000 0.000000 1.000000 1.000000
v 0.321990 5.306445 -0.379055 0.000000 0.000000 1.000000 1.000000
v 0.348004 5.289999 -0.312595 0.000000 0.000000 1.000000 1.000000
v 0.329408 5.252239 0.291940 0.000000 0.000000 1.000000 1.000000
v -0.329599 5.313810 -0.379055 0.000000 0.000000 1.000000 1.000000
v -0.331375 5.358608 -0.378743 0.000000 0.000000 1.000000 1.000000
v 0.302382 5.289999 -0.358217 0.000000 0.000000 1.000000 1.000000
v 0.329408 5.254741 -0.297062 0.000000 0.000000 1.000000 1.000000
v 0.304412 5.234000 0.269195 0.000000 0.000000 1.000000 1.000000
v 0.259007 5.234000 0.314599 0.000000 0.000000 1.000000 1.000000
v 0.304411 5.234000 -0.273334 0.000000 0.000000 1.000000 1.000000
v 0.299923 5.203107 0.253360 0.000000 0.000000 1.000000 1.000000
v 0.254301 5.203107 0.298983 0.000000 0.000000 1.000000 1.000000
v 0.266704 5.149324 0.314726 0.000000 0.000000 1.000000 1.000000
v 0.283786 5.254741 -0.342684 0.000000 0.000000 1.000000 1.000000
v 0.314729 5.149324 0.266701 0.000000 0.000000 1.000000 1.000000
v -0.313874 5.297365 -0.358217 0.000000 0.000000 1.000000 1.000000
v 0.388884 5.031497 0.344056 0.000000 0.000000 1.000000 1.000000
v 0.339396 5.031497 0.393543 0.000000 0.000000 1.000000 1.000000
v 0.314729 5.149324 -0.271492 0.000000 0.000000 1.000000 1.000000
v 0.484541 4.928200 0.443352 0.000000 0.000000 1.000000 1.000000
v 0.435283 4.928200 0.492610 0.000000 0.000000 1.000000 1.000000
v 0.566340 4.813807 0.618506 0.000000 0.000000 1.000000 1.000000
v 0.388884 5.031497 -0.340692 0.000000 0.000000 1.000000 1.000000
v 0.484541 4.928200 -0.439026 0.000000 0.000000 1.000000 1.000000
v 0.612588 4.813807 0.572257 0.000000 0.000000 1.000000 1.000000
v 0.583288 4.489766 0.629761 0.000000 0.000000 1.000000 1.000000
v 0.339396 5.031497 -0.390179 0.000000 0.000000 1.000000 1.000000
v 0.629763 4.489766 0.583285 0.000000 0.000000 1.000000 1.000000
v 0.817496 4.487746 0.862479 0.000000 0.000000 1.000000 1.000000
v 0.612588 4.813807 -0.577739 0.000000 0.000000 1.000000 1.000000
v 0.863708 4.487746 0.816267 0.000000 0.000000 1.000000 1.000000
v 0.629763 4.489766 -0.583289 0.000000 0.000000 1.000000 1.000000
v 0.863708 4.487746 -0.812708 0.000000 0.000000 1.000000 1.000000
v 0.860705 4.390954 0.813051 0.000000 0.000000 1.000000 1.000000
v 0.814088 4.390953 0.858878 0.000000 0.000000 1.000000 1.000000
v 0.817496 4.487746 -0.858920 0.000000 0.000000 1.000000 1.000000
v 0.771600 4.345006 0.733238 0.000000 0.000000 1.000000 1.000000
v 0.724378 4.345011 0.779686 0.000000 0.000000 1.000000 1.000000
v 0.860723 4.390961 -0.812058 0.000000 0.000000 1.000000 1.000000
v 0.764722 4.324072 0.720394 0.000000 0.000000 1.000000 1.000000
v 0.717896 4.324074 0.767219 0.000000 0.000000 1.000000 1.000000
v 0.714394 4.297146 0.763155 0.000000 0.000000 1.000000 1.000000
v 0.771515 4.347177 -0.735288 0.000000 0.000000 1.000000 1.000000
v 0.760795 4.297145 0.715879 0.000000 0.000000 1.000000 1.000000
v 0.764722 4.324375 -0.714155 0.000000 0.000000 1.000000 1.000000
v 0.665808 4.272423 0.698687 0.000000 0.000000 1.000000 1.000000
v 0.814511 4.390961 -0.858270 0.000000 0.000000 1.000000 1.000000
v 0.712097 4.272431 0.651558 0.000000 0.000000 1.000000 1.000000
v 0.760725 4.289898 -0.709275 0.000000 0.000000 1.000000 1.000000
v 0.717896 4.324375 -0.760981 0.000000 0.000000 1.000000 1.000000
v 0.684763 4.249605 0.632593 0.000000 0.000000 1.000000 1.000000
v 0.638066 4.249601 0.679289 0.000000 0.000000 1.000000 1.000000
v 0.626150 4.216230 0.673099 0.000000 0.000000 1.000000 1.000000
v 0.712427 4.271415 -0.653871 0.074510 0.074510 1.000000 1.000000
v 0.672846 4.216230 0.626402 0.000000 0.000000 1.000000 1.000000
v 0.568101 4.175782 0.603436 0.109804 0.109804 1.000000 1.000000
v 0.616392 4.175782 0.555146 0.062745 0.062745 1.000000 1.000000
v 0.684763 4.248600 -0.638373 0.200000 0.200000 1.000000 1.000000
v 0.672846 4.206433 -0.630785 0.396078 0.396078 1.000000 1.000000
v 0.616391 4.172055 -0.575857 0.835294 0.835294 1.000000 1.000000
v 0.626150 4.206433 -0.677482 0.317647 0.317647 1.000000 1.000000
v 0.568101 4.172055 -0.624148 0.752941 0.752941 1.000000 1.000000
v 0.665731 4.271415 -0.700567 0.011765 0.011765 1.000000 1.000000
v 0.638066 4.248600 -0.685069 0.121569 0.121569 1.000000 1.000000
v -0.629344 4.197402 -0.677482 1.000000 1.000000 1.000000 1.000000
v -0.578143 4.161729 -0.624148 1.000000 1.000000 1.000000 1.000000
v -0.637093 4.243249 -0.685069 0.517647 0.517647 1.000000 1.000000
v -0.676041 4.197402 -0.630785 1.000000 1.000000 1.000000 1.000000
v -0.626433 4.161729 -0.575857 1.000000 1.000000 1.000000 1.000000
v -0.626434 4.165456 0.555146 0.427451 0.427451 1.000000 1.000000
v -0.658711 4.260913 -0.700237 0.156863 0.156863 1.000000 1.000000
v -0.683789 4.243246 -0.638373 0.807843 0.807843 1.000000 1.000000
v -0.676041 4.207200 0.626402 0.019608 0.019608 1.000000 1.000000
v -0.578143 4.165456 0.603437 0.431373 0.431373 1.000000 1.000000
v 0.713899 4.289898 -0.756100 0.000000 0.000000 1.000000 1.000000
v -0.629344 4.207200 0.673099 0.082353 0.082353 1.000000 1.000000
v 0.568101 4.175782 0.603436 0.109804 0.109804 1.000000 1.000000
v 0.626150 4.216230 0.673099 0.000000 0.000000 1.000000 1.000000
v -0.637093 4.244529 0.679289 0.000000 0.000000 1.000000 1.000000
v 0.638066 4.249601 0.679289 0.000000 0.000000 1.000000 1.000000
v 0.665808 4.272423 0.698687 0.000000 0.000000 1.000000 1.000000
v -0.683789 4.244529 0.632593 0.000000 0.000000 1.000000 1.000000
v -0.659059 4.262051 0.698602 0.000000 0.000000 1.000000 1.000000
v 0.714394 4.297146 0.763155 0.000000 0.000000 1.000000 1.000000
v -0.705841 4.260905 -0.653948 0.313726 0.313726 1.000000 1.000000
v -0.705755 4.262051 0.651905 0.000000 0.000000 1.000000 1.000000
v -0.720591 4.298518 0.763173 0.000000 0.000000 1.000000 1.000000
v -0.759588 4.286092 -0.709769 0.000000 0.000000 1.000000 1.000000
v -0.759606 4.293311 0.716347 0.000000 0.000000 1.000000 1.000000
v -0.720123 4.291297 -0.756170 0.000000 0.000000 1.000000 1.000000
v -0.762966 4.325649 -0.714155 0.000000 0.000000 1.000000 1.000000
v -0.716141 4.325647 -0.760981 0.000000 0.000000 1.000000 1.000000
v -0.762966 4.325601 0.720394 0.000000 0.000000 1.000000 1.000000
v 0.724690 4.347177 -0.782113 0.000000 0.000000 1.000000 1.000000
v -0.744948 4.355392 -0.782198 0.000000 0.000000 1.000000 1.000000
v -0.812544 4.382920 -0.858252 0.000000 0.000000 1.000000 1.000000
v -0.791397 4.351498 -0.734976 0.000000 0.000000 1.000000 1.000000
v -0.816269 4.483792 -0.858920 0.000000 0.000000 1.000000 1.000000
v -0.858371 4.382919 -0.811636 0.000000 0.000000 1.000000 1.000000
v -0.791715 4.349429 0.733179 0.000000 0.000000 1.000000 1.000000
v -0.862481 4.483792 -0.812708 0.000000 0.000000 1.000000 1.000000
v -0.858305 4.382891 0.812600 0.000000 0.000000 1.000000 1.000000
v -0.744889 4.353328 0.780004 0.000000 0.000000 1.000000 1.000000
v -0.716141 4.325601 0.767219 0.000000 0.000000 1.000000 1.000000
v 0.717896 4.324074 0.767219 0.000000 0.000000 1.000000 1.000000
v 0.724378 4.345011 0.779686 0.000000 0.000000 1.000000 1.000000
v -0.812093 4.382891 0.858812 0.000000 0.000000 1.000000 1.000000
v 0.814088 4.390953 0.858878 0.000000 0.000000 1.000000 1.000000
v -0.816269 4.483792 0.862479 0.000000 0.000000 1.000000 1.000000
v 0.817496 4.487746 0.862479 0.000000 0.000000 1.000000 1.000000
v 0.583288 4.489766 0.629761 0.000000 0.000000 1.000000 1.000000
v -0.862481 4.483792 0.816267 0.000000 0.000000 1.000000 1.000000
v -0.583287 4.489766 0.629761 0.000000 0.000000 1.000000 1.000000
v 0.566340 4.813807 0.618506 0.000000 0.000000 1.000000 1.000000
v -0.629762 4.489766 0.583285 0.000000 0.000000 1.000000 1.000000
v -0.572259 4.818855 0.618506 0.000000 0.000000 1.000000 1.000000
v 0.435283 4.928200 0.492610 0.000000 0.000000 1.000000 1.000000
v -0.629762 4.489766 -0.583289 0.000000 0.000000 1.000000 1.000000
v -0.618507 4.818855 0.572257 0.000000 0.000000 1.000000 1.000000
v -0.443355 4.930353 0.492610 0.000000 0.000000 1.000000 1.000000
v -0.344059 5.031497 0.393543 0.000000 0.000000 1.000000 1.000000
v 0.339396 5.031497 0.393543 0.000000 0.000000 1.000000 1.000000
v -0.492613 4.930353 0.443352 0.000000 0.000000 1.000000 1.000000
v -0.618507 4.818855 -0.577739 0.000000 0.000000 1.000000 1.000000
v -0.492613 4.930353 -0.439026 0.000000 0.000000 1.000000 1.000000
v -0.393546 5.031497 0.344056 0.000000 0.000000 1.000000 1.000000
v -0.269611 5.149324 0.314726 0.000000 0.000000 1.000000 1.000000
v 0.266704 5.149324 0.314726 0.000000 0.000000 1.000000 1.000000
v 0.254301 5.203107 0.298983 0.000000 0.000000 1.000000 1.000000
v -0.393546 5.031497 -0.340692 0.000000 0.000000 1.000000 1.000000
v -0.258596 5.203272 0.298983 0.000000 0.000000 1.000000 1.000000
v 0.259007 5.234000 0.314599 0.000000 0.000000 1.000000 1.000000
v -0.317636 5.149324 0.266701 0.000000 0.000000 1.000000 1.000000
v -0.269210 5.234837 0.314600 0.000000 0.000000 1.000000 1.000000
v 0.283786 5.252239 0.337563 0.000000 0.000000 1.000000 1.000000
v -0.304218 5.203272 0.253360 0.000000 0.000000 1.000000 1.000000
v -0.296402 5.257304 0.337563 0.000000 0.000000 1.000000 1.000000
v -0.317636 5.149324 -0.271492 0.000000 0.000000 1.000000 1.000000
v -0.314615 5.234837 0.269196 0.000000 0.000000 1.000000 1.000000
v -0.304218 5.203271 -0.265872 0.000000 0.000000 1.000000 1.000000
v -0.314614 5.234837 -0.273334 0.000000 0.000000 1.000000 1.000000
v -0.342025 5.257304 0.291940 0.000000 0.000000 1.000000 1.000000
v -0.313874 5.297039 0.353096 0.000000 0.000000 1.000000 1.000000
v 0.302382 5.289673 0.353096 0.000000 0.000000 1.000000 1.000000
v -0.359496 5.297039 0.307474 0.000000 0.000000 1.000000 1.000000
v -0.329599 5.313810 0.368821 0.000000 0.000000 1.000000 1.000000
v 0.321990 5.306445 0.368821 0.000000 0.000000 1.000000 1.000000
v 0.321585 5.355631 0.368821 0.000000 0.000000 1.000000 1.000000
v -0.331417 5.358609 0.368525 0.000000 0.000000 1.000000 1.000000
v -0.375221 5.313810 0.323199 0.000000 0.000000 1.000000 1.000000
v -0.376741 5.358560 0.323038 0.000000 0.000000 1.000000 1.000000
v -0.375221 5.313810 -0.323209 0.000000 0.000000 1.000000 1.000000
v -0.376742 5.358575 -0.323209 0.000000 0.000000 1.000000 1.000000
v -0.359496 5.297365 -0.312595 0.000000 0.000000 1.000000 1.000000
v -0.342025 5.259805 -0.297062 0.000000 0.000000 1.000000 1.000000
v -0.296402 5.259805 -0.342684 0.000000 0.000000 1.000000 1.000000
v -0.269210 5.234837 -0.318739 0.000000 0.000000 1.000000 1.000000
v -0.258596 5.203271 -0.311494 0.000000 0.000000 1.000000 1.000000
v 0.259007 5.234000 -0.318739 0.000000 0.000000 1.000000 1.000000
v -0.269611 5.149324 -0.319517 0.000000 0.000000 1.000000 1.000000
v 0.254301 5.203107 -0.311494 0.000000 0.000000 1.000000 1.000000
v 0.299923 5.203107 -0.265872 0.000000 0.000000 1.000000 1.000000
v 0.266704 5.149324 -0.319517 0.000000 0.000000 1.000000 1.000000
v -0.344059 5.031497 -0.390179 0.000000 0.000000 1.000000 1.000000
v 0.435283 4.928200 -0.488284 0.000000 0.000000 1.000000 1.000000
v -0.443354 4.930353 -0.488284 0.000000 0.000000 1.000000 1.000000
v -0.572259 4.818855 -0.623987 0.000000 0.000000 1.000000 1.000000
v 0.566340 4.813807 -0.623987 0.000000 0.000000 1.000000 1.000000
v -0.583287 4.489766 -0.629764 0.000000 0.000000 1.000000 1.000000
v 0.583288 4.489766 -0.629764 0.000000 0.000000 1.000000 1.000000
v 0.315387 5.368832 -0.365945 0.000000 0.000000 1.000000 1.000000
v -0.331375 5.358608 -0.378743 0.000000 0.000000 1.000000 1.000000
v 0.321588 5.355639 -0.379055 0.000000 0.000000 1.000000 1.000000
v 0.367292 5.355663 -0.323229 0.000000 0.000000 1.000000 1.000000
v -0.325254 5.371871 -0.365731 0.000000 0.000000 1.000000 1.000000
v -0.376742 5.358575 -0.323209 0.000000 0.000000 1.000000 1.000000
v -0.363793 5.371888 -0.318430 0.000000 0.000000 1.000000 1.000000
v 0.354142 5.368805 -0.318543 0.000000 0.000000 1.000000 1.000000
v -0.363803 5.371888 0.317651 0.000000 0.000000 1.000000 1.000000
v -0.376741 5.358560 0.323038 0.000000 0.000000 1.000000 1.000000
v 0.354151 5.368805 0.317783 0.000000 0.000000 1.000000 1.000000
v 0.367308 5.355673 0.323199 0.000000 0.000000 1.000000 1.000000
v 0.321585 5.355631 0.368821 0.000000 0.000000 1.000000 1.000000
v -0.326043 5.371853 0.355469 0.000000 0.000000 1.000000 1.000000
v -0.331417 5.358609 0.368525 0.000000 0.000000 1.000000 1.000000
v 0.316171 5.368829 0.355704 0.000000 0.000000 1.000000 1.000000
v 0.757856 0.205988 0.735097 0.000000 1.000000 0.000000 1.000000
v 0.711876 -0.001372 0.761045 0.000000 1.000000 0.000000 1.000000
v 0.711650 0.205966 0.781322 0.000000 1.000000 0.000000 1.000000
v 0.758089 -0.001372 0.714831 0.000000 1.000000 0.000000 1.000000
v 0.613668 0.331554 0.665158 0.000000 1.000000 0.000000 1.000000
v 0.757854 0.206003 -0.710392 0.000000 1.000000 0.000000 1.000000
v 0.758089 -0.001372 -0.711876 0.000000 1.000000 0.000000 1.000000
v 0.661667 0.331554 0.617159 0.000000 1.000000 0.000000 1.000000
v 0.563569 0.419238 0.611541 0.000000 1.000000 0.000000 1.000000
v 0.711640 0.206003 -0.756605 0.000000 1.000000 0.000000 1.000000
v 0.711876 -0.001372 -0.758089 0.000000 1.000000 0.000000 1.000000
v 0.661667 0.331554 -0.609301 0.000000 1.000000 0.000000 1.000000
v -0.713310 0.201932 -0.756607 0.000000 1.000000 0.000000 1.000000
v -0.714829 -0.001372 -0.758089 0.000000 1.000000 0.000000 1.000000
v 0.613668 0.331554 -0.657300 0.000000 1.000000 0.000000 1.000000
v -0.609303 0.332490 -0.657300 0.000000 1.000000 0.000000 1.000000
v -0.759536 0.201910 -0.710402 0.000000 1.000000 0.000000 1.000000
v -0.761043 -0.001372 -0.711876 0.000000 1.000000 0.000000 1.000000
v -0.761043 -0.001372 0.714831 0.000000 1.000000 0.000000 1.000000
v -0.657301 0.332490 -0.609301 0.000000 1.000000 0.000000 1.000000
v -0.759538 0.201895 0.735111 0.000000 1.000000 0.000000 1.000000
v -0.714829 -0.001372 0.761045 0.000000 1.000000 0.000000 1.000000
v -0.657301 0.332490 0.617159 0.000000 1.000000 0.000000 1.000000
v -0.713324 0.201895 0.781324 0.000000 1.000000 0.000000 1.000000
v 0.711876 -0.001372 0.761045 0.000000 1.000000 0.000000 1.000000
v 0.711650 0.205966 0.781322 0.000000 1.000000 0.000000 1.000000
v -0.609303 0.332490 0.665158 0.000000 1.000000 0.000000 1.000000
v 0.613668 0.331554 0.665158 0.000000 1.000000 0.000000 1.000000
v 0.563569 0.419238 0.611541 0.000000 1.000000 0.000000 1.000000
v -0.563572 0.419238 0.611541 0.000000 1.000000 0.000000 1.000000
v 0.547073 0.652847 0.593641 0.000000 1.000000 0.000000 1.000000
v -0.611542 0.419238 0.563571 0.000000 1.000000 0.000000 1.000000
v -0.547076 0.652847 0.593641 0.000000 1.000000 0.000000 1.000000
v -0.611542 0.419238 -0.563569 0.000000 1.000000 0.000000 1.000000
v -0.549971 1.151552 0.594454 0.000000 1.000000 0.000000 1.000000
v 0.549968 1.151552 0.594454 0.000000 1.000000 0.000000 1.000000
v -0.593642 0.652847 0.547075 0.000000 1.000000 0.000000 1.000000
v -0.552867 1.650257 0.595268 0.000000 1.000000 0.000000 1.000000
v 0.552864 1.650257 0.595268 0.000000 1.000000 0.000000 1.000000
v -0.596783 1.151552 0.547642 0.000000 1.000000 0.000000 1.000000
v -0.593642 0.652847 -0.547073 0.000000 1.000000 0.000000 1.000000
v -0.563572 0.419238 -0.611538 0.000000 1.000000 0.000000 1.000000
v -0.596783 1.151552 -0.549968 0.000000 1.000000 0.000000 1.000000
v 0.563569 0.419238 -0.611538 0.000000 1.000000 0.000000 1.000000
v -0.547076 0.652847 -0.593638 0.000000 1.000000 0.000000 1.000000
v -0.549971 1.151552 -0.596780 0.000000 1.000000 0.000000 1.000000
v 0.547073 0.652847 -0.593638 0.000000 1.000000 0.000000 1.000000
v 0.549968 1.151552 -0.596780 0.000000 1.000000 0.000000 1.000000
v 0.611539 0.419238 -0.563569 0.000000 1.000000 0.000000 1.000000
v 0.593639 0.652847 -0.547073 0.000000 1.000000 0.000000 1.000000
v 0.611539 0.419238 0.563571 0.000000 1.000000 0.000000 1.000000
v 0.593639 0.652847 0.547075 0.000000 1.000000 0.000000 1.000000
v 0.547073 0.652847 0.593641 0.000000 1.000000 0.000000 1.000000
v 0.549968 1.151552 0.594454 0.000000 1.000000 0.000000 1.000000
v 0.596781 1.151552 0.547642 0.000000 1.000000 0.000000 1.000000
v 0.552864 1.650257 0.595268 0.000000 1.000000 0.000000 1.000000
v 0.596781 1.151552 -0.549968 0.000000 1.000000 0.000000 1.000000
v 0.599922 1.650257 0.548210 0.000000 1.000000 0.000000 1.000000
v 0.603064 2.148962 0.548777 0.000000 0.000000 1.000000 1.000000
v 0.555759 2.148962 0.596082 0.000000 0.000000 1.000000 1.000000
v 0.599922 1.650257 -0.552863 0.000000 1.000000 0.000000 1.000000
v 0.606206 2.647666 0.549344 0.000000 0.000000 1.000000 1.000000
v 0.558654 2.647666 0.596896 0.000000 0.000000 1.000000 1.000000
v 0.603064 2.148962 -0.555758 0.000000 0.000000 1.000000 1.000000
v 0.552864 1.650257 -0.599922 0.000000 1.000000 0.000000 1.000000
v 0.609347 3.146371 0.549912 0.000000 0.000000 1.000000 1.000000
v 0.561550 3.146371 0.597710 0.000000 0.000000 1.000000 1.000000
v -0.552867 1.650257 -0.599922 0.000000 0.101961 0.898039 1.000000
v 0.555759 2.148962 -0.603064 0.000000 0.000000 1.000000 1.000000
v 0.606206 2.647666 -0.558654 0.000000 0.000000 1.000000 1.000000
v -0.555762 2.148962 -0.603064 0.000000 0.000000 1.000000 1.000000
v 0.558654 2.647666 -0.606205 0.000000 0.000000 1.000000 1.000000
v 0.609347 3.146371 -0.561549 0.000000 0.000000 1.000000 1.000000
v 0.612489 3.645076 0.550479 1.000000 1.000000 1.000000 1.000000
v 0.564445 3.645076 0.598523 1.000000 1.000000 1.000000 1.000000
v 0.561550 3.146371 -0.609347 0.000000 0.000000 1.000000 1.000000
v 0.615631 4.143781 0.551046 0.196078 0.196078 1.000000 1.000000
v 0.567340 4.143781 0.599337 0.349020 0.349020 1.000000 1.000000
v 0.612489 3.645076 -0.564444 1.000000 1.000000 1.000000 1.000000
v 0.615631 4.143781 -0.567340 1.000000 1.000000 1.000000 1.000000
v 0.564445 3.645076 -0.612489 1.000000 1.000000 1.000000 1.000000
v 0.567340 4.143781 -0.615631 1.000000 1.000000 1.000000 1.000000
v -0.561552 3.146371 -0.609347 1.000000 1.000000 1.000000 1.000000
v -0.567343 4.143781 -0.615631 1.000000 1.000000 1.000000 1.000000
v -0.564448 3.645076 -0.612489 1.000000 1.000000 1.000000 1.000000
v -0.615634 4.143781 -0.567340 1.000000 1.000000 1.000000 1.000000
v -0.612492 3.645076 -0.564444 1.000000 1.000000 1.000000 1.000000
v -0.615634 4.143781 0.551046 0.603922 0.603922 1.000000 1.000000
v -0.609350 3.146371 -0.561549 1.000000 1.000000 1.000000 1.000000
v -0.567343 4.143781 0.599337 0.631373 0.631373 1.000000 1.000000
v 0.567340 4.143781 0.599337 0.349020 0.349020 1.000000 1.000000
v -0.612492 3.645076 0.550479 1.000000 1.000000 1.000000 1.000000
v -0.564448 3.645076 0.598523 1.000000 1.000000 1.000000 1.000000
v 0.564445 3.645076 0.598523 1.000000 1.000000 1.000000 1.000000
v 0.561550 3.146371 0.597710 0.000000 0.000000 1.000000 1.000000
v -0.561552 3.146371 0.597710 1.000000 1.000000 1.000000 1.000000
v 0.558654 2.647666 0.596896 0.000000 0.000000 1.000000 1.000000
v -0.609350 3.146371 0.549912 1.000000 1.000000 1.000000 1.000000
v -0.558657 2.647666 0.596896 1.000000 1.000000 1.000000 1.000000
v -0.606209 2.647666 0.549344 1.000000 1.000000 1.000000 1.000000
v -0.606209 2.647666 -0.558654 0.000000 0.000000 1.000000 1.000000
v -0.555762 2.148962 0.596082 0.000000 0.000000 1.000000 1.000000
v 0.555759 2.148962 0.596082 0.000000 0.000000 1.000000 1.000000
v -0.603067 2.148962 0.548777 0.000000 0.000000 1.000000 1.000000
v -0.599925 1.650257 0.548210 0.000000 1.000000 0.000000 1.000000
v -0.603067 2.148962 -0.555758 0.000000 0.000000 1.000000 1.000000
v -0.599925 1.650257 -0.552863 0.000000 0.623529 0.376471 1.000000
v -0.558657 2.647666 -0.606205 0.000000 0.000000 1.000000 1.000000
vt 0.611328 0.101562
vt 0.763184 0.088379
vt 0.747559 0.104980
vt 0.611328 0.086426
vt 0.481934 0.104980
vt 0.611816 0.081055
vt 0.763184 0.084961
vt 0.763672 0.065430
vt 0.481934 0.090332
vt 0.353760 0.107910
vt 0.609375 0.081543
vt 0.610840 0.064453
vt 0.764160 0.059570
vt 0.607910 0.063477
vt 0.609375 0.058594
vt 0.749023 0.042480
vt 0.610840 0.043457
vt 0.483643 0.065430
vt 0.482910 0.060547
vt 0.483154 0.045410
vt 0.483398 0.085449
vt 0.480469 0.085938
vt 0.481201 0.065918
vt 0.353760 0.062988
vt 0.353760 0.048340
vt 0.215942 0.045898
vt 0.200439 0.062012
vt 0.354492 0.068359
vt 0.356689 0.086914
vt 0.352783 0.068848
vt 0.355469 0.092773
vt 0.215210 0.111328
vt 0.199341 0.094238
vt 0.353516 0.086426
vt 0.200195 0.087891
vt 0.194580 0.089844
vt 0.200317 0.068359
vt 0.194214 0.067871
vt 0.654785 0.915466
vt 0.664062 0.909790
vt 0.663574 0.916443
vt 0.656738 0.909485
vt 0.574707 0.883606
vt 0.573242 0.889771
vt 0.655762 0.905762
vt 0.664062 0.905884
vt 0.569336 0.888855
vt 0.663574 0.900635
vt 0.570801 0.882690
vt 0.576172 0.880676
vt 0.655762 0.900146
vt 0.476318 0.875610
vt 0.475830 0.881348
vt 0.569336 0.879211
vt 0.578125 0.875977
vt 0.654297 0.895508
vt 0.662598 0.896729
vt 0.581543 0.872437
vt 0.653809 0.891052
vt 0.661621 0.894043
vt 0.665039 0.890320
vt 0.568359 0.874390
vt 0.658691 0.885010
vt 0.478027 0.872314
vt 0.677246 0.872314
vt 0.682617 0.879578
vt 0.585938 0.861572
vt 0.699219 0.859497
vt 0.704102 0.866821
vt 0.731445 0.847168
vt 0.591309 0.843384
vt 0.596680 0.825195
vt 0.725098 0.842041
vt 0.752441 0.804443
vt 0.578613 0.841553
vt 0.745605 0.799072
vt 0.787109 0.775757
vt 0.599609 0.803467
vt 0.780762 0.770996
vt 0.615723 0.765137
vt 0.616699 0.735840
vt 0.783691 0.757568
vt 0.791504 0.758301
vt 0.612305 0.733887
vt 0.778809 0.741943
vt 0.787598 0.740234
vt 0.619141 0.724854
vt 0.778320 0.738525
vt 0.786621 0.737061
vt 0.786133 0.733154
vt 0.619629 0.715332
vt 0.778320 0.734375
vt 0.621582 0.712646
vt 0.781250 0.722412
vt 0.614258 0.722900
vt 0.772949 0.725098
vt 0.621582 0.708496
vt 0.618164 0.709961
vt 0.771973 0.719727
vt 0.780273 0.717285
vt 0.780273 0.712646
vt 0.625977 0.702637
vt 0.772461 0.714355
vt 0.774902 0.701660
vt 0.766113 0.702881
vt 0.626465 0.698242
vt 0.625488 0.692871
vt 0.628418 0.685303
vt 0.619141 0.691406
vt 0.617188 0.683838
vt 0.618652 0.699463
vt 0.617676 0.696045
vt 0.480469 0.681885
vt 0.482178 0.674561
vt 0.482178 0.687744
vt 0.474609 0.680908
vt 0.472412 0.674316
vt 0.337891 0.680176
vt 0.481201 0.690430
vt 0.472900 0.686035
vt 0.334961 0.688477
vt 0.327393 0.680420
vt 0.619629 0.706055
vt 0.328613 0.689941
vt 0.186768 0.696289
vt 0.181396 0.708740
vt 0.327881 0.694336
vt 0.180786 0.713867
vt 0.178345 0.718750
vt 0.336914 0.693115
vt 0.329102 0.697266
vt 0.174438 0.729492
vt 0.472900 0.689209
vt 0.336914 0.696533
vt 0.331299 0.705566
vt 0.475098 0.695557
vt 0.334473 0.704346
vt 0.479248 0.696533
vt 0.473877 0.699951
vt 0.480957 0.700928
vt 0.335693 0.708252
vt 0.617188 0.713379
vt 0.478760 0.707031
vt 0.479736 0.714111
vt 0.474365 0.704102
vt 0.478760 0.726318
vt 0.474365 0.712158
vt 0.336182 0.712891
vt 0.474121 0.723877
vt 0.337891 0.721191
vt 0.332764 0.714111
vt 0.331055 0.708740
vt 0.174805 0.733398
vt 0.174683 0.737061
vt 0.332275 0.721924
vt 0.167847 0.751953
vt 0.333984 0.732666
vt 0.170654 0.765869
vt 0.205078 0.792725
vt 0.338867 0.733154
vt 0.334229 0.761963
vt 0.224976 0.836548
vt 0.346191 0.760132
vt 0.348633 0.800781
vt 0.250977 0.853760
vt 0.469727 0.754395
vt 0.353271 0.800781
vt 0.352783 0.822510
vt 0.357422 0.840332
vt 0.272705 0.868164
vt 0.362305 0.820679
vt 0.473389 0.794189
vt 0.469482 0.816406
vt 0.369873 0.839111
vt 0.362793 0.859009
vt 0.291260 0.881836
vt 0.295898 0.887695
vt 0.467529 0.833862
vt 0.364502 0.866577
vt 0.297119 0.891846
vt 0.378174 0.857300
vt 0.366455 0.870850
vt 0.294922 0.896240
vt 0.381104 0.864258
vt 0.369873 0.874268
vt 0.466064 0.851440
vt 0.380127 0.868530
vt 0.466309 0.858521
vt 0.466797 0.862671
vt 0.378906 0.873169
vt 0.372070 0.879211
vt 0.294189 0.901794
vt 0.378906 0.878723
vt 0.374268 0.881653
vt 0.292725 0.905334
vt 0.294678 0.911316
vt 0.375488 0.887207
vt 0.377686 0.881775
vt 0.378662 0.887451
vt 0.471436 0.875183
vt 0.471436 0.880920
vt 0.470459 0.872437
vt 0.469238 0.867310
vt 0.479492 0.867310
vt 0.482422 0.863037
vt 0.483643 0.859009
vt 0.566895 0.870239
vt 0.482910 0.851929
vt 0.567383 0.866211
vt 0.583496 0.868652
vt 0.570312 0.859375
vt 0.480713 0.834473
vt 0.586426 0.824707
vt 0.479492 0.815918
vt 0.477539 0.794922
vt 0.595703 0.802002
vt 0.481201 0.753784
vt 0.603516 0.763794
vt 0.045380 0.033691
vt 0.043121 0.115234
vt 0.043060 0.032715
vt 0.050659 0.026367
vt 0.045441 0.114258
vt 0.050720 0.121094
vt 0.051361 0.118652
vt 0.051300 0.028809
vt 0.130737 0.118652
vt 0.131470 0.120605
vt 0.130859 0.028809
vt 0.131592 0.026367
vt 0.137939 0.032715
vt 0.135498 0.113770
vt 0.137817 0.114746
vt 0.135620 0.033691
vt 0.812012 0.187500
vt 0.821777 0.162109
vt 0.819336 0.190430
vt 0.813477 0.161133
vt 0.802246 0.210449
vt 0.641602 0.167969
vt 0.645020 0.141602
vt 0.794922 0.205566
vt 0.794434 0.220215
vt 0.638184 0.167969
vt 0.638184 0.141602
vt 0.643555 0.188477
vt 0.482178 0.165039
vt 0.483643 0.138672
vt 0.633301 0.188477
vt 0.485596 0.186035
vt 0.479004 0.165039
vt 0.477783 0.138672
vt 0.323975 0.139160
vt 0.475342 0.186035
vt 0.322021 0.165527
vt 0.316406 0.138672
vt 0.327881 0.187500
vt 0.319336 0.164062
vt 0.147705 0.156738
vt 0.151245 0.183105
vt 0.317627 0.187500
vt 0.166260 0.203125
vt 0.174438 0.214844
vt 0.318115 0.200684
vt 0.180420 0.242188
vt 0.330566 0.200195
vt 0.322021 0.231445
vt 0.474121 0.198242
vt 0.322754 0.295410
vt 0.181274 0.306641
vt 0.330811 0.231445
vt 0.323486 0.359375
vt 0.182129 0.370605
vt 0.331543 0.294922
vt 0.475830 0.228516
vt 0.486572 0.198730
vt 0.475342 0.291992
vt 0.630859 0.201172
vt 0.484863 0.228516
vt 0.484375 0.291992
vt 0.630371 0.231934
vt 0.628906 0.295898
vt 0.643555 0.201660
vt 0.639160 0.232422
vt 0.786133 0.217285
vt 0.780762 0.245117
vt 0.789062 0.245605
vt 0.787109 0.310059
vt 0.778320 0.309570
vt 0.785156 0.375000
vt 0.637695 0.296875
vt 0.776367 0.374512
vt 0.774414 0.439453
vt 0.782715 0.439453
vt 0.635742 0.360840
vt 0.772461 0.503906
vt 0.780762 0.504150
vt 0.634277 0.424805
vt 0.626953 0.360352
vt 0.770508 0.568604
vt 0.778809 0.568848
vt 0.483887 0.355469
vt 0.625488 0.424316
vt 0.632812 0.489258
vt 0.483643 0.418945
vt 0.624023 0.488281
vt 0.631348 0.553223
vt 0.768066 0.633301
vt 0.776855 0.633545
vt 0.622559 0.552490
vt 0.766113 0.697998
vt 0.774902 0.698242
vt 0.629883 0.617432
vt 0.628418 0.681641
vt 0.621094 0.616699
vt 0.619141 0.680664
vt 0.482910 0.545410
vt 0.482178 0.672363
vt 0.482422 0.608887
vt 0.472900 0.672119
vt 0.473389 0.608643
vt 0.336426 0.677490
vt 0.473877 0.545410
vt 0.327148 0.677979
vt 0.186157 0.691650
vt 0.335693 0.613525
vt 0.326416 0.614258
vt 0.185303 0.627441
vt 0.184570 0.563232
vt 0.325684 0.550537
vt 0.183716 0.499023
vt 0.334717 0.549805
vt 0.324951 0.486816
vt 0.333984 0.486328
vt 0.474121 0.481934
vt 0.324219 0.422852
vt 0.182861 0.435059
vt 0.333252 0.422363
vt 0.332275 0.358887
vt 0.474609 0.418945
vt 0.475098 0.355469
vt 0.483154 0.482422
vt1 0.842285 0.783813
vt1 0.859375 0.994083
vt1 0.837402 0.972580
vt1 0.862305 0.783813
vt1 0.837402 0.604736
vt1 0.869629 0.784912
vt1 0.864258 0.994385
vt1 0.890625 0.994907
vt1 0.857422 0.604736
vt1 0.833496 0.427246
vt1 0.869141 0.781372
vt1 0.892090 0.783569
vt1 0.898438 0.996033
vt1 0.893066 0.779419
vt1 0.899902 0.781372
vt1 0.921387 0.974564
vt1 0.919922 0.783569
vt1 0.890625 0.606934
vt1 0.896973 0.605957
vt1 0.917480 0.606201
vt1 0.863770 0.606689
vt1 0.862793 0.602539
vt1 0.890137 0.603271
vt1 0.893555 0.426758
vt1 0.913574 0.426758
vt1 0.916992 0.235840
vt1 0.895020 0.214355
vt1 0.886719 0.428223
vt1 0.861816 0.431152
vt1 0.885742 0.425293
vt1 0.853516 0.429199
vt1 0.829102 0.234863
vt1 0.851562 0.212891
vt1 0.862305 0.426758
vt1 0.860352 0.214355
vt1 0.857422 0.206055
vt1 0.886230 0.214355
vt1 0.887207 0.205566
vt1 0.650391 0.994808
vt1 0.662598 0.987534
vt1 0.661621 0.996033
vt1 0.652832 0.987152
vt1 0.548340 0.954193
vt1 0.546875 0.962036
vt1 0.651855 0.982407
vt1 0.662109 0.982605
vt1 0.541504 0.960876
vt1 0.661621 0.975876
vt1 0.543457 0.953033
vt1 0.550293 0.950409
vt1 0.651855 0.975250
vt1 0.422852 0.943970
vt1 0.422363 0.951263
vt1 0.541504 0.948547
vt1 0.553223 0.944427
vt1 0.649902 0.969360
vt1 0.660645 0.970886
vt1 0.557129 0.939911
vt1 0.649414 0.963684
vt1 0.659180 0.967468
vt1 0.663574 0.962769
vt1 0.540527 0.942322
vt1 0.655762 0.955963
vt1 0.425049 0.939789
vt1 0.679688 0.939667
vt1 0.686035 0.949066
vt1 0.562500 0.926086
vt1 0.707031 0.923462
vt1 0.713379 0.932678
vt1 0.748047 0.907715
vt1 0.569824 0.902832
vt1 0.576172 0.879761
vt1 0.740234 0.901123
vt1 0.774902 0.853271
vt1 0.553711 0.900574
vt1 0.766113 0.846436
vt1 0.818848 0.816650
vt1 0.580078 0.852051
vt1 0.811035 0.810669
vt1 0.600586 0.803101
vt1 0.602051 0.765625
vt1 0.814941 0.793457
vt1 0.824707 0.794434
vt1 0.596191 0.763062
vt1 0.808594 0.773315
vt1 0.819824 0.771240
vt1 0.605469 0.751587
vt1 0.808105 0.768921
vt1 0.818848 0.767090
vt1 0.818359 0.762207
vt1 0.605957 0.739746
vt1 0.808105 0.763916
vt1 0.608398 0.736328
vt1 0.812012 0.748779
vt1 0.599121 0.749268
vt1 0.801270 0.752075
vt1 0.608398 0.730713
vt1 0.603516 0.732666
vt1 0.799805 0.745117
vt1 0.810547 0.742188
vt1 0.810059 0.736084
vt1 0.613770 0.723389
vt1 0.800293 0.738281
vt1 0.803711 0.721924
vt1 0.791992 0.723633
vt1 0.614258 0.718018
vt1 0.613281 0.710938
vt1 0.617188 0.701172
vt1 0.604980 0.708984
vt1 0.602539 0.699463
vt1 0.604492 0.719238
vt1 0.603027 0.715088
vt1 0.428223 0.697021
vt1 0.430420 0.687744
vt1 0.430420 0.704346
vt1 0.420654 0.695557
vt1 0.417969 0.687500
vt1 0.246338 0.694824
vt1 0.429199 0.707764
vt1 0.418457 0.702148
vt1 0.242554 0.705322
vt1 0.232910 0.695312
vt1 0.605469 0.727539
vt1 0.234741 0.707031
vt1 0.053741 0.715332
vt1 0.046936 0.731201
vt1 0.233643 0.712891
vt1 0.046143 0.737793
vt1 0.042969 0.743896
vt1 0.245117 0.711182
vt1 0.235229 0.716309
vt1 0.038055 0.757568
vt1 0.418457 0.706055
vt1 0.245117 0.715576
vt1 0.238159 0.727051
vt1 0.421387 0.714355
vt1 0.242188 0.725586
vt1 0.426514 0.715576
vt1 0.419922 0.719971
vt1 0.428711 0.721191
vt1 0.243774 0.730713
vt1 0.602539 0.737305
vt1 0.426270 0.729004
vt1 0.427246 0.738037
vt1 0.420410 0.725342
vt1 0.425781 0.753662
vt1 0.420654 0.735596
vt1 0.244385 0.736572
vt1 0.420166 0.750488
vt1 0.246582 0.747070
vt1 0.239868 0.738281
vt1 0.237915 0.731201
vt1 0.038452 0.762695
vt1 0.038391 0.767334
vt1 0.239258 0.747803
vt1 0.029602 0.786377
vt1 0.241577 0.761719
vt1 0.033234 0.804077
vt1 0.077087 0.838257
vt1 0.247803 0.762329
vt1 0.241943 0.799072
vt1 0.102478 0.894104
vt1 0.257080 0.796753
vt1 0.260254 0.848511
vt1 0.135498 0.916138
vt1 0.414551 0.789429
vt1 0.266113 0.848511
vt1 0.265137 0.876282
vt1 0.271484 0.899048
vt1 0.163208 0.934387
vt1 0.277588 0.874023
vt1 0.419189 0.840210
vt1 0.414307 0.868408
vt1 0.287354 0.897461
vt1 0.278076 0.922852
vt1 0.187134 0.951904
vt1 0.192993 0.959351
vt1 0.411621 0.890686
vt1 0.280518 0.932373
vt1 0.194336 0.964691
vt1 0.297607 0.920593
vt1 0.282959 0.937866
vt1 0.191895 0.970261
vt1 0.301514 0.929443
vt1 0.287354 0.942169
vt1 0.409912 0.913086
vt1 0.300293 0.934937
vt1 0.410156 0.922241
vt1 0.410889 0.927551
vt1 0.298828 0.940857
vt1 0.290039 0.948578
vt1 0.190918 0.977341
vt1 0.298828 0.947937
vt1 0.292725 0.951691
vt1 0.188843 0.981842
vt1 0.191284 0.989487
vt1 0.294434 0.958801
vt1 0.297119 0.951843
vt1 0.298340 0.959045
vt1 0.416748 0.943420
vt1 0.416504 0.950775
vt1 0.415283 0.939880
vt1 0.414062 0.933350
vt1 0.426758 0.933350
vt1 0.430664 0.927979
vt1 0.432373 0.922791
vt1 0.538086 0.937073
vt1 0.431396 0.913696
vt1 0.539062 0.931946
vt1 0.559570 0.935120
vt1 0.542969 0.923340
vt1 0.428467 0.891479
vt1 0.563477 0.878967
vt1 0.427002 0.867920
vt1 0.424316 0.841064
vt1 0.574707 0.850098
vt1 0.429199 0.788696
vt1 0.585449 0.801392
vt1 0.871582 0.083984
vt1 0.869141 0.187012
vt1 0.868652 0.083008
vt1 0.878418 0.075195
vt1 0.872070 0.186035
vt1 0.878418 0.194824
vt1 0.879395 0.191895
vt1 0.879395 0.078125
vt1 0.979980 0.191406
vt1 0.980469 0.194336
vt1 0.979980 0.078125
vt1 0.980957 0.075195
vt1 0.988770 0.083008
vt1 0.985840 0.185547
vt1 0.988770 0.186523
vt1 0.985840 0.083984
vt1 0.851074 0.066406
vt1 0.863770 0.034180
vt1 0.860352 0.070312
vt1 0.852539 0.032715
vt1 0.838379 0.096191
vt1 0.633301 0.041992
vt1 0.638184 0.008301
vt1 0.829102 0.089844
vt1 0.828613 0.108398
vt1 0.629395 0.041992
vt1 0.629395 0.008301
vt1 0.636230 0.067871
vt1 0.430420 0.037598
vt1 0.432373 0.004395
vt1 0.623535 0.067871
vt1 0.434814 0.064453
vt1 0.426270 0.037598
vt1 0.424805 0.004395
vt1 0.228638 0.004883
vt1 0.421631 0.064453
vt1 0.226196 0.038574
vt1 0.219238 0.004395
vt1 0.233643 0.066406
vt1 0.222656 0.037109
vt1 0.003967 0.027344
vt1 0.008415 0.061035
vt1 0.220825 0.066406
vt1 0.027634 0.086426
vt1 0.038055 0.101562
vt1 0.221191 0.083496
vt1 0.045685 0.136230
vt1 0.237061 0.083008
vt1 0.226074 0.123047
vt1 0.420166 0.080566
vt1 0.227051 0.204102
vt1 0.046722 0.218262
vt1 0.237305 0.122559
vt1 0.228027 0.285645
vt1 0.047760 0.300293
vt1 0.238403 0.203613
vt1 0.422363 0.119141
vt1 0.436035 0.080566
vt1 0.421875 0.199707
vt1 0.620117 0.083984
vt1 0.433594 0.119141
vt1 0.433105 0.199707
vt1 0.619141 0.123047
vt1 0.617188 0.205078
vt1 0.635742 0.084961
vt1 0.630371 0.124023
vt1 0.818359 0.104492
vt1 0.811035 0.140137
vt1 0.821777 0.140625
vt1 0.818848 0.222656
vt1 0.808105 0.222656
vt1 0.816406 0.305176
vt1 0.628418 0.205566
vt1 0.805664 0.305176
vt1 0.803223 0.387695
vt1 0.813965 0.387695
vt1 0.626465 0.287598
vt1 0.800293 0.470215
vt1 0.811523 0.470215
vt1 0.624512 0.369629
vt1 0.615234 0.286621
vt1 0.797852 0.552490
vt1 0.808594 0.552734
vt1 0.432617 0.280762
vt1 0.613281 0.368652
vt1 0.622559 0.451172
vt1 0.432129 0.361328
vt1 0.611328 0.450195
vt1 0.620605 0.532959
vt1 0.795410 0.635010
vt1 0.806152 0.635254
vt1 0.609375 0.531982
vt1 0.792480 0.717529
vt1 0.803711 0.717773
vt1 0.618652 0.614990
vt1 0.616699 0.696777
vt1 0.607422 0.613770
vt1 0.605469 0.695557
vt1 0.431152 0.522949
vt1 0.430176 0.684570
vt1 0.430664 0.603760
vt1 0.418701 0.684570
vt1 0.419189 0.603760
vt1 0.244629 0.691162
vt1 0.419678 0.522949
vt1 0.232910 0.691895
vt1 0.052979 0.709229
vt1 0.243530 0.609863
vt1 0.231934 0.610596
vt1 0.051941 0.627441
vt1 0.050903 0.545654
vt1 0.230957 0.529297
vt1 0.049835 0.463867
vt1 0.242554 0.528564
vt1 0.229980 0.448242
vt1 0.241455 0.447754
vt1 0.420166 0.442383
vt1 0.229004 0.366699
vt1 0.048798 0.381836
vt1 0.240479 0.366211
vt1 0.239380 0.285156
vt1 0.420654 0.361328
vt1 0.421143 0.280762
vt1 0.431641 0.442383
vn 0.000000 1.000000 -0.000000
vn 0.244094 0.968504 -0.000000
vn 0.000000 1.000000 -0.000000
vn 0.110236 0.984252 -0.118110
vn 0.000000 1.000000 -0.000000
vn 0.992126 0.110236 -0.015748
vn 0.992126 0.110236 -0.000000
vn 0.984252 -0.165354 0.000000
vn -0.125984 0.984252 -0.125984
vn 0.000000 1.000000 -0.000000
vn 0.023622 0.259842 -0.968504
vn 0.984252 -0.181102 -0.015748
vn 0.322835 -0.944882 0.000000
vn 0.023622 -0.118110 -0.992126
vn 0.149606 -0.968504 -0.188976
vn 0.000000 -1.000000 0.000000
vn 0.000000 -1.000000 0.000000
vn -0.023622 -0.118110 -0.992126
vn -0.086614 -0.984252 -0.173228
vn 0.000000 -1.000000 0.000000
vn -0.023622 0.259842 -0.968504
vn -0.992126 0.118110 -0.015748
vn -0.976378 -0.212598 -0.015748
vn -0.078740 -0.984252 0.165354
vn 0.000000 -1.000000 0.000000
vn 0.000000 -1.000000 0.000000
vn 0.007874 -0.944882 0.322835
vn -0.976378 -0.204724 0.015748
vn -0.992126 0.118110 0.015748
vn -0.023622 -0.188976 0.984252
vn -0.125984 0.984252 0.118110
vn 0.000000 1.000000 -0.000000
vn 0.000000 0.976378 0.212598
vn -0.031496 0.275591 0.960630
vn 0.023622 0.275591 0.960630
vn 0.850394 0.039370 0.519685
vn 0.031496 -0.196850 0.976378
vn 0.850394 -0.039370 0.519685
vn 1.000000 0.007874 0.062992
vn 0.661417 -0.362205 0.661417
vn 0.708661 0.007874 0.708661
vn 0.976378 -0.220472 0.070866
vn 0.968504 -0.236220 -0.062992
vn 1.000000 0.007874 -0.062992
vn 0.763780 -0.645669 0.055118
vn 0.527559 -0.661417 0.527559
vn 0.078740 -0.000000 -1.000000
vn 0.488189 -0.724409 0.488189
vn 0.086614 -0.228347 -0.968504
vn 0.763780 -0.645669 -0.055118
vn 0.811024 -0.582677 0.055118
vn -0.078740 -0.236221 -0.968504
vn -0.078740 -0.000000 -1.000000
vn 0.047244 -0.653543 -0.755905
vn 0.811024 -0.582677 -0.055118
vn 0.763780 -0.645669 0.062992
vn 0.496063 -0.716535 0.496063
vn 0.787402 -0.614173 -0.062992
vn 0.992126 0.110236 0.062992
vn 0.708661 0.047244 0.708661
vn 0.566929 0.598425 0.566929
vn 0.055118 -0.527559 -0.850394
vn 0.858268 0.503937 0.055118
vn -0.070866 -0.645669 -0.755905
vn 0.748031 0.661417 0.047244
vn 0.472441 0.740157 0.472441
vn 0.866142 0.496063 -0.055118
vn 0.661417 0.748031 0.031496
vn 0.401575 0.826772 0.401575
vn 0.637795 0.425197 0.637795
vn 0.748031 0.661417 -0.047244
vn 0.661417 0.748031 -0.031496
vn 0.976378 0.228346 0.039370
vn 0.488189 0.732283 0.488189
vn 0.047244 0.661417 -0.748031
vn 0.590551 0.811023 0.023622
vn 0.204724 0.960630 0.204724
vn 0.976378 0.228346 -0.047244
vn 0.661417 0.748031 0.015748
vn 0.590551 0.803149 -0.023622
vn 0.669291 0.748031 -0.015748
vn 0.913386 -0.401575 0.031496
vn 0.527559 -0.669291 0.527559
vn 0.015748 0.732283 -0.677165
vn 0.503937 -0.866142 0.015748
vn 0.314961 -0.897638 0.314961
vn 0.913386 -0.409449 -0.031496
vn 0.976378 -0.228346 0.023622
vn 0.653543 -0.385827 0.653543
vn 0.377953 -0.842520 0.377953
vn 0.488189 -0.874016 -0.015748
vn 0.834646 -0.543307 0.031496
vn 0.976378 -0.228346 -0.023622
vn 0.275591 -0.921260 0.275591
vn 0.031496 -0.322835 -0.944882
vn 0.448819 -0.889764 0.015748
vn 0.826772 -0.559055 -0.031496
vn 0.023622 -0.425197 -0.905512
vn 0.795276 -0.598425 0.023622
vn 0.559055 -0.614173 0.559055
vn 0.409449 -0.818897 0.409449
vn 0.456693 -0.889764 -0.007874
vn 0.811024 -0.590551 0.039370
vn 0.425197 -0.803149 0.425197
vn 0.685039 -0.732283 0.023622
vn 0.803150 -0.598425 -0.031496
vn 0.803150 -0.598425 -0.031496
vn 0.677165 -0.740157 -0.015748
vn 0.039370 -0.488189 -0.874016
vn 0.023622 -0.771653 -0.637795
vn 0.015748 -0.897638 -0.448819
vn 0.031496 -0.417323 -0.905512
vn -0.031496 -0.511811 -0.858268
vn -0.015748 -0.787401 -0.614173
vn -0.023622 -0.401575 -0.913386
vn -0.874016 -0.488189 -0.039370
vn -0.653543 -0.763779 -0.015748
vn -0.653543 -0.755905 0.023622
vn -0.007874 -0.889764 -0.448819
vn -0.850394 -0.519685 -0.031496
vn -0.874016 -0.480315 0.047244
vn -0.015748 -0.803149 0.598425
vn 0.031496 -0.598425 -0.803149
vn -0.031496 -0.622047 0.779527
vn 0.007874 -0.779527 0.629921
vn 0.007874 -0.582677 0.818898
vn -0.023622 -0.496063 0.866142
vn 0.000000 -0.503937 0.858268
vn 0.000000 -0.881890 0.464567
vn -0.850394 -0.527559 0.023622
vn -0.007874 -0.889764 0.464567
vn 0.000000 -0.669291 0.748031
vn -0.480315 -0.874016 -0.007874
vn -0.480315 -0.874016 0.015748
vn -0.031496 -0.700787 0.716535
vn -0.842520 -0.535433 -0.031496
vn -0.850394 -0.519685 0.031496
vn -0.039370 -0.606299 -0.795275
vn -0.842520 -0.535433 -0.023622
vn -0.023622 -0.440945 -0.897638
vn -0.850394 -0.519685 0.023622
vn 0.007874 -0.874016 -0.488189
vn -0.015748 -0.881890 -0.464567
vn -0.023622 -0.346457 -0.937008
vn -0.472441 -0.881890 -0.015748
vn -0.023622 0.732283 -0.677165
vn -0.952756 -0.314961 -0.031496
vn -0.472441 -0.881890 0.007874
vn -0.692913 0.716535 -0.015748
vn -0.952756 -0.307087 0.031496
vn -0.015748 -0.881890 0.472441
vn -0.023622 -0.338583 0.937008
vn 0.000000 -0.330709 0.944882
vn 0.000000 -0.858268 0.511811
vn -0.023622 -0.377953 0.929134
vn 0.000000 -0.330709 0.944882
vn -0.023622 0.732283 0.677165
vn 0.000000 0.700787 0.716535
vn 0.000000 0.803150 0.598425
vn -0.692913 0.724409 0.023622
vn -0.023622 0.803150 0.598425
vn 0.000000 0.188976 0.984252
vn -0.606299 0.795275 0.023622
vn -0.039370 0.212599 0.976378
vn 0.000000 0.732283 0.677165
vn -0.614173 0.787401 -0.023622
vn -0.976378 0.204724 0.039370
vn -0.031496 0.748031 0.661417
vn -0.047244 0.677165 0.732283
vn 0.000000 0.661417 0.755905
vn -0.661417 0.755905 0.031496
vn -0.976378 0.204724 -0.047244
vn -0.661417 0.755905 -0.031496
vn -0.732283 0.677165 0.047244
vn -0.055118 0.527559 0.850394
vn 0.000000 0.511811 0.858268
vn 0.000000 0.007874 1.000000
vn -0.740157 0.677165 -0.047244
vn -0.078740 -0.007874 1.000000
vn 0.000000 -0.637795 0.771653
vn -0.858268 0.511811 0.055118
vn -0.055118 -0.661417 0.748031
vn -0.007874 -0.472441 0.881890
vn -1.000000 0.023622 0.062992
vn -0.070866 -0.511811 0.858268
vn -0.866142 0.503937 -0.055118
vn -0.748031 -0.653543 0.055118
vn -1.000000 0.023622 -0.078740
vn -0.771654 -0.637795 -0.055118
vn -0.834646 -0.551181 0.055118
vn -0.070866 -0.566929 0.818898
vn -0.007874 -0.551181 0.834646
vn -0.818898 -0.574803 0.055118
vn -0.070866 -0.181102 0.984252
vn 0.000000 -0.149606 0.992126
vn 0.000000 0.000000 1.000000
vn -0.062992 0.000000 1.000000
vn -0.976378 -0.220472 0.070866
vn -1.000000 -0.031496 0.062992
vn -0.968504 -0.236220 -0.070866
vn -1.000000 -0.031496 -0.062992
vn -0.818898 -0.574803 -0.062992
vn -0.834646 -0.551181 -0.062992
vn -0.070866 -0.527559 -0.850394
vn -0.062992 -0.598425 -0.803149
vn -0.070866 0.007874 -1.000000
vn 0.047244 -0.582677 -0.811023
vn -0.055118 0.472441 -0.881890
vn 0.070866 0.015748 -1.000000
vn 0.992126 0.110236 -0.078740
vn 0.055118 0.472441 -0.881890
vn -0.047244 0.669291 -0.748031
vn 0.031496 0.763779 -0.645669
vn -0.031496 0.763779 -0.645669
vn -0.039370 0.212598 -0.976378
vn 0.039370 0.204724 -0.976378
vn -0.023622 0.795275 -0.606299
vn 0.023622 0.795275 -0.606299
vn 0.015748 0.984252 -0.188976
vn -0.047244 0.716535 -0.700787
vn 0.055118 0.716535 -0.700787
vn 0.700787 0.716535 -0.039370
vn -0.007874 0.984252 -0.188976
vn -0.708661 0.700787 -0.039370
vn -0.015748 1.000000 -0.000000
vn 0.023622 1.000000 -0.000000
vn -0.015748 1.000000 -0.000000
vn -0.708661 0.708661 0.039370
vn 0.023622 1.000000 -0.000000
vn 0.700787 0.716535 0.039370
vn 0.047244 0.708661 0.700787
vn -0.007874 0.976378 0.212598
vn -0.039370 0.708661 0.700787
vn 0.015748 0.976378 0.212598
vn 0.976378 0.212598 0.039370
vn 0.708661 -0.070866 0.708661
vn 0.653543 0.385827 0.653543
vn 1.000000 0.000000 0.031496
vn 0.488189 0.724409 0.488189
vn 0.976378 0.212598 -0.039370
vn 1.000000 -0.000000 -0.031496
vn 0.803150 0.598425 0.023622
vn 0.677165 0.291339 0.677165
vn 0.039370 0.228346 -0.976378
vn 0.031496 0.007874 -1.000000
vn 0.803150 0.590551 -0.023622
vn -0.039370 0.220472 -0.976378
vn -0.031496 0.007874 -1.000000
vn 0.023622 0.590551 -0.803150
vn -0.023622 0.590551 -0.803150
vn -0.968504 0.228346 -0.039370
vn -1.000000 0.007874 -0.031496
vn -1.000000 0.007874 0.031496
vn -0.803150 0.598425 -0.023622
vn -0.968504 0.236220 0.039370
vn -0.031496 -0.094488 0.992126
vn -0.803150 0.598425 0.023622
vn -0.031496 0.188976 0.984252
vn 0.000000 -0.094488 0.992126
vn 0.000000 0.181102 0.984252
vn -0.023622 0.653543 0.755905
vn 0.000000 0.637795 0.763779
vn 0.000000 0.251969 0.968504
vn -0.039370 0.259843 0.968504
vn 0.000000 0.023622 1.000000
vn -0.968504 0.236220 0.039370
vn -0.039370 0.023622 1.000000
vn -0.968504 0.228346 -0.039370
vn -0.039370 0.000000 1.000000
vn 0.000000 0.000000 1.000000
vn -1.000000 0.023622 0.039370
vn -0.039370 0.000000 1.000000
vn 0.000000 0.000000 1.000000
vn -1.000000 -0.007874 0.039370
vn -1.000000 0.023622 -0.039370
vn -0.039370 0.228346 -0.968504
vn -1.000000 -0.007874 -0.039370
vn 0.039370 0.236220 -0.968504
vn -0.039370 0.023622 -1.000000
vn -0.039370 -0.007874 -1.000000
vn 0.039370 0.023622 -1.000000
vn 0.039370 -0.007874 -1.000000
vn 0.968504 0.244094 -0.039370
vn 1.000000 0.023622 -0.039370
vn 0.968504 0.251968 0.039370
vn 1.000000 0.023622 0.039370
vn 0.708661 0.031496 0.708661
vn 0.708661 -0.007874 0.708661
vn 1.000000 -0.007874 0.039370
vn 0.708661 -0.007874 0.708661
vn 1.000000 -0.007874 -0.039370
vn 1.000000 -0.007874 0.039370
vn 1.000000 -0.007874 0.039370
vn 0.708661 -0.007874 0.708661
vn 1.000000 -0.007874 -0.039370
vn 1.000000 -0.007874 0.039370
vn 0.708661 -0.007874 0.708661
vn 1.000000 -0.007874 -0.039370
vn 0.039370 -0.007874 -1.000000
vn 1.000000 -0.007874 0.039370
vn 0.708661 -0.007874 0.708661
vn -0.039370 -0.007874 -1.000000
vn 0.039370 -0.007874 -1.000000
vn 1.000000 -0.007874 -0.039370
vn -0.039370 -0.007874 -1.000000
vn 0.039370 -0.007874 -1.000000
vn 1.000000 -0.007874 -0.039370
vn 1.000000 -0.007874 0.039370
vn 0.708661 -0.007874 0.708661
vn 0.039370 -0.007874 -1.000000
vn 1.000000 -0.007874 0.039370
vn 0.708661 -0.007874 0.708661
vn 1.000000 -0.007874 -0.039370
vn 1.000000 -0.007874 -0.039370
vn 0.039370 -0.007874 -1.000000
vn 0.039370 -0.023622 -1.000000
vn -0.039370 -0.007874 -1.000000
vn -0.039370 -0.031496 -1.000000
vn -0.039370 -0.007874 -1.000000
vn -1.000000 -0.031496 -0.039370
vn -1.000000 -0.007874 -0.039370
vn -1.000000 -0.031496 0.039370
vn -1.000000 -0.007874 -0.039370
vn -0.039370 -0.015748 1.000000
vn 0.000000 -0.007874 1.000000
vn -1.000000 -0.007874 0.039370
vn -0.039370 0.000000 1.000000
vn 0.000000 0.000000 1.000000
vn 0.000000 0.000000 1.000000
vn -0.039370 0.000000 1.000000
vn 0.000000 0.000000 1.000000
vn -1.000000 -0.007874 0.039370
vn -0.039370 0.000000 1.000000
vn -1.000000 -0.007874 0.039370
vn -1.000000 -0.007874 -0.039370
vn -0.039370 0.000000 1.000000
vn 0.000000 0.000000 1.000000
vn -1.000000 -0.007874 0.039370
vn -1.000000 -0.007874 0.039370
vn -1.000000 -0.007874 -0.039370
vn -1.000000 -0.007874 -0.039370
vn -0.039370 -0.007874 -1.000000
tan 0.708661 -0.000000 -0.700787 1.000000
tan 0.968504 -0.244094 -0.017174 1.000000
tan 1.000000 -0.000000 -0.023622 1.000000
tan 0.770042 -0.159402 -0.609647 1.000000
tan -0.685039 -0.000000 -0.724409 1.000000
tan 0.110112 -0.992374 -0.009548 1.000000
tan 0.110236 -0.992126 -0.015624 1.000000
tan -0.165354 -0.984252 -0.007750 1.000000
tan -0.737243 -0.177568 -0.650009 1.000000
tan -0.716535 0.000000 0.692913 1.000000
tan 0.193812 -0.947300 -0.249426 1.000000
tan -0.181102 -0.984500 0.002852 1.000000
tan -0.944882 -0.322835 -0.007440 1.000000
tan -0.169632 -0.977618 0.112344 1.000000
tan -0.692293 -0.239940 0.681629 1.000000
tan -1.000000 -0.000000 -0.007874 1.000000
tan -0.700787 0.000000 0.708661 1.000000
tan 0.224316 -0.969806 0.110112 1.000000
tan 0.666935 -0.186186 0.724409 1.000000
tan 0.724409 0.000000 0.692913 1.000000
tan -0.136338 -0.962180 -0.254820 1.000000
tan -0.116994 -0.992498 -0.073098 1.000000
tan 0.212102 -0.960630 -0.181846 1.000000
tan 0.683365 -0.173724 -0.708661 1.000000
tan 0.708661 -0.000000 -0.700787 1.000000
tan 0.007874 -0.000000 -1.000000 1.000000
tan -0.345527 -0.305103 -0.884556 1.000000
tan 0.205468 -0.976502 0.044516 1.000000
tan -0.117738 -0.992498 0.026226 1.000000
tan 0.197904 -0.962490 -0.180048 1.000000
tan -0.769112 -0.172608 0.618017 1.000000
tan -0.007874 0.000000 1.000000 1.000000
tan 0.337963 -0.200880 0.922562 1.000000
tan -0.205406 -0.940666 0.263129 1.000000
tan -0.008618 -0.961188 0.275963 1.000000
tan -0.065348 -0.979850 0.181164 1.000000
tan -0.086180 -0.970178 -0.192820 1.000000
tan 0.011532 -0.993242 -0.094116 1.000000
tan 0.020584 -0.980346 -0.204228 1.000000
tan -0.224936 -0.932234 -0.285572 1.000000
tan 0.083638 -0.993242 -0.072602 1.000000
tan -0.194494 -0.946866 -0.266104 1.000000
tan -0.240312 -0.963854 -0.080352 1.000000
tan -0.005704 -0.980346 -0.213094 1.000000
tan -0.563085 -0.703391 -0.436977 1.000000
tan -0.455205 -0.747721 -0.482237 1.000000
tan -0.118110 -0.998326 -0.009300 1.000000
tan -0.448385 -0.688077 -0.572633 1.000000
tan -0.276397 -0.942650 0.197532 1.000000
tan -0.646971 -0.766817 0.017546 1.000000
tan -0.499783 -0.738545 -0.453531 1.000000
tan 0.075702 -0.968318 0.230021 1.000000
tan -0.078740 -0.998326 0.006200 1.000000
tan -0.414967 -0.698989 0.578399 1.000000
tan -0.584847 -0.813194 -0.008990 1.000000
tan -0.543493 -0.689875 -0.481369 1.000000
tan -0.286007 -0.671833 -0.684419 1.000000
tan -0.614793 -0.781697 -0.063364 1.000000
tan 0.125860 -0.914998 -0.381053 1.000000
tan 0.402877 -0.848162 -0.346333 1.000000
tan 0.784425 -0.602641 -0.148304 1.000000
tan -0.453407 -0.771839 0.449439 1.000000
tan 0.490421 -0.796825 -0.351293 1.000000
tan 0.222332 -0.746047 0.616405 1.000000
tan 0.624217 -0.678715 -0.381425 1.000000
tan 0.878170 -0.383161 -0.277884 1.000000
tan 0.407093 -0.766259 -0.499163 1.000000
tan 0.719883 -0.623721 -0.304173 1.000000
tan 0.919214 -0.354145 -0.190092 1.000000
tan 0.652861 -0.738235 -0.160704 1.000000
tan 0.528241 -0.637423 -0.560109 1.000000
tan 0.631843 -0.580321 -0.513919 1.000000
tan 0.227292 -0.913324 -0.339575 1.000000
tan 0.799554 -0.599665 0.099944 1.000000
tan 0.114142 -0.747350 -0.653605 1.000000
tan 0.811954 -0.589993 -0.042408 1.000000
tan 0.883254 -0.269204 0.379937 1.000000
tan 0.195424 -0.913138 -0.374729 1.000000
tan 0.747411 -0.662533 0.079050 1.000000
tan 0.721681 -0.543307 -0.430405 1.000000
tan 0.606733 -0.555025 -0.577531 1.000000
tan -0.362949 -0.854114 -0.364437 1.000000
tan -0.451299 -0.747721 -0.497303 1.000000
tan 0.250791 -0.658937 -0.706739 1.000000
tan -0.808978 -0.477029 -0.349309 1.000000
tan -0.736189 -0.441441 -0.521917 1.000000
tan -0.410441 -0.913882 -0.022320 1.000000
tan -0.226672 -0.977308 -0.078182 1.000000
tan -0.378201 -0.910844 -0.159526 1.000000
tan -0.680575 -0.529729 -0.500279 1.000000
tan -0.866514 -0.485957 0.108686 1.000000
tan -0.525017 -0.819642 -0.225866 1.000000
tan -0.228842 -0.960630 -0.172732 1.000000
tan -0.818898 -0.375411 -0.436047 1.000000
tan -0.432823 -0.853370 0.277141 1.000000
tan -0.860252 -0.438031 -0.231570 1.000000
tan -0.559055 -0.828012 0.022010 1.000000
tan -0.376465 -0.838489 0.383905 1.000000
tan -0.586211 -0.785541 -0.164610 1.000000
tan -0.607291 -0.761547 -0.229338 1.000000
tan -0.722177 -0.567425 -0.412673 1.000000
tan -0.889764 -0.456817 0.014012 1.000000
tan -0.570401 -0.798375 -0.225370 1.000000
tan -0.630541 -0.599293 -0.501457 1.000000
tan -0.705685 -0.668113 -0.246636 1.000000
tan -0.599169 -0.803893 -0.004836 1.000000
tan -0.591233 -0.800049 0.124496 1.000000
tan -0.732965 -0.673693 0.146072 1.000000
tan -0.425011 -0.800731 0.428111 1.000000
tan -0.349309 -0.604315 0.718209 1.000000
tan -0.611383 -0.365615 0.709777 1.000000
tan -0.360779 -0.847045 0.377829 1.000000
tan 0.140244 -0.854734 0.504557 1.000000
tan 0.248248 -0.598053 0.760369 1.000000
tan 0.019840 -0.914130 0.401389 1.000000
tan 0.446277 -0.826709 0.343853 1.000000
tan 0.730981 -0.631285 0.281605 1.000000
tan 0.722053 -0.633207 -0.285820 1.000000
tan 0.214024 -0.439767 0.868064 1.000000
tan 0.487693 -0.815921 0.294997 1.000000
tan 0.427615 -0.815612 -0.381177 1.000000
tan 0.244528 -0.582801 -0.775745 1.000000
tan -0.531465 -0.693657 0.496001 1.000000
tan 0.142228 -0.776861 -0.614173 1.000000
tan -0.085002 -0.630479 -0.779155 1.000000
tan -0.090148 -0.812883 -0.577531 1.000000
tan 0.033170 -0.867072 -0.495691 1.000000
tan -0.102114 -0.851510 -0.499969 1.000000
tan -0.105276 -0.460909 -0.874946 1.000000
tan 0.497055 -0.814496 -0.296422 1.000000
tan 0.226052 -0.455205 -0.868002 1.000000
tan -0.100440 -0.742141 -0.664021 1.000000
tan 0.796826 -0.441503 0.400459 1.000000
tan 0.795462 -0.444417 -0.403559 1.000000
tan 0.306591 -0.690123 -0.661479 1.000000
tan 0.493025 -0.795895 0.341807 1.000000
tan 0.482609 -0.809970 -0.334057 1.000000
tan 0.264865 -0.777667 0.579763 1.000000
tan 0.509331 -0.813255 0.267655 1.000000
tan 0.073780 -0.898940 0.439643 1.000000
tan 0.494017 -0.820820 -0.273420 1.000000
tan -0.430281 -0.445037 0.789819 1.000000
tan 0.161200 -0.459607 0.867010 1.000000
tan -0.006572 -0.937566 0.346829 1.000000
tan 0.774382 -0.423337 0.475417 1.000000
tan -0.556637 -0.569905 -0.596875 1.000000
tan 0.272801 -0.867692 0.424701 1.000000
tan 0.804080 -0.434311 -0.398041 1.000000
tan -0.691611 -0.673941 -0.233430 1.000000
tan 0.289975 -0.926220 -0.258912 1.000000
tan 0.246513 -0.461033 -0.852378 1.000000
tan 0.025420 -0.937752 -0.338211 1.000000
tan -0.117180 -0.937442 -0.328104 1.000000
tan -0.120094 -0.507781 -0.851510 1.000000
tan 0.111600 -0.923306 -0.372745 1.000000
tan -0.124620 -0.937442 -0.328104 1.000000
tan -0.423027 -0.620807 0.656581 1.000000
tan -0.100440 -0.710893 0.695269 1.000000
tan -0.124620 -0.593713 0.796826 1.000000
tan -0.649265 -0.635067 0.430281 1.000000
tan -0.436977 -0.545725 0.715171 1.000000
tan -0.201190 -0.961002 0.184512 1.000000
tan -0.780892 -0.599913 0.154194 1.000000
tan -0.225990 -0.956724 0.199207 1.000000
tan -0.266787 -0.650505 0.703453 1.000000
tan -0.752868 -0.595387 -0.271684 1.000000
tan -0.200012 -0.971170 0.089776 1.000000
tan -0.575299 -0.555769 0.601153 1.000000
tan -0.515407 -0.640585 0.559117 1.000000
tan -0.313969 -0.720193 0.630169 1.000000
tan -0.741521 -0.655465 0.159216 1.000000
tan -0.199764 -0.971666 -0.082088 1.000000
tan -0.695641 -0.623721 -0.360841 1.000000
tan -0.662037 -0.727819 0.170500 1.000000
tan -0.485957 -0.759749 0.439829 1.000000
tan -0.338707 -0.804203 0.479571 1.000000
tan -0.322835 -0.944882 0.007440 1.000000
tan -0.642321 -0.721433 -0.277512 1.000000
tan -0.298655 -0.958336 -0.031062 1.000000
tan -0.325005 -0.729121 -0.602641 1.000000
tan -0.510943 -0.862608 0.053816 1.000000
tan -0.075888 -0.741708 -0.661417 1.000000
tan -0.299337 -0.839172 -0.452229 1.000000
tan -0.034162 -0.988220 -0.171740 1.000000
tan 0.001178 -0.862174 -0.514043 1.000000
tan -0.483353 -0.854362 -0.215760 1.000000
tan 0.565007 -0.683799 -0.439953 1.000000
tan -0.021762 -1.006200 -0.025482 1.000000
tan 0.615351 -0.763407 0.218798 1.000000
tan 0.496497 -0.789385 -0.375473 1.000000
tan 0.066464 -0.819146 -0.561349 1.000000
tan -0.290533 -0.793974 -0.527063 1.000000
tan 0.530535 -0.786347 -0.318247 1.000000
tan 0.005084 -0.989274 -0.181660 1.000000
tan -0.279311 -0.953066 -0.143716 1.000000
tan -0.291339 -0.952756 0.000000 1.000000
tan -0.125984 -0.996094 -0.007936 1.000000
tan 0.206956 -0.968256 -0.160952 1.000000
tan 0.029016 -1.003968 -0.041354 1.000000
tan 0.228780 -0.967016 0.096720 1.000000
tan 0.031496 -1.003968 0.001984 1.000000
tan 0.553289 -0.809969 0.198214 1.000000
tan 0.528737 -0.825346 0.216008 1.000000
tan 0.190216 -0.841466 0.506169 1.000000
tan 0.154380 -0.799429 0.583545 1.000000
tan -0.095046 -0.997148 -0.001116 1.000000
tan -0.403249 -0.753797 0.518073 1.000000
tan -0.273049 -0.857152 -0.442123 1.000000
tan -0.211606 -0.980842 -0.030442 1.000000
tan 0.073904 -0.930498 -0.371505 1.000000
tan -0.012400 -0.884494 -0.474611 1.000000
tan -0.355881 -0.713559 -0.615971 1.000000
tan 0.231694 -0.631533 -0.735755 1.000000
tan -0.337591 -0.613677 -0.709467 1.000000
tan -0.210614 -0.956724 -0.199826 1.000000
tan -0.039680 -0.977618 -0.206584 1.000000
tan -0.250233 -0.592225 -0.767065 1.000000
tan 0.171492 -0.600285 -0.780705 1.000000
tan 1.004464 -0.024428 -0.043524 1.000000
tan 0.999008 0.111104 0.046252 1.000000
tan 0.999008 -0.089156 -0.012586 1.000000
tan 0.715233 -0.693409 0.111104 1.000000
tan 0.996714 0.024056 0.083762 1.000000
tan 0.699299 0.701531 -0.100130 1.000000
tan 1.000000 0.015748 0.070866 1.000000
tan 1.000000 -0.023622 -0.055118 1.000000
tan 1.000000 0.015748 -0.070866 1.000000
tan 0.708041 0.700601 0.133920 1.000000
tan 1.000000 -0.023622 0.055118 1.000000
tan 0.715543 -0.693099 -0.122264 1.000000
tan 0.987786 -0.121768 0.056544 1.000000
tan 0.998512 0.019406 -0.052142 1.000000
tan 0.993304 0.072044 -0.017050 1.000000
tan 0.998512 -0.032116 0.073532 1.000000
tan 0.216070 -0.961002 -0.169136 1.000000
tan 0.090954 -0.982082 -0.189162 1.000000
tan 0.492343 -0.869676 0.021080 1.000000
tan 0.005208 -0.985244 -0.165354 1.000000
tan 0.833034 -0.553537 -0.011656 1.000000
tan 0.203050 -0.963792 -0.168826 1.000000
tan -0.001736 -1.000992 -0.055118 1.000000
tan 0.596689 -0.795337 -0.138880 1.000000
tan 0.458615 -0.885114 -0.077810 1.000000
tan 0.114328 -0.971170 -0.222518 1.000000
tan -0.007626 -1.000992 -0.008122 1.000000
tan 0.557257 -0.770041 -0.304296 1.000000
tan -0.136896 -0.971170 -0.213776 1.000000
tan -0.000248 -1.000992 -0.007874 1.000000
tan 0.243102 -0.781760 -0.567673 1.000000
tan -0.260401 -0.775622 -0.562651 1.000000
tan -0.221898 -0.963358 -0.128774 1.000000
tan -0.007378 -1.000992 -0.015996 1.000000
tan -0.006634 -1.000992 0.039618 1.000000
tan -0.575113 -0.781946 -0.255440 1.000000
tan -0.219790 -0.941720 0.243475 1.000000
tan 0.050592 -0.993366 -0.093000 1.000000
tan -0.575299 -0.781759 0.244405 1.000000
tan -0.030690 -0.985492 0.188232 1.000000
tan -0.102300 -0.984314 -0.093744 1.000000
tan -0.095852 -0.976502 0.179676 1.000000
tan -0.321843 -0.719635 0.612127 1.000000
tan -0.100316 -0.757765 0.632773 1.000000
tan -0.105090 -0.960878 0.249985 1.000000
tan -0.180606 -0.956352 0.249241 1.000000
tan -0.086614 -0.992126 0.023436 1.000000
tan -0.234050 -0.970674 0.066402 1.000000
tan -0.071796 -1.001550 0.020832 1.000000
tan -0.223448 -0.963048 -0.088846 1.000000
tan -0.070866 -1.001550 -0.002790 1.000000
tan -0.078740 -1.000000 0.000000 1.000000
tan -0.024552 -1.001550 -0.022692 1.000000
tan -0.070866 -1.001550 -0.002790 1.000000
tan -0.078740 -1.000000 0.000000 1.000000
tan 0.006324 -1.001550 -0.039680 1.000000
tan -0.023312 -1.001550 -0.008804 1.000000
tan -0.121148 -0.963358 -0.222208 1.000000
tan 0.007874 -1.001550 0.000310 1.000000
tan 0.049290 -0.970364 -0.234670 1.000000
tan -0.032426 -1.001550 -0.022382 1.000000
tan -0.023312 -1.001550 0.008804 1.000000
tan -0.038440 -1.001550 -0.025172 1.000000
tan -0.063302 -1.001550 0.005394 1.000000
tan 0.233430 -0.956662 -0.188914 1.000000
tan 0.019716 -0.993676 -0.095418 1.000000
tan 0.254511 -0.952942 -0.162130 1.000000
tan 0.026846 -0.993676 -0.085684 1.000000
tan 0.055800 -1.004402 -0.011160 1.000000
tan 0.022320 -1.004402 -0.033480 1.000000
tan -0.004774 -1.001550 -0.079050 1.000000
tan 0.022320 -1.004402 -0.033480 1.000000
tan -0.011532 -0.993676 -0.094178 1.000000
tan -0.005084 -1.001550 -0.071176 1.000000
tan -0.005084 -1.001550 -0.071176 1.000000
tan 0.016740 -1.004402 -0.027900 1.000000
tan -0.011532 -0.993676 -0.094178 1.000000
tan -0.005084 -1.001550 -0.071176 1.000000
tan 0.016740 -1.004402 -0.027900 1.000000
tan -0.011842 -0.993676 -0.102052 1.000000
tan -0.071176 -1.001550 0.005084 1.000000
tan -0.005084 -1.001550 -0.071176 1.000000
tan 0.011160 -1.004402 -0.022320 1.000000
tan -0.023312 -1.001550 0.008804 1.000000
tan -0.079050 -1.001550 0.004774 1.000000
tan -0.012152 -0.993676 -0.109926 1.000000
tan -0.031186 -1.001550 0.009114 1.000000
tan -0.086924 -0.993676 0.004402 1.000000
tan -0.012462 -0.993676 -0.117800 1.000000
tan -0.005084 -1.001550 -0.071176 1.000000
tan 0.011160 -1.004402 -0.022320 1.000000
tan -0.094798 -0.993676 0.004092 1.000000
tan -0.006014 -1.001550 -0.047554 1.000000
tan 0.011160 -1.004402 -0.022320 1.000000
tan -0.012772 -0.993676 -0.125674 1.000000
tan -0.012772 -0.993676 -0.125674 1.000000
tan -0.102672 -0.993676 0.003782 1.000000
tan -0.127100 -0.993986 0.018476 1.000000
tan -0.031186 -1.001550 0.009114 1.000000
tan -0.030256 -1.001550 0.032736 1.000000
tan -0.039060 -1.001550 0.009424 1.000000
tan 0.031496 -1.001550 0.001240 1.000000
tan 0.007874 -1.001550 0.000310 1.000000
tan 0.029016 -1.001860 -0.064480 1.000000
tan 0.007874 -1.001550 0.000310 1.000000
tan -0.093868 -0.993676 -0.019344 1.000000
tan -0.086614 -1.000000 -0.007874 1.000000
tan 0.005394 -1.001550 -0.063302 1.000000
tan -0.086614 -0.993676 -0.003410 1.000000
tan -0.086614 -0.992126 0.000000 1.000000
tan -0.086614 -0.992126 0.000000 1.000000
tan -0.086614 -0.993676 -0.003410 1.000000
tan -0.086614 -1.000000 0.000000 1.000000
tan 0.005704 -1.001550 -0.055428 1.000000
tan -0.078740 -0.993676 -0.003100 1.000000
tan 0.005704 -1.001550 -0.055428 1.000000
tan 0.007874 -1.001550 0.000310 1.000000
tan -0.078740 -1.001550 -0.003100 1.000000
tan -0.086614 -1.000000 0.000000 1.000000
tan 0.006014 -1.001550 -0.047554 1.000000
tan 0.006014 -1.001550 -0.047554 1.000000
tan 0.007874 -1.001550 0.000310 1.000000
tan 0.007874 -1.001550 0.000310 1.000000
tan -0.031186 -1.001550 0.009114 1.000000
f 3/3/3 2/2/2 1/1/1
f 1/1/1 2/2/2 4/4/4
f 1/1/1 4/4/4 5/5/5
f 4/4/4 2/2/2 6/6/6
f 7/7/7 6/6/6 2/2/2
f 7/7/7 8/8/8 6/6/6
f 5/5/5 4/4/4 9/9/9
f 5/5/5 9/9/9 10/10/10
f 6/6/6 11/11/11 4/4/4
f 4/4/4 11/11/11 9/9/9
f 6/6/6 8/8/8 12/12/12
f 6/6/6 12/12/12 11/11/11
f 8/8/8 13/13/13 12/12/12
f 12/12/12 14/14/14 11/11/11
f 15/15/15 12/12/12 13/13/13
f 15/15/15 14/14/14 12/12/12
f 13/13/13 16/16/16 15/15/15
f 17/17/17 15/15/15 16/16/16
f 14/14/14 18/18/18 11/11/11
f 14/14/14 15/15/15 18/18/18
f 17/17/17 19/19/19 15/15/15
f 19/19/19 18/18/18 15/15/15
f 20/20/20 19/19/19 17/17/17
f 21/21/21 11/11/11 18/18/18
f 21/21/21 9/9/9 11/11/11
f 22/22/22 21/21/21 18/18/18
f 9/9/9 21/21/21 22/22/22
f 23/23/23 18/18/18 19/19/19
f 18/18/18 23/23/23 22/22/22
f 20/20/20 24/24/24 19/19/19
f 19/19/19 24/24/24 23/23/23
f 25/25/25 24/24/24 20/20/20
f 25/25/25 26/26/26 24/24/24
f 27/27/27 24/24/24 26/26/26
f 23/23/23 28/28/28 22/22/22
f 28/28/28 23/23/23 24/24/24
f 29/29/29 22/22/22 28/28/28
f 22/22/22 29/29/29 9/9/9
f 24/24/24 30/30/30 28/28/28
f 28/28/28 30/30/30 29/29/29
f 30/30/30 24/24/24 27/27/27
f 31/31/31 9/9/9 29/29/29
f 31/31/31 10/10/10 9/9/9
f 10/10/10 31/31/31 32/32/32
f 32/32/32 31/31/31 33/33/33
f 34/34/34 31/31/31 29/29/29
f 34/34/34 29/29/29 30/30/30
f 35/35/35 33/33/33 31/31/31
f 34/34/34 35/35/35 31/31/31
f 30/30/30 35/35/35 34/34/34
f 36/36/36 33/33/33 35/35/35
f 35/35/35 30/30/30 37/37/37
f 35/35/35 37/37/37 36/36/36
f 37/37/37 30/30/30 27/27/27
f 37/37/37 38/38/38 36/36/36
f 38/38/38 37/37/37 27/27/27
f 41/41/41 40/40/40 39/39/39
f 42/42/42 39/39/39 40/40/40
f 42/42/42 43/43/43 39/39/39
f 44/44/44 39/39/39 43/43/43
f 45/45/45 42/42/42 40/40/40
f 42/42/42 45/45/45 43/43/43
f 46/46/46 45/45/45 40/40/40
f 44/44/44 43/43/43 47/47/47
f 46/46/46 48/48/48 45/45/45
f 43/43/43 49/49/49 47/47/47
f 50/50/50 43/43/43 45/45/45
f 50/50/50 49/49/49 43/43/43
f 48/48/48 51/51/51 45/45/45
f 49/49/49 52/52/52 47/47/47
f 52/52/52 53/53/53 47/47/47
f 54/54/54 49/49/49 50/50/50
f 54/54/54 52/52/52 49/49/49
f 55/55/55 50/50/50 45/45/45
f 55/55/55 54/54/54 50/50/50
f 51/51/51 55/55/55 45/45/45
f 51/51/51 48/48/48 56/56/56
f 57/57/57 56/56/56 48/48/48
f 58/58/58 55/55/55 51/51/51
f 56/56/56 58/58/58 51/51/51
f 56/56/56 57/57/57 59/59/59
f 56/56/56 59/59/59 58/58/58
f 60/60/60 59/59/59 57/57/57
f 60/60/60 61/61/61 59/59/59
f 58/58/58 62/62/62 55/55/55
f 55/55/55 62/62/62 54/54/54
f 63/63/63 59/59/59 61/61/61
f 54/54/54 62/62/62 64/64/64
f 64/64/64 52/52/52 54/54/54
f 63/63/63 61/61/61 65/65/65
f 66/66/66 65/65/65 61/61/61
f 63/63/63 67/67/67 59/59/59
f 65/65/65 66/66/66 68/68/68
f 69/69/69 68/68/68 66/66/66
f 69/69/69 70/70/70 68/68/68
f 65/65/65 71/71/71 63/63/63
f 67/67/67 63/63/63 71/71/71
f 68/68/68 72/72/72 65/65/65
f 71/71/71 65/65/65 72/72/72
f 73/73/73 68/68/68 70/70/70
f 68/68/68 73/73/73 72/72/72
f 70/70/70 74/74/74 73/73/73
f 71/71/71 72/72/72 75/75/75
f 71/71/71 75/75/75 67/67/67
f 76/76/76 73/73/73 74/74/74
f 74/74/74 77/77/77 76/76/76
f 78/78/78 72/72/72 73/73/73
f 79/79/79 76/76/76 77/77/77
f 73/73/73 76/76/76 80/80/80
f 80/80/80 78/78/78 73/73/73
f 76/76/76 79/79/79 81/81/81
f 80/80/80 76/76/76 81/81/81
f 79/79/79 77/77/77 82/82/82
f 79/79/79 82/82/82 81/81/81
f 82/82/82 77/77/77 83/83/83
f 81/81/81 84/84/84 80/80/80
f 83/83/83 85/85/85 82/82/82
f 86/86/86 85/85/85 83/83/83
f 87/87/87 81/81/81 82/82/82
f 82/82/82 85/85/85 87/87/87
f 81/81/81 87/87/87 84/84/84
f 88/88/88 85/85/85 86/86/86
f 86/86/86 89/89/89 88/88/88
f 89/89/89 90/90/90 88/88/88
f 91/91/91 87/87/87 85/85/85
f 88/88/88 90/90/90 92/92/92
f 88/88/88 93/93/93 85/85/85
f 88/88/88 92/92/92 93/93/93
f 93/93/93 91/91/91 85/85/85
f 92/92/92 90/90/90 94/94/94
f 87/87/87 91/91/91 95/95/95
f 95/95/95 84/84/84 87/87/87
f 94/94/94 96/96/96 92/92/92
f 97/97/97 93/93/93 92/92/92
f 96/96/96 97/97/97 92/92/92
f 91/91/91 93/93/93 98/98/98
f 93/93/93 97/97/97 98/98/98
f 96/96/96 94/94/94 99/99/99
f 100/100/100 99/99/99 94/94/94
f 100/100/100 101/101/101 99/99/99
f 102/102/102 97/97/97 96/96/96
f 96/96/96 99/99/99 102/102/102
f 99/99/99 101/101/101 103/103/103
f 103/103/103 101/101/101 104/104/104
f 104/104/104 105/105/105 103/103/103
f 106/106/106 102/102/102 99/99/99
f 99/99/99 103/103/103 106/106/106
f 105/105/105 107/107/107 103/103/103
f 106/106/106 103/103/103 107/107/107
f 108/108/108 107/107/107 105/105/105
f 109/109/109 107/107/107 108/108/108
f 106/106/106 107/107/107 109/109/109
f 110/110/110 109/109/109 108/108/108
f 102/102/102 106/106/106 111/111/111
f 102/102/102 111/111/111 97/97/97
f 106/106/106 109/109/109 112/112/112
f 112/112/112 111/111/111 106/106/106
f 110/110/110 113/113/113 109/109/109
f 114/114/114 113/113/113 110/110/110
f 112/112/112 109/109/109 115/115/115
f 113/113/113 115/115/115 109/109/109
f 116/116/116 113/113/113 114/114/114
f 115/115/115 113/113/113 116/116/116
f 114/114/114 117/117/117 116/116/116
f 117/117/117 118/118/118 116/116/116
f 115/115/115 119/119/119 112/112/112
f 111/111/111 112/112/112 119/119/119
f 116/116/116 120/120/120 115/115/115
f 119/119/119 115/115/115 120/120/120
f 118/118/118 121/121/121 116/116/116
f 116/116/116 121/121/121 120/120/120
f 118/118/118 122/122/122 121/121/121
f 123/123/123 97/97/97 111/111/111
f 111/111/111 119/119/119 123/123/123
f 123/123/123 98/98/98 97/97/97
f 124/124/124 121/121/121 122/122/122
f 122/122/122 125/125/125 124/124/124
f 126/126/126 124/124/124 125/125/125
f 127/127/127 124/124/124 126/126/126
f 124/124/124 127/127/127 121/121/121
f 128/128/128 127/127/127 126/126/126
f 128/128/128 129/129/129 127/127/127
f 130/130/130 121/121/121 127/127/127
f 130/130/130 120/120/120 121/121/121
f 131/131/131 127/127/127 129/129/129
f 127/127/127 131/131/131 130/130/130
f 129/129/129 132/132/132 131/131/131
f 120/120/120 130/130/130 133/133/133
f 133/133/133 119/119/119 120/120/120
f 134/134/134 130/130/130 131/131/131
f 130/130/130 134/134/134 133/133/133
f 135/135/135 131/131/131 132/132/132
f 133/133/133 134/134/134 136/136/136
f 133/133/133 136/136/136 119/119/119
f 134/134/134 131/131/131 137/137/137
f 134/134/134 137/137/137 136/136/136
f 135/135/135 137/137/137 131/131/131
f 138/138/138 119/119/119 136/136/136
f 119/119/119 138/138/138 123/123/123
f 136/136/136 137/137/137 139/139/139
f 136/136/136 139/139/139 138/138/138
f 138/138/138 140/140/140 123/123/123
f 140/140/140 138/138/138 139/139/139
f 98/98/98 123/123/123 140/140/140
f 141/141/141 139/139/139 137/137/137
f 137/137/137 135/135/135 141/141/141
f 98/98/98 140/140/140 142/142/142
f 98/98/98 142/142/142 91/91/91
f 142/142/142 95/95/95 91/91/91
f 140/140/140 143/143/143 142/142/142
f 140/140/140 139/139/139 143/143/143
f 142/142/142 144/144/144 95/95/95
f 143/143/143 144/144/144 142/142/142
f 145/145/145 143/143/143 139/139/139
f 144/144/144 146/146/146 95/95/95
f 84/84/84 95/95/95 146/146/146
f 144/144/144 143/143/143 147/147/147
f 145/145/145 147/147/147 143/143/143
f 145/145/145 139/139/139 148/148/148
f 145/145/145 148/148/148 147/147/147
f 141/141/141 148/148/148 139/139/139
f 147/147/147 149/149/149 144/144/144
f 149/149/149 146/146/146 144/144/144
f 150/150/150 147/147/147 148/148/148
f 147/147/147 150/150/150 149/149/149
f 148/148/148 141/141/141 151/151/151
f 148/148/148 151/151/151 150/150/150
f 152/152/152 141/141/141 135/135/135
f 152/152/152 151/151/151 141/141/141
f 135/135/135 132/132/132 152/152/152
f 153/153/153 152/152/152 132/132/132
f 153/153/153 154/154/154 152/152/152
f 151/151/151 152/152/152 154/154/154
f 155/155/155 151/151/151 154/154/154
f 155/155/155 150/150/150 151/151/151
f 156/156/156 155/155/155 154/154/154
f 157/157/157 155/155/155 156/156/156
f 155/155/155 157/157/157 150/150/150
f 158/158/158 157/157/157 156/156/156
f 158/158/158 159/159/159 157/157/157
f 160/160/160 150/150/150 157/157/157
f 160/160/160 149/149/149 150/150/150
f 161/161/161 157/157/157 159/159/159
f 159/159/159 162/162/162 161/161/161
f 160/160/160 157/157/157 163/163/163
f 161/161/161 163/163/163 157/157/157
f 160/160/160 163/163/163 149/149/149
f 164/164/164 161/161/161 162/162/162
f 162/162/162 165/165/165 164/164/164
f 166/166/166 149/149/149 163/163/163
f 146/146/146 149/149/149 166/166/166
f 163/163/163 161/161/161 167/167/167
f 164/164/164 167/167/167 161/161/161
f 163/163/163 167/167/167 166/166/166
f 168/168/168 164/164/164 165/165/165
f 164/164/164 168/168/168 167/167/167
f 168/168/168 165/165/165 169/169/169
f 170/170/170 169/169/169 165/165/165
f 171/171/171 167/167/167 168/168/168
f 168/168/168 169/169/169 171/171/171
f 172/172/172 166/166/166 167/167/167
f 171/171/171 173/173/173 167/167/167
f 173/173/173 172/172/172 167/167/167
f 174/174/174 171/171/171 169/169/169
f 171/171/171 174/174/174 173/173/173
f 169/169/169 170/170/170 175/175/175
f 174/174/174 169/169/169 175/175/175
f 176/176/176 175/175/175 170/170/170
f 176/176/176 177/177/177 175/175/175
f 178/178/178 173/173/173 174/174/174
f 179/179/179 175/175/175 177/177/177
f 177/177/177 180/180/180 179/179/179
f 175/175/175 181/181/181 174/174/174
f 174/174/174 181/181/181 178/178/178
f 182/182/182 179/179/179 180/180/180
f 180/180/180 183/183/183 182/182/182
f 179/179/179 184/184/184 175/175/175
f 179/179/179 182/182/182 184/184/184
f 181/181/181 175/175/175 184/184/184
f 185/185/185 182/182/182 183/183/183
f 181/181/181 184/184/184 186/186/186
f 178/178/178 181/181/181 186/186/186
f 187/187/187 184/184/184 182/182/182
f 182/182/182 185/185/185 187/187/187
f 186/186/186 184/184/184 188/188/188
f 184/184/184 187/187/187 189/189/189
f 189/189/189 188/188/188 184/184/184
f 190/190/190 187/187/187 185/185/185
f 187/187/187 190/190/190 189/189/189
f 185/185/185 183/183/183 191/191/191
f 192/192/192 191/191/191 183/183/183
f 190/190/190 185/185/185 193/193/193
f 191/191/191 193/193/193 185/185/185
f 191/191/191 192/192/192 194/194/194
f 192/192/192 195/195/195 194/194/194
f 195/195/195 196/196/196 194/194/194
f 197/197/197 194/194/194 196/196/196
f 194/194/194 198/198/198 191/191/191
f 194/194/194 197/197/197 198/198/198
f 193/193/193 191/191/191 198/198/198
f 197/197/197 199/199/199 198/198/198
f 198/198/198 199/199/199 200/200/200
f 193/193/193 198/198/198 200/200/200
f 200/200/200 199/199/199 201/201/201
f 200/200/200 201/201/201 53/53/53
f 200/200/200 53/53/53 52/52/52
f 64/64/64 200/200/200 52/52/52
f 200/200/200 202/202/202 193/193/193
f 200/200/200 64/64/64 202/202/202
f 202/202/202 203/203/203 193/193/193
f 203/203/203 202/202/202 64/64/64
f 190/190/190 193/193/193 203/203/203
f 203/203/203 189/189/189 190/190/190
f 64/64/64 204/204/204 203/203/203
f 203/203/203 204/204/204 189/189/189
f 204/204/204 64/64/64 62/62/62
f 205/205/205 189/189/189 204/204/204
f 205/205/205 204/204/204 62/62/62
f 189/189/189 205/205/205 206/206/206
f 188/188/188 189/189/189 206/206/206
f 207/207/207 205/205/205 62/62/62
f 205/205/205 207/207/207 206/206/206
f 207/207/207 62/62/62 58/58/58
f 206/206/206 208/208/208 188/188/188
f 186/186/186 188/188/188 208/208/208
f 209/209/209 206/206/206 207/207/207
f 58/58/58 209/209/209 207/207/207
f 208/208/208 206/206/206 209/209/209
f 58/58/58 210/210/210 209/209/209
f 210/210/210 58/58/58 59/59/59
f 210/210/210 59/59/59 67/67/67
f 210/210/210 211/211/211 209/209/209
f 67/67/67 211/211/211 210/210/210
f 211/211/211 208/208/208 209/209/209
f 211/211/211 67/67/67 75/75/75
f 211/211/211 75/75/75 208/208/208
f 208/208/208 212/212/212 186/186/186
f 212/212/212 208/208/208 75/75/75
f 178/178/178 186/186/186 212/212/212
f 75/75/75 213/213/213 212/212/212
f 213/213/213 75/75/75 72/72/72
f 212/212/212 214/214/214 178/178/178
f 212/212/212 213/213/213 214/214/214
f 173/173/173 178/178/178 214/214/214
f 213/213/213 72/72/72 78/78/78
f 173/173/173 214/214/214 172/172/172
f 214/214/214 213/213/213 215/215/215
f 215/215/215 172/172/172 214/214/214
f 78/78/78 216/216/216 213/213/213
f 216/216/216 215/215/215 213/213/213
f 172/172/172 215/215/215 217/217/217
f 217/217/217 215/215/215 216/216/216
f 217/217/217 166/166/166 172/172/172
f 166/166/166 217/217/217 146/146/146
f 216/216/216 78/78/78 218/218/218
f 218/218/218 217/217/217 216/216/216
f 217/217/217 218/218/218 146/146/146
f 80/80/80 218/218/218 78/78/78
f 218/218/218 84/84/84 146/146/146
f 218/218/218 80/80/80 84/84/84
f 221/221/221 220/220/220 219/219/219
f 221/221/221 219/219/219 222/222/222
f 220/220/220 223/223/223 219/219/219
f 223/223/223 220/220/220 224/224/224
f 223/223/223 225/225/225 219/219/219
f 224/224/224 225/225/225 223/223/223
f 226/226/226 222/222/222 219/219/219
f 226/226/226 219/219/219 225/225/225
f 224/224/224 227/227/227 225/225/225
f 227/227/227 226/226/226 225/225/225
f 228/228/228 227/227/227 224/224/224
f 226/226/226 229/229/229 222/222/222
f 227/227/227 229/229/229 226/226/226
f 229/229/229 230/230/230 222/222/222
f 229/229/229 231/231/231 230/230/230
f 228/228/228 232/232/232 227/227/227
f 232/232/232 228/228/228 233/233/233
f 234/234/234 229/229/229 227/227/227
f 232/232/232 234/234/234 227/227/227
f 234/234/234 231/231/231 229/229/229
f 232/232/232 233/233/233 234/234/234
f 231/231/231 234/234/234 233/233/233
f 237/237/237 236/236/236 235/235/235
f 236/236/236 238/238/238 235/235/235
f 235/235/235 239/239/239 237/237/237
f 235/235/235 238/238/238 240/240/240
f 240/240/240 238/238/238 241/241/241
f 235/235/235 242/242/242 239/239/239
f 242/242/242 235/235/235 240/240/240
f 239/239/239 242/242/242 243/243/243
f 240/240/240 241/241/241 244/244/244
f 241/241/241 245/245/245 244/244/244
f 240/240/240 246/246/246 242/242/242
f 245/245/245 247/247/247 244/244/244
f 247/247/247 245/245/245 248/248/248
f 244/244/244 249/249/249 240/240/240
f 246/246/246 240/240/240 249/249/249
f 250/250/250 244/244/244 247/247/247
f 249/249/249 244/244/244 250/250/250
f 251/251/251 247/247/247 248/248/248
f 248/248/248 252/252/252 251/251/251
f 252/252/252 253/253/253 251/251/251
f 250/250/250 247/247/247 254/254/254
f 251/251/251 254/254/254 247/247/247
f 255/255/255 251/251/251 253/253/253
f 253/253/253 256/256/256 255/255/255
f 251/251/251 257/257/257 254/254/254
f 255/255/255 257/257/257 251/251/251
f 258/258/258 255/255/255 256/256/256
f 256/256/256 259/259/259 258/258/258
f 260/260/260 258/258/258 259/259/259
f 255/255/255 258/258/258 261/261/261
f 261/261/261 258/258/258 260/260/260
f 261/261/261 257/257/257 255/255/255
f 262/262/262 261/261/261 260/260/260
f 263/263/263 261/261/261 262/262/262
f 264/264/264 261/261/261 263/263/263
f 261/261/261 264/264/264 257/257/257
f 263/263/263 265/265/265 264/264/264
f 266/266/266 257/257/257 264/264/264
f 266/266/266 254/254/254 257/257/257
f 267/267/267 264/264/264 265/265/265
f 268/268/268 254/254/254 266/266/266
f 269/269/269 267/267/267 265/265/265
f 270/270/270 269/269/269 265/265/265
f 264/264/264 267/267/267 271/271/271
f 264/264/264 271/271/271 266/266/266
f 267/267/267 269/269/269 271/271/271
f 266/266/266 271/271/271 268/268/268
f 272/272/272 269/269/269 270/270/270
f 273/273/273 272/272/272 270/270/270
f 274/274/274 271/271/271 269/269/269
f 269/269/269 272/272/272 274/274/274
f 268/268/268 271/271/271 275/275/275
f 271/271/271 274/274/274 275/275/275
f 254/254/254 268/268/268 276/276/276
f 268/268/268 275/275/275 276/276/276
f 276/276/276 250/250/250 254/254/254
f 277/277/277 275/275/275 274/274/274
f 276/276/276 278/278/278 250/250/250
f 249/249/249 250/250/250 278/278/278
f 279/279/279 276/276/276 275/275/275
f 279/279/279 278/278/278 276/276/276
f 279/279/279 275/275/275 280/280/280
f 277/277/277 280/280/280 275/275/275
f 278/278/278 279/279/279 281/281/281
f 279/279/279 280/280/280 282/282/282
f 281/281/281 279/279/279 282/282/282
f 278/278/278 283/283/283 249/249/249
f 246/246/246 249/249/249 283/283/283
f 284/284/284 278/278/278 281/281/281
f 283/283/283 278/278/278 284/284/284
f 283/283/283 285/285/285 246/246/246
f 242/242/242 246/246/246 285/285/285
f 285/285/285 243/243/243 242/242/242
f 285/285/285 283/283/283 286/286/286
f 285/285/285 286/286/286 243/243/243
f 284/284/284 286/286/286 283/283/283
f 287/287/287 243/243/243 286/286/286
f 286/286/286 288/288/288 287/287/287
f 289/289/289 288/288/288 286/286/286
f 286/286/286 284/284/284 289/289/289
f 289/289/289 290/290/290 288/288/288
f 284/284/284 281/281/281 291/291/291
f 291/291/291 289/289/289 284/284/284
f 282/282/282 291/291/291 281/281/281
f 292/292/292 290/290/290 289/289/289
f 289/289/289 291/291/291 292/292/292
f 292/292/292 293/293/293 290/290/290
f 294/294/294 290/290/290 293/293/293
f 295/295/295 292/292/292 291/291/291
f 292/292/292 295/295/295 293/293/293
f 291/291/291 282/282/282 295/295/295
f 293/293/293 296/296/296 294/294/294
f 297/297/297 294/294/294 296/296/296
f 298/298/298 293/293/293 295/295/295
f 293/293/293 298/298/298 296/296/296
f 299/299/299 295/295/295 282/282/282
f 295/295/295 299/299/299 298/298/298
f 282/282/282 280/280/280 299/299/299
f 296/296/296 300/300/300 297/297/297
f 301/301/301 297/297/297 300/300/300
f 280/280/280 302/302/302 299/299/299
f 280/280/280 277/277/277 302/302/302
f 303/303/303 298/298/298 299/299/299
f 299/299/299 302/302/302 303/303/303
f 304/304/304 296/296/296 298/298/298
f 298/298/298 303/303/303 304/304/304
f 296/296/296 304/304/304 300/300/300
f 302/302/302 305/305/305 303/303/303
f 306/306/306 304/304/304 303/303/303
f 303/303/303 305/305/305 306/306/306
f 307/307/307 300/300/300 304/304/304
f 304/304/304 306/306/306 307/307/307
f 300/300/300 308/308/308 301/301/301
f 300/300/300 307/307/307 308/308/308
f 309/309/309 301/301/301 308/308/308
f 310/310/310 307/307/307 306/306/306
f 308/308/308 311/311/311 309/309/309
f 312/312/312 309/309/309 311/311/311
f 104/104/104 312/312/312 311/311/311
f 105/105/105 104/104/104 311/311/311
f 313/313/313 308/308/308 307/307/307
f 308/308/308 313/313/313 311/311/311
f 307/307/307 310/310/310 313/313/313
f 105/105/105 311/311/311 314/314/314
f 314/314/314 311/311/311 313/313/313
f 314/314/314 108/108/108 105/105/105
f 313/313/313 315/315/315 314/314/314
f 315/315/315 313/313/313 310/310/310
f 108/108/108 314/314/314 316/316/316
f 316/316/316 314/314/314 315/315/315
f 108/108/108 316/316/316 110/110/110
f 310/310/310 317/317/317 315/315/315
f 316/316/316 318/318/318 110/110/110
f 318/318/318 114/114/114 110/110/110
f 315/315/315 319/319/319 316/316/316
f 318/318/318 316/316/316 319/319/319
f 319/319/319 315/315/315 317/317/317
f 114/114/114 318/318/318 320/320/320
f 320/320/320 318/318/318 319/319/319
f 117/117/117 114/114/114 320/320/320
f 117/117/117 320/320/320 118/118/118
f 321/321/321 320/320/320 319/319/319
f 321/321/321 319/319/319 317/317/317
f 322/322/322 118/118/118 320/320/320
f 321/321/321 322/322/322 320/320/320
f 118/118/118 322/322/322 122/122/122
f 323/323/323 321/321/321 317/317/317
f 324/324/324 122/122/122 322/322/322
f 122/122/122 324/324/324 125/125/125
f 325/325/325 125/125/125 324/324/324
f 326/326/326 322/322/322 321/321/321
f 321/321/321 323/323/323 326/326/326
f 322/322/322 327/327/327 324/324/324
f 324/324/324 327/327/327 325/325/325
f 327/327/327 322/322/322 326/326/326
f 328/328/328 325/325/325 327/327/327
f 328/328/328 327/327/327 329/329/329
f 327/327/327 330/330/330 329/329/329
f 326/326/326 330/330/330 327/327/327
f 329/329/329 330/330/330 331/331/331
f 330/330/330 326/326/326 332/332/332
f 332/332/332 326/326/326 323/323/323
f 330/330/330 333/333/333 331/331/331
f 332/332/332 334/334/334 330/330/330
f 333/333/333 330/330/330 334/334/334
f 323/323/323 335/335/335 332/332/332
f 334/334/334 332/332/332 335/335/335
f 333/333/333 336/336/336 331/331/331
f 337/337/337 331/331/331 336/336/336
f 337/337/337 336/336/336 273/273/273
f 336/336/336 272/272/272 273/273/273
f 334/334/334 338/338/338 333/333/333
f 336/336/336 333/333/333 338/338/338
f 272/272/272 336/336/336 339/339/339
f 338/338/338 339/339/339 336/336/336
f 339/339/339 274/274/274 272/272/272
f 274/274/274 339/339/339 277/277/277
f 338/338/338 334/334/334 340/340/340
f 335/335/335 340/340/340 334/334/334
f 339/339/339 338/338/338 341/341/341
f 341/341/341 277/277/277 339/339/339
f 340/340/340 341/341/341 338/338/338
f 341/341/341 302/302/302 277/277/277
f 302/302/302 341/341/341 305/305/305
f 340/340/340 305/305/305 341/341/341
f 340/340/340 335/335/335 305/305/305
f 335/335/335 342/342/342 305/305/305
f 335/335/335 323/323/323 342/342/342
f 305/305/305 342/342/342 306/306/306
f 323/323/323 317/317/317 342/342/342
f 306/306/306 342/342/342 310/310/310
f 342/342/342 317/317/317 310/310/310
