mtllib SM_Pillar_01_b@000002909DC27200.mtl
g SM_Pillar_01_b@000002909DC27200
#Vertices 297
#Indices 1434
#Section 0 Offset 0 NumIndices 1146 MaterialIndex 0 MI_Pillar_02
#Section 1 Offset 1146 NumIndices 288 MaterialIndex 1 MI_Pillar_01
v 0.520448 0.625057 -0.492355 0.000000 0.000000 1.000000 1.000000
v 0.637940 0.625189 0.650322 0.000000 0.000000 1.000000 1.000000
v 0.520448 0.625057 0.535006 0.000000 0.000000 1.000000 1.000000
v 0.637940 0.625189 -0.607671 0.000000 0.000000 1.000000 1.000000
v -0.526297 0.623881 -0.492355 0.000000 0.000000 1.000000 1.000000
v 0.655329 0.607405 -0.607671 0.000000 0.000000 1.000000 1.000000
v 0.655329 0.607405 0.650322 0.000000 0.000000 1.000000 1.000000
v 0.655132 0.475387 0.650322 0.000000 0.000000 1.000000 1.000000
v -0.643788 0.623749 -0.607671 0.000000 0.000000 1.000000 1.000000
v -0.526297 0.623881 0.535006 0.000000 0.000000 1.000000 1.000000
v 0.630840 0.607405 -0.645078 0.000000 0.000000 1.000000 1.000000
v 0.655132 0.475386 -0.607671 0.000000 0.000000 1.000000 1.000000
v -0.637667 0.599080 -0.645078 0.000000 0.000000 1.000000 1.000000
v 0.630643 0.475386 -0.645078 0.000000 0.000000 1.000000 1.000000
v 0.630643 0.446777 -0.625623 0.000000 0.000000 1.000000 1.000000
v 0.630643 0.445694 0.658404 0.000000 0.000000 1.000000 1.000000
v 0.515130 0.445556 0.540702 0.000000 0.000000 1.000000 1.000000
v 0.515130 0.446440 -0.507921 0.000000 0.000000 1.000000 1.000000
v -0.629504 0.444183 -0.625623 0.000000 0.000000 1.000000 1.000000
v -0.513990 0.444321 -0.507921 0.000000 0.000000 1.000000 1.000000
v -0.629504 0.471777 -0.645078 0.000000 0.000000 1.000000 1.000000
v -0.662044 0.603161 -0.607671 0.000000 0.000000 1.000000 1.000000
v -0.664230 0.458649 -0.625623 0.000000 0.000000 1.000000 1.000000
v -0.629504 0.443100 0.658404 0.000000 0.000000 1.000000 1.000000
v -0.513990 0.443437 0.540702 0.000000 0.000000 1.000000 1.000000
v -0.662044 0.603161 0.650322 0.000000 0.000000 1.000000 1.000000
v -0.664230 0.457566 0.658404 0.000000 0.000000 1.000000 1.000000
v 0.630643 0.445694 0.658404 0.000000 0.000000 1.000000 1.000000
v 0.515130 0.445556 0.540702 0.000000 0.000000 1.000000 1.000000
v -0.629504 0.471777 0.690654 0.000000 0.000000 1.000000 1.000000
v -0.637667 0.599080 0.690654 0.000000 0.000000 1.000000 1.000000
v -0.643788 0.623749 0.650322 0.000000 0.000000 1.000000 1.000000
v 0.520448 0.625057 0.535006 0.000000 0.000000 1.000000 1.000000
v 0.637940 0.625189 0.650322 0.000000 0.000000 1.000000 1.000000
v 0.630840 0.607405 0.690654 0.000000 0.000000 1.000000 1.000000
v 0.655329 0.607405 0.650322 0.000000 0.000000 1.000000 1.000000
v 0.630643 0.475387 0.690654 0.000000 0.000000 1.000000 1.000000
v 0.655132 0.475387 0.650322 0.000000 0.000000 1.000000 1.000000
v 0.568101 2.065623 0.603437 0.000000 0.000000 1.000000 1.000000
v -0.578143 2.055297 0.603437 0.000000 0.000000 1.000000 1.000000
v 0.626150 2.106071 0.673099 0.000000 0.000000 1.000000 1.000000
v -0.629344 2.097041 0.673099 0.000000 0.000000 1.000000 1.000000
v -0.637093 2.134370 0.679290 0.000000 0.000000 1.000000 1.000000
v 0.638066 2.139442 0.679290 0.000000 0.000000 1.000000 1.000000
v -0.676041 2.097041 0.626402 0.000000 0.000000 1.000000 1.000000
v -0.626434 2.055297 0.555146 0.000000 0.000000 1.000000 1.000000
v -0.683789 2.134370 0.632593 0.000000 0.000000 1.000000 1.000000
v -0.659059 2.151892 0.698602 0.000000 0.000000 1.000000 1.000000
v 0.665808 2.162264 0.698688 0.000000 0.000000 1.000000 1.000000
v 0.714394 2.186987 0.763155 0.000000 0.000000 1.000000 1.000000
v -0.705755 2.151892 0.651906 0.000000 0.000000 1.000000 1.000000
v -0.720591 2.188359 0.763173 0.000000 0.000000 1.000000 1.000000
v -0.759606 2.183152 0.716347 0.000000 0.000000 1.000000 1.000000
v -0.716141 2.215442 0.767219 0.000000 0.000000 1.000000 1.000000
v 0.717896 2.213915 0.767219 0.000000 0.000000 1.000000 1.000000
v -0.759588 2.175932 -0.709768 0.000000 0.000000 1.000000 1.000000
v -0.744889 2.243169 0.780005 0.000000 0.000000 1.000000 1.000000
v 0.724378 2.234852 0.779686 0.000000 0.000000 1.000000 1.000000
v -0.762966 2.215442 0.720394 0.000000 0.000000 1.000000 1.000000
v -0.812093 2.272732 0.858812 0.000000 0.000000 1.000000 1.000000
v 0.814088 2.280794 0.858878 0.000000 0.000000 1.000000 1.000000
v -0.791715 2.239269 0.733179 0.000000 0.000000 1.000000 1.000000
v -0.858305 2.272732 0.812600 0.000000 0.000000 1.000000 1.000000
v -0.791397 2.241339 -0.734976 0.000000 0.000000 1.000000 1.000000
v -0.762966 2.215490 -0.714155 0.000000 0.000000 1.000000 1.000000
v -0.716141 2.215488 -0.760980 0.000000 0.000000 1.000000 1.000000
v -0.858371 2.272760 -0.811635 0.000000 0.000000 1.000000 1.000000
v -0.744948 2.245232 -0.782198 0.000000 0.000000 1.000000 1.000000
v -0.720123 2.181139 -0.756169 0.000000 0.000000 1.000000 1.000000
v -0.812544 2.272761 -0.858252 0.000000 0.000000 1.000000 1.000000
v 0.724690 2.237017 -0.782113 0.000000 0.000000 1.000000 1.000000
v -0.862481 2.373633 -0.812708 0.000000 0.000000 1.000000 1.000000
v -0.862481 2.373633 0.816267 0.000000 0.000000 1.000000 1.000000
v -0.816269 2.373633 -0.858920 0.000000 0.000000 1.000000 1.000000
v -0.816269 2.373633 0.862479 0.000000 0.000000 1.000000 1.000000
v 0.817496 2.377587 0.862479 0.000000 0.000000 1.000000 1.000000
v -0.583287 2.379606 0.629761 0.000000 0.000000 1.000000 1.000000
v 0.583288 2.379606 0.629761 0.000000 0.000000 1.000000 1.000000
v -0.629762 2.379606 -0.583289 0.000000 0.000000 1.000000 1.000000
v -0.629762 2.379606 0.583286 0.000000 0.000000 1.000000 1.000000
v -0.572259 2.708696 0.618506 0.000000 0.000000 1.000000 1.000000
v 0.566340 2.703648 0.618506 0.000000 0.000000 1.000000 1.000000
v -0.618507 2.708696 -0.577739 0.000000 0.000000 1.000000 1.000000
v -0.443355 2.820193 0.492610 0.000000 0.000000 1.000000 1.000000
v 0.435283 2.818040 0.492610 0.000000 0.000000 1.000000 1.000000
v -0.618507 2.708696 0.572258 0.000000 0.000000 1.000000 1.000000
v 0.339396 2.921338 0.393543 0.000000 0.000000 1.000000 1.000000
v -0.583287 2.379606 -0.629764 0.000000 0.000000 1.000000 1.000000
v -0.344059 2.921338 0.393543 0.000000 0.000000 1.000000 1.000000
v 0.266704 3.039165 0.314726 0.000000 0.000000 1.000000 1.000000
v -0.492613 2.820193 0.443352 0.000000 0.000000 1.000000 1.000000
v -0.269611 3.039165 0.314726 0.000000 0.000000 1.000000 1.000000
v 0.254301 3.092948 0.298983 0.000000 0.000000 1.000000 1.000000
v -0.393546 2.921338 0.344056 0.000000 0.000000 1.000000 1.000000
v -0.492613 2.820193 -0.439026 0.000000 0.000000 1.000000 1.000000
v -0.317636 3.039165 0.266702 0.000000 0.000000 1.000000 1.000000
v -0.572259 2.708696 -0.623987 0.000000 0.000000 1.000000 1.000000
v -0.393546 2.921338 -0.340692 0.000000 0.000000 1.000000 1.000000
v -0.443354 2.820193 -0.488284 0.000000 0.000000 1.000000 1.000000
v -0.258596 3.093113 0.298983 0.000000 0.000000 1.000000 1.000000
v -0.344059 2.921338 -0.390179 0.000000 0.000000 1.000000 1.000000
v 0.435283 2.818040 -0.488284 0.000000 0.000000 1.000000 1.000000
v 0.566340 2.703648 -0.623987 0.000000 0.000000 1.000000 1.000000
v 0.583288 2.379606 -0.629764 0.000000 0.000000 1.000000 1.000000
v 0.612588 2.703648 -0.577739 0.000000 0.000000 1.000000 1.000000
v 0.817496 2.377587 -0.858920 0.000000 0.000000 1.000000 1.000000
v 0.629763 2.379606 -0.583289 0.000000 0.000000 1.000000 1.000000
v 0.814511 2.280802 -0.858270 0.000000 0.000000 1.000000 1.000000
v 0.863708 2.377587 -0.812708 0.000000 0.000000 1.000000 1.000000
v 0.860723 2.280802 -0.812057 0.000000 0.000000 1.000000 1.000000
v 0.629763 2.379606 0.583286 0.000000 0.000000 1.000000 1.000000
v 0.863708 2.377587 0.816267 0.000000 0.000000 1.000000 1.000000
v 0.771515 2.237017 -0.735287 0.000000 0.000000 1.000000 1.000000
v 0.612588 2.703648 0.572258 0.000000 0.000000 1.000000 1.000000
v 0.860705 2.280795 0.813052 0.000000 0.000000 1.000000 1.000000
v 0.817496 2.377587 0.862479 0.000000 0.000000 1.000000 1.000000
v 0.583288 2.379606 0.629761 0.000000 0.000000 1.000000 1.000000
v 0.814088 2.280794 0.858878 0.000000 0.000000 1.000000 1.000000
v 0.566340 2.703648 0.618506 0.000000 0.000000 1.000000 1.000000
v 0.771600 2.234847 0.733238 0.000000 0.000000 1.000000 1.000000
v 0.724378 2.234852 0.779686 0.000000 0.000000 1.000000 1.000000
v 0.484541 2.818040 0.443352 0.000000 0.000000 1.000000 1.000000
v 0.435283 2.818040 0.492610 0.000000 0.000000 1.000000 1.000000
v 0.339396 2.921338 0.393543 0.000000 0.000000 1.000000 1.000000
v 0.484541 2.818040 -0.439026 0.000000 0.000000 1.000000 1.000000
v 0.388884 2.921338 0.344056 0.000000 0.000000 1.000000 1.000000
v 0.266704 3.039165 0.314726 0.000000 0.000000 1.000000 1.000000
v 0.388884 2.921338 -0.340692 0.000000 0.000000 1.000000 1.000000
v 0.339396 2.921338 -0.390179 0.000000 0.000000 1.000000 1.000000
v 0.314729 3.039165 -0.271492 0.000000 0.000000 1.000000 1.000000
v 0.314729 3.039165 0.266702 0.000000 0.000000 1.000000 1.000000
v 0.299923 3.092948 0.253360 0.000000 0.000000 1.000000 1.000000
v 0.254301 3.092948 0.298983 0.000000 0.000000 1.000000 1.000000
v 0.299923 3.092948 -0.265871 0.000000 0.000000 1.000000 1.000000
v 0.266704 3.039165 -0.319517 0.000000 0.000000 1.000000 1.000000
v 0.304412 3.123841 0.269196 0.000000 0.000000 1.000000 1.000000
v 0.259007 3.123841 0.314600 0.000000 0.000000 1.000000 1.000000
v -0.269611 3.039165 -0.319517 0.000000 0.000000 1.000000 1.000000
v 0.329408 3.142080 0.291941 0.000000 0.000000 1.000000 1.000000
v 0.283786 3.142080 0.337563 0.000000 0.000000 1.000000 1.000000
v 0.304411 3.123840 -0.273334 0.000000 0.000000 1.000000 1.000000
v 0.254301 3.092948 -0.311494 0.000000 0.000000 1.000000 1.000000
v 0.348004 3.179514 0.307474 0.000000 0.000000 1.000000 1.000000
v 0.302382 3.179514 0.353097 0.000000 0.000000 1.000000 1.000000
v 0.321990 3.196285 0.368822 0.000000 0.000000 1.000000 1.000000
v 0.329408 3.144581 -0.297062 0.000000 0.000000 1.000000 1.000000
v 0.367612 3.196285 0.323199 0.000000 0.000000 1.000000 1.000000
v 0.321585 3.245472 0.368822 0.000000 0.000000 1.000000 1.000000
v 0.367308 3.245513 0.323199 0.000000 0.000000 1.000000 1.000000
v 0.367292 3.245504 -0.323228 0.000000 0.000000 1.000000 1.000000
v 0.348004 3.179840 -0.312595 0.000000 0.000000 1.000000 1.000000
v 0.367612 3.196285 -0.323209 0.000000 0.000000 1.000000 1.000000
v 0.321588 3.245480 -0.379054 0.000000 0.000000 1.000000 1.000000
v 0.321990 3.196285 -0.379054 0.000000 0.000000 1.000000 1.000000
v 0.302382 3.179840 -0.358217 0.000000 0.000000 1.000000 1.000000
v -0.329599 3.203650 -0.379054 0.000000 0.000000 1.000000 1.000000
v -0.331375 3.248449 -0.378743 0.000000 0.000000 1.000000 1.000000
v 0.283786 3.144581 -0.342684 0.000000 0.000000 1.000000 1.000000
v -0.313874 3.187205 -0.358217 0.000000 0.000000 1.000000 1.000000
v 0.259007 3.123840 -0.318739 0.000000 0.000000 1.000000 1.000000
v -0.296402 3.149646 -0.342684 0.000000 0.000000 1.000000 1.000000
v -0.269210 3.124677 -0.318739 0.000000 0.000000 1.000000 1.000000
v -0.258596 3.093112 -0.311494 0.000000 0.000000 1.000000 1.000000
v -0.314614 3.124677 -0.273334 0.000000 0.000000 1.000000 1.000000
v -0.317636 3.039165 -0.271492 0.000000 0.000000 1.000000 1.000000
v -0.304218 3.093112 -0.265871 0.000000 0.000000 1.000000 1.000000
v -0.304218 3.093113 0.253360 0.000000 0.000000 1.000000 1.000000
v -0.314615 3.124678 0.269196 0.000000 0.000000 1.000000 1.000000
v -0.342025 3.149646 -0.297062 0.000000 0.000000 1.000000 1.000000
v -0.269210 3.124678 0.314600 0.000000 0.000000 1.000000 1.000000
v 0.259007 3.123841 0.314600 0.000000 0.000000 1.000000 1.000000
v 0.283786 3.142080 0.337563 0.000000 0.000000 1.000000 1.000000
v -0.296402 3.147144 0.337563 0.000000 0.000000 1.000000 1.000000
v 0.302382 3.179514 0.353097 0.000000 0.000000 1.000000 1.000000
v -0.342025 3.147144 0.291941 0.000000 0.000000 1.000000 1.000000
v -0.313874 3.186879 0.353097 0.000000 0.000000 1.000000 1.000000
v -0.359496 3.187205 -0.312595 0.000000 0.000000 1.000000 1.000000
v -0.359496 3.186879 0.307474 0.000000 0.000000 1.000000 1.000000
v -0.329599 3.203650 0.368822 0.000000 0.000000 1.000000 1.000000
v 0.321990 3.196285 0.368822 0.000000 0.000000 1.000000 1.000000
v 0.321585 3.245472 0.368822 0.000000 0.000000 1.000000 1.000000
v -0.331417 3.248450 0.368525 0.000000 0.000000 1.000000 1.000000
v -0.375221 3.203650 0.323199 0.000000 0.000000 1.000000 1.000000
v -0.376741 3.248400 0.323038 0.000000 0.000000 1.000000 1.000000
v -0.375221 3.203650 -0.323209 0.000000 0.000000 1.000000 1.000000
v -0.376742 3.248416 -0.323209 0.000000 0.000000 1.000000 1.000000
v 0.717896 2.214216 -0.760980 0.000000 0.000000 1.000000 1.000000
v 0.764722 2.214216 -0.714155 0.000000 0.000000 1.000000 1.000000
v 0.713899 2.179739 -0.756100 0.000000 0.000000 1.000000 1.000000
v 0.764722 2.213912 0.720394 0.000000 0.000000 1.000000 1.000000
v 0.717896 2.213915 0.767219 0.000000 0.000000 1.000000 1.000000
v 0.714394 2.186987 0.763155 0.000000 0.000000 1.000000 1.000000
v 0.760725 2.179739 -0.709274 0.000000 0.000000 1.000000 1.000000
v 0.760795 2.186986 0.715879 0.000000 0.000000 1.000000 1.000000
v 0.665808 2.162264 0.698688 0.000000 0.000000 1.000000 1.000000
v 0.712097 2.162272 0.651558 0.000000 0.000000 1.000000 1.000000
v 0.638066 2.139442 0.679290 0.000000 0.000000 1.000000 1.000000
v 0.712427 2.161255 -0.653871 0.000000 0.000000 1.000000 1.000000
v 0.684763 2.139445 0.632593 0.000000 0.000000 1.000000 1.000000
v 0.626150 2.106071 0.673099 0.000000 0.000000 1.000000 1.000000
v 0.684763 2.138440 -0.638372 0.000000 0.000000 1.000000 1.000000
v 0.672846 2.106071 0.626402 0.000000 0.000000 1.000000 1.000000
v 0.568101 2.065623 0.603437 0.000000 0.000000 1.000000 1.000000
v 0.616392 2.065623 0.555146 0.000000 0.000000 1.000000 1.000000
v 0.672846 2.096274 -0.630785 0.000000 0.000000 1.000000 1.000000
v 0.616391 2.061896 -0.575857 0.000000 0.000000 1.000000 1.000000
v 0.626150 2.096274 -0.677482 0.000000 0.000000 1.000000 1.000000
v 0.568101 2.061896 -0.624147 0.000000 0.000000 1.000000 1.000000
v 0.638066 2.138440 -0.685069 0.000000 0.000000 1.000000 1.000000
v -0.629344 2.087244 -0.677482 0.000000 0.000000 1.000000 1.000000
v -0.578143 2.051570 -0.624147 0.000000 0.000000 1.000000 1.000000
v 0.665731 2.161255 -0.700567 0.000000 0.000000 1.000000 1.000000
v -0.637093 2.133090 -0.685069 0.000000 0.000000 1.000000 1.000000
v -0.676041 2.087244 -0.630785 0.000000 0.000000 1.000000 1.000000
v -0.626433 2.051570 -0.575856 0.000000 0.000000 1.000000 1.000000
v -0.683789 2.133087 -0.638372 0.000000 0.000000 1.000000 1.000000
v -0.658711 2.150754 -0.700237 0.000000 0.000000 1.000000 1.000000
v -0.705841 2.150746 -0.653948 0.000000 0.000000 1.000000 1.000000
v -0.376741 3.248400 0.323038 0.000000 0.000000 1.000000 1.000000
v -0.326043 3.261694 0.355469 0.000000 0.000000 1.000000 1.000000
v -0.331417 3.248450 0.368525 0.000000 0.000000 1.000000 1.000000
v 0.321585 3.245472 0.368822 0.000000 0.000000 1.000000 1.000000
v -0.363803 3.261729 0.317652 0.000000 0.000000 1.000000 1.000000
v -0.376742 3.248416 -0.323209 0.000000 0.000000 1.000000 1.000000
v 0.316171 3.258669 0.355704 0.000000 0.000000 1.000000 1.000000
v 0.354151 3.258646 0.317783 0.000000 0.000000 1.000000 1.000000
v 0.367308 3.245513 0.323199 0.000000 0.000000 1.000000 1.000000
v 0.367292 3.245504 -0.323228 0.000000 0.000000 1.000000 1.000000
v 0.354142 3.258646 -0.318543 0.000000 0.000000 1.000000 1.000000
v -0.363793 3.261729 -0.318430 0.000000 0.000000 1.000000 1.000000
v -0.325254 3.261712 -0.365731 0.000000 0.000000 1.000000 1.000000
v -0.331375 3.248449 -0.378743 0.000000 0.000000 1.000000 1.000000
v 0.315387 3.258672 -0.365945 0.000000 0.000000 1.000000 1.000000
v 0.321588 3.245480 -0.379054 0.000000 0.000000 1.000000 1.000000
v 0.567340 2.033622 0.599337 0.000000 0.000000 1.000000 1.000000
v -0.567343 2.033622 0.599337 0.000000 0.000000 1.000000 1.000000
v -0.615634 2.033622 0.551047 0.000000 0.000000 1.000000 1.000000
v -0.615634 2.033622 -0.567340 0.000000 0.000000 1.000000 1.000000
v -0.567343 2.033622 -0.615630 0.000000 0.000000 1.000000 1.000000
v 0.567340 2.033622 -0.615630 0.000000 0.000000 1.000000 1.000000
v 0.615631 2.033622 -0.567340 0.000000 0.000000 1.000000 1.000000
v 0.615631 2.033622 0.551047 0.000000 0.000000 1.000000 1.000000
v 0.567340 2.033622 0.599337 0.000000 0.000000 1.000000 1.000000
v 0.711876 -0.001372 0.761045 0.000000 0.000000 1.000000 1.000000
v -0.714829 -0.001372 0.761045 0.000000 0.000000 1.000000 1.000000
v 0.711650 0.205966 0.781322 0.000000 0.000000 1.000000 1.000000
v -0.713324 0.201895 0.781324 0.000000 0.000000 1.000000 1.000000
v -0.761043 -0.001372 0.714831 0.000000 0.000000 1.000000 1.000000
v -0.609303 0.332490 0.665158 0.000000 0.000000 1.000000 1.000000
v 0.613668 0.331554 0.665158 0.000000 0.000000 1.000000 1.000000
v -0.759538 0.201895 0.735111 0.000000 0.000000 1.000000 1.000000
v -0.761043 -0.001372 -0.711876 0.000000 0.000000 1.000000 1.000000
v 0.563569 0.419238 0.611541 0.000000 0.000000 1.000000 1.000000
v -0.759536 0.201910 -0.710402 0.000000 0.000000 1.000000 1.000000
v -0.714829 -0.001372 -0.758089 0.000000 0.000000 1.000000 1.000000
v -0.657301 0.332490 0.617159 0.000000 0.000000 1.000000 1.000000
v -0.563572 0.419238 0.611541 0.000000 0.000000 1.000000 1.000000
v 0.547073 0.652847 0.593641 0.000000 0.000000 1.000000 1.000000
v -0.611542 0.419238 0.563571 0.000000 0.000000 1.000000 1.000000
v -0.657301 0.332490 -0.609301 0.000000 0.000000 1.000000 1.000000
v -0.713310 0.201932 -0.756607 0.000000 0.000000 1.000000 1.000000
v 0.711876 -0.001372 -0.758089 0.000000 0.000000 1.000000 1.000000
v 0.711640 0.206003 -0.756605 0.000000 0.000000 1.000000 1.000000
v 0.758089 -0.001372 -0.711876 0.000000 0.000000 1.000000 1.000000
v -0.609303 0.332490 -0.657300 0.000000 0.000000 1.000000 1.000000
v 0.757854 0.206003 -0.710392 0.000000 0.000000 1.000000 1.000000
v 0.758089 -0.001372 0.714831 0.000000 0.000000 1.000000 1.000000
v 0.613668 0.331554 -0.657300 0.000000 0.000000 1.000000 1.000000
v -0.563572 0.419238 -0.611538 0.000000 0.000000 1.000000 1.000000
v -0.611542 0.419238 -0.563569 0.000000 0.000000 1.000000 1.000000
v 0.563569 0.419238 -0.611538 0.000000 0.000000 1.000000 1.000000
v -0.593642 0.652847 0.547075 0.000000 0.000000 1.000000 1.000000
v -0.547076 0.652847 -0.593638 0.000000 0.000000 1.000000 1.000000
v -0.593642 0.652847 -0.547073 0.000000 0.000000 1.000000 1.000000
v -0.547076 0.652847 0.593641 0.000000 0.000000 1.000000 1.000000
v 0.567340 2.033622 0.599337 0.000000 0.000000 1.000000 1.000000
v -0.567343 2.033622 0.599337 0.000000 0.000000 1.000000 1.000000
v -0.615634 2.033622 0.551047 0.000000 0.000000 1.000000 1.000000
v -0.615634 2.033622 -0.567340 0.000000 0.000000 1.000000 1.000000
v -0.567343 2.033622 -0.615630 0.000000 0.000000 1.000000 1.000000
v 0.547073 0.652847 -0.593638 0.000000 0.000000 1.000000 1.000000
v 0.567340 2.033622 -0.615630 0.000000 0.000000 1.000000 1.000000
v 0.593639 0.652847 -0.547073 0.000000 0.000000 1.000000 1.000000
v 0.615631 2.033622 -0.567340 0.000000 0.000000 1.000000 1.000000
v 0.615631 2.033622 0.551047 0.000000 0.000000 1.000000 1.000000
v 0.611539 0.419238 -0.563569 0.000000 0.000000 1.000000 1.000000
v 0.593639 0.652847 0.547075 0.000000 0.000000 1.000000 1.000000
v 0.567340 2.033622 0.599337 0.000000 0.000000 1.000000 1.000000
v 0.547073 0.652847 0.593641 0.000000 0.000000 1.000000 1.000000
v 0.611539 0.419238 0.563571 0.000000 0.000000 1.000000 1.000000
v 0.563569 0.419238 0.611541 0.000000 0.000000 1.000000 1.000000
v 0.661667 0.331554 -0.609301 0.000000 0.000000 1.000000 1.000000
v 0.661667 0.331554 0.617159 0.000000 0.000000 1.000000 1.000000
v 0.613668 0.331554 0.665158 0.000000 0.000000 1.000000 1.000000
v 0.757856 0.205988 0.735097 0.000000 0.000000 1.000000 1.000000
v 0.711650 0.205966 0.781322 0.000000 0.000000 1.000000 1.000000
v 0.711876 -0.001372 0.761045 0.000000 0.000000 1.000000 1.000000
vt 0.611328 0.101562
vt 0.763184 0.088379
vt 0.747559 0.104980
vt 0.611328 0.086426
vt 0.481934 0.104980
vt 0.611816 0.081055
vt 0.763184 0.084961
vt 0.763672 0.065430
vt 0.481934 0.090332
vt 0.353760 0.107910
vt 0.609375 0.081543
vt 0.610840 0.064453
vt 0.483398 0.085449
vt 0.607910 0.063477
vt 0.609375 0.058594
vt 0.764160 0.059570
vt 0.749023 0.042480
vt 0.610840 0.043457
vt 0.482910 0.060547
vt 0.483154 0.045410
vt 0.483643 0.065430
vt 0.480469 0.085938
vt 0.481201 0.065918
vt 0.353760 0.062988
vt 0.353760 0.048340
vt 0.356689 0.086914
vt 0.354492 0.068359
vt 0.200439 0.062012
vt 0.215942 0.045898
vt 0.352783 0.068848
vt 0.353516 0.086426
vt 0.355469 0.092773
vt 0.215210 0.111328
vt 0.199341 0.094238
vt 0.200195 0.087891
vt 0.194580 0.089844
vt 0.200317 0.068359
vt 0.194214 0.067871
vt 0.186768 0.696289
vt 0.327393 0.680420
vt 0.181396 0.708740
vt 0.328613 0.689941
vt 0.327881 0.694336
vt 0.180786 0.713867
vt 0.334961 0.688477
vt 0.337891 0.680176
vt 0.336914 0.693115
vt 0.329102 0.697266
vt 0.178345 0.718750
vt 0.174438 0.729492
vt 0.336914 0.696533
vt 0.331299 0.705566
vt 0.334473 0.704346
vt 0.331055 0.708740
vt 0.174805 0.733398
vt 0.475098 0.695557
vt 0.332764 0.714111
vt 0.174683 0.737061
vt 0.335693 0.708252
vt 0.332275 0.721924
vt 0.167847 0.751953
vt 0.336182 0.712891
vt 0.337891 0.721191
vt 0.474365 0.704102
vt 0.473877 0.699951
vt 0.480957 0.700928
vt 0.474365 0.712158
vt 0.478760 0.707031
vt 0.479248 0.696533
vt 0.479736 0.714111
vt 0.617188 0.713379
vt 0.474121 0.723877
vt 0.338867 0.733154
vt 0.478760 0.726318
vt 0.333984 0.732666
vt 0.170654 0.765869
vt 0.334229 0.761963
vt 0.205078 0.792725
vt 0.469727 0.754395
vt 0.346191 0.760132
vt 0.348633 0.800781
vt 0.224976 0.836548
vt 0.473389 0.794189
vt 0.352783 0.822510
vt 0.250977 0.853760
vt 0.353271 0.800781
vt 0.272705 0.868164
vt 0.481201 0.753784
vt 0.357422 0.840332
vt 0.291260 0.881836
vt 0.362305 0.820679
vt 0.362793 0.859009
vt 0.295898 0.887695
vt 0.369873 0.839111
vt 0.469482 0.816406
vt 0.378174 0.857300
vt 0.477539 0.794922
vt 0.467529 0.833862
vt 0.479492 0.815918
vt 0.364502 0.866577
vt 0.480713 0.834473
vt 0.586426 0.824707
vt 0.595703 0.802002
vt 0.603516 0.763794
vt 0.599609 0.803467
vt 0.612305 0.733887
vt 0.615723 0.765137
vt 0.614258 0.722900
vt 0.616699 0.735840
vt 0.619141 0.724854
vt 0.745605 0.799072
vt 0.780762 0.770996
vt 0.619629 0.715332
vt 0.725098 0.842041
vt 0.783691 0.757568
vt 0.787109 0.775757
vt 0.752441 0.804443
vt 0.791504 0.758301
vt 0.731445 0.847168
vt 0.778809 0.741943
vt 0.787598 0.740234
vt 0.699219 0.859497
vt 0.704102 0.866821
vt 0.682617 0.879578
vt 0.596680 0.825195
vt 0.677246 0.872314
vt 0.665039 0.890320
vt 0.591309 0.843384
vt 0.578613 0.841553
vt 0.585938 0.861572
vt 0.658691 0.885010
vt 0.653809 0.891052
vt 0.661621 0.894043
vt 0.583496 0.868652
vt 0.570312 0.859375
vt 0.654297 0.895508
vt 0.662598 0.896729
vt 0.482910 0.851929
vt 0.655762 0.900146
vt 0.663574 0.900635
vt 0.581543 0.872437
vt 0.567383 0.866211
vt 0.655762 0.905762
vt 0.664062 0.905884
vt 0.664062 0.909790
vt 0.578125 0.875977
vt 0.656738 0.909485
vt 0.663574 0.916443
vt 0.654785 0.915466
vt 0.573242 0.889771
vt 0.576172 0.880676
vt 0.574707 0.883606
vt 0.569336 0.888855
vt 0.570801 0.882690
vt 0.569336 0.879211
vt 0.476318 0.875610
vt 0.475830 0.881348
vt 0.568359 0.874390
vt 0.478027 0.872314
vt 0.566895 0.870239
vt 0.479492 0.867310
vt 0.482422 0.863037
vt 0.483643 0.859009
vt 0.466797 0.862671
vt 0.466064 0.851440
vt 0.466309 0.858521
vt 0.381104 0.864258
vt 0.380127 0.868530
vt 0.469238 0.867310
vt 0.366455 0.870850
vt 0.297119 0.891846
vt 0.294922 0.896240
vt 0.369873 0.874268
vt 0.294189 0.901794
vt 0.378906 0.873169
vt 0.372070 0.879211
vt 0.470459 0.872437
vt 0.378906 0.878723
vt 0.374268 0.881653
vt 0.292725 0.905334
vt 0.294678 0.911316
vt 0.375488 0.887207
vt 0.377686 0.881775
vt 0.378662 0.887451
vt 0.471436 0.875183
vt 0.471436 0.880920
vt 0.618164 0.709961
vt 0.621582 0.712646
vt 0.619629 0.706055
vt 0.778320 0.738525
vt 0.786621 0.737061
vt 0.786133 0.733154
vt 0.621582 0.708496
vt 0.778320 0.734375
vt 0.781250 0.722412
vt 0.772949 0.725098
vt 0.780273 0.717285
vt 0.625977 0.702637
vt 0.771973 0.719727
vt 0.780273 0.712646
vt 0.626465 0.698242
vt 0.772461 0.714355
vt 0.774902 0.701660
vt 0.766113 0.702881
vt 0.625488 0.692871
vt 0.628418 0.685303
vt 0.619141 0.691406
vt 0.617188 0.683838
vt 0.617676 0.696045
vt 0.480469 0.681885
vt 0.482178 0.674561
vt 0.618652 0.699463
vt 0.482178 0.687744
vt 0.474609 0.680908
vt 0.472412 0.674316
vt 0.472900 0.686035
vt 0.481201 0.690430
vt 0.472900 0.689209
vt 0.131470 0.120605
vt 0.135498 0.113770
vt 0.137817 0.114746
vt 0.137939 0.032715
vt 0.130737 0.118652
vt 0.050720 0.121094
vt 0.135620 0.033691
vt 0.130859 0.028809
vt 0.131592 0.026367
vt 0.050659 0.026367
vt 0.051300 0.028809
vt 0.051361 0.118652
vt 0.045441 0.114258
vt 0.043121 0.115234
vt 0.045380 0.033691
vt 0.043060 0.032715
vt 0.186157 0.691650
vt 0.327148 0.677979
vt 0.336426 0.677490
vt 0.472900 0.672119
vt 0.482178 0.672363
vt 0.619141 0.680664
vt 0.628418 0.681641
vt 0.766113 0.697998
vt 0.774902 0.698242
vt 0.147705 0.156738
vt 0.316406 0.138672
vt 0.151245 0.183105
vt 0.319336 0.164062
vt 0.323975 0.139160
vt 0.317627 0.187500
vt 0.166260 0.203125
vt 0.322021 0.165527
vt 0.477783 0.138672
vt 0.174438 0.214844
vt 0.479004 0.165039
vt 0.483643 0.138672
vt 0.327881 0.187500
vt 0.318115 0.200684
vt 0.180420 0.242188
vt 0.330566 0.200195
vt 0.475342 0.186035
vt 0.482178 0.165039
vt 0.638184 0.141602
vt 0.638184 0.167969
vt 0.645020 0.141602
vt 0.485596 0.186035
vt 0.641602 0.167969
vt 0.813477 0.161133
vt 0.633301 0.188477
vt 0.486572 0.198730
vt 0.474121 0.198242
vt 0.630859 0.201172
vt 0.330811 0.231445
vt 0.484863 0.228516
vt 0.475830 0.228516
vt 0.322021 0.231445
vt 0.179443 0.459473
vt 0.327148 0.445312
vt 0.336426 0.444824
vt 0.472900 0.438965
vt 0.482178 0.438965
vt 0.630371 0.231934
vt 0.620605 0.448730
vt 0.639160 0.232422
vt 0.629395 0.449707
vt 0.780273 0.465820
vt 0.643555 0.201660
vt 0.780762 0.245117
vt 0.789062 0.466309
vt 0.789062 0.245605
vt 0.786133 0.217285
vt 0.794434 0.220215
vt 0.643555 0.188477
vt 0.794922 0.205566
vt 0.802246 0.210449
vt 0.812012 0.187500
vt 0.819336 0.190430
vt 0.821777 0.162109
vt1 0.631836 0.204102
vt1 0.860352 0.185547
vt1 0.836914 0.209473
vt1 0.631836 0.182617
vt1 0.437256 0.209473
vt1 0.633301 0.174316
vt1 0.860840 0.180176
vt1 0.861328 0.151367
vt1 0.437256 0.187500
vt1 0.244385 0.213867
vt1 0.629395 0.174805
vt1 0.631836 0.150391
vt1 0.439453 0.180664
vt1 0.626953 0.148926
vt1 0.629395 0.141602
vt1 0.862305 0.143066
vt1 0.839355 0.118164
vt1 0.631836 0.119629
vt1 0.438721 0.144531
vt1 0.438965 0.122559
vt1 0.439941 0.151855
vt1 0.435059 0.182129
vt1 0.436035 0.152344
vt1 0.244263 0.148438
vt1 0.244141 0.126953
vt1 0.248779 0.183105
vt1 0.245483 0.155762
vt1 0.013290 0.146973
vt1 0.036774 0.123047
vt1 0.242676 0.156738
vt1 0.244019 0.182617
vt1 0.246704 0.191895
vt1 0.035645 0.218262
vt1 0.011726 0.193848
vt1 0.013054 0.184570
vt1 0.004543 0.187500
vt1 0.013107 0.156250
vt1 0.003967 0.155273
vt1 0.032166 0.268066
vt1 0.241455 0.244629
vt1 0.024216 0.287109
vt1 0.243530 0.258789
vt1 0.242188 0.265137
vt1 0.023285 0.294922
vt1 0.252686 0.256348
vt1 0.257080 0.244141
vt1 0.255615 0.263672
vt1 0.244019 0.269531
vt1 0.019577 0.302246
vt1 0.013832 0.318359
vt1 0.255615 0.268555
vt1 0.247437 0.282227
vt1 0.252197 0.280273
vt1 0.247192 0.287109
vt1 0.014320 0.324219
vt1 0.461426 0.267090
vt1 0.249512 0.295410
vt1 0.014252 0.329590
vt1 0.253906 0.286621
vt1 0.248779 0.306641
vt1 0.003967 0.352051
vt1 0.254639 0.293457
vt1 0.257324 0.305664
vt1 0.460205 0.280273
vt1 0.459717 0.273926
vt1 0.469971 0.275391
vt1 0.460449 0.292480
vt1 0.467041 0.284180
vt1 0.467529 0.268555
vt1 0.468262 0.295410
vt1 0.672852 0.293945
vt1 0.459961 0.309570
vt1 0.258789 0.323730
vt1 0.466797 0.313477
vt1 0.251465 0.323242
vt1 0.008217 0.373047
vt1 0.251709 0.367188
vt1 0.059448 0.413086
vt1 0.453369 0.355957
vt1 0.269531 0.364258
vt1 0.273193 0.425293
vt1 0.088989 0.479492
vt1 0.458740 0.415527
vt1 0.279053 0.458008
vt1 0.127686 0.505127
vt1 0.280029 0.425293
vt1 0.159912 0.526611
vt1 0.470459 0.354980
vt1 0.286377 0.484863
vt1 0.187866 0.547363
vt1 0.293457 0.455566
vt1 0.293945 0.512939
vt1 0.194824 0.556152
vt1 0.304932 0.483398
vt1 0.453125 0.448730
vt1 0.316895 0.510254
vt1 0.464844 0.416504
vt1 0.450195 0.475098
vt1 0.468018 0.448242
vt1 0.296875 0.524170
vt1 0.469727 0.476074
vt1 0.626953 0.461426
vt1 0.640625 0.427246
vt1 0.652832 0.369629
vt1 0.646484 0.429688
vt1 0.665527 0.324707
vt1 0.670898 0.372070
vt1 0.668945 0.308105
vt1 0.672363 0.327637
vt1 0.676270 0.311035
vt1 0.864258 0.422852
vt1 0.916016 0.380859
vt1 0.676758 0.296875
vt1 0.833984 0.487305
vt1 0.920898 0.360352
vt1 0.925781 0.387695
vt1 0.874023 0.431152
vt1 0.932617 0.361816
vt1 0.843262 0.495117
vt1 0.913574 0.336914
vt1 0.926758 0.334473
vt1 0.794922 0.513672
vt1 0.802246 0.524658
vt1 0.770508 0.543945
vt1 0.642090 0.462402
vt1 0.762695 0.532959
vt1 0.744141 0.560059
vt1 0.634766 0.489746
vt1 0.615723 0.486816
vt1 0.626465 0.516846
vt1 0.734863 0.552002
vt1 0.727539 0.561279
vt1 0.739258 0.565674
vt1 0.622559 0.527588
vt1 0.603516 0.513672
vt1 0.728516 0.567871
vt1 0.740723 0.569580
vt1 0.473145 0.502197
vt1 0.730469 0.574707
vt1 0.742188 0.575439
vt1 0.619629 0.533203
vt1 0.599121 0.523682
vt1 0.730469 0.583252
vt1 0.742676 0.583496
vt1 0.742676 0.589355
vt1 0.615234 0.538330
vt1 0.731934 0.588867
vt1 0.741699 0.599365
vt1 0.729004 0.597900
vt1 0.607910 0.559326
vt1 0.611816 0.545410
vt1 0.609863 0.550049
vt1 0.602051 0.557861
vt1 0.603516 0.548584
vt1 0.601562 0.543213
vt1 0.463135 0.537842
vt1 0.462646 0.546631
vt1 0.600586 0.535889
vt1 0.465576 0.532959
vt1 0.597656 0.529785
vt1 0.467773 0.525391
vt1 0.472168 0.519043
vt1 0.474121 0.512939
vt1 0.449219 0.518555
vt1 0.447998 0.501465
vt1 0.448242 0.512207
vt1 0.321533 0.520752
vt1 0.320068 0.527344
vt1 0.452637 0.525391
vt1 0.299805 0.530762
vt1 0.196289 0.562256
vt1 0.193359 0.568848
vt1 0.304688 0.535889
vt1 0.192261 0.577393
vt1 0.318359 0.534180
vt1 0.308105 0.543457
vt1 0.454346 0.533203
vt1 0.318359 0.542725
vt1 0.311035 0.547119
vt1 0.189941 0.582520
vt1 0.192627 0.591553
vt1 0.312988 0.555420
vt1 0.316406 0.547119
vt1 0.317627 0.555664
vt1 0.455811 0.537354
vt1 0.455811 0.545898
vt1 0.674316 0.288574
vt1 0.679688 0.292969
vt1 0.676270 0.282715
vt1 0.912598 0.331543
vt1 0.925293 0.329590
vt1 0.924805 0.323730
vt1 0.679688 0.286621
vt1 0.913086 0.325684
vt1 0.917480 0.307617
vt1 0.905273 0.312012
vt1 0.916016 0.299805
vt1 0.686035 0.277832
vt1 0.903320 0.303711
vt1 0.915527 0.292969
vt1 0.686523 0.271484
vt1 0.903809 0.295410
vt1 0.907715 0.276367
vt1 0.894531 0.278320
vt1 0.685059 0.263184
vt1 0.689941 0.251953
vt1 0.675781 0.261230
vt1 0.673340 0.250000
vt1 0.673340 0.268066
vt1 0.469482 0.246582
vt1 0.471924 0.235840
vt1 0.674805 0.272949
vt1 0.471924 0.255371
vt1 0.460693 0.245117
vt1 0.457520 0.235352
vt1 0.458008 0.252930
vt1 0.470459 0.259766
vt1 0.458008 0.257324
vt1 0.869629 0.614990
vt1 0.864258 0.605469
vt1 0.860840 0.606445
vt1 0.860840 0.493652
vt1 0.870605 0.611816
vt1 0.980957 0.615234
vt1 0.864258 0.495117
vt1 0.870605 0.488770
vt1 0.869629 0.485352
vt1 0.980957 0.485352
vt1 0.979980 0.488770
vt1 0.979980 0.612061
vt1 0.987793 0.605713
vt1 0.991211 0.607178
vt1 0.988281 0.495117
vt1 0.991211 0.494141
vt1 0.031250 0.261230
vt1 0.241333 0.240723
vt1 0.254883 0.239746
vt1 0.458252 0.231934
vt1 0.471680 0.232422
vt1 0.676270 0.245117
vt1 0.689453 0.246582
vt1 0.895020 0.270996
vt1 0.907715 0.270996
vt1 0.003967 0.628906
vt1 0.232422 0.607178
vt1 0.008690 0.660156
vt1 0.236206 0.637695
vt1 0.242432 0.607910
vt1 0.234131 0.665283
vt1 0.029083 0.683594
vt1 0.239868 0.639160
vt1 0.450684 0.607422
vt1 0.040161 0.697754
vt1 0.452148 0.638428
vt1 0.458740 0.607178
vt1 0.247803 0.665039
vt1 0.234497 0.680908
vt1 0.048248 0.730469
vt1 0.251465 0.680420
vt1 0.447510 0.663330
vt1 0.456543 0.638428
vt1 0.667969 0.610840
vt1 0.667969 0.642334
vt1 0.677246 0.610840
vt1 0.461182 0.663330
vt1 0.672363 0.642334
vt1 0.904785 0.633789
vt1 0.661621 0.666504
vt1 0.462646 0.678467
vt1 0.445801 0.678223
vt1 0.658203 0.681641
vt1 0.251709 0.717285
vt1 0.460205 0.714111
vt1 0.447998 0.714111
vt1 0.239746 0.717773
vt1 0.046936 0.988182
vt1 0.246948 0.971497
vt1 0.259277 0.970795
vt1 0.444092 0.963593
vt1 0.456543 0.963776
vt1 0.657227 0.718018
vt1 0.643555 0.975159
vt1 0.668945 0.718506
vt1 0.655762 0.976334
vt1 0.860352 0.995819
vt1 0.674805 0.682129
vt1 0.860352 0.733643
vt1 0.872070 0.996033
vt1 0.872070 0.734131
vt1 0.868164 0.700684
vt1 0.879395 0.704102
vt1 0.675293 0.666504
vt1 0.879883 0.687012
vt1 0.889648 0.692627
vt1 0.902832 0.665039
vt1 0.913086 0.668701
vt1 0.916504 0.635254
vn 0.000000 1.000000 -0.000000
vn 0.251969 0.968504 -0.000000
vn 0.000000 1.000000 -0.000000
vn 0.110236 0.992126 -0.102362
vn 0.000000 1.000000 -0.000000
vn 0.992126 0.110236 -0.015748
vn 0.992126 0.110236 -0.000000
vn 0.984252 -0.165354 0.000000
vn -0.125984 0.984252 -0.141732
vn 0.000000 1.000000 -0.000000
vn 0.023622 0.259842 -0.968504
vn 0.984252 -0.181102 -0.015748
vn -0.031496 0.259842 -0.968504
vn 0.023622 -0.118110 -0.992126
vn 0.141732 -0.968504 -0.196850
vn 0.314961 -0.952756 0.000000
vn 0.000000 -1.000000 0.000000
vn 0.000000 -1.000000 0.000000
vn -0.086614 -0.984252 -0.173228
vn 0.000000 -1.000000 0.000000
vn -0.015748 -0.118110 -0.992126
vn -0.992126 0.118110 -0.015748
vn -0.976378 -0.212598 -0.023622
vn -0.078740 -0.984252 0.165354
vn 0.000000 -1.000000 0.000000
vn -0.992126 0.118110 0.015748
vn -0.976378 -0.204724 0.023622
vn 0.007874 -0.937008 0.338583
vn 0.000000 -1.000000 0.000000
vn -0.023622 -0.196850 0.984252
vn -0.031496 0.275591 0.960630
vn -0.125984 0.984252 0.141732
vn 0.000000 1.000000 -0.000000
vn 0.007874 0.984252 0.173228
vn 0.023622 0.283465 0.960630
vn 0.850394 0.078740 0.519685
vn 0.031496 -0.196850 0.984252
vn 0.850394 -0.070866 0.519685
vn 0.007874 -0.755905 0.653543
vn -0.015748 -0.811023 0.582677
vn 0.007874 -0.590551 0.811024
vn -0.023622 -0.614173 0.787401
vn -0.023622 -0.511811 0.858268
vn 0.000000 -0.496063 0.866142
vn -0.866142 -0.503937 0.047244
vn -0.677165 -0.732283 0.023622
vn -0.834646 -0.551181 0.031496
vn -0.015748 -0.866142 0.503937
vn 0.007874 -0.905512 0.417323
vn 0.007874 -0.685039 0.724409
vn -0.503937 -0.858268 0.015748
vn -0.031496 -0.677165 0.732283
vn -0.834646 -0.551181 0.039370
vn -0.023622 -0.322834 0.944882
vn 0.000000 -0.346457 0.937008
vn -0.858268 -0.503937 -0.031496
vn -0.015748 -0.905512 0.417323
vn 0.000000 -0.834646 0.543307
vn -0.834646 -0.551181 0.023622
vn -0.031496 -0.370079 0.929134
vn 0.000000 -0.338583 0.944882
vn -0.480315 -0.874016 0.007874
vn -0.952756 -0.299213 0.031496
vn -0.464567 -0.889764 -0.015748
vn -0.866142 -0.503937 -0.023622
vn -0.023622 -0.417323 -0.905512
vn -0.944882 -0.322835 -0.031496
vn -0.015748 -0.913386 -0.409449
vn -0.031496 -0.590551 -0.803149
vn -0.031496 -0.338583 -0.944882
vn 0.015748 -0.850394 -0.527559
vn -0.645669 0.763779 -0.015748
vn -0.724409 0.692913 0.023622
vn -0.023622 0.692913 -0.716535
vn -0.023622 0.771653 0.637795
vn 0.000000 0.669291 0.740157
vn -0.023622 0.826772 0.559055
vn 0.000000 0.755905 0.653543
vn -0.566929 0.818897 -0.023622
vn -0.669291 0.740157 0.023622
vn -0.039370 0.220473 0.976378
vn 0.000000 0.181102 0.984252
vn -0.976378 0.220472 -0.039370
vn -0.023622 0.748031 0.661417
vn 0.000000 0.732283 0.685039
vn -0.976378 0.196850 0.039370
vn 0.000000 0.653543 0.755905
vn -0.023622 0.740157 -0.677165
vn -0.055118 0.677165 0.732283
vn 0.000000 0.511811 0.858268
vn -0.661417 0.748031 0.031496
vn -0.062992 0.527559 0.850394
vn 0.000000 0.015748 1.000000
vn -0.732283 0.677165 0.039370
vn -0.653543 0.755905 -0.031496
vn -0.858268 0.511811 0.047244
vn -0.039370 0.196850 -0.976378
vn -0.732283 0.677165 -0.047244
vn -0.031496 0.763779 -0.637795
vn -0.078740 -0.007874 1.000000
vn -0.047244 0.669291 -0.740157
vn 0.031496 0.763779 -0.645669
vn 0.039370 0.220472 -0.976378
vn 0.023622 0.834646 -0.551181
vn 0.976378 0.212598 -0.047244
vn 0.015748 0.787401 -0.614173
vn 0.653543 0.755905 -0.023622
vn 0.031496 -0.330709 -0.944882
vn 0.700787 0.716535 -0.015748
vn 0.905512 -0.425197 -0.031496
vn 0.543307 0.842520 0.023622
vn 0.614173 0.795275 0.015748
vn 0.488189 -0.874016 -0.015748
vn 0.968504 0.244094 0.039370
vn 0.921260 -0.393701 0.031496
vn 0.204724 0.960630 0.204724
vn 0.480315 0.732283 0.480315
vn 0.519685 -0.669291 0.527559
vn 0.637795 0.425197 0.637795
vn 0.511811 -0.858268 0.015748
vn 0.314961 -0.897638 0.314961
vn 0.661417 0.748031 0.031496
vn 0.401575 0.826772 0.401575
vn 0.472441 0.740157 0.472441
vn 0.669291 0.748031 -0.031496
vn 0.748031 0.661417 0.055118
vn 0.566929 0.598425 0.566929
vn 0.755906 0.653543 -0.039370
vn 0.047244 0.653543 -0.755905
vn 0.866142 0.503937 -0.055118
vn 0.858268 0.503937 0.062992
vn 0.992126 0.110236 0.062992
vn 0.708661 0.047244 0.708661
vn 0.992126 0.110236 -0.070866
vn 0.055118 0.472441 -0.881890
vn 0.755906 -0.653543 0.070866
vn 0.496063 -0.716535 0.496063
vn -0.062992 0.464567 -0.881890
vn 0.811024 -0.574803 0.055118
vn 0.488189 -0.724409 0.488189
vn 0.795276 -0.606299 -0.062992
vn 0.070866 0.015748 -1.000000
vn 0.763780 -0.637795 0.055118
vn 0.527559 -0.661417 0.527559
vn 0.661417 -0.362205 0.661417
vn 0.811024 -0.590551 -0.055118
vn 0.976378 -0.212598 0.070866
vn 0.708661 0.007874 0.708661
vn 1.000000 0.007874 0.062992
vn 1.000000 0.007874 -0.062992
vn 0.755906 -0.653543 -0.055118
vn 0.968504 -0.236220 -0.062992
vn 0.078740 -0.000000 -1.000000
vn 0.078740 -0.228347 -0.968504
vn 0.047244 -0.661417 -0.748031
vn -0.078740 -0.244095 -0.968504
vn -0.086614 -0.000000 -1.000000
vn 0.055118 -0.535433 -0.842520
vn -0.070866 -0.637795 -0.763779
vn 0.055118 -0.590551 -0.803149
vn -0.062992 -0.511811 -0.858268
vn -0.062992 -0.582677 -0.811023
vn -0.070866 0.007874 -1.000000
vn -0.779528 -0.622047 -0.055118
vn -0.866142 0.496063 -0.062992
vn -1.000000 0.023622 -0.078740
vn -1.000000 0.015748 0.062992
vn -0.740157 -0.669291 0.055118
vn -0.826772 -0.559055 -0.062992
vn -0.055118 -0.645669 0.755905
vn 0.000000 -0.653543 0.755905
vn 0.000000 -0.480315 0.874016
vn -0.062992 -0.496063 0.866142
vn -0.007874 -0.559055 0.834646
vn -0.834646 -0.551181 0.055118
vn -0.070866 -0.559055 0.826772
vn -0.811024 -0.574803 -0.062992
vn -0.818898 -0.566929 0.055118
vn -0.070866 -0.181102 0.984252
vn 0.000000 -0.149606 0.992126
vn 0.000000 0.000000 1.000000
vn -0.070866 0.000000 1.000000
vn -0.968504 -0.220472 0.070866
vn -1.000000 -0.031496 0.062992
vn -0.968504 -0.228346 -0.070866
vn -1.000000 -0.031496 -0.062992
vn 0.031496 -0.448819 -0.897638
vn 0.976378 -0.212598 -0.023622
vn 0.031496 -0.614173 -0.787401
vn 0.968504 -0.244094 0.023622
vn 0.653543 -0.377953 0.653543
vn 0.377953 -0.842520 0.377953
vn 0.850394 -0.527559 -0.031496
vn 0.811024 -0.582677 0.039370
vn 0.275591 -0.921260 0.267717
vn 0.480315 -0.874016 0.015748
vn 0.559055 -0.614173 0.559055
vn 0.425197 -0.905512 -0.007874
vn 0.779528 -0.622047 0.023622
vn 0.409449 -0.811023 0.409449
vn 0.818898 -0.574803 -0.023622
vn 0.787402 -0.614173 0.039370
vn 0.425197 -0.803149 0.425197
vn 0.700787 -0.716535 0.023622
vn 0.818898 -0.566929 -0.031496
vn 0.653543 -0.755905 -0.023622
vn 0.039370 -0.511811 -0.858268
vn 0.023622 -0.763779 -0.645669
vn 0.031496 -0.409449 -0.913386
vn -0.031496 -0.488189 -0.874016
vn -0.015748 -0.795276 -0.606299
vn 0.023622 -0.921260 -0.385827
vn -0.023622 -0.409449 -0.913386
vn -0.881890 -0.464567 -0.039370
vn -0.622047 -0.779527 -0.015748
vn -0.866142 -0.496063 -0.031496
vn -0.015748 -0.866142 -0.496063
vn -0.456693 -0.889764 -0.015748
vn -0.708661 0.700787 0.039370
vn -0.007874 0.976378 0.220472
vn -0.039370 0.708661 0.700787
vn 0.047244 0.716535 0.700787
vn -0.015748 1.000000 -0.000000
vn -0.708661 0.700787 -0.039370
vn 0.015748 0.976378 0.204724
vn 0.023622 1.000000 -0.000000
vn 0.692913 0.716535 0.047244
vn 0.700787 0.716535 -0.039370
vn 0.023622 1.000000 -0.000000
vn -0.015748 1.000000 -0.000000
vn -0.007874 0.984252 -0.181102
vn -0.055118 0.708661 -0.700787
vn 0.023622 0.976378 -0.196850
vn 0.055118 0.716535 -0.692913
vn 0.000000 -0.007874 1.000000
vn -0.039370 -0.007874 1.000000
vn -1.000000 -0.023622 0.039370
vn -1.000000 -0.023622 -0.039370
vn -0.039370 -0.023622 -1.000000
vn 0.039370 -0.023622 -1.000000
vn 1.000000 -0.015748 -0.039370
vn 1.000000 -0.015748 0.039370
vn 0.708661 -0.015748 0.708661
vn 0.000000 -0.094488 0.992126
vn -0.031496 -0.102362 0.992126
vn 0.000000 0.165354 0.984252
vn -0.031496 0.204724 0.976378
vn -1.000000 0.007874 0.031496
vn -0.023622 0.645669 0.763779
vn 0.000000 0.645669 0.763779
vn -0.968504 0.244094 0.039370
vn -1.000000 0.007874 -0.031496
vn 0.000000 0.259843 0.968504
vn -0.976378 0.220472 -0.039370
vn -0.031496 0.007874 -1.000000
vn -0.803150 0.598425 0.023622
vn -0.039370 0.259843 0.968504
vn 0.000000 0.007874 1.000000
vn -0.968504 0.236220 0.039370
vn -0.803150 0.598425 -0.031496
vn -0.039370 0.236220 -0.968504
vn 0.031496 0.007874 -1.000000
vn 0.039370 0.220472 -0.976378
vn 1.000000 -0.000000 -0.031496
vn -0.023622 0.590551 -0.811024
vn 0.976378 0.204724 -0.039370
vn 1.000000 0.000000 0.031496
vn 0.031496 0.598425 -0.803150
vn -0.039370 0.236220 -0.968504
vn -0.976378 0.228346 -0.039370
vn 0.039370 0.228346 -0.976378
vn -1.000000 0.000000 0.039370
vn -0.039370 -0.000000 -1.000000
vn -1.000000 -0.000000 -0.039370
vn -0.039370 0.007874 1.000000
vn 0.000000 -0.007874 1.000000
vn -0.039370 -0.007874 1.000000
vn -1.000000 -0.023622 0.039370
vn -1.000000 -0.023622 -0.039370
vn -0.039370 -0.023622 -1.000000
vn 0.039370 -0.000000 -1.000000
vn 0.039370 -0.023622 -1.000000
vn 1.000000 -0.000000 -0.039370
vn 1.000000 -0.015748 -0.039370
vn 1.000000 -0.015748 0.039370
vn 0.968504 0.251968 -0.039370
vn 1.000000 0.000000 0.039370
vn 0.708661 -0.015748 0.708661
vn 0.708661 0.000000 0.708661
vn 0.968504 0.244094 0.039370
vn 0.677165 0.291339 0.677165
vn 0.803150 0.590551 -0.023622
vn 0.803150 0.598425 0.023622
vn 0.488189 0.724409 0.488189
vn 0.976378 0.220472 0.039370
vn 0.653543 0.377953 0.653543
vn 0.708661 -0.070866 0.708661
tan 0.708661 -0.000000 -0.700787 1.000000
tan 0.968504 -0.251968 -0.017236 1.000000
tan 1.000000 -0.000000 -0.023622 1.000000
tan 0.774195 -0.149606 -0.616281 1.000000
tan -0.685039 -0.000000 -0.724409 1.000000
tan 0.110112 -0.992374 -0.009548 1.000000
tan 0.110236 -0.992126 -0.015624 1.000000
tan -0.165354 -0.984252 -0.015500 1.000000
tan -0.739599 -0.187984 -0.648025 1.000000
tan -0.716535 0.000000 0.692913 1.000000
tan 0.203484 -0.947486 -0.249240 1.000000
tan -0.181102 -0.984500 0.002852 1.000000
tan -0.138384 -0.962862 -0.253828 1.000000
tan -0.161820 -0.977618 0.112530 1.000000
tan -0.694091 -0.239940 0.680761 1.000000
tan -0.952756 -0.314961 -0.007502 1.000000
tan -1.000000 -0.000000 -0.007874 1.000000
tan -0.700787 0.000000 0.708661 1.000000
tan 0.666935 -0.186186 0.724409 1.000000
tan 0.724409 0.000000 0.692913 1.000000
tan 0.224316 -0.969434 0.111848 1.000000
tan -0.116994 -0.992498 -0.073098 1.000000
tan 0.213528 -0.960630 -0.180172 1.000000
tan 0.683365 -0.173724 -0.708661 1.000000
tan 0.700787 -0.000000 -0.708661 1.000000
tan -0.117862 -0.992374 0.017484 1.000000
tan 0.205654 -0.976750 0.035216 1.000000
tan -0.339823 -0.319797 -0.877115 1.000000
tan 0.015748 -0.000000 -1.000000 1.000000
tan 0.206150 -0.962490 -0.187550 1.000000
tan -0.180544 -0.947982 0.266043 1.000000
tan -0.770600 -0.187488 0.617025 1.000000
tan -0.007874 0.000000 1.000000 1.000000
tan 0.342799 -0.164982 0.921818 1.000000
tan -0.008432 -0.961188 0.283837 1.000000
tan -0.032488 -0.979850 0.201624 1.000000
tan -0.086800 -0.977990 -0.192820 1.000000
tan -0.015252 -0.993242 -0.110484 1.000000
tan -0.078492 -0.654039 -0.755533 1.000000
tan 0.250418 -0.567673 -0.783371 1.000000
tan -0.090024 -0.811458 -0.589993 1.000000
tan 0.142104 -0.783805 -0.607105 1.000000
tan 0.051212 -0.859384 -0.511067 1.000000
tan -0.102362 -0.859322 -0.492157 1.000000
tan 0.449005 -0.809102 -0.398661 1.000000
tan 0.699175 -0.655899 -0.289850 1.000000
tan 0.512865 -0.794842 -0.318805 1.000000
tan 0.228904 -0.495257 -0.844070 1.000000
tan -0.109120 -0.414843 -0.898072 1.000000
tan -0.099882 -0.719263 -0.679087 1.000000
tan 0.780830 -0.465993 -0.410069 1.000000
tan 0.315643 -0.699361 -0.633145 1.000000
tan 0.505611 -0.790750 -0.351541 1.000000
tan 0.015066 -0.945440 -0.322648 1.000000
tan -0.116932 -0.929630 -0.343729 1.000000
tan 0.467977 -0.816913 0.318247 1.000000
tan 0.250046 -0.407899 -0.875628 1.000000
tan -0.119660 -0.539029 -0.828074 1.000000
tan 0.524273 -0.805878 -0.279496 1.000000
tan 0.121334 -0.924050 -0.363941 1.000000
tan -0.117490 -0.937442 -0.335917 1.000000
tan 0.803770 -0.445223 -0.389795 1.000000
tan 0.279745 -0.918470 -0.263190 1.000000
tan 0.795586 -0.423337 0.448757 1.000000
tan 0.483415 -0.842396 0.245893 1.000000
tan 0.055366 -0.906628 0.416393 1.000000
tan 0.277141 -0.853370 0.432823 1.000000
tan 0.155992 -0.405357 0.898258 1.000000
tan 0.276025 -0.777481 0.560853 1.000000
tan -0.006882 -0.945626 0.339079 1.000000
tan -0.426871 -0.483539 0.766693 1.000000
tan -0.737243 -0.628681 -0.264058 1.000000
tan -0.632029 -0.674065 0.390353 1.000000
tan -0.549259 -0.607353 -0.569223 1.000000
tan -0.410875 -0.590365 0.699051 1.000000
tan -0.105710 -0.734329 0.664021 1.000000
tan -0.411805 -0.519003 0.750139 1.000000
tan -0.145080 -0.648397 0.749954 1.000000
tan -0.783310 -0.550375 -0.280240 1.000000
tan -0.732655 -0.666811 0.134850 1.000000
tan -0.218984 -0.956724 0.207205 1.000000
tan -0.224130 -0.961002 0.176824 1.000000
tan -0.215946 -0.970860 -0.081344 1.000000
tan -0.558311 -0.557071 0.610081 1.000000
tan -0.273607 -0.658069 0.703453 1.000000
tan -0.192200 -0.971170 0.089280 1.000000
tan -0.301259 -0.720193 0.622667 1.000000
tan -0.235848 -0.660301 -0.713497 1.000000
tan -0.531837 -0.638663 0.550561 1.000000
tan -0.331949 -0.810961 0.483601 1.000000
tan -0.733771 -0.655465 0.158100 1.000000
tan -0.485957 -0.762105 0.436791 1.000000
tan -0.315085 -0.944882 0.014880 1.000000
tan -0.662781 -0.726331 0.165168 1.000000
tan -0.701841 -0.621055 -0.342117 1.000000
tan -0.511067 -0.861616 0.049786 1.000000
tan -0.200012 -0.956414 -0.184760 1.000000
tan -0.642693 -0.713869 -0.270382 1.000000
tan -0.319983 -0.611073 -0.715977 1.000000
tan -0.290781 -0.958336 -0.030442 1.000000
tan -0.354021 -0.706181 -0.615971 1.000000
tan 0.220596 -0.636369 -0.742017 1.000000
tan -0.031496 -0.977618 -0.222022 1.000000
tan 0.174840 -0.546221 -0.819641 1.000000
tan 0.180792 -0.912766 -0.371071 1.000000
tan 0.276521 -0.593589 -0.753921 1.000000
tan 0.684481 -0.604749 -0.414657 1.000000
tan -0.436729 -0.853618 0.284209 1.000000
tan 0.586335 -0.585963 -0.569409 1.000000
tan -0.425941 -0.906008 -0.014694 1.000000
tan 0.843264 -0.542935 -0.030380 1.000000
tan 0.788146 -0.610825 0.108996 1.000000
tan -0.866514 -0.485957 0.108686 1.000000
tan 0.243660 -0.913262 -0.331825 1.000000
tan -0.358981 -0.868436 -0.355261 1.000000
tan 0.883254 -0.269204 0.379937 1.000000
tan 0.796888 -0.589993 0.102610 1.000000
tan -0.446029 -0.738173 -0.497117 1.000000
tan 0.649513 -0.738235 -0.157356 1.000000
tan -0.801600 -0.484283 -0.341435 1.000000
tan -0.736189 -0.441441 -0.521917 1.000000
tan 0.719635 -0.623721 -0.298965 1.000000
tan 0.919214 -0.354145 -0.190092 1.000000
tan 0.878170 -0.383161 -0.277884 1.000000
tan 0.625953 -0.582057 -0.522351 1.000000
tan 0.626697 -0.676979 -0.381425 1.000000
tan 0.784425 -0.602641 -0.148304 1.000000
tan 0.530287 -0.646103 -0.543803 1.000000
tan 0.096658 -0.754789 -0.646537 1.000000
tan 0.413913 -0.766259 -0.501457 1.000000
tan 0.493025 -0.796268 -0.347325 1.000000
tan 0.126356 -0.914998 -0.388865 1.000000
tan 0.310249 -0.920702 -0.248868 1.000000
tan 0.076756 -0.929630 -0.371505 1.000000
tan -0.005456 -0.884494 -0.474177 1.000000
tan -0.524955 -0.664765 -0.531093 1.000000
tan -0.391035 -0.695269 -0.613243 1.000000
tan -0.282225 -0.859074 -0.432389 1.000000
tan -0.487817 -0.732159 -0.457499 1.000000
tan -0.471325 -0.688077 -0.549693 1.000000
tan -0.607477 -0.789509 -0.070370 1.000000
tan -0.211606 -0.980842 -0.030442 1.000000
tan -0.556017 -0.702957 -0.429413 1.000000
tan -0.455205 -0.747721 -0.482237 1.000000
tan -0.238204 -0.937442 -0.275156 1.000000
tan -0.592721 -0.813194 -0.008680 1.000000
tan -0.186372 -0.946866 -0.272800 1.000000
tan 0.055800 -1.004402 -0.044640 1.000000
tan 0.022506 -0.972472 -0.235724 1.000000
tan -0.005704 -0.980346 -0.213094 1.000000
tan -0.654845 -0.758943 0.018166 1.000000
tan -0.240312 -0.963854 -0.080352 1.000000
tan -0.118110 -0.998326 -0.009300 1.000000
tan -0.276397 -0.941534 0.199516 1.000000
tan -0.420361 -0.692231 0.585529 1.000000
tan 0.085994 -0.968938 0.237213 1.000000
tan -0.078740 -0.999628 0.006820 1.000000
tan -0.461157 -0.765701 0.456445 1.000000
tan 0.221774 -0.753673 0.608779 1.000000
tan -0.407713 -0.749209 0.522909 1.000000
tan 0.184698 -0.847418 0.491785 1.000000
tan 0.148242 -0.806683 0.568045 1.000000
tan -0.095046 -0.997148 -0.001116 1.000000
tan 0.599975 -0.770661 0.212102 1.000000
tan -0.474425 -0.855602 -0.214520 1.000000
tan -0.021762 -1.006200 -0.025482 1.000000
tan -0.026908 -0.988220 -0.180110 1.000000
tan 0.579019 -0.677227 -0.448075 1.000000
tan 0.536425 -0.818154 0.220535 1.000000
tan -0.087544 -0.749085 -0.646227 1.000000
tan -0.323455 -0.714241 -0.617521 1.000000
tan -0.302065 -0.832724 -0.457623 1.000000
tan -0.017484 -0.869118 -0.499039 1.000000
tan -0.291773 -0.793974 -0.534565 1.000000
tan 0.496931 -0.788952 -0.364561 1.000000
tan 0.026598 -0.831794 -0.560171 1.000000
tan 0.553289 -0.802281 0.197222 1.000000
tan 0.528861 -0.791928 -0.288176 1.000000
tan -0.019592 -0.988716 -0.183334 1.000000
tan -0.279311 -0.953066 -0.143716 1.000000
tan -0.291339 -0.952756 0.000000 1.000000
tan -0.125984 -0.997148 -0.008928 1.000000
tan 0.208630 -0.960506 -0.136958 1.000000
tan 0.029016 -1.003968 -0.041354 1.000000
tan 0.220968 -0.967016 0.096038 1.000000
tan 0.031496 -1.003968 0.001984 1.000000
tan -0.392275 -0.833157 0.402815 1.000000
tan -0.213342 -0.960630 -0.172484 1.000000
tan -0.557257 -0.662409 0.494389 1.000000
tan -0.240312 -0.961994 -0.087792 1.000000
tan -0.372373 -0.915990 -0.157356 1.000000
tan -0.680575 -0.529729 -0.500279 1.000000
tan -0.527311 -0.851634 0.027466 1.000000
tan -0.557195 -0.792299 -0.247814 1.000000
tan -0.827454 -0.369397 -0.419369 1.000000
tan -0.851882 -0.472317 -0.231198 1.000000
tan -0.612127 -0.761547 -0.224502 1.000000
tan -0.905450 -0.425569 0.046128 1.000000
tan -0.609275 -0.770413 -0.181474 1.000000
tan -0.715729 -0.567425 -0.408209 1.000000
tan -0.574617 -0.819827 0.029078 1.000000
tan -0.588629 -0.769421 -0.230392 1.000000
tan -0.630541 -0.599293 -0.501457 1.000000
tan -0.690247 -0.683365 -0.251410 1.000000
tan -0.559985 -0.815425 0.118048 1.000000
tan -0.741956 -0.646227 0.151838 1.000000
tan -0.433071 -0.780333 0.445471 1.000000
tan -0.353773 -0.611693 0.710645 1.000000
tan -0.376217 -0.854361 0.370017 1.000000
tan 0.135594 -0.870110 0.481121 1.000000
tan 0.255006 -0.590551 0.767995 1.000000
tan -0.656953 -0.306156 0.690805 1.000000
tan 0.020088 -0.914130 0.409263 1.000000
tan 0.427801 -0.840722 0.337777 1.000000
tan 0.746233 -0.601277 0.286999 1.000000
tan 0.469093 -0.837250 0.286627 1.000000
tan 0.182280 -0.490855 0.851262 1.000000
tan 0.809970 -0.422841 0.401389 1.000000
tan 0.699919 0.700601 0.127844 1.000000
tan 1.001922 0.019840 -0.052080 1.000000
tan 0.993304 0.072044 -0.017050 1.000000
tan 0.993366 -0.121768 0.057536 1.000000
tan 1.000000 0.015748 -0.070866 1.000000
tan 0.699299 0.701531 -0.100130 1.000000
tan 0.995226 -0.031496 0.073656 1.000000
tan 1.000000 -0.023622 0.055118 1.000000
tan 0.716473 -0.684853 -0.121334 1.000000
tan 0.714923 -0.693409 0.105586 1.000000
tan 1.000000 -0.023622 -0.055118 1.000000
tan 1.000000 0.015748 0.070866 1.000000
tan 1.000124 0.023436 0.083886 1.000000
tan 0.993366 0.116746 0.039928 1.000000
tan 0.992064 -0.032364 -0.041478 1.000000
tan 0.993552 -0.088598 -0.012586 1.000000
tan -0.086614 -1.000000 -0.007874 1.000000
tan -0.078430 -1.001550 -0.010974 1.000000
tan 0.020832 -1.001550 -0.071796 1.000000
tan 0.023622 -1.001550 0.000930 1.000000
tan -0.030566 -1.001550 0.024862 1.000000
tan -0.142848 -0.993986 0.017856 1.000000
tan -0.020584 -0.993676 -0.125364 1.000000
tan -0.015128 -1.001550 -0.016368 1.000000
tan 0.005580 -1.004402 -0.027900 1.000000
tan -0.102300 -0.984314 -0.093744 1.000000
tan 0.043090 -0.993366 -0.101122 1.000000
tan -0.095604 -0.976502 0.164052 1.000000
tan -0.046500 -0.977618 0.203484 1.000000
tan -0.006386 -1.000992 0.047492 1.000000
tan -0.321843 -0.727075 0.604687 1.000000
tan -0.100812 -0.757765 0.640585 1.000000
tan -0.227106 -0.941720 0.251845 1.000000
tan -0.007378 -1.000992 -0.015996 1.000000
tan -0.105276 -0.960878 0.257797 1.000000
tan -0.214396 -0.971170 -0.121520 1.000000
tan -0.000248 -1.000992 -0.007874 1.000000
tan -0.575299 -0.781759 0.244405 1.000000
tan -0.180606 -0.956352 0.249241 1.000000
tan -0.078740 -1.000000 0.007874 1.000000
tan -0.233740 -0.970674 0.074028 1.000000
tan -0.573625 -0.783310 -0.255440 1.000000
tan -0.138756 -0.963668 -0.229400 1.000000
tan -0.007626 -1.000992 -0.008122 1.000000
tan 0.113832 -0.971170 -0.214706 1.000000
tan -0.001736 -1.000992 -0.055118 1.000000
tan -0.261951 -0.789572 -0.567301 1.000000
tan 0.195610 -0.963792 -0.160580 1.000000
tan 0.005208 -0.985244 -0.165354 1.000000
tan 0.238080 -0.783062 -0.574121 1.000000
tan -0.121644 -0.963358 -0.230020 1.000000
tan -0.223448 -0.970860 -0.089466 1.000000
tan 0.041540 -0.978238 -0.227106 1.000000
tan -0.001240 -1.001550 -0.031496 1.000000
tan -0.023622 -1.001550 0.000930 1.000000
tan 0.000000 -1.001550 0.000000 1.000000
tan -0.063302 -1.001550 0.005394 1.000000
tan -0.070866 -1.000000 -0.007874 1.000000
tan -0.070556 -1.001550 -0.010664 1.000000
tan 0.021142 -1.001550 -0.063922 1.000000
tan 0.023622 -1.001550 0.000930 1.000000
tan -0.014818 -1.001550 0.024242 1.000000
tan -0.055118 -1.001550 -0.002170 1.000000
tan -0.095418 -0.993676 0.019716 1.000000
tan -0.003410 -0.993676 -0.086614 1.000000
tan -0.019654 -0.993676 -0.101742 1.000000
tan -0.013268 -1.001550 -0.063612 1.000000
tan 0.238886 -0.949036 -0.197222 1.000000
tan 0.002790 -1.001550 -0.070866 1.000000
tan 0.000000 -1.004402 -0.022320 1.000000
tan 0.050220 -1.004402 -0.050220 1.000000
tan 0.246450 -0.953252 -0.152520 1.000000
tan 0.485275 -0.869118 -0.111352 1.000000
tan 0.557257 -0.770041 -0.304296 1.000000
tan 0.596689 -0.795337 -0.138880 1.000000
tan 0.833034 -0.553537 -0.011656 1.000000
tan 0.223820 -0.961002 -0.169136 1.000000
tan 0.486391 -0.869676 0.016554 1.000000
tan 0.090954 -0.982082 -0.189162 1.000000
f 3/3/3 2/2/2 1/1/1
f 1/1/1 2/2/2 4/4/4
f 1/1/1 4/4/4 5/5/5
f 2/2/2 6/6/6 4/4/4
f 7/7/7 6/6/6 2/2/2
f 7/7/7 8/8/8 6/6/6
f 5/5/5 4/4/4 9/9/9
f 5/5/5 9/9/9 10/10/10
f 6/6/6 11/11/11 4/4/4
f 6/6/6 8/8/8 12/12/12
f 6/6/6 12/12/12 11/11/11
f 11/11/11 13/13/13 4/4/4
f 4/4/4 13/13/13 9/9/9
f 11/11/11 12/12/12 14/14/14
f 11/11/11 14/14/14 13/13/13
f 8/8/8 15/15/15 12/12/12
f 15/15/15 14/14/14 12/12/12
f 16/16/16 15/15/15 8/8/8
f 17/17/17 15/15/15 16/16/16
f 18/18/18 15/15/15 17/17/17
f 18/18/18 19/19/19 15/15/15
f 15/15/15 19/19/19 14/14/14
f 20/20/20 19/19/19 18/18/18
f 13/13/13 14/14/14 21/21/21
f 14/14/14 19/19/19 21/21/21
f 13/13/13 21/21/21 22/22/22
f 9/9/9 13/13/13 22/22/22
f 23/23/23 21/21/21 19/19/19
f 22/22/22 21/21/21 23/23/23
f 20/20/20 24/24/24 19/19/19
f 24/24/24 23/23/23 19/19/19
f 25/25/25 24/24/24 20/20/20
f 22/22/22 23/23/23 26/26/26
f 26/26/26 9/9/9 22/22/22
f 27/27/27 23/23/23 24/24/24
f 26/26/26 23/23/23 27/27/27
f 25/25/25 28/28/28 24/24/24
f 29/29/29 28/28/28 25/25/25
f 24/24/24 30/30/30 27/27/27
f 28/28/28 30/30/30 24/24/24
f 27/27/27 31/31/31 26/26/26
f 30/30/30 31/31/31 27/27/27
f 32/32/32 9/9/9 26/26/26
f 31/31/31 32/32/32 26/26/26
f 10/10/10 9/9/9 32/32/32
f 10/10/10 32/32/32 33/33/33
f 33/33/33 32/32/32 34/34/34
f 35/35/35 32/32/32 31/31/31
f 34/34/34 32/32/32 35/35/35
f 30/30/30 35/35/35 31/31/31
f 36/36/36 34/34/34 35/35/35
f 37/37/37 35/35/35 30/30/30
f 37/37/37 36/36/36 35/35/35
f 37/37/37 30/30/30 28/28/28
f 38/38/38 36/36/36 37/37/37
f 38/38/38 37/37/37 28/28/28
f 41/41/41 40/40/40 39/39/39
f 42/42/42 40/40/40 41/41/41
f 41/41/41 43/43/43 42/42/42
f 44/44/44 43/43/43 41/41/41
f 45/45/45 40/40/40 42/42/42
f 46/46/46 40/40/40 45/45/45
f 43/43/43 47/47/47 42/42/42
f 42/42/42 47/47/47 45/45/45
f 43/43/43 44/44/44 48/48/48
f 48/48/48 44/44/44 49/49/49
f 50/50/50 48/48/48 49/49/49
f 47/47/47 43/43/43 51/51/51
f 51/51/51 43/43/43 48/48/48
f 52/52/52 48/48/48 50/50/50
f 51/51/51 48/48/48 53/53/53
f 53/53/53 48/48/48 52/52/52
f 50/50/50 54/54/54 52/52/52
f 54/54/54 53/53/53 52/52/52
f 55/55/55 54/54/54 50/50/50
f 53/53/53 56/56/56 51/51/51
f 54/54/54 55/55/55 57/57/57
f 57/57/57 55/55/55 58/58/58
f 59/59/59 53/53/53 54/54/54
f 58/58/58 60/60/60 57/57/57
f 61/61/61 60/60/60 58/58/58
f 62/62/62 54/54/54 57/57/57
f 59/59/59 54/54/54 62/62/62
f 62/62/62 57/57/57 63/63/63
f 63/63/63 57/57/57 60/60/60
f 64/64/64 59/59/59 62/62/62
f 63/63/63 64/64/64 62/62/62
f 59/59/59 65/65/65 53/53/53
f 65/65/65 59/59/59 64/64/64
f 53/53/53 65/65/65 56/56/56
f 64/64/64 66/66/66 65/65/65
f 65/65/65 66/66/66 56/56/56
f 67/67/67 64/64/64 63/63/63
f 68/68/68 66/66/66 64/64/64
f 67/67/67 68/68/68 64/64/64
f 56/56/56 66/66/66 69/69/69
f 70/70/70 68/68/68 67/67/67
f 68/68/68 71/71/71 66/66/66
f 70/70/70 71/71/71 68/68/68
f 63/63/63 72/72/72 67/67/67
f 67/67/67 72/72/72 70/70/70
f 73/73/73 72/72/72 63/63/63
f 63/63/63 60/60/60 73/73/73
f 70/70/70 72/72/72 74/74/74
f 73/73/73 60/60/60 75/75/75
f 61/61/61 75/75/75 60/60/60
f 76/76/76 75/75/75 61/61/61
f 75/75/75 76/76/76 77/77/77
f 77/77/77 73/73/73 75/75/75
f 77/77/77 76/76/76 78/78/78
f 72/72/72 73/73/73 79/79/79
f 79/79/79 74/74/74 72/72/72
f 80/80/80 73/73/73 77/77/77
f 79/79/79 73/73/73 80/80/80
f 78/78/78 81/81/81 77/77/77
f 81/81/81 80/80/80 77/77/77
f 82/82/82 81/81/81 78/78/78
f 80/80/80 83/83/83 79/79/79
f 82/82/82 84/84/84 81/81/81
f 85/85/85 84/84/84 82/82/82
f 86/86/86 80/80/80 81/81/81
f 84/84/84 86/86/86 81/81/81
f 86/86/86 83/83/83 80/80/80
f 87/87/87 84/84/84 85/85/85
f 83/83/83 88/88/88 79/79/79
f 88/88/88 74/74/74 79/79/79
f 89/89/89 84/84/84 87/87/87
f 90/90/90 89/89/89 87/87/87
f 91/91/91 86/86/86 84/84/84
f 92/92/92 89/89/89 90/90/90
f 93/93/93 92/92/92 90/90/90
f 89/89/89 94/94/94 84/84/84
f 84/84/84 94/94/94 91/91/91
f 89/89/89 92/92/92 94/94/94
f 91/91/91 95/95/95 86/86/86
f 94/94/94 95/95/95 91/91/91
f 86/86/86 95/95/95 83/83/83
f 94/94/94 92/92/92 96/96/96
f 95/95/95 97/97/97 83/83/83
f 97/97/97 88/88/88 83/83/83
f 98/98/98 95/95/95 94/94/94
f 96/96/96 98/98/98 94/94/94
f 99/99/99 97/97/97 95/95/95
f 100/100/100 96/96/96 92/92/92
f 100/100/100 92/92/92 93/93/93
f 95/95/95 101/101/101 99/99/99
f 98/98/98 101/101/101 95/95/95
f 99/99/99 102/102/102 97/97/97
f 101/101/101 102/102/102 99/99/99
f 97/97/97 103/103/103 88/88/88
f 97/97/97 102/102/102 103/103/103
f 88/88/88 103/103/103 104/104/104
f 104/104/104 74/74/74 88/88/88
f 102/102/102 105/105/105 103/103/103
f 106/106/106 74/74/74 104/104/104
f 74/74/74 106/106/106 70/70/70
f 103/103/103 107/107/107 104/104/104
f 105/105/105 107/107/107 103/103/103
f 70/70/70 106/106/106 108/108/108
f 108/108/108 71/71/71 70/70/70
f 104/104/104 109/109/109 106/106/106
f 107/107/107 109/109/109 104/104/104
f 108/108/108 106/106/106 110/110/110
f 110/110/110 106/106/106 109/109/109
f 110/110/110 71/71/71 108/108/108
f 111/111/111 109/109/109 107/107/107
f 109/109/109 112/112/112 110/110/110
f 112/112/112 109/109/109 111/111/111
f 113/113/113 71/71/71 110/110/110
f 107/107/107 114/114/114 111/111/111
f 105/105/105 114/114/114 107/107/107
f 110/110/110 112/112/112 115/115/115
f 110/110/110 115/115/115 113/113/113
f 111/111/111 116/116/116 112/112/112
f 116/116/116 115/115/115 112/112/112
f 117/117/117 116/116/116 111/111/111
f 114/114/114 117/117/117 111/111/111
f 118/118/118 115/115/115 116/116/116
f 119/119/119 117/117/117 114/114/114
f 118/118/118 120/120/120 115/115/115
f 113/113/113 115/115/115 120/120/120
f 121/121/121 120/120/120 118/118/118
f 122/122/122 119/119/119 114/114/114
f 105/105/105 122/122/122 114/114/114
f 123/123/123 119/119/119 122/122/122
f 122/122/122 124/124/124 123/123/123
f 125/125/125 122/122/122 105/105/105
f 125/125/125 105/105/105 102/102/102
f 126/126/126 124/124/124 122/122/122
f 126/126/126 127/127/127 124/124/124
f 128/128/128 122/122/122 125/125/125
f 102/102/102 128/128/128 125/125/125
f 126/126/126 122/122/122 128/128/128
f 129/129/129 128/128/128 102/102/102
f 129/129/129 102/102/102 101/101/101
f 130/130/130 126/126/126 128/128/128
f 129/129/129 130/130/130 128/128/128
f 131/131/131 127/127/127 126/126/126
f 131/131/131 126/126/126 130/130/130
f 132/132/132 127/127/127 131/131/131
f 133/133/133 127/127/127 132/132/132
f 134/134/134 131/131/131 130/130/130
f 132/132/132 131/131/131 134/134/134
f 135/135/135 130/130/130 129/129/129
f 130/130/130 135/135/135 134/134/134
f 101/101/101 135/135/135 129/129/129
f 132/132/132 136/136/136 133/133/133
f 134/134/134 136/136/136 132/132/132
f 133/133/133 136/136/136 137/137/137
f 138/138/138 135/135/135 101/101/101
f 98/98/98 138/138/138 101/101/101
f 136/136/136 139/139/139 137/137/137
f 137/137/137 139/139/139 140/140/140
f 141/141/141 136/136/136 134/134/134
f 136/136/136 141/141/141 139/139/139
f 134/134/134 135/135/135 142/142/142
f 142/142/142 141/141/141 134/134/134
f 138/138/138 142/142/142 135/135/135
f 139/139/139 143/143/143 140/140/140
f 140/140/140 143/143/143 144/144/144
f 144/144/144 143/143/143 145/145/145
f 146/146/146 143/143/143 139/139/139
f 139/139/139 141/141/141 146/146/146
f 145/145/145 143/143/143 147/147/147
f 145/145/145 147/147/147 148/148/148
f 148/148/148 147/147/147 149/149/149
f 149/149/149 147/147/147 150/150/150
f 143/143/143 151/151/151 147/147/147
f 151/151/151 143/143/143 146/146/146
f 150/150/150 147/147/147 152/152/152
f 147/147/147 151/151/151 152/152/152
f 152/152/152 153/153/153 150/150/150
f 151/151/151 154/154/154 152/152/152
f 154/154/154 153/153/153 152/152/152
f 151/151/151 146/146/146 155/155/155
f 155/155/155 154/154/154 151/151/151
f 156/156/156 153/153/153 154/154/154
f 154/154/154 155/155/155 156/156/156
f 157/157/157 153/153/153 156/156/156
f 155/155/155 146/146/146 158/158/158
f 141/141/141 158/158/158 146/146/146
f 156/156/156 155/155/155 159/159/159
f 160/160/160 158/158/158 141/141/141
f 160/160/160 141/141/141 142/142/142
f 161/161/161 155/155/155 158/158/158
f 159/159/159 155/155/155 161/161/161
f 160/160/160 162/162/162 158/158/158
f 142/142/142 162/162/162 160/160/160
f 158/158/158 162/162/162 161/161/161
f 163/163/163 162/162/162 142/142/142
f 163/163/163 142/142/142 138/138/138
f 162/162/162 164/164/164 161/161/161
f 162/162/162 163/163/163 164/164/164
f 138/138/138 165/165/165 163/163/163
f 165/165/165 138/138/138 98/98/98
f 165/165/165 98/98/98 96/96/96
f 163/163/163 165/165/165 166/166/166
f 164/164/164 163/163/163 166/166/166
f 167/167/167 165/165/165 96/96/96
f 166/166/166 165/165/165 167/167/167
f 166/166/166 167/167/167 164/164/164
f 167/167/167 96/96/96 100/100/100
f 164/164/164 167/167/167 168/168/168
f 167/167/167 100/100/100 168/168/168
f 161/161/161 164/164/164 169/169/169
f 164/164/164 168/168/168 169/169/169
f 169/169/169 159/159/159 161/161/161
f 168/168/168 100/100/100 170/170/170
f 100/100/100 93/93/93 170/170/170
f 170/170/170 93/93/93 171/171/171
f 172/172/172 170/170/170 171/171/171
f 173/173/173 170/170/170 172/172/172
f 170/170/170 173/173/173 168/168/168
f 174/174/174 173/173/173 172/172/172
f 168/168/168 173/173/173 175/175/175
f 169/169/169 168/168/168 175/175/175
f 176/176/176 173/173/173 174/174/174
f 173/173/173 176/176/176 175/175/175
f 169/169/169 175/175/175 177/177/177
f 177/177/177 159/159/159 169/169/169
f 175/175/175 176/176/176 178/178/178
f 177/177/177 175/175/175 178/178/178
f 176/176/176 174/174/174 179/179/179
f 176/176/176 179/179/179 178/178/178
f 179/179/179 174/174/174 180/180/180
f 181/181/181 179/179/179 180/180/180
f 182/182/182 179/179/179 181/181/181
f 182/182/182 183/183/183 179/179/179
f 178/178/178 179/179/179 183/183/183
f 184/184/184 183/183/183 182/182/182
f 185/185/185 178/178/178 183/183/183
f 184/184/184 185/185/185 183/183/183
f 177/177/177 178/178/178 185/185/185
f 177/177/177 185/185/185 159/159/159
f 186/186/186 185/185/185 184/184/184
f 159/159/159 185/185/185 156/156/156
f 157/157/157 185/185/185 186/186/186
f 156/156/156 185/185/185 157/157/157
f 66/66/66 71/71/71 187/187/187
f 113/113/113 187/187/187 71/71/71
f 66/66/66 187/187/187 69/69/69
f 188/188/188 187/187/187 113/113/113
f 113/113/113 120/120/120 188/188/188
f 69/69/69 187/187/187 189/189/189
f 187/187/187 188/188/188 189/189/189
f 188/188/188 120/120/120 190/190/190
f 121/121/121 190/190/190 120/120/120
f 191/191/191 190/190/190 121/121/121
f 191/191/191 192/192/192 190/190/190
f 188/188/188 190/190/190 193/193/193
f 189/189/189 188/188/188 193/193/193
f 190/190/190 192/192/192 194/194/194
f 193/193/193 190/190/190 194/194/194
f 192/192/192 195/195/195 194/194/194
f 194/194/194 195/195/195 196/196/196
f 194/194/194 196/196/196 193/193/193
f 195/195/195 197/197/197 196/196/196
f 198/198/198 189/189/189 193/193/193
f 193/193/193 196/196/196 198/198/198
f 196/196/196 197/197/197 199/199/199
f 197/197/197 200/200/200 199/199/199
f 198/198/198 196/196/196 201/201/201
f 201/201/201 196/196/196 199/199/199
f 199/199/199 200/200/200 202/202/202
f 202/202/202 201/201/201 199/199/199
f 200/200/200 203/203/203 202/202/202
f 202/202/202 203/203/203 204/204/204
f 202/202/202 204/204/204 205/205/205
f 205/205/205 201/201/201 202/202/202
f 205/205/205 204/204/204 206/206/206
f 206/206/206 207/207/207 205/205/205
f 207/207/207 201/201/201 205/205/205
f 208/208/208 207/207/207 206/206/206
f 209/209/209 201/201/201 207/207/207
f 201/201/201 209/209/209 198/198/198
f 207/207/207 208/208/208 210/210/210
f 210/210/210 209/209/209 207/207/207
f 210/210/210 208/208/208 211/211/211
f 198/198/198 209/209/209 212/212/212
f 212/212/212 189/189/189 198/198/198
f 213/213/213 209/209/209 210/210/210
f 213/213/213 212/212/212 209/209/209
f 211/211/211 214/214/214 210/210/210
f 214/214/214 213/213/213 210/210/210
f 215/215/215 214/214/214 211/211/211
f 46/46/46 214/214/214 215/215/215
f 45/45/45 214/214/214 46/46/46
f 45/45/45 216/216/216 214/214/214
f 216/216/216 213/213/213 214/214/214
f 47/47/47 216/216/216 45/45/45
f 217/217/217 212/212/212 213/213/213
f 213/213/213 216/216/216 217/217/217
f 217/217/217 189/189/189 212/212/212
f 69/69/69 189/189/189 217/217/217
f 47/47/47 218/218/218 216/216/216
f 217/217/217 216/216/216 218/218/218
f 217/217/217 218/218/218 69/69/69
f 51/51/51 218/218/218 47/47/47
f 69/69/69 218/218/218 56/56/56
f 51/51/51 56/56/56 218/218/218
f 221/221/221 220/220/220 219/219/219
f 222/222/222 220/220/220 221/221/221
f 219/219/219 220/220/220 223/223/223
f 223/223/223 224/224/224 219/219/219
f 225/225/225 220/220/220 222/222/222
f 225/225/225 223/223/223 220/220/220
f 222/222/222 226/226/226 225/225/225
f 226/226/226 223/223/223 225/225/225
f 227/227/227 226/226/226 222/222/222
f 227/227/227 228/228/228 226/226/226
f 229/229/229 223/223/223 226/226/226
f 226/226/226 228/228/228 229/229/229
f 230/230/230 224/224/224 223/223/223
f 230/230/230 223/223/223 229/229/229
f 230/230/230 231/231/231 224/224/224
f 230/230/230 229/229/229 231/231/231
f 224/224/224 231/231/231 232/232/232
f 228/228/228 233/233/233 229/229/229
f 231/231/231 229/229/229 233/233/233
f 233/233/233 232/232/232 231/231/231
f 234/234/234 233/233/233 228/228/228
f 234/234/234 232/232/232 233/233/233
f 40/40/40 235/235/235 39/39/39
f 236/236/236 235/235/235 40/40/40
f 46/46/46 236/236/236 40/40/40
f 237/237/237 236/236/236 46/46/46
f 215/215/215 237/237/237 46/46/46
f 238/238/238 237/237/237 215/215/215
f 211/211/211 238/238/238 215/215/215
f 239/239/239 238/238/238 211/211/211
f 211/211/211 208/208/208 239/239/239
f 239/239/239 208/208/208 240/240/240
f 208/208/208 206/206/206 240/240/240
f 240/240/240 206/206/206 241/241/241
f 206/206/206 204/204/204 241/241/241
f 241/241/241 204/204/204 242/242/242
f 203/203/203 242/242/242 204/204/204
f 243/243/243 242/242/242 203/203/203
f 246/246/246 245/245/245 244/244/244
f 247/247/247 245/245/245 246/246/246
f 247/247/247 248/248/248 245/245/245
f 247/247/247 246/246/246 249/249/249
f 249/249/249 246/246/246 250/250/250
f 251/251/251 248/248/248 247/247/247
f 247/247/247 249/249/249 251/251/251
f 251/251/251 252/252/252 248/248/248
f 250/250/250 253/253/253 249/249/249
f 254/254/254 252/252/252 251/251/251
f 254/254/254 255/255/255 252/252/252
f 251/251/251 249/249/249 256/256/256
f 256/256/256 254/254/254 251/251/251
f 249/249/249 253/253/253 257/257/257
f 258/258/258 257/257/257 253/253/253
f 249/249/249 259/259/259 256/256/256
f 257/257/257 259/259/259 249/249/249
f 260/260/260 254/254/254 256/256/256
f 256/256/256 259/259/259 260/260/260
f 261/261/261 255/255/255 254/254/254
f 254/254/254 260/260/260 261/261/261
f 261/261/261 262/262/262 255/255/255
f 263/263/263 262/262/262 261/261/261
f 263/263/263 264/264/264 262/262/262
f 261/261/261 260/260/260 265/265/265
f 265/265/265 263/263/263 261/261/261
f 266/266/266 264/264/264 263/263/263
f 266/266/266 267/267/267 264/264/264
f 268/268/268 263/263/263 265/265/265
f 263/263/263 268/268/268 266/266/266
f 260/260/260 269/269/269 265/265/265
f 265/265/265 269/269/269 268/268/268
f 270/270/270 269/269/269 260/260/260
f 260/260/260 259/259/259 270/270/270
f 268/268/268 269/269/269 271/271/271
f 272/272/272 270/270/270 259/259/259
f 259/259/259 257/257/257 272/272/272
f 269/269/269 270/270/270 273/273/273
f 273/273/273 271/271/271 269/269/269
f 274/274/274 270/270/270 272/272/272
f 273/273/273 270/270/270 274/274/274
f 272/272/272 257/257/257 275/275/275
f 275/275/275 257/257/257 258/258/258
f 276/276/276 275/275/275 258/258/258
f 277/277/277 275/275/275 276/276/276
f 278/278/278 275/275/275 277/277/277
f 272/272/272 275/275/275 278/278/278
f 278/278/278 274/274/274 272/272/272
f 279/279/279 274/274/274 278/278/278
f 274/274/274 279/279/279 273/273/273
f 273/273/273 279/279/279 280/280/280
f 280/280/280 281/281/281 273/273/273
f 281/281/281 271/271/271 273/273/273
f 282/282/282 281/281/281 280/280/280
f 281/281/281 282/282/282 283/283/283
f 283/283/283 271/271/271 281/281/281
f 283/283/283 282/282/282 284/284/284
f 285/285/285 283/283/283 284/284/284
f 286/286/286 271/271/271 283/283/283
f 271/271/271 286/286/286 268/268/268
f 287/287/287 283/283/283 285/285/285
f 288/288/288 287/287/287 285/285/285
f 289/289/289 287/287/287 288/288/288
f 290/290/290 283/283/283 287/287/287
f 289/289/289 290/290/290 287/287/287
f 286/286/286 283/283/283 290/290/290
f 291/291/291 290/290/290 289/289/289
f 268/268/268 286/286/286 292/292/292
f 266/266/266 268/268/268 292/292/292
f 293/293/293 286/286/286 290/290/290
f 292/292/292 286/286/286 293/293/293
f 290/290/290 291/291/291 293/293/293
f 292/292/292 293/293/293 266/266/266
f 293/293/293 291/291/291 294/294/294
f 266/266/266 293/293/293 295/295/295
f 294/294/294 295/295/295 293/293/293
f 295/295/295 267/267/267 266/266/266
f 296/296/296 295/295/295 294/294/294
f 295/295/295 297/297/297 267/267/267
f 296/296/296 297/297/297 295/295/295
