mtllib SM_Pillar_01_b_LOD1@000002909DC27200.mtl
g SM_Pillar_01_b_LOD1@000002909DC27200
#Vertices 170
#Indices 717
#Section 0 Offset 0 NumIndices 537 MaterialIndex 0 MI_Pillar_02
#Section 1 Offset 537 NumIndices 180 MaterialIndex 1 MI_Pillar_01
v -0.331417 3.248450 0.368525 0.000000 0.000000 1.000000 1.000000
v -0.380057 3.261902 0.341482 0.000000 0.000000 1.000000 1.000000
v 0.364688 3.258175 0.374439 0.000000 0.000000 1.000000 1.000000
v 0.369104 3.258806 -0.349907 0.000000 0.000000 1.000000 1.000000
v -0.378115 3.260814 -0.374577 0.000000 0.000000 1.000000 1.000000
v 0.321588 3.245480 -0.379054 0.000000 0.000000 1.000000 1.000000
v 0.605734 2.063661 0.611976 0.000000 0.000000 1.000000 1.000000
v -0.581169 2.044074 0.597537 0.000000 0.000000 1.000000 1.000000
v 0.694880 2.162967 0.735729 0.000000 0.000000 1.000000 1.000000
v -0.721969 2.211544 0.773731 0.000000 0.000000 1.000000 1.000000
v 0.744470 2.228397 0.797067 0.000000 0.000000 1.000000 1.000000
v -0.700179 2.146087 0.662785 0.000000 0.000000 1.000000 1.000000
v -0.626434 2.055297 0.555146 0.000000 0.000000 1.000000 1.000000
v -0.817437 2.232378 0.779103 0.000000 0.000000 1.000000 1.000000
v -0.687717 2.110682 -0.638587 0.000000 0.000000 1.000000 1.000000
v -0.623020 2.050453 -0.621320 0.000000 0.000000 1.000000 1.000000
v -0.640211 2.121320 -0.696468 0.000000 0.000000 1.000000 1.000000
v 0.612902 2.061404 -0.622098 0.000000 0.000000 1.000000 1.000000
v -0.703010 2.148519 -0.694907 0.000000 0.000000 1.000000 1.000000
v 0.716249 2.152583 -0.691412 0.000000 0.000000 1.000000 1.000000
v 0.688336 2.122881 -0.639748 0.000000 0.000000 1.000000 1.000000
v 0.605734 2.063661 0.611976 0.000000 0.000000 1.000000 1.000000
v 0.694880 2.162967 0.735729 0.000000 0.000000 1.000000 1.000000
v 0.780525 2.209940 -0.720344 0.000000 0.000000 1.000000 1.000000
v 0.744470 2.228397 0.797067 0.000000 0.000000 1.000000 1.000000
v 0.740965 2.223365 -0.799706 0.000000 0.000000 1.000000 1.000000
v 0.838412 2.260084 -0.789580 0.000000 0.000000 1.000000 1.000000
v 0.841572 2.301280 0.885880 0.000000 0.000000 1.000000 1.000000
v 0.849944 2.376425 0.894039 0.000000 0.000000 1.000000 1.000000
v 0.863708 2.377587 -0.812708 0.000000 0.000000 1.000000 1.000000
v 0.590376 2.390372 0.634034 0.000000 0.000000 1.000000 1.000000
v 0.817496 2.377587 -0.858920 0.000000 0.000000 1.000000 1.000000
v 0.629763 2.379606 -0.583289 0.000000 0.000000 1.000000 1.000000
v 0.591351 2.707132 0.642782 0.000000 0.000000 1.000000 1.000000
v 0.583288 2.379606 -0.629764 0.000000 0.000000 1.000000 1.000000
v 0.612588 2.703648 -0.577739 0.000000 0.000000 1.000000 1.000000
v 0.429462 2.840695 0.493093 0.000000 0.000000 1.000000 1.000000
v 0.566340 2.703648 -0.623987 0.000000 0.000000 1.000000 1.000000
v 0.471629 2.823254 -0.427125 0.000000 0.000000 1.000000 1.000000
v 0.266048 3.082306 0.308893 0.000000 0.000000 1.000000 1.000000
v 0.435283 2.818040 -0.488284 0.000000 0.000000 1.000000 1.000000
v 0.295527 3.075036 -0.256903 0.000000 0.000000 1.000000 1.000000
v 0.297641 3.120460 0.360076 0.000000 0.000000 1.000000 1.000000
v 0.267402 3.020221 -0.322596 0.000000 0.000000 1.000000 1.000000
v 0.369104 3.258806 -0.349907 0.000000 0.000000 1.000000 1.000000
v 0.364688 3.258175 0.374439 0.000000 0.000000 1.000000 1.000000
v 0.317966 3.144704 -0.335485 0.000000 0.000000 1.000000 1.000000
v 0.321588 3.245480 -0.379054 0.000000 0.000000 1.000000 1.000000
v -0.425857 2.830646 -0.467410 0.000000 0.000000 1.000000 1.000000
v -0.332638 3.135867 -0.337303 0.000000 0.000000 1.000000 1.000000
v -0.378115 3.260814 -0.374577 0.000000 0.000000 1.000000 1.000000
v -0.259487 3.058936 -0.311186 0.000000 0.000000 1.000000 1.000000
v -0.380057 3.261902 0.341482 0.000000 0.000000 1.000000 1.000000
v -0.572259 2.708696 -0.623987 0.000000 0.000000 1.000000 1.000000
v -0.470467 2.831958 -0.417081 0.000000 0.000000 1.000000 1.000000
v -0.306612 3.060903 -0.263915 0.000000 0.000000 1.000000 1.000000
v -0.583287 2.379606 -0.629764 0.000000 0.000000 1.000000 1.000000
v -0.618507 2.708696 -0.577739 0.000000 0.000000 1.000000 1.000000
v -0.816269 2.373633 -0.858920 0.000000 0.000000 1.000000 1.000000
v -0.629762 2.379606 -0.583289 0.000000 0.000000 1.000000 1.000000
v -0.812544 2.272761 -0.858252 0.000000 0.000000 1.000000 1.000000
v -0.862481 2.373633 -0.812708 0.000000 0.000000 1.000000 1.000000
v -0.807227 2.236474 -0.782905 0.000000 0.000000 1.000000 1.000000
v -0.723896 2.210020 -0.767625 0.000000 0.000000 1.000000 1.000000
v -0.767042 2.192591 -0.713555 0.000000 0.000000 1.000000 1.000000
v -0.862481 2.373633 0.816267 0.000000 0.000000 1.000000 1.000000
v -0.812093 2.272732 0.858812 0.000000 0.000000 1.000000 1.000000
v 0.841572 2.301280 0.885880 0.000000 0.000000 1.000000 1.000000
v -0.816269 2.373633 0.862479 0.000000 0.000000 1.000000 1.000000
v 0.849944 2.376425 0.894039 0.000000 0.000000 1.000000 1.000000
v -0.583287 2.379606 0.629761 0.000000 0.000000 1.000000 1.000000
v 0.590376 2.390372 0.634034 0.000000 0.000000 1.000000 1.000000
v -0.629762 2.379606 0.583286 0.000000 0.000000 1.000000 1.000000
v -0.562609 2.710074 0.613195 0.000000 0.000000 1.000000 1.000000
v 0.591351 2.707132 0.642782 0.000000 0.000000 1.000000 1.000000
v 0.429462 2.840695 0.493093 0.000000 0.000000 1.000000 1.000000
v -0.618507 2.708696 0.572258 0.000000 0.000000 1.000000 1.000000
v -0.268016 3.029042 0.313929 0.000000 0.000000 1.000000 1.000000
v 0.266048 3.082306 0.308893 0.000000 0.000000 1.000000 1.000000
v -0.478806 2.827230 0.433323 0.000000 0.000000 1.000000 1.000000
v -0.303276 3.060462 0.250806 0.000000 0.000000 1.000000 1.000000
v -0.321244 3.129131 0.324363 0.000000 0.000000 1.000000 1.000000
v 0.297641 3.120460 0.360076 0.000000 0.000000 1.000000 1.000000
v -0.331417 3.248450 0.368525 0.000000 0.000000 1.000000 1.000000
v 0.364688 3.258175 0.374439 0.000000 0.000000 1.000000 1.000000
v 0.520448 0.625057 -0.492355 0.000000 0.000000 1.000000 1.000000
v 0.637940 0.625189 0.650322 0.000000 0.000000 1.000000 1.000000
v 0.520448 0.625057 0.535006 0.000000 0.000000 1.000000 1.000000
v 0.637940 0.625189 -0.607671 0.000000 0.000000 1.000000 1.000000
v -0.526297 0.623881 -0.492355 0.000000 0.000000 1.000000 1.000000
v 0.655329 0.607405 -0.607671 0.000000 0.000000 1.000000 1.000000
v 0.670723 0.623616 0.677225 0.000000 0.000000 1.000000 1.000000
v 0.663641 0.462213 0.665300 0.000000 0.000000 1.000000 1.000000
v -0.643788 0.623749 -0.607671 0.000000 0.000000 1.000000 1.000000
v -0.526297 0.623881 0.535006 0.000000 0.000000 1.000000 1.000000
v 0.630840 0.607405 -0.645078 0.000000 0.000000 1.000000 1.000000
v 0.655132 0.475386 -0.607671 0.000000 0.000000 1.000000 1.000000
v -0.637667 0.599080 -0.645078 0.000000 0.000000 1.000000 1.000000
v 0.630643 0.475386 -0.645078 0.000000 0.000000 1.000000 1.000000
v 0.630643 0.446777 -0.625623 0.000000 0.000000 1.000000 1.000000
v 0.630643 0.445694 0.658404 0.000000 0.000000 1.000000 1.000000
v 0.515130 0.445556 0.540702 0.000000 0.000000 1.000000 1.000000
v 0.515130 0.446440 -0.507921 0.000000 0.000000 1.000000 1.000000
v -0.629504 0.444183 -0.625623 0.000000 0.000000 1.000000 1.000000
v -0.513990 0.444321 -0.507921 0.000000 0.000000 1.000000 1.000000
v -0.629504 0.471777 -0.645078 0.000000 0.000000 1.000000 1.000000
v -0.662044 0.603161 -0.607671 0.000000 0.000000 1.000000 1.000000
v -0.664230 0.458649 -0.625623 0.000000 0.000000 1.000000 1.000000
v -0.629504 0.443100 0.658404 0.000000 0.000000 1.000000 1.000000
v -0.513990 0.443437 0.540702 0.000000 0.000000 1.000000 1.000000
v -0.662044 0.603161 0.650322 0.000000 0.000000 1.000000 1.000000
v 0.630643 0.445694 0.658404 0.000000 0.000000 1.000000 1.000000
v 0.515130 0.445556 0.540702 0.000000 0.000000 1.000000 1.000000
v -0.664230 0.457566 0.658404 0.000000 0.000000 1.000000 1.000000
v -0.629504 0.471777 0.690654 0.000000 0.000000 1.000000 1.000000
v 0.663641 0.462213 0.665300 0.000000 0.000000 1.000000 1.000000
v 0.670723 0.623616 0.677225 0.000000 0.000000 1.000000 1.000000
v -0.650848 0.628275 0.667213 0.000000 0.000000 1.000000 1.000000
v 0.637940 0.625189 0.650322 0.000000 0.000000 1.000000 1.000000
v 0.520448 0.625057 0.535006 0.000000 0.000000 1.000000 1.000000
v 0.605734 2.063661 0.611976 0.000000 0.000000 1.000000 1.000000
v 0.567340 2.033622 0.599337 0.000000 0.000000 1.000000 1.000000
v -0.581169 2.044074 0.597537 0.000000 0.000000 1.000000 1.000000
v -0.615634 2.033622 0.551047 0.000000 0.000000 1.000000 1.000000
v -0.623020 2.050453 -0.621320 0.000000 0.000000 1.000000 1.000000
v -0.615634 2.033622 -0.567340 0.000000 0.000000 1.000000 1.000000
v -0.567343 2.033622 -0.615630 0.000000 0.000000 1.000000 1.000000
v 0.612902 2.061404 -0.622098 0.000000 0.000000 1.000000 1.000000
v 0.567340 2.033622 -0.615630 0.000000 0.000000 1.000000 1.000000
v 0.615631 2.033622 -0.567340 0.000000 0.000000 1.000000 1.000000
v 0.605734 2.063661 0.611976 0.000000 0.000000 1.000000 1.000000
v 0.615631 2.033622 0.551047 0.000000 0.000000 1.000000 1.000000
v 0.567340 2.033622 0.599337 0.000000 0.000000 1.000000 1.000000
v 0.741761 -0.002905 0.788094 0.000000 0.000000 1.000000 1.000000
v -0.714829 -0.001372 0.761045 0.000000 0.000000 1.000000 1.000000
v 0.723421 0.220723 0.791504 0.000000 0.000000 1.000000 1.000000
v -0.713324 0.201895 0.781324 0.000000 0.000000 1.000000 1.000000
v -0.761043 -0.001372 0.714831 0.000000 0.000000 1.000000 1.000000
v -0.609303 0.332490 0.665158 0.000000 0.000000 1.000000 1.000000
v 0.640474 0.337811 0.693945 0.000000 0.000000 1.000000 1.000000
v 0.547774 0.472331 0.595214 0.000000 0.000000 1.000000 1.000000
v -0.717541 0.295957 0.685337 0.000000 0.000000 1.000000 1.000000
v -0.761043 -0.001372 -0.711876 0.000000 0.000000 1.000000 1.000000
v -0.545747 0.502946 0.594558 0.000000 0.000000 1.000000 1.000000
v 0.567340 2.033622 0.599337 0.000000 0.000000 1.000000 1.000000
v -0.581169 2.044074 0.597537 0.000000 0.000000 1.000000 1.000000
v -0.615634 2.033622 0.551047 0.000000 0.000000 1.000000 1.000000
v -0.593725 0.482943 0.547410 0.000000 0.000000 1.000000 1.000000
v -0.593374 0.508226 -0.546622 0.000000 0.000000 1.000000 1.000000
v -0.615634 2.033622 -0.567340 0.000000 0.000000 1.000000 1.000000
v -0.696216 0.305288 -0.645719 0.000000 0.000000 1.000000 1.000000
v -0.714829 -0.001372 -0.758089 0.000000 0.000000 1.000000 1.000000
v -0.545377 0.483525 -0.593546 0.000000 0.000000 1.000000 1.000000
v -0.567343 2.033622 -0.615630 0.000000 0.000000 1.000000 1.000000
v -0.675633 0.278315 -0.721486 0.000000 0.000000 1.000000 1.000000
v 0.711876 -0.001372 -0.758089 0.000000 0.000000 1.000000 1.000000
v 0.545106 0.507366 -0.593350 0.000000 0.000000 1.000000 1.000000
v 0.567340 2.033622 -0.615630 0.000000 0.000000 1.000000 1.000000
v 0.653387 0.303238 -0.696709 0.000000 0.000000 1.000000 1.000000
v 0.758089 -0.001372 -0.711876 0.000000 0.000000 1.000000 1.000000
v 0.592261 0.492377 -0.545328 0.000000 0.000000 1.000000 1.000000
v 0.615631 2.033622 -0.567340 0.000000 0.000000 1.000000 1.000000
v 0.615631 2.033622 0.551047 0.000000 0.000000 1.000000 1.000000
v 0.721990 0.285258 -0.661461 0.000000 0.000000 1.000000 1.000000
v 0.741761 -0.002905 0.788094 0.000000 0.000000 1.000000 1.000000
v 0.723421 0.220723 0.791504 0.000000 0.000000 1.000000 1.000000
v 0.640474 0.337811 0.693945 0.000000 0.000000 1.000000 1.000000
v 0.594354 0.507178 0.548094 0.000000 0.000000 1.000000 1.000000
v 0.567340 2.033622 0.599337 0.000000 0.000000 1.000000 1.000000
v 0.547774 0.472331 0.595214 0.000000 0.000000 1.000000 1.000000
vt 0.137817 0.114746
vt 0.133789 0.120605
vt 0.138062 0.027344
vt 0.047363 0.026855
vt 0.044342 0.120605
vt 0.043060 0.032715
vt 0.182251 0.697510
vt 0.327881 0.678955
vt 0.173218 0.721680
vt 0.332520 0.708740
vt 0.171753 0.738281
vt 0.334473 0.695557
vt 0.337891 0.680176
vt 0.337402 0.714844
vt 0.474854 0.683838
vt 0.477539 0.674072
vt 0.479980 0.686279
vt 0.622559 0.684326
vt 0.476807 0.689453
vt 0.623535 0.699707
vt 0.625000 0.696777
vt 0.772461 0.702637
vt 0.782715 0.724854
vt 0.620605 0.712646
vt 0.786621 0.740479
vt 0.618164 0.713867
vt 0.618652 0.722168
vt 0.791504 0.760132
vt 0.788574 0.773438
vt 0.616699 0.735840
vt 0.749023 0.804199
vt 0.612305 0.733887
vt 0.615723 0.765137
vt 0.732422 0.845337
vt 0.603516 0.763794
vt 0.599609 0.803467
vt 0.700684 0.867554
vt 0.595703 0.802002
vt 0.594238 0.826294
vt 0.658691 0.893433
vt 0.586426 0.824707
vt 0.584473 0.866699
vt 0.665039 0.899109
vt 0.571777 0.856812
vt 0.569824 0.890503
vt 0.661133 0.918823
vt 0.574219 0.874390
vt 0.569336 0.888855
vt 0.475830 0.818604
vt 0.474609 0.865112
vt 0.474365 0.882202
vt 0.483398 0.854614
vt 0.376221 0.889465
vt 0.477539 0.794922
vt 0.470947 0.818970
vt 0.466064 0.854492
vt 0.481201 0.753784
vt 0.473389 0.794189
vt 0.478760 0.726318
vt 0.469727 0.754395
vt 0.479736 0.714111
vt 0.474121 0.723877
vt 0.475830 0.706055
vt 0.479736 0.699951
vt 0.475342 0.697510
vt 0.338867 0.733154
vt 0.332275 0.721924
vt 0.165649 0.755859
vt 0.333984 0.732666
vt 0.165405 0.763550
vt 0.334229 0.761963
vt 0.204712 0.793701
vt 0.346191 0.760132
vt 0.349121 0.800781
vt 0.221680 0.836670
vt 0.251221 0.856812
vt 0.353271 0.800781
vt 0.361328 0.858032
vt 0.293701 0.886719
vt 0.360107 0.822998
vt 0.380615 0.860352
vt 0.373047 0.870605
vt 0.293213 0.895264
vt 0.375488 0.887207
vt 0.289307 0.914551
vt 0.611328 0.101562
vt 0.763184 0.088379
vt 0.747559 0.104980
vt 0.611328 0.086426
vt 0.481934 0.104980
vt 0.611816 0.081055
vt 0.766602 0.086914
vt 0.765137 0.063965
vt 0.481934 0.090332
vt 0.353760 0.107910
vt 0.609375 0.081543
vt 0.610840 0.064453
vt 0.483398 0.085449
vt 0.607910 0.063477
vt 0.609375 0.058594
vt 0.764160 0.059570
vt 0.749023 0.042480
vt 0.610840 0.043457
vt 0.482910 0.060547
vt 0.483154 0.045410
vt 0.483643 0.065430
vt 0.480469 0.085938
vt 0.481201 0.065918
vt 0.353760 0.062988
vt 0.353760 0.048340
vt 0.356689 0.086914
vt 0.200439 0.062012
vt 0.215942 0.045898
vt 0.354492 0.068359
vt 0.352783 0.068848
vt 0.196167 0.065918
vt 0.195435 0.090332
vt 0.355225 0.090820
vt 0.199341 0.094238
vt 0.215210 0.111328
vt 0.182129 0.696533
vt 0.186157 0.691650
vt 0.328125 0.678955
vt 0.336426 0.677490
vt 0.477539 0.674072
vt 0.472900 0.672119
vt 0.482178 0.672363
vt 0.622559 0.684326
vt 0.619141 0.680664
vt 0.628418 0.681641
vt 0.772949 0.703369
vt 0.766113 0.697998
vt 0.774902 0.698242
vt 0.144165 0.157715
vt 0.316406 0.138672
vt 0.150024 0.184570
vt 0.319336 0.164062
vt 0.323975 0.139160
vt 0.317627 0.187500
vt 0.162720 0.202148
vt 0.179321 0.216309
vt 0.325684 0.178711
vt 0.477783 0.138672
vt 0.320801 0.208984
vt 0.179443 0.459473
vt 0.329102 0.446777
vt 0.336426 0.444824
vt 0.330811 0.206543
vt 0.475098 0.207031
vt 0.472900 0.438965
vt 0.475342 0.180176
vt 0.483643 0.138672
vt 0.486084 0.204102
vt 0.482178 0.438965
vt 0.482422 0.175293
vt 0.638184 0.141602
vt 0.630371 0.209961
vt 0.620605 0.448730
vt 0.636230 0.182617
vt 0.645020 0.141602
vt 0.640625 0.208008
vt 0.629395 0.449707
vt 0.780273 0.465820
vt 0.644043 0.179199
vt 0.822266 0.162109
vt 0.818359 0.190918
vt 0.803711 0.208496
vt 0.781250 0.224121
vt 0.789062 0.466309
vt 0.790039 0.219727
vt1 0.860840 0.606445
vt1 0.866699 0.614502
vt1 0.860840 0.486816
vt1 0.985352 0.486328
vt1 0.989746 0.614502
vt1 0.991211 0.494141
vt1 0.025391 0.270508
vt1 0.242432 0.242188
vt1 0.012062 0.306641
vt1 0.249146 0.287109
vt1 0.009750 0.331543
vt1 0.251953 0.267090
vt1 0.257080 0.244141
vt1 0.256348 0.296387
vt1 0.461182 0.249512
vt1 0.464844 0.234863
vt1 0.468750 0.253418
vt1 0.681152 0.250488
vt1 0.464111 0.257812
vt1 0.682617 0.273438
vt1 0.685059 0.269043
vt1 0.904297 0.277832
vt1 0.919922 0.311523
vt1 0.678223 0.292969
vt1 0.925293 0.334961
vt1 0.674316 0.294434
vt1 0.674805 0.307129
vt1 0.932129 0.364258
vt1 0.927734 0.384277
vt1 0.672363 0.327637
vt1 0.869141 0.430664
vt1 0.665527 0.324707
vt1 0.670898 0.372070
vt1 0.844727 0.492188
vt1 0.652832 0.369629
vt1 0.646484 0.429688
vt1 0.796875 0.525879
vt1 0.640625 0.427246
vt1 0.638672 0.463867
vt1 0.734375 0.564697
vt1 0.626953 0.461426
vt1 0.624023 0.524414
vt1 0.744141 0.573242
vt1 0.604980 0.509521
vt1 0.602051 0.560303
vt1 0.737793 0.603027
vt1 0.608887 0.536133
vt1 0.602051 0.557861
vt1 0.462402 0.452637
vt1 0.460693 0.522217
vt1 0.460205 0.547852
vt1 0.473877 0.506348
vt1 0.313965 0.558838
vt1 0.464844 0.416504
vt1 0.455078 0.453125
vt1 0.447754 0.506104
vt1 0.470459 0.354980
vt1 0.458740 0.415527
vt1 0.466797 0.313477
vt1 0.453369 0.355957
vt1 0.468262 0.295410
vt1 0.459961 0.309570
vt1 0.462646 0.282715
vt1 0.468262 0.273926
vt1 0.461670 0.270020
vt1 0.258789 0.323730
vt1 0.248779 0.306641
vt1 0.000637 0.357910
vt1 0.251465 0.323242
vt1 0.000406 0.369629
vt1 0.251709 0.367188
vt1 0.058777 0.415039
vt1 0.269531 0.364258
vt1 0.273926 0.425293
vt1 0.084045 0.479492
vt1 0.128296 0.509766
vt1 0.280029 0.425293
vt1 0.291992 0.511475
vt1 0.191528 0.554688
vt1 0.290283 0.458984
vt1 0.320801 0.515137
vt1 0.309326 0.530273
vt1 0.190674 0.567383
vt1 0.312988 0.555420
vt1 0.184937 0.596436
vt1 0.631836 0.204102
vt1 0.860352 0.185547
vt1 0.836914 0.209473
vt1 0.631836 0.182617
vt1 0.437256 0.209473
vt1 0.633301 0.174316
vt1 0.865723 0.183105
vt1 0.864258 0.149414
vt1 0.437256 0.187500
vt1 0.244385 0.213867
vt1 0.629395 0.174805
vt1 0.631836 0.150391
vt1 0.439453 0.180664
vt1 0.626953 0.148926
vt1 0.629395 0.141602
vt1 0.862305 0.143066
vt1 0.839355 0.118164
vt1 0.631836 0.119629
vt1 0.438721 0.144531
vt1 0.438965 0.122559
vt1 0.439941 0.151855
vt1 0.435059 0.182129
vt1 0.436035 0.152344
vt1 0.244263 0.148438
vt1 0.244141 0.126953
vt1 0.248779 0.183105
vt1 0.013290 0.146973
vt1 0.036774 0.123047
vt1 0.245483 0.155762
vt1 0.242676 0.156738
vt1 0.007008 0.152832
vt1 0.005878 0.187988
vt1 0.246338 0.188965
vt1 0.011726 0.193848
vt1 0.035645 0.218262
vt1 0.025223 0.269043
vt1 0.031250 0.261230
vt1 0.242432 0.242188
vt1 0.254883 0.239746
vt1 0.465088 0.234863
vt1 0.458252 0.231934
vt1 0.471680 0.232422
vt1 0.681152 0.250488
vt1 0.676270 0.245117
vt1 0.689453 0.246582
vt1 0.904785 0.278809
vt1 0.895020 0.270996
vt1 0.907715 0.270996
vt1 -0.000771 0.629639
vt1 0.232422 0.607178
vt1 0.007076 0.661865
vt1 0.236206 0.637695
vt1 0.242432 0.607910
vt1 0.234131 0.665283
vt1 0.024261 0.682373
vt1 0.046783 0.699707
vt1 0.244873 0.655029
vt1 0.450684 0.607422
vt1 0.238159 0.690918
vt1 0.046936 0.988182
vt1 0.249390 0.973221
vt1 0.259277 0.970795
vt1 0.251709 0.687744
vt1 0.447021 0.688721
vt1 0.444092 0.963593
vt1 0.447266 0.656494
vt1 0.458740 0.607178
vt1 0.461914 0.685303
vt1 0.456543 0.963776
vt1 0.457031 0.650879
vt1 0.667969 0.610840
vt1 0.657227 0.692139
vt1 0.643555 0.975159
vt1 0.665039 0.659180
vt1 0.677246 0.610840
vt1 0.670898 0.689453
vt1 0.655762 0.976334
vt1 0.860352 0.995819
vt1 0.675293 0.655762
vt1 0.916504 0.635010
vt1 0.911621 0.669434
vt1 0.891602 0.690186
vt1 0.861816 0.708496
vt1 0.872070 0.996033
vt1 0.873047 0.703857
vn -0.039370 0.708661 0.700787
vn -0.031496 1.000000 0.007874
vn 0.055118 0.992126 0.102362
vn 0.039370 1.000000 -0.007874
vn -0.055118 0.992126 -0.078740
vn 0.055118 0.716535 -0.692913
vn 0.007874 -0.755905 0.661417
vn -0.015748 -0.818897 0.566929
vn 0.007874 -0.598425 0.795276
vn -0.023622 -0.566929 0.818898
vn -0.015748 -0.732283 0.685039
vn -0.637795 -0.763779 0.039370
vn -0.677165 -0.732283 0.023622
vn -0.637795 -0.763779 0.102362
vn -0.913386 -0.401575 -0.031496
vn -0.330709 -0.874016 -0.362205
vn -0.031496 -0.354331 -0.937008
vn 0.244094 -0.834646 -0.496063
vn -0.181102 -0.929134 -0.330709
vn 0.212598 -0.874016 -0.433071
vn 0.850394 -0.527559 -0.031496
vn 0.669291 -0.740157 0.039370
vn 0.559055 -0.826772 0.062992
vn 0.968504 -0.236220 -0.023622
vn 0.496063 -0.866142 0.070866
vn 0.031496 -0.598425 -0.795275
vn 0.803150 -0.598425 -0.023622
vn 0.937008 -0.330709 0.078740
vn 0.574803 0.811023 0.039370
vn 0.700787 0.716535 -0.015748
vn 0.543307 0.834646 0.062992
vn 0.015748 0.787401 -0.614173
vn 0.653543 0.755905 -0.023622
vn 0.960630 0.267716 0.086614
vn 0.023622 0.834646 -0.551181
vn 0.976378 0.212598 -0.047244
vn 0.582677 0.811023 0.094488
vn 0.039370 0.220472 -0.976378
vn 0.653543 0.755905 -0.047244
vn 0.881890 0.448819 0.141732
vn 0.031496 0.763779 -0.645669
vn 0.921260 0.377953 -0.062992
vn 0.692913 -0.708661 0.149606
vn 0.055118 0.527559 -0.850394
vn 0.992126 0.078740 -0.078740
vn 0.992126 0.062992 0.133858
vn 0.409449 -0.708661 -0.582677
vn 0.078740 -0.000000 -1.000000
vn -0.039370 0.787401 -0.622047
vn -0.496063 -0.763779 -0.409449
vn -0.740157 0.062992 -0.669291
vn -0.062992 0.377953 -0.921260
vn -1.000000 0.039370 0.070866
vn -0.039370 0.196850 -0.976378
vn -0.614173 0.787401 -0.039370
vn -0.921260 0.393701 -0.062992
vn -0.023622 0.740157 -0.677165
vn -0.976378 0.220472 -0.039370
vn -0.023622 0.692913 -0.716535
vn -0.566929 0.818897 -0.023622
vn -0.031496 -0.338583 -0.944882
vn -0.645669 0.763779 -0.015748
vn -0.511811 -0.850394 -0.125984
vn -0.031496 -0.448819 -0.897638
vn -0.897638 -0.433071 -0.031496
vn -0.724409 0.692913 0.023622
vn -0.031496 -0.370079 0.929134
vn 0.000000 -0.102362 0.992126
vn -0.023622 0.771653 0.637795
vn 0.000000 0.661417 0.755905
vn -0.023622 0.826772 0.559055
vn 0.000000 0.748031 0.669291
vn -0.669291 0.740157 0.023622
vn -0.039370 0.346457 0.937008
vn 0.000000 0.149606 0.992126
vn 0.007874 0.740157 0.669291
vn -0.976378 0.196850 0.039370
vn -0.062992 0.559055 0.826771
vn 0.000000 0.267717 0.960630
vn -0.645669 0.763779 0.039370
vn -0.889764 0.448819 0.047244
vn -0.346457 -0.700787 0.629921
vn 0.000000 -0.559055 0.826772
vn -0.070866 0.000000 1.000000
vn 0.023622 0.000000 1.000000
vn 0.000000 1.000000 -0.000000
vn 0.251969 0.968504 -0.000000
vn 0.000000 1.000000 -0.000000
vn 0.110236 0.992126 -0.102362
vn 0.000000 1.000000 -0.000000
vn 0.992126 0.110236 -0.015748
vn 0.992126 0.149606 -0.000000
vn 0.976378 -0.212598 0.000000
vn -0.125984 0.984252 -0.141732
vn 0.000000 1.000000 -0.000000
vn 0.023622 0.259842 -0.968504
vn 0.984252 -0.181102 -0.015748
vn -0.031496 0.259842 -0.968504
vn 0.023622 -0.118110 -0.992126
vn 0.141732 -0.968504 -0.196850
vn 0.314961 -0.952756 0.000000
vn 0.000000 -1.000000 0.000000
vn 0.000000 -1.000000 0.000000
vn -0.086614 -0.984252 -0.173228
vn 0.000000 -1.000000 0.000000
vn -0.015748 -0.118110 -0.992126
vn -0.992126 0.118110 -0.015748
vn -0.976378 -0.212598 -0.023622
vn -0.078740 -0.984252 0.165354
vn 0.000000 -1.000000 0.000000
vn -0.992126 0.118110 0.015748
vn 0.007874 -0.937008 0.338583
vn 0.000000 -1.000000 0.000000
vn -0.976378 -0.204724 0.023622
vn -0.023622 -0.196850 0.984252
vn 0.094488 -0.362205 0.929134
vn 0.047244 0.409449 0.913386
vn -0.133858 0.897638 0.425197
vn 0.007874 0.984252 0.173228
vn 0.000000 1.000000 -0.000000
vn 0.007874 -0.740157 0.669291
vn 0.000000 -0.007874 1.000000
vn -0.031496 -0.496063 0.866142
vn -1.000000 -0.023622 0.039370
vn -0.496063 -0.834646 -0.236220
vn -1.000000 -0.023622 -0.039370
vn -0.039370 -0.023622 -1.000000
vn 0.299213 -0.818898 -0.488189
vn 0.039370 -0.023622 -1.000000
vn 1.000000 -0.015748 -0.039370
vn 0.716535 -0.692913 0.070866
vn 1.000000 -0.015748 0.039370
vn 0.708661 -0.015748 0.708661
vn 0.000000 -0.094488 0.992126
vn -0.031496 -0.102362 0.992126
vn 0.000000 0.181102 0.984252
vn -0.031496 0.204724 0.976378
vn -1.000000 0.007874 0.031496
vn -0.023622 0.645669 0.763779
vn 0.000000 0.629921 0.771653
vn 0.000000 0.062992 1.000000
vn -0.881890 0.472441 0.031496
vn -1.000000 0.007874 -0.031496
vn -0.039370 0.039370 1.000000
vn 0.000000 -0.007874 1.000000
vn -0.047244 -0.007874 1.000000
vn -1.000000 -0.023622 0.039370
vn -1.000000 0.039370 0.039370
vn -1.000000 0.023622 -0.039370
vn -1.000000 -0.023622 -0.039370
vn -0.850394 0.527559 -0.039370
vn -0.031496 0.007874 -1.000000
vn -0.039370 0.039370 -1.000000
vn -0.039370 -0.023622 -1.000000
vn -0.031496 0.433071 -0.897638
vn 0.031496 0.007874 -1.000000
vn 0.039370 0.023622 -1.000000
vn 0.039370 -0.023622 -1.000000
vn 0.031496 0.535433 -0.842520
vn 1.000000 -0.000000 -0.031496
vn 1.000000 0.023622 -0.039370
vn 1.000000 -0.015748 -0.039370
vn 1.000000 -0.015748 0.039370
vn 0.905512 0.433071 -0.039370
vn 1.000000 0.000000 0.062992
vn 0.952756 0.283465 0.118110
vn 0.787402 0.614173 0.062992
vn 1.000000 0.047244 0.039370
vn 0.708661 -0.015748 0.708661
vn 0.716535 0.070866 0.692913
tan 0.987848 0.122016 -0.067890 1.000000
tan 1.000000 0.032054 -0.070866 1.000000
tan 0.984314 -0.066774 0.117180 1.000000
tan 1.000000 -0.039804 -0.055118 1.000000
tan 0.984314 0.062124 0.093744 1.000000
tan 0.983012 -0.138570 -0.065100 1.000000
tan -0.023064 -0.661603 -0.755843 1.000000
tan 0.092752 -0.564077 -0.812201 1.000000
tan -0.017236 -0.795337 -0.598301 1.000000
tan 0.017360 -0.819084 -0.566557 1.000000
tan 0.000372 -0.685163 -0.732407 1.000000
tan 0.755596 -0.636493 -0.107322 1.000000
tan 0.724471 -0.674809 -0.150908 1.000000
tan 0.746109 -0.643065 -0.149420 1.000000
tan 0.389051 -0.899250 0.182962 1.000000
tan 0.571207 -0.489925 0.660673 1.000000
tan 0.024924 -0.937256 0.353587 1.000000
tan -0.379751 -0.552917 0.743443 1.000000
tan 0.431645 -0.375783 0.819394 1.000000
tan -0.629611 -0.457561 0.614359 1.000000
tan -0.526815 -0.850642 0.024242 1.000000
tan -0.738607 -0.671771 -0.072974 1.000000
tan -0.826772 -0.563519 -0.058590 1.000000
tan -0.238080 -0.968504 -0.076260 1.000000
tan -0.852502 -0.501085 -0.156860 1.000000
tan -0.095542 -0.789757 0.590489 1.000000
tan -0.599169 -0.803521 -0.015872 1.000000
tan -0.306157 -0.915494 -0.201810 1.000000
tan 0.810714 -0.577593 0.062000 1.000000
tan 0.673569 -0.666005 -0.329407 1.000000
tan 0.835142 -0.544795 0.015438 1.000000
tan 0.150288 -0.606733 -0.774009 1.000000
tan 0.735259 -0.642941 -0.231942 1.000000
tan 0.280241 -0.907682 -0.302560 1.000000
tan 0.105028 -0.549445 -0.827515 1.000000
tan 0.183210 -0.915246 -0.332258 1.000000
tan 0.814000 -0.575237 -0.082212 1.000000
tan -0.030752 -0.976378 -0.221712 1.000000
tan 0.740282 -0.650691 -0.170500 1.000000
tan 0.468349 -0.862174 -0.183954 1.000000
tan 0.114700 -0.644057 -0.756277 1.000000
tan 0.336289 -0.870978 -0.307644 1.000000
tan -0.703949 -0.702337 -0.066464 1.000000
tan -0.006696 -0.850394 -0.527993 1.000000
tan 0.057040 -0.960878 -0.242172 1.000000
tan 0.095790 -0.960878 -0.257796 1.000000
tan -0.373489 -0.709157 0.600037 1.000000
tan -0.118110 -0.992126 -0.009300 1.000000
tan -0.105090 -0.621179 -0.779651 1.000000
tan 0.631471 -0.642259 0.433009 1.000000
tan -0.119598 -0.984996 0.039556 1.000000
tan -0.145080 -0.906752 -0.362081 1.000000
tan -0.042160 -1.000000 -0.039370 1.000000
tan -0.176824 -0.961002 -0.186620 1.000000
tan -0.779652 -0.613057 -0.098580 1.000000
tan -0.384153 -0.914502 -0.097402 1.000000
tan -0.124248 -0.674437 -0.732841 1.000000
tan -0.217682 -0.976378 -0.069192 1.000000
tan -0.316387 -0.687891 -0.654783 1.000000
tan -0.804886 -0.561907 -0.162192 1.000000
tan -0.014880 -0.944882 0.339079 1.000000
tan -0.756774 -0.642569 -0.136896 1.000000
tan 0.778474 -0.519127 0.341559 1.000000
tan 0.074214 -0.897886 0.446339 1.000000
tan 0.421291 -0.883750 0.144770 1.000000
tan -0.673011 -0.710645 0.206584 1.000000
tan 0.083390 -0.922066 -0.364437 1.000000
tan -0.117180 -0.984314 -0.101556 1.000000
tan -0.234360 -0.622729 0.744745 1.000000
tan -0.023064 -0.755905 0.661417 1.000000
tan -0.247938 -0.542997 0.792548 1.000000
tan -0.039370 -0.669291 0.748031 1.000000
tan -0.739413 -0.670779 0.067704 1.000000
tan -0.182528 -0.922872 0.333561 1.000000
tan -0.210924 -0.968690 0.146072 1.000000
tan -0.039680 -0.668981 0.740281 1.000000
tan -0.193750 -0.976378 0.076880 1.000000
tan -0.191270 -0.809721 0.532953 1.000000
tan -0.226920 -0.930374 0.259285 1.000000
tan -0.762850 -0.647529 0.051336 1.000000
tan -0.450307 -0.889764 -0.028024 1.000000
tan 0.211916 -0.709777 -0.673073 1.000000
tan -0.089032 -0.820262 -0.554653 1.000000
tan -0.125984 -0.992126 -0.008928 1.000000
tan -0.299213 -0.952756 0.007068 1.000000
tan 0.708661 -0.000000 -0.700787 1.000000
tan 0.968504 -0.251968 -0.015252 1.000000
tan 1.000000 -0.000000 -0.023622 1.000000
tan 0.773390 -0.149606 -0.617149 1.000000
tan -0.685039 -0.000000 -0.724409 1.000000
tan 0.110112 -0.992126 -0.007812 1.000000
tan 0.149606 -0.992126 -0.015624 1.000000
tan -0.212598 -0.976378 -0.007688 1.000000
tan -0.736251 -0.187984 -0.651001 1.000000
tan -0.716535 0.000000 0.692913 1.000000
tan 0.177444 -0.953438 -0.251472 1.000000
tan -0.181102 -0.984252 0.000000 1.000000
tan -0.116436 -0.961126 -0.254076 1.000000
tan -0.156240 -0.976502 0.112530 1.000000
tan -0.678715 -0.238824 0.686341 1.000000
tan -0.952756 -0.314961 -0.007502 1.000000
tan -1.000000 -0.000000 -0.007874 1.000000
tan -0.700787 0.000000 0.708661 1.000000
tan 0.651001 -0.186868 0.736251 1.000000
tan 0.724409 0.000000 0.692913 1.000000
tan 0.210924 -0.968690 0.111972 1.000000
tan -0.116994 -0.992126 -0.070308 1.000000
tan 0.213342 -0.961002 -0.169136 1.000000
tan 0.674251 -0.175026 -0.720751 1.000000
tan 0.700787 -0.000000 -0.708661 1.000000
tan -0.117862 -0.992126 0.015624 1.000000
tan -0.278319 -0.327547 -0.899994 1.000000
tan 0.015748 -0.000000 -1.000000 1.000000
tan 0.205468 -0.976378 0.030752 1.000000
tan 0.186000 -0.968752 -0.189286 1.000000
tan -0.064232 -0.930622 -0.356253 1.000000
tan -0.021576 -0.913386 0.410565 1.000000
tan -0.515593 -0.427429 0.740034 1.000000
tan 0.325501 -0.166284 0.930002 1.000000
tan -0.007874 0.000000 1.000000 1.000000
tan -0.022754 -0.669477 -0.740095 1.000000
tan -0.086614 -1.000000 -0.007874 1.000000
tan 0.011718 -0.866886 -0.496063 1.000000
tan 0.020832 -1.000000 -0.070866 1.000000
tan 0.753922 -0.549631 0.358795 1.000000
tan 0.023622 -1.000000 0.000000 1.000000
tan -0.031496 -1.000000 0.024862 1.000000
tan -0.456445 -0.573873 0.682869 1.000000
tan -0.141732 -0.992126 0.017856 1.000000
tan -0.020584 -0.992126 -0.125984 1.000000
tan -0.690123 -0.722115 -0.082770 1.000000
tan -0.015128 -1.000000 -0.015748 1.000000
tan 0.022320 -1.004402 -0.044640 1.000000
tan -0.101556 -0.984314 -0.093744 1.000000
tan 0.039060 -0.992126 -0.101122 1.000000
tan -0.085250 -0.984252 0.181102 1.000000
tan -0.038440 -0.976378 0.203484 1.000000
tan -0.006386 -1.000000 0.047244 1.000000
tan -0.168330 -0.754169 0.632339 1.000000
tan -0.029264 -0.771653 0.629921 1.000000
tan -0.086614 -1.000000 0.062992 1.000000
tan -0.460041 -0.868250 0.142600 1.000000
tan -0.007378 -1.000000 -0.015748 1.000000
tan -0.078740 -1.000000 0.036270 1.000000
tan -0.070866 -1.000000 -0.007874 1.000000
tan -0.070866 -1.000000 -0.011222 1.000000
tan 0.021142 -1.000000 -0.062992 1.000000
tan -0.039370 -1.000000 0.000000 1.000000
tan -0.023002 -1.000000 -0.015748 1.000000
tan 0.023622 -1.000000 0.000000 1.000000
tan -0.519685 -0.844008 -0.084506 1.000000
tan 0.000000 -1.000000 -0.007874 1.000000
tan -0.047244 -1.000000 -0.037510 1.000000
tan -0.015748 -1.000000 0.024242 1.000000
tan -0.102362 -0.890818 -0.426189 1.000000
tan -0.007874 -1.000000 -0.008122 1.000000
tan -0.039370 -1.000000 -0.025172 1.000000
tan -0.102362 -0.992126 0.019406 1.000000
tan 0.081406 -0.836382 -0.528489 1.000000
tan -0.001736 -1.000000 -0.055118 1.000000
tan 0.019406 -0.992126 -0.102362 1.000000
tan -0.019654 -0.992126 -0.102362 1.000000
tan -0.013268 -1.000000 -0.062992 1.000000
tan 0.424701 -0.898692 -0.117490 1.000000
tan 0.010912 -0.984252 -0.173228 1.000000
tan 0.300391 -0.938682 -0.170314 1.000000
tan 0.617645 -0.787401 -0.043400 1.000000
tan 0.050592 -0.992126 -0.094488 1.000000
tan 0.011160 -1.004402 -0.033480 1.000000
tan 0.416765 -0.844566 -0.344597 1.000000
f 3/3/3 2/2/2 1/1/1
f 4/4/4 2/2/2 3/3/3
f 5/5/5 2/2/2 4/4/4
f 6/6/6 5/5/5 4/4/4
f 9/9/9 8/8/8 7/7/7
f 10/10/10 8/8/8 9/9/9
f 11/11/11 10/10/10 9/9/9
f 12/12/12 8/8/8 10/10/10
f 13/13/13 8/8/8 12/12/12
f 10/10/10 11/11/11 14/14/14
f 12/12/12 10/10/10 14/14/14
f 12/12/12 15/15/15 13/13/13
f 13/13/13 15/15/15 16/16/16
f 16/16/16 15/15/15 17/17/17
f 17/17/17 18/18/18 16/16/16
f 12/12/12 19/19/19 15/15/15
f 17/17/17 15/15/15 19/19/19
f 20/20/20 18/18/18 17/17/17
f 19/19/19 20/20/20 17/17/17
f 18/18/18 20/20/20 21/21/21
f 21/21/21 22/22/22 18/18/18
f 23/23/23 22/22/22 21/21/21
f 20/20/20 23/23/23 21/21/21
f 24/24/24 23/23/23 20/20/20
f 25/25/25 23/23/23 24/24/24
f 20/20/20 26/26/26 24/24/24
f 19/19/19 26/26/26 20/20/20
f 27/27/27 25/25/25 24/24/24
f 24/24/24 26/26/26 27/27/27
f 27/27/27 28/28/28 25/25/25
f 27/27/27 29/29/29 28/28/28
f 30/30/30 29/29/29 27/27/27
f 29/29/29 30/30/30 31/31/31
f 27/27/27 32/32/32 30/30/30
f 26/26/26 32/32/32 27/27/27
f 31/31/31 30/30/30 33/33/33
f 33/33/33 34/34/34 31/31/31
f 35/35/35 30/30/30 32/32/32
f 33/33/33 30/30/30 35/35/35
f 36/36/36 34/34/34 33/33/33
f 36/36/36 37/37/37 34/34/34
f 38/38/38 33/33/33 35/35/35
f 36/36/36 33/33/33 38/38/38
f 39/39/39 37/37/37 36/36/36
f 40/40/40 37/37/37 39/39/39
f 41/41/41 36/36/36 38/38/38
f 39/39/39 36/36/36 41/41/41
f 42/42/42 40/40/40 39/39/39
f 42/42/42 43/43/43 40/40/40
f 44/44/44 39/39/39 41/41/41
f 44/44/44 42/42/42 39/39/39
f 46/46/46 43/43/43 45/45/45
f 47/47/47 43/43/43 42/42/42
f 45/45/45 43/43/43 47/47/47
f 42/42/42 44/44/44 47/47/47
f 47/47/47 48/48/48 45/45/45
f 44/44/44 41/41/41 49/49/49
f 50/50/50 48/48/48 47/47/47
f 51/51/51 48/48/48 50/50/50
f 52/52/52 47/47/47 44/44/44
f 52/52/52 44/44/44 49/49/49
f 52/52/52 50/50/50 47/47/47
f 51/51/51 50/50/50 53/53/53
f 49/49/49 41/41/41 54/54/54
f 54/54/54 41/41/41 38/38/38
f 55/55/55 52/52/52 49/49/49
f 49/49/49 54/54/54 55/55/55
f 50/50/50 52/52/52 56/56/56
f 56/56/56 52/52/52 55/55/55
f 54/54/54 38/38/38 57/57/57
f 57/57/57 38/38/38 35/35/35
f 55/55/55 54/54/54 58/58/58
f 54/54/54 57/57/57 58/58/58
f 35/35/35 59/59/59 57/57/57
f 32/32/32 59/59/59 35/35/35
f 58/58/58 57/57/57 60/60/60
f 57/57/57 59/59/59 60/60/60
f 59/59/59 32/32/32 61/61/61
f 61/61/61 32/32/32 26/26/26
f 60/60/60 59/59/59 62/62/62
f 61/61/61 62/62/62 59/59/59
f 61/61/61 26/26/26 63/63/63
f 63/63/63 62/62/62 61/61/61
f 63/63/63 26/26/26 64/64/64
f 64/64/64 26/26/26 19/19/19
f 64/64/64 19/19/19 65/65/65
f 63/63/63 64/64/64 65/65/65
f 12/12/12 65/65/65 19/19/19
f 14/14/14 65/65/65 12/12/12
f 65/65/65 14/14/14 63/63/63
f 14/14/14 62/62/62 63/63/63
f 66/66/66 62/62/62 14/14/14
f 62/62/62 66/66/66 60/60/60
f 14/14/14 67/67/67 66/66/66
f 11/11/11 67/67/67 14/14/14
f 68/68/68 67/67/67 11/11/11
f 68/68/68 69/69/69 67/67/67
f 66/66/66 67/67/67 69/69/69
f 70/70/70 69/69/69 68/68/68
f 69/69/69 70/70/70 71/71/71
f 71/71/71 66/66/66 69/69/69
f 71/71/71 70/70/70 72/72/72
f 60/60/60 66/66/66 73/73/73
f 73/73/73 66/66/66 71/71/71
f 73/73/73 58/58/58 60/60/60
f 72/72/72 74/74/74 71/71/71
f 74/74/74 73/73/73 71/71/71
f 75/75/75 74/74/74 72/72/72
f 76/76/76 74/74/74 75/75/75
f 77/77/77 58/58/58 73/73/73
f 77/77/77 73/73/73 74/74/74
f 77/77/77 55/55/55 58/58/58
f 78/78/78 74/74/74 76/76/76
f 79/79/79 78/78/78 76/76/76
f 80/80/80 77/77/77 74/74/74
f 80/80/80 55/55/55 77/77/77
f 78/78/78 80/80/80 74/74/74
f 81/81/81 55/55/55 80/80/80
f 80/80/80 78/78/78 81/81/81
f 56/56/56 55/55/55 81/81/81
f 56/56/56 81/81/81 50/50/50
f 82/82/82 81/81/81 78/78/78
f 50/50/50 81/81/81 82/82/82
f 82/82/82 78/78/78 79/79/79
f 53/53/53 50/50/50 82/82/82
f 82/82/82 79/79/79 83/83/83
f 53/53/53 82/82/82 84/84/84
f 85/85/85 82/82/82 83/83/83
f 84/84/84 82/82/82 85/85/85
f 88/88/88 87/87/87 86/86/86
f 86/86/86 87/87/87 89/89/89
f 86/86/86 89/89/89 90/90/90
f 87/87/87 91/91/91 89/89/89
f 92/92/92 91/91/91 87/87/87
f 92/92/92 93/93/93 91/91/91
f 90/90/90 89/89/89 94/94/94
f 90/90/90 94/94/94 95/95/95
f 91/91/91 96/96/96 89/89/89
f 91/91/91 93/93/93 97/97/97
f 91/91/91 97/97/97 96/96/96
f 96/96/96 98/98/98 89/89/89
f 89/89/89 98/98/98 94/94/94
f 96/96/96 97/97/97 99/99/99
f 96/96/96 99/99/99 98/98/98
f 93/93/93 100/100/100 97/97/97
f 100/100/100 99/99/99 97/97/97
f 101/101/101 100/100/100 93/93/93
f 102/102/102 100/100/100 101/101/101
f 103/103/103 100/100/100 102/102/102
f 103/103/103 104/104/104 100/100/100
f 100/100/100 104/104/104 99/99/99
f 105/105/105 104/104/104 103/103/103
f 98/98/98 99/99/99 106/106/106
f 99/99/99 104/104/104 106/106/106
f 98/98/98 106/106/106 107/107/107
f 94/94/94 98/98/98 107/107/107
f 108/108/108 106/106/106 104/104/104
f 107/107/107 106/106/106 108/108/108
f 105/105/105 109/109/109 104/104/104
f 109/109/109 108/108/108 104/104/104
f 110/110/110 109/109/109 105/105/105
f 107/107/107 108/108/108 111/111/111
f 111/111/111 94/94/94 107/107/107
f 113/113/113 112/112/112 110/110/110
f 110/110/110 112/112/112 109/109/109
f 111/111/111 108/108/108 114/114/114
f 114/114/114 108/108/108 109/109/109
f 112/112/112 115/115/115 109/109/109
f 109/109/109 115/115/115 114/114/114
f 116/116/116 115/115/115 112/112/112
f 116/116/116 117/117/117 115/115/115
f 114/114/114 118/118/118 111/111/111
f 115/115/115 118/118/118 114/114/114
f 115/115/115 117/117/117 118/118/118
f 118/118/118 94/94/94 111/111/111
f 119/119/119 118/118/118 117/117/117
f 95/95/95 94/94/94 118/118/118
f 120/120/120 118/118/118 119/119/119
f 95/95/95 118/118/118 120/120/120
f 123/123/123 122/122/122 121/121/121
f 124/124/124 123/123/123 13/13/13
f 125/125/125 124/124/124 13/13/13
f 126/126/126 124/124/124 125/125/125
f 127/127/127 126/126/126 125/125/125
f 125/125/125 128/128/128 127/127/127
f 127/127/127 128/128/128 129/129/129
f 129/129/129 128/128/128 130/130/130
f 128/128/128 131/131/131 130/130/130
f 130/130/130 131/131/131 132/132/132
f 133/133/133 132/132/132 131/131/131
f 136/136/136 135/135/135 134/134/134
f 137/137/137 135/135/135 136/136/136
f 137/137/137 138/138/138 135/135/135
f 137/137/137 136/136/136 139/139/139
f 139/139/139 136/136/136 140/140/140
f 140/140/140 141/141/141 139/139/139
f 142/142/142 138/138/138 137/137/137
f 137/137/137 139/139/139 142/142/142
f 142/142/142 143/143/143 138/138/138
f 139/139/139 141/141/141 144/144/144
f 145/145/145 144/144/144 141/141/141
f 146/146/146 144/144/144 145/145/145
f 147/147/147 144/144/144 146/146/146
f 144/144/144 148/148/148 139/139/139
f 148/148/148 144/144/144 147/147/147
f 139/139/139 148/148/148 142/142/142
f 147/147/147 149/149/149 148/148/148
f 150/150/150 149/149/149 147/147/147
f 142/142/142 148/148/148 151/151/151
f 151/151/151 148/148/148 149/149/149
f 151/151/151 143/143/143 142/142/142
f 151/151/151 152/152/152 143/143/143
f 149/149/149 150/150/150 153/153/153
f 149/149/149 153/153/153 151/151/151
f 153/153/153 150/150/150 154/154/154
f 155/155/155 152/152/152 151/151/151
f 151/151/151 153/153/153 155/155/155
f 155/155/155 156/156/156 152/152/152
f 154/154/154 157/157/157 153/153/153
f 158/158/158 157/157/157 154/154/154
f 155/155/155 153/153/153 159/159/159
f 159/159/159 156/156/156 155/155/155
f 159/159/159 153/153/153 157/157/157
f 159/159/159 160/160/160 156/156/156
f 157/157/157 158/158/158 161/161/161
f 157/157/157 161/161/161 159/159/159
f 161/161/161 158/158/158 162/162/162
f 163/163/163 161/161/161 162/162/162
f 164/164/164 160/160/160 159/159/159
f 159/159/159 161/161/161 164/164/164
f 164/164/164 165/165/165 160/160/160
f 166/166/166 165/165/165 164/164/164
f 164/164/164 167/167/167 166/166/166
f 164/164/164 161/161/161 167/167/167
f 168/168/168 161/161/161 163/163/163
f 167/167/167 161/161/161 168/168/168
f 169/169/169 168/168/168 163/163/163
f 168/168/168 170/170/170 167/167/167
f 170/170/170 168/168/168 169/169/169
