mtllib SM_Path_LOD2@000002909DC3A400.mtl
g SM_Path_LOD2@000002909DC3A400
#Vertices 31
#Indices 150
#Section 0 Offset 0 NumIndices 150 MaterialIndex 0 MI_FloorTile_A_01
v -6.001876 -0.059870 -3.796507 0.000000 1.000000 0.000000 1.000000
v -4.698566 -0.060083 -1.035609 0.000000 1.000000 0.000000 1.000000
v -6.000000 -0.059078 -1.034505 0.000000 1.000000 0.000000 1.000000
v -4.800000 0.282838 -3.764504 0.000000 1.000000 0.000000 1.000000
v -1.764165 0.417129 -3.803896 0.000000 1.000000 0.000000 1.000000
v 5.993046 -0.091970 -1.038993 0.000000 1.000000 0.000000 1.000000
v -4.579225 0.303248 -6.341407 0.000000 1.000000 0.000000 1.000000
v -6.010937 -0.016607 -10.458977 0.000000 1.000000 0.000000 1.000000
v 4.471417 0.292195 -4.804548 0.000000 1.000000 0.000000 1.000000
v 6.007142 -0.000212 -9.652676 0.000000 1.000000 0.000000 1.000000
v -4.800000 0.529930 -9.224504 0.000000 1.000000 0.000000 1.000000
v -3.197667 0.326403 -9.310574 0.000000 1.000000 0.000000 1.000000
v -4.679552 0.257758 -12.495966 0.000000 1.000000 0.000000 1.000000
v -6.002782 -0.007366 -17.852188 0.000000 1.000000 0.000000 1.000000
v 4.488780 0.544599 -9.226861 0.000000 1.000000 0.000000 1.000000
v -2.155298 0.286031 -11.700636 0.000000 1.000000 0.000000 1.000000
v -3.950020 0.558770 -14.988808 0.000000 1.000000 0.000000 1.000000
v 4.539647 0.324168 -11.860147 0.000000 1.000000 0.000000 1.000000
v -4.759776 0.262957 -20.986591 0.000000 1.000000 0.000000 1.000000
v -5.999837 -0.059651 -28.334469 0.000000 1.000000 0.000000 1.000000
v -3.128223 0.438056 -16.887304 0.000000 1.000000 0.000000 1.000000
v 0.298044 0.389135 -15.455820 0.000000 1.000000 0.000000 1.000000
v 4.223700 0.538884 -14.532974 0.000000 1.000000 0.000000 1.000000
v 4.708884 0.278461 -17.203266 0.000000 1.000000 0.000000 1.000000
v 5.993442 -0.082034 -28.330585 0.000000 1.000000 0.000000 1.000000
v 1.456908 0.308944 -19.752220 0.000000 1.000000 0.000000 1.000000
v 4.404490 0.313413 -24.670401 0.000000 1.000000 0.000000 1.000000
v -1.249143 -0.019920 -28.340752 0.000000 1.000000 0.000000 1.000000
v -0.054954 0.542571 -23.176636 0.000000 1.000000 0.000000 1.000000
v -1.077620 0.495051 -25.617292 0.000000 1.000000 0.000000 1.000000
v -4.800000 0.258349 -25.604502 0.000000 1.000000 0.000000 1.000000
vt -0.108398 2.185547
vt 0.032196 2.610352
vt -0.098572 2.611328
vt 0.025681 2.186523
vt 0.326660 2.178711
vt 1.099609 2.610352
vt 0.044769 1.791992
vt -0.129272 1.161499
vt 0.946289 2.027344
vt 1.126953 1.284912
vt 0.025467 1.350342
vt 0.186890 1.336914
vt 0.027313 0.849243
vt -0.117920 0.028809
vt 0.947754 1.349854
vt 0.286621 0.970581
vt 0.109802 0.466309
vt 0.955566 0.945709
vt 0.023376 -0.451172
vt -0.106018 -1.583984
vt 0.190552 0.176270
vt 0.530762 0.395020
vt 0.919922 0.535889
vt 0.971191 0.125977
vt 1.102539 -1.582031
vt 0.645508 -0.262695
vt 0.938965 -1.017578
vt 0.374268 -1.583984
vt 0.493896 -0.787109
vt 0.391846 -1.158203
vt 0.020569 -1.158203
vt1 0.028595 0.892090
vt1 0.138062 0.991570
vt1 0.036224 0.991852
vt1 0.132935 0.892212
vt1 0.367432 0.890442
vt1 0.969727 0.991600
vt1 0.147827 0.799805
vt1 0.012306 0.652100
vt1 0.850098 0.854980
vt1 0.990723 0.680908
vt1 0.132812 0.696289
vt1 0.258545 0.693115
vt1 0.134277 0.578857
vt1 0.021194 0.386719
vt1 0.851074 0.696289
vt1 0.336182 0.607178
vt1 0.198486 0.489258
vt1 0.857422 0.601562
vt1 0.131226 0.273926
vt1 0.030457 0.008789
vt1 0.261230 0.421387
vt1 0.526367 0.472656
vt1 0.829102 0.505371
vt1 0.869141 0.409668
vt1 0.971680 0.009277
vt1 0.615723 0.318359
vt1 0.844238 0.141602
vt1 0.404541 0.008301
vt1 0.497559 0.195312
vt1 0.418213 0.108398
vt1 0.129028 0.108398
vn -0.228346 0.976378 0.031496
vn -0.055118 0.992126 0.141732
vn -0.141732 0.984252 0.062992
vn -0.125984 0.992126 0.047244
vn 0.015748 1.000000 0.062992
vn 0.078740 0.992126 0.102362
vn -0.086614 1.000000 0.015748
vn -0.322835 0.944882 -0.007874
vn 0.047244 1.000000 0.039370
vn 0.314961 0.944882 -0.000000
vn -0.149606 0.992126 -0.000000
vn 0.015748 1.000000 -0.000000
vn -0.149606 0.992126 0.007874
vn -0.299213 0.952756 -0.000000
vn 0.039370 1.000000 -0.000000
vn 0.000000 1.000000 0.007874
vn -0.078740 1.000000 -0.000000
vn 0.070866 1.000000 -0.007874
vn -0.125984 0.992126 0.007874
vn -0.133858 0.992126 -0.062992
vn 0.031496 1.000000 -0.015748
vn -0.015748 1.000000 -0.007874
vn 0.055118 1.000000 -0.000000
vn 0.118110 0.992126 -0.031496
vn 0.125984 0.992126 -0.047244
vn 0.015748 1.000000 0.023622
vn 0.078740 1.000000 -0.023622
vn 0.023622 0.984252 -0.181102
vn 0.015748 1.000000 0.007874
vn 0.007874 0.992126 -0.102362
vn -0.118110 0.992126 -0.047244
tan 0.023064 0.036890 -0.976378 1.000000
tan 0.000000 0.141732 -0.992126 1.000000
tan 0.023250 0.066340 -0.984252 1.000000
tan 0.007812 0.048236 -0.992126 1.000000
tan 0.000000 0.062992 -1.000000 1.000000
tan -0.007812 0.102982 -0.992126 1.000000
tan 0.007874 0.016430 -1.000000 1.000000
tan 0.000000 -0.007874 -0.944882 1.000000
tan -0.007874 0.039742 -1.000000 1.000000
tan 0.000000 -0.000000 -0.944882 1.000000
tan 0.000000 -0.000000 -0.992126 1.000000
tan 0.000000 -0.000000 -1.000000 1.000000
tan 0.000000 0.007874 -0.992126 1.000000
tan 0.000000 -0.000000 -0.952756 1.000000
tan 0.000000 -0.000000 -1.000000 1.000000
tan 0.000000 0.007874 -1.000000 1.000000
tan 0.000000 -0.000000 -1.000000 1.000000
tan 0.000000 -0.007874 -1.000000 1.000000
tan 0.000000 0.007874 -0.992126 1.000000
tan -0.023436 -0.066154 -0.992126 1.000000
tan 0.000000 -0.015748 -1.000000 1.000000
tan 0.000000 -0.007874 -1.000000 1.000000
tan 0.000000 -0.000000 -1.000000 1.000000
tan 0.000000 -0.031496 -0.992126 1.000000
tan 0.007812 -0.048236 -0.992126 1.000000
tan 0.000000 0.023622 -1.000000 1.000000
tan 0.000000 -0.023622 -1.000000 1.000000
tan 0.007750 -0.181288 -0.984252 1.000000
tan 0.000000 0.007874 -1.000000 1.000000
tan 0.000000 -0.102362 -0.992126 1.000000
tan -0.007812 -0.048174 -0.992126 1.000000
f 3/3/3 2/2/2 1/1/1
f 1/1/1 2/2/2 4/4/4
f 4/4/4 2/2/2 5/5/5
f 2/2/2 6/6/6 5/5/5
f 1/1/1 4/4/4 7/7/7
f 4/4/4 5/5/5 7/7/7
f 1/1/1 7/7/7 8/8/8
f 9/9/9 5/5/5 6/6/6
f 7/7/7 5/5/5 9/9/9
f 9/9/9 6/6/6 10/10/10
f 8/8/8 7/7/7 11/11/11
f 7/7/7 9/9/9 12/12/12
f 11/11/11 7/7/7 12/12/12
f 8/8/8 11/11/11 13/13/13
f 11/11/11 12/12/12 13/13/13
f 8/8/8 13/13/13 14/14/14
f 12/12/12 9/9/9 15/15/15
f 9/9/9 10/10/10 15/15/15
f 13/13/13 12/12/12 16/16/16
f 12/12/12 15/15/15 16/16/16
f 14/14/14 13/13/13 17/17/17
f 13/13/13 16/16/16 17/17/17
f 15/15/15 10/10/10 18/18/18
f 16/16/16 15/15/15 18/18/18
f 14/14/14 17/17/17 19/19/19
f 14/14/14 19/19/19 20/20/20
f 17/17/17 16/16/16 21/21/21
f 17/17/17 21/21/21 19/19/19
f 16/16/16 18/18/18 22/22/22
f 22/22/22 21/21/21 16/16/16
f 18/18/18 10/10/10 23/23/23
f 23/23/23 22/22/22 18/18/18
f 23/23/23 10/10/10 24/24/24
f 22/22/22 23/23/23 24/24/24
f 25/25/25 24/24/24 10/10/10
f 21/21/21 22/22/22 26/26/26
f 22/22/22 24/24/24 26/26/26
f 26/26/26 19/19/19 21/21/21
f 24/24/24 25/25/25 27/27/27
f 26/26/26 24/24/24 27/27/27
f 28/28/28 27/27/27 25/25/25
f 27/27/27 29/29/29 26/26/26
f 19/19/19 26/26/26 29/29/29
f 30/30/30 29/29/29 27/27/27
f 19/19/19 29/29/29 30/30/30
f 30/30/30 27/27/27 28/28/28
f 31/31/31 19/19/19 30/30/30
f 31/31/31 30/30/30 28/28/28
f 20/20/20 19/19/19 31/31/31
f 20/20/20 31/31/31 28/28/28
