mtllib SM_Pillar_01_a_LOD1@000002909DC2C100.mtl
g SM_Pillar_01_a_LOD1@000002909DC2C100
#Vertices 189
#Indices 858
#Section 0 Offset 0 NumIndices 660 MaterialIndex 0 MI_Pillar_02
#Section 1 Offset 660 NumIndices 198 MaterialIndex 1 MI_Pillar_01
v -0.331417 5.358609 0.368525 0.000000 0.000000 1.000000 1.000000
v 0.372102 5.368085 0.348427 0.000000 0.000000 1.000000 1.000000
v 0.321585 5.355631 0.368821 0.000000 0.000000 1.000000 1.000000
v -0.378537 5.372052 0.340180 0.000000 0.000000 1.000000 1.000000
v 0.366693 5.369004 -0.349542 0.000000 0.000000 1.000000 1.000000
v -0.379750 5.371643 -0.345680 0.000000 0.000000 1.000000 1.000000
v -0.331375 5.358608 -0.378743 0.000000 0.000000 1.000000 1.000000
v 0.321588 5.355639 -0.379055 0.000000 0.000000 1.000000 1.000000
v 0.372102 5.368085 0.348427 0.000000 0.000000 1.000000 1.000000
v 0.285485 5.234434 0.339395 0.000000 0.000000 1.000000 1.000000
v 0.321585 5.355631 0.368821 0.000000 0.000000 1.000000 1.000000
v 0.327216 5.253479 -0.295269 0.000000 0.000000 1.000000 1.000000
v 0.366693 5.369004 -0.349542 0.000000 0.000000 1.000000 1.000000
v 0.273186 5.176576 0.317291 0.000000 0.000000 1.000000 1.000000
v 0.321588 5.355639 -0.379055 0.000000 0.000000 1.000000 1.000000
v 0.281322 5.252579 -0.341022 0.000000 0.000000 1.000000 1.000000
v -0.290353 5.260647 -0.338770 0.000000 0.000000 1.000000 1.000000
v -0.331375 5.358608 -0.378743 0.000000 0.000000 1.000000 1.000000
v 0.256136 5.171332 -0.310757 0.000000 0.000000 1.000000 1.000000
v 0.316104 5.135542 -0.271031 0.000000 0.000000 1.000000 1.000000
v 0.484541 4.928200 -0.439026 0.000000 0.000000 1.000000 1.000000
v 0.421180 4.937649 -0.468322 0.000000 0.000000 1.000000 1.000000
v -0.269611 5.149324 -0.319517 0.000000 0.000000 1.000000 1.000000
v 0.484541 4.928200 0.443352 0.000000 0.000000 1.000000 1.000000
v 0.405503 4.950170 0.462784 0.000000 0.000000 1.000000 1.000000
v 0.566340 4.813807 0.618506 0.000000 0.000000 1.000000 1.000000
v 0.612588 4.813807 0.572257 0.000000 0.000000 1.000000 1.000000
v 0.591544 4.498114 0.635682 0.000000 0.000000 1.000000 1.000000
v 0.612588 4.813807 -0.577739 0.000000 0.000000 1.000000 1.000000
v 0.629763 4.489766 -0.583289 0.000000 0.000000 1.000000 1.000000
v 0.863708 4.487746 -0.812708 0.000000 0.000000 1.000000 1.000000
v 0.838654 4.487990 0.882717 0.000000 0.000000 1.000000 1.000000
v 0.583288 4.489766 -0.629764 0.000000 0.000000 1.000000 1.000000
v 0.860705 4.390954 0.813051 0.000000 0.000000 1.000000 1.000000
v 0.814088 4.390953 0.858878 0.000000 0.000000 1.000000 1.000000
v 0.752760 4.346323 0.800271 0.000000 0.000000 1.000000 1.000000
v 0.817496 4.487746 -0.858920 0.000000 0.000000 1.000000 1.000000
v 0.860723 4.390961 -0.812058 0.000000 0.000000 1.000000 1.000000
v 0.814511 4.390961 -0.858270 0.000000 0.000000 1.000000 1.000000
v 0.771515 4.347177 -0.735288 0.000000 0.000000 1.000000 1.000000
v 0.764722 4.324375 -0.714155 0.000000 0.000000 1.000000 1.000000
v 0.720730 4.292352 0.763182 0.000000 0.000000 1.000000 1.000000
v 0.615595 4.172557 0.553755 0.062745 0.062745 1.000000 1.000000
v 0.569271 4.173658 0.599357 0.349020 0.349020 1.000000 1.000000
v 0.716409 4.260142 -0.673135 0.074510 0.074510 1.000000 1.000000
v 0.615629 4.167458 -0.569907 0.835294 0.835294 1.000000 1.000000
v 0.726914 4.312097 -0.771773 0.000000 0.000000 1.000000 1.000000
v 0.659124 4.257610 -0.695676 0.121569 0.121569 1.000000 1.000000
v 0.568101 4.172055 -0.624148 0.752941 0.752941 1.000000 1.000000
v 0.724690 4.347177 -0.782113 0.000000 0.000000 1.000000 1.000000
v -0.640978 4.228413 -0.696308 0.517647 0.517647 1.000000 1.000000
v -0.571378 4.162175 -0.615891 1.000000 1.000000 1.000000 1.000000
v -0.706022 4.261885 -0.698955 0.313726 0.313726 1.000000 1.000000
v -0.687233 4.220175 -0.638334 0.807843 0.807843 1.000000 1.000000
v -0.615978 4.164339 -0.569828 1.000000 1.000000 1.000000 1.000000
v -0.616040 4.168595 0.552656 0.427451 0.427451 1.000000 1.000000
v -0.683885 4.231334 0.632621 0.000000 0.000000 1.000000 1.000000
v -0.571572 4.161860 0.599305 0.631373 0.631373 1.000000 1.000000
v -0.725272 4.320093 -0.767193 0.000000 0.000000 1.000000 1.000000
v -0.641474 4.234368 0.691769 0.000000 0.000000 1.000000 1.000000
v 0.569271 4.173658 0.599357 0.349020 0.349020 1.000000 1.000000
v 0.720730 4.292352 0.763182 0.000000 0.000000 1.000000 1.000000
v -0.659059 4.262051 0.698602 0.000000 0.000000 1.000000 1.000000
v -0.705755 4.262051 0.651905 0.000000 0.000000 1.000000 1.000000
v -0.766757 4.306382 -0.709908 0.000000 0.000000 1.000000 1.000000
v -0.764638 4.310566 0.721003 0.000000 0.000000 1.000000 1.000000
v -0.771545 4.358112 0.821531 0.000000 0.000000 1.000000 1.000000
v 0.752760 4.346323 0.800271 0.000000 0.000000 1.000000 1.000000
v 0.814088 4.390953 0.858878 0.000000 0.000000 1.000000 1.000000
v -0.791715 4.349429 0.733179 0.000000 0.000000 1.000000 1.000000
v -0.786208 4.352705 -0.781023 0.000000 0.000000 1.000000 1.000000
v -0.858305 4.382891 0.812600 0.000000 0.000000 1.000000 1.000000
v -0.812544 4.382920 -0.858252 0.000000 0.000000 1.000000 1.000000
v -0.858371 4.382919 -0.811636 0.000000 0.000000 1.000000 1.000000
v -0.816269 4.483792 -0.858920 0.000000 0.000000 1.000000 1.000000
v -0.862481 4.483792 -0.812708 0.000000 0.000000 1.000000 1.000000
v -0.862481 4.483792 0.816267 0.000000 0.000000 1.000000 1.000000
v -0.583287 4.489766 -0.629764 0.000000 0.000000 1.000000 1.000000
v -0.816269 4.483792 0.862479 0.000000 0.000000 1.000000 1.000000
v 0.838654 4.487990 0.882717 0.000000 0.000000 1.000000 1.000000
v 0.591544 4.498114 0.635682 0.000000 0.000000 1.000000 1.000000
v -0.629762 4.489766 0.583285 0.000000 0.000000 1.000000 1.000000
v -0.583287 4.489766 0.629761 0.000000 0.000000 1.000000 1.000000
v 0.566340 4.813807 0.618506 0.000000 0.000000 1.000000 1.000000
v -0.629762 4.489766 -0.583289 0.000000 0.000000 1.000000 1.000000
v -0.572259 4.818855 0.618506 0.000000 0.000000 1.000000 1.000000
v 0.405503 4.950170 0.462784 0.000000 0.000000 1.000000 1.000000
v -0.618507 4.818855 0.572257 0.000000 0.000000 1.000000 1.000000
v -0.432028 4.936454 0.480476 0.000000 0.000000 1.000000 1.000000
v -0.254655 5.167909 0.300728 0.000000 0.000000 1.000000 1.000000
v 0.273186 5.176576 0.317291 0.000000 0.000000 1.000000 1.000000
v 0.285485 5.234434 0.339395 0.000000 0.000000 1.000000 1.000000
v -0.477803 4.938212 0.430981 0.000000 0.000000 1.000000 1.000000
v -0.618507 4.818855 -0.577739 0.000000 0.000000 1.000000 1.000000
v -0.492613 4.930353 -0.439026 0.000000 0.000000 1.000000 1.000000
v -0.285154 5.237720 0.331796 0.000000 0.000000 1.000000 1.000000
v 0.321585 5.355631 0.368821 0.000000 0.000000 1.000000 1.000000
v -0.331417 5.358609 0.368525 0.000000 0.000000 1.000000 1.000000
v -0.301873 5.173193 0.248330 0.000000 0.000000 1.000000 1.000000
v -0.331722 5.239573 0.287980 0.000000 0.000000 1.000000 1.000000
v -0.378537 5.372052 0.340180 0.000000 0.000000 1.000000 1.000000
v -0.301901 5.152723 -0.255537 0.000000 0.000000 1.000000 1.000000
v -0.332262 5.239096 -0.291930 0.000000 0.000000 1.000000 1.000000
v -0.379750 5.371643 -0.345680 0.000000 0.000000 1.000000 1.000000
v -0.432065 4.937043 -0.474581 0.000000 0.000000 1.000000 1.000000
v -0.572259 4.818855 -0.623987 0.000000 0.000000 1.000000 1.000000
v 0.566340 4.813807 -0.623987 0.000000 0.000000 1.000000 1.000000
v 0.520448 0.625057 -0.492355 0.000000 1.000000 0.000000 1.000000
v 0.637940 0.625189 0.650322 0.000000 1.000000 0.000000 1.000000
v 0.520448 0.625057 0.535006 0.000000 1.000000 0.000000 1.000000
v 0.637940 0.625189 -0.607671 0.000000 1.000000 0.000000 1.000000
v -0.526297 0.623881 -0.492355 0.000000 1.000000 0.000000 1.000000
v 0.655329 0.607405 -0.607671 0.000000 1.000000 0.000000 1.000000
v 0.655329 0.607405 0.650322 0.000000 1.000000 0.000000 1.000000
v 0.665795 0.464867 0.665700 0.000000 1.000000 0.000000 1.000000
v -0.643788 0.623749 -0.607671 0.000000 1.000000 0.000000 1.000000
v -0.526297 0.623881 0.535006 0.000000 1.000000 0.000000 1.000000
v 0.630840 0.607405 -0.645078 0.000000 1.000000 0.000000 1.000000
v 0.655132 0.475386 -0.607671 0.000000 1.000000 0.000000 1.000000
v 0.630643 0.445694 0.658404 0.000000 1.000000 0.000000 1.000000
v 0.630643 0.475386 -0.645078 0.000000 1.000000 0.000000 1.000000
v 0.630643 0.446777 -0.625623 0.000000 1.000000 0.000000 1.000000
v 0.515130 0.445556 0.540702 0.000000 1.000000 0.000000 1.000000
v 0.515130 0.446440 -0.507921 0.000000 1.000000 0.000000 1.000000
v -0.629504 0.471777 -0.645078 0.000000 1.000000 0.000000 1.000000
v -0.629504 0.444183 -0.625623 0.000000 1.000000 0.000000 1.000000
v -0.513990 0.444321 -0.507921 0.000000 1.000000 0.000000 1.000000
v -0.637667 0.599080 -0.645078 0.000000 1.000000 0.000000 1.000000
v -0.662044 0.603161 -0.607671 0.000000 1.000000 0.000000 1.000000
v -0.664230 0.458649 -0.625623 0.000000 1.000000 0.000000 1.000000
v -0.629504 0.443100 0.658404 0.000000 1.000000 0.000000 1.000000
v -0.513990 0.443437 0.540702 0.000000 1.000000 0.000000 1.000000
v 0.515130 0.445556 0.540702 0.000000 1.000000 0.000000 1.000000
v 0.630643 0.445694 0.658404 0.000000 1.000000 0.000000 1.000000
v -0.664230 0.457566 0.658404 0.000000 1.000000 0.000000 1.000000
v -0.629504 0.471777 0.690654 0.000000 1.000000 0.000000 1.000000
v 0.665795 0.464867 0.665700 0.000000 1.000000 0.000000 1.000000
v -0.662044 0.603161 0.650322 0.000000 1.000000 0.000000 1.000000
v 0.630840 0.607405 0.690654 0.000000 1.000000 0.000000 1.000000
v 0.655329 0.607405 0.650322 0.000000 1.000000 0.000000 1.000000
v 0.637940 0.625189 0.650322 0.000000 1.000000 0.000000 1.000000
v -0.637667 0.599080 0.690654 0.000000 1.000000 0.000000 1.000000
v -0.643788 0.623749 0.650322 0.000000 1.000000 0.000000 1.000000
v 0.520448 0.625057 0.535006 0.000000 1.000000 0.000000 1.000000
v 0.549134 0.477932 0.593793 0.000000 1.000000 0.000000 1.000000
v -0.571572 4.161860 0.599305 0.631373 0.631373 1.000000 1.000000
v 0.569271 4.173658 0.599357 0.349020 0.349020 1.000000 1.000000
v -0.546463 0.503977 0.594600 0.000000 1.000000 0.000000 1.000000
v -0.616040 4.168595 0.552656 0.427451 0.427451 1.000000 1.000000
v -0.609303 0.332490 0.665158 0.000000 1.000000 0.000000 1.000000
v 0.613668 0.331554 0.665158 0.000000 1.000000 0.000000 1.000000
v 0.711650 0.205966 0.781322 0.000000 1.000000 0.000000 1.000000
v -0.593599 0.489170 0.547265 0.000000 1.000000 0.000000 1.000000
v -0.713324 0.201895 0.781324 0.000000 1.000000 0.000000 1.000000
v 0.711876 -0.001372 0.761045 0.000000 1.000000 0.000000 1.000000
v -0.714829 -0.001372 0.761045 0.000000 1.000000 0.000000 1.000000
v -0.657301 0.332490 0.617159 0.000000 1.000000 0.000000 1.000000
v -0.759538 0.201895 0.735111 0.000000 1.000000 0.000000 1.000000
v -0.761043 -0.001372 0.714831 0.000000 1.000000 0.000000 1.000000
v -0.759536 0.201910 -0.710402 0.000000 1.000000 0.000000 1.000000
v -0.761043 -0.001372 -0.711876 0.000000 1.000000 0.000000 1.000000
v -0.714829 -0.001372 -0.758089 0.000000 1.000000 0.000000 1.000000
v -0.657301 0.332490 -0.609301 0.000000 1.000000 0.000000 1.000000
v -0.713310 0.201932 -0.756607 0.000000 1.000000 0.000000 1.000000
v 0.711876 -0.001372 -0.758089 0.000000 1.000000 0.000000 1.000000
v -0.593551 0.515884 -0.547070 0.000000 1.000000 0.000000 1.000000
v -0.615978 4.164339 -0.569828 1.000000 1.000000 1.000000 1.000000
v -0.545875 0.512306 -0.593508 0.000000 1.000000 0.000000 1.000000
v -0.571378 4.162175 -0.615891 1.000000 1.000000 1.000000 1.000000
v -0.609303 0.332490 -0.657300 0.000000 1.000000 0.000000 1.000000
v 0.711640 0.206003 -0.756605 0.000000 1.000000 0.000000 1.000000
v 0.758089 -0.001372 -0.711876 0.000000 1.000000 0.000000 1.000000
v 0.567463 4.143328 -0.615622 1.000000 1.000000 1.000000 1.000000
v 0.615629 4.167458 -0.569907 0.835294 0.835294 1.000000 1.000000
v 0.545920 0.487818 -0.593637 0.000000 1.000000 0.000000 1.000000
v 0.594072 0.513436 -0.547235 0.000000 1.000000 0.000000 1.000000
v 0.613668 0.331554 -0.657300 0.000000 1.000000 0.000000 1.000000
v 0.592972 0.497825 0.546449 0.000000 1.000000 0.000000 1.000000
v 0.615595 4.172557 0.553755 0.062745 0.062745 1.000000 1.000000
v 0.569271 4.173658 0.599357 0.349020 0.349020 1.000000 1.000000
v 0.549134 0.477932 0.593793 0.000000 1.000000 0.000000 1.000000
v 0.661667 0.331554 -0.609301 0.000000 1.000000 0.000000 1.000000
v 0.661667 0.331554 0.617159 0.000000 1.000000 0.000000 1.000000
v 0.613668 0.331554 0.665158 0.000000 1.000000 0.000000 1.000000
v 0.757854 0.206003 -0.710392 0.000000 1.000000 0.000000 1.000000
v 0.758089 -0.001372 0.714831 0.000000 1.000000 0.000000 1.000000
v 0.757856 0.205988 0.735097 0.000000 1.000000 0.000000 1.000000
v 0.711650 0.205966 0.781322 0.000000 1.000000 0.000000 1.000000
v 0.711876 -0.001372 0.761045 0.000000 1.000000 0.000000 1.000000
vt 0.137817 0.114746
vt 0.134766 0.026855
vt 0.137939 0.032715
vt 0.133545 0.120117
vt 0.047424 0.027344
vt 0.047943 0.120605
vt 0.043121 0.115234
vt 0.043060 0.032715
vt 0.657715 0.918274
vt 0.662598 0.898315
vt 0.663574 0.916443
vt 0.578613 0.875610
vt 0.569824 0.890564
vt 0.660156 0.891541
vt 0.569336 0.888855
vt 0.568359 0.874146
vt 0.480225 0.867188
vt 0.475830 0.881348
vt 0.568848 0.862305
vt 0.587402 0.859985
vt 0.596680 0.825195
vt 0.587402 0.827148
vt 0.482910 0.851929
vt 0.699219 0.859497
vt 0.698242 0.870728
vt 0.731445 0.847168
vt 0.725098 0.842041
vt 0.749512 0.804077
vt 0.599609 0.803467
vt 0.615723 0.765137
vt 0.616699 0.735840
vt 0.786621 0.774780
vt 0.603516 0.763794
vt 0.783691 0.757568
vt 0.791504 0.758301
vt 0.785645 0.741699
vt 0.612305 0.733887
vt 0.619141 0.724854
vt 0.614258 0.722900
vt 0.619629 0.715332
vt 0.621582 0.712646
vt 0.784668 0.731201
vt 0.765625 0.702393
vt 0.774414 0.701416
vt 0.623535 0.701904
vt 0.628906 0.684814
vt 0.620117 0.708984
vt 0.619629 0.697754
vt 0.617188 0.683838
vt 0.617188 0.713379
vt 0.479736 0.686035
vt 0.482666 0.673828
vt 0.477051 0.689697
vt 0.474854 0.683594
vt 0.472168 0.673828
vt 0.338135 0.679688
vt 0.335449 0.691406
vt 0.326904 0.679932
vt 0.479980 0.700195
vt 0.329102 0.693848
vt 0.186646 0.695557
vt 0.173462 0.728271
vt 0.329102 0.697266
vt 0.336914 0.696533
vt 0.474609 0.697754
vt 0.334717 0.706543
vt 0.331299 0.717285
vt 0.171265 0.739502
vt 0.167847 0.751953
vt 0.336182 0.712891
vt 0.476807 0.705078
vt 0.337891 0.721191
vt 0.479736 0.714111
vt 0.474365 0.712158
vt 0.478760 0.726318
vt 0.474121 0.723877
vt 0.338867 0.733154
vt 0.481201 0.753784
vt 0.333984 0.732666
vt 0.167847 0.764526
vt 0.204102 0.792847
vt 0.346191 0.760132
vt 0.334229 0.761963
vt 0.224976 0.836548
vt 0.469727 0.754395
vt 0.348633 0.800781
vt 0.256348 0.857666
vt 0.353271 0.800781
vt 0.354248 0.823486
vt 0.362793 0.862305
vt 0.291748 0.884888
vt 0.293945 0.894592
vt 0.360352 0.823120
vt 0.473389 0.794189
vt 0.469482 0.816406
vt 0.367920 0.872314
vt 0.294678 0.911316
vt 0.375488 0.887207
vt 0.380371 0.860840
vt 0.378906 0.870728
vt 0.376221 0.889343
vt 0.461426 0.853271
vt 0.468506 0.864502
vt 0.474121 0.882568
vt 0.476807 0.817871
vt 0.477539 0.794922
vt 0.595703 0.802002
vt 0.611328 0.101562
vt 0.763184 0.088379
vt 0.747559 0.104980
vt 0.611328 0.086426
vt 0.481934 0.104980
vt 0.611816 0.081055
vt 0.763184 0.084961
vt 0.765625 0.063965
vt 0.481934 0.090332
vt 0.353760 0.107910
vt 0.609375 0.081543
vt 0.610840 0.064453
vt 0.764160 0.059570
vt 0.607910 0.063477
vt 0.609375 0.058594
vt 0.749023 0.042480
vt 0.610840 0.043457
vt 0.483643 0.065430
vt 0.482910 0.060547
vt 0.483154 0.045410
vt 0.483398 0.085449
vt 0.480469 0.085938
vt 0.481201 0.065918
vt 0.353760 0.062988
vt 0.353760 0.048340
vt 0.215942 0.045898
vt 0.200439 0.062012
vt 0.354492 0.068359
vt 0.352783 0.068848
vt 0.195923 0.066406
vt 0.356689 0.086914
vt 0.200195 0.087891
vt 0.194580 0.089844
vt 0.199341 0.094238
vt 0.353516 0.086426
vt 0.355469 0.092773
vt 0.215210 0.111328
vt 0.180664 0.220703
vt 0.328125 0.680420
vt 0.185791 0.695312
vt 0.320557 0.212402
vt 0.334473 0.680176
vt 0.317627 0.187500
vt 0.166260 0.203125
vt 0.151245 0.183105
vt 0.331299 0.210449
vt 0.319336 0.164062
vt 0.147705 0.156738
vt 0.316406 0.138672
vt 0.327881 0.187500
vt 0.322021 0.165527
vt 0.323975 0.139160
vt 0.479004 0.165039
vt 0.477783 0.138672
vt 0.483643 0.138672
vt 0.475342 0.186035
vt 0.482178 0.165039
vt 0.638184 0.141602
vt 0.474365 0.210938
vt 0.474365 0.674805
vt 0.486816 0.209961
vt 0.480957 0.674805
vt 0.485596 0.186035
vt 0.638184 0.167969
vt 0.645020 0.141602
vt 0.621094 0.680176
vt 0.627441 0.685059
vt 0.629395 0.210938
vt 0.640137 0.214355
vt 0.633301 0.188477
vt 0.780273 0.225586
vt 0.766602 0.701660
vt 0.774902 0.701904
vt 0.789551 0.223633
vt 0.643555 0.188477
vt 0.794922 0.205566
vt 0.802246 0.210449
vt 0.641602 0.167969
vt 0.813477 0.161133
vt 0.812012 0.187500
vt 0.819336 0.190430
vt 0.821777 0.162109
vt1 0.988770 0.186523
vt1 0.984863 0.075195
vt1 0.988770 0.083008
vt1 0.983398 0.193848
vt1 0.874512 0.076172
vt1 0.875000 0.194336
vt1 0.869141 0.187012
vt1 0.868652 0.083008
vt1 0.654297 0.998328
vt1 0.660645 0.972946
vt1 0.661621 0.996033
vt1 0.553711 0.944000
vt1 0.542480 0.963074
vt1 0.657227 0.964294
vt1 0.541504 0.960876
vt1 0.540039 0.942017
vt1 0.427979 0.933289
vt1 0.422363 0.951263
vt1 0.541016 0.927063
vt1 0.564941 0.924072
vt1 0.576172 0.879761
vt1 0.564941 0.882080
vt1 0.431396 0.913696
vt1 0.707031 0.923462
vt1 0.705566 0.937653
vt1 0.748047 0.907715
vt1 0.740234 0.901123
vt1 0.770996 0.852783
vt1 0.580078 0.852051
vt1 0.600586 0.803101
vt1 0.602051 0.765625
vt1 0.818848 0.815430
vt1 0.585449 0.801392
vt1 0.814941 0.793457
vt1 0.824707 0.794434
vt1 0.817871 0.773071
vt1 0.596191 0.763062
vt1 0.605469 0.751587
vt1 0.599121 0.749268
vt1 0.605957 0.739746
vt1 0.608398 0.736328
vt1 0.815918 0.759644
vt1 0.791992 0.723145
vt1 0.802734 0.721680
vt1 0.610352 0.722412
vt1 0.617676 0.700684
vt1 0.606445 0.731445
vt1 0.605469 0.717041
vt1 0.602539 0.699463
vt1 0.602539 0.737305
vt1 0.427246 0.702393
vt1 0.430908 0.686768
vt1 0.423828 0.707031
vt1 0.421143 0.699219
vt1 0.417725 0.686523
vt1 0.246704 0.694092
vt1 0.243408 0.709229
vt1 0.232300 0.694336
vt1 0.427490 0.720215
vt1 0.235352 0.712158
vt1 0.053650 0.714600
vt1 0.036774 0.756104
vt1 0.235229 0.716309
vt1 0.245117 0.715576
vt1 0.420654 0.717285
vt1 0.242432 0.728271
vt1 0.237915 0.741943
vt1 0.034027 0.770386
vt1 0.029602 0.786377
vt1 0.244385 0.736572
vt1 0.423584 0.726562
vt1 0.246582 0.747070
vt1 0.427246 0.738037
vt1 0.420654 0.735596
vt1 0.425781 0.753662
vt1 0.420166 0.750488
vt1 0.247803 0.762329
vt1 0.429199 0.788696
vt1 0.241577 0.761719
vt1 0.029694 0.802246
vt1 0.075867 0.838379
vt1 0.257080 0.796753
vt1 0.241943 0.799072
vt1 0.102478 0.894104
vt1 0.414551 0.789429
vt1 0.260254 0.848511
vt1 0.142700 0.921143
vt1 0.266113 0.848511
vt1 0.267090 0.877441
vt1 0.278320 0.927002
vt1 0.187622 0.955811
vt1 0.190308 0.968201
vt1 0.275146 0.877014
vt1 0.419189 0.840210
vt1 0.414307 0.868408
vt1 0.284668 0.939758
vt1 0.191284 0.989487
vt1 0.294434 0.958801
vt1 0.300781 0.925110
vt1 0.298828 0.937714
vt1 0.295410 0.961487
vt1 0.404053 0.915527
vt1 0.412842 0.929749
vt1 0.420166 0.952820
vt1 0.423584 0.870361
vt1 0.424316 0.841064
vt1 0.574707 0.850098
vt1 0.842285 0.783813
vt1 0.859375 0.994083
vt1 0.837402 0.972580
vt1 0.862305 0.783813
vt1 0.837402 0.604736
vt1 0.869629 0.784912
vt1 0.864258 0.994385
vt1 0.892578 0.997452
vt1 0.857422 0.604736
vt1 0.833496 0.427246
vt1 0.869141 0.781372
vt1 0.892090 0.783569
vt1 0.898438 0.996033
vt1 0.893066 0.779419
vt1 0.899902 0.781372
vt1 0.921387 0.974564
vt1 0.919922 0.783569
vt1 0.890625 0.606934
vt1 0.896973 0.605957
vt1 0.917480 0.606201
vt1 0.863770 0.606689
vt1 0.862793 0.602539
vt1 0.890137 0.603271
vt1 0.893555 0.426758
vt1 0.913574 0.426758
vt1 0.916992 0.235840
vt1 0.895020 0.214355
vt1 0.886719 0.428223
vt1 0.885742 0.425293
vt1 0.889160 0.208008
vt1 0.861816 0.431152
vt1 0.860352 0.214355
vt1 0.857422 0.206055
vt1 0.851562 0.212891
vt1 0.862305 0.426758
vt1 0.853516 0.429199
vt1 0.829102 0.234863
vt1 0.045990 0.108887
vt1 0.234009 0.695068
vt1 0.052460 0.714111
vt1 0.224487 0.098145
vt1 0.242188 0.694824
vt1 0.220825 0.066406
vt1 0.027634 0.086426
vt1 0.008415 0.061035
vt1 0.238159 0.095703
vt1 0.222656 0.037109
vt1 0.003967 0.027344
vt1 0.219238 0.004395
vt1 0.233643 0.066406
vt1 0.226196 0.038574
vt1 0.228638 0.004883
vt1 0.426270 0.037598
vt1 0.424805 0.004395
vt1 0.432373 0.004395
vt1 0.421631 0.064453
vt1 0.430420 0.037598
vt1 0.629395 0.008301
vt1 0.420410 0.096191
vt1 0.420410 0.687988
vt1 0.436279 0.095703
vt1 0.428955 0.687988
vt1 0.434814 0.064453
vt1 0.629395 0.041992
vt1 0.638184 0.008301
vt1 0.607422 0.694580
vt1 0.615234 0.701172
vt1 0.618652 0.096191
vt1 0.631836 0.100586
vt1 0.623535 0.067871
vt1 0.810547 0.115234
vt1 0.792969 0.722168
vt1 0.803711 0.722656
vt1 0.822754 0.112305
vt1 0.636230 0.067871
vt1 0.829102 0.089844
vt1 0.838379 0.096191
vt1 0.633301 0.041992
vt1 0.852539 0.032715
vt1 0.851074 0.066406
vt1 0.860352 0.070312
vt1 0.863770 0.034180
vn -0.039370 0.708661 0.700787
vn 0.062992 1.000000 0.023622
vn 0.047244 0.708661 0.700787
vn -0.031496 1.000000 0.007874
vn 0.039370 1.000000 -0.007874
vn -0.047244 1.000000 -0.015748
vn -0.047244 0.716535 -0.700787
vn 0.055118 0.716535 -0.700787
vn 0.992126 0.078740 0.078740
vn 0.653543 -0.732283 0.196850
vn 0.708661 0.007874 0.708661
vn 0.795276 -0.606299 -0.062992
vn 0.992126 0.078740 -0.094488
vn 0.874016 0.464567 0.125984
vn 0.078740 -0.000000 -1.000000
vn 0.047244 -0.637795 -0.771653
vn -0.062992 -0.645669 -0.755905
vn -0.078740 -0.000000 -1.000000
vn 0.070866 0.370079 -0.929134
vn 0.842520 0.543307 -0.047244
vn 0.661417 0.748031 -0.031496
vn 0.039370 0.787401 -0.614173
vn -0.055118 0.472441 -0.881890
vn 0.661417 0.748031 0.031496
vn 0.377953 0.834646 0.409449
vn 0.637795 0.425197 0.637795
vn 0.976378 0.228346 0.039370
vn 0.582677 0.811023 0.070866
vn 0.976378 0.228346 -0.047244
vn 0.590551 0.803149 -0.023622
vn 0.669291 0.748031 -0.015748
vn 0.606299 0.795275 0.047244
vn 0.023622 0.795275 -0.606299
vn 0.913386 -0.401575 0.031496
vn 0.527559 -0.669291 0.527559
vn 0.433071 -0.897638 0.039370
vn 0.015748 0.732283 -0.677165
vn 0.913386 -0.409449 -0.031496
vn 0.031496 -0.322835 -0.944882
vn 0.488189 -0.874016 -0.015748
vn 0.976378 -0.228346 -0.023622
vn 0.708661 -0.700787 0.078740
vn 0.685039 -0.724409 0.023622
vn 0.433071 -0.803149 0.409449
vn 0.677165 -0.740157 -0.023622
vn 0.677165 -0.732283 -0.015748
vn 0.023622 -0.456693 -0.889764
vn 0.039370 -0.677165 -0.732283
vn 0.023622 -0.771653 -0.637795
vn 0.007874 -0.874016 -0.488189
vn -0.031496 -0.377953 -0.929134
vn -0.015748 -0.811024 -0.590551
vn -0.220472 -0.937008 -0.275590
vn -0.905512 -0.425197 -0.039370
vn -0.629921 -0.779527 -0.015748
vn -0.637795 -0.771653 0.023622
vn -0.889764 -0.448819 0.039370
vn -0.007874 -0.811023 0.582677
vn -0.031496 -0.464567 -0.889764
vn -0.031496 -0.527559 0.850394
vn 0.007874 -0.787401 0.622047
vn 0.000000 -0.614173 0.787401
vn -0.007874 -0.889764 0.464567
vn -0.480315 -0.874016 0.015748
vn -0.889764 -0.448819 -0.031496
vn -0.881890 -0.480315 0.031496
vn -0.023622 -0.598425 0.795276
vn 0.000000 -0.803149 0.590551
vn 0.000000 -0.330709 0.944882
vn -0.472441 -0.881890 0.007874
vn -0.259843 -0.937008 -0.244094
vn -0.952756 -0.307087 0.031496
vn -0.023622 -0.346457 -0.937008
vn -0.952756 -0.314961 -0.031496
vn -0.023622 0.732283 -0.677165
vn -0.692913 0.716535 -0.015748
vn -0.692913 0.724409 0.023622
vn -0.023622 0.795275 -0.606299
vn -0.023622 0.732283 0.677165
vn 0.000000 0.692913 0.716535
vn 0.000000 0.795276 0.598425
vn -0.606299 0.795275 0.023622
vn -0.023622 0.803150 0.598425
vn 0.000000 0.188976 0.984252
vn -0.614173 0.787401 -0.023622
vn -0.039370 0.212599 0.976378
vn 0.007874 0.771653 0.637795
vn -0.976378 0.204724 0.039370
vn -0.031496 0.763779 0.645669
vn -0.055118 0.464567 0.881890
vn 0.000000 0.346457 0.937008
vn 0.000000 -0.653543 0.755905
vn -0.645669 0.763779 0.039370
vn -0.976378 0.204724 -0.047244
vn -0.661417 0.755905 -0.031496
vn -0.055118 -0.637795 0.771653
vn 0.000000 0.000000 1.000000
vn -0.062992 0.000000 1.000000
vn -0.913386 0.393701 0.062992
vn -0.748031 -0.653543 0.055118
vn -1.000000 0.031496 0.078740
vn -0.858268 0.511811 -0.047244
vn -0.716535 -0.692913 -0.055118
vn -0.992126 0.039370 -0.086614
vn -0.039370 0.779527 -0.629921
vn -0.039370 0.212598 -0.976378
vn 0.039370 0.204724 -0.976378
vn 0.000000 1.000000 -0.000000
vn 0.244094 0.968504 -0.000000
vn 0.000000 1.000000 -0.000000
vn 0.110236 0.984252 -0.118110
vn 0.000000 1.000000 -0.000000
vn 0.992126 0.110236 -0.015748
vn 0.992126 0.110236 -0.000000
vn 0.984252 -0.188976 0.000000
vn -0.125984 0.984252 -0.125984
vn 0.000000 1.000000 -0.000000
vn 0.023622 0.259842 -0.968504
vn 0.984252 -0.181102 -0.015748
vn 0.322835 -0.944882 0.000000
vn 0.023622 -0.118110 -0.992126
vn 0.149606 -0.968504 -0.188976
vn 0.000000 -1.000000 0.000000
vn 0.000000 -1.000000 0.000000
vn -0.023622 -0.118110 -0.992126
vn -0.086614 -0.984252 -0.173228
vn 0.000000 -1.000000 0.000000
vn -0.023622 0.259842 -0.968504
vn -0.992126 0.118110 -0.015748
vn -0.976378 -0.212598 -0.015748
vn -0.078740 -0.984252 0.165354
vn 0.000000 -1.000000 0.000000
vn 0.000000 -1.000000 0.000000
vn 0.007874 -0.944882 0.322835
vn -0.976378 -0.204724 0.015748
vn -0.023622 -0.188976 0.984252
vn 0.094488 -0.346457 0.929134
vn -0.992126 0.118110 0.015748
vn 0.023622 0.275591 0.960630
vn 0.850394 0.039370 0.519685
vn 0.000000 0.976378 0.212598
vn -0.031496 0.275591 0.960630
vn -0.125984 0.984252 0.118110
vn 0.000000 1.000000 -0.000000
vn 0.000000 0.015748 1.000000
vn -0.039370 -0.007874 1.000000
vn 0.000000 -0.015748 1.000000
vn -0.039370 0.031496 1.000000
vn -1.000000 -0.015748 0.039370
vn -0.023622 0.653543 0.755905
vn 0.000000 0.637795 0.763779
vn 0.000000 0.181102 0.984252
vn -1.000000 0.023622 0.039370
vn -0.031496 0.188976 0.984252
vn 0.000000 -0.094488 0.992126
vn -0.031496 -0.094488 0.992126
vn -0.803150 0.598425 0.023622
vn -0.968504 0.236220 0.039370
vn -1.000000 0.007874 0.031496
vn -0.968504 0.228346 -0.039370
vn -1.000000 0.007874 -0.031496
vn -0.031496 0.007874 -1.000000
vn -0.803150 0.598425 -0.023622
vn -0.039370 0.220472 -0.976378
vn 0.031496 0.007874 -1.000000
vn -1.000000 0.015748 -0.039370
vn -1.000000 -0.023622 -0.047244
vn -0.039370 0.015748 -1.000000
vn -0.039370 -0.023622 -1.000000
vn -0.023622 0.590551 -0.803150
vn 0.039370 0.228346 -0.976378
vn 1.000000 -0.000000 -0.031496
vn 0.039370 -0.007874 -1.000000
vn 1.000000 -0.015748 -0.039370
vn 0.039370 0.023622 -1.000000
vn 1.000000 0.031496 -0.039370
vn 0.023622 0.590551 -0.803150
vn 1.000000 0.007874 0.039370
vn 1.000000 -0.015748 0.039370
vn 0.716535 -0.015748 0.700787
vn 0.724409 0.039370 0.685039
vn 0.803150 0.590551 -0.023622
vn 0.803150 0.598425 0.023622
vn 0.488189 0.724409 0.488189
vn 0.976378 0.212598 -0.039370
vn 1.000000 0.000000 0.031496
vn 0.976378 0.212598 0.039370
vn 0.653543 0.385827 0.653543
vn 0.708661 -0.070866 0.708661
tan 0.987848 0.116498 -0.062310 1.000000
tan 1.000000 -0.064480 0.062992 1.000000
tan 0.971232 -0.204538 0.141360 1.000000
tan 1.000000 0.032054 -0.070866 1.000000
tan 1.000000 -0.039804 -0.055118 1.000000
tan 1.000000 0.048360 0.070866 1.000000
tan 0.976936 0.182838 0.121086 1.000000
tan 0.988096 -0.139252 -0.064666 1.000000
tan 0.094860 -0.968690 -0.226548 1.000000
tan -0.723417 -0.668547 -0.085250 1.000000
tan 0.156116 -0.982082 -0.145204 1.000000
tan -0.608283 -0.795275 -0.025048 1.000000
tan 0.053196 -0.960878 -0.242172 1.000000
tan 0.480067 -0.861244 -0.154628 1.000000
tan -0.118110 -0.992126 -0.009300 1.000000
tan -0.095108 -0.766321 0.627565 1.000000
tan 0.017856 -0.755905 0.644181 1.000000
tan -0.078740 -1.000000 0.006200 1.000000
tan -0.095108 -0.921818 -0.374419 1.000000
tan 0.515035 -0.817472 -0.216132 1.000000
tan 0.707731 -0.638105 -0.292640 1.000000
tan 0.068944 -0.616653 -0.786161 1.000000
tan -0.171368 -0.870172 -0.455453 1.000000
tan 0.739475 -0.647281 -0.156054 1.000000
tan 0.860314 -0.339513 -0.102052 1.000000
tan 0.694711 -0.662905 -0.252774 1.000000
tan 0.228780 -0.922562 -0.322896 1.000000
tan 0.811582 -0.584351 0.014570 1.000000
tan 0.199764 -0.922934 -0.332383 1.000000
tan 0.769484 -0.573253 -0.253518 1.000000
tan 0.703825 -0.636741 -0.332631 1.000000
tan 0.794904 -0.609275 0.054870 1.000000
tan 0.094240 -0.603757 -0.788269 1.000000
tan -0.377085 -0.878418 -0.264368 1.000000
tan -0.450183 -0.743567 -0.493149 1.000000
tan -0.869056 -0.429041 -0.222518 1.000000
tan 0.134044 -0.673569 -0.725277 1.000000
tan -0.410193 -0.913386 -0.021576 1.000000
tan -0.354765 -0.878418 0.288301 1.000000
tan -0.873892 -0.489429 0.072664 1.000000
tan -0.228656 -0.961002 -0.161448 1.000000
tan -0.700167 -0.709901 -0.016616 1.000000
tan -0.723665 -0.686341 -0.061504 1.000000
tan -0.629301 -0.595511 -0.502511 1.000000
tan -0.739971 -0.677165 0.005332 1.000000
tan -0.732035 -0.677661 0.033728 1.000000
tan -0.231384 -0.862112 0.436357 1.000000
tan -0.155372 -0.730857 0.667493 1.000000
tan -0.194990 -0.627007 0.751379 1.000000
tan -0.291463 -0.467543 0.832352 1.000000
tan 0.029264 -0.929134 0.376961 1.000000
tan 0.090582 -0.587389 0.804266 1.000000
tan 0.531217 -0.352843 0.774691 1.000000
tan 0.411371 -0.891562 0.167338 1.000000
tan 0.773018 -0.626325 0.082398 1.000000
tan 0.764834 -0.634819 -0.086924 1.000000
tan 0.434001 -0.876062 -0.178684 1.000000
tan 0.079422 -0.578771 -0.804513 1.000000
tan 0.056048 -0.889764 0.462583 1.000000
tan 0.024242 -0.850642 -0.526815 1.000000
tan -0.023498 -0.622233 -0.787339 1.000000
tan -0.007564 -0.787401 -0.614173 1.000000
tan 0.151094 -0.458491 -0.875566 1.000000
tan 0.832104 -0.462211 -0.273544 1.000000
tan 0.440821 -0.883254 0.133176 1.000000
tan 0.467791 -0.868250 -0.142662 1.000000
tan 0.037572 -0.795276 -0.597309 1.000000
tan -0.048918 -0.590551 -0.803149 1.000000
tan -0.099324 -0.937442 -0.328104 1.000000
tan 0.846860 -0.456073 -0.268584 1.000000
tan 0.590241 -0.353959 0.730423 1.000000
tan 0.293137 -0.930498 -0.204972 1.000000
tan -0.014756 -0.937008 0.346829 1.000000
tan 0.280985 -0.885734 0.357555 1.000000
tan -0.318247 -0.645979 -0.687457 1.000000
tan -0.709777 -0.688945 -0.116808 1.000000
tan -0.703949 -0.680823 0.229401 1.000000
tan -0.141360 -0.604873 -0.787897 1.000000
tan -0.229028 -0.665633 0.711823 1.000000
tan -0.022196 -0.716535 0.692913 1.000000
tan -0.036022 -0.598425 0.795276 1.000000
tan -0.788270 -0.603571 0.087978 1.000000
tan -0.252589 -0.585343 0.775621 1.000000
tan -0.186000 -0.968752 0.186000 1.000000
tan -0.773700 -0.607849 -0.145452 1.000000
tan -0.201562 -0.953624 0.199517 1.000000
tan -0.080848 -0.637175 0.771901 1.000000
tan -0.201934 -0.976378 0.069192 1.000000
tan -0.183148 -0.640957 0.749271 1.000000
tan -0.243412 -0.848038 0.431521 1.000000
tan -0.199206 -0.914874 0.338273 1.000000
tan -0.069006 -0.755905 -0.653543 1.000000
tan -0.762850 -0.647529 0.051336 1.000000
tan -0.201376 -0.976378 -0.069192 1.000000
tan -0.734825 -0.651249 -0.198648 1.000000
tan 0.012152 -0.771653 -0.636927 1.000000
tan -0.291339 -0.952756 0.000000 1.000000
tan -0.125984 -0.992126 -0.007936 1.000000
tan -0.397669 -0.913386 -0.057536 1.000000
tan 0.649203 -0.749333 -0.074338 1.000000
tan -0.034596 -1.000000 -0.039370 1.000000
tan -0.509579 -0.858268 -0.040548 1.000000
tan 0.690743 -0.717403 0.039122 1.000000
tan -0.039370 -0.992126 0.000000 1.000000
tan -0.104594 -0.628991 -0.771839 1.000000
tan -0.186186 -0.961312 -0.201810 1.000000
tan -0.038440 -0.976378 -0.206274 1.000000
tan 0.708661 -0.000000 -0.700787 1.000000
tan 0.968504 -0.244094 -0.015252 1.000000
tan 1.000000 -0.000000 -0.023622 1.000000
tan 0.767252 -0.159402 -0.612251 1.000000
tan -0.685039 -0.000000 -0.724409 1.000000
tan 0.110112 -0.992126 -0.007812 1.000000
tan 0.110236 -0.992126 -0.015624 1.000000
tan -0.188976 -0.984252 -0.007750 1.000000
tan -0.736251 -0.177568 -0.651001 1.000000
tan -0.716535 0.000000 0.692913 1.000000
tan 0.169818 -0.953438 -0.251658 1.000000
tan -0.181102 -0.984252 0.000000 1.000000
tan -0.944882 -0.322835 0.000000 1.000000
tan -0.164052 -0.976502 0.112344 1.000000
tan -0.678715 -0.238762 0.686341 1.000000
tan -1.000000 -0.000000 -0.007874 1.000000
tan -0.700787 0.000000 0.708661 1.000000
tan 0.218736 -0.968690 0.110112 1.000000
tan 0.651001 -0.186868 0.736251 1.000000
tan 0.724409 0.000000 0.692913 1.000000
tan -0.116436 -0.961064 -0.255006 1.000000
tan -0.116994 -0.992126 -0.070308 1.000000
tan 0.211978 -0.961002 -0.169136 1.000000
tan 0.674251 -0.175026 -0.720751 1.000000
tan 0.708661 -0.000000 -0.700787 1.000000
tan 0.007874 -0.000000 -1.000000 1.000000
tan -0.285263 -0.309939 -0.900180 1.000000
tan 0.205344 -0.976378 0.038440 1.000000
tan 0.178250 -0.968752 -0.181722 1.000000
tan -0.063984 -0.930622 -0.340505 1.000000
tan -0.117738 -0.992126 0.023436 1.000000
tan -0.015128 -0.960630 0.275963 1.000000
tan -0.110422 -0.907310 0.249427 1.000000
tan 0.307521 -0.200880 0.922562 1.000000
tan -0.176142 -0.945750 0.265547 1.000000
tan -0.767252 -0.172608 0.620001 1.000000
tan -0.007874 0.000000 1.000000 1.000000
tan -0.078740 -1.000000 0.015748 1.000000
tan -0.086614 -0.992126 -0.011222 1.000000
tan -0.086614 -0.992126 -0.015624 1.000000
tan -0.078740 -1.000000 0.028396 1.000000
tan 0.013268 -1.000000 -0.062992 1.000000
tan -0.168082 -0.746419 0.640089 1.000000
tan -0.056172 -0.763779 0.637795 1.000000
tan -0.085250 -0.976502 0.179676 1.000000
tan -0.024552 -1.000000 -0.023622 1.000000
tan -0.023250 -0.984252 0.188232 1.000000
tan -0.101556 -0.984314 -0.093744 1.000000
tan 0.046872 -0.992126 -0.093000 1.000000
tan -0.590923 -0.798313 0.132556 1.000000
tan -0.222270 -0.945936 0.207763 1.000000
tan -0.006634 -1.000000 0.039370 1.000000
tan -0.222208 -0.960878 -0.106764 1.000000
tan -0.007378 -1.000000 -0.015748 1.000000
tan 0.000000 -1.000000 -0.007874 1.000000
tan -0.590737 -0.798313 -0.138880 1.000000
tan -0.115320 -0.968690 -0.214086 1.000000
tan -0.007874 -1.000000 -0.008122 1.000000
tan -0.015748 -1.000000 0.000000 1.000000
tan 0.023622 -1.000000 0.000000 1.000000
tan -0.023622 -1.000000 -0.014818 1.000000
tan -0.039370 -1.000000 0.025172 1.000000
tan -0.144708 -0.798314 -0.582739 1.000000
tan 0.099944 -0.968690 -0.222518 1.000000
tan -0.001736 -1.000000 -0.055118 1.000000
tan -0.110236 -0.992126 0.003472 1.000000
tan -0.020274 -0.992126 -0.118110 1.000000
tan -0.039370 -1.000000 -0.025172 1.000000
tan 0.027218 -0.992126 -0.102362 1.000000
tan 0.127410 -0.798128 -0.583111 1.000000
tan 0.010974 -1.000000 -0.078740 1.000000
tan -0.013268 -1.000000 -0.062992 1.000000
tan -0.006014 -1.004774 -0.016430 1.000000
tan 0.543679 -0.640771 -0.538099 1.000000
tan 0.577531 -0.792175 -0.168330 1.000000
tan 0.600285 -0.802591 -0.077376 1.000000
tan 0.798066 -0.584289 0.068944 1.000000
tan 0.205034 -0.968690 -0.146072 1.000000
tan 0.005208 -0.984252 -0.165354 1.000000
tan 0.215760 -0.961002 -0.161448 1.000000
tan 0.559489 -0.823362 -0.073408 1.000000
tan 0.216504 -0.931862 -0.309690 1.000000
f 3/3/3 2/2/2 1/1/1
f 4/4/4 1/1/1 2/2/2
f 4/4/4 2/2/2 5/5/5
f 4/4/4 5/5/5 6/6/6
f 7/7/7 6/6/6 5/5/5
f 8/8/8 7/7/7 5/5/5
f 11/11/11 10/10/10 9/9/9
f 10/10/10 12/12/12 9/9/9
f 13/13/13 9/9/9 12/12/12
f 10/10/10 14/14/14 12/12/12
f 13/13/13 12/12/12 15/15/15
f 12/12/12 16/16/16 15/15/15
f 16/16/16 17/17/17 15/15/15
f 17/17/17 18/18/18 15/15/15
f 12/12/12 19/19/19 16/16/16
f 19/19/19 17/17/17 16/16/16
f 12/12/12 14/14/14 20/20/20
f 20/20/20 19/19/19 12/12/12
f 20/20/20 14/14/14 21/21/21
f 19/19/19 20/20/20 22/22/22
f 20/20/20 21/21/21 22/22/22
f 23/23/23 17/17/17 19/19/19
f 19/19/19 22/22/22 23/23/23
f 24/24/24 21/21/21 14/14/14
f 14/14/14 25/25/25 24/24/24
f 25/25/25 26/26/26 24/24/24
f 27/27/27 24/24/24 26/26/26
f 24/24/24 27/27/27 21/21/21
f 26/26/26 28/28/28 27/27/27
f 29/29/29 21/21/21 27/27/27
f 22/22/22 21/21/21 29/29/29
f 27/27/27 28/28/28 30/30/30
f 30/30/30 29/29/29 27/27/27
f 30/30/30 28/28/28 31/31/31
f 28/28/28 32/32/32 31/31/31
f 30/30/30 33/33/33 29/29/29
f 32/32/32 34/34/34 31/31/31
f 34/34/34 32/32/32 35/35/35
f 35/35/35 36/36/36 34/34/34
f 31/31/31 37/37/37 30/30/30
f 33/33/33 30/30/30 37/37/37
f 38/38/38 31/31/31 34/34/34
f 31/31/31 38/38/38 37/37/37
f 34/34/34 36/36/36 38/38/38
f 39/39/39 37/37/37 38/38/38
f 40/40/40 38/38/38 36/36/36
f 38/38/38 40/40/40 39/39/39
f 41/41/41 40/40/40 36/36/36
f 42/42/42 41/41/41 36/36/36
f 44/44/44 43/43/43 42/42/42
f 43/43/43 45/45/45 42/42/42
f 45/45/45 41/41/41 42/42/42
f 46/46/46 45/45/45 43/43/43
f 40/40/40 41/41/41 47/47/47
f 41/41/41 45/45/45 47/47/47
f 48/48/48 45/45/45 46/46/46
f 47/47/47 45/45/45 48/48/48
f 49/49/49 48/48/48 46/46/46
f 47/47/47 50/50/50 40/40/40
f 50/50/50 39/39/39 40/40/40
f 49/49/49 51/51/51 48/48/48
f 52/52/52 51/51/51 49/49/49
f 48/48/48 53/53/53 47/47/47
f 51/51/51 53/53/53 48/48/48
f 54/54/54 51/51/51 52/52/52
f 53/53/53 51/51/51 54/54/54
f 52/52/52 55/55/55 54/54/54
f 55/55/55 56/56/56 54/54/54
f 56/56/56 57/57/57 54/54/54
f 54/54/54 57/57/57 53/53/53
f 56/56/56 58/58/58 57/57/57
f 53/53/53 59/59/59 47/47/47
f 47/47/47 59/59/59 50/50/50
f 60/60/60 57/57/57 58/58/58
f 58/58/58 61/61/61 60/60/60
f 62/62/62 60/60/60 61/61/61
f 60/60/60 63/63/63 57/57/57
f 63/63/63 60/60/60 62/62/62
f 57/57/57 64/64/64 53/53/53
f 64/64/64 57/57/57 63/63/63
f 53/53/53 64/64/64 65/65/65
f 59/59/59 53/53/53 65/65/65
f 64/64/64 63/63/63 66/66/66
f 64/64/64 66/66/66 65/65/65
f 67/67/67 63/63/63 62/62/62
f 67/67/67 66/66/66 63/63/63
f 62/62/62 68/68/68 67/67/67
f 69/69/69 67/67/67 68/68/68
f 66/66/66 70/70/70 65/65/65
f 70/70/70 66/66/66 67/67/67
f 59/59/59 65/65/65 71/71/71
f 71/71/71 65/65/65 70/70/70
f 59/59/59 71/71/71 50/50/50
f 70/70/70 67/67/67 72/72/72
f 71/71/71 73/73/73 50/50/50
f 50/50/50 73/73/73 39/39/39
f 71/71/71 70/70/70 74/74/74
f 73/73/73 71/71/71 74/74/74
f 72/72/72 74/74/74 70/70/70
f 73/73/73 75/75/75 39/39/39
f 37/37/37 39/39/39 75/75/75
f 74/74/74 76/76/76 73/73/73
f 76/76/76 75/75/75 73/73/73
f 74/74/74 72/72/72 76/76/76
f 33/33/33 37/37/37 75/75/75
f 77/77/77 76/76/76 72/72/72
f 78/78/78 33/33/33 75/75/75
f 77/77/77 72/72/72 79/79/79
f 67/67/67 79/79/79 72/72/72
f 79/79/79 67/67/67 69/69/69
f 80/80/80 79/79/79 69/69/69
f 80/80/80 81/81/81 79/79/79
f 77/77/77 79/79/79 82/82/82
f 77/77/77 82/82/82 76/76/76
f 83/83/83 79/79/79 81/81/81
f 83/83/83 82/82/82 79/79/79
f 81/81/81 84/84/84 83/83/83
f 85/85/85 76/76/76 82/82/82
f 75/75/75 76/76/76 85/85/85
f 85/85/85 78/78/78 75/75/75
f 86/86/86 83/83/83 84/84/84
f 84/84/84 87/87/87 86/86/86
f 82/82/82 83/83/83 88/88/88
f 86/86/86 88/88/88 83/83/83
f 82/82/82 88/88/88 85/85/85
f 89/89/89 86/86/86 87/87/87
f 86/86/86 89/89/89 88/88/88
f 89/89/89 87/87/87 90/90/90
f 91/91/91 90/90/90 87/87/87
f 91/91/91 92/92/92 90/90/90
f 93/93/93 88/88/88 89/89/89
f 93/93/93 89/89/89 90/90/90
f 94/94/94 85/85/85 88/88/88
f 78/78/78 85/85/85 94/94/94
f 93/93/93 95/95/95 88/88/88
f 95/95/95 94/94/94 88/88/88
f 96/96/96 90/90/90 92/92/92
f 92/92/92 97/97/97 96/96/96
f 98/98/98 96/96/96 97/97/97
f 90/90/90 99/99/99 93/93/93
f 90/90/90 96/96/96 99/99/99
f 96/96/96 98/98/98 100/100/100
f 100/100/100 99/99/99 96/96/96
f 98/98/98 101/101/101 100/100/100
f 93/93/93 99/99/99 102/102/102
f 102/102/102 95/95/95 93/93/93
f 99/99/99 100/100/100 103/103/103
f 100/100/100 101/101/101 103/103/103
f 103/103/103 102/102/102 99/99/99
f 103/103/103 101/101/101 104/104/104
f 103/103/103 104/104/104 18/18/18
f 103/103/103 18/18/18 17/17/17
f 102/102/102 103/103/103 17/17/17
f 17/17/17 23/23/23 102/102/102
f 23/23/23 105/105/105 102/102/102
f 95/95/95 102/102/102 105/105/105
f 95/95/95 105/105/105 94/94/94
f 105/105/105 23/23/23 22/22/22
f 106/106/106 94/94/94 105/105/105
f 105/105/105 22/22/22 106/106/106
f 94/94/94 106/106/106 78/78/78
f 107/107/107 106/106/106 22/22/22
f 78/78/78 106/106/106 107/107/107
f 29/29/29 107/107/107 22/22/22
f 33/33/33 78/78/78 107/107/107
f 107/107/107 29/29/29 33/33/33
f 110/110/110 109/109/109 108/108/108
f 108/108/108 109/109/109 111/111/111
f 108/108/108 111/111/111 112/112/112
f 111/111/111 109/109/109 113/113/113
f 114/114/114 113/113/113 109/109/109
f 114/114/114 115/115/115 113/113/113
f 112/112/112 111/111/111 116/116/116
f 112/112/112 116/116/116 117/117/117
f 113/113/113 118/118/118 111/111/111
f 111/111/111 118/118/118 116/116/116
f 113/113/113 115/115/115 119/119/119
f 113/113/113 119/119/119 118/118/118
f 115/115/115 120/120/120 119/119/119
f 119/119/119 121/121/121 118/118/118
f 122/122/122 119/119/119 120/120/120
f 122/122/122 121/121/121 119/119/119
f 120/120/120 123/123/123 122/122/122
f 124/124/124 122/122/122 123/123/123
f 121/121/121 125/125/125 118/118/118
f 121/121/121 122/122/122 125/125/125
f 124/124/124 126/126/126 122/122/122
f 126/126/126 125/125/125 122/122/122
f 127/127/127 126/126/126 124/124/124
f 128/128/128 118/118/118 125/125/125
f 128/128/128 116/116/116 118/118/118
f 129/129/129 128/128/128 125/125/125
f 116/116/116 128/128/128 129/129/129
f 130/130/130 125/125/125 126/126/126
f 125/125/125 130/130/130 129/129/129
f 127/127/127 131/131/131 126/126/126
f 126/126/126 131/131/131 130/130/130
f 132/132/132 131/131/131 127/127/127
f 132/132/132 133/133/133 131/131/131
f 134/134/134 131/131/131 133/133/133
f 130/130/130 135/135/135 129/129/129
f 135/135/135 130/130/130 131/131/131
f 136/136/136 131/131/131 134/134/134
f 131/131/131 136/136/136 135/135/135
f 137/137/137 136/136/136 134/134/134
f 138/138/138 129/129/129 135/135/135
f 135/135/135 136/136/136 138/138/138
f 129/129/129 138/138/138 116/116/116
f 139/139/139 136/136/136 137/137/137
f 139/139/139 137/137/137 140/140/140
f 140/140/140 141/141/141 139/139/139
f 142/142/142 138/138/138 136/136/136
f 136/136/136 139/139/139 142/142/142
f 143/143/143 116/116/116 138/138/138
f 142/142/142 143/143/143 138/138/138
f 142/142/142 139/139/139 143/143/143
f 139/139/139 141/141/141 143/143/143
f 143/143/143 117/117/117 116/116/116
f 144/144/144 143/143/143 141/141/141
f 117/117/117 143/143/143 144/144/144
f 147/147/147 146/146/146 145/145/145
f 146/146/146 148/148/148 145/145/145
f 148/148/148 146/146/146 149/149/149
f 148/148/148 150/150/150 145/145/145
f 145/145/145 150/150/150 151/151/151
f 151/151/151 150/150/150 152/152/152
f 149/149/149 153/153/153 148/148/148
f 150/150/150 154/154/154 152/152/152
f 152/152/152 154/154/154 155/155/155
f 156/156/156 155/155/155 154/154/154
f 150/150/150 148/148/148 157/157/157
f 153/153/153 157/157/157 148/148/148
f 158/158/158 154/154/154 150/150/150
f 154/154/154 158/158/158 156/156/156
f 150/150/150 157/157/157 158/158/158
f 159/159/159 156/156/156 158/158/158
f 158/158/158 160/160/160 159/159/159
f 158/158/158 157/157/157 160/160/160
f 161/161/161 159/159/159 160/160/160
f 162/162/162 161/161/161 160/160/160
f 160/160/160 157/157/157 163/163/163
f 153/153/153 163/163/163 157/157/157
f 160/160/160 164/164/164 162/162/162
f 160/160/160 163/163/163 164/164/164
f 164/164/164 165/165/165 162/162/162
f 166/166/166 163/163/163 153/153/153
f 153/153/153 149/149/149 166/166/166
f 167/167/167 166/166/166 149/149/149
f 166/166/166 167/167/167 168/168/168
f 163/163/163 166/166/166 168/168/168
f 167/167/167 169/169/169 168/168/168
f 170/170/170 164/164/164 163/163/163
f 168/168/168 170/170/170 163/163/163
f 165/165/165 164/164/164 171/171/171
f 170/170/170 171/171/171 164/164/164
f 172/172/172 165/165/165 171/171/171
f 168/168/168 169/169/169 173/173/173
f 173/173/173 169/169/169 49/49/49
f 174/174/174 173/173/173 49/49/49
f 175/175/175 168/168/168 173/173/173
f 173/173/173 174/174/174 175/175/175
f 168/168/168 175/175/175 170/170/170
f 176/176/176 175/175/175 174/174/174
f 177/177/177 170/170/170 175/175/175
f 175/175/175 176/176/176 177/177/177
f 177/177/177 171/171/171 170/170/170
f 174/174/174 178/178/178 176/176/176
f 178/178/178 174/174/174 179/179/179
f 178/178/178 179/179/179 180/180/180
f 180/180/180 181/181/181 178/178/178
f 182/182/182 177/177/177 176/176/176
f 176/176/176 178/178/178 182/182/182
f 178/178/178 181/181/181 183/183/183
f 183/183/183 182/182/182 178/178/178
f 184/184/184 183/183/183 181/181/181
f 182/182/182 185/185/185 177/177/177
f 185/185/185 182/182/182 183/183/183
f 171/171/171 177/177/177 185/185/185
f 185/185/185 172/172/172 171/171/171
f 185/185/185 186/186/186 172/172/172
f 187/187/187 183/183/183 184/184/184
f 183/183/183 187/187/187 185/185/185
f 187/187/187 186/186/186 185/185/185
f 187/187/187 184/184/184 188/188/188
f 189/189/189 186/186/186 187/187/187
f 188/188/188 189/189/189 187/187/187
