mtllib SM_Paver_LOD1@000002909DC2EB00.mtl
g SM_Paver_LOD1@000002909DC2EB00
#Vertices 165
#Indices 900
#Section 0 Offset 0 NumIndices 900 MaterialIndex 0 MI_Paver
v 0.216822 0.107197 0.481567 1.000000 1.000000 1.000000 1.000000
v 0.059788 0.106416 0.479624 1.000000 1.000000 1.000000 1.000000
v 0.060362 0.120316 0.433946 1.000000 1.000000 1.000000 1.000000
v 0.341774 0.118807 0.438874 1.000000 1.000000 1.000000 1.000000
v 0.354692 0.092146 0.479037 1.000000 1.000000 1.000000 1.000000
v 0.061211 0.122628 0.391137 1.000000 1.000000 1.000000 1.000000
v 0.445861 0.063717 0.480329 1.000000 1.000000 1.000000 1.000000
v 0.330904 0.123252 0.362980 1.000000 1.000000 1.000000 1.000000
v 0.068617 0.123762 0.172026 1.000000 1.000000 1.000000 1.000000
v 0.437088 0.106294 0.451833 1.000000 1.000000 1.000000 1.000000
v -0.099015 0.123743 0.200775 1.000000 1.000000 1.000000 1.000000
v -0.270839 0.125572 0.214223 1.000000 1.000000 1.000000 1.000000
v 0.493048 0.044721 0.443210 1.000000 1.000000 1.000000 1.000000
v 0.452671 0.021912 0.485743 1.000000 1.000000 1.000000 1.000000
v 0.456489 -0.045856 0.492385 1.000000 1.000000 1.000000 1.000000
v 0.329858 0.122540 -0.325603 1.000000 1.000000 1.000000 1.000000
v 0.492765 -0.056282 0.441552 1.000000 1.000000 1.000000 1.000000
v 0.449997 -0.080082 0.491322 1.000000 1.000000 1.000000 1.000000
v 0.476054 0.093655 0.433613 1.000000 1.000000 1.000000 1.000000
v 0.484194 0.101076 0.385582 1.000000 1.000000 1.000000 1.000000
v 0.434703 0.113614 0.380423 1.000000 1.000000 1.000000 1.000000
v 0.437299 0.119113 0.263437 1.000000 1.000000 1.000000 1.000000
v 0.489154 0.113580 0.256475 1.000000 1.000000 1.000000 1.000000
v 0.411953 0.121042 -0.027337 1.000000 1.000000 1.000000 1.000000
v 0.474234 0.114397 0.100965 1.000000 1.000000 1.000000 1.000000
v 0.492628 0.070088 0.249888 1.000000 1.000000 1.000000 1.000000
v 0.493641 0.058666 0.376305 1.000000 1.000000 1.000000 1.000000
v 0.497573 0.017780 0.359614 1.000000 1.000000 1.000000 1.000000
v 0.491091 0.070137 0.094703 1.000000 1.000000 1.000000 1.000000
v 0.462593 0.116897 -0.162965 1.000000 1.000000 1.000000 1.000000
v 0.498738 -0.039218 0.361837 1.000000 1.000000 1.000000 1.000000
v 0.490101 0.011743 -0.343759 1.000000 1.000000 1.000000 1.000000
v 0.481861 0.065321 -0.318886 1.000000 1.000000 1.000000 1.000000
v 0.411113 0.117825 -0.347842 1.000000 1.000000 1.000000 1.000000
v 0.465836 0.102162 -0.353345 1.000000 1.000000 1.000000 1.000000
v 0.486040 0.035747 -0.431742 1.000000 1.000000 1.000000 1.000000
v 0.472558 0.077871 -0.433427 1.000000 1.000000 1.000000 1.000000
v 0.420375 0.112067 -0.423039 1.000000 1.000000 1.000000 1.000000
v 0.489174 -0.027394 -0.437927 1.000000 1.000000 1.000000 1.000000
v 0.470015 0.022958 -0.474634 1.000000 1.000000 1.000000 1.000000
v 0.428020 0.087755 -0.472990 1.000000 1.000000 1.000000 1.000000
v 0.493335 -0.038117 -0.320512 1.000000 1.000000 1.000000 1.000000
v 0.469020 -0.047708 -0.484813 1.000000 1.000000 1.000000 1.000000
v 0.485651 -0.074603 -0.431795 1.000000 1.000000 1.000000 1.000000
v 0.496695 -0.093327 -0.133496 1.000000 1.000000 1.000000 1.000000
v 0.497931 -0.081395 0.342815 1.000000 1.000000 1.000000 1.000000
v 0.463074 -0.116786 -0.173646 1.000000 1.000000 1.000000 1.000000
v 0.467950 -0.118287 0.187313 1.000000 1.000000 1.000000 1.000000
v 0.479552 -0.110793 0.366723 1.000000 1.000000 1.000000 1.000000
v 0.482249 -0.095492 0.439242 1.000000 1.000000 1.000000 1.000000
v 0.416153 -0.122776 0.147645 1.000000 1.000000 1.000000 1.000000
v 0.433469 -0.114491 0.426526 1.000000 1.000000 1.000000 1.000000
v 0.461976 -0.103302 -0.429813 1.000000 1.000000 1.000000 1.000000
v 0.411909 -0.113958 -0.420950 1.000000 1.000000 1.000000 1.000000
v 0.423390 -0.096343 -0.476220 1.000000 1.000000 1.000000 1.000000
v 0.413260 -0.056300 -0.490802 1.000000 1.000000 1.000000 1.000000
v 0.313136 -0.103734 -0.465456 1.000000 1.000000 1.000000 1.000000
v 0.424764 0.043788 -0.483428 1.000000 1.000000 1.000000 1.000000
v 0.316533 -0.119205 -0.420014 1.000000 1.000000 1.000000 1.000000
v 0.342558 -0.006092 -0.494781 1.000000 1.000000 1.000000 1.000000
v 0.307312 -0.123234 -0.347039 1.000000 1.000000 1.000000 1.000000
v -0.092101 -0.118493 -0.428534 1.000000 1.000000 1.000000 1.000000
v 0.031007 -0.057967 -0.490445 1.000000 1.000000 1.000000 1.000000
v -0.209788 -0.102434 -0.477582 1.000000 1.000000 1.000000 1.000000
v -0.358480 -0.118995 -0.392506 1.000000 1.000000 1.000000 1.000000
v -0.366501 -0.114343 -0.451086 1.000000 1.000000 1.000000 1.000000
v -0.357295 -0.052632 -0.494410 1.000000 1.000000 1.000000 1.000000
v -0.375226 -0.090892 -0.483566 1.000000 1.000000 1.000000 1.000000
v -0.065965 -0.001311 -0.493920 1.000000 1.000000 1.000000 1.000000
v -0.446199 -0.086698 -0.472762 1.000000 1.000000 1.000000 1.000000
v 0.047908 0.053829 -0.494179 1.000000 1.000000 1.000000 1.000000
v -0.427533 -0.115291 -0.416544 1.000000 1.000000 1.000000 1.000000
v -0.186393 0.051075 -0.489407 1.000000 1.000000 1.000000 1.000000
v 0.206605 0.044227 -0.493742 1.000000 1.000000 1.000000 1.000000
v -0.460158 -0.056613 -0.476578 1.000000 1.000000 1.000000 1.000000
v 0.346151 0.077691 -0.489410 1.000000 1.000000 1.000000 1.000000
v 0.045792 0.104417 -0.492414 1.000000 1.000000 1.000000 1.000000
v 0.351365 0.116793 -0.472457 1.000000 1.000000 1.000000 1.000000
v 0.210702 0.118901 -0.457219 1.000000 1.000000 1.000000 1.000000
v 0.337127 0.120835 -0.412638 1.000000 1.000000 1.000000 1.000000
v 0.021746 0.117848 -0.444653 1.000000 1.000000 1.000000 1.000000
v -0.266349 0.117342 -0.348379 1.000000 1.000000 1.000000 1.000000
v -0.210803 0.099225 -0.470804 1.000000 1.000000 1.000000 1.000000
v -0.274971 0.113152 -0.421378 1.000000 1.000000 1.000000 1.000000
v -0.386236 0.020320 -0.492404 1.000000 1.000000 1.000000 1.000000
v -0.392302 0.068960 -0.467189 1.000000 1.000000 1.000000 1.000000
v -0.472493 -0.000299 -0.480909 1.000000 1.000000 1.000000 1.000000
v -0.397880 0.103476 -0.421454 1.000000 1.000000 1.000000 1.000000
v -0.453290 0.059233 -0.462430 1.000000 1.000000 1.000000 1.000000
v -0.474891 0.071762 -0.419939 1.000000 1.000000 1.000000 1.000000
v -0.491350 -0.061598 -0.418834 1.000000 1.000000 1.000000 1.000000
v -0.496116 0.019825 -0.414272 1.000000 1.000000 1.000000 1.000000
v -0.472035 0.100589 -0.345167 1.000000 1.000000 1.000000 1.000000
v -0.496450 0.041301 -0.329477 1.000000 1.000000 1.000000 1.000000
v -0.392262 0.112860 -0.337683 1.000000 1.000000 1.000000 1.000000
v -0.401968 0.115999 -0.225481 1.000000 1.000000 1.000000 1.000000
v -0.489463 0.114398 -0.190908 1.000000 1.000000 1.000000 1.000000
v -0.406078 0.121945 0.215748 1.000000 1.000000 1.000000 1.000000
v -0.280912 0.122383 0.321011 1.000000 1.000000 1.000000 1.000000
v -0.356194 0.119106 0.360215 1.000000 1.000000 1.000000 1.000000
v -0.492537 0.107986 0.386868 1.000000 1.000000 1.000000 1.000000
v -0.428719 0.093306 0.463912 1.000000 1.000000 1.000000 1.000000
v -0.490436 0.116093 0.241563 1.000000 1.000000 1.000000 1.000000
v -0.497326 0.045252 0.101180 1.000000 1.000000 1.000000 1.000000
v -0.497313 0.039654 0.247709 1.000000 1.000000 1.000000 1.000000
v -0.497516 0.055547 -0.165917 1.000000 1.000000 1.000000 1.000000
v -0.496899 -0.022069 0.188588 1.000000 1.000000 1.000000 1.000000
v -0.496455 -0.014790 -0.308392 1.000000 1.000000 1.000000 1.000000
v -0.491886 -0.020294 0.376149 1.000000 1.000000 1.000000 1.000000
v -0.496190 -0.078206 0.059623 1.000000 1.000000 1.000000 1.000000
v -0.491958 -0.070030 -0.325900 1.000000 1.000000 1.000000 1.000000
v -0.494492 0.048772 0.375183 1.000000 1.000000 1.000000 1.000000
v -0.477823 -0.110676 -0.320006 1.000000 1.000000 1.000000 1.000000
v -0.485667 0.038268 0.455693 1.000000 1.000000 1.000000 1.000000
v -0.479537 0.086748 0.438398 1.000000 1.000000 1.000000 1.000000
v -0.470558 -0.095677 -0.419507 1.000000 1.000000 1.000000 1.000000
v -0.432604 -0.117718 -0.327506 1.000000 1.000000 1.000000 1.000000
v -0.326493 -0.123467 -0.255120 1.000000 1.000000 1.000000 1.000000
v -0.429445 -0.122541 -0.062409 1.000000 1.000000 1.000000 1.000000
v -0.478559 -0.120394 0.011031 1.000000 1.000000 1.000000 1.000000
v -0.357223 -0.123291 0.204479 1.000000 1.000000 1.000000 1.000000
v -0.473347 -0.100758 0.269641 1.000000 1.000000 1.000000 1.000000
v -0.429329 -0.120472 0.211658 1.000000 1.000000 1.000000 1.000000
v -0.472940 -0.072317 0.380094 1.000000 1.000000 1.000000 1.000000
v -0.442225 -0.108384 0.381913 1.000000 1.000000 1.000000 1.000000
v -0.378476 -0.117031 0.386414 1.000000 1.000000 1.000000 1.000000
v -0.217744 -0.123104 0.382374 1.000000 1.000000 1.000000 1.000000
v -0.382943 -0.104211 0.455148 1.000000 1.000000 1.000000 1.000000
v -0.442414 -0.101987 0.445360 1.000000 1.000000 1.000000 1.000000
v 0.355476 -0.116741 0.416490 1.000000 1.000000 1.000000 1.000000
v -0.470683 -0.060716 0.463487 1.000000 1.000000 1.000000 1.000000
v 0.392243 -0.112854 0.468527 1.000000 1.000000 1.000000 1.000000
v -0.477240 -0.024275 0.463630 1.000000 1.000000 1.000000 1.000000
v 0.350763 -0.084593 0.493178 1.000000 1.000000 1.000000 1.000000
v 0.456489 -0.045856 0.492385 1.000000 1.000000 1.000000 1.000000
v 0.218980 -0.117724 0.459188 1.000000 1.000000 1.000000 1.000000
v 0.342375 -0.042000 0.496199 1.000000 1.000000 1.000000 1.000000
v 0.452671 0.021912 0.485743 1.000000 1.000000 1.000000 1.000000
v -0.038659 -0.099040 0.490881 1.000000 1.000000 1.000000 1.000000
v -0.034124 -0.119016 0.450068 1.000000 1.000000 1.000000 1.000000
v -0.261306 -0.120633 0.444817 1.000000 1.000000 1.000000 1.000000
v -0.261557 -0.087730 0.481617 1.000000 1.000000 1.000000 1.000000
v -0.390038 -0.067447 0.484980 1.000000 1.000000 1.000000 1.000000
v -0.260884 -0.035106 0.490894 1.000000 1.000000 1.000000 1.000000
v -0.393676 -0.025589 0.491051 1.000000 1.000000 1.000000 1.000000
v 0.006601 -0.048307 0.494333 1.000000 1.000000 1.000000 1.000000
v -0.259647 0.013413 0.494869 1.000000 1.000000 1.000000 1.000000
v -0.403533 0.016703 0.492979 1.000000 1.000000 1.000000 1.000000
v -0.417637 0.055685 0.489051 1.000000 1.000000 1.000000 1.000000
v 0.200136 0.004302 0.495786 1.000000 1.000000 1.000000 1.000000
v -0.235478 0.060944 0.496798 1.000000 1.000000 1.000000 1.000000
v -0.260277 0.103442 0.479754 1.000000 1.000000 1.000000 1.000000
v 0.333938 0.055982 0.487640 1.000000 1.000000 1.000000 1.000000
v 0.445861 0.063717 0.480329 1.000000 1.000000 1.000000 1.000000
v 0.354692 0.092146 0.479037 1.000000 1.000000 1.000000 1.000000
v 0.216822 0.107197 0.481567 1.000000 1.000000 1.000000 1.000000
v 0.059788 0.106416 0.479624 1.000000 1.000000 1.000000 1.000000
v 0.060362 0.120316 0.433946 1.000000 1.000000 1.000000 1.000000
v -0.267521 0.117897 0.430601 1.000000 1.000000 1.000000 1.000000
v -0.356194 0.119106 0.360215 1.000000 1.000000 1.000000 1.000000
v 0.061211 0.122628 0.391137 1.000000 1.000000 1.000000 1.000000
v -0.280912 0.122383 0.321011 1.000000 1.000000 1.000000 1.000000
v -0.099015 0.123743 0.200775 1.000000 1.000000 1.000000 1.000000
v 0.068617 0.123762 0.172026 1.000000 1.000000 1.000000 1.000000
v -0.270839 0.125572 0.214223 1.000000 1.000000 1.000000 1.000000
vt 0.086365 0.080566
vt 0.129639 0.000488
vt 0.150757 0.008789
vt 0.061310 0.172363
vt 0.027390 0.191406
vt 0.156372 0.016113
vt 0.001310 0.327148
vt 0.096863 0.148438
vt 0.394775 0.006836
vt 0.026352 0.287109
vt 0.689941 0.087402
vt 0.797363 0.196777
vt 0.020294 0.369629
vt -0.001303 0.394531
vt 0.024673 0.486328
vt 0.345947 0.220215
vt 0.039551 0.468750
vt 0.085266 0.547363
vt 0.032440 0.318359
vt 0.054108 0.310059
vt 0.061371 0.267090
vt 0.116638 0.246094
vt 0.109802 0.285156
vt 0.243896 0.223145
vt 0.176147 0.263672
vt 0.106323 0.317383
vt 0.053070 0.347656
vt 0.060425 0.370605
vt 0.168701 0.297363
vt 0.272949 0.261230
vt 0.058136 0.411621
vt 0.314697 0.312012
vt 0.309570 0.293457
vt 0.340332 0.265137
vt 0.325439 0.283203
vt 0.336914 0.311035
vt 0.343018 0.298828
vt 0.354980 0.282227
vt 0.335449 0.330078
vt 0.350342 0.315430
vt 0.362061 0.297363
vt 0.305664 0.333984
vt 0.350586 0.334473
vt 0.335938 0.342773
vt 0.247070 0.377441
vt 0.070923 0.447754
vt 0.270020 0.394531
vt 0.141357 0.439453
vt 0.092896 0.482910
vt 0.074890 0.501465
vt 0.169434 0.488770
vt 0.112427 0.534180
vt 0.340088 0.352539
vt 0.352295 0.365234
vt 0.357910 0.350098
vt 0.365479 0.339844
vt 0.385498 0.365723
vt 0.364746 0.310059
vt 0.375000 0.380859
vt 0.390625 0.325195
vt 0.335938 0.403809
vt 0.497070 0.408203
vt 0.473145 0.358398
vt 0.534668 0.392090
vt 0.576172 0.433594
vt 0.576660 0.410156
vt 0.578613 0.380371
vt 0.579590 0.395996
vt 0.505859 0.337402
vt 0.597656 0.399902
vt 0.479004 0.307129
vt 0.595703 0.420898
vt 0.547363 0.324219
vt 0.435547 0.307617
vt 0.602539 0.390625
vt 0.388916 0.296875
vt 0.482178 0.285156
vt 0.383789 0.285645
vt 0.427979 0.270508
vt 0.375488 0.253418
vt 0.493896 0.263672
vt 0.620117 0.270020
vt 0.563965 0.309082
vt 0.593262 0.308105
vt 0.595703 0.360352
vt 0.608887 0.348633
vt 0.613281 0.380859
vt 0.625000 0.340820
vt 0.621094 0.365234
vt 0.635742 0.370117
vt 0.618652 0.409180
vt 0.633789 0.389160
vt 0.657715 0.366211
vt 0.658691 0.395996
vt 0.648438 0.333008
vt 0.687500 0.338379
vt 0.711426 0.377930
vt 0.838867 0.462402
vt 0.902344 0.505615
vt 0.868164 0.609863
vt 0.780273 0.683594
vt 0.738770 0.800171
vt 0.792969 0.569580
vt 0.749512 0.529053
vt 0.753906 0.609375
vt 0.705078 0.424805
vt 0.726562 0.594238
vt 0.656738 0.416504
vt 0.722656 0.708496
vt 0.691406 0.555420
vt 0.636230 0.432617
vt 0.753418 0.692383
vt 0.622559 0.444824
vt 0.729492 0.749512
vt 0.750977 0.740723
vt 0.608887 0.415527
vt 0.605469 0.449707
vt 0.573242 0.488770
vt 0.632324 0.537109
vt 0.663086 0.552002
vt 0.610840 0.644531
vt 0.679199 0.658203
vt 0.652344 0.639404
vt 0.692383 0.706055
vt 0.664062 0.706055
vt 0.626953 0.713135
vt 0.520508 0.724365
vt 0.634766 0.740234
vt 0.662598 0.729492
vt 0.160156 0.577148
vt 0.684570 0.738281
vt 0.130981 0.582520
vt 0.700195 0.744385
vt 0.153564 0.626465
vt 0.091064 0.590576
vt 0.241089 0.668457
vt 0.152588 0.657471
vt 0.094421 0.646973
vt 0.411377 0.761475
vt 0.410400 0.734375
vt 0.562012 0.744873
vt 0.567383 0.765259
vt 0.647949 0.756958
vt 0.571289 0.786255
vt 0.662109 0.770752
vt 0.382812 0.769653
vt 0.574219 0.813354
vt 0.682617 0.782227
vt 0.707520 0.790771
vt 0.243042 0.745605
vt 0.564941 0.849243
vt 0.577637 0.843872
vt 0.141113 0.710449
vt 0.091064 0.668945
vt 0.129639 0.712402
vt 0.213623 0.778076
vt 0.359863 0.841553
vt 0.380859 0.870850
vt 0.581543 0.863037
vt 0.643555 0.887146
vt 0.399170 0.895203
vt 0.586426 0.911987
vt 0.495605 0.974716
vt 0.417236 0.999999
vt 0.582031 0.964081
vt1 0.102234 0.087402
vt1 0.149414 0.008301
vt1 0.172485 0.017090
vt1 0.074890 0.177246
vt1 0.037933 0.196289
vt1 0.178467 0.023926
vt1 0.009491 0.329590
vt1 0.113708 0.154297
vt1 0.438477 0.014648
vt1 0.036804 0.290527
vt1 0.760254 0.094238
vt1 0.877441 0.202148
vt1 0.030182 0.372070
vt1 0.006641 0.396484
vt1 0.034943 0.486328
vt1 0.385254 0.224609
vt1 0.051178 0.469238
vt1 0.101013 0.546631
vt1 0.043427 0.321289
vt1 0.067078 0.313477
vt1 0.074951 0.270996
vt1 0.135132 0.250488
vt1 0.127808 0.288574
vt1 0.273926 0.227539
vt1 0.200073 0.267578
vt1 0.123962 0.320312
vt1 0.065918 0.350098
vt1 0.073914 0.372559
vt1 0.191895 0.300781
vt1 0.305664 0.265137
vt1 0.071411 0.413086
vt1 0.351318 0.314941
vt1 0.345703 0.296875
vt1 0.379150 0.269043
vt1 0.363037 0.287109
vt1 0.375488 0.313965
vt1 0.382080 0.302246
vt1 0.395264 0.285645
vt1 0.373779 0.332520
vt1 0.389893 0.318848
vt1 0.402832 0.300781
vt1 0.341309 0.336914
vt1 0.390381 0.336914
vt1 0.374512 0.345215
vt1 0.277344 0.379395
vt1 0.085388 0.448242
vt1 0.302490 0.396484
vt1 0.162231 0.440430
vt1 0.109375 0.482910
vt1 0.089722 0.501465
vt1 0.192871 0.488770
vt1 0.130615 0.533691
vt1 0.378906 0.354980
vt1 0.392090 0.367188
vt1 0.398438 0.352539
vt1 0.406738 0.342285
vt1 0.428467 0.367676
vt1 0.405762 0.312988
vt1 0.416992 0.382812
vt1 0.434082 0.328125
vt1 0.374512 0.405273
vt1 0.549805 0.409668
vt1 0.523926 0.360840
vt1 0.591309 0.393555
vt1 0.636719 0.434570
vt1 0.636719 0.411621
vt1 0.639160 0.382324
vt1 0.640137 0.397461
vt1 0.559570 0.340332
vt1 0.659668 0.401367
vt1 0.530273 0.310059
vt1 0.657715 0.422363
vt1 0.604492 0.327148
vt1 0.482910 0.311035
vt1 0.665039 0.392578
vt1 0.432129 0.300293
vt1 0.533691 0.288574
vt1 0.426514 0.289062
vt1 0.474609 0.274414
vt1 0.417480 0.257324
vt1 0.546387 0.267578
vt1 0.684082 0.273926
vt1 0.622559 0.312012
vt1 0.654785 0.311035
vt1 0.657715 0.362793
vt1 0.671875 0.351074
vt1 0.676758 0.382812
vt1 0.689453 0.343262
vt1 0.685547 0.367188
vt1 0.701172 0.372070
vt1 0.682617 0.410645
vt1 0.699219 0.391113
vt1 0.725098 0.368652
vt1 0.726074 0.397461
vt1 0.714844 0.335938
vt1 0.757812 0.341309
vt1 0.784180 0.379883
vt1 0.922363 0.462891
vt1 0.991699 0.505371
vt1 0.954590 0.608154
vt1 0.858398 0.680664
vt1 0.813477 0.795288
vt1 0.873047 0.568359
vt1 0.825195 0.528564
vt1 0.830078 0.607666
vt1 0.777344 0.425781
vt1 0.800293 0.592773
vt1 0.724121 0.417969
vt1 0.796387 0.705078
vt1 0.761719 0.554443
vt1 0.702148 0.433594
vt1 0.829590 0.689209
vt1 0.687012 0.445312
vt1 0.803223 0.745361
vt1 0.826660 0.736816
vt1 0.671875 0.416992
vt1 0.667969 0.450684
vt1 0.633301 0.489258
vt1 0.697754 0.536377
vt1 0.730957 0.551270
vt1 0.674316 0.642334
vt1 0.748535 0.655518
vt1 0.719727 0.637207
vt1 0.762695 0.702881
vt1 0.731934 0.702881
vt1 0.691406 0.709717
vt1 0.575684 0.720947
vt1 0.700195 0.736328
vt1 0.730957 0.725830
vt1 0.182739 0.575928
vt1 0.754395 0.734375
vt1 0.150879 0.581055
vt1 0.771484 0.740479
vt1 0.175537 0.624512
vt1 0.107361 0.589111
vt1 0.270752 0.665771
vt1 0.174438 0.655029
vt1 0.111023 0.644531
vt1 0.456543 0.757324
vt1 0.455566 0.730713
vt1 0.621094 0.740967
vt1 0.626465 0.760986
vt1 0.714844 0.752808
vt1 0.630859 0.781738
vt1 0.729980 0.766357
vt1 0.425537 0.765381
vt1 0.633789 0.808350
vt1 0.752441 0.777710
vt1 0.779785 0.786133
vt1 0.272949 0.741699
vt1 0.624023 0.843628
vt1 0.638184 0.838257
vt1 0.161987 0.707031
vt1 0.107361 0.666260
vt1 0.149414 0.708984
vt1 0.240967 0.773560
vt1 0.400391 0.836060
vt1 0.423340 0.864868
vt1 0.642090 0.857178
vt1 0.709961 0.880920
vt1 0.443115 0.888855
vt1 0.647949 0.905334
vt1 0.548340 0.967072
vt1 0.463135 0.991936
vt1 0.642578 0.956604
vn 0.031496 0.653543 0.755905
vn -0.007874 0.700787 0.708661
vn -0.007874 0.984252 0.157480
vn 0.031496 0.976378 0.204724
vn 0.110236 0.543307 0.834646
vn -0.007874 1.000000 0.031496
vn 0.322835 0.417323 0.850394
vn 0.015748 1.000000 0.007874
vn 0.000000 1.000000 -0.000000
vn 0.188976 0.889764 0.425197
vn 0.000000 1.000000 -0.000000
vn -0.007874 1.000000 0.007874
vn 0.921260 0.157480 0.362205
vn 0.322835 0.149606 0.937008
vn 0.354331 0.000000 0.937008
vn 0.007874 1.000000 -0.007874
vn 0.929134 -0.157480 0.330709
vn 0.299213 -0.464567 0.826772
vn 0.661417 0.622047 0.425197
vn 0.677165 0.724409 0.133858
vn 0.133858 0.992126 0.070866
vn 0.078740 1.000000 0.023622
vn 0.661417 0.748031 0.007874
vn 0.055118 1.000000 -0.000000
vn 0.582677 0.811023 -0.039370
vn 1.000000 0.078740 -0.007874
vn 0.992126 0.133858 0.023622
vn 1.000000 0.023622 -0.000000
vn 0.976378 0.220472 -0.015748
vn 0.543307 0.842520 -0.023622
vn 1.000000 -0.015748 0.015748
vn 0.992126 0.110236 -0.023622
vn 0.952756 0.291339 -0.031496
vn 0.141732 0.992126 -0.031496
vn 0.653543 0.755905 -0.102362
vn 0.960630 0.228346 -0.157480
vn 0.740157 0.614173 -0.275591
vn 0.283465 0.944882 -0.188976
vn 0.984252 -0.039370 -0.157480
vn 0.629921 0.228346 -0.740157
vn 0.338583 0.637795 -0.692913
vn 1.000000 0.031496 -0.015748
vn 0.574803 -0.133858 -0.803149
vn 0.913386 -0.385827 -0.149606
vn 0.921260 -0.393701 -0.015748
vn 0.960630 -0.275591 0.031496
vn 0.338583 -0.937008 -0.031496
vn 0.354331 -0.937008 0.000000
vn 0.527559 -0.850394 0.062992
vn 0.637795 -0.700787 0.322835
vn 0.015748 -1.000000 0.015748
vn 0.118110 -0.992126 0.062992
vn 0.464567 -0.881890 -0.110236
vn 0.125984 -0.992126 -0.086614
vn 0.133858 -0.748031 -0.645669
vn 0.023622 -0.196850 -0.976378
vn 0.000000 -0.771653 -0.637795
vn 0.196850 0.188976 -0.960630
vn 0.015748 -0.992126 -0.141732
vn 0.000000 -0.031496 -1.000000
vn 0.000000 -1.000000 -0.015748
vn 0.007874 -0.984252 -0.188976
vn 0.007874 -0.251969 -0.968504
vn 0.023622 -0.685039 -0.732283
vn -0.023622 -1.000000 -0.039370
vn -0.015748 -0.960630 -0.291338
vn -0.015748 -0.086614 -0.992126
vn -0.078740 -0.598425 -0.795275
vn 0.000000 -0.015748 -1.000000
vn -0.409449 -0.629921 -0.661417
vn -0.007874 0.015748 -1.000000
vn -0.196850 -0.976378 -0.102362
vn -0.023622 0.181102 -0.984252
vn 0.007874 0.015748 -1.000000
vn -0.511811 -0.259843 -0.818897
vn 0.094488 0.236220 -0.968504
vn -0.015748 0.598425 -0.795276
vn 0.086614 0.850394 -0.519685
vn -0.015748 0.968504 -0.259843
vn 0.007874 1.000000 -0.023622
vn -0.015748 0.992126 -0.125984
vn -0.023622 1.000000 -0.031496
vn -0.102362 0.692913 -0.708661
vn -0.055118 0.976378 -0.196850
vn -0.086614 0.244094 -0.968504
vn -0.141732 0.653543 -0.748031
vn -0.566929 0.094488 -0.818897
vn -0.196850 0.929134 -0.314961
vn -0.354331 0.661417 -0.661417
vn -0.622047 0.700787 -0.346457
vn -0.937008 -0.291339 -0.212598
vn -0.960630 0.196850 -0.188976
vn -0.566929 0.795275 -0.204724
vn -0.984252 0.188976 -0.031496
vn -0.078740 0.992126 -0.062992
vn -0.031496 1.000000 -0.031496
vn -0.582677 0.811023 -0.047244
vn -0.031496 1.000000 0.007874
vn -0.015748 1.000000 0.015748
vn -0.062992 0.992126 0.094488
vn -0.433071 0.889764 0.157480
vn -0.149606 0.913386 0.377953
vn -0.661417 0.748031 0.023622
vn -1.000000 0.015748 -0.000000
vn -1.000000 0.047244 0.007874
vn -1.000000 0.070866 -0.000000
vn -1.000000 -0.039370 0.007874
vn -1.000000 -0.023622 0.000000
vn -0.984252 -0.133858 0.102362
vn -0.984252 -0.173228 0.000000
vn -0.976378 -0.196850 -0.023622
vn -1.000000 -0.007874 0.055118
vn -0.622047 -0.779527 -0.078740
vn -0.818898 0.125984 0.559055
vn -0.598425 0.535433 0.598425
vn -0.590551 -0.763779 -0.259842
vn -0.086614 -0.992126 -0.031496
vn -0.007874 -1.000000 -0.007874
vn -0.031496 -1.000000 0.000000
vn -0.551181 -0.834646 0.023622
vn -0.015748 -1.000000 0.007874
vn -0.685039 -0.716535 0.125984
vn -0.133858 -0.992126 0.023622
vn -0.834646 -0.535433 0.125984
vn -0.433071 -0.897638 0.055118
vn -0.070866 -0.992126 0.094488
vn 0.000000 -1.000000 0.007874
vn -0.094488 -0.897638 0.440945
vn -0.385827 -0.850394 0.362205
vn 0.023622 -1.000000 0.031496
vn -0.692913 -0.440945 0.566929
vn 0.078740 -0.913386 0.393701
vn -0.755906 -0.078740 0.653543
vn 0.031496 -0.385827 0.921260
vn 0.354331 0.000000 0.937008
vn 0.000000 -0.960630 0.275591
vn 0.015748 0.023622 1.000000
vn 0.314961 0.157480 0.937008
vn -0.031496 -0.511811 0.858268
vn 0.007874 -0.976378 0.212599
vn -0.039370 -0.944882 0.314961
vn -0.055118 -0.472441 0.881890
vn -0.133858 -0.425197 0.897638
vn -0.015748 -0.133858 0.992126
vn -0.125984 -0.118110 0.984252
vn -0.015748 -0.031496 1.000000
vn -0.007874 -0.062992 1.000000
vn -0.157480 -0.023622 0.984252
vn -0.212598 0.283465 0.937008
vn 0.007874 0.047244 1.000000
vn 0.000000 0.133858 0.992126
vn -0.039370 0.755905 0.653543
vn 0.039370 0.149606 0.984252
vn 0.322835 0.417323 0.850394
vn 0.110236 0.543307 0.834646
vn 0.031496 0.653543 0.755905
vn -0.007874 0.700787 0.708661
vn -0.007874 0.984252 0.157480
vn -0.023622 0.992126 0.141732
vn -0.062992 0.992126 0.094488
vn -0.007874 1.000000 0.031496
vn -0.007874 1.000000 0.015748
vn 0.000000 1.000000 -0.000000
vn 0.000000 1.000000 -0.000000
vn -0.015748 1.000000 0.007874
tan -0.869056 -0.342489 0.332321 1.000000
tan -0.782442 -0.445161 0.431521 1.000000
tan -0.954492 -0.048546 0.255688 1.000000
tan -0.968690 0.010292 0.099944 1.000000
tan -0.951516 0.096100 0.063116 1.000000
tan -0.992126 -0.003596 -0.133858 1.000000
tan -0.574369 0.730609 -0.140492 1.000000
tan -0.968504 0.017298 -0.259842 1.000000
tan -0.622047 0.000000 0.779527 1.000000
tan -0.807490 0.371257 -0.418005 1.000000
tan 0.976378 0.000000 0.228346 1.000000
tan 0.992126 0.008742 -0.118110 1.000000
tan -0.163184 0.924112 0.013268 1.000000
tan -0.030690 0.939550 -0.139438 1.000000
tan 0.391035 0.865212 -0.147870 1.000000
tan -0.551181 0.010912 0.834646 1.000000
tan 0.305785 0.800545 -0.477897 1.000000
tan 0.845000 -0.217434 -0.427987 1.000000
tan -0.641329 0.755533 -0.107694 1.000000
tan -0.717651 0.687643 -0.090892 1.000000
tan -0.960878 0.146940 -0.242172 1.000000
tan -0.992126 0.081654 -0.149606 1.000000
tan -0.747783 0.661851 -0.062062 1.000000
tan -0.992126 0.054684 0.102362 1.000000
tan -0.811644 0.582367 -0.015562 1.000000
tan -0.078988 0.984252 -0.188976 1.000000
tan -0.129270 0.984314 -0.148428 1.000000
tan -0.022692 0.960630 -0.267717 1.000000
tan -0.220472 0.968690 -0.107632 1.000000
tan -0.842334 0.544609 0.050716 1.000000
tan 0.019964 0.944882 -0.322835 1.000000
tan -0.110050 0.992126 0.007812 1.000000
tan -0.289355 0.952756 0.060016 1.000000
tan -0.859322 0.138384 0.492157 1.000000
tan -0.746729 0.662099 0.121768 1.000000
tan -0.210428 0.955546 0.101928 1.000000
tan -0.578461 0.765391 0.152148 1.000000
tan -0.660673 0.334057 0.679273 1.000000
tan 0.024180 0.976502 -0.093000 1.000000
tan 0.031124 0.926406 0.312294 1.000000
tan -0.175770 0.758943 0.612685 1.000000
tan -0.032984 0.992126 -0.110236 1.000000
tan 0.096968 0.901854 -0.080910 1.000000
tan 0.355013 0.900180 -0.154070 1.000000
tan 0.392337 0.921260 -0.079794 1.000000
tan 0.270321 0.907682 -0.302561 1.000000
tan 0.907496 0.336103 -0.243474 1.000000
tan 0.914874 0.345961 -0.184450 1.000000
tan 0.834770 0.501705 -0.218178 1.000000
tan 0.765950 0.562031 -0.293199 1.000000
tan 0.921260 0.008432 -0.385827 1.000000
tan 0.882758 0.075826 -0.460909 1.000000
tan 0.825470 0.473495 -0.309195 1.000000
tan 0.749954 0.151838 -0.648397 1.000000
tan 0.143220 0.656581 -0.730981 1.000000
tan 0.130696 0.968690 -0.192138 1.000000
tan 0.046500 0.637795 -0.771653 1.000000
tan -0.002976 0.963730 0.188976 1.000000
tan 0.328105 0.139128 -0.937442 1.000000
tan 0.055118 1.000000 -0.031496 1.000000
tan 0.598425 0.012648 -0.803149 1.000000
tan 0.116250 0.188418 -0.976502 1.000000
tan 0.076260 0.968504 -0.251349 1.000000
tan 0.033480 0.732841 -0.684481 1.000000
tan -0.023622 0.039928 -1.000000 1.000000
tan 0.037820 0.290718 -0.960630 1.000000
tan 0.218736 0.968690 -0.088040 1.000000
tan 0.086118 0.788393 -0.601773 1.000000
tan 0.125984 0.992126 -0.015624 1.000000
tan 0.062744 0.701097 -0.706553 1.000000
tan 0.094488 0.992126 0.014880 1.000000
tan -0.176824 0.136400 -0.961002 1.000000
tan 0.224750 0.961002 0.171430 1.000000
tan 0.000000 1.000000 0.015748 1.000000
tan 0.534689 0.644801 -0.538781 1.000000
tan -0.068634 0.968504 0.229524 1.000000
tan 0.039184 0.795648 0.597929 1.000000
tan -0.138012 0.525141 0.836320 1.000000
tan -0.099138 0.256185 0.960878 1.000000
tan -0.377953 0.024738 0.921260 1.000000
tan 0.171864 0.126728 0.976502 1.000000
tan 0.866142 0.036084 0.496063 1.000000
tan 0.104408 0.713559 0.682621 1.000000
tan 0.631967 0.185938 0.745303 1.000000
tan 0.434683 0.861740 0.178312 1.000000
tan 0.538595 0.679335 0.491475 1.000000
tan 0.767561 0.343233 -0.491785 1.000000
tan 0.868374 0.302871 0.350735 1.000000
tan 0.812450 0.563209 0.127968 1.000000
tan 0.757828 0.624279 -0.097898 1.000000
tan -0.037634 0.628805 -0.695827 1.000000
tan 0.267035 0.810838 -0.512803 1.000000
tan 0.808358 0.565689 -0.041044 1.000000
tan 0.185504 0.899002 -0.403001 1.000000
tan 0.984314 0.085560 0.117180 1.000000
tan 0.976378 0.024304 -0.204724 1.000000
tan 0.811396 0.580817 -0.036518 1.000000
tan 0.763780 0.029140 -0.645669 1.000000
tan 0.614173 0.022072 -0.787401 1.000000
tan 0.429661 0.112840 -0.898382 1.000000
tan 0.355199 0.323331 -0.850022 1.000000
tan -0.911402 -0.237150 0.212350 1.000000
tan 0.665881 0.602269 -0.427181 1.000000
tan 0.011284 0.716535 -0.700787 1.000000
tan 0.019034 0.543307 -0.842520 1.000000
tan 0.061938 0.874016 -0.480315 1.000000
tan -0.029636 0.590551 -0.811024 1.000000
tan -0.019902 0.842520 -0.535433 1.000000
tan -0.121830 0.155000 -0.968752 1.000000
tan -0.120032 0.682001 -0.713001 1.000000
tan -0.133362 0.738049 -0.638105 1.000000
tan -0.054622 0.322834 -0.944882 1.000000
tan -0.709467 0.602827 -0.363197 1.000000
tan -0.566557 -0.081778 -0.811457 1.000000
tan -0.695393 0.023560 -0.716473 1.000000
tan -0.369335 0.542563 -0.755409 1.000000
tan -0.304669 0.056606 -0.945254 1.000000
tan -0.102362 0.008618 -0.992126 1.000000
tan -0.440945 0.013888 -0.897638 1.000000
tan -0.737368 0.475107 -0.418129 1.000000
tan -0.212598 -0.004340 -0.976378 1.000000
tan -0.419555 0.247690 -0.872590 1.000000
tan -0.320293 0.020894 -0.937442 1.000000
tan -0.013640 -0.198028 -0.931986 1.000000
tan -0.133300 0.007130 -0.931242 1.000000
tan -0.187488 -0.079608 -0.976502 1.000000
tan 0.070866 -0.007874 -1.000000 1.000000
tan -0.158720 -0.419121 -0.887222 1.000000
tan -0.173724 -0.302003 -0.894104 1.000000
tan 0.834646 0.002108 -0.559055 1.000000
tan -0.440945 -0.347201 -0.808977 1.000000
tan 0.675057 -0.212040 -0.626945 1.000000
tan -0.618699 -0.239817 -0.744497 1.000000
tan 0.602765 -0.709653 -0.317813 1.000000
tan 0.582863 -0.751751 -0.220410 1.000000
tan 0.601897 -0.217000 -0.756401 1.000000
tan 0.716535 -0.692913 0.005084 1.000000
tan 0.554591 -0.762415 -0.058280 1.000000
tan 0.081096 -0.851510 -0.504805 1.000000
tan 0.284457 -0.201935 -0.937938 1.000000
tan -0.024800 -0.314031 -0.945192 1.000000
tan -0.076384 -0.881890 -0.477215 1.000000
tan -0.324757 -0.838986 -0.445843 1.000000
tan -0.132804 -0.984314 -0.134912 1.000000
tan -0.565751 -0.806001 -0.169136 1.000000
tan 0.322835 -0.944882 -0.024676 1.000000
tan -0.165354 -0.984252 -0.063302 1.000000
tan -0.627751 -0.759501 -0.118668 1.000000
tan -0.647901 -0.696199 0.063612 1.000000
tan 0.614173 -0.795275 0.032736 1.000000
tan -0.124992 -0.984314 0.132804 1.000000
tan -0.057908 -0.656023 0.755285 1.000000
tan 0.682001 -0.705251 0.079918 1.000000
tan 0.484035 -0.788332 0.203112 1.000000
tan 0.440449 -0.759997 0.436543 1.000000
tan 0.405171 -0.697625 0.586273 1.000000
tan 0.116560 -0.702461 0.695951 1.000000
tan -0.023250 -0.157666 0.984252 1.000000
tan -0.156240 -0.143220 0.976502 1.000000
tan -0.328105 -0.110112 0.937442 1.000000
tan -0.110236 -0.032116 0.992126 1.000000
tan -0.086614 -0.016430 1.000000 1.000000
tan -0.102362 0.000000 0.992126 1.000000
tan -0.141732 0.000000 0.992126 1.000000
tan -0.055118 -0.008742 1.000000 1.000000
f 3/3/3 2/2/2 1/1/1
f 1/1/1 4/4/4 3/3/3
f 1/1/1 5/5/5 4/4/4
f 6/6/6 3/3/3 4/4/4
f 4/4/4 5/5/5 7/7/7
f 4/4/4 8/8/8 6/6/6
f 9/9/9 6/6/6 8/8/8
f 7/7/7 10/10/10 4/4/4
f 8/8/8 4/4/4 10/10/10
f 12/12/12 11/11/11 9/9/9
f 10/10/10 7/7/7 13/13/13
f 13/13/13 7/7/7 14/14/14
f 13/13/13 14/14/14 15/15/15
f 9/9/9 16/16/16 12/12/12
f 9/9/9 8/8/8 16/16/16
f 15/15/15 17/17/17 13/13/13
f 17/17/17 15/15/15 18/18/18
f 13/13/13 19/19/19 10/10/10
f 10/10/10 19/19/19 20/20/20
f 20/20/20 19/19/19 13/13/13
f 10/10/10 21/21/21 8/8/8
f 20/20/20 21/21/21 10/10/10
f 21/21/21 22/22/22 8/8/8
f 21/21/21 20/20/20 23/23/23
f 23/23/23 22/22/22 21/21/21
f 22/22/22 24/24/24 8/8/8
f 24/24/24 16/16/16 8/8/8
f 22/22/22 23/23/23 25/25/25
f 25/25/25 24/24/24 22/22/22
f 26/26/26 23/23/23 20/20/20
f 25/25/25 23/23/23 26/26/26
f 20/20/20 27/27/27 26/26/26
f 13/13/13 27/27/27 20/20/20
f 26/26/26 27/27/27 28/28/28
f 28/28/28 27/27/27 13/13/13
f 26/26/26 29/29/29 25/25/25
f 29/29/29 26/26/26 28/28/28
f 24/24/24 25/25/25 30/30/30
f 30/30/30 25/25/25 29/29/29
f 13/13/13 31/31/31 28/28/28
f 31/31/31 13/13/13 17/17/17
f 29/29/29 28/28/28 32/32/32
f 32/32/32 28/28/28 31/31/31
f 29/29/29 33/33/33 30/30/30
f 32/32/32 33/33/33 29/29/29
f 34/34/34 24/24/24 30/30/30
f 24/24/24 34/34/34 16/16/16
f 35/35/35 30/30/30 33/33/33
f 30/30/30 35/35/35 34/34/34
f 35/35/35 33/33/33 36/36/36
f 36/36/36 33/33/33 32/32/32
f 34/34/34 35/35/35 37/37/37
f 36/36/36 37/37/37 35/35/35
f 16/16/16 34/34/34 38/38/38
f 37/37/37 38/38/38 34/34/34
f 32/32/32 39/39/39 36/36/36
f 37/37/37 36/36/36 40/40/40
f 36/36/36 39/39/39 40/40/40
f 41/41/41 38/38/38 37/37/37
f 41/41/41 37/37/37 40/40/40
f 39/39/39 32/32/32 42/42/42
f 31/31/31 42/42/42 32/32/32
f 43/43/43 40/40/40 39/39/39
f 44/44/44 39/39/39 42/42/42
f 43/43/43 39/39/39 44/44/44
f 45/45/45 42/42/42 31/31/31
f 45/45/45 44/44/44 42/42/42
f 46/46/46 45/45/45 31/31/31
f 17/17/17 46/46/46 31/31/31
f 44/44/44 45/45/45 47/47/47
f 48/48/48 45/45/45 46/46/46
f 48/48/48 47/47/47 45/45/45
f 49/49/49 46/46/46 17/17/17
f 49/49/49 48/48/48 46/46/46
f 17/17/17 50/50/50 49/49/49
f 18/18/18 50/50/50 17/17/17
f 51/51/51 48/48/48 49/49/49
f 47/47/47 48/48/48 51/51/51
f 49/49/49 50/50/50 52/52/52
f 49/49/49 52/52/52 51/51/51
f 52/52/52 50/50/50 18/18/18
f 47/47/47 53/53/53 44/44/44
f 43/43/43 44/44/44 53/53/53
f 54/54/54 53/53/53 47/47/47
f 51/51/51 54/54/54 47/47/47
f 53/53/53 55/55/55 43/43/43
f 53/53/53 54/54/54 55/55/55
f 55/55/55 56/56/56 43/43/43
f 40/40/40 43/43/43 56/56/56
f 57/57/57 55/55/55 54/54/54
f 56/56/56 55/55/55 57/57/57
f 40/40/40 56/56/56 58/58/58
f 40/40/40 58/58/58 41/41/41
f 54/54/54 59/59/59 57/57/57
f 58/58/58 56/56/56 60/60/60
f 61/61/61 59/59/59 54/54/54
f 61/61/61 54/54/54 51/51/51
f 59/59/59 62/62/62 57/57/57
f 61/61/61 62/62/62 59/59/59
f 57/57/57 63/63/63 56/56/56
f 60/60/60 56/56/56 63/63/63
f 62/62/62 64/64/64 57/57/57
f 63/63/63 57/57/57 64/64/64
f 61/61/61 65/65/65 62/62/62
f 64/64/64 62/62/62 66/66/66
f 65/65/65 66/66/66 62/62/62
f 67/67/67 63/63/63 64/64/64
f 66/66/66 68/68/68 64/64/64
f 67/67/67 64/64/64 68/68/68
f 69/69/69 63/63/63 67/67/67
f 63/63/63 69/69/69 60/60/60
f 70/70/70 68/68/68 66/66/66
f 60/60/60 69/69/69 71/71/71
f 66/66/66 72/72/72 70/70/70
f 66/66/66 65/65/65 72/72/72
f 69/69/69 73/73/73 71/71/71
f 73/73/73 69/69/69 67/67/67
f 71/71/71 74/74/74 60/60/60
f 75/75/75 67/67/67 68/68/68
f 68/68/68 70/70/70 75/75/75
f 76/76/76 60/60/60 74/74/74
f 60/60/60 76/76/76 58/58/58
f 41/41/41 58/58/58 76/76/76
f 74/74/74 71/71/71 77/77/77
f 77/77/77 76/76/76 74/74/74
f 77/77/77 71/71/71 73/73/73
f 76/76/76 78/78/78 41/41/41
f 79/79/79 78/78/78 76/76/76
f 79/79/79 76/76/76 77/77/77
f 41/41/41 78/78/78 80/80/80
f 80/80/80 78/78/78 79/79/79
f 80/80/80 38/38/38 41/41/41
f 38/38/38 80/80/80 16/16/16
f 77/77/77 81/81/81 79/79/79
f 80/80/80 79/79/79 81/81/81
f 80/80/80 82/82/82 16/16/16
f 81/81/81 82/82/82 80/80/80
f 82/82/82 12/12/12 16/16/16
f 81/81/81 77/77/77 83/83/83
f 73/73/73 83/83/83 77/77/77
f 84/84/84 81/81/81 83/83/83
f 81/81/81 84/84/84 82/82/82
f 83/83/83 73/73/73 85/85/85
f 85/85/85 73/73/73 67/67/67
f 85/85/85 67/67/67 75/75/75
f 84/84/84 83/83/83 86/86/86
f 85/85/85 86/86/86 83/83/83
f 75/75/75 87/87/87 85/85/85
f 86/86/86 85/85/85 87/87/87
f 86/86/86 88/88/88 84/84/84
f 82/82/82 84/84/84 88/88/88
f 87/87/87 89/89/89 86/86/86
f 86/86/86 89/89/89 90/90/90
f 90/90/90 89/89/89 87/87/87
f 90/90/90 88/88/88 86/86/86
f 87/87/87 75/75/75 91/91/91
f 91/91/91 75/75/75 70/70/70
f 87/87/87 92/92/92 90/90/90
f 87/87/87 91/91/91 92/92/92
f 88/88/88 90/90/90 93/93/93
f 90/90/90 92/92/92 94/94/94
f 94/94/94 93/93/93 90/90/90
f 93/93/93 95/95/95 88/88/88
f 88/88/88 95/95/95 82/82/82
f 96/96/96 95/95/95 93/93/93
f 95/95/95 96/96/96 82/82/82
f 93/93/93 97/97/97 96/96/96
f 97/97/97 93/93/93 94/94/94
f 82/82/82 96/96/96 98/98/98
f 97/97/97 98/98/98 96/96/96
f 98/98/98 12/12/12 82/82/82
f 99/99/99 12/12/12 98/98/98
f 98/98/98 100/100/100 99/99/99
f 101/101/101 100/100/100 98/98/98
f 102/102/102 100/100/100 101/101/101
f 98/98/98 97/97/97 103/103/103
f 98/98/98 103/103/103 101/101/101
f 103/103/103 97/97/97 104/104/104
f 101/101/101 103/103/103 105/105/105
f 104/104/104 105/105/105 103/103/103
f 97/97/97 106/106/106 104/104/104
f 94/94/94 106/106/106 97/97/97
f 107/107/107 104/104/104 106/106/106
f 107/107/107 105/105/105 104/104/104
f 108/108/108 106/106/106 94/94/94
f 108/108/108 107/107/107 106/106/106
f 108/108/108 94/94/94 92/92/92
f 92/92/92 91/91/91 108/108/108
f 105/105/105 107/107/107 109/109/109
f 110/110/110 107/107/107 108/108/108
f 109/109/109 107/107/107 110/110/110
f 91/91/91 111/111/111 108/108/108
f 108/108/108 111/111/111 110/110/110
f 109/109/109 112/112/112 105/105/105
f 105/105/105 112/112/112 101/101/101
f 113/113/113 111/111/111 91/91/91
f 101/101/101 112/112/112 114/114/114
f 114/114/114 112/112/112 109/109/109
f 114/114/114 115/115/115 101/101/101
f 101/101/101 115/115/115 102/102/102
f 102/102/102 115/115/115 114/114/114
f 91/91/91 116/116/116 113/113/113
f 70/70/70 116/116/116 91/91/91
f 72/72/72 116/116/116 70/70/70
f 116/116/116 72/72/72 117/117/117
f 117/117/117 113/113/113 116/116/116
f 117/117/117 72/72/72 65/65/65
f 117/117/117 65/65/65 118/118/118
f 118/118/118 65/65/65 61/61/61
f 113/113/113 117/117/117 119/119/119
f 118/118/118 119/119/119 117/117/117
f 111/111/111 113/113/113 120/120/120
f 120/120/120 113/113/113 119/119/119
f 120/120/120 110/110/110 111/111/111
f 119/119/119 118/118/118 121/121/121
f 110/110/110 120/120/120 122/122/122
f 119/119/119 123/123/123 120/120/120
f 122/122/122 120/120/120 123/123/123
f 121/121/121 123/123/123 119/119/119
f 110/110/110 122/122/122 124/124/124
f 124/124/124 109/109/109 110/110/110
f 122/122/122 123/123/123 125/125/125
f 125/125/125 124/124/124 122/122/122
f 123/123/123 121/121/121 126/126/126
f 126/126/126 125/125/125 123/123/123
f 127/127/127 121/121/121 118/118/118
f 126/126/126 121/121/121 127/127/127
f 127/127/127 118/118/118 61/61/61
f 51/51/51 127/127/127 61/61/61
f 125/125/125 126/126/126 128/128/128
f 128/128/128 126/126/126 127/127/127
f 128/128/128 129/129/129 125/125/125
f 51/51/51 130/130/130 127/127/127
f 51/51/51 52/52/52 130/130/130
f 125/125/125 129/129/129 131/131/131
f 131/131/131 124/124/124 125/125/125
f 131/131/131 129/129/129 128/128/128
f 109/109/109 124/124/124 131/131/131
f 132/132/132 130/130/130 52/52/52
f 18/18/18 132/132/132 52/52/52
f 131/131/131 133/133/133 109/109/109
f 109/109/109 133/133/133 114/114/114
f 18/18/18 134/134/134 132/132/132
f 134/134/134 18/18/18 135/135/135
f 130/130/130 132/132/132 136/136/136
f 136/136/136 132/132/132 134/134/134
f 136/136/136 127/127/127 130/130/130
f 135/135/135 137/137/137 134/134/134
f 135/135/135 138/138/138 137/137/137
f 134/134/134 139/139/139 136/136/136
f 137/137/137 139/139/139 134/134/134
f 136/136/136 140/140/140 127/127/127
f 139/139/139 140/140/140 136/136/136
f 140/140/140 141/141/141 127/127/127
f 141/141/141 140/140/140 139/139/139
f 127/127/127 141/141/141 128/128/128
f 139/139/139 142/142/142 141/141/141
f 143/143/143 128/128/128 141/141/141
f 141/141/141 142/142/142 143/143/143
f 128/128/128 143/143/143 131/131/131
f 144/144/144 142/142/142 139/139/139
f 143/143/143 142/142/142 144/144/144
f 131/131/131 143/143/143 145/145/145
f 144/144/144 145/145/145 143/143/143
f 145/145/145 133/133/133 131/131/131
f 114/114/114 133/133/133 145/145/145
f 139/139/139 146/146/146 144/144/144
f 137/137/137 146/146/146 139/139/139
f 145/145/145 144/144/144 147/147/147
f 144/144/144 146/146/146 147/147/147
f 145/145/145 148/148/148 114/114/114
f 147/147/147 148/148/148 145/145/145
f 114/114/114 148/148/148 149/149/149
f 149/149/149 148/148/148 147/147/147
f 114/114/114 149/149/149 102/102/102
f 146/146/146 150/150/150 147/147/147
f 146/146/146 137/137/137 150/150/150
f 147/147/147 151/151/151 149/149/149
f 147/147/147 150/150/150 151/151/151
f 152/152/152 102/102/102 149/149/149
f 149/149/149 151/151/151 152/152/152
f 150/150/150 137/137/137 153/153/153
f 150/150/150 153/153/153 151/151/151
f 138/138/138 153/153/153 137/137/137
f 153/153/153 138/138/138 154/154/154
f 154/154/154 155/155/155 153/153/153
f 155/155/155 156/156/156 153/153/153
f 153/153/153 156/156/156 157/157/157
f 157/157/157 151/151/151 153/153/153
f 157/157/157 152/152/152 151/151/151
f 152/152/152 157/157/157 158/158/158
f 158/158/158 159/159/159 152/152/152
f 102/102/102 152/152/152 159/159/159
f 159/159/159 160/160/160 102/102/102
f 159/159/159 158/158/158 161/161/161
f 162/162/162 160/160/160 159/159/159
f 161/161/161 162/162/162 159/159/159
f 163/163/163 162/162/162 161/161/161
f 161/161/161 164/164/164 163/163/163
f 163/163/163 165/165/165 162/162/162
