mtllib SM_Pillar_02_b_LOD2@000002909DC28F00.mtl
g SM_Pillar_02_b_LOD2@000002909DC28F00
#Vertices 245
#Indices 846
#Section 0 Offset 0 NumIndices 72 MaterialIndex 1 MI_BrickTile_A_01
#Section 1 Offset 72 NumIndices 360 MaterialIndex 2 MI_ConcreteTrim_A_01
#Section 2 Offset 432 NumIndices 414 MaterialIndex 0 MI_ConcreteTile_01
v -0.470713 2.003227 -0.470714 0.000000 0.000000 1.000000 1.000000
v -0.500000 -0.000000 -0.400010 0.000000 0.000000 1.000000 1.000000
v -0.470708 0.000004 -0.470718 0.000000 0.000000 1.000000 1.000000
v -0.500000 2.003227 -0.400010 0.000000 0.000000 1.000000 1.000000
v -0.500000 0.000000 0.400010 0.000000 0.000000 1.000000 1.000000
v -0.500000 2.003227 0.400010 0.000000 0.000000 1.000000 1.000000
v -0.470718 0.000004 0.470708 0.000000 0.000000 1.000000 1.000000
v -0.470713 2.003227 0.470713 0.000000 0.000000 1.000000 1.000000
v -0.470713 2.003227 0.470713 0.000000 0.000000 1.000000 1.000000
v -0.400010 0.000000 0.500000 0.000000 0.000000 1.000000 1.000000
v -0.470718 0.000004 0.470708 0.000000 0.000000 1.000000 1.000000
v -0.400010 2.003227 0.500000 0.000000 0.000000 1.000000 1.000000
v 0.400010 0.000000 0.500000 0.000000 0.000000 1.000000 1.000000
v 0.400010 2.003227 0.500000 0.000000 0.000000 1.000000 1.000000
v 0.470708 0.000004 0.470718 0.000000 0.000000 1.000000 1.000000
v 0.470714 2.003227 0.470713 0.000000 0.000000 1.000000 1.000000
v 0.470714 2.003227 -0.470714 0.000000 0.000000 1.000000 1.000000
v 0.400010 -0.000000 -0.500000 0.000000 0.000000 1.000000 1.000000
v 0.470718 0.000004 -0.470708 0.000000 0.000000 1.000000 1.000000
v 0.400010 2.003227 -0.500000 0.000000 0.000000 1.000000 1.000000
v -0.400010 2.003227 -0.500000 0.000000 0.000000 1.000000 1.000000
v -0.400010 -0.000000 -0.500000 0.000000 0.000000 1.000000 1.000000
v -0.470708 0.000004 -0.470718 0.000000 0.000000 1.000000 1.000000
v -0.470713 2.003227 -0.470714 0.000000 0.000000 1.000000 1.000000
v 0.470708 0.000004 0.470718 0.000000 0.000000 1.000000 1.000000
v 0.470714 2.003227 0.470713 0.000000 0.000000 1.000000 1.000000
v 0.500000 0.000000 0.400010 0.000000 0.000000 1.000000 1.000000
v 0.500000 2.003227 0.400010 0.000000 0.000000 1.000000 1.000000
v 0.500000 2.003227 -0.400010 0.000000 0.000000 1.000000 1.000000
v 0.500000 -0.000000 -0.400010 0.000000 0.000000 1.000000 1.000000
v 0.470718 0.000004 -0.470708 0.000000 0.000000 1.000000 1.000000
v 0.470714 2.003227 -0.470714 0.000000 0.000000 1.000000 1.000000
v -0.613925 2.452791 0.613925 0.000000 0.000000 1.000000 1.000000
v -0.613925 2.050436 0.613925 0.000000 0.000000 1.000000 1.000000
v -0.643212 2.452791 0.543221 0.000000 0.000000 1.000000 1.000000
v -0.643212 2.050436 0.543221 0.000000 0.000000 1.000000 1.000000
v -0.643212 2.050436 -0.543222 0.000000 0.000000 1.000000 1.000000
v -0.643212 2.452791 -0.543222 0.000000 0.000000 1.000000 1.000000
v -0.613925 2.452791 -0.613925 0.000000 0.000000 1.000000 1.000000
v -0.613925 2.050436 -0.613925 0.000000 0.000000 1.000000 1.000000
v -0.613925 2.050436 0.613925 0.000000 0.000000 1.000000 1.000000
v -0.613925 2.452791 0.613925 0.000000 0.000000 1.000000 1.000000
v -0.543222 2.050436 0.643211 0.000000 0.000000 1.000000 1.000000
v -0.543222 2.452791 0.643211 0.000000 0.000000 1.000000 1.000000
v 0.543222 2.452791 0.643211 0.000000 0.000000 1.000000 1.000000
v 0.543222 2.050436 0.643211 0.000000 0.000000 1.000000 1.000000
v 0.613925 2.050436 0.613925 0.000000 0.000000 1.000000 1.000000
v 0.613925 2.452791 0.613925 0.000000 0.000000 1.000000 1.000000
v -0.613925 2.050436 -0.613925 0.000000 0.000000 1.000000 1.000000
v -0.543222 2.452791 -0.643212 0.000000 0.000000 1.000000 1.000000
v -0.613925 2.452791 -0.613925 0.000000 0.000000 1.000000 1.000000
v -0.543222 2.050436 -0.643212 0.000000 0.000000 1.000000 1.000000
v 0.543222 2.050436 -0.643212 0.000000 0.000000 1.000000 1.000000
v 0.543222 2.452791 -0.643212 0.000000 0.000000 1.000000 1.000000
v 0.613925 2.452791 -0.613925 0.000000 0.000000 1.000000 1.000000
v 0.613925 2.050436 -0.613925 0.000000 0.000000 1.000000 1.000000
v 0.613925 2.452791 0.613925 0.000000 0.000000 1.000000 1.000000
v 0.643212 2.050436 0.543221 0.000000 0.000000 1.000000 1.000000
v 0.613925 2.050436 0.613925 0.000000 0.000000 1.000000 1.000000
v 0.643212 2.452791 0.543221 0.000000 0.000000 1.000000 1.000000
v 0.643212 2.452791 -0.543222 0.000000 0.000000 1.000000 1.000000
v 0.643212 2.050436 -0.543222 0.000000 0.000000 1.000000 1.000000
v 0.613925 2.050436 -0.613925 0.000000 0.000000 1.000000 1.000000
v 0.613925 2.452791 -0.613925 0.000000 0.000000 1.000000 1.000000
v 0.613925 2.452791 0.613925 0.000000 0.000000 1.000000 1.000000
v 0.566716 2.500000 0.566716 0.000000 0.000000 1.000000 1.000000
v 0.643212 2.452791 0.543221 0.000000 0.000000 1.000000 1.000000
v 0.596003 2.500000 0.496013 0.000000 0.000000 1.000000 1.000000
v 0.470714 2.500000 0.470713 0.000000 0.000000 1.000000 1.000000
v 0.500000 2.500000 0.400010 0.000000 0.000000 1.000000 1.000000
v 0.643212 2.452791 -0.543222 0.000000 0.000000 1.000000 1.000000
v 0.500000 2.500000 -0.400010 0.000000 0.000000 1.000000 1.000000
v 0.596003 2.500000 -0.496013 0.000000 0.000000 1.000000 1.000000
v 0.470714 2.500000 -0.470714 0.000000 0.000000 1.000000 1.000000
v 0.566716 2.500000 -0.566717 0.000000 0.000000 1.000000 1.000000
v 0.613925 2.452791 -0.613925 0.000000 0.000000 1.000000 1.000000
v 0.543222 2.452791 -0.643212 0.000000 0.000000 1.000000 1.000000
v 0.496013 2.500000 -0.596003 0.000000 0.000000 1.000000 1.000000
v 0.400010 2.500000 -0.500000 0.000000 0.000000 1.000000 1.000000
v -0.400010 2.500000 -0.500000 0.000000 0.000000 1.000000 1.000000
v -0.496013 2.500000 -0.596003 0.000000 0.000000 1.000000 1.000000
v -0.543222 2.452791 -0.643212 0.000000 0.000000 1.000000 1.000000
v -0.470713 2.500000 -0.470714 0.000000 0.000000 1.000000 1.000000
v -0.566717 2.500000 -0.566717 0.000000 0.000000 1.000000 1.000000
v -0.613925 2.452791 -0.613925 0.000000 0.000000 1.000000 1.000000
v -0.643212 2.452791 -0.543222 0.000000 0.000000 1.000000 1.000000
v -0.596003 2.500000 -0.496013 0.000000 0.000000 1.000000 1.000000
v -0.500000 2.500000 -0.400010 0.000000 0.000000 1.000000 1.000000
v -0.596003 2.500000 0.496013 0.000000 0.000000 1.000000 1.000000
v -0.500000 2.500000 0.400010 0.000000 0.000000 1.000000 1.000000
v -0.643212 2.452791 0.543221 0.000000 0.000000 1.000000 1.000000
v -0.470713 2.500000 0.470713 0.000000 0.000000 1.000000 1.000000
v -0.566717 2.500000 0.566716 0.000000 0.000000 1.000000 1.000000
v -0.613925 2.452791 0.613925 0.000000 0.000000 1.000000 1.000000
v -0.543222 2.452791 0.643211 0.000000 0.000000 1.000000 1.000000
v -0.496013 2.500000 0.596002 0.000000 0.000000 1.000000 1.000000
v -0.400010 2.500000 0.500000 0.000000 0.000000 1.000000 1.000000
v 0.543222 2.452791 0.643211 0.000000 0.000000 1.000000 1.000000
v 0.400010 2.500000 0.500000 0.000000 0.000000 1.000000 1.000000
v 0.566716 2.500000 0.566716 0.000000 0.000000 1.000000 1.000000
v 0.613925 2.452791 0.613925 0.000000 0.000000 1.000000 1.000000
v 0.496013 2.500000 0.596002 0.000000 0.000000 1.000000 1.000000
v 0.470714 2.500000 0.470713 0.000000 0.000000 1.000000 1.000000
v 0.643212 2.050436 0.543221 0.000000 0.000000 1.000000 1.000000
v 0.566716 2.003227 0.566716 0.000000 0.000000 1.000000 1.000000
v 0.613925 2.050436 0.613925 0.000000 0.000000 1.000000 1.000000
v 0.596003 2.003227 0.496013 0.000000 0.000000 1.000000 1.000000
v 0.470714 2.003227 0.470713 0.000000 0.000000 1.000000 1.000000
v 0.500000 2.003227 0.400010 0.000000 0.000000 1.000000 1.000000
v 0.643212 2.050436 -0.543222 0.000000 0.000000 1.000000 1.000000
v 0.500000 2.003227 -0.400010 0.000000 0.000000 1.000000 1.000000
v 0.596003 2.003227 -0.496013 0.000000 0.000000 1.000000 1.000000
v 0.470714 2.003227 -0.470714 0.000000 0.000000 1.000000 1.000000
v 0.566716 2.003227 -0.566716 0.000000 0.000000 1.000000 1.000000
v 0.613925 2.050436 -0.613925 0.000000 0.000000 1.000000 1.000000
v 0.543222 2.050436 -0.643212 0.000000 0.000000 1.000000 1.000000
v 0.496013 2.003227 -0.596003 0.000000 0.000000 1.000000 1.000000
v 0.400010 2.003227 -0.500000 0.000000 0.000000 1.000000 1.000000
v -0.400010 2.003227 -0.500000 0.000000 0.000000 1.000000 1.000000
v -0.496013 2.003227 -0.596003 0.000000 0.000000 1.000000 1.000000
v -0.543222 2.050436 -0.643212 0.000000 0.000000 1.000000 1.000000
v -0.470713 2.003227 -0.470714 0.000000 0.000000 1.000000 1.000000
v -0.566717 2.003227 -0.566716 0.000000 0.000000 1.000000 1.000000
v -0.613925 2.050436 -0.613925 0.000000 0.000000 1.000000 1.000000
v -0.643212 2.050436 -0.543222 0.000000 0.000000 1.000000 1.000000
v -0.596003 2.003227 -0.496013 0.000000 0.000000 1.000000 1.000000
v -0.500000 2.003227 -0.400010 0.000000 0.000000 1.000000 1.000000
v -0.596003 2.003227 0.496013 0.000000 0.000000 1.000000 1.000000
v -0.500000 2.003227 0.400010 0.000000 0.000000 1.000000 1.000000
v -0.643212 2.050436 0.543221 0.000000 0.000000 1.000000 1.000000
v -0.470713 2.003227 0.470713 0.000000 0.000000 1.000000 1.000000
v -0.566717 2.003227 0.566716 0.000000 0.000000 1.000000 1.000000
v -0.613925 2.050436 0.613925 0.000000 0.000000 1.000000 1.000000
v -0.543222 2.050436 0.643211 0.000000 0.000000 1.000000 1.000000
v -0.496013 2.003227 0.596003 0.000000 0.000000 1.000000 1.000000
v -0.400010 2.003227 0.500000 0.000000 0.000000 1.000000 1.000000
v 0.543222 2.050436 0.643211 0.000000 0.000000 1.000000 1.000000
v 0.400010 2.003227 0.500000 0.000000 0.000000 1.000000 1.000000
v 0.566716 2.003227 0.566716 0.000000 0.000000 1.000000 1.000000
v 0.613925 2.050436 0.613925 0.000000 0.000000 1.000000 1.000000
v 0.496013 2.003227 0.596003 0.000000 0.000000 1.000000 1.000000
v 0.470714 2.003227 0.470713 0.000000 0.000000 1.000000 1.000000
v 0.000001 2.500000 0.449999 0.000000 0.000000 1.000000 1.000000
v 0.000000 11.499999 0.449998 0.000000 0.000000 1.000000 1.000000
v 0.139058 2.500000 0.427974 0.000000 0.000000 1.000000 1.000000
v 0.139058 11.499999 0.427973 0.000000 0.000000 1.000000 1.000000
v 0.264504 3.785713 0.364057 0.000000 0.000000 1.000000 1.000000
v 0.264504 2.500000 0.364057 0.000000 0.000000 1.000000 1.000000
v 0.364058 3.357142 0.264503 0.000000 0.000000 1.000000 1.000000
v 0.364058 2.500000 0.264503 0.000000 0.000000 1.000000 1.000000
v 0.427976 2.500000 0.139057 0.000000 0.000000 1.000000 1.000000
v 0.364058 5.515873 0.264502 0.000000 0.000000 1.000000 1.000000
v 0.264504 5.469191 0.364056 0.000000 0.000000 1.000000 1.000000
v 0.264504 6.357142 0.364056 0.000000 0.000000 1.000000 1.000000
v 0.364058 6.357142 0.264502 0.000000 0.000000 1.000000 1.000000
v 0.264504 7.778341 0.364056 0.000000 0.000000 1.000000 1.000000
v 0.264504 9.357142 0.364056 0.000000 0.000000 1.000000 1.000000
v 0.264504 11.499999 0.364056 0.000000 0.000000 1.000000 1.000000
v 0.364059 11.499999 0.264501 0.000000 0.000000 1.000000 1.000000
v 0.364058 8.928571 0.264502 0.000000 0.000000 1.000000 1.000000
v 0.427976 11.499999 0.139055 0.000000 0.000000 1.000000 1.000000
v 0.364058 7.548065 0.264502 0.000000 0.000000 1.000000 1.000000
v 0.450001 11.499999 -0.000002 0.000000 0.000000 1.000000 1.000000
v 0.450001 2.500000 -0.000001 0.000000 0.000000 1.000000 1.000000
v 0.427976 2.500000 -0.139059 0.000000 0.000000 1.000000 1.000000
v 0.427976 11.499999 -0.139059 0.000000 0.000000 1.000000 1.000000
v 0.364058 5.500000 -0.264504 0.000000 0.000000 1.000000 1.000000
v 0.364058 4.642856 -0.264504 0.000000 0.000000 1.000000 1.000000
v 0.364059 2.500000 -0.264503 0.000000 0.000000 1.000000 1.000000
v 0.364063 7.935917 -0.264498 0.000000 0.000000 1.000000 1.000000
v 0.264504 4.214285 -0.364059 0.000000 0.000000 1.000000 1.000000
v 0.264504 2.500000 -0.364058 0.000000 0.000000 1.000000 1.000000
v 0.264503 5.140985 -0.364059 0.000000 0.000000 1.000000 1.000000
v 0.139058 2.500000 -0.427976 0.000000 0.000000 1.000000 1.000000
v 0.364058 9.785714 -0.264505 0.000000 0.000000 1.000000 1.000000
v 0.364058 11.499999 -0.264505 0.000000 0.000000 1.000000 1.000000
v 0.264503 11.499999 -0.364060 0.000000 0.000000 1.000000 1.000000
v 0.264504 9.357142 -0.364059 0.000000 0.000000 1.000000 1.000000
v 0.139058 11.499999 -0.427977 0.000000 0.000000 1.000000 1.000000
v 0.264505 8.215095 -0.364058 0.000000 0.000000 1.000000 1.000000
v 0.264504 6.357142 -0.364059 0.000000 0.000000 1.000000 1.000000
v 0.000001 11.499999 -0.450002 0.000000 0.000000 1.000000 1.000000
v 0.000001 2.500000 -0.450001 0.000000 0.000000 1.000000 1.000000
v -0.139057 2.500000 -0.427976 0.000000 0.000000 1.000000 1.000000
v -0.139057 11.499999 -0.427977 0.000000 0.000000 1.000000 1.000000
v -0.264503 5.500000 -0.364059 0.000000 0.000000 1.000000 1.000000
v -0.264503 4.642857 -0.364059 0.000000 0.000000 1.000000 1.000000
v -0.264502 2.500000 -0.364059 0.000000 0.000000 1.000000 1.000000
v -0.264497 7.816279 -0.364064 0.000000 0.000000 1.000000 1.000000
v -0.364057 4.214285 -0.264504 0.000000 0.000000 1.000000 1.000000
v -0.364057 2.500000 -0.264504 0.000000 0.000000 1.000000 1.000000
v -0.364057 5.310835 -0.264504 0.000000 0.000000 1.000000 1.000000
v -0.427975 2.500000 -0.139058 0.000000 0.000000 1.000000 1.000000
v -0.364057 6.785714 -0.264505 0.000000 0.000000 1.000000 1.000000
v -0.364057 8.083860 -0.264504 0.000000 0.000000 1.000000 1.000000
v -0.364057 9.357142 -0.264505 0.000000 0.000000 1.000000 1.000000
v -0.264503 9.785714 -0.364059 0.000000 0.000000 1.000000 1.000000
v -0.264503 11.499999 -0.364060 0.000000 0.000000 1.000000 1.000000
v -0.364058 11.499999 -0.264504 0.000000 0.000000 1.000000 1.000000
v -0.427975 11.499999 -0.139060 0.000000 0.000000 1.000000 1.000000
v -0.449999 2.500000 -0.000001 0.000000 0.000000 1.000000 1.000000
v -0.449999 11.499999 -0.000002 0.000000 0.000000 1.000000 1.000000
v -0.427975 11.499999 0.139056 0.000000 0.000000 1.000000 1.000000
v -0.427975 2.500000 0.139057 0.000000 0.000000 1.000000 1.000000
v -0.364057 8.499999 0.264502 0.000000 0.000000 1.000000 1.000000
v -0.364057 9.555604 0.264501 0.000000 0.000000 1.000000 1.000000
v -0.364057 11.499999 0.264501 0.000000 0.000000 1.000000 1.000000
v -0.264502 11.499999 0.364056 0.000000 0.000000 1.000000 1.000000
v -0.264503 9.357142 0.364056 0.000000 0.000000 1.000000 1.000000
v -0.139057 11.499999 0.427973 0.000000 0.000000 1.000000 1.000000
v -0.264502 7.978524 0.364056 0.000000 0.000000 1.000000 1.000000
v -0.364057 6.191536 0.264502 0.000000 0.000000 1.000000 1.000000
v -0.364057 4.642857 0.264502 0.000000 0.000000 1.000000 1.000000
v -0.364058 2.500000 0.264501 0.000000 0.000000 1.000000 1.000000
v -0.264503 6.785714 0.364056 0.000000 0.000000 1.000000 1.000000
v -0.264502 5.116726 0.364057 0.000000 0.000000 1.000000 1.000000
v -0.264503 3.785713 0.364057 0.000000 0.000000 1.000000 1.000000
v -0.264503 2.500000 0.364057 0.000000 0.000000 1.000000 1.000000
v -0.139057 2.500000 0.427975 0.000000 0.000000 1.000000 1.000000
v 0.000000 11.499999 0.449998 0.000000 0.000000 1.000000 1.000000
v 0.000001 2.500000 0.449999 0.000000 0.000000 1.000000 1.000000
v -0.470713 2.500000 0.470713 0.000000 0.000000 1.000000 1.000000
v -0.219666 2.500000 0.219666 0.000000 0.000000 1.000000 1.000000
v -0.400010 2.500000 0.500000 0.000000 0.000000 1.000000 1.000000
v -0.500000 2.500000 0.400010 0.000000 0.000000 1.000000 1.000000
v -0.186671 2.500000 0.233333 0.000000 0.000000 1.000000 1.000000
v -0.233333 2.500000 0.186671 0.000000 0.000000 1.000000 1.000000
v 0.400010 2.500000 0.500000 0.000000 0.000000 1.000000 1.000000
v -0.233333 2.500000 -0.186671 0.000000 0.000000 1.000000 1.000000
v 0.186671 2.500000 0.233333 0.000000 0.000000 1.000000 1.000000
v -0.500000 2.500000 -0.400010 0.000000 0.000000 1.000000 1.000000
v 0.219666 2.500000 0.219666 0.000000 0.000000 1.000000 1.000000
v -0.219666 2.500000 -0.219666 0.000000 0.000000 1.000000 1.000000
v 0.470714 2.500000 0.470713 0.000000 0.000000 1.000000 1.000000
v -0.470713 2.500000 -0.470714 0.000000 0.000000 1.000000 1.000000
v 0.500000 2.500000 0.400010 0.000000 0.000000 1.000000 1.000000
v -0.400010 2.500000 -0.500000 0.000000 0.000000 1.000000 1.000000
v 0.233333 2.500000 0.186671 0.000000 0.000000 1.000000 1.000000
v -0.186671 2.500000 -0.233333 0.000000 0.000000 1.000000 1.000000
v 0.500000 2.500000 -0.400010 0.000000 0.000000 1.000000 1.000000
v 0.186671 2.500000 -0.233333 0.000000 0.000000 1.000000 1.000000
v 0.233333 2.500000 -0.186671 0.000000 0.000000 1.000000 1.000000
v 0.400010 2.500000 -0.500000 0.000000 0.000000 1.000000 1.000000
v 0.219666 2.500000 -0.219666 0.000000 0.000000 1.000000 1.000000
v 0.470714 2.500000 -0.470714 0.000000 0.000000 1.000000 1.000000
vt -0.765625 -1.279297
vt -0.775391 -1.535156
vt -0.765625 -1.535156
vt -0.775391 -1.279297
vt -0.876953 -1.535156
vt -0.877441 -1.279297
vt -0.886719 -1.533203
vt -0.887207 -1.279297
vt -0.887207 -1.279297
vt -0.896484 -1.533203
vt -0.886719 -1.533203
vt -0.896973 -1.279297
vt -0.997559 -1.533203
vt -0.998047 -1.281250
vt -1.006836 -1.533203
vt -1.007812 -1.281250
vt -0.643555 -1.279297
vt -0.654297 -1.535156
vt -0.644531 -1.533203
vt -0.653320 -1.279297
vt -0.755859 -1.279297
vt -0.755859 -1.535156
vt -0.765625 -1.535156
vt -0.765625 -1.279297
vt -0.523926 -1.533203
vt -0.523438 -1.281250
vt -0.533691 -1.533203
vt -0.532715 -1.281250
vt -0.634277 -1.279297
vt -0.634277 -1.533203
vt -0.644531 -1.533203
vt -0.643555 -1.279297
vt 0.134277 0.958649
vt 0.134644 0.942108
vt 0.140137 0.959625
vt 0.140625 0.941284
vt 0.255127 0.941956
vt 0.254883 0.960510
vt 0.260986 0.959717
vt 0.260986 0.942810
vt 0.134644 0.942108
vt 0.134277 0.958649
vt 0.128906 0.941315
vt 0.128296 0.959259
vt 0.009636 0.958466
vt 0.010033 0.939270
vt 0.001523 0.938751
vt 0.001042 0.958801
vt 0.260986 0.942810
vt 0.266846 0.960571
vt 0.260986 0.959717
vt 0.266846 0.942017
vt 0.381592 0.941986
vt 0.381592 0.960327
vt 0.387451 0.959412
vt 0.387207 0.942902
vt 0.520996 0.960052
vt 0.511719 0.940491
vt 0.520508 0.939941
vt 0.512207 0.959717
vt 0.393311 0.960114
vt 0.393311 0.942169
vt 0.387207 0.942902
vt 0.387451 0.959412
vt 0.520996 0.960052
vt 0.515625 0.969513
vt 0.512207 0.959717
vt 0.507324 0.967407
vt 0.504883 0.981598
vt 0.496338 0.978485
vt 0.393311 0.960114
vt 0.404785 0.978622
vt 0.396484 0.967682
vt 0.387695 0.979675
vt 0.387451 0.966797
vt 0.387451 0.959412
vt 0.381592 0.960327
vt 0.378418 0.968079
vt 0.370361 0.979279
vt 0.278076 0.979156
vt 0.270020 0.968201
vt 0.266846 0.960571
vt 0.260742 0.979996
vt 0.260742 0.967133
vt 0.260986 0.959717
vt 0.254883 0.960510
vt 0.251709 0.968201
vt 0.243530 0.979340
vt 0.143188 0.967285
vt 0.151367 0.978302
vt 0.140137 0.959625
vt 0.134033 0.978836
vt 0.134155 0.966003
vt 0.134277 0.958649
vt 0.128296 0.959259
vt 0.125122 0.966858
vt 0.116943 0.977890
vt 0.009636 0.958466
vt 0.025589 0.977127
vt 0.006172 0.968262
vt 0.001042 0.958801
vt 0.014832 0.966125
vt 0.017136 0.980286
vt 0.511719 0.940491
vt 0.515137 0.930664
vt 0.520508 0.939941
vt 0.506348 0.932983
vt 0.503906 0.918823
vt 0.495605 0.922058
vt 0.393311 0.942169
vt 0.404297 0.923401
vt 0.396240 0.934509
vt 0.387207 0.922607
vt 0.387451 0.935486
vt 0.387207 0.942902
vt 0.381592 0.941986
vt 0.378418 0.934387
vt 0.370117 0.923157
vt 0.278320 0.923340
vt 0.270020 0.934265
vt 0.266846 0.942017
vt 0.260986 0.922485
vt 0.260986 0.935425
vt 0.260986 0.942810
vt 0.255127 0.941956
vt 0.251953 0.934326
vt 0.244019 0.923035
vt 0.143799 0.933594
vt 0.152100 0.922668
vt 0.140625 0.941284
vt 0.134888 0.921875
vt 0.134766 0.934753
vt 0.134644 0.942108
vt 0.128906 0.941315
vt 0.125854 0.933716
vt 0.117920 0.922485
vt 0.010033 0.939270
vt 0.026505 0.920959
vt 0.006840 0.929382
vt 0.001523 0.938751
vt 0.015442 0.931702
vt 0.018127 0.917603
vt -2.679688 1.424805
vt -2.679688 2.549805
vt -2.697266 1.424805
vt -2.697266 2.549805
vt -2.714844 1.585449
vt -2.714844 1.424805
vt -2.732422 1.531738
vt -2.732422 1.424805
vt -2.751953 1.424805
vt -2.732422 1.801758
vt -2.714844 1.795898
vt -2.714844 1.906738
vt -2.732422 1.906738
vt -2.714844 2.083984
vt -2.714844 2.281250
vt -2.714844 2.549805
vt -2.732422 2.549805
vt -2.732422 2.228516
vt -2.751953 2.549805
vt -2.732422 2.055664
vt -2.769531 2.549805
vt -2.769531 1.424805
vt -2.787109 1.424805
vt -2.787109 2.549805
vt -2.804688 1.799805
vt -2.804688 1.692871
vt -2.804688 1.424805
vt -2.804688 2.104492
vt -2.822266 1.639160
vt -2.822266 1.424805
vt -2.822266 1.754883
vt -2.839844 1.424805
vt -2.804688 2.334961
vt -2.804688 2.549805
vt -2.822266 2.549805
vt -2.822266 2.281250
vt -2.839844 2.549805
vt -2.822266 2.138672
vt -2.822266 1.906738
vt -2.857422 2.549805
vt -2.857422 1.424805
vt -2.875000 1.424805
vt -2.875000 2.549805
vt -2.892578 1.799805
vt -2.892578 1.692871
vt -2.892578 1.424805
vt -2.892578 2.088867
vt -2.910156 1.639160
vt -2.910156 1.424805
vt -2.910156 1.776367
vt -2.927734 1.424805
vt -2.910156 1.960449
vt -2.910156 2.122070
vt -2.910156 2.281250
vt -2.892578 2.334961
vt -2.892578 2.549805
vt -2.910156 2.549805
vt -2.927734 2.549805
vt -2.945312 1.424805
vt -2.945312 2.549805
vt -2.962891 2.549805
vt -2.962891 1.424805
vt -2.980469 2.174805
vt -2.980469 2.306641
vt -2.980469 2.549805
vt -2.998047 2.549805
vt -2.998047 2.281250
vt -3.015625 2.549805
vt -2.998047 2.109375
vt -2.980469 1.886230
vt -2.980469 1.692871
vt -2.980469 1.424805
vt -2.998047 1.960449
vt -2.998047 1.751953
vt -2.998047 1.585449
vt -2.998047 1.424805
vt -3.015625 1.424805
vt -3.033203 2.549805
vt -3.033203 1.424805
vt -3.474609 1.941406
vt -3.505859 1.909668
vt -3.470703 1.932617
vt -3.484375 1.944824
vt -3.503906 1.905762
vt -3.509766 1.911621
vt -3.470703 1.832520
vt -3.556641 1.911621
vt -3.503906 1.858887
vt -3.583984 1.944824
vt -3.505859 1.854980
vt -3.560547 1.909668
vt -3.474609 1.823730
vt -3.591797 1.941406
vt -3.484375 1.819824
vt -3.595703 1.932617
vt -3.509766 1.853027
vt -3.562500 1.905762
vt -3.583984 1.819824
vt -3.562500 1.858887
vt -3.556641 1.853027
vt -3.595703 1.832520
vt -3.560547 1.854980
vt -3.591797 1.823730
vt1 0.617188 1.009666
vt1 0.606934 0.754639
vt1 0.617188 0.754517
vt1 0.606934 1.009644
vt1 0.505859 0.754639
vt1 0.504883 1.009209
vt1 0.496094 0.754883
vt1 0.495361 1.009087
vt1 0.495361 1.009087
vt1 0.486084 0.755127
vt1 0.496094 0.755005
vt1 0.485596 1.008949
vt1 0.385254 0.755249
vt1 0.384521 1.008148
vt1 0.375488 0.755371
vt1 0.374756 1.008057
vt1 0.738770 1.009087
vt1 0.728516 0.754639
vt1 0.737793 0.754883
vt1 0.729004 1.009209
vt1 0.626953 1.009644
vt1 0.626953 0.754639
vt1 0.617188 0.754517
vt1 0.617188 1.009666
vt1 0.858398 0.755493
vt1 0.859375 1.008049
vt1 0.848633 0.755249
vt1 0.849609 1.008141
vt1 0.748535 1.008949
vt1 0.748047 0.755005
vt1 0.738281 0.755005
vt1 0.738770 1.009087
vt1 0.472168 0.461426
vt1 0.472168 0.455078
vt1 0.473145 0.461426
vt1 0.473145 0.455078
vt1 0.489502 0.455078
vt1 0.489258 0.461426
vt1 0.490234 0.461426
vt1 0.490234 0.455078
vt1 0.472168 0.455078
vt1 0.472168 0.461426
vt1 0.471436 0.455078
vt1 0.471436 0.461426
vt1 0.454346 0.461426
vt1 0.454590 0.454590
vt1 0.453369 0.454590
vt1 0.453125 0.461426
vt1 0.490234 0.455078
vt1 0.490967 0.461426
vt1 0.490234 0.461426
vt1 0.490967 0.455078
vt1 0.507324 0.455078
vt1 0.507324 0.461426
vt1 0.508301 0.461426
vt1 0.507812 0.455078
vt1 0.526855 0.461426
vt1 0.525879 0.455078
vt1 0.526855 0.455078
vt1 0.525879 0.461426
vt1 0.508789 0.461426
vt1 0.508789 0.455078
vt1 0.507812 0.455078
vt1 0.508301 0.461426
vt1 0.526855 0.461426
vt1 0.526367 0.462891
vt1 0.525879 0.461426
vt1 0.524902 0.462402
vt1 0.524902 0.464844
vt1 0.523438 0.464355
vt1 0.508789 0.461426
vt1 0.510742 0.464355
vt1 0.509277 0.462891
vt1 0.508301 0.464355
vt1 0.508301 0.462402
vt1 0.508301 0.461426
vt1 0.507324 0.461426
vt1 0.506836 0.462891
vt1 0.505859 0.464355
vt1 0.492676 0.464355
vt1 0.491455 0.462891
vt1 0.490967 0.461426
vt1 0.490234 0.464355
vt1 0.490234 0.462402
vt1 0.490234 0.461426
vt1 0.489258 0.461426
vt1 0.489014 0.462891
vt1 0.487793 0.464355
vt1 0.473389 0.462402
vt1 0.474609 0.464355
vt1 0.473145 0.461426
vt1 0.472168 0.464355
vt1 0.472168 0.462402
vt1 0.472168 0.461426
vt1 0.471436 0.461426
vt1 0.470947 0.462402
vt1 0.469727 0.463867
vt1 0.454346 0.461426
vt1 0.456787 0.463867
vt1 0.453857 0.462891
vt1 0.453125 0.461426
vt1 0.455322 0.462402
vt1 0.455566 0.464355
vt1 0.525879 0.455078
vt1 0.526367 0.453613
vt1 0.526855 0.455078
vt1 0.524902 0.453613
vt1 0.524414 0.451660
vt1 0.523438 0.452148
vt1 0.508789 0.455078
vt1 0.510254 0.452637
vt1 0.509277 0.454102
vt1 0.507812 0.452148
vt1 0.508301 0.454102
vt1 0.507812 0.455078
vt1 0.507324 0.455078
vt1 0.506836 0.454102
vt1 0.505371 0.452637
vt1 0.492676 0.452637
vt1 0.491455 0.454102
vt1 0.490967 0.455078
vt1 0.490234 0.452148
vt1 0.490234 0.454102
vt1 0.490234 0.455078
vt1 0.489502 0.455078
vt1 0.489014 0.454102
vt1 0.487793 0.452637
vt1 0.473633 0.454102
vt1 0.474609 0.452148
vt1 0.473145 0.455078
vt1 0.472168 0.452148
vt1 0.472168 0.454102
vt1 0.472168 0.455078
vt1 0.471436 0.455078
vt1 0.470947 0.454102
vt1 0.469971 0.452148
vt1 0.454590 0.454590
vt1 0.456787 0.452148
vt1 0.454102 0.453125
vt1 0.453369 0.454590
vt1 0.455322 0.453613
vt1 0.455566 0.451660
vt1 0.452881 0.451660
vt1 0.452881 0.593506
vt1 0.450684 0.451660
vt1 0.450684 0.593506
vt1 0.448242 0.472168
vt1 0.448242 0.451660
vt1 0.446045 0.465332
vt1 0.446045 0.451660
vt1 0.443848 0.451660
vt1 0.446045 0.499023
vt1 0.448242 0.498535
vt1 0.448242 0.512451
vt1 0.446045 0.512451
vt1 0.448242 0.534668
vt1 0.448242 0.559570
vt1 0.448242 0.593506
vt1 0.446045 0.593506
vt1 0.446045 0.552979
vt1 0.443848 0.593506
vt1 0.446045 0.531250
vt1 0.441650 0.593506
vt1 0.441650 0.451660
vt1 0.439453 0.451660
vt1 0.439453 0.593506
vt1 0.437256 0.499023
vt1 0.437256 0.485352
vt1 0.437256 0.451660
vt1 0.437256 0.537354
vt1 0.435059 0.478516
vt1 0.435059 0.451660
vt1 0.435059 0.493164
vt1 0.432861 0.451660
vt1 0.437256 0.566406
vt1 0.437256 0.593506
vt1 0.435059 0.593506
vt1 0.435059 0.559570
vt1 0.432861 0.593506
vt1 0.435059 0.541748
vt1 0.435059 0.512451
vt1 0.430664 0.593506
vt1 0.430664 0.451660
vt1 0.428467 0.451660
vt1 0.428467 0.593506
vt1 0.426025 0.499023
vt1 0.426025 0.485352
vt1 0.426025 0.451660
vt1 0.426025 0.535400
vt1 0.423828 0.478516
vt1 0.423828 0.451660
vt1 0.423828 0.496094
vt1 0.421631 0.451660
vt1 0.423828 0.519043
vt1 0.423828 0.539551
vt1 0.423828 0.559570
vt1 0.426025 0.566406
vt1 0.426025 0.593506
vt1 0.423828 0.593506
vt1 0.421631 0.593506
vt1 0.419434 0.451660
vt1 0.419434 0.593506
vt1 0.417236 0.593506
vt1 0.417236 0.451660
vt1 0.415039 0.546143
vt1 0.415039 0.562744
vt1 0.415039 0.593506
vt1 0.412842 0.593506
vt1 0.412842 0.559570
vt1 0.410645 0.593506
vt1 0.412842 0.537842
vt1 0.415039 0.509766
vt1 0.415039 0.485352
vt1 0.415039 0.451660
vt1 0.412842 0.519043
vt1 0.412842 0.493164
vt1 0.412842 0.472168
vt1 0.412842 0.451660
vt1 0.410645 0.451660
vt1 0.408447 0.593506
vt1 0.408447 0.451660
vt1 0.542480 0.466797
vt1 0.538574 0.462891
vt1 0.542969 0.465820
vt1 0.541504 0.467285
vt1 0.538574 0.462402
vt1 0.538086 0.463379
vt1 0.542969 0.453125
vt1 0.532227 0.463379
vt1 0.538574 0.456543
vt1 0.528809 0.467285
vt1 0.538574 0.456055
vt1 0.531738 0.462891
vt1 0.542480 0.452148
vt1 0.527344 0.466797
vt1 0.541504 0.451660
vt1 0.526855 0.465820
vt1 0.538086 0.456055
vt1 0.531250 0.462402
vt1 0.528809 0.451660
vt1 0.531250 0.456543
vt1 0.532227 0.456055
vt1 0.526855 0.453125
vt1 0.531738 0.456055
vt1 0.527344 0.452148
vn -0.921260 -0.000000 -0.385827
vn -1.000000 -0.000000 -0.031496
vn -0.921260 -0.000000 -0.385827
vn -1.000000 -0.000000 -0.031496
vn -1.000000 0.000000 0.031496
vn -1.000000 0.000000 0.031496
vn -0.921260 0.000000 0.385827
vn -0.921260 0.000000 0.385827
vn -0.385827 0.000000 0.921260
vn -0.031496 0.000000 1.000000
vn -0.385827 0.000000 0.921260
vn -0.031496 0.000000 1.000000
vn 0.031496 0.000000 1.000000
vn 0.031496 0.000000 1.000000
vn 0.385827 0.000000 0.921260
vn 0.385827 0.000000 0.921260
vn 0.385827 -0.000000 -0.921260
vn 0.031496 -0.000000 -1.000000
vn 0.385827 -0.000000 -0.921260
vn 0.031496 -0.000000 -1.000000
vn -0.031496 -0.000000 -1.000000
vn -0.031496 -0.000000 -1.000000
vn -0.385827 -0.000000 -0.921260
vn -0.385827 -0.000000 -0.921260
vn 0.921260 0.000000 0.385827
vn 0.921260 0.000000 0.385827
vn 1.000000 0.000000 0.031496
vn 1.000000 0.000000 0.031496
vn 1.000000 -0.000000 -0.031496
vn 1.000000 -0.000000 -0.031496
vn 0.921260 -0.000000 -0.385827
vn 0.921260 -0.000000 -0.385827
vn -0.921260 0.000000 0.385827
vn -0.921260 0.000000 0.385827
vn -1.000000 0.000000 0.023622
vn -1.000000 0.000000 0.023622
vn -1.000000 -0.000000 -0.023622
vn -1.000000 -0.000000 -0.023622
vn -0.921260 -0.000000 -0.385827
vn -0.921260 -0.000000 -0.385827
vn -0.385827 0.000000 0.921260
vn -0.385827 0.000000 0.921260
vn -0.023622 0.000000 1.000000
vn -0.023622 0.000000 1.000000
vn 0.023622 0.000000 1.000000
vn 0.023622 0.000000 1.000000
vn 0.385827 0.000000 0.921260
vn 0.385827 0.000000 0.921260
vn -0.385827 -0.000000 -0.921260
vn -0.023622 -0.000000 -1.000000
vn -0.385827 -0.000000 -0.921260
vn -0.023622 -0.000000 -1.000000
vn 0.023622 -0.000000 -1.000000
vn 0.023622 -0.000000 -1.000000
vn 0.385827 -0.000000 -0.921260
vn 0.385827 -0.000000 -0.921260
vn 0.921260 0.000000 0.385827
vn 1.000000 0.000000 0.023622
vn 0.921260 0.000000 0.385827
vn 1.000000 0.000000 0.023622
vn 1.000000 -0.000000 -0.023622
vn 1.000000 -0.000000 -0.023622
vn 0.921260 -0.000000 -0.385827
vn 0.921260 -0.000000 -0.385827
vn 0.409449 0.818898 0.409449
vn 0.212598 0.952756 0.212598
vn 0.692913 0.724409 0.031496
vn 0.488189 0.874016 0.007874
vn 0.000000 1.000000 -0.000000
vn 0.000000 1.000000 -0.000000
vn 0.692913 0.724409 -0.031496
vn 0.000000 1.000000 -0.000000
vn 0.488189 0.874016 -0.007874
vn 0.000000 1.000000 -0.000000
vn 0.212598 0.952756 -0.212599
vn 0.409449 0.818897 -0.409449
vn 0.031496 0.724409 -0.692913
vn 0.007874 0.874016 -0.488189
vn 0.000000 1.000000 -0.000000
vn 0.000000 1.000000 -0.000000
vn -0.007874 0.874016 -0.488189
vn -0.031496 0.724409 -0.692913
vn 0.000000 1.000000 -0.000000
vn -0.212598 0.952756 -0.212599
vn -0.409449 0.818897 -0.409449
vn -0.692913 0.724409 -0.031496
vn -0.488189 0.874016 -0.007874
vn 0.000000 1.000000 -0.000000
vn -0.488189 0.874016 0.007874
vn 0.000000 1.000000 -0.000000
vn -0.692913 0.724409 0.031496
vn 0.000000 1.000000 -0.000000
vn -0.212598 0.952756 0.212598
vn -0.409449 0.818898 0.409449
vn -0.031496 0.724409 0.692913
vn -0.007874 0.874016 0.488189
vn 0.000000 1.000000 -0.000000
vn 0.031496 0.724409 0.692913
vn 0.000000 1.000000 -0.000000
vn 0.212598 0.952756 0.212598
vn 0.409449 0.818898 0.409449
vn 0.007874 0.874016 0.488189
vn 0.000000 1.000000 -0.000000
vn 0.692913 -0.724409 0.031496
vn 0.212598 -0.952756 0.212599
vn 0.409449 -0.818897 0.409449
vn 0.488189 -0.874016 0.007874
vn 0.000000 -1.000000 0.000000
vn 0.000000 -1.000000 0.000000
vn 0.692913 -0.724409 -0.031496
vn 0.000000 -1.000000 0.000000
vn 0.488189 -0.874016 -0.007874
vn 0.000000 -1.000000 0.000000
vn 0.212598 -0.952756 -0.212598
vn 0.409449 -0.818898 -0.409449
vn 0.031496 -0.724409 -0.692913
vn 0.007874 -0.874016 -0.488189
vn 0.000000 -1.000000 0.000000
vn 0.000000 -1.000000 0.000000
vn -0.007874 -0.874016 -0.488189
vn -0.031496 -0.724409 -0.692913
vn 0.000000 -1.000000 0.000000
vn -0.212598 -0.952756 -0.212598
vn -0.409449 -0.818898 -0.409449
vn -0.692913 -0.724409 -0.031496
vn -0.488189 -0.874016 -0.007874
vn 0.000000 -1.000000 0.000000
vn -0.488189 -0.874016 0.007874
vn 0.000000 -1.000000 0.000000
vn -0.692913 -0.724409 0.031496
vn 0.000000 -1.000000 0.000000
vn -0.212598 -0.952756 0.212599
vn -0.409449 -0.818897 0.409449
vn -0.031496 -0.724409 0.692913
vn -0.007874 -0.874016 0.488189
vn 0.000000 -1.000000 0.000000
vn 0.031496 -0.724409 0.692913
vn 0.000000 -1.000000 0.000000
vn 0.212598 -0.952756 0.212599
vn 0.409449 -0.818897 0.409449
vn 0.007874 -0.874016 0.488189
vn 0.000000 -1.000000 0.000000
vn 0.000000 0.000000 1.000000
vn 0.000000 0.000000 1.000000
vn 0.307087 0.000000 0.952756
vn 0.307087 0.000000 0.952756
vn 0.590551 0.000000 0.811023
vn 0.590551 0.000000 0.811023
vn 0.811024 0.000000 0.590551
vn 0.811024 0.000000 0.590551
vn 0.952756 0.000000 0.307087
vn 0.811024 0.000000 0.590551
vn 0.590551 0.000000 0.811023
vn 0.590551 0.000000 0.811023
vn 0.811024 0.000000 0.590551
vn 0.590551 0.000000 0.811023
vn 0.590551 0.000000 0.811023
vn 0.590551 0.000000 0.811023
vn 0.811024 0.000000 0.590551
vn 0.811024 0.000000 0.590551
vn 0.952756 0.000000 0.307087
vn 0.811024 0.000000 0.590551
vn 1.000000 0.000000 0.000000
vn 1.000000 0.000000 0.000000
vn 0.952756 -0.000000 -0.307087
vn 0.952756 -0.000000 -0.307087
vn 0.811024 -0.000000 -0.590551
vn 0.811024 -0.000000 -0.590551
vn 0.811024 -0.000000 -0.590551
vn 0.811024 -0.000000 -0.590551
vn 0.590551 -0.000000 -0.811023
vn 0.590551 -0.000000 -0.811023
vn 0.590551 -0.000000 -0.811023
vn 0.307087 -0.000000 -0.952756
vn 0.811024 -0.000000 -0.590551
vn 0.811024 -0.000000 -0.590551
vn 0.590551 -0.000000 -0.811023
vn 0.590551 -0.000000 -0.811023
vn 0.307087 -0.000000 -0.952756
vn 0.590551 -0.000000 -0.811023
vn 0.590551 -0.000000 -0.811023
vn 0.000000 -0.000000 -1.000000
vn 0.000000 -0.000000 -1.000000
vn -0.307087 -0.000000 -0.952756
vn -0.307087 -0.000000 -0.952756
vn -0.590551 -0.000000 -0.811023
vn -0.590551 -0.000000 -0.811023
vn -0.590551 -0.000000 -0.811023
vn -0.590551 -0.000000 -0.811023
vn -0.811024 -0.000000 -0.590551
vn -0.811024 -0.000000 -0.590551
vn -0.811024 -0.000000 -0.590551
vn -0.952756 -0.000000 -0.307087
vn -0.811024 -0.000000 -0.590551
vn -0.811024 -0.000000 -0.590551
vn -0.811024 -0.000000 -0.590551
vn -0.590551 -0.000000 -0.811023
vn -0.590551 -0.000000 -0.811023
vn -0.811024 -0.000000 -0.590551
vn -0.952756 -0.000000 -0.307087
vn -1.000000 0.000000 0.000000
vn -1.000000 0.000000 0.000000
vn -0.952756 0.000000 0.307087
vn -0.952756 0.000000 0.307087
vn -0.811024 0.000000 0.590551
vn -0.811024 0.000000 0.590551
vn -0.811024 0.000000 0.590551
vn -0.590551 0.000000 0.811023
vn -0.590551 0.000000 0.811023
vn -0.307087 0.000000 0.952756
vn -0.590551 0.000000 0.811023
vn -0.811024 0.000000 0.590551
vn -0.811024 0.000000 0.590551
vn -0.811024 0.000000 0.590551
vn -0.590551 0.000000 0.811023
vn -0.590551 0.000000 0.811023
vn -0.590551 0.000000 0.811023
vn -0.590551 0.000000 0.811023
vn -0.307087 0.000000 0.952756
vn 0.000000 0.000000 1.000000
vn 0.000000 0.000000 1.000000
vn 0.000000 1.000000 -0.000000
vn 0.000000 1.000000 -0.000000
vn 0.000000 1.000000 -0.000000
vn 0.000000 1.000000 -0.000000
vn 0.000000 1.000000 -0.000000
vn 0.000000 1.000000 -0.000000
vn 0.000000 1.000000 -0.000000
vn 0.000000 1.000000 -0.000000
vn 0.000000 1.000000 -0.000000
vn 0.000000 1.000000 -0.000000
vn 0.000000 1.000000 -0.000000
vn 0.000000 1.000000 -0.000000
vn 0.000000 1.000000 -0.000000
vn 0.000000 1.000000 -0.000000
vn 0.000000 1.000000 -0.000000
vn 0.000000 1.000000 -0.000000
vn 0.000000 1.000000 -0.000000
vn 0.000000 1.000000 -0.000000
vn 0.000000 1.000000 -0.000000
vn 0.000000 1.000000 -0.000000
vn 0.000000 1.000000 -0.000000
vn 0.000000 1.000000 -0.000000
vn 0.000000 1.000000 -0.000000
vn 0.000000 1.000000 -0.000000
tan 0.000000 -0.948602 0.000000 1.000000
tan 0.000000 -1.000000 0.000000 1.000000
tan 0.000000 -0.921260 0.000000 1.000000
tan 0.000000 -1.000000 0.000000 1.000000
tan 0.000000 -1.000000 0.000000 1.000000
tan 0.000248 -1.000000 0.007874 1.000000
tan -0.003038 -0.924298 -0.007254 1.000000
tan 0.006076 -0.948602 0.014508 1.000000
tan 0.014508 -0.948602 0.006076 1.000000
tan -0.007874 -1.000000 -0.000248 1.000000
tan -0.014508 -0.921260 -0.006076 1.000000
tan 0.007874 -1.000000 0.000248 1.000000
tan -0.007874 -1.000000 0.000248 1.000000
tan 0.007874 -1.000000 -0.000248 1.000000
tan -0.007254 -0.924298 0.003038 1.000000
tan 0.007254 -0.948602 -0.003038 1.000000
tan 0.014508 -0.948602 0.006076 1.000000
tan 0.000000 -1.000000 0.000000 1.000000
tan -0.014508 -0.921260 -0.006076 1.000000
tan 0.007874 -1.000000 0.000248 1.000000
tan 0.000000 -1.000000 0.000000 1.000000
tan 0.000000 -1.000000 0.000000 1.000000
tan -0.007254 -0.924298 0.003038 1.000000
tan 0.000000 -0.948602 0.000000 1.000000
tan 0.006076 -0.921260 -0.014508 1.000000
tan -0.003038 -0.948602 0.007254 1.000000
tan 0.000248 -1.000000 -0.007874 1.000000
tan -0.000248 -1.000000 0.007874 1.000000
tan 0.000248 -1.000000 0.007874 1.000000
tan -0.000248 -1.000000 -0.007874 1.000000
tan -0.003038 -0.924298 -0.007254 1.000000
tan 0.006076 -0.948602 0.014508 1.000000
tan 0.142786 -0.880278 0.340939 1.000000
tan -0.082026 -0.926840 -0.195858 1.000000
tan 0.003348 -0.992126 0.141732 1.000000
tan -0.002790 -0.992126 -0.118110 1.000000
tan -0.002790 -0.992126 0.118110 1.000000
tan 0.002604 -0.992126 -0.110236 1.000000
tan 0.078988 -0.926840 -0.188604 1.000000
tan -0.124558 -0.897824 0.297415 1.000000
tan 0.282907 -0.905078 0.118482 1.000000
tan -0.152334 -0.934094 -0.063798 1.000000
tan 0.118110 -0.992126 0.002790 1.000000
tan -0.086614 -1.000000 -0.002046 1.000000
tan -0.015748 -1.000000 0.000372 1.000000
tan 0.094488 -0.992126 -0.002232 1.000000
tan 0.137826 -0.934094 -0.057722 1.000000
tan -0.101556 -0.941348 0.042532 1.000000
tan 0.188604 -0.926840 -0.078988 1.000000
tan -0.110236 -0.992126 0.002604 1.000000
tan -0.297415 -0.897824 0.124558 1.000000
tan 0.118110 -0.992126 -0.002790 1.000000
tan -0.118110 -0.992126 -0.002790 1.000000
tan 0.141732 -0.992126 0.003348 1.000000
tan 0.224874 -0.919586 0.094178 1.000000
tan -0.319177 -0.887532 -0.133672 1.000000
tan 0.030380 -0.941348 -0.072540 1.000000
tan -0.001674 -1.000000 0.070866 1.000000
tan -0.066836 -0.934094 0.159588 1.000000
tan 0.001116 -1.000000 -0.047244 1.000000
tan -0.001860 -1.000000 -0.078740 1.000000
tan 0.002976 -0.992126 0.125984 1.000000
tan 0.075950 -0.926840 0.181350 1.000000
tan -0.103292 -0.912332 -0.246636 1.000000
tan 0.757641 -0.551305 0.344969 1.000000
tan 0.926096 -0.259470 0.236716 1.000000
tan 0.723665 -0.694401 0.050592 1.000000
tan 0.873954 -0.488499 0.038254 1.000000
tan 1.000000 0.000000 0.055118 1.000000
tan 1.000000 0.000000 0.007874 1.000000
tan 0.716225 -0.691177 -0.140120 1.000000
tan 1.000000 -0.000000 -0.078740 1.000000
tan 0.866948 -0.485523 -0.142290 1.000000
tan 0.732283 -0.000000 -0.677165 1.000000
tan 0.690185 -0.301321 -0.660177 1.000000
tan 0.586769 -0.580321 -0.573873 1.000000
tan 0.151280 -0.685969 -0.710273 1.000000
tan 0.166780 -0.481865 -0.860004 1.000000
tan 0.110236 -0.000000 -0.992126 1.000000
tan -0.086614 -0.000000 -0.992126 1.000000
tan -0.149172 -0.481741 -0.860066 1.000000
tan -0.151280 -0.691425 -0.715977 1.000000
tan -0.700787 -0.000000 -0.716535 1.000000
tan -0.675181 -0.301321 -0.675181 1.000000
tan -0.580321 -0.577097 -0.573873 1.000000
tan -0.716225 -0.691177 -0.140120 1.000000
tan -0.860066 -0.481741 -0.149172 1.000000
tan -0.992126 -0.000000 -0.094488 1.000000
tan -0.860004 -0.481865 0.166780 1.000000
tan -0.992126 0.000000 0.110236 1.000000
tan -0.710273 -0.686217 0.156984 1.000000
tan -0.685039 0.000000 0.724409 1.000000
tan -0.652675 -0.299646 0.690185 1.000000
tan -0.564201 -0.580321 0.596441 1.000000
tan -0.134416 -0.690929 0.716225 1.000000
tan -0.142290 -0.485523 0.866948 1.000000
tan -0.078740 0.000000 1.000000 1.000000
tan 0.050592 -0.694401 0.723665 1.000000
tan 0.007874 0.000000 1.000000 1.000000
tan 0.236716 -0.259470 0.926096 1.000000
tan 0.344969 -0.551305 0.757641 1.000000
tan 0.038254 -0.488499 0.873954 1.000000
tan 0.055118 0.000000 1.000000 1.000000
tan -0.723913 -0.694153 -0.039432 1.000000
tan -0.933598 -0.256123 -0.214210 1.000000
tan -0.764089 -0.548081 -0.332073 1.000000
tan -0.874016 -0.488375 -0.020646 1.000000
tan -1.000000 -0.000000 -0.039370 1.000000
tan -1.000000 0.000000 0.007874 1.000000
tan -0.716225 -0.691177 0.140120 1.000000
tan -0.992126 0.000000 0.102362 1.000000
tan -0.860066 -0.481741 0.149172 1.000000
tan -0.716535 0.000000 0.692913 1.000000
tan -0.682683 -0.301320 0.667679 1.000000
tan -0.586769 -0.580321 0.573873 1.000000
tan -0.151280 -0.691425 0.715977 1.000000
tan -0.156054 -0.481803 0.860066 1.000000
tan -0.102362 0.000000 0.992126 1.000000
tan 0.086614 0.000000 0.992126 1.000000
tan 0.149172 -0.481741 0.860066 1.000000
tan 0.145576 -0.691177 0.715977 1.000000
tan 0.700787 0.000000 0.716535 1.000000
tan 0.675181 -0.301320 0.675181 1.000000
tan 0.573873 -0.577097 0.580321 1.000000
tan 0.715977 -0.691425 0.151280 1.000000
tan 0.860066 -0.481803 0.156054 1.000000
tan 0.992126 0.000000 0.110236 1.000000
tan 0.860066 -0.481803 -0.156054 1.000000
tan 0.992126 -0.000000 -0.086614 1.000000
tan 0.715977 -0.691425 -0.151280 1.000000
tan 0.708661 -0.000000 -0.700787 1.000000
tan 0.667679 -0.299647 -0.675181 1.000000
tan 0.580321 -0.580321 -0.580321 1.000000
tan 0.145576 -0.691177 -0.715977 1.000000
tan 0.156054 -0.481803 -0.860066 1.000000
tan 0.110236 -0.000000 -0.992126 1.000000
tan -0.039432 -0.694153 -0.723913 1.000000
tan 0.015748 -0.000000 -1.000000 1.000000
tan -0.214210 -0.256123 -0.933598 1.000000
tan -0.332073 -0.548081 -0.764089 1.000000
tan -0.020646 -0.488375 -0.874016 1.000000
tan -0.031496 -0.000000 -1.000000 1.000000
tan 0.000000 -1.000000 0.000000 1.000000
tan 0.000000 -1.000000 0.000000 1.000000
tan 0.000000 -0.952756 0.000000 1.000000
tan 0.000000 -0.952756 0.000000 1.000000
tan 0.000000 -0.969186 0.000000 1.000000
tan 0.000000 -0.879038 0.000000 1.000000
tan 0.000000 -0.969186 0.000000 1.000000
tan 0.000000 -0.908116 0.000000 1.000000
tan 0.000000 -0.952756 0.000000 1.000000
tan 0.000000 -0.843574 0.000000 1.000000
tan 0.000000 -0.848224 0.000000 1.000000
tan 0.000000 -0.969186 0.000000 1.000000
tan 0.000000 -0.969186 0.000000 1.000000
tan 0.000000 -0.843574 0.000000 1.000000
tan 0.000000 -0.969186 0.000000 1.000000
tan 0.000000 -0.848224 0.000000 1.000000
tan 0.000000 -0.843574 0.000000 1.000000
tan 0.000000 -0.969186 0.000000 1.000000
tan 0.000000 -0.952756 0.000000 1.000000
tan 0.000000 -0.848224 0.000000 1.000000
tan 0.000000 -1.000000 0.000000 1.000000
tan 0.000000 -1.000000 0.000000 1.000000
tan 0.000000 -0.952756 0.000000 1.000000
tan 0.000000 -0.952756 0.000000 1.000000
tan 0.000000 -0.969186 0.000000 1.000000
tan 0.000000 -0.908116 0.000000 1.000000
tan 0.000000 -0.852874 0.000000 1.000000
tan 0.000000 -0.829624 0.000000 1.000000
tan 0.000000 -0.969186 0.000000 1.000000
tan 0.000000 -0.862174 0.000000 1.000000
tan 0.000000 -0.860438 0.000000 1.000000
tan 0.000000 -0.952756 0.000000 1.000000
tan 0.000000 -0.969186 0.000000 1.000000
tan 0.000000 -0.862174 0.000000 1.000000
tan 0.000000 -0.852874 0.000000 1.000000
tan 0.000000 -0.969186 0.000000 1.000000
tan 0.000000 -0.952756 0.000000 1.000000
tan 0.000000 -0.834274 0.000000 1.000000
tan 0.000000 -0.969186 0.000000 1.000000
tan 0.000000 -1.000000 0.000000 1.000000
tan 0.000000 -1.000000 0.000000 1.000000
tan 0.000000 -0.952756 0.000000 1.000000
tan 0.000000 -0.952756 0.000000 1.000000
tan 0.000000 -0.969186 0.000000 1.000000
tan 0.000000 -0.908116 0.000000 1.000000
tan 0.000000 -0.852874 0.000000 1.000000
tan 0.000000 -0.834274 0.000000 1.000000
tan 0.000000 -0.969186 0.000000 1.000000
tan 0.000000 -0.862174 0.000000 1.000000
tan 0.000000 -0.852874 0.000000 1.000000
tan 0.000000 -0.952756 0.000000 1.000000
tan 0.000000 -0.969186 0.000000 1.000000
tan 0.000000 -0.852874 0.000000 1.000000
tan 0.000000 -0.969186 0.000000 1.000000
tan 0.000000 -0.969186 0.000000 1.000000
tan 0.000000 -0.862174 0.000000 1.000000
tan 0.000000 -0.852874 0.000000 1.000000
tan 0.000000 -0.952756 0.000000 1.000000
tan 0.000000 -1.000000 0.000000 1.000000
tan 0.000000 -1.000000 0.000000 1.000000
tan 0.000000 -0.952756 0.000000 1.000000
tan 0.000000 -0.952756 0.000000 1.000000
tan 0.000000 -0.969186 0.000000 1.000000
tan 0.000000 -0.895902 0.000000 1.000000
tan 0.000000 -0.862174 0.000000 1.000000
tan 0.000000 -0.852874 0.000000 1.000000
tan 0.000000 -0.969186 0.000000 1.000000
tan 0.000000 -0.952756 0.000000 1.000000
tan 0.000000 -0.852874 0.000000 1.000000
tan 0.000000 -0.829624 0.000000 1.000000
tan 0.000000 -0.969186 0.000000 1.000000
tan 0.000000 -0.852874 0.000000 1.000000
tan 0.000000 -0.969186 0.000000 1.000000
tan 0.000000 -0.852874 0.000000 1.000000
tan 0.000000 -0.969186 0.000000 1.000000
tan 0.000000 -0.879038 0.000000 1.000000
tan 0.000000 -0.952756 0.000000 1.000000
tan 0.000000 -1.000000 0.000000 1.000000
tan 0.000000 -1.000000 0.000000 1.000000
tan 1.000000 0.000000 0.000000 1.000000
tan 1.000000 0.000000 0.000000 1.000000
tan 1.000000 0.000000 0.000000 1.000000
tan 1.000000 0.000000 0.000000 1.000000
tan 1.000000 0.000000 0.000000 1.000000
tan 1.000000 0.000000 0.000000 1.000000
tan 1.000000 0.000000 0.000000 1.000000
tan 1.000000 0.000000 0.000000 1.000000
tan 1.000000 0.000000 0.000000 1.000000
tan 1.000000 0.000000 0.000000 1.000000
tan 1.000000 0.000000 0.000000 1.000000
tan 1.000000 0.000000 0.000000 1.000000
tan 1.000000 0.000000 0.000000 1.000000
tan 1.000000 0.000000 0.000000 1.000000
tan 1.000000 0.000000 0.000000 1.000000
tan 1.000000 0.000000 0.000000 1.000000
tan 1.000000 0.000000 0.000000 1.000000
tan 1.000000 0.000000 0.000000 1.000000
tan 1.000000 0.000000 0.000000 1.000000
tan 1.000000 0.000000 0.000000 1.000000
tan 1.000000 0.000000 0.000000 1.000000
tan 1.000000 0.000000 0.000000 1.000000
tan 1.000000 0.000000 0.000000 1.000000
tan 1.000000 0.000000 0.000000 1.000000
f 3/3/3 2/2/2 1/1/1
f 4/4/4 1/1/1 2/2/2
f 2/2/2 5/5/5 4/4/4
f 6/6/6 4/4/4 5/5/5
f 5/5/5 7/7/7 6/6/6
f 8/8/8 6/6/6 7/7/7
f 11/11/11 10/10/10 9/9/9
f 12/12/12 9/9/9 10/10/10
f 12/12/12 10/10/10 13/13/13
f 14/14/14 12/12/12 13/13/13
f 13/13/13 15/15/15 14/14/14
f 16/16/16 14/14/14 15/15/15
f 19/19/19 18/18/18 17/17/17
f 17/17/17 18/18/18 20/20/20
f 18/18/18 21/21/21 20/20/20
f 21/21/21 18/18/18 22/22/22
f 22/22/22 23/23/23 21/21/21
f 21/21/21 23/23/23 24/24/24
f 27/27/27 26/26/26 25/25/25
f 26/26/26 27/27/27 28/28/28
f 28/28/28 27/27/27 29/29/29
f 29/29/29 27/27/27 30/30/30
f 31/31/31 29/29/29 30/30/30
f 29/29/29 31/31/31 32/32/32
f 35/35/35 34/34/34 33/33/33
f 34/34/34 35/35/35 36/36/36
f 36/36/36 35/35/35 37/37/37
f 37/37/37 35/35/35 38/38/38
f 39/39/39 37/37/37 38/38/38
f 37/37/37 39/39/39 40/40/40
f 43/43/43 42/42/42 41/41/41
f 44/44/44 42/42/42 43/43/43
f 43/43/43 45/45/45 44/44/44
f 45/45/45 43/43/43 46/46/46
f 47/47/47 45/45/45 46/46/46
f 48/48/48 45/45/45 47/47/47
f 51/51/51 50/50/50 49/49/49
f 52/52/52 49/49/49 50/50/50
f 50/50/50 53/53/53 52/52/52
f 53/53/53 50/50/50 54/54/54
f 55/55/55 53/53/53 54/54/54
f 56/56/56 53/53/53 55/55/55
f 59/59/59 58/58/58 57/57/57
f 60/60/60 57/57/57 58/58/58
f 60/60/60 58/58/58 61/61/61
f 61/61/61 58/58/58 62/62/62
f 62/62/62 63/63/63 61/61/61
f 64/64/64 61/61/61 63/63/63
f 67/67/67 66/66/66 65/65/65
f 68/68/68 66/66/66 67/67/67
f 68/68/68 69/69/69 66/66/66
f 70/70/70 69/69/69 68/68/68
f 67/67/67 71/71/71 68/68/68
f 70/70/70 68/68/68 72/72/72
f 72/72/72 68/68/68 73/73/73
f 73/73/73 68/68/68 71/71/71
f 72/72/72 73/73/73 74/74/74
f 73/73/73 71/71/71 75/75/75
f 75/75/75 74/74/74 73/73/73
f 76/76/76 75/75/75 71/71/71
f 77/77/77 75/75/75 76/76/76
f 75/75/75 78/78/78 74/74/74
f 77/77/77 78/78/78 75/75/75
f 79/79/79 74/74/74 78/78/78
f 79/79/79 78/78/78 80/80/80
f 78/78/78 77/77/77 81/81/81
f 80/80/80 78/78/78 81/81/81
f 81/81/81 77/77/77 82/82/82
f 80/80/80 81/81/81 83/83/83
f 81/81/81 82/82/82 84/84/84
f 84/84/84 83/83/83 81/81/81
f 85/85/85 84/84/84 82/82/82
f 84/84/84 85/85/85 86/86/86
f 83/83/83 84/84/84 87/87/87
f 86/86/86 87/87/87 84/84/84
f 83/83/83 87/87/87 88/88/88
f 87/87/87 86/86/86 89/89/89
f 87/87/87 89/89/89 88/88/88
f 90/90/90 88/88/88 89/89/89
f 91/91/91 89/89/89 86/86/86
f 90/90/90 89/89/89 92/92/92
f 89/89/89 91/91/91 93/93/93
f 93/93/93 92/92/92 89/89/89
f 94/94/94 93/93/93 91/91/91
f 94/94/94 95/95/95 93/93/93
f 96/96/96 92/92/92 93/93/93
f 96/96/96 93/93/93 95/95/95
f 92/92/92 96/96/96 97/97/97
f 95/95/95 98/98/98 96/96/96
f 97/97/97 96/96/96 99/99/99
f 101/101/101 100/100/100 98/98/98
f 102/102/102 99/99/99 96/96/96
f 102/102/102 96/96/96 98/98/98
f 102/102/102 98/98/98 100/100/100
f 99/99/99 102/102/102 103/103/103
f 100/100/100 103/103/103 102/102/102
f 106/106/106 105/105/105 104/104/104
f 107/107/107 104/104/104 105/105/105
f 105/105/105 108/108/108 107/107/107
f 109/109/109 107/107/107 108/108/108
f 104/104/104 107/107/107 110/110/110
f 109/109/109 111/111/111 107/107/107
f 111/111/111 112/112/112 107/107/107
f 112/112/112 110/110/110 107/107/107
f 113/113/113 112/112/112 111/111/111
f 110/110/110 112/112/112 114/114/114
f 114/114/114 112/112/112 113/113/113
f 114/114/114 115/115/115 110/110/110
f 115/115/115 114/114/114 116/116/116
f 114/114/114 113/113/113 117/117/117
f 117/117/117 116/116/116 114/114/114
f 118/118/118 117/117/117 113/113/113
f 118/118/118 119/119/119 117/117/117
f 117/117/117 120/120/120 116/116/116
f 119/119/119 120/120/120 117/117/117
f 121/121/121 116/116/116 120/120/120
f 122/122/122 120/120/120 119/119/119
f 121/121/121 120/120/120 123/123/123
f 120/120/120 122/122/122 123/123/123
f 121/121/121 123/123/123 124/124/124
f 124/124/124 123/123/123 125/125/125
f 123/123/123 122/122/122 126/126/126
f 126/126/126 125/125/125 123/123/123
f 127/127/127 126/126/126 122/122/122
f 126/126/126 128/128/128 125/125/125
f 126/126/126 127/127/127 128/128/128
f 129/129/129 128/128/128 127/127/127
f 130/130/130 125/125/125 128/128/128
f 128/128/128 129/129/129 131/131/131
f 128/128/128 132/132/132 130/130/130
f 128/128/128 131/131/131 132/132/132
f 130/130/130 132/132/132 133/133/133
f 133/133/133 132/132/132 134/134/134
f 132/132/132 131/131/131 135/135/135
f 135/135/135 134/134/134 132/132/132
f 136/136/136 135/135/135 131/131/131
f 135/135/135 137/137/137 134/134/134
f 136/136/136 138/138/138 135/135/135
f 140/140/140 137/137/137 139/139/139
f 141/141/141 135/135/135 138/138/138
f 141/141/141 137/137/137 135/135/135
f 141/141/141 139/139/139 137/137/137
f 138/138/138 142/142/142 141/141/141
f 139/139/139 141/141/141 142/142/142
f 145/145/145 144/144/144 143/143/143
f 146/146/146 144/144/144 145/145/145
f 147/147/147 146/146/146 145/145/145
f 147/147/147 145/145/145 148/148/148
f 148/148/148 149/149/149 147/147/147
f 149/149/149 148/148/148 150/150/150
f 151/151/151 149/149/149 150/150/150
f 152/152/152 147/147/147 149/149/149
f 151/151/151 152/152/152 149/149/149
f 147/147/147 152/152/152 153/153/153
f 153/153/153 146/146/146 147/147/147
f 153/153/153 152/152/152 154/154/154
f 154/154/154 146/146/146 153/153/153
f 155/155/155 154/154/154 152/152/152
f 151/151/151 155/155/155 152/152/152
f 156/156/156 146/146/146 154/154/154
f 154/154/154 155/155/155 156/156/156
f 157/157/157 146/146/146 156/156/156
f 158/158/158 146/146/146 157/157/157
f 157/157/157 159/159/159 158/158/158
f 159/159/159 157/157/157 160/160/160
f 156/156/156 160/160/160 157/157/157
f 161/161/161 159/159/159 160/160/160
f 160/160/160 156/156/156 162/162/162
f 161/161/161 160/160/160 162/162/162
f 162/162/162 156/156/156 155/155/155
f 161/161/161 162/162/162 155/155/155
f 155/155/155 151/151/151 161/161/161
f 163/163/163 161/161/161 151/151/151
f 151/151/151 164/164/164 163/163/163
f 165/165/165 163/163/163 164/164/164
f 163/163/163 165/165/165 166/166/166
f 167/167/167 166/166/166 165/165/165
f 165/165/165 168/168/168 167/167/167
f 165/165/165 169/169/169 168/168/168
f 166/166/166 167/167/167 170/170/170
f 169/169/169 171/171/171 168/168/168
f 169/169/169 172/172/172 171/171/171
f 168/168/168 173/173/173 167/167/167
f 168/168/168 171/171/171 173/173/173
f 167/167/167 173/173/173 170/170/170
f 172/172/172 174/174/174 171/171/171
f 171/171/171 174/174/174 173/173/173
f 166/166/166 170/170/170 175/175/175
f 166/166/166 175/175/175 176/176/176
f 175/175/175 177/177/177 176/176/176
f 175/175/175 178/178/178 177/177/177
f 170/170/170 178/178/178 175/175/175
f 178/178/178 179/179/179 177/177/177
f 170/170/170 180/180/180 178/178/178
f 180/180/180 179/179/179 178/178/178
f 170/170/170 173/173/173 181/181/181
f 170/170/170 181/181/181 180/180/180
f 181/181/181 179/179/179 180/180/180
f 173/173/173 174/174/174 181/181/181
f 181/181/181 174/174/174 179/179/179
f 174/174/174 182/182/182 179/179/179
f 174/174/174 183/183/183 182/182/182
f 183/183/183 184/184/184 182/182/182
f 182/182/182 184/184/184 185/185/185
f 184/184/184 186/186/186 185/185/185
f 184/184/184 187/187/187 186/186/186
f 184/184/184 188/188/188 187/187/187
f 185/185/185 186/186/186 189/189/189
f 188/188/188 190/190/190 187/187/187
f 188/188/188 191/191/191 190/190/190
f 187/187/187 192/192/192 186/186/186
f 187/187/187 190/190/190 192/192/192
f 186/186/186 192/192/192 189/189/189
f 191/191/191 193/193/193 190/190/190
f 190/190/190 193/193/193 192/192/192
f 189/189/189 192/192/192 194/194/194
f 192/192/192 193/193/193 194/194/194
f 189/189/189 194/194/194 195/195/195
f 194/194/194 193/193/193 195/195/195
f 189/189/189 195/195/195 196/196/196
f 195/195/195 193/193/193 196/196/196
f 185/185/185 189/189/189 197/197/197
f 189/189/189 196/196/196 197/197/197
f 185/185/185 197/197/197 198/198/198
f 197/197/197 199/199/199 198/198/198
f 197/197/197 196/196/196 199/199/199
f 196/196/196 200/200/200 199/199/199
f 200/200/200 196/196/196 193/193/193
f 193/193/193 201/201/201 200/200/200
f 202/202/202 200/200/200 201/201/201
f 201/201/201 203/203/203 202/202/202
f 203/203/203 201/201/201 204/204/204
f 204/204/204 205/205/205 203/203/203
f 206/206/206 203/203/203 205/205/205
f 207/207/207 203/203/203 206/206/206
f 206/206/206 208/208/208 207/207/207
f 208/208/208 206/206/206 209/209/209
f 210/210/210 208/208/208 209/209/209
f 209/209/209 206/206/206 211/211/211
f 205/205/205 211/211/211 206/206/206
f 210/210/210 209/209/209 211/211/211
f 205/205/205 204/204/204 212/212/212
f 211/211/211 205/205/205 212/212/212
f 212/212/212 204/204/204 213/213/213
f 213/213/213 204/204/204 214/214/214
f 211/211/211 212/212/212 215/215/215
f 210/210/210 211/211/211 215/215/215
f 213/213/213 216/216/216 212/212/212
f 215/215/215 212/212/212 216/216/216
f 214/214/214 216/216/216 213/213/213
f 210/210/210 215/215/215 216/216/216
f 216/216/216 214/214/214 217/217/217
f 210/210/210 216/216/216 217/217/217
f 217/217/217 214/214/214 218/218/218
f 219/219/219 217/217/217 218/218/218
f 210/210/210 217/217/217 219/219/219
f 220/220/220 210/210/210 219/219/219
f 220/220/220 219/219/219 221/221/221
f 224/224/224 223/223/223 222/222/222
f 222/222/222 223/223/223 225/225/225
f 223/223/223 224/224/224 226/226/226
f 227/227/227 225/225/225 223/223/223
f 226/226/226 224/224/224 228/228/228
f 227/227/227 229/229/229 225/225/225
f 230/230/230 226/226/226 228/228/228
f 229/229/229 231/231/231 225/225/225
f 230/230/230 228/228/228 232/232/232
f 233/233/233 231/231/231 229/229/229
f 234/234/234 232/232/232 228/228/228
f 231/231/231 233/233/233 235/235/235
f 236/236/236 232/232/232 234/234/234
f 235/235/235 233/233/233 237/237/237
f 238/238/238 232/232/232 236/236/236
f 239/239/239 237/237/237 233/233/233
f 238/238/238 236/236/236 240/240/240
f 239/239/239 241/241/241 237/237/237
f 242/242/242 238/238/238 240/240/240
f 241/241/241 243/243/243 237/237/237
f 242/242/242 240/240/240 244/244/244
f 244/244/244 243/243/243 241/241/241
f 245/245/245 244/244/244 240/240/240
f 245/245/245 243/243/243 244/244/244
