mtllib SM_Paver_LOD3@000002909DC2EB00.mtl
g SM_Paver_LOD3@000002909DC2EB00
#Vertices 48
#Indices 222
#Section 0 Offset 0 NumIndices 222 MaterialIndex 0 MI_Paver
v -0.280912 0.122383 0.321011 1.000000 1.000000 1.000000 1.000000
v -0.270839 0.125572 0.214223 1.000000 1.000000 1.000000 1.000000
v 0.067833 0.123718 0.177540 1.000000 1.000000 1.000000 1.000000
v 0.059741 0.120323 0.442889 1.000000 1.000000 1.000000 1.000000
v -0.425799 0.107035 0.460664 1.000000 1.000000 1.000000 1.000000
v -0.365322 0.122956 0.368215 1.000000 1.000000 1.000000 1.000000
v 0.059788 0.106416 0.479624 1.000000 1.000000 1.000000 1.000000
v 0.317374 0.101416 0.481562 1.000000 1.000000 1.000000 1.000000
v 0.449343 0.065483 0.483570 1.000000 1.000000 1.000000 1.000000
v -0.386501 0.052956 0.496733 1.000000 1.000000 1.000000 1.000000
v 0.458816 -0.049717 0.495258 1.000000 1.000000 1.000000 1.000000
v -0.373053 -0.087452 0.488249 1.000000 1.000000 1.000000 1.000000
v 0.447167 -0.084947 0.490139 1.000000 1.000000 1.000000 1.000000
v -0.502341 0.042595 0.399333 1.000000 1.000000 1.000000 1.000000
v -0.493263 0.112767 0.352834 1.000000 1.000000 1.000000 1.000000
v -0.365322 0.122956 0.368215 1.000000 1.000000 1.000000 1.000000
v -0.487581 0.105381 -0.391025 1.000000 1.000000 1.000000 1.000000
v -0.270839 0.125572 0.214223 1.000000 1.000000 1.000000 1.000000
v -0.280912 0.122383 0.321011 1.000000 1.000000 1.000000 1.000000
v -0.383105 0.113689 -0.397535 1.000000 1.000000 1.000000 1.000000
v 0.387322 0.121275 -0.401573 1.000000 1.000000 1.000000 1.000000
v 0.067833 0.123718 0.177540 1.000000 1.000000 1.000000 1.000000
v -0.405486 0.044027 -0.487109 1.000000 1.000000 1.000000 1.000000
v 0.436119 0.123104 0.422389 1.000000 1.000000 1.000000 1.000000
v 0.059741 0.120323 0.442889 1.000000 1.000000 1.000000 1.000000
v 0.317374 0.101416 0.481562 1.000000 1.000000 1.000000 1.000000
v 0.059788 0.106416 0.479624 1.000000 1.000000 1.000000 1.000000
v 0.449343 0.065483 0.483570 1.000000 1.000000 1.000000 1.000000
v 0.498613 0.062651 0.405831 1.000000 1.000000 1.000000 1.000000
v 0.458816 -0.049717 0.495258 1.000000 1.000000 1.000000 1.000000
v 0.479215 0.089479 -0.417535 1.000000 1.000000 1.000000 1.000000
v 0.499988 -0.064918 0.408666 1.000000 1.000000 1.000000 1.000000
v 0.496147 -0.066582 -0.417678 1.000000 1.000000 1.000000 1.000000
v 0.474716 -0.112852 0.403441 1.000000 1.000000 1.000000 1.000000
v 0.420921 -0.119928 0.445502 1.000000 1.000000 1.000000 1.000000
v 0.460546 -0.110096 -0.427814 1.000000 1.000000 1.000000 1.000000
v 0.429207 -0.071027 -0.497721 1.000000 1.000000 1.000000 1.000000
v 0.381534 -0.121903 -0.410155 1.000000 1.000000 1.000000 1.000000
v -0.406796 -0.122465 0.407074 1.000000 1.000000 1.000000 1.000000
v -0.487880 -0.083689 0.398650 1.000000 1.000000 1.000000 1.000000
v -0.415362 -0.121298 -0.422671 1.000000 1.000000 1.000000 1.000000
v -0.480888 -0.114598 -0.377706 1.000000 1.000000 1.000000 1.000000
v -0.494572 -0.062235 -0.393123 1.000000 1.000000 1.000000 1.000000
v -0.497516 0.055547 -0.165917 1.000000 1.000000 1.000000 1.000000
v -0.421485 -0.062594 -0.500561 1.000000 1.000000 1.000000 1.000000
v -0.066276 0.079759 -0.497472 1.000000 1.000000 1.000000 1.000000
v 0.408767 0.091851 -0.487773 1.000000 1.000000 1.000000 1.000000
v 0.021746 0.117848 -0.444653 1.000000 1.000000 1.000000 1.000000
vt 0.586426 0.911987
vt 0.582031 0.964081
vt 0.412598 0.994499
vt 0.394531 0.868286
vt 0.703613 0.825562
vt 0.650879 0.882568
vt 0.359863 0.841553
vt 0.141113 0.732422
vt 0.064880 0.685303
vt 0.675781 0.849976
vt 0.068115 0.649902
vt 0.637207 0.801392
vt 0.090332 0.569092
vt 0.771484 0.675537
vt 0.799805 0.636475
vt 0.881348 0.518066
vt 0.659668 0.327637
vt 0.797363 0.196777
vt 0.902344 0.505615
vt 0.644043 0.316895
vt 0.323975 0.246582
vt 0.393311 0.005371
vt 0.604492 0.357422
vt 0.033539 0.224609
vt 0.123474 0.017090
vt 0.052460 0.145996
vt 0.129639 0.000488
vt -0.002991 0.330566
vt 0.048584 0.331543
vt 0.025360 0.491699
vt 0.351074 0.288086
vt 0.042603 0.442383
vt 0.337158 0.340820
vt 0.076782 0.483887
vt 0.106384 0.566162
vt 0.347412 0.351562
vt 0.361328 0.345215
vt 0.316406 0.372559
vt 0.624023 0.750000
vt 0.705078 0.700195
vt 0.601074 0.426270
vt 0.621094 0.419434
vt 0.626953 0.408691
vt 0.705078 0.424805
vt 0.595215 0.386719
vt 0.515625 0.299805
vt 0.369141 0.294434
vt 0.493896 0.263672
vt1 0.647949 0.905334
vt1 0.642578 0.956604
vt1 0.458008 0.986526
vt1 0.438232 0.862305
vt1 0.775391 0.820312
vt1 0.717773 0.876404
vt1 0.400391 0.836060
vt1 0.161987 0.728516
vt1 0.078796 0.682373
vt1 0.745117 0.844360
vt1 0.082336 0.647705
vt1 0.703125 0.796509
vt1 0.106567 0.567871
vt1 0.849121 0.672607
vt1 0.879883 0.634277
vt1 0.968750 0.517578
vt1 0.727539 0.330078
vt1 0.877441 0.202148
vt1 0.991699 0.505371
vt1 0.710449 0.319824
vt1 0.361328 0.250488
vt1 0.437012 0.013184
vt1 0.667480 0.359375
vt1 0.044647 0.229004
vt1 0.142700 0.024902
vt1 0.065247 0.151855
vt1 0.149414 0.008301
vt1 0.004803 0.333008
vt1 0.061035 0.333984
vt1 0.035706 0.491699
vt1 0.390869 0.291504
vt1 0.054504 0.442871
vt1 0.375732 0.343262
vt1 0.091797 0.483887
vt1 0.124084 0.565186
vt1 0.386719 0.354004
vt1 0.401855 0.347656
vt1 0.353271 0.375000
vt1 0.688477 0.745850
vt1 0.776855 0.697021
vt1 0.663086 0.427246
vt1 0.685547 0.420898
vt1 0.691406 0.410156
vt1 0.777344 0.425781
vt1 0.656738 0.388672
vt1 0.570312 0.302734
vt1 0.410645 0.297852
vt1 0.546387 0.267578
vn -0.007874 1.000000 0.015748
vn -0.015748 1.000000 0.007874
vn 0.000000 1.000000 0.007874
vn -0.015748 0.992126 0.118110
vn -0.086614 0.944882 0.322834
vn -0.070866 0.992126 0.110236
vn -0.007874 0.700787 0.708661
vn 0.070866 0.598425 0.803149
vn 0.133858 0.236221 0.960630
vn -0.055118 0.102362 0.992126
vn 0.078740 0.015748 1.000000
vn -0.078740 -0.448819 0.889764
vn 0.181102 -0.472441 0.866142
vn -0.992126 0.047244 0.110236
vn -0.566929 0.818897 0.078740
vn 0.055118 1.000000 0.047244
vn -0.637795 0.763779 -0.125984
vn -0.007874 1.000000 0.007874
vn -0.015748 1.000000 0.015748
vn -0.047244 1.000000 -0.078740
vn 0.023622 1.000000 -0.023622
vn 0.000000 1.000000 -0.000000
vn -0.141732 0.433071 -0.889764
vn 0.086614 0.992126 0.055118
vn 0.000000 0.992126 0.125984
vn 0.062992 0.598425 0.795275
vn -0.007874 0.700787 0.708661
vn 0.322835 0.377953 0.866142
vn 0.992126 0.110236 0.031496
vn 0.338583 -0.015748 0.944882
vn 0.842520 0.535433 -0.078740
vn 0.992126 -0.125984 0.055118
vn 0.992126 -0.125984 -0.039370
vn 0.464567 -0.881890 0.070866
vn 0.031496 -1.000000 0.055118
vn 0.377953 -0.921260 -0.094488
vn 0.047244 -0.322835 -0.944882
vn 0.015748 -1.000000 -0.031496
vn -0.023622 -1.000000 0.031496
vn -0.889764 -0.433071 0.133858
vn -0.023622 -1.000000 -0.055118
vn -0.582677 -0.811023 -0.086614
vn -0.984252 -0.149606 -0.039370
vn -1.000000 0.070866 -0.000000
vn -0.102362 -0.244095 -0.960630
vn -0.039370 0.291338 -0.952756
vn 0.141732 0.503937 -0.850394
vn -0.015748 0.992126 -0.125984
tan -0.086614 -0.016430 1.000000 1.000000
tan -0.055118 -0.008742 1.000000 1.000000
tan -0.133858 -0.007812 0.992126 1.000000
tan -0.109368 -0.118916 0.984314 1.000000
tan -0.491041 -0.322091 0.810962 1.000000
tan -0.351541 -0.128402 0.929630 1.000000
tan 0.116560 -0.702461 0.695951 1.000000
tan 0.285821 -0.771343 0.549507 1.000000
tan 0.665633 -0.688325 0.076508 1.000000
tan -0.367165 -0.921818 0.074710 1.000000
tan 0.795276 -0.606299 -0.053072 1.000000
tan -0.161200 -0.874512 -0.455391 1.000000
tan 0.683861 -0.550685 -0.443363 1.000000
tan -0.085312 0.359353 -0.921818 1.000000
tan 0.658565 0.505673 -0.517329 1.000000
tan 0.582677 0.006200 -0.811023 1.000000
tan 0.763780 0.644739 0.042098 1.000000
tan 0.992126 0.008742 -0.118110 1.000000
tan 0.614173 0.022072 -0.787401 1.000000
tan 0.937008 0.071548 0.346457 1.000000
tan -0.582677 0.032922 0.811023 1.000000
tan -0.622047 0.000000 0.779527 1.000000
tan 0.353711 0.820820 0.343171 1.000000
tan -0.921818 0.101308 -0.374977 1.000000
tan -0.992126 0.007936 -0.062496 1.000000
tan -0.820758 -0.336785 0.318433 1.000000
tan -0.782442 -0.445161 0.431521 1.000000
tan -0.439457 0.752743 -0.164672 1.000000
tan -0.103044 0.976502 -0.171864 1.000000
tan 0.453965 0.828508 -0.148862 1.000000
tan -0.532333 0.843760 0.041602 1.000000
tan 0.137020 0.921818 -0.359353 1.000000
tan 0.120962 0.984314 -0.101556 1.000000
tan 0.875504 0.451981 -0.114762 1.000000
tan 0.921260 0.007750 -0.385827 1.000000
tan 0.877736 0.389113 -0.282907 1.000000
tan 0.081840 0.944882 -0.318743 1.000000
tan 0.653543 0.034100 -0.755905 1.000000
tan -0.173228 -0.026908 -0.984252 1.000000
tan -0.269701 0.286874 -0.864592 1.000000
tan -0.149606 0.058218 -0.992126 1.000000
tan -0.799616 0.588505 -0.131316 1.000000
tan -0.096596 0.790501 -0.589001 1.000000
tan 0.061938 0.874016 -0.480315 1.000000
tan 0.294997 0.915246 -0.263997 1.000000
tan 0.082522 0.952756 0.287928 1.000000
tan -0.041416 0.852626 0.498357 1.000000
tan 0.171864 0.126728 0.976502 1.000000
f 3/3/3 2/2/2 1/1/1
f 3/3/3 1/1/1 4/4/4
f 4/4/4 1/1/1 5/5/5
f 1/1/1 6/6/6 5/5/5
f 5/5/5 7/7/7 4/4/4
f 9/9/9 8/8/8 7/7/7
f 7/7/7 10/10/10 9/9/9
f 7/7/7 5/5/5 10/10/10
f 11/11/11 9/9/9 10/10/10
f 12/12/12 11/11/11 10/10/10
f 11/11/11 12/12/12 13/13/13
f 14/14/14 10/10/10 5/5/5
f 12/12/12 10/10/10 14/14/14
f 15/15/15 14/14/14 5/5/5
f 5/5/5 16/16/16 15/15/15
f 15/15/15 17/17/17 14/14/14
f 16/16/16 17/17/17 15/15/15
f 19/19/19 18/18/18 16/16/16
f 16/16/16 18/18/18 20/20/20
f 17/17/17 16/16/16 20/20/20
f 20/20/20 18/18/18 21/21/21
f 22/22/22 21/21/21 18/18/18
f 17/17/17 20/20/20 23/23/23
f 22/22/22 24/24/24 21/21/21
f 22/22/22 25/25/25 24/24/24
f 25/25/25 27/27/27 26/26/26
f 26/26/26 24/24/24 25/25/25
f 24/24/24 26/26/26 28/28/28
f 24/24/24 28/28/28 29/29/29
f 29/29/29 28/28/28 30/30/30
f 21/21/21 24/24/24 31/31/31
f 31/31/31 24/24/24 29/29/29
f 30/30/30 32/32/32 29/29/29
f 32/32/32 30/30/30 13/13/13
f 33/33/33 29/29/29 32/32/32
f 33/33/33 31/31/31 29/29/29
f 13/13/13 34/34/34 32/32/32
f 34/34/34 33/33/33 32/32/32
f 35/35/35 34/34/34 13/13/13
f 13/13/13 12/12/12 35/35/35
f 34/34/34 36/36/36 33/33/33
f 36/36/36 34/34/34 35/35/35
f 31/31/31 33/33/33 37/37/37
f 37/37/37 33/33/33 36/36/36
f 35/35/35 38/38/38 36/36/36
f 36/36/36 38/38/38 37/37/37
f 39/39/39 35/35/35 12/12/12
f 35/35/35 39/39/39 38/38/38
f 39/39/39 12/12/12 40/40/40
f 14/14/14 40/40/40 12/12/12
f 39/39/39 41/41/41 38/38/38
f 38/38/38 41/41/41 37/37/37
f 40/40/40 42/42/42 39/39/39
f 42/42/42 41/41/41 39/39/39
f 40/40/40 14/14/14 43/43/43
f 42/42/42 40/40/40 43/43/43
f 43/43/43 14/14/14 44/44/44
f 17/17/17 44/44/44 14/14/14
f 43/43/43 44/44/44 17/17/17
f 41/41/41 42/42/42 45/45/45
f 45/45/45 42/42/42 43/43/43
f 45/45/45 43/43/43 17/17/17
f 41/41/41 45/45/45 37/37/37
f 17/17/17 23/23/23 45/45/45
f 23/23/23 46/46/46 45/45/45
f 45/45/45 46/46/46 37/37/37
f 20/20/20 46/46/46 23/23/23
f 47/47/47 37/37/37 46/46/46
f 47/47/47 31/31/31 37/37/37
f 47/47/47 21/21/21 31/31/31
f 20/20/20 48/48/48 46/46/46
f 48/48/48 20/20/20 21/21/21
f 46/46/46 48/48/48 47/47/47
f 21/21/21 47/47/47 48/48/48
