mtllib SM_Paver@000002909DC2EB00.mtl
g SM_Paver@000002909DC2EB00
#Vertices 317
#Indices 1800
#Section 0 Offset 0 NumIndices 1800 MaterialIndex 0 MI_Paver
v 0.216822 0.107197 0.481567 1.000000 1.000000 1.000000 1.000000
v 0.059788 0.106416 0.479624 1.000000 1.000000 1.000000 1.000000
v 0.060362 0.120316 0.433946 1.000000 1.000000 1.000000 1.000000
v 0.218387 0.121605 0.436276 1.000000 1.000000 1.000000 1.000000
v 0.061801 0.122664 0.379633 1.000000 1.000000 1.000000 1.000000
v 0.358036 0.115588 0.440648 1.000000 1.000000 1.000000 1.000000
v 0.354692 0.092146 0.479037 1.000000 1.000000 1.000000 1.000000
v 0.445861 0.063717 0.480329 1.000000 1.000000 1.000000 1.000000
v 0.220504 0.123265 0.375709 1.000000 1.000000 1.000000 1.000000
v 0.063977 0.123644 0.301495 1.000000 1.000000 1.000000 1.000000
v 0.356241 0.119705 0.372617 1.000000 1.000000 1.000000 1.000000
v 0.437088 0.106294 0.451833 1.000000 1.000000 1.000000 1.000000
v 0.224292 0.123741 0.286584 1.000000 1.000000 1.000000 1.000000
v 0.068617 0.123762 0.172026 1.000000 1.000000 1.000000 1.000000
v 0.358366 0.123191 0.269902 1.000000 1.000000 1.000000 1.000000
v 0.434703 0.113614 0.380423 1.000000 1.000000 1.000000 1.000000
v 0.352197 0.123387 0.122573 1.000000 1.000000 1.000000 1.000000
v 0.437299 0.119113 0.263437 1.000000 1.000000 1.000000 1.000000
v 0.233202 0.123756 0.142496 1.000000 1.000000 1.000000 1.000000
v 0.232317 0.123735 -0.028716 1.000000 1.000000 1.000000 1.000000
v 0.420867 0.120799 0.110859 1.000000 1.000000 1.000000 1.000000
v 0.068452 0.123754 -0.003347 1.000000 1.000000 1.000000 1.000000
v 0.340536 0.123155 -0.042362 1.000000 1.000000 1.000000 1.000000
v -0.097024 0.123766 0.035965 1.000000 1.000000 1.000000 1.000000
v -0.099015 0.123743 0.200775 1.000000 1.000000 1.000000 1.000000
v 0.053602 0.123364 -0.175358 1.000000 1.000000 1.000000 1.000000
v 0.221728 0.123414 -0.196339 1.000000 1.000000 1.000000 1.000000
v -0.271923 0.123677 0.064524 1.000000 1.000000 1.000000 1.000000
v -0.270827 0.123433 0.214223 1.000000 1.000000 1.000000 1.000000
v -0.111197 0.123683 -0.123181 1.000000 1.000000 1.000000 1.000000
v -0.407596 0.119561 0.228478 1.000000 1.000000 1.000000 1.000000
v -0.280888 0.122346 0.320971 1.000000 1.000000 1.000000 1.000000
v -0.356194 0.119106 0.360215 1.000000 1.000000 1.000000 1.000000
v -0.278679 0.122928 -0.087013 1.000000 1.000000 1.000000 1.000000
v -0.121275 0.121085 -0.271127 1.000000 1.000000 1.000000 1.000000
v 0.047668 0.121286 -0.297747 1.000000 1.000000 1.000000 1.000000
v -0.273219 0.119260 -0.236286 1.000000 1.000000 1.000000 1.000000
v -0.408882 0.119713 -0.074096 1.000000 1.000000 1.000000 1.000000
v -0.405208 0.121690 0.080041 1.000000 1.000000 1.000000 1.000000
v -0.401968 0.115999 -0.225481 1.000000 1.000000 1.000000 1.000000
v -0.490436 0.116093 0.241563 1.000000 1.000000 1.000000 1.000000
v -0.486407 0.114558 -0.064810 1.000000 1.000000 1.000000 1.000000
v -0.494446 0.116660 0.091680 1.000000 1.000000 1.000000 1.000000
v -0.492537 0.107986 0.386868 1.000000 1.000000 1.000000 1.000000
v -0.497326 0.045252 0.101180 1.000000 1.000000 1.000000 1.000000
v -0.428719 0.093306 0.463912 1.000000 1.000000 1.000000 1.000000
v -0.497313 0.039654 0.247709 1.000000 1.000000 1.000000 1.000000
v -0.497469 0.056561 -0.056554 1.000000 1.000000 1.000000 1.000000
v -0.494492 0.048772 0.375183 1.000000 1.000000 1.000000 1.000000
v -0.489212 0.113555 -0.220183 1.000000 1.000000 1.000000 1.000000
v -0.485236 0.041546 0.453734 1.000000 1.000000 1.000000 1.000000
v -0.479537 0.086748 0.438398 1.000000 1.000000 1.000000 1.000000
v -0.492238 0.001819 0.375666 1.000000 1.000000 1.000000 1.000000
v -0.496623 -0.015921 0.255190 1.000000 1.000000 1.000000 1.000000
v -0.496622 -0.024505 0.111750 1.000000 1.000000 1.000000 1.000000
v -0.491769 -0.061114 0.262503 1.000000 1.000000 1.000000 1.000000
v -0.496871 -0.016990 -0.046707 1.000000 1.000000 1.000000 1.000000
v -0.493185 -0.077694 0.121157 1.000000 1.000000 1.000000 1.000000
v -0.494810 -0.077551 -0.038683 1.000000 1.000000 1.000000 1.000000
v -0.496741 -0.017725 -0.196862 1.000000 1.000000 1.000000 1.000000
v -0.497523 0.050338 -0.206612 1.000000 1.000000 1.000000 1.000000
v -0.496450 0.041301 -0.329477 1.000000 1.000000 1.000000 1.000000
v -0.493138 -0.072283 -0.192557 1.000000 1.000000 1.000000 1.000000
v -0.472035 0.100589 -0.345167 1.000000 1.000000 1.000000 1.000000
v -0.496212 -0.019497 -0.320897 1.000000 1.000000 1.000000 1.000000
v -0.392262 0.112860 -0.337683 1.000000 1.000000 1.000000 1.000000
v -0.397880 0.103476 -0.421454 1.000000 1.000000 1.000000 1.000000
v -0.275996 0.115890 -0.347180 1.000000 1.000000 1.000000 1.000000
v -0.474891 0.071762 -0.419939 1.000000 1.000000 1.000000 1.000000
v -0.117946 0.118435 -0.363718 1.000000 1.000000 1.000000 1.000000
v -0.274971 0.113152 -0.421378 1.000000 1.000000 1.000000 1.000000
v -0.118063 0.116300 -0.433349 1.000000 1.000000 1.000000 1.000000
v 0.047226 0.119380 -0.382901 1.000000 1.000000 1.000000 1.000000
v 0.046153 0.117902 -0.445876 1.000000 1.000000 1.000000 1.000000
v -0.117078 0.101599 -0.479035 1.000000 1.000000 1.000000 1.000000
v 0.212634 0.120095 -0.398830 1.000000 1.000000 1.000000 1.000000
v 0.215523 0.121671 -0.317529 1.000000 1.000000 1.000000 1.000000
v 0.336268 0.121664 -0.333834 1.000000 1.000000 1.000000 1.000000
v 0.210702 0.118901 -0.457219 1.000000 1.000000 1.000000 1.000000
v 0.336994 0.122966 -0.207338 1.000000 1.000000 1.000000 1.000000
v 0.343606 0.120313 -0.415420 1.000000 1.000000 1.000000 1.000000
v 0.406086 0.120194 -0.210723 1.000000 1.000000 1.000000 1.000000
v 0.409683 0.120704 -0.050727 1.000000 1.000000 1.000000 1.000000
v 0.464741 0.117052 -0.058325 1.000000 1.000000 1.000000 1.000000
v 0.411113 0.117825 -0.347842 1.000000 1.000000 1.000000 1.000000
v 0.474234 0.114397 0.100965 1.000000 1.000000 1.000000 1.000000
v 0.462321 0.115967 -0.214743 1.000000 1.000000 1.000000 1.000000
v 0.489154 0.113580 0.256475 1.000000 1.000000 1.000000 1.000000
v 0.420375 0.112067 -0.423039 1.000000 1.000000 1.000000 1.000000
v 0.484194 0.101076 0.385582 1.000000 1.000000 1.000000 1.000000
v 0.492628 0.070088 0.249888 1.000000 1.000000 1.000000 1.000000
v 0.476054 0.093655 0.433613 1.000000 1.000000 1.000000 1.000000
v 0.490011 0.053338 0.446710 1.000000 1.000000 1.000000 1.000000
v 0.450847 0.027959 0.485128 1.000000 1.000000 1.000000 1.000000
v 0.493641 0.058666 0.376305 1.000000 1.000000 1.000000 1.000000
v 0.493584 0.016123 0.443550 1.000000 1.000000 1.000000 1.000000
v 0.496546 0.015466 0.366127 1.000000 1.000000 1.000000 1.000000
v 0.494510 -0.019358 0.441657 1.000000 1.000000 1.000000 1.000000
v 0.454877 -0.009253 0.489521 1.000000 1.000000 1.000000 1.000000
v 0.456489 -0.045856 0.492385 1.000000 1.000000 1.000000 1.000000
v 0.492765 -0.056282 0.441552 1.000000 1.000000 1.000000 1.000000
v 0.449997 -0.080082 0.491322 1.000000 1.000000 1.000000 1.000000
v 0.497576 -0.029714 0.365423 1.000000 1.000000 1.000000 1.000000
v 0.496535 0.018024 0.243429 1.000000 1.000000 1.000000 1.000000
v 0.491091 0.070137 0.094703 1.000000 1.000000 1.000000 1.000000
v 0.497647 -0.037550 0.239488 1.000000 1.000000 1.000000 1.000000
v 0.486425 0.072269 -0.063692 1.000000 1.000000 1.000000 1.000000
v 0.495798 0.018181 0.089240 1.000000 1.000000 1.000000 1.000000
v 0.483416 0.068088 -0.217319 1.000000 1.000000 1.000000 1.000000
v 0.493686 0.018742 -0.069101 1.000000 1.000000 1.000000 1.000000
v 0.497611 -0.039254 0.083952 1.000000 1.000000 1.000000 1.000000
v 0.491442 0.014767 -0.220967 1.000000 1.000000 1.000000 1.000000
v 0.497253 -0.086539 0.237005 1.000000 1.000000 1.000000 1.000000
v 0.497101 -0.040934 -0.075079 1.000000 1.000000 1.000000 1.000000
v 0.496891 -0.071533 0.367921 1.000000 1.000000 1.000000 1.000000
v 0.494331 -0.039466 -0.226960 1.000000 1.000000 1.000000 1.000000
v 0.496924 -0.092897 -0.081705 1.000000 1.000000 1.000000 1.000000
v 0.496742 -0.090413 0.078628 1.000000 1.000000 1.000000 1.000000
v 0.466758 -0.118221 0.072867 1.000000 1.000000 1.000000 1.000000
v 0.494578 -0.089131 -0.235575 1.000000 1.000000 1.000000 1.000000
v 0.472119 -0.117512 0.233952 1.000000 1.000000 1.000000 1.000000
v 0.490069 0.007564 -0.351509 1.000000 1.000000 1.000000 1.000000
v 0.479552 -0.110793 0.366723 1.000000 1.000000 1.000000 1.000000
v 0.482249 -0.095492 0.439242 1.000000 1.000000 1.000000 1.000000
v 0.419782 -0.119823 0.230452 1.000000 1.000000 1.000000 1.000000
v 0.435834 -0.113919 0.429564 1.000000 1.000000 1.000000 1.000000
v 0.426055 -0.116339 0.358549 1.000000 1.000000 1.000000 1.000000
v 0.350495 -0.118529 0.344972 1.000000 1.000000 1.000000 1.000000
v 0.411040 -0.108462 0.473585 1.000000 1.000000 1.000000 1.000000
v 0.351454 -0.114122 0.466187 1.000000 1.000000 1.000000 1.000000
v 0.350763 -0.084593 0.493178 1.000000 1.000000 1.000000 1.000000
v 0.456489 -0.045856 0.492385 1.000000 1.000000 1.000000 1.000000
v 0.355239 -0.116557 0.417842 1.000000 1.000000 1.000000 1.000000
v 0.218980 -0.117724 0.459188 1.000000 1.000000 1.000000 1.000000
v 0.226856 -0.120726 0.331347 1.000000 1.000000 1.000000 1.000000
v 0.348054 -0.043580 0.495791 1.000000 1.000000 1.000000 1.000000
v 0.222462 -0.119138 0.406066 1.000000 1.000000 1.000000 1.000000
v 0.346967 0.000945 0.492128 1.000000 1.000000 1.000000 1.000000
v 0.454877 -0.009253 0.489521 1.000000 1.000000 1.000000 1.000000
v 0.450847 0.027959 0.485128 1.000000 1.000000 1.000000 1.000000
v 0.213826 -0.046756 0.496143 1.000000 1.000000 1.000000 1.000000
v 0.348869 0.047113 0.486648 1.000000 1.000000 1.000000 1.000000
v 0.445861 0.063717 0.480329 1.000000 1.000000 1.000000 1.000000
v 0.354692 0.092146 0.479037 1.000000 1.000000 1.000000 1.000000
v 0.213416 0.004851 0.495698 1.000000 1.000000 1.000000 1.000000
v 0.214721 0.057917 0.491064 1.000000 1.000000 1.000000 1.000000
v 0.216822 0.107197 0.481567 1.000000 1.000000 1.000000 1.000000
v 0.059788 0.106416 0.479624 1.000000 1.000000 1.000000 1.000000
v 0.059592 0.060306 0.493458 1.000000 1.000000 1.000000 1.000000
v 0.059672 0.007610 0.495216 1.000000 1.000000 1.000000 1.000000
v 0.060503 -0.048199 0.495113 1.000000 1.000000 1.000000 1.000000
v -0.101833 0.012467 0.494803 1.000000 1.000000 1.000000 1.000000
v -0.102501 0.061937 0.495464 1.000000 1.000000 1.000000 1.000000
v -0.103374 0.103955 0.480501 1.000000 1.000000 1.000000 1.000000
v 0.060362 0.120316 0.433946 1.000000 1.000000 1.000000 1.000000
v -0.100920 -0.043673 0.492755 1.000000 1.000000 1.000000 1.000000
v -0.104903 0.118026 0.435523 1.000000 1.000000 1.000000 1.000000
v 0.061801 0.122664 0.379633 1.000000 1.000000 1.000000 1.000000
v -0.100300 -0.096640 0.487555 1.000000 1.000000 1.000000 1.000000
v -0.105383 0.121500 0.382045 1.000000 1.000000 1.000000 1.000000
v 0.063977 0.123644 0.301495 1.000000 1.000000 1.000000 1.000000
v -0.260884 -0.035106 0.490894 1.000000 1.000000 1.000000 1.000000
v -0.099015 0.123743 0.200775 1.000000 1.000000 1.000000 1.000000
v 0.068617 0.123762 0.172026 1.000000 1.000000 1.000000 1.000000
v -0.103476 0.123128 0.309596 1.000000 1.000000 1.000000 1.000000
v -0.280888 0.122346 0.320971 1.000000 1.000000 1.000000 1.000000
v -0.270827 0.123433 0.214223 1.000000 1.000000 1.000000 1.000000
v -0.204055 0.121453 0.377220 1.000000 1.000000 1.000000 1.000000
v -0.280241 0.117354 0.431645 1.000000 1.000000 1.000000 1.000000
v -0.356194 0.119106 0.360215 1.000000 1.000000 1.000000 1.000000
v -0.274984 0.103593 0.479333 1.000000 1.000000 1.000000 1.000000
v -0.417637 0.055685 0.489051 1.000000 1.000000 1.000000 1.000000
v -0.268437 0.064842 0.496258 1.000000 1.000000 1.000000 1.000000
v -0.263130 0.016692 0.495531 1.000000 1.000000 1.000000 1.000000
v -0.481032 0.008351 0.459841 1.000000 1.000000 1.000000 1.000000
v -0.403533 0.016703 0.492979 1.000000 1.000000 1.000000 1.000000
v -0.393676 -0.025589 0.491051 1.000000 1.000000 1.000000 1.000000
v -0.489361 -0.036247 0.378556 1.000000 1.000000 1.000000 1.000000
v -0.477240 -0.024275 0.463630 1.000000 1.000000 1.000000 1.000000
v -0.470683 -0.060716 0.463487 1.000000 1.000000 1.000000 1.000000
v -0.390038 -0.067447 0.484980 1.000000 1.000000 1.000000 1.000000
v -0.472940 -0.072317 0.380094 1.000000 1.000000 1.000000 1.000000
v -0.261557 -0.087730 0.481617 1.000000 1.000000 1.000000 1.000000
v -0.261306 -0.120633 0.444817 1.000000 1.000000 1.000000 1.000000
v -0.382943 -0.104211 0.455148 1.000000 1.000000 1.000000 1.000000
v -0.442414 -0.101987 0.445360 1.000000 1.000000 1.000000 1.000000
v -0.442225 -0.108384 0.381913 1.000000 1.000000 1.000000 1.000000
v -0.259219 -0.122196 0.379268 1.000000 1.000000 1.000000 1.000000
v -0.473347 -0.100758 0.269641 1.000000 1.000000 1.000000 1.000000
v -0.378476 -0.117031 0.386414 1.000000 1.000000 1.000000 1.000000
v -0.428372 -0.119440 0.274425 1.000000 1.000000 1.000000 1.000000
v -0.475282 -0.114095 0.128530 1.000000 1.000000 1.000000 1.000000
v -0.429717 -0.121605 0.133069 1.000000 1.000000 1.000000 1.000000
v -0.361928 -0.122231 0.278596 1.000000 1.000000 1.000000 1.000000
v -0.480435 -0.120429 -0.032977 1.000000 1.000000 1.000000 1.000000
v -0.428701 -0.121891 -0.027589 1.000000 1.000000 1.000000 1.000000
v -0.360634 -0.123135 0.139623 1.000000 1.000000 1.000000 1.000000
v -0.253027 -0.123321 0.286530 1.000000 1.000000 1.000000 1.000000
v -0.355703 -0.123204 -0.020189 1.000000 1.000000 1.000000 1.000000
v -0.249308 -0.123742 0.153043 1.000000 1.000000 1.000000 1.000000
v -0.096587 -0.121000 0.385794 1.000000 1.000000 1.000000 1.000000
v -0.430209 -0.121127 -0.187744 1.000000 1.000000 1.000000 1.000000
v -0.094859 -0.122429 0.302389 1.000000 1.000000 1.000000 1.000000
v -0.477813 -0.114991 -0.190169 1.000000 1.000000 1.000000 1.000000
v -0.478216 -0.110206 -0.330598 1.000000 1.000000 1.000000 1.000000
v -0.492085 -0.071503 -0.326367 1.000000 1.000000 1.000000 1.000000
v -0.489916 -0.063103 -0.420144 1.000000 1.000000 1.000000 1.000000
v -0.432604 -0.117718 -0.327506 1.000000 1.000000 1.000000 1.000000
v -0.495752 -0.024186 -0.414124 1.000000 1.000000 1.000000 1.000000
v -0.365341 -0.122828 -0.184167 1.000000 1.000000 1.000000 1.000000
v -0.496116 0.019825 -0.414272 1.000000 1.000000 1.000000 1.000000
v -0.468695 -0.023542 -0.478837 1.000000 1.000000 1.000000 1.000000
v -0.472515 0.015301 -0.477271 1.000000 1.000000 1.000000 1.000000
v -0.453290 0.059233 -0.462430 1.000000 1.000000 1.000000 1.000000
v -0.392302 0.068960 -0.467189 1.000000 1.000000 1.000000 1.000000
v -0.269808 0.091613 -0.469012 1.000000 1.000000 1.000000 1.000000
v -0.387020 0.027595 -0.489545 1.000000 1.000000 1.000000 1.000000
v -0.378937 -0.015398 -0.495181 1.000000 1.000000 1.000000 1.000000
v -0.261206 0.046125 -0.488940 1.000000 1.000000 1.000000 1.000000
v -0.460158 -0.056613 -0.476578 1.000000 1.000000 1.000000 1.000000
v -0.255033 -0.006154 -0.493490 1.000000 1.000000 1.000000 1.000000
v -0.376489 -0.055543 -0.494023 1.000000 1.000000 1.000000 1.000000
v -0.112236 0.052974 -0.491498 1.000000 1.000000 1.000000 1.000000
v -0.251846 -0.056579 -0.492039 1.000000 1.000000 1.000000 1.000000
v 0.045792 0.104417 -0.492414 1.000000 1.000000 1.000000 1.000000
v -0.107953 -0.002414 -0.493702 1.000000 1.000000 1.000000 1.000000
v 0.047908 0.053829 -0.494179 1.000000 1.000000 1.000000 1.000000
v 0.208745 0.094705 -0.492216 1.000000 1.000000 1.000000 1.000000
v 0.206605 0.044227 -0.493742 1.000000 1.000000 1.000000 1.000000
v 0.347099 0.075394 -0.488403 1.000000 1.000000 1.000000 1.000000
v 0.351365 0.116793 -0.472457 1.000000 1.000000 1.000000 1.000000
v 0.428020 0.087755 -0.472990 1.000000 1.000000 1.000000 1.000000
v 0.338901 0.030029 -0.493387 1.000000 1.000000 1.000000 1.000000
v 0.471696 0.079766 -0.426984 1.000000 1.000000 1.000000 1.000000
v 0.424764 0.043788 -0.483428 1.000000 1.000000 1.000000 1.000000
v 0.457675 0.072208 -0.460876 1.000000 1.000000 1.000000 1.000000
v 0.469314 0.030426 -0.472485 1.000000 1.000000 1.000000 1.000000
v 0.465836 0.102162 -0.353345 1.000000 1.000000 1.000000 1.000000
v 0.486040 0.035747 -0.431742 1.000000 1.000000 1.000000 1.000000
v 0.483753 0.054536 -0.351381 1.000000 1.000000 1.000000 1.000000
v 0.470962 0.002662 -0.477037 1.000000 1.000000 1.000000 1.000000
v 0.488722 0.001512 -0.434741 1.000000 1.000000 1.000000 1.000000
v 0.421042 0.009992 -0.489941 1.000000 1.000000 1.000000 1.000000
v 0.418859 -0.023887 -0.492940 1.000000 1.000000 1.000000 1.000000
v 0.470260 -0.026990 -0.481947 1.000000 1.000000 1.000000 1.000000
v 0.491051 -0.037276 -0.355458 1.000000 1.000000 1.000000 1.000000
v 0.488382 -0.032278 -0.438000 1.000000 1.000000 1.000000 1.000000
v 0.484573 -0.066802 -0.440088 1.000000 1.000000 1.000000 1.000000
v 0.489034 -0.078850 -0.361750 1.000000 1.000000 1.000000 1.000000
v 0.465832 -0.057961 -0.483583 1.000000 1.000000 1.000000 1.000000
v 0.463988 -0.100808 -0.436047 1.000000 1.000000 1.000000 1.000000
v 0.461546 -0.113502 -0.242287 1.000000 1.000000 1.000000 1.000000
v 0.461919 -0.106742 -0.365083 1.000000 1.000000 1.000000 1.000000
v 0.451729 -0.090182 -0.473181 1.000000 1.000000 1.000000 1.000000
v 0.414852 -0.095855 -0.474797 1.000000 1.000000 1.000000 1.000000
v 0.417259 -0.109370 -0.429824 1.000000 1.000000 1.000000 1.000000
v 0.417471 -0.058506 -0.487947 1.000000 1.000000 1.000000 1.000000
v 0.339210 -0.104638 -0.468939 1.000000 1.000000 1.000000 1.000000
v 0.335547 -0.062889 -0.487184 1.000000 1.000000 1.000000 1.000000
v 0.334903 -0.017372 -0.494400 1.000000 1.000000 1.000000 1.000000
v 0.205468 -0.008983 -0.494188 1.000000 1.000000 1.000000 1.000000
v 0.205451 -0.060665 -0.488940 1.000000 1.000000 1.000000 1.000000
v 0.050156 -0.002852 -0.494275 1.000000 1.000000 1.000000 1.000000
v 0.052627 -0.058167 -0.490271 1.000000 1.000000 1.000000 1.000000
v -0.104208 -0.056872 -0.491309 1.000000 1.000000 1.000000 1.000000
v -0.101559 -0.101083 -0.473752 1.000000 1.000000 1.000000 1.000000
v 0.054809 -0.101085 -0.468118 1.000000 1.000000 1.000000 1.000000
v 0.207000 -0.104728 -0.468022 1.000000 1.000000 1.000000 1.000000
v 0.210487 -0.118742 -0.419598 1.000000 1.000000 1.000000 1.000000
v 0.341930 -0.118412 -0.421311 1.000000 1.000000 1.000000 1.000000
v 0.056501 -0.118115 -0.422630 1.000000 1.000000 1.000000 1.000000
v 0.341130 -0.120976 -0.360360 1.000000 1.000000 1.000000 1.000000
v -0.101708 -0.118235 -0.429904 1.000000 1.000000 1.000000 1.000000
v 0.058361 -0.121240 -0.363414 1.000000 1.000000 1.000000 1.000000
v 0.215645 -0.121422 -0.358727 1.000000 1.000000 1.000000 1.000000
v 0.412399 -0.114497 -0.364576 1.000000 1.000000 1.000000 1.000000
v 0.221964 -0.123319 -0.266017 1.000000 1.000000 1.000000 1.000000
v 0.337668 -0.123435 -0.255325 1.000000 1.000000 1.000000 1.000000
v 0.409063 -0.121280 -0.248041 1.000000 1.000000 1.000000 1.000000
v 0.411075 -0.123038 -0.095204 1.000000 1.000000 1.000000 1.000000
v 0.464430 -0.118951 -0.088462 1.000000 1.000000 1.000000 1.000000
v 0.414352 -0.121815 0.066852 1.000000 1.000000 1.000000 1.000000
v 0.337901 -0.123719 -0.103518 1.000000 1.000000 1.000000 1.000000
v 0.342756 -0.123584 0.059485 1.000000 1.000000 1.000000 1.000000
v 0.232206 -0.123762 -0.116640 1.000000 1.000000 1.000000 1.000000
v 0.347073 -0.121503 0.226333 1.000000 1.000000 1.000000 1.000000
v 0.238743 -0.123762 0.047926 1.000000 1.000000 1.000000 1.000000
v 0.232487 -0.122978 0.215732 1.000000 1.000000 1.000000 1.000000
v 0.063764 -0.123760 -0.138446 1.000000 1.000000 1.000000 1.000000
v 0.069260 -0.123756 0.030040 1.000000 1.000000 1.000000 1.000000
v 0.072485 -0.123421 0.200325 1.000000 1.000000 1.000000 1.000000
v 0.060747 -0.123325 -0.278459 1.000000 1.000000 1.000000 1.000000
v -0.100944 -0.123308 -0.289306 1.000000 1.000000 1.000000 1.000000
v -0.100239 -0.123763 -0.160424 1.000000 1.000000 1.000000 1.000000
v -0.102564 -0.121108 -0.370763 1.000000 1.000000 1.000000 1.000000
v -0.258694 -0.123115 -0.302225 1.000000 1.000000 1.000000 1.000000
v -0.095241 -0.123766 0.007589 1.000000 1.000000 1.000000 1.000000
v -0.256973 -0.123744 -0.176446 1.000000 1.000000 1.000000 1.000000
v -0.257157 -0.120948 -0.382062 1.000000 1.000000 1.000000 1.000000
v -0.252243 -0.123742 -0.009553 1.000000 1.000000 1.000000 1.000000
v -0.254302 -0.118270 -0.437396 1.000000 1.000000 1.000000 1.000000
v -0.090559 -0.123666 0.178544 1.000000 1.000000 1.000000 1.000000
v -0.368096 -0.120062 -0.316632 1.000000 1.000000 1.000000 1.000000
v 0.068399 -0.121440 0.317159 1.000000 1.000000 1.000000 1.000000
v 0.065295 -0.119875 0.397284 1.000000 1.000000 1.000000 1.000000
v -0.098544 -0.119336 0.448098 1.000000 1.000000 1.000000 1.000000
v 0.063071 -0.118422 0.453430 1.000000 1.000000 1.000000 1.000000
v 0.061526 -0.098870 0.492534 1.000000 1.000000 1.000000 1.000000
v 0.216171 -0.094386 0.493782 1.000000 1.000000 1.000000 1.000000
v -0.367130 -0.117510 -0.396278 1.000000 1.000000 1.000000 1.000000
v -0.428752 -0.114347 -0.408630 1.000000 1.000000 1.000000 1.000000
v -0.366501 -0.114343 -0.451086 1.000000 1.000000 1.000000 1.000000
v -0.470558 -0.095677 -0.419507 1.000000 1.000000 1.000000 1.000000
v -0.446199 -0.086698 -0.472762 1.000000 1.000000 1.000000 1.000000
v -0.417488 -0.111794 -0.450413 1.000000 1.000000 1.000000 1.000000
v -0.375226 -0.090892 -0.483566 1.000000 1.000000 1.000000 1.000000
v -0.252271 -0.101946 -0.481301 1.000000 1.000000 1.000000 1.000000
vt 0.086365 0.080566
vt 0.129639 0.000488
vt 0.150757 0.008789
vt 0.106934 0.089355
vt 0.179321 0.014648
vt 0.048920 0.194824
vt 0.027390 0.191406
vt 0.001310 0.327148
vt 0.137085 0.095215
vt 0.234253 0.014648
vt 0.082092 0.193848
vt 0.026352 0.287109
vt 0.187378 0.094727
vt 0.394775 0.006836
vt 0.137329 0.184082
vt 0.061371 0.267090
vt 0.212036 0.176270
vt 0.116638 0.246094
vt 0.270508 0.102051
vt 0.338623 0.137695
vt 0.188721 0.224609
vt 0.453125 0.086426
vt 0.281494 0.187500
vt 0.633789 0.129395
vt 0.689941 0.087402
vt 0.482178 0.155762
vt 0.386230 0.182617
vt 0.772949 0.287109
vt 0.869141 0.345703
vt 0.602539 0.178223
vt 0.837891 0.512695
vt 0.902344 0.505371
vt 0.868164 0.609863
vt 0.708008 0.273926
vt 0.574707 0.224609
vt 0.487305 0.204102
vt 0.648926 0.275391
vt 0.743164 0.366211
vt 0.801758 0.413086
vt 0.687500 0.338379
vt 0.792969 0.569580
vt 0.742188 0.420898
vt 0.778809 0.484863
vt 0.780273 0.683594
vt 0.749512 0.529053
vt 0.738770 0.800171
vt 0.753906 0.609375
vt 0.728516 0.458984
vt 0.753418 0.692383
vt 0.695801 0.385742
vt 0.730957 0.747803
vt 0.750977 0.740723
vt 0.732422 0.701416
vt 0.725586 0.633301
vt 0.717285 0.564209
vt 0.703125 0.649414
vt 0.703125 0.497559
vt 0.691895 0.585205
vt 0.678223 0.522705
vt 0.675293 0.451660
vt 0.691406 0.419922
vt 0.658691 0.395996
vt 0.657227 0.472168
vt 0.657715 0.366211
vt 0.649902 0.420410
vt 0.648438 0.333008
vt 0.625000 0.340820
vt 0.614258 0.291992
vt 0.635742 0.370117
vt 0.555176 0.253906
vt 0.593262 0.308105
vt 0.542480 0.278809
vt 0.486328 0.238770
vt 0.484375 0.264648
vt 0.534180 0.296875
vt 0.421875 0.248535
vt 0.410156 0.220215
vt 0.363770 0.244629
vt 0.427979 0.270508
vt 0.332275 0.215820
vt 0.377686 0.267578
vt 0.304688 0.241699
vt 0.253174 0.225586
vt 0.236572 0.258789
vt 0.340332 0.265137
vt 0.176147 0.263672
vt 0.287598 0.266602
vt 0.109802 0.285156
vt 0.354980 0.282227
vt 0.054108 0.310059
vt 0.106323 0.317383
vt 0.032440 0.318359
vt 0.024918 0.360840
vt 0.003500 0.385742
vt 0.053070 0.347656
vt 0.024506 0.398438
vt 0.053802 0.386230
vt 0.024124 0.433594
vt 0.000000 0.438477
vt 0.024673 0.486328
vt 0.039551 0.468750
vt 0.085266 0.547363
vt 0.053925 0.422852
vt 0.103821 0.355469
vt 0.168701 0.297363
vt 0.102112 0.395508
vt 0.226929 0.289062
vt 0.163940 0.333496
vt 0.276855 0.291504
vt 0.221924 0.322266
vt 0.162476 0.370117
vt 0.271484 0.317871
vt 0.106262 0.427246
vt 0.222778 0.357910
vt 0.064453 0.454590
vt 0.272217 0.343750
vt 0.229736 0.386719
vt 0.164062 0.399902
vt 0.179810 0.420898
vt 0.278809 0.365234
vt 0.128052 0.451172
vt 0.311035 0.319336
vt 0.092896 0.482910
vt 0.074890 0.501465
vt 0.158203 0.481934
vt 0.111816 0.535400
vt 0.128052 0.515625
vt 0.174072 0.557861
vt 0.118774 0.568359
vt 0.156738 0.606934
vt 0.153564 0.626465
vt 0.091064 0.590576
vt 0.160278 0.583496
vt 0.241089 0.668457
vt 0.250244 0.614502
vt 0.152100 0.649414
vt 0.244019 0.645020
vt 0.148926 0.672852
vt 0.094360 0.624268
vt 0.094238 0.649658
vt 0.236450 0.710205
vt 0.141724 0.694580
vt 0.091064 0.668945
vt 0.129639 0.712402
vt 0.231689 0.733887
vt 0.223877 0.757446
vt 0.213623 0.778076
vt 0.359863 0.841553
vt 0.353271 0.814575
vt 0.348389 0.787231
vt 0.344727 0.759399
vt 0.461426 0.802734
vt 0.466553 0.824341
vt 0.472168 0.843994
vt 0.380859 0.870850
vt 0.458496 0.778809
vt 0.478516 0.864990
vt 0.395508 0.899841
vt 0.456543 0.756470
vt 0.485596 0.889404
vt 0.407715 0.938080
vt 0.571289 0.786255
vt 0.495605 0.974716
vt 0.417236 0.999999
vt 0.491455 0.922913
vt 0.588379 0.913940
vt 0.582031 0.964081
vt 0.545410 0.888794
vt 0.595703 0.863159
vt 0.643555 0.887146
vt 0.590820 0.842651
vt 0.707520 0.790771
vt 0.584473 0.825806
vt 0.577148 0.806763
vt 0.715332 0.747803
vt 0.682617 0.782227
vt 0.662109 0.770752
vt 0.715820 0.709961
vt 0.700195 0.744385
vt 0.684570 0.738281
vt 0.647949 0.756958
vt 0.692383 0.706055
vt 0.567383 0.765259
vt 0.562012 0.744873
vt 0.634766 0.740234
vt 0.662598 0.729492
vt 0.664062 0.706055
vt 0.556641 0.718506
vt 0.679199 0.658203
vt 0.626953 0.713135
vt 0.652344 0.665039
vt 0.671875 0.597900
vt 0.648926 0.608398
vt 0.613770 0.672852
vt 0.658203 0.537109
vt 0.634277 0.549805
vt 0.610352 0.620117
vt 0.550781 0.682129
vt 0.598633 0.562500
vt 0.547363 0.631592
vt 0.453125 0.713379
vt 0.620117 0.495117
vt 0.453613 0.680908
vt 0.640137 0.485352
vt 0.620605 0.442383
vt 0.634277 0.434570
vt 0.617676 0.408691
vt 0.605469 0.449707
vt 0.626953 0.401367
vt 0.592285 0.503906
vt 0.633789 0.389160
vt 0.609375 0.385254
vt 0.616211 0.377930
vt 0.621094 0.365234
vt 0.608887 0.348633
vt 0.579102 0.321289
vt 0.597168 0.358398
vt 0.588379 0.370117
vt 0.566895 0.335449
vt 0.602539 0.390625
vt 0.557129 0.354492
vt 0.583008 0.382812
vt 0.525879 0.316895
vt 0.550293 0.374023
vt 0.482178 0.285156
vt 0.517578 0.340820
vt 0.479004 0.307129
vt 0.431641 0.287109
vt 0.435547 0.307617
vt 0.388428 0.299316
vt 0.383789 0.285645
vt 0.362061 0.297363
vt 0.391602 0.314453
vt 0.341553 0.297363
vt 0.364746 0.310059
vt 0.352051 0.301758
vt 0.350342 0.313477
vt 0.325439 0.283203
vt 0.336914 0.311035
vt 0.315430 0.301758
vt 0.349854 0.321289
vt 0.335449 0.321289
vt 0.365967 0.319824
vt 0.365723 0.329590
vt 0.350098 0.329102
vt 0.311523 0.335938
vt 0.335693 0.331055
vt 0.337646 0.340820
vt 0.315674 0.350586
vt 0.350586 0.337402
vt 0.340820 0.351562
vt 0.288574 0.381348
vt 0.322998 0.362793
vt 0.351074 0.346680
vt 0.360107 0.351562
vt 0.349854 0.362793
vt 0.364014 0.339844
vt 0.378418 0.362305
vt 0.386230 0.347168
vt 0.390869 0.331055
vt 0.429932 0.330078
vt 0.423828 0.352051
vt 0.473633 0.332520
vt 0.467041 0.357910
vt 0.510254 0.365234
vt 0.504395 0.386230
vt 0.459961 0.379883
vt 0.416016 0.371582
vt 0.406250 0.390625
vt 0.367676 0.376953
vt 0.452393 0.400879
vt 0.354248 0.392090
vt 0.500000 0.406738
vt 0.443115 0.424805
vt 0.392822 0.411133
vt 0.334717 0.375977
vt 0.369873 0.438965
vt 0.327637 0.416992
vt 0.303711 0.399414
vt 0.259521 0.427246
vt 0.242676 0.408203
vt 0.204102 0.448730
vt 0.287109 0.451172
vt 0.239014 0.482422
vt 0.331787 0.478027
vt 0.198364 0.522461
vt 0.291992 0.520508
vt 0.263916 0.572510
vt 0.406250 0.505127
vt 0.379395 0.559326
vt 0.357910 0.616943
vt 0.429199 0.456543
vt 0.487549 0.462402
vt 0.480225 0.511719
vt 0.495361 0.431152
vt 0.544922 0.465332
vt 0.467529 0.572754
vt 0.546387 0.511230
vt 0.544434 0.434570
vt 0.546875 0.572021
vt 0.544922 0.412109
vt 0.455811 0.634277
vt 0.583496 0.458496
vt 0.349365 0.660889
vt 0.345459 0.693115
vt 0.454346 0.738281
vt 0.343262 0.716553
vt 0.342773 0.735596
vt 0.239136 0.687744
vt 0.578125 0.430176
vt 0.596680 0.423828
vt 0.576660 0.410156
vt 0.608887 0.415527
vt 0.597656 0.399902
vt 0.590332 0.410645
vt 0.579590 0.395996
vt 0.546387 0.393066
vt1 0.102234 0.087402
vt1 0.149414 0.008301
vt1 0.172485 0.017090
vt1 0.124634 0.096191
vt1 0.203613 0.022461
vt1 0.061432 0.199707
vt1 0.037933 0.196289
vt1 0.009491 0.329590
vt1 0.157471 0.101562
vt1 0.263428 0.022461
vt1 0.097534 0.198730
vt1 0.036804 0.290527
vt1 0.212402 0.101562
vt1 0.438477 0.014648
vt1 0.157837 0.188965
vt1 0.074951 0.270996
vt1 0.239258 0.181641
vt1 0.135132 0.250488
vt1 0.303223 0.108398
vt1 0.377197 0.143555
vt1 0.213867 0.229004
vt1 0.501953 0.093262
vt1 0.314941 0.192383
vt1 0.698730 0.135254
vt1 0.760254 0.094238
vt1 0.533691 0.161133
vt1 0.429199 0.187988
vt1 0.851074 0.290527
vt1 0.956055 0.348145
vt1 0.665039 0.183105
vt1 0.921875 0.512451
vt1 0.991699 0.505371
vt1 0.954590 0.608154
vt1 0.779785 0.277832
vt1 0.634766 0.229004
vt1 0.539551 0.208984
vt1 0.715820 0.278809
vt1 0.818359 0.368164
vt1 0.882324 0.414551
vt1 0.757812 0.341309
vt1 0.873047 0.568359
vt1 0.816895 0.422363
vt1 0.856934 0.484863
vt1 0.858398 0.680664
vt1 0.825195 0.528564
vt1 0.813477 0.795288
vt1 0.830078 0.607666
vt1 0.802246 0.459473
vt1 0.829590 0.689209
vt1 0.766602 0.387695
vt1 0.805176 0.743896
vt1 0.826660 0.736816
vt1 0.806641 0.697998
vt1 0.799316 0.631104
vt1 0.790527 0.562988
vt1 0.774902 0.646973
vt1 0.774414 0.498047
vt1 0.762695 0.583740
vt1 0.747559 0.522217
vt1 0.744141 0.452637
vt1 0.761719 0.421387
vt1 0.726074 0.397461
vt1 0.725098 0.472168
vt1 0.725098 0.368652
vt1 0.716797 0.421875
vt1 0.714844 0.335938
vt1 0.689453 0.343262
vt1 0.677734 0.295410
vt1 0.701172 0.372070
vt1 0.613281 0.257812
vt1 0.654785 0.311035
vt1 0.599609 0.282227
vt1 0.538086 0.242676
vt1 0.536133 0.268555
vt1 0.590332 0.299805
vt1 0.468018 0.252930
vt1 0.455322 0.225098
vt1 0.404785 0.248535
vt1 0.474609 0.274414
vt1 0.370361 0.220703
vt1 0.419922 0.271484
vt1 0.340332 0.246094
vt1 0.283936 0.229980
vt1 0.265869 0.262695
vt1 0.379150 0.269043
vt1 0.200073 0.267578
vt1 0.321777 0.270508
vt1 0.127808 0.288574
vt1 0.395264 0.285645
vt1 0.067078 0.313477
vt1 0.123962 0.320312
vt1 0.043427 0.321289
vt1 0.035217 0.363281
vt1 0.011879 0.387695
vt1 0.065918 0.350098
vt1 0.034790 0.400391
vt1 0.066711 0.387695
vt1 0.034363 0.435059
vt1 0.008064 0.439453
vt1 0.034943 0.486328
vt1 0.051178 0.469238
vt1 0.101013 0.546631
vt1 0.066833 0.424316
vt1 0.121277 0.357910
vt1 0.191895 0.300781
vt1 0.119385 0.397461
vt1 0.255371 0.292480
vt1 0.186768 0.336426
vt1 0.310059 0.294922
vt1 0.250000 0.325195
vt1 0.185181 0.372559
vt1 0.303955 0.320801
vt1 0.123901 0.428711
vt1 0.250732 0.359863
vt1 0.078369 0.455566
vt1 0.304932 0.346191
vt1 0.258545 0.388672
vt1 0.186890 0.401367
vt1 0.204224 0.422363
vt1 0.312256 0.367188
vt1 0.147705 0.451660
vt1 0.347168 0.322266
vt1 0.109375 0.482910
vt1 0.089722 0.501465
vt1 0.180664 0.482422
vt1 0.130005 0.534912
vt1 0.147705 0.515381
vt1 0.197876 0.557129
vt1 0.137451 0.567383
vt1 0.178955 0.604980
vt1 0.175537 0.624512
vt1 0.107361 0.589111
vt1 0.182861 0.582031
vt1 0.270752 0.665771
vt1 0.281006 0.612793
vt1 0.173828 0.646973
vt1 0.274170 0.642578
vt1 0.170410 0.670166
vt1 0.110962 0.622314
vt1 0.110779 0.647217
vt1 0.265869 0.706787
vt1 0.162476 0.691406
vt1 0.107361 0.666260
vt1 0.149414 0.708984
vt1 0.260498 0.730225
vt1 0.251953 0.753296
vt1 0.240967 0.773560
vt1 0.400391 0.836060
vt1 0.393311 0.809448
vt1 0.387939 0.782593
vt1 0.383789 0.755249
vt1 0.510742 0.797852
vt1 0.516602 0.819214
vt1 0.522949 0.838501
vt1 0.423340 0.864868
vt1 0.507812 0.774292
vt1 0.529785 0.859009
vt1 0.439209 0.893372
vt1 0.505371 0.752319
vt1 0.537109 0.883118
vt1 0.452637 0.931030
vt1 0.630859 0.781738
vt1 0.548340 0.967072
vt1 0.463135 0.991936
vt1 0.543945 0.916077
vt1 0.649902 0.907227
vt1 0.642578 0.956604
vt1 0.602539 0.882507
vt1 0.657227 0.857300
vt1 0.709961 0.880920
vt1 0.652344 0.837158
vt1 0.779785 0.786133
vt1 0.645020 0.820557
vt1 0.637207 0.801880
vt1 0.788086 0.743896
vt1 0.752441 0.777710
vt1 0.729980 0.766357
vt1 0.788574 0.706787
vt1 0.771484 0.740479
vt1 0.754395 0.734375
vt1 0.714844 0.752808
vt1 0.762695 0.702881
vt1 0.626465 0.760986
vt1 0.621094 0.740967
vt1 0.700195 0.736328
vt1 0.730957 0.725830
vt1 0.731934 0.702881
vt1 0.615234 0.715088
vt1 0.748535 0.655518
vt1 0.691406 0.709717
vt1 0.719727 0.662354
vt1 0.740723 0.596191
vt1 0.715332 0.606689
vt1 0.677734 0.669922
vt1 0.725586 0.536621
vt1 0.699707 0.549072
vt1 0.673828 0.618164
vt1 0.608398 0.679199
vt1 0.661133 0.561523
vt1 0.604980 0.629395
vt1 0.501953 0.709961
vt1 0.684082 0.495117
vt1 0.502441 0.677979
vt1 0.706055 0.485352
vt1 0.684570 0.443359
vt1 0.699707 0.435547
vt1 0.681152 0.410156
vt1 0.667969 0.450684
vt1 0.691406 0.403320
vt1 0.654297 0.503906
vt1 0.699219 0.391113
vt1 0.672363 0.387207
vt1 0.679688 0.379883
vt1 0.685547 0.367188
vt1 0.671875 0.351074
vt1 0.639648 0.324219
vt1 0.659668 0.360352
vt1 0.649414 0.372070
vt1 0.626465 0.338379
vt1 0.665039 0.392578
vt1 0.615723 0.356445
vt1 0.643555 0.384766
vt1 0.581055 0.319824
vt1 0.607910 0.375977
vt1 0.533691 0.288574
vt1 0.572266 0.343262
vt1 0.530273 0.310059
vt1 0.478760 0.290527
vt1 0.482910 0.311035
vt1 0.431641 0.302734
vt1 0.426514 0.289062
vt1 0.402832 0.300781
vt1 0.435059 0.317383
vt1 0.380615 0.300781
vt1 0.405762 0.312988
vt1 0.391846 0.304688
vt1 0.389893 0.316895
vt1 0.363037 0.287109
vt1 0.375488 0.313965
vt1 0.352051 0.304688
vt1 0.389648 0.324219
vt1 0.373779 0.323730
vt1 0.407227 0.322754
vt1 0.406982 0.332520
vt1 0.389893 0.332031
vt1 0.347656 0.338867
vt1 0.374023 0.333496
vt1 0.376221 0.343262
vt1 0.352295 0.353027
vt1 0.390381 0.339844
vt1 0.379639 0.354004
vt1 0.322754 0.383301
vt1 0.360352 0.365234
vt1 0.390869 0.349121
vt1 0.400635 0.354004
vt1 0.389404 0.364746
vt1 0.405029 0.342773
vt1 0.420654 0.364746
vt1 0.429199 0.349609
vt1 0.434326 0.333984
vt1 0.476807 0.333008
vt1 0.470215 0.354492
vt1 0.524414 0.335449
vt1 0.517090 0.360352
vt1 0.564453 0.367188
vt1 0.558105 0.388184
vt1 0.509277 0.381836
vt1 0.461670 0.374023
vt1 0.450928 0.392578
vt1 0.409180 0.378906
vt1 0.500977 0.402344
vt1 0.394287 0.394043
vt1 0.553223 0.408203
vt1 0.491455 0.425781
vt1 0.436279 0.412598
vt1 0.373047 0.378418
vt1 0.411377 0.439941
vt1 0.365234 0.418457
vt1 0.339111 0.401367
vt1 0.291016 0.428711
vt1 0.272705 0.410156
vt1 0.230591 0.449219
vt1 0.321045 0.452148
vt1 0.268555 0.482422
vt1 0.369873 0.478516
vt1 0.224365 0.521973
vt1 0.326416 0.520020
vt1 0.295898 0.571289
vt1 0.450928 0.504883
vt1 0.421631 0.558350
vt1 0.398438 0.614990
vt1 0.476074 0.457520
vt1 0.539551 0.462891
vt1 0.531250 0.511719
vt1 0.547852 0.432129
vt1 0.602539 0.465820
vt1 0.517578 0.571533
vt1 0.604004 0.510986
vt1 0.602051 0.435547
vt1 0.604492 0.570801
vt1 0.602051 0.413574
vt1 0.504883 0.632080
vt1 0.644531 0.458984
vt1 0.389160 0.658447
vt1 0.384521 0.689941
vt1 0.503418 0.734375
vt1 0.382324 0.713135
vt1 0.381592 0.731934
vt1 0.268799 0.684814
vt1 0.638672 0.431152
vt1 0.658691 0.424805
vt1 0.636719 0.411621
vt1 0.671875 0.416992
vt1 0.659668 0.401367
vt1 0.651855 0.412109
vt1 0.640137 0.397461
vt1 0.604004 0.395020
vn 0.031496 0.653543 0.755905
vn -0.007874 0.700787 0.708661
vn -0.007874 0.984252 0.157480
vn 0.015748 0.992126 0.149606
vn -0.007874 1.000000 0.023622
vn 0.047244 0.968504 0.251968
vn 0.110236 0.543307 0.834646
vn 0.322835 0.417323 0.850394
vn 0.007874 1.000000 0.015748
vn 0.000000 1.000000 0.007874
vn 0.047244 1.000000 0.047244
vn 0.188976 0.889764 0.425197
vn 0.000000 1.000000 -0.000000
vn 0.000000 1.000000 -0.000000
vn 0.023622 1.000000 0.015748
vn 0.133858 0.992126 0.070866
vn 0.015748 1.000000 -0.000000
vn 0.078740 1.000000 0.023622
vn 0.000000 1.000000 -0.000000
vn 0.000000 1.000000 -0.000000
vn 0.070866 1.000000 -0.000000
vn 0.000000 1.000000 -0.000000
vn 0.015748 1.000000 -0.000000
vn 0.000000 1.000000 -0.000000
vn 0.000000 1.000000 -0.000000
vn 0.000000 1.000000 -0.007874
vn 0.000000 1.000000 -0.007874
vn -0.007874 1.000000 -0.000000
vn -0.015748 1.000000 0.007874
vn 0.000000 1.000000 -0.007874
vn -0.031496 1.000000 0.015748
vn -0.015748 1.000000 0.015748
vn -0.062992 0.992126 0.094488
vn -0.015748 1.000000 -0.015748
vn -0.007874 1.000000 -0.023622
vn -0.007874 1.000000 -0.015748
vn -0.023622 1.000000 -0.023622
vn -0.039370 1.000000 -0.015748
vn -0.031496 1.000000 -0.000000
vn -0.031496 1.000000 -0.031496
vn -0.661417 0.748031 0.023622
vn -0.582677 0.811023 -0.015748
vn -0.637795 0.771653 -0.015748
vn -0.433071 0.889764 0.157480
vn -1.000000 0.015748 -0.000000
vn -0.149606 0.913386 0.377953
vn -1.000000 0.047244 0.007874
vn -1.000000 0.078740 -0.000000
vn -1.000000 -0.007874 0.055118
vn -0.574803 0.818897 -0.070866
vn -0.818898 0.165354 0.543307
vn -0.598425 0.535433 0.598425
vn -0.992126 -0.055118 0.078740
vn -1.000000 -0.055118 0.023622
vn -1.000000 -0.031496 0.000000
vn -0.968504 -0.251968 0.055118
vn -1.000000 -0.023622 0.000000
vn -0.976378 -0.228346 0.023622
vn -0.984252 -0.157480 0.000000
vn -1.000000 -0.039370 0.000000
vn -1.000000 0.055118 -0.007874
vn -0.984252 0.188976 -0.031496
vn -0.984252 -0.188976 -0.015748
vn -0.566929 0.795275 -0.204724
vn -1.000000 -0.039370 0.000000
vn -0.078740 0.992126 -0.062992
vn -0.196850 0.929134 -0.314961
vn -0.023622 1.000000 -0.031496
vn -0.622047 0.700787 -0.346457
vn -0.015748 1.000000 -0.031496
vn -0.055118 0.976378 -0.196850
vn -0.023622 0.992126 -0.141732
vn -0.007874 1.000000 -0.023622
vn -0.015748 0.992126 -0.133858
vn -0.078740 0.669291 -0.740157
vn -0.007874 1.000000 -0.015748
vn 0.000000 1.000000 -0.015748
vn 0.015748 1.000000 -0.015748
vn -0.015748 0.968504 -0.259843
vn 0.015748 1.000000 -0.007874
vn 0.031496 1.000000 -0.031496
vn 0.055118 1.000000 -0.007874
vn 0.047244 1.000000 -0.007874
vn 0.535433 0.850394 -0.015748
vn 0.141732 0.992126 -0.031496
vn 0.582677 0.811023 -0.039370
vn 0.559055 0.826772 -0.039370
vn 0.661417 0.748031 0.007874
vn 0.283465 0.944882 -0.188976
vn 0.677165 0.724409 0.133858
vn 1.000000 0.078740 -0.007874
vn 0.661417 0.622047 0.425197
vn 0.881890 0.251969 0.393701
vn 0.314961 0.157480 0.937008
vn 0.992126 0.133858 0.023622
vn 0.937008 0.031496 0.354331
vn 1.000000 0.039370 0.015748
vn 0.944882 -0.023622 0.330709
vn 0.338583 0.118110 0.937008
vn 0.354331 0.000000 0.937008
vn 0.929134 -0.157480 0.330709
vn 0.299213 -0.464567 0.826772
vn 1.000000 0.007874 0.015748
vn 1.000000 0.047244 -0.000000
vn 0.976378 0.220472 -0.015748
vn 1.000000 0.007874 -0.000000
vn 0.960630 0.283465 -0.023622
vn 1.000000 0.062992 -0.007874
vn 0.960630 0.275591 -0.023622
vn 0.992126 0.094488 -0.015748
vn 1.000000 0.007874 -0.000000
vn 0.992126 0.102362 -0.015748
vn 0.952756 -0.307087 0.015748
vn 1.000000 0.031496 -0.007874
vn 0.976378 -0.212598 0.055118
vn 1.000000 0.031496 -0.023622
vn 0.921260 -0.385827 -0.007874
vn 0.929134 -0.362205 0.007874
vn 0.354331 -0.937008 -0.007874
vn 0.913386 -0.393701 -0.047244
vn 0.393701 -0.921260 0.007874
vn 1.000000 0.078740 -0.015748
vn 0.527559 -0.850394 0.062992
vn 0.637795 -0.700787 0.322835
vn 0.031496 -1.000000 0.015748
vn 0.149606 -0.984252 0.086614
vn 0.055118 -1.000000 0.023622
vn 0.015748 -1.000000 0.023622
vn 0.188976 -0.881890 0.440945
vn 0.015748 -0.921260 0.393701
vn 0.031496 -0.385827 0.921260
vn 0.354331 0.000000 0.937008
vn 0.023622 -1.000000 0.039370
vn 0.000000 -0.960630 0.275591
vn 0.007874 -1.000000 0.023622
vn 0.015748 0.015748 1.000000
vn 0.007874 -1.000000 0.023622
vn 0.031496 0.102362 0.992126
vn 0.338583 0.118110 0.937008
vn 0.314961 0.157480 0.937008
vn 0.000000 -0.015748 1.000000
vn 0.039370 0.141732 0.992126
vn 0.322835 0.417323 0.850394
vn 0.110236 0.543307 0.834646
vn 0.015748 0.047244 1.000000
vn 0.031496 0.133858 0.992126
vn 0.031496 0.653543 0.755905
vn -0.007874 0.700787 0.708661
vn 0.015748 0.157480 0.984252
vn 0.000000 0.015748 1.000000
vn -0.007874 -0.023622 1.000000
vn 0.000000 -0.023622 1.000000
vn 0.007874 0.157480 0.984252
vn -0.007874 0.732283 0.685039
vn -0.007874 0.984252 0.157480
vn -0.015748 -0.062992 1.000000
vn -0.007874 0.984252 0.173228
vn -0.007874 1.000000 0.023622
vn -0.047244 -0.511811 0.858268
vn -0.007874 1.000000 0.039370
vn 0.000000 1.000000 0.007874
vn -0.015748 -0.133858 0.992126
vn 0.000000 1.000000 -0.000000
vn 0.000000 1.000000 -0.000000
vn 0.000000 1.000000 0.015748
vn -0.015748 1.000000 0.015748
vn -0.015748 1.000000 0.007874
vn -0.007874 1.000000 0.047244
vn -0.039370 0.992126 0.141732
vn -0.062992 0.992126 0.094488
vn -0.055118 0.771653 0.637795
vn -0.212598 0.283465 0.937008
vn -0.023622 0.181102 0.984252
vn -0.007874 -0.055118 1.000000
vn -0.795276 -0.007874 0.606299
vn -0.157480 -0.023622 0.984252
vn -0.125984 -0.118110 0.984252
vn -0.960630 -0.244094 0.118110
vn -0.755906 -0.078740 0.653543
vn -0.692913 -0.440945 0.566929
vn -0.133858 -0.425197 0.897638
vn -0.834646 -0.535433 0.125984
vn -0.055118 -0.472441 0.881890
vn -0.039370 -0.944882 0.314961
vn -0.094488 -0.897638 0.440945
vn -0.385827 -0.850394 0.362205
vn -0.433071 -0.897638 0.055118
vn -0.015748 -1.000000 0.015748
vn -0.685039 -0.716535 0.125984
vn -0.070866 -0.992126 0.094488
vn -0.188976 -0.984252 0.039370
vn -0.574803 -0.811023 0.062992
vn -0.078740 -1.000000 0.007874
vn -0.023622 -1.000000 0.023622
vn -0.559055 -0.826772 0.007874
vn -0.023622 -1.000000 0.000000
vn -0.015748 -1.000000 0.000000
vn 0.000000 -1.000000 0.007874
vn -0.007874 -1.000000 0.000000
vn 0.000000 -1.000000 0.000000
vn 0.007874 -1.000000 0.023622
vn -0.070866 -1.000000 -0.015748
vn 0.007874 -1.000000 0.015748
vn -0.614173 -0.787401 -0.031496
vn -0.614173 -0.787401 -0.086614
vn -0.984252 -0.188976 -0.023622
vn -0.921260 -0.307087 -0.228346
vn -0.086614 -0.992126 -0.031496
vn -0.984252 -0.062992 -0.173228
vn -0.015748 -1.000000 -0.007874
vn -0.960630 0.196850 -0.188976
vn -0.559055 -0.102362 -0.818897
vn -0.559055 0.259842 -0.787401
vn -0.354331 0.661417 -0.661417
vn -0.141732 0.653543 -0.748031
vn -0.110236 0.692913 -0.708661
vn -0.094488 0.299212 -0.952756
vn -0.070866 0.047244 -1.000000
vn -0.031496 0.236220 -0.968504
vn -0.511811 -0.259843 -0.818897
vn 0.007874 0.031496 -1.000000
vn -0.070866 -0.157480 -0.984252
vn -0.023622 0.141732 -0.992126
vn 0.007874 -0.125984 -0.992126
vn -0.015748 0.598425 -0.795276
vn 0.000000 -0.000000 -1.000000
vn -0.007874 0.015748 -1.000000
vn 0.055118 0.433071 -0.897638
vn 0.007874 0.015748 -1.000000
vn 0.094488 0.220472 -0.968504
vn 0.086614 0.850394 -0.519685
vn 0.338583 0.637795 -0.692913
vn 0.023622 0.062992 -1.000000
vn 0.724409 0.645669 -0.236221
vn 0.196850 0.188976 -0.960630
vn 0.677165 0.480315 -0.559055
vn 0.637795 0.291338 -0.716535
vn 0.653543 0.755905 -0.102362
vn 0.960630 0.228346 -0.157480
vn 0.968504 0.244094 -0.023622
vn 0.637795 0.133858 -0.755905
vn 0.984252 0.047244 -0.149606
vn 0.149606 0.125984 -0.984252
vn 0.086614 -0.031496 -0.992126
vn 0.622047 0.031496 -0.779527
vn 1.000000 -0.007874 -0.031496
vn 0.984252 -0.047244 -0.165354
vn 0.913386 -0.330709 -0.228346
vn 0.921260 -0.377953 -0.086614
vn 0.535433 -0.267717 -0.803149
vn 0.503937 -0.842520 -0.173228
vn 0.354331 -0.929134 -0.047244
vn 0.425197 -0.905512 -0.055118
vn 0.409449 -0.685039 -0.606299
vn 0.070866 -0.748031 -0.653543
vn 0.118110 -0.976378 -0.165354
vn 0.039370 -0.244095 -0.968504
vn 0.007874 -0.763779 -0.645669
vn 0.007874 -0.283465 -0.960630
vn 0.000000 -0.062992 -1.000000
vn 0.000000 -0.047244 -1.000000
vn 0.007874 -0.259843 -0.968504
vn 0.000000 -0.031496 -1.000000
vn 0.007874 -0.259843 -0.968504
vn 0.007874 -0.196850 -0.976378
vn 0.031496 -0.708661 -0.708661
vn 0.000000 -0.748031 -0.661417
vn -0.007874 -0.763779 -0.637795
vn 0.000000 -0.992126 -0.149606
vn 0.039370 -0.984252 -0.149606
vn 0.007874 -0.984252 -0.188976
vn 0.031496 -1.000000 -0.031496
vn 0.007874 -0.984252 -0.188976
vn 0.000000 -1.000000 -0.039370
vn 0.000000 -1.000000 -0.031496
vn 0.118110 -0.992126 -0.062992
vn 0.000000 -1.000000 -0.007874
vn 0.015748 -1.000000 -0.007874
vn 0.086614 -0.992126 -0.031496
vn 0.039370 -1.000000 0.000000
vn 0.330709 -0.944882 -0.015748
vn 0.039370 -1.000000 0.007874
vn 0.007874 -1.000000 0.000000
vn 0.007874 -1.000000 0.007874
vn 0.000000 -1.000000 0.000000
vn 0.015748 -1.000000 0.015748
vn 0.000000 -1.000000 0.000000
vn 0.007874 -1.000000 0.007874
vn 0.000000 -1.000000 0.000000
vn 0.000000 -1.000000 0.000000
vn 0.000000 -1.000000 0.007874
vn 0.000000 -1.000000 -0.007874
vn 0.000000 -1.000000 -0.015748
vn 0.000000 -1.000000 0.000000
vn 0.000000 -1.000000 -0.039370
vn -0.007874 -1.000000 -0.015748
vn 0.000000 -1.000000 0.000000
vn 0.000000 -1.000000 0.000000
vn -0.007874 -1.000000 -0.039370
vn 0.000000 -1.000000 0.000000
vn 0.000000 -0.984252 -0.188976
vn 0.000000 -1.000000 0.007874
vn -0.023622 -1.000000 -0.023622
vn 0.000000 -1.000000 0.015748
vn 0.007874 -1.000000 0.023622
vn 0.000000 -0.976378 0.236221
vn 0.000000 -0.976378 0.212599
vn -0.015748 -0.511811 0.858268
vn 0.023622 -0.456693 0.889764
vn -0.031496 -1.000000 -0.039370
vn -0.188976 -0.976378 -0.070866
vn -0.015748 -0.960630 -0.291338
vn -0.590551 -0.763779 -0.259842
vn -0.409449 -0.629921 -0.661417
vn -0.228346 -0.913386 -0.330709
vn -0.078740 -0.598425 -0.795275
vn 0.000000 -0.661417 -0.748031
tan -0.966024 -0.182776 0.198276 1.000000
tan -0.921136 -0.267406 0.254201 1.000000
tan -0.969062 -0.046004 0.239072 1.000000
tan -0.983260 -0.013020 0.189844 1.000000
tan -1.000558 -0.009548 0.070680 1.000000
tan -1.001488 0.049724 -0.003348 1.000000
tan -0.996094 0.100192 0.066340 1.000000
tan -0.672205 0.736933 -0.106454 1.000000
tan -1.000248 0.007378 0.031620 1.000000
tan -1.000062 0.000682 -0.086614 1.000000
tan -0.993986 0.051336 -0.092628 1.000000
tan -0.890570 0.334801 -0.304793 1.000000
tan -1.000000 -0.000000 -0.039370 1.000000
tan -0.622047 0.000000 0.779527 1.000000
tan -0.992374 0.024924 -0.094116 1.000000
tan -0.963110 0.146940 -0.237956 1.000000
tan -0.992126 0.015624 0.094488 1.000000
tan -0.984438 0.081220 -0.156860 1.000000
tan -0.984252 0.000000 0.188976 1.000000
tan -0.779528 0.000000 0.622047 1.000000
tan -1.000000 0.070866 -0.000000 1.000000
tan 0.086614 0.000000 1.000000 1.000000
tan -0.952756 0.015004 0.299213 1.000000
tan 0.881890 0.000000 0.472441 1.000000
tan 0.976378 0.000000 0.228346 1.000000
tan 0.125984 0.007812 0.992126 1.000000
tan -0.543307 0.006634 0.842520 1.000000
tan 0.976378 0.007688 -0.220472 1.000000
tan 0.889764 0.017670 -0.464567 1.000000
tan 0.795338 0.004774 0.606299 1.000000
tan 0.669043 0.032736 -0.740653 1.000000
tan 0.614173 0.022072 -0.787401 1.000000
tan 0.428173 0.112840 -0.899374 1.000000
tan 1.000248 0.016492 0.046996 1.000000
tan 0.724595 0.022072 0.692851 1.000000
tan 0.125984 0.016616 0.992126 1.000000
tan 0.992684 0.026040 0.109678 1.000000
tan 0.969000 0.034162 -0.253208 1.000000
tan 0.858268 0.027032 -0.520181 1.000000
tan 0.977370 0.024304 -0.205716 1.000000
tan 0.537355 0.496807 -0.686279 1.000000
tan 0.769546 0.546469 -0.330027 1.000000
tan 0.685473 0.556761 -0.480377 1.000000
tan 0.244218 0.283030 -0.927522 1.000000
tan 0.011284 0.716535 -0.701035 1.000000
tan -0.965218 -0.214024 0.135160 1.000000
tan 0.019034 0.543679 -0.844752 1.000000
tan 0.066340 0.842520 -0.539153 1.000000
tan -0.054684 0.331143 -0.944820 1.000000
tan 0.795834 0.533697 -0.287929 1.000000
tan -0.565627 -0.144150 -0.808667 1.000000
tan -0.693905 0.028272 -0.719201 1.000000
tan -0.091264 0.278752 -0.954802 1.000000
tan -0.047368 0.487445 -0.867878 1.000000
tan -0.020088 0.637795 -0.772397 1.000000
tan -0.134106 0.308140 -0.947796 1.000000
tan -0.018042 0.763779 -0.646041 1.000000
tan -0.141794 0.518507 -0.848596 1.000000
tan -0.105400 0.658751 -0.739352 1.000000
tan -0.032240 0.818897 -0.575733 1.000000
tan 0.052018 0.873830 -0.489491 1.000000
tan 0.184264 0.889764 -0.419679 1.000000
tan -0.124620 0.707483 -0.701035 1.000000
tan 0.818588 0.553909 -0.115134 1.000000
tan -0.031620 0.803149 -0.599355 1.000000
tan 0.987786 0.085560 0.112840 1.000000
tan 0.913262 0.289851 0.284270 1.000000
tan 0.850890 0.036704 0.527187 1.000000
tan 0.776552 0.603075 -0.174406 1.000000
tan 0.503937 0.035216 0.866142 1.000000
tan 0.656705 0.183272 0.725153 1.000000
tan 0.427429 0.138384 0.897452 1.000000
tan 0.141546 0.024552 0.992188 1.000000
tan 0.124992 0.134788 0.984314 1.000000
tan 0.291029 0.725029 0.624651 1.000000
tan -0.204848 0.013764 0.976440 1.000000
tan -0.299337 0.015004 0.952756 1.000000
tan -0.637671 0.022196 0.771777 1.000000
tan -0.119040 0.256061 0.961622 1.000000
tan -0.834584 0.017422 0.543431 1.000000
tan -0.401079 0.041416 0.913882 1.000000
tan -0.936946 0.054436 0.354765 1.000000
tan -0.992126 0.047988 0.141732 1.000000
tan -0.850146 0.536301 0.055304 1.000000
tan -0.850022 0.137516 0.506665 1.000000
tan -0.813194 0.582367 -0.038502 1.000000
tan -0.811582 0.556451 0.161014 1.000000
tan -0.741645 0.656953 -0.112344 1.000000
tan -0.632401 0.331081 0.706801 1.000000
tan -0.704135 0.689627 -0.170004 1.000000
tan -0.078988 0.984190 -0.189596 1.000000
tan -0.620435 0.769297 -0.160332 1.000000
tan -0.245644 0.960506 -0.064480 1.000000
tan -0.133238 0.982144 -0.120280 1.000000
tan -0.128216 0.977618 -0.154752 1.000000
tan 0.001426 0.996156 -0.092318 1.000000
tan -0.034968 0.976750 -0.221403 1.000000
tan 0.102300 0.967202 -0.223201 1.000000
tan 0.125116 0.984624 -0.169322 1.000000
tan 0.332011 0.936140 -0.125550 1.000000
tan 0.290161 0.865646 -0.403001 1.000000
tan 0.915680 -0.094674 -0.384587 1.000000
tan -0.002232 0.945130 -0.330833 1.000000
tan -0.045756 0.968504 -0.252341 1.000000
tan -0.220596 0.968566 -0.117056 1.000000
tan -0.007502 0.952756 -0.291339 1.000000
tan -0.284395 0.961002 -0.033356 1.000000
tan -0.063674 0.992126 -0.149606 1.000000
tan -0.274847 0.961560 0.041106 1.000000
tan -0.095108 0.984438 -0.085188 1.000000
tan -0.007750 0.984252 -0.196850 1.000000
tan -0.103230 0.992250 -0.053878 1.000000
tan 0.295121 0.899002 -0.324261 1.000000
tan -0.032364 0.992188 -0.141484 1.000000
tan 0.217558 0.897328 -0.392771 1.000000
tan -0.034410 0.992498 -0.133362 1.000000
tan 0.378573 0.907310 -0.165168 1.000000
tan 0.355261 0.906628 -0.215884 1.000000
tan 0.906876 0.344907 -0.234484 1.000000
tan 0.375473 0.897762 -0.222209 1.000000
tan 0.864344 0.366421 -0.345961 1.000000
tan -0.078864 1.000248 -0.006634 1.000000
tan 0.805506 0.472317 -0.369831 1.000000
tan 0.760742 0.489057 -0.441317 1.000000
tan 0.913882 0.022444 -0.402567 1.000000
tan 0.873210 0.091202 -0.471883 1.000000
tan 0.890880 0.038254 -0.459297 1.000000
tan 0.851138 0.000930 -0.528055 1.000000
tan 0.906194 -0.021328 -0.431025 1.000000
tan 0.784116 -0.236717 -0.585281 1.000000
tan 0.716845 -0.630169 -0.288424 1.000000
tan 0.509083 -0.841032 -0.192510 1.000000
tan 0.812574 -0.003782 -0.583607 1.000000
tan 0.662595 -0.206150 -0.718581 1.000000
tan 0.740716 -0.010168 -0.677351 1.000000
tan 0.693285 -0.724781 0.000496 1.000000
tan 0.709219 -0.010974 -0.700973 1.000000
tan 0.641639 -0.760493 0.058094 1.000000
tan 0.440263 -0.902040 -0.045384 1.000000
tan 0.548887 -0.832165 -0.044640 1.000000
tan 0.645917 -0.763779 -0.012028 1.000000
tan 0.649513 -0.762415 0.083142 1.000000
tan 0.591977 -0.792113 0.163990 1.000000
tan 0.651621 -0.671213 0.350859 1.000000
tan 0.647529 -0.764399 0.025916 1.000000
tan 0.670965 -0.737801 0.078244 1.000000
tan 0.656395 -0.585529 0.478889 1.000000
tan 0.222022 -0.690743 0.685535 1.000000
tan 0.344411 -0.923368 0.142228 1.000000
tan 0.362205 -0.929134 0.014632 1.000000
tan 0.402133 -0.913572 -0.018414 1.000000
tan 0.110236 -0.992126 -0.023436 1.000000
tan 0.048980 -0.984376 0.157108 1.000000
tan -0.011532 -0.685163 0.732283 1.000000
tan -0.022010 -0.157666 0.984314 1.000000
tan 0.151094 -0.984624 -0.059644 1.000000
tan -0.069750 -0.173786 0.984252 1.000000
tan -0.094488 -0.024180 0.992126 1.000000
tan 0.172608 -0.850704 -0.497799 1.000000
tan -0.094488 -0.039804 0.992126 1.000000
tan -0.133858 -0.007812 0.992126 1.000000
tan -0.133858 -0.984190 -0.134912 1.000000
tan -0.102362 0.000000 0.992126 1.000000
tan -0.141732 0.000000 0.992126 1.000000
tan -0.094488 -0.015624 0.992126 1.000000
tan -0.094364 -0.017112 0.992250 1.000000
tan -0.054994 -0.008742 1.000248 1.000000
tan -0.046872 -0.047616 1.000062 1.000000
tan -0.249985 -0.147188 0.960878 1.000000
tan -0.325129 -0.110112 0.939426 1.000000
tan -0.262633 -0.625705 0.734329 1.000000
tan -0.705437 -0.709839 0.054684 1.000000
tan -0.220658 -0.962490 0.171802 1.000000
tan -0.196850 -0.984252 -0.055800 1.000000
tan -0.570897 -0.319735 -0.752991 1.000000
tan -0.609647 -0.776861 -0.116188 1.000000
tan -0.561101 -0.810961 -0.169136 1.000000
tan -0.112468 -0.036394 -0.989956 1.000000
tan -0.564325 -0.435551 -0.705189 1.000000
tan -0.379441 -0.446401 -0.810961 1.000000
tan -0.401389 -0.804390 -0.440883 1.000000
tan -0.036704 -0.174592 -0.985182 1.000000
tan -0.097216 -0.874946 -0.474797 1.000000
tan -0.039680 -0.314031 -0.947052 1.000000
tan -0.252961 -0.405729 -0.880154 1.000000
tan -0.265857 -0.273855 -0.926158 1.000000
tan -0.122822 -0.001736 -0.993304 1.000000
tan -0.031744 -0.015252 -1.000248 1.000000
tan -0.278133 0.099076 -0.948850 1.000000
tan -0.195672 -0.078864 -0.974828 1.000000
tan -0.248001 0.008618 -0.974952 1.000000
tan -0.448323 0.251038 -0.858826 1.000000
tan -0.378573 0.022506 -0.927460 1.000000
tan -0.189720 -0.018786 -0.984996 1.000000
tan -0.530721 0.351541 -0.769422 1.000000
tan -0.433071 0.010230 -0.898010 1.000000
tan -0.236220 0.003720 -0.968752 1.000000
tan -0.015748 -0.007874 -1.000000 1.000000
tan -0.251969 0.001984 -0.968566 1.000000
tan -0.023622 -0.000000 -1.000000 1.000000
tan 0.244280 -0.020956 -0.968566 1.000000
tan -0.424329 0.044392 -0.909418 1.000000
tan 0.252093 -0.013268 -0.968566 1.000000
tan -0.500465 0.420733 -0.759253 1.000000
tan -0.412363 0.410999 -0.812326 1.000000
tan -0.114204 0.685721 -0.727261 1.000000
tan -0.026164 0.646661 -0.764089 1.000000
tan -0.302437 0.056606 -0.951392 1.000000
tan 0.070308 0.741645 -0.669167 1.000000
tan -0.212474 0.011036 -0.976626 1.000000
tan 0.267035 0.819766 -0.503503 1.000000
tan 0.531961 0.715977 -0.452663 1.000000
tan 0.645359 0.730547 -0.217124 1.000000
tan 0.874946 0.483787 0.015066 1.000000
tan 0.770290 0.552669 0.336909 1.000000
tan 0.445905 0.673073 0.588753 1.000000
tan 0.528303 0.825036 0.206708 1.000000
tan 0.382045 0.927398 0.016740 1.000000
tan 0.329221 0.918346 0.213280 1.000000
tan 0.401451 0.768119 -0.494637 1.000000
tan 0.244094 0.968504 0.032426 1.000000
tan 0.227540 0.955484 -0.169260 1.000000
tan 0.201996 0.969806 0.133734 1.000000
tan 0.160208 0.976750 -0.122760 1.000000
tan 0.075268 0.796268 0.597681 1.000000
tan 0.141732 0.992126 -0.000000 1.000000
tan 0.094612 0.992188 0.014880 1.000000
tan -0.027280 0.901110 0.433071 1.000000
tan -0.000124 1.000062 0.015748 1.000000
tan -0.108190 0.971294 0.210552 1.000000
tan -0.197160 0.525823 0.827578 1.000000
tan -0.281233 0.771281 0.572509 1.000000
tan 0.014260 1.000558 0.063364 1.000000
tan -0.519685 0.739165 0.426685 1.000000
tan -0.037200 0.976688 0.184512 1.000000
tan -0.281915 0.873520 0.409015 1.000000
tan -0.145266 0.958460 0.260400 1.000000
tan -0.731601 0.660673 0.207824 1.000000
tan -0.206832 0.967698 0.141484 1.000000
tan -0.240126 0.961994 0.095418 1.000000
tan -0.043710 0.990080 0.138446 1.000000
tan -0.049228 0.998884 -0.008432 1.000000
tan 0.013144 0.997706 0.129704 1.000000
tan 0.120156 0.992498 -0.021018 1.000000
tan 0.011098 0.994606 0.049042 1.000000
tan 0.003348 0.993118 -0.141980 1.000000
tan 0.032178 0.996094 -0.093062 1.000000
tan 0.280117 0.929568 -0.225805 1.000000
tan 0.343977 0.900676 -0.271561 1.000000
tan 0.189720 0.961250 -0.193936 1.000000
tan 0.686651 0.514601 -0.505301 1.000000
tan 0.851138 0.344287 -0.387439 1.000000
tan 0.805010 0.404675 -0.438155 1.000000
tan 0.453531 0.730423 -0.519003 1.000000
tan 0.370141 0.630107 -0.681071 1.000000
tan 0.633021 0.202554 -0.743877 1.000000
tan 0.236592 0.941720 -0.227727 1.000000
tan 0.246946 0.626883 -0.738545 1.000000
tan 0.134416 0.953438 -0.280241 1.000000
tan 0.079236 1.000000 -0.062992 1.000000
tan 0.062992 1.000000 -0.047244 1.000000
tan 0.132246 0.961188 -0.256805 1.000000
tan 0.094488 0.992126 -0.031248 1.000000
tan 0.099696 0.961126 -0.257053 1.000000
tan 0.121520 0.968938 -0.194370 1.000000
tan 0.117180 0.706305 -0.701097 1.000000
tan 0.122760 0.656209 -0.742141 1.000000
tan 0.143468 0.631967 -0.758571 1.000000
tan 0.248063 0.144894 -0.960878 1.000000
tan 0.415463 0.151900 -0.890012 1.000000
tan 0.151714 0.188666 -0.976316 1.000000
tan 0.574555 0.043896 -0.819146 1.000000
tan 0.134726 0.188542 -0.976378 1.000000
tan 0.205034 0.038440 -0.976378 1.000000
tan 0.346705 0.029512 -0.937008 1.000000
tan 0.787526 0.132122 -0.604315 1.000000
tan 0.519747 0.006758 -0.858268 1.000000
tan 0.740157 0.016988 -0.677165 1.000000
tan 0.843202 0.090024 -0.516957 1.000000
tan 0.897638 0.035340 -0.449439 1.000000
tan 0.906442 0.322029 -0.286441 1.000000
tan 0.952942 0.035030 -0.315891 1.000000
tan 0.803150 0.006324 -0.590551 1.000000
tan 0.897700 0.003596 -0.441007 1.000000
tan 0.653543 -0.000000 -0.755905 1.000000
tan 0.874388 0.006076 -0.488561 1.000000
tan 0.740157 -0.000000 -0.677165 1.000000
tan 0.756029 0.000806 -0.653667 1.000000
tan 0.385827 -0.000000 -0.921260 1.000000
tan 0.496063 -0.000000 -0.866142 1.000000
tan 0.535495 -0.006634 -0.842520 1.000000
tan 0.259843 0.007626 -0.968504 1.000000
tan 0.149606 0.015624 -0.992126 1.000000
tan 0.181102 -0.000000 -0.984252 1.000000
tan 0.141732 0.039060 -0.992126 1.000000
tan 0.039494 0.015438 -1.000062 1.000000
tan 0.228346 -0.000000 -0.976378 1.000000
tan -0.015748 -0.000000 -1.000000 1.000000
tan 0.079360 0.038750 -1.000124 1.000000
tan -0.023622 -0.000000 -1.000000 1.000000
tan 0.095976 0.187488 -0.976502 1.000000
tan 0.259843 -0.007626 -0.968504 1.000000
tan -0.125426 0.026412 -0.992684 1.000000
tan 0.519933 -0.013392 -0.850394 1.000000
tan 0.496435 -0.016554 -0.866266 1.000000
tan 0.228284 -0.230641 -0.953314 1.000000
tan 0.467667 -0.187488 -0.861058 1.000000
tan 0.399405 -0.787278 -0.462149 1.000000
tan 0.630293 -0.687085 -0.369397 1.000000
tan -0.053878 0.041106 -1.000992 1.000000
tan -0.179924 0.105834 -0.978362 1.000000
tan 0.044702 0.290718 -0.961002 1.000000
tan -0.198028 0.449005 -0.869738 1.000000
tan 0.070184 0.698865 -0.709033 1.000000
tan -0.001612 0.340877 -0.940356 1.000000
tan 0.134664 0.781511 -0.601401 1.000000
tan 0.110980 0.742141 -0.656209 1.000000
f 3/3/3 2/2/2 1/1/1
f 1/1/1 4/4/4 3/3/3
f 5/5/5 3/3/3 4/4/4
f 6/6/6 4/4/4 1/1/1
f 1/1/1 7/7/7 6/6/6
f 6/6/6 7/7/7 8/8/8
f 4/4/4 9/9/9 5/5/5
f 10/10/10 5/5/5 9/9/9
f 4/4/4 6/6/6 11/11/11
f 11/11/11 9/9/9 4/4/4
f 8/8/8 12/12/12 6/6/6
f 11/11/11 6/6/6 12/12/12
f 9/9/9 13/13/13 10/10/10
f 14/14/14 10/10/10 13/13/13
f 9/9/9 11/11/11 15/15/15
f 15/15/15 13/13/13 9/9/9
f 15/15/15 11/11/11 16/16/16
f 12/12/12 16/16/16 11/11/11
f 13/13/13 15/15/15 17/17/17
f 16/16/16 18/18/18 15/15/15
f 17/17/17 15/15/15 18/18/18
f 17/17/17 19/19/19 13/13/13
f 13/13/13 19/19/19 14/14/14
f 20/20/20 19/19/19 17/17/17
f 14/14/14 19/19/19 20/20/20
f 18/18/18 21/21/21 17/17/17
f 20/20/20 22/22/22 14/14/14
f 23/23/23 17/17/17 21/21/21
f 17/17/17 23/23/23 20/20/20
f 14/14/14 22/22/22 24/24/24
f 24/24/24 25/25/25 14/14/14
f 26/26/26 22/22/22 20/20/20
f 24/24/24 22/22/22 26/26/26
f 27/27/27 20/20/20 23/23/23
f 20/20/20 27/27/27 26/26/26
f 25/25/25 24/24/24 28/28/28
f 28/28/28 29/29/29 25/25/25
f 26/26/26 30/30/30 24/24/24
f 31/31/31 29/29/29 28/28/28
f 32/32/32 29/29/29 31/31/31
f 31/31/31 33/33/33 32/32/32
f 24/24/24 30/30/30 34/34/34
f 34/34/34 28/28/28 24/24/24
f 35/35/35 30/30/30 26/26/26
f 34/34/34 30/30/30 35/35/35
f 26/26/26 36/36/36 35/35/35
f 36/36/36 26/26/26 27/27/27
f 35/35/35 37/37/37 34/34/34
f 28/28/28 34/34/34 38/38/38
f 38/38/38 34/34/34 37/37/37
f 38/38/38 39/39/39 28/28/28
f 28/28/28 39/39/39 31/31/31
f 37/37/37 40/40/40 38/38/38
f 41/41/41 31/31/31 39/39/39
f 39/39/39 38/38/38 42/42/42
f 42/42/42 38/38/38 40/40/40
f 39/39/39 43/43/43 41/41/41
f 42/42/42 43/43/43 39/39/39
f 31/31/31 41/41/41 44/44/44
f 44/44/44 33/33/33 31/31/31
f 41/41/41 43/43/43 45/45/45
f 45/45/45 43/43/43 42/42/42
f 46/46/46 33/33/33 44/44/44
f 45/45/45 47/47/47 41/41/41
f 44/44/44 41/41/41 47/47/47
f 42/42/42 48/48/48 45/45/45
f 47/47/47 49/49/49 44/44/44
f 48/48/48 42/42/42 50/50/50
f 40/40/40 50/50/50 42/42/42
f 44/44/44 49/49/49 51/51/51
f 51/51/51 52/52/52 44/44/44
f 44/44/44 52/52/52 46/46/46
f 46/46/46 52/52/52 51/51/51
f 53/53/53 49/49/49 47/47/47
f 51/51/51 49/49/49 53/53/53
f 54/54/54 47/47/47 45/45/45
f 47/47/47 54/54/54 53/53/53
f 45/45/45 55/55/55 54/54/54
f 55/55/55 45/45/45 48/48/48
f 53/53/53 54/54/54 56/56/56
f 48/48/48 57/57/57 55/55/55
f 54/54/54 55/55/55 58/58/58
f 58/58/58 56/56/56 54/54/54
f 55/55/55 57/57/57 59/59/59
f 59/59/59 58/58/58 55/55/55
f 60/60/60 57/57/57 48/48/48
f 59/59/59 57/57/57 60/60/60
f 48/48/48 61/61/61 60/60/60
f 50/50/50 61/61/61 48/48/48
f 60/60/60 61/61/61 62/62/62
f 62/62/62 61/61/61 50/50/50
f 60/60/60 63/63/63 59/59/59
f 50/50/50 64/64/64 62/62/62
f 64/64/64 50/50/50 40/40/40
f 62/62/62 65/65/65 60/60/60
f 63/63/63 60/60/60 65/65/65
f 40/40/40 66/66/66 64/64/64
f 66/66/66 40/40/40 37/37/37
f 64/64/64 66/66/66 67/67/67
f 37/37/37 68/68/68 66/66/66
f 67/67/67 66/66/66 68/68/68
f 68/68/68 37/37/37 35/35/35
f 67/67/67 69/69/69 64/64/64
f 62/62/62 64/64/64 69/69/69
f 35/35/35 70/70/70 68/68/68
f 70/70/70 35/35/35 36/36/36
f 68/68/68 71/71/71 67/67/67
f 68/68/68 70/70/70 72/72/72
f 72/72/72 71/71/71 68/68/68
f 36/36/36 73/73/73 70/70/70
f 74/74/74 72/72/72 70/70/70
f 70/70/70 73/73/73 74/74/74
f 71/71/71 72/72/72 75/75/75
f 75/75/75 72/72/72 74/74/74
f 76/76/76 73/73/73 36/36/36
f 74/74/74 73/73/73 76/76/76
f 36/36/36 77/77/77 76/76/76
f 27/27/27 77/77/77 36/36/36
f 76/76/76 77/77/77 78/78/78
f 78/78/78 77/77/77 27/27/27
f 76/76/76 79/79/79 74/74/74
f 27/27/27 80/80/80 78/78/78
f 23/23/23 80/80/80 27/27/27
f 78/78/78 81/81/81 76/76/76
f 79/79/79 76/76/76 81/81/81
f 82/82/82 80/80/80 23/23/23
f 78/78/78 80/80/80 82/82/82
f 23/23/23 83/83/83 82/82/82
f 21/21/21 83/83/83 23/23/23
f 82/82/82 83/83/83 84/84/84
f 84/84/84 83/83/83 21/21/21
f 82/82/82 85/85/85 78/78/78
f 21/21/21 86/86/86 84/84/84
f 86/86/86 21/21/21 18/18/18
f 84/84/84 87/87/87 82/82/82
f 85/85/85 82/82/82 87/87/87
f 18/18/18 88/88/88 86/86/86
f 88/88/88 18/18/18 16/16/16
f 78/78/78 85/85/85 89/89/89
f 89/89/89 81/81/81 78/78/78
f 16/16/16 90/90/90 88/88/88
f 90/90/90 16/16/16 12/12/12
f 86/86/86 88/88/88 91/91/91
f 91/91/91 88/88/88 90/90/90
f 12/12/12 92/92/92 90/90/90
f 93/93/93 92/92/92 12/12/12
f 90/90/90 92/92/92 93/93/93
f 12/12/12 8/8/8 93/93/93
f 93/93/93 8/8/8 94/94/94
f 93/93/93 95/95/95 90/90/90
f 90/90/90 95/95/95 91/91/91
f 94/94/94 96/96/96 93/93/93
f 97/97/97 95/95/95 93/93/93
f 93/93/93 96/96/96 97/97/97
f 91/91/91 95/95/95 97/97/97
f 98/98/98 96/96/96 94/94/94
f 97/97/97 96/96/96 98/98/98
f 94/94/94 99/99/99 98/98/98
f 98/98/98 99/99/99 100/100/100
f 100/100/100 101/101/101 98/98/98
f 101/101/101 100/100/100 102/102/102
f 98/98/98 103/103/103 97/97/97
f 103/103/103 98/98/98 101/101/101
f 97/97/97 104/104/104 91/91/91
f 104/104/104 97/97/97 103/103/103
f 91/91/91 105/105/105 86/86/86
f 105/105/105 91/91/91 104/104/104
f 84/84/84 86/86/86 105/105/105
f 103/103/103 106/106/106 104/104/104
f 105/105/105 107/107/107 84/84/84
f 104/104/104 108/108/108 105/105/105
f 84/84/84 107/107/107 109/109/109
f 109/109/109 87/87/87 84/84/84
f 110/110/110 107/107/107 105/105/105
f 105/105/105 108/108/108 110/110/110
f 109/109/109 107/107/107 110/110/110
f 111/111/111 108/108/108 104/104/104
f 110/110/110 108/108/108 111/111/111
f 104/104/104 106/106/106 111/111/111
f 110/110/110 112/112/112 109/109/109
f 111/111/111 106/106/106 113/113/113
f 113/113/113 106/106/106 103/103/103
f 111/111/111 114/114/114 110/110/110
f 103/103/103 115/115/115 113/113/113
f 101/101/101 115/115/115 103/103/103
f 110/110/110 114/114/114 116/116/116
f 116/116/116 112/112/112 110/110/110
f 117/117/117 114/114/114 111/111/111
f 116/116/116 114/114/114 117/117/117
f 111/111/111 118/118/118 117/117/117
f 113/113/113 118/118/118 111/111/111
f 117/117/117 118/118/118 119/119/119
f 119/119/119 118/118/118 113/113/113
f 117/117/117 120/120/120 116/116/116
f 113/113/113 121/121/121 119/119/119
f 122/122/122 112/112/112 116/116/116
f 109/109/109 112/112/112 122/122/122
f 123/123/123 121/121/121 113/113/113
f 113/113/113 115/115/115 123/123/123
f 123/123/123 115/115/115 101/101/101
f 101/101/101 124/124/124 123/123/123
f 102/102/102 124/124/124 101/101/101
f 125/125/125 121/121/121 123/123/123
f 119/119/119 121/121/121 125/125/125
f 123/123/123 124/124/124 126/126/126
f 126/126/126 124/124/124 102/102/102
f 123/123/123 127/127/127 125/125/125
f 126/126/126 127/127/127 123/123/123
f 125/125/125 127/127/127 128/128/128
f 128/128/128 127/127/127 126/126/126
f 102/102/102 129/129/129 126/126/126
f 130/130/130 129/129/129 102/102/102
f 126/126/126 129/129/129 130/130/130
f 102/102/102 131/131/131 130/130/130
f 131/131/131 102/102/102 132/132/132
f 130/130/130 133/133/133 126/126/126
f 126/126/126 133/133/133 128/128/128
f 133/133/133 130/130/130 134/134/134
f 134/134/134 130/130/130 131/131/131
f 135/135/135 128/128/128 133/133/133
f 132/132/132 136/136/136 131/131/131
f 133/133/133 137/137/137 135/135/135
f 134/134/134 137/137/137 133/133/133
f 138/138/138 136/136/136 132/132/132
f 132/132/132 139/139/139 138/138/138
f 138/138/138 139/139/139 140/140/140
f 131/131/131 136/136/136 141/141/141
f 141/141/141 136/136/136 138/138/138
f 140/140/140 142/142/142 138/138/138
f 142/142/142 140/140/140 143/143/143
f 143/143/143 144/144/144 142/142/142
f 145/145/145 138/138/138 142/142/142
f 138/138/138 145/145/145 141/141/141
f 146/146/146 142/142/142 144/144/144
f 142/142/142 146/146/146 145/145/145
f 144/144/144 147/147/147 146/146/146
f 146/146/146 147/147/147 148/148/148
f 145/145/145 146/146/146 149/149/149
f 148/148/148 149/149/149 146/146/146
f 149/149/149 150/150/150 145/145/145
f 145/145/145 150/150/150 151/151/151
f 151/151/151 141/141/141 145/145/145
f 152/152/152 150/150/150 149/149/149
f 151/151/151 150/150/150 152/152/152
f 153/153/153 149/149/149 148/148/148
f 149/149/149 153/153/153 152/152/152
f 148/148/148 154/154/154 153/153/153
f 154/154/154 148/148/148 155/155/155
f 152/152/152 156/156/156 151/151/151
f 155/155/155 157/157/157 154/154/154
f 157/157/157 155/155/155 158/158/158
f 151/151/151 156/156/156 159/159/159
f 158/158/158 160/160/160 157/157/157
f 160/160/160 158/158/158 161/161/161
f 162/162/162 156/156/156 152/152/152
f 159/159/159 156/156/156 162/162/162
f 161/161/161 164/164/164 163/163/163
f 163/163/163 165/165/165 161/161/161
f 161/161/161 165/165/165 160/160/160
f 166/166/166 165/165/165 163/163/163
f 160/160/160 165/165/165 166/166/166
f 163/163/163 167/167/167 166/166/166
f 166/166/166 168/168/168 160/160/160
f 157/157/157 160/160/160 168/168/168
f 169/169/169 168/168/168 166/166/166
f 168/168/168 169/169/169 157/157/157
f 166/166/166 170/170/170 169/169/169
f 154/154/154 157/157/157 169/169/169
f 169/169/169 170/170/170 46/46/46
f 169/169/169 171/171/171 154/154/154
f 46/46/46 171/171/171 169/169/169
f 153/153/153 154/154/154 171/171/171
f 171/171/171 46/46/46 172/172/172
f 51/51/51 172/172/172 46/46/46
f 171/171/171 173/173/173 153/153/153
f 172/172/172 173/173/173 171/171/171
f 153/153/153 173/173/173 174/174/174
f 174/174/174 173/173/173 172/172/172
f 174/174/174 152/152/152 153/153/153
f 152/152/152 174/174/174 162/162/162
f 172/172/172 51/51/51 175/175/175
f 53/53/53 175/175/175 51/51/51
f 172/172/172 176/176/176 174/174/174
f 175/175/175 176/176/176 172/172/172
f 174/174/174 176/176/176 177/177/177
f 177/177/177 176/176/176 175/175/175
f 177/177/177 162/162/162 174/174/174
f 175/175/175 53/53/53 178/178/178
f 56/56/56 178/178/178 53/53/53
f 175/175/175 179/179/179 177/177/177
f 178/178/178 179/179/179 175/175/175
f 177/177/177 179/179/179 180/180/180
f 180/180/180 179/179/179 178/178/178
f 162/162/162 177/177/177 181/181/181
f 180/180/180 181/181/181 177/177/177
f 182/182/182 178/178/178 56/56/56
f 178/178/178 182/182/182 180/180/180
f 181/181/181 183/183/183 162/162/162
f 162/162/162 183/183/183 159/159/159
f 184/184/184 183/183/183 181/181/181
f 159/159/159 183/183/183 184/184/184
f 185/185/185 181/181/181 180/180/180
f 181/181/181 185/185/185 184/184/184
f 180/180/180 186/186/186 185/185/185
f 187/187/187 186/186/186 180/180/180
f 185/185/185 186/186/186 187/187/187
f 180/180/180 182/182/182 187/187/187
f 188/188/188 184/184/184 185/185/185
f 187/187/187 182/182/182 189/189/189
f 56/56/56 189/189/189 182/182/182
f 189/189/189 56/56/56 58/58/58
f 187/187/187 190/190/190 185/185/185
f 185/185/185 190/190/190 188/188/188
f 189/189/189 191/191/191 187/187/187
f 190/190/190 187/187/187 191/191/191
f 58/58/58 192/192/192 189/189/189
f 192/192/192 58/58/58 59/59/59
f 193/193/193 191/191/191 189/189/189
f 189/189/189 192/192/192 193/193/193
f 191/191/191 194/194/194 190/190/190
f 59/59/59 195/195/195 192/192/192
f 195/195/195 59/59/59 63/63/63
f 196/196/196 193/193/193 192/192/192
f 192/192/192 195/195/195 196/196/196
f 191/191/191 193/193/193 197/197/197
f 197/197/197 193/193/193 196/196/196
f 197/197/197 194/194/194 191/191/191
f 190/190/190 194/194/194 198/198/198
f 198/198/198 194/194/194 197/197/197
f 198/198/198 188/188/188 190/190/190
f 196/196/196 199/199/199 197/197/197
f 197/197/197 200/200/200 198/198/198
f 200/200/200 197/197/197 199/199/199
f 201/201/201 188/188/188 198/198/198
f 199/199/199 196/196/196 202/202/202
f 202/202/202 196/196/196 195/195/195
f 198/198/198 203/203/203 201/201/201
f 203/203/203 198/198/198 200/200/200
f 195/195/195 204/204/204 202/202/202
f 63/63/63 204/204/204 195/195/195
f 202/202/202 204/204/204 205/205/205
f 205/205/205 204/204/204 63/63/63
f 63/63/63 206/206/206 205/205/205
f 65/65/65 206/206/206 63/63/63
f 205/205/205 206/206/206 207/207/207
f 207/207/207 206/206/206 65/65/65
f 205/205/205 208/208/208 202/202/202
f 65/65/65 209/209/209 207/207/207
f 210/210/210 202/202/202 208/208/208
f 202/202/202 210/210/210 199/199/199
f 211/211/211 209/209/209 65/65/65
f 65/65/65 62/62/62 211/211/211
f 69/69/69 211/211/211 62/62/62
f 212/212/212 209/209/209 211/211/211
f 207/207/207 209/209/209 212/212/212
f 213/213/213 211/211/211 69/69/69
f 211/211/211 213/213/213 212/212/212
f 69/69/69 214/214/214 213/213/213
f 215/215/215 214/214/214 69/69/69
f 213/213/213 214/214/214 215/215/215
f 69/69/69 67/67/67 215/215/215
f 215/215/215 67/67/67 71/71/71
f 71/71/71 216/216/216 215/215/215
f 75/75/75 216/216/216 71/71/71
f 215/215/215 217/217/217 213/213/213
f 217/217/217 215/215/215 216/216/216
f 218/218/218 212/212/212 213/213/213
f 213/213/213 217/217/217 218/218/218
f 216/216/216 219/219/219 217/217/217
f 220/220/220 212/212/212 218/218/218
f 212/212/212 220/220/220 207/207/207
f 221/221/221 218/218/218 217/217/217
f 217/217/217 219/219/219 221/221/221
f 218/218/218 222/222/222 220/220/220
f 222/222/222 218/218/218 221/221/221
f 223/223/223 219/219/219 216/216/216
f 221/221/221 219/219/219 223/223/223
f 216/216/216 75/75/75 223/223/223
f 221/221/221 224/224/224 222/222/222
f 223/223/223 75/75/75 225/225/225
f 74/74/74 225/225/225 75/75/75
f 225/225/225 74/74/74 79/79/79
f 223/223/223 226/226/226 221/221/221
f 224/224/224 221/221/221 226/226/226
f 225/225/225 227/227/227 223/223/223
f 226/226/226 223/223/223 227/227/227
f 79/79/79 228/228/228 225/225/225
f 229/229/229 227/227/227 225/225/225
f 225/225/225 228/228/228 229/229/229
f 230/230/230 228/228/228 79/79/79
f 229/229/229 228/228/228 230/230/230
f 79/79/79 231/231/231 230/230/230
f 81/81/81 231/231/231 79/79/79
f 232/232/232 231/231/231 81/81/81
f 230/230/230 231/231/231 232/232/232
f 81/81/81 89/89/89 232/232/232
f 230/230/230 233/233/233 229/229/229
f 232/232/232 89/89/89 234/234/234
f 234/234/234 89/89/89 85/85/85
f 232/232/232 235/235/235 230/230/230
f 233/233/233 230/230/230 235/235/235
f 234/234/234 236/236/236 232/232/232
f 232/232/232 236/236/236 237/237/237
f 237/237/237 236/236/236 234/234/234
f 237/237/237 235/235/235 232/232/232
f 85/85/85 238/238/238 234/234/234
f 87/87/87 238/238/238 85/85/85
f 238/238/238 87/87/87 109/109/109
f 234/234/234 239/239/239 237/237/237
f 239/239/239 234/234/234 238/238/238
f 109/109/109 240/240/240 238/238/238
f 238/238/238 240/240/240 239/239/239
f 122/122/122 240/240/240 109/109/109
f 239/239/239 240/240/240 122/122/122
f 241/241/241 237/237/237 239/239/239
f 235/235/235 237/237/237 241/241/241
f 122/122/122 242/242/242 239/239/239
f 239/239/239 242/242/242 241/241/241
f 241/241/241 243/243/243 235/235/235
f 235/235/235 243/243/243 233/233/233
f 244/244/244 243/243/243 241/241/241
f 233/233/233 243/243/243 244/244/244
f 245/245/245 241/241/241 242/242/242
f 241/241/241 245/245/245 244/244/244
f 242/242/242 122/122/122 246/246/246
f 116/116/116 246/246/246 122/122/122
f 242/242/242 247/247/247 245/245/245
f 246/246/246 247/247/247 242/242/242
f 246/246/246 116/116/116 120/120/120
f 245/245/245 247/247/247 248/248/248
f 248/248/248 247/247/247 246/246/246
f 120/120/120 249/249/249 246/246/246
f 246/246/246 249/249/249 248/248/248
f 248/248/248 250/250/250 245/245/245
f 244/244/244 245/245/245 250/250/250
f 251/251/251 248/248/248 249/249/249
f 250/250/250 248/248/248 251/251/251
f 249/249/249 120/120/120 252/252/252
f 249/249/249 253/253/253 251/251/251
f 252/252/252 253/253/253 249/249/249
f 251/251/251 254/254/254 250/250/250
f 255/255/255 254/254/254 251/251/251
f 250/250/250 254/254/254 255/255/255
f 256/256/256 251/251/251 253/253/253
f 251/251/251 256/256/256 255/255/255
f 255/255/255 257/257/257 250/250/250
f 250/250/250 257/257/257 244/244/244
f 257/257/257 255/255/255 258/258/258
f 258/258/258 255/255/255 256/256/256
f 244/244/244 257/257/257 259/259/259
f 258/258/258 259/259/259 257/257/257
f 259/259/259 260/260/260 244/244/244
f 244/244/244 260/260/260 233/233/233
f 233/233/233 260/260/260 261/261/261
f 261/261/261 260/260/260 259/259/259
f 261/261/261 229/229/229 233/233/233
f 227/227/227 229/229/229 261/261/261
f 259/259/259 262/262/262 261/261/261
f 262/262/262 259/259/259 258/258/258
f 261/261/261 263/263/263 227/227/227
f 227/227/227 263/263/263 226/226/226
f 264/264/264 263/263/263 261/261/261
f 226/226/226 263/263/263 264/264/264
f 261/261/261 262/262/262 264/264/264
f 264/264/264 265/265/265 226/226/226
f 226/226/226 265/265/265 224/224/224
f 266/266/266 265/265/265 264/264/264
f 224/224/224 265/265/265 266/266/266
f 267/267/267 264/264/264 262/262/262
f 264/264/264 267/267/267 266/266/266
f 258/258/258 268/268/268 262/262/262
f 262/262/262 268/268/268 267/267/267
f 269/269/269 268/268/268 258/258/258
f 267/267/267 268/268/268 269/269/269
f 258/258/258 270/270/270 269/269/269
f 256/256/256 270/270/270 258/258/258
f 269/269/269 271/271/271 267/267/267
f 272/272/272 270/270/270 256/256/256
f 269/269/269 270/270/270 272/272/272
f 267/267/267 271/271/271 273/273/273
f 273/273/273 266/266/266 267/267/267
f 274/274/274 271/271/271 269/269/269
f 273/273/273 271/271/271 274/274/274
f 272/272/272 275/275/275 269/269/269
f 269/269/269 275/275/275 274/274/274
f 256/256/256 276/276/276 272/272/272
f 253/253/253 276/276/276 256/256/256
f 276/276/276 253/253/253 252/252/252
f 277/277/277 275/275/275 272/272/272
f 274/274/274 275/275/275 277/277/277
f 278/278/278 272/272/272 276/276/276
f 272/272/272 278/278/278 277/277/277
f 252/252/252 279/279/279 276/276/276
f 276/276/276 279/279/279 278/278/278
f 280/280/280 279/279/279 252/252/252
f 278/278/278 279/279/279 280/280/280
f 252/252/252 281/281/281 280/280/280
f 281/281/281 252/252/252 120/120/120
f 120/120/120 117/117/117 281/281/281
f 119/119/119 281/281/281 117/117/117
f 281/281/281 119/119/119 282/282/282
f 282/282/282 280/280/280 281/281/281
f 125/125/125 282/282/282 119/119/119
f 280/280/280 283/283/283 278/278/278
f 277/277/277 278/278/278 283/283/283
f 280/280/280 282/282/282 284/284/284
f 284/284/284 283/283/283 280/280/280
f 284/284/284 282/282/282 125/125/125
f 283/283/283 285/285/285 277/277/277
f 125/125/125 286/286/286 284/284/284
f 128/128/128 286/286/286 125/125/125
f 286/286/286 128/128/128 135/135/135
f 283/283/283 284/284/284 287/287/287
f 287/287/287 285/285/285 283/283/283
f 284/284/284 286/286/286 288/288/288
f 288/288/288 287/287/287 284/284/284
f 135/135/135 288/288/288 286/286/286
f 289/289/289 285/285/285 287/287/287
f 277/277/277 285/285/285 289/289/289
f 290/290/290 287/287/287 288/288/288
f 287/287/287 290/290/290 289/289/289
f 291/291/291 288/288/288 135/135/135
f 288/288/288 291/291/291 290/290/290
f 289/289/289 292/292/292 277/277/277
f 277/277/277 292/292/292 274/274/274
f 293/293/293 292/292/292 289/289/289
f 274/274/274 292/292/292 293/293/293
f 294/294/294 289/289/289 290/290/290
f 289/289/289 294/294/294 293/293/293
f 293/293/293 295/295/295 274/274/274
f 274/274/274 295/295/295 273/273/273
f 296/296/296 293/293/293 294/294/294
f 295/295/295 293/293/293 296/296/296
f 290/290/290 297/297/297 294/294/294
f 297/297/297 290/290/290 291/291/291
f 294/294/294 298/298/298 296/296/296
f 298/298/298 294/294/294 297/297/297
f 296/296/296 299/299/299 295/295/295
f 297/297/297 300/300/300 298/298/298
f 295/295/295 299/299/299 301/301/301
f 301/301/301 273/273/273 295/295/295
f 298/298/298 300/300/300 199/199/199
f 199/199/199 300/300/300 200/200/200
f 200/200/200 300/300/300 297/297/297
f 199/199/199 210/210/210 298/298/298
f 296/296/296 298/298/298 210/210/210
f 297/297/297 302/302/302 200/200/200
f 291/291/291 302/302/302 297/297/297
f 200/200/200 302/302/302 203/203/203
f 203/203/203 302/302/302 291/291/291
f 210/210/210 303/303/303 296/296/296
f 208/208/208 303/303/303 210/210/210
f 291/291/291 304/304/304 203/203/203
f 135/135/135 304/304/304 291/291/291
f 201/201/201 203/203/203 304/304/304
f 304/304/304 135/135/135 137/137/137
f 137/137/137 305/305/305 304/304/304
f 304/304/304 305/305/305 201/201/201
f 305/305/305 137/137/137 134/134/134
f 306/306/306 201/201/201 305/305/305
f 188/188/188 201/201/201 306/306/306
f 306/306/306 184/184/184 188/188/188
f 184/184/184 306/306/306 159/159/159
f 305/305/305 307/307/307 306/306/306
f 134/134/134 307/307/307 305/305/305
f 308/308/308 159/159/159 306/306/306
f 306/306/306 307/307/307 308/308/308
f 308/308/308 307/307/307 134/134/134
f 159/159/159 308/308/308 151/151/151
f 141/141/141 151/151/151 308/308/308
f 134/134/134 309/309/309 308/308/308
f 308/308/308 309/309/309 141/141/141
f 131/131/131 309/309/309 134/134/134
f 141/141/141 309/309/309 131/131/131
f 296/296/296 303/303/303 310/310/310
f 310/310/310 299/299/299 296/296/296
f 310/310/310 303/303/303 208/208/208
f 301/301/301 299/299/299 310/310/310
f 208/208/208 311/311/311 310/310/310
f 310/310/310 312/312/312 301/301/301
f 312/312/312 310/310/310 311/311/311
f 313/313/313 311/311/311 208/208/208
f 208/208/208 205/205/205 313/313/313
f 207/207/207 313/313/313 205/205/205
f 314/314/314 313/313/313 207/207/207
f 311/311/311 313/313/313 314/314/314
f 207/207/207 220/220/220 314/314/314
f 314/314/314 315/315/315 311/311/311
f 311/311/311 315/315/315 312/312/312
f 312/312/312 315/315/315 314/314/314
f 316/316/316 314/314/314 220/220/220
f 314/314/314 316/316/316 312/312/312
f 220/220/220 222/222/222 316/316/316
f 316/316/316 222/222/222 224/224/224
f 312/312/312 316/316/316 317/317/317
f 224/224/224 317/317/317 316/316/316
f 317/317/317 301/301/301 312/312/312
f 266/266/266 317/317/317 224/224/224
f 273/273/273 301/301/301 317/317/317
f 317/317/317 266/266/266 273/273/273
