mtllib SM_Pillar_01_b_LOD3@000002909DC27200.mtl
g SM_Pillar_01_b_LOD3@000002909DC27200
#Vertices 56
#Indices 180
#Section 0 Offset 0 NumIndices 129 MaterialIndex 0 MI_Pillar_02
#Section 1 Offset 129 NumIndices 51 MaterialIndex 1 MI_Pillar_01
v 0.364688 3.258175 0.374439 0.000000 0.000000 1.000000 1.000000
v -0.379846 3.261899 0.364936 0.000000 0.000000 1.000000 1.000000
v 0.368768 3.259034 -0.377775 0.000000 0.000000 1.000000 1.000000
v -0.341115 3.243583 -0.336272 0.000000 0.000000 1.000000 1.000000
v -0.523058 0.394244 0.576354 0.000000 0.000000 1.000000 1.000000
v 0.704505 0.531777 0.715509 0.000000 0.000000 1.000000 1.000000
v 0.515130 0.445556 0.540702 0.000000 0.000000 1.000000 1.000000
v -0.673365 0.624448 0.672523 0.000000 0.000000 1.000000 1.000000
v 0.520448 0.625057 0.535006 0.000000 0.000000 1.000000 1.000000
v -0.528150 0.341080 -0.515092 0.000000 0.000000 1.000000 1.000000
v -0.526297 0.623881 0.535006 0.000000 0.000000 1.000000 1.000000
v -0.655206 0.628104 -0.633451 0.000000 0.000000 1.000000 1.000000
v -0.526297 0.623881 -0.492355 0.000000 0.000000 1.000000 1.000000
v 0.542620 0.712154 -0.505391 0.000000 0.000000 1.000000 1.000000
v 0.643626 0.444296 -0.642146 0.000000 0.000000 1.000000 1.000000
v 0.515130 0.446440 -0.507921 0.000000 0.000000 1.000000 1.000000
v 0.515130 0.445556 0.540702 0.000000 0.000000 1.000000 1.000000
v 0.704505 0.531777 0.715509 0.000000 0.000000 1.000000 1.000000
v 0.520448 0.625057 0.535006 0.000000 0.000000 1.000000 1.000000
v 0.635358 2.048988 -0.648392 0.000000 0.000000 1.000000 1.000000
v 0.592345 2.046404 0.619643 0.000000 0.000000 1.000000 1.000000
v 0.823918 2.301974 0.876938 0.000000 0.000000 1.000000 1.000000
v 0.718208 2.418111 -0.736977 0.000000 0.000000 1.000000 1.000000
v 0.265401 3.095833 0.317240 0.000000 0.000000 1.000000 1.000000
v 0.368768 3.259034 -0.377775 0.000000 0.000000 1.000000 1.000000
v 0.364688 3.258175 0.374439 0.000000 0.000000 1.000000 1.000000
v 0.290797 3.080740 -0.296195 0.000000 0.000000 1.000000 1.000000
v -0.341115 3.243583 -0.336272 0.000000 0.000000 1.000000 1.000000
v -0.772582 2.380804 -0.770199 0.000000 0.000000 1.000000 1.000000
v -0.622975 2.047060 -0.628373 0.000000 0.000000 1.000000 1.000000
v -0.284353 3.091331 0.282359 0.000000 0.000000 1.000000 1.000000
v -0.379846 3.261899 0.364936 0.000000 0.000000 1.000000 1.000000
v 0.364688 3.258175 0.374439 0.000000 0.000000 1.000000 1.000000
v 0.265401 3.095833 0.317240 0.000000 0.000000 1.000000 1.000000
v 0.823918 2.301974 0.876938 0.000000 0.000000 1.000000 1.000000
v -0.703904 2.412996 0.712623 0.000000 0.000000 1.000000 1.000000
v -0.820894 2.234033 0.809287 0.000000 0.000000 1.000000 1.000000
v -0.612318 2.046568 0.557801 0.000000 0.000000 1.000000 1.000000
v -0.581169 2.044074 0.597537 0.000000 0.000000 1.000000 1.000000
v 0.592345 2.046404 0.619643 0.000000 0.000000 1.000000 1.000000
v 0.565076 0.479844 0.615832 0.000000 0.000000 1.000000 1.000000
v 0.592261 0.492377 -0.545328 0.000000 0.000000 1.000000 1.000000
v 0.778599 0.012963 0.840531 0.000000 0.000000 1.000000 1.000000
v 0.592345 2.046404 0.619643 0.000000 0.000000 1.000000 1.000000
v 0.715757 -0.018477 -0.649716 0.000000 0.000000 1.000000 1.000000
v 0.635358 2.048988 -0.648392 0.000000 0.000000 1.000000 1.000000
v -0.622975 2.047060 -0.628373 0.000000 0.000000 1.000000 1.000000
v -0.683697 -0.017856 -0.699775 0.000000 0.000000 1.000000 1.000000
v -0.603002 0.452425 -0.559782 0.000000 0.000000 1.000000 1.000000
v -0.708207 -0.019501 0.694996 0.000000 0.000000 1.000000 1.000000
v -0.612318 2.046568 0.557801 0.000000 0.000000 1.000000 1.000000
v -0.561218 0.438682 0.609206 0.000000 0.000000 1.000000 1.000000
v 0.778599 0.012963 0.840531 0.000000 0.000000 1.000000 1.000000
v -0.581169 2.044074 0.597537 0.000000 0.000000 1.000000 1.000000
v 0.565076 0.479844 0.615832 0.000000 0.000000 1.000000 1.000000
v 0.592345 2.046404 0.619643 0.000000 0.000000 1.000000 1.000000
vt 0.138062 0.027344
vt 0.136719 0.120605
vt 0.043884 0.026855
vt 0.049133 0.115723
vt 0.354004 0.052734
vt 0.190308 0.076172
vt 0.215942 0.045898
vt 0.356445 0.089355
vt 0.215210 0.111328
vt 0.479980 0.046875
vt 0.353760 0.107910
vt 0.483154 0.088867
vt 0.481934 0.104980
vt 0.611816 0.097168
vt 0.608398 0.060059
vt 0.610840 0.043457
vt 0.749023 0.042480
vt 0.771484 0.073242
vt 0.747559 0.104980
vt 0.620605 0.682861
vt 0.772949 0.699707
vt 0.790039 0.771729
vt 0.610352 0.758789
vt 0.658691 0.894348
vt 0.570801 0.890198
vt 0.661133 0.918823
vt 0.575684 0.865234
vt 0.473877 0.875916
vt 0.474609 0.738037
vt 0.476074 0.672852
vt 0.372314 0.864868
vt 0.375488 0.888855
vt 0.289307 0.914551
vt 0.294922 0.888489
vt 0.158203 0.767212
vt 0.341064 0.756470
vt 0.335693 0.714844
vt 0.341309 0.680176
vt 0.327881 0.678955
vt 0.183838 0.696777
vt 0.790039 0.220703
vt 0.640625 0.208008
vt 0.833008 0.166992
vt 0.789062 0.468750
vt 0.648926 0.135742
vt 0.623535 0.451172
vt 0.476562 0.440918
vt 0.477783 0.135742
vt 0.474609 0.199219
vt 0.318359 0.136230
vt 0.335449 0.446777
vt 0.320801 0.199219
vt 0.135498 0.160645
vt 0.329102 0.446777
vt 0.177124 0.217285
vt 0.176270 0.461914
vt1 0.860840 0.486816
vt1 0.862793 0.614502
vt1 0.990234 0.486328
vt1 0.982910 0.608154
vt1 0.244629 0.133301
vt1 -0.001864 0.167480
vt1 0.036774 0.123047
vt1 0.248169 0.187012
vt1 0.035645 0.218262
vt1 0.434082 0.125000
vt1 0.244385 0.213867
vt1 0.439209 0.186035
vt1 0.437256 0.209473
vt1 0.632812 0.198242
vt1 0.627441 0.143555
vt1 0.631836 0.119629
vt1 0.839355 0.118164
vt1 0.873047 0.162598
vt1 0.836914 0.209473
vt1 0.678223 0.248047
vt1 0.905273 0.273438
vt1 0.930664 0.381836
vt1 0.663086 0.362305
vt1 0.734863 0.566162
vt1 0.603516 0.559814
vt1 0.737793 0.603027
vt1 0.611328 0.522217
vt1 0.459473 0.538330
vt1 0.460693 0.331055
vt1 0.462646 0.232910
vt1 0.308594 0.521729
vt1 0.313232 0.557861
vt1 0.184937 0.596436
vt1 0.193115 0.557373
vt1 -0.010300 0.375000
vt1 0.261719 0.358887
vt1 0.253662 0.296387
vt1 0.262207 0.244141
vt1 0.242432 0.242188
vt1 0.027756 0.269043
vt1 0.873047 0.704834
vt1 0.670898 0.689453
vt1 0.931641 0.641113
vt1 0.872559 0.999207
vt1 0.682129 0.603760
vt1 0.647949 0.978271
vt1 0.449219 0.965820
vt1 0.450684 0.603760
vt1 0.446289 0.679443
vt1 0.235107 0.604492
vt1 0.258301 0.973160
vt1 0.238159 0.679443
vt1 -0.012619 0.633301
vt1 0.249390 0.973221
vt1 0.043732 0.700684
vt1 0.042603 0.990845
vn 0.055118 0.992126 0.102362
vn -0.031496 1.000000 0.031496
vn 0.039370 1.000000 -0.031496
vn -0.047244 1.000000 -0.070866
vn 0.047244 -0.952756 0.291339
vn 0.118110 -0.228346 0.968504
vn 0.000000 -1.000000 0.000000
vn -0.566929 0.763779 0.291338
vn 0.000000 1.000000 -0.000000
vn -0.212598 -0.976378 -0.086614
vn 0.000000 1.000000 -0.000000
vn -0.322835 0.818897 -0.480315
vn 0.000000 1.000000 -0.000000
vn 0.307087 0.944882 -0.078740
vn 0.322835 -0.755905 -0.566929
vn 0.000000 -1.000000 0.000000
vn 0.000000 -1.000000 0.000000
vn 1.000000 0.007874 0.031496
vn 0.000000 1.000000 -0.000000
vn 0.267717 -0.921260 -0.283464
vn 0.669291 -0.748031 0.031496
vn 0.881890 0.464567 0.078740
vn 0.440945 0.787401 -0.425197
vn 0.976378 0.141732 0.157480
vn 0.748031 0.102362 -0.653543
vn 0.992126 0.062992 0.133858
vn 0.551181 0.133858 -0.818897
vn -0.629921 -0.417323 -0.653543
vn -0.425197 0.787401 -0.448819
vn -0.440945 -0.850394 -0.291338
vn -0.645669 0.299213 0.708661
vn -0.874016 0.062992 0.488189
vn 0.023622 0.000000 1.000000
vn -0.007874 -0.007874 1.000000
vn 0.102362 0.370079 0.921260
vn -0.456693 0.763779 0.448819
vn -0.409449 -0.763779 0.503937
vn -0.637795 -0.755905 -0.118110
vn -0.015748 -0.818897 0.566929
vn 0.007874 -0.755905 0.653543
vn 0.992126 0.055118 0.118110
vn 1.000000 0.023622 -0.039370
vn 0.881890 0.464567 -0.000000
vn 1.000000 -0.015748 0.070866
vn 0.346457 0.204724 -0.913386
vn 0.700787 -0.031496 -0.708661
vn -0.456693 -0.031496 -0.889764
vn -0.283465 0.118110 -0.952756
vn -0.992126 0.125984 -0.039370
vn -0.889764 0.149606 0.425197
vn -1.000000 -0.023622 0.047244
vn -0.039370 0.149606 0.984252
vn -0.133858 0.283465 0.952756
vn -0.047244 -0.007874 1.000000
vn 0.000000 0.062992 1.000000
vn 0.000000 -0.007874 1.000000
tan 0.984314 -0.066774 0.117180 1.000000
tan 1.000000 0.033728 -0.070866 1.000000
tan 1.000000 -0.041354 -0.062992 1.000000
tan 1.000000 0.052824 0.078740 1.000000
tan 0.412611 -0.243351 -0.862732 1.000000
tan -0.009424 -0.969434 -0.227416 1.000000
tan 0.015748 -0.000000 -1.000000 1.000000
tan -0.691611 -0.639531 0.330771 1.000000
tan -0.007874 0.000000 1.000000 1.000000
tan 0.845682 -0.227788 0.492033 1.000000
tan -0.716535 0.000000 0.692913 1.000000
tan -0.497613 -0.578957 -0.652613 1.000000
tan -0.685039 -0.000000 -0.724409 1.000000
tan 0.833282 -0.307397 -0.438961 1.000000
tan -0.403249 -0.653729 0.642011 1.000000
tan -0.700787 0.000000 0.708661 1.000000
tan -1.000000 -0.000000 -0.007874 1.000000
tan 0.007874 -1.000000 0.000000 1.000000
tan 1.000000 -0.000000 -0.023622 1.000000
tan -0.551305 -0.387873 0.739909 1.000000
tan -0.747783 -0.669539 -0.011160 1.000000
tan 0.465807 -0.881890 -0.013888 1.000000
tan 0.626201 -0.608469 -0.477401 1.000000
tan 0.165540 -0.961002 -0.161448 1.000000
tan -0.216752 -0.878604 -0.385703 1.000000
tan 0.095790 -0.960878 -0.257796 1.000000
tan -0.176018 -0.919462 -0.268770 1.000000
tan 0.163246 -0.890632 0.411371 1.000000
tan -0.595201 -0.618265 -0.520801 1.000000
tan 0.756649 -0.525389 0.388369 1.000000
tan -0.314713 -0.929630 0.105772 1.000000
tan -0.126852 -0.930250 -0.107074 1.000000
tan -0.299213 -0.952756 0.007068 1.000000
tan -0.188976 -0.984252 -0.009238 1.000000
tan 0.002914 -0.922066 0.370079 1.000000
tan -0.560357 -0.641825 0.522041 1.000000
tan 0.573253 -0.640337 -0.504743 1.000000
tan 0.759625 -0.646165 0.033480 1.000000
tan 0.092752 -0.564077 -0.812201 1.000000
tan -0.011904 -0.653667 -0.755905 1.000000
tan 0.072354 -0.984314 -0.148428 1.000000
tan 0.019406 -0.992126 -0.102362 1.000000
tan 0.460909 -0.874946 -0.086986 1.000000
tan -0.011284 -1.000000 -0.062992 1.000000
tan -0.021452 -0.937938 -0.218364 1.000000
tan -0.387873 -0.854424 -0.345589 1.000000
tan -0.024304 -0.936698 0.045632 1.000000
tan -0.084382 -0.949718 -0.092628 1.000000
tan -0.124744 -0.992126 -0.031248 1.000000
tan -0.073594 -0.909232 0.165912 1.000000
tan 0.020646 -1.000000 -0.062992 1.000000
tan -0.085250 -0.984252 0.146196 1.000000
tan -0.026970 -0.954864 0.280303 1.000000
tan -0.070866 -1.000000 -0.011222 1.000000
tan -0.086614 -1.000000 0.062992 1.000000
tan -0.070866 -1.000000 -0.007874 1.000000
f 3/3/3 2/2/2 1/1/1
f 4/4/4 2/2/2 3/3/3
f 7/7/7 6/6/6 5/5/5
f 5/5/5 6/6/6 8/8/8
f 9/9/9 8/8/8 6/6/6
f 8/8/8 10/10/10 5/5/5
f 11/11/11 8/8/8 9/9/9
f 11/11/11 12/12/12 8/8/8
f 12/12/12 10/10/10 8/8/8
f 13/13/13 12/12/12 11/11/11
f 13/13/13 14/14/14 12/12/12
f 12/12/12 15/15/15 10/10/10
f 14/14/14 15/15/15 12/12/12
f 16/16/16 10/10/10 15/15/15
f 16/16/16 15/15/15 17/17/17
f 17/17/17 15/15/15 18/18/18
f 14/14/14 18/18/18 15/15/15
f 19/19/19 18/18/18 14/14/14
f 22/22/22 21/21/21 20/20/20
f 23/23/23 22/22/22 20/20/20
f 24/24/24 22/22/22 23/23/23
f 26/26/26 24/24/24 25/25/25
f 25/25/25 24/24/24 27/27/27
f 27/27/27 24/24/24 23/23/23
f 28/28/28 25/25/25 27/27/27
f 29/29/29 23/23/23 20/20/20
f 27/27/27 23/23/23 29/29/29
f 28/28/28 27/27/27 29/29/29
f 29/29/29 20/20/20 30/30/30
f 28/28/28 29/29/29 31/31/31
f 32/32/32 28/28/28 31/31/31
f 32/32/32 31/31/31 33/33/33
f 33/33/33 31/31/31 34/34/34
f 34/34/34 31/31/31 35/35/35
f 31/31/31 29/29/29 36/36/36
f 31/31/31 36/36/36 35/35/35
f 37/37/37 29/29/29 30/30/30
f 36/36/36 29/29/29 37/37/37
f 35/35/35 36/36/36 37/37/37
f 37/37/37 30/30/30 38/38/38
f 38/38/38 39/39/39 37/37/37
f 37/37/37 39/39/39 35/35/35
f 35/35/35 39/39/39 40/40/40
f 43/43/43 42/42/42 41/41/41
f 41/41/41 42/42/42 44/44/44
f 45/45/45 42/42/42 43/43/43
f 44/44/44 42/42/42 46/46/46
f 45/45/45 46/46/46 42/42/42
f 46/46/46 45/45/45 47/47/47
f 47/47/47 45/45/45 48/48/48
f 49/49/49 47/47/47 48/48/48
f 49/49/49 48/48/48 50/50/50
f 47/47/47 49/49/49 51/51/51
f 51/51/51 49/49/49 50/50/50
f 50/50/50 52/52/52 51/51/51
f 52/52/52 50/50/50 53/53/53
f 51/51/51 52/52/52 54/54/54
f 53/53/53 55/55/55 52/52/52
f 54/54/54 52/52/52 56/56/56
f 56/56/56 52/52/52 55/55/55
