mtllib SM_Path_LOD1@000002909DC3A400.mtl
g SM_Path_LOD1@000002909DC3A400
#Vertices 60
#Indices 297
#Section 0 Offset 0 NumIndices 297 MaterialIndex 0 MI_FloorTile_A_01
v -6.001876 -0.059870 -3.796507 0.000000 1.000000 0.000000 1.000000
v -4.800000 -0.059078 -1.034505 0.000000 1.000000 0.000000 1.000000
v -6.000000 -0.059078 -1.034505 0.000000 1.000000 0.000000 1.000000
v -4.800000 0.282838 -3.764504 0.000000 1.000000 0.000000 1.000000
v -3.028680 -0.048537 -1.034140 0.000000 1.000000 0.000000 1.000000
v -4.800000 0.260941 -6.494504 0.000000 1.000000 0.000000 1.000000
v -6.000000 -0.023258 -9.224504 0.000000 1.000000 0.000000 1.000000
v -2.568043 0.401549 -3.756135 0.000000 1.000000 0.000000 1.000000
v -4.800000 0.529930 -9.224504 0.000000 1.000000 0.000000 1.000000
v -5.998649 -0.078918 -12.347292 0.000000 1.000000 0.000000 1.000000
v -3.600000 0.300080 -6.494504 0.000000 1.000000 0.000000 1.000000
v 0.241494 0.386511 -3.735166 0.000000 1.000000 0.000000 1.000000
v 1.943057 -0.060231 -1.034669 0.000000 1.000000 0.000000 1.000000
v 0.518815 0.301943 -6.585438 0.000000 1.000000 0.000000 1.000000
v 2.543365 0.300332 -3.766103 0.000000 1.000000 0.000000 1.000000
v 5.997309 -0.073631 -1.036135 0.000000 1.000000 0.000000 1.000000
v 4.800000 0.226463 -3.764504 0.000000 1.000000 0.000000 1.000000
v 6.000719 -0.075198 -6.094795 0.000000 1.000000 0.000000 1.000000
v 4.619013 0.292901 -6.306848 0.000000 1.000000 0.000000 1.000000
v 4.800000 0.474323 -9.224504 0.000000 1.000000 0.000000 1.000000
v 6.000000 0.077596 -9.224504 0.000000 1.000000 0.000000 1.000000
v 3.600000 0.540025 -9.224504 0.000000 1.000000 0.000000 1.000000
v 4.800000 0.273010 -11.954504 0.000000 1.000000 0.000000 1.000000
v 6.004242 -0.047538 -12.747213 0.000000 1.000000 0.000000 1.000000
v 1.561287 0.493575 -9.260078 0.000000 1.000000 0.000000 1.000000
v 3.132850 0.321156 -11.971701 0.000000 1.000000 0.000000 1.000000
v -1.788353 0.343468 -9.151469 0.000000 1.000000 0.000000 1.000000
v 4.800000 0.390282 -14.684503 0.000000 1.000000 0.000000 1.000000
v -3.600000 0.355355 -9.224504 0.000000 1.000000 0.000000 1.000000
v -2.155298 0.286031 -11.700636 0.000000 1.000000 0.000000 1.000000
v -3.600000 0.298818 -11.954504 0.000000 1.000000 0.000000 1.000000
v -4.800000 0.260940 -11.954504 0.000000 1.000000 0.000000 1.000000
v -4.800000 0.284846 -14.684503 0.000000 1.000000 0.000000 1.000000
v -6.000000 0.015221 -17.414501 0.000000 1.000000 0.000000 1.000000
v -3.600000 0.566029 -14.684503 0.000000 1.000000 0.000000 1.000000
v -4.800000 0.375265 -17.414501 0.000000 1.000000 0.000000 1.000000
v -6.000154 -0.057837 -20.178993 0.000000 1.000000 0.000000 1.000000
v -2.400000 0.382354 -14.684503 0.000000 1.000000 0.000000 1.000000
v -4.758190 0.269357 -20.473883 0.000000 1.000000 0.000000 1.000000
v -5.999837 -0.059651 -28.334469 0.000000 1.000000 0.000000 1.000000
v -3.466516 0.423200 -17.561010 0.000000 1.000000 0.000000 1.000000
v 0.939263 0.390759 -14.563549 0.000000 1.000000 0.000000 1.000000
v -4.800000 0.258349 -25.604502 0.000000 1.000000 0.000000 1.000000
v -2.285836 -0.036557 -28.338053 0.000000 1.000000 0.000000 1.000000
v 3.562536 0.543973 -14.571431 0.000000 1.000000 0.000000 1.000000
v 1.020872 0.311683 -17.256485 0.000000 1.000000 0.000000 1.000000
v 3.360140 0.294476 -17.594555 0.000000 1.000000 0.000000 1.000000
v -0.761076 0.311591 -19.997307 0.000000 1.000000 0.000000 1.000000
v 4.800000 0.258350 -17.414501 0.000000 1.000000 0.000000 1.000000
v 6.000179 -0.059518 -25.599766 0.000000 1.000000 0.000000 1.000000
v 3.245983 0.300291 -20.348980 0.000000 1.000000 0.000000 1.000000
v 4.653857 0.290411 -23.026072 0.000000 1.000000 0.000000 1.000000
v -0.054954 0.542571 -23.176636 0.000000 1.000000 0.000000 1.000000
v -2.861703 0.386405 -22.648785 0.000000 1.000000 0.000000 1.000000
v -1.077620 0.495051 -25.617292 0.000000 1.000000 0.000000 1.000000
v -0.006645 -0.056923 -28.334795 0.000000 1.000000 0.000000 1.000000
v 1.476402 0.325961 -25.409893 0.000000 1.000000 0.000000 1.000000
v 4.798161 -0.063822 -28.333941 0.000000 1.000000 0.000000 1.000000
v 6.000000 -0.059081 -28.334503 0.000000 1.000000 0.000000 1.000000
v 4.742206 0.258985 -25.732552 0.000000 1.000000 0.000000 1.000000
vt -0.108398 2.185547
vt 0.020874 2.609375
vt -0.098572 2.611328
vt 0.025681 2.186523
vt 0.199097 2.611328
vt 0.021378 1.768555
vt -0.134766 1.350830
vt 0.247681 2.186523
vt 0.025467 1.350342
vt -0.119568 0.872437
vt 0.142090 1.768066
vt 0.525391 2.189453
vt 0.696289 2.611328
vt 0.553711 1.754395
vt 0.754395 2.186523
vt 1.100586 2.610352
vt 0.978516 2.187500
vt 1.118164 1.834473
vt 0.963379 1.798340
vt 0.978516 1.350342
vt 1.121094 1.350586
vt 0.859375 1.350098
vt 0.983398 0.931335
vt 1.126953 0.808350
vt 0.658203 1.344482
vt 0.815430 0.928589
vt 0.325928 1.361328
vt 0.980469 0.512451
vt 0.147583 1.350098
vt 0.286621 0.970581
vt 0.140625 0.931946
vt 0.019562 0.932678
vt 0.011360 0.513428
vt -0.116882 0.094727
vt 0.141724 0.512451
vt 0.022278 0.095703
vt -0.117310 -0.328125
vt 0.265137 0.513184
vt 0.023254 -0.372070
vt -0.106018 -1.583984
vt 0.155518 0.073242
vt 0.594727 0.531494
vt 0.020569 -1.158203
vt 0.269775 -1.583984
vt 0.854980 0.530029
vt 0.603027 0.118652
vt 0.836914 0.066406
vt 0.424072 -0.299805
vt 0.980957 0.093750
vt 1.109375 -1.162109
vt 0.823730 -0.355469
vt 0.963867 -0.765625
vt 0.493896 -0.787109
vt 0.213623 -0.706055
vt 0.391846 -1.158203
vt 0.499268 -1.583984
vt 0.647461 -1.128906
vt 0.979492 -1.582031
vt 1.099609 -1.583984
vt 0.971191 -1.179688
vt1 0.028595 0.892090
vt1 0.129272 0.991203
vt1 0.036224 0.991852
vt1 0.132935 0.892212
vt1 0.268066 0.991814
vt1 0.129639 0.794312
vt1 0.008064 0.696533
vt1 0.305908 0.892151
vt1 0.132812 0.696289
vt1 0.019928 0.584229
vt1 0.223633 0.794189
vt1 0.521973 0.893005
vt1 0.655273 0.991730
vt1 0.543945 0.790894
vt1 0.700684 0.892212
vt1 0.970215 0.991486
vt1 0.875000 0.892517
vt1 0.983887 0.809814
vt1 0.862793 0.801270
vt1 0.875000 0.696289
vt1 0.985840 0.696289
vt1 0.782227 0.696289
vt1 0.878906 0.598145
vt1 0.990723 0.569336
vt1 0.625488 0.695068
vt1 0.748047 0.597412
vt1 0.366699 0.698975
vt1 0.876465 0.500000
vt1 0.227905 0.696289
vt1 0.336182 0.607178
vt1 0.222534 0.598145
vt1 0.128174 0.598389
vt1 0.121887 0.500244
vt1 0.021973 0.402344
vt1 0.223389 0.500000
vt1 0.130371 0.402344
vt1 0.021683 0.303223
vt1 0.319336 0.500000
vt1 0.131104 0.292480
vt1 0.030457 0.008789
vt1 0.234131 0.396973
vt1 0.576172 0.504395
vt1 0.129028 0.108398
vt1 0.322998 0.008789
vt1 0.778809 0.504150
vt1 0.582520 0.407715
vt1 0.764648 0.395508
vt1 0.443115 0.309570
vt1 0.876953 0.401855
vt1 0.977051 0.107422
vt1 0.754395 0.296875
vt1 0.863770 0.200684
vt1 0.497559 0.195312
vt1 0.279297 0.214355
vt1 0.418213 0.108398
vt1 0.501465 0.008301
vt1 0.617188 0.115234
vt1 0.875977 0.008789
vt1 0.969238 0.008301
vt1 0.869141 0.103516
vn -0.228346 0.976378 0.031496
vn -0.086614 0.992126 0.102362
vn -0.141732 0.984252 0.062992
vn -0.125984 0.992126 0.047244
vn -0.015748 0.984252 0.165354
vn -0.157480 0.984252 0.023622
vn -0.338583 0.937008 -0.000000
vn 0.000000 1.000000 0.062992
vn -0.149606 0.992126 -0.000000
vn -0.291339 0.960630 -0.015748
vn 0.000000 1.000000 0.007874
vn 0.015748 1.000000 0.062992
vn 0.023622 0.992126 0.141732
vn -0.007874 1.000000 0.007874
vn 0.000000 1.000000 0.070866
vn 0.110236 0.992126 0.062992
vn 0.110236 0.992126 0.047244
vn 0.259843 0.968504 0.031496
vn 0.078740 0.992126 0.047244
vn 0.165354 0.984252 -0.000000
vn 0.291339 0.960630 -0.000000
vn 0.015748 1.000000 -0.000000
vn 0.188976 0.984252 -0.015748
vn 0.314961 0.952756 -0.007874
vn -0.023622 1.000000 -0.000000
vn -0.023622 1.000000 -0.007874
vn -0.015748 1.000000 -0.000000
vn 0.196850 0.984252 -0.000000
vn 0.031496 1.000000 -0.000000
vn 0.000000 1.000000 0.007874
vn 0.000000 1.000000 0.007874
vn -0.181102 0.984252 -0.015748
vn -0.204724 0.976378 0.015748
vn -0.275591 0.960630 -0.000000
vn -0.031496 1.000000 0.023622
vn -0.181102 0.984252 -0.015748
vn -0.283465 0.960630 -0.000000
vn 0.039370 1.000000 0.023622
vn -0.141732 0.992126 -0.007874
vn -0.133858 0.992126 -0.062992
vn 0.007874 1.000000 -0.023622
vn -0.015748 1.000000 -0.000000
vn -0.118110 0.992126 -0.047244
vn -0.015748 0.984252 -0.173228
vn 0.000000 1.000000 -0.007874
vn 0.007874 1.000000 -0.015748
vn 0.000000 1.000000 -0.039370
vn 0.000000 1.000000 0.031496
vn 0.173228 0.984252 -0.023622
vn 0.212598 0.976378 -0.015748
vn 0.015748 1.000000 0.015748
vn 0.102362 0.992126 -0.000000
vn 0.015748 1.000000 0.007874
vn -0.039370 1.000000 0.015748
vn 0.007874 0.992126 -0.102362
vn 0.039370 0.984252 -0.165354
vn 0.023622 0.992126 -0.094488
vn 0.039370 0.992126 -0.102362
vn 0.133858 0.992126 -0.055118
vn 0.086614 0.992126 -0.055118
tan 0.023064 0.036890 -0.976378 1.000000
tan 0.007812 0.103044 -0.992126 1.000000
tan 0.023250 0.066340 -0.984252 1.000000
tan 0.007812 0.048236 -0.992126 1.000000
tan 0.000000 0.165354 -0.984252 1.000000
tan 0.007564 0.024862 -0.985492 1.000000
tan 0.000000 -0.000000 -0.953004 1.000000
tan 0.000000 0.062992 -1.000000 1.000000
tan 0.000000 -0.000000 -0.992126 1.000000
tan 0.000000 -0.015748 -0.960630 1.000000
tan 0.000000 0.007874 -1.000000 1.000000
tan 0.000000 0.062992 -1.000000 1.000000
tan 0.000000 0.141732 -0.992126 1.000000
tan 0.000000 0.007874 -1.000000 1.000000
tan 0.000000 0.070866 -1.000000 1.000000
tan -0.015624 0.064728 -0.992126 1.000000
tan -0.015624 0.048980 -0.992126 1.000000
tan -0.022878 0.037634 -0.968504 1.000000
tan -0.007812 0.047864 -0.992126 1.000000
tan 0.000000 -0.000000 -0.985554 1.000000
tan 0.000000 -0.000000 -0.969806 1.000000
tan 0.000000 -0.000000 -1.000000 1.000000
tan 0.007626 -0.017236 -0.985740 1.000000
tan 0.007502 -0.010354 -0.952756 1.000000
tan 0.000000 -0.000000 -1.000000 1.000000
tan 0.000000 -0.007874 -1.000000 1.000000
tan 0.000000 -0.000000 -1.000000 1.000000
tan 0.000000 -0.000000 -0.985802 1.000000
tan 0.000000 -0.000000 -1.000000 1.000000
tan 0.000000 0.007874 -1.000000 1.000000
tan 0.000000 0.007874 -1.000000 1.000000
tan 0.000124 -0.015748 -0.985678 1.000000
tan 0.007564 0.017360 -0.977990 1.000000
tan 0.000000 -0.000000 -0.967140 1.000000
tan 0.000000 0.023622 -1.000000 1.000000
tan 0.000124 -0.015748 -0.985678 1.000000
tan 0.000000 -0.000000 -0.960630 1.000000
tan 0.000000 0.023622 -1.000000 1.000000
tan 0.000000 -0.007874 -0.992126 1.000000
tan -0.023436 -0.066154 -0.992126 1.000000
tan 0.000000 -0.023622 -1.000000 1.000000
tan 0.000000 -0.000000 -1.000000 1.000000
tan -0.007812 -0.048174 -0.992126 1.000000
tan 0.000000 -0.173228 -0.984252 1.000000
tan 0.000000 -0.007874 -1.000000 1.000000
tan 0.000000 -0.015748 -1.000000 1.000000
tan 0.000000 -0.039370 -1.000000 1.000000
tan 0.000000 0.031496 -1.000000 1.000000
tan 0.007564 -0.024986 -0.985616 1.000000
tan 0.015376 -0.019096 -0.976378 1.000000
tan 0.000000 0.015748 -1.000000 1.000000
tan 0.000000 -0.000000 -0.992126 1.000000
tan 0.000000 0.007874 -1.000000 1.000000
tan 0.000000 0.015748 -1.000000 1.000000
tan 0.000000 -0.102362 -0.992126 1.000000
tan 0.007750 -0.165664 -0.984252 1.000000
tan 0.000000 -0.094488 -0.992126 1.000000
tan 0.000000 -0.102362 -0.992126 1.000000
tan 0.023436 -0.058280 -0.992126 1.000000
tan 0.007812 -0.055800 -0.992126 1.000000
f 3/3/3 2/2/2 1/1/1
f 1/1/1 2/2/2 4/4/4
f 2/2/2 5/5/5 4/4/4
f 1/1/1 4/4/4 6/6/6
f 1/1/1 6/6/6 7/7/7
f 4/4/4 5/5/5 8/8/8
f 4/4/4 8/8/8 6/6/6
f 7/7/7 6/6/6 9/9/9
f 7/7/7 9/9/9 10/10/10
f 6/6/6 8/8/8 11/11/11
f 6/6/6 11/11/11 9/9/9
f 8/8/8 5/5/5 12/12/12
f 5/5/5 13/13/13 12/12/12
f 11/11/11 8/8/8 14/14/14
f 8/8/8 12/12/12 14/14/14
f 15/15/15 12/12/12 13/13/13
f 12/12/12 15/15/15 14/14/14
f 13/13/13 16/16/16 15/15/15
f 15/15/15 16/16/16 17/17/17
f 17/17/17 16/16/16 18/18/18
f 15/15/15 17/17/17 19/19/19
f 17/17/17 18/18/18 19/19/19
f 19/19/19 14/14/14 15/15/15
f 19/19/19 18/18/18 20/20/20
f 20/20/20 18/18/18 21/21/21
f 22/22/22 19/19/19 20/20/20
f 20/20/20 21/21/21 23/23/23
f 24/24/24 23/23/23 21/21/21
f 25/25/25 19/19/19 22/22/22
f 14/14/14 19/19/19 25/25/25
f 22/22/22 20/20/20 26/26/26
f 25/25/25 22/22/22 26/26/26
f 26/26/26 20/20/20 23/23/23
f 27/27/27 14/14/14 25/25/25
f 23/23/23 24/24/24 28/28/28
f 29/29/29 14/14/14 27/27/27
f 11/11/11 14/14/14 29/29/29
f 9/9/9 11/11/11 29/29/29
f 27/27/27 25/25/25 30/30/30
f 30/30/30 25/25/25 26/26/26
f 29/29/29 27/27/27 31/31/31
f 31/31/31 27/27/27 30/30/30
f 9/9/9 29/29/29 32/32/32
f 32/32/32 29/29/29 31/31/31
f 10/10/10 9/9/9 32/32/32
f 10/10/10 32/32/32 33/33/33
f 32/32/32 31/31/31 33/33/33
f 10/10/10 33/33/33 34/34/34
f 35/35/35 33/33/33 31/31/31
f 31/31/31 30/30/30 35/35/35
f 34/34/34 33/33/33 36/36/36
f 33/33/33 35/35/35 36/36/36
f 34/34/34 36/36/36 37/37/37
f 35/35/35 30/30/30 38/38/38
f 37/37/37 36/36/36 39/39/39
f 37/37/37 39/39/39 40/40/40
f 36/36/36 35/35/35 41/41/41
f 35/35/35 38/38/38 41/41/41
f 36/36/36 41/41/41 39/39/39
f 42/42/42 38/38/38 30/30/30
f 38/38/38 42/42/42 41/41/41
f 30/30/30 26/26/26 42/42/42
f 40/40/40 39/39/39 43/43/43
f 40/40/40 43/43/43 44/44/44
f 45/45/45 42/42/42 26/26/26
f 26/26/26 23/23/23 45/45/45
f 45/45/45 23/23/23 28/28/28
f 42/42/42 45/45/45 46/46/46
f 41/41/41 42/42/42 46/46/46
f 45/45/45 28/28/28 47/47/47
f 46/46/46 45/45/45 47/47/47
f 41/41/41 46/46/46 48/48/48
f 46/46/46 47/47/47 48/48/48
f 48/48/48 39/39/39 41/41/41
f 47/47/47 28/28/28 49/49/49
f 28/28/28 24/24/24 49/49/49
f 50/50/50 49/49/49 24/24/24
f 47/47/47 49/49/49 51/51/51
f 48/48/48 47/47/47 51/51/51
f 51/51/51 49/49/49 52/52/52
f 49/49/49 50/50/50 52/52/52
f 48/48/48 51/51/51 53/53/53
f 52/52/52 53/53/53 51/51/51
f 39/39/39 48/48/48 54/54/54
f 54/54/54 48/48/48 53/53/53
f 39/39/39 54/54/54 43/43/43
f 43/43/43 54/54/54 55/55/55
f 54/54/54 53/53/53 55/55/55
f 43/43/43 55/55/55 44/44/44
f 44/44/44 55/55/55 56/56/56
f 55/55/55 53/53/53 57/57/57
f 55/55/55 57/57/57 56/56/56
f 53/53/53 52/52/52 57/57/57
f 56/56/56 57/57/57 58/58/58
f 59/59/59 58/58/58 50/50/50
f 57/57/57 52/52/52 60/60/60
f 52/52/52 50/50/50 60/60/60
f 57/57/57 60/60/60 58/58/58
f 60/60/60 50/50/50 58/58/58
