mtllib SM_Pillar_Trim_02_LOD2.mtl
g SM_Pillar_Trim_02_LOD2
#Vertices 119
#Indices 297
#Section 0 Offset 0 NumIndices 297 MaterialIndex 0 MI_ConcreteTrim_A_01
v 0.334781 -1.476933 0.389456
v 0.516131 -1.454160 0.025891
v 0.432983 -1.458634 -0.275329
v -0.338177 -0.980655 0.512997
v 0.003313 -0.989356 0.674058
v -0.000000 -1.001572 0.498425
v -0.519619 -1.002169 0.017750
v -0.726538 -0.991963 0.040400
v -0.375633 -0.996514 -0.613819
v -0.248750 -1.002971 -0.466874
v 0.293947 -1.001615 -0.426035
v 0.365544 -1.004149 -0.542693
v 0.503062 -1.001840 -0.081460
v 0.666649 -0.999840 -0.024309
v 0.392129 -0.949152 0.431445
v -0.000000 -1.001572 0.498425
v 0.003313 -0.989356 0.674058
v -0.007670 -0.481984 0.906826
v -0.598307 -0.498809 0.599779
v -0.662906 -0.444512 0.648018
v -0.870619 -0.498576 0.008762
v -0.892002 -0.453464 -0.207821
v -0.618114 -0.498994 -0.584832
v -0.318306 -0.457593 -0.878344
v -0.044225 -0.501332 -0.861719
v 0.527620 -0.486171 -0.730502
v -0.000000 -1.001572 0.498425
v -0.009791 -1.485240 0.530402
v -0.338177 -0.980655 0.512997
v -0.439504 -1.466161 0.260206
v -0.519619 -1.002169 0.017750
v -0.324550 -1.467212 -0.503813
v -0.248750 -1.002971 -0.466874
v 0.293947 -1.001615 -0.426035
v 0.432983 -1.458634 -0.275329
v 0.503062 -1.001840 -0.081460
v 0.516131 -1.454160 0.025891
v 0.392129 -0.949152 0.431445
v 0.334781 -1.476933 0.389456
v -0.000000 -1.001572 0.498425
v -0.009791 -1.485240 0.530402
v 0.003313 -0.989356 0.674058
v 0.517376 -0.953677 0.529665
v 0.392129 -0.949152 0.431445
v 0.666649 -0.999840 -0.024309
v 0.659516 -0.953970 -0.239342
v 0.365544 -1.004149 -0.542693
v 0.072108 -0.959474 -0.724688
v -0.375633 -0.996514 -0.613819
v -0.007670 -0.481984 0.906826
v -0.400012 0.002112 0.799262
v -0.000000 0.000000 0.880858
v -0.662906 -0.444512 0.648018
v -0.846497 -0.004604 0.321560
v -0.892002 -0.453464 -0.207821
v -0.837746 -0.000000 -0.272200
v -0.501224 0.002071 -0.760795
v -0.318306 -0.457593 -0.878344
v 0.138828 -0.001414 -0.878495
v 0.527620 -0.486171 -0.730502
v 0.638743 0.000048 -0.634830
v 0.879794 -0.476704 -0.196836
v 0.880076 0.000668 -0.139397
v 0.803822 -0.000109 0.405906
v 0.702508 -0.484722 0.587639
v 0.401046 0.000205 0.796667
v -0.007670 -0.481984 0.906826
v -0.000000 0.000000 0.880858
v -0.338177 -0.980655 0.512997
v -0.000000 -0.501463 0.682185
v 0.003313 -0.989356 0.674058
v -0.506602 -0.499529 0.480060
v -0.726538 -0.991963 0.040400
v -0.692408 -0.502509 -0.109639
v -0.375633 -0.996514 -0.613819
v -0.399198 -0.500487 -0.582373
v 0.072108 -0.959474 -0.724688
v 0.309013 -0.501626 -0.654227
v 0.659516 -0.953970 -0.239342
v 0.691603 -0.502315 -0.109217
v 0.517376 -0.953677 0.529665
v 0.527610 -0.498482 0.495320
v -0.000000 -0.501463 0.682185
v 0.003313 -0.989356 0.674058
v -0.007670 -0.481984 0.906826
v 0.527610 -0.498482 0.495320
v -0.000000 -0.501463 0.682185
v 0.702508 -0.484722 0.587639
v 0.691603 -0.502315 -0.109217
v 0.879794 -0.476704 -0.196836
v 0.309013 -0.501626 -0.654227
v 0.527620 -0.486171 -0.730502
v -0.044225 -0.501332 -0.861719
v -0.399198 -0.500487 -0.582373
v -0.618114 -0.498994 -0.584832
v -0.692408 -0.502509 -0.109639
v -0.870619 -0.498576 0.008762
v -0.506602 -0.499529 0.480060
v -0.598307 -0.498809 0.599779
v -0.007670 -0.481984 0.906826
v -0.000000 -0.501463 0.682185
v -0.000000 0.000000 0.880858
v -0.373693 -0.001534 0.295211
v 0.000000 -0.001572 0.450000
v -0.400012 0.002112 0.799262
v -0.846497 -0.004604 0.321560
v -0.389700 -0.000993 -0.302269
v -0.837746 -0.000000 -0.272200
v -0.501224 0.002071 -0.760795
v 0.138828 -0.001414 -0.878495
v 0.156586 -0.001499 -0.440350
v 0.638743 0.000048 -0.634830
v 0.476336 -0.001477 -0.075723
v 0.880076 0.000668 -0.139397
v 0.803822 -0.000109 0.405906
v 0.288483 -0.001583 0.363853
v 0.401046 0.000205 0.796667
v -0.000000 0.000000 0.880858
v 0.000000 -0.001572 0.450000
vt 0.769531 0.370117
vt 0.700684 0.375977
vt 0.653320 0.364746
vt 0.380859 0.733398
vt 0.327637 0.746582
vt 0.330078 0.720703
vt 0.460449 0.719727
vt 0.455078 0.750488
vt 0.540527 0.741699
vt 0.541504 0.721191
vt 0.624023 0.720459
vt 0.622070 0.738770
vt 0.684082 0.720947
vt 0.692383 0.740723
vt 0.768066 0.728271
vt 0.834473 0.720703
vt 0.833496 0.746582
vt -0.302979 0.632568
vt -0.234741 0.625244
vt -0.233643 0.637451
vt -0.171509 0.624756
vt -0.152222 0.638184
vt -0.112671 0.625244
vt -0.078064 0.641113
vt -0.055267 0.625000
vt -0.006268 0.633789
vt 0.330078 0.450684
vt 0.331055 0.370117
vt 0.377930 0.454102
vt 0.419434 0.373535
vt 0.459229 0.450684
vt 0.537598 0.373535
vt 0.542969 0.451172
vt 0.624512 0.450684
vt 0.653320 0.374512
vt 0.684570 0.450684
vt 0.700684 0.375488
vt 0.768066 0.458984
vt 0.769531 0.371582
vt 0.834473 0.450684
vt 0.837402 0.370605
vt 0.835449 0.746338
vt 0.763184 0.750732
vt 0.766602 0.738037
vt 0.694336 0.740479
vt 0.669922 0.751709
vt 0.623535 0.739258
vt 0.586426 0.754150
vt 0.536133 0.742432
vt -0.301514 0.635254
vt -0.263184 0.687988
vt -0.301758 0.687988
vt -0.233765 0.639160
vt -0.199219 0.687744
vt -0.152100 0.638184
vt -0.145874 0.687988
vt -0.095398 0.687988
vt -0.078064 0.637695
vt -0.040680 0.687744
vt -0.005970 0.635010
vt 0.005920 0.687988
vt 0.048126 0.635742
vt 0.052917 0.687744
vt 0.103455 0.687988
vt 0.122559 0.635254
vt 0.159424 0.687988
vt 0.203003 0.635010
vt 0.202393 0.687988
vt 0.378174 0.749023
vt 0.330078 0.786255
vt 0.329834 0.748291
vt 0.398682 0.786621
vt 0.457764 0.748291
vt 0.474121 0.786255
vt 0.538574 0.747803
vt 0.534668 0.786377
vt 0.586914 0.750488
vt 0.611816 0.786499
vt 0.669922 0.750977
vt 0.684570 0.786255
vt 0.763184 0.750977
vt 0.759766 0.785889
vt 0.834473 0.786255
vt 0.833496 0.748291
vt 0.205688 0.635742
vt 0.128540 0.596436
vt 0.202393 0.596680
vt 0.125366 0.626709
vt 0.052795 0.597412
vt 0.049042 0.631592
vt -0.018814 0.594482
vt -0.005760 0.639893
vt -0.056396 0.626221
vt -0.095032 0.595947
vt -0.112549 0.624023
vt -0.156982 0.597412
vt -0.170288 0.625732
vt -0.233032 0.591064
vt -0.235840 0.625488
vt -0.303955 0.631348
vt -0.301758 0.596680
vt -0.301758 0.687988
vt -0.229614 0.727051
vt -0.301758 0.726074
vt -0.263184 0.687744
vt -0.204468 0.688721
vt -0.120300 0.727783
vt -0.145874 0.687988
vt -0.091492 0.687744
vt -0.038330 0.688477
vt -0.025360 0.726074
vt 0.003675 0.687256
vt 0.053925 0.726074
vt 0.050934 0.687744
vt 0.100891 0.687500
vt 0.144531 0.726562
vt 0.159424 0.687988
vt 0.202393 0.687988
vt 0.202393 0.726074
vt1 0.865723 0.295898
vt1 0.730957 0.313965
vt1 0.638672 0.278320
vt1 0.107178 0.062500
vt1 0.003199 0.104980
vt1 0.008064 0.021973
vt1 0.262207 0.018555
vt1 0.251709 0.118164
vt1 0.418457 0.089355
vt1 0.420898 0.022949
vt1 0.581055 0.020996
vt1 0.577637 0.080078
vt1 0.698730 0.021973
vt1 0.715332 0.086426
vt1 0.862305 0.045898
vt1 0.991699 0.021973
vt1 0.990723 0.105469
vt1 0.005680 0.688721
vt1 0.138916 0.664795
vt1 0.140869 0.704346
vt1 0.261963 0.663574
vt1 0.299805 0.707031
vt1 0.376953 0.664795
vt1 0.444580 0.716309
vt1 0.489014 0.664062
vt1 0.584473 0.692383
vt1 0.008064 0.556641
vt1 0.010078 0.294922
vt1 0.101440 0.567627
vt1 0.182495 0.306641
vt1 0.260010 0.556885
vt1 0.412842 0.307129
vt1 0.424072 0.557373
vt1 0.582031 0.556641
vt1 0.638672 0.310059
vt1 0.699219 0.556396
vt1 0.730957 0.312988
vt1 0.862793 0.583740
vt1 0.865234 0.300781
vt1 0.991699 0.556641
vt1 0.998047 0.296387
vt1 0.994141 0.104004
vt1 0.853027 0.119141
vt1 0.860352 0.077637
vt1 0.718750 0.085449
vt1 0.670898 0.122070
vt1 0.580566 0.081543
vt1 0.508301 0.129883
vt1 0.409912 0.091797
vt1 0.008484 0.697754
vt1 0.083252 0.868408
vt1 0.008064 0.867920
vt1 0.140625 0.710449
vt1 0.208130 0.867432
vt1 0.300049 0.707275
vt1 0.312256 0.867920
vt1 0.410645 0.868286
vt1 0.444580 0.705322
vt1 0.517578 0.867554
vt1 0.584961 0.696777
vt1 0.608398 0.868164
vt1 0.690430 0.699463
vt1 0.700195 0.867798
vt1 0.798828 0.868042
vt1 0.835938 0.697266
vt1 0.908203 0.868164
vt1 0.993164 0.696777
vt1 0.991699 0.867920
vt1 0.101990 0.112793
vt1 0.008064 0.233887
vt1 0.007580 0.110840
vt1 0.142090 0.235352
vt1 0.256836 0.110352
vt1 0.289062 0.233887
vt1 0.415039 0.109375
vt1 0.407471 0.234375
vt1 0.509277 0.118164
vt1 0.557617 0.234863
vt1 0.671387 0.119629
vt1 0.699707 0.233887
vt1 0.852539 0.119629
vt1 0.846191 0.232422
vt1 0.991699 0.233887
vt1 0.990234 0.110840
vt1 0.998047 0.699219
vt1 0.847656 0.571777
vt1 0.991699 0.572266
vt1 0.841309 0.670166
vt1 0.699707 0.574951
vt1 0.692383 0.685547
vt1 0.560059 0.565674
vt1 0.585449 0.712646
vt1 0.486816 0.668457
vt1 0.411377 0.570068
vt1 0.377197 0.661133
vt1 0.290283 0.575195
vt1 0.264404 0.666748
vt1 0.142090 0.554199
vt1 0.136719 0.666016
vt1 0.003666 0.685059
vt1 0.008064 0.572266
vt1 0.008064 0.867920
vt1 0.148804 0.994690
vt1 0.008064 0.991936
vt1 0.083374 0.867432
vt1 0.197876 0.870483
vt1 0.362061 0.996822
vt1 0.312256 0.867920
vt1 0.418457 0.867432
vt1 0.521973 0.869629
vt1 0.547363 0.991371
vt1 0.604004 0.865967
vt1 0.702148 0.991913
vt1 0.696289 0.867065
vt1 0.793457 0.866577
vt1 0.878906 0.992760
vt1 0.907715 0.867920
vt1 0.991699 0.867920
vt1 0.991699 0.991936
vn 0.464567 -0.692913 0.551181
vn 0.716535 -0.700787 0.031496
vn 0.629921 -0.685039 -0.370079
vn 0.000000 -1.000000 0.000000
vn 0.000000 -1.000000 0.000000
vn 0.000000 -1.000000 0.000000
vn 0.000000 -1.000000 0.000000
vn 0.000000 -1.000000 0.000000
vn 0.000000 -1.000000 0.000000
vn 0.000000 -1.000000 0.000000
vn 0.000000 -1.000000 0.000000
vn 0.000000 -1.000000 0.000000
vn 0.000000 -1.000000 0.000000
vn 0.000000 -1.000000 0.000000
vn 0.000000 -1.000000 0.000000
vn 0.000000 -1.000000 0.000000
vn 0.000000 -1.000000 0.000000
vn -0.007874 -0.692913 0.716535
vn -0.503937 -0.708661 0.496063
vn -0.519685 -0.685039 0.503937
vn -0.716535 -0.692913 0.015748
vn -0.700787 -0.692913 -0.165354
vn -0.519685 -0.700787 -0.488189
vn -0.244094 -0.692913 -0.685039
vn -0.031496 -0.700787 -0.716535
vn 0.417323 -0.700787 -0.582677
vn 0.000000 0.000000 1.000000
vn -0.062992 0.000000 1.000000
vn -0.543307 0.000000 0.842520
vn -0.874016 0.000000 0.480315
vn -1.000000 0.000000 0.031496
vn -0.527559 -0.000000 -0.850394
vn -0.472441 -0.000000 -0.881890
vn 0.566929 -0.000000 -0.826772
vn 0.826772 -0.000000 -0.559055
vn 0.984252 -0.000000 -0.165354
vn 1.000000 0.000000 0.039370
vn 0.669291 0.000000 0.740157
vn 0.645669 0.000000 0.763779
vn 0.000000 0.000000 1.000000
vn -0.031496 0.000000 1.000000
vn -0.007874 -0.708661 0.700787
vn 0.511811 -0.685039 0.519685
vn 0.464567 -0.716535 0.519685
vn 0.716535 -0.700787 -0.023622
vn 0.669291 -0.700787 -0.244094
vn 0.401575 -0.700787 -0.590551
vn 0.078740 -0.700787 -0.708661
vn -0.377953 -0.685039 -0.622047
vn 0.000000 0.007874 1.000000
vn -0.448819 0.007874 0.897638
vn 0.000000 0.007874 1.000000
vn -0.724409 0.007874 0.692913
vn -0.937008 0.007874 0.354331
vn -0.976378 0.007874 -0.236220
vn -0.952756 0.007874 -0.307087
vn -0.551181 0.007874 -0.834646
vn -0.330709 0.007874 -0.944882
vn 0.157480 0.007874 -0.984252
vn 0.590551 0.007874 -0.803149
vn 0.708661 0.007874 -0.700787
vn 0.976378 0.007874 -0.212598
vn 0.984252 0.007874 -0.157480
vn 0.889764 0.007874 0.448819
vn 0.771654 0.007874 0.637795
vn 0.448819 0.007874 0.889764
vn 0.000000 0.007874 1.000000
vn 0.000000 0.007874 1.000000
vn -0.535433 -0.007874 0.842520
vn 0.000000 -0.007874 1.000000
vn 0.000000 -0.007874 1.000000
vn -0.724409 -0.007874 0.692913
vn -1.000000 -0.007874 0.078740
vn -0.984252 -0.007874 -0.157480
vn -0.551181 -0.007874 -0.834646
vn -0.566929 -0.007874 -0.826772
vn 0.110236 -0.007874 -0.992126
vn 0.433071 -0.007874 -0.905512
vn 0.937008 -0.007874 -0.338583
vn 0.984252 -0.007874 -0.157480
vn 0.708661 -0.007874 0.700787
vn 0.732283 -0.007874 0.685039
vn 0.000000 -0.007874 1.000000
vn 0.007874 -0.007874 1.000000
vn 0.000000 -1.000000 0.007874
vn 0.007874 -1.000000 0.007874
vn 0.000000 -1.000000 0.007874
vn 0.007874 -1.000000 0.007874
vn 0.007874 -1.000000 0.000000
vn 0.007874 -1.000000 0.000000
vn 0.000000 -1.000000 -0.007874
vn 0.000000 -1.000000 -0.007874
vn 0.000000 -1.000000 -0.007874
vn 0.000000 -1.000000 -0.007874
vn -0.007874 -1.000000 -0.007874
vn -0.007874 -1.000000 0.000000
vn -0.007874 -1.000000 0.000000
vn -0.007874 -1.000000 0.007874
vn -0.007874 -1.000000 0.007874
vn 0.000000 -1.000000 0.007874
vn 0.000000 -1.000000 0.007874
vn 0.000000 1.000000 -0.000000
vn 0.000000 1.000000 -0.000000
vn 0.000000 1.000000 -0.000000
vn 0.000000 1.000000 -0.000000
vn 0.000000 1.000000 -0.000000
vn 0.000000 1.000000 -0.000000
vn 0.000000 1.000000 -0.000000
vn 0.000000 1.000000 -0.000000
vn 0.000000 1.000000 -0.000000
vn 0.000000 1.000000 -0.000000
vn 0.000000 1.000000 -0.000000
vn 0.000000 1.000000 -0.000000
vn 0.000000 1.000000 -0.000000
vn 0.000000 1.000000 -0.000000
vn 0.000000 1.000000 -0.000000
vn 0.000000 1.000000 -0.000000
vn 0.000000 1.000000 -0.000000
vn 0.000000 1.000000 -0.000000
tan -0.305537 -0.699609 -0.621985 1.000000
tan -0.700787 -0.716287 0.005518 1.000000
tan -0.658069 -0.712939 0.199578 1.000000
tan 0.559055 -0.000000 -0.826772 1.000000
tan 0.141732 -0.000000 -0.992126 1.000000
tan 0.157480 -0.000000 -0.984252 1.000000
tan 1.000000 -0.000000 -0.023622 1.000000
tan 1.000000 -0.000000 -0.070866 1.000000
tan 0.511811 0.000000 0.858268 1.000000
tan 0.488189 0.000000 0.874016 1.000000
tan -0.559055 0.000000 0.826772 1.000000
tan -0.551181 0.000000 0.834646 1.000000
tan -0.984252 0.000000 0.165354 1.000000
tan -1.000000 0.000000 0.055118 1.000000
tan -0.645669 -0.000000 -0.763779 1.000000
tan -0.157480 -0.000000 -0.984252 1.000000
tan -0.157480 -0.000000 -0.984252 1.000000
tan -0.005270 -0.716411 -0.692851 1.000000
tan 0.496621 -0.704693 -0.502201 1.000000
tan 0.507037 -0.725897 -0.463885 1.000000
tan 0.692913 -0.716659 -0.005456 1.000000
tan 0.692913 -0.703391 0.010912 1.000000
tan 0.529729 -0.715729 0.463513 1.000000
tan 0.049104 -0.702337 0.692913 1.000000
tan 0.005518 -0.716783 0.700787 1.000000
tan -0.248311 -0.693843 0.656643 1.000000
tan 0.000000 -1.000000 0.000000 1.000000
tan 0.000000 -1.000000 0.000000 1.000000
tan 0.000000 -0.885300 0.000000 1.000000
tan 0.000000 -0.892926 0.000000 1.000000
tan 0.000000 -1.000000 0.000000 1.000000
tan 0.000000 -0.966458 0.000000 1.000000
tan 0.000000 -0.923306 0.000000 1.000000
tan 0.000000 -0.920888 0.000000 1.000000
tan 0.000000 -0.959390 0.000000 1.000000
tan 0.000000 -0.984252 0.000000 1.000000
tan 0.000000 -1.000000 0.000000 1.000000
tan 0.000000 -0.996590 0.000000 1.000000
tan 0.000000 -0.902412 0.000000 1.000000
tan 0.000000 -1.000000 0.000000 1.000000
tan 0.000000 -1.000000 0.000000 1.000000
tan -0.038874 -0.700539 -0.708847 1.000000
tan -0.459793 -0.727137 -0.505673 1.000000
tan -0.338521 -0.677785 -0.631905 1.000000
tan -0.700787 -0.717279 0.022072 1.000000
tan -0.695269 -0.690929 0.077252 1.000000
tan -0.259347 -0.697315 0.651125 1.000000
tan -0.011036 -0.709901 0.700787 1.000000
tan 0.194184 -0.704693 0.658069 1.000000
tan 0.000000 -1.000000 0.007874 1.000000
tan -0.000186 -0.908240 0.007874 1.000000
tan 0.000000 -1.000000 0.007874 1.000000
tan -0.006510 -0.991754 0.004464 1.000000
tan -0.007874 -0.942588 0.000124 1.000000
tan -0.007874 -0.974518 0.000062 1.000000
tan -0.007874 -0.962428 -0.000248 1.000000
tan -0.001612 -0.927770 -0.007688 1.000000
tan 0.000000 -0.944882 -0.007874 1.000000
tan 0.000000 -0.984252 -0.007874 1.000000
tan 0.001116 -0.880526 -0.007812 1.000000
tan 0.005952 -0.999194 -0.005208 1.000000
tan 0.007874 -0.976378 0.000000 1.000000
tan 0.007874 -0.984252 0.000000 1.000000
tan 0.007874 -0.903900 0.000248 1.000000
tan 0.007688 -0.883998 0.001612 1.000000
tan 0.000186 -0.900366 0.007874 1.000000
tan 0.000000 -1.000000 0.007874 1.000000
tan 0.000000 -1.000000 0.007874 1.000000
tan 0.000186 -0.855168 -0.007874 1.000000
tan 0.000000 -1.000000 -0.007874 1.000000
tan 0.000000 -1.000000 -0.007874 1.000000
tan 0.005704 -0.999442 -0.005394 1.000000
tan 0.007874 -1.000000 0.000000 1.000000
tan 0.007874 -0.984252 0.000000 1.000000
tan 0.001922 -0.942898 0.007626 1.000000
tan 0.001612 -0.923306 0.007688 1.000000
tan 0.000000 -0.992126 0.007874 1.000000
tan -0.000558 -0.936202 0.007874 1.000000
tan -0.007874 -0.939674 0.000062 1.000000
tan -0.007874 -0.984252 0.000000 1.000000
tan -0.006076 -0.993800 -0.005022 1.000000
tan -0.006324 -0.992684 -0.004650 1.000000
tan 0.000000 -1.000000 -0.007874 1.000000
tan 0.000000 -1.000000 -0.007874 1.000000
tan -0.125984 -0.007812 -0.992126 1.000000
tan -0.692913 -0.011098 -0.716535 1.000000
tan -0.157480 -0.007750 -0.984252 1.000000
tan -0.740157 -0.011098 -0.669291 1.000000
tan -0.984252 -0.007750 0.157480 1.000000
tan -0.976378 -0.007688 0.204724 1.000000
tan -0.448819 -0.007068 0.897638 1.000000
tan -0.590551 -0.006324 0.803149 1.000000
tan 0.055118 -0.007874 1.000000 1.000000
tan 0.543307 -0.006634 0.842520 1.000000
tan 0.724409 -0.011098 0.685039 1.000000
tan 0.984252 -0.007750 0.165354 1.000000
tan 1.000000 -0.007874 -0.007874 1.000000
tan 0.708661 -0.011160 -0.708661 1.000000
tan 0.700787 -0.011160 -0.716535 1.000000
tan 0.094488 -0.007812 -0.992126 1.000000
tan 0.157480 -0.007750 -0.984252 1.000000
tan -0.157480 0.000000 0.984252 1.000000
tan -0.740157 0.000000 0.677165 1.000000
tan -0.157480 0.000000 0.984252 1.000000
tan -0.433071 0.000000 0.905512 1.000000
tan -0.913386 0.000000 0.409449 1.000000
tan -0.795276 -0.000000 -0.606299 1.000000
tan -0.952756 -0.000000 -0.307087 1.000000
tan -0.503937 -0.000000 -0.858268 1.000000
tan 0.181102 -0.000000 -0.984252 1.000000
tan 0.362205 -0.000000 -0.937008 1.000000
tan 0.685039 -0.000000 -0.724409 1.000000
tan 0.992126 -0.000000 -0.141732 1.000000
tan 0.984252 -0.000000 -0.181102 1.000000
tan 0.905512 0.000000 0.425197 1.000000
tan 0.566929 0.000000 0.818897 1.000000
tan 0.433071 0.000000 0.897638 1.000000
tan 0.157480 0.000000 0.984252 1.000000
tan 0.157480 0.000000 0.984252 1.000000
f 3/3/3 2/2/2 1/1/1
f 6/6/6 5/5/5 4/4/4
f 8/8/8 7/7/7 4/4/4
f 8/8/8 9/9/9 7/7/7
f 10/10/10 7/7/7 9/9/9
f 10/10/10 9/9/9 11/11/11
f 12/12/12 11/11/11 9/9/9
f 11/11/11 12/12/12 13/13/13
f 14/14/14 13/13/13 12/12/12
f 14/14/14 15/15/15 13/13/13
f 17/17/17 16/16/16 15/15/15
f 20/20/20 19/19/19 18/18/18
f 19/19/19 20/20/20 21/21/21
f 20/20/20 22/22/22 21/21/21
f 23/23/23 21/21/21 22/22/22
f 22/22/22 24/24/24 23/23/23
f 24/24/24 25/25/25 23/23/23
f 26/26/26 25/25/25 24/24/24
f 29/29/29 28/28/28 27/27/27
f 28/28/28 29/29/29 30/30/30
f 29/29/29 31/31/31 30/30/30
f 30/30/30 31/31/31 32/32/32
f 31/31/31 33/33/33 32/32/32
f 33/33/33 34/34/34 32/32/32
f 35/35/35 32/32/32 34/34/34
f 34/34/34 36/36/36 35/35/35
f 37/37/37 35/35/35 36/36/36
f 38/38/38 37/37/37 36/36/36
f 39/39/39 37/37/37 38/38/38
f 38/38/38 40/40/40 39/39/39
f 41/41/41 39/39/39 40/40/40
f 44/44/44 43/43/43 42/42/42
f 45/45/45 43/43/43 44/44/44
f 46/46/46 43/43/43 45/45/45
f 45/45/45 47/47/47 46/46/46
f 47/47/47 48/48/48 46/46/46
f 49/49/49 48/48/48 47/47/47
f 52/52/52 51/51/51 50/50/50
f 53/53/53 50/50/50 51/51/51
f 51/51/51 54/54/54 53/53/53
f 53/53/53 54/54/54 55/55/55
f 54/54/54 56/56/56 55/55/55
f 56/56/56 57/57/57 55/55/55
f 58/58/58 55/55/55 57/57/57
f 58/58/58 57/57/57 59/59/59
f 60/60/60 58/58/58 59/59/59
f 59/59/59 61/61/61 60/60/60
f 62/62/62 60/60/60 61/61/61
f 63/63/63 62/62/62 61/61/61
f 63/63/63 64/64/64 62/62/62
f 65/65/65 62/62/62 64/64/64
f 64/64/64 66/66/66 65/65/65
f 65/65/65 66/66/66 67/67/67
f 68/68/68 67/67/67 66/66/66
f 71/71/71 70/70/70 69/69/69
f 72/72/72 69/69/69 70/70/70
f 69/69/69 72/72/72 73/73/73
f 72/72/72 74/74/74 73/73/73
f 73/73/73 74/74/74 75/75/75
f 76/76/76 75/75/75 74/74/74
f 77/77/77 75/75/75 76/76/76
f 78/78/78 77/77/77 76/76/76
f 77/77/77 78/78/78 79/79/79
f 80/80/80 79/79/79 78/78/78
f 79/79/79 80/80/80 81/81/81
f 82/82/82 81/81/81 80/80/80
f 82/82/82 83/83/83 81/81/81
f 81/81/81 83/83/83 84/84/84
f 87/87/87 86/86/86 85/85/85
f 88/88/88 85/85/85 86/86/86
f 88/88/88 86/86/86 89/89/89
f 89/89/89 90/90/90 88/88/88
f 90/90/90 89/89/89 91/91/91
f 92/92/92 90/90/90 91/91/91
f 93/93/93 92/92/92 91/91/91
f 91/91/91 94/94/94 93/93/93
f 93/93/93 94/94/94 95/95/95
f 94/94/94 96/96/96 95/95/95
f 97/97/97 95/95/95 96/96/96
f 96/96/96 98/98/98 97/97/97
f 98/98/98 99/99/99 97/97/97
f 99/99/99 98/98/98 100/100/100
f 101/101/101 100/100/100 98/98/98
f 104/104/104 103/103/103 102/102/102
f 105/105/105 102/102/102 103/103/103
f 105/105/105 103/103/103 106/106/106
f 103/103/103 107/107/107 106/106/106
f 108/108/108 106/106/106 107/107/107
f 109/109/109 108/108/108 107/107/107
f 109/109/109 107/107/107 110/110/110
f 111/111/111 110/110/110 107/107/107
f 110/110/110 111/111/111 112/112/112
f 111/111/111 113/113/113 112/112/112
f 114/114/114 112/112/112 113/113/113
f 113/113/113 115/115/115 114/114/114
f 116/116/116 115/115/115 113/113/113
f 117/117/117 115/115/115 116/116/116
f 118/118/118 117/117/117 116/116/116
f 116/116/116 119/119/119 118/118/118
