mtllib SM_Sail_LOD2@000002909DC07900.mtl
g SM_Sail_LOD2@000002909DC07900
#Vertices 286
#Indices 1536
#Section 0 Offset 0 NumIndices 1536 MaterialIndex 0 MM_WindySail
v 151.928116 67.351303 19.629267 0.000000 0.000000 1.000000 1.000000
v 160.886795 86.316933 10.315219 0.000000 0.000000 1.000000 1.000000
v 145.131607 72.845955 13.129951 0.000000 0.000000 1.000000 1.000000
v 135.801804 83.822960 2.740610 0.000000 0.000000 1.000000 1.000000
v 146.618195 55.890057 24.030867 0.000000 0.000000 1.000000 1.000000
v 119.376961 77.219482 0.110791 0.000000 0.000000 1.000000 1.000000
v 115.306305 81.240898 -3.264143 0.000000 0.000000 1.000000 1.000000
v 89.895401 76.691811 -10.398683 0.000000 0.000000 1.000000 1.000000
v 127.418396 68.821136 7.889903 0.000000 0.000000 1.000000 1.000000
v 98.663116 72.387077 -5.951543 0.000000 0.000000 1.000000 1.000000
v 82.801788 69.941414 -11.079955 0.000000 0.000000 1.000000 1.000000
v 70.092232 72.603355 -15.224313 0.000000 0.000000 1.000000 1.000000
v 96.377579 66.102509 -4.691997 0.000000 0.000000 1.000000 1.000000
v 115.736298 61.519909 6.261113 0.000000 0.000000 1.000000 1.000000
v 142.618820 46.659992 26.881712 0.000000 0.000000 1.000000 1.000000
v 69.301208 66.960472 -14.818444 0.000000 0.000000 1.000000 1.000000
v 56.237350 69.820442 -18.030064 0.000000 0.000000 1.000000 1.000000
v 129.649384 45.125664 21.080780 0.000000 0.000000 1.000000 1.000000
v 139.087814 36.772720 29.087339 0.000000 0.000000 1.000000 1.000000
v 97.813995 57.453156 -1.126433 0.000000 0.000000 1.000000 1.000000
v 82.081551 60.341728 -9.287083 0.000000 0.000000 1.000000 1.000000
v 95.583267 52.268658 -0.566171 0.000000 0.000000 1.000000 1.000000
v 122.390190 32.844799 21.881651 0.000000 0.000000 1.000000 1.000000
v 136.646439 27.698015 30.476219 0.000000 0.000000 1.000000 1.000000
v 113.349548 40.644848 14.068830 0.000000 0.000000 1.000000 1.000000
v 119.043259 8.425479 26.566839 0.000000 0.000000 1.000000 1.000000
v 134.707855 13.172502 33.084492 0.000000 0.000000 1.000000 1.000000
v 135.265686 2.252239 37.236385 0.000000 0.000000 1.000000 1.000000
v 110.063141 29.766705 15.735806 0.000000 0.000000 1.000000 1.000000
v 121.269020 -8.602235 34.126274 0.000000 0.000000 1.000000 1.000000
v 138.247375 -11.166193 43.855152 0.000000 0.000000 1.000000 1.000000
v 108.252670 6.609711 20.814224 0.000000 0.000000 1.000000 1.000000
v 91.165070 42.642567 -0.170272 0.000000 0.000000 1.000000 1.000000
v 99.381767 21.737349 11.061449 0.000000 0.000000 1.000000 1.000000
v 110.143097 -15.544011 30.077383 0.000000 0.000000 1.000000 1.000000
v 80.696892 49.697117 -7.692853 0.000000 0.000000 1.000000 1.000000
v 118.817833 -18.924839 36.209122 0.000000 0.000000 1.000000 1.000000
v 128.267441 -23.644526 42.185234 0.000000 0.000000 1.000000 1.000000
v 141.770264 -20.699102 48.015839 0.000000 0.000000 1.000000 1.000000
v 94.559410 -31.924068 25.375566 0.000000 0.000000 1.000000 1.000000
v 115.232994 -47.315571 40.312828 0.000000 0.000000 1.000000 1.000000
v 145.281830 -28.971806 50.874378 0.000000 0.000000 1.000000 1.000000
v 94.193581 -42.112846 28.517775 0.000000 0.000000 1.000000 1.000000
v 97.840065 -48.717785 32.324810 0.000000 0.000000 1.000000 1.000000
v 137.672531 -43.567371 49.172821 0.000000 0.000000 1.000000 1.000000
v 151.576233 -43.085716 54.577530 0.000000 0.000000 1.000000 1.000000
v 145.392929 -51.798840 52.612629 0.000000 0.000000 1.000000 1.000000
v 160.845734 -64.746368 58.016262 0.000000 0.000000 1.000000 1.000000
v 113.656288 -56.575142 41.277332 0.000000 0.000000 1.000000 1.000000
v 140.713470 -61.552700 51.522812 0.000000 0.000000 1.000000 1.000000
v 127.945580 -67.756287 47.961315 0.000000 0.000000 1.000000 1.000000
v 119.009392 -62.137878 44.171707 0.000000 0.000000 1.000000 1.000000
v 101.188522 -69.224274 39.448532 0.000000 0.000000 1.000000 1.000000
v 96.195808 -64.314789 36.228729 0.000000 0.000000 1.000000 1.000000
v 77.391762 -69.611977 31.749756 0.000000 0.000000 1.000000 1.000000
v 94.637558 -56.485027 33.224236 0.000000 0.000000 1.000000 1.000000
v 82.800133 -64.483932 31.309574 0.000000 0.000000 1.000000 1.000000
v 69.299858 -64.619087 26.661732 0.000000 0.000000 1.000000 1.000000
v 56.883041 -69.393181 25.980291 0.000000 0.000000 1.000000 1.000000
v 81.775002 -57.142086 27.836945 0.000000 0.000000 1.000000 1.000000
v 68.626045 -57.605518 22.591213 0.000000 0.000000 1.000000 1.000000
v 81.255371 -51.680950 25.262249 0.000000 0.000000 1.000000 1.000000
v 54.769955 -56.131966 16.497402 0.000000 0.000000 1.000000 1.000000
v 43.015385 -69.019341 22.853407 0.000000 0.000000 1.000000 1.000000
v 67.112587 -49.788635 17.629602 0.000000 0.000000 1.000000 1.000000
v 80.694672 -45.892620 22.454533 0.000000 0.000000 1.000000 1.000000
v 78.925606 -39.450165 18.510546 0.000000 0.000000 1.000000 1.000000
v 59.977192 -39.886978 7.878364 0.000000 0.000000 1.000000 1.000000
v 54.459000 -44.485634 8.172517 0.000000 0.000000 1.000000 1.000000
v 41.608685 -57.913410 13.746277 0.000000 0.000000 1.000000 1.000000
v 29.811857 -68.547585 20.619020 0.000000 0.000000 1.000000 1.000000
v 41.168461 -50.572453 7.580341 0.000000 0.000000 1.000000 1.000000
v 27.914625 -55.292732 8.387038 0.000000 0.000000 1.000000 1.000000
v 14.190003 -60.525578 11.429110 0.000000 0.000000 1.000000 1.000000
v 14.180797 -68.158058 18.899656 0.000000 0.000000 1.000000 1.000000
v 0.058370 -68.014999 18.319601 0.000000 0.000000 1.000000 1.000000
v 14.114521 -45.520908 -3.454854 0.000000 0.000000 1.000000 1.000000
v 28.701168 -46.128052 0.100246 0.000000 0.000000 1.000000 1.000000
v 41.412292 -42.937336 1.466753 0.000000 0.000000 1.000000 1.000000
v 41.444462 -34.492672 -5.254244 0.000000 0.000000 1.000000 1.000000
v 27.709129 -35.468708 -9.748888 0.000000 0.000000 1.000000 1.000000
v 13.766799 -35.809658 -12.895446 0.000000 0.000000 1.000000 1.000000
v 0.000003 -40.259872 -9.833274 0.000000 0.000000 1.000000 1.000000
v 13.935555 -27.132866 -20.062929 0.000000 0.000000 1.000000 1.000000
v 0.000005 -31.921299 -17.600441 0.000000 0.000000 1.000000 1.000000
v -14.076915 -45.611393 -3.372232 0.000000 0.000000 1.000000 1.000000
v -13.766796 -35.809654 -12.895445 0.000000 0.000000 1.000000 1.000000
v -14.213394 -60.596046 11.498014 0.000000 0.000000 1.000000 1.000000
v -14.180786 -68.158066 18.899660 0.000000 0.000000 1.000000 1.000000
v -29.806938 -68.547615 20.618143 0.000000 0.000000 1.000000 1.000000
v -27.912140 -55.298855 8.392088 0.000000 0.000000 1.000000 1.000000
v -28.694000 -46.115528 0.087121 0.000000 0.000000 1.000000 1.000000
v -41.608681 -57.913410 13.746278 0.000000 0.000000 1.000000 1.000000
v -43.015507 -69.019348 22.853445 0.000000 0.000000 1.000000 1.000000
v -41.167564 -50.573360 7.580756 0.000000 0.000000 1.000000 1.000000
v -54.769932 -56.132000 16.497416 0.000000 0.000000 1.000000 1.000000
v -56.883038 -69.393196 25.980297 0.000000 0.000000 1.000000 1.000000
v -41.412285 -42.937336 1.466753 0.000000 0.000000 1.000000 1.000000
v -54.459019 -44.486027 8.172808 0.000000 0.000000 1.000000 1.000000
v -27.709127 -35.468719 -9.748878 0.000000 0.000000 1.000000 1.000000
v -41.444458 -34.492676 -5.254239 0.000000 0.000000 1.000000 1.000000
v -13.935543 -27.132874 -20.062925 0.000000 0.000000 1.000000 1.000000
v -27.431620 -26.529358 -16.838923 0.000000 0.000000 1.000000 1.000000
v 0.000005 -23.046928 -24.222616 0.000000 0.000000 1.000000 1.000000
v -14.095056 -17.527449 -25.965334 0.000000 0.000000 1.000000 1.000000
v -41.056526 -24.967627 -12.177276 0.000000 0.000000 1.000000 1.000000
v 0.000005 -15.330065 -28.334793 0.000000 0.000000 1.000000 1.000000
v -27.733410 -16.622492 -22.616943 0.000000 0.000000 1.000000 1.000000
v 14.095064 -17.527466 -25.965322 0.000000 0.000000 1.000000 1.000000
v 0.000005 -10.228664 -30.271940 0.000000 0.000000 1.000000 1.000000
v -13.941733 -9.807079 -29.038687 0.000000 0.000000 1.000000 1.000000
v 27.431620 -26.529392 -16.838903 0.000000 0.000000 1.000000 1.000000
v 13.941742 -9.807079 -29.038687 0.000000 0.000000 1.000000 1.000000
v 27.733418 -16.622522 -22.616932 0.000000 0.000000 1.000000 1.000000
v 41.056526 -24.967596 -12.177298 0.000000 0.000000 1.000000 1.000000
v 0.000005 -4.968837 -31.602915 0.000000 0.000000 1.000000 1.000000
v 27.708942 -8.681259 -25.717859 0.000000 0.000000 1.000000 1.000000
v 13.941742 -4.511165 -30.389175 0.000000 0.000000 1.000000 1.000000
v -13.941733 -4.511165 -30.389175 0.000000 0.000000 1.000000 1.000000
v 40.864590 -15.079734 -17.723732 0.000000 0.000000 1.000000 1.000000
v 0.000004 2.475514 -32.573303 0.000000 0.000000 1.000000 1.000000
v 27.996033 -0.498540 -27.618181 0.000000 0.000000 1.000000 1.000000
v 13.326843 3.829400 -31.545794 0.000000 0.000000 1.000000 1.000000
v 41.127064 -6.990145 -20.688381 0.000000 0.000000 1.000000 1.000000
v 27.723795 7.912025 -28.411766 0.000000 0.000000 1.000000 1.000000
v 41.497330 1.379863 -22.632008 0.000000 0.000000 1.000000 1.000000
v 53.711098 -7.194385 -13.816278 0.000000 0.000000 1.000000 1.000000
v 53.890816 -18.123259 -8.953635 0.000000 0.000000 1.000000 1.000000
v 54.385605 -30.828218 -1.257543 0.000000 0.000000 1.000000 1.000000
v 73.113152 -30.528324 10.405732 0.000000 0.000000 1.000000 1.000000
v 65.466423 -12.937478 -3.647428 0.000000 0.000000 1.000000 1.000000
v 88.343994 -23.626436 18.102983 0.000000 0.000000 1.000000 1.000000
v 99.946098 -17.811079 24.276636 0.000000 0.000000 1.000000 1.000000
v 76.217270 -3.383361 0.612303 0.000000 0.000000 1.000000 1.000000
v 98.609940 4.254601 15.200291 0.000000 0.000000 1.000000 1.000000
v 87.820465 -0.575037 8.673058 0.000000 0.000000 1.000000 1.000000
v 81.321808 10.817340 0.496979 0.000000 0.000000 1.000000 1.000000
v 66.217926 -2.467792 -7.019155 0.000000 0.000000 1.000000 1.000000
v 66.585403 6.454540 -9.166092 0.000000 0.000000 1.000000 1.000000
v 54.322483 3.833038 -16.416445 0.000000 0.000000 1.000000 1.000000
v 67.073044 20.882332 -11.354080 0.000000 0.000000 1.000000 1.000000
v 41.331028 11.893564 -23.808405 0.000000 0.000000 1.000000 1.000000
v 53.903034 16.205082 -18.320244 0.000000 0.000000 1.000000 1.000000
v 27.793806 15.744021 -28.299318 0.000000 0.000000 1.000000 1.000000
v 41.375267 23.520481 -23.659920 0.000000 0.000000 1.000000 1.000000
v 54.569004 30.797897 -18.366030 0.000000 0.000000 1.000000 1.000000
v 78.396217 24.547161 -4.459010 0.000000 0.000000 1.000000 1.000000
v 67.222313 35.539619 -12.638000 0.000000 0.000000 1.000000 1.000000
v 89.554321 30.498999 1.937408 0.000000 0.000000 1.000000 1.000000
v 79.409775 38.978561 -6.413127 0.000000 0.000000 1.000000 1.000000
v 67.985161 46.522537 -13.173437 0.000000 0.000000 1.000000 1.000000
v 54.729603 41.842827 -18.196663 0.000000 0.000000 1.000000 1.000000
v 68.917122 57.516895 -13.930374 0.000000 0.000000 1.000000 1.000000
v 55.480618 54.402534 -18.031933 0.000000 0.000000 1.000000 1.000000
v 55.625534 64.026726 -18.084219 0.000000 0.000000 1.000000 1.000000
v 42.698570 67.299118 -20.199987 0.000000 0.000000 1.000000 1.000000
v 41.844555 51.554520 -21.390045 0.000000 0.000000 1.000000 1.000000
v 28.741167 65.176811 -21.745424 0.000000 0.000000 1.000000 1.000000
v 41.539742 35.898270 -22.730236 0.000000 0.000000 1.000000 1.000000
v 27.989296 49.091156 -23.940294 0.000000 0.000000 1.000000 1.000000
v 15.232941 63.730370 -22.614508 0.000000 0.000000 1.000000 1.000000
v 27.923403 27.491858 -27.021355 0.000000 0.000000 1.000000 1.000000
v 27.797302 38.366501 -25.472420 0.000000 0.000000 1.000000 1.000000
v 14.189365 46.292545 -25.727404 0.000000 0.000000 1.000000 1.000000
v 14.058875 32.710720 -28.258833 0.000000 0.000000 1.000000 1.000000
v 13.993825 20.206656 -30.464876 0.000000 0.000000 1.000000 1.000000
v 0.000015 49.237206 -25.640169 0.000000 0.000000 1.000000 1.000000
v 0.000007 63.100750 -22.970505 0.000000 0.000000 1.000000 1.000000
v -15.232955 63.730370 -22.614508 0.000000 0.000000 1.000000 1.000000
v 0.000004 20.234591 -31.390635 0.000000 0.000000 1.000000 1.000000
v 13.941740 12.295594 -31.316305 0.000000 0.000000 1.000000 1.000000
v 0.000004 11.755258 -32.388412 0.000000 0.000000 1.000000 1.000000
v -13.326835 3.829394 -31.545794 0.000000 0.000000 1.000000 1.000000
v -13.941734 12.295594 -31.316305 0.000000 0.000000 1.000000 1.000000
v -13.993827 20.206705 -30.464865 0.000000 0.000000 1.000000 1.000000
v -27.996033 -0.498518 -27.618183 0.000000 0.000000 1.000000 1.000000
v -14.058868 32.710724 -28.258833 0.000000 0.000000 1.000000 1.000000
v -27.723791 7.912025 -28.411766 0.000000 0.000000 1.000000 1.000000
v -27.793793 15.743997 -28.299322 0.000000 0.000000 1.000000 1.000000
v -27.923403 27.491892 -27.021349 0.000000 0.000000 1.000000 1.000000
v -14.189372 46.292595 -25.727392 0.000000 0.000000 1.000000 1.000000
v -27.797295 38.366501 -25.472416 0.000000 0.000000 1.000000 1.000000
v -27.989288 49.091133 -23.940294 0.000000 0.000000 1.000000 1.000000
v -28.741184 65.176819 -21.745422 0.000000 0.000000 1.000000 1.000000
v -41.539742 35.898281 -22.730230 0.000000 0.000000 1.000000 1.000000
v -41.844566 51.554554 -21.390038 0.000000 0.000000 1.000000 1.000000
v -42.698593 67.299133 -20.199980 0.000000 0.000000 1.000000 1.000000
v -41.375267 23.520517 -23.659912 0.000000 0.000000 1.000000 1.000000
v -54.729565 41.842781 -18.196672 0.000000 0.000000 1.000000 1.000000
v -41.331036 11.893610 -23.808403 0.000000 0.000000 1.000000 1.000000
v -54.569004 30.797897 -18.366030 0.000000 0.000000 1.000000 1.000000
v -53.903011 16.205061 -18.320251 0.000000 0.000000 1.000000 1.000000
v -41.497318 1.379881 -22.632011 0.000000 0.000000 1.000000 1.000000
v -54.322495 3.833137 -16.416454 0.000000 0.000000 1.000000 1.000000
v -67.073410 20.885447 -11.354180 0.000000 0.000000 1.000000 1.000000
v -66.585274 6.454618 -9.166189 0.000000 0.000000 1.000000 1.000000
v -67.222359 35.539780 -12.637989 0.000000 0.000000 1.000000 1.000000
v -81.277390 10.798419 0.469707 0.000000 0.000000 1.000000 1.000000
v -78.395058 24.551651 -4.460135 0.000000 0.000000 1.000000 1.000000
v -67.985161 46.522537 -13.173437 0.000000 0.000000 1.000000 1.000000
v -79.407692 38.976044 -6.413614 0.000000 0.000000 1.000000 1.000000
v -55.480579 54.402515 -18.031939 0.000000 0.000000 1.000000 1.000000
v -55.625504 64.026726 -18.084221 0.000000 0.000000 1.000000 1.000000
v -56.237331 69.820450 -18.030064 0.000000 0.000000 1.000000 1.000000
v -68.917114 57.517185 -13.930404 0.000000 0.000000 1.000000 1.000000
v -69.301262 66.960693 -14.818452 0.000000 0.000000 1.000000 1.000000
v -70.092316 72.603386 -15.224295 0.000000 0.000000 1.000000 1.000000
v -80.694138 49.696774 -7.693931 0.000000 0.000000 1.000000 1.000000
v -82.007759 60.181931 -9.288203 0.000000 0.000000 1.000000 1.000000
v -82.798546 69.941467 -11.081063 0.000000 0.000000 1.000000 1.000000
v -89.886139 76.690613 -10.401336 0.000000 0.000000 1.000000 1.000000
v -95.545250 52.242321 -0.579581 0.000000 0.000000 1.000000 1.000000
v -96.310791 73.060570 -7.059458 0.000000 0.000000 1.000000 1.000000
v -94.636093 64.854446 -5.049725 0.000000 0.000000 1.000000 1.000000
v -98.180779 57.623817 -1.005865 0.000000 0.000000 1.000000 1.000000
v -114.438828 77.743973 -1.945118 0.000000 0.000000 1.000000 1.000000
v -115.271149 81.238075 -3.274730 0.000000 0.000000 1.000000 1.000000
v -135.695602 83.812874 2.708366 0.000000 0.000000 1.000000 1.000000
v -109.662605 68.726929 0.203044 0.000000 0.000000 1.000000 1.000000
v -127.397324 75.145950 4.482246 0.000000 0.000000 1.000000 1.000000
v -145.011261 74.037270 12.343489 0.000000 0.000000 1.000000 1.000000
v -160.852692 86.313957 10.305924 0.000000 0.000000 1.000000 1.000000
v -151.957413 67.470398 19.566217 0.000000 0.000000 1.000000 1.000000
v -146.260574 55.164127 24.286436 0.000000 0.000000 1.000000 1.000000
v -130.737885 67.464035 10.138878 0.000000 0.000000 1.000000 1.000000
v -114.463936 61.651371 5.581627 0.000000 0.000000 1.000000 1.000000
v -142.043701 45.291492 27.245747 0.000000 0.000000 1.000000 1.000000
v -128.102905 43.467640 20.945147 0.000000 0.000000 1.000000 1.000000
v -139.063293 36.766117 29.077108 0.000000 0.000000 1.000000 1.000000
v -112.455147 40.967999 13.429975 0.000000 0.000000 1.000000 1.000000
v -122.220085 32.672344 21.842690 0.000000 0.000000 1.000000 1.000000
v -136.624023 27.696283 30.465483 0.000000 0.000000 1.000000 1.000000
v -91.165192 42.660301 -0.174003 0.000000 0.000000 1.000000 1.000000
v -110.016472 29.760542 15.713964 0.000000 0.000000 1.000000 1.000000
v -118.981133 8.425807 26.536224 0.000000 0.000000 1.000000 1.000000
v -134.685822 13.167006 33.075218 0.000000 0.000000 1.000000 1.000000
v -135.243149 2.249108 37.226570 0.000000 0.000000 1.000000 1.000000
v -89.551003 30.496706 1.937338 0.000000 0.000000 1.000000 1.000000
v -99.358345 21.754622 11.044953 0.000000 0.000000 1.000000 1.000000
v -108.209831 6.604293 20.794588 0.000000 0.000000 1.000000 1.000000
v -98.588486 4.252955 15.190081 0.000000 0.000000 1.000000 1.000000
v -121.173592 -8.644923 34.091633 0.000000 0.000000 1.000000 1.000000
v -138.222748 -11.164846 43.842152 0.000000 0.000000 1.000000 1.000000
v -110.096619 -15.551196 30.056005 0.000000 0.000000 1.000000 1.000000
v -118.765976 -18.923180 36.183952 0.000000 0.000000 1.000000 1.000000
v -128.155350 -23.666534 42.136776 0.000000 0.000000 1.000000 1.000000
v -141.733200 -20.671671 47.992981 0.000000 0.000000 1.000000 1.000000
v -94.537361 -31.930161 25.365551 0.000000 0.000000 1.000000 1.000000
v -113.969170 -47.682072 39.800274 0.000000 0.000000 1.000000 1.000000
v -145.187836 -28.813036 50.804596 0.000000 0.000000 1.000000 1.000000
v -94.178131 -42.112103 28.510456 0.000000 0.000000 1.000000 1.000000
v -97.827911 -48.738434 32.324413 0.000000 0.000000 1.000000 1.000000
v -137.545792 -43.898743 49.165184 0.000000 0.000000 1.000000 1.000000
v -151.543137 -43.077007 54.563187 0.000000 0.000000 1.000000 1.000000
v -94.625694 -56.486332 33.220116 0.000000 0.000000 1.000000 1.000000
v -142.842194 -58.800102 52.034115 0.000000 0.000000 1.000000 1.000000
v -160.816406 -64.749634 57.999512 0.000000 0.000000 1.000000 1.000000
v -127.797760 -67.769814 47.916023 0.000000 0.000000 1.000000 1.000000
v -110.782036 -55.943478 40.012749 0.000000 0.000000 1.000000 1.000000
v -128.907928 -57.891109 47.181629 0.000000 0.000000 1.000000 1.000000
v -112.940460 -64.702309 42.502914 0.000000 0.000000 1.000000 1.000000
v -101.132050 -69.227158 39.430199 0.000000 0.000000 1.000000 1.000000
v -96.180214 -64.314362 36.223068 0.000000 0.000000 1.000000 1.000000
v -77.388718 -69.611969 31.748856 0.000000 0.000000 1.000000 1.000000
v -82.796799 -64.484612 31.308662 0.000000 0.000000 1.000000 1.000000
v -81.772026 -57.142414 27.835918 0.000000 0.000000 1.000000 1.000000
v -69.299896 -64.619293 26.661856 0.000000 0.000000 1.000000 1.000000
v -81.252510 -51.681286 25.261198 0.000000 0.000000 1.000000 1.000000
v -68.626045 -57.605530 22.591217 0.000000 0.000000 1.000000 1.000000
v -67.112701 -49.788254 17.629431 0.000000 0.000000 1.000000 1.000000
v -80.691917 -45.892963 22.453455 0.000000 0.000000 1.000000 1.000000
v -59.976082 -39.886139 7.877218 0.000000 0.000000 1.000000 1.000000
v -78.923073 -39.450569 18.509443 0.000000 0.000000 1.000000 1.000000
v -54.384872 -30.827383 -1.258478 0.000000 0.000000 1.000000 1.000000
v -73.107460 -30.526371 10.401013 0.000000 0.000000 1.000000 1.000000
v -53.890869 -18.123169 -8.953648 0.000000 0.000000 1.000000 1.000000
v -40.864601 -15.079709 -17.723734 0.000000 0.000000 1.000000 1.000000
v -65.466843 -12.937825 -3.646991 0.000000 0.000000 1.000000 1.000000
v -27.708933 -8.681258 -25.717859 0.000000 0.000000 1.000000 1.000000
v -41.127056 -6.990145 -20.688381 0.000000 0.000000 1.000000 1.000000
v -53.711170 -7.194262 -13.816273 0.000000 0.000000 1.000000 1.000000
v -66.217918 -2.467792 -7.019156 0.000000 0.000000 1.000000 1.000000
v -76.217728 -3.385218 0.613665 0.000000 0.000000 1.000000 1.000000
v -88.333786 -23.632490 18.099571 0.000000 0.000000 1.000000 1.000000
v -87.801414 -0.576896 8.661225 0.000000 0.000000 1.000000 1.000000
v -99.922745 -17.814619 24.265762 0.000000 0.000000 1.000000 1.000000
vt -19.828125 -7.585938
vt -20.265625 -10.414062
vt -18.703125 -8.359375
vt -17.109375 -9.921875
vt -19.437500 -5.867188
vt -15.140625 -9.000000
vt -14.531250 -9.570312
vt -11.289062 -9.140625
vt -16.421875 -7.789062
vt -12.492188 -8.492188
vt -10.406250 -8.359375
vt -8.734375 -8.843750
vt -12.265625 -7.679688
vt -15.007812 -6.835938
vt -19.093750 -4.531250
vt -8.632812 -8.148438
vt -6.937500 -8.664062
vt -17.296875 -4.390625
vt -18.750000 -3.128906
vt -12.570312 -6.527344
vt -10.359375 -7.140625
vt -12.312500 -5.871094
vt -16.421875 -2.761719
vt -18.437500 -1.861328
vt -15.039062 -3.980469
vt -15.968750 0.518555
vt -18.156250 0.168945
vt -18.234375 1.798340
vt -14.656250 -2.566406
vt -16.265625 2.983398
vt -18.625000 3.853516
vt -14.406250 0.511475
vt -11.765625 -4.687500
vt -13.093750 -1.730469
vt -14.656250 3.634766
vt -10.218750 -5.796875
vt -15.867188 4.341797
vt -17.109375 5.246094
vt -19.000000 5.289062
vt -12.250000 5.386719
vt -14.890625 7.945312
vt -19.296875 6.507812
vt -12.101562 6.730469
vt -12.515625 7.691406
vt -17.921875 8.113281
vt -19.765625 8.550781
vt -18.687500 9.390625
vt -20.203125 11.492188
vt -14.500000 9.078125
vt -17.812500 10.453125
vt -16.062500 10.843750
vt -15.062500 9.914062
vt -12.664062 10.429688
vt -12.093750 9.695312
vt -9.609375 10.101562
vt -11.992188 8.644531
vt -10.343750 9.484375
vt -8.578125 9.312500
vt -6.953125 9.890625
vt -10.265625 8.468750
vt -8.492188 8.304688
vt -10.226562 7.714844
vt -6.640625 7.894531
vt -5.140625 9.781250
vt -8.296875 7.167969
vt -10.179688 6.910156
vt -9.953125 5.976562
vt -7.281250 5.570312
vt -6.542969 6.136719
vt -4.898438 8.031250
vt -3.404297 9.710938
vt -4.796875 6.863281
vt -3.080078 7.515625
vt -1.305664 8.343750
vt -1.332031 9.664062
vt 0.549805 9.617188
vt -1.241211 5.789062
vt -3.125000 6.011719
vt -4.773438 5.671875
vt -4.710938 4.363281
vt -2.917969 4.283203
vt -1.157227 4.181641
vt 0.554199 4.855469
vt -1.143555 2.853516
vt 0.553223 3.511719
vt 2.347656 5.800781
vt 2.265625 4.179688
vt 2.421875 8.355469
vt 2.449219 9.664062
vt 4.519531 9.703125
vt 4.191406 7.515625
vt 4.234375 6.003906
vt 6.011719 8.027344
vt 6.257812 9.781250
vt 5.906250 6.859375
vt 7.753906 7.890625
vt 8.070312 9.882812
vt 5.882812 5.664062
vt 7.652344 6.128906
vt 4.023438 4.279297
vt 5.816406 4.357422
vt 2.250000 2.851562
vt 3.927734 2.923828
vt 0.552246 2.213867
vt 2.242188 1.525879
vt 5.691406 2.942383
vt 0.551758 1.191895
vt 3.919922 1.557129
vt -1.139648 1.527344
vt 0.551270 0.554688
vt 2.218750 0.550537
vt -2.822266 2.926758
vt -1.115234 0.552246
vt -2.816406 1.560547
vt -4.585938 2.948242
vt 0.550781 -0.079102
vt -2.802734 0.546143
vt -1.119141 -0.089844
vt 2.220703 -0.091797
vt -4.507812 1.581055
vt 0.550293 -0.956055
vt -2.851562 -0.455078
vt -1.059570 -1.080078
vt -4.531250 0.537842
vt -2.849609 -1.460938
vt -4.593750 -0.500977
vt -6.234375 0.821533
vt -6.296875 2.288086
vt -6.441406 4.101562
vt -9.117188 4.566406
vt -7.945312 1.894043
vt -11.390625 4.074219
vt -13.156250 3.646484
vt -9.531250 0.927307
vt -12.976562 0.578613
vt -11.320312 0.908081
vt -10.320312 -0.786133
vt -8.031250 0.524414
vt -8.101562 -0.618164
vt -6.335938 -0.569336
vt -8.226562 -2.429688
vt -4.621094 -1.779297
vt -6.339844 -2.107422
vt -2.900391 -2.392578
vt -4.707031 -3.179688
vt -6.527344 -3.882812
vt -9.906250 -2.632812
vt -8.304688 -4.253906
vt -11.585938 -3.128906
vt -10.054688 -4.453125
vt -8.445312 -5.609375
vt -6.617188 -5.234375
vt -8.578125 -6.972656
vt -6.777344 -6.773438
vt -6.835938 -7.960938
vt -5.156250 -8.523438
vt -4.957031 -6.593750
vt -3.308594 -8.414062
vt -4.820312 -4.679688
vt -3.125000 -6.433594
vt -1.498047 -8.351562
vt -2.990234 -3.800781
vt -3.041016 -5.121094
vt -1.304688 -6.187500
vt -1.244141 -4.523438
vt -1.191406 -3.011719
vt 0.548828 -6.585938
vt 0.548340 -8.328125
vt 2.595703 -8.351562
vt 0.549805 -3.042969
vt -1.158203 -2.074219
vt 0.549805 -2.042969
vt 2.160156 -1.082031
vt 2.257812 -2.076172
vt 2.291016 -3.015625
vt 3.953125 -0.458008
vt 2.341797 -4.523438
vt 3.951172 -1.464844
vt 4.000000 -2.396484
vt 4.089844 -3.804688
vt 2.402344 -6.191406
vt 4.136719 -5.128906
vt 4.222656 -6.437500
vt 4.406250 -8.421875
vt 5.921875 -4.687500
vt 6.054688 -6.601562
vt 6.253906 -8.531250
vt 5.808594 -3.187500
vt 7.714844 -5.242188
vt 5.722656 -1.785156
vt 7.625000 -3.890625
vt 7.441406 -2.115234
vt 5.695312 -0.506836
vt 7.437500 -0.577148
vt 9.328125 -2.441406
vt 9.203125 -0.627930
vt 9.406250 -4.265625
vt 11.414062 -0.795898
vt 11.007812 -2.644531
vt 9.539062 -5.621094
vt 11.156250 -4.464844
vt 7.875000 -6.781250
vt 7.933594 -7.968750
vt 8.031250 -8.679688
vt 9.679688 -6.984375
vt 9.734375 -8.156250
vt 9.835938 -8.851562
vt 11.312500 -5.812500
vt 11.453125 -7.132812
vt 11.507812 -8.367188
vt 12.390625 -9.156250
vt 13.406250 -5.882812
vt 13.273438 -8.625000
vt 13.140625 -7.562500
vt 13.718750 -6.558594
vt 15.593750 -9.109375
vt 15.632812 -9.578125
vt 18.203125 -9.929688
vt 15.132812 -7.914062
vt 17.359375 -8.695312
vt 19.750000 -8.539062
vt 21.375000 -10.414062
vt 20.937500 -7.601562
vt 20.515625 -5.769531
vt 18.015625 -7.593750
vt 15.929688 -6.882812
vt 20.140625 -4.335938
vt 18.203125 -4.187500
vt 19.843750 -3.140625
vt 16.000000 -4.054688
vt 17.500000 -2.755859
vt 19.531250 -1.876953
vt 12.867188 -4.703125
vt 15.750000 -2.580078
vt 17.062500 0.500000
vt 19.250000 0.149902
vt 19.328125 1.775879
vt 12.679688 -3.144531
vt 14.187500 -1.746094
vt 15.500000 0.495605
vt 14.070312 0.564209
vt 17.359375 2.965820
vt 19.734375 3.824219
vt 15.757812 3.617188
vt 16.953125 4.318359
vt 18.187500 5.222656
vt 20.093750 5.253906
vt 13.359375 5.371094
vt 15.828125 7.937500
vt 20.406250 6.449219
vt 13.210938 6.714844
vt 13.632812 7.679688
vt 19.015625 8.121094
vt 20.875000 8.503906
vt 13.109375 8.628906
vt 19.281250 10.140625
vt 21.343750 11.445312
vt 17.171875 10.820312
vt 15.257812 8.921875
vt 17.546875 9.625000
vt 15.367188 10.078125
vt 13.781250 10.414062
vt 13.210938 9.687500
vt 10.734375 10.093750
vt 11.460938 9.468750
vt 11.375000 8.460938
vt 9.695312 9.304688
vt 11.343750 7.703125
vt 9.609375 8.296875
vt 9.406250 7.160156
vt 11.289062 6.898438
vt 8.390625 5.562500
vt 11.062500 5.964844
vt 7.550781 4.095703
vt 10.226562 4.556641
vt 7.398438 2.281250
vt 5.613281 1.576172
vt 9.046875 1.885254
vt 3.906250 0.542480
vt 5.632812 0.532715
vt 7.339844 0.814453
vt 9.132812 0.515381
vt 10.632812 0.916992
vt 12.500000 4.062500
vt 12.414062 0.895264
vt 14.257812 3.630859
vt1 -19.828125 -7.585938
vt1 -20.265625 -10.414062
vt1 -18.703125 -8.359375
vt1 -17.109375 -9.921875
vt1 -19.437500 -5.867188
vt1 -15.140625 -9.000000
vt1 -14.531250 -9.570312
vt1 -11.289062 -9.140625
vt1 -16.421875 -7.789062
vt1 -12.492188 -8.492188
vt1 -10.406250 -8.359375
vt1 -8.734375 -8.843750
vt1 -12.265625 -7.679688
vt1 -15.007812 -6.835938
vt1 -19.093750 -4.531250
vt1 -8.632812 -8.148438
vt1 -6.937500 -8.664062
vt1 -17.296875 -4.390625
vt1 -18.750000 -3.128906
vt1 -12.570312 -6.527344
vt1 -10.359375 -7.140625
vt1 -12.312500 -5.871094
vt1 -16.421875 -2.761719
vt1 -18.437500 -1.861328
vt1 -15.039062 -3.980469
vt1 -15.968750 0.518555
vt1 -18.156250 0.168945
vt1 -18.234375 1.798340
vt1 -14.656250 -2.566406
vt1 -16.265625 2.983398
vt1 -18.625000 3.853516
vt1 -14.406250 0.511475
vt1 -11.765625 -4.687500
vt1 -13.093750 -1.730469
vt1 -14.656250 3.634766
vt1 -10.218750 -5.796875
vt1 -15.867188 4.341797
vt1 -17.109375 5.246094
vt1 -19.000000 5.289062
vt1 -12.250000 5.386719
vt1 -14.890625 7.945312
vt1 -19.296875 6.507812
vt1 -12.101562 6.730469
vt1 -12.515625 7.691406
vt1 -17.921875 8.113281
vt1 -19.765625 8.550781
vt1 -18.687500 9.390625
vt1 -20.203125 11.492188
vt1 -14.500000 9.078125
vt1 -17.812500 10.453125
vt1 -16.062500 10.843750
vt1 -15.062500 9.914062
vt1 -12.664062 10.429688
vt1 -12.093750 9.695312
vt1 -9.609375 10.101562
vt1 -11.992188 8.644531
vt1 -10.343750 9.484375
vt1 -8.578125 9.312500
vt1 -6.953125 9.890625
vt1 -10.265625 8.468750
vt1 -8.492188 8.304688
vt1 -10.226562 7.714844
vt1 -6.640625 7.894531
vt1 -5.140625 9.781250
vt1 -8.296875 7.167969
vt1 -10.179688 6.910156
vt1 -9.953125 5.976562
vt1 -7.281250 5.570312
vt1 -6.542969 6.136719
vt1 -4.898438 8.031250
vt1 -3.404297 9.710938
vt1 -4.796875 6.863281
vt1 -3.080078 7.515625
vt1 -1.305664 8.343750
vt1 -1.332031 9.664062
vt1 0.549805 9.617188
vt1 -1.241211 5.789062
vt1 -3.125000 6.011719
vt1 -4.773438 5.671875
vt1 -4.710938 4.363281
vt1 -2.917969 4.283203
vt1 -1.157227 4.181641
vt1 0.554199 4.855469
vt1 -1.143555 2.853516
vt1 0.553223 3.511719
vt1 2.347656 5.800781
vt1 2.265625 4.179688
vt1 2.421875 8.355469
vt1 2.449219 9.664062
vt1 4.519531 9.703125
vt1 4.191406 7.515625
vt1 4.234375 6.003906
vt1 6.011719 8.027344
vt1 6.257812 9.781250
vt1 5.906250 6.859375
vt1 7.753906 7.890625
vt1 8.070312 9.882812
vt1 5.882812 5.664062
vt1 7.652344 6.128906
vt1 4.023438 4.279297
vt1 5.816406 4.357422
vt1 2.250000 2.851562
vt1 3.927734 2.923828
vt1 0.552246 2.213867
vt1 2.242188 1.525879
vt1 5.691406 2.942383
vt1 0.551758 1.191895
vt1 3.919922 1.557129
vt1 -1.139648 1.527344
vt1 0.551270 0.554688
vt1 2.218750 0.550537
vt1 -2.822266 2.926758
vt1 -1.115234 0.552246
vt1 -2.816406 1.560547
vt1 -4.585938 2.948242
vt1 0.550781 -0.079102
vt1 -2.802734 0.546143
vt1 -1.119141 -0.089844
vt1 2.220703 -0.091797
vt1 -4.507812 1.581055
vt1 0.550293 -0.956055
vt1 -2.851562 -0.455078
vt1 -1.059570 -1.080078
vt1 -4.531250 0.537842
vt1 -2.849609 -1.460938
vt1 -4.593750 -0.500977
vt1 -6.234375 0.821533
vt1 -6.296875 2.288086
vt1 -6.441406 4.101562
vt1 -9.117188 4.566406
vt1 -7.945312 1.894043
vt1 -11.390625 4.074219
vt1 -13.156250 3.646484
vt1 -9.531250 0.927307
vt1 -12.976562 0.578613
vt1 -11.320312 0.908081
vt1 -10.320312 -0.786133
vt1 -8.031250 0.524414
vt1 -8.101562 -0.618164
vt1 -6.335938 -0.569336
vt1 -8.226562 -2.429688
vt1 -4.621094 -1.779297
vt1 -6.339844 -2.107422
vt1 -2.900391 -2.392578
vt1 -4.707031 -3.179688
vt1 -6.527344 -3.882812
vt1 -9.906250 -2.632812
vt1 -8.304688 -4.253906
vt1 -11.585938 -3.128906
vt1 -10.054688 -4.453125
vt1 -8.445312 -5.609375
vt1 -6.617188 -5.234375
vt1 -8.578125 -6.972656
vt1 -6.777344 -6.773438
vt1 -6.835938 -7.960938
vt1 -5.156250 -8.523438
vt1 -4.957031 -6.593750
vt1 -3.308594 -8.414062
vt1 -4.820312 -4.679688
vt1 -3.125000 -6.433594
vt1 -1.498047 -8.351562
vt1 -2.990234 -3.800781
vt1 -3.041016 -5.121094
vt1 -1.304688 -6.187500
vt1 -1.244141 -4.523438
vt1 -1.191406 -3.011719
vt1 0.548828 -6.585938
vt1 0.548340 -8.328125
vt1 2.595703 -8.351562
vt1 0.549805 -3.042969
vt1 -1.158203 -2.074219
vt1 0.549805 -2.042969
vt1 2.160156 -1.082031
vt1 2.257812 -2.076172
vt1 2.291016 -3.015625
vt1 3.953125 -0.458008
vt1 2.341797 -4.523438
vt1 3.951172 -1.464844
vt1 4.000000 -2.396484
vt1 4.089844 -3.804688
vt1 2.402344 -6.191406
vt1 4.136719 -5.128906
vt1 4.222656 -6.437500
vt1 4.406250 -8.421875
vt1 5.921875 -4.687500
vt1 6.054688 -6.601562
vt1 6.253906 -8.531250
vt1 5.808594 -3.187500
vt1 7.714844 -5.242188
vt1 5.722656 -1.785156
vt1 7.625000 -3.890625
vt1 7.441406 -2.115234
vt1 5.695312 -0.506836
vt1 7.437500 -0.577148
vt1 9.328125 -2.441406
vt1 9.203125 -0.627930
vt1 9.406250 -4.265625
vt1 11.414062 -0.795898
vt1 11.007812 -2.644531
vt1 9.539062 -5.621094
vt1 11.156250 -4.464844
vt1 7.875000 -6.781250
vt1 7.933594 -7.968750
vt1 8.031250 -8.679688
vt1 9.679688 -6.984375
vt1 9.734375 -8.156250
vt1 9.835938 -8.851562
vt1 11.312500 -5.812500
vt1 11.453125 -7.132812
vt1 11.507812 -8.367188
vt1 12.390625 -9.156250
vt1 13.406250 -5.882812
vt1 13.273438 -8.625000
vt1 13.140625 -7.562500
vt1 13.718750 -6.558594
vt1 15.593750 -9.109375
vt1 15.632812 -9.578125
vt1 18.203125 -9.929688
vt1 15.132812 -7.914062
vt1 17.359375 -8.695312
vt1 19.750000 -8.539062
vt1 21.375000 -10.414062
vt1 20.937500 -7.601562
vt1 20.515625 -5.769531
vt1 18.015625 -7.593750
vt1 15.929688 -6.882812
vt1 20.140625 -4.335938
vt1 18.203125 -4.187500
vt1 19.843750 -3.140625
vt1 16.000000 -4.054688
vt1 17.500000 -2.755859
vt1 19.531250 -1.876953
vt1 12.867188 -4.703125
vt1 15.750000 -2.580078
vt1 17.062500 0.500000
vt1 19.250000 0.149902
vt1 19.328125 1.775879
vt1 12.679688 -3.144531
vt1 14.187500 -1.746094
vt1 15.500000 0.495605
vt1 14.070312 0.564209
vt1 17.359375 2.965820
vt1 19.734375 3.824219
vt1 15.757812 3.617188
vt1 16.953125 4.318359
vt1 18.187500 5.222656
vt1 20.093750 5.253906
vt1 13.359375 5.371094
vt1 15.828125 7.937500
vt1 20.406250 6.449219
vt1 13.210938 6.714844
vt1 13.632812 7.679688
vt1 19.015625 8.121094
vt1 20.875000 8.503906
vt1 13.109375 8.628906
vt1 19.281250 10.140625
vt1 21.343750 11.445312
vt1 17.171875 10.820312
vt1 15.257812 8.921875
vt1 17.546875 9.625000
vt1 15.367188 10.078125
vt1 13.781250 10.414062
vt1 13.210938 9.687500
vt1 10.734375 10.093750
vt1 11.460938 9.468750
vt1 11.375000 8.460938
vt1 9.695312 9.304688
vt1 11.343750 7.703125
vt1 9.609375 8.296875
vt1 9.406250 7.160156
vt1 11.289062 6.898438
vt1 8.390625 5.562500
vt1 11.062500 5.964844
vt1 7.550781 4.095703
vt1 10.226562 4.556641
vt1 7.398438 2.281250
vt1 5.613281 1.576172
vt1 9.046875 1.885254
vt1 3.906250 0.542480
vt1 5.632812 0.532715
vt1 7.339844 0.814453
vt1 9.132812 0.515381
vt1 10.632812 0.916992
vt1 12.500000 4.062500
vt1 12.414062 0.895264
vt1 14.257812 3.630859
vn 0.354331 -0.511811 -0.779527
vn 0.291339 -0.535433 -0.795275
vn 0.330709 -0.503937 -0.795275
vn 0.299213 -0.472441 -0.826771
vn 0.385827 -0.456693 -0.803149
vn 0.330709 -0.417323 -0.842520
vn 0.307087 -0.385827 -0.866142
vn 0.299213 -0.244095 -0.921260
vn 0.362205 -0.448819 -0.818897
vn 0.354331 -0.314961 -0.881890
vn 0.314961 -0.204724 -0.929134
vn 0.236220 -0.102362 -0.968504
vn 0.385827 -0.291339 -0.874016
vn 0.401575 -0.393701 -0.826771
vn 0.417323 -0.385827 -0.818897
vn 0.275591 -0.110236 -0.952756
vn 0.181102 -0.015748 -0.984252
vn 0.425197 -0.362205 -0.826771
vn 0.433071 -0.299213 -0.850394
vn 0.433071 -0.299213 -0.850394
vn 0.377953 -0.188976 -0.905512
vn 0.464567 -0.275591 -0.842520
vn 0.456693 -0.259843 -0.850394
vn 0.440945 -0.220473 -0.874016
vn 0.480315 -0.307087 -0.818897
vn 0.456693 -0.251969 -0.850394
vn 0.433071 -0.244095 -0.866142
vn 0.433071 -0.322835 -0.842520
vn 0.503937 -0.236221 -0.834646
vn 0.456693 -0.299213 -0.834646
vn 0.440945 -0.275591 -0.858268
vn 0.511811 -0.259843 -0.818897
vn 0.511811 -0.236221 -0.826772
vn 0.559055 -0.204724 -0.803149
vn 0.503937 -0.283465 -0.818897
vn 0.433071 -0.173228 -0.881890
vn 0.472441 -0.228347 -0.850394
vn 0.433071 -0.181102 -0.881890
vn 0.417323 -0.165354 -0.897638
vn 0.519685 -0.267717 -0.811023
vn 0.401575 -0.149606 -0.905512
vn 0.393701 -0.110236 -0.913386
vn 0.472441 -0.267717 -0.842520
vn 0.433071 -0.244095 -0.866142
vn 0.362205 -0.086614 -0.929134
vn 0.362205 -0.031496 -0.929134
vn 0.330709 -0.047244 -0.944882
vn 0.291339 -0.007874 -0.960630
vn 0.370079 -0.165354 -0.913386
vn 0.314961 -0.062992 -0.944882
vn 0.299213 -0.125984 -0.944882
vn 0.338583 -0.141732 -0.929134
vn 0.307087 -0.259843 -0.913386
vn 0.338583 -0.275591 -0.897638
vn 0.267717 -0.417323 -0.866142
vn 0.385827 -0.275591 -0.881890
vn 0.322835 -0.362205 -0.874016
vn 0.283465 -0.456693 -0.842520
vn 0.196850 -0.543307 -0.818897
vn 0.370079 -0.362205 -0.858268
vn 0.330709 -0.456693 -0.826771
vn 0.401575 -0.362205 -0.842520
vn 0.275591 -0.543307 -0.795275
vn 0.141732 -0.614173 -0.779527
vn 0.377953 -0.464567 -0.803149
vn 0.440945 -0.362205 -0.818897
vn 0.480315 -0.377953 -0.795275
vn 0.409449 -0.496063 -0.763779
vn 0.354331 -0.535433 -0.763779
vn 0.204724 -0.614173 -0.763779
vn 0.094488 -0.661417 -0.740157
vn 0.244094 -0.614173 -0.755905
vn 0.149606 -0.661417 -0.732283
vn 0.062992 -0.692913 -0.716535
vn 0.039370 -0.700787 -0.716535
vn 0.000000 -0.708661 -0.700787
vn 0.102362 -0.700787 -0.708661
vn 0.188976 -0.661417 -0.724409
vn 0.283465 -0.606299 -0.748031
vn 0.330709 -0.566929 -0.748031
vn 0.236220 -0.629921 -0.740157
vn 0.125984 -0.661417 -0.740157
vn 0.000000 -0.700787 -0.716535
vn 0.149606 -0.582677 -0.803149
vn 0.000000 -0.645669 -0.763779
vn -0.102362 -0.700787 -0.708661
vn -0.125984 -0.661417 -0.740157
vn -0.062992 -0.692913 -0.716535
vn -0.039370 -0.700787 -0.716535
vn -0.094488 -0.661417 -0.740157
vn -0.149606 -0.661417 -0.732283
vn -0.188976 -0.661417 -0.724409
vn -0.204724 -0.614173 -0.763779
vn -0.141732 -0.614173 -0.779527
vn -0.244094 -0.614173 -0.755905
vn -0.275591 -0.543307 -0.795275
vn -0.196850 -0.543307 -0.818897
vn -0.283465 -0.606299 -0.748031
vn -0.354331 -0.535433 -0.763779
vn -0.236220 -0.629921 -0.740157
vn -0.330709 -0.566929 -0.748031
vn -0.149606 -0.582677 -0.803149
vn -0.267717 -0.551181 -0.795275
vn 0.000000 -0.535433 -0.850394
vn -0.165354 -0.440945 -0.881890
vn -0.377953 -0.496063 -0.779527
vn 0.000000 -0.401575 -0.913386
vn -0.299213 -0.417323 -0.858268
vn 0.165354 -0.440945 -0.881890
vn 0.000000 -0.299213 -0.952756
vn -0.173228 -0.299213 -0.937008
vn 0.267717 -0.551181 -0.795275
vn 0.173228 -0.299213 -0.937008
vn 0.299213 -0.417323 -0.858268
vn 0.377953 -0.496063 -0.779527
vn 0.000000 -0.196850 -0.984252
vn 0.307087 -0.283465 -0.905512
vn 0.165354 -0.196850 -0.968504
vn -0.165354 -0.196850 -0.968504
vn 0.409449 -0.385827 -0.826771
vn 0.000000 -0.062992 -1.000000
vn 0.299213 -0.149606 -0.944882
vn 0.149606 -0.055118 -0.984252
vn 0.417323 -0.275591 -0.866142
vn 0.275591 -0.039370 -0.960630
vn 0.409449 -0.165354 -0.897638
vn 0.496063 -0.283465 -0.818897
vn 0.480315 -0.393701 -0.779527
vn 0.433071 -0.488189 -0.755905
vn 0.511811 -0.393701 -0.763779
vn 0.543307 -0.338583 -0.763779
vn 0.559055 -0.314961 -0.763779
vn 0.543307 -0.291339 -0.787401
vn 0.582677 -0.275591 -0.763779
vn 0.559055 -0.259843 -0.787401
vn 0.590551 -0.267717 -0.763779
vn 0.590551 -0.181102 -0.787401
vn 0.551181 -0.251969 -0.795275
vn 0.551181 -0.181102 -0.818897
vn 0.488189 -0.165354 -0.858268
vn 0.519685 -0.110236 -0.850394
vn 0.377953 -0.047244 -0.921260
vn 0.456693 -0.062992 -0.889764
vn 0.251969 0.055118 -0.968504
vn 0.330709 0.047244 -0.944882
vn 0.393701 -0.007874 -0.921260
vn 0.551181 -0.149606 -0.826772
vn 0.448819 -0.078740 -0.889764
vn 0.551181 -0.196850 -0.811023
vn 0.488189 -0.149606 -0.858268
vn 0.393701 -0.086614 -0.913386
vn 0.330709 0.007874 -0.944882
vn 0.330709 -0.102362 -0.937008
vn 0.267717 -0.007874 -0.960630
vn 0.220472 -0.015748 -0.976378
vn 0.125984 0.062992 -0.992126
vn 0.196850 0.070866 -0.976378
vn 0.078740 0.125984 -0.992126
vn 0.267717 0.078740 -0.960630
vn 0.133858 0.133858 -0.984252
vn 0.039370 0.165354 -0.984252
vn 0.204724 0.125984 -0.968504
vn 0.165354 0.141732 -0.976378
vn 0.070866 0.173228 -0.984252
vn 0.094488 0.181102 -0.976378
vn 0.118110 0.133858 -0.984252
vn 0.000000 0.188976 -0.984252
vn 0.000000 0.188976 -0.984252
vn -0.039370 0.165354 -0.984252
vn 0.000000 0.165354 -0.984252
vn 0.141732 0.062992 -0.992126
vn 0.000000 0.070866 -1.000000
vn -0.149606 -0.055118 -0.984252
vn -0.141732 0.062992 -0.992126
vn -0.118110 0.133858 -0.984252
vn -0.299213 -0.149606 -0.944882
vn -0.094488 0.181102 -0.976378
vn -0.275591 -0.039370 -0.960630
vn -0.251969 0.055118 -0.968504
vn -0.204724 0.125984 -0.968504
vn -0.070866 0.173228 -0.984252
vn -0.165354 0.141732 -0.976378
vn -0.133858 0.133858 -0.984252
vn -0.078740 0.125984 -0.992126
vn -0.267717 0.078740 -0.960630
vn -0.196850 0.070866 -0.976378
vn -0.125984 0.062992 -0.992126
vn -0.330709 0.047244 -0.944882
vn -0.330709 0.007874 -0.944882
vn -0.377953 -0.047244 -0.921260
vn -0.393701 -0.007874 -0.921260
vn -0.456693 -0.062992 -0.889764
vn -0.409449 -0.165354 -0.897638
vn -0.488189 -0.165354 -0.858268
vn -0.519685 -0.110236 -0.850394
vn -0.551181 -0.181102 -0.818897
vn -0.448819 -0.078740 -0.889764
vn -0.590551 -0.181102 -0.787401
vn -0.551181 -0.149606 -0.826772
vn -0.393701 -0.086614 -0.913386
vn -0.488189 -0.149606 -0.858268
vn -0.267717 -0.007874 -0.960630
vn -0.220472 -0.015748 -0.976378
vn -0.181102 -0.015748 -0.984252
vn -0.330709 -0.102362 -0.937008
vn -0.275591 -0.110236 -0.952756
vn -0.236220 -0.102362 -0.968504
vn -0.433071 -0.173228 -0.881890
vn -0.377953 -0.188976 -0.905512
vn -0.314961 -0.204724 -0.929134
vn -0.299213 -0.244095 -0.921260
vn -0.464567 -0.275591 -0.842520
vn -0.338583 -0.291339 -0.897638
vn -0.385827 -0.275591 -0.881890
vn -0.433071 -0.299213 -0.850394
vn -0.330709 -0.393701 -0.858268
vn -0.307087 -0.385827 -0.866142
vn -0.299213 -0.472441 -0.834646
vn -0.377953 -0.370079 -0.850394
vn -0.338583 -0.448819 -0.826771
vn -0.330709 -0.503937 -0.795275
vn -0.291339 -0.535433 -0.787401
vn -0.354331 -0.511811 -0.779527
vn -0.385827 -0.448819 -0.803149
vn -0.362205 -0.448819 -0.818897
vn -0.409449 -0.393701 -0.826771
vn -0.417323 -0.385827 -0.826771
vn -0.433071 -0.354331 -0.826771
vn -0.433071 -0.299213 -0.850394
vn -0.480315 -0.307087 -0.818897
vn -0.456693 -0.259843 -0.850394
vn -0.440945 -0.220473 -0.874016
vn -0.511811 -0.236221 -0.826772
vn -0.503937 -0.236221 -0.834646
vn -0.456693 -0.251969 -0.850394
vn -0.433071 -0.244095 -0.866142
vn -0.433071 -0.322835 -0.842520
vn -0.551181 -0.196850 -0.811023
vn -0.559055 -0.204724 -0.803149
vn -0.511811 -0.259843 -0.818897
vn -0.559055 -0.259843 -0.787401
vn -0.456693 -0.299213 -0.834646
vn -0.440945 -0.275591 -0.858268
vn -0.503937 -0.283465 -0.818897
vn -0.472441 -0.228347 -0.850394
vn -0.433071 -0.181102 -0.881890
vn -0.417323 -0.165354 -0.897638
vn -0.519685 -0.267717 -0.811023
vn -0.401575 -0.157480 -0.897638
vn -0.393701 -0.110236 -0.913386
vn -0.472441 -0.267717 -0.842520
vn -0.433071 -0.244095 -0.866142
vn -0.362205 -0.086614 -0.929134
vn -0.362205 -0.031496 -0.929134
vn -0.385827 -0.275591 -0.881890
vn -0.314961 -0.055118 -0.944882
vn -0.291339 -0.007874 -0.952756
vn -0.299213 -0.125984 -0.944882
vn -0.377953 -0.181102 -0.913386
vn -0.338583 -0.102362 -0.937008
vn -0.330709 -0.173228 -0.929134
vn -0.307087 -0.259843 -0.913386
vn -0.338583 -0.275591 -0.897638
vn -0.267717 -0.417323 -0.866142
vn -0.322835 -0.362205 -0.874016
vn -0.370079 -0.362205 -0.858268
vn -0.283465 -0.456693 -0.842520
vn -0.401575 -0.362205 -0.842520
vn -0.330709 -0.456693 -0.826771
vn -0.377953 -0.464567 -0.803149
vn -0.440945 -0.362205 -0.818897
vn -0.409449 -0.496063 -0.763779
vn -0.480315 -0.377953 -0.795275
vn -0.433071 -0.488189 -0.755905
vn -0.511811 -0.393701 -0.763779
vn -0.480315 -0.393701 -0.779527
vn -0.409449 -0.385827 -0.826771
vn -0.543307 -0.338583 -0.763779
vn -0.307087 -0.283465 -0.905512
vn -0.417323 -0.275591 -0.866142
vn -0.496063 -0.283465 -0.818897
vn -0.551181 -0.251969 -0.795275
vn -0.582677 -0.275591 -0.763779
vn -0.559055 -0.314961 -0.763779
vn -0.590551 -0.267717 -0.763779
vn -0.543307 -0.291339 -0.787401
tan 0.026474 0.785107 -0.503441 1.000000
tan 0.012524 0.795275 -0.530845 1.000000
tan 0.018166 0.803087 -0.501333 1.000000
tan 0.006510 0.826771 -0.470085 1.000000
tan 0.025172 0.824415 -0.456693 1.000000
tan -0.013330 0.847728 -0.425135 1.000000
tan -0.017422 0.868560 -0.393081 1.000000
tan -0.072540 0.921260 -0.267655 1.000000
tan -0.008742 0.827453 -0.457375 1.000000
tan -0.064480 0.887470 -0.342861 1.000000
tan -0.093496 0.924298 -0.235353 1.000000
tan -0.106764 0.960878 -0.127596 1.000000
tan -0.084878 0.882324 -0.331577 1.000000
tan -0.058900 0.833095 -0.425321 1.000000
tan -0.010230 0.828755 -0.395685 1.000000
tan -0.112530 0.945254 -0.141918 1.000000
tan -0.108500 0.976502 -0.035588 1.000000
tan -0.065906 0.826957 -0.396181 1.000000
tan -0.050840 0.864034 -0.329903 1.000000
tan -0.101680 0.864282 -0.355881 1.000000
tan -0.118234 0.904334 -0.238081 1.000000
tan -0.124248 0.865832 -0.351727 1.000000
tan -0.143220 0.844194 -0.334863 1.000000
tan -0.142786 0.863724 -0.289913 1.000000
tan -0.149110 0.818463 -0.394383 1.000000
tan -0.274537 0.803521 -0.385517 1.000000
tan -0.209498 0.842272 -0.342117 1.000000
tan -0.229648 0.812759 -0.429475 1.000000
tan -0.153264 0.859942 -0.335917 1.000000
tan -0.187240 0.833530 -0.401265 1.000000
tan -0.322215 0.800917 -0.422717 1.000000
tan -0.299275 0.774567 -0.432823 1.000000
tan -0.221340 0.822432 -0.372001 1.000000
tan -0.322153 0.780085 -0.423089 1.000000
tan -0.200880 0.835761 -0.412921 1.000000
tan -0.117056 0.915618 -0.237337 1.000000
tan -0.339699 0.780457 -0.398289 1.000000
tan -0.304111 0.829747 -0.319735 1.000000
tan -0.373303 0.823175 -0.325191 1.000000
tan -0.228098 0.825407 -0.418625 1.000000
tan -0.306591 0.848471 -0.276149 1.000000
tan -0.409077 0.822989 -0.275653 1.000000
tan -0.226176 0.831670 -0.391097 1.000000
tan -0.194990 0.855912 -0.338707 1.000000
tan -0.299957 0.877922 -0.198772 1.000000
tan -0.482857 0.797445 -0.215264 1.000000
tan -0.327361 0.885362 -0.158844 1.000000
tan -0.446277 0.847170 -0.142290 1.000000
tan -0.236034 0.887532 -0.256309 1.000000
tan -0.290161 0.900242 -0.156736 1.000000
tan -0.252961 0.907682 -0.201128 1.000000
tan -0.226796 0.899870 -0.219915 1.000000
tan -0.151032 0.899002 -0.306529 1.000000
tan -0.137020 0.888834 -0.324571 1.000000
tan -0.047740 0.866142 -0.432079 1.000000
tan -0.124558 0.900552 -0.335917 1.000000
tan -0.087792 0.874760 -0.394941 1.000000
tan -0.038688 0.851448 -0.474549 1.000000
tan -0.008618 0.820447 -0.546407 1.000000
tan -0.074958 0.885548 -0.406039 1.000000
tan -0.024180 0.859322 -0.484345 1.000000
tan -0.081344 0.879534 -0.416889 1.000000
tan -0.013888 0.810465 -0.558497 1.000000
tan 0.000000 0.779527 -0.614173 1.000000
tan -0.055614 0.823609 -0.502573 1.000000
tan -0.076260 0.872962 -0.427181 1.000000
tan -0.139934 0.823175 -0.475727 1.000000
tan -0.041540 0.796887 -0.539835 1.000000
tan -0.019778 0.788455 -0.561907 1.000000
tan 0.033976 0.777109 -0.615785 1.000000
tan 0.005208 0.740901 -0.661417 1.000000
tan 0.010044 0.769359 -0.621861 1.000000
tan 0.014508 0.738173 -0.663773 1.000000
tan 0.005456 0.717031 -0.692913 1.000000
tan 0.005518 0.716845 -0.700787 1.000000
tan 0.000000 0.700787 -0.708661 1.000000
tan 0.016492 0.711885 -0.701593 1.000000
tan 0.019344 0.734825 -0.665881 1.000000
tan 0.032922 0.776427 -0.616839 1.000000
tan -0.003906 0.770785 -0.585901 1.000000
tan 0.005580 0.753177 -0.639221 1.000000
tan 0.003968 0.743133 -0.663401 1.000000
tan 0.000000 0.716535 -0.700787 1.000000
tan -0.005208 0.806683 -0.586211 1.000000
tan 0.000000 0.763779 -0.645669 1.000000
tan -0.010974 0.711079 -0.701593 1.000000
tan -0.003968 0.743133 -0.663401 1.000000
tan -0.010912 0.717527 -0.692913 1.000000
tan -0.005518 0.716845 -0.700787 1.000000
tan -0.005208 0.740901 -0.661417 1.000000
tan -0.014508 0.738173 -0.663773 1.000000
tan -0.019344 0.734825 -0.665881 1.000000
tan -0.033976 0.777109 -0.615785 1.000000
tan 0.000000 0.779527 -0.614173 1.000000
tan -0.010044 0.769359 -0.621861 1.000000
tan 0.013888 0.810465 -0.558497 1.000000
tan 0.008618 0.820447 -0.546407 1.000000
tan -0.032922 0.776427 -0.616839 1.000000
tan 0.019778 0.788455 -0.561907 1.000000
tan -0.005580 0.753177 -0.639221 1.000000
tan 0.003906 0.770785 -0.585901 1.000000
tan 0.005208 0.806683 -0.586211 1.000000
tan 0.024056 0.807923 -0.568045 1.000000
tan 0.000000 0.850394 -0.535433 1.000000
tan 0.031248 0.883192 -0.447455 1.000000
tan 0.046872 0.803149 -0.533821 1.000000
tan 0.000000 0.913386 -0.401575 1.000000
tan 0.064480 0.858578 -0.439953 1.000000
tan -0.031248 0.883192 -0.447455 1.000000
tan 0.000000 0.952756 -0.299213 1.000000
tan 0.037200 0.941100 -0.307397 1.000000
tan -0.024056 0.807923 -0.568045 1.000000
tan -0.037200 0.941100 -0.307397 1.000000
tan -0.064480 0.858578 -0.439953 1.000000
tan -0.046872 0.803149 -0.533821 1.000000
tan 0.000000 0.984252 -0.196850 1.000000
tan -0.074834 0.917726 -0.312667 1.000000
tan -0.044206 0.969806 -0.204662 1.000000
tan 0.044206 0.969806 -0.204662 1.000000
tan -0.102424 0.836320 -0.441007 1.000000
tan 0.000000 1.000000 -0.062992 1.000000
tan -0.095542 0.939798 -0.179056 1.000000
tan -0.038750 0.984252 -0.061008 1.000000
tan -0.094860 0.898258 -0.331515 1.000000
tan -0.082274 0.959576 -0.062930 1.000000
tan -0.151590 0.893174 -0.233679 1.000000
tan -0.175088 0.841341 -0.397297 1.000000
tan -0.116126 0.815487 -0.483415 1.000000
tan -0.041788 0.801971 -0.541881 1.000000
tan -0.176204 0.780085 -0.520181 1.000000
tan -0.223324 0.789199 -0.508711 1.000000
tan -0.346643 0.718767 -0.550127 1.000000
tan -0.203732 0.825717 -0.446091 1.000000
tan -0.280365 0.786843 -0.497799 1.000000
tan -0.326803 0.757827 -0.482113 1.000000
tan -0.314155 0.771777 -0.513423 1.000000
tan -0.392585 0.737801 -0.464133 1.000000
tan -0.123008 0.895654 -0.369025 1.000000
tan -0.267345 0.830305 -0.363569 1.000000
tan -0.219356 0.855230 -0.289541 1.000000
tan -0.275157 0.832166 -0.276025 1.000000
tan -0.137082 0.919958 -0.103416 1.000000
tan -0.215698 0.872528 -0.172484 1.000000
tan -0.076260 0.968504 0.035278 1.000000
tan -0.119412 0.940046 0.005208 1.000000
tan -0.137206 0.937752 -0.066650 1.000000
tan -0.299523 0.809411 -0.346147 1.000000
tan -0.186682 0.882882 -0.172298 1.000000
tan -0.213218 0.848782 -0.350921 1.000000
tan -0.200074 0.861988 -0.264059 1.000000
tan -0.129828 0.930002 -0.144150 1.000000
tan -0.141422 0.940046 -0.041664 1.000000
tan -0.131998 0.932234 -0.148428 1.000000
tan -0.121024 0.953066 -0.041540 1.000000
tan -0.107632 0.968690 -0.039928 1.000000
tan -0.101556 0.984314 0.049600 1.000000
tan -0.099944 0.968690 0.050158 1.000000
tan -0.078120 0.992126 0.119784 1.000000
tan -0.105896 0.953066 0.048608 1.000000
tan -0.069750 0.984252 0.124372 1.000000
tan -0.046500 0.984252 0.163494 1.000000
tan -0.068634 0.968504 0.111476 1.000000
tan -0.070308 0.977680 0.130014 1.000000
tan -0.038750 0.984252 0.170438 1.000000
tan -0.030752 0.976378 0.178126 1.000000
tan -0.038750 0.984252 0.129208 1.000000
tan 0.000000 0.984252 0.188976 1.000000
tan 0.000000 0.984252 0.188976 1.000000
tan 0.038750 0.984252 0.163804 1.000000
tan 0.000000 0.984252 0.165354 1.000000
tan -0.039060 0.992126 0.057412 1.000000
tan 0.000000 1.000000 0.070866 1.000000
tan 0.038750 0.984252 -0.061008 1.000000
tan 0.039060 0.992126 0.057412 1.000000
tan 0.031000 0.984252 0.130138 1.000000
tan 0.095542 0.939798 -0.179056 1.000000
tan 0.030752 0.976378 0.178126 1.000000
tan 0.082274 0.967140 -0.063240 1.000000
tan 0.076260 0.968504 0.035278 1.000000
tan 0.068634 0.968504 0.111476 1.000000
tan 0.038750 0.984252 0.170438 1.000000
tan 0.070308 0.977680 0.130014 1.000000
tan 0.069750 0.984252 0.124372 1.000000
tan 0.070308 0.992126 0.120404 1.000000
tan 0.105896 0.953066 0.048608 1.000000
tan 0.099944 0.968690 0.050158 1.000000
tan 0.093744 0.984314 0.050592 1.000000
tan 0.119412 0.940046 0.005208 1.000000
tan 0.133982 0.940046 -0.039060 1.000000
tan 0.129828 0.919958 -0.100440 1.000000
tan 0.137206 0.937752 -0.066650 1.000000
tan 0.208692 0.872528 -0.168888 1.000000
tan 0.151590 0.893174 -0.233679 1.000000
tan 0.219356 0.855230 -0.289541 1.000000
tan 0.275157 0.832166 -0.276025 1.000000
tan 0.267345 0.830305 -0.363569 1.000000
tan 0.186682 0.882882 -0.172298 1.000000
tan 0.386385 0.737801 -0.459483 1.000000
tan 0.293013 0.809411 -0.341807 1.000000
tan 0.129828 0.930002 -0.144150 1.000000
tan 0.200074 0.861988 -0.264059 1.000000
tan 0.121024 0.953066 -0.041540 1.000000
tan 0.107632 0.968690 -0.039928 1.000000
tan 0.108500 0.976502 -0.035588 1.000000
tan 0.124620 0.932234 -0.145824 1.000000
tan 0.105028 0.945254 -0.139748 1.000000
tan 0.099138 0.960878 -0.125736 1.000000
tan 0.117056 0.915618 -0.237337 1.000000
tan 0.118234 0.904334 -0.238081 1.000000
tan 0.093496 0.924298 -0.235353 1.000000
tan 0.072540 0.921260 -0.267655 1.000000
tan 0.124248 0.865832 -0.351727 1.000000
tan 0.066092 0.902970 -0.317999 1.000000
tan 0.059892 0.917478 -0.312915 1.000000
tan 0.101680 0.864282 -0.355881 1.000000
tan 0.020832 0.863476 -0.404117 1.000000
tan 0.017422 0.868560 -0.393081 1.000000
tan -0.006572 0.834646 -0.470085 1.000000
tan 0.051522 0.859322 -0.396863 1.000000
tan -0.011718 0.845434 -0.454151 1.000000
tan -0.018166 0.803087 -0.501333 1.000000
tan -0.012400 0.787401 -0.530845 1.000000
tan -0.026474 0.785107 -0.503441 1.000000
tan -0.021204 0.821377 -0.448819 1.000000
tan 0.008742 0.827453 -0.457375 1.000000
tan 0.065410 0.833220 -0.429165 1.000000
tan 0.019964 0.833344 -0.398971 1.000000
tan 0.076260 0.830491 -0.395871 1.000000
tan 0.050840 0.864034 -0.329903 1.000000
tan 0.149110 0.818463 -0.394383 1.000000
tan 0.143220 0.844194 -0.334863 1.000000
tan 0.142786 0.863724 -0.289913 1.000000
tan 0.221340 0.822432 -0.372001 1.000000
tan 0.153264 0.859942 -0.335917 1.000000
tan 0.267841 0.803521 -0.381921 1.000000
tan 0.209498 0.842272 -0.342117 1.000000
tan 0.229648 0.812759 -0.429475 1.000000
tan 0.213218 0.848782 -0.350921 1.000000
tan 0.315829 0.780085 -0.418687 1.000000
tan 0.299275 0.781015 -0.434869 1.000000
tan 0.320603 0.757827 -0.477711 1.000000
tan 0.187240 0.833530 -0.401265 1.000000
tan 0.315457 0.800917 -0.419245 1.000000
tan 0.200880 0.835761 -0.412921 1.000000
tan 0.333003 0.787153 -0.396367 1.000000
tan 0.297167 0.829747 -0.316325 1.000000
tan 0.366235 0.823175 -0.321905 1.000000
tan 0.228098 0.825407 -0.418625 1.000000
tan 0.296857 0.848162 -0.281605 1.000000
tan 0.394693 0.830181 -0.270321 1.000000
tan 0.219542 0.831670 -0.387377 1.000000
tan 0.188170 0.855912 -0.335297 1.000000
tan 0.307273 0.877922 -0.201624 1.000000
tan 0.468225 0.804761 -0.209808 1.000000
tan 0.124558 0.900552 -0.335917 1.000000
tan 0.305041 0.892802 -0.153760 1.000000
tan 0.442619 0.847728 -0.142352 1.000000
tan 0.245520 0.915122 -0.199764 1.000000
tan 0.221526 0.887594 -0.267655 1.000000
tan 0.258231 0.900118 -0.191642 1.000000
tan 0.188852 0.909790 -0.236841 1.000000
tan 0.151032 0.899002 -0.306529 1.000000
tan 0.137020 0.888834 -0.324571 1.000000
tan 0.047740 0.866142 -0.432079 1.000000
tan 0.087792 0.874760 -0.394941 1.000000
tan 0.074958 0.885548 -0.406039 1.000000
tan 0.038688 0.851448 -0.474549 1.000000
tan 0.074710 0.879534 -0.413727 1.000000
tan 0.024180 0.859322 -0.484345 1.000000
tan 0.055614 0.823609 -0.502573 1.000000
tan 0.076260 0.872962 -0.427181 1.000000
tan 0.041540 0.796887 -0.539835 1.000000
tan 0.133672 0.823175 -0.471945 1.000000
tan 0.041788 0.801971 -0.541881 1.000000
tan 0.176204 0.780085 -0.520181 1.000000
tan 0.106888 0.819269 -0.479633 1.000000
tan 0.102424 0.836320 -0.441007 1.000000
tan 0.223324 0.789199 -0.508711 1.000000
tan 0.074834 0.917726 -0.312667 1.000000
tan 0.094860 0.898258 -0.331515 1.000000
tan 0.168640 0.841341 -0.393391 1.000000
tan 0.123008 0.895654 -0.369025 1.000000
tan 0.280365 0.786843 -0.497799 1.000000
tan 0.346643 0.718767 -0.550127 1.000000
tan 0.314155 0.771777 -0.513423 1.000000
tan 0.203732 0.825717 -0.446091 1.000000
f 3/3/3 2/2/2 1/1/1
f 2/2/2 3/3/3 4/4/4
f 5/5/5 3/3/3 1/1/1
f 6/6/6 4/4/4 3/3/3
f 6/6/6 7/7/7 4/4/4
f 7/7/7 6/6/6 8/8/8
f 3/3/3 5/5/5 9/9/9
f 9/9/9 6/6/6 3/3/3
f 10/10/10 8/8/8 6/6/6
f 6/6/6 9/9/9 10/10/10
f 11/11/11 8/8/8 10/10/10
f 8/8/8 11/11/11 12/12/12
f 13/13/13 10/10/10 9/9/9
f 10/10/10 13/13/13 11/11/11
f 14/14/14 9/9/9 5/5/5
f 9/9/9 14/14/14 13/13/13
f 5/5/5 15/15/15 14/14/14
f 16/16/16 12/12/12 11/11/11
f 12/12/12 16/16/16 17/17/17
f 18/18/18 14/14/14 15/15/15
f 15/15/15 19/19/19 18/18/18
f 20/20/20 13/13/13 14/14/14
f 14/14/14 18/18/18 20/20/20
f 21/21/21 11/11/11 13/13/13
f 13/13/13 20/20/20 21/21/21
f 11/11/11 21/21/21 16/16/16
f 22/22/22 20/20/20 18/18/18
f 20/20/20 22/22/22 21/21/21
f 23/23/23 18/18/18 19/19/19
f 19/19/19 24/24/24 23/23/23
f 18/18/18 25/25/25 22/22/22
f 18/18/18 23/23/23 25/25/25
f 26/26/26 23/23/23 24/24/24
f 24/24/24 27/27/27 26/26/26
f 26/26/26 27/27/27 28/28/28
f 29/29/29 25/25/25 23/23/23
f 23/23/23 26/26/26 29/29/29
f 28/28/28 30/30/30 26/26/26
f 28/28/28 31/31/31 30/30/30
f 32/32/32 29/29/29 26/26/26
f 26/26/26 30/30/30 32/32/32
f 25/25/25 29/29/29 33/33/33
f 22/22/22 25/25/25 33/33/33
f 29/29/29 32/32/32 34/34/34
f 34/34/34 33/33/33 29/29/29
f 35/35/35 32/32/32 30/30/30
f 22/22/22 33/33/33 36/36/36
f 36/36/36 21/21/21 22/22/22
f 31/31/31 37/37/37 30/30/30
f 30/30/30 37/37/37 35/35/35
f 31/31/31 38/38/38 37/37/37
f 31/31/31 39/39/39 38/38/38
f 35/35/35 37/37/37 40/40/40
f 41/41/41 38/38/38 39/39/39
f 39/39/39 42/42/42 41/41/41
f 37/37/37 38/38/38 43/43/43
f 43/43/43 40/40/40 37/37/37
f 38/38/38 41/41/41 44/44/44
f 44/44/44 43/43/43 38/38/38
f 45/45/45 41/41/41 42/42/42
f 42/42/42 46/46/46 45/45/45
f 45/45/45 46/46/46 47/47/47
f 47/47/47 46/46/46 48/48/48
f 49/49/49 41/41/41 45/45/45
f 45/45/45 47/47/47 49/49/49
f 47/47/47 48/48/48 50/50/50
f 50/50/50 48/48/48 51/51/51
f 47/47/47 50/50/50 52/52/52
f 51/51/51 52/52/52 50/50/50
f 52/52/52 49/49/49 47/47/47
f 52/52/52 51/51/51 53/53/53
f 53/53/53 54/54/54 52/52/52
f 52/52/52 54/54/54 49/49/49
f 53/53/53 55/55/55 54/54/54
f 49/49/49 56/56/56 41/41/41
f 54/54/54 56/56/56 49/49/49
f 56/56/56 44/44/44 41/41/41
f 55/55/55 57/57/57 54/54/54
f 54/54/54 57/57/57 56/56/56
f 55/55/55 58/58/58 57/57/57
f 55/55/55 59/59/59 58/58/58
f 57/57/57 60/60/60 56/56/56
f 57/57/57 58/58/58 60/60/60
f 56/56/56 60/60/60 44/44/44
f 58/58/58 59/59/59 61/61/61
f 58/58/58 61/61/61 60/60/60
f 60/60/60 62/62/62 44/44/44
f 60/60/60 61/61/61 62/62/62
f 44/44/44 62/62/62 43/43/43
f 59/59/59 63/63/63 61/61/61
f 59/59/59 64/64/64 63/63/63
f 61/61/61 65/65/65 62/62/62
f 61/61/61 63/63/63 65/65/65
f 62/62/62 66/66/66 43/43/43
f 62/62/62 65/65/65 66/66/66
f 66/66/66 67/67/67 43/43/43
f 43/43/43 67/67/67 40/40/40
f 65/65/65 68/68/68 66/66/66
f 67/67/67 66/66/66 68/68/68
f 63/63/63 69/69/69 65/65/65
f 68/68/68 65/65/65 69/69/69
f 64/64/64 70/70/70 63/63/63
f 64/64/64 71/71/71 70/70/70
f 69/69/69 63/63/63 72/72/72
f 70/70/70 72/72/72 63/63/63
f 71/71/71 73/73/73 70/70/70
f 70/70/70 73/73/73 72/72/72
f 71/71/71 74/74/74 73/73/73
f 75/75/75 74/74/74 71/71/71
f 75/75/75 76/76/76 74/74/74
f 74/74/74 77/77/77 73/73/73
f 74/74/74 76/76/76 77/77/77
f 73/73/73 78/78/78 72/72/72
f 78/78/78 73/73/73 77/77/77
f 72/72/72 79/79/79 69/69/69
f 79/79/79 72/72/72 78/78/78
f 79/79/79 80/80/80 69/69/69
f 68/68/68 69/69/69 80/80/80
f 78/78/78 81/81/81 79/79/79
f 80/80/80 79/79/79 81/81/81
f 77/77/77 82/82/82 78/78/78
f 81/81/81 78/78/78 82/82/82
f 82/82/82 77/77/77 83/83/83
f 76/76/76 83/83/83 77/77/77
f 82/82/82 84/84/84 81/81/81
f 83/83/83 85/85/85 82/82/82
f 84/84/84 82/82/82 85/85/85
f 83/83/83 76/76/76 86/86/86
f 83/83/83 87/87/87 85/85/85
f 86/86/86 87/87/87 83/83/83
f 88/88/88 86/86/86 76/76/76
f 89/89/89 88/88/88 76/76/76
f 88/88/88 89/89/89 90/90/90
f 86/86/86 88/88/88 91/91/91
f 90/90/90 91/91/91 88/88/88
f 86/86/86 92/92/92 87/87/87
f 91/91/91 92/92/92 86/86/86
f 91/91/91 90/90/90 93/93/93
f 94/94/94 93/93/93 90/90/90
f 93/93/93 95/95/95 91/91/91
f 91/91/91 95/95/95 92/92/92
f 93/93/93 94/94/94 96/96/96
f 95/95/95 93/93/93 96/96/96
f 97/97/97 96/96/96 94/94/94
f 95/95/95 98/98/98 92/92/92
f 96/96/96 99/99/99 95/95/95
f 95/95/95 99/99/99 98/98/98
f 92/92/92 98/98/98 100/100/100
f 92/92/92 100/100/100 87/87/87
f 98/98/98 99/99/99 101/101/101
f 98/98/98 101/101/101 100/100/100
f 87/87/87 100/100/100 102/102/102
f 87/87/87 102/102/102 85/85/85
f 100/100/100 101/101/101 103/103/103
f 100/100/100 103/103/103 102/102/102
f 85/85/85 102/102/102 104/104/104
f 85/85/85 104/104/104 84/84/84
f 102/102/102 103/103/103 105/105/105
f 102/102/102 105/105/105 104/104/104
f 101/101/101 106/106/106 103/103/103
f 104/104/104 105/105/105 107/107/107
f 103/103/103 106/106/106 108/108/108
f 103/103/103 108/108/108 105/105/105
f 104/104/104 107/107/107 109/109/109
f 109/109/109 84/84/84 104/104/104
f 107/107/107 105/105/105 110/110/110
f 107/107/107 110/110/110 109/109/109
f 105/105/105 108/108/108 111/111/111
f 105/105/105 111/111/111 110/110/110
f 84/84/84 109/109/109 112/112/112
f 112/112/112 81/81/81 84/84/84
f 81/81/81 112/112/112 80/80/80
f 113/113/113 109/109/109 110/110/110
f 114/114/114 112/112/112 109/109/109
f 109/109/109 113/113/113 114/114/114
f 115/115/115 80/80/80 112/112/112
f 112/112/112 114/114/114 115/115/115
f 110/110/110 116/116/116 113/113/113
f 110/110/110 111/111/111 116/116/116
f 117/117/117 114/114/114 113/113/113
f 118/118/118 113/113/113 116/116/116
f 113/113/113 118/118/118 117/117/117
f 111/111/111 119/119/119 116/116/116
f 114/114/114 117/117/117 120/120/120
f 120/120/120 115/115/115 114/114/114
f 116/116/116 121/121/121 118/118/118
f 116/116/116 119/119/119 121/121/121
f 122/122/122 117/117/117 118/118/118
f 123/123/123 118/118/118 121/121/121
f 118/118/118 123/123/123 122/122/122
f 117/117/117 122/122/122 124/124/124
f 124/124/124 120/120/120 117/117/117
f 125/125/125 122/122/122 123/123/123
f 126/126/126 124/124/124 122/122/122
f 122/122/122 125/125/125 126/126/126
f 120/120/120 124/124/124 127/127/127
f 124/124/124 126/126/126 127/127/127
f 115/115/115 120/120/120 128/128/128
f 127/127/127 128/128/128 120/120/120
f 128/128/128 129/129/129 115/115/115
f 80/80/80 115/115/115 129/129/129
f 129/129/129 68/68/68 80/80/80
f 68/68/68 129/129/129 67/67/67
f 130/130/130 67/67/67 129/129/129
f 129/129/129 128/128/128 130/130/130
f 67/67/67 130/130/130 40/40/40
f 131/131/131 130/130/130 128/128/128
f 128/128/128 127/127/127 131/131/131
f 132/132/132 40/40/40 130/130/130
f 130/130/130 131/131/131 132/132/132
f 133/133/133 40/40/40 132/132/132
f 40/40/40 133/133/133 35/35/35
f 134/134/134 132/132/132 131/131/131
f 133/133/133 135/135/135 35/35/35
f 32/32/32 35/35/35 135/135/135
f 132/132/132 136/136/136 133/133/133
f 135/135/135 133/133/133 136/136/136
f 136/136/136 132/132/132 134/134/134
f 135/135/135 34/34/34 32/32/32
f 136/136/136 137/137/137 135/135/135
f 34/34/34 135/135/135 137/137/137
f 134/134/134 137/137/137 136/136/136
f 131/131/131 138/138/138 134/134/134
f 138/138/138 131/131/131 127/127/127
f 138/138/138 139/139/139 134/134/134
f 137/137/137 134/134/134 139/139/139
f 127/127/127 140/140/140 138/138/138
f 139/139/139 138/138/138 140/140/140
f 140/140/140 127/127/127 126/126/126
f 139/139/139 141/141/141 137/137/137
f 126/126/126 142/142/142 140/140/140
f 142/142/142 126/126/126 125/125/125
f 140/140/140 143/143/143 139/139/139
f 143/143/143 140/140/140 142/142/142
f 141/141/141 139/139/139 143/143/143
f 125/125/125 144/144/144 142/142/142
f 142/142/142 145/145/145 143/143/143
f 145/145/145 142/142/142 144/144/144
f 143/143/143 146/146/146 141/141/141
f 146/146/146 143/143/143 145/145/145
f 147/147/147 137/137/137 141/141/141
f 34/34/34 137/137/137 147/147/147
f 148/148/148 141/141/141 146/146/146
f 141/141/141 148/148/148 147/147/147
f 149/149/149 34/34/34 147/147/147
f 33/33/33 34/34/34 149/149/149
f 147/147/147 150/150/150 149/149/149
f 33/33/33 149/149/149 150/150/150
f 150/150/150 147/147/147 148/148/148
f 150/150/150 36/36/36 33/33/33
f 148/148/148 151/151/151 150/150/150
f 36/36/36 150/150/150 151/151/151
f 146/146/146 152/152/152 148/148/148
f 151/151/151 148/148/148 152/152/152
f 151/151/151 153/153/153 36/36/36
f 21/21/21 36/36/36 153/153/153
f 153/153/153 16/16/16 21/21/21
f 153/153/153 151/151/151 154/154/154
f 152/152/152 154/154/154 151/151/151
f 16/16/16 153/153/153 155/155/155
f 154/154/154 155/155/155 153/153/153
f 155/155/155 17/17/17 16/16/16
f 17/17/17 155/155/155 156/156/156
f 155/155/155 154/154/154 156/156/156
f 157/157/157 156/156/156 154/154/154
f 154/154/154 152/152/152 157/157/157
f 156/156/156 157/157/157 158/158/158
f 152/152/152 146/146/146 159/159/159
f 159/159/159 157/157/157 152/152/152
f 145/145/145 159/159/159 146/146/146
f 160/160/160 158/158/158 157/157/157
f 157/157/157 159/159/159 160/160/160
f 158/158/158 160/160/160 161/161/161
f 159/159/159 145/145/145 162/162/162
f 144/144/144 162/162/162 145/145/145
f 163/163/163 160/160/160 159/159/159
f 162/162/162 163/163/163 159/159/159
f 164/164/164 161/161/161 160/160/160
f 160/160/160 163/163/163 164/164/164
f 163/163/163 162/162/162 165/165/165
f 165/165/165 164/164/164 163/163/163
f 162/162/162 144/144/144 166/166/166
f 166/166/166 165/165/165 162/162/162
f 161/161/161 164/164/164 167/167/167
f 164/164/164 165/165/165 167/167/167
f 167/167/167 168/168/168 161/161/161
f 167/167/167 169/169/169 168/168/168
f 165/165/165 166/166/166 170/170/170
f 170/170/170 167/167/167 165/165/165
f 171/171/171 166/166/166 144/144/144
f 166/166/166 171/171/171 170/170/170
f 144/144/144 125/125/125 171/171/171
f 123/123/123 171/171/171 125/125/125
f 171/171/171 123/123/123 172/172/172
f 172/172/172 170/170/170 171/171/171
f 121/121/121 172/172/172 123/123/123
f 121/121/121 173/173/173 172/172/172
f 119/119/119 173/173/173 121/121/121
f 172/172/172 174/174/174 170/170/170
f 173/173/173 174/174/174 172/172/172
f 174/174/174 175/175/175 170/170/170
f 119/119/119 176/176/176 173/173/173
f 175/175/175 177/177/177 170/170/170
f 170/170/170 177/177/177 167/167/167
f 173/173/173 178/178/178 174/174/174
f 176/176/176 178/178/178 173/173/173
f 174/174/174 179/179/179 175/175/175
f 178/178/178 179/179/179 174/174/174
f 175/175/175 180/180/180 177/177/177
f 179/179/179 180/180/180 175/175/175
f 177/177/177 181/181/181 167/167/167
f 181/181/181 169/169/169 167/167/167
f 177/177/177 182/182/182 181/181/181
f 180/180/180 182/182/182 177/177/177
f 181/181/181 183/183/183 169/169/169
f 182/182/182 183/183/183 181/181/181
f 183/183/183 184/184/184 169/169/169
f 180/180/180 185/185/185 182/182/182
f 182/182/182 185/185/185 183/183/183
f 183/183/183 186/186/186 184/184/184
f 185/185/185 186/186/186 183/183/183
f 186/186/186 187/187/187 184/184/184
f 188/188/188 185/185/185 180/180/180
f 179/179/179 188/188/188 180/180/180
f 185/185/185 189/189/189 186/186/186
f 190/190/190 188/188/188 179/179/179
f 178/178/178 190/190/190 179/179/179
f 188/188/188 191/191/191 185/185/185
f 191/191/191 189/189/189 185/185/185
f 190/190/190 192/192/192 188/188/188
f 192/192/192 191/191/191 188/188/188
f 193/193/193 190/190/190 178/178/178
f 176/176/176 193/193/193 178/178/178
f 194/194/194 192/192/192 190/190/190
f 193/193/193 194/194/194 190/190/190
f 192/192/192 195/195/195 191/191/191
f 194/194/194 196/196/196 192/192/192
f 196/196/196 195/195/195 192/192/192
f 195/195/195 197/197/197 191/191/191
f 191/191/191 197/197/197 189/189/189
f 196/196/196 198/198/198 195/195/195
f 195/195/195 199/199/199 197/197/197
f 198/198/198 199/199/199 195/195/195
f 197/197/197 200/200/200 189/189/189
f 199/199/199 201/201/201 197/197/197
f 197/197/197 201/201/201 200/200/200
f 189/189/189 200/200/200 202/202/202
f 189/189/189 202/202/202 186/186/186
f 186/186/186 202/202/202 187/187/187
f 202/202/202 203/203/203 187/187/187
f 203/203/203 204/204/204 187/187/187
f 200/200/200 205/205/205 202/202/202
f 202/202/202 205/205/205 203/203/203
f 203/203/203 206/206/206 204/204/204
f 205/205/205 206/206/206 203/203/203
f 206/206/206 207/207/207 204/204/204
f 200/200/200 208/208/208 205/205/205
f 201/201/201 208/208/208 200/200/200
f 205/205/205 209/209/209 206/206/206
f 208/208/208 209/209/209 205/205/205
f 206/206/206 210/210/210 207/207/207
f 209/209/209 210/210/210 206/206/206
f 210/210/210 211/211/211 207/207/207
f 208/208/208 212/212/212 209/209/209
f 210/210/210 213/213/213 211/211/211
f 209/209/209 214/214/214 210/210/210
f 214/214/214 213/213/213 210/210/210
f 212/212/212 215/215/215 209/209/209
f 215/215/215 214/214/214 209/209/209
f 213/213/213 216/216/216 211/211/211
f 216/216/216 217/217/217 211/211/211
f 216/216/216 218/218/218 217/217/217
f 214/214/214 219/219/219 213/213/213
f 219/219/219 216/216/216 213/213/213
f 220/220/220 218/218/218 216/216/216
f 219/219/219 220/220/220 216/216/216
f 220/220/220 221/221/221 218/218/218
f 221/221/221 222/222/222 218/218/218
f 222/222/222 221/221/221 223/223/223
f 221/221/221 224/224/224 223/223/223
f 225/225/225 221/221/221 220/220/220
f 225/225/225 224/224/224 221/221/221
f 219/219/219 225/225/225 220/220/220
f 226/226/226 224/224/224 225/225/225
f 226/226/226 225/225/225 219/219/219
f 226/226/226 219/219/219 214/214/214
f 215/215/215 226/226/226 214/214/214
f 224/224/224 226/226/226 227/227/227
f 226/226/226 215/215/215 228/228/228
f 228/228/228 227/227/227 226/226/226
f 212/212/212 228/228/228 215/215/215
f 228/228/228 229/229/229 227/227/227
f 228/228/228 212/212/212 230/230/230
f 228/228/228 231/231/231 229/229/229
f 228/228/228 230/230/230 231/231/231
f 231/231/231 232/232/232 229/229/229
f 230/230/230 212/212/212 233/233/233
f 233/233/233 212/212/212 208/208/208
f 201/201/201 233/233/233 208/208/208
f 234/234/234 231/231/231 230/230/230
f 230/230/230 233/233/233 234/234/234
f 231/231/231 235/235/235 232/232/232
f 231/231/231 234/234/234 235/235/235
f 235/235/235 236/236/236 232/232/232
f 235/235/235 237/237/237 236/236/236
f 238/238/238 233/233/233 201/201/201
f 199/199/199 238/238/238 201/201/201
f 239/239/239 233/233/233 238/238/238
f 239/239/239 238/238/238 199/199/199
f 239/239/239 234/234/234 233/233/233
f 198/198/198 239/239/239 199/199/199
f 234/234/234 239/239/239 240/240/240
f 240/240/240 235/235/235 234/234/234
f 241/241/241 239/239/239 198/198/198
f 241/241/241 240/240/240 239/239/239
f 235/235/235 242/242/242 237/237/237
f 235/235/235 240/240/240 242/242/242
f 243/243/243 237/237/237 242/242/242
f 244/244/244 242/242/242 240/240/240
f 240/240/240 241/241/241 244/244/244
f 242/242/242 245/245/245 243/243/243
f 244/244/244 245/245/245 242/242/242
f 245/245/245 246/246/246 243/243/243
f 247/247/247 243/243/243 246/246/246
f 248/248/248 245/245/245 244/244/244
f 249/249/249 247/247/247 246/246/246
f 249/249/249 250/250/250 247/247/247
f 251/251/251 246/246/246 245/245/245
f 248/248/248 251/251/251 245/245/245
f 252/252/252 249/249/249 246/246/246
f 252/252/252 246/246/246 251/251/251
f 253/253/253 250/250/250 249/249/249
f 254/254/254 250/250/250 253/253/253
f 252/252/252 255/255/255 249/249/249
f 253/253/253 256/256/256 254/254/254
f 256/256/256 257/257/257 254/254/254
f 257/257/257 256/256/256 258/258/258
f 249/249/249 259/259/259 253/253/253
f 259/259/259 249/249/249 255/255/255
f 256/256/256 253/253/253 260/260/260
f 260/260/260 253/253/253 259/259/259
f 261/261/261 258/258/258 256/256/256
f 256/256/256 260/260/260 261/261/261
f 259/259/259 261/261/261 260/260/260
f 258/258/258 261/261/261 262/262/262
f 261/261/261 259/259/259 263/263/263
f 263/263/263 262/262/262 261/261/261
f 255/255/255 263/263/263 259/259/259
f 262/262/262 263/263/263 264/264/264
f 263/263/263 255/255/255 265/265/265
f 265/265/265 264/264/264 263/263/263
f 266/266/266 265/265/265 255/255/255
f 255/255/255 252/252/252 266/266/266
f 267/267/267 264/264/264 265/265/265
f 265/265/265 266/266/266 267/267/267
f 264/264/264 267/267/267 97/97/97
f 268/268/268 266/266/266 252/252/252
f 252/252/252 251/251/251 268/268/268
f 269/269/269 267/267/267 266/266/266
f 267/267/267 269/269/269 97/97/97
f 266/266/266 268/268/268 269/269/269
f 96/96/96 97/97/97 269/269/269
f 269/269/269 270/270/270 96/96/96
f 270/270/270 269/269/269 268/268/268
f 99/99/99 96/96/96 270/270/270
f 271/271/271 268/268/268 251/251/251
f 268/268/268 271/271/271 270/270/270
f 270/270/270 272/272/272 99/99/99
f 270/270/270 271/271/271 272/272/272
f 99/99/99 272/272/272 101/101/101
f 273/273/273 271/271/271 251/251/251
f 271/271/271 273/273/273 272/272/272
f 251/251/251 248/248/248 273/273/273
f 272/272/272 274/274/274 101/101/101
f 272/272/272 273/273/273 274/274/274
f 101/101/101 274/274/274 106/106/106
f 273/273/273 275/275/275 274/274/274
f 275/275/275 273/273/273 248/248/248
f 274/274/274 276/276/276 106/106/106
f 274/274/274 275/275/275 276/276/276
f 106/106/106 276/276/276 277/277/277
f 106/106/106 277/277/277 108/108/108
f 275/275/275 278/278/278 276/276/276
f 108/108/108 277/277/277 279/279/279
f 108/108/108 279/279/279 111/111/111
f 111/111/111 279/279/279 119/119/119
f 279/279/279 176/176/176 119/119/119
f 279/279/279 280/280/280 176/176/176
f 277/277/277 280/280/280 279/279/279
f 280/280/280 193/193/193 176/176/176
f 276/276/276 281/281/281 277/277/277
f 277/277/277 281/281/281 280/280/280
f 280/280/280 281/281/281 193/193/193
f 276/276/276 278/278/278 281/281/281
f 281/281/281 194/194/194 193/193/193
f 281/281/281 282/282/282 194/194/194
f 278/278/278 282/282/282 281/281/281
f 282/282/282 196/196/196 194/194/194
f 282/282/282 283/283/283 196/196/196
f 278/278/278 283/283/283 282/282/282
f 283/283/283 198/198/198 196/196/196
f 284/284/284 283/283/283 278/278/278
f 275/275/275 284/284/284 278/278/278
f 248/248/248 284/284/284 275/275/275
f 283/283/283 285/285/285 198/198/198
f 284/284/284 285/285/285 283/283/283
f 285/285/285 241/241/241 198/198/198
f 248/248/248 286/286/286 284/284/284
f 284/284/284 286/286/286 285/285/285
f 286/286/286 241/241/241 285/285/285
f 248/248/248 244/244/244 286/286/286
f 286/286/286 244/244/244 241/241/241
