mtllib SM_Sail_LOD3@000002909DC07900.mtl
g SM_Sail_LOD3@000002909DC07900
#Vertices 151
#Indices 765
#Section 0 Offset 0 NumIndices 765 MaterialIndex 0 MM_WindySail
v 124.259674 82.550117 -0.801363 0.000000 0.000000 1.000000 1.000000
v 153.188644 69.853973 18.277891 0.000000 0.000000 1.000000 1.000000
v 160.886795 86.316933 10.315219 0.000000 0.000000 1.000000 1.000000
v 100.968178 71.586739 -4.524606 0.000000 0.000000 1.000000 1.000000
v 85.367706 75.781303 -11.646219 0.000000 0.000000 1.000000 1.000000
v 117.864952 65.192017 5.570249 0.000000 0.000000 1.000000 1.000000
v 144.485016 51.194824 25.664070 0.000000 0.000000 1.000000 1.000000
v 82.081551 60.341728 -9.287083 0.000000 0.000000 1.000000 1.000000
v 70.254768 72.595810 -15.249100 0.000000 0.000000 1.000000 1.000000
v 129.649384 45.125664 21.080780 0.000000 0.000000 1.000000 1.000000
v 137.783096 33.119606 29.652494 0.000000 0.000000 1.000000 1.000000
v 97.162079 54.852234 -0.519107 0.000000 0.000000 1.000000 1.000000
v 116.947166 33.053699 18.925776 0.000000 0.000000 1.000000 1.000000
v 68.917122 57.516895 -13.930374 0.000000 0.000000 1.000000 1.000000
v 56.531311 69.840279 -18.035595 0.000000 0.000000 1.000000 1.000000
v 79.888687 46.436054 -7.395590 0.000000 0.000000 1.000000 1.000000
v 90.203156 39.783989 0.106743 0.000000 0.000000 1.000000 1.000000
v 55.480618 54.402534 -18.031933 0.000000 0.000000 1.000000 1.000000
v 37.820858 66.382347 -20.836121 0.000000 0.000000 1.000000 1.000000
v 67.626221 38.384132 -12.714534 0.000000 0.000000 1.000000 1.000000
v 78.396217 24.547161 -4.459010 0.000000 0.000000 1.000000 1.000000
v 99.381767 21.737349 11.061449 0.000000 0.000000 1.000000 1.000000
v 114.196503 7.554731 24.233263 0.000000 0.000000 1.000000 1.000000
v 134.314148 9.945501 33.861160 0.000000 0.000000 1.000000 1.000000
v 96.716377 1.610704 14.624774 0.000000 0.000000 1.000000 1.000000
v 122.566597 -17.922726 38.136494 0.000000 0.000000 1.000000 1.000000
v 138.247375 -11.166193 43.855152 0.000000 0.000000 1.000000 1.000000
v 143.626831 -25.218487 49.724293 0.000000 0.000000 1.000000 1.000000
v 97.012283 -23.966604 24.643955 0.000000 0.000000 1.000000 1.000000
v 61.280315 -5.251363 -10.025046 0.000000 0.000000 1.000000 1.000000
v 94.559410 -31.924068 25.375566 0.000000 0.000000 1.000000 1.000000
v 67.073044 20.882332 -11.354080 0.000000 0.000000 1.000000 1.000000
v 73.113152 -30.528324 10.405732 0.000000 0.000000 1.000000 1.000000
v 54.950283 34.228035 -18.262741 0.000000 0.000000 1.000000 1.000000
v 46.846756 6.975220 -21.267649 0.000000 0.000000 1.000000 1.000000
v 41.844555 51.554520 -21.390045 0.000000 0.000000 1.000000 1.000000
v 42.009197 28.691063 -23.260006 0.000000 0.000000 1.000000 1.000000
v 27.712589 46.077316 -24.350384 0.000000 0.000000 1.000000 1.000000
v 15.232941 63.730370 -22.614508 0.000000 0.000000 1.000000 1.000000
v 28.494961 14.186470 -28.400049 0.000000 0.000000 1.000000 1.000000
v 12.290654 16.414106 -31.253223 0.000000 0.000000 1.000000 1.000000
v 0.000012 63.093590 -23.009779 0.000000 0.000000 1.000000 1.000000
v 26.614601 -3.641981 -27.592150 0.000000 0.000000 1.000000 1.000000
v 13.326843 3.829400 -31.545794 0.000000 0.000000 1.000000 1.000000
v 0.000002 15.888798 -32.169033 0.000000 0.000000 1.000000 1.000000
v 40.578815 -11.478077 -19.538343 0.000000 0.000000 1.000000 1.000000
v 13.941307 -7.229032 -29.902218 0.000000 0.000000 1.000000 1.000000
v 53.890816 -18.123259 -8.953635 0.000000 0.000000 1.000000 1.000000
v 27.733418 -16.622522 -22.616932 0.000000 0.000000 1.000000 1.000000
v 44.225903 -25.139320 -10.556467 0.000000 0.000000 1.000000 1.000000
v 0.000004 -0.552498 -32.424313 0.000000 0.000000 1.000000 1.000000
v 14.095064 -17.527466 -25.965322 0.000000 0.000000 1.000000 1.000000
v 0.000003 -13.309196 -29.233292 0.000000 0.000000 1.000000 1.000000
v -13.326835 3.829394 -31.545794 0.000000 0.000000 1.000000 1.000000
v -13.941298 -7.229027 -29.902218 0.000000 0.000000 1.000000 1.000000
v -12.290662 16.414103 -31.253220 0.000000 0.000000 1.000000 1.000000
v -15.232955 63.730370 -22.614508 0.000000 0.000000 1.000000 1.000000
v -27.712578 46.077278 -24.350388 0.000000 0.000000 1.000000 1.000000
v -37.820866 66.382355 -20.836117 0.000000 0.000000 1.000000 1.000000
v -28.494951 14.186482 -28.400051 0.000000 0.000000 1.000000 1.000000
v -26.614599 -3.641956 -27.592154 0.000000 0.000000 1.000000 1.000000
v -42.009212 28.691147 -23.259989 0.000000 0.000000 1.000000 1.000000
v -41.844566 51.554554 -21.390038 0.000000 0.000000 1.000000 1.000000
v -55.480579 54.402515 -18.031939 0.000000 0.000000 1.000000 1.000000
v -56.531296 69.840286 -18.035591 0.000000 0.000000 1.000000 1.000000
v -54.950306 34.228157 -18.262726 0.000000 0.000000 1.000000 1.000000
v -46.846142 6.975096 -21.267916 0.000000 0.000000 1.000000 1.000000
v -68.917114 57.517185 -13.930404 0.000000 0.000000 1.000000 1.000000
v -70.250168 72.595131 -15.250488 0.000000 0.000000 1.000000 1.000000
v -67.626396 38.384480 -12.714478 0.000000 0.000000 1.000000 1.000000
v -67.073410 20.885447 -11.354180 0.000000 0.000000 1.000000 1.000000
v -82.007759 60.181931 -9.288203 0.000000 0.000000 1.000000 1.000000
v -85.190842 75.754913 -11.688443 0.000000 0.000000 1.000000 1.000000
v -84.336327 43.424397 -4.554776 0.000000 0.000000 1.000000 1.000000
v -78.395058 24.551651 -4.460135 0.000000 0.000000 1.000000 1.000000
v -97.027664 68.760933 -5.269364 0.000000 0.000000 1.000000 1.000000
v -123.001991 82.336380 -0.997503 0.000000 0.000000 1.000000 1.000000
v -97.167488 54.894268 -0.527866 0.000000 0.000000 1.000000 1.000000
v -120.162323 63.940861 7.349762 0.000000 0.000000 1.000000 1.000000
v -160.852692 86.313957 10.305924 0.000000 0.000000 1.000000 1.000000
v -153.299072 70.173569 18.135305 0.000000 0.000000 1.000000 1.000000
v -146.260574 55.164127 24.286436 0.000000 0.000000 1.000000 1.000000
v -140.551682 41.694939 28.250273 0.000000 0.000000 1.000000 1.000000
v -117.052330 32.829735 19.065067 0.000000 0.000000 1.000000 1.000000
v -136.624023 27.696283 30.465483 0.000000 0.000000 1.000000 1.000000
v -99.358345 21.754622 11.044953 0.000000 0.000000 1.000000 1.000000
v -114.087166 7.601180 24.157946 0.000000 0.000000 1.000000 1.000000
v -134.341995 9.539339 34.020294 0.000000 0.000000 1.000000 1.000000
v -61.170811 -5.381478 -10.067661 0.000000 0.000000 1.000000 1.000000
v -96.701294 1.606788 14.618895 0.000000 0.000000 1.000000 1.000000
v -102.799294 -17.389015 26.123476 0.000000 0.000000 1.000000 1.000000
v -40.578789 -11.478089 -19.538347 0.000000 0.000000 1.000000 1.000000
v -90.858650 -28.940525 22.051390 0.000000 0.000000 1.000000 1.000000
v -123.193779 -16.740377 38.078175 0.000000 0.000000 1.000000 1.000000
v -138.222748 -11.164846 43.842152 0.000000 0.000000 1.000000 1.000000
v -143.528168 -25.043007 49.646412 0.000000 0.000000 1.000000 1.000000
v -103.533981 -50.406864 35.545475 0.000000 0.000000 1.000000 1.000000
v -150.449036 -40.570362 54.027687 0.000000 0.000000 1.000000 1.000000
v -94.178131 -42.112103 28.510456 0.000000 0.000000 1.000000 1.000000
v -77.083603 -39.216579 17.357403 0.000000 0.000000 1.000000 1.000000
v -81.677620 -54.341267 26.611483 0.000000 0.000000 1.000000 1.000000
v -104.956367 -56.069557 37.708187 0.000000 0.000000 1.000000 1.000000
v -134.691116 -59.042789 49.355705 0.000000 0.000000 1.000000 1.000000
v -160.816406 -64.749634 57.999512 0.000000 0.000000 1.000000 1.000000
v -111.288055 -68.916862 42.769318 0.000000 0.000000 1.000000 1.000000
v -89.980377 -64.033531 33.847458 0.000000 0.000000 1.000000 1.000000
v -77.388718 -69.611969 31.748856 0.000000 0.000000 1.000000 1.000000
v -68.788742 -61.565208 24.957060 0.000000 0.000000 1.000000 1.000000
v -56.883038 -69.393196 25.980297 0.000000 0.000000 1.000000 1.000000
v -67.112701 -49.788254 17.629431 0.000000 0.000000 1.000000 1.000000
v -54.769932 -56.132000 16.497416 0.000000 0.000000 1.000000 1.000000
v -43.015507 -69.019348 22.853445 0.000000 0.000000 1.000000 1.000000
v -55.436546 -41.125797 6.201774 0.000000 0.000000 1.000000 1.000000
v -41.454948 -52.490353 9.229129 0.000000 0.000000 1.000000 1.000000
v -29.806938 -68.547615 20.618143 0.000000 0.000000 1.000000 1.000000
v -44.237484 -25.130407 -10.556624 0.000000 0.000000 1.000000 1.000000
v -28.725838 -50.054688 3.611452 0.000000 0.000000 1.000000 1.000000
v -15.677919 -68.179947 18.984505 0.000000 0.000000 1.000000 1.000000
v -42.643616 -38.141968 -2.032865 0.000000 0.000000 1.000000 1.000000
v -12.831743 -37.367619 -11.621166 0.000000 0.000000 1.000000 1.000000
v 0.058370 -68.014999 18.319601 0.000000 0.000000 1.000000 1.000000
v -26.495886 -29.437160 -15.215794 0.000000 0.000000 1.000000 1.000000
v -0.004668 -34.679935 -15.348248 0.000000 0.000000 1.000000 1.000000
v -13.935543 -27.132874 -20.062925 0.000000 0.000000 1.000000 1.000000
v 12.778215 -37.474346 -11.541325 0.000000 0.000000 1.000000 1.000000
v 15.536497 -68.163292 18.985710 0.000000 0.000000 1.000000 1.000000
v 0.000005 -23.046928 -24.222616 0.000000 0.000000 1.000000 1.000000
v 28.727047 -50.170387 3.714838 0.000000 0.000000 1.000000 1.000000
v 29.811857 -68.547585 20.619020 0.000000 0.000000 1.000000 1.000000
v 13.935555 -27.132866 -20.062929 0.000000 0.000000 1.000000 1.000000
v 26.497149 -29.444450 -15.210503 0.000000 0.000000 1.000000 1.000000
v 41.455116 -52.490452 9.229229 0.000000 0.000000 1.000000 1.000000
v 43.015385 -69.019341 22.853407 0.000000 0.000000 1.000000 1.000000
v -14.095056 -17.527449 -25.965334 0.000000 0.000000 1.000000 1.000000
v -27.733410 -16.622492 -22.616943 0.000000 0.000000 1.000000 1.000000
v -53.890869 -18.123169 -8.953648 0.000000 0.000000 1.000000 1.000000
v 42.642742 -38.141117 -2.033906 0.000000 0.000000 1.000000 1.000000
v 55.436314 -41.126007 6.201818 0.000000 0.000000 1.000000 1.000000
v 78.914719 -41.001560 19.234341 0.000000 0.000000 1.000000 1.000000
v 54.769955 -56.131966 16.497402 0.000000 0.000000 1.000000 1.000000
v 56.883041 -69.393181 25.980291 0.000000 0.000000 1.000000 1.000000
v 67.112587 -49.788635 17.629602 0.000000 0.000000 1.000000 1.000000
v 68.788185 -61.566135 24.957371 0.000000 0.000000 1.000000 1.000000
v 89.515488 -69.603790 35.618732 0.000000 0.000000 1.000000 1.000000
v 83.598701 -55.883698 28.130665 0.000000 0.000000 1.000000 1.000000
v 95.072899 -45.476963 30.065914 0.000000 0.000000 1.000000 1.000000
v 115.004684 -57.735558 42.035793 0.000000 0.000000 1.000000 1.000000
v 132.304977 -67.422340 49.231743 0.000000 0.000000 1.000000 1.000000
v 115.232994 -47.315571 40.312828 0.000000 0.000000 1.000000 1.000000
v 150.342392 -40.183929 53.787716 0.000000 0.000000 1.000000 1.000000
v 160.845734 -64.746368 58.016262 0.000000 0.000000 1.000000 1.000000
vt -15.656250 -9.710938
vt -19.890625 -7.937500
vt -20.265625 -10.414062
vt -12.820312 -8.335938
vt -10.703125 -9.070312
vt -15.226562 -7.320312
vt -19.265625 -5.187500
vt -10.359375 -7.140625
vt -8.757812 -8.843750
vt -17.296875 -4.390625
vt -18.593750 -2.609375
vt -12.507812 -6.191406
vt -15.656250 -2.873047
vt -8.578125 -6.972656
vt -6.972656 -8.664062
vt -10.117188 -5.394531
vt -11.648438 -4.328125
vt -6.777344 -6.773438
vt -4.511719 -8.468750
vt -8.375000 -4.601562
vt -9.906250 -2.632812
vt -13.093750 -1.730469
vt -15.281250 0.537109
vt -18.109375 0.651855
vt -12.679688 0.882812
vt -16.421875 4.324219
vt -18.625000 3.853516
vt -19.171875 5.960938
vt -12.703125 4.398438
vt -7.289062 0.741943
vt -12.250000 5.386719
vt -8.226562 -2.429688
vt -9.117188 4.566406
vt -6.601562 -4.296875
vt -5.312500 -1.103516
vt -4.957031 -6.593750
vt -4.832031 -3.796875
vt -3.072266 -6.066406
vt -1.498047 -8.351562
vt -2.980469 -2.195312
vt -0.970215 -2.542969
vt 0.548340 -8.304688
vt -2.667969 -0.091797
vt -1.059570 -1.080078
vt 0.549805 -2.519531
vt -4.457031 1.095886
vt -1.115234 0.233887
vt -6.296875 2.288086
vt -2.816406 1.560547
vt -5.000000 3.033203
vt 0.550781 -0.602539
vt -1.139648 1.527344
vt 0.551270 0.934326
vt 2.160156 -1.082031
vt 2.216797 0.231934
vt 2.068359 -2.544922
vt 2.595703 -8.351562
vt 4.167969 -6.070312
vt 5.609375 -8.476562
vt 4.078125 -2.199219
vt 3.769531 -0.095703
vt 5.929688 -3.804688
vt 6.054688 -6.601562
vt 7.875000 -6.781250
vt 8.070312 -8.671875
vt 7.703125 -4.304688
vt 6.414062 -1.109375
vt 9.679688 -6.984375
vt 9.851562 -8.851562
vt 9.468750 -4.613281
vt 9.328125 -2.441406
vt 11.453125 -7.132812
vt 11.789062 -9.085938
vt 11.859375 -4.945312
vt 11.007812 -2.644531
vt 13.421875 -8.039062
vt 16.609375 -9.695312
vt 13.609375 -6.210938
vt 16.671875 -7.140625
vt 21.375000 -10.414062
vt 21.000000 -7.992188
vt 20.515625 -5.769531
vt 20.000000 -3.804688
vt 16.765625 -2.853516
vt 19.531250 -1.876953
vt 14.187500 -1.746094
vt 16.359375 0.510254
vt 19.203125 0.691406
vt 8.375000 0.747070
vt 13.781250 0.868896
vt 14.687500 3.660156
vt 5.562500 1.090698
vt 12.859375 4.865234
vt 17.609375 4.156250
vt 19.734375 3.824219
vt 20.265625 5.902344
vt 14.382812 8.011719
vt 20.796875 8.101562
vt 13.210938 6.714844
vt 10.812500 5.882812
vt 11.382812 8.078125
vt 14.492188 8.800781
vt 18.250000 9.914062
vt 21.343750 11.445312
vt 15.085938 10.546875
vt 12.414062 9.523438
vt 10.734375 10.093750
vt 9.632812 8.871094
vt 8.070312 9.882812
vt 9.406250 7.160156
vt 7.753906 7.890625
vt 6.257812 9.781250
vt 7.765625 5.640625
vt 5.960938 7.164062
vt 4.519531 9.703125
vt 6.105469 3.027344
vt 4.269531 6.640625
vt 2.648438 9.648438
vt 6.007812 4.931641
vt 2.156250 4.408203
vt 0.549805 9.617188
vt 3.826172 3.324219
vt 0.553711 3.919922
vt 2.250000 2.851562
vt -1.043945 4.429688
vt -1.511719 9.648438
vt 0.552246 2.213867
vt -3.158203 6.664062
vt -3.404297 9.710938
vt -1.143555 2.853516
vt -2.720703 3.328125
vt -4.847656 7.167969
vt -5.140625 9.781250
vt 2.242188 1.525879
vt 3.919922 1.557129
vt 7.398438 2.281250
vt -4.898438 4.935547
vt -6.656250 5.644531
vt -9.945312 6.191406
vt -6.640625 7.894531
vt -6.953125 9.890625
vt -8.296875 7.167969
vt -8.515625 8.878906
vt -11.179688 10.250000
vt -10.523438 8.328125
vt -12.187500 7.199219
vt -14.648438 9.257812
vt -16.609375 10.921875
vt -14.890625 7.945312
vt -19.671875 8.101562
vt -20.203125 11.492188
vt1 -15.656250 -9.710938
vt1 -19.890625 -7.937500
vt1 -20.265625 -10.414062
vt1 -12.820312 -8.335938
vt1 -10.703125 -9.070312
vt1 -15.226562 -7.320312
vt1 -19.265625 -5.187500
vt1 -10.359375 -7.140625
vt1 -8.757812 -8.843750
vt1 -17.296875 -4.390625
vt1 -18.593750 -2.609375
vt1 -12.507812 -6.191406
vt1 -15.656250 -2.873047
vt1 -8.578125 -6.972656
vt1 -6.972656 -8.664062
vt1 -10.117188 -5.394531
vt1 -11.648438 -4.328125
vt1 -6.777344 -6.773438
vt1 -4.511719 -8.468750
vt1 -8.375000 -4.601562
vt1 -9.906250 -2.632812
vt1 -13.093750 -1.730469
vt1 -15.281250 0.537109
vt1 -18.109375 0.651855
vt1 -12.679688 0.882812
vt1 -16.421875 4.324219
vt1 -18.625000 3.853516
vt1 -19.171875 5.960938
vt1 -12.703125 4.398438
vt1 -7.289062 0.741943
vt1 -12.250000 5.386719
vt1 -8.226562 -2.429688
vt1 -9.117188 4.566406
vt1 -6.601562 -4.296875
vt1 -5.312500 -1.103516
vt1 -4.957031 -6.593750
vt1 -4.832031 -3.796875
vt1 -3.072266 -6.066406
vt1 -1.498047 -8.351562
vt1 -2.980469 -2.195312
vt1 -0.970215 -2.542969
vt1 0.548340 -8.304688
vt1 -2.667969 -0.091797
vt1 -1.059570 -1.080078
vt1 0.549805 -2.519531
vt1 -4.457031 1.095886
vt1 -1.115234 0.233887
vt1 -6.296875 2.288086
vt1 -2.816406 1.560547
vt1 -5.000000 3.033203
vt1 0.550781 -0.602539
vt1 -1.139648 1.527344
vt1 0.551270 0.934326
vt1 2.160156 -1.082031
vt1 2.216797 0.231934
vt1 2.068359 -2.544922
vt1 2.595703 -8.351562
vt1 4.167969 -6.070312
vt1 5.609375 -8.476562
vt1 4.078125 -2.199219
vt1 3.769531 -0.095703
vt1 5.929688 -3.804688
vt1 6.054688 -6.601562
vt1 7.875000 -6.781250
vt1 8.070312 -8.671875
vt1 7.703125 -4.304688
vt1 6.414062 -1.109375
vt1 9.679688 -6.984375
vt1 9.851562 -8.851562
vt1 9.468750 -4.613281
vt1 9.328125 -2.441406
vt1 11.453125 -7.132812
vt1 11.789062 -9.085938
vt1 11.859375 -4.945312
vt1 11.007812 -2.644531
vt1 13.421875 -8.039062
vt1 16.609375 -9.695312
vt1 13.609375 -6.210938
vt1 16.671875 -7.140625
vt1 21.375000 -10.414062
vt1 21.000000 -7.992188
vt1 20.515625 -5.769531
vt1 20.000000 -3.804688
vt1 16.765625 -2.853516
vt1 19.531250 -1.876953
vt1 14.187500 -1.746094
vt1 16.359375 0.510254
vt1 19.203125 0.691406
vt1 8.375000 0.747070
vt1 13.781250 0.868896
vt1 14.687500 3.660156
vt1 5.562500 1.090698
vt1 12.859375 4.865234
vt1 17.609375 4.156250
vt1 19.734375 3.824219
vt1 20.265625 5.902344
vt1 14.382812 8.011719
vt1 20.796875 8.101562
vt1 13.210938 6.714844
vt1 10.812500 5.882812
vt1 11.382812 8.078125
vt1 14.492188 8.800781
vt1 18.250000 9.914062
vt1 21.343750 11.445312
vt1 15.085938 10.546875
vt1 12.414062 9.523438
vt1 10.734375 10.093750
vt1 9.632812 8.871094
vt1 8.070312 9.882812
vt1 9.406250 7.160156
vt1 7.753906 7.890625
vt1 6.257812 9.781250
vt1 7.765625 5.640625
vt1 5.960938 7.164062
vt1 4.519531 9.703125
vt1 6.105469 3.027344
vt1 4.269531 6.640625
vt1 2.648438 9.648438
vt1 6.007812 4.931641
vt1 2.156250 4.408203
vt1 0.549805 9.617188
vt1 3.826172 3.324219
vt1 0.553711 3.919922
vt1 2.250000 2.851562
vt1 -1.043945 4.429688
vt1 -1.511719 9.648438
vt1 0.552246 2.213867
vt1 -3.158203 6.664062
vt1 -3.404297 9.710938
vt1 -1.143555 2.853516
vt1 -2.720703 3.328125
vt1 -4.847656 7.167969
vt1 -5.140625 9.781250
vt1 2.242188 1.525879
vt1 3.919922 1.557129
vt1 7.398438 2.281250
vt1 -4.898438 4.935547
vt1 -6.656250 5.644531
vt1 -9.945312 6.191406
vt1 -6.640625 7.894531
vt1 -6.953125 9.890625
vt1 -8.296875 7.167969
vt1 -8.515625 8.878906
vt1 -11.179688 10.250000
vt1 -10.523438 8.328125
vt1 -12.187500 7.199219
vt1 -14.648438 9.257812
vt1 -16.609375 10.921875
vt1 -14.890625 7.945312
vt1 -19.671875 8.101562
vt1 -20.203125 11.492188
vn 0.307087 -0.433071 -0.850394
vn 0.338583 -0.527559 -0.779527
vn 0.291339 -0.535433 -0.795275
vn 0.362205 -0.330709 -0.874016
vn 0.291339 -0.220473 -0.929134
vn 0.385827 -0.409449 -0.826771
vn 0.401575 -0.425197 -0.811023
vn 0.377953 -0.188976 -0.905512
vn 0.244094 -0.110236 -0.960630
vn 0.425197 -0.362205 -0.826771
vn 0.440945 -0.244095 -0.866142
vn 0.448819 -0.291339 -0.842520
vn 0.472441 -0.267717 -0.834646
vn 0.330709 -0.102362 -0.937008
vn 0.188976 -0.015748 -0.984252
vn 0.448819 -0.157480 -0.874016
vn 0.519685 -0.220473 -0.826772
vn 0.267717 -0.007874 -0.960630
vn 0.110236 0.086614 -0.992126
vn 0.433071 -0.078740 -0.897638
vn 0.551181 -0.149606 -0.826772
vn 0.559055 -0.204724 -0.803149
vn 0.480315 -0.259843 -0.842520
vn 0.433071 -0.299213 -0.850394
vn 0.574803 -0.267717 -0.771653
vn 0.456693 -0.251969 -0.850394
vn 0.440945 -0.275591 -0.858268
vn 0.409449 -0.133858 -0.905512
vn 0.551181 -0.299213 -0.779527
vn 0.559055 -0.259843 -0.787401
vn 0.519685 -0.267717 -0.811023
vn 0.519685 -0.110236 -0.850394
vn 0.511811 -0.393701 -0.763779
vn 0.377953 -0.000000 -0.929134
vn 0.440945 -0.102362 -0.889764
vn 0.196850 0.070866 -0.976378
vn 0.307087 0.070866 -0.952756
vn 0.141732 0.133858 -0.984252
vn 0.039370 0.165354 -0.984252
vn 0.259843 0.055118 -0.960630
vn 0.110236 0.141732 -0.984252
vn 0.000000 0.188976 -0.984252
vn 0.291339 -0.196850 -0.937008
vn 0.149606 -0.055118 -0.984252
vn 0.000000 0.141732 -0.992126
vn 0.409449 -0.338583 -0.850394
vn 0.173228 -0.244095 -0.952756
vn 0.480315 -0.393701 -0.779527
vn 0.299213 -0.417323 -0.858268
vn 0.401575 -0.496063 -0.763779
vn 0.000000 -0.110236 -0.992126
vn 0.165354 -0.440945 -0.881890
vn 0.000000 -0.362205 -0.929134
vn -0.149606 -0.055118 -0.984252
vn -0.173228 -0.244095 -0.952756
vn -0.110236 0.141732 -0.984252
vn -0.039370 0.165354 -0.984252
vn -0.141732 0.133858 -0.984252
vn -0.110236 0.086614 -0.992126
vn -0.259843 0.055118 -0.960630
vn -0.291339 -0.196850 -0.937008
vn -0.307087 0.070866 -0.952756
vn -0.196850 0.070866 -0.976378
vn -0.267717 -0.007874 -0.960630
vn -0.188976 -0.015748 -0.984252
vn -0.377953 -0.000000 -0.929134
vn -0.440945 -0.102362 -0.889764
vn -0.330709 -0.102362 -0.937008
vn -0.244094 -0.110236 -0.960630
vn -0.433071 -0.078740 -0.897638
vn -0.519685 -0.110236 -0.850394
vn -0.377953 -0.188976 -0.905512
vn -0.291339 -0.212599 -0.929134
vn -0.503937 -0.196850 -0.842520
vn -0.551181 -0.149606 -0.826772
vn -0.370079 -0.299213 -0.881890
vn -0.307087 -0.433071 -0.850394
vn -0.448819 -0.291339 -0.842520
vn -0.385827 -0.417323 -0.826771
vn -0.291339 -0.535433 -0.787401
vn -0.338583 -0.527559 -0.779527
vn -0.385827 -0.448819 -0.803149
vn -0.425197 -0.370079 -0.826771
vn -0.472441 -0.267717 -0.842520
vn -0.440945 -0.220473 -0.874016
vn -0.559055 -0.204724 -0.803149
vn -0.480315 -0.259843 -0.842520
vn -0.433071 -0.299213 -0.850394
vn -0.559055 -0.259843 -0.787401
vn -0.574803 -0.267717 -0.771653
vn -0.527559 -0.283465 -0.795275
vn -0.409449 -0.338583 -0.850394
vn -0.543307 -0.307087 -0.779527
vn -0.456693 -0.251969 -0.850394
vn -0.440945 -0.275591 -0.858268
vn -0.409449 -0.133858 -0.905512
vn -0.417323 -0.196850 -0.889764
vn -0.354331 -0.039370 -0.929134
vn -0.472441 -0.267717 -0.842520
vn -0.480315 -0.401575 -0.779527
vn -0.385827 -0.362205 -0.850394
vn -0.385827 -0.212599 -0.897638
vn -0.330709 -0.070866 -0.944882
vn -0.291339 -0.007874 -0.952756
vn -0.307087 -0.196850 -0.929134
vn -0.338583 -0.314961 -0.889764
vn -0.267717 -0.417323 -0.866142
vn -0.299213 -0.456693 -0.834646
vn -0.196850 -0.543307 -0.818897
vn -0.377953 -0.464567 -0.803149
vn -0.275591 -0.543307 -0.795275
vn -0.141732 -0.614173 -0.779527
vn -0.377953 -0.527559 -0.763779
vn -0.228346 -0.614173 -0.755905
vn -0.094488 -0.661417 -0.740157
vn -0.401575 -0.496063 -0.763779
vn -0.173228 -0.661417 -0.724409
vn -0.047244 -0.692913 -0.716535
vn -0.322835 -0.582677 -0.748031
vn -0.110236 -0.685039 -0.716535
vn 0.000000 -0.708661 -0.700787
vn -0.251969 -0.590551 -0.771653
vn 0.000000 -0.677165 -0.732283
vn -0.149606 -0.582677 -0.803149
vn 0.110236 -0.685039 -0.716535
vn 0.047244 -0.700787 -0.716535
vn 0.000000 -0.535433 -0.850394
vn 0.173228 -0.661417 -0.732283
vn 0.094488 -0.661417 -0.740157
vn 0.149606 -0.582677 -0.803149
vn 0.251969 -0.590551 -0.771653
vn 0.228346 -0.614173 -0.755905
vn 0.141732 -0.614173 -0.779527
vn -0.165354 -0.440945 -0.881890
vn -0.299213 -0.417323 -0.858268
vn -0.480315 -0.393701 -0.779527
vn 0.322835 -0.582677 -0.748031
vn 0.377953 -0.527559 -0.763779
vn 0.464567 -0.377953 -0.803149
vn 0.275591 -0.543307 -0.795275
vn 0.196850 -0.543307 -0.818897
vn 0.377953 -0.464567 -0.803149
vn 0.299213 -0.456693 -0.834646
vn 0.299213 -0.322835 -0.897638
vn 0.385827 -0.346457 -0.858268
vn 0.456693 -0.259843 -0.850394
vn 0.362205 -0.157480 -0.921260
vn 0.299213 -0.102362 -0.944882
vn 0.401575 -0.149606 -0.905512
vn 0.362205 -0.039370 -0.929134
vn 0.291339 -0.007874 -0.960630
tan 0.000000 0.850394 -0.433071 1.000000
tan 0.016430 0.782193 -0.522227 1.000000
tan 0.012524 0.795275 -0.530845 1.000000
tan -0.066216 0.876868 -0.359229 1.000000
tan -0.087792 0.921818 -0.246265 1.000000
tan -0.042346 0.829809 -0.430715 1.000000
tan 0.000310 0.817347 -0.428359 1.000000
tan -0.118234 0.904334 -0.238081 1.000000
tan -0.105896 0.953066 -0.136276 1.000000
tan -0.065906 0.826957 -0.396181 1.000000
tan -0.120838 0.862794 -0.304669 1.000000
tan -0.139066 0.839854 -0.364499 1.000000
tan -0.199516 0.815798 -0.374605 1.000000
tan -0.131998 0.932234 -0.148428 1.000000
tan -0.108500 0.976502 -0.036456 1.000000
tan -0.187736 0.867506 -0.252713 1.000000
tan -0.290781 0.788641 -0.393081 1.000000
tan -0.121024 0.953066 -0.041540 1.000000
tan -0.093744 0.984314 0.075516 1.000000
tan -0.203732 0.883254 -0.175770 1.000000
tan -0.299523 0.809411 -0.346147 1.000000
tan -0.322153 0.780085 -0.423089 1.000000
tan -0.336289 0.773327 -0.430219 1.000000
tan -0.241056 0.816913 -0.410193 1.000000
tan -0.426437 0.675615 -0.552049 1.000000
tan -0.348193 0.776737 -0.417137 1.000000
tan -0.322215 0.800917 -0.422717 1.000000
tan -0.456321 0.784301 -0.322277 1.000000
tan -0.400893 0.687147 -0.547213 1.000000
tan -0.558063 0.565007 -0.582677 1.000000
tan -0.228098 0.825407 -0.418625 1.000000
tan -0.275157 0.832166 -0.276025 1.000000
tan -0.176204 0.780085 -0.520181 1.000000
tan -0.153636 0.917478 -0.062496 1.000000
tan -0.259223 0.847728 -0.225991 1.000000
tan -0.099944 0.968690 0.050158 1.000000
tan -0.120032 0.945254 0.031620 1.000000
tan -0.069750 0.984252 0.123814 1.000000
tan -0.046500 0.984252 0.163494 1.000000
tan -0.090768 0.953066 0.030132 1.000000
tan -0.031000 0.984252 0.138260 1.000000
tan 0.000000 0.984252 0.188976 1.000000
tan -0.095914 0.929630 -0.225123 1.000000
tan -0.038750 0.984252 -0.061008 1.000000
tan 0.000000 0.992126 0.141732 1.000000
tan -0.129952 0.849898 -0.400955 1.000000
tan -0.045012 0.952756 -0.252279 1.000000
tan -0.116126 0.815487 -0.483415 1.000000
tan -0.064480 0.858578 -0.439953 1.000000
tan -0.052948 0.783061 -0.536425 1.000000
tan 0.000000 0.992126 -0.110236 1.000000
tan -0.031248 0.883192 -0.447455 1.000000
tan 0.000000 0.929134 -0.362205 1.000000
tan 0.038750 0.984252 -0.061008 1.000000
tan 0.045012 0.952756 -0.252279 1.000000
tan 0.031000 0.984252 0.138260 1.000000
tan 0.038750 0.984252 0.163804 1.000000
tan 0.069750 0.984252 0.123814 1.000000
tan 0.093744 0.984314 0.075516 1.000000
tan 0.090768 0.953066 0.030132 1.000000
tan 0.095914 0.929630 -0.225123 1.000000
tan 0.120032 0.945254 0.031620 1.000000
tan 0.099944 0.968690 0.050158 1.000000
tan 0.121024 0.953066 -0.041540 1.000000
tan 0.108500 0.976502 -0.036456 1.000000
tan 0.153636 0.917478 -0.062496 1.000000
tan 0.259223 0.854734 -0.226797 1.000000
tan 0.124620 0.932234 -0.145824 1.000000
tan 0.105896 0.953066 -0.136276 1.000000
tan 0.203732 0.883254 -0.175770 1.000000
tan 0.275157 0.832166 -0.276025 1.000000
tan 0.118234 0.904334 -0.238081 1.000000
tan 0.087792 0.921818 -0.238453 1.000000
tan 0.315333 0.790749 -0.373365 1.000000
tan 0.293013 0.809411 -0.341807 1.000000
tan 0.078616 0.880774 -0.331825 1.000000
tan 0.006696 0.850394 -0.435489 1.000000
tan 0.139066 0.839854 -0.364499 1.000000
tan 0.042284 0.829809 -0.438589 1.000000
tan -0.012400 0.787401 -0.530845 1.000000
tan -0.016430 0.782193 -0.522227 1.000000
tan -0.021204 0.821377 -0.448819 1.000000
tan 0.042656 0.830119 -0.393515 1.000000
tan 0.208072 0.823424 -0.378325 1.000000
tan 0.142786 0.863724 -0.289913 1.000000
tan 0.315829 0.780085 -0.418687 1.000000
tan 0.329655 0.779961 -0.428483 1.000000
tan 0.241056 0.816913 -0.410193 1.000000
tan 0.551863 0.565007 -0.578275 1.000000
tan 0.426437 0.675615 -0.552049 1.000000
tan 0.263501 0.784611 -0.454461 1.000000
tan 0.129952 0.849898 -0.400955 1.000000
tan 0.367351 0.709405 -0.535495 1.000000
tan 0.348193 0.776737 -0.417137 1.000000
tan 0.315457 0.800917 -0.419245 1.000000
tan 0.442061 0.791431 -0.316883 1.000000
tan 0.271685 0.851014 -0.315705 1.000000
tan 0.446277 0.812077 -0.204600 1.000000
tan 0.219542 0.831670 -0.387377 1.000000
tan 0.168330 0.773885 -0.502387 1.000000
tan 0.110112 0.855230 -0.414223 1.000000
tan 0.217434 0.872404 -0.300081 1.000000
tan 0.297601 0.900242 -0.171678 1.000000
tan 0.442619 0.847728 -0.142352 1.000000
tan 0.190216 0.907186 -0.255069 1.000000
tan 0.123628 0.885424 -0.360469 1.000000
tan 0.047740 0.866142 -0.432079 1.000000
tan 0.048360 0.841714 -0.477897 1.000000
tan 0.008618 0.820447 -0.546407 1.000000
tan 0.055614 0.823609 -0.502573 1.000000
tan 0.013888 0.810465 -0.558497 1.000000
tan 0.000000 0.779527 -0.614173 1.000000
tan 0.041230 0.775621 -0.556141 1.000000
tan -0.006324 0.764895 -0.619567 1.000000
tan -0.005208 0.740901 -0.661417 1.000000
tan 0.052948 0.783061 -0.536425 1.000000
tan -0.009920 0.728501 -0.662781 1.000000
tan -0.005456 0.716907 -0.692913 1.000000
tan 0.009114 0.765825 -0.600471 1.000000
tan -0.005146 0.718271 -0.685907 1.000000
tan 0.000000 0.700787 -0.708661 1.000000
tan 0.010354 0.777605 -0.598487 1.000000
tan 0.000000 0.732283 -0.677165 1.000000
tan 0.005208 0.806683 -0.586211 1.000000
tan 0.005146 0.718271 -0.685907 1.000000
tan 0.000000 0.716535 -0.700787 1.000000
tan 0.000000 0.850394 -0.535433 1.000000
tan 0.009858 0.736375 -0.662781 1.000000
tan 0.005208 0.740901 -0.661417 1.000000
tan -0.005208 0.806683 -0.586211 1.000000
tan -0.010354 0.777605 -0.598487 1.000000
tan 0.006324 0.764895 -0.619567 1.000000
tan 0.000000 0.779527 -0.614173 1.000000
tan 0.031248 0.883192 -0.447455 1.000000
tan 0.064480 0.858578 -0.439953 1.000000
tan 0.106888 0.819269 -0.479633 1.000000
tan -0.009114 0.765825 -0.600471 1.000000
tan -0.041230 0.775621 -0.556141 1.000000
tan -0.156612 0.810775 -0.472131 1.000000
tan -0.013888 0.810465 -0.558497 1.000000
tan -0.008618 0.820447 -0.546407 1.000000
tan -0.055614 0.823609 -0.502573 1.000000
tan -0.048360 0.841714 -0.477897 1.000000
tan -0.098952 0.890570 -0.353277 1.000000
tan -0.120218 0.860624 -0.401451 1.000000
tan -0.243660 0.817410 -0.380619 1.000000
tan -0.261144 0.884990 -0.253953 1.000000
tan -0.275281 0.900242 -0.184698 1.000000
tan -0.306591 0.848471 -0.276149 1.000000
tan -0.468225 0.804761 -0.216628 1.000000
tan -0.446277 0.847170 -0.142290 1.000000
f 3/3/3 2/2/2 1/1/1
f 4/4/4 1/1/1 2/2/2
f 1/1/1 4/4/4 5/5/5
f 6/6/6 4/4/4 2/2/2
f 2/2/2 7/7/7 6/6/6
f 8/8/8 5/5/5 4/4/4
f 5/5/5 8/8/8 9/9/9
f 10/10/10 6/6/6 7/7/7
f 7/7/7 11/11/11 10/10/10
f 12/12/12 4/4/4 6/6/6
f 6/6/6 10/10/10 12/12/12
f 4/4/4 12/12/12 8/8/8
f 13/13/13 10/10/10 11/11/11
f 10/10/10 13/13/13 12/12/12
f 14/14/14 9/9/9 8/8/8
f 9/9/9 14/14/14 15/15/15
f 16/16/16 8/8/8 12/12/12
f 8/8/8 16/16/16 14/14/14
f 12/12/12 13/13/13 17/17/17
f 12/12/12 17/17/17 16/16/16
f 18/18/18 15/15/15 14/14/14
f 15/15/15 18/18/18 19/19/19
f 20/20/20 14/14/14 16/16/16
f 14/14/14 20/20/20 18/18/18
f 21/21/21 16/16/16 17/17/17
f 16/16/16 21/21/21 20/20/20
f 22/22/22 17/17/17 13/13/13
f 17/17/17 22/22/22 21/21/21
f 23/23/23 13/13/13 11/11/11
f 13/13/13 23/23/23 22/22/22
f 11/11/11 24/24/24 23/23/23
f 25/25/25 22/22/22 23/23/23
f 24/24/24 26/26/26 23/23/23
f 24/24/24 27/27/27 26/26/26
f 27/27/27 28/28/28 26/26/26
f 23/23/23 29/29/29 25/25/25
f 29/29/29 23/23/23 26/26/26
f 22/22/22 25/25/25 30/30/30
f 25/25/25 29/29/29 30/30/30
f 22/22/22 30/30/30 21/21/21
f 29/29/29 26/26/26 31/31/31
f 21/21/21 30/30/30 32/32/32
f 32/32/32 20/20/20 21/21/21
f 29/29/29 31/31/31 33/33/33
f 33/33/33 30/30/30 29/29/29
f 20/20/20 32/32/32 34/34/34
f 34/34/34 18/18/18 20/20/20
f 32/32/32 30/30/30 35/35/35
f 35/35/35 34/34/34 32/32/32
f 18/18/18 34/34/34 36/36/36
f 36/36/36 19/19/19 18/18/18
f 37/37/37 36/36/36 34/34/34
f 34/34/34 35/35/35 37/37/37
f 38/38/38 19/19/19 36/36/36
f 36/36/36 37/37/37 38/38/38
f 19/19/19 38/38/38 39/39/39
f 40/40/40 38/38/38 37/37/37
f 37/37/37 35/35/35 40/40/40
f 41/41/41 39/39/39 38/38/38
f 38/38/38 40/40/40 41/41/41
f 39/39/39 41/41/41 42/42/42
f 43/43/43 40/40/40 35/35/35
f 44/44/44 41/41/41 40/40/40
f 40/40/40 43/43/43 44/44/44
f 45/45/45 42/42/42 41/41/41
f 41/41/41 44/44/44 45/45/45
f 35/35/35 46/46/46 43/43/43
f 46/46/46 35/35/35 30/30/30
f 47/47/47 44/44/44 43/43/43
f 30/30/30 48/48/48 46/46/46
f 30/30/30 33/33/33 48/48/48
f 49/49/49 43/43/43 46/46/46
f 43/43/43 49/49/49 47/47/47
f 50/50/50 46/46/46 48/48/48
f 50/50/50 48/48/48 33/33/33
f 46/46/46 50/50/50 49/49/49
f 44/44/44 47/47/47 51/51/51
f 51/51/51 45/45/45 44/44/44
f 52/52/52 47/47/47 49/49/49
f 53/53/53 51/51/51 47/47/47
f 47/47/47 52/52/52 53/53/53
f 51/51/51 54/54/54 45/45/45
f 53/53/53 55/55/55 51/51/51
f 55/55/55 54/54/54 51/51/51
f 45/45/45 56/56/56 42/42/42
f 54/54/54 56/56/56 45/45/45
f 56/56/56 57/57/57 42/42/42
f 56/56/56 58/58/58 57/57/57
f 58/58/58 59/59/59 57/57/57
f 54/54/54 60/60/60 56/56/56
f 60/60/60 58/58/58 56/56/56
f 61/61/61 60/60/60 54/54/54
f 55/55/55 61/61/61 54/54/54
f 60/60/60 62/62/62 58/58/58
f 58/58/58 63/63/63 59/59/59
f 62/62/62 63/63/63 58/58/58
f 63/63/63 64/64/64 59/59/59
f 64/64/64 65/65/65 59/59/59
f 62/62/62 66/66/66 63/63/63
f 66/66/66 64/64/64 63/63/63
f 67/67/67 62/62/62 60/60/60
f 67/67/67 66/66/66 62/62/62
f 61/61/61 67/67/67 60/60/60
f 64/64/64 68/68/68 65/65/65
f 68/68/68 69/69/69 65/65/65
f 66/66/66 70/70/70 64/64/64
f 70/70/70 68/68/68 64/64/64
f 67/67/67 71/71/71 66/66/66
f 71/71/71 70/70/70 66/66/66
f 68/68/68 72/72/72 69/69/69
f 72/72/72 73/73/73 69/69/69
f 70/70/70 74/74/74 68/68/68
f 74/74/74 72/72/72 68/68/68
f 71/71/71 75/75/75 70/70/70
f 75/75/75 74/74/74 70/70/70
f 72/72/72 76/76/76 73/73/73
f 76/76/76 77/77/77 73/73/73
f 78/78/78 76/76/76 72/72/72
f 74/74/74 78/78/78 72/72/72
f 76/76/76 79/79/79 77/77/77
f 78/78/78 79/79/79 76/76/76
f 81/81/81 80/80/80 77/77/77
f 79/79/79 81/81/81 77/77/77
f 79/79/79 82/82/82 81/81/81
f 82/82/82 79/79/79 83/83/83
f 79/79/79 78/78/78 83/83/83
f 83/83/83 78/78/78 84/84/84
f 84/84/84 78/78/78 74/74/74
f 84/84/84 85/85/85 83/83/83
f 86/86/86 84/84/84 74/74/74
f 86/86/86 74/74/74 75/75/75
f 84/84/84 87/87/87 85/85/85
f 84/84/84 86/86/86 87/87/87
f 87/87/87 88/88/88 85/85/85
f 89/89/89 86/86/86 75/75/75
f 89/89/89 75/75/75 71/71/71
f 89/89/89 71/71/71 67/67/67
f 90/90/90 87/87/87 86/86/86
f 90/90/90 86/86/86 89/89/89
f 87/87/87 90/90/90 91/91/91
f 92/92/92 89/89/89 67/67/67
f 92/92/92 67/67/67 61/61/61
f 93/93/93 91/91/91 90/90/90
f 93/93/93 90/90/90 89/89/89
f 91/91/91 94/94/94 87/87/87
f 87/87/87 94/94/94 88/88/88
f 93/93/93 94/94/94 91/91/91
f 95/95/95 88/88/88 94/94/94
f 96/96/96 95/95/95 94/94/94
f 97/97/97 96/96/96 94/94/94
f 98/98/98 96/96/96 97/97/97
f 93/93/93 99/99/99 94/94/94
f 97/97/97 94/94/94 99/99/99
f 99/99/99 93/93/93 100/100/100
f 100/100/100 93/93/93 89/89/89
f 97/97/97 99/99/99 101/101/101
f 100/100/100 101/101/101 99/99/99
f 97/97/97 102/102/102 98/98/98
f 102/102/102 97/97/97 101/101/101
f 103/103/103 98/98/98 102/102/102
f 103/103/103 104/104/104 98/98/98
f 104/104/104 103/103/103 105/105/105
f 103/103/103 102/102/102 106/106/106
f 106/106/106 105/105/105 103/103/103
f 101/101/101 106/106/106 102/102/102
f 105/105/105 106/106/106 107/107/107
f 108/108/108 107/107/107 106/106/106
f 106/106/106 101/101/101 108/108/108
f 107/107/107 108/108/108 109/109/109
f 110/110/110 108/108/108 101/101/101
f 101/101/101 100/100/100 110/110/110
f 111/111/111 109/109/109 108/108/108
f 108/108/108 110/110/110 111/111/111
f 109/109/109 111/111/111 112/112/112
f 113/113/113 111/111/111 110/110/110
f 110/110/110 100/100/100 113/113/113
f 114/114/114 112/112/112 111/111/111
f 111/111/111 113/113/113 114/114/114
f 112/112/112 114/114/114 115/115/115
f 113/113/113 100/100/100 116/116/116
f 117/117/117 115/115/115 114/114/114
f 115/115/115 117/117/117 118/118/118
f 114/114/114 113/113/113 119/119/119
f 114/114/114 119/119/119 117/117/117
f 113/113/113 116/116/116 119/119/119
f 120/120/120 118/118/118 117/117/117
f 118/118/118 120/120/120 121/121/121
f 117/117/117 119/119/119 122/122/122
f 117/117/117 122/122/122 120/120/120
f 119/119/119 116/116/116 122/122/122
f 123/123/123 121/121/121 120/120/120
f 120/120/120 122/122/122 124/124/124
f 120/120/120 124/124/124 123/123/123
f 121/121/121 123/123/123 125/125/125
f 126/126/126 121/121/121 125/125/125
f 123/123/123 124/124/124 127/127/127
f 126/126/126 125/125/125 128/128/128
f 129/129/129 126/126/126 128/128/128
f 130/130/130 125/125/125 123/123/123
f 123/123/123 127/127/127 130/130/130
f 131/131/131 128/128/128 125/125/125
f 125/125/125 130/130/130 131/131/131
f 129/129/129 128/128/128 132/132/132
f 133/133/133 129/129/129 132/132/132
f 130/130/130 52/52/52 131/131/131
f 52/52/52 130/130/130 127/127/127
f 49/49/49 131/131/131 52/52/52
f 127/127/127 53/53/53 52/52/52
f 131/131/131 49/49/49 50/50/50
f 127/127/127 134/134/134 53/53/53
f 124/124/124 134/134/134 127/127/127
f 124/124/124 122/122/122 134/134/134
f 134/134/134 55/55/55 53/53/53
f 122/122/122 135/135/135 134/134/134
f 134/134/134 135/135/135 55/55/55
f 122/122/122 116/116/116 135/135/135
f 135/135/135 61/61/61 55/55/55
f 135/135/135 92/92/92 61/61/61
f 116/116/116 92/92/92 135/135/135
f 116/116/116 136/136/136 92/92/92
f 116/116/116 100/100/100 136/136/136
f 136/136/136 89/89/89 92/92/92
f 100/100/100 89/89/89 136/136/136
f 128/128/128 131/131/131 137/137/137
f 50/50/50 137/137/137 131/131/131
f 137/137/137 132/132/132 128/128/128
f 50/50/50 138/138/138 137/137/137
f 132/132/132 137/137/137 138/138/138
f 138/138/138 50/50/50 139/139/139
f 33/33/33 139/139/139 50/50/50
f 139/139/139 33/33/33 31/31/31
f 138/138/138 140/140/140 132/132/132
f 133/133/133 132/132/132 140/140/140
f 141/141/141 133/133/133 140/140/140
f 140/140/140 138/138/138 142/142/142
f 142/142/142 138/138/138 139/139/139
f 141/141/141 140/140/140 143/143/143
f 143/143/143 140/140/140 142/142/142
f 144/144/144 141/141/141 143/143/143
f 143/143/143 142/142/142 145/145/145
f 144/144/144 143/143/143 145/145/145
f 145/145/145 142/142/142 139/139/139
f 146/146/146 139/139/139 31/31/31
f 145/145/145 139/139/139 146/146/146
f 146/146/146 31/31/31 26/26/26
f 144/144/144 145/145/145 147/147/147
f 147/147/147 148/148/148 144/144/144
f 145/145/145 146/146/146 149/149/149
f 26/26/26 149/149/149 146/146/146
f 147/147/147 145/145/145 149/149/149
f 149/149/149 26/26/26 28/28/28
f 150/150/150 149/149/149 28/28/28
f 147/147/147 149/149/149 150/150/150
f 150/150/150 148/148/148 147/147/147
f 150/150/150 151/151/151 148/148/148
