mtllib SM_Stairs_LOD3@000002909DC06400.mtl
g SM_Stairs_LOD3@000002909DC06400
#Vertices 364
#Indices 864
#Section 0 Offset 0 NumIndices 594 MaterialIndex 0 MI_ConcreteTrim_A_03
#Section 1 Offset 594 NumIndices 6 MaterialIndex 2 MI_FloorTile_A_02
#Section 2 Offset 600 NumIndices 264 MaterialIndex 1 MI_ConcreteTile_A_03
v -5.272828 0.004561 -19.216413 0.000000 0.000000 1.000000 1.000000
v 5.314166 0.244584 -19.216412 0.000000 0.000000 1.000000 1.000000
v -5.272825 0.244585 -19.216413 0.000000 0.000000 1.000000 1.000000
v 5.314165 0.004560 -19.216413 0.000000 0.000000 1.000000 1.000000
v -5.272825 0.244585 -19.216413 0.000000 0.000000 1.000000 1.000000
v 5.314166 0.303431 -19.153826 0.000000 0.000000 1.000000 1.000000
v -5.272827 0.303432 -19.153826 0.000000 0.000000 1.000000 1.000000
v 5.314166 0.244584 -19.216412 0.000000 0.000000 1.000000 1.000000
v 5.314166 0.303431 -19.153826 0.000000 0.000000 1.000000 1.000000
v 5.314166 0.303431 -18.662977 0.000000 0.000000 1.000000 1.000000
v -5.272827 0.303432 -19.153826 0.000000 0.000000 1.000000 1.000000
v -5.272828 0.303432 -18.662979 0.019608 0.019608 1.000000 1.000000
v -5.272829 0.303432 -18.662981 0.019608 0.019608 1.000000 1.000000
v 5.314165 0.538849 -18.662981 0.000000 0.000000 1.000000 1.000000
v -5.272826 0.538850 -18.662979 0.015686 0.015686 1.000000 1.000000
v 5.314165 0.303431 -18.662981 0.000000 0.000000 1.000000 1.000000
v 5.314164 0.891961 -18.046961 0.000000 0.000000 1.000000 1.000000
v 5.314164 0.891961 -17.556116 0.000000 0.000000 1.000000 1.000000
v -5.272827 0.891962 -18.046963 0.000000 0.000000 1.000000 1.000000
v -5.272828 0.891962 -17.556116 0.000000 0.000000 1.000000 1.000000
v -5.272829 1.480492 -16.449255 0.000000 0.000000 1.000000 1.000000
v 5.314162 1.480490 -16.449255 0.000000 0.000000 1.000000 1.000000
v 5.314160 1.715908 -16.449255 0.000000 0.000000 1.000000 1.000000
v -5.272830 1.715909 -16.449255 0.000000 0.000000 1.000000 1.000000
v 5.314162 1.774313 -16.386669 0.000000 0.000000 1.000000 1.000000
v -5.272828 1.774314 -15.895821 0.000000 0.000000 1.000000 1.000000
v -5.272830 1.774314 -16.386669 0.000000 0.000000 1.000000 1.000000
v 5.314164 1.774313 -15.895821 0.000000 0.000000 1.000000 1.000000
v -5.272829 1.480492 -16.449255 0.000000 0.000000 1.000000 1.000000
v 5.314165 1.480490 -16.940100 0.000000 0.000000 1.000000 1.000000
v 5.314162 1.480490 -16.449255 0.000000 0.000000 1.000000 1.000000
v -5.272829 1.480491 -16.940102 0.000000 0.000000 1.000000 1.000000
v 5.314164 0.891961 -17.556116 0.000000 0.000000 1.000000 1.000000
v 5.314163 1.127379 -17.556116 0.000000 0.000000 1.000000 1.000000
v -5.272829 1.127379 -17.556116 0.000000 0.000000 1.000000 1.000000
v -5.272828 0.891962 -17.556116 0.000000 0.000000 1.000000 1.000000
v 5.314160 1.715908 -16.449255 0.000000 0.000000 1.000000 1.000000
v 5.314162 1.774313 -16.386669 0.000000 0.000000 1.000000 1.000000
v -5.272830 1.774314 -16.386669 0.000000 0.000000 1.000000 1.000000
v -5.272830 1.715909 -16.449255 0.000000 0.000000 1.000000 1.000000
v 5.314163 1.127379 -17.556116 0.000000 0.000000 1.000000 1.000000
v 5.314164 1.186226 -17.493528 0.000000 0.000000 1.000000 1.000000
v -5.272829 1.127379 -17.556116 0.000000 0.000000 1.000000 1.000000
v -5.272829 1.186227 -17.493528 0.000000 0.000000 1.000000 1.000000
v -5.272826 0.538850 -18.662979 0.015686 0.015686 1.000000 1.000000
v 5.314165 0.597696 -18.600395 0.000000 0.000000 1.000000 1.000000
v -5.272827 0.597697 -18.600393 0.011765 0.011765 1.000000 1.000000
v 5.314165 0.538849 -18.662981 0.000000 0.000000 1.000000 1.000000
v -5.272827 0.891962 -18.046963 0.000000 0.000000 1.000000 1.000000
v -5.272827 0.833115 -18.109549 0.000000 0.000000 1.000000 1.000000
v 5.314166 0.833114 -18.109549 0.000000 0.000000 1.000000 1.000000
v 5.314164 0.891961 -18.046961 0.000000 0.000000 1.000000 1.000000
v 5.314164 1.421643 -17.002687 0.000000 0.000000 1.000000 1.000000
v -5.272829 1.186226 -17.002689 0.000000 0.000000 1.000000 1.000000
v 5.314164 1.186226 -17.002686 0.000000 0.000000 1.000000 1.000000
v -5.272828 1.421644 -17.002687 0.000000 0.000000 1.000000 1.000000
v -5.272829 1.186226 -17.002689 0.000000 0.000000 1.000000 1.000000
v 5.314164 1.186226 -17.493528 0.000000 0.000000 1.000000 1.000000
v 5.314164 1.186226 -17.002686 0.000000 0.000000 1.000000 1.000000
v -5.272829 1.186227 -17.493528 0.000000 0.000000 1.000000 1.000000
v 5.314165 0.597696 -18.600395 0.000000 0.000000 1.000000 1.000000
v 5.314167 0.597696 -18.109549 0.000000 0.000000 1.000000 1.000000
v -5.272827 0.597697 -18.600393 0.011765 0.011765 1.000000 1.000000
v -5.272827 0.597697 -18.109549 0.000000 0.000000 1.000000 1.000000
v 5.314166 0.833114 -18.109549 0.000000 0.000000 1.000000 1.000000
v -5.272827 0.833115 -18.109549 0.000000 0.000000 1.000000 1.000000
v 5.314167 0.597696 -18.109549 0.000000 0.000000 1.000000 1.000000
v -5.272827 0.597697 -18.109549 0.000000 0.000000 1.000000 1.000000
v -5.272828 1.421644 -17.002687 0.000000 0.000000 1.000000 1.000000
v 5.314165 1.480490 -16.940100 0.000000 0.000000 1.000000 1.000000
v -5.272829 1.480491 -16.940102 0.000000 0.000000 1.000000 1.000000
v 5.314164 1.421643 -17.002687 0.000000 0.000000 1.000000 1.000000
v -5.272828 1.774314 -15.895821 0.000000 0.000000 1.000000 1.000000
v 5.314164 1.774313 -15.895821 0.000000 0.000000 1.000000 1.000000
v -5.272825 2.014338 -15.895822 0.000000 0.000000 1.000000 1.000000
v 5.314165 2.014337 -15.895820 0.000000 0.000000 1.000000 1.000000
v -5.272825 2.014338 -15.895822 0.000000 0.000000 1.000000 1.000000
v 5.314166 2.073184 -15.833234 0.000000 0.000000 1.000000 1.000000
v -5.272827 2.073185 -15.833234 0.000000 0.000000 1.000000 1.000000
v 5.314165 2.014337 -15.895820 0.000000 0.000000 1.000000 1.000000
v 5.314166 2.073184 -15.833234 0.000000 0.000000 1.000000 1.000000
v -5.272828 2.073185 -15.342386 0.000000 0.000000 1.000000 1.000000
v -5.272827 2.073185 -15.833234 0.000000 0.000000 1.000000 1.000000
v 5.314166 2.073184 -15.342386 0.000000 0.000000 1.000000 1.000000
v 5.314165 4.998236 -10.298921 0.996078 1.000000 0.964706 1.000000
v -5.272815 4.998238 -10.298921 0.839216 0.843137 0.964706 1.000000
v 5.314165 4.954675 -10.361506 0.996078 1.000000 0.964706 1.000000
v -5.272819 4.954676 -10.361506 0.745098 0.749020 0.964706 1.000000
v 5.314165 4.424993 -11.405781 0.000000 0.003922 1.000000 1.000000
v -5.272825 4.424994 -10.914936 0.000000 0.000000 1.000000 1.000000
v -5.272826 4.424994 -11.405781 0.000000 0.000000 1.000000 1.000000
v 5.314165 4.424993 -10.914936 0.000000 0.003922 1.000000 1.000000
v -5.272819 4.954676 -10.361506 0.745098 0.749020 0.964706 1.000000
v -5.272826 4.719258 -10.361506 0.698039 0.701961 0.964706 1.000000
v 5.314166 4.719257 -10.361506 0.996078 1.000000 0.964706 1.000000
v 5.314165 4.954675 -10.361506 0.996078 1.000000 0.964706 1.000000
v -5.272828 3.542200 -12.575230 0.000000 0.003922 1.000000 1.000000
v 5.314162 3.777617 -12.575230 0.164706 0.168627 1.000000 1.000000
v -5.272830 3.777617 -12.575230 0.000000 0.003922 1.000000 1.000000
v 5.314164 3.542198 -12.575230 0.137255 0.141176 1.000000 1.000000
v 5.315630 3.247934 -13.128662 0.000000 0.000000 1.000000 1.000000
v 5.314166 3.483352 -13.128662 0.000000 0.000000 1.000000 1.000000
v -5.272825 3.483353 -13.128662 0.000000 0.003922 1.000000 1.000000
v -5.271363 3.247935 -13.128662 0.000000 0.003922 1.000000 1.000000
v -5.272828 3.542200 -12.575230 0.000000 0.003922 1.000000 1.000000
v 5.314166 3.542198 -13.066077 0.000000 0.003922 1.000000 1.000000
v 5.314164 3.542198 -12.575230 0.137255 0.141176 1.000000 1.000000
v -5.272827 3.542199 -13.066077 0.000000 0.003922 1.000000 1.000000
v 5.314167 2.659405 -14.235525 0.000000 0.003922 1.000000 1.000000
v 5.314166 2.894822 -14.235525 0.000000 0.003922 1.000000 1.000000
v -5.272825 2.894823 -14.235525 0.000000 0.000000 1.000000 1.000000
v -5.272826 2.659405 -14.235525 0.000000 0.000000 1.000000 1.000000
v 5.314165 2.071317 -15.342388 0.000000 0.000000 1.000000 1.000000
v 5.314164 2.306292 -15.342388 0.000000 0.000000 1.000000 1.000000
v -5.272828 2.306293 -15.342388 0.000000 0.000000 1.000000 1.000000
v -5.272828 2.071318 -15.342388 0.000000 0.000000 1.000000 1.000000
v -5.272826 4.719258 -10.361506 0.698039 0.701961 0.964706 1.000000
v 5.314166 4.719257 -10.852351 0.000000 0.003922 1.000000 1.000000
v 5.314166 4.719257 -10.361506 0.996078 1.000000 0.964706 1.000000
v -5.272828 4.719258 -10.852351 0.121569 0.125490 0.964706 1.000000
v 5.314165 4.130728 -11.959216 0.000000 0.003922 1.000000 1.000000
v 5.314167 4.130728 -11.468367 0.000000 0.003922 1.000000 1.000000
v -5.272826 4.130729 -11.959216 0.000000 0.003922 1.000000 1.000000
v -5.272826 4.130729 -11.468367 0.000000 0.000000 1.000000 1.000000
v 5.314166 2.365139 -14.788958 0.000000 0.000000 1.000000 1.000000
v 5.314166 2.600557 -14.788958 0.000000 0.000000 1.000000 1.000000
v -5.272825 2.600558 -14.788958 0.000000 0.000000 1.000000 1.000000
v -5.272828 2.365140 -14.788958 0.000000 0.000000 1.000000 1.000000
v 5.315628 3.247934 -13.619510 0.000000 0.003922 1.000000 1.000000
v 5.315630 3.247934 -13.128662 0.000000 0.000000 1.000000 1.000000
v -5.271363 3.247935 -13.619510 0.000000 0.000000 1.000000 1.000000
v -5.271363 3.247935 -13.128662 0.000000 0.003922 1.000000 1.000000
v 5.314167 4.071881 -12.021801 0.000000 0.003922 1.000000 1.000000
v 5.314165 4.130728 -11.959216 0.000000 0.003922 1.000000 1.000000
v -5.272826 4.130729 -11.959216 0.000000 0.003922 1.000000 1.000000
v -5.272826 4.071882 -12.021801 0.000000 0.003922 1.000000 1.000000
v 5.314166 2.600557 -14.788958 0.000000 0.000000 1.000000 1.000000
v 5.314166 2.659404 -14.726374 0.000000 0.000000 1.000000 1.000000
v -5.272825 2.600558 -14.788958 0.000000 0.000000 1.000000 1.000000
v -5.272827 2.659405 -14.726373 0.000000 0.000000 1.000000 1.000000
v 5.315630 3.189086 -13.682095 0.000000 0.003922 1.000000 1.000000
v 5.315628 3.247934 -13.619510 0.000000 0.003922 1.000000 1.000000
v -5.271363 3.247935 -13.619510 0.000000 0.000000 1.000000 1.000000
v -5.271363 3.189088 -13.682095 0.000000 0.000000 1.000000 1.000000
v -5.272826 4.424994 -11.405781 0.000000 0.000000 1.000000 1.000000
v -5.272826 4.366147 -11.468367 0.000000 0.000000 1.000000 1.000000
v 5.314166 4.366146 -11.468367 0.000000 0.003922 1.000000 1.000000
v 5.314165 4.424993 -11.405781 0.000000 0.003922 1.000000 1.000000
v -5.272830 3.777617 -12.575230 0.000000 0.003922 1.000000 1.000000
v 5.314162 3.836463 -12.512645 0.164706 0.168627 1.000000 1.000000
v -5.272830 3.836464 -12.512645 0.000000 0.003922 1.000000 1.000000
v 5.314162 3.777617 -12.575230 0.164706 0.168627 1.000000 1.000000
v -5.272825 3.483353 -13.128662 0.000000 0.003922 1.000000 1.000000
v 5.314166 3.542198 -13.066077 0.000000 0.003922 1.000000 1.000000
v -5.272827 3.542199 -13.066077 0.000000 0.003922 1.000000 1.000000
v 5.314166 3.483352 -13.128662 0.000000 0.000000 1.000000 1.000000
v -5.272825 2.894823 -14.235525 0.000000 0.000000 1.000000 1.000000
v 5.314166 2.953669 -14.172938 0.000000 0.003922 1.000000 1.000000
v -5.272827 2.953670 -14.172939 0.000000 0.000000 1.000000 1.000000
v 5.314166 2.894822 -14.235525 0.000000 0.003922 1.000000 1.000000
v -5.272828 2.306293 -15.342388 0.000000 0.000000 1.000000 1.000000
v 5.314164 2.365139 -15.279802 0.000000 0.000000 1.000000 1.000000
v -5.272828 2.365140 -15.279802 0.000000 0.000000 1.000000 1.000000
v 5.314164 2.306292 -15.342388 0.000000 0.000000 1.000000 1.000000
v -5.272828 3.836464 -12.021800 0.000000 0.003922 1.000000 1.000000
v 5.314162 3.836463 -12.512645 0.164706 0.168627 1.000000 1.000000
v 5.314164 3.836463 -12.021800 0.082353 0.086275 1.000000 1.000000
v -5.272830 3.836464 -12.512645 0.000000 0.003922 1.000000 1.000000
v 5.314165 4.660410 -10.914936 0.000000 0.003922 1.000000 1.000000
v -5.272825 4.424994 -10.914936 0.000000 0.000000 1.000000 1.000000
v 5.314165 4.424993 -10.914936 0.000000 0.003922 1.000000 1.000000
v -5.272828 4.660411 -10.914936 0.000000 0.003922 1.000000 1.000000
v -5.272828 3.836464 -12.021800 0.000000 0.003922 1.000000 1.000000
v 5.314164 3.836463 -12.021800 0.082353 0.086275 1.000000 1.000000
v 5.314167 4.071881 -12.021801 0.000000 0.003922 1.000000 1.000000
v -5.272826 4.071882 -12.021801 0.000000 0.003922 1.000000 1.000000
v -5.272828 4.998238 -10.215693 0.956863 0.960784 0.964706 1.000000
v -5.272815 4.998238 -10.298921 0.839216 0.843137 0.964706 1.000000
v 5.314165 4.998236 -10.215693 0.996078 1.000000 0.964706 1.000000
v 5.314165 4.998236 -10.298921 0.996078 1.000000 0.964706 1.000000
v -5.272826 4.130729 -11.468367 0.000000 0.000000 1.000000 1.000000
v 5.314167 4.130728 -11.468367 0.000000 0.003922 1.000000 1.000000
v -5.272826 4.366147 -11.468367 0.000000 0.000000 1.000000 1.000000
v 5.314166 4.366146 -11.468367 0.000000 0.003922 1.000000 1.000000
v 5.314166 2.953669 -14.172938 0.000000 0.003922 1.000000 1.000000
v -5.271363 2.953670 -13.682095 0.000000 0.000000 1.000000 1.000000
v -5.272827 2.953670 -14.172939 0.000000 0.000000 1.000000 1.000000
v 5.315630 2.953669 -13.682095 0.000000 0.003922 1.000000 1.000000
v 5.314164 2.365139 -15.279802 0.000000 0.000000 1.000000 1.000000
v 5.314166 2.365139 -14.788958 0.000000 0.000000 1.000000 1.000000
v -5.272828 2.365140 -15.279802 0.000000 0.000000 1.000000 1.000000
v -5.272828 2.365140 -14.788958 0.000000 0.000000 1.000000 1.000000
v 5.314166 2.659404 -14.726374 0.000000 0.000000 1.000000 1.000000
v -5.272826 2.659405 -14.235525 0.000000 0.000000 1.000000 1.000000
v -5.272827 2.659405 -14.726373 0.000000 0.000000 1.000000 1.000000
v 5.314167 2.659405 -14.235525 0.000000 0.003922 1.000000 1.000000
v -5.271363 2.953670 -13.682095 0.000000 0.000000 1.000000 1.000000
v 5.315630 2.953669 -13.682095 0.000000 0.003922 1.000000 1.000000
v -5.271363 3.189088 -13.682095 0.000000 0.000000 1.000000 1.000000
v 5.315630 3.189086 -13.682095 0.000000 0.003922 1.000000 1.000000
v 5.314166 4.719257 -10.852351 0.000000 0.003922 1.000000 1.000000
v -5.272828 4.660411 -10.914936 0.000000 0.003922 1.000000 1.000000
v 5.314165 4.660410 -10.914936 0.000000 0.003922 1.000000 1.000000
v -5.272828 4.719258 -10.852351 0.121569 0.125490 0.964706 1.000000
v -5.408132 6.108750 -6.500000 0.000000 0.000000 1.000000 1.000000
v -5.272828 5.973449 -8.689979 0.000000 0.000000 1.000000 1.000000
v -5.272991 5.976187 -6.500002 0.000000 0.000000 1.000000 1.000000
v -5.408154 6.108750 -10.179132 0.000000 0.000000 1.000000 1.000000
v -5.273002 5.974898 -10.268480 0.000000 0.000000 1.000000 1.000000
v -6.137528 6.108751 -6.500000 0.000000 0.000000 1.000000 1.000000
v -5.272828 5.973450 -10.879958 0.188235 0.200000 1.000000 1.000000
v -6.272828 5.973413 -8.689969 0.000000 0.000000 1.000000 1.000000
v -6.272666 5.976187 -6.500002 0.000000 0.000000 1.000000 1.000000
v -6.137527 6.108749 -10.179129 0.000000 0.000000 1.000000 1.000000
v -6.272655 5.974833 -10.268465 0.000000 0.000000 1.000000 1.000000
v -6.272828 5.973375 -10.879937 0.000000 0.200000 1.000000 1.000000
v -5.408160 6.108750 -10.914956 0.000000 0.200000 1.000000 1.000000
v -6.137527 6.108750 -10.914956 0.000000 0.200000 1.000000 1.000000
v -6.137173 5.647559 -11.715860 0.000000 0.200000 1.000000 1.000000
v -6.272707 5.323999 -12.009941 0.000000 0.200000 1.000000 1.000000
v -6.272828 4.606168 -13.252881 0.000000 0.200000 1.000000 1.000000
v -5.408507 5.647127 -11.716619 0.000000 0.200000 1.000000 1.000000
v -5.272950 5.325638 -12.007229 0.011765 0.454902 1.000000 1.000000
v -5.272828 4.606222 -13.252896 0.192157 0.694118 0.964706 1.000000
v -6.140187 1.565459 -18.802494 0.000000 0.200000 1.000000 1.000000
v -6.272336 2.953416 -16.127163 0.000000 0.200000 1.000000 1.000000
v -6.272828 2.327489 -17.207788 0.000000 0.200000 1.000000 1.000000
v -6.272385 0.960561 -19.582735 0.341176 0.341176 0.964706 1.000000
v -5.405513 1.575564 -18.784933 0.000000 0.200000 1.000000 1.000000
v -5.273320 2.956483 -16.121897 0.054902 0.580392 0.956863 1.000000
v -5.272828 2.327509 -17.207790 0.360784 0.984314 0.694118 1.000000
v -5.273307 0.960655 -19.582779 0.996078 1.000000 0.964706 1.000000
v -5.408210 1.039947 -19.715986 0.996078 1.000000 0.964706 1.000000
v -6.137447 1.039947 -19.715986 0.705882 0.705882 0.964706 1.000000
v -6.137461 0.867431 -19.715986 0.670588 0.670588 0.964706 1.000000
v -6.272418 0.830769 -19.582312 0.313726 0.313726 0.964706 1.000000
v -6.137521 0.004851 -19.715984 0.000000 0.000000 1.000000 1.000000
v -6.272566 0.004854 -19.584177 0.000000 0.000000 1.000000 1.000000
v -5.408191 0.867431 -19.715988 0.996078 1.000000 0.964706 1.000000
v -5.408210 1.039947 -19.715986 0.996078 1.000000 0.964706 1.000000
v -5.408132 0.004851 -19.715986 0.000000 0.000000 1.000000 1.000000
v -5.273307 0.960655 -19.582779 0.996078 1.000000 0.964706 1.000000
v -5.273153 0.004865 -19.583214 0.000000 0.000000 1.000000 1.000000
v -5.273200 0.851098 -19.583263 0.996078 1.000000 0.964706 1.000000
v 6.178862 6.108750 -6.500000 0.000000 0.000000 1.000000 1.000000
v 6.314165 5.973450 -8.689980 0.000000 0.000000 1.000000 1.000000
v 6.313853 5.976053 -6.500001 0.000000 0.000000 1.000000 1.000000
v 6.178840 6.108750 -10.179132 0.000000 0.000000 1.000000 1.000000
v 6.314076 5.975016 -10.224767 0.000000 0.000000 1.000000 1.000000
v 5.449465 6.108751 -6.500000 0.000000 0.000000 1.000000 1.000000
v 6.314165 5.973450 -10.879958 0.000000 0.200000 1.000000 1.000000
v 5.314165 5.973413 -8.689969 0.000000 0.000000 1.000000 1.000000
v 5.314477 5.976054 -6.500001 0.000000 0.000000 1.000000 1.000000
v 5.449466 6.108749 -10.179130 0.000000 0.000000 1.000000 1.000000
v 5.314254 5.974953 -10.229226 0.000000 0.000000 1.000000 1.000000
v 5.314165 5.973375 -10.879937 0.101961 0.101961 1.000000 1.000000
v 6.178833 6.108750 -10.914956 0.000000 0.200000 1.000000 1.000000
v 5.449466 6.108750 -10.914956 0.000000 0.176471 1.000000 1.000000
v 5.449821 5.647559 -11.715861 0.498039 0.466667 1.000000 1.000000
v 5.314363 5.555085 -11.608646 0.984314 0.952941 1.000000 1.000000
v 5.314165 4.606167 -13.252881 0.588235 0.650980 0.972549 1.000000
v 6.178485 5.647127 -11.716619 0.000000 0.200000 1.000000 1.000000
v 6.314045 5.335052 -11.990895 0.000000 0.200000 1.000000 1.000000
v 6.314165 4.606222 -13.252896 0.000000 0.200000 1.000000 1.000000
v 5.446811 1.564239 -18.804707 0.996078 1.000000 0.964706 1.000000
v 5.314579 3.259834 -15.595089 0.894118 0.894118 0.980392 1.000000
v 5.314165 2.327488 -17.207788 0.850980 0.819608 1.000000 1.000000
v 5.314624 0.960537 -19.582714 0.905882 0.905882 0.964706 1.000000
v 6.181465 1.577742 -18.781021 0.000000 0.000000 1.000000 1.000000
v 6.313684 3.045192 -15.968040 0.050980 0.250980 0.964706 1.000000
v 6.314165 2.327508 -17.207790 0.000000 0.200000 1.000000 1.000000
v 6.313686 0.960653 -19.582779 0.098039 0.098039 0.964706 1.000000
v 6.178783 1.039946 -19.715986 0.325490 0.325490 0.964706 1.000000
v 5.449546 1.039946 -19.715986 0.996078 1.000000 0.964706 1.000000
v 5.449532 0.867430 -19.715986 0.996078 1.000000 0.964706 1.000000
v 5.314569 0.830610 -19.582277 0.854902 0.854902 0.964706 1.000000
v 5.449472 0.004850 -19.715984 0.000000 0.000000 1.000000 1.000000
v 5.314450 0.004856 -19.584389 0.000000 0.000000 1.000000 1.000000
v 6.178802 0.867430 -19.715988 0.298039 0.298039 0.964706 1.000000
v 6.178783 1.039946 -19.715986 0.325490 0.325490 0.964706 1.000000
v 6.178862 0.004850 -19.715986 0.000000 0.000000 1.000000 1.000000
v 6.313686 0.960653 -19.582779 0.098039 0.098039 0.964706 1.000000
v 6.313840 0.004864 -19.583214 0.000000 0.000000 1.000000 1.000000
v 6.313794 0.851113 -19.583263 0.047059 0.047059 0.964706 1.000000
v -5.272828 4.998239 -0.000001 0.000000 0.000000 1.000000 1.000000
v -5.272828 4.998238 -10.215693 0.956863 0.960784 0.964706 1.000000
v 5.314165 4.998238 -0.000001 0.000000 0.000000 1.000000 1.000000
v 5.314165 4.998236 -10.215693 0.996078 1.000000 0.964706 1.000000
v 5.314165 4.978678 -6.500000 0.000000 0.000000 1.000000 1.000000
v 5.314165 5.973413 -8.689969 0.000000 0.000000 1.000000 1.000000
v 5.314477 5.976054 -6.500001 0.000000 0.000000 1.000000 1.000000
v 5.314254 5.974953 -10.229226 0.000000 0.000000 1.000000 1.000000
v 5.314164 4.992227 -10.898739 0.000000 0.003922 1.000000 1.000000
v 5.314165 5.973375 -10.879937 0.101961 0.101961 1.000000 1.000000
v 5.314363 5.555085 -11.608646 0.984314 0.952941 1.000000 1.000000
v 5.314165 0.004851 -6.500000 0.000000 0.000000 1.000000 1.000000
v 5.314165 4.606167 -13.252881 0.588235 0.650980 0.972549 1.000000
v 5.314165 3.625906 -13.701638 0.164706 0.168627 1.000000 1.000000
v 5.314165 0.004850 -18.792562 0.000000 0.000000 1.000000 1.000000
v 5.314579 3.259834 -15.595089 0.894118 0.894118 0.980392 1.000000
v 5.314175 2.635411 -15.773235 0.996078 1.000000 0.964706 1.000000
v 5.314165 2.327488 -17.207788 0.850980 0.819608 1.000000 1.000000
v 5.314165 1.180696 -18.790510 0.949020 0.949020 0.964706 1.000000
v 5.314450 0.004856 -19.584389 0.000000 0.000000 1.000000 1.000000
v 5.314569 0.830610 -19.582277 0.854902 0.854902 0.964706 1.000000
v 5.314624 0.960537 -19.582714 0.905882 0.905882 0.964706 1.000000
v 5.314165 1.719371 -17.767529 0.996078 1.000000 0.964706 1.000000
v 6.314165 5.973450 -8.689980 0.000000 0.000000 1.000000 1.000000
v 6.314165 4.978704 -6.500000 0.000000 0.000000 1.000000 1.000000
v 6.313853 5.976053 -6.500001 0.000000 0.000000 1.000000 1.000000
v 6.314076 5.975016 -10.224767 0.000000 0.000000 1.000000 1.000000
v 6.314166 5.007218 -10.776384 0.000000 0.003922 1.000000 1.000000
v 6.314165 5.973450 -10.879958 0.000000 0.200000 1.000000 1.000000
v 6.314045 5.335052 -11.990895 0.000000 0.200000 1.000000 1.000000
v 6.314165 0.004850 -18.792561 0.000000 0.000000 1.000000 1.000000
v 6.314165 0.004851 -6.500000 0.000000 0.000000 1.000000 1.000000
v 6.314173 3.535427 -13.912127 0.000000 0.200000 1.000000 1.000000
v 6.314165 4.606222 -13.252896 0.000000 0.200000 1.000000 1.000000
v 6.313684 3.045192 -15.968040 0.050980 0.250980 0.964706 1.000000
v 6.314165 2.479721 -16.089819 0.000000 0.200000 1.000000 1.000000
v 6.314165 2.327508 -17.207790 0.000000 0.200000 1.000000 1.000000
v 6.314165 1.711785 -17.688004 0.000000 0.200000 1.000000 1.000000
v 6.313686 0.960653 -19.582779 0.098039 0.098039 0.964706 1.000000
v 6.314165 1.180621 -18.790661 0.000000 0.000000 1.000000 1.000000
v 6.313840 0.004864 -19.583214 0.000000 0.000000 1.000000 1.000000
v 6.313794 0.851113 -19.583263 0.047059 0.047059 0.964706 1.000000
v -5.272828 0.004851 -18.792547 0.003922 0.003922 1.000000 1.000000
v -5.272828 0.004852 -6.500000 0.000000 0.000000 1.000000 1.000000
v -5.272828 4.978690 -6.500000 0.000000 0.000000 1.000000 1.000000
v -5.272828 5.002837 -10.783135 0.219608 0.219608 0.964706 1.000000
v -5.272991 5.976187 -6.500002 0.000000 0.000000 1.000000 1.000000
v -5.272828 5.973449 -8.689979 0.000000 0.000000 1.000000 1.000000
v -5.273002 5.974898 -10.268480 0.000000 0.000000 1.000000 1.000000
v -5.272828 5.973450 -10.879958 0.188235 0.200000 1.000000 1.000000
v -5.272950 5.325638 -12.007229 0.011765 0.454902 1.000000 1.000000
v -5.272813 3.582104 -13.840869 0.000000 0.000000 1.000000 1.000000
v -5.272828 4.606222 -13.252896 0.192157 0.694118 0.964706 1.000000
v -5.273320 2.956483 -16.121897 0.054902 0.580392 0.956863 1.000000
v -5.272828 2.475701 -16.095013 0.125490 0.486275 0.768628 1.000000
v -5.272828 2.327509 -17.207790 0.360784 0.984314 0.694118 1.000000
v -5.272828 1.712186 -17.687399 0.905882 0.905882 0.964706 1.000000
v -5.273307 0.960655 -19.582779 0.996078 1.000000 0.964706 1.000000
v -5.272828 1.180622 -18.790663 0.000000 0.000000 1.000000 1.000000
v -5.273153 0.004865 -19.583214 0.000000 0.000000 1.000000 1.000000
v -5.273200 0.851098 -19.583263 0.996078 1.000000 0.964706 1.000000
v -6.272828 0.004852 -6.500000 0.000000 0.000000 1.000000 1.000000
v -6.272828 0.004851 -18.792547 0.000000 0.000000 1.000000 1.000000
v -6.272828 4.978680 -6.500000 0.000000 0.000000 1.000000 1.000000
v -6.272828 5.002794 -10.783103 0.000000 0.000000 1.000000 1.000000
v -6.272666 5.976187 -6.500002 0.000000 0.000000 1.000000 1.000000
v -6.272828 5.973413 -8.689969 0.000000 0.000000 1.000000 1.000000
v -6.272655 5.974833 -10.268465 0.000000 0.000000 1.000000 1.000000
v -6.272828 5.973375 -10.879937 0.000000 0.200000 1.000000 1.000000
v -6.272707 5.323999 -12.009941 0.000000 0.200000 1.000000 1.000000
v -6.272843 3.582005 -13.841095 0.000000 0.000000 1.000000 1.000000
v -6.272828 4.606168 -13.252881 0.000000 0.200000 1.000000 1.000000
v -6.272336 2.953416 -16.127163 0.000000 0.200000 1.000000 1.000000
v -6.272828 2.475670 -16.095020 0.000000 0.200000 1.000000 1.000000
v -6.272828 2.327489 -17.207788 0.000000 0.200000 1.000000 1.000000
v -6.272828 1.712172 -17.687399 0.000000 0.200000 1.000000 1.000000
v -6.272385 0.960561 -19.582735 0.341176 0.341176 0.964706 1.000000
v -6.272828 1.180617 -18.790661 0.000000 0.200000 1.000000 1.000000
v -6.272566 0.004854 -19.584177 0.000000 0.000000 1.000000 1.000000
v -6.272418 0.830769 -19.582312 0.313726 0.313726 0.964706 1.000000
vt -12.289062 0.303223
vt -13.789062 0.258301
vt -12.289062 0.258301
vt -13.789062 0.303223
vt -12.289062 0.258301
vt -13.789062 0.218750
vt -12.289062 0.218750
vt -13.789062 0.258301
vt -13.789062 0.218750
vt -13.789062 0.166504
vt -12.289062 0.218750
vt -12.289062 0.166504
vt -5.675781 0.414551
vt -7.175781 0.379883
vt -5.675781 0.379883
vt -7.175781 0.414551
vt -6.296875 0.224609
vt -6.296875 0.166504
vt -4.796875 0.224609
vt -4.796875 0.166504
vt -10.445312 0.303223
vt -11.945312 0.303223
vt -11.945312 0.261719
vt -10.445312 0.261719
vt -11.945312 0.229004
vt -10.445312 0.166504
vt -10.445312 0.229004
vt -11.945312 0.166504
vt -8.273438 0.277832
vt -9.773438 0.338379
vt -9.773438 0.277832
vt -8.273438 0.338379
vt -9.601562 0.414551
vt -9.601562 0.376953
vt -8.101562 0.376953
vt -8.101562 0.414551
vt -11.945312 0.261719
vt -11.945312 0.229004
vt -10.445312 0.229004
vt -10.445312 0.261719
vt -9.601562 0.376953
vt -9.601562 0.333984
vt -8.101562 0.376953
vt -8.101562 0.333984
vt -5.675781 0.379883
vt -7.175781 0.331055
vt -5.675781 0.331055
vt -7.175781 0.379883
vt -4.796875 0.224609
vt -4.796875 0.261230
vt -6.296875 0.261230
vt -6.296875 0.224609
vt -9.773438 0.370117
vt -8.273438 0.414551
vt -9.773438 0.414551
vt -8.273438 0.370117
vt -8.101562 0.277832
vt -9.601562 0.333984
vt -9.601562 0.277832
vt -8.101562 0.333984
vt -7.175781 0.331055
vt -7.175781 0.277832
vt -5.675781 0.331055
vt -5.675781 0.277832
vt -6.296875 0.261230
vt -4.796875 0.261230
vt -6.296875 0.303223
vt -4.796875 0.303223
vt -8.273438 0.370117
vt -9.773438 0.338379
vt -8.273438 0.338379
vt -9.773438 0.370117
vt -12.289062 0.303223
vt -13.789062 0.303223
vt -12.289062 0.259277
vt -13.789062 0.259277
vt -12.289062 0.259277
vt -13.789062 0.226074
vt -12.289062 0.226074
vt -13.789062 0.259277
vt -13.789062 0.226074
vt -12.289062 0.166504
vt -12.289062 0.226074
vt -13.789062 0.166504
vt 1.491211 0.747803
vt 0.167969 0.747803
vt 1.491211 0.738037
vt 0.167969 0.738037
vt -12.601562 0.101074
vt -11.101562 0.039551
vt -11.101562 0.101074
vt -12.601562 0.039551
vt 0.167969 0.738037
vt 0.167969 0.706787
vt 1.491211 0.706787
vt 1.491211 0.738037
vt -5.929688 0.175781
vt -7.429688 0.147949
vt -5.929688 0.147949
vt -7.429688 0.175781
vt -12.617188 0.414551
vt -12.617188 0.375000
vt -11.117188 0.375000
vt -11.117188 0.414551
vt -11.117188 0.277832
vt -12.617188 0.345703
vt -12.617188 0.277832
vt -11.117188 0.345703
vt -9.773438 0.175781
vt -9.773438 0.145020
vt -8.273438 0.145020
vt -8.273438 0.175781
vt -16.500000 0.176270
vt -16.500000 0.143066
vt -15.007812 0.143066
vt -15.007812 0.176270
vt -13.726562 0.277832
vt -15.226562 0.332031
vt -15.226562 0.277832
vt -13.726562 0.332031
vt -10.718750 0.229980
vt -10.718750 0.153809
vt -9.218750 0.229980
vt -9.218750 0.153809
vt -11.296875 0.414551
vt -11.296875 0.376465
vt -9.796875 0.376465
vt -9.796875 0.414551
vt -10.906250 0.342285
vt -10.906250 0.277832
vt -9.406250 0.342285
vt -9.406250 0.277832
vt -10.718750 0.262207
vt -10.718750 0.229980
vt -9.218750 0.229980
vt -9.218750 0.262207
vt -11.296875 0.376465
vt -11.296875 0.336914
vt -9.796875 0.376465
vt -9.796875 0.336914
vt -10.906250 0.378418
vt -10.906250 0.342285
vt -9.406250 0.342285
vt -9.406250 0.378418
vt -11.101562 0.101074
vt -11.101562 0.143066
vt -12.601562 0.143066
vt -12.601562 0.101074
vt -5.929688 0.147949
vt -7.429688 0.098633
vt -5.929688 0.098633
vt -7.429688 0.147949
vt -11.117188 0.375000
vt -12.617188 0.345703
vt -11.117188 0.345703
vt -12.617188 0.375000
vt -8.273438 0.145020
vt -9.773438 0.108887
vt -8.273438 0.108887
vt -9.773438 0.145020
vt -15.007812 0.143066
vt -16.500000 0.101562
vt -15.007812 0.101562
vt -16.500000 0.143066
vt -5.929688 0.039551
vt -7.429688 0.098633
vt -7.429688 0.039551
vt -5.929688 0.098633
vt -15.226562 0.374023
vt -13.726562 0.414551
vt -15.226562 0.414551
vt -13.726562 0.374023
vt -9.218750 0.290039
vt -10.718750 0.290039
vt -10.718750 0.262207
vt -9.218750 0.262207
vt 0.167969 0.758179
vt 0.167969 0.747803
vt 1.491211 0.758179
vt 1.491211 0.747803
vt -11.101562 0.175781
vt -12.601562 0.175781
vt -11.101562 0.143066
vt -12.601562 0.143066
vt -9.773438 0.108887
vt -8.273438 0.039551
vt -8.273438 0.108887
vt -9.773438 0.039551
vt -16.500000 0.101562
vt -16.500000 0.040039
vt -15.007812 0.101562
vt -15.007812 0.040039
vt -11.296875 0.336914
vt -9.796875 0.277832
vt -9.796875 0.336914
vt -11.296875 0.277832
vt -9.406250 0.414551
vt -10.906250 0.414551
vt -9.406250 0.378418
vt -10.906250 0.378418
vt -15.226562 0.332031
vt -13.726562 0.374023
vt -15.226562 0.374023
vt -13.726562 0.332031
vt 1.408203 0.269043
vt 1.083984 0.215332
vt 1.408203 0.215820
vt 0.868652 0.269043
vt 0.851074 0.215820
vt 1.408203 0.336426
vt 0.760742 0.215332
vt 1.083984 0.379395
vt 1.408203 0.378906
vt 0.868652 0.336426
vt 0.851074 0.378906
vt 0.760742 0.379395
vt 0.760742 0.269043
vt 0.760742 0.336426
vt 0.625977 0.336426
vt 0.568848 0.378906
vt 0.357666 0.379395
vt 0.625977 0.269043
vt 0.569336 0.215332
vt 0.357666 0.215332
vt -0.563477 0.336914
vt -0.129761 0.378906
vt -0.313477 0.379395
vt -0.716309 0.378906
vt -0.560547 0.268555
vt -0.128906 0.215820
vt -0.313477 0.215332
vt -0.716309 0.215820
vt -0.716309 0.269043
vt -0.716309 0.336426
vt -0.741211 0.336426
vt -0.737305 0.378906
vt -0.866211 0.336426
vt -0.866211 0.378906
vt -0.741211 0.269043
vt -0.716309 0.269043
vt -0.866211 0.269043
vt -0.716309 0.215820
vt -0.864746 0.215820
vt -0.733398 0.215820
vt 1.194336 0.220703
vt 1.518555 0.268555
vt 1.194336 0.268066
vt 1.734375 0.220703
vt 1.746094 0.268555
vt 1.194336 0.145996
vt 1.842773 0.268555
vt 1.518555 0.097656
vt 1.194336 0.098145
vt 1.734375 0.145996
vt 1.746094 0.098145
vt 1.842773 0.097656
vt 1.842773 0.220703
vt 1.842773 0.145996
vt 1.976562 0.145996
vt 1.965820 0.098145
vt 2.244141 0.097656
vt 1.976562 0.220703
vt 2.031250 0.268555
vt 2.244141 0.268555
vt 3.166016 0.145996
vt 2.642578 0.098145
vt 2.916016 0.097656
vt 3.320312 0.098145
vt 3.162109 0.221191
vt 2.705078 0.268066
vt 2.916016 0.268555
vt 3.320312 0.268066
vt 3.320312 0.220703
vt 3.320312 0.145996
vt 3.343750 0.145996
vt 3.339844 0.098145
vt 3.468750 0.145996
vt 3.468750 0.098633
vt 3.343750 0.220703
vt 3.320312 0.220703
vt 3.468750 0.220703
vt 3.320312 0.268066
vt 3.466797 0.268066
vt 3.335938 0.268066
vt -13.031250 2.199219
vt -13.031250 0.940247
vt -11.703125 2.208984
vt -11.703125 0.940247
vt -4.820312 1.037476
vt -4.582031 1.132812
vt -4.820312 1.133057
vt -4.410156 1.132935
vt -4.335938 1.038483
vt -4.339844 1.132812
vt -4.257812 1.089111
vt -4.820312 0.564697
vt -4.078125 0.989960
vt -4.027344 0.898499
vt -3.466797 0.552734
vt -3.818359 0.849243
vt -3.798828 0.792114
vt -3.640625 0.751709
vt -3.466797 0.641602
vt -3.378906 0.554932
vt -3.378906 0.603516
vt -3.378906 0.609619
vt -3.580078 0.695312
vt 0.363770 2.894531
vt 0.605469 2.798828
vt 0.605469 2.894531
vt 0.194458 2.894531
vt 0.133423 2.801758
vt 0.122131 2.894531
vt -0.000530 2.828125
vt -0.751465 2.316406
vt 0.604980 2.322266
vt -0.212646 2.648438
vt -0.139893 2.751953
vt -0.439697 2.588867
vt -0.453125 2.539062
vt -0.576172 2.513672
vt -0.629395 2.458008
vt -0.838867 2.372070
vt -0.750977 2.402344
vt -0.838867 2.320312
vt -0.838867 2.366211
vt 0.147705 1.291504
vt 1.503906 1.297119
vt 1.504883 1.773926
vt 1.031250 1.776367
vt 1.504883 1.869141
vt 1.262695 1.869141
vt 1.088867 1.869629
vt 1.021484 1.869629
vt 0.896973 1.801758
vt 0.694336 1.626953
vt 0.759277 1.726562
vt 0.442627 1.554688
vt 0.445557 1.513184
vt 0.322754 1.488770
vt 0.269775 1.433105
vt 0.060516 1.346680
vt 0.147949 1.377441
vt 0.060425 1.294678
vt 0.060455 1.340576
vt -3.189453 2.466797
vt -1.833008 2.459961
vt -3.189453 2.943359
vt -2.716797 2.946289
vt -3.189453 3.039062
vt -2.947266 3.039062
vt -2.773438 3.039062
vt -2.705078 3.039062
vt -2.580078 2.970703
vt -2.378906 2.795898
vt -2.443359 2.896484
vt -2.126953 2.723633
vt -2.128906 2.682617
vt -2.007812 2.658203
vt -1.954102 2.602539
vt -1.745117 2.515625
vt -1.833008 2.545898
vt -1.745117 2.462891
vt -1.745117 2.508789
vt1 0.072388 0.522949
vt1 0.008018 0.520996
vt1 0.072388 0.520996
vt1 0.008018 0.522949
vt1 0.072388 0.520996
vt1 0.008018 0.519287
vt1 0.072388 0.519287
vt1 0.008018 0.520996
vt1 0.008018 0.519287
vt1 0.008018 0.517090
vt1 0.072388 0.519287
vt1 0.072388 0.517090
vt1 0.072205 0.546631
vt1 0.008011 0.545166
vt1 0.072205 0.545166
vt1 0.008011 0.546631
vt1 0.072632 0.513672
vt1 0.072632 0.510986
vt1 0.136841 0.513672
vt1 0.136841 0.510986
vt1 0.136841 0.558594
vt1 0.072632 0.558594
vt1 0.072632 0.556885
vt1 0.136841 0.556885
vt1 0.072632 0.555420
vt1 0.136841 0.552734
vt1 0.136841 0.555420
vt1 0.072632 0.552734
vt1 0.136841 0.517090
vt1 0.072632 0.519531
vt1 0.072632 0.517090
vt1 0.136841 0.519531
vt1 0.072632 0.552734
vt1 0.072632 0.551025
vt1 0.136841 0.551025
vt1 0.136841 0.552734
vt1 0.072632 0.556885
vt1 0.072632 0.555420
vt1 0.136841 0.555420
vt1 0.136841 0.556885
vt1 0.072632 0.551025
vt1 0.072632 0.549316
vt1 0.136841 0.551025
vt1 0.136841 0.549316
vt1 0.072205 0.545166
vt1 0.008011 0.543213
vt1 0.072205 0.543213
vt1 0.008011 0.545166
vt1 0.136841 0.513672
vt1 0.136841 0.515137
vt1 0.072632 0.515137
vt1 0.072632 0.513672
vt1 0.072632 0.520996
vt1 0.136841 0.522949
vt1 0.072632 0.522949
vt1 0.136841 0.520996
vt1 0.136841 0.546875
vt1 0.072632 0.549316
vt1 0.072632 0.546875
vt1 0.136841 0.549316
vt1 0.008011 0.543213
vt1 0.008011 0.541016
vt1 0.072205 0.543213
vt1 0.072205 0.541016
vt1 0.072632 0.515137
vt1 0.136841 0.515137
vt1 0.072632 0.516846
vt1 0.136841 0.516846
vt1 0.136841 0.520996
vt1 0.072632 0.519531
vt1 0.136841 0.519531
vt1 0.072632 0.520996
vt1 0.072388 0.516846
vt1 0.008018 0.516846
vt1 0.072388 0.515137
vt1 0.008018 0.515137
vt1 0.072388 0.515137
vt1 0.008018 0.513672
vt1 0.072388 0.513672
vt1 0.008018 0.515137
vt1 0.008018 0.513672
vt1 0.072388 0.510986
vt1 0.072388 0.513672
vt1 0.008018 0.510986
vt1 0.079346 0.429199
vt1 0.008018 0.429199
vt1 0.079346 0.428711
vt1 0.008018 0.428711
vt1 0.072632 0.543457
vt1 0.136841 0.540771
vt1 0.136841 0.543457
vt1 0.072632 0.540771
vt1 0.008018 0.428711
vt1 0.008018 0.427246
vt1 0.079346 0.427246
vt1 0.079346 0.428711
vt1 0.136841 0.528809
vt1 0.072632 0.527588
vt1 0.136841 0.527588
vt1 0.072632 0.528809
vt1 0.008018 0.552734
vt1 0.008018 0.551025
vt1 0.072205 0.551025
vt1 0.072205 0.552734
vt1 0.072205 0.546875
vt1 0.008018 0.549805
vt1 0.008018 0.546875
vt1 0.072205 0.549805
vt1 0.072632 0.540771
vt1 0.072632 0.539551
vt1 0.136841 0.539551
vt1 0.136841 0.540771
vt1 0.008011 0.558594
vt1 0.008018 0.557129
vt1 0.072205 0.557129
vt1 0.072205 0.558594
vt1 0.136841 0.529053
vt1 0.072632 0.531250
vt1 0.072632 0.529053
vt1 0.136841 0.531250
vt1 0.008018 0.526367
vt1 0.008018 0.522949
vt1 0.072205 0.526367
vt1 0.072205 0.522949
vt1 0.008018 0.534912
vt1 0.008018 0.533203
vt1 0.072205 0.533203
vt1 0.072205 0.534912
vt1 0.008018 0.537598
vt1 0.008018 0.534912
vt1 0.072205 0.537598
vt1 0.072205 0.534912
vt1 0.008018 0.527588
vt1 0.008018 0.526367
vt1 0.072205 0.526367
vt1 0.072205 0.527588
vt1 0.008018 0.533203
vt1 0.008018 0.531494
vt1 0.072205 0.533203
vt1 0.072205 0.531494
vt1 0.008018 0.539307
vt1 0.008018 0.537598
vt1 0.072205 0.537598
vt1 0.072205 0.539307
vt1 0.136841 0.543457
vt1 0.136841 0.545410
vt1 0.072632 0.545410
vt1 0.072632 0.543457
vt1 0.136841 0.527588
vt1 0.072632 0.525635
vt1 0.136841 0.525635
vt1 0.072632 0.527588
vt1 0.072205 0.551025
vt1 0.008018 0.549805
vt1 0.072205 0.549805
vt1 0.008018 0.551025
vt1 0.136841 0.539551
vt1 0.072632 0.537842
vt1 0.136841 0.537842
vt1 0.072632 0.539551
vt1 0.072205 0.557129
vt1 0.008018 0.555420
vt1 0.072205 0.555420
vt1 0.008018 0.557129
vt1 0.136841 0.522949
vt1 0.072632 0.525635
vt1 0.072632 0.522949
vt1 0.136841 0.525635
vt1 0.072632 0.532959
vt1 0.136841 0.534912
vt1 0.072632 0.534912
vt1 0.136841 0.532959
vt1 0.072205 0.528809
vt1 0.008018 0.528809
vt1 0.008018 0.527588
vt1 0.072205 0.527588
vt1 0.008018 0.430176
vt1 0.008018 0.429199
vt1 0.079346 0.430176
vt1 0.079346 0.429199
vt1 0.136841 0.546631
vt1 0.072632 0.546631
vt1 0.136841 0.545410
vt1 0.072632 0.545410
vt1 0.072632 0.537842
vt1 0.136841 0.534912
vt1 0.136841 0.537842
vt1 0.072632 0.534912
vt1 0.008018 0.555420
vt1 0.008018 0.552734
vt1 0.072205 0.555420
vt1 0.072205 0.552734
vt1 0.008018 0.531494
vt1 0.072205 0.529053
vt1 0.072205 0.531494
vt1 0.008018 0.529053
vt1 0.072205 0.540771
vt1 0.008018 0.540771
vt1 0.072205 0.539307
vt1 0.008018 0.539307
vt1 0.072632 0.531250
vt1 0.136841 0.532959
vt1 0.072632 0.532959
vt1 0.136841 0.531250
vt1 0.110352 0.498535
vt1 0.095764 0.496094
vt1 0.110352 0.496094
vt1 0.086060 0.498535
vt1 0.085266 0.496094
vt1 0.110352 0.501465
vt1 0.081177 0.496094
vt1 0.095764 0.503418
vt1 0.110352 0.503174
vt1 0.086060 0.501465
vt1 0.085266 0.503418
vt1 0.081177 0.503418
vt1 0.081177 0.498535
vt1 0.081177 0.501465
vt1 0.075134 0.501465
vt1 0.072571 0.503418
vt1 0.063049 0.503418
vt1 0.075134 0.498535
vt1 0.072571 0.496094
vt1 0.063049 0.496094
vt1 0.021622 0.501465
vt1 0.041138 0.503174
vt1 0.032867 0.503418
vt1 0.014748 0.503418
vt1 0.021759 0.498535
vt1 0.041168 0.496094
vt1 0.032867 0.496094
vt1 0.014748 0.496094
vt1 0.014755 0.498535
vt1 0.014755 0.501465
vt1 0.013634 0.501465
vt1 0.013794 0.503418
vt1 0.008003 0.501465
vt1 0.008011 0.503174
vt1 0.013641 0.498535
vt1 0.014755 0.498535
vt1 0.008011 0.498535
vt1 0.014755 0.496094
vt1 0.008087 0.496094
vt1 0.013985 0.496094
vt1 0.008011 0.508789
vt1 0.022293 0.510986
vt1 0.008018 0.510986
vt1 0.031830 0.508789
vt1 0.032318 0.510986
vt1 0.008011 0.505615
vt1 0.036591 0.510986
vt1 0.022293 0.503418
vt1 0.008018 0.503418
vt1 0.031830 0.505615
vt1 0.032318 0.503418
vt1 0.036591 0.503418
vt1 0.036591 0.508789
vt1 0.036591 0.505615
vt1 0.042511 0.505615
vt1 0.042023 0.503418
vt1 0.054352 0.503418
vt1 0.042511 0.508789
vt1 0.044891 0.510986
vt1 0.054352 0.510986
vt1 0.094971 0.505615
vt1 0.071838 0.503418
vt1 0.083923 0.503418
vt1 0.101685 0.503418
vt1 0.094788 0.508789
vt1 0.074646 0.510986
vt1 0.083923 0.510986
vt1 0.101685 0.510986
vt1 0.101685 0.508789
vt1 0.101685 0.505615
vt1 0.102783 0.505615
vt1 0.102661 0.503418
vt1 0.108337 0.505615
vt1 0.108276 0.503418
vt1 0.102783 0.508789
vt1 0.101685 0.508789
vt1 0.108276 0.508789
vt1 0.101685 0.510986
vt1 0.108215 0.510986
vt1 0.102478 0.510986
vt1 0.008018 0.498047
vt1 0.008018 0.430176
vt1 0.079346 0.498535
vt1 0.079346 0.430176
vt1 0.861328 0.415039
vt1 0.619629 0.319336
vt1 0.861328 0.319336
vt1 0.449707 0.319336
vt1 0.375732 0.414062
vt1 0.377930 0.319336
vt1 0.297607 0.363281
vt1 0.861328 0.887451
vt1 0.116089 0.462402
vt1 0.066528 0.553711
vt1 -0.495361 0.899536
vt1 -0.142334 0.603027
vt1 -0.162109 0.660156
vt1 -0.320312 0.700439
vt1 -0.495117 0.810547
vt1 -0.582520 0.897339
vt1 -0.582520 0.848877
vt1 -0.582520 0.842651
vt1 -0.382080 0.756958
vt1 -0.743164 0.382324
vt1 -0.984375 0.477539
vt1 -0.984863 0.382324
vt1 -0.573730 0.381836
vt1 -0.512695 0.474609
vt1 -0.500977 0.381836
vt1 -0.378662 0.448730
vt1 0.372314 0.959869
vt1 -0.984375 0.954163
vt1 -0.166504 0.628174
vt1 -0.239380 0.524658
vt1 0.060425 0.687500
vt1 0.073914 0.738037
vt1 0.197266 0.762573
vt1 0.250244 0.818237
vt1 0.459473 0.904846
vt1 0.372070 0.874023
vt1 0.459473 0.956604
vt1 0.459473 0.910828
vt1 2.216797 0.897156
vt1 0.861816 0.891479
vt1 0.861328 0.415039
vt1 1.333984 0.412109
vt1 0.861328 0.319336
vt1 1.102539 0.319336
vt1 1.276367 0.319336
vt1 1.344727 0.319336
vt1 1.468750 0.387207
vt1 1.670898 0.561768
vt1 1.606445 0.461914
vt1 1.922852 0.634033
vt1 1.919922 0.675293
vt1 2.042969 0.699951
vt1 2.095703 0.755493
vt1 2.304688 0.842163
vt1 2.216797 0.811279
vt1 2.304688 0.893921
vt1 2.304688 0.848145
vt1 -0.979492 0.954010
vt1 -2.335938 0.960663
vt1 -0.979004 0.477539
vt1 -1.452148 0.475098
vt1 -0.979004 0.381836
vt1 -1.220703 0.382324
vt1 -1.394531 0.381836
vt1 -1.462891 0.382324
vt1 -1.586914 0.450195
vt1 -1.789062 0.625000
vt1 -1.724609 0.524902
vt1 -2.041016 0.697754
vt1 -2.037109 0.738525
vt1 -2.160156 0.763184
vt1 -2.212891 0.818970
vt1 -2.421875 0.905640
vt1 -2.335938 0.874756
vt1 -2.421875 0.957794
vt1 -2.421875 0.911987
vn 0.000000 -0.000000 -1.000000
vn 0.000000 -0.000000 -1.000000
vn 0.000000 -0.000000 -1.000000
vn 0.000000 -0.000000 -1.000000
vn 0.000000 0.732283 -0.685039
vn 0.000000 0.732283 -0.685039
vn 0.000000 0.732283 -0.685039
vn 0.000000 0.732283 -0.685039
vn 0.000000 1.000000 -0.000000
vn 0.000000 1.000000 -0.000000
vn 0.000000 1.000000 -0.000000
vn 0.000000 1.000000 -0.000000
vn 0.000000 -0.000000 -1.000000
vn 0.000000 -0.000000 -1.000000
vn 0.000000 -0.000000 -1.000000
vn 0.000000 -0.000000 -1.000000
vn 0.000000 1.000000 -0.000000
vn 0.000000 1.000000 -0.000000
vn 0.000000 1.000000 -0.000000
vn 0.000000 1.000000 -0.000000
vn 0.000000 -0.000000 -1.000000
vn 0.000000 -0.000000 -1.000000
vn 0.000000 -0.000000 -1.000000
vn 0.000000 -0.000000 -1.000000
vn 0.000000 1.000000 -0.000000
vn 0.000000 1.000000 -0.000000
vn 0.000000 1.000000 -0.000000
vn 0.000000 1.000000 -0.000000
vn 0.000000 1.000000 -0.000000
vn 0.000000 1.000000 -0.000000
vn 0.000000 1.000000 -0.000000
vn 0.000000 1.000000 -0.000000
vn 0.000000 -0.000000 -1.000000
vn 0.000000 -0.000000 -1.000000
vn 0.000000 -0.000000 -1.000000
vn 0.000000 -0.000000 -1.000000
vn 0.000000 0.732283 -0.685039
vn 0.000000 0.732283 -0.685039
vn 0.000000 0.732283 -0.685039
vn 0.000000 0.732283 -0.685039
vn 0.000000 0.732283 -0.685039
vn 0.000000 0.732283 -0.685039
vn 0.000000 0.732283 -0.685039
vn 0.000000 0.732283 -0.685039
vn 0.000000 0.732283 -0.685039
vn 0.000000 0.732283 -0.685039
vn 0.000000 0.732283 -0.685039
vn 0.000000 0.732283 -0.685039
vn 0.000000 0.732283 -0.685039
vn 0.000000 0.732283 -0.685039
vn 0.000000 0.732283 -0.685039
vn 0.000000 0.732283 -0.685039
vn 0.000000 -0.000000 -1.000000
vn 0.000000 -0.000000 -1.000000
vn 0.000000 -0.000000 -1.000000
vn 0.000000 -0.000000 -1.000000
vn 0.000000 1.000000 -0.000000
vn 0.000000 1.000000 -0.000000
vn 0.000000 1.000000 -0.000000
vn 0.000000 1.000000 -0.000000
vn 0.000000 1.000000 -0.000000
vn 0.000000 1.000000 -0.000000
vn 0.000000 1.000000 -0.000000
vn 0.000000 1.000000 -0.000000
vn 0.000000 -0.000000 -1.000000
vn 0.000000 -0.000000 -1.000000
vn 0.000000 -0.000000 -1.000000
vn 0.000000 -0.000000 -1.000000
vn 0.000000 0.732283 -0.685039
vn 0.000000 0.732283 -0.685039
vn 0.000000 0.732283 -0.685039
vn 0.000000 0.732283 -0.685039
vn 0.000000 -0.000000 -1.000000
vn 0.000000 -0.000000 -1.000000
vn 0.000000 -0.000000 -1.000000
vn 0.000000 -0.000000 -1.000000
vn 0.000000 0.732283 -0.685039
vn 0.000000 0.732283 -0.685039
vn 0.000000 0.732283 -0.685039
vn 0.000000 0.732283 -0.685039
vn 0.000000 1.000000 -0.000000
vn 0.000000 1.000000 -0.000000
vn 0.000000 1.000000 -0.000000
vn 0.000000 1.000000 -0.000000
vn 0.000000 0.818897 -0.574803
vn 0.000000 0.818897 -0.574803
vn 0.000000 0.818897 -0.574803
vn 0.000000 0.818897 -0.574803
vn 0.000000 1.000000 -0.000000
vn 0.000000 1.000000 -0.000000
vn 0.000000 1.000000 -0.000000
vn 0.000000 1.000000 -0.000000
vn 0.000000 -0.000000 -1.000000
vn 0.000000 -0.000000 -1.000000
vn 0.000000 -0.000000 -1.000000
vn 0.000000 -0.000000 -1.000000
vn 0.000000 -0.000000 -1.000000
vn 0.000000 -0.000000 -1.000000
vn 0.000000 -0.000000 -1.000000
vn 0.000000 -0.000000 -1.000000
vn 0.000000 -0.000000 -1.000000
vn 0.000000 -0.000000 -1.000000
vn 0.000000 -0.000000 -1.000000
vn 0.000000 -0.000000 -1.000000
vn 0.000000 1.000000 -0.000000
vn 0.000000 1.000000 -0.000000
vn 0.000000 1.000000 -0.000000
vn 0.000000 1.000000 -0.000000
vn 0.000000 -0.000000 -1.000000
vn 0.000000 -0.000000 -1.000000
vn 0.000000 -0.000000 -1.000000
vn 0.000000 -0.000000 -1.000000
vn 0.000000 -0.000000 -1.000000
vn 0.000000 -0.000000 -1.000000
vn 0.000000 -0.000000 -1.000000
vn 0.000000 -0.000000 -1.000000
vn 0.000000 1.000000 -0.000000
vn 0.000000 1.000000 -0.000000
vn 0.000000 1.000000 -0.000000
vn 0.000000 1.000000 -0.000000
vn 0.000000 1.000000 -0.000000
vn 0.000000 1.000000 -0.000000
vn 0.000000 1.000000 -0.000000
vn 0.000000 1.000000 -0.000000
vn 0.000000 -0.000000 -1.000000
vn 0.000000 -0.000000 -1.000000
vn 0.000000 -0.000000 -1.000000
vn 0.000000 -0.000000 -1.000000
vn 0.000000 1.000000 -0.000000
vn 0.000000 1.000000 -0.000000
vn 0.000000 1.000000 -0.000000
vn 0.000000 1.000000 -0.000000
vn 0.000000 0.732283 -0.685039
vn 0.000000 0.732283 -0.685039
vn 0.000000 0.732283 -0.685039
vn 0.000000 0.732283 -0.685039
vn 0.000000 0.732283 -0.685039
vn 0.000000 0.732283 -0.685039
vn 0.000000 0.732283 -0.685039
vn 0.000000 0.732283 -0.685039
vn 0.000000 0.732283 -0.685039
vn 0.000000 0.732283 -0.685039
vn 0.000000 0.732283 -0.685039
vn 0.000000 0.732283 -0.685039
vn 0.000000 0.732283 -0.685039
vn 0.000000 0.732283 -0.685039
vn 0.000000 0.732283 -0.685039
vn 0.000000 0.732283 -0.685039
vn 0.000000 0.732283 -0.685039
vn 0.000000 0.732283 -0.685039
vn 0.000000 0.732283 -0.685039
vn 0.000000 0.732283 -0.685039
vn 0.000000 0.732283 -0.685039
vn 0.000000 0.732283 -0.685039
vn 0.000000 0.732283 -0.685039
vn 0.000000 0.732283 -0.685039
vn 0.000000 0.732283 -0.685039
vn 0.000000 0.732283 -0.685039
vn 0.000000 0.732283 -0.685039
vn 0.000000 0.732283 -0.685039
vn 0.000000 0.732283 -0.685039
vn 0.000000 0.732283 -0.685039
vn 0.000000 0.732283 -0.685039
vn 0.000000 0.732283 -0.685039
vn 0.000000 1.000000 -0.000000
vn 0.000000 1.000000 -0.000000
vn 0.000000 1.000000 -0.000000
vn 0.000000 1.000000 -0.000000
vn 0.000000 -0.000000 -1.000000
vn 0.000000 -0.000000 -1.000000
vn 0.000000 -0.000000 -1.000000
vn 0.000000 -0.000000 -1.000000
vn 0.000000 -0.000000 -1.000000
vn 0.000000 -0.000000 -1.000000
vn 0.000000 -0.000000 -1.000000
vn 0.000000 -0.000000 -1.000000
vn 0.000000 1.000000 -0.000000
vn 0.000000 1.000000 -0.000000
vn 0.000000 1.000000 -0.000000
vn 0.000000 1.000000 -0.000000
vn 0.000000 -0.000000 -1.000000
vn 0.000000 -0.000000 -1.000000
vn 0.000000 -0.000000 -1.000000
vn 0.000000 -0.000000 -1.000000
vn 0.000000 1.000000 -0.000000
vn 0.000000 1.000000 -0.000000
vn 0.000000 1.000000 -0.000000
vn 0.000000 1.000000 -0.000000
vn 0.000000 1.000000 -0.000000
vn 0.000000 1.000000 -0.000000
vn 0.000000 1.000000 -0.000000
vn 0.000000 1.000000 -0.000000
vn 0.000000 1.000000 -0.000000
vn 0.000000 1.000000 -0.000000
vn 0.000000 1.000000 -0.000000
vn 0.000000 1.000000 -0.000000
vn 0.000000 -0.000000 -1.000000
vn 0.000000 -0.000000 -1.000000
vn 0.000000 -0.000000 -1.000000
vn 0.000000 -0.000000 -1.000000
vn 0.000000 0.732283 -0.685039
vn 0.000000 0.732283 -0.685039
vn 0.000000 0.732283 -0.685039
vn 0.000000 0.732283 -0.685039
vn 0.157480 0.984252 -0.000000
vn 0.992126 0.118110 -0.000000
vn 0.992126 0.125984 -0.000000
vn 0.157480 0.984252 -0.000000
vn 0.992126 0.125984 -0.000000
vn -0.157480 0.984252 -0.000000
vn 0.984252 0.157480 -0.047244
vn -0.992126 0.118110 -0.000000
vn -0.992126 0.125984 -0.000000
vn -0.157480 0.984252 -0.000000
vn -0.992126 0.125984 -0.000000
vn -0.984252 0.157480 -0.047244
vn 0.141732 0.944882 -0.283465
vn -0.141732 0.944882 -0.283465
vn -0.149606 0.858268 -0.496063
vn -0.992126 0.125984 -0.078740
vn -0.984252 0.141732 -0.086614
vn 0.149606 0.858268 -0.496063
vn 0.992126 0.125984 -0.078740
vn 0.984252 0.141732 -0.086614
vn -0.157480 0.858268 -0.488189
vn -0.968504 0.204724 -0.118110
vn -0.960630 0.236220 -0.133858
vn -0.913386 0.330709 -0.228346
vn 0.157480 0.858268 -0.488189
vn 0.968504 0.204724 -0.118110
vn 0.960630 0.236220 -0.133858
vn 0.913386 0.330709 -0.228346
vn 0.125984 0.858268 -0.496063
vn -0.133858 0.779527 -0.614173
vn -0.149606 -0.000000 -0.992126
vn -0.992126 0.007874 -0.133858
vn -0.149606 -0.000000 -0.992126
vn -0.992126 -0.000000 -0.141732
vn 0.149606 -0.000000 -0.992126
vn 0.118110 -0.000000 -0.992126
vn 0.149606 -0.000000 -0.992126
vn 0.913386 0.314961 -0.251969
vn 0.992126 -0.000000 -0.133858
vn 0.992126 0.015748 -0.141732
vn 0.157480 0.984252 -0.000000
vn 0.992126 0.118110 -0.000000
vn 0.992126 0.125984 -0.000000
vn 0.157480 0.984252 -0.000000
vn 0.992126 0.125984 -0.000000
vn -0.157480 0.984252 -0.000000
vn 0.984252 0.157480 -0.047244
vn -0.992126 0.118110 -0.000000
vn -0.992126 0.125984 -0.000000
vn -0.157480 0.984252 -0.000000
vn -0.992126 0.125984 -0.000000
vn -0.984252 0.157480 -0.047244
vn 0.141732 0.944882 -0.283465
vn -0.141732 0.944882 -0.283465
vn -0.149606 0.858268 -0.496063
vn -0.992126 0.125984 -0.070866
vn -0.984252 0.141732 -0.086614
vn 0.149606 0.858268 -0.496063
vn 0.992126 0.125984 -0.078740
vn 0.984252 0.141732 -0.086614
vn -0.157480 0.858268 -0.488189
vn -0.976378 0.196850 -0.110236
vn -0.960630 0.236220 -0.133858
vn -0.913386 0.330709 -0.228346
vn 0.157480 0.858268 -0.488189
vn 0.968504 0.204724 -0.118110
vn 0.960630 0.236220 -0.133858
vn 0.913386 0.330709 -0.228346
vn 0.125984 0.858268 -0.496063
vn -0.133858 0.779527 -0.614173
vn -0.149606 -0.000000 -0.992126
vn -0.992126 0.007874 -0.133858
vn -0.149606 -0.000000 -0.992126
vn -0.992126 -0.000000 -0.141732
vn 0.149606 -0.000000 -0.992126
vn 0.118110 -0.000000 -0.992126
vn 0.149606 -0.000000 -0.992126
vn 0.913386 0.314961 -0.251969
vn 0.992126 -0.000000 -0.133858
vn 0.992126 0.015748 -0.141732
vn 0.000000 1.000000 -0.000000
vn 0.000000 1.000000 -0.000000
vn 0.000000 1.000000 -0.000000
vn 0.000000 1.000000 -0.000000
vn -1.000000 0.000000 0.000000
vn -0.992126 0.118110 -0.000000
vn -0.992126 0.118110 -0.000000
vn -0.992126 0.118110 -0.000000
vn -1.000000 0.000000 0.000000
vn -0.984252 0.157480 -0.047244
vn -0.992126 0.125984 -0.070866
vn -1.000000 0.000000 0.000000
vn -0.984252 0.141732 -0.086614
vn -1.000000 0.000000 0.000000
vn -1.000000 0.000000 0.000000
vn -0.976378 0.173228 -0.102362
vn -1.000000 0.000000 0.000000
vn -0.960630 0.236220 -0.133858
vn -1.000000 0.000000 0.000000
vn -0.992126 -0.000000 -0.125984
vn -0.992126 0.007874 -0.125984
vn -0.929134 0.314961 -0.204724
vn -1.000000 0.047244 -0.023622
vn 0.992126 0.118110 -0.000000
vn 1.000000 0.000000 0.000000
vn 0.992126 0.118110 -0.000000
vn 0.992126 0.118110 -0.000000
vn 1.000000 0.000000 0.000000
vn 0.984252 0.157480 -0.047244
vn 0.984252 0.133858 -0.078740
vn 1.000000 0.000000 0.000000
vn 1.000000 0.000000 0.000000
vn 1.000000 0.000000 0.000000
vn 0.984252 0.141732 -0.086614
vn 0.976378 0.188976 -0.110236
vn 1.000000 0.000000 0.000000
vn 0.960630 0.236220 -0.133858
vn 1.000000 0.000000 0.000000
vn 0.929134 0.314961 -0.204724
vn 1.000000 0.000000 0.000000
vn 0.992126 -0.000000 -0.125984
vn 0.992126 0.015748 -0.133858
vn 1.000000 0.000000 0.000000
vn 1.000000 0.000000 0.000000
vn 1.000000 0.000000 0.000000
vn 1.000000 0.000000 0.000000
vn 0.992126 0.118110 -0.000000
vn 0.992126 0.118110 -0.000000
vn 0.992126 0.118110 -0.000000
vn 0.984252 0.157480 -0.047244
vn 0.992126 0.133858 -0.078740
vn 1.000000 0.000000 0.000000
vn 0.984252 0.141732 -0.086614
vn 0.976378 0.188976 -0.110236
vn 1.000000 0.000000 0.000000
vn 0.960630 0.236220 -0.133858
vn 1.000000 0.000000 0.000000
vn 0.929134 0.314961 -0.204724
vn 1.000000 0.000000 0.000000
vn 0.992126 -0.000000 -0.125984
vn 0.992126 0.015748 -0.133858
vn -1.000000 0.000000 0.000000
vn -1.000000 0.000000 0.000000
vn -1.000000 0.000000 0.000000
vn -1.000000 0.000000 0.000000
vn -0.992126 0.118110 -0.000000
vn -0.992126 0.118110 -0.000000
vn -0.992126 0.118110 -0.000000
vn -0.984252 0.157480 -0.047244
vn -0.992126 0.133858 -0.078740
vn -1.000000 0.000000 0.000000
vn -0.984252 0.141732 -0.086614
vn -0.976378 0.188976 -0.110236
vn -1.000000 0.000000 0.000000
vn -0.960630 0.236220 -0.133858
vn -1.000000 0.000000 0.000000
vn -0.929134 0.314961 -0.204724
vn -1.000000 0.000000 0.000000
vn -0.992126 -0.000000 -0.125984
vn -0.992126 0.007874 -0.125984
tan 0.000000 1.000000 -0.000000 1.000000
tan 0.000000 1.000000 -0.000000 1.000000
tan 0.000000 1.000000 -0.000000 1.000000
tan 0.000000 1.000000 -0.000000 1.000000
tan 0.000000 0.685039 0.732283 1.000000
tan 0.000000 0.685039 0.732283 1.000000
tan 0.000000 0.685039 0.732283 1.000000
tan 0.000000 0.685039 0.732283 1.000000
tan 0.000000 0.000000 1.000000 1.000000
tan 0.000000 0.000000 1.000000 1.000000
tan 0.000000 0.000000 1.000000 1.000000
tan 0.000000 0.000000 1.000000 1.000000
tan 0.000000 1.000000 -0.000000 1.000000
tan 0.000000 1.000000 -0.000000 1.000000
tan 0.000000 1.000000 -0.000000 1.000000
tan 0.000000 1.000000 -0.000000 1.000000
tan 0.000000 0.000000 1.000000 1.000000
tan 0.000000 0.000000 1.000000 1.000000
tan 0.000000 0.000000 1.000000 1.000000
tan 0.000000 0.000000 1.000000 1.000000
tan 0.000000 1.000000 -0.000000 1.000000
tan 0.000000 1.000000 -0.000000 1.000000
tan 0.000000 1.000000 -0.000000 1.000000
tan 0.000000 1.000000 -0.000000 1.000000
tan 0.000000 0.000000 1.000000 1.000000
tan 0.000000 0.000000 1.000000 1.000000
tan 0.000000 0.000000 1.000000 1.000000
tan 0.000000 0.000000 1.000000 1.000000
tan 0.000000 0.000000 1.000000 1.000000
tan 0.000000 0.000000 1.000000 1.000000
tan 0.000000 0.000000 1.000000 1.000000
tan 0.000000 0.000000 1.000000 1.000000
tan 0.000000 1.000000 -0.000000 1.000000
tan 0.000000 1.000000 -0.000000 1.000000
tan 0.000000 1.000000 -0.000000 1.000000
tan 0.000000 1.000000 -0.000000 1.000000
tan 0.000000 0.685039 0.732283 1.000000
tan 0.000000 0.685039 0.732283 1.000000
tan 0.000000 0.685039 0.732283 1.000000
tan 0.000000 0.685039 0.732283 1.000000
tan 0.000000 0.685039 0.732283 1.000000
tan 0.000000 0.685039 0.732283 1.000000
tan 0.000000 0.685039 0.732283 1.000000
tan 0.000000 0.685039 0.732283 1.000000
tan 0.000000 0.685039 0.732283 1.000000
tan 0.000000 0.685039 0.732283 1.000000
tan 0.000000 0.685039 0.732283 1.000000
tan 0.000000 0.685039 0.732283 1.000000
tan 0.000000 0.685039 0.732283 1.000000
tan 0.000000 0.685039 0.732283 1.000000
tan 0.000000 0.685039 0.732283 1.000000
tan 0.000000 0.685039 0.732283 1.000000
tan 0.000000 1.000000 -0.000000 1.000000
tan 0.000000 1.000000 -0.000000 1.000000
tan 0.000000 1.000000 -0.000000 1.000000
tan 0.000000 1.000000 -0.000000 1.000000
tan 0.000000 0.000000 1.000000 1.000000
tan 0.000000 0.000000 1.000000 1.000000
tan 0.000000 0.000000 1.000000 1.000000
tan 0.000000 0.000000 1.000000 1.000000
tan 0.000000 0.000000 1.000000 1.000000
tan 0.000000 0.000000 1.000000 1.000000
tan 0.000000 0.000000 1.000000 1.000000
tan 0.000000 0.000000 1.000000 1.000000
tan 0.000000 1.000000 -0.000000 1.000000
tan 0.000000 1.000000 -0.000000 1.000000
tan 0.000000 1.000000 -0.000000 1.000000
tan 0.000000 1.000000 -0.000000 1.000000
tan 0.000000 0.685039 0.732283 1.000000
tan 0.000000 0.685039 0.732283 1.000000
tan 0.000000 0.685039 0.732283 1.000000
tan 0.000000 0.685039 0.732283 1.000000
tan 0.000000 1.000000 -0.000000 1.000000
tan 0.000000 1.000000 -0.000000 1.000000
tan 0.000000 1.000000 -0.000000 1.000000
tan 0.000000 1.000000 -0.000000 1.000000
tan 0.000000 0.685039 0.732283 1.000000
tan 0.000000 0.685039 0.732283 1.000000
tan 0.000000 0.685039 0.732283 1.000000
tan 0.000000 0.685039 0.732283 1.000000
tan 0.000000 0.000000 1.000000 1.000000
tan 0.000000 0.000000 1.000000 1.000000
tan 0.000000 0.000000 1.000000 1.000000
tan 0.000000 0.000000 1.000000 1.000000
tan 0.000000 -0.574803 -0.818897 1.000000
tan 0.000000 -0.574803 -0.818897 1.000000
tan 0.000000 -0.574803 -0.818897 1.000000
tan 0.000000 -0.574803 -0.818897 1.000000
tan 0.000000 0.000000 1.000000 1.000000
tan 0.000000 0.000000 1.000000 1.000000
tan 0.000000 0.000000 1.000000 1.000000
tan 0.000000 0.000000 1.000000 1.000000
tan 0.000000 -1.000000 0.000000 1.000000
tan 0.000000 -1.000000 0.000000 1.000000
tan 0.000000 -1.000000 0.000000 1.000000
tan 0.000000 -1.000000 0.000000 1.000000
tan 0.000000 1.000000 -0.000000 1.000000
tan 0.000000 1.000000 -0.000000 1.000000
tan 0.000000 1.000000 -0.000000 1.000000
tan 0.000000 1.000000 -0.000000 1.000000
tan 0.000000 1.000000 -0.000000 1.000000
tan 0.000000 1.000000 -0.000000 1.000000
tan 0.000000 1.000000 -0.000000 1.000000
tan 0.000000 1.000000 -0.000000 1.000000
tan 0.000000 0.000000 1.000000 1.000000
tan 0.000000 0.000000 1.000000 1.000000
tan 0.000000 0.000000 1.000000 1.000000
tan 0.000000 0.000000 1.000000 1.000000
tan 0.000000 1.000000 -0.000000 1.000000
tan 0.000000 1.000000 -0.000000 1.000000
tan 0.000000 1.000000 -0.000000 1.000000
tan 0.000000 1.000000 -0.000000 1.000000
tan 0.000000 1.000000 -0.000000 1.000000
tan 0.000000 1.000000 -0.000000 1.000000
tan 0.000000 1.000000 -0.000000 1.000000
tan 0.000000 1.000000 -0.000000 1.000000
tan 0.000000 0.000000 1.000000 1.000000
tan 0.000000 0.000000 1.000000 1.000000
tan 0.000000 0.000000 1.000000 1.000000
tan 0.000000 0.000000 1.000000 1.000000
tan 0.000000 0.000000 1.000000 1.000000
tan 0.000000 0.000000 1.000000 1.000000
tan 0.000000 0.000000 1.000000 1.000000
tan 0.000000 0.000000 1.000000 1.000000
tan 0.000000 1.000000 -0.000000 1.000000
tan 0.000000 1.000000 -0.000000 1.000000
tan 0.000000 1.000000 -0.000000 1.000000
tan 0.000000 1.000000 -0.000000 1.000000
tan 0.000000 0.000000 1.000000 1.000000
tan 0.000000 0.000000 1.000000 1.000000
tan 0.000000 0.000000 1.000000 1.000000
tan 0.000000 0.000000 1.000000 1.000000
tan 0.000000 0.685039 0.732283 1.000000
tan 0.000000 0.685039 0.732283 1.000000
tan 0.000000 0.685039 0.732283 1.000000
tan 0.000000 0.685039 0.732283 1.000000
tan 0.000000 0.685039 0.732283 1.000000
tan 0.000000 0.685039 0.732283 1.000000
tan 0.000000 0.685039 0.732283 1.000000
tan 0.000000 0.685039 0.732283 1.000000
tan 0.000000 0.685039 0.732283 1.000000
tan 0.000000 0.685039 0.732283 1.000000
tan 0.000000 0.685039 0.732283 1.000000
tan 0.000000 0.685039 0.732283 1.000000
tan 0.000000 0.685039 0.732283 1.000000
tan 0.000000 0.685039 0.732283 1.000000
tan 0.000000 0.685039 0.732283 1.000000
tan 0.000000 0.685039 0.732283 1.000000
tan 0.000000 0.685039 0.732283 1.000000
tan 0.000000 0.685039 0.732283 1.000000
tan 0.000000 0.685039 0.732283 1.000000
tan 0.000000 0.685039 0.732283 1.000000
tan 0.000000 0.685039 0.732283 1.000000
tan 0.000000 0.685039 0.732283 1.000000
tan 0.000000 0.685039 0.732283 1.000000
tan 0.000000 0.685039 0.732283 1.000000
tan 0.000000 0.685039 0.732283 1.000000
tan 0.000000 0.685039 0.732283 1.000000
tan 0.000000 0.685039 0.732283 1.000000
tan 0.000000 0.685039 0.732283 1.000000
tan 0.000000 0.685039 0.732283 1.000000
tan 0.000000 0.685039 0.732283 1.000000
tan 0.000000 0.685039 0.732283 1.000000
tan 0.000000 0.685039 0.732283 1.000000
tan 0.000000 0.000000 1.000000 1.000000
tan 0.000000 0.000000 1.000000 1.000000
tan 0.000000 0.000000 1.000000 1.000000
tan 0.000000 0.000000 1.000000 1.000000
tan 0.000000 1.000000 -0.000000 1.000000
tan 0.000000 1.000000 -0.000000 1.000000
tan 0.000000 1.000000 -0.000000 1.000000
tan 0.000000 1.000000 -0.000000 1.000000
tan 0.000000 1.000000 -0.000000 1.000000
tan 0.000000 1.000000 -0.000000 1.000000
tan 0.000000 1.000000 -0.000000 1.000000
tan 0.000000 1.000000 -0.000000 1.000000
tan 0.000000 -0.000000 -1.000000 1.000000
tan 0.000000 -0.000000 -1.000000 1.000000
tan 0.000000 -0.000000 -1.000000 1.000000
tan 0.000000 -0.000000 -1.000000 1.000000
tan 0.000000 1.000000 -0.000000 1.000000
tan 0.000000 1.000000 -0.000000 1.000000
tan 0.000000 1.000000 -0.000000 1.000000
tan 0.000000 1.000000 -0.000000 1.000000
tan 0.000000 0.000000 1.000000 1.000000
tan 0.000000 0.000000 1.000000 1.000000
tan 0.000000 0.000000 1.000000 1.000000
tan 0.000000 0.000000 1.000000 1.000000
tan 0.000000 0.000000 1.000000 1.000000
tan 0.000000 0.000000 1.000000 1.000000
tan 0.000000 0.000000 1.000000 1.000000
tan 0.000000 0.000000 1.000000 1.000000
tan 0.000000 0.000000 1.000000 1.000000
tan 0.000000 0.000000 1.000000 1.000000
tan 0.000000 0.000000 1.000000 1.000000
tan 0.000000 0.000000 1.000000 1.000000
tan 0.000000 1.000000 -0.000000 1.000000
tan 0.000000 1.000000 -0.000000 1.000000
tan 0.000000 1.000000 -0.000000 1.000000
tan 0.000000 1.000000 -0.000000 1.000000
tan 0.000000 0.685039 0.732283 1.000000
tan 0.000000 0.685039 0.732283 1.000000
tan 0.000000 0.685039 0.732283 1.000000
tan 0.000000 0.685039 0.732283 1.000000
tan 0.984252 -0.157480 0.000000 1.000000
tan 0.118110 -0.992126 0.000000 1.000000
tan 0.125984 -0.992126 0.000000 1.000000
tan 0.984252 -0.157480 0.000000 1.000000
tan 0.125984 -0.992126 0.007812 1.000000
tan 0.984252 0.157480 -0.000000 1.000000
tan 0.164424 -0.953252 0.248001 1.000000
tan 0.118110 0.992126 -0.000000 1.000000
tan 0.125984 0.992126 -0.000000 1.000000
tan 0.984252 0.157480 -0.000000 1.000000
tan 0.125984 0.992126 -0.007812 1.000000
tan 0.164424 0.953252 -0.248001 1.000000
tan 0.953810 -0.143964 -0.002976 1.000000
tan 0.953810 0.143964 0.002976 1.000000
tan 0.885610 0.149606 -0.008246 1.000000
tan 0.148428 0.851510 -0.507781 1.000000
tan 0.165726 0.852502 -0.488251 1.000000
tan 0.881704 -0.149606 0.007068 1.000000
tan 0.148428 -0.851510 0.507781 1.000000
tan 0.165726 -0.852502 0.488251 1.000000
tan 0.862112 0.157480 -0.001240 1.000000
tan 0.236096 0.861740 -0.442309 1.000000
tan 0.271809 0.839606 -0.468969 1.000000
tan 0.398599 0.668857 -0.625705 1.000000
tan 0.865956 -0.157480 0.002480 1.000000
tan 0.236096 -0.861740 0.442309 1.000000
tan 0.271809 -0.839606 0.468969 1.000000
tan 0.399343 -0.819889 0.409945 1.000000
tan 0.942402 -0.124000 0.024800 1.000000
tan 0.963110 0.026164 -0.176700 1.000000
tan 0.992126 -0.000000 -0.149606 1.000000
tan 0.133920 0.007812 -0.992126 1.000000
tan 0.992126 -0.000000 -0.149606 1.000000
tan 0.141732 -0.000000 -0.992126 1.000000
tan 0.992126 0.000000 0.149606 1.000000
tan 0.992126 0.000000 0.118110 1.000000
tan 0.992126 0.000000 0.149606 1.000000
tan 0.279745 -0.084320 0.908674 1.000000
tan 0.133858 0.000000 0.992126 1.000000
tan 0.141856 -0.007812 0.992126 1.000000
tan -0.984252 0.157480 -0.000000 1.000000
tan -0.118110 0.992126 -0.000000 1.000000
tan -0.125984 0.992126 -0.000000 1.000000
tan -0.984252 0.157480 -0.000000 1.000000
tan -0.125984 0.992126 -0.007812 1.000000
tan -0.984252 -0.157480 0.000000 1.000000
tan -0.164424 0.953252 -0.248001 1.000000
tan -0.118110 -0.992126 0.000000 1.000000
tan -0.125984 -0.992126 0.000000 1.000000
tan -0.984252 -0.157480 0.000000 1.000000
tan -0.125984 -0.992126 0.007812 1.000000
tan -0.164424 -0.953252 0.248001 1.000000
tan -0.953810 0.143964 0.002976 1.000000
tan -0.953810 -0.143964 -0.002976 1.000000
tan -0.885610 -0.149606 0.008246 1.000000
tan -0.144708 -0.867134 0.484345 1.000000
tan -0.165726 -0.852502 0.488251 1.000000
tan -0.881704 0.149606 -0.007068 1.000000
tan -0.148428 0.851510 -0.507781 1.000000
tan -0.165726 0.852502 -0.488251 1.000000
tan -0.862112 -0.157480 0.001240 1.000000
tan -0.226362 -0.868746 0.453593 1.000000
tan -0.271809 -0.839606 0.468969 1.000000
tan -0.396801 -0.668857 0.618513 1.000000
tan -0.865956 0.157480 -0.002480 1.000000
tan -0.236096 0.861740 -0.442309 1.000000
tan -0.271809 0.839606 -0.468969 1.000000
tan -0.399343 0.819889 -0.409945 1.000000
tan -0.942402 0.124000 -0.024800 1.000000
tan -0.963110 -0.026164 0.176700 1.000000
tan -0.992126 0.000000 0.149606 1.000000
tan -0.133920 -0.007812 0.992126 1.000000
tan -0.992126 0.000000 0.149606 1.000000
tan -0.141732 0.000000 0.992126 1.000000
tan -0.992126 -0.000000 -0.149606 1.000000
tan -0.992126 -0.000000 -0.118110 1.000000
tan -0.992126 -0.000000 -0.149606 1.000000
tan -0.279745 0.084320 -0.908674 1.000000
tan -0.133858 -0.000000 -0.992126 1.000000
tan -0.141856 0.007812 -0.992126 1.000000
tan 0.000000 -0.000000 -1.000000 1.000000
tan 0.000000 -0.000000 -1.000000 1.000000
tan 0.000000 -0.000000 -1.000000 1.000000
tan 0.000000 -0.000000 -1.000000 1.000000
tan 0.000000 -1.000000 0.000000 1.000000
tan -0.118110 -0.992126 0.000000 1.000000
tan -0.118110 -0.992126 0.000000 1.000000
tan -0.118110 -0.992126 0.000000 1.000000
tan 0.000000 -1.000000 -0.023622 1.000000
tan -0.156736 -0.984252 -0.015500 1.000000
tan -0.123194 -0.992126 -0.039060 1.000000
tan 0.000000 -1.000000 0.023622 1.000000
tan -0.137640 -0.984252 -0.046500 1.000000
tan 0.000000 -1.000000 -0.055118 1.000000
tan 0.000000 -1.000000 -0.039370 1.000000
tan -0.166780 -0.976378 -0.061504 1.000000
tan 0.000000 -1.000000 -0.086614 1.000000
tan -0.221712 -0.955174 -0.094488 1.000000
tan 0.000000 -0.968504 -0.236220 1.000000
tan 0.009920 -0.992126 -0.078120 1.000000
tan 0.045446 -0.898382 -0.414037 1.000000
tan -0.251845 -0.899870 -0.241428 1.000000
tan -0.043338 -0.992126 -0.149606 1.000000
tan 0.118110 -0.992126 0.000000 1.000000
tan 0.000000 -1.000000 0.000000 1.000000
tan 0.118110 -0.992126 0.000000 1.000000
tan 0.118110 -0.992126 0.000000 1.000000
tan 0.000000 -1.000000 -0.007874 1.000000
tan 0.156736 -0.984252 -0.015500 1.000000
tan 0.130758 -0.984252 -0.038750 1.000000
tan 0.000000 -1.000000 -0.039370 1.000000
tan 0.000000 -1.000000 0.000000 1.000000
tan 0.000000 -1.000000 -0.070866 1.000000
tan 0.137640 -0.984252 -0.046500 1.000000
tan 0.181164 -0.976378 -0.069192 1.000000
tan 0.000000 -0.992126 -0.094488 1.000000
tan 0.221712 -0.955174 -0.094488 1.000000
tan 0.000000 -0.992126 -0.149606 1.000000
tan 0.251845 -0.899870 -0.241428 1.000000
tan 0.000000 -0.960630 -0.267716 1.000000
tan -0.004960 -0.992126 -0.039060 1.000000
tan -0.045942 -0.890570 -0.445285 1.000000
tan 0.000000 -1.000000 -0.039370 1.000000
tan 0.000000 -1.000000 0.000000 1.000000
tan 0.000000 -1.000000 0.000000 1.000000
tan 0.000000 -1.000000 -0.007874 1.000000
tan 0.118110 -0.992126 0.000000 1.000000
tan 0.118110 -0.992126 0.000000 1.000000
tan 0.118110 -0.992126 0.000000 1.000000
tan 0.156736 -0.984252 -0.015500 1.000000
tan 0.130758 -0.992126 -0.039060 1.000000
tan 0.000000 -1.000000 -0.070866 1.000000
tan 0.137640 -0.984252 -0.046500 1.000000
tan 0.181164 -0.976378 -0.069192 1.000000
tan 0.000000 -0.992126 -0.094488 1.000000
tan 0.221712 -0.955174 -0.094488 1.000000
tan 0.000000 -0.992126 -0.149606 1.000000
tan 0.251845 -0.899870 -0.241428 1.000000
tan 0.000000 -0.960630 -0.267716 1.000000
tan -0.004960 -0.992126 -0.039060 1.000000
tan -0.045942 -0.890570 -0.445285 1.000000
tan 0.000000 -1.000000 0.000000 1.000000
tan 0.000000 -1.000000 -0.047244 1.000000
tan 0.000000 -1.000000 0.000000 1.000000
tan 0.000000 -1.000000 -0.007874 1.000000
tan -0.118110 -0.992126 0.000000 1.000000
tan -0.118110 -0.992126 0.000000 1.000000
tan -0.118110 -0.992126 0.000000 1.000000
tan -0.156736 -0.984252 -0.015500 1.000000
tan -0.130758 -0.992126 -0.039060 1.000000
tan 0.000000 -1.000000 -0.070866 1.000000
tan -0.137640 -0.984252 -0.046500 1.000000
tan -0.181164 -0.976378 -0.069192 1.000000
tan 0.000000 -0.992126 -0.094488 1.000000
tan -0.221712 -0.955174 -0.094488 1.000000
tan 0.000000 -0.992126 -0.149606 1.000000
tan -0.251845 -0.899870 -0.241428 1.000000
tan 0.000000 -0.960630 -0.267716 1.000000
tan 0.005952 -0.992126 -0.046872 1.000000
tan 0.046438 -0.898382 -0.421849 1.000000
f 3/3/3 2/2/2 1/1/1
f 4/4/4 1/1/1 2/2/2
f 7/7/7 6/6/6 5/5/5
f 6/6/6 8/8/8 5/5/5
f 11/11/11 10/10/10 9/9/9
f 10/10/10 11/11/11 12/12/12
f 15/15/15 14/14/14 13/13/13
f 16/16/16 13/13/13 14/14/14
f 19/19/19 18/18/18 17/17/17
f 18/18/18 19/19/19 20/20/20
f 23/23/23 22/22/22 21/21/21
f 21/21/21 24/24/24 23/23/23
f 27/27/27 26/26/26 25/25/25
f 28/28/28 25/25/25 26/26/26
f 31/31/31 30/30/30 29/29/29
f 32/32/32 29/29/29 30/30/30
f 35/35/35 34/34/34 33/33/33
f 35/35/35 33/33/33 36/36/36
f 39/39/39 38/38/38 37/37/37
f 37/37/37 40/40/40 39/39/39
f 43/43/43 42/42/42 41/41/41
f 44/44/44 42/42/42 43/43/43
f 47/47/47 46/46/46 45/45/45
f 46/46/46 48/48/48 45/45/45
f 51/51/51 50/50/50 49/49/49
f 49/49/49 52/52/52 51/51/51
f 55/55/55 54/54/54 53/53/53
f 54/54/54 56/56/56 53/53/53
f 59/59/59 58/58/58 57/57/57
f 60/60/60 57/57/57 58/58/58
f 63/63/63 62/62/62 61/61/61
f 64/64/64 62/62/62 63/63/63
f 67/67/67 66/66/66 65/65/65
f 67/67/67 68/68/68 66/66/66
f 71/71/71 70/70/70 69/69/69
f 72/72/72 69/69/69 70/70/70
f 75/75/75 74/74/74 73/73/73
f 74/74/74 75/75/75 76/76/76
f 79/79/79 78/78/78 77/77/77
f 78/78/78 80/80/80 77/77/77
f 83/83/83 82/82/82 81/81/81
f 84/84/84 81/81/81 82/82/82
f 87/87/87 86/86/86 85/85/85
f 86/86/86 87/87/87 88/88/88
f 91/91/91 90/90/90 89/89/89
f 92/92/92 89/89/89 90/90/90
f 95/95/95 94/94/94 93/93/93
f 93/93/93 96/96/96 95/95/95
f 99/99/99 98/98/98 97/97/97
f 100/100/100 97/97/97 98/98/98
f 103/103/103 102/102/102 101/101/101
f 101/101/101 104/104/104 103/103/103
f 107/107/107 106/106/106 105/105/105
f 108/108/108 105/105/105 106/106/106
f 111/111/111 110/110/110 109/109/109
f 111/111/111 109/109/109 112/112/112
f 115/115/115 114/114/114 113/113/113
f 115/115/115 113/113/113 116/116/116
f 119/119/119 118/118/118 117/117/117
f 120/120/120 117/117/117 118/118/118
f 123/123/123 122/122/122 121/121/121
f 122/122/122 123/123/123 124/124/124
f 127/127/127 126/126/126 125/125/125
f 127/127/127 125/125/125 128/128/128
f 131/131/131 130/130/130 129/129/129
f 130/130/130 131/131/131 132/132/132
f 135/135/135 134/134/134 133/133/133
f 133/133/133 136/136/136 135/135/135
f 139/139/139 138/138/138 137/137/137
f 140/140/140 138/138/138 139/139/139
f 143/143/143 142/142/142 141/141/141
f 141/141/141 144/144/144 143/143/143
f 147/147/147 146/146/146 145/145/145
f 145/145/145 148/148/148 147/147/147
f 151/151/151 150/150/150 149/149/149
f 150/150/150 152/152/152 149/149/149
f 155/155/155 154/154/154 153/153/153
f 154/154/154 156/156/156 153/153/153
f 159/159/159 158/158/158 157/157/157
f 158/158/158 160/160/160 157/157/157
f 163/163/163 162/162/162 161/161/161
f 162/162/162 164/164/164 161/161/161
f 167/167/167 166/166/166 165/165/165
f 168/168/168 165/165/165 166/166/166
f 171/171/171 170/170/170 169/169/169
f 170/170/170 172/172/172 169/169/169
f 175/175/175 174/174/174 173/173/173
f 173/173/173 176/176/176 175/175/175
f 179/179/179 178/178/178 177/177/177
f 178/178/178 179/179/179 180/180/180
f 183/183/183 182/182/182 181/181/181
f 182/182/182 183/183/183 184/184/184
f 187/187/187 186/186/186 185/185/185
f 188/188/188 185/185/185 186/186/186
f 191/191/191 190/190/190 189/189/189
f 190/190/190 191/191/191 192/192/192
f 195/195/195 194/194/194 193/193/193
f 196/196/196 193/193/193 194/194/194
f 199/199/199 198/198/198 197/197/197
f 198/198/198 199/199/199 200/200/200
f 203/203/203 202/202/202 201/201/201
f 201/201/201 202/202/202 204/204/204
f 207/207/207 206/206/206 205/205/205
f 208/208/208 205/205/205 206/206/206
f 206/206/206 209/209/209 208/208/208
f 205/205/205 208/208/208 210/210/210
f 208/208/208 209/209/209 211/211/211
f 213/213/213 210/210/210 212/212/212
f 212/212/212 210/210/210 214/214/214
f 214/214/214 210/210/210 208/208/208
f 212/212/212 214/214/214 215/215/215
f 215/215/215 214/214/214 216/216/216
f 211/211/211 217/217/217 208/208/208
f 208/208/208 217/217/217 214/214/214
f 218/218/218 216/216/216 214/214/214
f 218/218/218 214/214/214 217/217/217
f 218/218/218 219/219/219 216/216/216
f 218/218/218 217/217/217 219/219/219
f 220/220/220 216/216/216 219/219/219
f 221/221/221 220/220/220 219/219/219
f 211/211/211 222/222/222 217/217/217
f 222/222/222 219/219/219 217/217/217
f 222/222/222 211/211/211 223/223/223
f 222/222/222 223/223/223 224/224/224
f 219/219/219 225/225/225 221/221/221
f 219/219/219 222/222/222 225/225/225
f 226/226/226 221/221/221 225/225/225
f 226/226/226 225/225/225 227/227/227
f 227/227/227 225/225/225 228/228/228
f 224/224/224 229/229/229 222/222/222
f 229/229/229 225/225/225 222/222/222
f 229/229/229 224/224/224 230/230/230
f 230/230/230 231/231/231 229/229/229
f 231/231/231 232/232/232 229/229/229
f 233/233/233 229/229/229 232/232/232
f 234/234/234 229/229/229 233/233/233
f 225/225/225 229/229/229 234/234/234
f 234/234/234 228/228/228 225/225/225
f 234/234/234 235/235/235 228/228/228
f 236/236/236 228/228/228 235/235/235
f 238/238/238 236/236/236 237/237/237
f 235/235/235 237/237/237 236/236/236
f 235/235/235 234/234/234 239/239/239
f 237/237/237 235/235/235 239/239/239
f 240/240/240 239/239/239 234/234/234
f 239/239/239 241/241/241 237/237/237
f 242/242/242 239/239/239 240/240/240
f 243/243/243 241/241/241 239/239/239
f 239/239/239 242/242/242 244/244/244
f 243/243/243 239/239/239 244/244/244
f 247/247/247 246/246/246 245/245/245
f 248/248/248 245/245/245 246/246/246
f 246/246/246 249/249/249 248/248/248
f 250/250/250 245/245/245 248/248/248
f 248/248/248 249/249/249 251/251/251
f 253/253/253 250/250/250 252/252/252
f 252/252/252 250/250/250 254/254/254
f 250/250/250 248/248/248 254/254/254
f 252/252/252 254/254/254 255/255/255
f 255/255/255 254/254/254 256/256/256
f 251/251/251 257/257/257 248/248/248
f 248/248/248 257/257/257 254/254/254
f 258/258/258 256/256/256 254/254/254
f 258/258/258 254/254/254 257/257/257
f 258/258/258 259/259/259 256/256/256
f 258/258/258 257/257/257 259/259/259
f 260/260/260 256/256/256 259/259/259
f 261/261/261 260/260/260 259/259/259
f 251/251/251 262/262/262 257/257/257
f 262/262/262 259/259/259 257/257/257
f 262/262/262 251/251/251 263/263/263
f 262/262/262 263/263/263 264/264/264
f 259/259/259 265/265/265 261/261/261
f 259/259/259 262/262/262 265/265/265
f 266/266/266 261/261/261 265/265/265
f 266/266/266 265/265/265 267/267/267
f 267/267/267 265/265/265 268/268/268
f 264/264/264 269/269/269 262/262/262
f 269/269/269 265/265/265 262/262/262
f 269/269/269 264/264/264 270/270/270
f 270/270/270 271/271/271 269/269/269
f 271/271/271 272/272/272 269/269/269
f 273/273/273 269/269/269 272/272/272
f 274/274/274 269/269/269 273/273/273
f 265/265/265 269/269/269 274/274/274
f 274/274/274 268/268/268 265/265/265
f 274/274/274 275/275/275 268/268/268
f 276/276/276 268/268/268 275/275/275
f 278/278/278 276/276/276 277/277/277
f 275/275/275 277/277/277 276/276/276
f 275/275/275 274/274/274 279/279/279
f 277/277/277 275/275/275 279/279/279
f 280/280/280 279/279/279 274/274/274
f 279/279/279 281/281/281 277/277/277
f 282/282/282 279/279/279 280/280/280
f 283/283/283 281/281/281 279/279/279
f 279/279/279 282/282/282 284/284/284
f 283/283/283 279/279/279 284/284/284
f 287/287/287 286/286/286 285/285/285
f 286/286/286 287/287/287 288/288/288
f 291/291/291 290/290/290 289/289/289
f 290/290/290 292/292/292 289/289/289
f 293/293/293 289/289/289 292/292/292
f 292/292/292 294/294/294 293/293/293
f 294/294/294 295/295/295 293/293/293
f 289/289/289 293/293/293 296/296/296
f 295/295/295 297/297/297 293/293/293
f 293/293/293 298/298/298 296/296/296
f 293/293/293 297/297/297 298/298/298
f 298/298/298 299/299/299 296/296/296
f 297/297/297 300/300/300 298/298/298
f 301/301/301 298/298/298 300/300/300
f 298/298/298 301/301/301 299/299/299
f 300/300/300 302/302/302 301/301/301
f 301/301/301 303/303/303 299/299/299
f 303/303/303 304/304/304 299/299/299
f 304/304/304 303/303/303 305/305/305
f 305/305/305 303/303/303 306/306/306
f 307/307/307 301/301/301 302/302/302
f 302/302/302 306/306/306 307/307/307
f 303/303/303 301/301/301 307/307/307
f 303/303/303 307/307/307 306/306/306
f 310/310/310 309/309/309 308/308/308
f 308/308/308 309/309/309 311/311/311
f 311/311/311 309/309/309 312/312/312
f 311/311/311 312/312/312 313/313/313
f 313/313/313 312/312/312 314/314/314
f 309/309/309 316/316/316 315/315/315
f 309/309/309 315/315/315 312/312/312
f 314/314/314 312/312/312 317/317/317
f 312/312/312 315/315/315 317/317/317
f 314/314/314 317/317/317 318/318/318
f 318/318/318 317/317/317 319/319/319
f 319/319/319 317/317/317 320/320/320
f 317/317/317 315/315/315 320/320/320
f 319/319/319 320/320/320 321/321/321
f 321/321/321 320/320/320 322/322/322
f 320/320/320 315/315/315 322/322/322
f 321/321/321 322/322/322 323/323/323
f 322/322/322 315/315/315 324/324/324
f 323/323/323 322/322/322 324/324/324
f 324/324/324 315/315/315 325/325/325
f 323/323/323 324/324/324 326/326/326
f 326/326/326 324/324/324 325/325/325
f 329/329/329 328/328/328 327/327/327
f 330/330/330 329/329/329 327/327/327
f 331/331/331 329/329/329 330/330/330
f 331/331/331 330/330/330 332/332/332
f 332/332/332 330/330/330 333/333/333
f 333/333/333 330/330/330 334/334/334
f 334/334/334 330/330/330 335/335/335
f 335/335/335 330/330/330 336/336/336
f 330/330/330 327/327/327 336/336/336
f 335/335/335 336/336/336 337/337/337
f 337/337/337 336/336/336 338/338/338
f 338/338/338 336/336/336 339/339/339
f 336/336/336 327/327/327 339/339/339
f 338/338/338 339/339/339 340/340/340
f 340/340/340 339/339/339 341/341/341
f 339/339/339 327/327/327 341/341/341
f 340/340/340 341/341/341 342/342/342
f 341/341/341 327/327/327 343/343/343
f 342/342/342 341/341/341 343/343/343
f 343/343/343 327/327/327 344/344/344
f 342/342/342 343/343/343 345/345/345
f 345/345/345 343/343/343 344/344/344
f 348/348/348 347/347/347 346/346/346
f 347/347/347 348/348/348 349/349/349
f 349/349/349 348/348/348 350/350/350
f 350/350/350 351/351/351 349/349/349
f 351/351/351 352/352/352 349/349/349
f 352/352/352 353/353/353 349/349/349
f 353/353/353 354/354/354 349/349/349
f 349/349/349 354/354/354 355/355/355
f 349/349/349 355/355/355 347/347/347
f 354/354/354 356/356/356 355/355/355
f 356/356/356 357/357/357 355/355/355
f 358/358/358 355/355/355 357/357/357
f 355/355/355 358/358/358 347/347/347
f 357/357/357 359/359/359 358/358/358
f 360/360/360 358/358/358 359/359/359
f 358/358/358 360/360/360 347/347/347
f 359/359/359 361/361/361 360/360/360
f 360/360/360 362/362/362 347/347/347
f 362/362/362 360/360/360 361/361/361
f 362/362/362 363/363/363 347/347/347
f 364/364/364 362/362/362 361/361/361
f 363/363/363 362/362/362 364/364/364
