mtllib SM_Wall_01_LOD1@000002909DC08800.mtl
g SM_Wall_01_LOD1@000002909DC08800
#Vertices 340
#Indices 1254
#Section 0 Offset 0 NumIndices 675 MaterialIndex 0 MI_ConcreteTrim_A_02
#Section 1 Offset 675 NumIndices 579 MaterialIndex 1 MI_BrickTile_B_01
v -0.000002 3.250000 -0.307507 0.000000 0.000000 1.000000 1.000000
v 0.727270 3.317493 -0.375000 1.000000 1.000000 1.000000 1.000000
v -0.000002 3.317493 -0.375000 0.000000 0.000000 1.000000 1.000000
v 0.727270 3.250000 -0.307507 1.000000 1.000000 1.000000 1.000000
v 1.454543 3.317493 -0.375000 1.000000 1.000000 1.000000 1.000000
v 1.454543 3.250000 -0.307507 1.000000 1.000000 1.000000 1.000000
v 2.181816 3.317493 -0.375000 1.000000 1.000000 1.000000 1.000000
v 2.181816 3.250000 -0.307507 1.000000 1.000000 1.000000 1.000000
v 2.909088 3.317493 -0.375000 1.000000 1.000000 1.000000 1.000000
v 2.909089 3.250000 -0.307507 1.000000 1.000000 1.000000 1.000000
v 3.636361 3.317493 -0.375000 1.000000 1.000000 1.000000 1.000000
v 3.636361 3.250000 -0.307507 1.000000 1.000000 1.000000 1.000000
v 4.363634 3.250000 -0.307507 1.000000 1.000000 1.000000 1.000000
v 4.363634 3.317493 -0.375000 0.905882 0.905882 1.000000 1.000000
v 5.090907 3.250000 -0.307507 1.000000 1.000000 1.000000 1.000000
v 5.090907 3.317493 -0.375000 1.000000 1.000000 1.000000 1.000000
v 5.818179 3.250000 -0.307507 0.360784 0.360784 1.000000 1.000000
v 5.818179 3.317493 -0.375000 0.000000 0.000000 1.000000 1.000000
v 6.545452 3.250000 -0.307507 1.000000 1.000000 1.000000 1.000000
v 6.545452 3.317493 -0.375000 1.000000 1.000000 1.000000 1.000000
v 7.272724 3.250000 -0.307507 1.000000 1.000000 1.000000 1.000000
v 7.272724 3.317493 -0.375000 1.000000 1.000000 1.000000 1.000000
v 7.999997 3.250000 -0.307507 1.000000 1.000000 1.000000 1.000000
v 7.999997 3.317493 -0.375000 1.000000 1.000000 1.000000 1.000000
v -0.000002 3.932506 -0.375000 0.000000 0.000000 1.000000 1.000000
v 0.727270 3.932506 -0.375000 0.972549 0.972549 1.000000 1.000000
v -0.000002 4.000000 -0.307507 0.000000 0.000000 1.000000 1.000000
v 0.727270 4.000000 -0.307507 0.000000 0.000000 1.000000 1.000000
v 1.454543 3.932506 -0.375000 1.000000 1.000000 1.000000 1.000000
v 1.454543 4.000000 -0.307507 1.000000 1.000000 1.000000 1.000000
v 2.181816 3.932506 -0.375000 1.000000 1.000000 1.000000 1.000000
v 2.181816 4.000000 -0.307507 0.647059 0.647059 1.000000 1.000000
v 2.909088 3.932506 -0.375000 0.694118 0.694118 1.000000 1.000000
v 2.909089 4.000000 -0.307507 0.078431 0.078431 1.000000 1.000000
v 3.636361 3.932506 -0.375000 0.000000 0.000000 1.000000 1.000000
v 3.636361 4.000000 -0.307507 0.000000 0.000000 1.000000 1.000000
v 4.363634 3.932506 -0.375000 0.000000 0.000000 1.000000 1.000000
v 4.363634 4.000000 -0.307507 0.000000 0.000000 1.000000 1.000000
v 5.090907 3.932506 -0.375000 0.000000 0.000000 1.000000 1.000000
v 5.090907 4.000000 -0.307507 0.000000 0.000000 1.000000 1.000000
v 5.818179 3.932506 -0.375000 0.000000 0.000000 1.000000 1.000000
v 5.818179 4.000000 -0.307507 0.000000 0.000000 1.000000 1.000000
v 6.545452 3.932506 -0.375000 0.000000 0.000000 1.000000 1.000000
v 6.545452 4.000000 -0.307507 0.000000 0.000000 1.000000 1.000000
v 7.272724 3.932506 -0.375000 0.000000 0.000000 1.000000 1.000000
v 7.272724 4.000000 -0.307507 0.000000 0.000000 1.000000 1.000000
v 7.999997 3.932506 -0.375000 0.000000 0.000000 1.000000 1.000000
v 7.999997 4.000000 -0.307507 0.000000 0.000000 1.000000 1.000000
v -0.000000 4.000000 0.307506 0.000000 0.000000 1.000000 1.000000
v 0.727273 4.000000 0.307506 0.000000 0.000000 1.000000 1.000000
v 0.000000 3.932506 0.374999 0.000000 0.000000 1.000000 1.000000
v 0.727273 3.932506 0.374999 0.000000 0.000000 1.000000 1.000000
v 1.454545 4.000000 0.307506 0.000000 0.000000 1.000000 1.000000
v 1.454545 3.932506 0.374999 0.000000 0.000000 1.000000 1.000000
v 2.181818 4.000000 0.307506 0.000000 0.000000 1.000000 1.000000
v 2.181818 3.932506 0.374999 0.000000 0.000000 1.000000 1.000000
v 2.909091 4.000000 0.307506 0.000000 0.000000 1.000000 1.000000
v 2.909091 3.932506 0.374999 0.000000 0.000000 1.000000 1.000000
v 3.636364 4.000000 0.307506 0.000000 0.000000 1.000000 1.000000
v 3.636364 3.932506 0.374999 0.000000 0.000000 1.000000 1.000000
v 4.363636 4.000000 0.307506 0.000000 0.000000 1.000000 1.000000
v 4.363636 3.932506 0.374999 0.000000 0.000000 1.000000 1.000000
v 5.090909 4.000000 0.307506 0.000000 0.000000 1.000000 1.000000
v 5.090909 3.932506 0.374999 0.000000 0.000000 1.000000 1.000000
v 5.818182 4.000000 0.307506 0.000000 0.000000 1.000000 1.000000
v 5.818182 3.932506 0.374999 0.000000 0.000000 1.000000 1.000000
v 6.545454 4.000000 0.307506 0.000000 0.000000 1.000000 1.000000
v 6.545454 3.932506 0.374999 0.000000 0.000000 1.000000 1.000000
v 7.272727 4.000000 0.307506 0.000000 0.000000 1.000000 1.000000
v 7.272727 3.932506 0.374999 0.000000 0.000000 1.000000 1.000000
v 8.000000 4.000000 0.307506 0.000000 0.000000 1.000000 1.000000
v 8.000000 3.932506 0.374999 0.000000 0.000000 1.000000 1.000000
v 8.000000 3.250000 0.307506 0.000000 0.000000 1.000000 1.000000
v 7.272727 3.250000 0.307506 0.000000 0.000000 1.000000 1.000000
v 8.000000 3.317493 0.375000 0.000000 0.000000 1.000000 1.000000
v 7.272727 3.317493 0.375000 0.000000 0.000000 1.000000 1.000000
v 6.545454 3.250000 0.307506 0.000000 0.000000 1.000000 1.000000
v 6.545454 3.317493 0.375000 0.000000 0.000000 1.000000 1.000000
v 5.818182 3.250000 0.307506 0.000000 0.000000 1.000000 1.000000
v 5.818182 3.317493 0.375000 0.000000 0.000000 1.000000 1.000000
v 5.090909 3.250000 0.307506 0.000000 0.000000 1.000000 1.000000
v 5.090909 3.317493 0.375000 0.000000 0.000000 1.000000 1.000000
v 4.363636 3.250000 0.307506 0.000000 0.000000 1.000000 1.000000
v -0.000000 3.317493 0.374999 0.000000 0.000000 1.000000 1.000000
v 3.636364 3.250000 0.307506 0.000000 0.000000 1.000000 1.000000
v 2.909091 3.250000 0.307506 0.000000 0.000000 1.000000 1.000000
v 2.181818 3.250000 0.307506 0.000000 0.000000 1.000000 1.000000
v 1.454545 3.250000 0.307506 0.000000 0.000000 1.000000 1.000000
v 0.727273 3.250000 0.307506 0.000000 0.000000 1.000000 1.000000
v -0.000000 3.250000 0.307506 0.000000 0.000000 1.000000 1.000000
v 0.727270 4.000000 -0.307507 0.000000 0.000000 1.000000 1.000000
v -0.000002 4.000000 -0.102503 0.000000 0.000000 1.000000 1.000000
v -0.000002 4.000000 -0.307507 0.000000 0.000000 1.000000 1.000000
v 2.920453 4.000000 0.078478 0.000000 0.000000 1.000000 1.000000
v 1.454543 4.000000 -0.307507 1.000000 1.000000 1.000000 1.000000
v 2.181816 4.000000 -0.307507 0.647059 0.647059 1.000000 1.000000
v 2.909089 4.000000 -0.307507 0.078431 0.078431 1.000000 1.000000
v -0.000001 4.000000 0.102502 0.000000 0.000000 1.000000 1.000000
v 3.636361 4.000000 -0.307507 0.000000 0.000000 1.000000 1.000000
v 0.727272 4.000000 0.102502 0.000000 0.000000 1.000000 1.000000
v -0.000000 4.000000 0.307506 0.000000 0.000000 1.000000 1.000000
v 0.727273 4.000000 0.307506 0.000000 0.000000 1.000000 1.000000
v 1.454545 4.000000 0.307506 0.000000 0.000000 1.000000 1.000000
v 2.181818 4.000000 0.307506 0.000000 0.000000 1.000000 1.000000
v 2.909091 4.000000 0.307506 0.000000 0.000000 1.000000 1.000000
v 3.636364 4.000000 0.307506 0.000000 0.000000 1.000000 1.000000
v 4.363636 4.000000 0.102502 0.000000 0.000000 1.000000 1.000000
v 4.363636 4.000000 0.307506 0.000000 0.000000 1.000000 1.000000
v 4.818181 4.000000 -0.051252 0.000000 0.000000 1.000000 1.000000
v 4.363634 4.000000 -0.307507 0.000000 0.000000 1.000000 1.000000
v 5.090907 4.000000 -0.307507 0.000000 0.000000 1.000000 1.000000
v 5.818179 4.000000 -0.307507 0.000000 0.000000 1.000000 1.000000
v 5.090909 4.000000 0.307506 0.000000 0.000000 1.000000 1.000000
v 6.545452 4.000000 -0.307507 0.000000 0.000000 1.000000 1.000000
v 7.999998 4.000000 -0.103108 0.000000 0.000000 1.000000 1.000000
v 5.818182 4.000000 0.307506 0.000000 0.000000 1.000000 1.000000
v 7.272724 4.000000 -0.307507 0.000000 0.000000 1.000000 1.000000
v 7.999997 4.000000 -0.307507 0.000000 0.000000 1.000000 1.000000
v 6.545454 4.000000 0.307506 0.000000 0.000000 1.000000 1.000000
v 7.272727 4.000000 0.307506 0.000000 0.000000 1.000000 1.000000
v 8.000000 4.000000 0.307506 0.000000 0.000000 1.000000 1.000000
v 7.999999 3.250000 0.102502 0.000000 0.000000 1.000000 1.000000
v 7.272727 3.250000 0.307506 0.000000 0.000000 1.000000 1.000000
v 8.000000 3.250000 0.307506 0.000000 0.000000 1.000000 1.000000
v 6.230112 3.250000 -0.032032 0.000000 0.000000 1.000000 1.000000
v 6.545454 3.250000 0.307506 0.000000 0.000000 1.000000 1.000000
v 5.818182 3.250000 0.307506 0.000000 0.000000 1.000000 1.000000
v 5.090909 3.250000 0.307506 0.000000 0.000000 1.000000 1.000000
v 4.363636 3.250000 0.307506 0.000000 0.000000 1.000000 1.000000
v 3.636364 3.250000 0.307506 0.000000 0.000000 1.000000 1.000000
v 2.909091 3.250000 0.307506 0.000000 0.000000 1.000000 1.000000
v 7.999998 3.250000 -0.102547 1.000000 1.000000 1.000000 1.000000
v 2.181818 3.250000 0.307506 0.000000 0.000000 1.000000 1.000000
v 7.999997 3.250000 -0.307507 1.000000 1.000000 1.000000 1.000000
v 7.272724 3.250000 -0.307507 1.000000 1.000000 1.000000 1.000000
v 6.545452 3.250000 -0.307507 1.000000 1.000000 1.000000 1.000000
v 5.818179 3.250000 -0.307507 0.360784 0.360784 1.000000 1.000000
v 5.090907 3.250000 -0.307507 1.000000 1.000000 1.000000 1.000000
v 4.363634 3.250000 -0.307507 1.000000 1.000000 1.000000 1.000000
v 3.636361 3.250000 -0.307507 1.000000 1.000000 1.000000 1.000000
v 2.909089 3.250000 -0.307507 1.000000 1.000000 1.000000 1.000000
v 1.227272 3.250000 0.019219 0.000000 0.000000 1.000000 1.000000
v 2.181816 3.250000 -0.307507 1.000000 1.000000 1.000000 1.000000
v 1.454545 3.250000 0.307506 0.000000 0.000000 1.000000 1.000000
v 1.454543 3.250000 -0.307507 1.000000 1.000000 1.000000 1.000000
v 0.727273 3.250000 0.307506 0.000000 0.000000 1.000000 1.000000
v -0.000000 3.250000 0.307506 0.000000 0.000000 1.000000 1.000000
v 0.727270 3.250000 -0.307507 1.000000 1.000000 1.000000 1.000000
v -0.000001 3.250000 0.052928 0.000000 0.000000 1.000000 1.000000
v -0.000002 3.250000 -0.307507 0.000000 0.000000 1.000000 1.000000
v -0.000002 3.727502 -0.375000 0.000000 0.000000 1.000000 1.000000
v 0.727270 3.932506 -0.375000 0.972549 0.972549 1.000000 1.000000
v -0.000002 3.932506 -0.375000 0.000000 0.000000 1.000000 1.000000
v 0.727270 3.727502 -0.375000 1.000000 1.000000 1.000000 1.000000
v 1.454543 3.932506 -0.375000 1.000000 1.000000 1.000000 1.000000
v -0.000002 3.522497 -0.375000 0.000000 0.000000 1.000000 1.000000
v 1.818179 3.676251 -0.375000 1.000000 1.000000 1.000000 1.000000
v 2.181816 3.932506 -0.375000 1.000000 1.000000 1.000000 1.000000
v 0.727270 3.522497 -0.375000 1.000000 1.000000 1.000000 1.000000
v -0.000002 3.317493 -0.375000 0.000000 0.000000 1.000000 1.000000
v 0.727270 3.317493 -0.375000 1.000000 1.000000 1.000000 1.000000
v 2.909088 3.932506 -0.375000 0.694118 0.694118 1.000000 1.000000
v 1.454543 3.522497 -0.375000 1.000000 1.000000 1.000000 1.000000
v 1.454543 3.317493 -0.375000 1.000000 1.000000 1.000000 1.000000
v 2.181816 3.317493 -0.375000 1.000000 1.000000 1.000000 1.000000
v 2.909088 3.727502 -0.375000 1.000000 1.000000 1.000000 1.000000
v 3.636361 3.932506 -0.375000 0.000000 0.000000 1.000000 1.000000
v 3.272725 3.625000 -0.375000 0.000000 0.000000 1.000000 1.000000
v 2.909088 3.317493 -0.375000 1.000000 1.000000 1.000000 1.000000
v 4.363634 3.932506 -0.375000 0.000000 0.000000 1.000000 1.000000
v 4.363634 3.727502 -0.375000 0.000000 0.000000 1.000000 1.000000
v 5.090907 3.932506 -0.375000 0.000000 0.000000 1.000000 1.000000
v 4.227271 3.548123 -0.375000 0.000000 0.000000 1.000000 1.000000
v 3.636361 3.317493 -0.375000 1.000000 1.000000 1.000000 1.000000
v 5.818179 3.932506 -0.375000 0.000000 0.000000 1.000000 1.000000
v 4.363634 3.317493 -0.375000 0.905882 0.905882 1.000000 1.000000
v 5.090907 3.317493 -0.375000 1.000000 1.000000 1.000000 1.000000
v 6.545452 3.932506 -0.375000 0.000000 0.000000 1.000000 1.000000
v 5.818179 3.317493 -0.375000 0.000000 0.000000 1.000000 1.000000
v 6.181815 3.625000 -0.375000 1.000000 1.000000 1.000000 1.000000
v 7.272724 3.932506 -0.375000 0.000000 0.000000 1.000000 1.000000
v 6.545452 3.522497 -0.375000 1.000000 1.000000 1.000000 1.000000
v 6.545452 3.317493 -0.375000 1.000000 1.000000 1.000000 1.000000
v 7.272724 3.727502 -0.375000 1.000000 1.000000 1.000000 1.000000
v 7.999996 3.727502 -0.375000 0.000000 0.000000 1.000000 1.000000
v 7.999997 3.932506 -0.375000 0.000000 0.000000 1.000000 1.000000
v 7.999996 3.522497 -0.375000 0.000000 0.000000 1.000000 1.000000
v 7.272724 3.317493 -0.375000 1.000000 1.000000 1.000000 1.000000
v 7.999997 3.317493 -0.375000 1.000000 1.000000 1.000000 1.000000
v 8.000000 3.317493 0.375000 0.000000 0.000000 1.000000 1.000000
v 7.272727 3.317493 0.375000 0.000000 0.000000 1.000000 1.000000
v 8.000000 3.564790 0.375000 0.000000 0.000000 1.000000 1.000000
v 6.545454 3.317493 0.375000 0.000000 0.000000 1.000000 1.000000
v 7.272727 3.932506 0.374999 0.000000 0.000000 1.000000 1.000000
v 8.000000 3.932506 0.374999 0.000000 0.000000 1.000000 1.000000
v 6.545454 3.932506 0.374999 0.000000 0.000000 1.000000 1.000000
v 5.818182 3.932506 0.374999 0.000000 0.000000 1.000000 1.000000
v 4.818182 3.676251 0.374999 0.000000 0.000000 1.000000 1.000000
v 5.818182 3.317493 0.375000 0.000000 0.000000 1.000000 1.000000
v 5.090909 3.932506 0.374999 0.000000 0.000000 1.000000 1.000000
v 4.363636 3.932506 0.374999 0.000000 0.000000 1.000000 1.000000
v 3.636364 3.932506 0.374999 0.000000 0.000000 1.000000 1.000000
v 5.090909 3.317493 0.375000 0.000000 0.000000 1.000000 1.000000
v 2.909091 3.932506 0.374999 0.000000 0.000000 1.000000 1.000000
v 4.363636 3.522497 0.375000 0.000000 0.000000 1.000000 1.000000
v -0.000000 3.317493 0.374999 0.000000 0.000000 1.000000 1.000000
v 3.272727 3.573748 0.375000 0.000000 0.000000 1.000000 1.000000
v 2.181818 3.932506 0.374999 0.000000 0.000000 1.000000 1.000000
v 2.181818 3.727502 0.374999 0.000000 0.000000 1.000000 1.000000
v 1.454545 3.932506 0.374999 0.000000 0.000000 1.000000 1.000000
v 2.181818 3.522497 0.375000 0.000000 0.000000 1.000000 1.000000
v 1.454545 3.727502 0.374999 0.000000 0.000000 1.000000 1.000000
v 0.727273 3.932506 0.374999 0.000000 0.000000 1.000000 1.000000
v 1.454545 3.522497 0.375000 0.000000 0.000000 1.000000 1.000000
v 0.727273 3.727502 0.374999 0.000000 0.000000 1.000000 1.000000
v 0.000000 3.932506 0.374999 0.000000 0.000000 1.000000 1.000000
v 8.000000 3.181817 0.250000 0.000000 0.000000 1.000000 1.000000
v 7.203994 3.500000 0.250000 0.000000 0.000000 1.000000 1.000000
v 8.000000 3.500000 0.250000 0.000000 0.000000 1.000000 1.000000
v 8.000000 2.863636 0.250000 0.000000 0.000000 1.000000 1.000000
v 7.272727 2.863636 0.250000 0.000000 0.000000 1.000000 1.000000
v 8.000000 2.545454 0.250000 0.000000 0.000000 1.000000 1.000000
v 7.272727 2.545454 0.250000 0.000000 0.000000 1.000000 1.000000
v 8.000000 2.514496 0.250000 0.000000 0.000000 1.000000 1.000000
v 6.545454 2.863636 0.250000 0.000000 0.000000 1.000000 1.000000
v 6.545454 2.545455 0.250000 0.000000 0.000000 1.000000 1.000000
v 6.545454 2.227273 0.250000 0.000000 0.000000 1.000000 1.000000
v 5.818182 2.863636 0.250000 0.000000 0.000000 1.000000 1.000000
v 5.818182 3.181818 0.250000 0.000000 0.000000 1.000000 1.000000
v 5.818182 3.500000 0.250000 0.000000 0.000000 1.000000 1.000000
v 5.818182 2.545455 0.250000 0.000000 0.000000 1.000000 1.000000
v 5.090909 3.181818 0.250000 0.000000 0.000000 1.000000 1.000000
v 4.363684 3.500001 0.250000 0.000000 0.000000 1.000000 1.000000
v 4.727273 2.863637 0.250000 0.000000 0.000000 1.000000 1.000000
v 4.363636 3.181819 0.250000 0.000000 0.000000 1.000000 1.000000
v 3.636364 3.500001 0.250000 0.000000 0.000000 1.000000 1.000000
v 3.636364 3.181819 0.250000 0.000000 0.000000 1.000000 1.000000
v 2.909091 3.500001 0.250000 0.000000 0.000000 1.000000 1.000000
v 5.090909 2.545455 0.250000 0.000000 0.000000 1.000000 1.000000
v 2.909091 3.181819 0.250000 0.000000 0.000000 1.000000 1.000000
v 0.727306 3.500001 0.250000 0.000000 0.000000 1.000000 1.000000
v 3.636364 2.863637 0.250000 0.000000 0.000000 1.000000 1.000000
v 4.363636 2.545455 0.250000 0.000000 0.000000 1.000000 1.000000
v 2.909091 2.863637 0.250000 0.000000 0.000000 1.000000 1.000000
v 3.636364 2.545455 0.250000 0.000000 0.000000 1.000000 1.000000
v 2.431818 2.807707 0.250000 0.000000 0.000000 1.000000 1.000000
v 4.363636 1.829546 0.250000 0.000000 0.000000 1.000000 1.000000
v 5.090909 2.227273 0.250000 0.000000 0.000000 1.000000 1.000000
v 5.818182 2.227273 0.250000 0.000000 0.000000 1.000000 1.000000
v 5.090909 1.909091 0.250000 0.000000 0.000000 1.000000 1.000000
v 6.545454 1.909091 0.250000 0.000000 0.000000 1.000000 1.000000
v 5.818182 1.909091 0.250000 0.000000 0.000000 1.000000 1.000000
v 5.931818 1.193182 0.250000 0.000000 0.000000 1.000000 1.000000
v 8.000000 1.704754 0.250000 0.000000 0.000000 1.000000 1.000000
v 5.090909 1.590909 0.250000 0.000000 0.000000 1.000000 1.000000
v 2.841619 1.706033 0.250000 0.000000 0.000000 1.000000 1.000000
v 7.272727 1.272727 0.250000 0.000000 0.000000 1.000000 1.000000
v 7.272727 0.954545 0.250000 0.000000 0.000000 1.000000 1.000000
v 8.000000 0.636364 0.250000 0.000000 0.000000 1.000000 1.000000
v 6.545454 0.954545 0.250000 0.000000 0.000000 1.000000 1.000000
v 7.272727 0.636364 0.250000 0.000000 0.000000 1.000000 1.000000
v 8.000000 0.318182 0.250000 0.000000 0.000000 1.000000 1.000000
v 6.545454 0.636364 0.250000 0.000000 0.000000 1.000000 1.000000
v 7.272727 0.318182 0.250000 0.000000 0.000000 1.000000 1.000000
v 8.000000 0.000000 0.250000 0.000000 0.000000 1.000000 1.000000
v 7.272727 0.000000 0.250000 0.000000 0.000000 1.000000 1.000000
v 6.665190 0.000000 0.250000 0.000000 0.000000 1.000000 1.000000
v 5.818182 0.318182 0.250000 0.000000 0.000000 1.000000 1.000000
v 5.818182 0.000000 0.250000 0.000000 0.000000 1.000000 1.000000
v 5.090909 0.318182 0.250000 0.000000 0.000000 1.000000 1.000000
v 5.090909 0.000000 0.250000 0.000000 0.000000 1.000000 1.000000
v 4.363636 0.318182 0.250000 0.000000 0.000000 1.000000 1.000000
v 4.363636 0.000000 0.250000 0.000000 0.000000 1.000000 1.000000
v 4.363636 0.636364 0.250000 0.000000 0.000000 1.000000 1.000000
v 3.482085 0.000000 0.250000 0.000000 0.000000 1.000000 1.000000
v 0.000000 0.865939 0.250000 0.000000 0.000000 1.000000 1.000000
v 2.042409 0.000000 0.250000 0.000000 0.000000 1.000000 1.000000
v 0.000000 1.590909 0.250000 0.000000 0.000000 1.000000 1.000000
v 0.000000 1.909091 0.250000 0.000000 0.000000 1.000000 1.000000
v 0.000000 2.170796 0.250000 0.000000 0.000000 1.000000 1.000000
v 0.727273 0.318182 0.250000 0.000000 0.000000 1.000000 1.000000
v 0.727273 0.000000 0.250000 0.000000 0.000000 1.000000 1.000000
v 0.000000 0.000000 0.250000 0.000000 0.000000 1.000000 1.000000
v 1.545454 1.471591 0.250000 0.000000 0.000000 1.000000 1.000000
v 0.000000 2.545455 0.250000 0.000000 0.000000 1.000000 1.000000
v 0.727273 2.863637 0.250000 0.000000 0.000000 1.000000 1.000000
v 0.000000 2.863637 0.250000 0.000000 0.000000 1.000000 1.000000
v 0.727273 3.181819 0.250000 0.000000 0.000000 1.000000 1.000000
v 0.000000 3.500001 0.250000 0.000000 0.000000 1.000000 1.000000
v 0.000000 3.500001 -0.250000 0.000000 0.000000 1.000000 1.000000
v 0.000000 -0.000000 -0.250000 0.000000 0.000000 1.000000 1.000000
v 0.727273 -0.000000 -0.250000 0.000000 1.000000 0.000000 1.000000
v 1.454545 -0.000000 -0.250000 0.000000 0.862745 0.137255 1.000000
v 2.710531 -0.000000 -0.250000 0.000000 1.000000 0.000000 1.000000
v 3.644501 -0.000000 -0.250000 0.000000 0.411765 0.588235 1.000000
v 3.272727 0.636364 -0.250000 0.000000 1.000000 0.000000 1.000000
v 4.363636 0.636364 -0.250000 0.000000 1.000000 0.000000 1.000000
v 4.363636 0.954545 -0.250000 0.000000 0.000000 1.000000 1.000000
v 4.363636 0.318182 -0.250000 0.000000 1.000000 0.000000 1.000000
v 4.363636 -0.000000 -0.250000 0.000000 1.000000 0.000000 1.000000
v 5.090909 -0.000000 -0.250000 0.000000 1.000000 0.000000 1.000000
v 5.090909 0.318182 -0.250000 0.000000 1.000000 0.000000 1.000000
v 5.818182 -0.000000 -0.250000 0.000000 1.000000 0.000000 1.000000
v 5.090909 0.636364 -0.250000 0.000000 0.211765 0.788235 1.000000
v 5.818182 0.318182 -0.250000 0.000000 1.000000 0.000000 1.000000
v 6.572401 -0.000000 -0.250000 0.000000 0.231373 0.768628 1.000000
v 5.818182 0.636364 -0.250000 0.000000 0.294118 0.705882 1.000000
v 5.090909 0.954545 -0.250000 0.000000 0.000000 1.000000 1.000000
v 5.818182 0.954545 -0.250000 0.000000 0.000000 1.000000 1.000000
v 6.545454 0.636364 -0.250000 0.000000 0.650980 0.349020 1.000000
v 6.545454 0.954545 -0.250000 0.000000 0.000000 1.000000 1.000000
v 6.545454 0.318182 -0.250000 0.000000 1.000000 0.000000 1.000000
v 8.000000 -0.000000 -0.250000 0.000000 0.000000 1.000000 1.000000
v 8.000000 0.479046 -0.250000 0.000000 0.000000 1.000000 1.000000
v 7.272727 0.636364 -0.250000 0.000000 1.000000 0.000000 1.000000
v 8.000000 0.636364 -0.250000 0.000000 0.000000 1.000000 1.000000
v 8.000000 0.954545 -0.250000 0.000000 0.000000 1.000000 1.000000
v 8.000000 1.044257 -0.250000 0.000000 0.000000 1.000000 1.000000
v 8.000000 1.217564 -0.250000 0.000000 0.000000 1.000000 1.000000
v 6.545454 1.272727 -0.250000 0.000000 0.000000 1.000000 1.000000
v 5.818182 1.272727 -0.250000 0.000000 0.000000 1.000000 1.000000
v 7.272727 1.590909 -0.250000 0.000000 0.000000 1.000000 1.000000
v 5.090909 1.272727 -0.250000 0.000000 0.000000 1.000000 1.000000
v 6.545454 1.590909 -0.250000 0.000000 0.000000 1.000000 1.000000
v 5.818182 1.590909 -0.250000 0.000000 0.000000 1.000000 1.000000
v 4.363636 1.272727 -0.250000 0.000000 0.000000 1.000000 1.000000
v 7.272727 1.909091 -0.250000 0.000000 0.000000 1.000000 1.000000
v 6.545454 1.909091 -0.250000 0.000000 0.000000 1.000000 1.000000
v 7.272727 2.227272 -0.250000 0.000000 0.000000 1.000000 1.000000
v 8.000000 3.500000 -0.250000 0.000000 0.000000 1.000000 1.000000
v 5.556818 2.361506 -0.250000 0.000000 0.000000 1.000000 1.000000
v 5.090909 1.590909 -0.250000 0.000000 0.000000 1.000000 1.000000
v 4.363636 1.750000 -0.250000 0.000000 0.000000 1.000000 1.000000
v 5.090909 1.909091 -0.250000 0.000000 0.000000 1.000000 1.000000
v 3.500000 2.555398 -0.250000 0.635294 0.635294 1.000000 1.000000
v 0.727311 3.500001 -0.250000 1.000000 1.000000 1.000000 1.000000
v 4.363561 3.500001 -0.250000 0.000000 0.000000 1.000000 1.000000
v 6.454545 2.943182 -0.250000 0.466667 0.466667 1.000000 1.000000
v 7.230608 3.500000 -0.250000 1.000000 1.000000 1.000000 1.000000
v 4.363636 3.181819 -0.250000 1.000000 1.000000 1.000000 1.000000
vt -0.000000 0.115234
vt 0.090881 0.137695
vt -0.000000 0.137695
vt 0.090881 0.115234
vt 0.181763 0.137695
vt 0.181763 0.115234
vt 0.272705 0.137695
vt 0.272705 0.115234
vt 0.363525 0.137695
vt 0.363525 0.115234
vt 0.454346 0.137695
vt 0.454346 0.115234
vt 0.545410 0.115234
vt 0.545410 0.137695
vt 0.636230 0.115234
vt 0.636230 0.137695
vt 0.727051 0.115234
vt 0.727051 0.137695
vt 0.817871 0.115234
vt 0.817871 0.137695
vt 0.908691 0.115234
vt 0.908691 0.137695
vt 0.999512 0.115234
vt 0.999512 0.137695
vt -0.000000 0.235352
vt 0.090881 0.235352
vt 0.000009 0.256348
vt 0.090881 0.256348
vt 0.181763 0.235352
vt 0.181763 0.256348
vt 0.272705 0.235352
vt 0.272705 0.256348
vt 0.363525 0.235352
vt 0.363525 0.256348
vt 0.454346 0.235352
vt 0.454346 0.256348
vt 0.545410 0.235352
vt 0.545410 0.256348
vt 0.636230 0.235352
vt 0.636230 0.256348
vt 0.727051 0.235352
vt 0.727051 0.256348
vt 0.817871 0.235352
vt 0.817871 0.256348
vt 0.908691 0.235352
vt 0.908691 0.256348
vt 0.999512 0.235352
vt 0.999512 0.256348
vt 0.000009 0.346191
vt 0.090881 0.346191
vt 0.000000 0.365234
vt 0.090881 0.365234
vt 0.181763 0.346191
vt 0.181763 0.365234
vt 0.272705 0.346191
vt 0.272705 0.365234
vt 0.363525 0.346191
vt 0.363525 0.365234
vt 0.454346 0.346191
vt 0.454346 0.365234
vt 0.545410 0.346191
vt 0.545410 0.365234
vt 0.636230 0.346191
vt 0.636230 0.365234
vt 0.727051 0.346191
vt 0.727051 0.365234
vt 0.817871 0.346191
vt 0.817871 0.365234
vt 0.908691 0.346191
vt 0.908691 0.365234
vt 1.000000 0.346191
vt 1.000000 0.365234
vt 1.000000 0.463379
vt 0.908691 0.463379
vt 1.000000 0.453613
vt 0.908691 0.453613
vt 0.817871 0.463379
vt 0.817871 0.453613
vt 0.727051 0.463379
vt 0.727051 0.453613
vt 0.636230 0.463379
vt 0.636230 0.453613
vt 0.545410 0.463379
vt 0.000000 0.453613
vt 0.454346 0.463379
vt 0.363525 0.463379
vt 0.272705 0.463379
vt 0.181763 0.463379
vt 0.090881 0.463379
vt 0.000000 0.463379
vt 0.090881 0.256348
vt 0.000009 0.286133
vt 0.000009 0.256348
vt 0.364990 0.312500
vt 0.181763 0.256348
vt 0.272705 0.256348
vt 0.363525 0.256348
vt 0.000009 0.315918
vt 0.454346 0.256348
vt 0.090881 0.315918
vt 0.000009 0.346191
vt 0.090881 0.346191
vt 0.181763 0.346191
vt 0.272705 0.346191
vt 0.363525 0.346191
vt 0.454346 0.346191
vt 0.545410 0.315918
vt 0.545410 0.346191
vt 0.602051 0.293457
vt 0.545410 0.256348
vt 0.636230 0.256348
vt 0.727051 0.256348
vt 0.636230 0.346191
vt 0.817871 0.256348
vt 0.999512 0.286133
vt 0.727051 0.346191
vt 0.908691 0.256348
vt 0.999512 0.256348
vt 0.817871 0.346191
vt 0.908691 0.346191
vt 1.000000 0.346191
vt 0.999512 0.038574
vt 0.908691 0.000488
vt 1.000000 0.000488
vt 0.778320 0.063477
vt 0.817871 0.000488
vt 0.727051 0.000488
vt 0.636230 0.000488
vt 0.545410 0.000000
vt 0.454346 0.000000
vt 0.363525 0.000000
vt 0.999512 0.076660
vt 0.272705 0.000000
vt 0.999512 0.115234
vt 0.908691 0.115234
vt 0.817871 0.115234
vt 0.727051 0.115234
vt 0.636230 0.115234
vt 0.545410 0.115234
vt 0.454346 0.115234
vt 0.363525 0.115234
vt 0.153320 0.054199
vt 0.272705 0.115234
vt 0.181763 0.000000
vt 0.181763 0.115234
vt 0.090881 0.000000
vt 0.000000 0.000000
vt 0.090881 0.115234
vt -0.000000 0.047852
vt -0.000000 0.115234
vt -0.000000 0.202637
vt 0.090881 0.235352
vt -0.000000 0.235352
vt 0.090881 0.202637
vt 0.181763 0.235352
vt -0.000000 0.170410
vt 0.227173 0.194824
vt 0.272705 0.235352
vt 0.090881 0.170410
vt -0.000000 0.137695
vt 0.090881 0.137695
vt 0.363525 0.235352
vt 0.181763 0.170410
vt 0.181763 0.137695
vt 0.272705 0.137695
vt 0.363525 0.202637
vt 0.454346 0.235352
vt 0.408936 0.186523
vt 0.363525 0.137695
vt 0.545410 0.235352
vt 0.545410 0.202637
vt 0.636230 0.235352
vt 0.528320 0.174316
vt 0.454346 0.137695
vt 0.727051 0.235352
vt 0.545410 0.137695
vt 0.636230 0.137695
vt 0.817871 0.235352
vt 0.727051 0.137695
vt 0.772461 0.186523
vt 0.908691 0.235352
vt 0.817871 0.170410
vt 0.817871 0.137695
vt 0.908691 0.202637
vt 0.999512 0.202637
vt 0.999512 0.235352
vt 0.999512 0.170410
vt 0.908691 0.137695
vt 0.999512 0.137695
vt 1.000000 0.453613
vt 0.908691 0.453613
vt 1.000000 0.417969
vt 0.817871 0.453613
vt 0.908691 0.365234
vt 1.000000 0.365234
vt 0.817871 0.365234
vt 0.727051 0.365234
vt 0.602051 0.401855
vt 0.727051 0.453613
vt 0.636230 0.365234
vt 0.545410 0.365234
vt 0.454346 0.365234
vt 0.636230 0.453613
vt 0.363525 0.365234
vt 0.545410 0.424316
vt 0.000000 0.453613
vt 0.408936 0.416992
vt 0.272705 0.365234
vt 0.272705 0.394531
vt 0.181763 0.365234
vt 0.272705 0.424316
vt 0.181763 0.394531
vt 0.090881 0.365234
vt 0.181763 0.424316
vt 0.090881 0.394531
vt 0.000000 0.365234
vt -1.000977 0.071289
vt -1.099609 0.031738
vt -1.000977 0.031738
vt -1.000977 0.110840
vt -1.091797 0.110840
vt -1.000977 0.150879
vt -1.091797 0.150879
vt -1.000977 0.154785
vt -1.182617 0.110840
vt -1.182617 0.150879
vt -1.182617 0.190430
vt -1.273438 0.110840
vt -1.273438 0.071289
vt -1.273438 0.031738
vt -1.273438 0.150879
vt -1.364258 0.071289
vt -1.455078 0.031738
vt -1.409180 0.110840
vt -1.455078 0.071289
vt -1.545898 0.031250
vt -1.545898 0.071289
vt -1.636719 0.031250
vt -1.364258 0.150879
vt -1.636719 0.071289
vt -1.909180 0.031250
vt -1.545898 0.110840
vt -1.455078 0.150879
vt -1.636719 0.110840
vt -1.545898 0.150879
vt -1.696289 0.118164
vt -1.455078 0.240234
vt -1.364258 0.190430
vt -1.273438 0.190430
vt -1.364258 0.230469
vt -1.182617 0.230469
vt -1.273438 0.230469
vt -1.258789 0.319824
vt -1.000977 0.255859
vt -1.364258 0.270020
vt -1.645508 0.255859
vt -1.091797 0.310059
vt -1.091797 0.349609
vt -1.000977 0.389648
vt -1.182617 0.349609
vt -1.091797 0.389648
vt -1.000977 0.429199
vt -1.182617 0.389648
vt -1.091797 0.429199
vt -1.000977 0.469238
vt -1.091797 0.469238
vt -1.166992 0.469238
vt -1.273438 0.429199
vt -1.273438 0.469238
vt -1.364258 0.429199
vt -1.364258 0.469238
vt -1.455078 0.429199
vt -1.455078 0.469238
vt -1.455078 0.389648
vt -1.565430 0.468750
vt -2.000000 0.360840
vt -1.745117 0.468750
vt -2.000000 0.270020
vt -2.000000 0.230469
vt -2.000000 0.197754
vt -1.909180 0.429199
vt -1.909180 0.468750
vt -2.000000 0.468750
vt -1.807617 0.285156
vt -2.000000 0.150879
vt -1.909180 0.110840
vt -2.000000 0.110840
vt -1.909180 0.071289
vt -2.000000 0.031250
vt -1.998047 0.960388
vt -1.998047 0.522949
vt -1.907227 0.522949
vt -1.816406 0.522949
vt -1.660156 0.522949
vt -1.542969 0.522949
vt -1.589844 0.602539
vt -1.453125 0.602539
vt -1.453125 0.642334
vt -1.453125 0.562744
vt -1.453125 0.522949
vt -1.362305 0.522949
vt -1.362305 0.562744
vt -1.271484 0.522949
vt -1.362305 0.602539
vt -1.271484 0.562744
vt -1.176758 0.522949
vt -1.271484 0.602539
vt -1.362305 0.642334
vt -1.271484 0.642334
vt -1.180664 0.602539
vt -1.180664 0.642334
vt -1.180664 0.562744
vt -0.998535 0.522949
vt -0.998535 0.583008
vt -1.089844 0.602539
vt -0.998535 0.602539
vt -0.998535 0.642334
vt -0.998535 0.653564
vt -0.998535 0.675293
vt -1.180664 0.682129
vt -1.271484 0.682129
vt -1.089844 0.721924
vt -1.362305 0.682129
vt -1.180664 0.721924
vt -1.271484 0.721924
vt -1.453125 0.682129
vt -1.089844 0.761597
vt -1.180664 0.761597
vt -1.089844 0.801392
vt -0.998535 0.960388
vt -1.303711 0.818115
vt -1.362305 0.721924
vt -1.453125 0.741699
vt -1.362305 0.761597
vt -1.560547 0.842407
vt -1.907227 0.960388
vt -1.453125 0.960388
vt -1.191406 0.890808
vt -1.094727 0.960388
vt -1.453125 0.920654
vt1 -0.000000 0.115234
vt1 0.090881 0.137695
vt1 -0.000000 0.137695
vt1 0.090881 0.115234
vt1 0.181763 0.137695
vt1 0.181763 0.115234
vt1 0.272705 0.137695
vt1 0.272705 0.115234
vt1 0.363525 0.137695
vt1 0.363525 0.115234
vt1 0.454346 0.137695
vt1 0.454346 0.115234
vt1 0.545410 0.115234
vt1 0.545410 0.137695
vt1 0.636230 0.115234
vt1 0.636230 0.137695
vt1 0.727051 0.115234
vt1 0.727051 0.137695
vt1 0.817871 0.115234
vt1 0.817871 0.137695
vt1 0.908691 0.115234
vt1 0.908691 0.137695
vt1 0.999512 0.115234
vt1 0.999512 0.137695
vt1 -0.000000 0.235352
vt1 0.090881 0.235352
vt1 0.000009 0.256348
vt1 0.090881 0.256348
vt1 0.181763 0.235352
vt1 0.181763 0.256348
vt1 0.272705 0.235352
vt1 0.272705 0.256348
vt1 0.363525 0.235352
vt1 0.363525 0.256348
vt1 0.454346 0.235352
vt1 0.454346 0.256348
vt1 0.545410 0.235352
vt1 0.545410 0.256348
vt1 0.636230 0.235352
vt1 0.636230 0.256348
vt1 0.727051 0.235352
vt1 0.727051 0.256348
vt1 0.817871 0.235352
vt1 0.817871 0.256348
vt1 0.908691 0.235352
vt1 0.908691 0.256348
vt1 0.999512 0.235352
vt1 0.999512 0.256348
vt1 0.000009 0.346191
vt1 0.090881 0.346191
vt1 0.000000 0.365234
vt1 0.090881 0.365234
vt1 0.181763 0.346191
vt1 0.181763 0.365234
vt1 0.272705 0.346191
vt1 0.272705 0.365234
vt1 0.363525 0.346191
vt1 0.363525 0.365234
vt1 0.454346 0.346191
vt1 0.454346 0.365234
vt1 0.545410 0.346191
vt1 0.545410 0.365234
vt1 0.636230 0.346191
vt1 0.636230 0.365234
vt1 0.727051 0.346191
vt1 0.727051 0.365234
vt1 0.817871 0.346191
vt1 0.817871 0.365234
vt1 0.908691 0.346191
vt1 0.908691 0.365234
vt1 1.000000 0.346191
vt1 1.000000 0.365234
vt1 1.000000 0.463379
vt1 0.908691 0.463379
vt1 1.000000 0.453613
vt1 0.908691 0.453613
vt1 0.817871 0.463379
vt1 0.817871 0.453613
vt1 0.727051 0.463379
vt1 0.727051 0.453613
vt1 0.636230 0.463379
vt1 0.636230 0.453613
vt1 0.545410 0.463379
vt1 0.000000 0.453613
vt1 0.454346 0.463379
vt1 0.363525 0.463379
vt1 0.272705 0.463379
vt1 0.181763 0.463379
vt1 0.090881 0.463379
vt1 0.000000 0.463379
vt1 0.090881 0.256348
vt1 0.000009 0.286133
vt1 0.000009 0.256348
vt1 0.364990 0.312500
vt1 0.181763 0.256348
vt1 0.272705 0.256348
vt1 0.363525 0.256348
vt1 0.000009 0.315918
vt1 0.454346 0.256348
vt1 0.090881 0.315918
vt1 0.000009 0.346191
vt1 0.090881 0.346191
vt1 0.181763 0.346191
vt1 0.272705 0.346191
vt1 0.363525 0.346191
vt1 0.454346 0.346191
vt1 0.545410 0.315918
vt1 0.545410 0.346191
vt1 0.602051 0.293457
vt1 0.545410 0.256348
vt1 0.636230 0.256348
vt1 0.727051 0.256348
vt1 0.636230 0.346191
vt1 0.817871 0.256348
vt1 0.999512 0.286133
vt1 0.727051 0.346191
vt1 0.908691 0.256348
vt1 0.999512 0.256348
vt1 0.817871 0.346191
vt1 0.908691 0.346191
vt1 1.000000 0.346191
vt1 0.999512 0.038574
vt1 0.908691 0.000488
vt1 1.000000 0.000488
vt1 0.778320 0.063477
vt1 0.817871 0.000488
vt1 0.727051 0.000488
vt1 0.636230 0.000488
vt1 0.545410 0.000000
vt1 0.454346 0.000000
vt1 0.363525 0.000000
vt1 0.999512 0.076660
vt1 0.272705 0.000000
vt1 0.999512 0.115234
vt1 0.908691 0.115234
vt1 0.817871 0.115234
vt1 0.727051 0.115234
vt1 0.636230 0.115234
vt1 0.545410 0.115234
vt1 0.454346 0.115234
vt1 0.363525 0.115234
vt1 0.153320 0.054199
vt1 0.272705 0.115234
vt1 0.181763 0.000000
vt1 0.181763 0.115234
vt1 0.090881 0.000000
vt1 0.000000 0.000000
vt1 0.090881 0.115234
vt1 -0.000000 0.047852
vt1 -0.000000 0.115234
vt1 -0.000000 0.202637
vt1 0.090881 0.235352
vt1 -0.000000 0.235352
vt1 0.090881 0.202637
vt1 0.181763 0.235352
vt1 -0.000000 0.170410
vt1 0.227173 0.194824
vt1 0.272705 0.235352
vt1 0.090881 0.170410
vt1 -0.000000 0.137695
vt1 0.090881 0.137695
vt1 0.363525 0.235352
vt1 0.181763 0.170410
vt1 0.181763 0.137695
vt1 0.272705 0.137695
vt1 0.363525 0.202637
vt1 0.454346 0.235352
vt1 0.408936 0.186523
vt1 0.363525 0.137695
vt1 0.545410 0.235352
vt1 0.545410 0.202637
vt1 0.636230 0.235352
vt1 0.528320 0.174316
vt1 0.454346 0.137695
vt1 0.727051 0.235352
vt1 0.545410 0.137695
vt1 0.636230 0.137695
vt1 0.817871 0.235352
vt1 0.727051 0.137695
vt1 0.772461 0.186523
vt1 0.908691 0.235352
vt1 0.817871 0.170410
vt1 0.817871 0.137695
vt1 0.908691 0.202637
vt1 0.999512 0.202637
vt1 0.999512 0.235352
vt1 0.999512 0.170410
vt1 0.908691 0.137695
vt1 0.999512 0.137695
vt1 1.000000 0.453613
vt1 0.908691 0.453613
vt1 1.000000 0.417969
vt1 0.817871 0.453613
vt1 0.908691 0.365234
vt1 1.000000 0.365234
vt1 0.817871 0.365234
vt1 0.727051 0.365234
vt1 0.602051 0.401855
vt1 0.727051 0.453613
vt1 0.636230 0.365234
vt1 0.545410 0.365234
vt1 0.454346 0.365234
vt1 0.636230 0.453613
vt1 0.363525 0.365234
vt1 0.545410 0.424316
vt1 0.000000 0.453613
vt1 0.408936 0.416992
vt1 0.272705 0.365234
vt1 0.272705 0.394531
vt1 0.181763 0.365234
vt1 0.272705 0.424316
vt1 0.181763 0.394531
vt1 0.090881 0.365234
vt1 0.181763 0.424316
vt1 0.090881 0.394531
vt1 0.000000 0.365234
vt1 -1.000977 0.071289
vt1 -1.099609 0.031738
vt1 -1.000977 0.031738
vt1 -1.000977 0.110840
vt1 -1.091797 0.110840
vt1 -1.000977 0.150879
vt1 -1.091797 0.150879
vt1 -1.000977 0.154785
vt1 -1.182617 0.110840
vt1 -1.182617 0.150879
vt1 -1.182617 0.190430
vt1 -1.273438 0.110840
vt1 -1.273438 0.071289
vt1 -1.273438 0.031738
vt1 -1.273438 0.150879
vt1 -1.364258 0.071289
vt1 -1.455078 0.031738
vt1 -1.409180 0.110840
vt1 -1.455078 0.071289
vt1 -1.545898 0.031250
vt1 -1.545898 0.071289
vt1 -1.636719 0.031250
vt1 -1.364258 0.150879
vt1 -1.636719 0.071289
vt1 -1.909180 0.031250
vt1 -1.545898 0.110840
vt1 -1.455078 0.150879
vt1 -1.636719 0.110840
vt1 -1.545898 0.150879
vt1 -1.696289 0.118164
vt1 -1.455078 0.240234
vt1 -1.364258 0.190430
vt1 -1.273438 0.190430
vt1 -1.364258 0.230469
vt1 -1.182617 0.230469
vt1 -1.273438 0.230469
vt1 -1.258789 0.319824
vt1 -1.000977 0.255859
vt1 -1.364258 0.270020
vt1 -1.645508 0.255859
vt1 -1.091797 0.310059
vt1 -1.091797 0.349609
vt1 -1.000977 0.389648
vt1 -1.182617 0.349609
vt1 -1.091797 0.389648
vt1 -1.000977 0.429199
vt1 -1.182617 0.389648
vt1 -1.091797 0.429199
vt1 -1.000977 0.469238
vt1 -1.091797 0.469238
vt1 -1.166992 0.469238
vt1 -1.273438 0.429199
vt1 -1.273438 0.469238
vt1 -1.364258 0.429199
vt1 -1.364258 0.469238
vt1 -1.455078 0.429199
vt1 -1.455078 0.469238
vt1 -1.455078 0.389648
vt1 -1.565430 0.468750
vt1 -2.000000 0.360840
vt1 -1.745117 0.468750
vt1 -2.000000 0.270020
vt1 -2.000000 0.230469
vt1 -2.000000 0.197754
vt1 -1.909180 0.429199
vt1 -1.909180 0.468750
vt1 -2.000000 0.468750
vt1 -1.807617 0.285156
vt1 -2.000000 0.150879
vt1 -1.909180 0.110840
vt1 -2.000000 0.110840
vt1 -1.909180 0.071289
vt1 -2.000000 0.031250
vt1 -1.998047 0.960388
vt1 -1.998047 0.522949
vt1 -1.907227 0.522949
vt1 -1.816406 0.522949
vt1 -1.660156 0.522949
vt1 -1.542969 0.522949
vt1 -1.589844 0.602539
vt1 -1.453125 0.602539
vt1 -1.453125 0.642334
vt1 -1.453125 0.562744
vt1 -1.453125 0.522949
vt1 -1.362305 0.522949
vt1 -1.362305 0.562744
vt1 -1.271484 0.522949
vt1 -1.362305 0.602539
vt1 -1.271484 0.562744
vt1 -1.176758 0.522949
vt1 -1.271484 0.602539
vt1 -1.362305 0.642334
vt1 -1.271484 0.642334
vt1 -1.180664 0.602539
vt1 -1.180664 0.642334
vt1 -1.180664 0.562744
vt1 -0.998535 0.522949
vt1 -0.998535 0.583008
vt1 -1.089844 0.602539
vt1 -0.998535 0.602539
vt1 -0.998535 0.642334
vt1 -0.998535 0.653564
vt1 -0.998535 0.675293
vt1 -1.180664 0.682129
vt1 -1.271484 0.682129
vt1 -1.089844 0.721924
vt1 -1.362305 0.682129
vt1 -1.180664 0.721924
vt1 -1.271484 0.721924
vt1 -1.453125 0.682129
vt1 -1.089844 0.761597
vt1 -1.180664 0.761597
vt1 -1.089844 0.801392
vt1 -0.998535 0.960388
vt1 -1.303711 0.818115
vt1 -1.362305 0.721924
vt1 -1.453125 0.741699
vt1 -1.362305 0.761597
vt1 -1.560547 0.842407
vt1 -1.907227 0.960388
vt1 -1.453125 0.960388
vt1 -1.191406 0.890808
vt1 -1.094727 0.960388
vt1 -1.453125 0.920654
vn 0.000000 -0.708661 -0.708661
vn 0.000000 -0.708661 -0.708661
vn 0.000000 -0.708661 -0.708661
vn 0.000000 -0.708661 -0.708661
vn 0.000000 -0.708661 -0.708661
vn 0.000000 -0.708661 -0.708661
vn 0.000000 -0.708661 -0.708661
vn 0.000000 -0.708661 -0.708661
vn 0.000000 -0.708661 -0.708661
vn 0.000000 -0.708661 -0.708661
vn 0.000000 -0.708661 -0.708661
vn 0.000000 -0.708661 -0.708661
vn 0.000000 -0.708661 -0.708661
vn 0.000000 -0.708661 -0.708661
vn 0.000000 -0.708661 -0.708661
vn 0.000000 -0.708661 -0.708661
vn 0.000000 -0.708661 -0.708661
vn 0.000000 -0.708661 -0.708661
vn 0.000000 -0.708661 -0.708661
vn 0.000000 -0.708661 -0.708661
vn 0.000000 -0.708661 -0.708661
vn 0.000000 -0.708661 -0.708661
vn 0.000000 -0.708661 -0.708661
vn 0.000000 -0.708661 -0.708661
vn 0.000000 0.708661 -0.708661
vn 0.000000 0.708661 -0.708661
vn 0.000000 0.708661 -0.708661
vn 0.000000 0.708661 -0.708661
vn 0.000000 0.708661 -0.708661
vn 0.000000 0.708661 -0.708661
vn 0.000000 0.708661 -0.708661
vn 0.000000 0.708661 -0.708661
vn 0.000000 0.708661 -0.708661
vn 0.000000 0.708661 -0.708661
vn 0.000000 0.708661 -0.708661
vn 0.000000 0.708661 -0.708661
vn 0.000000 0.708661 -0.708661
vn 0.000000 0.708661 -0.708661
vn 0.000000 0.708661 -0.708661
vn 0.000000 0.708661 -0.708661
vn 0.000000 0.708661 -0.708661
vn 0.000000 0.708661 -0.708661
vn 0.000000 0.708661 -0.708661
vn 0.000000 0.708661 -0.708661
vn 0.000000 0.708661 -0.708661
vn 0.000000 0.708661 -0.708661
vn 0.000000 0.708661 -0.708661
vn 0.000000 0.708661 -0.708661
vn 0.000000 0.708661 0.708661
vn 0.000000 0.708661 0.708661
vn 0.000000 0.708661 0.708661
vn 0.000000 0.708661 0.708661
vn 0.000000 0.708661 0.708661
vn 0.000000 0.708661 0.708661
vn 0.000000 0.708661 0.708661
vn 0.000000 0.708661 0.708661
vn 0.000000 0.708661 0.708661
vn 0.000000 0.708661 0.708661
vn 0.000000 0.708661 0.708661
vn 0.000000 0.708661 0.708661
vn 0.000000 0.708661 0.708661
vn 0.000000 0.708661 0.708661
vn 0.000000 0.708661 0.708661
vn 0.000000 0.708661 0.708661
vn 0.000000 0.708661 0.708661
vn 0.000000 0.708661 0.708661
vn 0.000000 0.708661 0.708661
vn 0.000000 0.708661 0.708661
vn 0.000000 0.708661 0.708661
vn 0.000000 0.708661 0.708661
vn 0.000000 0.708661 0.708661
vn 0.000000 0.708661 0.708661
vn 0.000000 -0.708661 0.708661
vn 0.000000 -0.708661 0.708661
vn 0.000000 -0.708661 0.708661
vn 0.000000 -0.708661 0.708661
vn 0.000000 -0.708661 0.708661
vn 0.000000 -0.708661 0.708661
vn 0.000000 -0.708661 0.708661
vn 0.000000 -0.708661 0.708661
vn 0.000000 -0.708661 0.708661
vn 0.000000 -0.708661 0.708661
vn 0.000000 -0.708661 0.708661
vn 0.000000 -0.708661 0.708661
vn 0.000000 -0.708661 0.708661
vn 0.000000 -0.708661 0.708661
vn 0.000000 -0.708661 0.708661
vn 0.000000 -0.708661 0.708661
vn 0.000000 -0.708661 0.708661
vn 0.000000 -0.708661 0.708661
vn 0.000000 1.000000 -0.000000
vn 0.000000 1.000000 -0.000000
vn 0.000000 1.000000 -0.000000
vn 0.000000 1.000000 -0.000000
vn 0.000000 1.000000 -0.000000
vn 0.000000 1.000000 -0.000000
vn 0.000000 1.000000 -0.000000
vn 0.000000 1.000000 -0.000000
vn 0.000000 1.000000 -0.000000
vn 0.000000 1.000000 -0.000000
vn 0.000000 1.000000 -0.000000
vn 0.000000 1.000000 -0.000000
vn 0.000000 1.000000 -0.000000
vn 0.000000 1.000000 -0.000000
vn 0.000000 1.000000 -0.000000
vn 0.000000 1.000000 -0.000000
vn 0.000000 1.000000 -0.000000
vn 0.000000 1.000000 -0.000000
vn 0.000000 1.000000 -0.000000
vn 0.000000 1.000000 -0.000000
vn 0.000000 1.000000 -0.000000
vn 0.000000 1.000000 -0.000000
vn 0.000000 1.000000 -0.000000
vn 0.000000 1.000000 -0.000000
vn 0.000000 1.000000 -0.000000
vn 0.000000 1.000000 -0.000000
vn 0.000000 1.000000 -0.000000
vn 0.000000 1.000000 -0.000000
vn 0.000000 1.000000 -0.000000
vn 0.000000 1.000000 -0.000000
vn 0.000000 1.000000 -0.000000
vn 0.000000 -1.000000 0.000000
vn 0.000000 -1.000000 0.000000
vn 0.000000 -1.000000 0.000000
vn 0.000000 -1.000000 0.000000
vn 0.000000 -1.000000 0.000000
vn 0.000000 -1.000000 0.000000
vn 0.000000 -1.000000 0.000000
vn 0.000000 -1.000000 0.000000
vn 0.000000 -1.000000 0.000000
vn 0.000000 -1.000000 0.000000
vn 0.000000 -1.000000 0.000000
vn 0.000000 -1.000000 0.000000
vn 0.000000 -1.000000 0.000000
vn 0.000000 -1.000000 0.000000
vn 0.000000 -1.000000 0.000000
vn 0.000000 -1.000000 0.000000
vn 0.000000 -1.000000 0.000000
vn 0.000000 -1.000000 0.000000
vn 0.000000 -1.000000 0.000000
vn 0.000000 -1.000000 0.000000
vn 0.000000 -1.000000 0.000000
vn 0.000000 -1.000000 0.000000
vn 0.000000 -1.000000 0.000000
vn 0.000000 -1.000000 0.000000
vn 0.000000 -1.000000 0.000000
vn 0.000000 -1.000000 0.000000
vn 0.000000 -1.000000 0.000000
vn 0.000000 -1.000000 0.000000
vn 0.000000 -1.000000 0.000000
vn 0.000000 -0.000000 -1.000000
vn 0.000000 -0.000000 -1.000000
vn 0.000000 -0.000000 -1.000000
vn 0.000000 -0.000000 -1.000000
vn 0.000000 -0.000000 -1.000000
vn 0.000000 -0.000000 -1.000000
vn 0.000000 -0.000000 -1.000000
vn 0.000000 -0.000000 -1.000000
vn 0.000000 -0.000000 -1.000000
vn 0.000000 -0.000000 -1.000000
vn 0.000000 -0.000000 -1.000000
vn 0.000000 -0.000000 -1.000000
vn 0.000000 -0.000000 -1.000000
vn 0.000000 -0.000000 -1.000000
vn 0.000000 -0.000000 -1.000000
vn 0.000000 -0.000000 -1.000000
vn 0.000000 -0.000000 -1.000000
vn 0.000000 -0.000000 -1.000000
vn 0.000000 -0.000000 -1.000000
vn 0.000000 -0.000000 -1.000000
vn 0.000000 -0.000000 -1.000000
vn 0.000000 -0.000000 -1.000000
vn 0.000000 -0.000000 -1.000000
vn 0.000000 -0.000000 -1.000000
vn 0.000000 -0.000000 -1.000000
vn 0.000000 -0.000000 -1.000000
vn 0.000000 -0.000000 -1.000000
vn 0.000000 -0.000000 -1.000000
vn 0.000000 -0.000000 -1.000000
vn 0.000000 -0.000000 -1.000000
vn 0.000000 -0.000000 -1.000000
vn 0.000000 -0.000000 -1.000000
vn 0.000000 -0.000000 -1.000000
vn 0.000000 -0.000000 -1.000000
vn 0.000000 -0.000000 -1.000000
vn 0.000000 -0.000000 -1.000000
vn 0.000000 -0.000000 -1.000000
vn 0.000000 -0.000000 -1.000000
vn 0.000000 -0.000000 -1.000000
vn 0.000000 0.000000 1.000000
vn 0.000000 0.000000 1.000000
vn 0.000000 0.000000 1.000000
vn 0.000000 0.000000 1.000000
vn 0.000000 0.000000 1.000000
vn 0.000000 0.000000 1.000000
vn 0.000000 0.000000 1.000000
vn 0.000000 0.000000 1.000000
vn 0.000000 0.000000 1.000000
vn 0.000000 0.000000 1.000000
vn 0.000000 0.000000 1.000000
vn 0.000000 0.000000 1.000000
vn 0.000000 0.000000 1.000000
vn 0.000000 0.000000 1.000000
vn 0.000000 0.000000 1.000000
vn 0.000000 0.000000 1.000000
vn 0.000000 0.000000 1.000000
vn 0.000000 0.000000 1.000000
vn 0.000000 0.000000 1.000000
vn 0.000000 0.000000 1.000000
vn 0.000000 0.000000 1.000000
vn 0.000000 0.000000 1.000000
vn 0.000000 0.000000 1.000000
vn 0.000000 0.000000 1.000000
vn 0.000000 0.000000 1.000000
vn 0.000000 0.000000 1.000000
vn 0.000000 0.000000 1.000000
vn 0.000000 0.000000 1.000000
vn 0.000000 0.000000 1.000000
vn 0.000000 0.000000 1.000000
vn 0.000000 0.000000 1.000000
vn 0.000000 0.000000 1.000000
vn 0.000000 0.000000 1.000000
vn 0.000000 0.000000 1.000000
vn 0.000000 0.000000 1.000000
vn 0.000000 0.000000 1.000000
vn 0.000000 0.000000 1.000000
vn 0.000000 0.000000 1.000000
vn 0.000000 0.000000 1.000000
vn 0.000000 0.000000 1.000000
vn 0.000000 0.000000 1.000000
vn 0.000000 0.000000 1.000000
vn 0.000000 0.000000 1.000000
vn 0.000000 0.000000 1.000000
vn 0.000000 0.000000 1.000000
vn 0.000000 0.000000 1.000000
vn 0.000000 0.000000 1.000000
vn 0.000000 0.000000 1.000000
vn 0.000000 0.000000 1.000000
vn 0.000000 0.000000 1.000000
vn 0.000000 0.000000 1.000000
vn 0.000000 0.000000 1.000000
vn 0.000000 0.000000 1.000000
vn 0.000000 0.000000 1.000000
vn 0.000000 0.000000 1.000000
vn 0.000000 0.000000 1.000000
vn 0.000000 0.000000 1.000000
vn 0.000000 0.000000 1.000000
vn 0.000000 0.000000 1.000000
vn 0.000000 0.000000 1.000000
vn 0.000000 0.000000 1.000000
vn 0.000000 0.000000 1.000000
vn 0.000000 0.000000 1.000000
vn 0.000000 0.000000 1.000000
vn 0.000000 0.000000 1.000000
vn 0.000000 0.000000 1.000000
vn 0.000000 0.000000 1.000000
vn 0.000000 0.000000 1.000000
vn 0.000000 0.000000 1.000000
vn 0.000000 0.000000 1.000000
vn 0.000000 0.000000 1.000000
vn 0.000000 0.000000 1.000000
vn 0.000000 0.000000 1.000000
vn 0.000000 0.000000 1.000000
vn 0.000000 0.000000 1.000000
vn 0.000000 0.000000 1.000000
vn 0.000000 0.000000 1.000000
vn 0.000000 0.000000 1.000000
vn 0.000000 0.000000 1.000000
vn 0.000000 0.000000 1.000000
vn 0.000000 0.000000 1.000000
vn 0.000000 0.000000 1.000000
vn 0.000000 0.000000 1.000000
vn 0.000000 0.000000 1.000000
vn 0.000000 0.000000 1.000000
vn 0.000000 0.000000 1.000000
vn 0.000000 0.000000 1.000000
vn 0.000000 0.000000 1.000000
vn 0.000000 0.000000 1.000000
vn 0.000000 0.000000 1.000000
vn 0.000000 0.000000 1.000000
vn 0.000000 0.000000 1.000000
vn 0.000000 0.000000 1.000000
vn 0.000000 0.000000 1.000000
vn 0.000000 0.000000 1.000000
vn 0.000000 0.000000 1.000000
vn 0.000000 0.000000 1.000000
vn 0.000000 0.000000 1.000000
vn 0.000000 0.000000 1.000000
vn 0.000000 0.000000 1.000000
vn 0.000000 -0.000000 -1.000000
vn 0.000000 -0.000000 -1.000000
vn 0.000000 -0.000000 -1.000000
vn 0.000000 -0.000000 -1.000000
vn 0.000000 -0.000000 -1.000000
vn 0.000000 -0.000000 -1.000000
vn 0.000000 -0.000000 -1.000000
vn 0.000000 -0.000000 -1.000000
vn 0.000000 -0.000000 -1.000000
vn 0.000000 -0.000000 -1.000000
vn 0.000000 -0.000000 -1.000000
vn 0.000000 -0.000000 -1.000000
vn 0.000000 -0.000000 -1.000000
vn 0.000000 -0.000000 -1.000000
vn 0.000000 -0.000000 -1.000000
vn 0.000000 -0.000000 -1.000000
vn 0.000000 -0.000000 -1.000000
vn 0.000000 -0.000000 -1.000000
vn 0.000000 -0.000000 -1.000000
vn 0.000000 -0.000000 -1.000000
vn 0.000000 -0.000000 -1.000000
vn 0.000000 -0.000000 -1.000000
vn 0.000000 -0.000000 -1.000000
vn 0.000000 -0.000000 -1.000000
vn 0.000000 -0.000000 -1.000000
vn 0.000000 -0.000000 -1.000000
vn 0.000000 -0.000000 -1.000000
vn 0.000000 -0.000000 -1.000000
vn 0.000000 -0.000000 -1.000000
vn 0.000000 -0.000000 -1.000000
vn 0.000000 -0.000000 -1.000000
vn 0.000000 -0.000000 -1.000000
vn 0.000000 -0.000000 -1.000000
vn 0.000000 -0.000000 -1.000000
vn 0.000000 -0.000000 -1.000000
vn 0.000000 -0.000000 -1.000000
vn 0.000000 -0.000000 -1.000000
vn 0.000000 -0.000000 -1.000000
vn 0.000000 -0.000000 -1.000000
vn 0.000000 -0.000000 -1.000000
vn 0.000000 -0.000000 -1.000000
vn 0.000000 -0.000000 -1.000000
vn 0.000000 -0.000000 -1.000000
vn 0.000000 -0.000000 -1.000000
vn 0.000000 -0.000000 -1.000000
vn 0.000000 -0.000000 -1.000000
vn 0.000000 -0.000000 -1.000000
vn 0.000000 -0.000000 -1.000000
vn 0.000000 -0.000000 -1.000000
vn 0.000000 -0.000000 -1.000000
vn 0.000000 -0.000000 -1.000000
tan 0.000000 -0.708661 0.708661 1.000000
tan 0.000000 -0.708661 0.708661 1.000000
tan 0.000000 -0.708661 0.708661 1.000000
tan 0.000000 -0.708661 0.708661 1.000000
tan 0.000000 -0.708661 0.708661 1.000000
tan 0.000000 -0.708661 0.708661 1.000000
tan 0.000000 -0.708661 0.708661 1.000000
tan 0.000000 -0.708661 0.708661 1.000000
tan 0.000000 -0.708661 0.708661 1.000000
tan 0.000000 -0.708661 0.708661 1.000000
tan 0.000000 -0.708661 0.708661 1.000000
tan 0.000000 -0.708661 0.708661 1.000000
tan 0.000000 -0.708661 0.708661 1.000000
tan 0.000000 -0.708661 0.708661 1.000000
tan 0.000000 -0.708661 0.708661 1.000000
tan 0.000000 -0.708661 0.708661 1.000000
tan 0.000000 -0.708661 0.708661 1.000000
tan 0.000000 -0.708661 0.708661 1.000000
tan 0.000000 -0.708661 0.708661 1.000000
tan 0.000000 -0.708661 0.708661 1.000000
tan 0.000000 -0.708661 0.708661 1.000000
tan 0.000000 -0.708661 0.708661 1.000000
tan 0.000000 -0.708661 0.708661 1.000000
tan 0.000000 -0.708661 0.708661 1.000000
tan 0.000000 -0.708661 -0.708661 1.000000
tan 0.000000 -0.708661 -0.708661 1.000000
tan 0.000000 -0.708661 -0.708661 1.000000
tan 0.000000 -0.708661 -0.708661 1.000000
tan 0.000000 -0.708661 -0.708661 1.000000
tan 0.000000 -0.708661 -0.708661 1.000000
tan 0.000000 -0.708661 -0.708661 1.000000
tan 0.000000 -0.708661 -0.708661 1.000000
tan 0.000000 -0.708661 -0.708661 1.000000
tan 0.000000 -0.708661 -0.708661 1.000000
tan 0.000000 -0.708661 -0.708661 1.000000
tan 0.000000 -0.708661 -0.708661 1.000000
tan 0.000000 -0.708661 -0.708661 1.000000
tan 0.000000 -0.708661 -0.708661 1.000000
tan 0.000000 -0.708661 -0.708661 1.000000
tan 0.000000 -0.708661 -0.708661 1.000000
tan 0.000000 -0.708661 -0.708661 1.000000
tan 0.000000 -0.708661 -0.708661 1.000000
tan 0.000000 -0.708661 -0.708661 1.000000
tan 0.000000 -0.708661 -0.708661 1.000000
tan 0.000000 -0.708661 -0.708661 1.000000
tan 0.000000 -0.708661 -0.708661 1.000000
tan 0.000000 -0.708661 -0.708661 1.000000
tan 0.000000 -0.708661 -0.708661 1.000000
tan 0.000000 0.708661 -0.708661 1.000000
tan 0.000000 0.708661 -0.708661 1.000000
tan 0.000000 0.708661 -0.708661 1.000000
tan 0.000000 0.708661 -0.708661 1.000000
tan 0.000000 0.708661 -0.708661 1.000000
tan 0.000000 0.708661 -0.708661 1.000000
tan 0.000000 0.708661 -0.708661 1.000000
tan 0.000000 0.708661 -0.708661 1.000000
tan 0.000000 0.708661 -0.708661 1.000000
tan 0.000000 0.708661 -0.708661 1.000000
tan 0.000000 0.708661 -0.708661 1.000000
tan 0.000000 0.708661 -0.708661 1.000000
tan 0.000000 0.708661 -0.708661 1.000000
tan 0.000000 0.708661 -0.708661 1.000000
tan 0.000000 0.708661 -0.708661 1.000000
tan 0.000000 0.708661 -0.708661 1.000000
tan 0.000000 0.708661 -0.708661 1.000000
tan 0.000000 0.708661 -0.708661 1.000000
tan 0.000000 0.708661 -0.708661 1.000000
tan 0.000000 0.708661 -0.708661 1.000000
tan 0.000000 0.708661 -0.708661 1.000000
tan 0.000000 0.708661 -0.708661 1.000000
tan 0.000000 0.708661 -0.708661 1.000000
tan 0.000000 0.708661 -0.708661 1.000000
tan 0.000000 0.708661 0.708661 1.000000
tan 0.000000 0.708661 0.708661 1.000000
tan 0.000000 0.708661 0.708661 1.000000
tan 0.000000 0.708661 0.708661 1.000000
tan 0.000000 0.708661 0.708661 1.000000
tan 0.000000 0.708661 0.708661 1.000000
tan 0.000000 0.708661 0.708661 1.000000
tan 0.000000 0.708661 0.708661 1.000000
tan 0.000000 0.708661 0.708661 1.000000
tan 0.000000 0.708661 0.708661 1.000000
tan 0.000000 0.708661 0.708661 1.000000
tan 0.000000 0.708661 0.708661 1.000000
tan 0.000000 0.708661 0.708661 1.000000
tan 0.000000 0.708661 0.708661 1.000000
tan 0.000000 0.708661 0.708661 1.000000
tan 0.000000 0.708661 0.708661 1.000000
tan 0.000000 0.708661 0.708661 1.000000
tan 0.000000 0.708661 0.708661 1.000000
tan 0.000000 -0.000000 -1.000000 1.000000
tan 0.000000 -0.000000 -1.000000 1.000000
tan 0.000000 -0.000000 -1.000000 1.000000
tan 0.000000 -0.000000 -1.000000 1.000000
tan 0.000000 -0.000000 -1.000000 1.000000
tan 0.000000 -0.000000 -1.000000 1.000000
tan 0.000000 -0.000000 -1.000000 1.000000
tan 0.000000 -0.000000 -1.000000 1.000000
tan 0.000000 -0.000000 -1.000000 1.000000
tan 0.000000 -0.000000 -1.000000 1.000000
tan 0.000000 -0.000000 -1.000000 1.000000
tan 0.000000 -0.000000 -1.000000 1.000000
tan 0.000000 -0.000000 -1.000000 1.000000
tan 0.000000 -0.000000 -1.000000 1.000000
tan 0.000000 -0.000000 -1.000000 1.000000
tan 0.000000 -0.000000 -1.000000 1.000000
tan 0.000000 -0.000000 -1.000000 1.000000
tan 0.000000 -0.000000 -1.000000 1.000000
tan 0.000000 -0.000000 -1.000000 1.000000
tan 0.000000 -0.000000 -1.000000 1.000000
tan 0.000000 -0.000000 -1.000000 1.000000
tan 0.000000 -0.000000 -1.000000 1.000000
tan 0.000000 -0.000000 -1.000000 1.000000
tan 0.000000 -0.000000 -1.000000 1.000000
tan 0.000000 -0.000000 -1.000000 1.000000
tan 0.000000 -0.000000 -1.000000 1.000000
tan 0.000000 -0.000000 -1.000000 1.000000
tan 0.000000 -0.000000 -1.000000 1.000000
tan 0.000000 -0.000000 -1.000000 1.000000
tan 0.000000 -0.000000 -1.000000 1.000000
tan 0.000000 -0.000000 -1.000000 1.000000
tan 0.000000 0.000000 1.000000 1.000000
tan 0.000000 0.000000 1.000000 1.000000
tan 0.000000 0.000000 1.000000 1.000000
tan 0.000000 0.000000 1.000000 1.000000
tan 0.000000 0.000000 1.000000 1.000000
tan 0.000000 0.000000 1.000000 1.000000
tan 0.000000 0.000000 1.000000 1.000000
tan 0.000000 0.000000 1.000000 1.000000
tan 0.000000 0.000000 1.000000 1.000000
tan 0.000000 0.000000 1.000000 1.000000
tan 0.000000 0.000000 1.000000 1.000000
tan 0.000000 0.000000 1.000000 1.000000
tan 0.000000 0.000000 1.000000 1.000000
tan 0.000000 0.000000 1.000000 1.000000
tan 0.000000 0.000000 1.000000 1.000000
tan 0.000000 0.000000 1.000000 1.000000
tan 0.000000 0.000000 1.000000 1.000000
tan 0.000000 0.000000 1.000000 1.000000
tan 0.000000 0.000000 1.000000 1.000000
tan 0.000000 0.000000 1.000000 1.000000
tan 0.000000 0.000000 1.000000 1.000000
tan 0.000000 0.000000 1.000000 1.000000
tan 0.000000 0.000000 1.000000 1.000000
tan 0.000000 0.000000 1.000000 1.000000
tan 0.000000 0.000000 1.000000 1.000000
tan 0.000000 0.000000 1.000000 1.000000
tan 0.000000 0.000000 1.000000 1.000000
tan 0.000000 0.000000 1.000000 1.000000
tan 0.000000 0.000000 1.000000 1.000000
tan 0.000000 -1.000000 0.000000 1.000000
tan 0.000000 -1.000000 0.000000 1.000000
tan 0.000000 -1.000000 0.000000 1.000000
tan 0.000000 -1.000000 0.000000 1.000000
tan 0.000000 -1.000000 0.000000 1.000000
tan 0.000000 -1.000000 0.000000 1.000000
tan 0.000000 -1.000000 0.000000 1.000000
tan 0.000000 -1.000000 0.000000 1.000000
tan 0.000000 -1.000000 0.000000 1.000000
tan 0.000000 -1.000000 0.000000 1.000000
tan 0.000000 -1.000000 0.000000 1.000000
tan 0.000000 -1.000000 0.000000 1.000000
tan 0.000000 -1.000000 0.000000 1.000000
tan 0.000000 -1.000000 0.000000 1.000000
tan 0.000000 -1.000000 0.000000 1.000000
tan 0.000000 -1.000000 0.000000 1.000000
tan 0.000000 -1.000000 0.000000 1.000000
tan 0.000000 -1.000000 0.000000 1.000000
tan 0.000000 -1.000000 0.000000 1.000000
tan 0.000000 -1.000000 0.000000 1.000000
tan 0.000000 -1.000000 0.000000 1.000000
tan 0.000000 -1.000000 0.000000 1.000000
tan 0.000000 -1.000000 0.000000 1.000000
tan 0.000000 -1.000000 0.000000 1.000000
tan 0.000000 -1.000000 0.000000 1.000000
tan 0.000000 -1.000000 0.000000 1.000000
tan 0.000000 -1.000000 0.000000 1.000000
tan 0.000000 -1.000000 0.000000 1.000000
tan 0.000000 -1.000000 0.000000 1.000000
tan 0.000000 -1.000000 0.000000 1.000000
tan 0.000000 -1.000000 0.000000 1.000000
tan 0.000000 -1.000000 0.000000 1.000000
tan 0.000000 -1.000000 0.000000 1.000000
tan 0.000000 -1.000000 0.000000 1.000000
tan 0.000000 -1.000000 0.000000 1.000000
tan 0.000000 -1.000000 0.000000 1.000000
tan 0.000000 -1.000000 0.000000 1.000000
tan 0.000000 -1.000000 0.000000 1.000000
tan 0.000000 -1.000000 0.000000 1.000000
tan 0.000000 1.000000 -0.000000 1.000000
tan 0.000000 1.000000 -0.000000 1.000000
tan 0.000000 1.000000 -0.000000 1.000000
tan 0.000000 1.000000 -0.000000 1.000000
tan 0.000000 1.000000 -0.000000 1.000000
tan 0.000000 1.000000 -0.000000 1.000000
tan 0.000000 1.000000 -0.000000 1.000000
tan 0.000000 1.000000 -0.000000 1.000000
tan 0.000000 1.000000 -0.000000 1.000000
tan 0.000000 1.000000 -0.000000 1.000000
tan 0.000000 1.000000 -0.000000 1.000000
tan 0.000000 1.000000 -0.000000 1.000000
tan 0.000000 1.000000 -0.000000 1.000000
tan 0.000000 1.000000 -0.000000 1.000000
tan 0.000000 1.000000 -0.000000 1.000000
tan 0.000000 1.000000 -0.000000 1.000000
tan 0.000000 1.000000 -0.000000 1.000000
tan 0.000000 1.000000 -0.000000 1.000000
tan 0.000000 1.000000 -0.000000 1.000000
tan 0.000000 1.000000 -0.000000 1.000000
tan 0.000000 1.000000 -0.000000 1.000000
tan 0.000000 1.000000 -0.000000 1.000000
tan 0.000000 1.000000 -0.000000 1.000000
tan 0.000000 1.000000 -0.000000 1.000000
tan 0.000000 1.000000 -0.000000 1.000000
tan 0.000000 1.000000 -0.000000 1.000000
tan 0.000000 1.000000 -0.000000 1.000000
tan 0.000000 1.000000 -0.000000 1.000000
tan 0.000000 1.000000 -0.000000 1.000000
tan 0.000000 1.000000 -0.000000 1.000000
tan 0.000000 1.000000 -0.000000 1.000000
tan 0.000000 1.000000 -0.000000 1.000000
tan 0.000000 1.000000 -0.000000 1.000000
tan 0.000000 1.000000 -0.000000 1.000000
tan 0.000000 1.000000 -0.000000 1.000000
tan 0.000000 1.000000 -0.000000 1.000000
tan 0.000000 1.000000 -0.000000 1.000000
tan 0.000000 1.000000 -0.000000 1.000000
tan 0.000000 1.000000 -0.000000 1.000000
tan 0.000000 1.000000 -0.000000 1.000000
tan 0.000000 1.000000 -0.000000 1.000000
tan 0.000000 1.000000 -0.000000 1.000000
tan 0.000000 1.000000 -0.000000 1.000000
tan 0.000000 1.000000 -0.000000 1.000000
tan 0.000000 1.000000 -0.000000 1.000000
tan 0.000000 1.000000 -0.000000 1.000000
tan 0.000000 1.000000 -0.000000 1.000000
tan 0.000000 1.000000 -0.000000 1.000000
tan 0.000000 1.000000 -0.000000 1.000000
tan 0.000000 1.000000 -0.000000 1.000000
tan 0.000000 1.000000 -0.000000 1.000000
tan 0.000000 1.000000 -0.000000 1.000000
tan 0.000000 1.000000 -0.000000 1.000000
tan 0.000000 1.000000 -0.000000 1.000000
tan 0.000000 1.000000 -0.000000 1.000000
tan 0.000000 1.000000 -0.000000 1.000000
tan 0.000000 1.000000 -0.000000 1.000000
tan 0.000000 1.000000 -0.000000 1.000000
tan 0.000000 1.000000 -0.000000 1.000000
tan 0.000000 1.000000 -0.000000 1.000000
tan 0.000000 1.000000 -0.000000 1.000000
tan 0.000000 1.000000 -0.000000 1.000000
tan 0.000000 1.000000 -0.000000 1.000000
tan 0.000000 1.000000 -0.000000 1.000000
tan 0.000000 1.000000 -0.000000 1.000000
tan 0.000000 1.000000 -0.000000 1.000000
tan 0.000000 1.000000 -0.000000 1.000000
tan 0.000000 1.000000 -0.000000 1.000000
tan 0.000000 1.000000 -0.000000 1.000000
tan 0.000000 1.000000 -0.000000 1.000000
tan 0.000000 1.000000 -0.000000 1.000000
tan 0.000000 1.000000 -0.000000 1.000000
tan 0.000000 1.000000 -0.000000 1.000000
tan 0.000000 1.000000 -0.000000 1.000000
tan 0.000000 1.000000 -0.000000 1.000000
tan 0.000000 1.000000 -0.000000 1.000000
tan 0.000000 1.000000 -0.000000 1.000000
tan 0.000000 1.000000 -0.000000 1.000000
tan 0.000000 1.000000 -0.000000 1.000000
tan 0.000000 1.000000 -0.000000 1.000000
tan 0.000000 1.000000 -0.000000 1.000000
tan 0.000000 1.000000 -0.000000 1.000000
tan 0.000000 1.000000 -0.000000 1.000000
tan 0.000000 1.000000 -0.000000 1.000000
tan 0.000000 1.000000 -0.000000 1.000000
tan 0.000000 1.000000 -0.000000 1.000000
tan 0.000000 1.000000 -0.000000 1.000000
tan 0.000000 1.000000 -0.000000 1.000000
tan 0.000000 1.000000 -0.000000 1.000000
tan 0.000000 1.000000 -0.000000 1.000000
tan 0.000000 1.000000 -0.000000 1.000000
tan 0.000000 1.000000 -0.000000 1.000000
tan 0.000000 1.000000 -0.000000 1.000000
tan 0.000000 1.000000 -0.000000 1.000000
tan 0.000000 1.000000 -0.000000 1.000000
tan 0.000000 1.000000 -0.000000 1.000000
tan 0.000000 1.000000 -0.000000 1.000000
tan 0.000000 1.000000 -0.000000 1.000000
tan 0.000000 1.000000 -0.000000 1.000000
tan 0.000000 1.000000 -0.000000 1.000000
tan 0.000000 -1.000000 0.000000 1.000000
tan 0.000000 -1.000000 0.000000 1.000000
tan 0.000000 -1.000000 0.000000 1.000000
tan 0.000000 -1.000000 0.000000 1.000000
tan 0.000000 -1.000000 0.000000 1.000000
tan 0.000000 -1.000000 0.000000 1.000000
tan 0.000000 -1.000000 0.000000 1.000000
tan 0.000000 -1.000000 0.000000 1.000000
tan 0.000000 -1.000000 0.000000 1.000000
tan 0.000000 -1.000000 0.000000 1.000000
tan 0.000000 -1.000000 0.000000 1.000000
tan 0.000000 -1.000000 0.000000 1.000000
tan 0.000000 -1.000000 0.000000 1.000000
tan 0.000000 -1.000000 0.000000 1.000000
tan 0.000000 -1.000000 0.000000 1.000000
tan 0.000000 -1.000000 0.000000 1.000000
tan 0.000000 -1.000000 0.000000 1.000000
tan 0.000000 -1.000000 0.000000 1.000000
tan 0.000000 -1.000000 0.000000 1.000000
tan 0.000000 -1.000000 0.000000 1.000000
tan 0.000000 -1.000000 0.000000 1.000000
tan 0.000000 -1.000000 0.000000 1.000000
tan 0.000000 -1.000000 0.000000 1.000000
tan 0.000000 -1.000000 0.000000 1.000000
tan 0.000000 -1.000000 0.000000 1.000000
tan 0.000000 -1.000000 0.000000 1.000000
tan 0.000000 -1.000000 0.000000 1.000000
tan 0.000000 -1.000000 0.000000 1.000000
tan 0.000000 -1.000000 0.000000 1.000000
tan 0.000000 -1.000000 0.000000 1.000000
tan 0.000000 -1.000000 0.000000 1.000000
tan 0.000000 -1.000000 0.000000 1.000000
tan 0.000000 -1.000000 0.000000 1.000000
tan 0.000000 -1.000000 0.000000 1.000000
tan 0.000000 -1.000000 0.000000 1.000000
tan 0.000000 -1.000000 0.000000 1.000000
tan 0.000000 -1.000000 0.000000 1.000000
tan 0.000000 -1.000000 0.000000 1.000000
tan 0.000000 -1.000000 0.000000 1.000000
tan 0.000000 -1.000000 0.000000 1.000000
tan 0.000000 -1.000000 0.000000 1.000000
tan 0.000000 -1.000000 0.000000 1.000000
tan 0.000000 -1.000000 0.000000 1.000000
tan 0.000000 -1.000000 0.000000 1.000000
tan 0.000000 -1.000000 0.000000 1.000000
tan 0.000000 -1.000000 0.000000 1.000000
tan 0.000000 -1.000000 0.000000 1.000000
tan 0.000000 -1.000000 0.000000 1.000000
tan 0.000000 -1.000000 0.000000 1.000000
tan 0.000000 -1.000000 0.000000 1.000000
tan 0.000000 -1.000000 0.000000 1.000000
f 3/3/3 2/2/2 1/1/1
f 4/4/4 1/1/1 2/2/2
f 2/2/2 5/5/5 4/4/4
f 6/6/6 4/4/4 5/5/5
f 5/5/5 7/7/7 6/6/6
f 8/8/8 6/6/6 7/7/7
f 7/7/7 9/9/9 8/8/8
f 10/10/10 8/8/8 9/9/9
f 9/9/9 11/11/11 10/10/10
f 12/12/12 10/10/10 11/11/11
f 11/11/11 13/13/13 12/12/12
f 13/13/13 11/11/11 14/14/14
f 14/14/14 15/15/15 13/13/13
f 15/15/15 14/14/14 16/16/16
f 16/16/16 17/17/17 15/15/15
f 17/17/17 16/16/16 18/18/18
f 18/18/18 19/19/19 17/17/17
f 19/19/19 18/18/18 20/20/20
f 20/20/20 21/21/21 19/19/19
f 21/21/21 20/20/20 22/22/22
f 22/22/22 23/23/23 21/21/21
f 23/23/23 22/22/22 24/24/24
f 27/27/27 26/26/26 25/25/25
f 26/26/26 27/27/27 28/28/28
f 28/28/28 29/29/29 26/26/26
f 29/29/29 28/28/28 30/30/30
f 30/30/30 31/31/31 29/29/29
f 31/31/31 30/30/30 32/32/32
f 32/32/32 33/33/33 31/31/31
f 33/33/33 32/32/32 34/34/34
f 34/34/34 35/35/35 33/33/33
f 35/35/35 34/34/34 36/36/36
f 36/36/36 37/37/37 35/35/35
f 37/37/37 36/36/36 38/38/38
f 38/38/38 39/39/39 37/37/37
f 39/39/39 38/38/38 40/40/40
f 40/40/40 41/41/41 39/39/39
f 41/41/41 40/40/40 42/42/42
f 42/42/42 43/43/43 41/41/41
f 43/43/43 42/42/42 44/44/44
f 44/44/44 45/45/45 43/43/43
f 45/45/45 44/44/44 46/46/46
f 46/46/46 47/47/47 45/45/45
f 47/47/47 46/46/46 48/48/48
f 51/51/51 50/50/50 49/49/49
f 50/50/50 51/51/51 52/52/52
f 52/52/52 53/53/53 50/50/50
f 53/53/53 52/52/52 54/54/54
f 54/54/54 55/55/55 53/53/53
f 55/55/55 54/54/54 56/56/56
f 56/56/56 57/57/57 55/55/55
f 57/57/57 56/56/56 58/58/58
f 58/58/58 59/59/59 57/57/57
f 59/59/59 58/58/58 60/60/60
f 60/60/60 61/61/61 59/59/59
f 61/61/61 60/60/60 62/62/62
f 62/62/62 63/63/63 61/61/61
f 63/63/63 62/62/62 64/64/64
f 64/64/64 65/65/65 63/63/63
f 65/65/65 64/64/64 66/66/66
f 66/66/66 67/67/67 65/65/65
f 67/67/67 66/66/66 68/68/68
f 68/68/68 69/69/69 67/67/67
f 69/69/69 68/68/68 70/70/70
f 70/70/70 71/71/71 69/69/69
f 71/71/71 70/70/70 72/72/72
f 75/75/75 74/74/74 73/73/73
f 74/74/74 75/75/75 76/76/76
f 76/76/76 77/77/77 74/74/74
f 77/77/77 76/76/76 78/78/78
f 78/78/78 79/79/79 77/77/77
f 79/79/79 78/78/78 80/80/80
f 80/80/80 81/81/81 79/79/79
f 81/81/81 80/80/80 82/82/82
f 82/82/82 83/83/83 81/81/81
f 83/83/83 82/82/82 84/84/84
f 84/84/84 85/85/85 83/83/83
f 84/84/84 86/86/86 85/85/85
f 84/84/84 87/87/87 86/86/86
f 84/84/84 88/88/88 87/87/87
f 89/89/89 88/88/88 84/84/84
f 90/90/90 89/89/89 84/84/84
f 93/93/93 92/92/92 91/91/91
f 94/94/94 91/91/91 92/92/92
f 91/91/91 94/94/94 95/95/95
f 95/95/95 94/94/94 96/96/96
f 96/96/96 94/94/94 97/97/97
f 92/92/92 98/98/98 94/94/94
f 97/97/97 94/94/94 99/99/99
f 100/100/100 94/94/94 98/98/98
f 98/98/98 101/101/101 100/100/100
f 102/102/102 100/100/100 101/101/101
f 100/100/100 102/102/102 94/94/94
f 103/103/103 94/94/94 102/102/102
f 104/104/104 94/94/94 103/103/103
f 105/105/105 94/94/94 104/104/104
f 106/106/106 94/94/94 105/105/105
f 94/94/94 106/106/106 107/107/107
f 108/108/108 107/107/107 106/106/106
f 107/107/107 109/109/109 94/94/94
f 107/107/107 108/108/108 109/109/109
f 109/109/109 99/99/99 94/94/94
f 99/99/99 109/109/109 110/110/110
f 110/110/110 109/109/109 111/111/111
f 111/111/111 109/109/109 112/112/112
f 113/113/113 109/109/109 108/108/108
f 112/112/112 109/109/109 114/114/114
f 109/109/109 113/113/113 115/115/115
f 115/115/115 114/114/114 109/109/109
f 116/116/116 115/115/115 113/113/113
f 114/114/114 115/115/115 117/117/117
f 117/117/117 115/115/115 118/118/118
f 119/119/119 115/115/115 116/116/116
f 120/120/120 115/115/115 119/119/119
f 121/121/121 115/115/115 120/120/120
f 124/124/124 123/123/123 122/122/122
f 123/123/123 125/125/125 122/122/122
f 123/123/123 126/126/126 125/125/125
f 126/126/126 127/127/127 125/125/125
f 127/127/127 128/128/128 125/125/125
f 128/128/128 129/129/129 125/125/125
f 129/129/129 130/130/130 125/125/125
f 130/130/130 131/131/131 125/125/125
f 122/122/122 125/125/125 132/132/132
f 131/131/131 133/133/133 125/125/125
f 132/132/132 135/135/135 134/134/134
f 132/132/132 125/125/125 135/135/135
f 125/125/125 136/136/136 135/135/135
f 125/125/125 137/137/137 136/136/136
f 125/125/125 138/138/138 137/137/137
f 125/125/125 139/139/139 138/138/138
f 125/125/125 140/140/140 139/139/139
f 125/125/125 141/141/141 140/140/140
f 125/125/125 142/142/142 141/141/141
f 133/133/133 142/142/142 125/125/125
f 142/142/142 143/143/143 141/141/141
f 133/133/133 144/144/144 142/142/142
f 142/142/142 145/145/145 143/143/143
f 144/144/144 146/146/146 142/142/142
f 146/146/146 147/147/147 142/142/142
f 142/142/142 148/148/148 145/145/145
f 147/147/147 149/149/149 142/142/142
f 142/142/142 149/149/149 148/148/148
f 149/149/149 150/150/150 148/148/148
f 153/153/153 152/152/152 151/151/151
f 154/154/154 151/151/151 152/152/152
f 152/152/152 155/155/155 154/154/154
f 151/151/151 154/154/154 156/156/156
f 157/157/157 154/154/154 155/155/155
f 157/157/157 155/155/155 158/158/158
f 159/159/159 156/156/156 154/154/154
f 154/154/154 157/157/157 159/159/159
f 160/160/160 156/156/156 159/159/159
f 161/161/161 160/160/160 159/159/159
f 157/157/157 158/158/158 162/162/162
f 161/161/161 159/159/159 163/163/163
f 163/163/163 159/159/159 157/157/157
f 164/164/164 161/161/161 163/163/163
f 164/164/164 163/163/163 157/157/157
f 165/165/165 164/164/164 157/157/157
f 166/166/166 157/157/157 162/162/162
f 166/166/166 162/162/162 167/167/167
f 157/157/157 168/168/168 165/165/165
f 168/168/168 157/157/157 166/166/166
f 168/168/168 166/166/166 167/167/167
f 169/169/169 165/165/165 168/168/168
f 167/167/167 170/170/170 168/168/168
f 171/171/171 168/168/168 170/170/170
f 171/171/171 170/170/170 172/172/172
f 169/169/169 168/168/168 173/173/173
f 168/168/168 171/171/171 173/173/173
f 173/173/173 171/171/171 172/172/172
f 174/174/174 169/169/169 173/173/173
f 172/172/172 175/175/175 173/173/173
f 176/176/176 174/174/174 173/173/173
f 176/176/176 173/173/173 177/177/177
f 173/173/173 175/175/175 178/178/178
f 177/177/177 173/173/173 179/179/179
f 180/180/180 173/173/173 178/178/178
f 180/180/180 179/179/179 173/173/173
f 180/180/180 178/178/178 181/181/181
f 179/179/179 180/180/180 182/182/182
f 183/183/183 179/179/179 182/182/182
f 184/184/184 180/180/180 181/181/181
f 182/182/182 180/180/180 184/184/184
f 186/186/186 185/185/185 181/181/181
f 184/184/184 181/181/181 185/185/185
f 187/187/187 184/184/184 185/185/185
f 187/187/187 182/182/182 184/184/184
f 183/183/183 182/182/182 187/187/187
f 188/188/188 183/183/183 187/187/187
f 189/189/189 188/188/188 187/187/187
f 192/192/192 191/191/191 190/190/190
f 192/192/192 193/193/193 191/191/191
f 195/195/195 194/194/194 192/192/192
f 194/194/194 196/196/196 192/192/192
f 196/196/196 197/197/197 192/192/192
f 192/192/192 198/198/198 193/193/193
f 197/197/197 198/198/198 192/192/192
f 198/198/198 199/199/199 193/193/193
f 197/197/197 200/200/200 198/198/198
f 200/200/200 201/201/201 198/198/198
f 201/201/201 202/202/202 198/198/198
f 203/203/203 199/199/199 198/198/198
f 202/202/202 204/204/204 198/198/198
f 198/198/198 205/205/205 203/203/203
f 206/206/206 203/203/203 205/205/205
f 204/204/204 207/207/207 198/198/198
f 198/198/198 207/207/207 205/205/205
f 205/205/205 207/207/207 206/206/206
f 204/204/204 208/208/208 207/207/207
f 208/208/208 209/209/209 207/207/207
f 208/208/208 210/210/210 209/209/209
f 209/209/209 211/211/211 207/207/207
f 207/207/207 211/211/211 206/206/206
f 210/210/210 212/212/212 209/209/209
f 209/209/209 212/212/212 211/211/211
f 210/210/210 213/213/213 212/212/212
f 211/211/211 214/214/214 206/206/206
f 212/212/212 214/214/214 211/211/211
f 206/206/206 214/214/214 215/215/215
f 212/212/212 215/215/215 214/214/214
f 215/215/215 212/212/212 213/213/213
f 206/206/206 215/215/215 216/216/216
f 213/213/213 216/216/216 215/215/215
f 219/219/219 218/218/218 217/217/217
f 217/217/217 218/218/218 220/220/220
f 218/218/218 221/221/221 220/220/220
f 220/220/220 221/221/221 222/222/222
f 221/221/221 223/223/223 222/222/222
f 222/222/222 223/223/223 224/224/224
f 221/221/221 218/218/218 225/225/225
f 223/223/223 221/221/221 226/226/226
f 225/225/225 226/226/226 221/221/221
f 224/224/224 223/223/223 227/227/227
f 226/226/226 227/227/227 223/223/223
f 225/225/225 218/218/218 228/228/228
f 225/225/225 228/228/228 226/226/226
f 229/229/229 228/228/228 218/218/218
f 230/230/230 229/229/229 218/218/218
f 231/231/231 226/226/226 228/228/228
f 226/226/226 231/231/231 227/227/227
f 229/229/229 230/230/230 232/232/232
f 233/233/233 232/232/232 230/230/230
f 228/228/228 229/229/229 234/234/234
f 232/232/232 234/234/234 229/229/229
f 232/232/232 233/233/233 235/235/235
f 235/235/235 234/234/234 232/232/232
f 233/233/233 236/236/236 235/235/235
f 236/236/236 237/237/237 235/235/235
f 235/235/235 237/237/237 234/234/234
f 236/236/236 238/238/238 237/237/237
f 234/234/234 239/239/239 228/228/228
f 231/231/231 228/228/228 239/239/239
f 238/238/238 240/240/240 237/237/237
f 238/238/238 241/241/241 240/240/240
f 237/237/237 242/242/242 234/234/234
f 237/237/237 240/240/240 242/242/242
f 239/239/239 234/234/234 243/243/243
f 234/234/234 242/242/242 243/243/243
f 240/240/240 244/244/244 242/242/242
f 242/242/242 245/245/245 243/243/243
f 242/242/242 244/244/244 245/245/245
f 240/240/240 246/246/246 244/244/244
f 244/244/244 246/246/246 245/245/245
f 241/241/241 246/246/246 240/240/240
f 243/243/243 245/245/245 247/247/247
f 243/243/243 247/247/247 239/239/239
f 245/245/245 246/246/246 247/247/247
f 239/239/239 248/248/248 231/231/231
f 248/248/248 239/239/239 247/247/247
f 249/249/249 231/231/231 248/248/248
f 249/249/249 227/227/227 231/231/231
f 250/250/250 248/248/248 247/247/247
f 227/227/227 249/249/249 251/251/251
f 227/227/227 251/251/251 224/224/224
f 249/249/249 248/248/248 252/252/252
f 252/252/252 251/251/251 249/249/249
f 250/250/250 252/252/252 248/248/248
f 253/253/253 224/224/224 251/251/251
f 251/251/251 252/252/252 253/253/253
f 252/252/252 250/250/250 253/253/253
f 224/224/224 253/253/253 254/254/254
f 255/255/255 250/250/250 247/247/247
f 250/250/250 255/255/255 253/253/253
f 247/247/247 256/256/256 255/255/255
f 253/253/253 255/255/255 256/256/256
f 246/246/246 256/256/256 247/247/247
f 257/257/257 254/254/254 253/253/253
f 257/257/257 258/258/258 254/254/254
f 254/254/254 258/258/258 259/259/259
f 258/258/258 257/257/257 260/260/260
f 253/253/253 260/260/260 257/257/257
f 258/258/258 261/261/261 259/259/259
f 259/259/259 261/261/261 262/262/262
f 260/260/260 263/263/263 258/258/258
f 261/261/261 258/258/258 263/263/263
f 260/260/260 253/253/253 263/263/263
f 264/264/264 262/262/262 261/261/261
f 262/262/262 264/264/264 265/265/265
f 264/264/264 266/266/266 265/265/265
f 266/266/266 264/264/264 267/267/267
f 264/264/264 261/261/261 267/267/267
f 263/263/263 267/267/267 261/261/261
f 263/263/263 253/253/253 267/267/267
f 253/253/253 268/268/268 267/267/267
f 268/268/268 269/269/269 267/267/267
f 268/268/268 270/270/270 269/269/269
f 253/253/253 270/270/270 268/268/268
f 270/270/270 271/271/271 269/269/269
f 270/270/270 272/272/272 271/271/271
f 270/270/270 253/253/253 272/272/272
f 272/272/272 273/273/273 271/271/271
f 274/274/274 272/272/272 253/253/253
f 256/256/256 274/274/274 253/253/253
f 274/274/274 256/256/256 272/272/272
f 272/272/272 256/256/256 273/273/273
f 256/256/256 275/275/275 273/273/273
f 256/256/256 276/276/276 275/275/275
f 275/275/275 276/276/276 277/277/277
f 279/279/279 278/278/278 276/276/276
f 276/276/276 280/280/280 279/279/279
f 276/276/276 281/281/281 277/277/277
f 281/281/281 282/282/282 277/277/277
f 282/282/282 281/281/281 283/283/283
f 276/276/276 283/283/283 281/281/281
f 284/284/284 276/276/276 256/256/256
f 276/276/276 284/284/284 280/280/280
f 246/246/246 284/284/284 256/256/256
f 246/246/246 280/280/280 284/284/284
f 285/285/285 280/280/280 246/246/246
f 246/246/246 286/286/286 285/285/285
f 287/287/287 285/285/285 286/286/286
f 288/288/288 286/286/286 246/246/246
f 286/286/286 288/288/288 287/287/287
f 241/241/241 288/288/288 246/246/246
f 289/289/289 287/287/287 288/288/288
f 288/288/288 241/241/241 289/289/289
f 292/292/292 291/291/291 290/290/290
f 292/292/292 290/290/290 293/293/293
f 293/293/293 290/290/290 294/294/294
f 294/294/294 290/290/290 295/295/295
f 295/295/295 290/290/290 296/296/296
f 295/295/295 296/296/296 297/297/297
f 296/296/296 290/290/290 298/298/298
f 297/297/297 296/296/296 298/298/298
f 299/299/299 295/295/295 297/297/297
f 299/299/299 300/300/300 295/295/295
f 300/300/300 299/299/299 301/301/301
f 302/302/302 301/301/301 299/299/299
f 301/301/301 302/302/302 303/303/303
f 299/299/299 297/297/297 304/304/304
f 302/302/302 299/299/299 304/304/304
f 305/305/305 303/303/303 302/302/302
f 303/303/303 305/305/305 306/306/306
f 302/302/302 304/304/304 307/307/307
f 305/305/305 302/302/302 307/307/307
f 304/304/304 297/297/297 308/308/308
f 297/297/297 298/298/298 308/308/308
f 307/307/307 304/304/304 309/309/309
f 304/304/304 308/308/308 309/309/309
f 305/305/305 307/307/307 310/310/310
f 307/307/307 309/309/309 311/311/311
f 310/310/310 307/307/307 311/311/311
f 312/312/312 306/306/306 305/305/305
f 312/312/312 305/305/305 310/310/310
f 306/306/306 314/314/314 313/313/313
f 306/306/306 312/312/312 314/314/314
f 314/314/314 312/312/312 315/315/315
f 312/312/312 310/310/310 315/315/315
f 315/315/315 316/316/316 314/314/314
f 316/316/316 315/315/315 317/317/317
f 315/315/315 318/318/318 317/317/317
f 315/315/315 310/310/310 318/318/318
f 310/310/310 311/311/311 318/318/318
f 318/318/318 311/311/311 319/319/319
f 311/311/311 309/309/309 320/320/320
f 311/311/311 320/320/320 319/319/319
f 309/309/309 321/321/321 320/320/320
f 309/309/309 308/308/308 321/321/321
f 319/319/319 320/320/320 322/322/322
f 308/308/308 323/323/323 321/321/321
f 308/308/308 298/298/298 323/323/323
f 320/320/320 321/321/321 324/324/324
f 320/320/320 324/324/324 322/322/322
f 321/321/321 323/323/323 325/325/325
f 321/321/321 325/325/325 324/324/324
f 298/298/298 326/326/326 323/323/323
f 298/298/298 290/290/290 326/326/326
f 322/322/322 324/324/324 327/327/327
f 322/322/322 327/327/327 319/319/319
f 324/324/324 328/328/328 327/327/327
f 324/324/324 325/325/325 328/328/328
f 327/327/327 329/329/329 319/319/319
f 327/327/327 328/328/328 329/329/329
f 319/319/319 329/329/329 330/330/330
f 328/328/328 330/330/330 329/329/329
f 325/325/325 331/331/331 328/328/328
f 328/328/328 331/331/331 330/330/330
f 323/323/323 332/332/332 325/325/325
f 323/323/323 326/326/326 332/332/332
f 325/325/325 332/332/332 331/331/331
f 326/326/326 333/333/333 332/332/332
f 326/326/326 290/290/290 333/333/333
f 332/332/332 334/334/334 331/331/331
f 332/332/332 333/333/333 334/334/334
f 334/334/334 333/333/333 331/331/331
f 290/290/290 335/335/335 333/333/333
f 333/333/333 335/335/335 331/331/331
f 290/290/290 336/336/336 335/335/335
f 335/335/335 336/336/336 337/337/337
f 331/331/331 338/338/338 330/330/330
f 331/331/331 335/335/335 338/338/338
f 338/338/338 339/339/339 330/330/330
f 338/338/338 335/335/335 339/339/339
f 339/339/339 340/340/340 337/337/337
f 335/335/335 337/337/337 340/340/340
f 335/335/335 340/340/340 339/339/339
