mtllib SM_Wall_02_LOD2@000002909DC03900.mtl
g SM_Wall_02_LOD2@000002909DC03900
#Vertices 94
#Indices 222
#Section 0 Offset 0 NumIndices 24 MaterialIndex 0 MI_BrickTile_B_01
#Section 1 Offset 24 NumIndices 198 MaterialIndex 1 MI_ConcreteTrim_A_02
v 8.016634 0.000000 0.250000 0.000000 0.000000 1.000000 1.000000
v 4.030907 1.508800 0.250000 0.000000 0.000000 1.000000 1.000000
v 8.016634 1.500000 0.250000 0.000000 0.000000 1.000000 1.000000
v 0.016641 0.000000 0.250000 0.000000 0.000000 1.000000 1.000000
v 2.020375 2.231386 0.250000 0.000000 0.000000 1.000000 1.000000
v 0.016641 3.500000 0.250000 0.000000 0.000000 1.000000 1.000000
v 4.030907 1.508800 -0.250000 0.000000 0.000000 1.000000 1.000000
v 8.016634 -0.000000 -0.250000 0.000000 0.000000 1.000000 1.000000
v 8.016634 1.500000 -0.250000 0.000000 0.000000 1.000000 1.000000
v 0.016641 -0.000000 -0.250000 0.000000 0.000000 1.000000 1.000000
v 2.020375 2.231386 -0.250000 0.000000 0.000000 1.000000 1.000000
v 0.016641 3.500000 -0.250000 0.000000 0.000000 1.000000 1.000000
v -0.000001 3.925096 -0.375000 0.000000 0.000000 1.000000 1.000000
v 1.727695 2.726285 -0.314572 0.000000 0.000000 1.000000 1.000000
v -0.000001 4.000098 -0.314999 0.000000 0.000000 1.000000 1.000000
v 1.743039 2.642355 -0.374935 0.000000 0.000000 1.000000 1.000000
v 2.978084 2.245367 -0.314417 0.000000 0.000000 1.000000 1.000000
v 3.109282 2.145237 -0.375089 0.000000 0.000000 1.000000 1.000000
v 4.336024 2.009617 -0.315980 0.000000 0.000000 1.000000 1.000000
v 4.483286 1.943826 -0.375036 0.000000 0.000000 1.000000 1.000000
v 7.999999 1.940096 -0.375000 0.000000 0.000000 1.000000 1.000000
v 7.999999 2.000098 -0.314998 0.000000 0.000000 1.000000 1.000000
v 0.000001 3.325001 0.375000 0.000000 0.000000 1.000000 1.000000
v 1.517392 2.193285 0.375335 0.000000 0.000000 1.000000 1.000000
v 0.000000 3.250000 0.314998 0.000000 0.000000 1.000000 1.000000
v 1.754347 1.967127 0.313234 0.000000 0.000000 1.000000 1.000000
v 2.643311 1.636116 0.374426 0.000000 0.000000 1.000000 1.000000
v 2.970840 1.497475 0.315630 0.000000 0.000000 1.000000 1.000000
v 4.336283 1.254588 0.315937 0.000000 0.000000 1.000000 1.000000
v 4.344650 1.317430 0.375047 0.000000 0.000000 1.000000 1.000000
v 8.000001 1.310002 0.375000 0.000000 0.000000 1.000000 1.000000
v 8.000001 1.250000 0.314998 0.000000 0.000000 1.000000 1.000000
v 8.000001 1.310002 0.375000 0.000000 0.000000 1.000000 1.000000
v 4.344650 1.317430 0.375047 0.000000 0.000000 1.000000 1.000000
v 8.000001 1.940096 0.375000 0.000000 0.000000 1.000000 1.000000
v 4.305516 1.946422 0.374542 0.000000 0.000000 1.000000 1.000000
v 2.643311 1.636116 0.374426 0.000000 0.000000 1.000000 1.000000
v 2.622377 2.267915 0.374709 0.000000 0.000000 1.000000 1.000000
v 1.517392 2.193285 0.375335 0.000000 0.000000 1.000000 1.000000
v 1.458695 2.837618 0.375054 0.000000 0.000000 1.000000 1.000000
v 0.000001 3.325001 0.375000 0.000000 0.000000 1.000000 1.000000
v 0.000001 3.925095 0.374999 0.000000 0.000000 1.000000 1.000000
v 7.999999 1.250000 -0.314998 0.000000 0.000000 1.000000 1.000000
v 4.336283 1.254588 0.315937 0.000000 0.000000 1.000000 1.000000
v 8.000001 1.250000 0.314998 0.000000 0.000000 1.000000 1.000000
v 4.310393 1.257671 -0.314910 0.000000 0.000000 1.000000 1.000000
v 2.970840 1.497475 0.315630 0.000000 0.000000 1.000000 1.000000
v 2.599779 1.598028 -0.313304 0.000000 0.000000 1.000000 1.000000
v 1.754347 1.967127 0.313234 0.000000 0.000000 1.000000 1.000000
v 1.482821 2.141765 -0.315721 0.000000 0.000000 1.000000 1.000000
v 0.000000 3.250000 0.314998 0.000000 0.000000 1.000000 1.000000
v -0.000001 3.250000 -0.314999 0.000000 0.000000 1.000000 1.000000
v 4.305516 1.946422 0.374542 0.000000 0.000000 1.000000 1.000000
v 8.000001 2.000098 0.314998 0.000000 0.000000 1.000000 1.000000
v 8.000001 1.940096 0.375000 0.000000 0.000000 1.000000 1.000000
v 4.313626 2.004124 0.314002 0.000000 0.000000 1.000000 1.000000
v 2.634356 2.337390 0.316960 0.000000 0.000000 1.000000 1.000000
v 2.622377 2.267915 0.374709 0.000000 0.000000 1.000000 1.000000
v 1.495152 2.884744 0.314658 0.000000 0.000000 1.000000 1.000000
v 1.458695 2.837618 0.375054 0.000000 0.000000 1.000000 1.000000
v 0.000001 3.925095 0.374999 0.000000 0.000000 1.000000 1.000000
v 0.000000 4.000098 0.314998 0.000000 0.000000 1.000000 1.000000
v 7.999999 1.250000 -0.314998 0.000000 0.000000 1.000000 1.000000
v 7.999996 1.310002 -0.375000 0.000000 0.000000 1.000000 1.000000
v 4.310393 1.257671 -0.314910 0.000000 0.000000 1.000000 1.000000
v 4.489032 1.313979 -0.374984 0.000000 0.000000 1.000000 1.000000
v 3.541004 1.440012 -0.374904 0.000000 0.000000 1.000000 1.000000
v 2.599779 1.598028 -0.313304 0.000000 0.000000 1.000000 1.000000
v 2.509130 1.699550 -0.375114 0.000000 0.000000 1.000000 1.000000
v 1.516143 2.194248 -0.375406 0.000000 0.000000 1.000000 1.000000
v 1.482821 2.141765 -0.315721 0.000000 0.000000 1.000000 1.000000
v -0.000001 3.250000 -0.314999 0.000000 0.000000 1.000000 1.000000
v -0.000001 3.325002 -0.375000 0.000000 0.000000 1.000000 1.000000
v 7.999999 1.940096 -0.375000 0.000000 0.000000 1.000000 1.000000
v 4.483286 1.943826 -0.375036 0.000000 0.000000 1.000000 1.000000
v 7.999996 1.310002 -0.375000 0.000000 0.000000 1.000000 1.000000
v 4.489032 1.313979 -0.374984 0.000000 0.000000 1.000000 1.000000
v 3.541004 1.440012 -0.374904 0.000000 0.000000 1.000000 1.000000
v 3.109282 2.145237 -0.375089 0.000000 0.000000 1.000000 1.000000
v 2.509130 1.699550 -0.375114 0.000000 0.000000 1.000000 1.000000
v 1.743039 2.642355 -0.374935 0.000000 0.000000 1.000000 1.000000
v 1.516143 2.194248 -0.375406 0.000000 0.000000 1.000000 1.000000
v -0.000001 3.325002 -0.375000 0.000000 0.000000 1.000000 1.000000
v -0.000001 3.925096 -0.375000 0.000000 0.000000 1.000000 1.000000
v 4.313626 2.004124 0.314002 0.000000 0.000000 1.000000 1.000000
v 7.999999 2.000098 -0.314998 0.000000 0.000000 1.000000 1.000000
v 8.000001 2.000098 0.314998 0.000000 0.000000 1.000000 1.000000
v 4.336024 2.009617 -0.315980 0.000000 0.000000 1.000000 1.000000
v 2.978084 2.245367 -0.314417 0.000000 0.000000 1.000000 1.000000
v 2.634356 2.337390 0.316960 0.000000 0.000000 1.000000 1.000000
v 1.727695 2.726285 -0.314572 0.000000 0.000000 1.000000 1.000000
v 1.495152 2.884744 0.314658 0.000000 0.000000 1.000000 1.000000
v 0.000000 4.000098 0.314998 0.000000 0.000000 1.000000 1.000000
v -0.000001 4.000098 -0.314999 0.000000 0.000000 1.000000 1.000000
vt 0.895508 1.540039
vt 0.451416 1.763672
vt 0.895508 1.762695
vt 0.004303 1.535645
vt 0.227539 1.844238
vt 0.004303 1.985840
vt 0.451416 1.284668
vt 0.895508 1.060913
vt 0.895508 1.283691
vt 0.004303 1.056610
vt 0.227539 1.365234
vt 0.004303 1.506348
vt 0.000000 0.235352
vt 0.270508 0.254395
vt 0.000000 0.254883
vt 0.276611 0.236328
vt 0.437500 0.254883
vt 0.456543 0.235352
vt 0.611328 0.254883
vt 0.630371 0.235352
vt 1.076172 0.235352
vt 1.076172 0.254883
vt 0.000000 0.000000
vt 0.232422 0.000000
vt 0.000000 0.016113
vt 0.272461 0.015625
vt 0.392090 0.000488
vt 0.436523 0.016602
vt 0.611816 0.016113
vt 0.612305 0.000488
vt 1.076172 0.000000
vt 1.076172 0.016113
vt 1.076172 0.463379
vt 0.612305 0.462891
vt 1.076172 0.368164
vt 0.608398 0.368164
vt 0.391846 0.463867
vt 0.394775 0.367676
vt 0.232422 0.462891
vt 0.233887 0.368164
vt 0.000000 0.463379
vt 0.000000 0.368164
vt 1.076172 0.121094
vt 0.611816 0.016113
vt 1.076172 0.016113
vt 0.608398 0.121094
vt 0.436523 0.016113
vt 0.388184 0.121094
vt 0.272705 0.016602
vt 0.232666 0.121582
vt 0.000000 0.016113
vt 0.000000 0.121094
vt 0.607910 0.367188
vt 1.076172 0.349121
vt 1.076172 0.368164
vt 0.608887 0.350098
vt 0.392822 0.348633
vt 0.394043 0.366699
vt 0.234863 0.349121
vt 0.234619 0.368164
vt 0.000000 0.368164
vt 0.000000 0.349121
vt 1.076172 0.121094
vt 1.076172 0.142090
vt 0.608398 0.121582
vt 0.630371 0.141602
vt 0.508789 0.141602
vt 0.388184 0.122070
vt 0.373291 0.141602
vt 0.232178 0.142090
vt 0.232666 0.120605
vt 0.000000 0.121094
vt 0.000000 0.142090
vt 1.076172 0.235352
vt 0.630371 0.235352
vt 1.076172 0.142090
vt 0.630859 0.142090
vt 0.508789 0.142090
vt 0.456299 0.234375
vt 0.373291 0.142090
vt 0.276123 0.234863
vt 0.232178 0.142090
vt 0.000000 0.142090
vt 0.000000 0.235352
vt 0.608887 0.349121
vt 1.076172 0.254883
vt 1.076172 0.349121
vt 0.611328 0.254395
vt 0.437500 0.254883
vt 0.392822 0.349609
vt 0.269531 0.254883
vt 0.234253 0.349121
vt 0.000000 0.349121
vt 0.000000 0.254883
vt1 0.895508 1.540039
vt1 0.451416 1.763672
vt1 0.895508 1.762695
vt1 0.004303 1.535645
vt1 0.227539 1.844238
vt1 0.004303 1.985840
vt1 0.451416 1.284668
vt1 0.895508 1.060913
vt1 0.895508 1.283691
vt1 0.004303 1.056610
vt1 0.227539 1.365234
vt1 0.004303 1.506348
vt1 0.000000 0.235352
vt1 0.270508 0.254395
vt1 0.000000 0.254883
vt1 0.276611 0.236328
vt1 0.437500 0.254883
vt1 0.456543 0.235352
vt1 0.611328 0.254883
vt1 0.630371 0.235352
vt1 1.076172 0.235352
vt1 1.076172 0.254883
vt1 0.000000 0.000000
vt1 0.232422 0.000000
vt1 0.000000 0.016113
vt1 0.272461 0.015625
vt1 0.392090 0.000488
vt1 0.436523 0.016602
vt1 0.611816 0.016113
vt1 0.612305 0.000488
vt1 1.076172 0.000000
vt1 1.076172 0.016113
vt1 1.076172 0.463379
vt1 0.612305 0.462891
vt1 1.076172 0.368164
vt1 0.608398 0.368164
vt1 0.391846 0.463867
vt1 0.394775 0.367676
vt1 0.232422 0.462891
vt1 0.233887 0.368164
vt1 0.000000 0.463379
vt1 0.000000 0.368164
vt1 1.076172 0.121094
vt1 0.611816 0.016113
vt1 1.076172 0.016113
vt1 0.608398 0.121094
vt1 0.436523 0.016113
vt1 0.388184 0.121094
vt1 0.272705 0.016602
vt1 0.232666 0.121582
vt1 0.000000 0.016113
vt1 0.000000 0.121094
vt1 0.607910 0.367188
vt1 1.076172 0.349121
vt1 1.076172 0.368164
vt1 0.608887 0.350098
vt1 0.392822 0.348633
vt1 0.394043 0.366699
vt1 0.234863 0.349121
vt1 0.234619 0.368164
vt1 0.000000 0.368164
vt1 0.000000 0.349121
vt1 1.076172 0.121094
vt1 1.076172 0.142090
vt1 0.608398 0.121582
vt1 0.630371 0.141602
vt1 0.508789 0.141602
vt1 0.388184 0.122070
vt1 0.373291 0.141602
vt1 0.232178 0.142090
vt1 0.232666 0.120605
vt1 0.000000 0.121094
vt1 0.000000 0.142090
vt1 1.076172 0.235352
vt1 0.630371 0.235352
vt1 1.076172 0.142090
vt1 0.630859 0.142090
vt1 0.508789 0.142090
vt1 0.456299 0.234375
vt1 0.373291 0.142090
vt1 0.276123 0.234863
vt1 0.232178 0.142090
vt1 0.000000 0.142090
vt1 0.000000 0.235352
vt1 0.608887 0.349121
vt1 1.076172 0.254883
vt1 1.076172 0.349121
vt1 0.611328 0.254395
vt1 0.437500 0.254883
vt1 0.392822 0.349609
vt1 0.269531 0.254883
vt1 0.234253 0.349121
vt1 0.000000 0.349121
vt1 0.000000 0.254883
vn 0.000000 0.000000 1.000000
vn 0.000000 0.000000 1.000000
vn 0.000000 0.000000 1.000000
vn 0.000000 0.000000 1.000000
vn 0.000000 0.000000 1.000000
vn 0.000000 0.000000 1.000000
vn 0.000000 -0.000000 -1.000000
vn 0.000000 -0.000000 -1.000000
vn 0.000000 -0.000000 -1.000000
vn 0.000000 -0.000000 -1.000000
vn 0.000000 -0.000000 -1.000000
vn 0.000000 -0.000000 -1.000000
vn 0.425197 0.566929 -0.708661
vn 0.377953 0.598425 -0.708661
vn 0.425197 0.566929 -0.708661
vn 0.362205 0.606299 -0.708661
vn 0.181102 0.685039 -0.708661
vn 0.173228 0.685039 -0.708661
vn 0.023622 0.708661 -0.708661
vn 0.023622 0.708661 -0.708661
vn 0.000000 0.708661 -0.708661
vn 0.000000 0.708661 -0.708661
vn -0.425197 -0.566929 0.708661
vn -0.401575 -0.582677 0.708661
vn -0.425197 -0.566929 0.708661
vn -0.362205 -0.606299 0.708661
vn -0.220472 -0.677165 0.708661
vn -0.181102 -0.685039 0.708661
vn -0.023622 -0.708661 0.708661
vn -0.031496 -0.708661 0.708661
vn 0.000000 -0.708661 0.708661
vn 0.000000 -0.708661 0.708661
vn 0.000000 0.000000 1.000000
vn 0.000000 0.000000 1.000000
vn 0.000000 0.000000 1.000000
vn 0.000000 0.000000 1.000000
vn 0.000000 0.000000 1.000000
vn 0.000000 0.000000 1.000000
vn 0.000000 0.000000 1.000000
vn 0.000000 0.000000 1.000000
vn 0.000000 0.000000 1.000000
vn 0.000000 0.000000 1.000000
vn 0.000000 -1.000000 0.000000
vn -0.031496 -1.000000 0.000000
vn 0.000000 -1.000000 0.000000
vn -0.055118 -1.000000 0.000000
vn -0.251969 -0.968504 0.000000
vn -0.314961 -0.952756 0.000000
vn -0.511811 -0.858268 0.000000
vn -0.566929 -0.818897 0.000000
vn -0.598425 -0.803149 0.000000
vn -0.598425 -0.803149 0.000000
vn 0.023622 0.708661 0.708661
vn 0.000000 0.708661 0.708661
vn 0.000000 0.708661 0.708661
vn 0.031496 0.708661 0.708661
vn 0.220472 0.677165 0.708661
vn 0.220472 0.677165 0.700787
vn 0.401575 0.582677 0.708661
vn 0.401575 0.582677 0.708661
vn 0.425197 0.566929 0.708661
vn 0.425197 0.566929 0.708661
vn 0.000000 -0.708661 -0.708661
vn 0.000000 -0.708661 -0.708661
vn -0.023622 -0.708661 -0.708661
vn -0.023622 -0.708661 -0.708661
vn -0.125984 -0.692913 -0.708661
vn -0.220472 -0.669291 -0.708661
vn -0.236220 -0.669291 -0.708661
vn -0.401575 -0.582677 -0.708661
vn -0.393701 -0.582677 -0.708661
vn -0.425197 -0.566929 -0.708661
vn -0.425197 -0.566929 -0.708661
vn 0.000000 -0.000000 -1.000000
vn 0.000000 -0.000000 -1.000000
vn 0.000000 -0.000000 -1.000000
vn 0.000000 -0.000000 -1.000000
vn 0.000000 -0.000000 -1.000000
vn 0.000000 -0.000000 -1.000000
vn 0.000000 -0.000000 -1.000000
vn 0.000000 -0.000000 -1.000000
vn 0.000000 -0.000000 -1.000000
vn 0.000000 -0.000000 -1.000000
vn 0.000000 -0.000000 -1.000000
vn 0.039370 1.000000 -0.000000
vn 0.000000 1.000000 -0.000000
vn 0.000000 1.000000 -0.000000
vn 0.047244 1.000000 -0.000000
vn 0.251969 0.968504 -0.000000
vn 0.307087 0.952756 -0.000000
vn 0.535433 0.842520 -0.000000
vn 0.559055 0.826772 -0.000000
vn 0.598425 0.803149 -0.000000
vn 0.598425 0.803149 -0.000000
tan 0.000000 -1.000000 0.000000 1.000000
tan -0.015748 -1.000000 0.000000 1.000000
tan 0.000000 -1.000000 0.000000 1.000000
tan -0.023622 -1.000000 0.000000 1.000000
tan -0.078740 -1.000000 0.000000 1.000000
tan -0.078740 -1.000000 0.000000 1.000000
tan -0.015748 -1.000000 0.000000 1.000000
tan 0.000000 -1.000000 0.000000 1.000000
tan 0.000000 -1.000000 0.000000 1.000000
tan -0.023622 -1.000000 0.000000 1.000000
tan -0.078740 -1.000000 0.000000 1.000000
tan -0.078740 -1.000000 0.000000 1.000000
tan -0.373861 -0.602641 -0.706429 1.000000
tan -0.156240 -0.691921 -0.667617 1.000000
tan -0.373861 -0.602641 -0.706429 1.000000
tan -0.133920 -0.697501 -0.665199 1.000000
tan -0.044640 -0.708661 -0.696447 1.000000
tan -0.027900 -0.708661 -0.691859 1.000000
tan -0.005580 -0.708661 -0.708847 1.000000
tan 0.000000 -0.708661 -0.708661 1.000000
tan 0.000000 -0.708661 -0.708661 1.000000
tan 0.000000 -0.708661 -0.708661 1.000000
tan 0.373861 0.602641 0.706429 1.000000
tan 0.239940 0.669601 0.686527 1.000000
tan 0.373861 0.602641 0.706429 1.000000
tan 0.139500 0.691921 0.663277 1.000000
tan 0.033480 0.708661 0.687581 1.000000
tan 0.044640 0.708661 0.696447 1.000000
tan 0.005580 0.708661 0.708847 1.000000
tan 0.005580 0.708661 0.708909 1.000000
tan 0.000000 0.708661 0.708661 1.000000
tan 0.000000 0.708661 0.708661 1.000000
tan 0.000000 1.000000 -0.000000 1.000000
tan 0.031496 1.000000 -0.000000 1.000000
tan 0.000000 1.000000 -0.000000 1.000000
tan 0.055118 1.000000 -0.000000 1.000000
tan 0.307087 0.952756 -0.000000 1.000000
tan 0.314961 0.952756 -0.000000 1.000000
tan 0.543307 0.842520 -0.000000 1.000000
tan 0.574803 0.818897 -0.000000 1.000000
tan 0.598425 0.803149 -0.000000 1.000000
tan 0.598425 0.803149 -0.000000 1.000000
tan 0.000000 0.000000 1.000000 1.000000
tan 0.000000 0.000000 1.000000 1.000000
tan 0.000000 0.000000 1.000000 1.000000
tan 0.000000 0.000000 1.000000 1.000000
tan 0.000000 0.000000 0.968504 1.000000
tan 0.000000 0.000000 0.952756 1.000000
tan 0.000000 0.000000 0.866328 1.000000
tan 0.000000 0.000000 0.868002 1.000000
tan 0.000000 0.000000 0.970798 1.000000
tan 0.000000 0.000000 0.970798 1.000000
tan 0.005580 0.708661 -0.708847 1.000000
tan 0.000000 0.708661 -0.708661 1.000000
tan 0.000000 0.708661 -0.708661 1.000000
tan 0.005580 0.708661 -0.708909 1.000000
tan 0.039060 0.708661 -0.689317 1.000000
tan 0.033108 0.700787 -0.687581 1.000000
tan 0.239940 0.664021 -0.681939 1.000000
tan 0.239940 0.669601 -0.686527 1.000000
tan 0.373861 0.602641 -0.706429 1.000000
tan 0.373861 0.602641 -0.706429 1.000000
tan 0.000000 -0.708661 0.708661 1.000000
tan 0.000000 -0.708661 0.708661 1.000000
tan -0.005580 -0.708661 0.708847 1.000000
tan -0.005580 -0.708661 0.708847 1.000000
tan -0.039060 -0.708661 0.699857 1.000000
tan -0.039060 -0.708661 0.681443 1.000000
tan -0.050220 -0.708661 0.686031 1.000000
tan -0.239940 -0.664021 0.681939 1.000000
tan -0.234360 -0.669601 0.680761 1.000000
tan -0.373861 -0.602641 0.706429 1.000000
tan -0.373861 -0.602641 0.706429 1.000000
tan 0.000000 -1.000000 0.000000 1.000000
tan -0.023622 -1.000000 0.000000 1.000000
tan 0.000000 -1.000000 0.000000 1.000000
tan -0.031496 -1.000000 0.000000 1.000000
tan -0.181102 -0.984252 0.000000 1.000000
tan -0.244094 -0.968504 0.000000 1.000000
tan -0.322835 -0.944882 0.000000 1.000000
tan -0.527559 -0.850394 0.000000 1.000000
tan -0.543307 -0.842520 0.000000 1.000000
tan -0.598425 -0.803149 0.000000 1.000000
tan -0.598425 -0.803149 0.000000 1.000000
tan 0.000000 -0.000000 -1.000000 1.000000
tan 0.000000 -0.000000 -1.000000 1.000000
tan 0.000000 -0.000000 -1.000000 1.000000
tan 0.000000 -0.000000 -1.000000 1.000000
tan 0.000000 -0.000000 -0.968504 1.000000
tan 0.000000 -0.000000 -0.952756 1.000000
tan 0.000000 -0.000000 -0.850952 1.000000
tan 0.000000 -0.000000 -0.875194 1.000000
tan 0.000000 -0.000000 -0.970798 1.000000
tan 0.000000 -0.000000 -0.970798 1.000000
f 3/3/3 2/2/2 1/1/1
f 4/4/4 1/1/1 2/2/2
f 5/5/5 4/4/4 2/2/2
f 5/5/5 6/6/6 4/4/4
f 9/9/9 8/8/8 7/7/7
f 10/10/10 7/7/7 8/8/8
f 11/11/11 7/7/7 10/10/10
f 12/12/12 11/11/11 10/10/10
f 15/15/15 14/14/14 13/13/13
f 16/16/16 13/13/13 14/14/14
f 14/14/14 17/17/17 16/16/16
f 18/18/18 16/16/16 17/17/17
f 18/18/18 17/17/17 19/19/19
f 19/19/19 20/20/20 18/18/18
f 20/20/20 19/19/19 21/21/21
f 22/22/22 21/21/21 19/19/19
f 25/25/25 24/24/24 23/23/23
f 24/24/24 25/25/25 26/26/26
f 27/27/27 24/24/24 26/26/26
f 28/28/28 27/27/27 26/26/26
f 28/28/28 29/29/29 27/27/27
f 30/30/30 27/27/27 29/29/29
f 30/30/30 29/29/29 31/31/31
f 32/32/32 31/31/31 29/29/29
f 35/35/35 34/34/34 33/33/33
f 34/34/34 35/35/35 36/36/36
f 34/34/34 36/36/36 37/37/37
f 38/38/38 37/37/37 36/36/36
f 37/37/37 38/38/38 39/39/39
f 40/40/40 39/39/39 38/38/38
f 41/41/41 39/39/39 40/40/40
f 41/41/41 40/40/40 42/42/42
f 45/45/45 44/44/44 43/43/43
f 46/46/46 43/43/43 44/44/44
f 44/44/44 47/47/47 46/46/46
f 46/46/46 47/47/47 48/48/48
f 47/47/47 49/49/49 48/48/48
f 48/48/48 49/49/49 50/50/50
f 49/49/49 51/51/51 50/50/50
f 51/51/51 52/52/52 50/50/50
f 55/55/55 54/54/54 53/53/53
f 56/56/56 53/53/53 54/54/54
f 56/56/56 57/57/57 53/53/53
f 58/58/58 53/53/53 57/57/57
f 57/57/57 59/59/59 58/58/58
f 60/60/60 58/58/58 59/59/59
f 59/59/59 61/61/61 60/60/60
f 61/61/61 59/59/59 62/62/62
f 65/65/65 64/64/64 63/63/63
f 64/64/64 65/65/65 66/66/66
f 66/66/66 65/65/65 67/67/67
f 68/68/68 67/67/67 65/65/65
f 67/67/67 68/68/68 69/69/69
f 69/69/69 68/68/68 70/70/70
f 71/71/71 70/70/70 68/68/68
f 71/71/71 72/72/72 70/70/70
f 73/73/73 70/70/70 72/72/72
f 76/76/76 75/75/75 74/74/74
f 76/76/76 77/77/77 75/75/75
f 77/77/77 78/78/78 75/75/75
f 75/75/75 78/78/78 79/79/79
f 78/78/78 80/80/80 79/79/79
f 79/79/79 80/80/80 81/81/81
f 82/82/82 81/81/81 80/80/80
f 82/82/82 83/83/83 81/81/81
f 84/84/84 81/81/81 83/83/83
f 87/87/87 86/86/86 85/85/85
f 88/88/88 85/85/85 86/86/86
f 89/89/89 85/85/85 88/88/88
f 90/90/90 85/85/85 89/89/89
f 91/91/91 90/90/90 89/89/89
f 90/90/90 91/91/91 92/92/92
f 92/92/92 91/91/91 93/93/93
f 94/94/94 93/93/93 91/91/91
