mtllib SM_Wall_02_LOD3@000002909DC03900.mtl
g SM_Wall_02_LOD3@000002909DC03900
#Vertices 52
#Indices 108
#Section 0 Offset 0 NumIndices 24 MaterialIndex 0 MI_BrickTile_B_01
#Section 1 Offset 24 NumIndices 84 MaterialIndex 1 MI_ConcreteTrim_A_02
v 8.016634 0.000000 0.250000 0.000000 0.000000 1.000000 1.000000
v 4.030907 1.508800 0.250000 0.000000 0.000000 1.000000 1.000000
v 8.016634 1.500000 0.250000 0.000000 0.000000 1.000000 1.000000
v 0.016641 0.000000 0.250000 0.000000 0.000000 1.000000 1.000000
v 2.020375 2.231386 0.250000 0.000000 0.000000 1.000000 1.000000
v 0.016641 3.500000 0.250000 0.000000 0.000000 1.000000 1.000000
v 4.030907 1.508800 -0.250000 0.000000 0.000000 1.000000 1.000000
v 8.016634 -0.000000 -0.250000 0.000000 0.000000 1.000000 1.000000
v 8.016634 1.500000 -0.250000 0.000000 0.000000 1.000000 1.000000
v 0.016641 -0.000000 -0.250000 0.000000 0.000000 1.000000 1.000000
v 2.020375 2.231386 -0.250000 0.000000 0.000000 1.000000 1.000000
v 0.016641 3.500000 -0.250000 0.000000 0.000000 1.000000 1.000000
v 8.003563 2.007381 -0.355842 0.000000 0.000000 1.000000 1.000000
v 3.371621 2.107345 -0.344022 0.000000 0.000000 1.000000 1.000000
v 4.483286 1.943826 -0.375036 0.000000 0.000000 1.000000 1.000000
v 1.458695 2.837618 0.375054 0.000000 0.000000 1.000000 1.000000
v 0.001203 3.998187 0.359499 0.000000 0.000000 1.000000 1.000000
v 2.435833 2.370925 0.348601 0.000000 0.000000 1.000000 1.000000
v 8.003563 2.007381 -0.355842 0.000000 0.000000 1.000000 1.000000
v 4.483286 1.943826 -0.375036 0.000000 0.000000 1.000000 1.000000
v 8.000528 1.254404 -0.372092 0.000000 0.000000 1.000000 1.000000
v 4.183026 1.269549 -0.363473 0.000000 0.000000 1.000000 1.000000
v 3.371621 2.107345 -0.344022 0.000000 0.000000 1.000000 1.000000
v 2.044672 1.785425 -0.385382 0.000000 0.000000 1.000000 1.000000
v 1.803675 2.676328 -0.369435 0.000000 0.000000 1.000000 1.000000
v -0.000691 3.248888 -0.366732 0.000000 0.000000 1.000000 1.000000
v -0.000062 3.993541 -0.365505 0.000000 0.000000 1.000000 1.000000
v 8.000111 1.256829 0.368573 0.000000 0.000000 1.000000 1.000000
v 4.495713 1.248958 0.371246 0.000000 0.000000 1.000000 1.000000
v 8.000060 1.988912 0.374110 0.000000 0.000000 1.000000 1.000000
v 4.252249 2.005977 0.365348 0.000000 0.000000 1.000000 1.000000
v 2.342541 1.652127 0.373045 0.000000 0.000000 1.000000 1.000000
v 2.435833 2.370925 0.348601 0.000000 0.000000 1.000000 1.000000
v 1.458695 2.837618 0.375054 0.000000 0.000000 1.000000 1.000000
v -0.001536 3.242215 0.354078 0.000000 0.000000 1.000000 1.000000
v 0.001203 3.998187 0.359499 0.000000 0.000000 1.000000 1.000000
v 4.252249 2.005977 0.365348 0.000000 0.000000 1.000000 1.000000
v 8.003563 2.007381 -0.355842 0.000000 0.000000 1.000000 1.000000
v 8.000060 1.988912 0.374110 0.000000 0.000000 1.000000 1.000000
v 3.371621 2.107345 -0.344022 0.000000 0.000000 1.000000 1.000000
v 2.435833 2.370925 0.348601 0.000000 0.000000 1.000000 1.000000
v 1.803675 2.676328 -0.369435 0.000000 0.000000 1.000000 1.000000
v 0.001203 3.998187 0.359499 0.000000 0.000000 1.000000 1.000000
v -0.000062 3.993541 -0.365505 0.000000 0.000000 1.000000 1.000000
v 8.000528 1.254404 -0.372092 0.000000 0.000000 1.000000 1.000000
v 4.495713 1.248958 0.371246 0.000000 0.000000 1.000000 1.000000
v 8.000111 1.256829 0.368573 0.000000 0.000000 1.000000 1.000000
v 4.183026 1.269549 -0.363473 0.000000 0.000000 1.000000 1.000000
v 2.342541 1.652127 0.373045 0.000000 0.000000 1.000000 1.000000
v 2.044672 1.785425 -0.385382 0.000000 0.000000 1.000000 1.000000
v -0.001536 3.242215 0.354078 0.000000 0.000000 1.000000 1.000000
v -0.000691 3.248888 -0.366732 0.000000 0.000000 1.000000 1.000000
vt 0.895508 1.540039
vt 0.451416 1.763672
vt 0.895508 1.762695
vt 0.004303 1.535645
vt 0.227539 1.844238
vt 0.004303 1.985840
vt 0.451416 1.284668
vt 0.895508 1.060913
vt 0.895508 1.283691
vt 0.004303 1.056610
vt 0.227539 1.365234
vt 0.004303 1.506348
vt 1.076172 0.246582
vt 0.489502 0.254395
vt 0.630371 0.235352
vt 0.234619 0.368164
vt -0.003029 0.356445
vt 0.367920 0.353027
vt 1.077148 0.245117
vt 0.630371 0.235352
vt 1.076172 0.133301
vt 0.591309 0.133789
vt 0.490479 0.238281
vt 0.310059 0.131348
vt 0.285645 0.245605
vt -0.000607 0.130371
vt -0.000010 0.246094
vt 1.076172 0.471191
vt 0.631836 0.472168
vt 1.076172 0.360840
vt 0.601562 0.360352
vt 0.351318 0.473145
vt 0.370605 0.360840
vt 0.233887 0.368164
vt -0.000932 0.476562
vt 0.000193 0.356445
vt 0.601074 0.356934
vt 1.077148 0.248535
vt 1.076172 0.358398
vt 0.489502 0.250000
vt 0.367920 0.354004
vt 0.280762 0.246582
vt 0.000267 0.355957
vt 0.000482 0.247070
vt 1.076172 0.130859
vt 0.631836 0.006836
vt 1.076172 0.007324
vt 0.592285 0.129395
vt 0.355469 0.006836
vt 0.315674 0.132324
vt 0.000398 0.009766
vt 0.000012 0.129883
vt1 0.895508 1.540039
vt1 0.451416 1.763672
vt1 0.895508 1.762695
vt1 0.004303 1.535645
vt1 0.227539 1.844238
vt1 0.004303 1.985840
vt1 0.451416 1.284668
vt1 0.895508 1.060913
vt1 0.895508 1.283691
vt1 0.004303 1.056610
vt1 0.227539 1.365234
vt1 0.004303 1.506348
vt1 1.076172 0.246582
vt1 0.489502 0.254395
vt1 0.630371 0.235352
vt1 0.234619 0.368164
vt1 -0.003029 0.356445
vt1 0.367920 0.353027
vt1 1.077148 0.245117
vt1 0.630371 0.235352
vt1 1.076172 0.133301
vt1 0.591309 0.133789
vt1 0.490479 0.238281
vt1 0.310059 0.131348
vt1 0.285645 0.245605
vt1 -0.000607 0.130371
vt1 -0.000010 0.246094
vt1 1.076172 0.471191
vt1 0.631836 0.472168
vt1 1.076172 0.360840
vt1 0.601562 0.360352
vt1 0.351318 0.473145
vt1 0.370605 0.360840
vt1 0.233887 0.368164
vt1 -0.000932 0.476562
vt1 0.000193 0.356445
vt1 0.601074 0.356934
vt1 1.077148 0.248535
vt1 1.076172 0.358398
vt1 0.489502 0.250000
vt1 0.367920 0.354004
vt1 0.280762 0.246582
vt1 0.000267 0.355957
vt1 0.000482 0.247070
vt1 1.076172 0.130859
vt1 0.631836 0.006836
vt1 1.076172 0.007324
vt1 0.592285 0.129395
vt1 0.355469 0.006836
vt1 0.315674 0.132324
vt1 0.000398 0.009766
vt1 0.000012 0.129883
vn 0.000000 0.000000 1.000000
vn 0.000000 0.000000 1.000000
vn 0.000000 0.000000 1.000000
vn 0.000000 0.000000 1.000000
vn 0.000000 0.000000 1.000000
vn 0.000000 0.000000 1.000000
vn 0.000000 -0.000000 -1.000000
vn 0.000000 -0.000000 -1.000000
vn 0.000000 -0.000000 -1.000000
vn 0.000000 -0.000000 -1.000000
vn 0.000000 -0.000000 -1.000000
vn 0.000000 -0.000000 -1.000000
vn 0.007874 0.708661 -0.708661
vn 0.086614 0.700787 -0.708661
vn 0.023622 0.708661 -0.708661
vn 0.401575 0.582677 0.708661
vn 0.425197 0.566929 0.708661
vn 0.259843 0.661417 0.708661
vn 0.000000 -0.000000 -1.000000
vn 0.000000 -0.000000 -1.000000
vn 0.000000 -0.000000 -1.000000
vn 0.000000 -0.000000 -1.000000
vn 0.000000 -0.000000 -1.000000
vn 0.000000 -0.000000 -1.000000
vn 0.000000 -0.000000 -1.000000
vn 0.000000 -0.000000 -1.000000
vn 0.000000 -0.000000 -1.000000
vn 0.000000 0.000000 1.000000
vn 0.000000 0.000000 1.000000
vn 0.000000 0.000000 1.000000
vn 0.000000 0.000000 1.000000
vn 0.000000 0.000000 1.000000
vn 0.000000 0.000000 1.000000
vn 0.000000 0.000000 1.000000
vn 0.000000 0.000000 1.000000
vn 0.000000 0.000000 1.000000
vn 0.039370 1.000000 -0.000000
vn 0.000000 1.000000 -0.000000
vn 0.000000 1.000000 -0.000000
vn 0.133858 0.992126 -0.000000
vn 0.393701 0.921260 -0.000000
vn 0.527559 0.850394 -0.000000
vn 0.598425 0.803149 -0.000000
vn 0.598425 0.803149 -0.000000
vn 0.000000 -1.000000 0.000000
vn -0.015748 -1.000000 0.000000
vn 0.000000 -1.000000 0.000000
vn -0.070866 -1.000000 0.000000
vn -0.393701 -0.921260 0.000000
vn -0.488189 -0.874016 0.000000
vn -0.598425 -0.803149 0.000000
vn -0.598425 -0.803149 0.000000
tan 0.000000 -1.000000 0.000000 1.000000
tan -0.015748 -1.000000 0.000000 1.000000
tan 0.000000 -1.000000 0.000000 1.000000
tan -0.023622 -1.000000 0.000000 1.000000
tan -0.078740 -1.000000 0.000000 1.000000
tan -0.078740 -1.000000 0.000000 1.000000
tan -0.015748 -1.000000 0.000000 1.000000
tan 0.000000 -1.000000 0.000000 1.000000
tan 0.000000 -1.000000 0.000000 1.000000
tan -0.023622 -1.000000 0.000000 1.000000
tan -0.078740 -1.000000 0.000000 1.000000
tan -0.078740 -1.000000 0.000000 1.000000
tan 0.000000 -0.708661 -0.708661 1.000000
tan -0.005580 -0.708661 -0.701469 1.000000
tan 0.000000 -0.708661 -0.708661 1.000000
tan 0.239940 0.669601 -0.686527 1.000000
tan 0.329221 0.630541 -0.701965 1.000000
tan 0.022320 0.708661 -0.669601 1.000000
tan 0.000000 -1.000000 0.000000 1.000000
tan -0.023622 -1.000000 0.000000 1.000000
tan 0.000000 -1.000000 0.000000 1.000000
tan -0.062992 -1.000000 0.000000 1.000000
tan -0.196850 -0.984252 0.000000 1.000000
tan -0.440945 -0.897638 0.000000 1.000000
tan -0.527559 -0.850394 0.000000 1.000000
tan -0.598425 -0.803149 0.000000 1.000000
tan -0.598425 -0.803149 0.000000 1.000000
tan 0.000000 1.000000 -0.000000 1.000000
tan 0.023622 1.000000 -0.000000 1.000000
tan 0.000000 1.000000 -0.000000 1.000000
tan 0.062992 1.000000 -0.000000 1.000000
tan 0.385827 0.921260 -0.000000 1.000000
tan 0.346457 0.937008 -0.000000 1.000000
tan 0.574803 0.818897 -0.000000 1.000000
tan 0.598425 0.803149 -0.000000 1.000000
tan 0.598425 0.803149 -0.000000 1.000000
tan 0.000000 -0.000000 -1.000000 1.000000
tan 0.000000 -0.000000 -1.000000 1.000000
tan 0.000000 -0.000000 -1.000000 1.000000
tan 0.000000 -0.000000 -0.992126 1.000000
tan 0.000000 -0.000000 -0.921260 1.000000
tan 0.000000 -0.000000 -0.850394 1.000000
tan 0.000000 -0.000000 -0.920826 1.000000
tan 0.000000 -0.000000 -0.919214 1.000000
tan 0.000000 0.000000 1.000000 1.000000
tan 0.000000 0.000000 1.000000 1.000000
tan 0.000000 0.000000 1.000000 1.000000
tan 0.000000 0.000000 1.000000 1.000000
tan 0.000000 0.000000 0.921260 1.000000
tan 0.000000 0.000000 0.874016 1.000000
tan 0.000000 0.000000 0.920826 1.000000
tan 0.000000 0.000000 0.920826 1.000000
f 3/3/3 2/2/2 1/1/1
f 4/4/4 1/1/1 2/2/2
f 5/5/5 4/4/4 2/2/2
f 5/5/5 6/6/6 4/4/4
f 9/9/9 8/8/8 7/7/7
f 10/10/10 7/7/7 8/8/8
f 11/11/11 7/7/7 10/10/10
f 12/12/12 11/11/11 10/10/10
f 15/15/15 14/14/14 13/13/13
f 18/18/18 17/17/17 16/16/16
f 21/21/21 20/20/20 19/19/19
f 21/21/21 22/22/22 20/20/20
f 20/20/20 22/22/22 23/23/23
f 22/22/22 24/24/24 23/23/23
f 23/23/23 24/24/24 25/25/25
f 24/24/24 26/26/26 25/25/25
f 27/27/27 25/25/25 26/26/26
f 30/30/30 29/29/29 28/28/28
f 29/29/29 30/30/30 31/31/31
f 29/29/29 31/31/31 32/32/32
f 33/33/33 32/32/32 31/31/31
f 34/34/34 32/32/32 33/33/33
f 35/35/35 32/32/32 34/34/34
f 35/35/35 34/34/34 36/36/36
f 39/39/39 38/38/38 37/37/37
f 40/40/40 37/37/37 38/38/38
f 41/41/41 37/37/37 40/40/40
f 42/42/42 41/41/41 40/40/40
f 41/41/41 42/42/42 43/43/43
f 44/44/44 43/43/43 42/42/42
f 47/47/47 46/46/46 45/45/45
f 48/48/48 45/45/45 46/46/46
f 46/46/46 49/49/49 48/48/48
f 48/48/48 49/49/49 50/50/50
f 49/49/49 51/51/51 50/50/50
f 51/51/51 52/52/52 50/50/50
