mtllib SM_Window_01_LOD1@000002909DBD9600.mtl
g SM_Window_01_LOD1@000002909DBD9600
#Vertices 247
#Indices 408
#Section 0 Offset 0 NumIndices 372 MaterialIndex 0 MI_MetalTile_A_04
#Section 1 Offset 372 NumIndices 36 MaterialIndex 1 MI_Window_A
v 0.054830 3.058639 0.050322 0.000000 0.000000 1.000000 1.000000
v 0.646159 3.000377 0.067754 0.000000 0.000000 1.000000 1.000000
v 0.054632 2.940624 0.050877 0.000000 0.000000 1.000000 1.000000
v -0.054836 3.891356 0.050330 0.000000 0.000000 1.000000 1.000000
v -0.000382 4.003405 0.052896 0.000000 0.000000 1.000000 1.000000
v 0.056477 3.894134 0.049186 0.000000 0.000000 1.000000 1.000000
v -0.054797 2.941252 0.050254 0.000000 0.000000 1.000000 1.000000
v -0.648365 3.002131 0.069694 0.000000 0.000000 1.000000 1.000000
v -0.056234 3.055718 0.049190 0.000000 0.000000 1.000000 1.000000
v 0.054830 3.058639 0.050322 0.000000 0.000000 1.000000 1.000000
v -0.056234 3.055718 0.049190 0.000000 0.000000 1.000000 1.000000
v 0.054632 2.940624 0.050877 0.000000 0.000000 1.000000 1.000000
v 0.056477 3.894134 0.049186 0.000000 0.000000 1.000000 1.000000
v 0.054830 3.058639 0.050322 0.000000 0.000000 1.000000 1.000000
v -0.054836 3.891356 0.050330 0.000000 0.000000 1.000000 1.000000
v -0.073131 2.000493 0.058993 0.000000 0.000000 1.000000 1.000000
v 0.073547 1.999568 0.058836 0.000000 0.000000 1.000000 1.000000
v -0.054797 2.941252 0.050254 0.000000 0.000000 1.000000 1.000000
v 0.073547 1.999568 0.058836 0.000000 0.000000 1.000000 1.000000
v 0.040112 2.999939 -0.054013 0.000000 0.000000 1.000000 1.000000
v 0.038308 1.999910 -0.055165 0.000000 0.000000 1.000000 1.000000
v 0.054632 2.940624 0.050877 0.000000 0.000000 1.000000 1.000000
v 0.662436 1.999993 -0.060187 0.000000 0.000000 1.000000 1.000000
v 0.073547 1.999568 0.058836 0.000000 0.000000 1.000000 1.000000
v 0.038308 1.999910 -0.055165 0.000000 0.000000 1.000000 1.000000
v 0.646107 2.000504 0.059536 0.000000 0.000000 1.000000 1.000000
v 0.054632 2.940624 0.050877 0.000000 0.000000 1.000000 1.000000
v 0.660903 2.999867 -0.059793 0.000000 0.000000 1.000000 1.000000
v 0.040112 2.999939 -0.054013 0.000000 0.000000 1.000000 1.000000
v 0.646159 3.000377 0.067754 0.000000 0.000000 1.000000 1.000000
v -0.073131 2.000493 0.058993 0.000000 0.000000 1.000000 1.000000
v -0.660043 2.000021 -0.060122 0.000000 0.000000 1.000000 1.000000
v -0.037805 2.000125 -0.055213 0.000000 0.000000 1.000000 1.000000
v -0.644356 2.001161 0.059970 0.000000 0.000000 1.000000 1.000000
v -0.039831 2.999783 -0.055054 0.000000 0.000000 1.000000 1.000000
v -0.073131 2.000493 0.058993 0.000000 0.000000 1.000000 1.000000
v -0.037805 2.000125 -0.055213 0.000000 0.000000 1.000000 1.000000
v -0.054797 2.941252 0.050254 0.000000 0.000000 1.000000 1.000000
v -0.658592 2.999767 -0.057479 0.000000 0.000000 1.000000 1.000000
v -0.054797 2.941252 0.050254 0.000000 0.000000 1.000000 1.000000
v -0.039831 2.999783 -0.055054 0.000000 0.000000 1.000000 1.000000
v -0.648365 3.002131 0.069694 0.000000 0.000000 1.000000 1.000000
v -0.644356 2.001161 0.059970 0.000000 0.000000 1.000000 1.000000
v -0.658592 2.999767 -0.057479 0.000000 0.000000 1.000000 1.000000
v -0.660043 2.000021 -0.060122 0.000000 0.000000 1.000000 1.000000
v -0.648365 3.002131 0.069694 0.000000 0.000000 1.000000 1.000000
v -0.073131 2.000493 0.058993 0.000000 0.000000 1.000000 1.000000
v -0.033002 0.083002 -0.050000 0.000000 0.000000 1.000000 1.000000
v -0.037805 2.000125 -0.055213 0.000000 0.000000 1.000000 1.000000
v -0.056123 0.109981 0.051833 0.000000 0.000000 1.000000 1.000000
v -0.660043 2.000021 -0.060122 0.000000 0.000000 1.000000 1.000000
v -0.073131 2.000493 0.058993 0.000000 0.000000 1.000000 1.000000
v -0.037805 2.000125 -0.055213 0.000000 0.000000 1.000000 1.000000
v -0.644356 2.001161 0.059970 0.000000 0.000000 1.000000 1.000000
v -0.670982 0.083002 -0.050000 0.000000 0.000000 1.000000 1.000000
v -0.644356 2.001161 0.059970 0.000000 0.000000 1.000000 1.000000
v -0.660043 2.000021 -0.060122 0.000000 0.000000 1.000000 1.000000
v -0.646620 0.106709 0.050394 0.000000 0.000000 1.000000 1.000000
v 0.054830 3.058639 0.050322 0.000000 0.000000 1.000000 1.000000
v 0.056477 3.894134 0.049186 0.000000 0.000000 1.000000 1.000000
v 0.040112 2.999939 -0.054013 0.000000 0.000000 1.000000 1.000000
v -0.005277 3.903400 -0.066936 0.000000 0.000000 1.000000 1.000000
v 0.660903 2.999867 -0.059793 0.000000 0.000000 1.000000 1.000000
v 0.054830 3.058639 0.050322 0.000000 0.000000 1.000000 1.000000
v 0.040112 2.999939 -0.054013 0.000000 0.000000 1.000000 1.000000
v 0.646159 3.000377 0.067754 0.000000 0.000000 1.000000 1.000000
v 0.056477 3.894134 0.049186 0.000000 0.000000 1.000000 1.000000
v 0.673493 3.916997 -0.050000 0.000000 0.000000 1.000000 1.000000
v -0.005277 3.903400 -0.066936 0.000000 0.000000 1.000000 1.000000
v 0.649328 3.893146 0.051755 0.000000 0.000000 1.000000 1.000000
v -0.056234 3.055718 0.049190 0.000000 0.000000 1.000000 1.000000
v -0.658592 2.999767 -0.057479 0.000000 0.000000 1.000000 1.000000
v -0.039831 2.999783 -0.055054 0.000000 0.000000 1.000000 1.000000
v -0.648365 3.002131 0.069694 0.000000 0.000000 1.000000 1.000000
v -0.005277 3.903400 -0.066936 0.000000 0.000000 1.000000 1.000000
v -0.056234 3.055718 0.049190 0.000000 0.000000 1.000000 1.000000
v -0.039831 2.999783 -0.055054 0.000000 0.000000 1.000000 1.000000
v -0.054836 3.891356 0.050330 0.000000 0.000000 1.000000 1.000000
v -0.670982 3.916997 -0.050000 0.000000 0.000000 1.000000 1.000000
v -0.054836 3.891356 0.050330 0.000000 0.000000 1.000000 1.000000
v -0.005277 3.903400 -0.066936 0.000000 0.000000 1.000000 1.000000
v -0.646191 3.896091 0.049759 0.000000 0.000000 1.000000 1.000000
v -0.648365 3.002131 0.069694 0.000000 0.000000 1.000000 1.000000
v -0.646191 3.896091 0.049759 0.000000 0.000000 1.000000 1.000000
v -0.658592 2.999767 -0.057479 0.000000 0.000000 1.000000 1.000000
v -0.670982 3.916997 -0.050000 0.000000 0.000000 1.000000 1.000000
v 0.073547 1.999568 0.058836 0.000000 0.000000 1.000000 1.000000
v 0.662436 1.999993 -0.060187 0.000000 0.000000 1.000000 1.000000
v 0.038308 1.999910 -0.055165 0.000000 0.000000 1.000000 1.000000
v 0.646107 2.000504 0.059536 0.000000 0.000000 1.000000 1.000000
v 0.041340 0.023336 -0.058841 0.000000 0.000000 1.000000 1.000000
v 0.073547 1.999568 0.058836 0.000000 0.000000 1.000000 1.000000
v 0.038308 1.999910 -0.055165 0.000000 0.000000 1.000000 1.000000
v 0.055612 0.108074 0.049401 0.000000 0.000000 1.000000 1.000000
v 0.673493 0.083002 -0.050000 0.000000 0.000000 1.000000 1.000000
v 0.055612 0.108074 0.049401 0.000000 0.000000 1.000000 1.000000
v 0.041340 0.023336 -0.058841 0.000000 0.000000 1.000000 1.000000
v 0.648859 0.106012 0.052170 0.000000 0.000000 1.000000 1.000000
v -0.056123 0.109981 0.051833 0.000000 0.000000 1.000000 1.000000
v -0.670982 0.083002 -0.050000 0.000000 0.000000 1.000000 1.000000
v -0.033002 0.083002 -0.050000 0.000000 0.000000 1.000000 1.000000
v -0.646620 0.106709 0.050394 0.000000 0.000000 1.000000 1.000000
v 0.673493 0.083002 -0.050000 0.000000 0.000000 1.000000 1.000000
v 0.646107 2.000504 0.059536 0.000000 0.000000 1.000000 1.000000
v 0.648859 0.106012 0.052170 0.000000 0.000000 1.000000 1.000000
v 0.662436 1.999993 -0.060187 0.000000 0.000000 1.000000 1.000000
v 0.660903 2.999867 -0.059793 0.000000 0.000000 1.000000 1.000000
v 0.646107 2.000504 0.059536 0.000000 0.000000 1.000000 1.000000
v 0.662436 1.999993 -0.060187 0.000000 0.000000 1.000000 1.000000
v 0.646159 3.000377 0.067754 0.000000 0.000000 1.000000 1.000000
v 0.673493 3.916997 -0.050000 0.000000 0.000000 1.000000 1.000000
v 0.646159 3.000377 0.067754 0.000000 0.000000 1.000000 1.000000
v 0.660903 2.999867 -0.059793 0.000000 0.000000 1.000000 1.000000
v 0.649328 3.893146 0.051755 0.000000 0.000000 1.000000 1.000000
v -0.000005 3.999943 -0.049972 0.000000 0.000000 1.000000 1.000000
v 0.754098 3.990069 -0.052888 0.000000 0.000000 1.000000 1.000000
v 0.743777 3.985962 0.067622 0.000000 0.000000 1.000000 1.000000
v -0.000382 4.003405 0.052896 0.000000 0.000000 1.000000 1.000000
v 0.753350 0.006052 -0.052741 0.000000 0.000000 1.000000 1.000000
v 0.041340 0.023336 -0.058841 0.000000 0.000000 1.000000 1.000000
v -0.000204 -0.003535 0.052926 0.000000 0.000000 1.000000 1.000000
v 0.754098 0.018655 0.061950 0.000000 0.000000 1.000000 1.000000
v -0.756595 2.999986 0.053757 0.000000 0.000000 1.000000 1.000000
v -0.753973 1.999997 -0.049994 0.000000 0.000000 1.000000 1.000000
v -0.753986 2.999997 -0.049997 0.000000 0.000000 1.000000 1.000000
v -0.755484 1.999951 0.054486 0.000000 0.000000 1.000000 1.000000
v 0.755787 3.000002 -0.049982 0.000000 0.000000 1.000000 1.000000
v 0.755821 2.000003 -0.049997 0.000000 0.000000 1.000000 1.000000
v 0.757308 2.000187 0.055096 0.000000 0.000000 1.000000 1.000000
v 0.758453 3.000056 0.053899 0.000000 0.000000 1.000000 1.000000
v -0.746719 3.983914 0.066415 0.000000 0.000000 1.000000 1.000000
v -0.753986 2.999997 -0.049997 0.000000 0.000000 1.000000 1.000000
v -0.747466 3.996122 -0.053427 0.000000 0.000000 1.000000 1.000000
v -0.756595 2.999986 0.053757 0.000000 0.000000 1.000000 1.000000
v 0.754098 3.990069 -0.052888 0.000000 0.000000 1.000000 1.000000
v 0.755787 3.000002 -0.049982 0.000000 0.000000 1.000000 1.000000
v 0.758453 3.000056 0.053899 0.000000 0.000000 1.000000 1.000000
v 0.743777 3.985962 0.067622 0.000000 0.000000 1.000000 1.000000
v 0.755821 2.000003 -0.049997 0.000000 0.000000 1.000000 1.000000
v 0.753350 0.006052 -0.052741 0.000000 0.000000 1.000000 1.000000
v 0.754098 0.018655 0.061950 0.000000 0.000000 1.000000 1.000000
v 0.757308 2.000187 0.055096 0.000000 0.000000 1.000000 1.000000
v -0.753781 0.012122 -0.051582 0.000000 0.000000 1.000000 1.000000
v -0.753973 1.999997 -0.049994 0.000000 0.000000 1.000000 1.000000
v -0.755484 1.999951 0.054486 0.000000 0.000000 1.000000 1.000000
v -0.747038 0.018100 0.065117 0.000000 0.000000 1.000000 1.000000
v 0.041340 0.023336 -0.058841 0.000000 0.000000 1.000000 1.000000
v -0.753781 0.012122 -0.051582 0.000000 0.000000 1.000000 1.000000
v -0.747038 0.018100 0.065117 0.000000 0.000000 1.000000 1.000000
v -0.000204 -0.003535 0.052926 0.000000 0.000000 1.000000 1.000000
v -0.747466 3.996122 -0.053427 0.000000 0.000000 1.000000 1.000000
v -0.000005 3.999943 -0.049972 0.000000 0.000000 1.000000 1.000000
v -0.000382 4.003405 0.052896 0.000000 0.000000 1.000000 1.000000
v -0.746719 3.983914 0.066415 0.000000 0.000000 1.000000 1.000000
v -0.054836 3.891356 0.050330 0.000000 0.000000 1.000000 1.000000
v -0.646191 3.896091 0.049759 0.000000 0.000000 1.000000 1.000000
v -0.746719 3.983914 0.066415 0.000000 0.000000 1.000000 1.000000
v -0.000382 4.003405 0.052896 0.000000 0.000000 1.000000 1.000000
v 0.649328 3.893146 0.051755 0.000000 0.000000 1.000000 1.000000
v 0.056477 3.894134 0.049186 0.000000 0.000000 1.000000 1.000000
v -0.000382 4.003405 0.052896 0.000000 0.000000 1.000000 1.000000
v 0.743777 3.985962 0.067622 0.000000 0.000000 1.000000 1.000000
v -0.646191 3.896091 0.049759 0.000000 0.000000 1.000000 1.000000
v -0.648365 3.002131 0.069694 0.000000 0.000000 1.000000 1.000000
v -0.756595 2.999986 0.053757 0.000000 0.000000 1.000000 1.000000
v -0.746719 3.983914 0.066415 0.000000 0.000000 1.000000 1.000000
v 0.646159 3.000377 0.067754 0.000000 0.000000 1.000000 1.000000
v 0.743777 3.985962 0.067622 0.000000 0.000000 1.000000 1.000000
v 0.758453 3.000056 0.053899 0.000000 0.000000 1.000000 1.000000
v 0.649328 3.893146 0.051755 0.000000 0.000000 1.000000 1.000000
v -0.648365 3.002131 0.069694 0.000000 0.000000 1.000000 1.000000
v -0.644356 2.001161 0.059970 0.000000 0.000000 1.000000 1.000000
v -0.755484 1.999951 0.054486 0.000000 0.000000 1.000000 1.000000
v -0.756595 2.999986 0.053757 0.000000 0.000000 1.000000 1.000000
v 0.646107 2.000504 0.059536 0.000000 0.000000 1.000000 1.000000
v 0.758453 3.000056 0.053899 0.000000 0.000000 1.000000 1.000000
v 0.757308 2.000187 0.055096 0.000000 0.000000 1.000000 1.000000
v 0.646159 3.000377 0.067754 0.000000 0.000000 1.000000 1.000000
v -0.644356 2.001161 0.059970 0.000000 0.000000 1.000000 1.000000
v -0.646620 0.106709 0.050394 0.000000 0.000000 1.000000 1.000000
v -0.747038 0.018100 0.065117 0.000000 0.000000 1.000000 1.000000
v -0.755484 1.999951 0.054486 0.000000 0.000000 1.000000 1.000000
v 0.073547 1.999568 0.058836 0.000000 0.000000 1.000000 1.000000
v 0.055612 0.108074 0.049401 0.000000 0.000000 1.000000 1.000000
v -0.056123 0.109981 0.051833 0.000000 0.000000 1.000000 1.000000
v -0.073131 2.000493 0.058993 0.000000 0.000000 1.000000 1.000000
v 0.648859 0.106012 0.052170 0.000000 0.000000 1.000000 1.000000
v 0.757308 2.000187 0.055096 0.000000 0.000000 1.000000 1.000000
v 0.754098 0.018655 0.061950 0.000000 0.000000 1.000000 1.000000
v 0.646107 2.000504 0.059536 0.000000 0.000000 1.000000 1.000000
v -0.000204 -0.003535 0.052926 0.000000 0.000000 1.000000 1.000000
v -0.747038 0.018100 0.065117 0.000000 0.000000 1.000000 1.000000
v -0.646620 0.106709 0.050394 0.000000 0.000000 1.000000 1.000000
v -0.056123 0.109981 0.051833 0.000000 0.000000 1.000000 1.000000
v -0.056123 0.109981 0.051833 0.000000 0.000000 1.000000 1.000000
v 0.055612 0.108074 0.049401 0.000000 0.000000 1.000000 1.000000
v 0.754098 0.018655 0.061950 0.000000 0.000000 1.000000 1.000000
v -0.000204 -0.003535 0.052926 0.000000 0.000000 1.000000 1.000000
v 0.648859 0.106012 0.052170 0.000000 0.000000 1.000000 1.000000
v -0.005277 3.903400 -0.066936 0.000000 0.000000 1.000000 1.000000
v -0.039831 2.999783 -0.055054 0.000000 0.000000 1.000000 1.000000
v 0.040112 2.999939 -0.054013 0.000000 0.000000 1.000000 1.000000
v 0.038308 1.999910 -0.055165 0.000000 0.000000 1.000000 1.000000
v -0.037805 2.000125 -0.055213 0.000000 0.000000 1.000000 1.000000
v 0.041340 0.023336 -0.058841 0.000000 0.000000 1.000000 1.000000
v -0.033002 0.083002 -0.050000 0.000000 0.000000 1.000000 1.000000
v -0.670982 0.083002 -0.050000 0.000000 0.000000 1.000000 1.000000
v -0.753781 0.012122 -0.051582 0.000000 0.000000 1.000000 1.000000
v -0.753973 1.999997 -0.049994 0.000000 0.000000 1.000000 1.000000
v -0.660043 2.000021 -0.060122 0.000000 0.000000 1.000000 1.000000
v -0.658592 2.999767 -0.057479 0.000000 0.000000 1.000000 1.000000
v -0.753986 2.999997 -0.049997 0.000000 0.000000 1.000000 1.000000
v -0.670982 3.916997 -0.050000 0.000000 0.000000 1.000000 1.000000
v -0.747466 3.996122 -0.053427 0.000000 0.000000 1.000000 1.000000
v -0.000005 3.999943 -0.049972 0.000000 0.000000 1.000000 1.000000
v 0.673493 3.916997 -0.050000 0.000000 0.000000 1.000000 1.000000
v 0.754098 3.990069 -0.052888 0.000000 0.000000 1.000000 1.000000
v 0.755787 3.000002 -0.049982 0.000000 0.000000 1.000000 1.000000
v 0.660903 2.999867 -0.059793 0.000000 0.000000 1.000000 1.000000
v 0.755821 2.000003 -0.049997 0.000000 0.000000 1.000000 1.000000
v 0.662436 1.999993 -0.060187 0.000000 0.000000 1.000000 1.000000
v 0.673493 0.083002 -0.050000 0.000000 0.000000 1.000000 1.000000
v 0.753350 0.006052 -0.052741 0.000000 0.000000 1.000000 1.000000
v 0.049999 2.950000 0.050000 0.000000 0.000000 1.000000 1.000000
v 0.049999 2.050000 0.050000 0.000000 0.000000 1.000000 1.000000
v 0.656495 2.950000 0.050000 0.000000 0.000000 1.000000 1.000000
v 0.656495 2.050000 0.050000 0.000000 0.000000 1.000000 1.000000
v 0.656495 3.899999 0.050000 0.000000 0.000000 1.000000 1.000000
v 0.049999 3.899999 0.050000 0.000000 0.000000 1.000000 1.000000
v 0.656495 3.049999 0.050000 0.000000 0.000000 1.000000 1.000000
v 0.049999 3.049999 0.050000 0.000000 0.000000 1.000000 1.000000
v 0.049999 1.950000 0.050000 0.000000 0.000000 1.000000 1.000000
v 0.049999 0.100000 0.050000 0.000000 0.000000 1.000000 1.000000
v 0.656495 1.950000 0.050000 0.000000 0.000000 1.000000 1.000000
v 0.656495 0.100000 0.050000 0.000000 0.000000 1.000000 1.000000
v -0.050000 0.100000 0.050000 0.000000 0.000000 1.000000 1.000000
v -0.050000 1.950000 0.050000 0.000000 0.000000 1.000000 1.000000
v -0.653984 1.950000 0.050000 0.000000 0.000000 1.000000 1.000000
v -0.653984 0.100000 0.050000 0.000000 0.000000 1.000000 1.000000
v -0.050000 2.950000 0.050000 0.000000 0.000000 1.000000 1.000000
v -0.653984 2.950000 0.050000 0.000000 0.000000 1.000000 1.000000
v -0.050000 2.050000 0.050000 0.000000 0.000000 1.000000 1.000000
v -0.653984 2.050000 0.050000 0.000000 0.000000 1.000000 1.000000
v -0.050000 3.899999 0.050000 0.000000 0.000000 1.000000 1.000000
v -0.653984 3.899999 0.050000 0.000000 0.000000 1.000000 1.000000
v -0.050000 3.049999 0.050000 0.000000 0.000000 1.000000 1.000000
v -0.653984 3.049999 0.050000 0.000000 0.000000 1.000000 1.000000
vt 0.833008 0.338379
vt 0.910645 0.345703
vt 0.833008 0.353516
vt 0.818848 0.229980
vt 0.825684 0.215820
vt 0.833008 0.229492
vt 0.818848 0.353516
vt 0.740723 0.345703
vt 0.818359 0.338867
vt 0.833008 0.338379
vt 0.818359 0.338867
vt 0.833008 0.353516
vt 0.833008 0.229492
vt 0.832520 0.338379
vt 0.818848 0.229980
vt 0.816895 0.475586
vt 0.835449 0.475586
vt 0.818848 0.353516
vt 0.490967 0.463867
vt 0.476074 0.594482
vt 0.475830 0.458496
vt 0.489746 0.581543
vt 0.597656 0.461426
vt 0.491943 0.470703
vt 0.476318 0.461914
vt 0.586426 0.469238
vt 0.489502 0.582520
vt 0.597168 0.591797
vt 0.476562 0.591064
vt 0.585938 0.582764
vt 0.451904 0.470215
vt 0.346680 0.461426
vt 0.468018 0.461914
vt 0.357666 0.470215
vt 0.468262 0.594482
vt 0.452881 0.463379
vt 0.468506 0.458496
vt 0.454590 0.581055
vt 0.346924 0.591553
vt 0.454834 0.582031
vt 0.467773 0.591064
vt 0.357666 0.583252
vt 0.358887 0.464355
vt 0.343750 0.594482
vt 0.343262 0.458008
vt 0.360352 0.588379
vt 0.451416 0.455566
vt 0.468018 0.211914
vt 0.468506 0.458984
vt 0.452881 0.218750
vt 0.346680 0.456055
vt 0.451172 0.448730
vt 0.468262 0.455566
vt 0.358887 0.449707
vt 0.344238 0.211914
vt 0.360352 0.456055
vt 0.343262 0.458984
vt 0.358887 0.219238
vt 0.489502 0.607666
vt 0.489502 0.711914
vt 0.476074 0.593994
vt 0.472900 0.719238
vt 0.597168 0.596924
vt 0.489258 0.606934
vt 0.476562 0.597412
vt 0.585938 0.605469
vt 0.489746 0.712158
vt 0.600098 0.719727
vt 0.467773 0.720703
vt 0.585449 0.711426
vt 0.454346 0.606201
vt 0.346924 0.596924
vt 0.467773 0.597656
vt 0.357422 0.606201
vt 0.470703 0.718018
vt 0.454590 0.606201
vt 0.468262 0.593750
vt 0.454834 0.710449
vt 0.344238 0.719727
vt 0.455078 0.711426
vt 0.474365 0.720947
vt 0.358643 0.712158
vt 0.359863 0.601807
vt 0.357666 0.712158
vt 0.343750 0.593994
vt 0.344238 0.719727
vt 0.493164 0.449219
vt 0.597168 0.456055
vt 0.476074 0.455566
vt 0.585449 0.449219
vt 0.475342 0.204590
vt 0.492432 0.455566
vt 0.475830 0.458984
vt 0.490723 0.219238
vt 0.600098 0.211914
vt 0.490723 0.218262
vt 0.475586 0.210938
vt 0.583984 0.217773
vt 0.453369 0.217773
vt 0.344238 0.211914
vt 0.468018 0.211914
vt 0.359863 0.218262
vt 0.600098 0.211914
vt 0.583984 0.455566
vt 0.584961 0.218262
vt 0.601074 0.458984
vt 0.600586 0.594482
vt 0.584961 0.463379
vt 0.601074 0.458008
vt 0.584473 0.587402
vt 0.600098 0.719727
vt 0.583984 0.598877
vt 0.600586 0.593506
vt 0.586426 0.710693
vt 0.825684 0.202148
vt 0.926270 0.204102
vt 0.922852 0.218750
vt 0.825684 0.215332
vt 0.928711 0.744873
vt 0.832520 0.748047
vt 0.826660 0.733398
vt 0.926270 0.730713
vt 0.726562 0.346191
vt 0.713379 0.475586
vt 0.713379 0.346191
vt 0.726562 0.475586
vt 0.938477 0.345703
vt 0.938965 0.475098
vt 0.925781 0.475098
vt 0.925293 0.345703
vt 0.729492 0.218750
vt 0.713379 0.345703
vt 0.714355 0.215332
vt 0.726562 0.346191
vt 0.937012 0.215820
vt 0.938965 0.345703
vt 0.925293 0.345703
vt 0.921875 0.218750
vt 0.939453 0.475098
vt 0.939453 0.732178
vt 0.924805 0.729736
vt 0.925781 0.475098
vt 0.714355 0.731934
vt 0.713379 0.475586
vt 0.726562 0.475586
vt 0.729004 0.730225
vt 0.832031 0.748047
vt 0.724609 0.745117
vt 0.728027 0.731445
vt 0.826660 0.733398
vt 0.725586 0.203613
vt 0.825684 0.202148
vt 0.825684 0.215332
vt 0.728516 0.218750
vt 0.818848 0.229980
vt 0.741699 0.230469
vt 0.728027 0.219727
vt 0.825684 0.215332
vt 0.910156 0.230469
vt 0.833008 0.229492
vt 0.825684 0.215332
vt 0.922363 0.219238
vt 0.741699 0.230469
vt 0.740234 0.345703
vt 0.726562 0.346191
vt 0.729004 0.218750
vt 0.911133 0.345703
vt 0.921875 0.218262
vt 0.925293 0.345703
vt 0.910156 0.230469
vt 0.740723 0.345703
vt 0.740723 0.475586
vt 0.726562 0.475586
vt 0.726562 0.346191
vt 0.911621 0.475098
vt 0.925293 0.345703
vt 0.925781 0.475098
vt 0.911133 0.345703
vt 0.740723 0.475098
vt 0.741699 0.718750
vt 0.729004 0.730225
vt 0.726562 0.475586
vt 0.835449 0.475586
vt 0.833984 0.718994
vt 0.819824 0.718750
vt 0.816895 0.475098
vt 0.912109 0.718262
vt 0.925781 0.475098
vt 0.925293 0.729736
vt 0.911621 0.475098
vt 0.826660 0.733398
vt 0.728027 0.729736
vt 0.741699 0.718750
vt 0.819336 0.718750
vt 0.819824 0.718750
vt 0.833984 0.718994
vt 0.926270 0.729004
vt 0.826660 0.733398
vt 0.912109 0.718262
vt 0.471436 0.718018
vt 0.466797 0.594238
vt 0.477295 0.594238
vt 0.477051 0.458496
vt 0.467285 0.458984
vt 0.478516 0.204102
vt 0.468018 0.211914
vt 0.344238 0.211914
vt 0.332031 0.202637
vt 0.332764 0.458984
vt 0.345947 0.458984
vt 0.346191 0.594238
vt 0.332764 0.594238
vt 0.344238 0.719727
vt 0.332764 0.730713
vt 0.472168 0.731201
vt 0.600098 0.719727
vt 0.612305 0.729980
vt 0.611328 0.594238
vt 0.598145 0.594482
vt 0.611328 0.458984
vt 0.598145 0.458984
vt 0.600098 0.211914
vt 0.611816 0.201660
vt 0.142090 0.437012
vt 0.142090 0.341797
vt 0.231934 0.437012
vt 0.231934 0.341797
vt 0.231934 0.526123
vt 0.142090 0.526123
vt 0.231934 0.436523
vt 0.142090 0.436523
vt 0.142090 0.342773
vt 0.142090 0.147461
vt 0.231934 0.342773
vt 0.231934 0.147461
vt 0.141602 0.147461
vt 0.141602 0.342285
vt 0.052124 0.342285
vt 0.052124 0.147461
vt 0.141602 0.437012
vt 0.052124 0.437012
vt 0.141602 0.342285
vt 0.052124 0.342285
vt 0.141602 0.525879
vt 0.052124 0.525879
vt 0.141602 0.436523
vt 0.052124 0.436523
vt1 0.003092 1.000000
vt1 0.163086 1.000000
vt1 1.074219 1.000000
vt1 0.000000 1.000000
vt1 0.000000 1.000000
vt1 0.000000 1.000000
vt1 0.000058 1.000000
vt1 0.166504 1.000000
vt1 1.045898 1.000000
vt1 0.000000 1.000000
vt1 0.000000 1.000000
vt1 0.001974 1.000000
vt1 -0.002377 1.000000
vt1 1.030273 1.000000
vt1 1.030273 1.000000
vt1 -0.004906 1.000000
vt1 1.282227 1.000000
vt1 1.037109 1.000000
vt1 0.858398 0.493652
vt1 0.854004 0.628906
vt1 0.854004 0.492676
vt1 0.857910 0.619629
vt1 0.975586 0.496582
vt1 0.862793 0.500488
vt1 0.854980 0.496582
vt1 0.972168 0.500244
vt1 0.858398 0.620605
vt1 0.975098 0.625000
vt1 0.855469 0.624756
vt1 0.972168 0.620850
vt1 0.836914 0.500488
vt1 0.724121 0.496582
vt1 0.844727 0.496582
vt1 0.727539 0.500244
vt1 0.845703 0.628906
vt1 0.841309 0.493652
vt1 0.845703 0.492676
vt1 0.841797 0.619629
vt1 0.724609 0.625000
vt1 0.840820 0.620605
vt1 0.844238 0.624756
vt1 0.726562 0.620850
vt1 0.726074 0.494141
vt1 0.721680 0.628906
vt1 0.721680 0.492676
vt1 0.726562 0.627441
vt1 0.841309 0.492188
vt1 0.845703 0.246582
vt1 0.845703 0.493164
vt1 0.841797 0.250488
vt1 0.724121 0.489746
vt1 0.836914 0.485840
vt1 0.844727 0.489258
vt1 0.727539 0.485840
vt1 0.721680 0.246582
vt1 0.726074 0.492188
vt1 0.721680 0.493164
vt1 0.726074 0.250488
vt1 0.857910 0.637451
vt1 0.857910 0.749756
vt1 0.854004 0.628174
vt1 0.853027 0.752441
vt1 0.975098 0.631836
vt1 0.858398 0.636475
vt1 0.855469 0.632324
vt1 0.972168 0.635986
vt1 0.858887 0.750244
vt1 0.977539 0.753906
vt1 0.846680 0.754395
vt1 0.972656 0.750122
vt1 0.840820 0.636475
vt1 0.724609 0.632080
vt1 0.844238 0.632324
vt1 0.726562 0.636230
vt1 0.846191 0.752075
vt1 0.841797 0.636963
vt1 0.845703 0.628174
vt1 0.841797 0.749268
vt1 0.721680 0.753906
vt1 0.840820 0.750122
vt1 0.851074 0.754395
vt1 0.727051 0.750244
vt1 0.726562 0.630127
vt1 0.725586 0.750000
vt1 0.721680 0.628174
vt1 0.721680 0.753906
vt1 0.862793 0.485840
vt1 0.975586 0.489746
vt1 0.854980 0.489258
vt1 0.972168 0.485840
vt1 0.853516 0.238770
vt1 0.858398 0.492188
vt1 0.854004 0.493164
vt1 0.857910 0.250488
vt1 0.977539 0.246582
vt1 0.858887 0.249512
vt1 0.855469 0.245605
vt1 0.972656 0.249512
vt1 0.840820 0.249512
vt1 0.721680 0.246582
vt1 0.845703 0.246582
vt1 0.727051 0.249512
vt1 0.977539 0.246582
vt1 0.973633 0.492188
vt1 0.973633 0.250000
vt1 0.978027 0.493164
vt1 0.978027 0.628906
vt1 0.973633 0.493652
vt1 0.978027 0.492676
vt1 0.973145 0.627197
vt1 0.977539 0.753906
vt1 0.973145 0.629395
vt1 0.978027 0.628174
vt1 0.973633 0.749512
vt1 -0.082397 0.000488
vt1 1.160156 -0.029297
vt1 1.143555 1.093994
vt1 -0.083008 0.968109
vt1 -0.159668 -0.025391
vt1 1.013672 -0.089844
vt1 1.082031 0.968079
vt1 -0.161011 1.044708
vt1 1.054688 0.976288
vt1 -0.055542 0.000488
vt1 1.054688 0.000488
vt1 -0.055603 0.983124
vt1 -0.055542 0.000488
vt1 1.054688 0.000488
vt1 1.054688 0.989067
vt1 -0.055603 0.977615
vt1 1.098633 1.089783
vt1 -0.058807 0.000488
vt1 1.112305 -0.033203
vt1 -0.058807 0.976242
vt1 -0.105957 -0.026367
vt1 1.058594 0.000488
vt1 1.058594 0.977386
vt1 -0.101135 1.105225
vt1 -0.027023 0.000488
vt1 1.050781 -0.025391
vt1 1.043945 1.052521
vt1 -0.027115 0.988869
vt1 -0.047485 -0.014648
vt1 1.026367 0.000488
vt1 1.026367 0.983078
vt1 -0.044250 1.083069
vt1 -0.150879 -0.101562
vt1 1.165039 -0.018555
vt1 1.153320 1.042938
vt1 -0.082397 0.968384
vt1 -0.154663 -0.032227
vt1 1.082031 0.000488
vt1 1.082031 0.967804
vt1 -0.153564 1.090820
vt1 0.003080 1.000000
vt1 1.025391 1.000000
vt1 -0.014252 1.000000
vt1 1.111328 1.000000
vt1 0.003387 1.000000
vt1 1.047852 1.000000
vt1 -0.001526 1.000000
vt1 1.016602 1.000000
vt1 0.000000 1.000000
vt1 1.113281 1.000000
vt1 -0.000693 1.000000
vt1 1.037109 1.000000
vt1 -0.011436 1.000000
vt1 -0.002035 1.000000
vt1 1.081055 1.000000
vt1 1.062500 1.000000
vt1 0.006687 1.000000
vt1 1.149414 1.000000
vt1 0.000138 1.000000
vt1 1.078125 1.000000
vt1 0.001568 1.000000
vt1 0.000843 1.000000
vt1 1.066406 1.000000
vt1 1.159180 1.000000
vt1 -0.005577 1.000000
vt1 1.069336 1.000000
vt1 0.001075 1.000000
vt1 1.039062 1.000000
vt1 0.002808 1.000000
vt1 1.051758 1.000000
vt1 0.001690 1.000000
vt1 1.223633 1.000000
vt1 0.003899 1.000000
vt1 0.000235 1.000000
vt1 1.029297 1.000000
vt1 1.126953 1.000000
vt1 -0.000848 1.000000
vt1 0.988281 1.000000
vt1 0.000000 1.000000
vt1 1.087891 1.000000
vt1 0.000000 1.000000
vt1 0.000000 1.000000
vt1 -0.010742 1.000000
vt1 1.112305 1.000000
vt1 1.045898 1.000000
vt1 0.849121 0.752075
vt1 0.844727 0.628662
vt1 0.854980 0.628418
vt1 0.854492 0.493164
vt1 0.844727 0.493164
vt1 0.856445 0.238770
vt1 0.845703 0.246582
vt1 0.721680 0.246582
vt1 0.709961 0.237305
vt1 0.711426 0.493164
vt1 0.723633 0.493164
vt1 0.723633 0.628662
vt1 0.711426 0.628418
vt1 0.721680 0.753906
vt1 0.709961 0.764404
vt1 0.849609 0.764282
vt1 0.977539 0.753906
vt1 0.990234 0.763672
vt1 0.987793 0.628418
vt1 0.976074 0.628662
vt1 0.987793 0.493164
vt1 0.976074 0.493164
vt1 0.977539 0.246582
vt1 0.989258 0.236328
vt1 0.155273 0.429688
vt1 0.155273 0.334961
vt1 0.245117 0.429688
vt1 0.245117 0.334961
vt1 0.245117 0.426758
vt1 0.155273 0.426758
vt1 0.245117 0.336914
vt1 0.155273 0.336914
vt1 0.155273 0.479980
vt1 0.155273 0.284668
vt1 0.245117 0.479980
vt1 0.245117 0.284668
vt1 0.244873 0.284668
vt1 0.244873 0.479492
vt1 0.155273 0.479492
vt1 0.155273 0.284668
vt1 0.244629 0.429688
vt1 0.155029 0.429688
vt1 0.244629 0.334961
vt1 0.155029 0.334961
vt1 0.244995 0.427246
vt1 0.155396 0.427246
vt1 0.244995 0.337402
vt1 0.155396 0.337402
vn 0.000000 0.000000 1.000000
vn 0.000000 0.000000 1.000000
vn 0.000000 0.000000 1.000000
vn 0.000000 0.000000 1.000000
vn 0.000000 0.000000 1.000000
vn 0.000000 0.000000 1.000000
vn 0.000000 0.000000 1.000000
vn 0.000000 0.000000 1.000000
vn 0.000000 0.000000 1.000000
vn 0.000000 0.000000 1.000000
vn 0.000000 0.000000 1.000000
vn 0.000000 0.000000 1.000000
vn 0.000000 0.000000 1.000000
vn 0.000000 0.000000 1.000000
vn 0.000000 0.000000 1.000000
vn 0.000000 0.000000 1.000000
vn 0.000000 0.000000 1.000000
vn 0.000000 0.000000 1.000000
vn 0.984252 -0.000000 -0.181102
vn 0.984252 -0.000000 -0.181102
vn 0.984252 -0.000000 -0.181102
vn 0.984252 -0.000000 -0.181102
vn 0.000000 0.984252 -0.181102
vn 0.000000 0.984252 -0.181102
vn 0.000000 0.984252 -0.181102
vn 0.000000 0.984252 -0.181102
vn 0.000000 -0.984252 -0.181102
vn 0.000000 -0.984252 -0.181102
vn 0.000000 -0.984252 -0.181102
vn 0.000000 -0.984252 -0.181102
vn 0.000000 0.984252 -0.181102
vn 0.000000 0.984252 -0.181102
vn 0.000000 0.984252 -0.181102
vn 0.000000 0.984252 -0.181102
vn -0.984252 -0.000000 -0.181102
vn -0.984252 -0.000000 -0.181102
vn -0.984252 -0.000000 -0.181102
vn -0.984252 -0.000000 -0.181102
vn 0.000000 -0.984252 -0.181102
vn 0.000000 -0.984252 -0.181102
vn 0.000000 -0.984252 -0.181102
vn 0.000000 -0.984252 -0.181102
vn 0.984252 -0.000000 -0.181102
vn 0.984252 -0.000000 -0.181102
vn 0.984252 -0.000000 -0.181102
vn 0.984252 -0.000000 -0.181102
vn -0.984252 -0.000000 -0.181102
vn -0.984252 -0.000000 -0.181102
vn -0.984252 -0.000000 -0.181102
vn -0.984252 -0.000000 -0.181102
vn 0.000000 -0.984252 -0.181102
vn 0.000000 -0.984252 -0.181102
vn 0.000000 -0.984252 -0.181102
vn 0.000000 -0.984252 -0.181102
vn 0.984252 -0.000000 -0.181102
vn 0.984252 -0.000000 -0.181102
vn 0.984252 -0.000000 -0.181102
vn 0.984252 -0.000000 -0.181102
vn 0.984252 -0.000000 -0.181102
vn 0.984252 -0.000000 -0.181102
vn 0.984252 -0.000000 -0.181102
vn 0.984252 -0.000000 -0.181102
vn 0.000000 0.984252 -0.181102
vn 0.000000 0.984252 -0.181102
vn 0.000000 0.984252 -0.181102
vn 0.000000 0.984252 -0.181102
vn 0.000000 -0.984252 -0.181102
vn 0.000000 -0.984252 -0.181102
vn 0.000000 -0.984252 -0.181102
vn 0.000000 -0.984252 -0.181102
vn 0.000000 0.984252 -0.181102
vn 0.000000 0.984252 -0.181102
vn 0.000000 0.984252 -0.181102
vn 0.000000 0.984252 -0.181102
vn -0.984252 -0.000000 -0.181102
vn -0.984252 -0.000000 -0.181102
vn -0.984252 -0.000000 -0.181102
vn -0.984252 -0.000000 -0.181102
vn 0.000000 -0.984252 -0.181102
vn 0.000000 -0.984252 -0.181102
vn 0.000000 -0.984252 -0.181102
vn 0.000000 -0.984252 -0.181102
vn 0.984252 -0.000000 -0.181102
vn 0.984252 -0.000000 -0.181102
vn 0.984252 -0.000000 -0.181102
vn 0.984252 -0.000000 -0.181102
vn 0.000000 -0.984252 -0.181102
vn 0.000000 -0.984252 -0.181102
vn 0.000000 -0.984252 -0.181102
vn 0.000000 -0.984252 -0.181102
vn 0.984252 -0.000000 -0.181102
vn 0.984252 -0.000000 -0.181102
vn 0.984252 -0.000000 -0.181102
vn 0.984252 -0.000000 -0.181102
vn 0.000000 0.984252 -0.181102
vn 0.000000 0.984252 -0.181102
vn 0.000000 0.984252 -0.181102
vn 0.000000 0.984252 -0.181102
vn 0.000000 0.984252 -0.181102
vn 0.000000 0.984252 -0.181102
vn 0.000000 0.984252 -0.181102
vn 0.000000 0.984252 -0.181102
vn -0.984252 -0.000000 -0.181102
vn -0.984252 -0.000000 -0.181102
vn -0.984252 -0.000000 -0.181102
vn -0.984252 -0.000000 -0.181102
vn -0.984252 -0.000000 -0.181102
vn -0.984252 -0.000000 -0.181102
vn -0.984252 -0.000000 -0.181102
vn -0.984252 -0.000000 -0.181102
vn -0.984252 -0.000000 -0.181102
vn -0.984252 -0.000000 -0.181102
vn -0.984252 -0.000000 -0.181102
vn -0.984252 -0.000000 -0.181102
vn 0.000000 1.000000 -0.000000
vn 0.000000 1.000000 -0.000000
vn 0.000000 1.000000 -0.000000
vn 0.000000 1.000000 -0.000000
vn 0.000000 -1.000000 0.000000
vn 0.000000 -1.000000 0.000000
vn 0.000000 -1.000000 0.000000
vn 0.000000 -1.000000 0.000000
vn -1.000000 0.000000 0.000000
vn -1.000000 0.000000 0.000000
vn -1.000000 0.000000 0.000000
vn -1.000000 0.000000 0.000000
vn 1.000000 0.000000 0.000000
vn 1.000000 0.000000 0.000000
vn 1.000000 0.000000 0.000000
vn 1.000000 0.000000 0.000000
vn -1.000000 0.000000 0.000000
vn -1.000000 0.000000 0.000000
vn -1.000000 0.000000 0.000000
vn -1.000000 0.000000 0.000000
vn 1.000000 0.000000 0.000000
vn 1.000000 0.000000 0.000000
vn 1.000000 0.000000 0.000000
vn 1.000000 0.000000 0.000000
vn 1.000000 0.000000 0.000000
vn 1.000000 0.000000 0.000000
vn 1.000000 0.000000 0.000000
vn 1.000000 0.000000 0.000000
vn -1.000000 0.000000 0.000000
vn -1.000000 0.000000 0.000000
vn -1.000000 0.000000 0.000000
vn -1.000000 0.000000 0.000000
vn 0.000000 -1.000000 0.000000
vn 0.000000 -1.000000 0.000000
vn 0.000000 -1.000000 0.000000
vn 0.000000 -1.000000 0.000000
vn 0.000000 1.000000 -0.000000
vn 0.000000 1.000000 -0.000000
vn 0.000000 1.000000 -0.000000
vn 0.000000 1.000000 -0.000000
vn 0.000000 0.000000 1.000000
vn 0.000000 0.000000 1.000000
vn 0.000000 0.000000 1.000000
vn 0.000000 0.000000 1.000000
vn 0.000000 0.000000 1.000000
vn 0.000000 0.000000 1.000000
vn 0.000000 0.000000 1.000000
vn 0.000000 0.000000 1.000000
vn 0.000000 0.000000 1.000000
vn 0.000000 0.000000 1.000000
vn 0.000000 0.000000 1.000000
vn 0.000000 0.000000 1.000000
vn 0.000000 0.000000 1.000000
vn 0.000000 0.000000 1.000000
vn 0.000000 0.000000 1.000000
vn 0.000000 0.000000 1.000000
vn 0.000000 0.000000 1.000000
vn 0.000000 0.000000 1.000000
vn 0.000000 0.000000 1.000000
vn 0.000000 0.000000 1.000000
vn 0.000000 0.000000 1.000000
vn 0.000000 0.000000 1.000000
vn 0.000000 0.000000 1.000000
vn 0.000000 0.000000 1.000000
vn 0.000000 0.000000 1.000000
vn 0.000000 0.000000 1.000000
vn 0.000000 0.000000 1.000000
vn 0.000000 0.000000 1.000000
vn 0.000000 0.000000 1.000000
vn 0.000000 0.000000 1.000000
vn 0.000000 0.000000 1.000000
vn 0.000000 0.000000 1.000000
vn 0.000000 0.000000 1.000000
vn 0.000000 0.000000 1.000000
vn 0.000000 0.000000 1.000000
vn 0.000000 0.000000 1.000000
vn 0.000000 0.000000 1.000000
vn 0.000000 0.000000 1.000000
vn 0.000000 0.000000 1.000000
vn 0.000000 0.000000 1.000000
vn 0.000000 0.000000 1.000000
vn 0.000000 0.000000 1.000000
vn 0.000000 0.000000 1.000000
vn 0.000000 0.000000 1.000000
vn 0.000000 0.000000 1.000000
vn 0.000000 -0.000000 -1.000000
vn 0.000000 -0.000000 -1.000000
vn 0.000000 -0.000000 -1.000000
vn 0.000000 -0.000000 -1.000000
vn 0.000000 -0.000000 -1.000000
vn 0.000000 -0.000000 -1.000000
vn 0.000000 -0.000000 -1.000000
vn 0.000000 -0.000000 -1.000000
vn 0.000000 -0.000000 -1.000000
vn 0.000000 -0.000000 -1.000000
vn 0.000000 -0.000000 -1.000000
vn 0.000000 -0.000000 -1.000000
vn 0.000000 -0.000000 -1.000000
vn 0.000000 -0.000000 -1.000000
vn 0.000000 -0.000000 -1.000000
vn 0.000000 -0.000000 -1.000000
vn 0.000000 -0.000000 -1.000000
vn 0.000000 -0.000000 -1.000000
vn 0.000000 -0.000000 -1.000000
vn 0.000000 -0.000000 -1.000000
vn 0.000000 -0.000000 -1.000000
vn 0.000000 -0.000000 -1.000000
vn 0.000000 -0.000000 -1.000000
vn 0.000000 -0.000000 -1.000000
vn 0.000000 -0.000000 -1.000000
vn 0.000000 -0.000000 -1.000000
vn 0.000000 -0.000000 -1.000000
vn 0.000000 -0.000000 -1.000000
vn 0.000000 -0.000000 -1.000000
vn 0.000000 -0.000000 -1.000000
vn 0.000000 -0.000000 -1.000000
vn 0.000000 -0.000000 -1.000000
vn 0.000000 -0.000000 -1.000000
vn 0.000000 -0.000000 -1.000000
vn 0.000000 -0.000000 -1.000000
vn 0.000000 -0.000000 -1.000000
vn 0.000000 -0.000000 -1.000000
vn 0.000000 -0.000000 -1.000000
vn 0.000000 -0.000000 -1.000000
vn 0.000000 -0.000000 -1.000000
vn 0.000000 -0.000000 -1.000000
vn 0.000000 -0.000000 -1.000000
vn 0.000000 -0.000000 -1.000000
vn 0.000000 -0.000000 -1.000000
vn 0.000000 -0.000000 -1.000000
vn 0.000000 -0.000000 -1.000000
vn 0.000000 -0.000000 -1.000000
vn 0.000000 -0.000000 -1.000000
tan 0.000000 1.000000 -0.000000 1.000000
tan 0.000000 1.000000 -0.000000 1.000000
tan 0.000000 1.000000 -0.000000 1.000000
tan 0.000000 1.000000 -0.000000 1.000000
tan 0.000000 1.000000 -0.000000 1.000000
tan 0.000000 1.000000 -0.000000 1.000000
tan 0.000000 1.000000 -0.000000 1.000000
tan 0.000000 1.000000 -0.000000 1.000000
tan 0.000000 1.000000 -0.000000 1.000000
tan 0.000000 1.000000 -0.000000 1.000000
tan 0.000000 1.000000 -0.000000 1.000000
tan 0.000000 1.000000 -0.000000 1.000000
tan 0.000000 1.000000 -0.000000 1.000000
tan 0.000000 1.000000 -0.000000 1.000000
tan 0.000000 1.000000 -0.000000 1.000000
tan 0.000000 1.000000 -0.000000 1.000000
tan 0.000000 1.000000 -0.000000 1.000000
tan 0.000000 1.000000 -0.000000 1.000000
tan -0.072726 -0.899002 -0.395251 1.000000
tan 0.068448 -0.914502 0.372001 1.000000
tan -0.077004 -0.891252 -0.418501 1.000000
tan 0.072726 -0.899002 0.395251 1.000000
tan 0.007750 -0.181102 -0.984252 1.000000
tan 0.000000 -0.181102 -0.984252 1.000000
tan 0.000000 -0.181102 -0.984252 1.000000
tan 0.007750 -0.181102 -0.984252 1.000000
tan 0.000000 -0.181102 0.984252 1.000000
tan 0.007750 -0.181102 0.984252 1.000000
tan 0.000000 -0.181102 0.984252 1.000000
tan 0.007750 -0.181102 0.984252 1.000000
tan 0.000000 -0.181102 -0.984252 1.000000
tan 0.007750 -0.181102 -0.984252 1.000000
tan 0.000000 -0.181102 -0.984252 1.000000
tan 0.007750 -0.181102 -0.984252 1.000000
tan -0.075578 -0.899002 0.410751 1.000000
tan 0.065596 -0.922252 -0.356501 1.000000
tan 0.069874 -0.906752 -0.379751 1.000000
tan -0.079856 -0.883502 0.434001 1.000000
tan 0.007750 -0.181102 0.984252 1.000000
tan 0.000000 -0.181102 0.984252 1.000000
tan 0.000000 -0.181102 0.984252 1.000000
tan 0.007750 -0.181102 0.984252 1.000000
tan -0.072726 -0.906752 -0.395251 1.000000
tan 0.067022 -0.914502 0.364251 1.000000
tan -0.077004 -0.891252 -0.418501 1.000000
tan 0.085560 -0.868002 0.465001 1.000000
tan -0.054188 -0.937752 0.294501 1.000000
tan 0.045632 -0.954678 -0.248000 1.000000
tan -0.055614 -0.937752 0.302251 1.000000
tan 0.049910 -0.945502 -0.271250 1.000000
tan 0.007750 -0.181102 0.984252 1.000000
tan 0.000000 -0.181102 0.984252 1.000000
tan 0.000000 -0.181102 0.984252 1.000000
tan 0.007750 -0.181102 0.984252 1.000000
tan -0.051336 -0.946928 -0.279000 1.000000
tan 0.048484 -0.945502 0.263501 1.000000
tan 0.049910 -0.945502 0.271251 1.000000
tan -0.057040 -0.937752 -0.310000 1.000000
tan -0.081282 -0.875752 -0.441751 1.000000
tan 0.057040 -0.930002 0.310001 1.000000
tan -0.077004 -0.891252 -0.418501 1.000000
tan 0.067022 -0.914502 0.364251 1.000000
tan 0.007750 -0.181102 -0.984252 1.000000
tan 0.000000 -0.181102 -0.984252 1.000000
tan 0.000000 -0.181102 -0.984252 1.000000
tan 0.007750 -0.181102 -0.984252 1.000000
tan 0.000000 -0.181102 0.984252 1.000000
tan 0.007750 -0.181102 0.984252 1.000000
tan 0.000000 -0.181102 0.984252 1.000000
tan 0.007750 -0.181102 0.984252 1.000000
tan 0.000000 -0.181102 -0.984252 1.000000
tan 0.007750 -0.181102 -0.984252 1.000000
tan 0.000000 -0.181102 -0.984252 1.000000
tan 0.007750 -0.181102 -0.984252 1.000000
tan -0.068448 -0.914502 0.372001 1.000000
tan 0.057040 -0.930002 -0.310000 1.000000
tan 0.071300 -0.906752 -0.387501 1.000000
tan -0.081282 -0.875752 0.441751 1.000000
tan 0.007750 -0.181102 0.984252 1.000000
tan 0.000000 -0.181102 0.984252 1.000000
tan 0.000000 -0.181102 0.984252 1.000000
tan 0.015500 -0.181102 0.984252 1.000000
tan -0.094116 -0.844752 -0.511501 1.000000
tan 0.057040 -0.930002 0.310001 1.000000
tan -0.077004 -0.891252 -0.418501 1.000000
tan 0.065596 -0.923678 0.356501 1.000000
tan 0.000000 -0.181102 0.984252 1.000000
tan 0.007750 -0.181102 0.984252 1.000000
tan 0.000000 -0.181102 0.984252 1.000000
tan 0.007750 -0.181102 0.984252 1.000000
tan -0.055614 -0.937752 -0.302250 1.000000
tan 0.048484 -0.945502 0.263501 1.000000
tan 0.049910 -0.945502 0.271251 1.000000
tan -0.057040 -0.937752 -0.310000 1.000000
tan 0.007750 -0.181102 -0.984252 1.000000
tan 0.000000 -0.181102 -0.984252 1.000000
tan 0.000000 -0.181102 -0.984252 1.000000
tan 0.015500 -0.181102 -0.984252 1.000000
tan 0.000000 -0.181102 -0.984252 1.000000
tan 0.007750 -0.181102 -0.984252 1.000000
tan 0.000000 -0.181102 -0.984252 1.000000
tan 0.007750 -0.181102 -0.984252 1.000000
tan 0.045632 -0.954678 -0.248000 1.000000
tan -0.055614 -0.937752 0.302251 1.000000
tan 0.049910 -0.945502 -0.271250 1.000000
tan -0.055614 -0.937752 0.302251 1.000000
tan -0.075578 -0.899002 0.410751 1.000000
tan 0.065596 -0.914502 -0.356501 1.000000
tan 0.069874 -0.906752 -0.379751 1.000000
tan -0.091264 -0.852502 0.496001 1.000000
tan -0.069874 -0.908178 0.379751 1.000000
tan 0.065596 -0.914502 -0.356501 1.000000
tan 0.071300 -0.906752 -0.387501 1.000000
tan -0.082708 -0.875752 0.449501 1.000000
tan 0.000000 -0.000000 -1.000000 1.000000
tan -0.267717 -0.000000 -0.960630 1.000000
tan -0.110236 -0.000000 -0.992126 1.000000
tan 0.000000 -0.000000 -1.000000 1.000000
tan 0.338583 0.000000 0.937008 1.000000
tan 0.007874 0.000000 1.000000 1.000000
tan -0.007874 0.000000 1.000000 1.000000
tan 0.244094 0.000000 0.968504 1.000000
tan 0.000000 1.000000 -0.000000 1.000000
tan 0.000000 1.000000 -0.000000 1.000000
tan 0.000000 1.000000 -0.000000 1.000000
tan 0.000000 1.000000 -0.000000 1.000000
tan 0.000000 1.000000 -0.007874 1.000000
tan 0.000000 1.000000 -0.007874 1.000000
tan 0.000000 1.000000 -0.007874 1.000000
tan 0.000000 1.000000 -0.007874 1.000000
tan 0.000000 0.992126 -0.110236 1.000000
tan 0.000000 1.000000 -0.015748 1.000000
tan 0.000000 0.992126 -0.118110 1.000000
tan 0.000000 1.000000 -0.007874 1.000000
tan 0.000000 0.992126 -0.125984 1.000000
tan 0.000000 1.000000 -0.007874 1.000000
tan 0.000000 1.000000 -0.015748 1.000000
tan 0.000000 0.992126 -0.133858 1.000000
tan 0.000000 1.000000 -0.000000 1.000000
tan 0.000000 1.000000 0.055118 1.000000
tan 0.000000 1.000000 0.055118 1.000000
tan 0.000000 1.000000 -0.000000 1.000000
tan 0.000000 1.000000 0.062992 1.000000
tan 0.000000 1.000000 -0.000000 1.000000
tan 0.000000 1.000000 0.007874 1.000000
tan 0.000000 1.000000 0.070866 1.000000
tan 0.007874 0.000000 1.000000 1.000000
tan -0.283465 0.000000 0.960630 1.000000
tan -0.125984 0.000000 0.992126 1.000000
tan 0.000000 0.000000 1.000000 1.000000
tan 0.322835 -0.000000 -0.944882 1.000000
tan 0.000000 -0.000000 -1.000000 1.000000
tan 0.007874 -0.000000 -1.000000 1.000000
tan 0.228346 -0.000000 -0.976378 1.000000
tan 0.015748 1.000000 -0.000000 1.000000
tan 0.015748 1.000000 -0.000000 1.000000
tan 0.015748 1.000000 -0.000000 1.000000
tan 0.015748 1.000000 -0.000000 1.000000
tan -0.015748 1.000000 -0.000000 1.000000
tan -0.007874 1.000000 -0.000000 1.000000
tan -0.007874 1.000000 -0.000000 1.000000
tan -0.015748 1.000000 -0.000000 1.000000
tan -0.023622 1.000000 -0.000000 1.000000
tan -0.007874 1.000000 -0.000000 1.000000
tan -0.007874 1.000000 -0.000000 1.000000
tan -0.031496 1.000000 -0.000000 1.000000
tan 0.015748 1.000000 -0.000000 1.000000
tan 0.023622 1.000000 -0.000000 1.000000
tan 0.007874 1.000000 -0.000000 1.000000
tan 0.023622 1.000000 -0.000000 1.000000
tan 0.000000 1.000000 -0.000000 1.000000
tan 0.000000 1.000000 -0.000000 1.000000
tan 0.000000 1.000000 -0.000000 1.000000
tan 0.000000 1.000000 -0.000000 1.000000
tan 0.007874 1.000000 -0.000000 1.000000
tan 0.007874 1.000000 -0.000000 1.000000
tan 0.007874 1.000000 -0.000000 1.000000
tan 0.000000 1.000000 -0.000000 1.000000
tan 0.000000 1.000000 -0.000000 1.000000
tan 0.015748 1.000000 -0.000000 1.000000
tan 0.015748 1.000000 -0.000000 1.000000
tan 0.000000 1.000000 -0.000000 1.000000
tan 0.000000 1.000000 -0.000000 1.000000
tan 0.000000 1.000000 -0.000000 1.000000
tan 0.000000 1.000000 -0.000000 1.000000
tan 0.000000 1.000000 -0.000000 1.000000
tan -0.015748 1.000000 -0.000000 1.000000
tan 0.000000 1.000000 -0.000000 1.000000
tan -0.015748 1.000000 -0.000000 1.000000
tan 0.000000 1.000000 -0.000000 1.000000
tan 0.000000 1.000000 -0.000000 1.000000
tan -0.015748 1.000000 -0.000000 1.000000
tan -0.007874 1.000000 -0.000000 1.000000
tan 0.000000 1.000000 -0.000000 1.000000
tan 0.000000 1.000000 -0.000000 1.000000
tan 0.007874 1.000000 -0.000000 1.000000
tan 0.015748 1.000000 -0.000000 1.000000
tan 0.007874 1.000000 -0.000000 1.000000
tan 0.007874 1.000000 -0.000000 1.000000
tan 0.000000 -1.000000 0.000000 1.000000
tan 0.000000 -1.000000 0.000000 1.000000
tan 0.000000 -1.000000 0.000000 1.000000
tan 0.000000 -1.000000 0.000000 1.000000
tan 0.000000 -1.000000 0.000000 1.000000
tan 0.000000 -1.000000 0.000000 1.000000
tan 0.000000 -1.000000 0.000000 1.000000
tan -0.023622 -1.000000 0.000000 1.000000
tan -0.023622 -1.000000 0.000000 1.000000
tan 0.007874 -1.000000 0.000000 1.000000
tan 0.000000 -1.000000 0.000000 1.000000
tan -0.007874 -1.000000 0.000000 1.000000
tan 0.007874 -1.000000 0.000000 1.000000
tan 0.023622 -1.000000 0.000000 1.000000
tan 0.023622 -1.000000 0.000000 1.000000
tan -0.007874 -1.000000 0.000000 1.000000
tan -0.023622 -1.000000 0.000000 1.000000
tan -0.023622 -1.000000 0.000000 1.000000
tan 0.000000 -1.000000 0.000000 1.000000
tan -0.007874 -1.000000 0.000000 1.000000
tan 0.000000 -1.000000 0.000000 1.000000
tan -0.007874 -1.000000 0.000000 1.000000
tan 0.023622 -1.000000 0.000000 1.000000
tan 0.023622 -1.000000 0.000000 1.000000
tan 0.000000 -1.000000 0.000000 1.000000
tan 0.000000 -1.000000 0.000000 1.000000
tan 0.000000 -1.000000 0.000000 1.000000
tan 0.000000 -1.000000 0.000000 1.000000
tan 0.000000 -1.000000 0.000000 1.000000
tan 0.000000 -1.000000 0.000000 1.000000
tan 0.000000 -1.000000 0.000000 1.000000
tan 0.000000 -1.000000 0.000000 1.000000
tan 0.000000 -1.000000 0.000000 1.000000
tan 0.000000 -1.000000 0.000000 1.000000
tan 0.000000 -1.000000 0.000000 1.000000
tan 0.000000 -1.000000 0.000000 1.000000
tan 0.000000 -1.000000 0.000000 1.000000
tan 0.000000 -1.000000 0.000000 1.000000
tan 0.000000 -1.000000 0.000000 1.000000
tan 0.000000 -1.000000 0.000000 1.000000
tan 0.000000 -1.000000 0.000000 1.000000
tan 0.000000 -1.000000 0.000000 1.000000
tan 0.000000 -1.000000 0.000000 1.000000
tan 0.000000 -1.000000 0.000000 1.000000
tan 0.000000 -1.000000 0.000000 1.000000
tan 0.000000 -1.000000 0.000000 1.000000
tan 0.000000 -1.000000 0.000000 1.000000
tan 0.000000 -1.000000 0.000000 1.000000
f 3/3/3 2/2/2 1/1/1
f 6/6/6 5/5/5 4/4/4
f 9/9/9 8/8/8 7/7/7
f 11/11/11 7/7/7 10/10/10
f 12/12/12 10/10/10 7/7/7
f 14/14/14 13/13/13 11/11/11
f 15/15/15 11/11/11 13/13/13
f 17/17/17 12/12/12 16/16/16
f 18/18/18 16/16/16 12/12/12
f 21/21/21 20/20/20 19/19/19
f 22/22/22 19/19/19 20/20/20
f 25/25/25 24/24/24 23/23/23
f 26/26/26 23/23/23 24/24/24
f 29/29/29 28/28/28 27/27/27
f 30/30/30 27/27/27 28/28/28
f 33/33/33 32/32/32 31/31/31
f 34/34/34 31/31/31 32/32/32
f 37/37/37 36/36/36 35/35/35
f 38/38/38 35/35/35 36/36/36
f 41/41/41 40/40/40 39/39/39
f 42/42/42 39/39/39 40/40/40
f 45/45/45 44/44/44 43/43/43
f 46/46/46 43/43/43 44/44/44
f 49/49/49 48/48/48 47/47/47
f 50/50/50 47/47/47 48/48/48
f 53/53/53 52/52/52 51/51/51
f 54/54/54 51/51/51 52/52/52
f 57/57/57 56/56/56 55/55/55
f 58/58/58 55/55/55 56/56/56
f 61/61/61 60/60/60 59/59/59
f 60/60/60 61/61/61 62/62/62
f 65/65/65 64/64/64 63/63/63
f 66/66/66 63/63/63 64/64/64
f 69/69/69 68/68/68 67/67/67
f 70/70/70 67/67/67 68/68/68
f 73/73/73 72/72/72 71/71/71
f 74/74/74 71/71/71 72/72/72
f 77/77/77 76/76/76 75/75/75
f 78/78/78 75/75/75 76/76/76
f 81/81/81 80/80/80 79/79/79
f 82/82/82 79/79/79 80/80/80
f 85/85/85 84/84/84 83/83/83
f 84/84/84 85/85/85 86/86/86
f 89/89/89 88/88/88 87/87/87
f 90/90/90 87/87/87 88/88/88
f 93/93/93 92/92/92 91/91/91
f 94/94/94 91/91/91 92/92/92
f 97/97/97 96/96/96 95/95/95
f 98/98/98 95/95/95 96/96/96
f 101/101/101 100/100/100 99/99/99
f 102/102/102 99/99/99 100/100/100
f 105/105/105 104/104/104 103/103/103
f 106/106/106 103/103/103 104/104/104
f 109/109/109 108/108/108 107/107/107
f 110/110/110 107/107/107 108/108/108
f 113/113/113 112/112/112 111/111/111
f 114/114/114 111/111/111 112/112/112
f 117/117/117 116/116/116 115/115/115
f 118/118/118 117/117/117 115/115/115
f 121/121/121 120/120/120 119/119/119
f 122/122/122 121/121/121 119/119/119
f 125/125/125 124/124/124 123/123/123
f 126/126/126 123/123/123 124/124/124
f 129/129/129 128/128/128 127/127/127
f 130/130/130 129/129/129 127/127/127
f 133/133/133 132/132/132 131/131/131
f 134/134/134 131/131/131 132/132/132
f 137/137/137 136/136/136 135/135/135
f 138/138/138 137/137/137 135/135/135
f 141/141/141 140/140/140 139/139/139
f 142/142/142 141/141/141 139/139/139
f 145/145/145 144/144/144 143/143/143
f 146/146/146 145/145/145 143/143/143
f 149/149/149 148/148/148 147/147/147
f 150/150/150 149/149/149 147/147/147
f 153/153/153 152/152/152 151/151/151
f 154/154/154 153/153/153 151/151/151
f 157/157/157 156/156/156 155/155/155
f 158/158/158 157/157/157 155/155/155
f 161/161/161 160/160/160 159/159/159
f 162/162/162 161/161/161 159/159/159
f 165/165/165 164/164/164 163/163/163
f 163/163/163 166/166/166 165/165/165
f 169/169/169 168/168/168 167/167/167
f 170/170/170 167/167/167 168/168/168
f 173/173/173 172/172/172 171/171/171
f 171/171/171 174/174/174 173/173/173
f 177/177/177 176/176/176 175/175/175
f 178/178/178 175/175/175 176/176/176
f 181/181/181 180/180/180 179/179/179
f 179/179/179 182/182/182 181/181/181
f 185/185/185 184/184/184 183/183/183
f 183/183/183 186/186/186 185/185/185
f 189/189/189 188/188/188 187/187/187
f 190/190/190 187/187/187 188/188/188
f 193/193/193 192/192/192 191/191/191
f 194/194/194 193/193/193 191/191/191
f 196/196/196 195/195/195 191/191/191
f 198/198/198 197/197/197 196/196/196
f 199/199/199 196/196/196 197/197/197
f 202/202/202 201/201/201 200/200/200
f 201/201/201 202/202/202 203/203/203
f 203/203/203 204/204/204 201/201/201
f 204/204/204 203/203/203 205/205/205
f 205/205/205 206/206/206 204/204/204
f 206/206/206 205/205/205 207/207/207
f 208/208/208 207/207/207 205/205/205
f 208/208/208 209/209/209 207/207/207
f 210/210/210 207/207/207 209/209/209
f 210/210/210 209/209/209 211/211/211
f 211/211/211 209/209/209 212/212/212
f 211/211/211 212/212/212 213/213/213
f 213/213/213 212/212/212 214/214/214
f 214/214/214 215/215/215 213/213/213
f 200/200/200 213/213/213 215/215/215
f 215/215/215 216/216/216 200/200/200
f 216/216/216 215/215/215 217/217/217
f 216/216/216 217/217/217 218/218/218
f 218/218/218 219/219/219 216/216/216
f 218/218/218 220/220/220 219/219/219
f 221/221/221 219/219/219 220/220/220
f 220/220/220 222/222/222 221/221/221
f 223/223/223 222/222/222 220/220/220
f 223/223/223 205/205/205 222/222/222
f 226/226/226 225/225/225 224/224/224
f 227/227/227 225/225/225 226/226/226
f 230/230/230 229/229/229 228/228/228
f 230/230/230 231/231/231 229/229/229
f 234/234/234 233/233/233 232/232/232
f 235/235/235 233/233/233 234/234/234
f 238/238/238 237/237/237 236/236/236
f 236/236/236 239/239/239 238/238/238
f 242/242/242 241/241/241 240/240/240
f 242/242/242 243/243/243 241/241/241
f 246/246/246 245/245/245 244/244/244
f 246/246/246 247/247/247 245/245/245
