mtllib SM_Window_02_LOD3@000002909DBC8800.mtl
g SM_Window_02_LOD3@000002909DBC8800
#Vertices 296
#Indices 945
#Section 0 Offset 0 NumIndices 261 MaterialIndex 0 MI_Pillar_A_01
#Section 1 Offset 261 NumIndices 345 MaterialIndex 1 MI_ConcreteTile_A_02
#Section 2 Offset 606 NumIndices 291 MaterialIndex 2 MI_ConcreteTrim_A_02
#Section 3 Offset 897 NumIndices 48 MaterialIndex 3 MM_Unlit
v -0.256929 3.677951 1.395060 1.000000 1.000000 1.000000 1.000000
v 0.123968 3.498228 1.396522 1.000000 1.000000 1.000000 1.000000
v -0.074167 3.482509 1.398242 1.000000 1.000000 1.000000 1.000000
v -0.090554 3.951375 1.395956 1.000000 1.000000 1.000000 1.000000
v 0.147164 3.908232 1.396781 1.000000 1.000000 1.000000 1.000000
v 0.252560 3.705958 1.397581 1.000000 1.000000 1.000000 1.000000
v 0.237047 3.764086 -1.396890 1.000000 1.000000 1.000000 1.000000
v 0.051159 3.476887 -1.397274 1.000000 1.000000 1.000000 1.000000
v 0.208406 3.579744 -1.397221 1.000000 1.000000 1.000000 1.000000
v -0.133381 3.504732 -1.396875 1.000000 1.000000 1.000000 1.000000
v -0.236830 3.662622 -1.397120 1.000000 1.000000 1.000000 1.000000
v -0.208870 3.847063 -1.396857 1.000000 1.000000 1.000000 1.000000
v -0.051048 3.950378 -1.397221 1.000000 1.000000 1.000000 1.000000
v 0.134238 3.922041 -1.397368 1.000000 1.000000 1.000000 1.000000
v 0.143024 3.478400 1.471088 1.000000 1.000000 1.000000 1.000000
v 0.086253 3.379350 1.478877 1.000000 1.000000 1.000000 1.000000
v -0.137205 3.437209 1.485675 1.000000 1.000000 1.000000 1.000000
v 0.282263 3.542587 1.470472 1.000000 1.000000 1.000000 1.000000
v 0.296214 3.692283 1.464387 1.000000 1.000000 1.000000 1.000000
v 0.333247 3.801189 1.476572 1.000000 1.000000 1.000000 1.000000
v 0.139888 3.991280 1.487777 1.000000 1.000000 1.000000 1.000000
v -0.292110 3.735541 1.467320 1.000000 1.000000 1.000000 1.000000
v -0.333236 3.626019 1.476543 1.000000 1.000000 1.000000 1.000000
v -0.282326 3.884528 1.470534 1.000000 1.000000 1.000000 1.000000
v -0.143060 3.949866 1.470099 1.000000 1.000000 1.000000 1.000000
v -0.086094 4.047914 1.478225 1.000000 1.000000 1.000000 1.000000
v 0.296214 3.692283 1.464387 1.000000 1.000000 1.000000 1.000000
v 0.252560 3.705958 1.397581 1.000000 1.000000 1.000000 1.000000
v 0.147164 3.908232 1.396781 1.000000 1.000000 1.000000 1.000000
v 0.123968 3.498228 1.396522 1.000000 1.000000 1.000000 1.000000
v 0.139888 3.991280 1.487777 1.000000 1.000000 1.000000 1.000000
v 0.143024 3.478400 1.471088 1.000000 1.000000 1.000000 1.000000
v -0.090554 3.951375 1.395956 1.000000 1.000000 1.000000 1.000000
v -0.137205 3.437209 1.485675 1.000000 1.000000 1.000000 1.000000
v -0.143060 3.949866 1.470099 1.000000 1.000000 1.000000 1.000000
v -0.074167 3.482509 1.398242 1.000000 1.000000 1.000000 1.000000
v -0.292110 3.735541 1.467320 1.000000 1.000000 1.000000 1.000000
v -0.256929 3.677951 1.395060 1.000000 1.000000 1.000000 1.000000
v 0.369857 3.677372 1.380954 1.000000 1.000000 1.000000 1.000000
v 0.282263 3.542587 1.470472 1.000000 1.000000 1.000000 1.000000
v 0.333247 3.801189 1.476572 1.000000 1.000000 1.000000 1.000000
v 0.086253 3.379350 1.478877 1.000000 1.000000 1.000000 1.000000
v 0.055319 4.097744 1.384209 1.000000 1.000000 1.000000 1.000000
v -0.055298 3.329478 1.384205 1.000000 1.000000 1.000000 1.000000
v 0.139888 3.991280 1.487777 1.000000 1.000000 1.000000 1.000000
v -0.137205 3.437209 1.485675 1.000000 1.000000 1.000000 1.000000
v -0.086094 4.047914 1.478225 1.000000 1.000000 1.000000 1.000000
v -0.333236 3.626019 1.476543 1.000000 1.000000 1.000000 1.000000
v -0.369873 3.749855 1.380946 1.000000 1.000000 1.000000 1.000000
v -0.282326 3.884528 1.470534 1.000000 1.000000 1.000000 1.000000
v 0.120276 3.401339 -1.485998 1.000000 1.000000 1.000000 1.000000
v 0.141040 3.476441 -1.470832 1.000000 1.000000 1.000000 1.000000
v -0.068005 3.442305 -1.471678 1.000000 1.000000 1.000000 1.000000
v 0.271903 3.646614 -1.471383 1.000000 1.000000 1.000000 1.000000
v -0.211660 3.441869 -1.479215 1.000000 1.000000 1.000000 1.000000
v 0.334545 3.613940 -1.477525 1.000000 1.000000 1.000000 1.000000
v -0.237421 3.572222 -1.470526 1.000000 1.000000 1.000000 1.000000
v 0.237408 3.855048 -1.470512 1.000000 1.000000 1.000000 1.000000
v -0.332432 3.707912 -1.477248 1.000000 1.000000 1.000000 1.000000
v 0.276669 3.900018 -1.472334 1.000000 1.000000 1.000000 1.000000
v -0.271932 3.780536 -1.471433 1.000000 1.000000 1.000000 1.000000
v 0.066307 3.986204 -1.471247 1.000000 1.000000 1.000000 1.000000
v -0.231643 3.965473 -1.459789 1.000000 1.000000 1.000000 1.000000
v 0.077258 4.042778 -1.474338 1.000000 1.000000 1.000000 1.000000
v -0.141112 3.950752 -1.470827 1.000000 1.000000 1.000000 1.000000
v -0.242941 3.433747 -1.376356 1.000000 1.000000 1.000000 1.000000
v -0.211660 3.441869 -1.479215 1.000000 1.000000 1.000000 1.000000
v -0.332432 3.707912 -1.477248 1.000000 1.000000 1.000000 1.000000
v 0.120276 3.401339 -1.485998 1.000000 1.000000 1.000000 1.000000
v -0.323599 3.822237 -1.377026 1.000000 1.000000 1.000000 1.000000
v 0.139045 3.406958 -1.376636 1.000000 1.000000 1.000000 1.000000
v -0.231643 3.965473 -1.459789 1.000000 1.000000 1.000000 1.000000
v 0.334545 3.613940 -1.477525 1.000000 1.000000 1.000000 1.000000
v -0.006688 4.089578 -1.385821 1.000000 1.000000 1.000000 1.000000
v 0.368748 3.750289 -1.377126 1.000000 1.000000 1.000000 1.000000
v 0.077258 4.042778 -1.474338 1.000000 1.000000 1.000000 1.000000
v 0.276669 3.900018 -1.472334 1.000000 1.000000 1.000000 1.000000
v 0.208406 3.579744 -1.397221 1.000000 1.000000 1.000000 1.000000
v 0.271903 3.646614 -1.471383 1.000000 1.000000 1.000000 1.000000
v 0.237047 3.764086 -1.396890 1.000000 1.000000 1.000000 1.000000
v 0.141040 3.476441 -1.470832 1.000000 1.000000 1.000000 1.000000
v 0.237408 3.855048 -1.470512 1.000000 1.000000 1.000000 1.000000
v 0.051159 3.476887 -1.397274 1.000000 1.000000 1.000000 1.000000
v 0.134238 3.922041 -1.397368 1.000000 1.000000 1.000000 1.000000
v -0.068005 3.442305 -1.471678 1.000000 1.000000 1.000000 1.000000
v 0.066307 3.986204 -1.471247 1.000000 1.000000 1.000000 1.000000
v -0.133381 3.504732 -1.396875 1.000000 1.000000 1.000000 1.000000
v -0.051048 3.950378 -1.397221 1.000000 1.000000 1.000000 1.000000
v -0.237421 3.572222 -1.470526 1.000000 1.000000 1.000000 1.000000
v -0.141112 3.950752 -1.470827 1.000000 1.000000 1.000000 1.000000
v -0.236830 3.662622 -1.397120 1.000000 1.000000 1.000000 1.000000
v -0.208870 3.847063 -1.396857 1.000000 1.000000 1.000000 1.000000
v -0.271932 3.780536 -1.471433 1.000000 1.000000 1.000000 1.000000
v 1.392275 -0.000000 -1.386296 1.000000 1.000000 1.000000 1.000000
v 1.392275 0.000000 1.386296 1.000000 1.000000 1.000000 1.000000
v 1.383173 3.031472 1.385667 1.000000 1.000000 1.000000 1.000000
v 1.376393 3.090238 -1.385703 1.000000 1.000000 1.000000 1.000000
v 1.274093 3.489912 1.386818 1.000000 1.000000 1.000000 1.000000
v 1.216140 3.612755 -1.388261 1.000000 1.000000 1.000000 1.000000
v 0.955002 3.963247 1.384979 1.000000 1.000000 1.000000 1.000000
v 0.892028 4.003776 -1.385976 1.000000 1.000000 1.000000 1.000000
v 0.553410 4.218644 -1.386049 1.000000 1.000000 1.000000 1.000000
v 0.514039 4.233230 1.385942 1.000000 1.000000 1.000000 1.000000
v 0.010295 4.348296 -1.386872 1.000000 1.000000 1.000000 1.000000
v 0.015033 4.337165 1.387033 1.000000 1.000000 1.000000 1.000000
v -0.510020 4.237777 1.386343 1.000000 1.000000 1.000000 1.000000
v -0.538889 4.227587 -1.386430 1.000000 1.000000 1.000000 1.000000
v -0.880526 4.014704 1.385990 1.000000 1.000000 1.000000 1.000000
v -0.903581 3.996942 -1.385961 1.000000 1.000000 1.000000 1.000000
v -1.209845 3.632295 1.386869 1.000000 1.000000 1.000000 1.000000
v -1.235669 3.586119 -1.387110 1.000000 1.000000 1.000000 1.000000
v -1.376469 3.094636 1.385806 1.000000 1.000000 1.000000 1.000000
v -1.382825 3.054893 -1.385644 1.000000 1.000000 1.000000 1.000000
v -1.392275 0.000000 1.386296 1.000000 1.000000 1.000000 1.000000
v -1.392275 -0.000000 -1.386296 1.000000 1.000000 1.000000 1.000000
v -0.844730 -0.000003 1.354154 1.000000 1.000000 1.000000 1.000000
v -0.841002 3.277983 1.176360 1.000000 1.000000 1.000000 1.000000
v -0.842398 0.000000 1.176541 1.000000 1.000000 1.000000 1.000000
v -0.840923 3.237047 1.352675 1.000000 1.000000 1.000000 1.000000
v -0.882484 0.000088 1.393568 1.000000 1.000000 1.000000 1.000000
v -0.672806 3.514764 1.346448 1.000000 1.000000 1.000000 1.000000
v -0.691326 3.472614 1.177003 1.000000 1.000000 1.000000 1.000000
v -0.456040 3.491011 1.176638 1.000000 1.000000 1.000000 1.000000
v -0.878033 3.402647 1.392570 1.000000 1.000000 1.000000 1.000000
v -1.127271 0.000040 1.392731 1.000000 1.000000 1.000000 1.000000
v -1.113557 3.036850 1.392248 1.000000 1.000000 1.000000 1.000000
v -1.019494 3.469681 1.393220 1.000000 1.000000 1.000000 1.000000
v -0.789318 3.797901 1.392389 1.000000 1.000000 1.000000 1.000000
v -0.388053 4.056827 1.392855 1.000000 1.000000 1.000000 1.000000
v -0.219979 3.523946 1.392867 1.000000 1.000000 1.000000 1.000000
v -0.108617 4.131954 1.414937 1.000000 1.000000 1.000000 1.000000
v -0.248330 3.345645 1.356292 1.000000 1.000000 1.000000 1.000000
v -0.251356 3.316802 1.176656 1.000000 1.000000 1.000000 1.000000
v -0.248746 0.000000 1.176542 1.000000 1.000000 1.000000 1.000000
v -0.246589 -0.000000 1.354584 1.000000 1.000000 1.000000 1.000000
v -0.208095 0.000051 1.393422 1.000000 1.000000 1.000000 1.000000
v 0.211115 0.000000 1.392320 1.000000 1.000000 1.000000 1.000000
v 0.213282 3.522506 1.393965 1.000000 1.000000 1.000000 1.000000
v 0.246499 -0.000003 1.356804 1.000000 1.000000 1.000000 1.000000
v 0.285753 4.099415 1.407289 1.000000 1.000000 1.000000 1.000000
v 0.248857 3.351727 1.354685 1.000000 1.000000 1.000000 1.000000
v 0.248746 0.000000 1.176542 1.000000 1.000000 1.000000 1.000000
v 0.251403 3.317579 1.176676 1.000000 1.000000 1.000000 1.000000
v 0.455656 3.491050 1.176729 1.000000 1.000000 1.000000 1.000000
v 0.673303 3.514103 1.346050 1.000000 1.000000 1.000000 1.000000
v 0.688876 3.473116 1.177174 1.000000 1.000000 1.000000 1.000000
v 0.840746 3.280606 1.176629 1.000000 1.000000 1.000000 1.000000
v 0.878035 3.402087 1.392553 1.000000 1.000000 1.000000 1.000000
v 0.772534 3.817476 1.392043 1.000000 1.000000 1.000000 1.000000
v 1.019416 3.469882 1.393255 1.000000 1.000000 1.000000 1.000000
v 1.113537 3.037322 1.392248 1.000000 1.000000 1.000000 1.000000
v 1.127269 0.000041 1.392730 1.000000 1.000000 1.000000 1.000000
v 0.882592 0.000089 1.393559 1.000000 1.000000 1.000000 1.000000
v 0.842229 3.230786 1.351180 1.000000 1.000000 1.000000 1.000000
v 0.844647 -0.000003 1.354841 1.000000 1.000000 1.000000 1.000000
v 0.842398 0.000001 1.176541 1.000000 1.000000 1.000000 1.000000
v 0.844730 -0.000003 -1.354154 1.000000 1.000000 1.000000 1.000000
v 0.841004 3.277983 -1.176361 1.000000 1.000000 1.000000 1.000000
v 0.842398 0.000001 -1.176541 1.000000 1.000000 1.000000 1.000000
v 0.840924 3.237018 -1.352674 1.000000 1.000000 1.000000 1.000000
v 0.882484 0.000087 -1.393568 1.000000 1.000000 1.000000 1.000000
v 0.672803 3.514767 -1.346447 1.000000 1.000000 1.000000 1.000000
v 0.691321 3.472616 -1.177004 1.000000 1.000000 1.000000 1.000000
v 0.456037 3.491009 -1.176639 1.000000 1.000000 1.000000 1.000000
v 0.878027 3.402724 -1.392560 1.000000 1.000000 1.000000 1.000000
v 1.127269 0.000041 -1.392730 1.000000 1.000000 1.000000 1.000000
v 1.113409 3.043372 -1.392261 1.000000 1.000000 1.000000 1.000000
v 1.019416 3.469882 -1.393255 1.000000 1.000000 1.000000 1.000000
v 0.772535 3.817475 -1.392044 1.000000 1.000000 1.000000 1.000000
v 0.303421 4.092819 -1.392748 1.000000 1.000000 1.000000 1.000000
v 0.216062 3.524467 -1.393265 1.000000 1.000000 1.000000 1.000000
v -0.233288 4.137589 -1.401746 1.000000 1.000000 1.000000 1.000000
v 0.248660 3.346237 -1.355756 1.000000 1.000000 1.000000 1.000000
v 0.251355 3.316810 -1.176657 1.000000 1.000000 1.000000 1.000000
v 0.248746 0.000001 -1.176542 1.000000 1.000000 1.000000 1.000000
v 0.242108 0.000028 -1.370726 1.000000 1.000000 1.000000 1.000000
v 0.211115 -0.000000 -1.392320 1.000000 1.000000 1.000000 1.000000
v -0.213037 3.521551 -1.393441 1.000000 1.000000 1.000000 1.000000
v -0.211115 -0.000000 -1.392320 1.000000 1.000000 1.000000 1.000000
v -0.246499 -0.000003 -1.356804 1.000000 1.000000 1.000000 1.000000
v -0.248837 3.351556 -1.354625 1.000000 1.000000 1.000000 1.000000
v -0.248746 0.000001 -1.176542 1.000000 1.000000 1.000000 1.000000
v -0.251402 3.317590 -1.176677 1.000000 1.000000 1.000000 1.000000
v -0.455659 3.491050 -1.176730 1.000000 1.000000 1.000000 1.000000
v -0.681572 3.481582 -1.190730 1.000000 1.000000 1.000000 1.000000
v -0.878042 3.401919 -1.392565 1.000000 1.000000 1.000000 1.000000
v -0.789310 3.797908 -1.392390 1.000000 1.000000 1.000000 1.000000
v -1.019492 3.469686 -1.393220 1.000000 1.000000 1.000000 1.000000
v -1.113558 3.036875 -1.392249 1.000000 1.000000 1.000000 1.000000
v -1.127271 0.000041 -1.392731 1.000000 1.000000 1.000000 1.000000
v -0.882592 0.000089 -1.393560 1.000000 1.000000 1.000000 1.000000
v -0.842228 3.230824 -1.351181 1.000000 1.000000 1.000000 1.000000
v -0.840747 3.280605 -1.176630 1.000000 1.000000 1.000000 1.000000
v -0.844647 -0.000004 -1.354841 1.000000 1.000000 1.000000 1.000000
v -0.842399 0.000001 -1.176541 1.000000 1.000000 1.000000 1.000000
v 1.205859 3.187374 1.498736 1.000000 1.000000 1.000000 1.000000
v 1.127269 0.000041 1.392730 1.000000 1.000000 1.000000 1.000000
v 1.113537 3.037322 1.392248 1.000000 1.000000 1.000000 1.000000
v 1.019416 3.469882 1.393255 1.000000 1.000000 1.000000 1.000000
v 1.222133 0.000015 1.499447 1.000000 1.000000 1.000000 1.000000
v 0.898775 3.962286 1.520995 1.000000 1.000000 1.000000 1.000000
v 0.772534 3.817476 1.392043 1.000000 1.000000 1.000000 1.000000
v 0.285753 4.099415 1.407289 1.000000 1.000000 1.000000 1.000000
v 1.340144 3.319556 1.498748 1.000000 1.000000 1.000000 1.000000
v 1.371808 0.000000 1.499580 1.000000 1.000000 1.000000 1.000000
v 0.343367 4.319649 1.479787 1.000000 1.000000 1.000000 1.000000
v -0.108617 4.131954 1.414937 1.000000 1.000000 1.000000 1.000000
v 0.999299 3.937302 1.497885 1.000000 1.000000 1.000000 1.000000
v 1.379631 3.115895 1.479542 1.000000 1.000000 1.000000 1.000000
v 1.390762 0.000000 1.480741 1.000000 1.000000 1.000000 1.000000
v 1.392275 0.000000 1.386296 1.000000 1.000000 1.000000 1.000000
v 1.383173 3.031472 1.385667 1.000000 1.000000 1.000000 1.000000
v 1.274093 3.489912 1.386818 1.000000 1.000000 1.000000 1.000000
v 0.955002 3.963247 1.384979 1.000000 1.000000 1.000000 1.000000
v 0.514039 4.233230 1.385942 1.000000 1.000000 1.000000 1.000000
v 0.015033 4.337165 1.387033 1.000000 1.000000 1.000000 1.000000
v -0.358073 4.294099 1.496110 1.000000 1.000000 1.000000 1.000000
v -0.510020 4.237777 1.386343 1.000000 1.000000 1.000000 1.000000
v -0.871875 3.987930 1.522857 1.000000 1.000000 1.000000 1.000000
v -0.388053 4.056827 1.392855 1.000000 1.000000 1.000000 1.000000
v -0.789318 3.797901 1.392389 1.000000 1.000000 1.000000 1.000000
v -1.019494 3.469681 1.393220 1.000000 1.000000 1.000000 1.000000
v -1.072019 3.851715 1.499686 1.000000 1.000000 1.000000 1.000000
v -0.880526 4.014704 1.385990 1.000000 1.000000 1.000000 1.000000
v -1.209845 3.632295 1.386869 1.000000 1.000000 1.000000 1.000000
v -1.205666 3.177182 1.498399 1.000000 1.000000 1.000000 1.000000
v -1.113557 3.036850 1.392248 1.000000 1.000000 1.000000 1.000000
v -1.127271 0.000040 1.392731 1.000000 1.000000 1.000000 1.000000
v -1.222198 0.000003 1.499467 1.000000 1.000000 1.000000 1.000000
v -1.355131 3.228684 1.499412 1.000000 1.000000 1.000000 1.000000
v -1.371808 0.000000 1.499580 1.000000 1.000000 1.000000 1.000000
v -1.382555 3.055834 1.484950 1.000000 1.000000 1.000000 1.000000
v -1.390762 0.000000 1.480741 1.000000 1.000000 1.000000 1.000000
v -1.376469 3.094636 1.385806 1.000000 1.000000 1.000000 1.000000
v -1.392275 0.000000 1.386296 1.000000 1.000000 1.000000 1.000000
v -1.382825 3.054893 -1.385644 1.000000 1.000000 1.000000 1.000000
v -1.392275 -0.000000 -1.386296 1.000000 1.000000 1.000000 1.000000
v -1.382501 3.053759 -1.484850 1.000000 1.000000 1.000000 1.000000
v -1.235669 3.586119 -1.387110 1.000000 1.000000 1.000000 1.000000
v -1.385469 0.000017 -1.498462 1.000000 1.000000 1.000000 1.000000
v -1.073707 3.849333 -1.499511 1.000000 1.000000 1.000000 1.000000
v -0.903581 3.996942 -1.385961 1.000000 1.000000 1.000000 1.000000
v -1.355044 3.228655 -1.499416 1.000000 1.000000 1.000000 1.000000
v -1.222198 0.000002 -1.499467 1.000000 1.000000 1.000000 1.000000
v -0.538889 4.227587 -1.386430 1.000000 1.000000 1.000000 1.000000
v -1.205661 3.177202 -1.498397 1.000000 1.000000 1.000000 1.000000
v -1.127271 0.000041 -1.392731 1.000000 1.000000 1.000000 1.000000
v -1.113558 3.036875 -1.392249 1.000000 1.000000 1.000000 1.000000
v -1.019492 3.469686 -1.393220 1.000000 1.000000 1.000000 1.000000
v -0.872395 3.986909 -1.522874 1.000000 1.000000 1.000000 1.000000
v -0.789310 3.797908 -1.392390 1.000000 1.000000 1.000000 1.000000
v -0.233288 4.137589 -1.401746 1.000000 1.000000 1.000000 1.000000
v -0.367817 4.291933 -1.493142 1.000000 1.000000 1.000000 1.000000
v 0.010295 4.348296 -1.386872 1.000000 1.000000 1.000000 1.000000
v 0.338103 4.323576 -1.478661 1.000000 1.000000 1.000000 1.000000
v 0.553410 4.218644 -1.386049 1.000000 1.000000 1.000000 1.000000
v 0.308708 4.178705 -1.484185 1.000000 1.000000 1.000000 1.000000
v 0.303421 4.092819 -1.392748 1.000000 1.000000 1.000000 1.000000
v 0.772535 3.817475 -1.392044 1.000000 1.000000 1.000000 1.000000
v 0.986458 3.941362 -1.506611 1.000000 1.000000 1.000000 1.000000
v 0.892028 4.003776 -1.385976 1.000000 1.000000 1.000000 1.000000
v 1.216140 3.612755 -1.388261 1.000000 1.000000 1.000000 1.000000
v 1.221782 3.546946 -1.516125 1.000000 1.000000 1.000000 1.000000
v 1.019416 3.469882 -1.393255 1.000000 1.000000 1.000000 1.000000
v 1.113409 3.043372 -1.392261 1.000000 1.000000 1.000000 1.000000
v 1.127269 0.000041 -1.392730 1.000000 1.000000 1.000000 1.000000
v 1.222133 0.000015 -1.499447 1.000000 1.000000 1.000000 1.000000
v 1.379567 3.116259 -1.479522 1.000000 1.000000 1.000000 1.000000
v 1.376393 3.090238 -1.385703 1.000000 1.000000 1.000000 1.000000
v 1.392275 -0.000000 -1.386296 1.000000 1.000000 1.000000 1.000000
v 1.385946 0.000017 -1.497757 1.000000 1.000000 1.000000 1.000000
v 1.355707 3.078473 -1.499587 1.000000 1.000000 1.000000 1.000000
v -0.455659 3.491050 -1.176730 1.000000 1.000000 1.000000 1.000000
v -0.681572 3.481582 -1.190730 1.000000 1.000000 1.000000 1.000000
v -0.840747 3.280605 -1.176630 1.000000 1.000000 1.000000 1.000000
v -0.251402 3.317590 -1.176677 1.000000 1.000000 1.000000 1.000000
v -0.842399 0.000001 -1.176541 1.000000 1.000000 1.000000 1.000000
v -0.248746 0.000001 -1.176542 1.000000 1.000000 1.000000 1.000000
v 0.455656 3.491050 1.176729 1.000000 1.000000 1.000000 1.000000
v 0.688876 3.473116 1.177174 1.000000 1.000000 1.000000 1.000000
v 0.840746 3.280606 1.176629 1.000000 1.000000 1.000000 1.000000
v 0.251403 3.317579 1.176676 1.000000 1.000000 1.000000 1.000000
v 0.842398 0.000001 1.176541 1.000000 1.000000 1.000000 1.000000
v 0.248746 0.000000 1.176542 1.000000 1.000000 1.000000 1.000000
v 0.842398 0.000001 -1.176541 1.000000 1.000000 1.000000 1.000000
v 0.251355 3.316810 -1.176657 1.000000 1.000000 1.000000 1.000000
v 0.248746 0.000001 -1.176542 1.000000 1.000000 1.000000 1.000000
v 0.841004 3.277983 -1.176361 1.000000 1.000000 1.000000 1.000000
v 0.691321 3.472616 -1.177004 1.000000 1.000000 1.000000 1.000000
v 0.456037 3.491009 -1.176639 1.000000 1.000000 1.000000 1.000000
v -0.251356 3.316802 1.176656 1.000000 1.000000 1.000000 1.000000
v -0.248746 0.000000 1.176542 1.000000 1.000000 1.000000 1.000000
v -0.842398 0.000000 1.176541 1.000000 1.000000 1.000000 1.000000
v -0.841002 3.277983 1.176360 1.000000 1.000000 1.000000 1.000000
v -0.691326 3.472614 1.177003 1.000000 1.000000 1.000000 1.000000
v -0.456040 3.491011 1.176638 1.000000 1.000000 1.000000 1.000000
vt 0.097290 0.753906
vt 0.052734 0.751831
vt 0.071472 0.742432
vt 0.092163 0.787476
vt 0.067139 0.792847
vt 0.048584 0.777466
vt 0.099243 0.769653
vt 0.075378 0.742432
vt 0.093445 0.750732
vt 0.056488 0.748047
vt 0.048035 0.766113
vt 0.053741 0.785034
vt 0.071838 0.793457
vt 0.090881 0.787720
vt 0.045959 0.747803
vt 0.048309 0.734375
vt 0.076111 0.729980
vt 0.033875 0.761841
vt 0.038727 0.779541
vt 0.040344 0.793335
vt 0.070862 0.806152
vt 0.108154 0.756470
vt 0.106873 0.742432
vt 0.113403 0.773804
vt 0.101318 0.788208
vt 0.098938 0.801270
vt 0.039490 0.779663
vt 0.048492 0.777100
vt 0.067444 0.792969
vt 0.052521 0.751831
vt 0.071472 0.805786
vt 0.046112 0.747559
vt 0.092529 0.787476
vt 0.074951 0.729980
vt 0.101196 0.788330
vt 0.071594 0.742188
vt 0.107910 0.756714
vt 0.098145 0.754272
vt 0.022354 0.783691
vt 0.033722 0.761841
vt 0.040161 0.792847
vt 0.048645 0.734375
vt 0.088379 0.821411
vt 0.058899 0.714355
vt 0.069641 0.805908
vt 0.077271 0.729736
vt 0.098633 0.801514
vt 0.107056 0.742920
vt 0.124878 0.752075
vt 0.113525 0.773926
vt 0.082703 0.728027
vt 0.086731 0.736328
vt 0.060364 0.735840
vt 0.105896 0.754761
vt 0.043396 0.739014
vt 0.112122 0.750122
vt 0.041870 0.754761
vt 0.105347 0.781006
vt 0.033539 0.772949
vt 0.110229 0.785522
vt 0.041351 0.781128
vt 0.086731 0.800293
vt 0.050232 0.802246
vt 0.088684 0.806274
vt 0.060516 0.799561
vt 0.032959 0.732178
vt 0.043304 0.739014
vt 0.034149 0.773315
vt 0.083069 0.728271
vt 0.027344 0.790771
vt 0.087769 0.718994
vt 0.050964 0.801758
vt 0.112183 0.751099
vt 0.080444 0.821899
vt 0.128418 0.765259
vt 0.088562 0.806030
vt 0.110107 0.785400
vt 0.093628 0.750854
vt 0.105957 0.754883
vt 0.099121 0.769653
vt 0.086487 0.736084
vt 0.105408 0.780762
vt 0.075439 0.742432
vt 0.090698 0.787964
vt 0.060486 0.735596
vt 0.086548 0.800293
vt 0.056641 0.748047
vt 0.071777 0.793457
vt 0.041840 0.755005
vt 0.060730 0.799683
vt 0.048096 0.766113
vt 0.053589 0.784912
vt 0.041290 0.780884
vt -1.408203 -0.648438
vt -1.408203 -0.957031
vt -1.029297 -0.956055
vt -1.021484 -0.648438
vt -0.970703 -0.957031
vt -0.953613 -0.648438
vt -0.899414 -0.956055
vt -0.890137 -0.648438
vt -0.839844 -0.648438
vt -0.834961 -0.956055
vt -0.770508 -0.648438
vt -0.770996 -0.957031
vt -0.704102 -0.957031
vt -0.700684 -0.648438
vt -0.650391 -0.956055
vt -0.646484 -0.648438
vt -0.587402 -0.957031
vt -0.580566 -0.648438
vt -0.517090 -0.956055
vt -0.512207 -0.648438
vt -0.130493 -0.957031
vt -0.130493 -0.648438
vt 0.221069 -0.576172
vt 0.483154 -0.891602
vt 0.239014 -0.563477
vt 0.462891 -0.901367
vt 0.215576 -0.580078
vt 0.499756 -0.929688
vt 0.500488 -0.905273
vt 0.520020 -0.909180
vt 0.469971 -0.921875
vt 0.190918 -0.598633
vt 0.418945 -0.902344
vt 0.455078 -0.939453
vt 0.486816 -0.970703
vt 0.537109 -1.000000
vt 0.559570 -0.932617
vt 0.571289 -1.009766
vt 0.555664 -0.909180
vt 0.534180 -0.902344
vt 0.547363 -0.490234
vt 0.569336 -0.490234
vt 0.576660 -0.491211
vt 0.628906 -0.492188
vt 0.615234 -0.934570
vt 0.635254 -0.493164
vt 0.620117 -1.007812
vt 0.621582 -0.912109
vt 0.657715 -0.493164
vt 0.643066 -0.906250
vt 0.657227 -0.914062
vt 0.675781 -0.935547
vt 0.676270 -0.911133
vt 0.694824 -0.899414
vt 0.706055 -0.929688
vt 0.683594 -0.979492
vt 0.719727 -0.948242
vt 0.758301 -0.914062
vt 1.005859 -0.625977
vt 0.982910 -0.606445
vt 0.714844 -0.909180
vt 0.977539 -0.601562
vt 0.960449 -0.586914
vt 0.810547 -0.467773
vt 0.559570 -0.143555
vt 0.791992 -0.480469
vt 0.580078 -0.134766
vt 0.816406 -0.463867
vt 0.544434 -0.105469
vt 0.542480 -0.129883
vt 0.523438 -0.125000
vt 0.573730 -0.113281
vt 0.841309 -0.447266
vt 0.623535 -0.134766
vt 0.589355 -0.096680
vt 0.556641 -0.062500
vt 0.498779 -0.027344
vt 0.484619 -0.099609
vt 0.433594 -0.018555
vt 0.487793 -0.123047
vt 0.508789 -0.130859
vt 0.480225 -0.542969
vt 0.455811 -0.541016
vt 0.451172 -0.541016
vt 0.429199 -0.096680
vt 0.398438 -0.537109
vt 0.392334 -0.537109
vt 0.421875 -0.118164
vt 0.369629 -0.535156
vt 0.400146 -0.123047
vt 0.386230 -0.115234
vt 0.367432 -0.104492
vt 0.337891 -0.096680
vt 0.359863 -0.049805
vt 0.324951 -0.078125
vt 0.285156 -0.110352
vt 0.023651 -0.385742
vt 0.045959 -0.407227
vt 0.328369 -0.117188
vt 0.347900 -0.127930
vt 0.050903 -0.412109
vt 0.067200 -0.426758
vt 1.032227 0.968689
vt 1.291992 0.989929
vt 1.044922 0.989738
vt 1.005859 0.989349
vt 1.291992 0.968140
vt 0.964844 0.949646
vt 0.966309 0.989494
vt 0.917969 0.992264
vt 1.021484 0.938751
vt 1.291992 0.936951
vt 0.914062 0.931335
vt 0.877441 0.990791
vt 0.970703 0.934204
vt 1.038086 0.931824
vt 1.291992 0.931824
vt 1.291992 0.917664
vt 1.044922 0.917786
vt 1.007812 0.917542
vt 0.966797 0.917908
vt 0.927246 0.917725
vt 0.890137 0.917786
vt 0.863770 0.931763
vt 0.851562 0.917664
vt 0.815430 0.954590
vt 0.851562 0.989380
vt 0.809570 0.989517
vt 0.772461 0.989334
vt 0.799805 0.932556
vt 0.817871 0.917725
vt 0.781250 0.917603
vt 0.744629 0.968475
vt 0.733887 0.989738
vt 0.485840 0.989929
vt 0.485840 0.968109
vt 0.749023 0.937317
vt 0.485840 0.936951
vt 0.735352 0.932434
vt 0.485840 0.931824
vt 0.738281 0.917725
vt 0.485840 0.917664
vt 0.231934 0.917786
vt 0.480957 0.917664
vt 0.231934 0.932434
vt 0.189209 0.917480
vt 0.480957 0.934448
vt 0.167236 0.932556
vt 0.150879 0.917725
vt 0.217773 0.937378
vt 0.480957 0.968109
vt 0.117798 0.917603
vt 0.222412 0.968475
vt 0.480957 0.989929
vt 0.233643 0.989731
vt 0.195312 0.989326
vt 0.151367 0.954681
vt 0.156494 0.989517
vt 0.099915 0.986961
vt 0.104004 0.931519
vt 0.077087 0.917847
vt 0.053467 0.930481
vt 0.036316 0.917664
vt 0.049622 0.974274
vt 0.048431 0.989334
vt 0.001195 0.989487
vt -0.003113 0.934204
vt 0.005447 0.917725
vt -0.031494 0.917419
vt -0.037750 0.959503
vt -0.039917 0.989349
vt -0.077759 0.989716
vt -0.325684 0.989929
vt -0.325684 0.968140
vt -0.071472 0.931824
vt -0.073669 0.917786
vt -0.325684 0.917664
vt -0.325684 0.934326
vt -0.074524 0.937805
vt 0.546387 0.718018
vt 0.518066 0.716797
vt 0.498047 0.691650
vt 0.571777 0.696289
vt 0.498047 0.281738
vt 0.571777 0.281738
vt 0.354492 0.717285
vt 0.325439 0.715088
vt 0.306396 0.690918
vt 0.380127 0.695801
vt 0.307129 0.280762
vt 0.381348 0.281250
vt 0.833008 0.281738
vt 0.759277 0.696045
vt 0.758789 0.281738
vt 0.833008 0.691162
vt 0.813965 0.715576
vt 0.784668 0.718018
vt 0.619141 0.696533
vt 0.619629 0.282227
vt 0.693848 0.282227
vt 0.692383 0.691895
vt 0.673828 0.716064
vt 0.644531 0.718262
vt1 0.097290 0.753906
vt1 0.052734 0.751831
vt1 0.071472 0.742432
vt1 0.092163 0.787476
vt1 0.067139 0.792847
vt1 0.048584 0.777466
vt1 0.099243 0.769653
vt1 0.075378 0.742432
vt1 0.093445 0.750732
vt1 0.056488 0.748047
vt1 0.048035 0.766113
vt1 0.053741 0.785034
vt1 0.071838 0.793457
vt1 0.090881 0.787720
vt1 0.045959 0.747803
vt1 0.048309 0.734375
vt1 0.076111 0.729980
vt1 0.033875 0.761841
vt1 0.038727 0.779541
vt1 0.040344 0.793335
vt1 0.070862 0.806152
vt1 0.108154 0.756470
vt1 0.106873 0.742432
vt1 0.113403 0.773804
vt1 0.101318 0.788208
vt1 0.098938 0.801270
vt1 0.039490 0.779663
vt1 0.048492 0.777100
vt1 0.067444 0.792969
vt1 0.052521 0.751831
vt1 0.071472 0.805786
vt1 0.046112 0.747559
vt1 0.092529 0.787476
vt1 0.074951 0.729980
vt1 0.101196 0.788330
vt1 0.071594 0.742188
vt1 0.107910 0.756714
vt1 0.098145 0.754272
vt1 0.022354 0.783691
vt1 0.033722 0.761841
vt1 0.040161 0.792847
vt1 0.048645 0.734375
vt1 0.088379 0.821411
vt1 0.058899 0.714355
vt1 0.069641 0.805908
vt1 0.077271 0.729736
vt1 0.098633 0.801514
vt1 0.107056 0.742920
vt1 0.124878 0.752075
vt1 0.113525 0.773926
vt1 0.082703 0.728027
vt1 0.086731 0.736328
vt1 0.060364 0.735840
vt1 0.105896 0.754761
vt1 0.043396 0.739014
vt1 0.112122 0.750122
vt1 0.041870 0.754761
vt1 0.105347 0.781006
vt1 0.033539 0.772949
vt1 0.110229 0.785522
vt1 0.041351 0.781128
vt1 0.086731 0.800293
vt1 0.050232 0.802246
vt1 0.088684 0.806274
vt1 0.060516 0.799561
vt1 0.032959 0.732178
vt1 0.043304 0.739014
vt1 0.034149 0.773315
vt1 0.083069 0.728271
vt1 0.027344 0.790771
vt1 0.087769 0.718994
vt1 0.050964 0.801758
vt1 0.112183 0.751099
vt1 0.080444 0.821899
vt1 0.128418 0.765259
vt1 0.088562 0.806030
vt1 0.110107 0.785400
vt1 0.093628 0.750854
vt1 0.105957 0.754883
vt1 0.099121 0.769653
vt1 0.086487 0.736084
vt1 0.105408 0.780762
vt1 0.075439 0.742432
vt1 0.090698 0.787964
vt1 0.060486 0.735596
vt1 0.086548 0.800293
vt1 0.056641 0.748047
vt1 0.071777 0.793457
vt1 0.041840 0.755005
vt1 0.060730 0.799683
vt1 0.048096 0.766113
vt1 0.053589 0.784912
vt1 0.041290 0.780884
vt1 -1.408203 -0.648438
vt1 -1.408203 -0.957031
vt1 -1.029297 -0.956055
vt1 -1.021484 -0.648438
vt1 -0.970703 -0.957031
vt1 -0.953613 -0.648438
vt1 -0.899414 -0.956055
vt1 -0.890137 -0.648438
vt1 -0.839844 -0.648438
vt1 -0.834961 -0.956055
vt1 -0.770508 -0.648438
vt1 -0.770996 -0.957031
vt1 -0.704102 -0.957031
vt1 -0.700684 -0.648438
vt1 -0.650391 -0.956055
vt1 -0.646484 -0.648438
vt1 -0.587402 -0.957031
vt1 -0.580566 -0.648438
vt1 -0.517090 -0.956055
vt1 -0.512207 -0.648438
vt1 -0.130493 -0.957031
vt1 -0.130493 -0.648438
vt1 0.478516 -0.523438
vt1 0.510742 -0.561523
vt1 0.480713 -0.521484
vt1 0.508301 -0.563477
vt1 0.478027 -0.523438
vt1 0.512695 -0.566406
vt1 0.513184 -0.563477
vt1 0.515137 -0.564453
vt1 0.509277 -0.565430
vt1 0.474854 -0.525391
vt1 0.502930 -0.563477
vt1 0.507324 -0.567383
vt1 0.511230 -0.571289
vt1 0.517578 -0.575195
vt1 0.520508 -0.567383
vt1 0.521484 -0.576172
vt1 0.520020 -0.564453
vt1 0.517090 -0.563477
vt1 0.518555 -0.512695
vt1 0.521484 -0.512695
vt1 0.522461 -0.512695
vt1 0.528809 -0.512695
vt1 0.527344 -0.567383
vt1 0.529785 -0.512695
vt1 0.527832 -0.576172
vt1 0.527832 -0.564453
vt1 0.532227 -0.512695
vt1 0.530762 -0.563477
vt1 0.532227 -0.564453
vt1 0.534668 -0.567383
vt1 0.534668 -0.564453
vt1 0.537109 -0.562500
vt1 0.538574 -0.566406
vt1 0.535645 -0.572266
vt1 0.540039 -0.569336
vt1 0.544922 -0.564453
vt1 0.575195 -0.529297
vt1 0.572266 -0.526367
vt1 0.539551 -0.564453
vt1 0.571777 -0.526367
vt1 0.569824 -0.524414
vt1 0.551270 -0.509766
vt1 0.520020 -0.469727
vt1 0.548828 -0.511719
vt1 0.522949 -0.468750
vt1 0.551758 -0.508789
vt1 0.518555 -0.464844
vt1 0.518066 -0.467773
vt1 0.515625 -0.467773
vt1 0.521973 -0.465820
vt1 0.555176 -0.506836
vt1 0.528320 -0.468750
vt1 0.523926 -0.463867
vt1 0.520020 -0.459961
vt1 0.512695 -0.455078
vt1 0.511230 -0.463867
vt1 0.504883 -0.454102
vt1 0.511230 -0.466797
vt1 0.514160 -0.467773
vt1 0.510254 -0.518555
vt1 0.507324 -0.518555
vt1 0.506836 -0.518555
vt1 0.504395 -0.463867
vt1 0.500488 -0.518555
vt1 0.499756 -0.518555
vt1 0.503418 -0.466797
vt1 0.496826 -0.517578
vt1 0.500488 -0.466797
vt1 0.499023 -0.465820
vt1 0.496582 -0.464844
vt1 0.492920 -0.463867
vt1 0.495850 -0.458008
vt1 0.491455 -0.461914
vt1 0.486572 -0.465820
vt1 0.454346 -0.500000
vt1 0.457031 -0.501953
vt1 0.491943 -0.466797
vt1 0.494141 -0.467773
vt1 0.457520 -0.502930
vt1 0.459717 -0.504883
vt1 1.032227 0.968689
vt1 1.291992 0.989929
vt1 1.044922 0.989738
vt1 1.005859 0.989349
vt1 1.291992 0.968140
vt1 0.964844 0.949646
vt1 0.966309 0.989494
vt1 0.917969 0.992264
vt1 1.021484 0.938751
vt1 1.291992 0.936951
vt1 0.914062 0.931335
vt1 0.877441 0.990791
vt1 0.970703 0.934204
vt1 1.038086 0.931824
vt1 1.291992 0.931824
vt1 1.291992 0.917664
vt1 1.044922 0.917786
vt1 1.007812 0.917542
vt1 0.966797 0.917908
vt1 0.927246 0.917725
vt1 0.890137 0.917786
vt1 0.863770 0.931763
vt1 0.851562 0.917664
vt1 0.815430 0.954590
vt1 0.851562 0.989380
vt1 0.809570 0.989517
vt1 0.772461 0.989334
vt1 0.799805 0.932556
vt1 0.817871 0.917725
vt1 0.781250 0.917603
vt1 0.744629 0.968475
vt1 0.733887 0.989738
vt1 0.485840 0.989929
vt1 0.485840 0.968109
vt1 0.749023 0.937317
vt1 0.485840 0.936951
vt1 0.735352 0.932434
vt1 0.485840 0.931824
vt1 0.738281 0.917725
vt1 0.485840 0.917664
vt1 0.231934 0.917786
vt1 0.480957 0.917664
vt1 0.231934 0.932434
vt1 0.189209 0.917480
vt1 0.480957 0.934448
vt1 0.167236 0.932556
vt1 0.150879 0.917725
vt1 0.217773 0.937378
vt1 0.480957 0.968109
vt1 0.117798 0.917603
vt1 0.222412 0.968475
vt1 0.480957 0.989929
vt1 0.233643 0.989731
vt1 0.195312 0.989326
vt1 0.151367 0.954681
vt1 0.156494 0.989517
vt1 0.099915 0.986961
vt1 0.104004 0.931519
vt1 0.077087 0.917847
vt1 0.053467 0.930481
vt1 0.036316 0.917664
vt1 0.049622 0.974274
vt1 0.048431 0.989334
vt1 0.001195 0.989487
vt1 -0.003113 0.934204
vt1 0.005447 0.917725
vt1 -0.031494 0.917419
vt1 -0.037750 0.959503
vt1 -0.039917 0.989349
vt1 -0.077759 0.989716
vt1 -0.325684 0.989929
vt1 -0.325684 0.968140
vt1 -0.071472 0.931824
vt1 -0.073669 0.917786
vt1 -0.325684 0.917664
vt1 -0.325684 0.934326
vt1 -0.074524 0.937805
vt1 0.546387 0.718018
vt1 0.518066 0.716797
vt1 0.498047 0.691650
vt1 0.571777 0.696289
vt1 0.498047 0.281738
vt1 0.571777 0.281738
vt1 0.354492 0.717285
vt1 0.325439 0.715088
vt1 0.306396 0.690918
vt1 0.380127 0.695801
vt1 0.307129 0.280762
vt1 0.381348 0.281250
vt1 0.833008 0.281738
vt1 0.759277 0.696045
vt1 0.758789 0.281738
vt1 0.833008 0.691162
vt1 0.813965 0.715576
vt1 0.784668 0.718018
vt1 0.619141 0.696533
vt1 0.619629 0.282227
vt1 0.693848 0.282227
vt1 0.692383 0.691895
vt1 0.673828 0.716064
vt1 0.644531 0.718262
vn 0.000000 0.000000 1.000000
vn 0.000000 0.000000 1.000000
vn 0.000000 0.000000 1.000000
vn 0.000000 0.000000 1.000000
vn 0.000000 0.000000 1.000000
vn 0.000000 0.000000 1.000000
vn 0.000000 -0.000000 -1.000000
vn 0.000000 -0.000000 -1.000000
vn 0.000000 -0.000000 -1.000000
vn 0.000000 -0.000000 -1.000000
vn 0.000000 -0.000000 -1.000000
vn 0.000000 -0.000000 -1.000000
vn 0.000000 -0.000000 -1.000000
vn 0.000000 -0.000000 -1.000000
vn -0.007874 0.015748 1.000000
vn -0.007874 0.015748 1.000000
vn 0.007874 0.015748 1.000000
vn -0.015748 0.007874 1.000000
vn -0.015748 0.000000 1.000000
vn -0.015748 -0.007874 1.000000
vn -0.007874 -0.015748 1.000000
vn 0.015748 0.000000 1.000000
vn 0.015748 0.007874 1.000000
vn 0.015748 -0.007874 1.000000
vn 0.007874 -0.015748 1.000000
vn 0.007874 -0.015748 1.000000
vn -0.921260 0.047244 0.393701
vn -0.921260 0.015748 0.385827
vn -0.559055 -0.732283 0.385827
vn -0.456693 0.803150 0.377953
vn -0.409449 -0.811023 0.425197
vn -0.472441 0.771653 0.425197
vn 0.338583 -0.866142 0.377953
vn 0.409449 0.811024 0.417323
vn 0.472441 -0.771653 0.417323
vn 0.275591 0.874016 0.393701
vn 0.913386 -0.047244 0.409449
vn 0.913386 0.149606 0.370079
vn 0.992126 -0.094488 -0.031496
vn 0.803150 -0.488189 0.346457
vn 0.944882 0.259843 0.196850
vn 0.259843 -0.944882 0.196850
vn 0.118110 0.992126 -0.031496
vn -0.118110 -0.992126 -0.031496
vn 0.425197 0.818898 0.385827
vn -0.417323 -0.826771 0.377953
vn -0.259843 0.944882 0.196850
vn -0.944882 -0.259842 0.196850
vn -0.992126 0.094488 -0.031496
vn -0.803150 0.488189 0.346457
vn -0.007874 0.015748 -1.000000
vn -0.007874 0.015748 -1.000000
vn 0.007874 0.015748 -1.000000
vn -0.015748 0.007874 -1.000000
vn 0.007874 0.015748 -1.000000
vn -0.015748 0.007874 -1.000000
vn 0.015748 0.007874 -1.000000
vn -0.015748 -0.007874 -1.000000
vn 0.015748 -0.000000 -1.000000
vn -0.015748 -0.007874 -1.000000
vn 0.015748 -0.007874 -1.000000
vn -0.007874 -0.015748 -1.000000
vn 0.007874 -0.015748 -1.000000
vn 0.000000 -0.015748 -1.000000
vn 0.007874 -0.015748 -1.000000
vn -0.653543 -0.755905 -0.007874
vn -0.606299 -0.787401 -0.149606
vn -0.992126 -0.015748 -0.141732
vn 0.338583 -0.929134 -0.157480
vn -0.944882 0.322835 -0.000000
vn 0.409449 -0.913386 0.000000
vn -0.669291 0.716535 -0.212598
vn 0.944882 -0.291339 -0.133858
vn -0.023622 1.000000 0.007874
vn 0.992126 0.102362 -0.000000
vn 0.220472 0.937008 -0.267717
vn 0.818898 0.551181 -0.141732
vn -0.771654 0.503937 -0.385827
vn -0.874016 0.220472 -0.425197
vn -0.897638 -0.188976 -0.393701
vn -0.464567 0.771653 -0.425197
vn -0.771654 -0.472441 -0.425197
vn -0.196850 0.897638 -0.393701
vn -0.503937 -0.771653 -0.385827
vn 0.228346 0.874016 -0.425197
vn -0.220472 -0.874016 -0.425197
vn 0.503937 0.771653 -0.385827
vn 0.196850 -0.897638 -0.393701
vn 0.771654 0.472441 -0.425197
vn 0.464567 -0.771653 -0.425197
vn 0.897638 0.188976 -0.393701
vn 0.771654 -0.503937 -0.385827
vn 0.874016 -0.220472 -0.425197
vn 1.000000 0.000000 0.000000
vn 1.000000 0.000000 0.000000
vn 1.000000 0.023622 -0.000000
vn 1.000000 0.047244 -0.000000
vn 0.921260 0.393701 -0.000000
vn 0.874016 0.480315 -0.000000
vn 0.685039 0.724409 -0.000000
vn 0.645669 0.763779 -0.000000
vn 0.401575 0.913386 -0.000000
vn 0.370079 0.929134 -0.000000
vn 0.007874 1.000000 -0.000000
vn 0.007874 1.000000 -0.000000
vn -0.370079 0.929134 -0.000000
vn -0.385827 0.921260 -0.000000
vn -0.637795 0.771653 -0.000000
vn -0.653543 0.755905 -0.000000
vn -0.866142 0.496063 -0.000000
vn -0.881890 0.464567 -0.000000
vn -1.000000 0.047244 -0.000000
vn -1.000000 0.031496 -0.000000
vn -1.000000 0.000000 0.000000
vn -1.000000 0.000000 0.000000
vn 1.000000 0.000000 0.070866
vn 1.000000 -0.023622 0.015748
vn 1.000000 0.000000 0.015748
vn 0.984252 -0.023622 0.149606
vn 0.110236 0.000000 0.992126
vn 0.314961 -0.944882 0.110236
vn 0.464567 -0.881890 -0.007874
vn -0.299213 -0.952756 0.015748
vn 0.055118 0.000000 1.000000
vn 0.007874 0.000000 1.000000
vn 0.039370 0.000000 1.000000
vn 0.000000 0.000000 1.000000
vn 0.000000 0.000000 1.000000
vn 0.000000 0.000000 1.000000
vn -0.023622 0.007874 1.000000
vn 0.000000 0.000000 1.000000
vn -0.992126 -0.078740 0.102362
vn -1.000000 -0.070866 0.015748
vn -1.000000 0.000000 0.015748
vn -0.992126 0.000000 0.102362
vn -0.070866 0.000000 1.000000
vn 0.015748 0.000000 1.000000
vn 0.055118 0.007874 1.000000
vn 0.992126 0.000000 0.110236
vn 0.007874 0.000000 1.000000
vn 0.992126 -0.086614 0.102362
vn 1.000000 0.000000 0.015748
vn 1.000000 -0.078740 0.015748
vn 0.299213 -0.952756 0.015748
vn -0.314961 -0.944882 0.110236
vn -0.464567 -0.889764 -0.007874
vn -1.000000 -0.047244 0.015748
vn -0.055118 0.000000 1.000000
vn 0.000000 0.000000 1.000000
vn 0.000000 0.000000 1.000000
vn -0.039370 0.000000 1.000000
vn -0.007874 0.000000 1.000000
vn -0.110236 0.000000 0.992126
vn -0.992126 -0.015748 0.110236
vn -0.992126 0.000000 0.102362
vn -1.000000 0.000000 0.015748
vn -1.000000 -0.000000 -0.070866
vn -1.000000 -0.023622 -0.015748
vn -1.000000 -0.000000 -0.015748
vn -0.984252 -0.023622 -0.149606
vn -0.110236 -0.000000 -0.992126
vn -0.314961 -0.944882 -0.110236
vn -0.464567 -0.881890 0.007874
vn 0.299213 -0.952756 -0.015748
vn -0.055118 -0.000000 -1.000000
vn -0.007874 -0.000000 -1.000000
vn -0.039370 -0.000000 -1.000000
vn 0.000000 -0.000000 -1.000000
vn 0.000000 -0.000000 -1.000000
vn 0.000000 -0.000000 -1.000000
vn 0.023622 0.007874 -1.000000
vn -0.007874 -0.000000 -1.000000
vn 0.992126 -0.086614 -0.102362
vn 1.000000 -0.070866 -0.015748
vn 1.000000 -0.000000 -0.015748
vn 0.976378 -0.000000 -0.212598
vn 0.015748 -0.000000 -1.000000
vn -0.047244 0.007874 -1.000000
vn -0.015748 -0.000000 -1.000000
vn -0.992126 -0.000000 -0.110236
vn -0.992126 -0.086614 -0.102362
vn -1.000000 -0.000000 -0.015748
vn -1.000000 -0.078740 -0.015748
vn -0.299213 -0.952756 -0.015748
vn 0.330709 -0.937008 0.102362
vn 0.055118 -0.000000 -1.000000
vn 0.000000 -0.000000 -1.000000
vn 0.000000 -0.000000 -1.000000
vn 0.039370 -0.000000 -1.000000
vn 0.007874 -0.000000 -1.000000
vn 0.110236 -0.000000 -0.992126
vn 0.992126 -0.015748 -0.110236
vn 1.000000 -0.047244 -0.015748
vn 0.992126 -0.000000 -0.102362
vn 1.000000 -0.000000 -0.015748
vn -0.480315 -0.023622 0.874016
vn -0.748031 0.000000 0.661417
vn -0.685039 -0.023622 0.732283
vn -0.677165 -0.283464 0.677165
vn -0.299213 0.000000 0.952756
vn -0.062992 -0.086614 0.992126
vn -0.480315 -0.559055 0.677165
vn -0.259843 -0.763779 0.598425
vn 0.094488 0.000000 0.992126
vn 0.118110 0.000000 0.992126
vn 0.165354 0.708661 0.685039
vn 0.125984 -0.748031 0.653543
vn 0.700787 0.685039 0.173228
vn 0.984252 0.047244 0.188976
vn 0.984252 0.000000 0.181102
vn 1.000000 0.000000 0.000000
vn 1.000000 0.031496 -0.000000
vn 0.921260 0.393701 -0.000000
vn 0.685039 0.724409 -0.000000
vn 0.370079 0.929134 -0.000000
vn 0.015748 1.000000 -0.031496
vn -0.228346 0.842520 0.496063
vn -0.370079 0.929134 -0.000000
vn 0.110236 -0.125984 0.984252
vn 0.299213 -0.716535 0.629921
vn 0.496063 -0.535433 0.677165
vn 0.677165 -0.283464 0.677165
vn -0.716535 0.614173 0.338583
vn -0.637795 0.771653 -0.000000
vn -0.866142 0.496063 0.015748
vn 0.488189 -0.023622 0.874016
vn 0.685039 -0.023622 0.732283
vn 0.748031 0.000000 0.661417
vn 0.299213 0.000000 0.952756
vn -0.133858 0.007874 0.992126
vn -0.118110 0.000000 0.992126
vn -0.984252 0.039370 0.181102
vn -0.984252 0.000000 0.181102
vn -1.000000 0.039370 -0.000000
vn -1.000000 0.000000 0.000000
vn -1.000000 0.031496 -0.000000
vn -1.000000 0.000000 0.000000
vn -0.984252 0.039370 -0.181102
vn -0.889764 0.464567 -0.007874
vn -0.559055 -0.000000 -0.834646
vn -0.716535 0.614173 -0.338583
vn -0.653543 0.755905 -0.000000
vn -0.133858 0.007874 -0.992126
vn 0.299213 -0.000000 -0.952756
vn -0.393701 0.921260 -0.000000
vn 0.488189 -0.023622 -0.874016
vn 0.748031 -0.000000 -0.661417
vn 0.685039 -0.023622 -0.732283
vn 0.677165 -0.283465 -0.677165
vn 0.110236 -0.125984 -0.984252
vn 0.496063 -0.535433 -0.677165
vn 0.173228 -0.716535 -0.677165
vn -0.236220 0.850394 -0.480315
vn 0.015748 1.000000 0.047244
vn 0.173228 0.724409 -0.669291
vn 0.401575 0.913386 -0.000000
vn -0.196850 -0.551181 -0.811023
vn -0.236220 -0.748031 -0.614173
vn -0.480315 -0.559055 -0.677165
vn 0.551181 0.566929 -0.614173
vn 0.645669 0.763779 -0.000000
vn 0.874016 0.488189 0.007874
vn -0.322835 -0.031496 -0.944882
vn -0.677165 -0.283465 -0.677165
vn -0.685039 -0.023622 -0.732283
vn -0.748031 -0.000000 -0.661417
vn -0.299213 -0.000000 -0.952756
vn 0.984252 0.047244 -0.188976
vn 1.000000 0.039370 -0.000000
vn 1.000000 0.000000 0.000000
vn 0.574803 -0.000000 -0.818897
vn 0.118110 0.007874 -0.992126
vn 0.000000 -0.000000 -1.000000
vn 0.000000 -0.000000 -1.000000
vn 0.000000 -0.000000 -1.000000
vn 0.000000 -0.000000 -1.000000
vn 0.000000 -0.000000 -1.000000
vn 0.000000 -0.000000 -1.000000
vn 0.000000 0.000000 1.000000
vn 0.000000 0.000000 1.000000
vn 0.000000 0.000000 1.000000
vn 0.000000 0.000000 1.000000
vn 0.000000 0.000000 1.000000
vn 0.000000 0.000000 1.000000
vn 0.000000 -0.000000 -1.000000
vn 0.000000 -0.000000 -1.000000
vn 0.000000 -0.000000 -1.000000
vn 0.000000 -0.000000 -1.000000
vn 0.000000 -0.000000 -1.000000
vn 0.000000 -0.000000 -1.000000
vn 0.000000 0.000000 1.000000
vn 0.000000 0.000000 1.000000
vn 0.000000 0.000000 1.000000
vn 0.000000 0.000000 1.000000
vn 0.000000 0.000000 1.000000
vn 0.000000 0.000000 1.000000
tan -0.385827 -0.921260 0.000000 1.000000
tan -0.385827 -0.921260 0.000000 1.000000
tan -0.385827 -0.921260 0.000000 1.000000
tan -0.385827 -0.921260 0.000000 1.000000
tan -0.385827 -0.921260 0.000000 1.000000
tan -0.385827 -0.921260 0.000000 1.000000
tan 0.141732 -0.992126 0.000000 1.000000
tan 0.141732 -0.992126 0.000000 1.000000
tan 0.141732 -0.992126 0.000000 1.000000
tan 0.141732 -0.992126 0.000000 1.000000
tan 0.141732 -0.992126 0.000000 1.000000
tan 0.141732 -0.992126 0.000000 1.000000
tan 0.141732 -0.992126 0.000000 1.000000
tan 0.141732 -0.992126 0.000000 1.000000
tan -0.440945 -0.897638 0.010664 1.000000
tan -0.448819 -0.897638 0.010602 1.000000
tan -0.377953 -0.929134 0.017608 1.000000
tan -0.401575 -0.913386 0.000868 1.000000
tan -0.338583 -0.944882 -0.005332 1.000000
tan -0.322835 -0.944882 -0.012524 1.000000
tan -0.377953 -0.929134 -0.017608 1.000000
tan -0.338583 -0.937008 0.005332 1.000000
tan -0.322835 -0.944882 0.012524 1.000000
tan -0.401575 -0.913386 -0.000868 1.000000
tan -0.440945 -0.897638 -0.010664 1.000000
tan -0.440945 -0.897638 -0.010664 1.000000
tan -0.303925 -0.651869 -0.632959 1.000000
tan -0.258231 -0.704817 -0.587823 1.000000
tan 0.321905 -0.619691 -0.709715 1.000000
tan -0.655093 -0.591853 0.466117 1.000000
tan 0.201004 -0.514973 -0.788703 1.000000
tan -0.622481 -0.630913 0.453345 1.000000
tan -0.598053 -0.505115 -0.621799 1.000000
tan 0.216938 -0.513733 0.785542 1.000000
tan -0.616467 -0.629177 -0.465497 1.000000
tan -0.061938 -0.374171 0.874016 1.000000
tan -0.312233 -0.663153 0.620001 1.000000
tan -0.124682 -0.685969 0.585033 1.000000
tan -0.085808 -0.968690 0.203112 1.000000
tan -0.501829 -0.814061 0.016244 1.000000
tan 0.136152 -0.831731 0.444355 1.000000
tan -0.721681 -0.325563 -0.610081 1.000000
tan -0.124992 0.046128 0.984314 1.000000
tan -0.117180 0.045198 -0.984314 1.000000
tan 0.180916 -0.473805 0.806249 1.000000
tan 0.182838 -0.464319 -0.813813 1.000000
tan -0.721681 -0.325563 0.610081 1.000000
tan 0.136152 -0.831732 -0.444355 1.000000
tan -0.085808 -0.968690 -0.203112 1.000000
tan -0.501829 -0.814061 -0.016244 1.000000
tan 0.110236 -0.992126 -0.016492 1.000000
tan 0.094488 -0.992126 -0.016368 1.000000
tan 0.196850 -0.984252 -0.013950 1.000000
tan 0.094488 -0.992126 -0.009300 1.000000
tan 0.212598 -0.976378 -0.013702 1.000000
tan 0.094488 -0.992126 -0.009300 1.000000
tan 0.188976 -0.984252 -0.004774 1.000000
tan 0.188976 -0.984252 0.004774 1.000000
tan 0.125984 -0.992126 0.001984 1.000000
tan 0.188976 -0.984252 0.004774 1.000000
tan 0.094488 -0.992126 0.009300 1.000000
tan 0.196850 -0.984252 0.013950 1.000000
tan 0.078740 -1.000000 0.016368 1.000000
tan 0.196850 -0.984252 0.015500 1.000000
tan 0.094488 -0.992126 0.016368 1.000000
tan 0.749582 -0.649513 0.138012 1.000000
tan 0.765267 -0.623783 0.181722 1.000000
tan 0.040052 -0.976502 -0.171864 1.000000
tan -0.343853 -0.271622 0.863290 1.000000
tan -0.312667 -0.915122 -0.228098 1.000000
tan -0.568169 -0.254696 0.712009 1.000000
tan -0.673259 -0.701531 -0.244900 1.000000
tan -0.261455 -0.927894 0.173972 1.000000
tan 0.094488 0.010044 -0.992126 1.000000
tan 0.102362 -0.992126 0.062496 1.000000
tan 0.450059 -0.339885 -0.818959 1.000000
tan 0.543369 -0.817782 -0.040796 1.000000
tan -0.351603 -0.756463 -0.284828 1.000000
tan 0.028396 -0.743444 -0.443859 1.000000
tan 0.210676 -0.897638 -0.049476 1.000000
tan -0.406473 -0.606981 -0.657449 1.000000
tan 0.415153 -0.768925 0.100936 1.000000
tan -0.021204 -0.398351 -0.897638 1.000000
tan 0.586335 -0.631905 0.497985 1.000000
tan 0.227106 -0.471139 -0.846488 1.000000
tan 0.220224 -0.467357 0.846488 1.000000
tan 0.586335 -0.634943 -0.504061 1.000000
tan -0.021204 -0.398351 0.897638 1.000000
tan 0.415153 -0.768925 -0.100936 1.000000
tan -0.406473 -0.606981 0.657449 1.000000
tan 0.213776 -0.897638 0.056544 1.000000
tan -0.351603 -0.756463 0.284829 1.000000
tan 0.028396 -0.743443 0.443859 1.000000
tan 0.000000 0.000000 1.000000 1.000000
tan 0.000000 0.000000 1.000000 1.000000
tan 0.000000 0.000000 1.000000 1.000000
tan 0.000000 0.000000 1.000000 1.000000
tan 0.000000 0.000000 0.924360 1.000000
tan 0.000000 0.000000 0.892926 1.000000
tan 0.000000 0.000000 0.995598 1.000000
tan 0.000000 0.000000 0.956910 1.000000
tan 0.000000 0.000000 0.919710 1.000000
tan 0.000000 0.000000 0.932048 1.000000
tan 0.000000 0.000000 1.000000 1.000000
tan 0.000000 0.000000 1.000000 1.000000
tan 0.000000 0.000000 0.932048 1.000000
tan 0.000000 0.000000 0.924298 1.000000
tan 0.000000 0.000000 0.947982 1.000000
tan 0.000000 0.000000 0.967512 1.000000
tan 0.000000 0.000000 0.885672 1.000000
tan 0.000000 0.000000 0.889206 1.000000
tan 0.000000 0.000000 1.000000 1.000000
tan 0.000000 0.000000 1.000000 1.000000
tan 0.000000 0.000000 1.000000 1.000000
tan 0.000000 0.000000 1.000000 1.000000
tan -0.044640 0.779527 0.629921 1.000000
tan 0.008928 0.787401 0.614173 1.000000
tan -0.009424 0.803150 0.598425 1.000000
tan -0.100378 0.627751 0.759501 1.000000
tan -0.687457 0.710893 0.076384 1.000000
tan 0.596069 0.284333 0.734081 1.000000
tan 0.666749 0.346023 0.583669 1.000000
tan -0.262571 0.097588 0.915246 1.000000
tan -0.559055 0.834646 0.030814 1.000000
tan -0.637795 0.771653 0.005022 1.000000
tan -0.606299 0.795275 0.023870 1.000000
tan -0.393701 0.921260 -0.000000 1.000000
tan -0.110236 0.992126 -0.000000 1.000000
tan -0.031496 1.000000 -0.000000 1.000000
tan 0.055118 1.000000 -0.006572 1.000000
tan 0.023622 1.000000 -0.000000 1.000000
tan -0.055924 0.968690 0.203112 1.000000
tan -0.068076 0.992126 0.141732 1.000000
tan 0.000496 1.000000 0.031496 1.000000
tan 0.003224 0.992126 0.031248 1.000000
tan 0.047244 1.000000 0.003348 1.000000
tan 0.039370 1.000000 -0.000620 1.000000
tan 0.023622 1.000000 -0.009176 1.000000
tan 0.006076 0.992126 -0.054684 1.000000
tan 0.047244 1.000000 -0.000372 1.000000
tan 0.082584 0.992126 0.039060 1.000000
tan 0.000620 1.000000 -0.039370 1.000000
tan 0.077500 1.000000 0.078740 1.000000
tan 0.322587 0.116064 0.892740 1.000000
tan -0.566309 0.277017 0.756401 1.000000
tan -0.623659 0.319921 0.644863 1.000000
tan -0.024428 0.740157 0.669291 1.000000
tan 0.614173 0.795275 0.033852 1.000000
tan 0.165354 0.984252 -0.000000 1.000000
tan 0.456693 0.889764 -0.000000 1.000000
tan 0.661417 0.755905 0.026040 1.000000
tan 0.685039 0.724409 0.005394 1.000000
tan 0.734329 0.671833 0.081592 1.000000
tan 0.073036 0.648397 0.749953 1.000000
tan 0.070928 0.710893 0.687457 1.000000
tan 0.010168 0.763779 0.645669 1.000000
tan -0.042408 -0.803149 0.598425 1.000000
tan 0.009982 -0.811023 0.582677 1.000000
tan -0.008928 -0.826771 0.566929 1.000000
tan -0.096286 -0.651001 0.736251 1.000000
tan -0.664021 -0.734329 0.073780 1.000000
tan 0.610949 -0.287556 0.719201 1.000000
tan 0.680637 -0.353525 0.562837 1.000000
tan -0.217558 -0.083700 0.930250 1.000000
tan -0.527559 -0.850394 0.029078 1.000000
tan -0.606299 -0.795275 0.004774 1.000000
tan -0.574803 -0.818897 0.022630 1.000000
tan -0.362205 -0.929134 0.000000 1.000000
tan -0.062992 -1.000000 0.000000 1.000000
tan 0.047244 -1.000000 0.000000 1.000000
tan 0.110236 -0.992126 -0.005208 1.000000
tan 0.070866 -1.000000 -0.000558 1.000000
tan -0.058900 -0.960878 0.242173 1.000000
tan -0.066898 -0.984252 0.181102 1.000000
tan 0.001116 -1.000000 0.070866 1.000000
tan 0.036828 -0.962676 0.169136 1.000000
tan 0.078740 -1.000000 0.001240 1.000000
tan 0.086614 -1.000000 -0.011966 1.000000
tan 0.078740 -1.000000 -0.001240 1.000000
tan 0.012152 -0.984314 -0.109368 1.000000
tan 0.087420 -0.992126 -0.007812 1.000000
tan 0.001116 -1.000000 -0.070866 1.000000
tan 0.078120 -1.000000 0.039370 1.000000
tan 0.367599 -0.129952 0.877736 1.000000
tan -0.618947 -0.142166 0.698307 1.000000
tan 0.645669 -0.763779 0.035588 1.000000
tan 0.204724 -0.976378 0.000000 1.000000
tan 0.496063 -0.866142 0.000000 1.000000
tan 0.692913 -0.724409 0.027280 1.000000
tan 0.724409 -0.692913 0.005704 1.000000
tan 0.757766 -0.632773 0.084196 1.000000
tan 0.076136 -0.617149 0.773389 1.000000
tan -0.022320 -0.708661 0.708661 1.000000
tan 0.074958 -0.679645 0.726517 1.000000
tan 0.010788 -0.732283 0.685039 1.000000
tan 0.874016 0.020646 0.480873 1.000000
tan 0.661417 0.000000 0.748031 1.000000
tan 0.732283 0.005766 0.685225 1.000000
tan 0.671833 0.095976 0.712009 1.000000
tan 0.952756 0.000000 0.299213 1.000000
tan 0.695269 0.703081 0.105524 1.000000
tan 0.405233 0.538533 0.732035 1.000000
tan 0.014136 0.598425 0.769917 1.000000
tan 0.984314 0.093744 -0.093744 1.000000
tan 0.992126 -0.000000 -0.118110 1.000000
tan 0.005394 0.685039 -0.709963 1.000000
tan -0.015438 0.653543 0.751007 1.000000
tan 0.135036 0.109120 -0.977804 1.000000
tan 0.188976 -0.000000 -0.984252 1.000000
tan 0.181102 -0.000000 -0.984252 1.000000
tan 0.000000 -0.000000 -1.000000 1.000000
tan 0.000000 -0.000000 -1.000000 1.000000
tan 0.000000 -0.000000 -0.924360 1.000000
tan 0.000000 -0.000000 -0.994668 1.000000
tan 0.000000 -0.000000 -0.932048 1.000000
tan 0.000000 -0.031496 -1.000000 1.000000
tan -0.011718 0.496063 -0.847914 1.000000
tan 0.000000 -0.000000 -0.932048 1.000000
tan -0.635501 0.751751 0.167400 1.000000
tan -0.074400 0.624961 0.746233 1.000000
tan -0.453221 0.506541 0.732531 1.000000
tan -0.671833 0.095976 0.712009 1.000000
tan -0.309257 0.138632 -0.905946 1.000000
tan 0.000000 -0.000000 -0.953004 1.000000
tan -0.015748 0.000496 -0.881766 1.000000
tan -0.874016 0.020646 0.488747 1.000000
tan -0.732283 0.005766 0.685225 1.000000
tan -0.661417 0.000000 0.748031 1.000000
tan -0.952756 0.000000 0.299213 1.000000
tan -0.992126 0.062496 -0.134354 1.000000
tan -0.992126 -0.000000 -0.118110 1.000000
tan -0.181102 -0.000000 -0.984252 1.000000
tan -0.181102 -0.000000 -0.984252 1.000000
tan 0.000000 -0.000000 -1.000000 1.000000
tan 0.000000 -0.000000 -1.000000 1.000000
tan 0.000000 0.000000 1.000000 1.000000
tan 0.000000 0.000000 1.000000 1.000000
tan -0.181102 0.000000 0.984252 1.000000
tan -0.007874 0.000186 0.900738 1.000000
tan -0.834646 0.000000 0.559055 1.000000
tan -0.311923 0.133300 0.901916 1.000000
tan 0.000000 0.000000 0.961560 1.000000
tan -0.992126 0.062496 0.134354 1.000000
tan -0.952756 -0.000000 -0.299213 1.000000
tan 0.000000 0.000000 0.924360 1.000000
tan -0.874016 0.020646 -0.488747 1.000000
tan -0.661417 -0.000000 -0.748031 1.000000
tan -0.732283 0.005766 -0.685225 1.000000
tan -0.671833 0.095976 -0.712009 1.000000
tan -0.635501 0.751751 -0.167400 1.000000
tan -0.453221 0.506541 -0.732531 1.000000
tan -0.010664 0.677165 -0.719263 1.000000
tan -0.011346 0.480315 0.855974 1.000000
tan 0.000000 -0.047244 1.000000 1.000000
tan 0.005270 0.669291 0.725773 1.000000
tan 0.000000 0.000000 0.919710 1.000000
tan 0.044702 0.811023 -0.562031 1.000000
tan 0.019344 0.614173 -0.755471 1.000000
tan 0.405233 0.538533 -0.732035 1.000000
tan 0.459421 0.406225 0.787277 1.000000
tan 0.000000 0.000000 0.956910 1.000000
tan -0.007874 -0.000248 0.889392 1.000000
tan 0.937442 0.111600 -0.324013 1.000000
tan 0.671833 0.095976 -0.712009 1.000000
tan 0.732283 0.005766 -0.685225 1.000000
tan 0.661417 -0.000000 -0.748031 1.000000
tan 0.952756 -0.000000 -0.299213 1.000000
tan 0.188976 0.000000 0.984252 1.000000
tan 0.000000 0.000000 1.000000 1.000000
tan 0.000000 0.000000 1.000000 1.000000
tan 0.818898 0.000000 0.574803 1.000000
tan 0.992126 0.046872 0.118482 1.000000
tan 0.000000 -1.000000 0.000000 1.000000
tan 0.000000 -1.000000 0.000000 1.000000
tan 0.000000 -1.000000 0.000000 1.000000
tan 0.000000 -1.000000 0.000000 1.000000
tan 0.000000 -1.000000 0.000000 1.000000
tan 0.000000 -1.000000 0.000000 1.000000
tan 0.000000 -1.000000 0.000000 1.000000
tan 0.000000 -1.000000 0.000000 1.000000
tan 0.000000 -1.000000 0.000000 1.000000
tan 0.000000 -1.000000 0.000000 1.000000
tan 0.000000 -1.000000 0.000000 1.000000
tan 0.000000 -1.000000 0.000000 1.000000
tan 0.000000 -1.000000 0.000000 1.000000
tan 0.000000 -1.000000 0.000000 1.000000
tan 0.000000 -1.000000 0.000000 1.000000
tan 0.000000 -1.000000 0.000000 1.000000
tan 0.000000 -1.000000 0.000000 1.000000
tan 0.000000 -1.000000 0.000000 1.000000
tan 0.000000 -1.000000 0.000000 1.000000
tan 0.000000 -1.000000 0.000000 1.000000
tan 0.000000 -1.000000 0.000000 1.000000
tan 0.000000 -1.000000 0.000000 1.000000
tan 0.000000 -1.000000 0.000000 1.000000
tan 0.000000 -1.000000 0.000000 1.000000
f 3/3/3 2/2/2 1/1/1
f 1/1/1 2/2/2 4/4/4
f 5/5/5 4/4/4 2/2/2
f 5/5/5 2/2/2 6/6/6
f 9/9/9 8/8/8 7/7/7
f 8/8/8 10/10/10 7/7/7
f 11/11/11 7/7/7 10/10/10
f 11/11/11 12/12/12 7/7/7
f 13/13/13 7/7/7 12/12/12
f 14/14/14 7/7/7 13/13/13
f 17/17/17 16/16/16 15/15/15
f 16/16/16 18/18/18 15/15/15
f 15/15/15 18/18/18 19/19/19
f 18/18/18 20/20/20 19/19/19
f 20/20/20 21/21/21 19/19/19
f 23/23/23 17/17/17 22/22/22
f 24/24/24 23/23/23 22/22/22
f 25/25/25 24/24/24 22/22/22
f 21/21/21 26/26/26 25/25/25
f 26/26/26 24/24/24 25/25/25
f 29/29/29 28/28/28 27/27/27
f 30/30/30 27/27/27 28/28/28
f 31/31/31 29/29/29 27/27/27
f 32/32/32 27/27/27 30/30/30
f 29/29/29 31/31/31 33/33/33
f 32/32/32 30/30/30 34/34/34
f 35/35/35 33/33/33 31/31/31
f 36/36/36 34/34/34 30/30/30
f 35/35/35 37/37/37 33/33/33
f 36/36/36 38/38/38 34/34/34
f 33/33/33 37/37/37 38/38/38
f 34/34/34 38/38/38 37/37/37
f 41/41/41 40/40/40 39/39/39
f 39/39/39 40/40/40 42/42/42
f 41/41/41 39/39/39 43/43/43
f 42/42/42 44/44/44 39/39/39
f 43/43/43 45/45/45 41/41/41
f 42/42/42 46/46/46 44/44/44
f 47/47/47 45/45/45 43/43/43
f 44/44/44 46/46/46 48/48/48
f 47/47/47 43/43/43 49/49/49
f 48/48/48 49/49/49 44/44/44
f 49/49/49 50/50/50 47/47/47
f 48/48/48 50/50/50 49/49/49
f 53/53/53 52/52/52 51/51/51
f 52/52/52 54/54/54 51/51/51
f 55/55/55 53/53/53 51/51/51
f 56/56/56 51/51/51 54/54/54
f 57/57/57 53/53/53 55/55/55
f 54/54/54 58/58/58 56/56/56
f 55/55/55 59/59/59 57/57/57
f 60/60/60 56/56/56 58/58/58
f 61/61/61 57/57/57 59/59/59
f 58/58/58 62/62/62 60/60/60
f 63/63/63 61/61/61 59/59/59
f 64/64/64 60/60/60 62/62/62
f 65/65/65 61/61/61 63/63/63
f 62/62/62 65/65/65 64/64/64
f 63/63/63 64/64/64 65/65/65
f 68/68/68 67/67/67 66/66/66
f 69/69/69 66/66/66 67/67/67
f 66/66/66 70/70/70 68/68/68
f 71/71/71 66/66/66 69/69/69
f 68/68/68 70/70/70 72/72/72
f 69/69/69 73/73/73 71/71/71
f 70/70/70 74/74/74 72/72/72
f 75/75/75 71/71/71 73/73/73
f 76/76/76 72/72/72 74/74/74
f 73/73/73 77/77/77 75/75/75
f 76/76/76 74/74/74 77/77/77
f 75/75/75 77/77/77 74/74/74
f 80/80/80 79/79/79 78/78/78
f 81/81/81 78/78/78 79/79/79
f 82/82/82 79/79/79 80/80/80
f 81/81/81 83/83/83 78/78/78
f 82/82/82 80/80/80 84/84/84
f 81/81/81 85/85/85 83/83/83
f 82/82/82 84/84/84 86/86/86
f 83/83/83 85/85/85 87/87/87
f 88/88/88 86/86/86 84/84/84
f 89/89/89 87/87/87 85/85/85
f 90/90/90 86/86/86 88/88/88
f 89/89/89 91/91/91 87/87/87
f 90/90/90 88/88/88 92/92/92
f 89/89/89 93/93/93 91/91/91
f 90/90/90 92/92/92 93/93/93
f 91/91/91 93/93/93 92/92/92
f 96/96/96 95/95/95 94/94/94
f 94/94/94 97/97/97 96/96/96
f 96/96/96 97/97/97 98/98/98
f 99/99/99 98/98/98 97/97/97
f 100/100/100 98/98/98 99/99/99
f 101/101/101 100/100/100 99/99/99
f 102/102/102 100/100/100 101/101/101
f 103/103/103 100/100/100 102/102/102
f 104/104/104 103/103/103 102/102/102
f 105/105/105 103/103/103 104/104/104
f 105/105/105 104/104/104 106/106/106
f 107/107/107 106/106/106 104/104/104
f 106/106/106 107/107/107 108/108/108
f 109/109/109 108/108/108 107/107/107
f 108/108/108 109/109/109 110/110/110
f 111/111/111 110/110/110 109/109/109
f 110/110/110 111/111/111 112/112/112
f 113/113/113 112/112/112 111/111/111
f 112/112/112 113/113/113 114/114/114
f 115/115/115 114/114/114 113/113/113
f 118/118/118 117/117/117 116/116/116
f 119/119/119 116/116/116 117/117/117
f 120/120/120 116/116/116 119/119/119
f 121/121/121 119/119/119 117/117/117
f 117/117/117 122/122/122 121/121/121
f 122/122/122 123/123/123 121/121/121
f 124/124/124 120/120/120 119/119/119
f 121/121/121 124/124/124 119/119/119
f 120/120/120 124/124/124 125/125/125
f 126/126/126 125/125/125 124/124/124
f 126/126/126 124/124/124 127/127/127
f 128/128/128 127/127/127 124/124/124
f 128/128/128 124/124/124 129/129/129
f 130/130/130 129/129/129 124/124/124
f 121/121/121 130/130/130 124/124/124
f 131/131/131 129/129/129 130/130/130
f 132/132/132 121/121/121 123/123/123
f 132/132/132 130/130/130 121/121/121
f 123/123/123 133/133/133 132/132/132
f 132/132/132 133/133/133 134/134/134
f 134/134/134 135/135/135 132/132/132
f 135/135/135 136/136/136 132/132/132
f 130/130/130 132/132/132 136/136/136
f 137/137/137 130/130/130 136/136/136
f 138/138/138 130/130/130 137/137/137
f 130/130/130 138/138/138 131/131/131
f 139/139/139 138/138/138 137/137/137
f 138/138/138 140/140/140 131/131/131
f 141/141/141 138/138/138 139/139/139
f 141/141/141 139/139/139 142/142/142
f 141/141/141 142/142/142 143/143/143
f 144/144/144 141/141/141 143/143/143
f 141/141/141 144/144/144 145/145/145
f 141/141/141 145/145/145 138/138/138
f 146/146/146 145/145/145 144/144/144
f 147/147/147 145/145/145 146/146/146
f 138/138/138 148/148/148 140/140/140
f 148/148/148 138/138/138 145/145/145
f 140/140/140 148/148/148 149/149/149
f 150/150/150 149/149/149 148/148/148
f 151/151/151 150/150/150 148/148/148
f 151/151/151 148/148/148 152/152/152
f 153/153/153 152/152/152 148/148/148
f 145/145/145 154/154/154 148/148/148
f 148/148/148 154/154/154 153/153/153
f 145/145/145 147/147/147 154/154/154
f 155/155/155 153/153/153 154/154/154
f 156/156/156 154/154/154 147/147/147
f 155/155/155 154/154/154 156/156/156
f 159/159/159 158/158/158 157/157/157
f 160/160/160 157/157/157 158/158/158
f 157/157/157 160/160/160 161/161/161
f 162/162/162 160/160/160 158/158/158
f 158/158/158 163/163/163 162/162/162
f 164/164/164 162/162/162 163/163/163
f 165/165/165 161/161/161 160/160/160
f 162/162/162 165/165/165 160/160/160
f 161/161/161 165/165/165 166/166/166
f 167/167/167 166/166/166 165/165/165
f 167/167/167 165/165/165 168/168/168
f 168/168/168 165/165/165 169/169/169
f 170/170/170 169/169/169 165/165/165
f 171/171/171 170/170/170 165/165/165
f 165/165/165 162/162/162 171/171/171
f 172/172/172 170/170/170 171/171/171
f 173/173/173 162/162/162 164/164/164
f 173/173/173 171/171/171 162/162/162
f 164/164/164 174/174/174 173/173/173
f 175/175/175 173/173/173 174/174/174
f 173/173/173 175/175/175 176/176/176
f 176/176/176 171/171/171 173/173/173
f 176/176/176 177/177/177 171/171/171
f 178/178/178 171/171/171 177/177/177
f 172/172/172 171/171/171 178/178/178
f 177/177/177 179/179/179 178/178/178
f 179/179/179 180/180/180 178/178/178
f 181/181/181 178/178/178 180/180/180
f 182/182/182 181/181/181 180/180/180
f 182/182/182 183/183/183 181/181/181
f 184/184/184 181/181/181 183/183/183
f 181/181/181 184/184/184 185/185/185
f 181/181/181 185/185/185 178/178/178
f 186/186/186 172/172/172 178/178/178
f 185/185/185 186/186/186 178/178/178
f 172/172/172 186/186/186 187/187/187
f 187/187/187 186/186/186 188/188/188
f 189/189/189 188/188/188 186/186/186
f 189/189/189 186/186/186 190/190/190
f 191/191/191 190/190/190 186/186/186
f 185/185/185 192/192/192 186/186/186
f 192/192/192 191/191/191 186/186/186
f 185/185/185 193/193/193 192/192/192
f 191/191/191 192/192/192 194/194/194
f 195/195/195 192/192/192 193/193/193
f 195/195/195 194/194/194 192/192/192
f 198/198/198 197/197/197 196/196/196
f 198/198/198 196/196/196 199/199/199
f 200/200/200 196/196/196 197/197/197
f 201/201/201 199/199/199 196/196/196
f 202/202/202 199/199/199 201/201/201
f 202/202/202 201/201/201 203/203/203
f 196/196/196 200/200/200 204/204/204
f 201/201/201 196/196/196 204/204/204
f 205/205/205 204/204/204 200/200/200
f 201/201/201 206/206/206 203/203/203
f 206/206/206 207/207/207 203/203/203
f 201/201/201 204/204/204 208/208/208
f 208/208/208 206/206/206 201/201/201
f 204/204/204 205/205/205 209/209/209
f 209/209/209 208/208/208 204/204/204
f 210/210/210 209/209/209 205/205/205
f 210/210/210 211/211/211 209/209/209
f 212/212/212 209/209/209 211/211/211
f 209/209/209 212/212/212 213/213/213
f 209/209/209 213/213/213 208/208/208
f 208/208/208 213/213/213 214/214/214
f 208/208/208 214/214/214 215/215/215
f 206/206/206 208/208/208 215/215/215
f 206/206/206 215/215/215 216/216/216
f 206/206/206 216/216/216 217/217/217
f 207/207/207 206/206/206 217/217/217
f 218/218/218 217/217/217 216/216/216
f 217/217/217 219/219/219 207/207/207
f 207/207/207 219/219/219 220/220/220
f 219/219/219 221/221/221 220/220/220
f 222/222/222 221/221/221 219/219/219
f 217/217/217 218/218/218 223/223/223
f 223/223/223 219/219/219 217/217/217
f 224/224/224 223/223/223 218/218/218
f 224/224/224 225/225/225 223/223/223
f 219/219/219 226/226/226 222/222/222
f 227/227/227 222/222/222 226/226/226
f 227/227/227 226/226/226 228/228/228
f 229/229/229 228/228/228 226/226/226
f 219/219/219 230/230/230 226/226/226
f 226/226/226 230/230/230 229/229/229
f 219/219/219 223/223/223 230/230/230
f 229/229/229 230/230/230 231/231/231
f 232/232/232 230/230/230 223/223/223
f 230/230/230 232/232/232 231/231/231
f 232/232/232 223/223/223 225/225/225
f 231/231/231 232/232/232 233/233/233
f 232/232/232 225/225/225 234/234/234
f 233/233/233 232/232/232 235/235/235
f 232/232/232 234/234/234 235/235/235
f 238/238/238 237/237/237 236/236/236
f 239/239/239 238/238/238 236/236/236
f 237/237/237 238/238/238 240/240/240
f 238/238/238 239/239/239 241/241/241
f 242/242/242 241/241/241 239/239/239
f 238/238/238 243/243/243 240/240/240
f 238/238/238 241/241/241 243/243/243
f 244/244/244 240/240/240 243/243/243
f 242/242/242 245/245/245 241/241/241
f 243/243/243 246/246/246 244/244/244
f 247/247/247 244/244/244 246/246/246
f 248/248/248 247/247/247 246/246/246
f 248/248/248 246/246/246 249/249/249
f 250/250/250 246/246/246 243/243/243
f 250/250/250 249/249/249 246/246/246
f 243/243/243 241/241/241 250/250/250
f 249/249/249 250/250/250 251/251/251
f 250/250/250 252/252/252 251/251/251
f 250/250/250 241/241/241 253/253/253
f 245/245/245 253/253/253 241/241/241
f 252/252/252 250/250/250 253/253/253
f 245/245/245 254/254/254 253/253/253
f 255/255/255 253/253/253 254/254/254
f 252/252/252 253/253/253 255/255/255
f 256/256/256 255/255/255 254/254/254
f 257/257/257 252/252/252 255/255/255
f 252/252/252 257/257/257 258/258/258
f 259/259/259 258/258/258 257/257/257
f 255/255/255 256/256/256 260/260/260
f 260/260/260 257/257/257 255/255/255
f 261/261/261 260/260/260 256/256/256
f 261/261/261 262/262/262 260/260/260
f 259/259/259 257/257/257 263/263/263
f 257/257/257 260/260/260 263/263/263
f 263/263/263 264/264/264 259/259/259
f 265/265/265 264/264/264 263/263/263
f 265/265/265 263/263/263 266/266/266
f 267/267/267 266/266/266 263/263/263
f 268/268/268 260/260/260 262/262/262
f 268/268/268 263/263/263 260/260/260
f 262/262/262 269/269/269 268/268/268
f 269/269/269 270/270/270 268/268/268
f 271/271/271 268/268/268 270/270/270
f 272/272/272 267/267/267 263/263/263
f 263/263/263 268/268/268 272/272/272
f 271/271/271 267/267/267 272/272/272
f 272/272/272 268/268/268 271/271/271
f 275/275/275 274/274/274 273/273/273
f 275/275/275 273/273/273 276/276/276
f 275/275/275 276/276/276 277/277/277
f 278/278/278 277/277/277 276/276/276
f 281/281/281 280/280/280 279/279/279
f 281/281/281 279/279/279 282/282/282
f 281/281/281 282/282/282 283/283/283
f 284/284/284 283/283/283 282/282/282
f 287/287/287 286/286/286 285/285/285
f 288/288/288 285/285/285 286/286/286
f 286/286/286 289/289/289 288/288/288
f 286/286/286 290/290/290 289/289/289
f 293/293/293 292/292/292 291/291/291
f 291/291/291 294/294/294 293/293/293
f 291/291/291 295/295/295 294/294/294
f 291/291/291 296/296/296 295/295/295
