mtllib SM_Wall_02@000002909DC03900.mtl
g SM_Wall_02@000002909DC03900
#Vertices 316
#Indices 888
#Section 0 Offset 0 NumIndices 168 MaterialIndex 0 MI_BrickTile_B_01
#Section 1 Offset 168 NumIndices 720 MaterialIndex 1 MI_ConcreteTrim_A_02
v 0.016641 0.000000 0.250000 0.000000 0.000000 1.000000 1.000000
v 0.016641 3.500000 0.250000 0.000000 0.000000 1.000000 1.000000
v 1.568433 2.508536 0.250000 0.000000 0.000000 1.000000 1.000000
v 1.516688 0.000000 0.250000 0.000000 0.000000 1.000000 1.000000
v 1.749453 2.398461 0.250000 0.000000 0.000000 1.000000 1.000000
v 1.716667 0.000000 0.250000 0.000000 0.000000 1.000000 1.000000
v 1.935181 2.296530 0.250000 0.000000 0.000000 1.000000 1.000000
v 1.916647 0.000000 0.250000 0.000000 0.000000 1.000000 1.000000
v 2.125250 2.202945 0.250000 0.000000 0.000000 1.000000 1.000000
v 2.116626 0.000000 0.250000 0.000000 0.000000 1.000000 1.000000
v 2.319287 2.117889 0.250000 0.000000 0.000000 1.000000 1.000000
v 2.316605 0.000000 0.250000 0.000000 0.000000 1.000000 1.000000
v 2.516908 2.041530 0.250000 0.000000 0.000000 1.000000 1.000000
v 2.516584 0.000000 0.250000 0.000000 0.000000 1.000000 1.000000
v 3.535634 1.673684 0.250000 0.000000 0.000000 1.000000 1.000000
v 3.516681 0.000000 0.250000 0.000000 0.000000 1.000000 1.000000
v 3.728338 1.611560 0.250000 0.000000 0.000000 1.000000 1.000000
v 3.716660 0.000000 0.250000 0.000000 0.000000 1.000000 1.000000
v 3.924881 1.562928 0.250000 0.000000 0.000000 1.000000 1.000000
v 3.916639 0.000000 0.250000 0.000000 0.000000 1.000000 1.000000
v 4.124320 1.528024 0.250000 0.000000 0.000000 1.000000 1.000000
v 4.116619 0.000000 0.250000 0.000000 0.000000 1.000000 1.000000
v 4.325696 1.507014 0.250000 0.000000 0.000000 1.000000 1.000000
v 4.316598 0.000000 0.250000 0.000000 0.000000 1.000000 1.000000
v 4.528045 1.500000 0.250000 0.000000 0.000000 1.000000 1.000000
v 4.516577 0.000000 0.250000 0.000000 0.000000 1.000000 1.000000
v 6.016634 0.000000 0.250000 0.000000 0.000000 1.000000 1.000000
v 6.016641 1.500000 0.250000 0.000000 0.000000 1.000000 1.000000
v 8.016634 0.000000 0.250000 0.000000 0.000000 1.000000 1.000000
v 8.016634 1.500000 0.250000 0.000000 0.000000 1.000000 1.000000
v 6.016641 1.500000 -0.250000 0.000000 0.000000 1.000000 1.000000
v 8.016634 -0.000000 -0.250000 0.000000 0.000000 1.000000 1.000000
v 8.016634 1.500000 -0.250000 0.000000 0.000000 1.000000 1.000000
v 6.016634 -0.000000 -0.250000 0.000000 0.000000 1.000000 1.000000
v 4.528045 1.500000 -0.250000 0.000000 0.000000 1.000000 1.000000
v 4.516577 -0.000000 -0.250000 0.000000 0.000000 1.000000 1.000000
v 4.316598 -0.000000 -0.250000 0.000000 0.000000 1.000000 1.000000
v 4.325696 1.507014 -0.250000 0.000000 0.000000 1.000000 1.000000
v 4.116619 -0.000000 -0.250000 0.000000 0.000000 1.000000 1.000000
v 4.124320 1.528024 -0.250000 0.000000 0.000000 1.000000 1.000000
v 3.916639 -0.000000 -0.250000 0.000000 0.000000 1.000000 1.000000
v 3.924881 1.562928 -0.250000 0.000000 0.000000 1.000000 1.000000
v 3.716660 -0.000000 -0.250000 0.000000 0.000000 1.000000 1.000000
v 3.728338 1.611560 -0.250000 0.000000 0.000000 1.000000 1.000000
v 3.516681 -0.000000 -0.250000 0.000000 0.000000 1.000000 1.000000
v 3.535634 1.673684 -0.250000 0.000000 0.000000 1.000000 1.000000
v 2.516584 -0.000000 -0.250000 0.000000 0.000000 1.000000 1.000000
v 2.516908 2.041530 -0.250000 0.000000 0.000000 1.000000 1.000000
v 2.316605 -0.000000 -0.250000 0.000000 0.000000 1.000000 1.000000
v 2.319287 2.117889 -0.250000 0.000000 0.000000 1.000000 1.000000
v 2.116626 -0.000000 -0.250000 0.000000 0.000000 1.000000 1.000000
v 2.125250 2.202945 -0.250000 0.000000 0.000000 1.000000 1.000000
v 1.916647 -0.000000 -0.250000 0.000000 0.000000 1.000000 1.000000
v 1.935181 2.296530 -0.250000 0.000000 0.000000 1.000000 1.000000
v 1.716667 -0.000000 -0.250000 0.000000 0.000000 1.000000 1.000000
v 1.749453 2.398461 -0.250000 0.000000 0.000000 1.000000 1.000000
v 1.516688 -0.000000 -0.250000 0.000000 0.000000 1.000000 1.000000
v 1.568433 2.508536 -0.250000 0.000000 0.000000 1.000000 1.000000
v 0.016641 -0.000000 -0.250000 0.000000 0.000000 1.000000 1.000000
v 0.016641 3.500000 -0.250000 0.000000 0.000000 1.000000 1.000000
v 6.000000 2.000098 -0.314998 0.000000 0.000000 1.000000 1.000000
v 7.999999 1.940096 -0.375000 0.000000 0.000000 1.000000 1.000000
v 7.999999 2.000098 -0.314998 0.000000 0.000000 1.000000 1.000000
v 6.000000 1.940096 -0.375000 0.000000 0.000000 1.000000 1.000000
v 4.969632 2.000098 -0.314998 0.000000 0.000000 1.000000 1.000000
v 4.969020 1.940096 -0.375000 0.000000 0.000000 1.000000 1.000000
v 4.648129 2.006662 -0.314998 0.000000 0.000000 1.000000 1.000000
v 4.645679 1.946698 -0.375000 0.000000 0.000000 1.000000 1.000000
v 4.322266 1.966530 -0.375000 0.000000 0.000000 1.000000 1.000000
v 4.327161 2.026345 -0.314998 0.000000 0.000000 1.000000 1.000000
v 4.007265 2.059112 -0.314998 0.000000 0.000000 1.000000 1.000000
v 3.999932 1.999547 -0.375000 0.000000 0.000000 1.000000 1.000000
v 3.688972 2.104909 -0.314998 0.000000 0.000000 1.000000 1.000000
v 3.679214 2.045693 -0.375000 0.000000 0.000000 1.000000 1.000000
v 3.372815 2.163661 -0.314998 0.000000 0.000000 1.000000 1.000000
v 3.360647 2.104892 -0.375000 0.000000 0.000000 1.000000 1.000000
v 3.059319 2.235268 -0.314998 0.000000 0.000000 1.000000 1.000000
v 3.044537 2.177097 -0.375000 0.000000 0.000000 1.000000 1.000000
v 2.673994 2.343200 -0.314998 0.000000 0.000000 1.000000 1.000000
v 2.655744 2.286001 -0.375000 0.000000 0.000000 1.000000 1.000000
v 2.332838 2.401901 -0.375000 0.000000 0.000000 1.000000 1.000000
v 2.354985 2.457702 -0.314998 0.000000 0.000000 1.000000 1.000000
v 2.018477 2.538918 -0.375000 0.000000 0.000000 1.000000 1.000000
v 2.044278 2.593126 -0.314998 0.000000 0.000000 1.000000 1.000000
v 1.713903 2.696496 -0.375000 0.000000 0.000000 1.000000 1.000000
v 1.743245 2.748872 -0.314999 0.000000 0.000000 1.000000 1.000000
v 1.420460 2.873943 -0.375000 0.000000 0.000000 1.000000 1.000000
v 1.453213 2.924255 -0.314999 0.000000 0.000000 1.000000 1.000000
v 1.140257 3.069902 -0.375000 0.000000 0.000000 1.000000 1.000000
v 1.175461 3.118501 -0.314999 0.000000 0.000000 1.000000 1.000000
v -0.000001 3.925096 -0.375000 0.000000 0.000000 1.000000 1.000000
v -0.000001 4.000098 -0.314999 0.000000 0.000000 1.000000 1.000000
v 6.000000 1.310002 -0.375000 0.000000 0.000000 1.000000 1.000000
v 7.999999 1.250000 -0.314998 0.000000 0.000000 1.000000 1.000000
v 7.999999 1.310002 -0.375000 0.000000 0.000000 1.000000 1.000000
v 6.000000 1.250000 -0.314998 0.000000 0.000000 1.000000 1.000000
v 4.970244 1.310002 -0.375000 0.000000 0.000000 1.000000 1.000000
v 4.969632 1.250000 -0.314998 0.000000 0.000000 1.000000 1.000000
v 4.650578 1.316528 -0.375000 0.000000 0.000000 1.000000 1.000000
v 4.648129 1.256564 -0.314998 0.000000 0.000000 1.000000 1.000000
v 4.327161 1.276246 -0.314998 0.000000 0.000000 1.000000 1.000000
v 4.332057 1.336061 -0.375000 0.000000 0.000000 1.000000 1.000000
v 4.014598 1.368578 -0.375000 0.000000 0.000000 1.000000 1.000000
v 4.007265 1.309013 -0.314998 0.000000 0.000000 1.000000 1.000000
v 3.698730 1.414027 -0.375000 0.000000 0.000000 1.000000 1.000000
v 3.688972 1.354811 -0.314998 0.000000 0.000000 1.000000 1.000000
v 3.384982 1.472330 -0.375000 0.000000 0.000000 1.000000 1.000000
v 3.372815 1.413562 -0.314998 0.000000 0.000000 1.000000 1.000000
v 3.074100 1.543341 -0.375000 0.000000 0.000000 1.000000 1.000000
v 3.059319 1.485170 -0.314998 0.000000 0.000000 1.000000 1.000000
v 2.692245 1.650301 -0.375000 0.000000 0.000000 1.000000 1.000000
v 2.673994 1.593102 -0.314998 0.000000 0.000000 1.000000 1.000000
v 2.354985 1.707604 -0.314998 0.000000 0.000000 1.000000 1.000000
v 2.377131 1.763405 -0.375000 0.000000 0.000000 1.000000 1.000000
v 2.070080 1.897235 -0.375000 0.000000 0.000000 1.000000 1.000000
v 2.044278 1.843027 -0.314998 0.000000 0.000000 1.000000 1.000000
v 1.772588 2.051150 -0.375000 0.000000 0.000000 1.000000 1.000000
v 1.743245 1.998774 -0.314998 0.000000 0.000000 1.000000 1.000000
v 1.453213 2.174157 -0.314998 0.000000 0.000000 1.000000 1.000000
v 1.485967 2.224470 -0.375000 0.000000 0.000000 1.000000 1.000000
v 1.175461 2.368403 -0.314998 0.000000 0.000000 1.000000 1.000000
v 1.210665 2.417003 -0.375000 0.000000 0.000000 1.000000 1.000000
v -0.000001 3.250000 -0.314999 0.000000 0.000000 1.000000 1.000000
v -0.000001 3.325002 -0.375000 0.000000 0.000000 1.000000 1.000000
v 0.000000 4.000098 0.314998 0.000000 0.000000 1.000000 1.000000
v 1.175461 3.118502 0.314998 0.000000 0.000000 1.000000 1.000000
v 0.000001 3.925095 0.374999 0.000000 0.000000 1.000000 1.000000
v 1.140257 3.069903 0.375000 0.000000 0.000000 1.000000 1.000000
v 1.453213 2.924256 0.314998 0.000000 0.000000 1.000000 1.000000
v 1.420460 2.873943 0.375000 0.000000 0.000000 1.000000 1.000000
v 1.713903 2.696496 0.375000 0.000000 0.000000 1.000000 1.000000
v 1.743245 2.748872 0.314998 0.000000 0.000000 1.000000 1.000000
v 2.018477 2.538918 0.375000 0.000000 0.000000 1.000000 1.000000
v 2.044278 2.593126 0.314998 0.000000 0.000000 1.000000 1.000000
v 2.332838 2.401901 0.375000 0.000000 0.000000 1.000000 1.000000
v 2.354985 2.457702 0.314998 0.000000 0.000000 1.000000 1.000000
v 2.673994 2.343200 0.314998 0.000000 0.000000 1.000000 1.000000
v 2.655744 2.286001 0.375000 0.000000 0.000000 1.000000 1.000000
v 3.044537 2.177097 0.375000 0.000000 0.000000 1.000000 1.000000
v 3.059319 2.235268 0.314998 0.000000 0.000000 1.000000 1.000000
v 3.360647 2.104892 0.375000 0.000000 0.000000 1.000000 1.000000
v 3.372815 2.163661 0.314998 0.000000 0.000000 1.000000 1.000000
v 3.679214 2.045693 0.375000 0.000000 0.000000 1.000000 1.000000
v 3.688972 2.104909 0.314998 0.000000 0.000000 1.000000 1.000000
v 3.999932 1.999547 0.375000 0.000000 0.000000 1.000000 1.000000
v 4.007265 2.059112 0.314998 0.000000 0.000000 1.000000 1.000000
v 4.322266 1.966530 0.375000 0.000000 0.000000 1.000000 1.000000
v 4.327161 2.026345 0.314998 0.000000 0.000000 1.000000 1.000000
v 4.648129 2.006662 0.314998 0.000000 0.000000 1.000000 1.000000
v 4.645679 1.946698 0.375000 0.000000 0.000000 1.000000 1.000000
v 4.969020 1.940096 0.375000 0.000000 0.000000 1.000000 1.000000
v 4.969632 2.000098 0.314998 0.000000 0.000000 1.000000 1.000000
v 6.000000 1.940096 0.375000 0.000000 0.000000 1.000000 1.000000
v 6.000000 2.000098 0.314998 0.000000 0.000000 1.000000 1.000000
v 8.000001 2.000098 0.314998 0.000000 0.000000 1.000000 1.000000
v 8.000001 1.940096 0.375000 0.000000 0.000000 1.000000 1.000000
v 0.000001 3.325001 0.375000 0.000000 0.000000 1.000000 1.000000
v 1.210665 2.417003 0.375000 0.000000 0.000000 1.000000 1.000000
v 0.000000 3.250000 0.314998 0.000000 0.000000 1.000000 1.000000
v 1.175461 2.368404 0.314998 0.000000 0.000000 1.000000 1.000000
v 1.485967 2.224470 0.375000 0.000000 0.000000 1.000000 1.000000
v 1.453213 2.174157 0.314998 0.000000 0.000000 1.000000 1.000000
v 1.743245 1.998774 0.314998 0.000000 0.000000 1.000000 1.000000
v 1.772588 2.051150 0.375000 0.000000 0.000000 1.000000 1.000000
v 2.044278 1.843027 0.314998 0.000000 0.000000 1.000000 1.000000
v 2.070080 1.897235 0.375000 0.000000 0.000000 1.000000 1.000000
v 2.354985 1.707604 0.314998 0.000000 0.000000 1.000000 1.000000
v 2.377131 1.763405 0.375000 0.000000 0.000000 1.000000 1.000000
v 2.692245 1.650301 0.375000 0.000000 0.000000 1.000000 1.000000
v 2.673994 1.593102 0.314998 0.000000 0.000000 1.000000 1.000000
v 3.059319 1.485170 0.314998 0.000000 0.000000 1.000000 1.000000
v 3.074100 1.543341 0.375000 0.000000 0.000000 1.000000 1.000000
v 3.372815 1.413562 0.314998 0.000000 0.000000 1.000000 1.000000
v 3.384982 1.472330 0.375000 0.000000 0.000000 1.000000 1.000000
v 3.688972 1.354811 0.314998 0.000000 0.000000 1.000000 1.000000
v 3.698730 1.414027 0.375000 0.000000 0.000000 1.000000 1.000000
v 4.007265 1.309013 0.314998 0.000000 0.000000 1.000000 1.000000
v 4.014598 1.368578 0.375000 0.000000 0.000000 1.000000 1.000000
v 4.327161 1.276246 0.314998 0.000000 0.000000 1.000000 1.000000
v 4.332057 1.336061 0.375000 0.000000 0.000000 1.000000 1.000000
v 4.650578 1.316528 0.375000 0.000000 0.000000 1.000000 1.000000
v 4.648129 1.256564 0.314998 0.000000 0.000000 1.000000 1.000000
v 4.969632 1.250000 0.314998 0.000000 0.000000 1.000000 1.000000
v 4.970244 1.310002 0.375000 0.000000 0.000000 1.000000 1.000000
v 6.000000 1.250000 0.314998 0.000000 0.000000 1.000000 1.000000
v 6.000000 1.310002 0.375000 0.000000 0.000000 1.000000 1.000000
v 8.000001 1.310002 0.375000 0.000000 0.000000 1.000000 1.000000
v 8.000001 1.250000 0.314998 0.000000 0.000000 1.000000 1.000000
v 8.000001 1.310002 0.375000 0.000000 0.000000 1.000000 1.000000
v 6.000000 1.310002 0.375000 0.000000 0.000000 1.000000 1.000000
v 8.000001 1.940096 0.375000 0.000000 0.000000 1.000000 1.000000
v 6.000000 1.940096 0.375000 0.000000 0.000000 1.000000 1.000000
v 4.970244 1.310002 0.375000 0.000000 0.000000 1.000000 1.000000
v 4.969020 1.940096 0.375000 0.000000 0.000000 1.000000 1.000000
v 4.650578 1.316528 0.375000 0.000000 0.000000 1.000000 1.000000
v 4.645679 1.946698 0.375000 0.000000 0.000000 1.000000 1.000000
v 4.332057 1.336061 0.375000 0.000000 0.000000 1.000000 1.000000
v 4.322266 1.966530 0.375000 0.000000 0.000000 1.000000 1.000000
v 4.014598 1.368578 0.375000 0.000000 0.000000 1.000000 1.000000
v 3.999932 1.999547 0.375000 0.000000 0.000000 1.000000 1.000000
v 3.698730 1.414027 0.375000 0.000000 0.000000 1.000000 1.000000
v 3.679214 2.045693 0.375000 0.000000 0.000000 1.000000 1.000000
v 3.384982 1.472330 0.375000 0.000000 0.000000 1.000000 1.000000
v 3.360647 2.104892 0.375000 0.000000 0.000000 1.000000 1.000000
v 3.074100 1.543341 0.375000 0.000000 0.000000 1.000000 1.000000
v 3.044537 2.177097 0.375000 0.000000 0.000000 1.000000 1.000000
v 2.692245 1.650301 0.375000 0.000000 0.000000 1.000000 1.000000
v 2.655744 2.286001 0.375000 0.000000 0.000000 1.000000 1.000000
v 2.377131 1.763405 0.375000 0.000000 0.000000 1.000000 1.000000
v 2.332838 2.401901 0.375000 0.000000 0.000000 1.000000 1.000000
v 2.070080 1.897235 0.375000 0.000000 0.000000 1.000000 1.000000
v 2.018477 2.538918 0.375000 0.000000 0.000000 1.000000 1.000000
v 1.772588 2.051150 0.375000 0.000000 0.000000 1.000000 1.000000
v 1.713903 2.696496 0.375000 0.000000 0.000000 1.000000 1.000000
v 1.485967 2.224470 0.375000 0.000000 0.000000 1.000000 1.000000
v 1.420460 2.873943 0.375000 0.000000 0.000000 1.000000 1.000000
v 1.210665 2.417003 0.375000 0.000000 0.000000 1.000000 1.000000
v 1.140257 3.069903 0.375000 0.000000 0.000000 1.000000 1.000000
v 0.000001 3.325001 0.375000 0.000000 0.000000 1.000000 1.000000
v 0.000001 3.925095 0.374999 0.000000 0.000000 1.000000 1.000000
v 6.000000 2.000098 0.314998 0.000000 0.000000 1.000000 1.000000
v 7.999999 2.000098 -0.314998 0.000000 0.000000 1.000000 1.000000
v 8.000001 2.000098 0.314998 0.000000 0.000000 1.000000 1.000000
v 6.000000 2.000098 -0.314998 0.000000 0.000000 1.000000 1.000000
v 4.969632 2.000098 0.314998 0.000000 0.000000 1.000000 1.000000
v 4.969632 2.000098 -0.314998 0.000000 0.000000 1.000000 1.000000
v 4.648129 2.006662 -0.314998 0.000000 0.000000 1.000000 1.000000
v 4.648129 2.006662 0.314998 0.000000 0.000000 1.000000 1.000000
v 4.327161 2.026345 -0.314998 0.000000 0.000000 1.000000 1.000000
v 4.327161 2.026345 0.314998 0.000000 0.000000 1.000000 1.000000
v 4.007265 2.059112 -0.314998 0.000000 0.000000 1.000000 1.000000
v 4.007265 2.059112 0.314998 0.000000 0.000000 1.000000 1.000000
v 3.688972 2.104909 -0.314998 0.000000 0.000000 1.000000 1.000000
v 3.688972 2.104909 0.314998 0.000000 0.000000 1.000000 1.000000
v 3.372815 2.163661 -0.314998 0.000000 0.000000 1.000000 1.000000
v 3.372815 2.163661 0.314998 0.000000 0.000000 1.000000 1.000000
v 3.059319 2.235268 -0.314998 0.000000 0.000000 1.000000 1.000000
v 3.059319 2.235268 0.314998 0.000000 0.000000 1.000000 1.000000
v 2.673994 2.343200 0.314998 0.000000 0.000000 1.000000 1.000000
v 2.673994 2.343200 -0.314998 0.000000 0.000000 1.000000 1.000000
v 2.354985 2.457702 -0.314998 0.000000 0.000000 1.000000 1.000000
v 2.354985 2.457702 0.314998 0.000000 0.000000 1.000000 1.000000
v 2.044278 2.593126 -0.314998 0.000000 0.000000 1.000000 1.000000
v 2.044278 2.593126 0.314998 0.000000 0.000000 1.000000 1.000000
v 1.743245 2.748872 0.314998 0.000000 0.000000 1.000000 1.000000
v 1.743245 2.748872 -0.314999 0.000000 0.000000 1.000000 1.000000
v 1.453213 2.924256 0.314998 0.000000 0.000000 1.000000 1.000000
v 1.453213 2.924255 -0.314999 0.000000 0.000000 1.000000 1.000000
v 1.175461 3.118502 0.314998 0.000000 0.000000 1.000000 1.000000
v 1.175461 3.118501 -0.314999 0.000000 0.000000 1.000000 1.000000
v 0.000000 4.000098 0.314998 0.000000 0.000000 1.000000 1.000000
v -0.000001 4.000098 -0.314999 0.000000 0.000000 1.000000 1.000000
v 1.175461 2.368403 -0.314998 0.000000 0.000000 1.000000 1.000000
v -0.000001 3.250000 -0.314999 0.000000 0.000000 1.000000 1.000000
v 0.000000 3.250000 0.314998 0.000000 0.000000 1.000000 1.000000
v 1.175461 2.368404 0.314998 0.000000 0.000000 1.000000 1.000000
v 1.453213 2.174157 -0.314998 0.000000 0.000000 1.000000 1.000000
v 1.453213 2.174157 0.314998 0.000000 0.000000 1.000000 1.000000
v 1.743245 1.998774 -0.314998 0.000000 0.000000 1.000000 1.000000
v 1.743245 1.998774 0.314998 0.000000 0.000000 1.000000 1.000000
v 2.044278 1.843027 0.314998 0.000000 0.000000 1.000000 1.000000
v 2.044278 1.843027 -0.314998 0.000000 0.000000 1.000000 1.000000
v 2.354985 1.707604 -0.314998 0.000000 0.000000 1.000000 1.000000
v 2.354985 1.707604 0.314998 0.000000 0.000000 1.000000 1.000000
v 2.673994 1.593102 -0.314998 0.000000 0.000000 1.000000 1.000000
v 2.673994 1.593102 0.314998 0.000000 0.000000 1.000000 1.000000
v 3.059319 1.485170 0.314998 0.000000 0.000000 1.000000 1.000000
v 3.059319 1.485170 -0.314998 0.000000 0.000000 1.000000 1.000000
v 3.372815 1.413562 -0.314998 0.000000 0.000000 1.000000 1.000000
v 3.372815 1.413562 0.314998 0.000000 0.000000 1.000000 1.000000
v 3.688972 1.354811 -0.314998 0.000000 0.000000 1.000000 1.000000
v 3.688972 1.354811 0.314998 0.000000 0.000000 1.000000 1.000000
v 4.007265 1.309013 -0.314998 0.000000 0.000000 1.000000 1.000000
v 4.007265 1.309013 0.314998 0.000000 0.000000 1.000000 1.000000
v 4.327161 1.276246 -0.314998 0.000000 0.000000 1.000000 1.000000
v 4.327161 1.276246 0.314998 0.000000 0.000000 1.000000 1.000000
v 4.648129 1.256564 -0.314998 0.000000 0.000000 1.000000 1.000000
v 4.648129 1.256564 0.314998 0.000000 0.000000 1.000000 1.000000
v 4.969632 1.250000 -0.314998 0.000000 0.000000 1.000000 1.000000
v 4.969632 1.250000 0.314998 0.000000 0.000000 1.000000 1.000000
v 6.000000 1.250000 0.314998 0.000000 0.000000 1.000000 1.000000
v 6.000000 1.250000 -0.314998 0.000000 0.000000 1.000000 1.000000
v 7.999999 1.250000 -0.314998 0.000000 0.000000 1.000000 1.000000
v 8.000001 1.250000 0.314998 0.000000 0.000000 1.000000 1.000000
v -0.000001 3.325002 -0.375000 0.000000 0.000000 1.000000 1.000000
v 1.140257 3.069902 -0.375000 0.000000 0.000000 1.000000 1.000000
v -0.000001 3.925096 -0.375000 0.000000 0.000000 1.000000 1.000000
v 1.210665 2.417003 -0.375000 0.000000 0.000000 1.000000 1.000000
v 1.420460 2.873943 -0.375000 0.000000 0.000000 1.000000 1.000000
v 1.485967 2.224470 -0.375000 0.000000 0.000000 1.000000 1.000000
v 1.713903 2.696496 -0.375000 0.000000 0.000000 1.000000 1.000000
v 1.772588 2.051150 -0.375000 0.000000 0.000000 1.000000 1.000000
v 2.018477 2.538918 -0.375000 0.000000 0.000000 1.000000 1.000000
v 2.070080 1.897235 -0.375000 0.000000 0.000000 1.000000 1.000000
v 2.332838 2.401901 -0.375000 0.000000 0.000000 1.000000 1.000000
v 2.377131 1.763405 -0.375000 0.000000 0.000000 1.000000 1.000000
v 2.655744 2.286001 -0.375000 0.000000 0.000000 1.000000 1.000000
v 2.692245 1.650301 -0.375000 0.000000 0.000000 1.000000 1.000000
v 3.044537 2.177097 -0.375000 0.000000 0.000000 1.000000 1.000000
v 3.074100 1.543341 -0.375000 0.000000 0.000000 1.000000 1.000000
v 3.360647 2.104892 -0.375000 0.000000 0.000000 1.000000 1.000000
v 3.384982 1.472330 -0.375000 0.000000 0.000000 1.000000 1.000000
v 3.679214 2.045693 -0.375000 0.000000 0.000000 1.000000 1.000000
v 3.698730 1.414027 -0.375000 0.000000 0.000000 1.000000 1.000000
v 3.999932 1.999547 -0.375000 0.000000 0.000000 1.000000 1.000000
v 4.014598 1.368578 -0.375000 0.000000 0.000000 1.000000 1.000000
v 4.322266 1.966530 -0.375000 0.000000 0.000000 1.000000 1.000000
v 4.332057 1.336061 -0.375000 0.000000 0.000000 1.000000 1.000000
v 4.645679 1.946698 -0.375000 0.000000 0.000000 1.000000 1.000000
v 4.650578 1.316528 -0.375000 0.000000 0.000000 1.000000 1.000000
v 4.969020 1.940096 -0.375000 0.000000 0.000000 1.000000 1.000000
v 4.970244 1.310002 -0.375000 0.000000 0.000000 1.000000 1.000000
v 6.000000 1.940096 -0.375000 0.000000 0.000000 1.000000 1.000000
v 6.000000 1.310002 -0.375000 0.000000 0.000000 1.000000 1.000000
v 7.999999 1.310002 -0.375000 0.000000 0.000000 1.000000 1.000000
v 7.999999 1.940096 -0.375000 0.000000 0.000000 1.000000 1.000000
vt 0.004303 1.540039
vt 0.004303 1.985840
vt 0.177124 1.875000
vt 0.171387 1.540039
vt 0.197266 1.862793
vt 0.193726 1.540039
vt 0.218018 1.851562
vt 0.215942 1.540039
vt 0.239136 1.841309
vt 0.238281 1.540039
vt 0.260742 1.831543
vt 0.260498 1.540039
vt 0.282715 1.823242
vt 0.282715 1.540039
vt 0.396240 1.782227
vt 0.394287 1.540039
vt 0.417725 1.775391
vt 0.416504 1.540039
vt 0.439697 1.769531
vt 0.438721 1.540039
vt 0.461914 1.766113
vt 0.460938 1.540039
vt 0.484375 1.763672
vt 0.483398 1.540039
vt 0.506836 1.762695
vt 0.505371 1.540039
vt 0.672363 1.540039
vt 0.672363 1.762695
vt 0.895508 1.540039
vt 0.895508 1.762695
vt 0.672363 1.283691
vt 0.895508 1.060913
vt 0.895508 1.283691
vt 0.672363 1.060913
vt 0.506836 1.283691
vt 0.505371 1.060913
vt 0.483398 1.060913
vt 0.484375 1.284424
vt 0.460938 1.060913
vt 0.461914 1.286865
vt 0.438721 1.060913
vt 0.439697 1.290771
vt 0.416504 1.060913
vt 0.417725 1.296143
vt 0.394287 1.060913
vt 0.396240 1.302979
vt 0.282715 1.060913
vt 0.282715 1.343994
vt 0.260498 1.060913
vt 0.260742 1.352539
vt 0.238281 1.060913
vt 0.239136 1.362061
vt 0.215942 1.060913
vt 0.218018 1.372314
vt 0.193726 1.060913
vt 0.197266 1.383789
vt 0.171387 1.060913
vt 0.177124 1.395996
vt 0.004303 1.060913
vt 0.004303 1.506348
vt 0.822754 0.254883
vt 1.076172 0.235352
vt 1.076172 0.254883
vt 0.822754 0.235352
vt 0.691895 0.254883
vt 0.691895 0.235352
vt 0.650879 0.254883
vt 0.650879 0.235352
vt 0.610352 0.235352
vt 0.610352 0.254883
vt 0.569824 0.254883
vt 0.569824 0.235352
vt 0.528809 0.254883
vt 0.528809 0.235352
vt 0.488525 0.254883
vt 0.488525 0.235352
vt 0.447754 0.254883
vt 0.447754 0.235352
vt 0.397461 0.254883
vt 0.397461 0.235352
vt 0.354736 0.235352
vt 0.354736 0.254883
vt 0.312012 0.235352
vt 0.312012 0.254883
vt 0.269531 0.235352
vt 0.269531 0.254883
vt 0.227051 0.235352
vt 0.227051 0.254883
vt 0.184937 0.235352
vt 0.184937 0.254883
vt 0.000000 0.235352
vt 0.000000 0.254883
vt 0.822754 0.142090
vt 1.076172 0.121094
vt 1.076172 0.142090
vt 0.822754 0.121094
vt 0.691895 0.142090
vt 0.691895 0.121094
vt 0.650879 0.142090
vt 0.650879 0.121094
vt 0.610352 0.121094
vt 0.610352 0.142090
vt 0.569824 0.142090
vt 0.569824 0.121094
vt 0.528809 0.142090
vt 0.528809 0.121094
vt 0.488525 0.142090
vt 0.488525 0.121094
vt 0.447754 0.142090
vt 0.447754 0.121094
vt 0.397461 0.142090
vt 0.397461 0.121094
vt 0.354736 0.121094
vt 0.354736 0.142090
vt 0.312012 0.142090
vt 0.312012 0.121094
vt 0.269531 0.142090
vt 0.269531 0.121094
vt 0.227051 0.121094
vt 0.227051 0.142090
vt 0.184937 0.121094
vt 0.184937 0.142090
vt 0.000000 0.121094
vt 0.000000 0.142090
vt 0.000000 0.349121
vt 0.184937 0.349121
vt 0.000000 0.368164
vt 0.184937 0.368164
vt 0.227051 0.349121
vt 0.227051 0.368164
vt 0.269531 0.368164
vt 0.269531 0.349121
vt 0.312012 0.368164
vt 0.312012 0.349121
vt 0.354736 0.368164
vt 0.354736 0.349121
vt 0.397461 0.349121
vt 0.397461 0.368164
vt 0.447754 0.368164
vt 0.447754 0.349121
vt 0.488525 0.368164
vt 0.488525 0.349121
vt 0.528809 0.368164
vt 0.528809 0.349121
vt 0.569824 0.368164
vt 0.569824 0.349121
vt 0.610352 0.368164
vt 0.610352 0.349121
vt 0.650879 0.349121
vt 0.650879 0.368164
vt 0.691895 0.368164
vt 0.691895 0.349121
vt 0.822754 0.368164
vt 0.822754 0.349121
vt 1.076172 0.349121
vt 1.076172 0.368164
vt 0.000000 0.000000
vt 0.184937 0.000000
vt 0.000000 0.016113
vt 0.184937 0.016113
vt 0.227051 0.000000
vt 0.227051 0.016113
vt 0.269531 0.016113
vt 0.269531 0.000000
vt 0.312012 0.016113
vt 0.312012 0.000000
vt 0.354736 0.016113
vt 0.354736 0.000000
vt 0.397461 0.000000
vt 0.397461 0.016113
vt 0.447754 0.016113
vt 0.447754 0.000000
vt 0.488525 0.016113
vt 0.488525 0.000000
vt 0.528809 0.016113
vt 0.528809 0.000000
vt 0.569824 0.016113
vt 0.569824 0.000000
vt 0.610352 0.016113
vt 0.610352 0.000000
vt 0.650879 0.000000
vt 0.650879 0.016113
vt 0.691895 0.016113
vt 0.691895 0.000000
vt 0.822754 0.016113
vt 0.822754 0.000000
vt 1.076172 0.000000
vt 1.076172 0.016113
vt 1.076172 0.463379
vt 0.822754 0.463379
vt 1.076172 0.368164
vt 0.822754 0.368164
vt 0.691895 0.463379
vt 0.691895 0.368164
vt 0.650879 0.463379
vt 0.650879 0.368164
vt 0.610352 0.463379
vt 0.610352 0.368164
vt 0.569824 0.463379
vt 0.569824 0.368164
vt 0.528809 0.463379
vt 0.528809 0.368164
vt 0.488525 0.463379
vt 0.488525 0.368164
vt 0.447754 0.463379
vt 0.447754 0.368164
vt 0.397461 0.463379
vt 0.397461 0.368164
vt 0.354736 0.463379
vt 0.354736 0.368164
vt 0.312012 0.463379
vt 0.312012 0.368164
vt 0.269531 0.463379
vt 0.269531 0.368164
vt 0.227051 0.463379
vt 0.227051 0.368164
vt 0.184937 0.463379
vt 0.184937 0.368164
vt 0.000000 0.463379
vt 0.000000 0.368164
vt 0.822754 0.349121
vt 1.076172 0.254883
vt 1.076172 0.349121
vt 0.822754 0.254883
vt 0.691895 0.349121
vt 0.691895 0.254883
vt 0.650879 0.254883
vt 0.650879 0.349121
vt 0.610352 0.254883
vt 0.610352 0.349121
vt 0.569824 0.254883
vt 0.569824 0.349121
vt 0.528809 0.254883
vt 0.528809 0.349121
vt 0.488525 0.254883
vt 0.488525 0.349121
vt 0.447754 0.254883
vt 0.447754 0.349121
vt 0.397461 0.349121
vt 0.397461 0.254883
vt 0.354736 0.254883
vt 0.354736 0.349121
vt 0.312012 0.254883
vt 0.312012 0.349121
vt 0.269531 0.349121
vt 0.269531 0.254883
vt 0.227051 0.349121
vt 0.227051 0.254883
vt 0.184937 0.349121
vt 0.184937 0.254883
vt 0.000000 0.349121
vt 0.000000 0.254883
vt 0.184937 0.121094
vt 0.000000 0.121094
vt 0.000000 0.016113
vt 0.184937 0.016113
vt 0.227051 0.121094
vt 0.227051 0.016113
vt 0.269531 0.121094
vt 0.269531 0.016113
vt 0.312012 0.016113
vt 0.312012 0.121094
vt 0.354736 0.121094
vt 0.354736 0.016113
vt 0.397461 0.121094
vt 0.397461 0.016113
vt 0.447754 0.016113
vt 0.447754 0.121094
vt 0.488525 0.121094
vt 0.488525 0.016113
vt 0.528809 0.121094
vt 0.528809 0.016113
vt 0.569824 0.121094
vt 0.569824 0.016113
vt 0.610352 0.121094
vt 0.610352 0.016113
vt 0.650879 0.121094
vt 0.650879 0.016113
vt 0.691895 0.121094
vt 0.691895 0.016113
vt 0.822754 0.016113
vt 0.822754 0.121094
vt 1.076172 0.121094
vt 1.076172 0.016113
vt 0.000000 0.142090
vt 0.184937 0.235352
vt 0.000000 0.235352
vt 0.184937 0.142090
vt 0.227051 0.235352
vt 0.227051 0.142090
vt 0.269531 0.235352
vt 0.269531 0.142090
vt 0.312012 0.235352
vt 0.312012 0.142090
vt 0.354736 0.235352
vt 0.354736 0.142090
vt 0.397461 0.235352
vt 0.397461 0.142090
vt 0.447754 0.235352
vt 0.447754 0.142090
vt 0.488525 0.235352
vt 0.488525 0.142090
vt 0.528809 0.235352
vt 0.528809 0.142090
vt 0.569824 0.235352
vt 0.569824 0.142090
vt 0.610352 0.235352
vt 0.610352 0.142090
vt 0.650879 0.235352
vt 0.650879 0.142090
vt 0.691895 0.235352
vt 0.691895 0.142090
vt 0.822754 0.235352
vt 0.822754 0.142090
vt 1.076172 0.142090
vt 1.076172 0.235352
vt1 0.004303 1.540039
vt1 0.004303 1.985840
vt1 0.177124 1.875000
vt1 0.171387 1.540039
vt1 0.197266 1.862793
vt1 0.193726 1.540039
vt1 0.218018 1.851562
vt1 0.215942 1.540039
vt1 0.239136 1.841309
vt1 0.238281 1.540039
vt1 0.260742 1.831543
vt1 0.260498 1.540039
vt1 0.282715 1.823242
vt1 0.282715 1.540039
vt1 0.396240 1.782227
vt1 0.394287 1.540039
vt1 0.417725 1.775391
vt1 0.416504 1.540039
vt1 0.439697 1.769531
vt1 0.438721 1.540039
vt1 0.461914 1.766113
vt1 0.460938 1.540039
vt1 0.484375 1.763672
vt1 0.483398 1.540039
vt1 0.506836 1.762695
vt1 0.505371 1.540039
vt1 0.672363 1.540039
vt1 0.672363 1.762695
vt1 0.895508 1.540039
vt1 0.895508 1.762695
vt1 0.672363 1.283691
vt1 0.895508 1.060913
vt1 0.895508 1.283691
vt1 0.672363 1.060913
vt1 0.506836 1.283691
vt1 0.505371 1.060913
vt1 0.483398 1.060913
vt1 0.484375 1.284424
vt1 0.460938 1.060913
vt1 0.461914 1.286865
vt1 0.438721 1.060913
vt1 0.439697 1.290771
vt1 0.416504 1.060913
vt1 0.417725 1.296143
vt1 0.394287 1.060913
vt1 0.396240 1.302979
vt1 0.282715 1.060913
vt1 0.282715 1.343994
vt1 0.260498 1.060913
vt1 0.260742 1.352539
vt1 0.238281 1.060913
vt1 0.239136 1.362061
vt1 0.215942 1.060913
vt1 0.218018 1.372314
vt1 0.193726 1.060913
vt1 0.197266 1.383789
vt1 0.171387 1.060913
vt1 0.177124 1.395996
vt1 0.004303 1.060913
vt1 0.004303 1.506348
vt1 0.822754 0.254883
vt1 1.076172 0.235352
vt1 1.076172 0.254883
vt1 0.822754 0.235352
vt1 0.691895 0.254883
vt1 0.691895 0.235352
vt1 0.650879 0.254883
vt1 0.650879 0.235352
vt1 0.610352 0.235352
vt1 0.610352 0.254883
vt1 0.569824 0.254883
vt1 0.569824 0.235352
vt1 0.528809 0.254883
vt1 0.528809 0.235352
vt1 0.488525 0.254883
vt1 0.488525 0.235352
vt1 0.447754 0.254883
vt1 0.447754 0.235352
vt1 0.397461 0.254883
vt1 0.397461 0.235352
vt1 0.354736 0.235352
vt1 0.354736 0.254883
vt1 0.312012 0.235352
vt1 0.312012 0.254883
vt1 0.269531 0.235352
vt1 0.269531 0.254883
vt1 0.227051 0.235352
vt1 0.227051 0.254883
vt1 0.184937 0.235352
vt1 0.184937 0.254883
vt1 0.000000 0.235352
vt1 0.000000 0.254883
vt1 0.822754 0.142090
vt1 1.076172 0.121094
vt1 1.076172 0.142090
vt1 0.822754 0.121094
vt1 0.691895 0.142090
vt1 0.691895 0.121094
vt1 0.650879 0.142090
vt1 0.650879 0.121094
vt1 0.610352 0.121094
vt1 0.610352 0.142090
vt1 0.569824 0.142090
vt1 0.569824 0.121094
vt1 0.528809 0.142090
vt1 0.528809 0.121094
vt1 0.488525 0.142090
vt1 0.488525 0.121094
vt1 0.447754 0.142090
vt1 0.447754 0.121094
vt1 0.397461 0.142090
vt1 0.397461 0.121094
vt1 0.354736 0.121094
vt1 0.354736 0.142090
vt1 0.312012 0.142090
vt1 0.312012 0.121094
vt1 0.269531 0.142090
vt1 0.269531 0.121094
vt1 0.227051 0.121094
vt1 0.227051 0.142090
vt1 0.184937 0.121094
vt1 0.184937 0.142090
vt1 0.000000 0.121094
vt1 0.000000 0.142090
vt1 0.000000 0.349121
vt1 0.184937 0.349121
vt1 0.000000 0.368164
vt1 0.184937 0.368164
vt1 0.227051 0.349121
vt1 0.227051 0.368164
vt1 0.269531 0.368164
vt1 0.269531 0.349121
vt1 0.312012 0.368164
vt1 0.312012 0.349121
vt1 0.354736 0.368164
vt1 0.354736 0.349121
vt1 0.397461 0.349121
vt1 0.397461 0.368164
vt1 0.447754 0.368164
vt1 0.447754 0.349121
vt1 0.488525 0.368164
vt1 0.488525 0.349121
vt1 0.528809 0.368164
vt1 0.528809 0.349121
vt1 0.569824 0.368164
vt1 0.569824 0.349121
vt1 0.610352 0.368164
vt1 0.610352 0.349121
vt1 0.650879 0.349121
vt1 0.650879 0.368164
vt1 0.691895 0.368164
vt1 0.691895 0.349121
vt1 0.822754 0.368164
vt1 0.822754 0.349121
vt1 1.076172 0.349121
vt1 1.076172 0.368164
vt1 0.000000 0.000000
vt1 0.184937 0.000000
vt1 0.000000 0.016113
vt1 0.184937 0.016113
vt1 0.227051 0.000000
vt1 0.227051 0.016113
vt1 0.269531 0.016113
vt1 0.269531 0.000000
vt1 0.312012 0.016113
vt1 0.312012 0.000000
vt1 0.354736 0.016113
vt1 0.354736 0.000000
vt1 0.397461 0.000000
vt1 0.397461 0.016113
vt1 0.447754 0.016113
vt1 0.447754 0.000000
vt1 0.488525 0.016113
vt1 0.488525 0.000000
vt1 0.528809 0.016113
vt1 0.528809 0.000000
vt1 0.569824 0.016113
vt1 0.569824 0.000000
vt1 0.610352 0.016113
vt1 0.610352 0.000000
vt1 0.650879 0.000000
vt1 0.650879 0.016113
vt1 0.691895 0.016113
vt1 0.691895 0.000000
vt1 0.822754 0.016113
vt1 0.822754 0.000000
vt1 1.076172 0.000000
vt1 1.076172 0.016113
vt1 1.076172 0.463379
vt1 0.822754 0.463379
vt1 1.076172 0.368164
vt1 0.822754 0.368164
vt1 0.691895 0.463379
vt1 0.691895 0.368164
vt1 0.650879 0.463379
vt1 0.650879 0.368164
vt1 0.610352 0.463379
vt1 0.610352 0.368164
vt1 0.569824 0.463379
vt1 0.569824 0.368164
vt1 0.528809 0.463379
vt1 0.528809 0.368164
vt1 0.488525 0.463379
vt1 0.488525 0.368164
vt1 0.447754 0.463379
vt1 0.447754 0.368164
vt1 0.397461 0.463379
vt1 0.397461 0.368164
vt1 0.354736 0.463379
vt1 0.354736 0.368164
vt1 0.312012 0.463379
vt1 0.312012 0.368164
vt1 0.269531 0.463379
vt1 0.269531 0.368164
vt1 0.227051 0.463379
vt1 0.227051 0.368164
vt1 0.184937 0.463379
vt1 0.184937 0.368164
vt1 0.000000 0.463379
vt1 0.000000 0.368164
vt1 0.822754 0.349121
vt1 1.076172 0.254883
vt1 1.076172 0.349121
vt1 0.822754 0.254883
vt1 0.691895 0.349121
vt1 0.691895 0.254883
vt1 0.650879 0.254883
vt1 0.650879 0.349121
vt1 0.610352 0.254883
vt1 0.610352 0.349121
vt1 0.569824 0.254883
vt1 0.569824 0.349121
vt1 0.528809 0.254883
vt1 0.528809 0.349121
vt1 0.488525 0.254883
vt1 0.488525 0.349121
vt1 0.447754 0.254883
vt1 0.447754 0.349121
vt1 0.397461 0.349121
vt1 0.397461 0.254883
vt1 0.354736 0.254883
vt1 0.354736 0.349121
vt1 0.312012 0.254883
vt1 0.312012 0.349121
vt1 0.269531 0.349121
vt1 0.269531 0.254883
vt1 0.227051 0.349121
vt1 0.227051 0.254883
vt1 0.184937 0.349121
vt1 0.184937 0.254883
vt1 0.000000 0.349121
vt1 0.000000 0.254883
vt1 0.184937 0.121094
vt1 0.000000 0.121094
vt1 0.000000 0.016113
vt1 0.184937 0.016113
vt1 0.227051 0.121094
vt1 0.227051 0.016113
vt1 0.269531 0.121094
vt1 0.269531 0.016113
vt1 0.312012 0.016113
vt1 0.312012 0.121094
vt1 0.354736 0.121094
vt1 0.354736 0.016113
vt1 0.397461 0.121094
vt1 0.397461 0.016113
vt1 0.447754 0.016113
vt1 0.447754 0.121094
vt1 0.488525 0.121094
vt1 0.488525 0.016113
vt1 0.528809 0.121094
vt1 0.528809 0.016113
vt1 0.569824 0.121094
vt1 0.569824 0.016113
vt1 0.610352 0.121094
vt1 0.610352 0.016113
vt1 0.650879 0.121094
vt1 0.650879 0.016113
vt1 0.691895 0.121094
vt1 0.691895 0.016113
vt1 0.822754 0.016113
vt1 0.822754 0.121094
vt1 1.076172 0.121094
vt1 1.076172 0.016113
vt1 0.000000 0.142090
vt1 0.184937 0.235352
vt1 0.000000 0.235352
vt1 0.184937 0.142090
vt1 0.227051 0.235352
vt1 0.227051 0.142090
vt1 0.269531 0.235352
vt1 0.269531 0.142090
vt1 0.312012 0.235352
vt1 0.312012 0.142090
vt1 0.354736 0.235352
vt1 0.354736 0.142090
vt1 0.397461 0.235352
vt1 0.397461 0.142090
vt1 0.447754 0.235352
vt1 0.447754 0.142090
vt1 0.488525 0.235352
vt1 0.488525 0.142090
vt1 0.528809 0.235352
vt1 0.528809 0.142090
vt1 0.569824 0.235352
vt1 0.569824 0.142090
vt1 0.610352 0.235352
vt1 0.610352 0.142090
vt1 0.650879 0.235352
vt1 0.650879 0.142090
vt1 0.691895 0.235352
vt1 0.691895 0.142090
vt1 0.822754 0.235352
vt1 0.822754 0.142090
vt1 1.076172 0.142090
vt1 1.076172 0.235352
vn 0.000000 0.000000 1.000000
vn 0.000000 0.000000 1.000000
vn 0.000000 0.000000 1.000000
vn 0.000000 0.000000 1.000000
vn 0.000000 0.000000 1.000000
vn 0.000000 0.000000 1.000000
vn 0.000000 0.000000 1.000000
vn 0.000000 0.000000 1.000000
vn 0.000000 0.000000 1.000000
vn 0.000000 0.000000 1.000000
vn 0.000000 0.000000 1.000000
vn 0.000000 0.000000 1.000000
vn 0.000000 0.000000 1.000000
vn 0.000000 0.000000 1.000000
vn 0.000000 0.000000 1.000000
vn 0.000000 0.000000 1.000000
vn 0.000000 0.000000 1.000000
vn 0.000000 0.000000 1.000000
vn 0.000000 0.000000 1.000000
vn 0.000000 0.000000 1.000000
vn 0.000000 0.000000 1.000000
vn 0.000000 0.000000 1.000000
vn 0.000000 0.000000 1.000000
vn 0.000000 0.000000 1.000000
vn 0.000000 0.000000 1.000000
vn 0.000000 0.000000 1.000000
vn 0.000000 0.000000 1.000000
vn 0.000000 0.000000 1.000000
vn 0.000000 0.000000 1.000000
vn 0.000000 0.000000 1.000000
vn 0.000000 -0.000000 -1.000000
vn 0.000000 -0.000000 -1.000000
vn 0.000000 -0.000000 -1.000000
vn 0.000000 -0.000000 -1.000000
vn 0.000000 -0.000000 -1.000000
vn 0.000000 -0.000000 -1.000000
vn 0.000000 -0.000000 -1.000000
vn 0.000000 -0.000000 -1.000000
vn 0.000000 -0.000000 -1.000000
vn 0.000000 -0.000000 -1.000000
vn 0.000000 -0.000000 -1.000000
vn 0.000000 -0.000000 -1.000000
vn 0.000000 -0.000000 -1.000000
vn 0.000000 -0.000000 -1.000000
vn 0.000000 -0.000000 -1.000000
vn 0.000000 -0.000000 -1.000000
vn 0.000000 -0.000000 -1.000000
vn 0.000000 -0.000000 -1.000000
vn 0.000000 -0.000000 -1.000000
vn 0.000000 -0.000000 -1.000000
vn 0.000000 -0.000000 -1.000000
vn 0.000000 -0.000000 -1.000000
vn 0.000000 -0.000000 -1.000000
vn 0.000000 -0.000000 -1.000000
vn 0.000000 -0.000000 -1.000000
vn 0.000000 -0.000000 -1.000000
vn 0.000000 -0.000000 -1.000000
vn 0.000000 -0.000000 -1.000000
vn 0.000000 -0.000000 -1.000000
vn 0.000000 -0.000000 -1.000000
vn 0.000000 0.708661 -0.708661
vn 0.000000 0.708661 -0.708661
vn 0.000000 0.708661 -0.708661
vn 0.000000 0.708661 -0.708661
vn 0.000000 0.708661 -0.708661
vn 0.000000 0.708661 -0.708661
vn 0.031496 0.708661 -0.708661
vn 0.031496 0.708661 -0.708661
vn 0.055118 0.700787 -0.708661
vn 0.055118 0.700787 -0.708661
vn 0.086614 0.700787 -0.708661
vn 0.086614 0.700787 -0.708661
vn 0.118110 0.700787 -0.708661
vn 0.118110 0.700787 -0.708661
vn 0.141732 0.692913 -0.708661
vn 0.141732 0.692913 -0.708661
vn 0.173228 0.685039 -0.708661
vn 0.173228 0.685039 -0.708661
vn 0.212598 0.677165 -0.708661
vn 0.212598 0.677165 -0.708661
vn 0.259843 0.653543 -0.708661
vn 0.259843 0.653543 -0.708661
vn 0.307087 0.637795 -0.708661
vn 0.307087 0.637795 -0.708661
vn 0.346457 0.614173 -0.708661
vn 0.346457 0.614173 -0.708661
vn 0.385827 0.590551 -0.708661
vn 0.385827 0.590551 -0.708661
vn 0.417323 0.566929 -0.708661
vn 0.417323 0.566929 -0.708661
vn 0.425197 0.566929 -0.708661
vn 0.425197 0.566929 -0.708661
vn 0.000000 -0.708661 -0.708661
vn 0.000000 -0.708661 -0.708661
vn 0.000000 -0.708661 -0.708661
vn 0.000000 -0.708661 -0.708661
vn 0.000000 -0.708661 -0.708661
vn 0.000000 -0.708661 -0.708661
vn -0.031496 -0.708661 -0.708661
vn -0.031496 -0.708661 -0.708661
vn -0.055118 -0.700787 -0.708661
vn -0.055118 -0.700787 -0.708661
vn -0.086614 -0.700787 -0.708661
vn -0.086614 -0.700787 -0.708661
vn -0.118110 -0.700787 -0.708661
vn -0.118110 -0.700787 -0.708661
vn -0.141732 -0.692913 -0.708661
vn -0.141732 -0.692913 -0.708661
vn -0.173228 -0.685039 -0.708661
vn -0.173228 -0.685039 -0.708661
vn -0.212598 -0.677165 -0.708661
vn -0.212598 -0.677165 -0.708661
vn -0.259843 -0.653543 -0.708661
vn -0.259843 -0.653543 -0.708661
vn -0.307087 -0.637795 -0.708661
vn -0.307087 -0.637795 -0.708661
vn -0.346457 -0.614173 -0.708661
vn -0.346457 -0.614173 -0.708661
vn -0.385827 -0.590551 -0.708661
vn -0.385827 -0.590551 -0.708661
vn -0.417323 -0.566929 -0.708661
vn -0.417323 -0.566929 -0.708661
vn -0.425197 -0.566929 -0.708661
vn -0.425197 -0.566929 -0.708661
vn 0.425197 0.566929 0.708661
vn 0.417323 0.566929 0.708661
vn 0.425197 0.566929 0.708661
vn 0.417323 0.566929 0.708661
vn 0.385827 0.590551 0.708661
vn 0.385827 0.590551 0.708661
vn 0.346457 0.614173 0.708661
vn 0.346457 0.614173 0.708661
vn 0.307087 0.637795 0.708661
vn 0.307087 0.637795 0.708661
vn 0.259843 0.653543 0.708661
vn 0.259843 0.653543 0.708661
vn 0.212598 0.677165 0.708661
vn 0.212598 0.677165 0.708661
vn 0.173228 0.685039 0.708661
vn 0.173228 0.685039 0.708661
vn 0.141732 0.692913 0.708661
vn 0.141732 0.692913 0.708661
vn 0.118110 0.700787 0.708661
vn 0.118110 0.700787 0.708661
vn 0.086614 0.700787 0.708661
vn 0.086614 0.700787 0.708661
vn 0.055118 0.700787 0.708661
vn 0.055118 0.700787 0.708661
vn 0.031496 0.708661 0.708661
vn 0.031496 0.708661 0.708661
vn 0.000000 0.708661 0.708661
vn 0.000000 0.708661 0.708661
vn 0.000000 0.708661 0.708661
vn 0.000000 0.708661 0.708661
vn 0.000000 0.708661 0.708661
vn 0.000000 0.708661 0.708661
vn -0.425197 -0.566929 0.708661
vn -0.417323 -0.566929 0.708661
vn -0.425197 -0.566929 0.708661
vn -0.417323 -0.566929 0.708661
vn -0.385827 -0.590551 0.708661
vn -0.385827 -0.590551 0.708661
vn -0.346457 -0.614173 0.708661
vn -0.346457 -0.614173 0.708661
vn -0.307087 -0.637795 0.708661
vn -0.307087 -0.637795 0.708661
vn -0.259843 -0.653543 0.708661
vn -0.259843 -0.653543 0.708661
vn -0.212598 -0.677165 0.708661
vn -0.212598 -0.677165 0.708661
vn -0.173228 -0.685039 0.708661
vn -0.173228 -0.685039 0.708661
vn -0.141732 -0.692913 0.708661
vn -0.141732 -0.692913 0.708661
vn -0.118110 -0.700787 0.708661
vn -0.118110 -0.700787 0.708661
vn -0.086614 -0.700787 0.708661
vn -0.086614 -0.700787 0.708661
vn -0.055118 -0.700787 0.708661
vn -0.055118 -0.700787 0.708661
vn -0.031496 -0.708661 0.708661
vn -0.031496 -0.708661 0.708661
vn 0.000000 -0.708661 0.708661
vn 0.000000 -0.708661 0.708661
vn 0.000000 -0.708661 0.708661
vn 0.000000 -0.708661 0.708661
vn 0.000000 -0.708661 0.708661
vn 0.000000 -0.708661 0.708661
vn 0.000000 0.000000 1.000000
vn 0.000000 0.000000 1.000000
vn 0.000000 0.000000 1.000000
vn 0.000000 0.000000 1.000000
vn 0.000000 0.000000 1.000000
vn 0.000000 0.000000 1.000000
vn 0.000000 0.000000 1.000000
vn 0.000000 0.000000 1.000000
vn 0.000000 0.000000 1.000000
vn 0.000000 0.000000 1.000000
vn 0.000000 0.000000 1.000000
vn 0.000000 0.000000 1.000000
vn 0.000000 0.000000 1.000000
vn 0.000000 0.000000 1.000000
vn 0.000000 0.000000 1.000000
vn 0.000000 0.000000 1.000000
vn 0.000000 0.000000 1.000000
vn 0.000000 0.000000 1.000000
vn 0.000000 0.000000 1.000000
vn 0.000000 0.000000 1.000000
vn 0.000000 0.000000 1.000000
vn 0.000000 0.000000 1.000000
vn 0.000000 0.000000 1.000000
vn 0.000000 0.000000 1.000000
vn 0.000000 0.000000 1.000000
vn 0.000000 0.000000 1.000000
vn 0.000000 0.000000 1.000000
vn 0.000000 0.000000 1.000000
vn 0.000000 0.000000 1.000000
vn 0.000000 0.000000 1.000000
vn 0.000000 0.000000 1.000000
vn 0.000000 0.000000 1.000000
vn 0.000000 1.000000 -0.000000
vn 0.000000 1.000000 -0.000000
vn 0.000000 1.000000 -0.000000
vn 0.000000 1.000000 -0.000000
vn 0.007874 1.000000 -0.000000
vn 0.007874 1.000000 -0.000000
vn 0.039370 1.000000 -0.000000
vn 0.039370 1.000000 -0.000000
vn 0.078740 1.000000 -0.000000
vn 0.078740 1.000000 -0.000000
vn 0.125984 0.992126 -0.000000
vn 0.125984 0.992126 -0.000000
vn 0.165354 0.984252 -0.000000
vn 0.165354 0.984252 -0.000000
vn 0.204724 0.976378 -0.000000
vn 0.204724 0.976378 -0.000000
vn 0.251969 0.968504 -0.000000
vn 0.251969 0.968504 -0.000000
vn 0.299213 0.952756 -0.000000
vn 0.299213 0.952756 -0.000000
vn 0.370079 0.929134 -0.000000
vn 0.370079 0.929134 -0.000000
vn 0.433071 0.905512 -0.000000
vn 0.433071 0.905512 -0.000000
vn 0.488189 0.874016 -0.000000
vn 0.488189 0.874016 -0.000000
vn 0.543307 0.834646 -0.000000
vn 0.543307 0.834646 -0.000000
vn 0.598425 0.803149 -0.000000
vn 0.598425 0.803149 -0.000000
vn 0.598425 0.803149 -0.000000
vn 0.598425 0.803149 -0.000000
vn -0.598425 -0.803149 0.000000
vn -0.598425 -0.803149 0.000000
vn -0.598425 -0.803149 0.000000
vn -0.598425 -0.803149 0.000000
vn -0.543307 -0.834646 0.000000
vn -0.543307 -0.834646 0.000000
vn -0.488189 -0.874016 0.000000
vn -0.488189 -0.874016 0.000000
vn -0.433071 -0.905512 0.000000
vn -0.433071 -0.905512 0.000000
vn -0.370079 -0.929134 0.000000
vn -0.370079 -0.929134 0.000000
vn -0.299213 -0.952756 0.000000
vn -0.299213 -0.952756 0.000000
vn -0.251969 -0.968504 0.000000
vn -0.251969 -0.968504 0.000000
vn -0.204724 -0.976378 0.000000
vn -0.204724 -0.976378 0.000000
vn -0.165354 -0.984252 0.000000
vn -0.165354 -0.984252 0.000000
vn -0.125984 -0.992126 0.000000
vn -0.125984 -0.992126 0.000000
vn -0.078740 -1.000000 0.000000
vn -0.078740 -1.000000 0.000000
vn -0.039370 -1.000000 0.000000
vn -0.039370 -1.000000 0.000000
vn -0.007874 -1.000000 0.000000
vn -0.007874 -1.000000 0.000000
vn 0.000000 -1.000000 0.000000
vn 0.000000 -1.000000 0.000000
vn 0.000000 -1.000000 0.000000
vn 0.000000 -1.000000 0.000000
vn 0.000000 -0.000000 -1.000000
vn 0.000000 -0.000000 -1.000000
vn 0.000000 -0.000000 -1.000000
vn 0.000000 -0.000000 -1.000000
vn 0.000000 -0.000000 -1.000000
vn 0.000000 -0.000000 -1.000000
vn 0.000000 -0.000000 -1.000000
vn 0.000000 -0.000000 -1.000000
vn 0.000000 -0.000000 -1.000000
vn 0.000000 -0.000000 -1.000000
vn 0.000000 -0.000000 -1.000000
vn 0.000000 -0.000000 -1.000000
vn 0.000000 -0.000000 -1.000000
vn 0.000000 -0.000000 -1.000000
vn 0.000000 -0.000000 -1.000000
vn 0.000000 -0.000000 -1.000000
vn 0.000000 -0.000000 -1.000000
vn 0.000000 -0.000000 -1.000000
vn 0.000000 -0.000000 -1.000000
vn 0.000000 -0.000000 -1.000000
vn 0.000000 -0.000000 -1.000000
vn 0.000000 -0.000000 -1.000000
vn 0.000000 -0.000000 -1.000000
vn 0.000000 -0.000000 -1.000000
vn 0.000000 -0.000000 -1.000000
vn 0.000000 -0.000000 -1.000000
vn 0.000000 -0.000000 -1.000000
vn 0.000000 -0.000000 -1.000000
vn 0.000000 -0.000000 -1.000000
vn 0.000000 -0.000000 -1.000000
vn 0.000000 -0.000000 -1.000000
vn 0.000000 -0.000000 -1.000000
tan -0.031496 -1.000000 0.000000 1.000000
tan -0.078740 -1.000000 0.000000 1.000000
tan -0.070866 -1.000000 0.000000 1.000000
tan 0.000000 -1.000000 0.000000 1.000000
tan -0.094488 -0.992126 0.000000 1.000000
tan 0.000000 -1.000000 0.000000 1.000000
tan -0.086614 -0.992126 0.000000 1.000000
tan 0.000000 -1.000000 0.000000 1.000000
tan -0.078740 -1.000000 0.000000 1.000000
tan 0.000000 -1.000000 0.000000 1.000000
tan -0.078740 -1.000000 0.000000 1.000000
tan 0.000000 -1.000000 0.000000 1.000000
tan -0.070866 -1.000000 0.000000 1.000000
tan -0.015748 -1.000000 0.000000 1.000000
tan -0.062992 -1.000000 0.000000 1.000000
tan 0.000000 -1.000000 0.000000 1.000000
tan -0.062992 -1.000000 0.000000 1.000000
tan 0.000000 -1.000000 0.000000 1.000000
tan -0.047244 -1.000000 0.000000 1.000000
tan 0.000000 -1.000000 0.000000 1.000000
tan -0.031496 -1.000000 0.000000 1.000000
tan 0.000000 -1.000000 0.000000 1.000000
tan -0.015748 -1.000000 0.000000 1.000000
tan 0.000000 -1.000000 0.000000 1.000000
tan -0.007874 -1.000000 0.000000 1.000000
tan 0.000000 -1.000000 0.000000 1.000000
tan 0.000000 -1.000000 0.000000 1.000000
tan 0.000000 -1.000000 0.000000 1.000000
tan 0.000000 -1.000000 0.000000 1.000000
tan 0.000000 -1.000000 0.000000 1.000000
tan 0.000000 -1.000000 0.000000 1.000000
tan 0.000000 -1.000000 0.000000 1.000000
tan 0.000000 -1.000000 0.000000 1.000000
tan 0.000000 -1.000000 0.000000 1.000000
tan -0.007874 -1.000000 0.000000 1.000000
tan 0.000000 -1.000000 0.000000 1.000000
tan 0.000000 -1.000000 0.000000 1.000000
tan -0.015748 -1.000000 0.000000 1.000000
tan 0.000000 -1.000000 0.000000 1.000000
tan -0.031496 -1.000000 0.000000 1.000000
tan 0.000000 -1.000000 0.000000 1.000000
tan -0.047244 -1.000000 0.000000 1.000000
tan 0.000000 -1.000000 0.000000 1.000000
tan -0.062992 -1.000000 0.000000 1.000000
tan 0.000000 -1.000000 0.000000 1.000000
tan -0.062992 -1.000000 0.000000 1.000000
tan -0.015748 -1.000000 0.000000 1.000000
tan -0.070866 -1.000000 0.000000 1.000000
tan 0.000000 -1.000000 0.000000 1.000000
tan -0.078740 -1.000000 0.000000 1.000000
tan 0.000000 -1.000000 0.000000 1.000000
tan -0.078740 -1.000000 0.000000 1.000000
tan 0.000000 -1.000000 0.000000 1.000000
tan -0.086614 -0.992126 0.000000 1.000000
tan 0.000000 -1.000000 0.000000 1.000000
tan -0.094488 -0.992126 0.000000 1.000000
tan 0.000000 -1.000000 0.000000 1.000000
tan -0.070866 -1.000000 0.000000 1.000000
tan -0.031496 -1.000000 0.000000 1.000000
tan -0.078740 -1.000000 0.000000 1.000000
tan 0.000000 -0.708661 -0.708661 1.000000
tan 0.000000 -0.708661 -0.708661 1.000000
tan 0.000000 -0.708661 -0.708661 1.000000
tan 0.000000 -0.708661 -0.708661 1.000000
tan -0.005580 -0.708661 -0.708661 1.000000
tan -0.005580 -0.708661 -0.708661 1.000000
tan -0.027900 -0.708661 -0.709901 1.000000
tan -0.027900 -0.708661 -0.709901 1.000000
tan -0.055800 -0.708661 -0.705127 1.000000
tan -0.055800 -0.708661 -0.705127 1.000000
tan -0.089280 -0.703081 -0.706181 1.000000
tan -0.089280 -0.703081 -0.706181 1.000000
tan -0.117180 -0.697501 -0.709281 1.000000
tan -0.117180 -0.697501 -0.709281 1.000000
tan -0.145080 -0.691921 -0.705561 1.000000
tan -0.145080 -0.691921 -0.705561 1.000000
tan -0.172980 -0.686341 -0.705747 1.000000
tan -0.172980 -0.686341 -0.705747 1.000000
tan -0.212040 -0.675181 -0.708785 1.000000
tan -0.212040 -0.675181 -0.708785 1.000000
tan -0.262261 -0.658441 -0.703391 1.000000
tan -0.262261 -0.658441 -0.703391 1.000000
tan -0.306901 -0.641701 -0.710521 1.000000
tan -0.306901 -0.641701 -0.710521 1.000000
tan -0.345961 -0.619381 -0.705933 1.000000
tan -0.345961 -0.619381 -0.705933 1.000000
tan -0.385021 -0.591481 -0.702523 1.000000
tan -0.385021 -0.591481 -0.702523 1.000000
tan -0.414037 -0.572447 -0.701779 1.000000
tan -0.414037 -0.572447 -0.701779 1.000000
tan -0.424081 -0.569161 -0.709777 1.000000
tan -0.424081 -0.569161 -0.709777 1.000000
tan 0.000000 -0.708661 0.708661 1.000000
tan 0.000000 -0.708661 0.708661 1.000000
tan 0.000000 -0.708661 0.708661 1.000000
tan 0.000000 -0.708661 0.708661 1.000000
tan -0.005580 -0.708661 0.708661 1.000000
tan -0.005580 -0.708661 0.708661 1.000000
tan -0.027900 -0.708661 0.709901 1.000000
tan -0.027900 -0.708661 0.709901 1.000000
tan -0.055800 -0.708661 0.705127 1.000000
tan -0.055800 -0.708661 0.705127 1.000000
tan -0.089280 -0.703081 0.706181 1.000000
tan -0.089280 -0.703081 0.706181 1.000000
tan -0.117180 -0.697501 0.709281 1.000000
tan -0.117180 -0.697501 0.709281 1.000000
tan -0.145080 -0.691921 0.705561 1.000000
tan -0.145080 -0.691921 0.705561 1.000000
tan -0.172980 -0.686341 0.705747 1.000000
tan -0.172980 -0.686341 0.705747 1.000000
tan -0.212040 -0.675181 0.708785 1.000000
tan -0.212040 -0.675181 0.708785 1.000000
tan -0.262261 -0.658441 0.703391 1.000000
tan -0.262261 -0.658441 0.703391 1.000000
tan -0.306901 -0.641701 0.710521 1.000000
tan -0.306901 -0.641701 0.710521 1.000000
tan -0.345961 -0.619381 0.705933 1.000000
tan -0.345961 -0.619381 0.705933 1.000000
tan -0.385021 -0.591481 0.702523 1.000000
tan -0.385021 -0.591481 0.702523 1.000000
tan -0.414037 -0.572447 0.701779 1.000000
tan -0.414037 -0.572447 0.701779 1.000000
tan -0.424081 -0.569161 0.709777 1.000000
tan -0.424081 -0.569161 0.709777 1.000000
tan 0.424081 0.569161 -0.709777 1.000000
tan 0.414037 0.572447 -0.701779 1.000000
tan 0.424081 0.569161 -0.709777 1.000000
tan 0.414037 0.572447 -0.701779 1.000000
tan 0.385021 0.591481 -0.702523 1.000000
tan 0.385021 0.591481 -0.702523 1.000000
tan 0.345961 0.619381 -0.705933 1.000000
tan 0.345961 0.619381 -0.705933 1.000000
tan 0.306901 0.641701 -0.710521 1.000000
tan 0.306901 0.641701 -0.710521 1.000000
tan 0.262261 0.658441 -0.703391 1.000000
tan 0.262261 0.658441 -0.703391 1.000000
tan 0.212040 0.675181 -0.708785 1.000000
tan 0.212040 0.675181 -0.708785 1.000000
tan 0.172980 0.686341 -0.705747 1.000000
tan 0.172980 0.686341 -0.705747 1.000000
tan 0.145080 0.691921 -0.705561 1.000000
tan 0.145080 0.691921 -0.705561 1.000000
tan 0.117180 0.697501 -0.709281 1.000000
tan 0.117180 0.697501 -0.709281 1.000000
tan 0.089280 0.703081 -0.706181 1.000000
tan 0.089280 0.703081 -0.706181 1.000000
tan 0.055800 0.708661 -0.705127 1.000000
tan 0.055800 0.708661 -0.705127 1.000000
tan 0.027900 0.708661 -0.709901 1.000000
tan 0.027900 0.708661 -0.709901 1.000000
tan 0.005580 0.708661 -0.708661 1.000000
tan 0.005580 0.708661 -0.708661 1.000000
tan 0.000000 0.708661 -0.708661 1.000000
tan 0.000000 0.708661 -0.708661 1.000000
tan 0.000000 0.708661 -0.708661 1.000000
tan 0.000000 0.708661 -0.708661 1.000000
tan 0.424081 0.569161 0.709777 1.000000
tan 0.414037 0.572447 0.701779 1.000000
tan 0.424081 0.569161 0.709777 1.000000
tan 0.414037 0.572447 0.701779 1.000000
tan 0.385021 0.591481 0.702523 1.000000
tan 0.385021 0.591481 0.702523 1.000000
tan 0.345961 0.619381 0.705933 1.000000
tan 0.345961 0.619381 0.705933 1.000000
tan 0.306901 0.641701 0.710521 1.000000
tan 0.306901 0.641701 0.710521 1.000000
tan 0.262261 0.658441 0.703391 1.000000
tan 0.262261 0.658441 0.703391 1.000000
tan 0.212040 0.675181 0.708785 1.000000
tan 0.212040 0.675181 0.708785 1.000000
tan 0.172980 0.686341 0.705747 1.000000
tan 0.172980 0.686341 0.705747 1.000000
tan 0.145080 0.691921 0.705561 1.000000
tan 0.145080 0.691921 0.705561 1.000000
tan 0.117180 0.697501 0.709281 1.000000
tan 0.117180 0.697501 0.709281 1.000000
tan 0.089280 0.703081 0.706181 1.000000
tan 0.089280 0.703081 0.706181 1.000000
tan 0.055800 0.708661 0.705127 1.000000
tan 0.055800 0.708661 0.705127 1.000000
tan 0.027900 0.708661 0.709901 1.000000
tan 0.027900 0.708661 0.709901 1.000000
tan 0.005580 0.708661 0.708661 1.000000
tan 0.005580 0.708661 0.708661 1.000000
tan 0.000000 0.708661 0.708661 1.000000
tan 0.000000 0.708661 0.708661 1.000000
tan 0.000000 0.708661 0.708661 1.000000
tan 0.000000 0.708661 0.708661 1.000000
tan 0.000000 1.000000 -0.000000 1.000000
tan 0.000000 1.000000 -0.000000 1.000000
tan 0.000000 1.000000 -0.000000 1.000000
tan 0.000000 1.000000 -0.000000 1.000000
tan 0.007874 1.000000 -0.000000 1.000000
tan 0.007874 1.000000 -0.000000 1.000000
tan 0.039370 1.000000 -0.000000 1.000000
tan 0.039370 1.000000 -0.000000 1.000000
tan 0.078740 1.000000 -0.000000 1.000000
tan 0.086614 1.000000 -0.000000 1.000000
tan 0.118110 0.992126 -0.000000 1.000000
tan 0.125984 0.992126 -0.000000 1.000000
tan 0.157480 0.984252 -0.000000 1.000000
tan 0.165354 0.984252 -0.000000 1.000000
tan 0.196850 0.976378 -0.000000 1.000000
tan 0.204724 0.976378 -0.000000 1.000000
tan 0.244094 0.968504 -0.000000 1.000000
tan 0.251969 0.968504 -0.000000 1.000000
tan 0.299213 0.952756 -0.000000 1.000000
tan 0.314961 0.952756 -0.000000 1.000000
tan 0.362205 0.929134 -0.000000 1.000000
tan 0.377953 0.929134 -0.000000 1.000000
tan 0.417323 0.905512 -0.000000 1.000000
tan 0.440945 0.897638 -0.000000 1.000000
tan 0.480315 0.881890 -0.000000 1.000000
tan 0.496063 0.866142 -0.000000 1.000000
tan 0.535433 0.842520 -0.000000 1.000000
tan 0.559055 0.826772 -0.000000 1.000000
tan 0.582677 0.811023 -0.000000 1.000000
tan 0.590551 0.803149 -0.000000 1.000000
tan 0.598425 0.803149 -0.000000 1.000000
tan 0.598425 0.803149 -0.000000 1.000000
tan 0.000000 -0.000000 -1.000000 1.000000
tan 0.000000 -0.000000 -1.000000 1.000000
tan 0.000000 -0.000000 -1.000000 1.000000
tan 0.000000 -0.000000 -1.000000 1.000000
tan 0.000000 -0.000000 -1.000062 1.000000
tan 0.000000 -0.000000 -1.000062 1.000000
tan 0.000000 -0.000000 -1.001550 1.000000
tan 0.000000 -0.000000 -1.001550 1.000000
tan 0.000000 -0.000000 -1.006200 1.000000
tan 0.000000 -0.000000 -1.006200 1.000000
tan 0.000000 -0.000000 -1.000186 1.000000
tan 0.000000 -0.000000 -1.000186 1.000000
tan 0.000000 -0.000000 -0.996094 1.000000
tan 0.000000 -0.000000 -0.996094 1.000000
tan 0.000000 -0.000000 -0.995226 1.000000
tan 0.000000 -0.000000 -0.995226 1.000000
tan 0.000000 -0.000000 -1.001488 1.000000
tan 0.000000 -0.000000 -1.001488 1.000000
tan 0.000000 -0.000000 -0.997272 1.000000
tan 0.000000 -0.000000 -0.997272 1.000000
tan 0.000000 -0.000000 -1.000248 1.000000
tan 0.000000 -0.000000 -1.000248 1.000000
tan 0.000000 -0.000000 -1.007502 1.000000
tan 0.000000 -0.000000 -1.007502 1.000000
tan 0.000000 -0.000000 -1.002232 1.000000
tan 0.000000 -0.000000 -1.002232 1.000000
tan 0.000000 -0.000000 -0.991816 1.000000
tan 0.000000 -0.000000 -0.991816 1.000000
tan 0.000000 -0.000000 -1.003162 1.000000
tan 0.000000 -0.000000 -1.003162 1.000000
tan 0.000000 -0.000000 -1.003162 1.000000
tan 0.000000 -0.000000 -1.003162 1.000000
tan 0.000000 0.000000 1.003162 1.000000
tan 0.000000 0.000000 1.003162 1.000000
tan 0.000000 0.000000 1.003162 1.000000
tan 0.000000 0.000000 1.003162 1.000000
tan 0.000000 0.000000 0.991816 1.000000
tan 0.000000 0.000000 0.991816 1.000000
tan 0.000000 0.000000 1.002232 1.000000
tan 0.000000 0.000000 1.002232 1.000000
tan 0.000000 0.000000 1.007502 1.000000
tan 0.000000 0.000000 1.007502 1.000000
tan 0.000000 0.000000 1.000248 1.000000
tan 0.000000 0.000000 1.000248 1.000000
tan 0.000000 0.000000 0.997272 1.000000
tan 0.000000 0.000000 0.997272 1.000000
tan 0.000000 0.000000 1.001488 1.000000
tan 0.000000 0.000000 1.001488 1.000000
tan 0.000000 0.000000 0.995226 1.000000
tan 0.000000 0.000000 0.995226 1.000000
tan 0.000000 0.000000 0.996094 1.000000
tan 0.000000 0.000000 0.996094 1.000000
tan 0.000000 0.000000 1.000186 1.000000
tan 0.000000 0.000000 1.000186 1.000000
tan 0.000000 0.000000 1.006200 1.000000
tan 0.000000 0.000000 1.006200 1.000000
tan 0.000000 0.000000 1.001550 1.000000
tan 0.000000 0.000000 1.001550 1.000000
tan 0.000000 0.000000 1.000062 1.000000
tan 0.000000 0.000000 1.000062 1.000000
tan 0.000000 0.000000 1.000000 1.000000
tan 0.000000 0.000000 1.000000 1.000000
tan 0.000000 0.000000 1.000000 1.000000
tan 0.000000 0.000000 1.000000 1.000000
tan -0.598425 -0.803149 0.000000 1.000000
tan -0.590551 -0.803149 0.000000 1.000000
tan -0.598425 -0.803149 0.000000 1.000000
tan -0.582677 -0.811023 0.000000 1.000000
tan -0.559055 -0.826772 0.000000 1.000000
tan -0.535433 -0.842520 0.000000 1.000000
tan -0.496063 -0.866142 0.000000 1.000000
tan -0.480315 -0.881890 0.000000 1.000000
tan -0.440945 -0.897638 0.000000 1.000000
tan -0.417323 -0.905512 0.000000 1.000000
tan -0.377953 -0.929134 0.000000 1.000000
tan -0.362205 -0.929134 0.000000 1.000000
tan -0.314961 -0.952756 0.000000 1.000000
tan -0.299213 -0.952756 0.000000 1.000000
tan -0.251969 -0.968504 0.000000 1.000000
tan -0.244094 -0.968504 0.000000 1.000000
tan -0.204724 -0.976378 0.000000 1.000000
tan -0.196850 -0.976378 0.000000 1.000000
tan -0.165354 -0.984252 0.000000 1.000000
tan -0.157480 -0.984252 0.000000 1.000000
tan -0.125984 -0.992126 0.000000 1.000000
tan -0.118110 -0.992126 0.000000 1.000000
tan -0.086614 -1.000000 0.000000 1.000000
tan -0.078740 -1.000000 0.000000 1.000000
tan -0.039370 -1.000000 0.000000 1.000000
tan -0.039370 -1.000000 0.000000 1.000000
tan -0.007874 -1.000000 0.000000 1.000000
tan -0.007874 -1.000000 0.000000 1.000000
tan 0.000000 -1.000000 0.000000 1.000000
tan 0.000000 -1.000000 0.000000 1.000000
tan 0.000000 -1.000000 0.000000 1.000000
tan 0.000000 -1.000000 0.000000 1.000000
f 3/3/3 2/2/2 1/1/1
f 4/4/4 3/3/3 1/1/1
f 3/3/3 4/4/4 5/5/5
f 6/6/6 5/5/5 4/4/4
f 5/5/5 6/6/6 7/7/7
f 8/8/8 7/7/7 6/6/6
f 7/7/7 8/8/8 9/9/9
f 10/10/10 9/9/9 8/8/8
f 9/9/9 10/10/10 11/11/11
f 12/12/12 11/11/11 10/10/10
f 11/11/11 12/12/12 13/13/13
f 14/14/14 13/13/13 12/12/12
f 13/13/13 14/14/14 15/15/15
f 16/16/16 15/15/15 14/14/14
f 15/15/15 16/16/16 17/17/17
f 18/18/18 17/17/17 16/16/16
f 17/17/17 18/18/18 19/19/19
f 20/20/20 19/19/19 18/18/18
f 19/19/19 20/20/20 21/21/21
f 22/22/22 21/21/21 20/20/20
f 21/21/21 22/22/22 23/23/23
f 24/24/24 23/23/23 22/22/22
f 23/23/23 24/24/24 25/25/25
f 26/26/26 25/25/25 24/24/24
f 26/26/26 27/27/27 25/25/25
f 28/28/28 25/25/25 27/27/27
f 27/27/27 29/29/29 28/28/28
f 30/30/30 28/28/28 29/29/29
f 33/33/33 32/32/32 31/31/31
f 34/34/34 31/31/31 32/32/32
f 31/31/31 34/34/34 35/35/35
f 36/36/36 35/35/35 34/34/34
f 36/36/36 37/37/37 35/35/35
f 35/35/35 37/37/37 38/38/38
f 37/37/37 39/39/39 38/38/38
f 38/38/38 39/39/39 40/40/40
f 39/39/39 41/41/41 40/40/40
f 40/40/40 41/41/41 42/42/42
f 41/41/41 43/43/43 42/42/42
f 42/42/42 43/43/43 44/44/44
f 43/43/43 45/45/45 44/44/44
f 44/44/44 45/45/45 46/46/46
f 45/45/45 47/47/47 46/46/46
f 48/48/48 46/46/46 47/47/47
f 47/47/47 49/49/49 48/48/48
f 48/48/48 49/49/49 50/50/50
f 49/49/49 51/51/51 50/50/50
f 50/50/50 51/51/51 52/52/52
f 51/51/51 53/53/53 52/52/52
f 52/52/52 53/53/53 54/54/54
f 53/53/53 55/55/55 54/54/54
f 54/54/54 55/55/55 56/56/56
f 55/55/55 57/57/57 56/56/56
f 56/56/56 57/57/57 58/58/58
f 57/57/57 59/59/59 58/58/58
f 60/60/60 58/58/58 59/59/59
f 63/63/63 62/62/62 61/61/61
f 64/64/64 61/61/61 62/62/62
f 61/61/61 64/64/64 65/65/65
f 66/66/66 65/65/65 64/64/64
f 66/66/66 67/67/67 65/65/65
f 67/67/67 66/66/66 68/68/68
f 68/68/68 69/69/69 67/67/67
f 70/70/70 67/67/67 69/69/69
f 69/69/69 71/71/71 70/70/70
f 71/71/71 69/69/69 72/72/72
f 72/72/72 73/73/73 71/71/71
f 73/73/73 72/72/72 74/74/74
f 74/74/74 75/75/75 73/73/73
f 75/75/75 74/74/74 76/76/76
f 75/75/75 76/76/76 77/77/77
f 78/78/78 77/77/77 76/76/76
f 78/78/78 79/79/79 77/77/77
f 79/79/79 78/78/78 80/80/80
f 80/80/80 81/81/81 79/79/79
f 82/82/82 79/79/79 81/81/81
f 81/81/81 83/83/83 82/82/82
f 84/84/84 82/82/82 83/83/83
f 83/83/83 85/85/85 84/84/84
f 86/86/86 84/84/84 85/85/85
f 85/85/85 87/87/87 86/86/86
f 88/88/88 86/86/86 87/87/87
f 87/87/87 89/89/89 88/88/88
f 90/90/90 88/88/88 89/89/89
f 89/89/89 91/91/91 90/90/90
f 92/92/92 90/90/90 91/91/91
f 95/95/95 94/94/94 93/93/93
f 96/96/96 93/93/93 94/94/94
f 93/93/93 96/96/96 97/97/97
f 98/98/98 97/97/97 96/96/96
f 97/97/97 98/98/98 99/99/99
f 100/100/100 99/99/99 98/98/98
f 100/100/100 101/101/101 99/99/99
f 102/102/102 99/99/99 101/101/101
f 102/102/102 101/101/101 103/103/103
f 104/104/104 103/103/103 101/101/101
f 103/103/103 104/104/104 105/105/105
f 106/106/106 105/105/105 104/104/104
f 105/105/105 106/106/106 107/107/107
f 108/108/108 107/107/107 106/106/106
f 107/107/107 108/108/108 109/109/109
f 110/110/110 109/109/109 108/108/108
f 110/110/110 111/111/111 109/109/109
f 111/111/111 110/110/110 112/112/112
f 112/112/112 113/113/113 111/111/111
f 114/114/114 111/111/111 113/113/113
f 114/114/114 113/113/113 115/115/115
f 116/116/116 115/115/115 113/113/113
f 115/115/115 116/116/116 117/117/117
f 118/118/118 117/117/117 116/116/116
f 118/118/118 119/119/119 117/117/117
f 120/120/120 117/117/117 119/119/119
f 119/119/119 121/121/121 120/120/120
f 122/122/122 120/120/120 121/121/121
f 121/121/121 123/123/123 122/122/122
f 124/124/124 122/122/122 123/123/123
f 127/127/127 126/126/126 125/125/125
f 126/126/126 127/127/127 128/128/128
f 126/126/126 128/128/128 129/129/129
f 130/130/130 129/129/129 128/128/128
f 130/130/130 131/131/131 129/129/129
f 132/132/132 129/129/129 131/131/131
f 131/131/131 133/133/133 132/132/132
f 134/134/134 132/132/132 133/133/133
f 133/133/133 135/135/135 134/134/134
f 136/136/136 134/134/134 135/135/135
f 135/135/135 137/137/137 136/136/136
f 138/138/138 137/137/137 135/135/135
f 138/138/138 139/139/139 137/137/137
f 140/140/140 137/137/137 139/139/139
f 139/139/139 141/141/141 140/140/140
f 142/142/142 140/140/140 141/141/141
f 141/141/141 143/143/143 142/142/142
f 144/144/144 142/142/142 143/143/143
f 143/143/143 145/145/145 144/144/144
f 146/146/146 144/144/144 145/145/145
f 145/145/145 147/147/147 146/146/146
f 148/148/148 146/146/146 147/147/147
f 147/147/147 149/149/149 148/148/148
f 149/149/149 147/147/147 150/150/150
f 150/150/150 151/151/151 149/149/149
f 152/152/152 149/149/149 151/151/151
f 151/151/151 153/153/153 152/152/152
f 154/154/154 152/152/152 153/153/153
f 154/154/154 153/153/153 155/155/155
f 156/156/156 155/155/155 153/153/153
f 159/159/159 158/158/158 157/157/157
f 158/158/158 159/159/159 160/160/160
f 158/158/158 160/160/160 161/161/161
f 162/162/162 161/161/161 160/160/160
f 162/162/162 163/163/163 161/161/161
f 164/164/164 161/161/161 163/163/163
f 163/163/163 165/165/165 164/164/164
f 166/166/166 164/164/164 165/165/165
f 165/165/165 167/167/167 166/166/166
f 168/168/168 166/166/166 167/167/167
f 167/167/167 169/169/169 168/168/168
f 170/170/170 169/169/169 167/167/167
f 170/170/170 171/171/171 169/169/169
f 172/172/172 169/169/169 171/171/171
f 171/171/171 173/173/173 172/172/172
f 174/174/174 172/172/172 173/173/173
f 173/173/173 175/175/175 174/174/174
f 176/176/176 174/174/174 175/175/175
f 175/175/175 177/177/177 176/176/176
f 178/178/178 176/176/176 177/177/177
f 177/177/177 179/179/179 178/178/178
f 180/180/180 178/178/178 179/179/179
f 180/180/180 179/179/179 181/181/181
f 182/182/182 181/181/181 179/179/179
f 182/182/182 183/183/183 181/181/181
f 184/184/184 181/181/181 183/183/183
f 183/183/183 185/185/185 184/184/184
f 186/186/186 184/184/184 185/185/185
f 186/186/186 185/185/185 187/187/187
f 188/188/188 187/187/187 185/185/185
f 191/191/191 190/190/190 189/189/189
f 190/190/190 191/191/191 192/192/192
f 192/192/192 193/193/193 190/190/190
f 192/192/192 194/194/194 193/193/193
f 193/193/193 194/194/194 195/195/195
f 196/196/196 195/195/195 194/194/194
f 195/195/195 196/196/196 197/197/197
f 198/198/198 197/197/197 196/196/196
f 197/197/197 198/198/198 199/199/199
f 200/200/200 199/199/199 198/198/198
f 199/199/199 200/200/200 201/201/201
f 202/202/202 201/201/201 200/200/200
f 201/201/201 202/202/202 203/203/203
f 204/204/204 203/203/203 202/202/202
f 203/203/203 204/204/204 205/205/205
f 206/206/206 205/205/205 204/204/204
f 206/206/206 207/207/207 205/205/205
f 206/206/206 208/208/208 207/207/207
f 207/207/207 208/208/208 209/209/209
f 210/210/210 209/209/209 208/208/208
f 209/209/209 210/210/210 211/211/211
f 212/212/212 211/211/211 210/210/210
f 211/211/211 212/212/212 213/213/213
f 214/214/214 213/213/213 212/212/212
f 213/213/213 214/214/214 215/215/215
f 216/216/216 215/215/215 214/214/214
f 215/215/215 216/216/216 217/217/217
f 218/218/218 217/217/217 216/216/216
f 219/219/219 217/217/217 218/218/218
f 219/219/219 218/218/218 220/220/220
f 223/223/223 222/222/222 221/221/221
f 224/224/224 221/221/221 222/222/222
f 221/221/221 224/224/224 225/225/225
f 226/226/226 225/225/225 224/224/224
f 227/227/227 225/225/225 226/226/226
f 228/228/228 225/225/225 227/227/227
f 229/229/229 228/228/228 227/227/227
f 230/230/230 228/228/228 229/229/229
f 231/231/231 230/230/230 229/229/229
f 232/232/232 230/230/230 231/231/231
f 233/233/233 232/232/232 231/231/231
f 234/234/234 232/232/232 233/233/233
f 235/235/235 234/234/234 233/233/233
f 236/236/236 234/234/234 235/235/235
f 237/237/237 236/236/236 235/235/235
f 238/238/238 236/236/236 237/237/237
f 238/238/238 237/237/237 239/239/239
f 240/240/240 239/239/239 237/237/237
f 241/241/241 239/239/239 240/240/240
f 242/242/242 239/239/239 241/241/241
f 243/243/243 242/242/242 241/241/241
f 244/244/244 242/242/242 243/243/243
f 244/244/244 243/243/243 245/245/245
f 246/246/246 245/245/245 243/243/243
f 245/245/245 246/246/246 247/247/247
f 248/248/248 247/247/247 246/246/246
f 247/247/247 248/248/248 249/249/249
f 250/250/250 249/249/249 248/248/248
f 249/249/249 250/250/250 251/251/251
f 252/252/252 251/251/251 250/250/250
f 255/255/255 254/254/254 253/253/253
f 256/256/256 255/255/255 253/253/253
f 257/257/257 256/256/256 253/253/253
f 258/258/258 256/256/256 257/257/257
f 259/259/259 258/258/258 257/257/257
f 260/260/260 258/258/258 259/259/259
f 260/260/260 259/259/259 261/261/261
f 262/262/262 261/261/261 259/259/259
f 263/263/263 261/261/261 262/262/262
f 264/264/264 261/261/261 263/263/263
f 263/263/263 265/265/265 264/264/264
f 266/266/266 264/264/264 265/265/265
f 267/267/267 266/266/266 265/265/265
f 267/267/267 265/265/265 268/268/268
f 268/268/268 269/269/269 267/267/267
f 270/270/270 267/267/267 269/269/269
f 271/271/271 270/270/270 269/269/269
f 272/272/272 270/270/270 271/271/271
f 273/273/273 272/272/272 271/271/271
f 274/274/274 272/272/272 273/273/273
f 275/275/275 274/274/274 273/273/273
f 276/276/276 274/274/274 275/275/275
f 275/275/275 277/277/277 276/276/276
f 278/278/278 276/276/276 277/277/277
f 279/279/279 278/278/278 277/277/277
f 280/280/280 278/278/278 279/279/279
f 281/281/281 280/280/280 279/279/279
f 281/281/281 279/279/279 282/282/282
f 282/282/282 283/283/283 281/281/281
f 284/284/284 281/281/281 283/283/283
f 287/287/287 286/286/286 285/285/285
f 288/288/288 285/285/285 286/286/286
f 289/289/289 288/288/288 286/286/286
f 288/288/288 289/289/289 290/290/290
f 291/291/291 290/290/290 289/289/289
f 290/290/290 291/291/291 292/292/292
f 293/293/293 292/292/292 291/291/291
f 292/292/292 293/293/293 294/294/294
f 295/295/295 294/294/294 293/293/293
f 294/294/294 295/295/295 296/296/296
f 297/297/297 296/296/296 295/295/295
f 298/298/298 296/296/296 297/297/297
f 297/297/297 299/299/299 298/298/298
f 300/300/300 298/298/298 299/299/299
f 301/301/301 300/300/300 299/299/299
f 302/302/302 300/300/300 301/301/301
f 303/303/303 302/302/302 301/301/301
f 304/304/304 302/302/302 303/303/303
f 305/305/305 304/304/304 303/303/303
f 306/306/306 304/304/304 305/305/305
f 307/307/307 306/306/306 305/305/305
f 308/308/308 306/306/306 307/307/307
f 309/309/309 308/308/308 307/307/307
f 310/310/310 308/308/308 309/309/309
f 311/311/311 310/310/310 309/309/309
f 312/312/312 310/310/310 311/311/311
f 311/311/311 313/313/313 312/312/312
f 314/314/314 312/312/312 313/313/313
f 313/313/313 315/315/315 314/314/314
f 315/315/315 313/313/313 316/316/316
