mtllib SM_Wall_02_LOD1@000002909DC03900.mtl
g SM_Wall_02_LOD1@000002909DC03900
#Vertices 168
#Indices 444
#Section 0 Offset 0 NumIndices 48 MaterialIndex 0 MI_BrickTile_B_01
#Section 1 Offset 48 NumIndices 396 MaterialIndex 1 MI_ConcreteTrim_A_02
v 8.016634 0.000000 0.250000 0.000000 0.000000 1.000000 1.000000
v 4.413835 1.500284 0.250000 0.000000 0.000000 1.000000 1.000000
v 8.016634 1.500000 0.250000 0.000000 0.000000 1.000000 1.000000
v 0.016641 0.000000 0.250000 0.000000 0.000000 1.000000 1.000000
v 4.024479 1.540817 0.250000 0.000000 0.000000 1.000000 1.000000
v 3.648325 1.633743 0.250000 0.000000 0.000000 1.000000 1.000000
v 2.397119 2.085407 0.250000 0.000000 0.000000 1.000000 1.000000
v 2.028294 2.247262 0.250000 0.000000 0.000000 1.000000 1.000000
v 1.672288 2.442613 0.250000 0.000000 0.000000 1.000000 1.000000
v 0.016641 3.500000 0.250000 0.000000 0.000000 1.000000 1.000000
v 4.413835 1.500284 -0.250000 0.000000 0.000000 1.000000 1.000000
v 8.016634 -0.000000 -0.250000 0.000000 0.000000 1.000000 1.000000
v 8.016634 1.500000 -0.250000 0.000000 0.000000 1.000000 1.000000
v 0.016641 -0.000000 -0.250000 0.000000 0.000000 1.000000 1.000000
v 4.024479 1.540817 -0.250000 0.000000 0.000000 1.000000 1.000000
v 3.648325 1.633743 -0.250000 0.000000 0.000000 1.000000 1.000000
v 2.397119 2.085407 -0.250000 0.000000 0.000000 1.000000 1.000000
v 2.028294 2.247262 -0.250000 0.000000 0.000000 1.000000 1.000000
v 1.672288 2.442613 -0.250000 0.000000 0.000000 1.000000 1.000000
v 0.016641 3.500000 -0.250000 0.000000 0.000000 1.000000 1.000000
v 4.780278 1.940550 0.374976 0.000000 0.000000 1.000000 1.000000
v 8.000001 2.000098 0.314998 0.000000 0.000000 1.000000 1.000000
v 8.000001 1.940096 0.375000 0.000000 0.000000 1.000000 1.000000
v 4.626107 2.000753 0.314724 0.000000 0.000000 1.000000 1.000000
v 4.322266 1.966530 0.375000 0.000000 0.000000 1.000000 1.000000
v 3.840935 2.079268 0.314849 0.000000 0.000000 1.000000 1.000000
v 3.838125 2.019386 0.374907 0.000000 0.000000 1.000000 1.000000
v 3.217491 2.195362 0.315257 0.000000 0.000000 1.000000 1.000000
v 3.205342 2.135694 0.374964 0.000000 0.000000 1.000000 1.000000
v 2.673994 2.343200 0.314998 0.000000 0.000000 1.000000 1.000000
v 2.655744 2.286001 0.375000 0.000000 0.000000 1.000000 1.000000
v 2.173370 2.465055 0.374848 0.000000 0.000000 1.000000 1.000000
v 2.197982 2.521185 0.315380 0.000000 0.000000 1.000000 1.000000
v 1.743245 2.748872 0.314998 0.000000 0.000000 1.000000 1.000000
v 1.713903 2.696496 0.375000 0.000000 0.000000 1.000000 1.000000
v 1.342130 2.995665 0.315034 0.000000 0.000000 1.000000 1.000000
v 1.309756 2.944845 0.375008 0.000000 0.000000 1.000000 1.000000
v 0.000001 3.925095 0.374999 0.000000 0.000000 1.000000 1.000000
v 0.000000 4.000098 0.314998 0.000000 0.000000 1.000000 1.000000
v -0.000001 3.925096 -0.375000 0.000000 0.000000 1.000000 1.000000
v 1.334045 3.000774 -0.314859 0.000000 0.000000 1.000000 1.000000
v -0.000001 4.000098 -0.314999 0.000000 0.000000 1.000000 1.000000
v 1.309641 2.944920 -0.374977 0.000000 0.000000 1.000000 1.000000
v 1.743245 2.748872 -0.314999 0.000000 0.000000 1.000000 1.000000
v 1.713903 2.696496 -0.375000 0.000000 0.000000 1.000000 1.000000
v 2.196264 2.519311 -0.314568 0.000000 0.000000 1.000000 1.000000
v 2.172962 2.465169 -0.374904 0.000000 0.000000 1.000000 1.000000
v 2.673994 2.343200 -0.314998 0.000000 0.000000 1.000000 1.000000
v 2.790191 2.240965 -0.375110 0.000000 0.000000 1.000000 1.000000
v 3.220766 2.192968 -0.314741 0.000000 0.000000 1.000000 1.000000
v 3.519648 2.072061 -0.375067 0.000000 0.000000 1.000000 1.000000
v 3.855829 2.077639 -0.315017 0.000000 0.000000 1.000000 1.000000
v 4.154624 1.979271 -0.375033 0.000000 0.000000 1.000000 1.000000
v 4.627021 2.002389 -0.315267 0.000000 0.000000 1.000000 1.000000
v 4.780426 1.940561 -0.375001 0.000000 0.000000 1.000000 1.000000
v 7.999999 1.940096 -0.375000 0.000000 0.000000 1.000000 1.000000
v 7.999999 2.000098 -0.314998 0.000000 0.000000 1.000000 1.000000
v -0.000001 3.250000 -0.314999 0.000000 0.000000 1.000000 1.000000
v 1.374203 2.296276 -0.375080 0.000000 0.000000 1.000000 1.000000
v -0.000001 3.325002 -0.375000 0.000000 0.000000 1.000000 1.000000
v 1.334743 2.250171 -0.315153 0.000000 0.000000 1.000000 1.000000
v 1.772588 2.051150 -0.375000 0.000000 0.000000 1.000000 1.000000
v 1.743245 1.998774 -0.314998 0.000000 0.000000 1.000000 1.000000
v 2.197973 1.770843 -0.314707 0.000000 0.000000 1.000000 1.000000
v 2.221451 1.825380 -0.375011 0.000000 0.000000 1.000000 1.000000
v 2.825795 1.605422 -0.374923 0.000000 0.000000 1.000000 1.000000
v 2.673994 1.593102 -0.314998 0.000000 0.000000 1.000000 1.000000
v 3.217053 1.445294 -0.314769 0.000000 0.000000 1.000000 1.000000
v 3.541004 1.440012 -0.374904 0.000000 0.000000 1.000000 1.000000
v 3.838887 1.329983 -0.314978 0.000000 0.000000 1.000000 1.000000
v 4.165848 1.348659 -0.374946 0.000000 0.000000 1.000000 1.000000
v 4.622978 1.251485 -0.315023 0.000000 0.000000 1.000000 1.000000
v 4.785066 1.310474 -0.375016 0.000000 0.000000 1.000000 1.000000
v 7.999996 1.310002 -0.375000 0.000000 0.000000 1.000000 1.000000
v 7.999999 1.250000 -0.314998 0.000000 0.000000 1.000000 1.000000
v 8.000001 1.310002 0.375000 0.000000 0.000000 1.000000 1.000000
v 4.784766 1.310469 0.375008 0.000000 0.000000 1.000000 1.000000
v 8.000001 1.940096 0.375000 0.000000 0.000000 1.000000 1.000000
v 4.780278 1.940550 0.374976 0.000000 0.000000 1.000000 1.000000
v 4.332057 1.336061 0.375000 0.000000 0.000000 1.000000 1.000000
v 4.322266 1.966530 0.375000 0.000000 0.000000 1.000000 1.000000
v 3.857177 1.387961 0.375055 0.000000 0.000000 1.000000 1.000000
v 3.838125 2.019386 0.374907 0.000000 0.000000 1.000000 1.000000
v 3.234069 1.502296 0.375063 0.000000 0.000000 1.000000 1.000000
v 3.205342 2.135694 0.374964 0.000000 0.000000 1.000000 1.000000
v 2.692245 1.650301 0.375000 0.000000 0.000000 1.000000 1.000000
v 2.655744 2.286001 0.375000 0.000000 0.000000 1.000000 1.000000
v 2.221451 1.825370 0.375010 0.000000 0.000000 1.000000 1.000000
v 2.173370 2.465055 0.374848 0.000000 0.000000 1.000000 1.000000
v 1.772588 2.051150 0.375000 0.000000 0.000000 1.000000 1.000000
v 1.713903 2.696496 0.375000 0.000000 0.000000 1.000000 1.000000
v 1.375065 2.295627 0.375107 0.000000 0.000000 1.000000 1.000000
v 1.309756 2.944845 0.375008 0.000000 0.000000 1.000000 1.000000
v 0.000001 3.325001 0.375000 0.000000 0.000000 1.000000 1.000000
v 0.000001 3.925095 0.374999 0.000000 0.000000 1.000000 1.000000
v 7.999999 1.250000 -0.314998 0.000000 0.000000 1.000000 1.000000
v 4.633718 1.251008 0.315152 0.000000 0.000000 1.000000 1.000000
v 8.000001 1.250000 0.314998 0.000000 0.000000 1.000000 1.000000
v 4.622978 1.251485 -0.315023 0.000000 0.000000 1.000000 1.000000
v 3.853544 1.327353 0.315162 0.000000 0.000000 1.000000 1.000000
v 3.838887 1.329983 -0.314978 0.000000 0.000000 1.000000 1.000000
v 3.217520 1.443588 0.315279 0.000000 0.000000 1.000000 1.000000
v 3.217053 1.445294 -0.314769 0.000000 0.000000 1.000000 1.000000
v 2.673994 1.593102 -0.314998 0.000000 0.000000 1.000000 1.000000
v 2.673994 1.593102 0.314998 0.000000 0.000000 1.000000 1.000000
v 2.197137 1.768750 0.315488 0.000000 0.000000 1.000000 1.000000
v 2.197973 1.770843 -0.314707 0.000000 0.000000 1.000000 1.000000
v 1.743245 1.998774 -0.314998 0.000000 0.000000 1.000000 1.000000
v 1.743245 1.998774 0.314998 0.000000 0.000000 1.000000 1.000000
v 1.340965 2.246508 0.314925 0.000000 0.000000 1.000000 1.000000
v 1.334743 2.250171 -0.315153 0.000000 0.000000 1.000000 1.000000
v 0.000000 3.250000 0.314998 0.000000 0.000000 1.000000 1.000000
v -0.000001 3.250000 -0.314999 0.000000 0.000000 1.000000 1.000000
v 1.334045 3.000774 -0.314859 0.000000 0.000000 1.000000 1.000000
v 0.000000 4.000098 0.314998 0.000000 0.000000 1.000000 1.000000
v -0.000001 4.000098 -0.314999 0.000000 0.000000 1.000000 1.000000
v 1.342130 2.995665 0.315034 0.000000 0.000000 1.000000 1.000000
v 1.743245 2.748872 -0.314999 0.000000 0.000000 1.000000 1.000000
v 1.743245 2.748872 0.314998 0.000000 0.000000 1.000000 1.000000
v 2.196264 2.519311 -0.314568 0.000000 0.000000 1.000000 1.000000
v 2.197982 2.521185 0.315380 0.000000 0.000000 1.000000 1.000000
v 2.673994 2.343200 0.314998 0.000000 0.000000 1.000000 1.000000
v 2.673994 2.343200 -0.314998 0.000000 0.000000 1.000000 1.000000
v 3.220766 2.192968 -0.314741 0.000000 0.000000 1.000000 1.000000
v 3.217491 2.195362 0.315257 0.000000 0.000000 1.000000 1.000000
v 3.840935 2.079268 0.314849 0.000000 0.000000 1.000000 1.000000
v 3.855829 2.077639 -0.315017 0.000000 0.000000 1.000000 1.000000
v 4.626107 2.000753 0.314724 0.000000 0.000000 1.000000 1.000000
v 4.627021 2.002389 -0.315267 0.000000 0.000000 1.000000 1.000000
v 7.999999 2.000098 -0.314998 0.000000 0.000000 1.000000 1.000000
v 8.000001 2.000098 0.314998 0.000000 0.000000 1.000000 1.000000
v -0.000001 3.325002 -0.375000 0.000000 0.000000 1.000000 1.000000
v 1.309641 2.944920 -0.374977 0.000000 0.000000 1.000000 1.000000
v -0.000001 3.925096 -0.375000 0.000000 0.000000 1.000000 1.000000
v 1.374203 2.296276 -0.375080 0.000000 0.000000 1.000000 1.000000
v 1.713903 2.696496 -0.375000 0.000000 0.000000 1.000000 1.000000
v 1.772588 2.051150 -0.375000 0.000000 0.000000 1.000000 1.000000
v 2.172962 2.465169 -0.374904 0.000000 0.000000 1.000000 1.000000
v 2.221451 1.825380 -0.375011 0.000000 0.000000 1.000000 1.000000
v 2.790191 2.240965 -0.375110 0.000000 0.000000 1.000000 1.000000
v 2.825795 1.605422 -0.374923 0.000000 0.000000 1.000000 1.000000
v 3.519648 2.072061 -0.375067 0.000000 0.000000 1.000000 1.000000
v 3.541004 1.440012 -0.374904 0.000000 0.000000 1.000000 1.000000
v 4.154624 1.979271 -0.375033 0.000000 0.000000 1.000000 1.000000
v 4.165848 1.348659 -0.374946 0.000000 0.000000 1.000000 1.000000
v 4.780426 1.940561 -0.375001 0.000000 0.000000 1.000000 1.000000
v 4.785066 1.310474 -0.375016 0.000000 0.000000 1.000000 1.000000
v 7.999996 1.310002 -0.375000 0.000000 0.000000 1.000000 1.000000
v 7.999999 1.940096 -0.375000 0.000000 0.000000 1.000000 1.000000
v 0.000001 3.325001 0.375000 0.000000 0.000000 1.000000 1.000000
v 1.375065 2.295627 0.375107 0.000000 0.000000 1.000000 1.000000
v 0.000000 3.250000 0.314998 0.000000 0.000000 1.000000 1.000000
v 1.340965 2.246508 0.314925 0.000000 0.000000 1.000000 1.000000
v 1.743245 1.998774 0.314998 0.000000 0.000000 1.000000 1.000000
v 1.772588 2.051150 0.375000 0.000000 0.000000 1.000000 1.000000
v 2.197137 1.768750 0.315488 0.000000 0.000000 1.000000 1.000000
v 2.221451 1.825370 0.375010 0.000000 0.000000 1.000000 1.000000
v 2.692245 1.650301 0.375000 0.000000 0.000000 1.000000 1.000000
v 2.673994 1.593102 0.314998 0.000000 0.000000 1.000000 1.000000
v 3.217520 1.443588 0.315279 0.000000 0.000000 1.000000 1.000000
v 3.234069 1.502296 0.375063 0.000000 0.000000 1.000000 1.000000
v 3.853544 1.327353 0.315162 0.000000 0.000000 1.000000 1.000000
v 3.857177 1.387961 0.375055 0.000000 0.000000 1.000000 1.000000
v 4.633718 1.251008 0.315152 0.000000 0.000000 1.000000 1.000000
v 4.332057 1.336061 0.375000 0.000000 0.000000 1.000000 1.000000
v 4.784766 1.310469 0.375008 0.000000 0.000000 1.000000 1.000000
v 8.000001 1.310002 0.375000 0.000000 0.000000 1.000000 1.000000
v 8.000001 1.250000 0.314998 0.000000 0.000000 1.000000 1.000000
vt 0.895508 1.540039
vt 0.494141 1.762695
vt 0.895508 1.762695
vt 0.004303 1.535645
vt 0.450684 1.767090
vt 0.408936 1.777832
vt 0.269531 1.828125
vt 0.228394 1.846191
vt 0.188721 1.867676
vt 0.004303 1.985840
vt 0.494141 1.283691
vt 0.895508 1.060913
vt 0.895508 1.283691
vt 0.004303 1.056610
vt 0.450684 1.288086
vt 0.408936 1.298584
vt 0.269531 1.348877
vt 0.228394 1.366943
vt 0.188721 1.388672
vt 0.004303 1.506348
vt 0.667969 0.368164
vt 1.076172 0.349121
vt 1.076172 0.368164
vt 0.648438 0.349609
vt 0.610352 0.368164
vt 0.548340 0.349121
vt 0.549316 0.367676
vt 0.468506 0.349121
vt 0.468750 0.368164
vt 0.397461 0.349121
vt 0.397461 0.368164
vt 0.333252 0.367676
vt 0.333252 0.349609
vt 0.269531 0.349121
vt 0.269531 0.368164
vt 0.211182 0.349121
vt 0.211670 0.368164
vt 0.000000 0.368164
vt 0.000000 0.349121
vt 0.000000 0.235352
vt 0.209961 0.254395
vt 0.000000 0.254883
vt 0.211426 0.235352
vt 0.269531 0.254883
vt 0.269531 0.235352
vt 0.333252 0.254395
vt 0.333252 0.235352
vt 0.397461 0.254883
vt 0.415039 0.234863
vt 0.468994 0.254395
vt 0.508789 0.235352
vt 0.550293 0.254883
vt 0.589355 0.235352
vt 0.648438 0.254883
vt 0.667969 0.235352
vt 1.076172 0.235352
vt 1.076172 0.254883
vt 0.000000 0.121094
vt 0.210205 0.142090
vt 0.000000 0.142090
vt 0.209717 0.121094
vt 0.269531 0.142090
vt 0.269531 0.121094
vt 0.333252 0.121582
vt 0.333252 0.142090
vt 0.415283 0.141602
vt 0.397461 0.121094
vt 0.468506 0.121582
vt 0.508789 0.141602
vt 0.548340 0.121094
vt 0.588867 0.141602
vt 0.647949 0.121094
vt 0.668457 0.142090
vt 1.076172 0.142090
vt 1.076172 0.121094
vt 1.076172 0.463379
vt 0.668457 0.463379
vt 1.076172 0.368164
vt 0.667969 0.368164
vt 0.610352 0.463379
vt 0.610352 0.368164
vt 0.549316 0.463379
vt 0.549316 0.368164
vt 0.468994 0.463379
vt 0.468750 0.368164
vt 0.397461 0.463379
vt 0.397461 0.368164
vt 0.333252 0.463379
vt 0.333496 0.367676
vt 0.269531 0.463379
vt 0.269531 0.368164
vt 0.210205 0.463379
vt 0.211304 0.368164
vt 0.000000 0.463379
vt 0.000000 0.368164
vt 1.076172 0.121094
vt 0.649414 0.016113
vt 1.076172 0.016113
vt 0.647949 0.121094
vt 0.550293 0.016113
vt 0.548340 0.121094
vt 0.468506 0.016113
vt 0.468506 0.121094
vt 0.397461 0.121094
vt 0.397461 0.016113
vt 0.333496 0.016113
vt 0.333496 0.121094
vt 0.269531 0.121094
vt 0.269531 0.016113
vt 0.210571 0.016113
vt 0.209839 0.121094
vt 0.000000 0.016113
vt 0.000000 0.121094
vt 0.209717 0.254883
vt 0.000000 0.349121
vt 0.000000 0.254883
vt 0.210815 0.349121
vt 0.269531 0.254883
vt 0.269531 0.349121
vt 0.333252 0.254883
vt 0.333496 0.349609
vt 0.397461 0.349121
vt 0.397461 0.254883
vt 0.468994 0.254883
vt 0.468506 0.349121
vt 0.548340 0.349121
vt 0.550293 0.254883
vt 0.648438 0.349121
vt 0.648438 0.254395
vt 1.076172 0.254883
vt 1.076172 0.349121
vt 0.000000 0.142090
vt 0.211304 0.235352
vt 0.000000 0.235352
vt 0.210083 0.142090
vt 0.269531 0.235352
vt 0.269531 0.142090
vt 0.333496 0.235352
vt 0.333252 0.142090
vt 0.415283 0.235352
vt 0.415283 0.142090
vt 0.508789 0.235352
vt 0.508789 0.142090
vt 0.589355 0.235352
vt 0.588867 0.142090
vt 0.667969 0.235352
vt 0.668457 0.142090
vt 1.076172 0.142090
vt 1.076172 0.235352
vt 0.000000 0.000000
vt 0.210327 0.000000
vt 0.000000 0.016113
vt 0.210571 0.016113
vt 0.269531 0.016113
vt 0.269531 0.000000
vt 0.333252 0.016113
vt 0.333252 0.000488
vt 0.397461 0.000000
vt 0.397461 0.016113
vt 0.468506 0.016113
vt 0.468994 0.000000
vt 0.550293 0.016113
vt 0.549316 0.000000
vt 0.649414 0.016113
vt 0.610352 0.000000
vt 0.668457 0.000000
vt 1.076172 0.000000
vt 1.076172 0.016113
vt1 0.895508 1.540039
vt1 0.494141 1.762695
vt1 0.895508 1.762695
vt1 0.004303 1.535645
vt1 0.450684 1.767090
vt1 0.408936 1.777832
vt1 0.269531 1.828125
vt1 0.228394 1.846191
vt1 0.188721 1.867676
vt1 0.004303 1.985840
vt1 0.494141 1.283691
vt1 0.895508 1.060913
vt1 0.895508 1.283691
vt1 0.004303 1.056610
vt1 0.450684 1.288086
vt1 0.408936 1.298584
vt1 0.269531 1.348877
vt1 0.228394 1.366943
vt1 0.188721 1.388672
vt1 0.004303 1.506348
vt1 0.667969 0.368164
vt1 1.076172 0.349121
vt1 1.076172 0.368164
vt1 0.648438 0.349609
vt1 0.610352 0.368164
vt1 0.548340 0.349121
vt1 0.549316 0.367676
vt1 0.468506 0.349121
vt1 0.468750 0.368164
vt1 0.397461 0.349121
vt1 0.397461 0.368164
vt1 0.333252 0.367676
vt1 0.333252 0.349609
vt1 0.269531 0.349121
vt1 0.269531 0.368164
vt1 0.211182 0.349121
vt1 0.211670 0.368164
vt1 0.000000 0.368164
vt1 0.000000 0.349121
vt1 0.000000 0.235352
vt1 0.209961 0.254395
vt1 0.000000 0.254883
vt1 0.211426 0.235352
vt1 0.269531 0.254883
vt1 0.269531 0.235352
vt1 0.333252 0.254395
vt1 0.333252 0.235352
vt1 0.397461 0.254883
vt1 0.415039 0.234863
vt1 0.468994 0.254395
vt1 0.508789 0.235352
vt1 0.550293 0.254883
vt1 0.589355 0.235352
vt1 0.648438 0.254883
vt1 0.667969 0.235352
vt1 1.076172 0.235352
vt1 1.076172 0.254883
vt1 0.000000 0.121094
vt1 0.210205 0.142090
vt1 0.000000 0.142090
vt1 0.209717 0.121094
vt1 0.269531 0.142090
vt1 0.269531 0.121094
vt1 0.333252 0.121582
vt1 0.333252 0.142090
vt1 0.415283 0.141602
vt1 0.397461 0.121094
vt1 0.468506 0.121582
vt1 0.508789 0.141602
vt1 0.548340 0.121094
vt1 0.588867 0.141602
vt1 0.647949 0.121094
vt1 0.668457 0.142090
vt1 1.076172 0.142090
vt1 1.076172 0.121094
vt1 1.076172 0.463379
vt1 0.668457 0.463379
vt1 1.076172 0.368164
vt1 0.667969 0.368164
vt1 0.610352 0.463379
vt1 0.610352 0.368164
vt1 0.549316 0.463379
vt1 0.549316 0.368164
vt1 0.468994 0.463379
vt1 0.468750 0.368164
vt1 0.397461 0.463379
vt1 0.397461 0.368164
vt1 0.333252 0.463379
vt1 0.333496 0.367676
vt1 0.269531 0.463379
vt1 0.269531 0.368164
vt1 0.210205 0.463379
vt1 0.211304 0.368164
vt1 0.000000 0.463379
vt1 0.000000 0.368164
vt1 1.076172 0.121094
vt1 0.649414 0.016113
vt1 1.076172 0.016113
vt1 0.647949 0.121094
vt1 0.550293 0.016113
vt1 0.548340 0.121094
vt1 0.468506 0.016113
vt1 0.468506 0.121094
vt1 0.397461 0.121094
vt1 0.397461 0.016113
vt1 0.333496 0.016113
vt1 0.333496 0.121094
vt1 0.269531 0.121094
vt1 0.269531 0.016113
vt1 0.210571 0.016113
vt1 0.209839 0.121094
vt1 0.000000 0.016113
vt1 0.000000 0.121094
vt1 0.209717 0.254883
vt1 0.000000 0.349121
vt1 0.000000 0.254883
vt1 0.210815 0.349121
vt1 0.269531 0.254883
vt1 0.269531 0.349121
vt1 0.333252 0.254883
vt1 0.333496 0.349609
vt1 0.397461 0.349121
vt1 0.397461 0.254883
vt1 0.468994 0.254883
vt1 0.468506 0.349121
vt1 0.548340 0.349121
vt1 0.550293 0.254883
vt1 0.648438 0.349121
vt1 0.648438 0.254395
vt1 1.076172 0.254883
vt1 1.076172 0.349121
vt1 0.000000 0.142090
vt1 0.211304 0.235352
vt1 0.000000 0.235352
vt1 0.210083 0.142090
vt1 0.269531 0.235352
vt1 0.269531 0.142090
vt1 0.333496 0.235352
vt1 0.333252 0.142090
vt1 0.415283 0.235352
vt1 0.415283 0.142090
vt1 0.508789 0.235352
vt1 0.508789 0.142090
vt1 0.589355 0.235352
vt1 0.588867 0.142090
vt1 0.667969 0.235352
vt1 0.668457 0.142090
vt1 1.076172 0.142090
vt1 1.076172 0.235352
vt1 0.000000 0.000000
vt1 0.210327 0.000000
vt1 0.000000 0.016113
vt1 0.210571 0.016113
vt1 0.269531 0.016113
vt1 0.269531 0.000000
vt1 0.333252 0.016113
vt1 0.333252 0.000488
vt1 0.397461 0.000000
vt1 0.397461 0.016113
vt1 0.468506 0.016113
vt1 0.468994 0.000000
vt1 0.550293 0.016113
vt1 0.549316 0.000000
vt1 0.649414 0.016113
vt1 0.610352 0.000000
vt1 0.668457 0.000000
vt1 1.076172 0.000000
vt1 1.076172 0.016113
vn 0.000000 0.000000 1.000000
vn 0.000000 0.000000 1.000000
vn 0.000000 0.000000 1.000000
vn 0.000000 0.000000 1.000000
vn 0.000000 0.000000 1.000000
vn 0.000000 0.000000 1.000000
vn 0.000000 0.000000 1.000000
vn 0.000000 0.000000 1.000000
vn 0.000000 0.000000 1.000000
vn 0.000000 0.000000 1.000000
vn 0.000000 -0.000000 -1.000000
vn 0.000000 -0.000000 -1.000000
vn 0.000000 -0.000000 -1.000000
vn 0.000000 -0.000000 -1.000000
vn 0.000000 -0.000000 -1.000000
vn 0.000000 -0.000000 -1.000000
vn 0.000000 -0.000000 -1.000000
vn 0.000000 -0.000000 -1.000000
vn 0.000000 -0.000000 -1.000000
vn 0.000000 -0.000000 -1.000000
vn 0.007874 0.708661 0.708661
vn 0.000000 0.708661 0.708661
vn 0.000000 0.708661 0.708661
vn 0.015748 0.708661 0.708661
vn 0.055118 0.700787 0.708661
vn 0.102362 0.700787 0.708661
vn 0.102362 0.700787 0.708661
vn 0.157480 0.692913 0.708661
vn 0.157480 0.692913 0.708661
vn 0.212598 0.677165 0.708661
vn 0.212598 0.677165 0.708661
vn 0.283465 0.645669 0.708661
vn 0.283465 0.645669 0.708661
vn 0.346457 0.614173 0.708661
vn 0.346457 0.614173 0.708661
vn 0.409449 0.574803 0.708661
vn 0.409449 0.574803 0.708661
vn 0.425197 0.566929 0.708661
vn 0.425197 0.566929 0.708661
vn 0.425197 0.566929 -0.708661
vn 0.417323 0.574803 -0.708661
vn 0.425197 0.566929 -0.708661
vn 0.409449 0.574803 -0.708661
vn 0.346457 0.614173 -0.708661
vn 0.346457 0.614173 -0.708661
vn 0.283465 0.645669 -0.708661
vn 0.283465 0.645669 -0.708661
vn 0.212598 0.677165 -0.708661
vn 0.196850 0.677165 -0.708661
vn 0.157480 0.692913 -0.708661
vn 0.125984 0.692913 -0.708661
vn 0.102362 0.700787 -0.708661
vn 0.070866 0.700787 -0.708661
vn 0.007874 0.708661 -0.708661
vn 0.007874 0.708661 -0.708661
vn 0.000000 0.708661 -0.708661
vn 0.000000 0.708661 -0.708661
vn -0.425197 -0.566929 -0.708661
vn -0.417323 -0.574803 -0.708661
vn -0.425197 -0.566929 -0.708661
vn -0.409449 -0.574803 -0.708661
vn -0.346457 -0.614173 -0.708661
vn -0.346457 -0.614173 -0.708661
vn -0.283465 -0.645669 -0.708661
vn -0.283465 -0.645669 -0.708661
vn -0.196850 -0.677165 -0.708661
vn -0.212598 -0.677165 -0.708661
vn -0.157480 -0.685039 -0.708661
vn -0.125984 -0.692913 -0.708661
vn -0.102362 -0.700787 -0.708661
vn -0.070866 -0.700787 -0.708661
vn -0.007874 -0.708661 -0.708661
vn -0.007874 -0.708661 -0.708661
vn 0.000000 -0.708661 -0.708661
vn 0.000000 -0.708661 -0.708661
vn 0.000000 0.000000 1.000000
vn 0.000000 0.000000 1.000000
vn 0.000000 0.000000 1.000000
vn 0.000000 0.000000 1.000000
vn 0.000000 0.000000 1.000000
vn 0.000000 0.000000 1.000000
vn 0.000000 0.000000 1.000000
vn 0.000000 0.000000 1.000000
vn 0.000000 0.000000 1.000000
vn 0.000000 0.000000 1.000000
vn 0.000000 0.000000 1.000000
vn 0.000000 0.000000 1.000000
vn 0.000000 0.000000 1.000000
vn 0.000000 0.000000 1.000000
vn 0.000000 0.000000 1.000000
vn 0.000000 0.000000 1.000000
vn 0.000000 0.000000 1.000000
vn 0.000000 0.000000 1.000000
vn 0.000000 0.000000 1.000000
vn 0.000000 0.000000 1.000000
vn 0.000000 -1.000000 0.000000
vn -0.007874 -1.000000 0.000000
vn 0.000000 -1.000000 0.000000
vn -0.023622 -1.000000 0.000000
vn -0.141732 -0.992126 0.000000
vn -0.141732 -0.992126 0.000000
vn -0.228346 -0.976378 0.000000
vn -0.228346 -0.976378 0.000000
vn -0.299213 -0.952756 0.000000
vn -0.299213 -0.952756 0.000000
vn -0.401575 -0.913386 0.000000
vn -0.401575 -0.913386 0.000000
vn -0.488189 -0.874016 0.000000
vn -0.488189 -0.874016 0.000000
vn -0.582677 -0.818897 0.000000
vn -0.590551 -0.811023 0.000000
vn -0.598425 -0.803149 0.000000
vn -0.598425 -0.803149 0.000000
vn 0.590551 0.811023 -0.000000
vn 0.598425 0.803149 -0.000000
vn 0.598425 0.803149 -0.000000
vn 0.582677 0.818897 -0.000000
vn 0.488189 0.874016 -0.000000
vn 0.488189 0.874016 -0.000000
vn 0.401575 0.913386 -0.000000
vn 0.401575 0.913386 -0.000000
vn 0.299213 0.952756 -0.000000
vn 0.299213 0.952756 -0.000000
vn 0.220472 0.976378 -0.000000
vn 0.228346 0.976378 -0.000000
vn 0.141732 0.992126 -0.000000
vn 0.141732 0.992126 -0.000000
vn 0.015748 1.000000 -0.000000
vn 0.015748 1.000000 -0.000000
vn 0.000000 1.000000 -0.000000
vn 0.000000 1.000000 -0.000000
vn 0.000000 -0.000000 -1.000000
vn 0.000000 -0.000000 -1.000000
vn 0.000000 -0.000000 -1.000000
vn 0.000000 -0.000000 -1.000000
vn 0.000000 -0.000000 -1.000000
vn 0.000000 -0.000000 -1.000000
vn 0.000000 -0.000000 -1.000000
vn 0.000000 -0.000000 -1.000000
vn 0.000000 -0.000000 -1.000000
vn 0.000000 -0.000000 -1.000000
vn 0.000000 -0.000000 -1.000000
vn 0.000000 -0.000000 -1.000000
vn 0.000000 -0.000000 -1.000000
vn 0.000000 -0.000000 -1.000000
vn 0.000000 -0.000000 -1.000000
vn 0.000000 -0.000000 -1.000000
vn 0.000000 -0.000000 -1.000000
vn 0.000000 -0.000000 -1.000000
vn -0.425197 -0.566929 0.708661
vn -0.417323 -0.574803 0.708661
vn -0.425197 -0.566929 0.708661
vn -0.409449 -0.574803 0.708661
vn -0.346457 -0.614173 0.708661
vn -0.346457 -0.614173 0.708661
vn -0.283465 -0.645669 0.708661
vn -0.283465 -0.645669 0.708661
vn -0.212598 -0.677165 0.708661
vn -0.212598 -0.677165 0.708661
vn -0.157480 -0.685039 0.708661
vn -0.157480 -0.692913 0.708661
vn -0.102362 -0.700787 0.708661
vn -0.102362 -0.700787 0.708661
vn -0.007874 -0.708661 0.708661
vn -0.055118 -0.700787 0.708661
vn -0.007874 -0.708661 0.708661
vn 0.000000 -0.708661 0.708661
vn 0.000000 -0.708661 0.708661
tan 0.000000 -1.000000 0.000000 1.000000
tan 0.000000 -1.000000 0.000000 1.000000
tan 0.000000 -1.000000 0.000000 1.000000
tan -0.023622 -1.000000 0.000000 1.000000
tan -0.039370 -1.000000 0.000000 1.000000
tan -0.062992 -1.000000 0.000000 1.000000
tan -0.070866 -1.000000 0.000000 1.000000
tan -0.086614 -1.000000 0.000000 1.000000
tan -0.078740 -1.000000 0.000000 1.000000
tan -0.078740 -1.000000 0.000000 1.000000
tan 0.000000 -1.000000 0.000000 1.000000
tan 0.000000 -1.000000 0.000000 1.000000
tan 0.000000 -1.000000 0.000000 1.000000
tan -0.023622 -1.000000 0.000000 1.000000
tan -0.039370 -1.000000 0.000000 1.000000
tan -0.062992 -1.000000 0.000000 1.000000
tan -0.070866 -1.000000 0.000000 1.000000
tan -0.086614 -1.000000 0.000000 1.000000
tan -0.078740 -1.000000 0.000000 1.000000
tan -0.078740 -1.000000 0.000000 1.000000
tan 0.000000 0.708661 -0.708661 1.000000
tan 0.000000 0.708661 -0.708661 1.000000
tan 0.000000 0.708661 -0.708661 1.000000
tan 0.005580 0.708661 -0.708785 1.000000
tan 0.027900 0.708661 -0.702957 1.000000
tan 0.027900 0.708661 -0.704817 1.000000
tan 0.027900 0.708661 -0.704817 1.000000
tan 0.050220 0.708661 -0.704073 1.000000
tan 0.044640 0.708661 -0.702833 1.000000
tan 0.128340 0.697501 -0.705003 1.000000
tan 0.128340 0.697501 -0.705003 1.000000
tan 0.111600 0.697501 -0.680141 1.000000
tan 0.122760 0.697501 -0.684605 1.000000
tan 0.262261 0.658441 -0.698865 1.000000
tan 0.262261 0.658441 -0.698865 1.000000
tan 0.301321 0.641701 -0.694587 1.000000
tan 0.295741 0.641701 -0.691363 1.000000
tan 0.373861 0.602641 -0.706429 1.000000
tan 0.373861 0.602641 -0.706429 1.000000
tan -0.373861 -0.602641 -0.706429 1.000000
tan -0.301321 -0.641701 -0.697935 1.000000
tan -0.373861 -0.602641 -0.706429 1.000000
tan -0.290161 -0.647281 -0.692665 1.000000
tan -0.262261 -0.658441 -0.698865 1.000000
tan -0.262261 -0.658441 -0.698865 1.000000
tan -0.122760 -0.697501 -0.684605 1.000000
tan -0.117180 -0.697501 -0.682373 1.000000
tan -0.128340 -0.697501 -0.705003 1.000000
tan -0.072540 -0.703081 -0.691983 1.000000
tan -0.050220 -0.708661 -0.704073 1.000000
tan -0.033480 -0.708661 -0.698865 1.000000
tan -0.027900 -0.708661 -0.704817 1.000000
tan -0.022320 -0.708661 -0.703019 1.000000
tan 0.000000 -0.708661 -0.708661 1.000000
tan 0.000000 -0.708661 -0.708661 1.000000
tan 0.000000 -0.708661 -0.708661 1.000000
tan 0.000000 -0.708661 -0.708661 1.000000
tan -0.373861 -0.602641 0.706429 1.000000
tan -0.301321 -0.641701 0.697935 1.000000
tan -0.373861 -0.602641 0.706429 1.000000
tan -0.295741 -0.647281 0.695889 1.000000
tan -0.262261 -0.658441 0.698865 1.000000
tan -0.262261 -0.658441 0.698865 1.000000
tan -0.122760 -0.697501 0.684605 1.000000
tan -0.122760 -0.697501 0.684605 1.000000
tan -0.066960 -0.703081 0.690433 1.000000
tan -0.128340 -0.697501 0.705003 1.000000
tan -0.050220 -0.708661 0.696199 1.000000
tan -0.039060 -0.708661 0.699857 1.000000
tan -0.027900 -0.708661 0.704817 1.000000
tan -0.022320 -0.708661 0.703019 1.000000
tan 0.000000 -0.708661 0.708661 1.000000
tan 0.000000 -0.708661 0.708661 1.000000
tan 0.000000 -0.708661 0.708661 1.000000
tan 0.000000 -0.708661 0.708661 1.000000
tan 0.000000 1.000000 -0.000000 1.000000
tan 0.007874 1.000000 -0.000000 1.000000
tan 0.000000 1.000000 -0.000000 1.000000
tan 0.015748 1.000000 -0.000000 1.000000
tan 0.078740 1.000000 -0.000000 1.000000
tan 0.086614 1.000000 -0.000000 1.000000
tan 0.141732 0.992126 -0.000000 1.000000
tan 0.141732 0.992126 -0.000000 1.000000
tan 0.220472 0.976378 -0.000000 1.000000
tan 0.228346 0.976378 -0.000000 1.000000
tan 0.299213 0.952756 -0.000000 1.000000
tan 0.314961 0.952756 -0.000000 1.000000
tan 0.393701 0.921260 -0.000000 1.000000
tan 0.409449 0.913386 -0.000000 1.000000
tan 0.480315 0.881890 -0.000000 1.000000
tan 0.496063 0.866142 -0.000000 1.000000
tan 0.566929 0.826772 -0.000000 1.000000
tan 0.582677 0.811023 -0.000000 1.000000
tan 0.598425 0.803149 -0.000000 1.000000
tan 0.598425 0.803149 -0.000000 1.000000
tan 0.000000 0.000000 1.000000 1.000000
tan 0.000000 0.000000 1.000000 1.000000
tan 0.000000 0.000000 1.000000 1.000000
tan 0.000000 0.000000 1.000000 1.000000
tan 0.000000 0.000000 0.992126 1.000000
tan 0.000000 0.000000 0.992126 1.000000
tan 0.000000 0.000000 0.976378 1.000000
tan 0.000000 0.000000 0.976378 1.000000
tan 0.000000 0.000000 0.962180 1.000000
tan 0.000000 0.000000 0.962180 1.000000
tan 0.000000 0.000000 0.919710 1.000000
tan 0.000000 0.000000 0.919710 1.000000
tan 0.000000 0.000000 0.944820 1.000000
tan 0.000000 0.000000 0.944820 1.000000
tan 0.000000 0.000000 0.911526 1.000000
tan 0.000000 0.000000 0.909852 1.000000
tan 0.000000 0.000000 0.970798 1.000000
tan 0.000000 0.000000 0.970798 1.000000
tan 0.000000 -0.000000 -0.909852 1.000000
tan 0.000000 -0.000000 -0.970798 1.000000
tan 0.000000 -0.000000 -0.970798 1.000000
tan 0.000000 -0.000000 -0.911526 1.000000
tan 0.000000 -0.000000 -0.944820 1.000000
tan 0.000000 -0.000000 -0.944820 1.000000
tan 0.000000 -0.000000 -0.919710 1.000000
tan 0.000000 -0.000000 -0.919710 1.000000
tan 0.000000 -0.000000 -0.962180 1.000000
tan 0.000000 -0.000000 -0.962180 1.000000
tan 0.000000 -0.000000 -0.976378 1.000000
tan 0.000000 -0.000000 -0.976378 1.000000
tan 0.000000 -0.000000 -0.992126 1.000000
tan 0.000000 -0.000000 -0.992126 1.000000
tan 0.000000 -0.000000 -1.000000 1.000000
tan 0.000000 -0.000000 -1.000000 1.000000
tan 0.000000 -0.000000 -1.000000 1.000000
tan 0.000000 -0.000000 -1.000000 1.000000
tan -0.598425 -0.803149 0.000000 1.000000
tan -0.582677 -0.811023 0.000000 1.000000
tan -0.598425 -0.803149 0.000000 1.000000
tan -0.566929 -0.826772 0.000000 1.000000
tan -0.496063 -0.866142 0.000000 1.000000
tan -0.480315 -0.881890 0.000000 1.000000
tan -0.409449 -0.913386 0.000000 1.000000
tan -0.393701 -0.921260 0.000000 1.000000
tan -0.283465 -0.960630 0.000000 1.000000
tan -0.275591 -0.960630 0.000000 1.000000
tan -0.181102 -0.984252 0.000000 1.000000
tan -0.181102 -0.984252 0.000000 1.000000
tan -0.102362 -0.992126 0.000000 1.000000
tan -0.102362 -0.992126 0.000000 1.000000
tan -0.007874 -1.000000 0.000000 1.000000
tan -0.015748 -1.000000 0.000000 1.000000
tan 0.000000 -1.000000 0.000000 1.000000
tan 0.000000 -1.000000 0.000000 1.000000
tan 0.373861 0.602641 0.706429 1.000000
tan 0.295741 0.641701 0.694649 1.000000
tan 0.373861 0.602641 0.706429 1.000000
tan 0.295741 0.641701 0.691363 1.000000
tan 0.262261 0.658441 0.698865 1.000000
tan 0.262261 0.658441 0.698865 1.000000
tan 0.122760 0.697501 0.684605 1.000000
tan 0.122760 0.697501 0.684605 1.000000
tan 0.128340 0.697501 0.705003 1.000000
tan 0.128340 0.697501 0.705003 1.000000
tan 0.050220 0.708661 0.696199 1.000000
tan 0.044640 0.708661 0.702833 1.000000
tan 0.027900 0.708661 0.704817 1.000000
tan 0.027900 0.708661 0.704817 1.000000
tan 0.005580 0.708661 0.708723 1.000000
tan 0.027900 0.708661 0.702957 1.000000
tan 0.000000 0.708661 0.708661 1.000000
tan 0.000000 0.708661 0.708661 1.000000
tan 0.000000 0.708661 0.708661 1.000000
f 3/3/3 2/2/2 1/1/1
f 4/4/4 1/1/1 2/2/2
f 5/5/5 4/4/4 2/2/2
f 6/6/6 4/4/4 5/5/5
f 7/7/7 4/4/4 6/6/6
f 8/8/8 4/4/4 7/7/7
f 9/9/9 4/4/4 8/8/8
f 9/9/9 10/10/10 4/4/4
f 13/13/13 12/12/12 11/11/11
f 14/14/14 11/11/11 12/12/12
f 11/11/11 14/14/14 15/15/15
f 15/15/15 14/14/14 16/16/16
f 17/17/17 16/16/16 14/14/14
f 17/17/17 14/14/14 18/18/18
f 18/18/18 14/14/14 19/19/19
f 20/20/20 19/19/19 14/14/14
f 23/23/23 22/22/22 21/21/21
f 24/24/24 21/21/21 22/22/22
f 24/24/24 25/25/25 21/21/21
f 24/24/24 26/26/26 25/25/25
f 27/27/27 25/25/25 26/26/26
f 26/26/26 28/28/28 27/27/27
f 29/29/29 27/27/27 28/28/28
f 28/28/28 30/30/30 29/29/29
f 31/31/31 29/29/29 30/30/30
f 31/31/31 30/30/30 32/32/32
f 32/32/32 30/30/30 33/33/33
f 33/33/33 34/34/34 32/32/32
f 35/35/35 32/32/32 34/34/34
f 34/34/34 36/36/36 35/35/35
f 37/37/37 35/35/35 36/36/36
f 36/36/36 38/38/38 37/37/37
f 38/38/38 36/36/36 39/39/39
f 42/42/42 41/41/41 40/40/40
f 43/43/43 40/40/40 41/41/41
f 41/41/41 44/44/44 43/43/43
f 45/45/45 43/43/43 44/44/44
f 44/44/44 46/46/46 45/45/45
f 47/47/47 45/45/45 46/46/46
f 46/46/46 48/48/48 47/47/47
f 49/49/49 47/47/47 48/48/48
f 49/49/49 48/48/48 50/50/50
f 49/49/49 50/50/50 51/51/51
f 51/51/51 50/50/50 52/52/52
f 52/52/52 53/53/53 51/51/51
f 53/53/53 52/52/52 54/54/54
f 55/55/55 53/53/53 54/54/54
f 55/55/55 54/54/54 56/56/56
f 57/57/57 56/56/56 54/54/54
f 60/60/60 59/59/59 58/58/58
f 61/61/61 58/58/58 59/59/59
f 59/59/59 62/62/62 61/61/61
f 63/63/63 61/61/61 62/62/62
f 63/63/63 62/62/62 64/64/64
f 65/65/65 64/64/64 62/62/62
f 65/65/65 66/66/66 64/64/64
f 67/67/67 64/64/64 66/66/66
f 66/66/66 68/68/68 67/67/67
f 69/69/69 68/68/68 66/66/66
f 68/68/68 69/69/69 70/70/70
f 71/71/71 70/70/70 69/69/69
f 70/70/70 71/71/71 72/72/72
f 71/71/71 73/73/73 72/72/72
f 74/74/74 72/72/72 73/73/73
f 72/72/72 74/74/74 75/75/75
f 78/78/78 77/77/77 76/76/76
f 77/77/77 78/78/78 79/79/79
f 77/77/77 79/79/79 80/80/80
f 81/81/81 80/80/80 79/79/79
f 80/80/80 81/81/81 82/82/82
f 83/83/83 82/82/82 81/81/81
f 82/82/82 83/83/83 84/84/84
f 85/85/85 84/84/84 83/83/83
f 85/85/85 86/86/86 84/84/84
f 85/85/85 87/87/87 86/86/86
f 86/86/86 87/87/87 88/88/88
f 89/89/89 88/88/88 87/87/87
f 88/88/88 89/89/89 90/90/90
f 91/91/91 90/90/90 89/89/89
f 90/90/90 91/91/91 92/92/92
f 93/93/93 92/92/92 91/91/91
f 94/94/94 92/92/92 93/93/93
f 94/94/94 93/93/93 95/95/95
f 98/98/98 97/97/97 96/96/96
f 99/99/99 96/96/96 97/97/97
f 97/97/97 100/100/100 99/99/99
f 99/99/99 100/100/100 101/101/101
f 100/100/100 102/102/102 101/101/101
f 101/101/101 102/102/102 103/103/103
f 102/102/102 104/104/104 103/103/103
f 102/102/102 105/105/105 104/104/104
f 105/105/105 106/106/106 104/104/104
f 107/107/107 104/104/104 106/106/106
f 107/107/107 106/106/106 108/108/108
f 109/109/109 108/108/108 106/106/106
f 109/109/109 110/110/110 108/108/108
f 108/108/108 110/110/110 111/111/111
f 110/110/110 112/112/112 111/111/111
f 112/112/112 113/113/113 111/111/111
f 116/116/116 115/115/115 114/114/114
f 117/117/117 114/114/114 115/115/115
f 114/114/114 117/117/117 118/118/118
f 119/119/119 118/118/118 117/117/117
f 118/118/118 119/119/119 120/120/120
f 121/121/121 120/120/120 119/119/119
f 121/121/121 122/122/122 120/120/120
f 120/120/120 122/122/122 123/123/123
f 123/123/123 122/122/122 124/124/124
f 125/125/125 124/124/124 122/122/122
f 125/125/125 126/126/126 124/124/124
f 124/124/124 126/126/126 127/127/127
f 126/126/126 128/128/128 127/127/127
f 127/127/127 128/128/128 129/129/129
f 129/129/129 128/128/128 130/130/130
f 131/131/131 130/130/130 128/128/128
f 134/134/134 133/133/133 132/132/132
f 135/135/135 132/132/132 133/133/133
f 136/136/136 135/135/135 133/133/133
f 135/135/135 136/136/136 137/137/137
f 138/138/138 137/137/137 136/136/136
f 137/137/137 138/138/138 139/139/139
f 140/140/140 139/139/139 138/138/138
f 141/141/141 139/139/139 140/140/140
f 142/142/142 141/141/141 140/140/140
f 143/143/143 141/141/141 142/142/142
f 144/144/144 143/143/143 142/142/142
f 145/145/145 143/143/143 144/144/144
f 146/146/146 145/145/145 144/144/144
f 147/147/147 145/145/145 146/146/146
f 148/148/148 147/147/147 146/146/146
f 148/148/148 146/146/146 149/149/149
f 152/152/152 151/151/151 150/150/150
f 151/151/151 152/152/152 153/153/153
f 153/153/153 154/154/154 151/151/151
f 155/155/155 151/151/151 154/154/154
f 154/154/154 156/156/156 155/155/155
f 157/157/157 155/155/155 156/156/156
f 156/156/156 158/158/158 157/157/157
f 159/159/159 158/158/158 156/156/156
f 159/159/159 160/160/160 158/158/158
f 161/161/161 158/158/158 160/160/160
f 160/160/160 162/162/162 161/161/161
f 163/163/163 161/161/161 162/162/162
f 162/162/162 164/164/164 163/163/163
f 165/165/165 163/163/163 164/164/164
f 165/165/165 164/164/164 166/166/166
f 166/166/166 164/164/164 167/167/167
f 168/168/168 167/167/167 164/164/164
