mtllib SM_Window_01@000002909DBD9600.mtl
g SM_Window_01@000002909DBD9600
#Vertices 469
#Indices 816
#Section 0 Offset 0 NumIndices 780 MaterialIndex 0 MI_MetalTile_A_04
#Section 1 Offset 780 NumIndices 36 MaterialIndex 1 MI_Window_A
v 0.049999 2.050000 0.043063 0.000000 0.000000 1.000000 1.000000
v 0.033001 2.966998 -0.050000 0.000000 0.000000 1.000000 1.000000
v 0.033001 2.033002 -0.050000 0.000000 0.000000 1.000000 1.000000
v 0.049999 2.950000 0.043063 0.000000 0.000000 1.000000 1.000000
v 0.673493 2.033002 -0.050000 0.000000 0.000000 1.000000 1.000000
v 0.049999 2.050000 0.043063 0.000000 0.000000 1.000000 1.000000
v 0.033001 2.033002 -0.050000 0.000000 0.000000 1.000000 1.000000
v 0.656495 2.050000 0.043063 0.000000 0.000000 1.000000 1.000000
v 0.049999 2.950000 0.043063 0.000000 0.000000 1.000000 1.000000
v 0.673493 2.966998 -0.050000 0.000000 0.000000 1.000000 1.000000
v 0.033001 2.966998 -0.050000 0.000000 0.000000 1.000000 1.000000
v 0.656495 2.950000 0.043063 0.000000 0.000000 1.000000 1.000000
v -0.050000 2.050000 0.043063 0.000000 0.000000 1.000000 1.000000
v -0.670982 2.033002 -0.050000 0.000000 0.000000 1.000000 1.000000
v -0.033002 2.033002 -0.050000 0.000000 0.000000 1.000000 1.000000
v -0.653984 2.050000 0.043063 0.000000 0.000000 1.000000 1.000000
v -0.033002 2.966998 -0.050000 0.000000 0.000000 1.000000 1.000000
v -0.050000 2.050000 0.043063 0.000000 0.000000 1.000000 1.000000
v -0.033002 2.033002 -0.050000 0.000000 0.000000 1.000000 1.000000
v -0.050000 2.950000 0.043063 0.000000 0.000000 1.000000 1.000000
v -0.670982 2.966998 -0.050000 0.000000 0.000000 1.000000 1.000000
v -0.050000 2.950000 0.043063 0.000000 0.000000 1.000000 1.000000
v -0.033002 2.966998 -0.050000 0.000000 0.000000 1.000000 1.000000
v -0.653984 2.950000 0.043063 0.000000 0.000000 1.000000 1.000000
v -0.653984 2.050000 0.043063 0.000000 0.000000 1.000000 1.000000
v -0.670982 2.966998 -0.050000 0.000000 0.000000 1.000000 1.000000
v -0.670982 2.033002 -0.050000 0.000000 0.000000 1.000000 1.000000
v -0.653984 2.950000 0.043063 0.000000 0.000000 1.000000 1.000000
v -0.050000 1.950000 0.043063 0.000000 0.000000 1.000000 1.000000
v -0.033002 0.083002 -0.050000 0.000000 0.000000 1.000000 1.000000
v -0.033002 1.966998 -0.050000 0.000000 0.000000 1.000000 1.000000
v -0.050000 0.100000 0.043064 0.000000 0.000000 1.000000 1.000000
v -0.670982 1.966998 -0.050000 0.000000 0.000000 1.000000 1.000000
v -0.050000 1.950000 0.043063 0.000000 0.000000 1.000000 1.000000
v -0.033002 1.966998 -0.050000 0.000000 0.000000 1.000000 1.000000
v -0.653984 1.950000 0.043063 0.000000 0.000000 1.000000 1.000000
v -0.670982 0.083002 -0.050000 0.000000 0.000000 1.000000 1.000000
v -0.653984 1.950000 0.043063 0.000000 0.000000 1.000000 1.000000
v -0.670982 1.966998 -0.050000 0.000000 0.000000 1.000000 1.000000
v -0.653984 0.100000 0.043064 0.000000 0.000000 1.000000 1.000000
v 0.049999 3.049999 0.043063 0.000000 0.000000 1.000000 1.000000
v 0.049999 3.899999 0.043063 0.000000 0.000000 1.000000 1.000000
v 0.033001 3.033001 -0.050000 0.000000 0.000000 1.000000 1.000000
v 0.033001 3.916997 -0.050000 0.000000 0.000000 1.000000 1.000000
v 0.673493 3.033001 -0.050000 0.000000 0.000000 1.000000 1.000000
v 0.049999 3.049999 0.043063 0.000000 0.000000 1.000000 1.000000
v 0.033001 3.033001 -0.050000 0.000000 0.000000 1.000000 1.000000
v 0.656495 3.049999 0.043063 0.000000 0.000000 1.000000 1.000000
v 0.049999 3.899999 0.043063 0.000000 0.000000 1.000000 1.000000
v 0.673493 3.916997 -0.050000 0.000000 0.000000 1.000000 1.000000
v 0.033001 3.916997 -0.050000 0.000000 0.000000 1.000000 1.000000
v 0.656495 3.899999 0.043063 0.000000 0.000000 1.000000 1.000000
v -0.050000 3.049999 0.043063 0.000000 0.000000 1.000000 1.000000
v -0.670982 3.033001 -0.050000 0.000000 0.000000 1.000000 1.000000
v -0.033002 3.033001 -0.050000 0.000000 0.000000 1.000000 1.000000
v -0.653984 3.049999 0.043063 0.000000 0.000000 1.000000 1.000000
v -0.033002 3.916997 -0.050000 0.000000 0.000000 1.000000 1.000000
v -0.050000 3.049999 0.043063 0.000000 0.000000 1.000000 1.000000
v -0.033002 3.033001 -0.050000 0.000000 0.000000 1.000000 1.000000
v -0.050000 3.899999 0.043063 0.000000 0.000000 1.000000 1.000000
v -0.670982 3.916997 -0.050000 0.000000 0.000000 1.000000 1.000000
v -0.050000 3.899999 0.043063 0.000000 0.000000 1.000000 1.000000
v -0.033002 3.916997 -0.050000 0.000000 0.000000 1.000000 1.000000
v -0.653984 3.899999 0.043063 0.000000 0.000000 1.000000 1.000000
v -0.653984 3.049999 0.043063 0.000000 0.000000 1.000000 1.000000
v -0.653984 3.899999 0.043063 0.000000 0.000000 1.000000 1.000000
v -0.670982 3.033001 -0.050000 0.000000 0.000000 1.000000 1.000000
v -0.670982 3.916997 -0.050000 0.000000 0.000000 1.000000 1.000000
v 0.049999 1.950000 0.043063 0.000000 0.000000 1.000000 1.000000
v 0.673493 1.966998 -0.050000 0.000000 0.000000 1.000000 1.000000
v 0.033001 1.966998 -0.050000 0.000000 0.000000 1.000000 1.000000
v 0.656495 1.950000 0.043063 0.000000 0.000000 1.000000 1.000000
v 0.033001 0.083002 -0.050000 0.000000 0.000000 1.000000 1.000000
v 0.049999 1.950000 0.043063 0.000000 0.000000 1.000000 1.000000
v 0.033001 1.966998 -0.050000 0.000000 0.000000 1.000000 1.000000
v 0.049999 0.100000 0.043064 0.000000 0.000000 1.000000 1.000000
v 0.673493 0.083002 -0.050000 0.000000 0.000000 1.000000 1.000000
v 0.049999 0.100000 0.043064 0.000000 0.000000 1.000000 1.000000
v 0.033001 0.083002 -0.050000 0.000000 0.000000 1.000000 1.000000
v 0.656495 0.100000 0.043064 0.000000 0.000000 1.000000 1.000000
v -0.050000 0.100000 0.043064 0.000000 0.000000 1.000000 1.000000
v -0.670982 0.083002 -0.050000 0.000000 0.000000 1.000000 1.000000
v -0.033002 0.083002 -0.050000 0.000000 0.000000 1.000000 1.000000
v -0.653984 0.100000 0.043064 0.000000 0.000000 1.000000 1.000000
v 0.673493 0.083002 -0.050000 0.000000 0.000000 1.000000 1.000000
v 0.656495 1.950000 0.043063 0.000000 0.000000 1.000000 1.000000
v 0.656495 0.100000 0.043064 0.000000 0.000000 1.000000 1.000000
v 0.673493 1.966998 -0.050000 0.000000 0.000000 1.000000 1.000000
v 0.673493 2.966998 -0.050000 0.000000 0.000000 1.000000 1.000000
v 0.656495 2.050000 0.043063 0.000000 0.000000 1.000000 1.000000
v 0.673493 2.033002 -0.050000 0.000000 0.000000 1.000000 1.000000
v 0.656495 2.950000 0.043063 0.000000 0.000000 1.000000 1.000000
v 0.673493 3.916997 -0.050000 0.000000 0.000000 1.000000 1.000000
v 0.656495 3.049999 0.043063 0.000000 0.000000 1.000000 1.000000
v 0.673493 3.033001 -0.050000 0.000000 0.000000 1.000000 1.000000
v 0.656495 3.899999 0.043063 0.000000 0.000000 1.000000 1.000000
v -0.753984 0.000000 -0.050000 0.000000 0.000000 1.000000 1.000000
v -0.753984 0.000000 0.056279 0.000000 0.000000 1.000000 1.000000
v -0.653984 0.000000 -0.050000 0.000000 0.000000 1.000000 1.000000
v -0.653984 0.000000 0.056279 0.000000 0.000000 1.000000 1.000000
v -0.653984 4.000000 -0.050000 0.000000 0.000000 1.000000 1.000000
v -0.653984 4.000000 0.056279 0.000000 0.000000 1.000000 1.000000
v -0.753984 4.000000 -0.050000 0.000000 0.000000 1.000000 1.000000
v -0.753984 4.000000 0.056279 0.000000 0.000000 1.000000 1.000000
v -0.753984 0.100000 0.056279 0.000000 0.000000 1.000000 1.000000
v -0.753984 0.000000 -0.050000 0.000000 0.000000 1.000000 1.000000
v -0.753984 0.100000 -0.050000 0.000000 0.000000 1.000000 1.000000
v -0.753984 0.000000 0.056279 0.000000 0.000000 1.000000 1.000000
v 0.755819 0.000000 0.056279 0.000000 0.000000 1.000000 1.000000
v 0.755819 0.100000 -0.050000 0.000000 0.000000 1.000000 1.000000
v 0.755819 0.000000 -0.050000 0.000000 0.000000 1.000000 1.000000
v 0.755819 0.100000 0.056279 0.000000 0.000000 1.000000 1.000000
v 0.049999 4.000000 -0.050000 0.000000 0.000000 1.000000 1.000000
v 0.656495 4.000000 -0.050000 0.000000 0.000000 1.000000 1.000000
v 0.656495 4.000000 0.056279 0.000000 0.000000 1.000000 1.000000
v 0.049999 4.000000 0.056279 0.000000 0.000000 1.000000 1.000000
v 0.656495 0.000000 -0.050000 0.000000 0.000000 1.000000 1.000000
v 0.049999 0.000000 -0.050000 0.000000 0.000000 1.000000 1.000000
v 0.049999 0.000000 0.056279 0.000000 0.000000 1.000000 1.000000
v 0.656495 0.000000 0.056279 0.000000 0.000000 1.000000 1.000000
v 0.049999 4.000000 -0.050000 0.000000 0.000000 1.000000 1.000000
v 0.049999 4.000000 0.056279 0.000000 0.000000 1.000000 1.000000
v -0.050000 4.000000 -0.050000 0.000000 0.000000 1.000000 1.000000
v -0.050000 4.000000 0.056279 0.000000 0.000000 1.000000 1.000000
v -0.050000 0.000000 -0.050000 0.000000 0.000000 1.000000 1.000000
v -0.050000 0.000000 0.056279 0.000000 0.000000 1.000000 1.000000
v 0.049999 0.000000 -0.050000 0.000000 0.000000 1.000000 1.000000
v 0.049999 0.000000 0.056279 0.000000 0.000000 1.000000 1.000000
v -0.753984 2.950000 0.056279 0.000000 0.000000 1.000000 1.000000
v -0.753984 2.050000 -0.050000 0.000000 0.000000 1.000000 1.000000
v -0.753984 2.950000 -0.050000 0.000000 0.000000 1.000000 1.000000
v -0.753984 2.050000 0.056279 0.000000 0.000000 1.000000 1.000000
v 0.755819 2.950000 -0.050000 0.000000 0.000000 1.000000 1.000000
v 0.755819 2.050000 -0.050000 0.000000 0.000000 1.000000 1.000000
v 0.755819 2.050000 0.056279 0.000000 0.000000 1.000000 1.000000
v 0.755819 2.950000 0.056279 0.000000 0.000000 1.000000 1.000000
v -0.753984 2.050000 -0.050000 0.000000 0.000000 1.000000 1.000000
v -0.753984 2.050000 0.056279 0.000000 0.000000 1.000000 1.000000
v -0.753984 1.950000 -0.050000 0.000000 0.000000 1.000000 1.000000
v -0.753984 1.950000 0.056279 0.000000 0.000000 1.000000 1.000000
v 0.755819 1.950000 -0.050000 0.000000 0.000000 1.000000 1.000000
v 0.755819 1.950000 0.056279 0.000000 0.000000 1.000000 1.000000
v 0.755819 2.050000 -0.050000 0.000000 0.000000 1.000000 1.000000
v 0.755819 2.050000 0.056279 0.000000 0.000000 1.000000 1.000000
v -0.753984 3.899999 0.056279 0.000000 0.000000 1.000000 1.000000
v -0.753984 3.049999 -0.050000 0.000000 0.000000 1.000000 1.000000
v -0.753984 3.899999 -0.050000 0.000000 0.000000 1.000000 1.000000
v -0.753984 3.049999 0.056279 0.000000 0.000000 1.000000 1.000000
v 0.755819 3.899999 -0.050000 0.000000 0.000000 1.000000 1.000000
v 0.755819 3.049999 -0.050000 0.000000 0.000000 1.000000 1.000000
v 0.755819 3.049999 0.056279 0.000000 0.000000 1.000000 1.000000
v 0.755819 3.899999 0.056279 0.000000 0.000000 1.000000 1.000000
v -0.753984 3.049999 -0.050000 0.000000 0.000000 1.000000 1.000000
v -0.753984 3.049999 0.056279 0.000000 0.000000 1.000000 1.000000
v -0.753984 2.950000 -0.050000 0.000000 0.000000 1.000000 1.000000
v -0.753984 2.950000 0.056279 0.000000 0.000000 1.000000 1.000000
v 0.755819 2.950000 -0.050000 0.000000 0.000000 1.000000 1.000000
v 0.755819 2.950000 0.056279 0.000000 0.000000 1.000000 1.000000
v 0.755819 3.049999 -0.050000 0.000000 0.000000 1.000000 1.000000
v 0.755819 3.049999 0.056279 0.000000 0.000000 1.000000 1.000000
v 0.755819 3.899999 -0.050000 0.000000 0.000000 1.000000 1.000000
v 0.755819 3.899999 0.056279 0.000000 0.000000 1.000000 1.000000
v 0.755819 4.000000 -0.050000 0.000000 0.000000 1.000000 1.000000
v 0.755819 4.000000 0.056279 0.000000 0.000000 1.000000 1.000000
v -0.753984 4.000000 -0.050000 0.000000 0.000000 1.000000 1.000000
v -0.753984 4.000000 0.056279 0.000000 0.000000 1.000000 1.000000
v -0.753984 3.899999 -0.050000 0.000000 0.000000 1.000000 1.000000
v -0.753984 3.899999 0.056279 0.000000 0.000000 1.000000 1.000000
v 0.755819 1.950000 -0.050000 0.000000 0.000000 1.000000 1.000000
v 0.755819 0.100000 -0.050000 0.000000 0.000000 1.000000 1.000000
v 0.755819 0.100000 0.056279 0.000000 0.000000 1.000000 1.000000
v 0.755819 1.950000 0.056279 0.000000 0.000000 1.000000 1.000000
v -0.753984 0.100000 -0.050000 0.000000 0.000000 1.000000 1.000000
v -0.753984 1.950000 -0.050000 0.000000 0.000000 1.000000 1.000000
v -0.753984 1.950000 0.056279 0.000000 0.000000 1.000000 1.000000
v -0.753984 0.100000 0.056279 0.000000 0.000000 1.000000 1.000000
v 0.656495 0.000000 -0.050000 0.000000 0.000000 1.000000 1.000000
v 0.656495 0.000000 0.056279 0.000000 0.000000 1.000000 1.000000
v 0.755819 0.000000 -0.050000 0.000000 0.000000 1.000000 1.000000
v 0.755819 0.000000 0.056279 0.000000 0.000000 1.000000 1.000000
v 0.755819 4.000000 -0.050000 0.000000 0.000000 1.000000 1.000000
v 0.755819 4.000000 0.056279 0.000000 0.000000 1.000000 1.000000
v 0.656495 4.000000 -0.050000 0.000000 0.000000 1.000000 1.000000
v 0.656495 4.000000 0.056279 0.000000 0.000000 1.000000 1.000000
v -0.050000 0.000000 -0.050000 0.000000 0.000000 1.000000 1.000000
v -0.653984 0.000000 -0.050000 0.000000 0.000000 1.000000 1.000000
v -0.653984 0.000000 0.056279 0.000000 0.000000 1.000000 1.000000
v -0.050000 0.000000 0.056279 0.000000 0.000000 1.000000 1.000000
v -0.653984 4.000000 -0.050000 0.000000 0.000000 1.000000 1.000000
v -0.050000 4.000000 -0.050000 0.000000 0.000000 1.000000 1.000000
v -0.050000 4.000000 0.056279 0.000000 0.000000 1.000000 1.000000
v -0.653984 4.000000 0.056279 0.000000 0.000000 1.000000 1.000000
v 0.049999 2.950000 0.043063 0.000000 0.000000 1.000000 1.000000
v 0.049999 2.050000 0.043063 0.000000 0.000000 1.000000 1.000000
v 0.049999 2.050000 0.056279 0.000000 0.000000 1.000000 1.000000
v 0.049999 2.950000 0.056279 0.000000 0.000000 1.000000 1.000000
v 0.656495 2.050000 0.056279 0.000000 0.000000 1.000000 1.000000
v 0.049999 2.050000 0.043063 0.000000 0.000000 1.000000 1.000000
v 0.656495 2.050000 0.043063 0.000000 0.000000 1.000000 1.000000
v 0.049999 2.050000 0.056279 0.000000 0.000000 1.000000 1.000000
v 0.656495 2.950000 0.043063 0.000000 0.000000 1.000000 1.000000
v 0.049999 2.950000 0.043063 0.000000 0.000000 1.000000 1.000000
v 0.049999 2.950000 0.056279 0.000000 0.000000 1.000000 1.000000
v 0.656495 2.950000 0.056279 0.000000 0.000000 1.000000 1.000000
v -0.653984 2.050000 0.043063 0.000000 0.000000 1.000000 1.000000
v -0.050000 2.050000 0.043063 0.000000 0.000000 1.000000 1.000000
v -0.050000 2.050000 0.056279 0.000000 0.000000 1.000000 1.000000
v -0.653984 2.050000 0.056279 0.000000 0.000000 1.000000 1.000000
v -0.050000 2.050000 0.043063 0.000000 0.000000 1.000000 1.000000
v -0.050000 2.950000 0.043063 0.000000 0.000000 1.000000 1.000000
v -0.050000 2.950000 0.056279 0.000000 0.000000 1.000000 1.000000
v -0.050000 2.050000 0.056279 0.000000 0.000000 1.000000 1.000000
v -0.050000 2.950000 0.043063 0.000000 0.000000 1.000000 1.000000
v -0.653984 2.950000 0.043063 0.000000 0.000000 1.000000 1.000000
v -0.653984 2.950000 0.056279 0.000000 0.000000 1.000000 1.000000
v -0.050000 2.950000 0.056279 0.000000 0.000000 1.000000 1.000000
v -0.653984 2.950000 0.043063 0.000000 0.000000 1.000000 1.000000
v -0.653984 2.050000 0.043063 0.000000 0.000000 1.000000 1.000000
v -0.653984 2.050000 0.056279 0.000000 0.000000 1.000000 1.000000
v -0.653984 2.950000 0.056279 0.000000 0.000000 1.000000 1.000000
v -0.050000 0.100000 0.043064 0.000000 0.000000 1.000000 1.000000
v -0.050000 1.950000 0.043063 0.000000 0.000000 1.000000 1.000000
v -0.050000 1.950000 0.056279 0.000000 0.000000 1.000000 1.000000
v -0.050000 0.100000 0.056279 0.000000 0.000000 1.000000 1.000000
v -0.050000 1.950000 0.043063 0.000000 0.000000 1.000000 1.000000
v -0.653984 1.950000 0.043063 0.000000 0.000000 1.000000 1.000000
v -0.653984 1.950000 0.056279 0.000000 0.000000 1.000000 1.000000
v -0.050000 1.950000 0.056279 0.000000 0.000000 1.000000 1.000000
v -0.653984 1.950000 0.043063 0.000000 0.000000 1.000000 1.000000
v -0.653984 0.100000 0.043064 0.000000 0.000000 1.000000 1.000000
v -0.653984 0.100000 0.056279 0.000000 0.000000 1.000000 1.000000
v -0.653984 1.950000 0.056279 0.000000 0.000000 1.000000 1.000000
v 0.049999 3.899999 0.043063 0.000000 0.000000 1.000000 1.000000
v 0.049999 3.049999 0.043063 0.000000 0.000000 1.000000 1.000000
v 0.049999 3.049999 0.056279 0.000000 0.000000 1.000000 1.000000
v 0.049999 3.899999 0.056279 0.000000 0.000000 1.000000 1.000000
v 0.656495 3.049999 0.056279 0.000000 0.000000 1.000000 1.000000
v 0.049999 3.049999 0.043063 0.000000 0.000000 1.000000 1.000000
v 0.656495 3.049999 0.043063 0.000000 0.000000 1.000000 1.000000
v 0.049999 3.049999 0.056279 0.000000 0.000000 1.000000 1.000000
v 0.656495 3.899999 0.043063 0.000000 0.000000 1.000000 1.000000
v 0.049999 3.899999 0.043063 0.000000 0.000000 1.000000 1.000000
v 0.049999 3.899999 0.056279 0.000000 0.000000 1.000000 1.000000
v 0.656495 3.899999 0.056279 0.000000 0.000000 1.000000 1.000000
v -0.653984 3.049999 0.043063 0.000000 0.000000 1.000000 1.000000
v -0.050000 3.049999 0.043063 0.000000 0.000000 1.000000 1.000000
v -0.050000 3.049999 0.056279 0.000000 0.000000 1.000000 1.000000
v -0.653984 3.049999 0.056279 0.000000 0.000000 1.000000 1.000000
v -0.050000 3.899999 0.056279 0.000000 0.000000 1.000000 1.000000
v -0.050000 3.049999 0.043063 0.000000 0.000000 1.000000 1.000000
v -0.050000 3.899999 0.043063 0.000000 0.000000 1.000000 1.000000
v -0.050000 3.049999 0.056279 0.000000 0.000000 1.000000 1.000000
v -0.050000 3.899999 0.043063 0.000000 0.000000 1.000000 1.000000
v -0.653984 3.899999 0.043063 0.000000 0.000000 1.000000 1.000000
v -0.653984 3.899999 0.056279 0.000000 0.000000 1.000000 1.000000
v -0.050000 3.899999 0.056279 0.000000 0.000000 1.000000 1.000000
v -0.653984 3.899999 0.043063 0.000000 0.000000 1.000000 1.000000
v -0.653984 3.049999 0.043063 0.000000 0.000000 1.000000 1.000000
v -0.653984 3.049999 0.056279 0.000000 0.000000 1.000000 1.000000
v -0.653984 3.899999 0.056279 0.000000 0.000000 1.000000 1.000000
v 0.656495 1.950000 0.043063 0.000000 0.000000 1.000000 1.000000
v 0.049999 1.950000 0.043063 0.000000 0.000000 1.000000 1.000000
v 0.049999 1.950000 0.056279 0.000000 0.000000 1.000000 1.000000
v 0.656495 1.950000 0.056279 0.000000 0.000000 1.000000 1.000000
v 0.049999 1.950000 0.043063 0.000000 0.000000 1.000000 1.000000
v 0.049999 0.100000 0.043064 0.000000 0.000000 1.000000 1.000000
v 0.049999 0.100000 0.056279 0.000000 0.000000 1.000000 1.000000
v 0.049999 1.950000 0.056279 0.000000 0.000000 1.000000 1.000000
v 0.656495 0.100000 0.056279 0.000000 0.000000 1.000000 1.000000
v 0.049999 0.100000 0.043064 0.000000 0.000000 1.000000 1.000000
v 0.656495 0.100000 0.043064 0.000000 0.000000 1.000000 1.000000
v 0.049999 0.100000 0.056279 0.000000 0.000000 1.000000 1.000000
v -0.653984 0.100000 0.043064 0.000000 0.000000 1.000000 1.000000
v -0.050000 0.100000 0.043064 0.000000 0.000000 1.000000 1.000000
v -0.050000 0.100000 0.056279 0.000000 0.000000 1.000000 1.000000
v -0.653984 0.100000 0.056279 0.000000 0.000000 1.000000 1.000000
v 0.656495 0.100000 0.043064 0.000000 0.000000 1.000000 1.000000
v 0.656495 1.950000 0.043063 0.000000 0.000000 1.000000 1.000000
v 0.656495 1.950000 0.056279 0.000000 0.000000 1.000000 1.000000
v 0.656495 0.100000 0.056279 0.000000 0.000000 1.000000 1.000000
v 0.656495 2.050000 0.043063 0.000000 0.000000 1.000000 1.000000
v 0.656495 2.950000 0.043063 0.000000 0.000000 1.000000 1.000000
v 0.656495 2.950000 0.056279 0.000000 0.000000 1.000000 1.000000
v 0.656495 2.050000 0.056279 0.000000 0.000000 1.000000 1.000000
v 0.656495 3.899999 0.056279 0.000000 0.000000 1.000000 1.000000
v 0.656495 3.049999 0.043063 0.000000 0.000000 1.000000 1.000000
v 0.656495 3.899999 0.043063 0.000000 0.000000 1.000000 1.000000
v 0.656495 3.049999 0.056279 0.000000 0.000000 1.000000 1.000000
v -0.050000 3.899999 0.056279 0.000000 0.000000 1.000000 1.000000
v -0.653984 3.899999 0.056279 0.000000 0.000000 1.000000 1.000000
v -0.653984 4.000000 0.056279 0.000000 0.000000 1.000000 1.000000
v -0.050000 4.000000 0.056279 0.000000 0.000000 1.000000 1.000000
v 0.656495 3.899999 0.056279 0.000000 0.000000 1.000000 1.000000
v 0.049999 3.899999 0.056279 0.000000 0.000000 1.000000 1.000000
v 0.049999 4.000000 0.056279 0.000000 0.000000 1.000000 1.000000
v 0.656495 4.000000 0.056279 0.000000 0.000000 1.000000 1.000000
v 0.049999 3.049999 0.056279 0.000000 0.000000 1.000000 1.000000
v 0.656495 2.950000 0.056279 0.000000 0.000000 1.000000 1.000000
v 0.049999 2.950000 0.056279 0.000000 0.000000 1.000000 1.000000
v 0.656495 3.049999 0.056279 0.000000 0.000000 1.000000 1.000000
v 0.656495 1.950000 0.056279 0.000000 0.000000 1.000000 1.000000
v 0.049999 1.950000 0.056279 0.000000 0.000000 1.000000 1.000000
v 0.049999 2.050000 0.056279 0.000000 0.000000 1.000000 1.000000
v 0.656495 2.050000 0.056279 0.000000 0.000000 1.000000 1.000000
v -0.050000 1.950000 0.056279 0.000000 0.000000 1.000000 1.000000
v -0.653984 1.950000 0.056279 0.000000 0.000000 1.000000 1.000000
v -0.653984 2.050000 0.056279 0.000000 0.000000 1.000000 1.000000
v -0.050000 2.050000 0.056279 0.000000 0.000000 1.000000 1.000000
v -0.653984 3.899999 0.056279 0.000000 0.000000 1.000000 1.000000
v -0.653984 3.049999 0.056279 0.000000 0.000000 1.000000 1.000000
v -0.753984 3.049999 0.056279 0.000000 0.000000 1.000000 1.000000
v -0.753984 3.899999 0.056279 0.000000 0.000000 1.000000 1.000000
v 0.656495 3.049999 0.056279 0.000000 0.000000 1.000000 1.000000
v 0.755819 3.899999 0.056279 0.000000 0.000000 1.000000 1.000000
v 0.755819 3.049999 0.056279 0.000000 0.000000 1.000000 1.000000
v 0.656495 3.899999 0.056279 0.000000 0.000000 1.000000 1.000000
v -0.653984 2.950000 0.056279 0.000000 0.000000 1.000000 1.000000
v -0.653984 2.050000 0.056279 0.000000 0.000000 1.000000 1.000000
v -0.753984 2.050000 0.056279 0.000000 0.000000 1.000000 1.000000
v -0.753984 2.950000 0.056279 0.000000 0.000000 1.000000 1.000000
v 0.656495 2.050000 0.056279 0.000000 0.000000 1.000000 1.000000
v 0.755819 2.950000 0.056279 0.000000 0.000000 1.000000 1.000000
v 0.755819 2.050000 0.056279 0.000000 0.000000 1.000000 1.000000
v 0.656495 2.950000 0.056279 0.000000 0.000000 1.000000 1.000000
v -0.653984 1.950000 0.056279 0.000000 0.000000 1.000000 1.000000
v -0.653984 0.100000 0.056279 0.000000 0.000000 1.000000 1.000000
v -0.753984 0.100000 0.056279 0.000000 0.000000 1.000000 1.000000
v -0.753984 1.950000 0.056279 0.000000 0.000000 1.000000 1.000000
v 0.656495 0.100000 0.056279 0.000000 0.000000 1.000000 1.000000
v 0.755819 1.950000 0.056279 0.000000 0.000000 1.000000 1.000000
v 0.755819 0.100000 0.056279 0.000000 0.000000 1.000000 1.000000
v 0.656495 1.950000 0.056279 0.000000 0.000000 1.000000 1.000000
v 0.656495 0.000000 0.056279 0.000000 0.000000 1.000000 1.000000
v 0.755819 0.100000 0.056279 0.000000 0.000000 1.000000 1.000000
v 0.755819 0.000000 0.056279 0.000000 0.000000 1.000000 1.000000
v 0.656495 0.100000 0.056279 0.000000 0.000000 1.000000 1.000000
v -0.753984 0.100000 0.056279 0.000000 0.000000 1.000000 1.000000
v -0.653984 0.000000 0.056279 0.000000 0.000000 1.000000 1.000000
v -0.753984 0.000000 0.056279 0.000000 0.000000 1.000000 1.000000
v -0.653984 0.100000 0.056279 0.000000 0.000000 1.000000 1.000000
v 0.656495 1.950000 0.056279 0.000000 0.000000 1.000000 1.000000
v 0.755819 2.050000 0.056279 0.000000 0.000000 1.000000 1.000000
v 0.755819 1.950000 0.056279 0.000000 0.000000 1.000000 1.000000
v 0.656495 2.050000 0.056279 0.000000 0.000000 1.000000 1.000000
v -0.653984 1.950000 0.056279 0.000000 0.000000 1.000000 1.000000
v -0.753984 1.950000 0.056279 0.000000 0.000000 1.000000 1.000000
v -0.753984 2.050000 0.056279 0.000000 0.000000 1.000000 1.000000
v -0.653984 2.050000 0.056279 0.000000 0.000000 1.000000 1.000000
v -0.653984 2.950000 0.056279 0.000000 0.000000 1.000000 1.000000
v -0.753984 2.950000 0.056279 0.000000 0.000000 1.000000 1.000000
v -0.753984 3.049999 0.056279 0.000000 0.000000 1.000000 1.000000
v -0.653984 3.049999 0.056279 0.000000 0.000000 1.000000 1.000000
v 0.656495 2.950000 0.056279 0.000000 0.000000 1.000000 1.000000
v 0.755819 3.049999 0.056279 0.000000 0.000000 1.000000 1.000000
v 0.755819 2.950000 0.056279 0.000000 0.000000 1.000000 1.000000
v 0.656495 3.049999 0.056279 0.000000 0.000000 1.000000 1.000000
v 0.656495 3.899999 0.056279 0.000000 0.000000 1.000000 1.000000
v 0.755819 4.000000 0.056279 0.000000 0.000000 1.000000 1.000000
v 0.755819 3.899999 0.056279 0.000000 0.000000 1.000000 1.000000
v 0.656495 4.000000 0.056279 0.000000 0.000000 1.000000 1.000000
v -0.050000 3.899999 0.056279 0.000000 0.000000 1.000000 1.000000
v 0.049999 4.000000 0.056279 0.000000 0.000000 1.000000 1.000000
v 0.049999 3.899999 0.056279 0.000000 0.000000 1.000000 1.000000
v -0.050000 4.000000 0.056279 0.000000 0.000000 1.000000 1.000000
v -0.753984 3.899999 0.056279 0.000000 0.000000 1.000000 1.000000
v -0.653984 4.000000 0.056279 0.000000 0.000000 1.000000 1.000000
v -0.653984 3.899999 0.056279 0.000000 0.000000 1.000000 1.000000
v -0.753984 4.000000 0.056279 0.000000 0.000000 1.000000 1.000000
v -0.050000 0.000000 0.056279 0.000000 0.000000 1.000000 1.000000
v -0.653984 0.000000 0.056279 0.000000 0.000000 1.000000 1.000000
v -0.653984 0.100000 0.056279 0.000000 0.000000 1.000000 1.000000
v -0.050000 0.100000 0.056279 0.000000 0.000000 1.000000 1.000000
v -0.050000 0.100000 0.056279 0.000000 0.000000 1.000000 1.000000
v 0.049999 0.000000 0.056279 0.000000 0.000000 1.000000 1.000000
v 0.049999 0.100000 0.056279 0.000000 0.000000 1.000000 1.000000
v 0.656495 0.000000 0.056279 0.000000 0.000000 1.000000 1.000000
v 0.049999 0.000000 0.056279 0.000000 0.000000 1.000000 1.000000
v 0.656495 0.100000 0.056279 0.000000 0.000000 1.000000 1.000000
v -0.050000 3.049999 0.056279 0.000000 0.000000 1.000000 1.000000
v 0.049999 3.899999 0.056279 0.000000 0.000000 1.000000 1.000000
v 0.049999 3.049999 0.056279 0.000000 0.000000 1.000000 1.000000
v -0.050000 3.899999 0.056279 0.000000 0.000000 1.000000 1.000000
v 0.049999 3.049999 0.056279 0.000000 0.000000 1.000000 1.000000
v -0.050000 2.950000 0.056279 0.000000 0.000000 1.000000 1.000000
v 0.049999 2.950000 0.056279 0.000000 0.000000 1.000000 1.000000
v -0.653984 2.950000 0.056279 0.000000 0.000000 1.000000 1.000000
v -0.653984 3.049999 0.056279 0.000000 0.000000 1.000000 1.000000
v -0.050000 3.049999 0.056279 0.000000 0.000000 1.000000 1.000000
v -0.050000 2.050000 0.056279 0.000000 0.000000 1.000000 1.000000
v 0.049999 2.050000 0.056279 0.000000 0.000000 1.000000 1.000000
v -0.050000 2.950000 0.056279 0.000000 0.000000 1.000000 1.000000
v 0.049999 1.950000 0.056279 0.000000 0.000000 1.000000 1.000000
v 0.049999 2.050000 0.056279 0.000000 0.000000 1.000000 1.000000
v -0.050000 1.950000 0.056279 0.000000 0.000000 1.000000 1.000000
v 0.049999 0.100000 0.056279 0.000000 0.000000 1.000000 1.000000
v -0.050000 0.100000 0.056279 0.000000 0.000000 1.000000 1.000000
v -0.050000 1.950000 0.056279 0.000000 0.000000 1.000000 1.000000
v -0.670982 0.083002 -0.050000 0.000000 0.000000 1.000000 1.000000
v -0.753984 0.100000 -0.050000 0.000000 0.000000 1.000000 1.000000
v -0.753984 0.000000 -0.050000 0.000000 0.000000 1.000000 1.000000
v -0.653984 0.000000 -0.050000 0.000000 0.000000 1.000000 1.000000
v -0.753984 1.950000 -0.050000 0.000000 0.000000 1.000000 1.000000
v -0.050000 0.000000 -0.050000 0.000000 0.000000 1.000000 1.000000
v -0.670982 1.966998 -0.050000 0.000000 0.000000 1.000000 1.000000
v -0.033002 0.083002 -0.050000 0.000000 0.000000 1.000000 1.000000
v -0.670982 2.033002 -0.050000 0.000000 0.000000 1.000000 1.000000
v 0.049999 0.000000 -0.050000 0.000000 0.000000 1.000000 1.000000
v -0.753984 2.050000 -0.050000 0.000000 0.000000 1.000000 1.000000
v -0.033002 1.966998 -0.050000 0.000000 0.000000 1.000000 1.000000
v -0.670982 2.966998 -0.050000 0.000000 0.000000 1.000000 1.000000
v -0.753984 2.950000 -0.050000 0.000000 0.000000 1.000000 1.000000
v -0.033002 2.033002 -0.050000 0.000000 0.000000 1.000000 1.000000
v -0.670982 3.033001 -0.050000 0.000000 0.000000 1.000000 1.000000
v -0.753984 3.049999 -0.050000 0.000000 0.000000 1.000000 1.000000
v -0.033002 2.966998 -0.050000 0.000000 0.000000 1.000000 1.000000
v -0.670982 3.916997 -0.050000 0.000000 0.000000 1.000000 1.000000
v -0.753984 3.899999 -0.050000 0.000000 0.000000 1.000000 1.000000
v -0.753984 4.000000 -0.050000 0.000000 0.000000 1.000000 1.000000
v -0.653984 4.000000 -0.050000 0.000000 0.000000 1.000000 1.000000
v -0.050000 4.000000 -0.050000 0.000000 0.000000 1.000000 1.000000
v -0.033002 3.916997 -0.050000 0.000000 0.000000 1.000000 1.000000
v -0.033002 3.033001 -0.050000 0.000000 0.000000 1.000000 1.000000
v 0.033001 3.916997 -0.050000 0.000000 0.000000 1.000000 1.000000
v 0.049999 4.000000 -0.050000 0.000000 0.000000 1.000000 1.000000
v 0.033001 3.033001 -0.050000 0.000000 0.000000 1.000000 1.000000
v 0.673493 3.916997 -0.050000 0.000000 0.000000 1.000000 1.000000
v 0.656495 4.000000 -0.050000 0.000000 0.000000 1.000000 1.000000
v 0.755819 4.000000 -0.050000 0.000000 0.000000 1.000000 1.000000
v 0.755819 3.899999 -0.050000 0.000000 0.000000 1.000000 1.000000
v 0.755819 3.049999 -0.050000 0.000000 0.000000 1.000000 1.000000
v 0.673493 3.033001 -0.050000 0.000000 0.000000 1.000000 1.000000
v 0.033001 2.966998 -0.050000 0.000000 0.000000 1.000000 1.000000
v 0.673493 2.966998 -0.050000 0.000000 0.000000 1.000000 1.000000
v 0.755819 2.950000 -0.050000 0.000000 0.000000 1.000000 1.000000
v 0.033001 2.033002 -0.050000 0.000000 0.000000 1.000000 1.000000
v 0.755819 2.050000 -0.050000 0.000000 0.000000 1.000000 1.000000
v 0.673493 2.033002 -0.050000 0.000000 0.000000 1.000000 1.000000
v 0.033001 1.966998 -0.050000 0.000000 0.000000 1.000000 1.000000
v 0.673493 1.966998 -0.050000 0.000000 0.000000 1.000000 1.000000
v 0.755819 1.950000 -0.050000 0.000000 0.000000 1.000000 1.000000
v 0.033001 0.083002 -0.050000 0.000000 0.000000 1.000000 1.000000
v 0.673493 0.083002 -0.050000 0.000000 0.000000 1.000000 1.000000
v 0.755819 0.100000 -0.050000 0.000000 0.000000 1.000000 1.000000
v 0.755819 0.000000 -0.050000 0.000000 0.000000 1.000000 1.000000
v 0.656495 0.000000 -0.050000 0.000000 0.000000 1.000000 1.000000
v 0.049999 2.950000 0.050000 0.000000 0.000000 1.000000 1.000000
v 0.049999 2.050000 0.050000 0.000000 0.000000 1.000000 1.000000
v 0.656495 2.950000 0.050000 0.000000 0.000000 1.000000 1.000000
v 0.656495 2.050000 0.050000 0.000000 0.000000 1.000000 1.000000
v 0.656495 3.899999 0.050000 0.000000 0.000000 1.000000 1.000000
v 0.049999 3.899999 0.050000 0.000000 0.000000 1.000000 1.000000
v 0.656495 3.049999 0.050000 0.000000 0.000000 1.000000 1.000000
v 0.049999 3.049999 0.050000 0.000000 0.000000 1.000000 1.000000
v 0.049999 1.950000 0.050000 0.000000 0.000000 1.000000 1.000000
v 0.049999 0.100000 0.050000 0.000000 0.000000 1.000000 1.000000
v 0.656495 1.950000 0.050000 0.000000 0.000000 1.000000 1.000000
v 0.656495 0.100000 0.050000 0.000000 0.000000 1.000000 1.000000
v -0.050000 0.100000 0.050000 0.000000 0.000000 1.000000 1.000000
v -0.050000 1.950000 0.050000 0.000000 0.000000 1.000000 1.000000
v -0.653984 1.950000 0.050000 0.000000 0.000000 1.000000 1.000000
v -0.653984 0.100000 0.050000 0.000000 0.000000 1.000000 1.000000
v -0.050000 2.950000 0.050000 0.000000 0.000000 1.000000 1.000000
v -0.653984 2.950000 0.050000 0.000000 0.000000 1.000000 1.000000
v -0.050000 2.050000 0.050000 0.000000 0.000000 1.000000 1.000000
v -0.653984 2.050000 0.050000 0.000000 0.000000 1.000000 1.000000
v -0.050000 3.899999 0.050000 0.000000 0.000000 1.000000 1.000000
v -0.653984 3.899999 0.050000 0.000000 0.000000 1.000000 1.000000
v -0.050000 3.049999 0.050000 0.000000 0.000000 1.000000 1.000000
v -0.653984 3.049999 0.050000 0.000000 0.000000 1.000000 1.000000
vt 0.488525 0.470703
vt 0.476318 0.590088
vt 0.476318 0.462891
vt 0.488770 0.583252
vt 0.600098 0.462891
vt 0.488525 0.470703
vt 0.476318 0.462891
vt 0.587402 0.469727
vt 0.488770 0.583252
vt 0.600098 0.590088
vt 0.476318 0.590088
vt 0.587891 0.582520
vt 0.455322 0.469727
vt 0.344238 0.462891
vt 0.468018 0.462891
vt 0.356445 0.470703
vt 0.468018 0.590088
vt 0.455322 0.469727
vt 0.468018 0.462891
vt 0.455566 0.582520
vt 0.344238 0.590088
vt 0.455566 0.582520
vt 0.468018 0.590088
vt 0.356689 0.583252
vt 0.356445 0.470703
vt 0.344238 0.590088
vt 0.344238 0.462891
vt 0.356689 0.583252
vt 0.454346 0.448730
vt 0.468018 0.211914
vt 0.468018 0.454590
vt 0.454346 0.217285
vt 0.344238 0.454590
vt 0.454346 0.448730
vt 0.468018 0.454590
vt 0.357666 0.449219
vt 0.344238 0.211914
vt 0.357666 0.449219
vt 0.344238 0.454590
vt 0.357666 0.217773
vt 0.488281 0.606201
vt 0.488525 0.712646
vt 0.476318 0.598389
vt 0.476318 0.719727
vt 0.600098 0.598389
vt 0.488281 0.606201
vt 0.476318 0.598389
vt 0.587402 0.605469
vt 0.488525 0.712646
vt 0.600098 0.719727
vt 0.476318 0.719727
vt 0.587891 0.712158
vt 0.455566 0.605469
vt 0.344238 0.598389
vt 0.468018 0.598389
vt 0.356445 0.606201
vt 0.468018 0.719727
vt 0.455566 0.605469
vt 0.468018 0.598389
vt 0.455811 0.712158
vt 0.344238 0.719727
vt 0.455811 0.712158
vt 0.468018 0.719727
vt 0.356689 0.712646
vt 0.356445 0.606201
vt 0.356689 0.712646
vt 0.344238 0.598389
vt 0.344238 0.719727
vt 0.489746 0.449219
vt 0.600098 0.454590
vt 0.476318 0.454590
vt 0.586426 0.448730
vt 0.476318 0.211914
vt 0.489746 0.449219
vt 0.476318 0.454590
vt 0.489746 0.217773
vt 0.600098 0.211914
vt 0.489746 0.217773
vt 0.476318 0.211914
vt 0.586426 0.217285
vt 0.454346 0.217285
vt 0.344238 0.211914
vt 0.468018 0.211914
vt 0.357666 0.217773
vt 0.600098 0.211914
vt 0.586426 0.448730
vt 0.586426 0.217285
vt 0.600098 0.454590
vt 0.600098 0.590088
vt 0.587402 0.469727
vt 0.600098 0.462891
vt 0.587891 0.582520
vt 0.600098 0.719727
vt 0.587402 0.605469
vt 0.600098 0.598389
vt 0.587891 0.712158
vt 0.722168 0.737793
vt 0.729492 0.729736
vt 0.738281 0.745117
vt 0.740234 0.732178
vt 0.737793 0.204102
vt 0.740234 0.217285
vt 0.721680 0.211914
vt 0.729980 0.218750
vt 0.728027 0.719727
vt 0.722168 0.737793
vt 0.714355 0.720703
vt 0.729492 0.729736
vt 0.923340 0.729980
vt 0.938965 0.719971
vt 0.932129 0.736328
vt 0.925781 0.719238
vt 0.832520 0.202148
vt 0.913086 0.204102
vt 0.911133 0.217285
vt 0.832031 0.215820
vt 0.915527 0.744873
vt 0.833496 0.746582
vt 0.833496 0.732910
vt 0.913574 0.731689
vt 0.832520 0.202148
vt 0.832031 0.215820
vt 0.818848 0.202148
vt 0.819336 0.215820
vt 0.819824 0.746582
vt 0.820312 0.732910
vt 0.833496 0.746582
vt 0.833496 0.732910
vt 0.727051 0.352539
vt 0.713379 0.469238
vt 0.713379 0.352539
vt 0.727051 0.469238
vt 0.938477 0.352051
vt 0.938965 0.468750
vt 0.925293 0.468750
vt 0.924805 0.352051
vt 0.713379 0.469238
vt 0.727051 0.469238
vt 0.713379 0.481934
vt 0.727051 0.481934
vt 0.939453 0.481445
vt 0.925781 0.481445
vt 0.938965 0.468750
vt 0.925293 0.468750
vt 0.728027 0.229492
vt 0.713379 0.339355
vt 0.714844 0.228027
vt 0.727051 0.339355
vt 0.937012 0.227539
vt 0.938477 0.338867
vt 0.924805 0.339355
vt 0.923340 0.229492
vt 0.713379 0.339355
vt 0.727051 0.339355
vt 0.713379 0.352539
vt 0.727051 0.352539
vt 0.938477 0.352051
vt 0.924805 0.352051
vt 0.938477 0.338867
vt 0.924805 0.339355
vt 0.937012 0.227539
vt 0.923340 0.229492
vt 0.929199 0.210938
vt 0.922363 0.219238
vt 0.721680 0.211914
vt 0.729980 0.218750
vt 0.714844 0.228027
vt 0.728027 0.229492
vt 0.939453 0.481445
vt 0.938965 0.719971
vt 0.925781 0.719238
vt 0.925781 0.481445
vt 0.714355 0.720703
vt 0.713379 0.481934
vt 0.727051 0.481934
vt 0.728027 0.719727
vt 0.915527 0.744873
vt 0.913574 0.731689
vt 0.932129 0.736328
vt 0.923340 0.729980
vt 0.929199 0.210938
vt 0.922363 0.219238
vt 0.913086 0.204102
vt 0.911133 0.217285
vt 0.819824 0.746582
vt 0.738281 0.745117
vt 0.740234 0.732178
vt 0.820312 0.732910
vt 0.737793 0.204102
vt 0.818848 0.202148
vt 0.819336 0.215820
vt 0.740234 0.217285
vt 0.833496 0.353027
vt 0.833984 0.468262
vt 0.832520 0.468750
vt 0.832031 0.352539
vt 0.912598 0.468750
vt 0.833984 0.468262
vt 0.911621 0.467773
vt 0.832520 0.468750
vt 0.911133 0.353027
vt 0.833496 0.353027
vt 0.832031 0.352539
vt 0.912109 0.352051
vt 0.741211 0.468262
vt 0.818359 0.468262
vt 0.819824 0.469238
vt 0.739746 0.469238
vt 0.818359 0.468262
vt 0.818359 0.353516
vt 0.819336 0.352539
vt 0.819824 0.469238
vt 0.818359 0.353516
vt 0.741211 0.353516
vt 0.739746 0.352539
vt 0.819336 0.352539
vt 0.741211 0.353516
vt 0.741211 0.468262
vt 0.739746 0.469238
vt 0.739746 0.352539
vt 0.818848 0.719482
vt 0.818359 0.482422
vt 0.819824 0.481934
vt 0.820312 0.719971
vt 0.818359 0.482422
vt 0.741211 0.482422
vt 0.739746 0.481934
vt 0.819824 0.481934
vt 0.741211 0.482422
vt 0.742188 0.718994
vt 0.740723 0.719482
vt 0.739746 0.481934
vt 0.833496 0.229980
vt 0.833496 0.338379
vt 0.832031 0.339355
vt 0.832031 0.229004
vt 0.912109 0.339355
vt 0.833496 0.338379
vt 0.911133 0.338379
vt 0.832031 0.339355
vt 0.909668 0.230469
vt 0.833496 0.229980
vt 0.832031 0.229004
vt 0.911133 0.229980
vt 0.741211 0.338867
vt 0.817871 0.338867
vt 0.819336 0.339355
vt 0.739746 0.339844
vt 0.819336 0.229004
vt 0.817871 0.338867
vt 0.817871 0.229980
vt 0.819336 0.339355
vt 0.817871 0.229980
vt 0.741699 0.230957
vt 0.740723 0.229980
vt 0.819336 0.229004
vt 0.741699 0.230957
vt 0.741211 0.338867
vt 0.739746 0.339844
vt 0.740723 0.229980
vt 0.911621 0.481934
vt 0.833984 0.482422
vt 0.832520 0.481934
vt 0.913086 0.481445
vt 0.833984 0.482422
vt 0.834473 0.719238
vt 0.833008 0.719971
vt 0.832520 0.481934
vt 0.913086 0.718994
vt 0.834473 0.719238
vt 0.911621 0.718506
vt 0.833008 0.719971
vt 0.742188 0.718994
vt 0.818848 0.719482
vt 0.820312 0.719971
vt 0.740723 0.719482
vt 0.911621 0.718506
vt 0.911621 0.481934
vt 0.913086 0.481445
vt 0.913086 0.718994
vt 0.911621 0.467773
vt 0.911133 0.353027
vt 0.912109 0.352051
vt 0.912598 0.468750
vt 0.911133 0.229980
vt 0.911133 0.338379
vt 0.909668 0.230469
vt 0.912109 0.339355
vt 0.819336 0.229004
vt 0.740723 0.229980
vt 0.740234 0.217285
vt 0.819336 0.215820
vt 0.911133 0.229980
vt 0.832031 0.229004
vt 0.832031 0.215820
vt 0.911133 0.217285
vt 0.832031 0.339355
vt 0.912109 0.352051
vt 0.832031 0.352539
vt 0.912109 0.339355
vt 0.913086 0.481445
vt 0.832520 0.481934
vt 0.832520 0.468750
vt 0.912598 0.468750
vt 0.819824 0.481934
vt 0.739746 0.481934
vt 0.739746 0.469238
vt 0.819824 0.469238
vt 0.740723 0.229980
vt 0.739746 0.339844
vt 0.727051 0.339355
vt 0.728027 0.229492
vt 0.912109 0.339355
vt 0.923340 0.229492
vt 0.924805 0.339355
vt 0.911133 0.229980
vt 0.739746 0.352539
vt 0.739746 0.469238
vt 0.727051 0.469238
vt 0.727051 0.352539
vt 0.912598 0.468750
vt 0.924805 0.352051
vt 0.925293 0.468750
vt 0.912109 0.352051
vt 0.739746 0.481934
vt 0.740723 0.719482
vt 0.728027 0.719727
vt 0.727051 0.481934
vt 0.913086 0.718994
vt 0.925781 0.481445
vt 0.925781 0.719238
vt 0.913086 0.481445
vt 0.913574 0.731689
vt 0.925781 0.719238
vt 0.923340 0.729980
vt 0.913086 0.718994
vt 0.728027 0.719727
vt 0.740234 0.732178
vt 0.729492 0.729736
vt 0.740723 0.719482
vt 0.913086 0.481445
vt 0.925293 0.468750
vt 0.925781 0.481445
vt 0.912598 0.468750
vt 0.739746 0.481934
vt 0.727051 0.481934
vt 0.727051 0.469238
vt 0.739746 0.469238
vt 0.739746 0.352539
vt 0.727051 0.352539
vt 0.727051 0.339355
vt 0.739746 0.339844
vt 0.912109 0.352051
vt 0.924805 0.339355
vt 0.924805 0.352051
vt 0.912109 0.339355
vt 0.911133 0.229980
vt 0.922363 0.219238
vt 0.923340 0.229492
vt 0.911133 0.217285
vt 0.819336 0.229004
vt 0.832031 0.215820
vt 0.832031 0.229004
vt 0.819336 0.215820
vt 0.728027 0.229492
vt 0.740234 0.217285
vt 0.740723 0.229980
vt 0.729980 0.218750
vt 0.820312 0.732910
vt 0.740234 0.732178
vt 0.740723 0.719482
vt 0.820312 0.719971
vt 0.820312 0.719971
vt 0.833496 0.732910
vt 0.833008 0.719971
vt 0.913574 0.731689
vt 0.833496 0.732910
vt 0.913086 0.718994
vt 0.819336 0.339355
vt 0.832031 0.229004
vt 0.832031 0.339355
vt 0.819336 0.229004
vt 0.832031 0.339355
vt 0.819336 0.352539
vt 0.832031 0.352539
vt 0.739746 0.352539
vt 0.739746 0.339844
vt 0.819336 0.339355
vt 0.819824 0.469238
vt 0.832520 0.468750
vt 0.819336 0.352539
vt 0.832520 0.481934
vt 0.832520 0.468750
vt 0.819824 0.481934
vt 0.833008 0.719971
vt 0.820312 0.719971
vt 0.819824 0.481934
vt 0.344238 0.211914
vt 0.332764 0.214355
vt 0.333984 0.199707
vt 0.348389 0.200684
vt 0.332764 0.452637
vt 0.464111 0.200684
vt 0.344238 0.454590
vt 0.468018 0.211914
vt 0.344238 0.462891
vt 0.479980 0.200684
vt 0.332764 0.465332
vt 0.468018 0.454590
vt 0.344238 0.590088
vt 0.332764 0.587891
vt 0.468018 0.462891
vt 0.344238 0.598389
vt 0.332764 0.600830
vt 0.468018 0.590088
vt 0.344238 0.719727
vt 0.332764 0.717529
vt 0.333984 0.731934
vt 0.348389 0.731201
vt 0.464111 0.731201
vt 0.468018 0.719727
vt 0.468018 0.598389
vt 0.476318 0.719727
vt 0.479980 0.731201
vt 0.476318 0.598389
vt 0.600098 0.719727
vt 0.595703 0.731201
vt 0.609863 0.731934
vt 0.611328 0.717529
vt 0.611328 0.600830
vt 0.600098 0.598389
vt 0.476318 0.590088
vt 0.600098 0.590088
vt 0.611328 0.587891
vt 0.476318 0.462891
vt 0.611328 0.465332
vt 0.600098 0.462891
vt 0.476318 0.454590
vt 0.600098 0.454590
vt 0.611328 0.452637
vt 0.476318 0.211914
vt 0.600098 0.211914
vt 0.611328 0.214355
vt 0.609863 0.199707
vt 0.595703 0.200684
vt 0.142090 0.437012
vt 0.142090 0.341797
vt 0.231934 0.437012
vt 0.231934 0.341797
vt 0.231934 0.526123
vt 0.142090 0.526123
vt 0.231934 0.436523
vt 0.142090 0.436523
vt 0.142090 0.342773
vt 0.142090 0.147461
vt 0.231934 0.342773
vt 0.231934 0.147461
vt 0.141602 0.147461
vt 0.141602 0.342285
vt 0.052124 0.342285
vt 0.052124 0.147461
vt 0.141602 0.437012
vt 0.052124 0.437012
vt 0.141602 0.342285
vt 0.052124 0.342285
vt 0.141602 0.525879
vt 0.052124 0.525879
vt 0.141602 0.436523
vt 0.052124 0.436523
vt1 0.857422 0.500488
vt1 0.854004 0.624268
vt1 0.854004 0.497070
vt1 0.857422 0.620850
vt1 0.977539 0.497070
vt1 0.857422 0.500488
vt1 0.854004 0.497070
vt1 0.974121 0.500488
vt1 0.857422 0.620850
vt1 0.977539 0.624268
vt1 0.854004 0.624268
vt1 0.974121 0.620850
vt1 0.841797 0.500488
vt1 0.721680 0.497070
vt1 0.845703 0.497070
vt1 0.725586 0.500488
vt1 0.845703 0.624268
vt1 0.841797 0.500488
vt1 0.845703 0.497070
vt1 0.841797 0.620850
vt1 0.721680 0.624268
vt1 0.841797 0.620850
vt1 0.845703 0.624268
vt1 0.725586 0.620850
vt1 0.725586 0.500488
vt1 0.721680 0.624268
vt1 0.721680 0.497070
vt1 0.725586 0.620850
vt1 0.841797 0.485840
vt1 0.845703 0.246582
vt1 0.845703 0.488770
vt1 0.841797 0.249512
vt1 0.721680 0.488770
vt1 0.841797 0.485840
vt1 0.845703 0.488770
vt1 0.725586 0.485840
vt1 0.721680 0.246582
vt1 0.725586 0.485840
vt1 0.721680 0.488770
vt1 0.725586 0.249512
vt1 0.857422 0.636230
vt1 0.857422 0.750488
vt1 0.854004 0.632568
vt1 0.854004 0.753906
vt1 0.977539 0.632568
vt1 0.857422 0.636230
vt1 0.854004 0.632568
vt1 0.974121 0.636230
vt1 0.857422 0.750488
vt1 0.977539 0.753906
vt1 0.854004 0.753906
vt1 0.974121 0.750488
vt1 0.841797 0.636230
vt1 0.721680 0.632568
vt1 0.845703 0.632568
vt1 0.725586 0.636230
vt1 0.845703 0.753906
vt1 0.841797 0.636230
vt1 0.845703 0.632568
vt1 0.841797 0.750488
vt1 0.721680 0.753906
vt1 0.841797 0.750488
vt1 0.845703 0.753906
vt1 0.725586 0.750488
vt1 0.725586 0.636230
vt1 0.725586 0.750488
vt1 0.721680 0.632568
vt1 0.721680 0.753906
vt1 0.857422 0.485840
vt1 0.977539 0.488770
vt1 0.854004 0.488770
vt1 0.974121 0.485840
vt1 0.854004 0.246582
vt1 0.857422 0.485840
vt1 0.854004 0.488770
vt1 0.857422 0.249512
vt1 0.977539 0.246582
vt1 0.857422 0.249512
vt1 0.854004 0.246582
vt1 0.974121 0.249512
vt1 0.841797 0.249512
vt1 0.721680 0.246582
vt1 0.845703 0.246582
vt1 0.725586 0.249512
vt1 0.977539 0.246582
vt1 0.974121 0.485840
vt1 0.974121 0.249512
vt1 0.977539 0.488770
vt1 0.977539 0.624268
vt1 0.974121 0.500488
vt1 0.977539 0.497070
vt1 0.974121 0.620850
vt1 0.977539 0.753906
vt1 0.974121 0.636230
vt1 0.977539 0.632568
vt1 0.974121 0.750488
vt1 1.000000 0.000000
vt1 1.000000 1.000000
vt1 0.000000 0.000000
vt1 0.000000 1.000000
vt1 1.000000 0.000000
vt1 1.000000 1.000000
vt1 0.000000 0.000000
vt1 0.000000 1.000000
vt1 1.000000 1.000000
vt1 0.000000 0.000000
vt1 1.000000 0.000000
vt1 0.000000 1.000000
vt1 1.000000 1.000000
vt1 0.000000 0.000000
vt1 1.000000 0.000000
vt1 0.000000 1.000000
vt1 0.000000 0.000000
vt1 1.000000 0.000000
vt1 1.000000 1.000000
vt1 0.000000 1.000000
vt1 0.000000 0.000000
vt1 1.000000 0.000000
vt1 1.000000 1.000000
vt1 0.000000 1.000000
vt1 1.000000 0.000000
vt1 1.000000 1.000000
vt1 0.000000 0.000000
vt1 0.000000 1.000000
vt1 1.000000 0.000000
vt1 1.000000 1.000000
vt1 0.000000 0.000000
vt1 0.000000 1.000000
vt1 1.000000 1.000000
vt1 0.000000 0.000000
vt1 1.000000 0.000000
vt1 0.000000 1.000000
vt1 0.000000 0.000000
vt1 1.000000 0.000000
vt1 1.000000 1.000000
vt1 0.000000 1.000000
vt1 1.000000 0.000000
vt1 1.000000 1.000000
vt1 0.000000 0.000000
vt1 0.000000 1.000000
vt1 1.000000 0.000000
vt1 1.000000 1.000000
vt1 0.000000 0.000000
vt1 0.000000 1.000000
vt1 1.000000 1.000000
vt1 0.000000 0.000000
vt1 1.000000 0.000000
vt1 0.000000 1.000000
vt1 0.000000 0.000000
vt1 1.000000 0.000000
vt1 1.000000 1.000000
vt1 0.000000 1.000000
vt1 1.000000 0.000000
vt1 1.000000 1.000000
vt1 0.000000 0.000000
vt1 0.000000 1.000000
vt1 1.000000 0.000000
vt1 1.000000 1.000000
vt1 0.000000 0.000000
vt1 0.000000 1.000000
vt1 1.000000 0.000000
vt1 1.000000 1.000000
vt1 0.000000 0.000000
vt1 0.000000 1.000000
vt1 1.000000 0.000000
vt1 1.000000 1.000000
vt1 0.000000 0.000000
vt1 0.000000 1.000000
vt1 0.000000 0.000000
vt1 1.000000 0.000000
vt1 1.000000 1.000000
vt1 0.000000 1.000000
vt1 0.000000 0.000000
vt1 1.000000 0.000000
vt1 1.000000 1.000000
vt1 0.000000 1.000000
vt1 1.000000 0.000000
vt1 1.000000 1.000000
vt1 0.000000 0.000000
vt1 0.000000 1.000000
vt1 1.000000 0.000000
vt1 1.000000 1.000000
vt1 0.000000 0.000000
vt1 0.000000 1.000000
vt1 0.000000 0.000000
vt1 1.000000 0.000000
vt1 1.000000 1.000000
vt1 0.000000 1.000000
vt1 0.000000 0.000000
vt1 1.000000 0.000000
vt1 1.000000 1.000000
vt1 0.000000 1.000000
vt1 0.000000 0.000000
vt1 1.000000 0.000000
vt1 1.000000 1.000000
vt1 0.000000 1.000000
vt1 1.000000 1.000000
vt1 0.000000 0.000000
vt1 1.000000 0.000000
vt1 0.000000 1.000000
vt1 0.000000 0.000000
vt1 1.000000 0.000000
vt1 1.000000 1.000000
vt1 0.000000 1.000000
vt1 0.000000 0.000000
vt1 1.000000 0.000000
vt1 1.000000 1.000000
vt1 0.000000 1.000000
vt1 0.000000 0.000000
vt1 1.000000 0.000000
vt1 1.000000 1.000000
vt1 0.000000 1.000000
vt1 0.000000 0.000000
vt1 1.000000 0.000000
vt1 1.000000 1.000000
vt1 0.000000 1.000000
vt1 0.000000 0.000000
vt1 1.000000 0.000000
vt1 1.000000 1.000000
vt1 0.000000 1.000000
vt1 0.000000 0.000000
vt1 1.000000 0.000000
vt1 1.000000 1.000000
vt1 0.000000 1.000000
vt1 0.000000 0.000000
vt1 1.000000 0.000000
vt1 1.000000 1.000000
vt1 0.000000 1.000000
vt1 0.000000 0.000000
vt1 1.000000 0.000000
vt1 1.000000 1.000000
vt1 0.000000 1.000000
vt1 0.000000 0.000000
vt1 1.000000 0.000000
vt1 1.000000 1.000000
vt1 0.000000 1.000000
vt1 1.000000 1.000000
vt1 0.000000 0.000000
vt1 1.000000 0.000000
vt1 0.000000 1.000000
vt1 0.000000 0.000000
vt1 1.000000 0.000000
vt1 1.000000 1.000000
vt1 0.000000 1.000000
vt1 0.000000 0.000000
vt1 1.000000 0.000000
vt1 1.000000 1.000000
vt1 0.000000 1.000000
vt1 1.000000 1.000000
vt1 0.000000 0.000000
vt1 1.000000 0.000000
vt1 0.000000 1.000000
vt1 0.000000 0.000000
vt1 1.000000 0.000000
vt1 1.000000 1.000000
vt1 0.000000 1.000000
vt1 0.000000 0.000000
vt1 1.000000 0.000000
vt1 1.000000 1.000000
vt1 0.000000 1.000000
vt1 0.000000 0.000000
vt1 1.000000 0.000000
vt1 1.000000 1.000000
vt1 0.000000 1.000000
vt1 0.000000 0.000000
vt1 1.000000 0.000000
vt1 1.000000 1.000000
vt1 0.000000 1.000000
vt1 1.000000 1.000000
vt1 0.000000 0.000000
vt1 1.000000 0.000000
vt1 0.000000 1.000000
vt1 0.000000 0.000000
vt1 1.000000 0.000000
vt1 1.000000 1.000000
vt1 0.000000 1.000000
vt1 0.000000 0.000000
vt1 1.000000 0.000000
vt1 1.000000 1.000000
vt1 0.000000 1.000000
vt1 0.000000 0.000000
vt1 1.000000 0.000000
vt1 1.000000 1.000000
vt1 0.000000 1.000000
vt1 1.000000 1.000000
vt1 0.000000 0.000000
vt1 1.000000 0.000000
vt1 0.000000 1.000000
vt1 0.000000 1.000000
vt1 1.000000 1.000000
vt1 0.000000 1.000000
vt1 1.000000 1.000000
vt1 0.000000 1.000000
vt1 1.000000 1.000000
vt1 0.000000 1.000000
vt1 1.000000 1.000000
vt1 0.000000 1.000000
vt1 0.000000 1.000000
vt1 1.000000 1.000000
vt1 1.000000 1.000000
vt1 0.000000 1.000000
vt1 1.000000 1.000000
vt1 0.000000 1.000000
vt1 1.000000 1.000000
vt1 0.000000 1.000000
vt1 1.000000 1.000000
vt1 0.000000 1.000000
vt1 1.000000 1.000000
vt1 0.000000 1.000000
vt1 1.000000 1.000000
vt1 0.000000 1.000000
vt1 1.000000 1.000000
vt1 0.000000 1.000000
vt1 0.000000 1.000000
vt1 1.000000 1.000000
vt1 1.000000 1.000000
vt1 0.000000 1.000000
vt1 1.000000 1.000000
vt1 0.000000 1.000000
vt1 1.000000 1.000000
vt1 0.000000 1.000000
vt1 0.000000 1.000000
vt1 1.000000 1.000000
vt1 1.000000 1.000000
vt1 0.000000 1.000000
vt1 1.000000 1.000000
vt1 0.000000 1.000000
vt1 1.000000 1.000000
vt1 0.000000 1.000000
vt1 0.000000 1.000000
vt1 1.000000 1.000000
vt1 1.000000 1.000000
vt1 0.000000 1.000000
vt1 0.000000 1.000000
vt1 0.000000 1.000000
vt1 0.000000 1.000000
vt1 0.000000 1.000000
vt1 0.000000 1.000000
vt1 0.000000 1.000000
vt1 0.000000 1.000000
vt1 0.000000 1.000000
vt1 0.000000 1.000000
vt1 0.000000 1.000000
vt1 0.000000 1.000000
vt1 0.000000 1.000000
vt1 0.000000 1.000000
vt1 0.000000 1.000000
vt1 0.000000 1.000000
vt1 0.000000 1.000000
vt1 0.000000 1.000000
vt1 0.000000 1.000000
vt1 0.000000 1.000000
vt1 0.000000 1.000000
vt1 0.000000 1.000000
vt1 0.000000 1.000000
vt1 0.000000 1.000000
vt1 0.000000 1.000000
vt1 0.000000 1.000000
vt1 0.000000 1.000000
vt1 0.000000 1.000000
vt1 0.000000 1.000000
vt1 0.000000 1.000000
vt1 0.000000 1.000000
vt1 0.000000 1.000000
vt1 0.000000 1.000000
vt1 0.000000 1.000000
vt1 0.000000 1.000000
vt1 0.000000 1.000000
vt1 0.000000 1.000000
vt1 1.000000 1.000000
vt1 0.000000 1.000000
vt1 1.000000 1.000000
vt1 0.000000 1.000000
vt1 0.000000 1.000000
vt1 0.000000 1.000000
vt1 0.000000 1.000000
vt1 1.000000 1.000000
vt1 1.000000 1.000000
vt1 0.000000 1.000000
vt1 0.000000 1.000000
vt1 1.000000 1.000000
vt1 1.000000 1.000000
vt1 0.000000 1.000000
vt1 0.000000 1.000000
vt1 0.000000 1.000000
vt1 1.000000 1.000000
vt1 0.000000 1.000000
vt1 1.000000 1.000000
vt1 0.000000 1.000000
vt1 1.000000 1.000000
vt1 1.000000 1.000000
vt1 0.000000 1.000000
vt1 0.000000 1.000000
vt1 0.000000 1.000000
vt1 1.000000 1.000000
vt1 0.000000 1.000000
vt1 1.000000 1.000000
vt1 0.721680 0.246582
vt1 0.711426 0.248535
vt1 0.711426 0.235840
vt1 0.724121 0.235840
vt1 0.711426 0.486816
vt1 0.843262 0.235840
vt1 0.721680 0.488770
vt1 0.845703 0.246582
vt1 0.721680 0.497070
vt1 0.855957 0.235840
vt1 0.711426 0.499512
vt1 0.845703 0.488770
vt1 0.721680 0.624268
vt1 0.711426 0.622314
vt1 0.845703 0.497070
vt1 0.721680 0.632568
vt1 0.711426 0.634766
vt1 0.845703 0.624268
vt1 0.721680 0.753906
vt1 0.711426 0.751831
vt1 0.711426 0.764282
vt1 0.724121 0.764282
vt1 0.843262 0.764282
vt1 0.845703 0.753906
vt1 0.845703 0.632568
vt1 0.854004 0.753906
vt1 0.855957 0.764282
vt1 0.854004 0.632568
vt1 0.977539 0.753906
vt1 0.975586 0.764282
vt1 0.987793 0.764282
vt1 0.987793 0.751831
vt1 0.987793 0.634766
vt1 0.977539 0.632568
vt1 0.854004 0.624268
vt1 0.977539 0.624268
vt1 0.987793 0.622314
vt1 0.854004 0.497070
vt1 0.987793 0.499512
vt1 0.977539 0.497070
vt1 0.854004 0.488770
vt1 0.977539 0.488770
vt1 0.987793 0.486816
vt1 0.854004 0.246582
vt1 0.977539 0.246582
vt1 0.987793 0.248535
vt1 0.987793 0.235840
vt1 0.975586 0.235840
vt1 0.155273 0.429688
vt1 0.155273 0.334961
vt1 0.245117 0.429688
vt1 0.245117 0.334961
vt1 0.245117 0.426758
vt1 0.155273 0.426758
vt1 0.245117 0.336914
vt1 0.155273 0.336914
vt1 0.155273 0.479980
vt1 0.155273 0.284668
vt1 0.245117 0.479980
vt1 0.245117 0.284668
vt1 0.244873 0.284668
vt1 0.244873 0.479492
vt1 0.155273 0.479492
vt1 0.155273 0.284668
vt1 0.244629 0.429688
vt1 0.155029 0.429688
vt1 0.244629 0.334961
vt1 0.155029 0.334961
vt1 0.244995 0.427246
vt1 0.155396 0.427246
vt1 0.244995 0.337402
vt1 0.155396 0.337402
vn 0.984252 -0.000000 -0.181102
vn 0.984252 -0.000000 -0.181102
vn 0.984252 -0.000000 -0.181102
vn 0.984252 -0.000000 -0.181102
vn 0.000000 0.984252 -0.181102
vn 0.000000 0.984252 -0.181102
vn 0.000000 0.984252 -0.181102
vn 0.000000 0.984252 -0.181102
vn 0.000000 -0.984252 -0.181102
vn 0.000000 -0.984252 -0.181102
vn 0.000000 -0.984252 -0.181102
vn 0.000000 -0.984252 -0.181102
vn 0.000000 0.984252 -0.181102
vn 0.000000 0.984252 -0.181102
vn 0.000000 0.984252 -0.181102
vn 0.000000 0.984252 -0.181102
vn -0.984252 -0.000000 -0.181102
vn -0.984252 -0.000000 -0.181102
vn -0.984252 -0.000000 -0.181102
vn -0.984252 -0.000000 -0.181102
vn 0.000000 -0.984252 -0.181102
vn 0.000000 -0.984252 -0.181102
vn 0.000000 -0.984252 -0.181102
vn 0.000000 -0.984252 -0.181102
vn 0.984252 -0.000000 -0.181102
vn 0.984252 -0.000000 -0.181102
vn 0.984252 -0.000000 -0.181102
vn 0.984252 -0.000000 -0.181102
vn -0.984252 -0.000000 -0.181102
vn -0.984252 -0.000000 -0.181102
vn -0.984252 -0.000000 -0.181102
vn -0.984252 -0.000000 -0.181102
vn 0.000000 -0.984252 -0.181102
vn 0.000000 -0.984252 -0.181102
vn 0.000000 -0.984252 -0.181102
vn 0.000000 -0.984252 -0.181102
vn 0.984252 -0.000000 -0.181102
vn 0.984252 -0.000000 -0.181102
vn 0.984252 -0.000000 -0.181102
vn 0.984252 -0.000000 -0.181102
vn 0.984252 -0.000000 -0.181102
vn 0.984252 -0.000000 -0.181102
vn 0.984252 -0.000000 -0.181102
vn 0.984252 -0.000000 -0.181102
vn 0.000000 0.984252 -0.181102
vn 0.000000 0.984252 -0.181102
vn 0.000000 0.984252 -0.181102
vn 0.000000 0.984252 -0.181102
vn 0.000000 -0.984252 -0.181102
vn 0.000000 -0.984252 -0.181102
vn 0.000000 -0.984252 -0.181102
vn 0.000000 -0.984252 -0.181102
vn 0.000000 0.984252 -0.181102
vn 0.000000 0.984252 -0.181102
vn 0.000000 0.984252 -0.181102
vn 0.000000 0.984252 -0.181102
vn -0.984252 -0.000000 -0.181102
vn -0.984252 -0.000000 -0.181102
vn -0.984252 -0.000000 -0.181102
vn -0.984252 -0.000000 -0.181102
vn 0.000000 -0.984252 -0.181102
vn 0.000000 -0.984252 -0.181102
vn 0.000000 -0.984252 -0.181102
vn 0.000000 -0.984252 -0.181102
vn 0.984252 -0.000000 -0.181102
vn 0.984252 -0.000000 -0.181102
vn 0.984252 -0.000000 -0.181102
vn 0.984252 -0.000000 -0.181102
vn 0.000000 -0.984252 -0.181102
vn 0.000000 -0.984252 -0.181102
vn 0.000000 -0.984252 -0.181102
vn 0.000000 -0.984252 -0.181102
vn 0.984252 -0.000000 -0.181102
vn 0.984252 -0.000000 -0.181102
vn 0.984252 -0.000000 -0.181102
vn 0.984252 -0.000000 -0.181102
vn 0.000000 0.984252 -0.181102
vn 0.000000 0.984252 -0.181102
vn 0.000000 0.984252 -0.181102
vn 0.000000 0.984252 -0.181102
vn 0.000000 0.984252 -0.181102
vn 0.000000 0.984252 -0.181102
vn 0.000000 0.984252 -0.181102
vn 0.000000 0.984252 -0.181102
vn -0.984252 -0.000000 -0.181102
vn -0.984252 -0.000000 -0.181102
vn -0.984252 -0.000000 -0.181102
vn -0.984252 -0.000000 -0.181102
vn -0.984252 -0.000000 -0.181102
vn -0.984252 -0.000000 -0.181102
vn -0.984252 -0.000000 -0.181102
vn -0.984252 -0.000000 -0.181102
vn -0.984252 -0.000000 -0.181102
vn -0.984252 -0.000000 -0.181102
vn -0.984252 -0.000000 -0.181102
vn -0.984252 -0.000000 -0.181102
vn 0.000000 -1.000000 0.000000
vn 0.000000 -1.000000 0.000000
vn 0.000000 -1.000000 0.000000
vn 0.000000 -1.000000 0.000000
vn 0.000000 1.000000 -0.000000
vn 0.000000 1.000000 -0.000000
vn 0.000000 1.000000 -0.000000
vn 0.000000 1.000000 -0.000000
vn -1.000000 0.000000 0.000000
vn -1.000000 0.000000 0.000000
vn -1.000000 0.000000 0.000000
vn -1.000000 0.000000 0.000000
vn 1.000000 0.000000 0.000000
vn 1.000000 0.000000 0.000000
vn 1.000000 0.000000 0.000000
vn 1.000000 0.000000 0.000000
vn 0.000000 1.000000 -0.000000
vn 0.000000 1.000000 -0.000000
vn 0.000000 1.000000 -0.000000
vn 0.000000 1.000000 -0.000000
vn 0.000000 -1.000000 0.000000
vn 0.000000 -1.000000 0.000000
vn 0.000000 -1.000000 0.000000
vn 0.000000 -1.000000 0.000000
vn 0.000000 1.000000 -0.000000
vn 0.000000 1.000000 -0.000000
vn 0.000000 1.000000 -0.000000
vn 0.000000 1.000000 -0.000000
vn 0.000000 -1.000000 0.000000
vn 0.000000 -1.000000 0.000000
vn 0.000000 -1.000000 0.000000
vn 0.000000 -1.000000 0.000000
vn -1.000000 0.000000 0.000000
vn -1.000000 0.000000 0.000000
vn -1.000000 0.000000 0.000000
vn -1.000000 0.000000 0.000000
vn 1.000000 0.000000 0.000000
vn 1.000000 0.000000 0.000000
vn 1.000000 0.000000 0.000000
vn 1.000000 0.000000 0.000000
vn -1.000000 0.000000 0.000000
vn -1.000000 0.000000 0.000000
vn -1.000000 0.000000 0.000000
vn -1.000000 0.000000 0.000000
vn 1.000000 0.000000 0.000000
vn 1.000000 0.000000 0.000000
vn 1.000000 0.000000 0.000000
vn 1.000000 0.000000 0.000000
vn -1.000000 0.000000 0.000000
vn -1.000000 0.000000 0.000000
vn -1.000000 0.000000 0.000000
vn -1.000000 0.000000 0.000000
vn 1.000000 0.000000 0.000000
vn 1.000000 0.000000 0.000000
vn 1.000000 0.000000 0.000000
vn 1.000000 0.000000 0.000000
vn -1.000000 0.000000 0.000000
vn -1.000000 0.000000 0.000000
vn -1.000000 0.000000 0.000000
vn -1.000000 0.000000 0.000000
vn 1.000000 0.000000 0.000000
vn 1.000000 0.000000 0.000000
vn 1.000000 0.000000 0.000000
vn 1.000000 0.000000 0.000000
vn 1.000000 0.000000 0.000000
vn 1.000000 0.000000 0.000000
vn 1.000000 0.000000 0.000000
vn 1.000000 0.000000 0.000000
vn -1.000000 0.000000 0.000000
vn -1.000000 0.000000 0.000000
vn -1.000000 0.000000 0.000000
vn -1.000000 0.000000 0.000000
vn 1.000000 0.000000 0.000000
vn 1.000000 0.000000 0.000000
vn 1.000000 0.000000 0.000000
vn 1.000000 0.000000 0.000000
vn -1.000000 0.000000 0.000000
vn -1.000000 0.000000 0.000000
vn -1.000000 0.000000 0.000000
vn -1.000000 0.000000 0.000000
vn 0.000000 -1.000000 0.000000
vn 0.000000 -1.000000 0.000000
vn 0.000000 -1.000000 0.000000
vn 0.000000 -1.000000 0.000000
vn 0.000000 1.000000 -0.000000
vn 0.000000 1.000000 -0.000000
vn 0.000000 1.000000 -0.000000
vn 0.000000 1.000000 -0.000000
vn 0.000000 -1.000000 0.000000
vn 0.000000 -1.000000 0.000000
vn 0.000000 -1.000000 0.000000
vn 0.000000 -1.000000 0.000000
vn 0.000000 1.000000 -0.000000
vn 0.000000 1.000000 -0.000000
vn 0.000000 1.000000 -0.000000
vn 0.000000 1.000000 -0.000000
vn 1.000000 0.000000 0.000000
vn 1.000000 0.000000 0.000000
vn 1.000000 0.000000 0.000000
vn 1.000000 0.000000 0.000000
vn 0.000000 1.000000 -0.000000
vn 0.000000 1.000000 -0.000000
vn 0.000000 1.000000 -0.000000
vn 0.000000 1.000000 -0.000000
vn 0.000000 -1.000000 0.000000
vn 0.000000 -1.000000 0.000000
vn 0.000000 -1.000000 0.000000
vn 0.000000 -1.000000 0.000000
vn 0.000000 1.000000 -0.000000
vn 0.000000 1.000000 -0.000000
vn 0.000000 1.000000 -0.000000
vn 0.000000 1.000000 -0.000000
vn -1.000000 0.000000 0.000000
vn -1.000000 0.000000 0.000000
vn -1.000000 0.000000 0.000000
vn -1.000000 0.000000 0.000000
vn 0.000000 -1.000000 0.000000
vn 0.000000 -1.000000 0.000000
vn 0.000000 -1.000000 0.000000
vn 0.000000 -1.000000 0.000000
vn 1.000000 0.000000 0.000000
vn 1.000000 0.000000 0.000000
vn 1.000000 0.000000 0.000000
vn 1.000000 0.000000 0.000000
vn -1.000000 0.000000 0.000000
vn -1.000000 0.000000 0.000000
vn -1.000000 0.000000 0.000000
vn -1.000000 0.000000 0.000000
vn 0.000000 -1.000000 0.000000
vn 0.000000 -1.000000 0.000000
vn 0.000000 -1.000000 0.000000
vn 0.000000 -1.000000 0.000000
vn 1.000000 0.000000 0.000000
vn 1.000000 0.000000 0.000000
vn 1.000000 0.000000 0.000000
vn 1.000000 0.000000 0.000000
vn 1.000000 0.000000 0.000000
vn 1.000000 0.000000 0.000000
vn 1.000000 0.000000 0.000000
vn 1.000000 0.000000 0.000000
vn 0.000000 1.000000 -0.000000
vn 0.000000 1.000000 -0.000000
vn 0.000000 1.000000 -0.000000
vn 0.000000 1.000000 -0.000000
vn 0.000000 -1.000000 0.000000
vn 0.000000 -1.000000 0.000000
vn 0.000000 -1.000000 0.000000
vn 0.000000 -1.000000 0.000000
vn 0.000000 1.000000 -0.000000
vn 0.000000 1.000000 -0.000000
vn 0.000000 1.000000 -0.000000
vn 0.000000 1.000000 -0.000000
vn -1.000000 0.000000 0.000000
vn -1.000000 0.000000 0.000000
vn -1.000000 0.000000 0.000000
vn -1.000000 0.000000 0.000000
vn 0.000000 -1.000000 0.000000
vn 0.000000 -1.000000 0.000000
vn 0.000000 -1.000000 0.000000
vn 0.000000 -1.000000 0.000000
vn 1.000000 0.000000 0.000000
vn 1.000000 0.000000 0.000000
vn 1.000000 0.000000 0.000000
vn 1.000000 0.000000 0.000000
vn 0.000000 -1.000000 0.000000
vn 0.000000 -1.000000 0.000000
vn 0.000000 -1.000000 0.000000
vn 0.000000 -1.000000 0.000000
vn 1.000000 0.000000 0.000000
vn 1.000000 0.000000 0.000000
vn 1.000000 0.000000 0.000000
vn 1.000000 0.000000 0.000000
vn 0.000000 1.000000 -0.000000
vn 0.000000 1.000000 -0.000000
vn 0.000000 1.000000 -0.000000
vn 0.000000 1.000000 -0.000000
vn 0.000000 1.000000 -0.000000
vn 0.000000 1.000000 -0.000000
vn 0.000000 1.000000 -0.000000
vn 0.000000 1.000000 -0.000000
vn -1.000000 0.000000 0.000000
vn -1.000000 0.000000 0.000000
vn -1.000000 0.000000 0.000000
vn -1.000000 0.000000 0.000000
vn -1.000000 0.000000 0.000000
vn -1.000000 0.000000 0.000000
vn -1.000000 0.000000 0.000000
vn -1.000000 0.000000 0.000000
vn -1.000000 0.000000 0.000000
vn -1.000000 0.000000 0.000000
vn -1.000000 0.000000 0.000000
vn -1.000000 0.000000 0.000000
vn 0.000000 0.000000 1.000000
vn 0.000000 0.000000 1.000000
vn 0.000000 0.000000 1.000000
vn 0.000000 0.000000 1.000000
vn 0.000000 0.000000 1.000000
vn 0.000000 0.000000 1.000000
vn 0.000000 0.000000 1.000000
vn 0.000000 0.000000 1.000000
vn 0.000000 0.000000 1.000000
vn 0.000000 0.000000 1.000000
vn 0.000000 0.000000 1.000000
vn 0.000000 0.000000 1.000000
vn 0.000000 0.000000 1.000000
vn 0.000000 0.000000 1.000000
vn 0.000000 0.000000 1.000000
vn 0.000000 0.000000 1.000000
vn 0.000000 0.000000 1.000000
vn 0.000000 0.000000 1.000000
vn 0.000000 0.000000 1.000000
vn 0.000000 0.000000 1.000000
vn 0.000000 0.000000 1.000000
vn 0.000000 0.000000 1.000000
vn 0.000000 0.000000 1.000000
vn 0.000000 0.000000 1.000000
vn 0.000000 0.000000 1.000000
vn 0.000000 0.000000 1.000000
vn 0.000000 0.000000 1.000000
vn 0.000000 0.000000 1.000000
vn 0.000000 0.000000 1.000000
vn 0.000000 0.000000 1.000000
vn 0.000000 0.000000 1.000000
vn 0.000000 0.000000 1.000000
vn 0.000000 0.000000 1.000000
vn 0.000000 0.000000 1.000000
vn 0.000000 0.000000 1.000000
vn 0.000000 0.000000 1.000000
vn 0.000000 0.000000 1.000000
vn 0.000000 0.000000 1.000000
vn 0.000000 0.000000 1.000000
vn 0.000000 0.000000 1.000000
vn 0.000000 0.000000 1.000000
vn 0.000000 0.000000 1.000000
vn 0.000000 0.000000 1.000000
vn 0.000000 0.000000 1.000000
vn 0.000000 0.000000 1.000000
vn 0.000000 0.000000 1.000000
vn 0.000000 0.000000 1.000000
vn 0.000000 0.000000 1.000000
vn 0.000000 0.000000 1.000000
vn 0.000000 0.000000 1.000000
vn 0.000000 0.000000 1.000000
vn 0.000000 0.000000 1.000000
vn 0.000000 0.000000 1.000000
vn 0.000000 0.000000 1.000000
vn 0.000000 0.000000 1.000000
vn 0.000000 0.000000 1.000000
vn 0.000000 0.000000 1.000000
vn 0.000000 0.000000 1.000000
vn 0.000000 0.000000 1.000000
vn 0.000000 0.000000 1.000000
vn 0.000000 0.000000 1.000000
vn 0.000000 0.000000 1.000000
vn 0.000000 0.000000 1.000000
vn 0.000000 0.000000 1.000000
vn 0.000000 0.000000 1.000000
vn 0.000000 0.000000 1.000000
vn 0.000000 0.000000 1.000000
vn 0.000000 0.000000 1.000000
vn 0.000000 0.000000 1.000000
vn 0.000000 0.000000 1.000000
vn 0.000000 0.000000 1.000000
vn 0.000000 0.000000 1.000000
vn 0.000000 0.000000 1.000000
vn 0.000000 0.000000 1.000000
vn 0.000000 0.000000 1.000000
vn 0.000000 0.000000 1.000000
vn 0.000000 0.000000 1.000000
vn 0.000000 0.000000 1.000000
vn 0.000000 0.000000 1.000000
vn 0.000000 0.000000 1.000000
vn 0.000000 0.000000 1.000000
vn 0.000000 0.000000 1.000000
vn 0.000000 0.000000 1.000000
vn 0.000000 0.000000 1.000000
vn 0.000000 0.000000 1.000000
vn 0.000000 0.000000 1.000000
vn 0.000000 0.000000 1.000000
vn 0.000000 0.000000 1.000000
vn 0.000000 0.000000 1.000000
vn 0.000000 0.000000 1.000000
vn 0.000000 0.000000 1.000000
vn 0.000000 0.000000 1.000000
vn 0.000000 0.000000 1.000000
vn 0.000000 0.000000 1.000000
vn 0.000000 0.000000 1.000000
vn 0.000000 0.000000 1.000000
vn 0.000000 0.000000 1.000000
vn 0.000000 0.000000 1.000000
vn 0.000000 0.000000 1.000000
vn 0.000000 0.000000 1.000000
vn 0.000000 0.000000 1.000000
vn 0.000000 0.000000 1.000000
vn 0.000000 0.000000 1.000000
vn 0.000000 0.000000 1.000000
vn 0.000000 0.000000 1.000000
vn 0.000000 0.000000 1.000000
vn 0.000000 0.000000 1.000000
vn 0.000000 0.000000 1.000000
vn 0.000000 0.000000 1.000000
vn 0.000000 -0.000000 -1.000000
vn 0.000000 -0.000000 -1.000000
vn 0.000000 -0.000000 -1.000000
vn 0.000000 -0.000000 -1.000000
vn 0.000000 -0.000000 -1.000000
vn 0.000000 -0.000000 -1.000000
vn 0.000000 -0.000000 -1.000000
vn 0.000000 -0.000000 -1.000000
vn 0.000000 -0.000000 -1.000000
vn 0.000000 -0.000000 -1.000000
vn 0.000000 -0.000000 -1.000000
vn 0.000000 -0.000000 -1.000000
vn 0.000000 -0.000000 -1.000000
vn 0.000000 -0.000000 -1.000000
vn 0.000000 -0.000000 -1.000000
vn 0.000000 -0.000000 -1.000000
vn 0.000000 -0.000000 -1.000000
vn 0.000000 -0.000000 -1.000000
vn 0.000000 -0.000000 -1.000000
vn 0.000000 -0.000000 -1.000000
vn 0.000000 -0.000000 -1.000000
vn 0.000000 -0.000000 -1.000000
vn 0.000000 -0.000000 -1.000000
vn 0.000000 -0.000000 -1.000000
vn 0.000000 -0.000000 -1.000000
vn 0.000000 -0.000000 -1.000000
vn 0.000000 -0.000000 -1.000000
vn 0.000000 -0.000000 -1.000000
vn 0.000000 -0.000000 -1.000000
vn 0.000000 -0.000000 -1.000000
vn 0.000000 -0.000000 -1.000000
vn 0.000000 -0.000000 -1.000000
vn 0.000000 -0.000000 -1.000000
vn 0.000000 -0.000000 -1.000000
vn 0.000000 -0.000000 -1.000000
vn 0.000000 -0.000000 -1.000000
vn 0.000000 -0.000000 -1.000000
vn 0.000000 -0.000000 -1.000000
vn 0.000000 -0.000000 -1.000000
vn 0.000000 -0.000000 -1.000000
vn 0.000000 -0.000000 -1.000000
vn 0.000000 -0.000000 -1.000000
vn 0.000000 -0.000000 -1.000000
vn 0.000000 -0.000000 -1.000000
vn 0.000000 -0.000000 -1.000000
vn 0.000000 -0.000000 -1.000000
vn 0.000000 -0.000000 -1.000000
vn 0.000000 -0.000000 -1.000000
vn 0.000000 -0.000000 -1.000000
vn 0.000000 -0.000000 -1.000000
vn 0.000000 -0.000000 -1.000000
vn 0.000000 -0.000000 -1.000000
vn 0.000000 -0.000000 -1.000000
vn 0.000000 -0.000000 -1.000000
vn 0.000000 -0.000000 -1.000000
vn 0.000000 -0.000000 -1.000000
vn 0.000000 -0.000000 -1.000000
vn 0.000000 -0.000000 -1.000000
vn 0.000000 -0.000000 -1.000000
vn 0.000000 -0.000000 -1.000000
vn 0.000000 -0.000000 -1.000000
vn 0.000000 -0.000000 -1.000000
vn 0.000000 -0.000000 -1.000000
vn 0.000000 -0.000000 -1.000000
vn 0.000000 -0.000000 -1.000000
vn 0.000000 -0.000000 -1.000000
vn 0.000000 -0.000000 -1.000000
vn 0.000000 -0.000000 -1.000000
vn 0.000000 -0.000000 -1.000000
vn 0.000000 -0.000000 -1.000000
vn 0.000000 -0.000000 -1.000000
vn 0.000000 -0.000000 -1.000000
tan -0.061318 -0.944448 -0.333251 1.000000
tan 0.059892 -0.945874 0.325501 1.000000
tan -0.068448 -0.928948 -0.372001 1.000000
tan 0.068448 -0.928948 0.372001 1.000000
tan 0.007750 -0.181102 -0.984252 1.000000
tan 0.000000 -0.181102 -0.984252 1.000000
tan 0.000000 -0.181102 -0.984252 1.000000
tan 0.015500 -0.181102 -0.984252 1.000000
tan 0.000000 -0.181102 0.984252 1.000000
tan 0.007750 -0.181102 0.984252 1.000000
tan 0.000000 -0.181102 0.984252 1.000000
tan 0.007750 -0.181102 0.984252 1.000000
tan 0.000000 -0.181102 -0.984252 1.000000
tan 0.007750 -0.181102 -0.984252 1.000000
tan 0.000000 -0.181102 -0.984252 1.000000
tan 0.015500 -0.181102 -0.984252 1.000000
tan -0.065596 -0.928948 0.356501 1.000000
tan 0.054188 -0.953624 -0.294500 1.000000
tan 0.061318 -0.944448 -0.333251 1.000000
tan -0.075578 -0.913448 0.410751 1.000000
tan 0.007750 -0.181102 0.984252 1.000000
tan 0.000000 -0.181102 0.984252 1.000000
tan 0.000000 -0.181102 0.984252 1.000000
tan 0.015500 -0.181102 0.984252 1.000000
tan -0.061318 -0.944448 -0.333251 1.000000
tan 0.059892 -0.945874 0.325501 1.000000
tan -0.068448 -0.928948 -0.372001 1.000000
tan 0.068448 -0.928948 0.372001 1.000000
tan -0.047058 -0.969124 0.255751 1.000000
tan 0.042780 -0.969124 -0.232500 1.000000
tan -0.049910 -0.961374 0.271251 1.000000
tan 0.045632 -0.969124 -0.248000 1.000000
tan 0.007750 -0.181102 0.984252 1.000000
tan 0.000000 -0.181102 0.984252 1.000000
tan 0.000000 -0.181102 0.984252 1.000000
tan 0.015500 -0.181102 0.984252 1.000000
tan -0.048484 -0.961374 -0.263500 1.000000
tan 0.041354 -0.976874 0.224751 1.000000
tan 0.044206 -0.969124 0.240251 1.000000
tan -0.052762 -0.961374 -0.286750 1.000000
tan -0.077004 -0.905698 -0.418501 1.000000
tan 0.054188 -0.953624 0.294501 1.000000
tan -0.067022 -0.928948 -0.364251 1.000000
tan 0.062744 -0.936698 0.341001 1.000000
tan 0.007750 -0.181102 -0.984252 1.000000
tan 0.000000 -0.181102 -0.984252 1.000000
tan 0.000000 -0.181102 -0.984252 1.000000
tan 0.015500 -0.181102 -0.984252 1.000000
tan 0.000000 -0.181102 0.984252 1.000000
tan 0.007750 -0.181102 0.984252 1.000000
tan 0.000000 -0.181102 0.984252 1.000000
tan 0.007750 -0.181102 0.984252 1.000000
tan 0.000000 -0.181102 -0.984252 1.000000
tan 0.007750 -0.181102 -0.984252 1.000000
tan 0.000000 -0.181102 -0.984252 1.000000
tan 0.007750 -0.181102 -0.984252 1.000000
tan -0.067022 -0.928948 0.364251 1.000000
tan 0.054188 -0.953624 -0.294500 1.000000
tan 0.062744 -0.936698 -0.341001 1.000000
tan -0.077004 -0.905698 0.418501 1.000000
tan 0.007750 -0.181102 0.984252 1.000000
tan 0.000000 -0.181102 0.984252 1.000000
tan 0.000000 -0.181102 0.984252 1.000000
tan 0.015500 -0.181102 0.984252 1.000000
tan -0.077004 -0.905698 -0.418501 1.000000
tan 0.054188 -0.953624 0.294501 1.000000
tan -0.067022 -0.928948 -0.364251 1.000000
tan 0.062744 -0.936698 0.341001 1.000000
tan 0.000000 -0.181102 0.984252 1.000000
tan 0.007750 -0.181102 0.984252 1.000000
tan 0.000000 -0.181102 0.984252 1.000000
tan 0.015500 -0.181102 0.984252 1.000000
tan -0.048484 -0.961374 -0.263500 1.000000
tan 0.041354 -0.976874 0.224751 1.000000
tan 0.044206 -0.969124 0.240251 1.000000
tan -0.052762 -0.961374 -0.286750 1.000000
tan 0.007750 -0.181102 -0.984252 1.000000
tan 0.000000 -0.181102 -0.984252 1.000000
tan 0.000000 -0.181102 -0.984252 1.000000
tan 0.015500 -0.181102 -0.984252 1.000000
tan 0.000000 -0.181102 -0.984252 1.000000
tan 0.007750 -0.181102 -0.984252 1.000000
tan 0.000000 -0.181102 -0.984252 1.000000
tan 0.015500 -0.181102 -0.984252 1.000000
tan 0.042780 -0.969124 -0.232500 1.000000
tan -0.047058 -0.969124 0.255751 1.000000
tan 0.047058 -0.969124 -0.255750 1.000000
tan -0.049910 -0.961374 0.271251 1.000000
tan -0.067022 -0.928948 0.364251 1.000000
tan 0.054188 -0.953624 -0.294500 1.000000
tan 0.061318 -0.944448 -0.333251 1.000000
tan -0.075578 -0.913448 0.410751 1.000000
tan -0.067022 -0.928948 0.364251 1.000000
tan 0.054188 -0.953624 -0.294500 1.000000
tan 0.062744 -0.936698 -0.341001 1.000000
tan -0.077004 -0.905698 0.418501 1.000000
tan -0.692913 0.000000 0.724409 1.000000
tan -0.448819 0.000000 0.889764 1.000000
tan -0.244094 0.000000 0.968504 1.000000
tan -0.102362 0.000000 0.992126 1.000000
tan 0.291339 -0.000000 -0.952756 1.000000
tan 0.204724 -0.000000 -0.976378 1.000000
tan 0.401575 -0.000000 -0.913386 1.000000
tan 0.236220 -0.000000 -0.968504 1.000000
tan 0.000000 0.937008 0.354331 1.000000
tan 0.000000 0.944882 0.330709 1.000000
tan 0.000000 1.000000 0.047244 1.000000
tan 0.000000 0.795276 0.606299 1.000000
tan 0.000000 0.976378 0.204724 1.000000
tan 0.000000 0.976378 0.212598 1.000000
tan 0.000000 0.937008 0.346457 1.000000
tan 0.000000 1.000000 0.070866 1.000000
tan -0.015748 -0.000000 -1.000000 1.000000
tan -0.228346 -0.000000 -0.976378 1.000000
tan -0.094488 -0.000000 -0.992126 1.000000
tan -0.007874 -0.000000 -1.000000 1.000000
tan 0.307087 0.000000 0.952756 1.000000
tan 0.007874 0.000000 1.000000 1.000000
tan 0.015748 0.000000 1.000000 1.000000
tan 0.220472 0.000000 0.976378 1.000000
tan -0.015748 -0.000000 -1.000000 1.000000
tan -0.007874 -0.000000 -1.000000 1.000000
tan 0.000000 -0.000000 -1.000000 1.000000
tan 0.000000 -0.000000 -1.000000 1.000000
tan -0.007874 0.000000 1.000000 1.000000
tan 0.000000 0.000000 1.000000 1.000000
tan 0.007874 0.000000 1.000000 1.000000
tan 0.015748 0.000000 1.000000 1.000000
tan 0.000000 1.000000 -0.000000 1.000000
tan 0.000000 1.000000 -0.000000 1.000000
tan 0.000000 1.000000 -0.000000 1.000000
tan 0.000000 1.000000 -0.000000 1.000000
tan 0.000000 1.000000 -0.007874 1.000000
tan 0.000000 1.000000 -0.007874 1.000000
tan 0.000000 1.000000 -0.007874 1.000000
tan 0.000000 1.000000 -0.007874 1.000000
tan 0.000000 1.000000 -0.000000 1.000000
tan 0.000000 1.000000 -0.000000 1.000000
tan 0.000000 1.000000 -0.000000 1.000000
tan 0.000000 1.000000 0.007874 1.000000
tan 0.000000 1.000000 -0.000000 1.000000
tan 0.000000 1.000000 -0.000000 1.000000
tan 0.000000 1.000000 -0.000000 1.000000
tan 0.000000 1.000000 -0.007874 1.000000
tan 0.000000 0.992126 -0.102362 1.000000
tan 0.000000 1.000000 -0.023622 1.000000
tan 0.000000 0.992126 -0.110236 1.000000
tan 0.000000 1.000000 -0.015748 1.000000
tan 0.000000 0.992126 -0.118110 1.000000
tan 0.000000 1.000000 -0.015748 1.000000
tan 0.000000 1.000000 -0.023622 1.000000
tan 0.000000 0.992126 -0.125984 1.000000
tan 0.000000 1.000000 -0.015748 1.000000
tan 0.000000 1.000000 -0.007874 1.000000
tan 0.000000 1.000000 -0.007874 1.000000
tan 0.000000 1.000000 -0.000000 1.000000
tan 0.000000 1.000000 -0.007874 1.000000
tan 0.000000 1.000000 -0.007874 1.000000
tan 0.000000 1.000000 -0.007874 1.000000
tan 0.000000 1.000000 -0.015748 1.000000
tan 0.000000 0.992126 -0.094488 1.000000
tan 0.000000 0.929134 -0.377953 1.000000
tan 0.000000 0.937008 -0.354331 1.000000
tan 0.000000 0.795275 -0.606299 1.000000
tan 0.000000 0.929134 -0.370079 1.000000
tan 0.000000 0.968504 -0.251969 1.000000
tan 0.000000 0.968504 -0.259843 1.000000
tan 0.000000 0.992126 -0.133858 1.000000
tan 0.000000 1.000000 -0.000000 1.000000
tan 0.000000 1.000000 0.055118 1.000000
tan 0.000000 1.000000 0.055118 1.000000
tan 0.000000 1.000000 -0.000000 1.000000
tan 0.000000 1.000000 0.062992 1.000000
tan 0.000000 1.000000 0.007874 1.000000
tan 0.000000 1.000000 0.007874 1.000000
tan 0.000000 1.000000 0.062992 1.000000
tan 0.307087 0.000000 0.952756 1.000000
tan 0.220472 0.000000 0.976378 1.000000
tan 0.425197 0.000000 0.905512 1.000000
tan 0.267717 0.000000 0.960630 1.000000
tan -0.653543 -0.000000 -0.755905 1.000000
tan -0.417323 -0.000000 -0.913386 1.000000
tan -0.228346 -0.000000 -0.976378 1.000000
tan -0.094488 -0.000000 -0.992126 1.000000
tan -0.007874 0.000000 1.000000 1.000000
tan -0.244094 0.000000 0.968504 1.000000
tan -0.102362 0.000000 0.992126 1.000000
tan -0.007874 0.000000 1.000000 1.000000
tan 0.291339 -0.000000 -0.952756 1.000000
tan 0.023622 -0.000000 -1.000000 1.000000
tan 0.023622 -0.000000 -1.000000 1.000000
tan 0.204724 -0.000000 -0.976378 1.000000
tan 0.000000 0.889764 0.456693 1.000000
tan 0.000000 0.881890 -0.480315 1.000000
tan 0.000000 0.881890 -0.472441 1.000000
tan 0.000000 0.881890 0.464567 1.000000
tan 0.007874 -0.000000 -1.000000 1.000000
tan 0.007874 -0.000000 -1.000000 1.000000
tan 0.007874 -0.000000 -1.000000 1.000000
tan 0.007874 -0.000000 -1.000000 1.000000
tan 0.007874 0.000000 1.000000 1.000000
tan 0.007874 0.000000 1.000000 1.000000
tan 0.007874 0.000000 1.000000 1.000000
tan 0.007874 0.000000 1.000000 1.000000
tan 0.000000 -0.000000 -1.000000 1.000000
tan 0.000000 -0.000000 -1.000000 1.000000
tan 0.000000 -0.000000 -1.000000 1.000000
tan 0.000000 -0.000000 -1.000000 1.000000
tan 0.000000 0.889764 -0.456693 1.000000
tan 0.000000 0.881890 0.480315 1.000000
tan 0.000000 0.881890 0.472441 1.000000
tan 0.000000 0.881890 -0.464567 1.000000
tan 0.000000 0.000000 1.000000 1.000000
tan 0.000000 0.000000 1.000000 1.000000
tan 0.000000 0.000000 1.000000 1.000000
tan 0.000000 0.000000 1.000000 1.000000
tan 0.000000 0.889764 0.456693 1.000000
tan 0.000000 0.881890 -0.480315 1.000000
tan 0.000000 0.881890 -0.472441 1.000000
tan 0.000000 0.881890 0.464567 1.000000
tan 0.000000 0.944882 -0.322835 1.000000
tan 0.000000 0.944882 0.330709 1.000000
tan 0.000000 0.944882 0.322834 1.000000
tan 0.000000 0.944882 -0.322835 1.000000
tan 0.000000 0.000000 1.000000 1.000000
tan 0.000000 0.000000 1.000000 1.000000
tan 0.000000 0.000000 1.000000 1.000000
tan 0.000000 0.000000 1.000000 1.000000
tan 0.000000 0.952756 0.314960 1.000000
tan 0.000000 0.944882 -0.322835 1.000000
tan 0.000000 0.944882 -0.322835 1.000000
tan 0.000000 0.944882 0.314960 1.000000
tan 0.000000 0.881890 0.472441 1.000000
tan 0.000000 0.874016 -0.488189 1.000000
tan 0.000000 0.874016 -0.480315 1.000000
tan 0.000000 0.874016 0.480315 1.000000
tan 0.007874 -0.000000 -1.000000 1.000000
tan 0.007874 -0.000000 -1.000000 1.000000
tan 0.007874 -0.000000 -1.000000 1.000000
tan 0.007874 -0.000000 -1.000000 1.000000
tan -0.015748 0.000000 1.000000 1.000000
tan -0.015748 0.000000 1.000000 1.000000
tan -0.015748 0.000000 1.000000 1.000000
tan -0.015748 0.000000 1.000000 1.000000
tan 0.000000 -0.000000 -1.000000 1.000000
tan 0.000000 -0.000000 -1.000000 1.000000
tan 0.000000 -0.000000 -1.000000 1.000000
tan 0.000000 -0.000000 -1.000000 1.000000
tan 0.000000 0.874016 0.488189 1.000000
tan 0.000000 0.881890 -0.464567 1.000000
tan 0.000000 0.866142 0.496063 1.000000
tan 0.000000 0.881890 -0.472441 1.000000
tan 0.023622 0.000000 1.000000 1.000000
tan 0.023622 0.000000 1.000000 1.000000
tan 0.023622 0.000000 1.000000 1.000000
tan 0.023622 0.000000 1.000000 1.000000
tan 0.000000 0.881890 0.464567 1.000000
tan 0.000000 0.874016 -0.488189 1.000000
tan 0.000000 0.881890 -0.480315 1.000000
tan 0.000000 0.881890 0.472441 1.000000
tan 0.007874 0.000000 1.000000 1.000000
tan 0.007874 0.000000 1.000000 1.000000
tan 0.007874 0.000000 1.000000 1.000000
tan 0.007874 0.000000 1.000000 1.000000
tan 0.000000 0.952756 0.314960 1.000000
tan 0.000000 0.944882 -0.338583 1.000000
tan 0.000000 0.944882 -0.330709 1.000000
tan 0.000000 0.944882 0.314960 1.000000
tan 0.031496 -0.000000 -1.000000 1.000000
tan 0.031496 -0.000000 -1.000000 1.000000
tan 0.031496 -0.000000 -1.000000 1.000000
tan 0.031496 -0.000000 -1.000000 1.000000
tan -0.015748 -0.000000 -1.000000 1.000000
tan -0.015748 -0.000000 -1.000000 1.000000
tan -0.015748 -0.000000 -1.000000 1.000000
tan -0.015748 -0.000000 -1.000000 1.000000
tan 0.000000 0.952756 -0.314961 1.000000
tan 0.000000 0.944882 0.330709 1.000000
tan 0.000000 0.944882 0.330709 1.000000
tan 0.000000 0.952756 -0.314961 1.000000
tan 0.000000 0.889764 -0.456693 1.000000
tan 0.000000 0.874016 0.480315 1.000000
tan 0.000000 0.881890 0.472441 1.000000
tan 0.000000 0.881890 -0.464567 1.000000
tan 0.000000 0.874016 0.480315 1.000000
tan 0.000000 0.881890 -0.464567 1.000000
tan 0.000000 0.874016 0.488189 1.000000
tan 0.000000 0.881890 -0.472441 1.000000
tan 0.015748 1.000000 -0.000000 1.000000
tan 0.015748 1.000000 -0.000000 1.000000
tan 0.015748 1.000000 -0.000000 1.000000
tan 0.015748 1.000000 -0.000000 1.000000
tan -0.015748 1.000000 -0.000000 1.000000
tan -0.007874 1.000000 -0.000000 1.000000
tan -0.007874 1.000000 -0.000000 1.000000
tan -0.015748 1.000000 -0.000000 1.000000
tan 0.000000 1.000000 -0.000000 1.000000
tan 0.000000 1.000000 -0.000000 1.000000
tan 0.000000 1.000000 -0.000000 1.000000
tan 0.000000 1.000000 -0.000000 1.000000
tan 0.000000 1.000000 -0.000000 1.000000
tan 0.000000 1.000000 -0.000000 1.000000
tan 0.000000 1.000000 -0.000000 1.000000
tan 0.000000 1.000000 -0.000000 1.000000
tan 0.000000 1.000000 -0.000000 1.000000
tan 0.000000 1.000000 -0.000000 1.000000
tan 0.000000 1.000000 -0.000000 1.000000
tan 0.000000 1.000000 -0.000000 1.000000
tan -0.023622 1.000000 -0.000000 1.000000
tan -0.007874 1.000000 -0.000000 1.000000
tan -0.007874 1.000000 -0.000000 1.000000
tan -0.031496 1.000000 -0.000000 1.000000
tan 0.015748 1.000000 -0.000000 1.000000
tan 0.023622 1.000000 -0.000000 1.000000
tan 0.015748 1.000000 -0.000000 1.000000
tan 0.023622 1.000000 -0.000000 1.000000
tan 0.000000 1.000000 -0.000000 1.000000
tan 0.000000 1.000000 -0.000000 1.000000
tan 0.000000 1.000000 -0.000000 1.000000
tan 0.000000 1.000000 -0.000000 1.000000
tan 0.007874 1.000000 -0.000000 1.000000
tan 0.007874 1.000000 -0.000000 1.000000
tan 0.007874 1.000000 -0.000000 1.000000
tan 0.007874 1.000000 -0.000000 1.000000
tan 0.000000 1.000000 -0.000000 1.000000
tan 0.015748 1.000000 -0.000000 1.000000
tan 0.015748 1.000000 -0.000000 1.000000
tan 0.000000 1.000000 -0.000000 1.000000
tan -0.015748 1.000000 -0.000000 1.000000
tan 0.000000 1.000000 -0.000000 1.000000
tan -0.015748 1.000000 -0.000000 1.000000
tan 0.000000 1.000000 -0.000000 1.000000
tan 0.070866 1.000000 -0.000000 1.000000
tan 0.070866 1.000000 -0.000000 1.000000
tan 0.157480 0.984252 -0.000000 1.000000
tan -0.015748 1.000000 -0.000000 1.000000
tan -0.110236 0.992126 -0.000000 1.000000
tan -0.110236 0.992126 -0.000000 1.000000
tan -0.236220 0.968504 -0.000000 1.000000
tan 0.015748 1.000000 -0.000000 1.000000
tan 0.007874 1.000000 -0.000000 1.000000
tan 0.007874 1.000000 -0.000000 1.000000
tan 0.000000 1.000000 -0.000000 1.000000
tan 0.007874 1.000000 -0.000000 1.000000
tan 0.000000 1.000000 -0.000000 1.000000
tan 0.000000 1.000000 -0.000000 1.000000
tan 0.000000 1.000000 -0.000000 1.000000
tan 0.000000 1.000000 -0.000000 1.000000
tan -0.007874 1.000000 -0.000000 1.000000
tan 0.000000 1.000000 -0.000000 1.000000
tan -0.007874 1.000000 -0.000000 1.000000
tan -0.007874 1.000000 -0.000000 1.000000
tan 0.007874 1.000000 -0.000000 1.000000
tan 0.007874 1.000000 -0.000000 1.000000
tan 0.007874 1.000000 -0.000000 1.000000
tan 0.015748 1.000000 -0.000000 1.000000
tan -0.062992 1.000000 -0.000000 1.000000
tan -0.062992 1.000000 -0.000000 1.000000
tan 0.031496 1.000000 -0.000000 1.000000
tan -0.157480 0.984252 -0.000000 1.000000
tan 0.000000 1.000000 -0.000000 1.000000
tan 0.000000 1.000000 -0.000000 1.000000
tan 0.000000 1.000000 -0.000000 1.000000
tan 0.000000 1.000000 -0.000000 1.000000
tan 0.055118 1.000000 -0.000000 1.000000
tan 0.055118 1.000000 -0.000000 1.000000
tan -0.031496 1.000000 -0.000000 1.000000
tan 0.141732 0.992126 -0.000000 1.000000
tan 0.000000 1.000000 -0.000000 1.000000
tan -0.007874 1.000000 -0.000000 1.000000
tan -0.007874 1.000000 -0.000000 1.000000
tan 0.000000 1.000000 -0.000000 1.000000
tan 0.000000 1.000000 -0.000000 1.000000
tan 0.007874 1.000000 -0.000000 1.000000
tan 0.007874 1.000000 -0.000000 1.000000
tan 0.015748 1.000000 -0.000000 1.000000
tan 0.007874 1.000000 -0.000000 1.000000
tan 0.007874 1.000000 -0.000000 1.000000
tan 0.000000 1.000000 -0.000000 1.000000
tan 0.000000 1.000000 -0.000000 1.000000
tan 0.000000 1.000000 -0.000000 1.000000
tan 0.000000 1.000000 -0.000000 1.000000
tan 0.000000 1.000000 -0.000000 1.000000
tan 0.000000 1.000000 -0.000000 1.000000
tan 0.000000 1.000000 -0.000000 1.000000
tan 0.000000 1.000000 -0.000000 1.000000
tan 0.000000 1.000000 -0.000000 1.000000
tan 0.000000 1.000000 -0.000000 1.000000
tan 0.000000 1.000000 -0.000000 1.000000
tan 0.000000 1.000000 -0.000000 1.000000
tan 0.000000 1.000000 -0.000000 1.000000
tan 0.000000 1.000000 -0.000000 1.000000
tan 0.000000 1.000000 -0.000000 1.000000
tan 0.000000 1.000000 -0.000000 1.000000
tan 0.000000 1.000000 -0.000000 1.000000
tan 0.000000 1.000000 -0.000000 1.000000
tan 0.000000 1.000000 -0.000000 1.000000
tan -0.023622 -1.000000 0.000000 1.000000
tan -0.023622 -1.000000 0.000000 1.000000
tan -0.047244 -1.000000 0.000000 1.000000
tan -0.023622 -1.000000 0.000000 1.000000
tan 0.000000 -1.000000 0.000000 1.000000
tan 0.000000 -1.000000 0.000000 1.000000
tan 0.000000 -1.000000 0.000000 1.000000
tan 0.000000 -1.000000 0.000000 1.000000
tan 0.007874 -1.000000 0.000000 1.000000
tan 0.000000 -1.000000 0.000000 1.000000
tan 0.015748 -1.000000 0.000000 1.000000
tan 0.000000 -1.000000 0.000000 1.000000
tan -0.007874 -1.000000 0.000000 1.000000
tan 0.000000 -1.000000 0.000000 1.000000
tan 0.000000 -1.000000 0.000000 1.000000
tan 0.000000 -1.000000 0.000000 1.000000
tan 0.015748 -1.000000 0.000000 1.000000
tan 0.000000 -1.000000 0.000000 1.000000
tan 0.023622 -1.000000 0.000000 1.000000
tan 0.015748 -1.000000 0.000000 1.000000
tan 0.039370 -1.000000 0.000000 1.000000
tan 0.023622 -1.000000 0.000000 1.000000
tan 0.000000 -1.000000 0.000000 1.000000
tan 0.000000 -1.000000 0.000000 1.000000
tan 0.000000 -1.000000 0.000000 1.000000
tan 0.000000 -1.000000 0.000000 1.000000
tan -0.007874 -1.000000 0.000000 1.000000
tan 0.000000 -1.000000 0.000000 1.000000
tan -0.023622 -1.000000 0.000000 1.000000
tan -0.023622 -1.000000 0.000000 1.000000
tan -0.039370 -1.000000 0.000000 1.000000
tan -0.015748 -1.000000 0.000000 1.000000
tan -0.007874 -1.000000 0.000000 1.000000
tan -0.015748 -1.000000 0.000000 1.000000
tan 0.000000 -1.000000 0.000000 1.000000
tan 0.000000 -1.000000 0.000000 1.000000
tan 0.007874 -1.000000 0.000000 1.000000
tan 0.000000 -1.000000 0.000000 1.000000
tan -0.007874 -1.000000 0.000000 1.000000
tan -0.007874 -1.000000 0.000000 1.000000
tan 0.000000 -1.000000 0.000000 1.000000
tan -0.007874 -1.000000 0.000000 1.000000
tan 0.000000 -1.000000 0.000000 1.000000
tan 0.000000 -1.000000 0.000000 1.000000
tan 0.023622 -1.000000 0.000000 1.000000
tan 0.023622 -1.000000 0.000000 1.000000
tan 0.047244 -1.000000 0.000000 1.000000
tan 0.031496 -1.000000 0.000000 1.000000
tan 0.000000 -1.000000 0.000000 1.000000
tan 0.000000 -1.000000 0.000000 1.000000
tan 0.000000 -1.000000 0.000000 1.000000
tan 0.000000 -1.000000 0.000000 1.000000
tan 0.000000 -1.000000 0.000000 1.000000
tan 0.000000 -1.000000 0.000000 1.000000
tan 0.000000 -1.000000 0.000000 1.000000
tan 0.000000 -1.000000 0.000000 1.000000
tan 0.000000 -1.000000 0.000000 1.000000
tan 0.000000 -1.000000 0.000000 1.000000
tan 0.000000 -1.000000 0.000000 1.000000
tan 0.000000 -1.000000 0.000000 1.000000
tan 0.000000 -1.000000 0.000000 1.000000
tan 0.000000 -1.000000 0.000000 1.000000
tan 0.000000 -1.000000 0.000000 1.000000
tan 0.000000 -1.000000 0.000000 1.000000
tan 0.000000 -1.000000 0.000000 1.000000
tan 0.000000 -1.000000 0.000000 1.000000
tan 0.000000 -1.000000 0.000000 1.000000
tan 0.000000 -1.000000 0.000000 1.000000
tan 0.000000 -1.000000 0.000000 1.000000
tan 0.000000 -1.000000 0.000000 1.000000
tan 0.000000 -1.000000 0.000000 1.000000
tan 0.000000 -1.000000 0.000000 1.000000
f 3/3/3 2/2/2 1/1/1
f 4/4/4 1/1/1 2/2/2
f 7/7/7 6/6/6 5/5/5
f 8/8/8 5/5/5 6/6/6
f 11/11/11 10/10/10 9/9/9
f 12/12/12 9/9/9 10/10/10
f 15/15/15 14/14/14 13/13/13
f 16/16/16 13/13/13 14/14/14
f 19/19/19 18/18/18 17/17/17
f 20/20/20 17/17/17 18/18/18
f 23/23/23 22/22/22 21/21/21
f 24/24/24 21/21/21 22/22/22
f 27/27/27 26/26/26 25/25/25
f 28/28/28 25/25/25 26/26/26
f 31/31/31 30/30/30 29/29/29
f 32/32/32 29/29/29 30/30/30
f 35/35/35 34/34/34 33/33/33
f 36/36/36 33/33/33 34/34/34
f 39/39/39 38/38/38 37/37/37
f 40/40/40 37/37/37 38/38/38
f 43/43/43 42/42/42 41/41/41
f 42/42/42 43/43/43 44/44/44
f 47/47/47 46/46/46 45/45/45
f 48/48/48 45/45/45 46/46/46
f 51/51/51 50/50/50 49/49/49
f 52/52/52 49/49/49 50/50/50
f 55/55/55 54/54/54 53/53/53
f 56/56/56 53/53/53 54/54/54
f 59/59/59 58/58/58 57/57/57
f 60/60/60 57/57/57 58/58/58
f 63/63/63 62/62/62 61/61/61
f 64/64/64 61/61/61 62/62/62
f 67/67/67 66/66/66 65/65/65
f 66/66/66 67/67/67 68/68/68
f 71/71/71 70/70/70 69/69/69
f 72/72/72 69/69/69 70/70/70
f 75/75/75 74/74/74 73/73/73
f 76/76/76 73/73/73 74/74/74
f 79/79/79 78/78/78 77/77/77
f 80/80/80 77/77/77 78/78/78
f 83/83/83 82/82/82 81/81/81
f 84/84/84 81/81/81 82/82/82
f 87/87/87 86/86/86 85/85/85
f 88/88/88 85/85/85 86/86/86
f 91/91/91 90/90/90 89/89/89
f 92/92/92 89/89/89 90/90/90
f 95/95/95 94/94/94 93/93/93
f 96/96/96 93/93/93 94/94/94
f 99/99/99 98/98/98 97/97/97
f 100/100/100 98/98/98 99/99/99
f 103/103/103 102/102/102 101/101/101
f 104/104/104 102/102/102 103/103/103
f 107/107/107 106/106/106 105/105/105
f 108/108/108 105/105/105 106/106/106
f 111/111/111 110/110/110 109/109/109
f 112/112/112 109/109/109 110/110/110
f 115/115/115 114/114/114 113/113/113
f 116/116/116 115/115/115 113/113/113
f 119/119/119 118/118/118 117/117/117
f 120/120/120 119/119/119 117/117/117
f 123/123/123 122/122/122 121/121/121
f 124/124/124 122/122/122 123/123/123
f 127/127/127 126/126/126 125/125/125
f 128/128/128 126/126/126 127/127/127
f 131/131/131 130/130/130 129/129/129
f 132/132/132 129/129/129 130/130/130
f 135/135/135 134/134/134 133/133/133
f 136/136/136 135/135/135 133/133/133
f 139/139/139 138/138/138 137/137/137
f 140/140/140 138/138/138 139/139/139
f 143/143/143 142/142/142 141/141/141
f 144/144/144 142/142/142 143/143/143
f 147/147/147 146/146/146 145/145/145
f 148/148/148 145/145/145 146/146/146
f 151/151/151 150/150/150 149/149/149
f 152/152/152 151/151/151 149/149/149
f 155/155/155 154/154/154 153/153/153
f 156/156/156 154/154/154 155/155/155
f 159/159/159 158/158/158 157/157/157
f 160/160/160 158/158/158 159/159/159
f 163/163/163 162/162/162 161/161/161
f 164/164/164 162/162/162 163/163/163
f 167/167/167 166/166/166 165/165/165
f 168/168/168 166/166/166 167/167/167
f 171/171/171 170/170/170 169/169/169
f 172/172/172 171/171/171 169/169/169
f 175/175/175 174/174/174 173/173/173
f 176/176/176 175/175/175 173/173/173
f 179/179/179 178/178/178 177/177/177
f 180/180/180 178/178/178 179/179/179
f 183/183/183 182/182/182 181/181/181
f 184/184/184 182/182/182 183/183/183
f 187/187/187 186/186/186 185/185/185
f 188/188/188 187/187/187 185/185/185
f 191/191/191 190/190/190 189/189/189
f 192/192/192 191/191/191 189/189/189
f 195/195/195 194/194/194 193/193/193
f 196/196/196 195/195/195 193/193/193
f 199/199/199 198/198/198 197/197/197
f 200/200/200 197/197/197 198/198/198
f 203/203/203 202/202/202 201/201/201
f 204/204/204 203/203/203 201/201/201
f 207/207/207 206/206/206 205/205/205
f 208/208/208 207/207/207 205/205/205
f 211/211/211 210/210/210 209/209/209
f 212/212/212 211/211/211 209/209/209
f 215/215/215 214/214/214 213/213/213
f 216/216/216 215/215/215 213/213/213
f 219/219/219 218/218/218 217/217/217
f 220/220/220 219/219/219 217/217/217
f 223/223/223 222/222/222 221/221/221
f 224/224/224 223/223/223 221/221/221
f 227/227/227 226/226/226 225/225/225
f 228/228/228 227/227/227 225/225/225
f 231/231/231 230/230/230 229/229/229
f 232/232/232 231/231/231 229/229/229
f 235/235/235 234/234/234 233/233/233
f 236/236/236 235/235/235 233/233/233
f 239/239/239 238/238/238 237/237/237
f 240/240/240 237/237/237 238/238/238
f 243/243/243 242/242/242 241/241/241
f 244/244/244 243/243/243 241/241/241
f 247/247/247 246/246/246 245/245/245
f 248/248/248 247/247/247 245/245/245
f 251/251/251 250/250/250 249/249/249
f 252/252/252 249/249/249 250/250/250
f 255/255/255 254/254/254 253/253/253
f 256/256/256 255/255/255 253/253/253
f 259/259/259 258/258/258 257/257/257
f 260/260/260 259/259/259 257/257/257
f 263/263/263 262/262/262 261/261/261
f 264/264/264 263/263/263 261/261/261
f 267/267/267 266/266/266 265/265/265
f 268/268/268 267/267/267 265/265/265
f 271/271/271 270/270/270 269/269/269
f 272/272/272 269/269/269 270/270/270
f 275/275/275 274/274/274 273/273/273
f 276/276/276 275/275/275 273/273/273
f 279/279/279 278/278/278 277/277/277
f 280/280/280 279/279/279 277/277/277
f 283/283/283 282/282/282 281/281/281
f 284/284/284 283/283/283 281/281/281
f 287/287/287 286/286/286 285/285/285
f 288/288/288 285/285/285 286/286/286
f 291/291/291 290/290/290 289/289/289
f 292/292/292 291/291/291 289/289/289
f 295/295/295 294/294/294 293/293/293
f 296/296/296 295/295/295 293/293/293
f 299/299/299 298/298/298 297/297/297
f 300/300/300 297/297/297 298/298/298
f 303/303/303 302/302/302 301/301/301
f 304/304/304 303/303/303 301/301/301
f 307/307/307 306/306/306 305/305/305
f 308/308/308 307/307/307 305/305/305
f 311/311/311 310/310/310 309/309/309
f 309/309/309 312/312/312 311/311/311
f 315/315/315 314/314/314 313/313/313
f 316/316/316 313/313/313 314/314/314
f 319/319/319 318/318/318 317/317/317
f 317/317/317 320/320/320 319/319/319
f 323/323/323 322/322/322 321/321/321
f 324/324/324 321/321/321 322/322/322
f 327/327/327 326/326/326 325/325/325
f 325/325/325 328/328/328 327/327/327
f 331/331/331 330/330/330 329/329/329
f 332/332/332 329/329/329 330/330/330
f 335/335/335 334/334/334 333/333/333
f 336/336/336 333/333/333 334/334/334
f 339/339/339 338/338/338 337/337/337
f 340/340/340 337/337/337 338/338/338
f 343/343/343 342/342/342 341/341/341
f 344/344/344 341/341/341 342/342/342
f 347/347/347 346/346/346 345/345/345
f 348/348/348 347/347/347 345/345/345
f 351/351/351 350/350/350 349/349/349
f 352/352/352 351/351/351 349/349/349
f 355/355/355 354/354/354 353/353/353
f 356/356/356 353/353/353 354/354/354
f 359/359/359 358/358/358 357/357/357
f 360/360/360 357/357/357 358/358/358
f 363/363/363 362/362/362 361/361/361
f 364/364/364 361/361/361 362/362/362
f 367/367/367 366/366/366 365/365/365
f 368/368/368 365/365/365 366/366/366
f 371/371/371 370/370/370 369/369/369
f 372/372/372 371/371/371 369/369/369
f 374/374/374 373/373/373 369/369/369
f 375/375/375 373/373/373 374/374/374
f 377/377/377 376/376/376 375/375/375
f 378/378/378 375/375/375 376/376/376
f 381/381/381 380/380/380 379/379/379
f 382/382/382 379/379/379 380/380/380
f 379/379/379 384/384/384 383/383/383
f 385/385/385 383/383/383 384/384/384
f 387/387/387 386/386/386 384/384/384
f 388/388/388 387/387/387 384/384/384
f 390/390/390 385/385/385 389/389/389
f 391/391/391 389/389/389 385/385/385
f 393/393/393 389/389/389 392/392/392
f 392/392/392 389/389/389 394/394/394
f 396/396/396 395/395/395 392/392/392
f 392/392/392 397/397/397 396/396/396
f 400/400/400 399/399/399 398/398/398
f 398/398/398 401/401/401 400/400/400
f 399/399/399 402/402/402 398/398/398
f 401/401/401 398/398/398 403/403/403
f 404/404/404 398/398/398 402/402/402
f 405/405/405 403/403/403 398/398/398
f 404/404/404 402/402/402 406/406/406
f 407/407/407 403/403/403 405/405/405
f 402/402/402 408/408/408 406/406/406
f 406/406/406 409/409/409 404/404/404
f 406/406/406 408/408/408 410/410/410
f 410/410/410 408/408/408 411/411/411
f 409/409/409 406/406/406 412/412/412
f 410/410/410 411/411/411 413/413/413
f 411/411/411 414/414/414 413/413/413
f 413/413/413 415/415/415 410/410/410
f 413/413/413 414/414/414 416/416/416
f 416/416/416 414/414/414 417/417/417
f 417/417/417 418/418/418 416/416/416
f 419/419/419 416/416/416 418/418/418
f 419/419/419 420/420/420 416/416/416
f 421/421/421 416/416/416 420/420/420
f 415/415/415 413/413/413 422/422/422
f 423/423/423 421/421/421 420/420/420
f 423/423/423 420/420/420 424/424/424
f 421/421/421 423/423/423 425/425/425
f 425/425/425 422/422/422 421/421/421
f 424/424/424 426/426/426 423/423/423
f 426/426/426 424/424/424 427/427/427
f 427/427/427 428/428/428 426/426/426
f 429/429/429 426/426/426 428/428/428
f 426/426/426 429/429/429 430/430/430
f 430/430/430 431/431/431 426/426/426
f 432/432/432 422/422/422 425/425/425
f 432/432/432 425/425/425 431/431/431
f 432/432/432 415/415/415 422/422/422
f 431/431/431 430/430/430 433/433/433
f 433/433/433 432/432/432 431/431/431
f 434/434/434 433/433/433 430/430/430
f 415/415/415 432/432/432 435/435/435
f 434/434/434 436/436/436 433/433/433
f 435/435/435 412/412/412 415/415/415
f 437/437/437 433/433/433 436/436/436
f 438/438/438 412/412/412 435/435/435
f 438/438/438 435/435/435 437/437/437
f 438/438/438 409/409/409 412/412/412
f 437/437/437 436/436/436 439/439/439
f 439/439/439 438/438/438 437/437/437
f 440/440/440 439/439/439 436/436/436
f 409/409/409 438/438/438 441/441/441
f 440/440/440 442/442/442 439/439/439
f 441/441/441 405/405/405 409/409/409
f 443/443/443 442/442/442 440/440/440
f 441/441/441 407/407/407 405/405/405
f 407/407/407 441/441/441 442/442/442
f 443/443/443 444/444/444 442/442/442
f 445/445/445 407/407/407 442/442/442
f 445/445/445 442/442/442 444/444/444
f 448/448/448 447/447/447 446/446/446
f 449/449/449 447/447/447 448/448/448
f 452/452/452 451/451/451 450/450/450
f 452/452/452 453/453/453 451/451/451
f 456/456/456 455/455/455 454/454/454
f 457/457/457 455/455/455 456/456/456
f 460/460/460 459/459/459 458/458/458
f 458/458/458 461/461/461 460/460/460
f 464/464/464 463/463/463 462/462/462
f 464/464/464 465/465/465 463/463/463
f 468/468/468 467/467/467 466/466/466
f 468/468/468 469/469/469 467/467/467
