mtllib SM_Window_01_LOD2@000002909DBD9600.mtl
g SM_Window_01_LOD2@000002909DBD9600
#Vertices 162
#Indices 204
#Section 0 Offset 0 NumIndices 174 MaterialIndex 0 MI_MetalTile_A_04
#Section 1 Offset 174 NumIndices 30 MaterialIndex 1 MI_Window_A
v -0.054774 3.079299 -0.107403 0.000000 0.000000 1.000000 1.000000
v 0.104713 2.005564 -0.041587 0.000000 0.000000 1.000000 1.000000
v -0.000272 2.934467 0.064334 0.000000 0.000000 1.000000 1.000000
v -0.582720 2.998556 0.009840 0.000000 0.000000 1.000000 1.000000
v -0.000272 2.934467 0.064334 0.000000 0.000000 1.000000 1.000000
v -0.054774 3.079299 -0.107403 0.000000 0.000000 1.000000 1.000000
v -0.688812 1.993984 0.130585 0.000000 0.000000 1.000000 1.000000
v -0.582720 2.998556 0.009840 0.000000 0.000000 1.000000 1.000000
v -0.702267 1.992822 -0.084055 0.000000 0.000000 1.000000 1.000000
v -0.626227 0.125718 -0.012801 0.000000 0.000000 1.000000 1.000000
v -0.688812 1.993984 0.130585 0.000000 0.000000 1.000000 1.000000
v -0.702267 1.992822 -0.084055 0.000000 0.000000 1.000000 1.000000
v -0.054774 3.079299 -0.107403 0.000000 0.000000 1.000000 1.000000
v 0.660903 2.999867 -0.059793 0.000000 0.000000 1.000000 1.000000
v 0.740972 3.076323 0.132898 0.000000 0.000000 1.000000 1.000000
v 0.719315 3.946921 -0.125725 0.000000 0.000000 1.000000 1.000000
v 0.008397 3.780730 -0.010591 0.000000 0.000000 1.000000 1.000000
v 0.701753 3.955518 0.089779 0.000000 0.000000 1.000000 1.000000
v 0.008397 3.780730 -0.010591 0.000000 0.000000 1.000000 1.000000
v -0.712621 3.961641 -0.092650 0.000000 0.000000 1.000000 1.000000
v -0.703960 3.963737 0.126972 0.000000 0.000000 1.000000 1.000000
v -0.712621 3.961641 -0.092650 0.000000 0.000000 1.000000 1.000000
v -0.582720 2.998556 0.009840 0.000000 0.000000 1.000000 1.000000
v -0.703960 3.963737 0.126972 0.000000 0.000000 1.000000 1.000000
v 0.104713 2.005564 -0.041587 0.000000 0.000000 1.000000 1.000000
v -0.004211 0.042890 -0.110340 0.000000 0.000000 1.000000 1.000000
v 0.004397 0.099220 0.132280 0.000000 0.000000 1.000000 1.000000
v 0.004397 0.099220 0.132280 0.000000 0.000000 1.000000 1.000000
v -0.626227 0.125718 -0.012801 0.000000 0.000000 1.000000 1.000000
v -0.004211 0.042890 -0.110340 0.000000 0.000000 1.000000 1.000000
v 0.696813 0.047929 -0.097552 0.000000 0.000000 1.000000 1.000000
v 0.581665 2.008775 0.005652 0.000000 0.000000 1.000000 1.000000
v 0.741076 0.058801 0.134507 0.000000 0.000000 1.000000 1.000000
v 0.581665 2.008775 0.005652 0.000000 0.000000 1.000000 1.000000
v 0.660903 2.999867 -0.059793 0.000000 0.000000 1.000000 1.000000
v 0.740972 3.076323 0.132898 0.000000 0.000000 1.000000 1.000000
v 0.003644 4.041749 0.002770 0.000000 0.000000 1.000000 1.000000
v 0.719315 3.946921 -0.125725 0.000000 0.000000 1.000000 1.000000
v 0.701753 3.955518 0.089779 0.000000 0.000000 1.000000 1.000000
v -0.702267 1.992822 -0.084055 0.000000 0.000000 1.000000 1.000000
v -0.793894 2.992098 0.003909 0.000000 0.000000 1.000000 1.000000
v -0.688812 1.993984 0.130585 0.000000 0.000000 1.000000 1.000000
v -0.703960 3.963737 0.126972 0.000000 0.000000 1.000000 1.000000
v -0.793894 2.992098 0.003909 0.000000 0.000000 1.000000 1.000000
v -0.712621 3.961641 -0.092650 0.000000 0.000000 1.000000 1.000000
v 0.719315 3.946921 -0.125725 0.000000 0.000000 1.000000 1.000000
v 0.740972 3.076323 0.132898 0.000000 0.000000 1.000000 1.000000
v 0.701753 3.955518 0.089779 0.000000 0.000000 1.000000 1.000000
v 0.790779 2.030398 -0.009654 0.000000 0.000000 1.000000 1.000000
v 0.696813 0.047929 -0.097552 0.000000 0.000000 1.000000 1.000000
v 0.741076 0.058801 0.134507 0.000000 0.000000 1.000000 1.000000
v -0.806994 -0.099504 0.019940 0.000000 0.000000 1.000000 1.000000
v -0.702267 1.992822 -0.084055 0.000000 0.000000 1.000000 1.000000
v -0.688812 1.993984 0.130585 0.000000 0.000000 1.000000 1.000000
v -0.004211 0.042890 -0.110340 0.000000 0.000000 1.000000 1.000000
v -0.806994 -0.099504 0.019940 0.000000 0.000000 1.000000 1.000000
v 0.004397 0.099220 0.132280 0.000000 0.000000 1.000000 1.000000
v -0.712621 3.961641 -0.092650 0.000000 0.000000 1.000000 1.000000
v 0.003644 4.041749 0.002770 0.000000 0.000000 1.000000 1.000000
v -0.703960 3.963737 0.126972 0.000000 0.000000 1.000000 1.000000
v 0.008397 3.780730 -0.010591 0.000000 0.000000 1.000000 1.000000
v -0.703960 3.963737 0.126972 0.000000 0.000000 1.000000 1.000000
v 0.003644 4.041749 0.002770 0.000000 0.000000 1.000000 1.000000
v 0.701753 3.955518 0.089779 0.000000 0.000000 1.000000 1.000000
v 0.008397 3.780730 -0.010591 0.000000 0.000000 1.000000 1.000000
v 0.003644 4.041749 0.002770 0.000000 0.000000 1.000000 1.000000
v -0.054774 3.079299 -0.107403 0.000000 0.000000 1.000000 1.000000
v 0.740972 3.076323 0.132898 0.000000 0.000000 1.000000 1.000000
v -0.000272 2.934467 0.064334 0.000000 0.000000 1.000000 1.000000
v 0.004397 0.099220 0.132280 0.000000 0.000000 1.000000 1.000000
v -0.806994 -0.099504 0.019940 0.000000 0.000000 1.000000 1.000000
v -0.626227 0.125718 -0.012801 0.000000 0.000000 1.000000 1.000000
v -0.703960 3.963737 0.126972 0.000000 0.000000 1.000000 1.000000
v -0.582720 2.998556 0.009840 0.000000 0.000000 1.000000 1.000000
v -0.793894 2.992098 0.003909 0.000000 0.000000 1.000000 1.000000
v -0.688812 1.993984 0.130585 0.000000 0.000000 1.000000 1.000000
v -0.793894 2.992098 0.003909 0.000000 0.000000 1.000000 1.000000
v -0.582720 2.998556 0.009840 0.000000 0.000000 1.000000 1.000000
v 0.581665 2.008775 0.005652 0.000000 0.000000 1.000000 1.000000
v 0.740972 3.076323 0.132898 0.000000 0.000000 1.000000 1.000000
v 0.790779 2.030398 -0.009654 0.000000 0.000000 1.000000 1.000000
v -0.688812 1.993984 0.130585 0.000000 0.000000 1.000000 1.000000
v -0.626227 0.125718 -0.012801 0.000000 0.000000 1.000000 1.000000
v -0.806994 -0.099504 0.019940 0.000000 0.000000 1.000000 1.000000
v 0.004397 0.099220 0.132280 0.000000 0.000000 1.000000 1.000000
v -0.073131 2.000493 0.058993 0.000000 0.000000 1.000000 1.000000
v 0.104713 2.005564 -0.041587 0.000000 0.000000 1.000000 1.000000
v 0.790779 2.030398 -0.009654 0.000000 0.000000 1.000000 1.000000
v 0.741076 0.058801 0.134507 0.000000 0.000000 1.000000 1.000000
v 0.581665 2.008775 0.005652 0.000000 0.000000 1.000000 1.000000
v -0.000272 2.934467 0.064334 0.000000 0.000000 1.000000 1.000000
v -0.582720 2.998556 0.009840 0.000000 0.000000 1.000000 1.000000
v -0.054774 3.079299 -0.107403 0.000000 0.000000 1.000000 1.000000
v -0.073131 2.000493 0.058993 0.000000 0.000000 1.000000 1.000000
v 0.104713 2.005564 -0.041587 0.000000 0.000000 1.000000 1.000000
v -0.000272 2.934467 0.064334 0.000000 0.000000 1.000000 1.000000
v 0.660903 2.999867 -0.059793 0.000000 0.000000 1.000000 1.000000
v -0.054774 3.079299 -0.107403 0.000000 0.000000 1.000000 1.000000
v 0.740972 3.076323 0.132898 0.000000 0.000000 1.000000 1.000000
v -0.073131 2.000493 0.058993 0.000000 0.000000 1.000000 1.000000
v -0.702267 1.992822 -0.084055 0.000000 0.000000 1.000000 1.000000
v 0.104713 2.005564 -0.041587 0.000000 0.000000 1.000000 1.000000
v -0.688812 1.993984 0.130585 0.000000 0.000000 1.000000 1.000000
v -0.054774 3.079299 -0.107403 0.000000 0.000000 1.000000 1.000000
v -0.073131 2.000493 0.058993 0.000000 0.000000 1.000000 1.000000
v 0.104713 2.005564 -0.041587 0.000000 0.000000 1.000000 1.000000
v -0.000272 2.934467 0.064334 0.000000 0.000000 1.000000 1.000000
v -0.073131 2.000493 0.058993 0.000000 0.000000 1.000000 1.000000
v -0.004211 0.042890 -0.110340 0.000000 0.000000 1.000000 1.000000
v 0.104713 2.005564 -0.041587 0.000000 0.000000 1.000000 1.000000
v 0.004397 0.099220 0.132280 0.000000 0.000000 1.000000 1.000000
v -0.702267 1.992822 -0.084055 0.000000 0.000000 1.000000 1.000000
v -0.073131 2.000493 0.058993 0.000000 0.000000 1.000000 1.000000
v 0.104713 2.005564 -0.041587 0.000000 0.000000 1.000000 1.000000
v -0.688812 1.993984 0.130585 0.000000 0.000000 1.000000 1.000000
v 0.696813 0.047929 -0.097552 0.000000 0.000000 1.000000 1.000000
v 0.004397 0.099220 0.132280 0.000000 0.000000 1.000000 1.000000
v -0.004211 0.042890 -0.110340 0.000000 0.000000 1.000000 1.000000
v 0.741076 0.058801 0.134507 0.000000 0.000000 1.000000 1.000000
v 0.719315 3.946921 -0.125725 0.000000 0.000000 1.000000 1.000000
v 0.740972 3.076323 0.132898 0.000000 0.000000 1.000000 1.000000
v 0.660903 2.999867 -0.059793 0.000000 0.000000 1.000000 1.000000
v 0.701753 3.955518 0.089779 0.000000 0.000000 1.000000 1.000000
v -0.004211 0.042890 -0.110340 0.000000 0.000000 1.000000 1.000000
v -0.626227 0.125718 -0.012801 0.000000 0.000000 1.000000 1.000000
v -0.806994 -0.099504 0.019940 0.000000 0.000000 1.000000 1.000000
v -0.702267 1.992822 -0.084055 0.000000 0.000000 1.000000 1.000000
v -0.793894 2.992098 0.003909 0.000000 0.000000 1.000000 1.000000
v -0.582720 2.998556 0.009840 0.000000 0.000000 1.000000 1.000000
v -0.712621 3.961641 -0.092650 0.000000 0.000000 1.000000 1.000000
v 0.003644 4.041749 0.002770 0.000000 0.000000 1.000000 1.000000
v 0.008397 3.780730 -0.010591 0.000000 0.000000 1.000000 1.000000
v 0.719315 3.946921 -0.125725 0.000000 0.000000 1.000000 1.000000
v 0.660903 2.999867 -0.059793 0.000000 0.000000 1.000000 1.000000
v 0.740972 3.076323 0.132898 0.000000 0.000000 1.000000 1.000000
v 0.790779 2.030398 -0.009654 0.000000 0.000000 1.000000 1.000000
v 0.581665 2.008775 0.005652 0.000000 0.000000 1.000000 1.000000
v 0.696813 0.047929 -0.097552 0.000000 0.000000 1.000000 1.000000
v 0.696813 0.047929 -0.097552 0.000000 0.000000 1.000000 1.000000
v -0.004211 0.042890 -0.110340 0.000000 0.000000 1.000000 1.000000
v 0.004397 0.099220 0.132280 0.000000 0.000000 1.000000 1.000000
v 0.741076 0.058801 0.134507 0.000000 0.000000 1.000000 1.000000
v 0.049999 2.950000 0.050000 0.000000 0.000000 1.000000 1.000000
v 0.049999 2.050000 0.050000 0.000000 0.000000 1.000000 1.000000
v 0.656495 2.950000 0.050000 0.000000 0.000000 1.000000 1.000000
v 0.656495 2.050000 0.050000 0.000000 0.000000 1.000000 1.000000
v 0.656495 3.899999 0.050000 0.000000 0.000000 1.000000 1.000000
v 0.049999 3.899999 0.050000 0.000000 0.000000 1.000000 1.000000
v 0.656495 3.049999 0.050000 0.000000 0.000000 1.000000 1.000000
v 0.049999 3.049999 0.050000 0.000000 0.000000 1.000000 1.000000
v 0.049999 1.950000 0.050000 0.000000 0.000000 1.000000 1.000000
v 0.049999 0.100000 0.050000 0.000000 0.000000 1.000000 1.000000
v 0.656495 1.950000 0.050000 0.000000 0.000000 1.000000 1.000000
v 0.656495 0.100000 0.050000 0.000000 0.000000 1.000000 1.000000
v -0.050000 0.100000 0.050000 0.000000 0.000000 1.000000 1.000000
v -0.050000 1.950000 0.050000 0.000000 0.000000 1.000000 1.000000
v -0.653984 1.950000 0.050000 0.000000 0.000000 1.000000 1.000000
v -0.653984 0.100000 0.050000 0.000000 0.000000 1.000000 1.000000
v -0.050000 2.950000 0.050000 0.000000 0.000000 1.000000 1.000000
v -0.653984 2.950000 0.050000 0.000000 0.000000 1.000000 1.000000
v -0.050000 2.050000 0.050000 0.000000 0.000000 1.000000 1.000000
v -0.653984 2.050000 0.050000 0.000000 0.000000 1.000000 1.000000
vt 0.468506 0.603027
vt 0.480957 0.462891
vt 0.490723 0.580566
vt 0.363037 0.587891
vt 0.464600 0.580811
vt 0.465088 0.592529
vt 0.366211 0.462891
vt 0.353027 0.593750
vt 0.339600 0.455566
vt 0.350586 0.218262
vt 0.367188 0.454102
vt 0.339111 0.458984
vt 0.467773 0.597656
vt 0.597168 0.596924
vt 0.597168 0.609375
vt 0.608398 0.725342
vt 0.479736 0.715332
vt 0.592285 0.709473
vt 0.468262 0.714600
vt 0.336670 0.723877
vt 0.352051 0.708984
vt 0.337646 0.728271
vt 0.352783 0.594727
vt 0.364990 0.721924
vt 0.480957 0.457031
vt 0.466553 0.207520
vt 0.499268 0.219238
vt 0.458252 0.220703
vt 0.354004 0.214355
vt 0.477539 0.209961
vt 0.606934 0.207520
vt 0.590820 0.456543
vt 0.577637 0.213867
vt 0.590820 0.464355
vt 0.600586 0.594482
vt 0.577637 0.594971
vt 0.825684 0.208984
vt 0.923340 0.197266
vt 0.916992 0.221680
vt 0.708984 0.476562
vt 0.720215 0.347168
vt 0.732422 0.477051
vt 0.735352 0.221680
vt 0.720215 0.347656
vt 0.709473 0.219238
vt 0.944824 0.220703
vt 0.916016 0.336914
vt 0.918945 0.222656
vt 0.934082 0.471191
vt 0.944824 0.727051
vt 0.916504 0.724365
vt 0.724121 0.746094
vt 0.708496 0.476562
vt 0.732422 0.476074
vt 0.825684 0.753906
vt 0.718262 0.738281
vt 0.827637 0.725586
vt 0.729492 0.198730
vt 0.826172 0.209473
vt 0.734863 0.225586
vt 0.828613 0.238281
vt 0.733887 0.222656
vt 0.826172 0.209473
vt 0.916992 0.224121
vt 0.825684 0.238770
vt 0.826172 0.210449
vt 0.818359 0.336914
vt 0.924316 0.344727
vt 0.825684 0.354004
vt 0.827637 0.725830
vt 0.718262 0.736084
vt 0.744629 0.715088
vt 0.735840 0.221191
vt 0.744629 0.347168
vt 0.722168 0.347168
vt 0.736816 0.476562
vt 0.721191 0.347168
vt 0.744629 0.345703
vt 0.906738 0.474121
vt 0.920410 0.334961
vt 0.930176 0.470703
vt 0.734863 0.476074
vt 0.745605 0.716309
vt 0.723633 0.745605
vt 0.826660 0.719971
vt 0.816895 0.475098
vt 0.839355 0.474121
vt 0.930176 0.470703
vt 0.923828 0.724365
vt 0.907227 0.473633
vt 0.825684 0.354492
vt 0.749512 0.343750
vt 0.817871 0.331543
vt 0.816895 0.475586
vt 0.839355 0.474609
vt 0.479736 0.581299
vt 0.597168 0.591797
vt 0.451172 0.597168
vt 0.598145 0.578369
vt 0.451904 0.470215
vt 0.339355 0.459961
vt 0.495117 0.462891
vt 0.354492 0.475098
vt 0.474121 0.605225
vt 0.452881 0.463379
vt 0.474609 0.456055
vt 0.453857 0.580078
vt 0.451416 0.455566
vt 0.477051 0.207031
vt 0.475342 0.461426
vt 0.443604 0.219238
vt 0.339600 0.457031
vt 0.451172 0.448730
vt 0.495117 0.454590
vt 0.356445 0.446289
vt 0.603516 0.208984
vt 0.481201 0.222656
vt 0.464600 0.208984
vt 0.594238 0.221191
vt 0.608887 0.724365
vt 0.577637 0.609131
vt 0.600586 0.593506
vt 0.583496 0.717041
vt 0.472168 0.206055
vt 0.350830 0.217773
vt 0.326904 0.189453
vt 0.339844 0.458008
vt 0.326660 0.593018
vt 0.351562 0.594238
vt 0.337891 0.725830
vt 0.472412 0.737549
vt 0.472656 0.705078
vt 0.607422 0.722656
vt 0.598145 0.594482
vt 0.618652 0.603516
vt 0.617188 0.462891
vt 0.591309 0.459961
vt 0.603027 0.207520
vt 0.921387 0.750122
vt 0.826660 0.754272
vt 0.826172 0.724121
vt 0.923340 0.723145
vt 0.142090 0.437012
vt 0.142090 0.341797
vt 0.231934 0.437012
vt 0.231934 0.341797
vt 0.231934 0.526123
vt 0.142090 0.526123
vt 0.231934 0.436523
vt 0.142090 0.436523
vt 0.142090 0.342773
vt 0.142090 0.147461
vt 0.231934 0.342773
vt 0.231934 0.147461
vt 0.141602 0.147461
vt 0.141602 0.342285
vt 0.052124 0.342285
vt 0.052124 0.147461
vt 0.141602 0.437012
vt 0.052124 0.437012
vt 0.141602 0.342285
vt 0.052124 0.342285
vt1 0.851562 0.639404
vt1 0.855469 0.493652
vt1 0.858398 0.618896
vt1 0.739746 0.623291
vt1 0.851562 0.620117
vt1 0.840332 0.625488
vt1 0.728516 0.492676
vt1 0.724609 0.628662
vt1 0.720703 0.491211
vt1 0.723633 0.251953
vt1 0.728027 0.491211
vt1 0.720703 0.492676
vt1 0.837402 0.632324
vt1 0.975098 0.631836
vt1 0.988770 0.637939
vt1 0.986816 0.756470
vt1 0.848145 0.751709
vt1 0.982910 0.749268
vt1 0.854980 0.751587
vt1 0.713867 0.755859
vt1 0.715820 0.748779
vt1 0.719727 0.760742
vt1 0.724609 0.627686
vt1 0.728027 0.759521
vt1 0.854980 0.493164
vt1 0.851562 0.241211
vt1 0.860352 0.249512
vt1 0.850098 0.251465
vt1 0.729980 0.247559
vt1 0.852051 0.245117
vt1 0.979492 0.241699
vt1 0.975098 0.493652
vt1 0.971680 0.244629
vt1 0.975098 0.495117
vt1 0.978027 0.628906
vt1 0.971191 0.637695
vt1 -0.077698 0.497559
vt1 1.110352 -0.556641
vt1 1.078125 1.313232
vt1 -0.065735 -0.327148
vt1 1.045898 0.515137
vt1 -0.066833 1.403564
vt1 1.078125 1.543457
vt1 -0.068848 0.535156
vt1 1.072266 -0.399414
vt1 -0.056915 -0.596680
vt1 0.967773 1.682129
vt1 -0.065491 1.308350
vt1 -0.043701 0.399414
vt1 1.027344 -0.450195
vt1 1.022461 1.660156
vt1 -0.107849 0.679932
vt1 1.022461 -0.327148
vt1 1.024414 1.397461
vt1 -0.076660 -0.542969
vt1 1.263672 0.522461
vt1 -0.089355 1.556641
vt1 -0.098022 -0.384766
vt1 1.090820 0.533203
vt1 -0.087219 1.606934
vt1 -0.393311 1.000000
vt1 -0.187256 1.000000
vt1 1.500000 1.000000
vt1 0.180908 1.000000
vt1 1.798828 1.000000
vt1 -0.139893 1.000000
vt1 -0.031403 1.000000
vt1 0.037750 1.000000
vt1 1.142578 1.000000
vt1 0.070129 1.000000
vt1 1.556641 1.000000
vt1 -0.316162 1.000000
vt1 0.315674 1.000000
vt1 1.387695 1.000000
vt1 -0.086243 1.000000
vt1 0.062744 1.000000
vt1 1.503906 1.000000
vt1 -0.319336 1.000000
vt1 0.003279 1.000000
vt1 0.264648 1.000000
vt1 1.362305 1.000000
vt1 0.020630 1.000000
vt1 1.384766 1.000000
vt1 0.129395 1.000000
vt1 0.050323 1.000000
vt1 1.223633 1.000000
vt1 -0.254883 1.000000
vt1 -0.366699 1.000000
vt1 0.314941 1.000000
vt1 1.462891 1.000000
vt1 -0.036133 1.000000
vt1 0.371582 1.000000
vt1 1.559570 1.000000
vt1 -0.004906 1.000000
vt1 1.552734 1.000000
vt1 0.848145 0.620117
vt1 0.975098 0.625000
vt1 0.836426 0.627686
vt1 0.991699 0.618896
vt1 0.836914 0.500488
vt1 0.716309 0.495605
vt1 0.872070 0.497070
vt1 0.718750 0.502441
vt1 0.847168 0.639648
vt1 0.841309 0.493652
vt1 0.847656 0.492188
vt1 0.841309 0.618896
vt1 0.841309 0.492188
vt1 0.848145 0.241211
vt1 0.847656 0.494141
vt1 0.838867 0.249512
vt1 0.716309 0.490234
vt1 0.836914 0.485840
vt1 0.872070 0.488770
vt1 0.718750 0.483887
vt1 0.981934 0.244629
vt1 0.849121 0.251953
vt1 0.847168 0.244629
vt1 0.990234 0.251465
vt1 0.980469 0.758301
vt1 0.971191 0.640381
vt1 0.978027 0.628174
vt1 0.972656 0.757568
vt1 0.850098 0.240723
vt1 0.728027 0.251953
vt1 0.705078 0.224121
vt1 0.718262 0.492188
vt1 0.706055 0.626953
vt1 0.728516 0.628418
vt1 0.715332 0.759766
vt1 0.850098 0.770264
vt1 0.850098 0.739990
vt1 0.985352 0.756714
vt1 0.976074 0.628662
vt1 0.995117 0.637451
vt1 0.993164 0.497070
vt1 0.969727 0.494141
vt1 0.980957 0.241699
vt1 -0.064880 -0.405273
vt1 1.085938 -0.542969
vt1 1.073242 1.660156
vt1 -0.138306 1.622559
vt1 0.155273 0.429688
vt1 0.155273 0.334961
vt1 0.245117 0.429688
vt1 0.245117 0.334961
vt1 0.245117 0.426758
vt1 0.155273 0.426758
vt1 0.245117 0.336914
vt1 0.155273 0.336914
vt1 0.155273 0.479980
vt1 0.155273 0.284668
vt1 0.245117 0.479980
vt1 0.245117 0.284668
vt1 0.244873 0.284668
vt1 0.244873 0.479492
vt1 0.155273 0.479492
vt1 0.155273 0.284668
vt1 0.244629 0.429688
vt1 0.155029 0.429688
vt1 0.244629 0.334961
vt1 0.155029 0.334961
vn 0.984252 -0.000000 -0.181102
vn 0.984252 -0.000000 -0.181102
vn 0.984252 -0.000000 -0.181102
vn 0.000000 -0.984252 -0.181102
vn 0.000000 -0.984252 -0.181102
vn 0.000000 -0.984252 -0.181102
vn 0.984252 -0.000000 -0.181102
vn 0.984252 -0.000000 -0.181102
vn 0.984252 -0.000000 -0.181102
vn 0.984252 -0.000000 -0.181102
vn 0.984252 -0.000000 -0.181102
vn 0.984252 -0.000000 -0.181102
vn 0.000000 0.984252 -0.181102
vn 0.000000 0.984252 -0.181102
vn 0.000000 0.984252 -0.181102
vn 0.000000 -0.984252 -0.181102
vn 0.000000 -0.984252 -0.181102
vn 0.000000 -0.984252 -0.181102
vn 0.000000 -0.984252 -0.181102
vn 0.000000 -0.984252 -0.181102
vn 0.000000 -0.984252 -0.181102
vn 0.984252 -0.000000 -0.181102
vn 0.984252 -0.000000 -0.181102
vn 0.984252 -0.000000 -0.181102
vn 0.984252 -0.000000 -0.181102
vn 0.984252 -0.000000 -0.181102
vn 0.984252 -0.000000 -0.181102
vn 0.000000 0.984252 -0.181102
vn 0.000000 0.984252 -0.181102
vn 0.000000 0.984252 -0.181102
vn -0.984252 -0.000000 -0.181102
vn -0.984252 -0.000000 -0.181102
vn -0.984252 -0.000000 -0.181102
vn -0.984252 -0.000000 -0.181102
vn -0.984252 -0.000000 -0.181102
vn -0.984252 -0.000000 -0.181102
vn 0.000000 1.000000 -0.000000
vn 0.000000 1.000000 -0.000000
vn 0.000000 1.000000 -0.000000
vn -1.000000 0.000000 0.000000
vn -1.000000 0.000000 0.000000
vn -1.000000 0.000000 0.000000
vn -1.000000 0.000000 0.000000
vn -1.000000 0.000000 0.000000
vn -1.000000 0.000000 0.000000
vn 1.000000 0.000000 0.000000
vn 1.000000 0.000000 0.000000
vn 1.000000 0.000000 0.000000
vn 1.000000 0.000000 0.000000
vn 1.000000 0.000000 0.000000
vn 1.000000 0.000000 0.000000
vn -1.000000 0.000000 0.000000
vn -1.000000 0.000000 0.000000
vn -1.000000 0.000000 0.000000
vn 0.000000 -1.000000 0.000000
vn 0.000000 -1.000000 0.000000
vn 0.000000 -1.000000 0.000000
vn 0.000000 1.000000 -0.000000
vn 0.000000 1.000000 -0.000000
vn 0.000000 1.000000 -0.000000
vn 0.000000 0.000000 1.000000
vn 0.000000 0.000000 1.000000
vn 0.000000 0.000000 1.000000
vn 0.000000 0.000000 1.000000
vn 0.000000 0.000000 1.000000
vn 0.000000 0.000000 1.000000
vn 0.000000 0.000000 1.000000
vn 0.000000 0.000000 1.000000
vn 0.000000 0.000000 1.000000
vn 0.000000 0.000000 1.000000
vn 0.000000 0.000000 1.000000
vn 0.000000 0.000000 1.000000
vn 0.000000 0.000000 1.000000
vn 0.000000 0.000000 1.000000
vn 0.000000 0.000000 1.000000
vn 0.000000 0.000000 1.000000
vn 0.000000 0.000000 1.000000
vn 0.000000 0.000000 1.000000
vn 0.000000 0.000000 1.000000
vn 0.000000 0.000000 1.000000
vn 0.000000 0.000000 1.000000
vn 0.000000 0.000000 1.000000
vn 0.000000 0.000000 1.000000
vn 0.000000 0.000000 1.000000
vn 0.000000 0.000000 1.000000
vn 0.000000 0.000000 1.000000
vn 0.000000 0.000000 1.000000
vn 0.000000 0.000000 1.000000
vn 0.000000 0.000000 1.000000
vn 0.000000 0.000000 1.000000
vn 0.000000 0.000000 1.000000
vn 0.000000 0.000000 1.000000
vn 0.000000 0.000000 1.000000
vn 0.000000 0.000000 1.000000
vn 0.000000 0.000000 1.000000
vn 0.000000 -0.984252 -0.181102
vn 0.000000 -0.984252 -0.181102
vn 0.000000 -0.984252 -0.181102
vn 0.000000 -0.984252 -0.181102
vn 0.000000 0.984252 -0.181102
vn 0.000000 0.984252 -0.181102
vn 0.000000 0.984252 -0.181102
vn 0.000000 0.984252 -0.181102
vn -0.984252 -0.000000 -0.181102
vn -0.984252 -0.000000 -0.181102
vn -0.984252 -0.000000 -0.181102
vn -0.984252 -0.000000 -0.181102
vn -0.984252 -0.000000 -0.181102
vn -0.984252 -0.000000 -0.181102
vn -0.984252 -0.000000 -0.181102
vn -0.984252 -0.000000 -0.181102
vn 0.000000 -0.984252 -0.181102
vn 0.000000 -0.984252 -0.181102
vn 0.000000 -0.984252 -0.181102
vn 0.000000 -0.984252 -0.181102
vn 0.000000 0.984252 -0.181102
vn 0.000000 0.984252 -0.181102
vn 0.000000 0.984252 -0.181102
vn 0.000000 0.984252 -0.181102
vn -0.984252 -0.000000 -0.181102
vn -0.984252 -0.000000 -0.181102
vn -0.984252 -0.000000 -0.181102
vn -0.984252 -0.000000 -0.181102
vn 0.000000 -0.000000 -1.000000
vn 0.000000 -0.000000 -1.000000
vn 0.000000 -0.000000 -1.000000
vn 0.000000 -0.000000 -1.000000
vn 0.000000 -0.000000 -1.000000
vn 0.000000 -0.000000 -1.000000
vn 0.000000 -0.000000 -1.000000
vn 0.000000 -0.000000 -1.000000
vn 0.000000 -0.000000 -1.000000
vn 0.000000 -0.000000 -1.000000
vn 0.000000 -0.000000 -1.000000
vn 0.000000 -0.000000 -1.000000
vn 0.000000 -0.000000 -1.000000
vn 0.000000 -0.000000 -1.000000
vn 0.000000 -0.000000 -1.000000
vn 0.000000 -1.000000 0.000000
vn 0.000000 -1.000000 0.000000
vn 0.000000 -1.000000 0.000000
vn 0.000000 -1.000000 0.000000
vn 0.000000 -0.000000 -1.000000
vn 0.000000 -0.000000 -1.000000
vn 0.000000 -0.000000 -1.000000
vn 0.000000 -0.000000 -1.000000
vn 0.000000 -0.000000 -1.000000
vn 0.000000 -0.000000 -1.000000
vn 0.000000 -0.000000 -1.000000
vn 0.000000 -0.000000 -1.000000
vn 0.000000 -0.000000 -1.000000
vn 0.000000 -0.000000 -1.000000
vn 0.000000 -0.000000 -1.000000
vn 0.000000 -0.000000 -1.000000
vn 0.000000 -0.000000 -1.000000
vn 0.000000 -0.000000 -1.000000
vn 0.000000 -0.000000 -1.000000
vn 0.000000 -0.000000 -1.000000
vn 0.000000 -0.000000 -1.000000
vn 0.000000 -0.000000 -1.000000
vn 0.000000 -0.000000 -1.000000
vn 0.000000 -0.000000 -1.000000
tan 0.077004 -0.891252 0.418501 1.000000
tan -0.079856 -0.883502 -0.434001 1.000000
tan 0.075578 -0.899002 0.410751 1.000000
tan 0.007750 -0.181102 0.984252 1.000000
tan 0.000000 -0.181102 0.984252 1.000000
tan 0.000000 -0.181102 0.984252 1.000000
tan -0.071300 -0.906752 -0.387501 1.000000
tan 0.075578 -0.891252 0.410751 1.000000
tan -0.081282 -0.883502 -0.441751 1.000000
tan -0.052762 -0.945502 -0.286750 1.000000
tan 0.048484 -0.945502 0.263501 1.000000
tan 0.051336 -0.945502 0.279001 1.000000
tan 0.000000 -0.181102 -0.984252 1.000000
tan 0.007750 -0.181102 -0.984252 1.000000
tan 0.015500 -0.181102 -0.984252 1.000000
tan 0.007750 -0.181102 0.984252 1.000000
tan 0.000000 -0.181102 0.984252 1.000000
tan 0.007750 -0.181102 0.984252 1.000000
tan 0.000000 -0.181102 0.984252 1.000000
tan 0.007750 -0.181102 0.984252 1.000000
tan 0.015500 -0.181102 0.984252 1.000000
tan 0.075578 -0.899002 0.410751 1.000000
tan -0.085560 -0.868002 -0.465001 1.000000
tan 0.064170 -0.922252 0.348751 1.000000
tan 0.052762 -0.945502 0.286751 1.000000
tan -0.054188 -0.937752 -0.294500 1.000000
tan -0.059892 -0.930002 -0.325500 1.000000
tan 0.000000 -0.181102 -0.984252 1.000000
tan 0.007750 -0.181102 -0.984252 1.000000
tan 0.000000 -0.181102 -0.984252 1.000000
tan 0.047058 -0.953252 -0.255750 1.000000
tan -0.058466 -0.930002 0.317751 1.000000
tan 0.057040 -0.937752 -0.310000 1.000000
tan 0.068448 -0.914502 -0.372001 1.000000
tan -0.075578 -0.899002 0.410751 1.000000
tan -0.109802 -0.782751 0.596751 1.000000
tan 0.023622 -0.000000 -1.000000 1.000000
tan -0.330709 -0.000000 -0.944882 1.000000
tan -0.062992 -0.000000 -1.000000 1.000000
tan 0.000000 1.000000 -0.000000 1.000000
tan 0.000000 1.000000 -0.000000 1.000000
tan 0.000000 1.000000 -0.000000 1.000000
tan 0.000000 0.992126 -0.102362 1.000000
tan 0.000000 1.000000 -0.007874 1.000000
tan 0.000000 0.992126 -0.118110 1.000000
tan 0.000000 0.992126 -0.118110 1.000000
tan 0.000000 1.000000 -0.031496 1.000000
tan 0.000000 0.992126 -0.133858 1.000000
tan 0.000000 1.000000 -0.000000 1.000000
tan 0.000000 1.000000 0.055118 1.000000
tan 0.000000 1.000000 0.055118 1.000000
tan 0.000000 1.000000 0.070866 1.000000
tan 0.000000 1.000000 -0.000000 1.000000
tan 0.000000 1.000000 0.007874 1.000000
tan -0.039370 0.000000 1.000000 1.000000
tan -0.188976 0.000000 0.984252 1.000000
tan 0.007874 0.000000 1.000000 1.000000
tan 0.330709 -0.000000 -0.944882 1.000000
tan 0.015748 -0.000000 -1.000000 1.000000
tan 0.173228 -0.000000 -0.984252 1.000000
tan 0.015748 1.000000 -0.000000 1.000000
tan 0.015748 1.000000 -0.000000 1.000000
tan 0.015748 1.000000 -0.000000 1.000000
tan -0.015748 1.000000 -0.000000 1.000000
tan -0.007874 1.000000 -0.000000 1.000000
tan -0.007874 1.000000 -0.000000 1.000000
tan 0.000000 1.000000 -0.000000 1.000000
tan 0.000000 1.000000 -0.000000 1.000000
tan 0.000000 1.000000 -0.000000 1.000000
tan 0.000000 1.000000 -0.000000 1.000000
tan -0.015748 1.000000 -0.000000 1.000000
tan -0.007874 1.000000 -0.000000 1.000000
tan -0.031496 1.000000 -0.000000 1.000000
tan -0.007874 1.000000 -0.000000 1.000000
tan -0.007874 1.000000 -0.000000 1.000000
tan 0.000000 1.000000 -0.000000 1.000000
tan 0.000000 1.000000 -0.000000 1.000000
tan 0.000000 1.000000 -0.000000 1.000000
tan 0.007874 1.000000 -0.000000 1.000000
tan 0.000000 1.000000 -0.000000 1.000000
tan 0.007874 1.000000 -0.000000 1.000000
tan 0.000000 1.000000 -0.000000 1.000000
tan 0.015748 1.000000 -0.000000 1.000000
tan 0.015748 1.000000 -0.000000 1.000000
tan 0.000000 1.000000 -0.000000 1.000000
tan 0.000000 1.000000 -0.000000 1.000000
tan 0.000000 1.000000 -0.000000 1.000000
tan 0.000000 1.000000 -0.000000 1.000000
tan -0.015748 1.000000 -0.000000 1.000000
tan 0.000000 1.000000 -0.000000 1.000000
tan 0.000000 1.000000 -0.000000 1.000000
tan 0.000000 1.000000 -0.000000 1.000000
tan 0.000000 1.000000 -0.000000 1.000000
tan 0.000000 1.000000 -0.000000 1.000000
tan 0.000000 1.000000 -0.000000 1.000000
tan 0.000000 -0.181102 0.984252 1.000000
tan 0.007750 -0.181102 0.984252 1.000000
tan 0.000000 -0.181102 0.984252 1.000000
tan 0.015500 -0.181102 0.984252 1.000000
tan 0.000000 -0.181102 -0.984252 1.000000
tan 0.007750 -0.181102 -0.984252 1.000000
tan 0.000000 -0.181102 -0.984252 1.000000
tan 0.007750 -0.181102 -0.984252 1.000000
tan -0.082708 -0.875752 0.449501 1.000000
tan 0.065596 -0.922252 -0.356501 1.000000
tan 0.075578 -0.891252 -0.410751 1.000000
tan -0.082708 -0.875752 0.449501 1.000000
tan -0.054188 -0.937752 0.294501 1.000000
tan 0.045632 -0.953252 -0.248000 1.000000
tan -0.059892 -0.930002 0.325501 1.000000
tan 0.057040 -0.930002 -0.310000 1.000000
tan 0.007750 -0.181102 0.984252 1.000000
tan 0.000000 -0.181102 0.984252 1.000000
tan 0.000000 -0.181102 0.984252 1.000000
tan 0.015500 -0.181102 0.984252 1.000000
tan 0.007750 -0.181102 -0.984252 1.000000
tan 0.000000 -0.181102 -0.984252 1.000000
tan 0.000000 -0.181102 -0.984252 1.000000
tan 0.015500 -0.181102 -0.984252 1.000000
tan -0.069874 -0.906752 0.379751 1.000000
tan 0.051336 -0.945502 -0.279000 1.000000
tan 0.071300 -0.906752 -0.387501 1.000000
tan -0.095542 -0.837002 0.519251 1.000000
tan 0.000000 -1.000000 0.000000 1.000000
tan -0.023622 -1.000000 0.000000 1.000000
tan -0.031496 -1.000000 0.000000 1.000000
tan 0.007874 -1.000000 0.000000 1.000000
tan 0.007874 -1.000000 0.000000 1.000000
tan -0.015748 -1.000000 0.000000 1.000000
tan 0.023622 -1.000000 0.000000 1.000000
tan -0.007874 -1.000000 0.000000 1.000000
tan 0.000000 -1.000000 0.000000 1.000000
tan -0.023622 -1.000000 0.000000 1.000000
tan -0.007874 -1.000000 0.000000 1.000000
tan 0.000000 -1.000000 0.000000 1.000000
tan 0.000000 -1.000000 0.000000 1.000000
tan -0.007874 -1.000000 0.000000 1.000000
tan 0.023622 -1.000000 0.000000 1.000000
tan 0.338583 0.000000 0.944882 1.000000
tan -0.015748 0.000000 1.000000 1.000000
tan -0.039370 0.000000 1.000000 1.000000
tan 0.196850 0.000000 0.976378 1.000000
tan 0.000000 -1.000000 0.000000 1.000000
tan 0.000000 -1.000000 0.000000 1.000000
tan 0.000000 -1.000000 0.000000 1.000000
tan 0.000000 -1.000000 0.000000 1.000000
tan 0.000000 -1.000000 0.000000 1.000000
tan 0.000000 -1.000000 0.000000 1.000000
tan 0.000000 -1.000000 0.000000 1.000000
tan 0.000000 -1.000000 0.000000 1.000000
tan 0.000000 -1.000000 0.000000 1.000000
tan 0.000000 -1.000000 0.000000 1.000000
tan 0.000000 -1.000000 0.000000 1.000000
tan 0.000000 -1.000000 0.000000 1.000000
tan 0.000000 -1.000000 0.000000 1.000000
tan 0.000000 -1.000000 0.000000 1.000000
tan 0.000000 -1.000000 0.000000 1.000000
tan 0.000000 -1.000000 0.000000 1.000000
tan 0.000000 -1.000000 0.000000 1.000000
tan 0.000000 -1.000000 0.000000 1.000000
tan 0.000000 -1.000000 0.000000 1.000000
tan 0.000000 -1.000000 0.000000 1.000000
f 3/3/3 2/2/2 1/1/1
f 6/6/6 5/5/5 4/4/4
f 9/9/9 8/8/8 7/7/7
f 12/12/12 11/11/11 10/10/10
f 15/15/15 14/14/14 13/13/13
f 18/18/18 17/17/17 16/16/16
f 21/21/21 20/20/20 19/19/19
f 24/24/24 23/23/23 22/22/22
f 27/27/27 26/26/26 25/25/25
f 30/30/30 29/29/29 28/28/28
f 33/33/33 32/32/32 31/31/31
f 36/36/36 35/35/35 34/34/34
f 39/39/39 38/38/38 37/37/37
f 42/42/42 41/41/41 40/40/40
f 45/45/45 44/44/44 43/43/43
f 48/48/48 47/47/47 46/46/46
f 51/51/51 50/50/50 49/49/49
f 54/54/54 53/53/53 52/52/52
f 57/57/57 56/56/56 55/55/55
f 60/60/60 59/59/59 58/58/58
f 63/63/63 62/62/62 61/61/61
f 66/66/66 65/65/65 64/64/64
f 69/69/69 68/68/68 67/67/67
f 72/72/72 71/71/71 70/70/70
f 75/75/75 74/74/74 73/73/73
f 78/78/78 77/77/77 76/76/76
f 81/81/81 80/80/80 79/79/79
f 84/84/84 83/83/83 82/82/82
f 87/87/87 86/86/86 85/85/85
f 90/90/90 89/89/89 88/88/88
f 93/93/93 92/92/92 91/91/91
f 95/95/95 91/91/91 94/94/94
f 98/98/98 97/97/97 96/96/96
f 99/99/99 96/96/96 97/97/97
f 102/102/102 101/101/101 100/100/100
f 103/103/103 100/100/100 101/101/101
f 106/106/106 105/105/105 104/104/104
f 107/107/107 104/104/104 105/105/105
f 110/110/110 109/109/109 108/108/108
f 111/111/111 108/108/108 109/109/109
f 114/114/114 113/113/113 112/112/112
f 115/115/115 112/112/112 113/113/113
f 118/118/118 117/117/117 116/116/116
f 119/119/119 116/116/116 117/117/117
f 122/122/122 121/121/121 120/120/120
f 123/123/123 120/120/120 121/121/121
f 126/126/126 125/125/125 124/124/124
f 126/126/126 127/127/127 125/125/125
f 129/129/129 127/127/127 128/128/128
f 129/129/129 128/128/128 130/130/130
f 132/132/132 130/130/130 131/131/131
f 131/131/131 133/133/133 132/132/132
f 135/135/135 134/134/134 133/133/133
f 135/135/135 136/136/136 134/134/134
f 137/137/137 134/134/134 136/136/136
f 136/136/136 138/138/138 137/137/137
f 141/141/141 140/140/140 139/139/139
f 142/142/142 141/141/141 139/139/139
f 145/145/145 144/144/144 143/143/143
f 146/146/146 144/144/144 145/145/145
f 149/149/149 148/148/148 147/147/147
f 149/149/149 150/150/150 148/148/148
f 153/153/153 152/152/152 151/151/151
f 154/154/154 152/152/152 153/153/153
f 157/157/157 156/156/156 155/155/155
f 155/155/155 158/158/158 157/157/157
f 161/161/161 160/160/160 159/159/159
f 161/161/161 162/162/162 160/160/160
