mtllib SM_Wall_01_LOD2@000002909DC08800.mtl
g SM_Wall_01_LOD2@000002909DC08800
#Vertices 220
#Indices 627
#Section 0 Offset 0 NumIndices 564 MaterialIndex 0 MI_ConcreteTrim_A_02
#Section 1 Offset 564 NumIndices 63 MaterialIndex 1 MI_BrickTile_B_01
v -0.000002 3.250000 -0.307507 0.000000 0.000000 1.000000 1.000000
v 0.727270 3.317493 -0.375000 1.000000 1.000000 1.000000 1.000000
v -0.000002 3.317493 -0.375000 0.000000 0.000000 1.000000 1.000000
v 0.727270 3.250000 -0.307507 1.000000 1.000000 1.000000 1.000000
v 1.454543 3.317493 -0.375000 1.000000 1.000000 1.000000 1.000000
v 1.454543 3.250000 -0.307507 1.000000 1.000000 1.000000 1.000000
v 2.181816 3.317493 -0.375000 1.000000 1.000000 1.000000 1.000000
v 2.181816 3.250000 -0.307507 1.000000 1.000000 1.000000 1.000000
v 2.909088 3.317493 -0.375000 1.000000 1.000000 1.000000 1.000000
v 2.909089 3.250000 -0.307507 1.000000 1.000000 1.000000 1.000000
v 3.636361 3.317493 -0.375000 1.000000 1.000000 1.000000 1.000000
v 3.636361 3.250000 -0.307507 1.000000 1.000000 1.000000 1.000000
v 4.363634 3.250000 -0.307507 1.000000 1.000000 1.000000 1.000000
v 4.363634 3.317493 -0.375000 0.905882 0.905882 1.000000 1.000000
v 5.090907 3.250000 -0.307507 1.000000 1.000000 1.000000 1.000000
v 5.090907 3.317493 -0.375000 1.000000 1.000000 1.000000 1.000000
v 5.818179 3.250000 -0.307507 0.360784 0.360784 1.000000 1.000000
v 5.818179 3.317493 -0.375000 0.000000 0.000000 1.000000 1.000000
v 6.545452 3.250000 -0.307507 1.000000 1.000000 1.000000 1.000000
v 6.545452 3.317493 -0.375000 1.000000 1.000000 1.000000 1.000000
v 7.272724 3.250000 -0.307507 1.000000 1.000000 1.000000 1.000000
v 7.272724 3.317493 -0.375000 1.000000 1.000000 1.000000 1.000000
v 7.999997 3.250000 -0.307507 1.000000 1.000000 1.000000 1.000000
v 7.999997 3.317493 -0.375000 1.000000 1.000000 1.000000 1.000000
v -0.000002 3.932506 -0.375000 0.000000 0.000000 1.000000 1.000000
v 0.727270 3.932506 -0.375000 0.972549 0.972549 1.000000 1.000000
v -0.000002 4.000000 -0.307507 0.000000 0.000000 1.000000 1.000000
v 0.727270 4.000000 -0.307507 0.000000 0.000000 1.000000 1.000000
v 1.454543 3.932506 -0.375000 1.000000 1.000000 1.000000 1.000000
v 1.454543 4.000000 -0.307507 1.000000 1.000000 1.000000 1.000000
v 2.181816 3.932506 -0.375000 1.000000 1.000000 1.000000 1.000000
v 2.181816 4.000000 -0.307507 0.647059 0.647059 1.000000 1.000000
v 2.909088 3.932506 -0.375000 0.694118 0.694118 1.000000 1.000000
v 2.909089 4.000000 -0.307507 0.078431 0.078431 1.000000 1.000000
v 3.636361 3.932506 -0.375000 0.000000 0.000000 1.000000 1.000000
v 3.636361 4.000000 -0.307507 0.000000 0.000000 1.000000 1.000000
v 4.363634 3.932506 -0.375000 0.000000 0.000000 1.000000 1.000000
v 4.363634 4.000000 -0.307507 0.000000 0.000000 1.000000 1.000000
v 5.090907 3.932506 -0.375000 0.000000 0.000000 1.000000 1.000000
v 5.090907 4.000000 -0.307507 0.000000 0.000000 1.000000 1.000000
v 5.818179 3.932506 -0.375000 0.000000 0.000000 1.000000 1.000000
v 5.818179 4.000000 -0.307507 0.000000 0.000000 1.000000 1.000000
v 6.545452 3.932506 -0.375000 0.000000 0.000000 1.000000 1.000000
v 6.545452 4.000000 -0.307507 0.000000 0.000000 1.000000 1.000000
v 7.272724 3.932506 -0.375000 0.000000 0.000000 1.000000 1.000000
v 7.272724 4.000000 -0.307507 0.000000 0.000000 1.000000 1.000000
v 7.999997 3.932506 -0.375000 0.000000 0.000000 1.000000 1.000000
v 7.999997 4.000000 -0.307507 0.000000 0.000000 1.000000 1.000000
v -0.000000 4.000000 0.307506 0.000000 0.000000 1.000000 1.000000
v 0.727273 4.000000 0.307506 0.000000 0.000000 1.000000 1.000000
v 0.000000 3.932506 0.374999 0.000000 0.000000 1.000000 1.000000
v 0.727273 3.932506 0.374999 0.000000 0.000000 1.000000 1.000000
v 1.454545 4.000000 0.307506 0.000000 0.000000 1.000000 1.000000
v 1.454545 3.932506 0.374999 0.000000 0.000000 1.000000 1.000000
v 2.181818 4.000000 0.307506 0.000000 0.000000 1.000000 1.000000
v 2.181818 3.932506 0.374999 0.000000 0.000000 1.000000 1.000000
v 2.909091 4.000000 0.307506 0.000000 0.000000 1.000000 1.000000
v 2.909091 3.932506 0.374999 0.000000 0.000000 1.000000 1.000000
v 3.636364 4.000000 0.307506 0.000000 0.000000 1.000000 1.000000
v 3.636364 3.932506 0.374999 0.000000 0.000000 1.000000 1.000000
v 4.363636 4.000000 0.307506 0.000000 0.000000 1.000000 1.000000
v 4.363636 3.932506 0.374999 0.000000 0.000000 1.000000 1.000000
v 5.090909 4.000000 0.307506 0.000000 0.000000 1.000000 1.000000
v 5.090909 3.932506 0.374999 0.000000 0.000000 1.000000 1.000000
v 5.818182 4.000000 0.307506 0.000000 0.000000 1.000000 1.000000
v 5.818182 3.932506 0.374999 0.000000 0.000000 1.000000 1.000000
v 6.545454 4.000000 0.307506 0.000000 0.000000 1.000000 1.000000
v 6.545454 3.932506 0.374999 0.000000 0.000000 1.000000 1.000000
v 7.272727 4.000000 0.307506 0.000000 0.000000 1.000000 1.000000
v 7.272727 3.932506 0.374999 0.000000 0.000000 1.000000 1.000000
v 8.000000 4.000000 0.307506 0.000000 0.000000 1.000000 1.000000
v 8.000000 3.932506 0.374999 0.000000 0.000000 1.000000 1.000000
v 8.000000 3.250000 0.307506 0.000000 0.000000 1.000000 1.000000
v 7.272727 3.250000 0.307506 0.000000 0.000000 1.000000 1.000000
v 8.000000 3.317493 0.375000 0.000000 0.000000 1.000000 1.000000
v 7.272727 3.317493 0.375000 0.000000 0.000000 1.000000 1.000000
v 6.545454 3.250000 0.307506 0.000000 0.000000 1.000000 1.000000
v 6.545454 3.317493 0.375000 0.000000 0.000000 1.000000 1.000000
v 5.818182 3.250000 0.307506 0.000000 0.000000 1.000000 1.000000
v 5.818182 3.317493 0.375000 0.000000 0.000000 1.000000 1.000000
v 5.090909 3.250000 0.307506 0.000000 0.000000 1.000000 1.000000
v 5.090909 3.317493 0.375000 0.000000 0.000000 1.000000 1.000000
v 4.363636 3.250000 0.307506 0.000000 0.000000 1.000000 1.000000
v -0.000000 3.317493 0.374999 0.000000 0.000000 1.000000 1.000000
v 3.636364 3.250000 0.307506 0.000000 0.000000 1.000000 1.000000
v 2.909091 3.250000 0.307506 0.000000 0.000000 1.000000 1.000000
v 2.181818 3.250000 0.307506 0.000000 0.000000 1.000000 1.000000
v 1.454545 3.250000 0.307506 0.000000 0.000000 1.000000 1.000000
v 0.727273 3.250000 0.307506 0.000000 0.000000 1.000000 1.000000
v -0.000000 3.250000 0.307506 0.000000 0.000000 1.000000 1.000000
v 7.272724 3.932506 -0.375000 0.000000 0.000000 1.000000 1.000000
v 7.999996 3.727502 -0.375000 0.000000 0.000000 1.000000 1.000000
v 7.999997 3.932506 -0.375000 0.000000 0.000000 1.000000 1.000000
v 7.999996 3.522497 -0.375000 0.000000 0.000000 1.000000 1.000000
v 6.545452 3.932506 -0.375000 0.000000 0.000000 1.000000 1.000000
v 7.272724 3.317493 -0.375000 1.000000 1.000000 1.000000 1.000000
v 7.999997 3.317493 -0.375000 1.000000 1.000000 1.000000 1.000000
v 6.545452 3.317493 -0.375000 1.000000 1.000000 1.000000 1.000000
v 5.818179 3.317493 -0.375000 0.000000 0.000000 1.000000 1.000000
v -0.000002 3.560012 -0.375000 0.000000 0.000000 1.000000 1.000000
v 5.818179 3.932506 -0.375000 0.000000 0.000000 1.000000 1.000000
v 5.090907 3.317493 -0.375000 1.000000 1.000000 1.000000 1.000000
v 5.090907 3.932506 -0.375000 0.000000 0.000000 1.000000 1.000000
v 4.363634 3.317493 -0.375000 0.905882 0.905882 1.000000 1.000000
v 4.363634 3.932506 -0.375000 0.000000 0.000000 1.000000 1.000000
v 3.636361 3.317493 -0.375000 1.000000 1.000000 1.000000 1.000000
v 3.636361 3.932506 -0.375000 0.000000 0.000000 1.000000 1.000000
v 2.909088 3.317493 -0.375000 1.000000 1.000000 1.000000 1.000000
v 2.909088 3.932506 -0.375000 0.694118 0.694118 1.000000 1.000000
v 2.181816 3.317493 -0.375000 1.000000 1.000000 1.000000 1.000000
v 2.181816 3.932506 -0.375000 1.000000 1.000000 1.000000 1.000000
v 1.454543 3.317493 -0.375000 1.000000 1.000000 1.000000 1.000000
v 1.454543 3.932506 -0.375000 1.000000 1.000000 1.000000 1.000000
v 0.727270 3.317493 -0.375000 1.000000 1.000000 1.000000 1.000000
v -0.000002 3.317493 -0.375000 0.000000 0.000000 1.000000 1.000000
v 0.727270 3.932506 -0.375000 0.972549 0.972549 1.000000 1.000000
v -0.000002 3.932506 -0.375000 0.000000 0.000000 1.000000 1.000000
v 0.727270 4.000000 -0.307507 0.000000 0.000000 1.000000 1.000000
v -0.000002 4.000000 -0.102503 0.000000 0.000000 1.000000 1.000000
v -0.000002 4.000000 -0.307507 0.000000 0.000000 1.000000 1.000000
v 2.920453 4.000000 0.078478 0.000000 0.000000 1.000000 1.000000
v 1.454543 4.000000 -0.307507 1.000000 1.000000 1.000000 1.000000
v 2.181816 4.000000 -0.307507 0.647059 0.647059 1.000000 1.000000
v 2.909089 4.000000 -0.307507 0.078431 0.078431 1.000000 1.000000
v -0.000001 4.000000 0.101276 0.000000 0.000000 1.000000 1.000000
v 3.636361 4.000000 -0.307507 0.000000 0.000000 1.000000 1.000000
v -0.000000 4.000000 0.307506 0.000000 0.000000 1.000000 1.000000
v 0.727273 4.000000 0.307506 0.000000 0.000000 1.000000 1.000000
v 1.454545 4.000000 0.307506 0.000000 0.000000 1.000000 1.000000
v 2.181818 4.000000 0.307506 0.000000 0.000000 1.000000 1.000000
v 2.909091 4.000000 0.307506 0.000000 0.000000 1.000000 1.000000
v 3.636364 4.000000 0.307506 0.000000 0.000000 1.000000 1.000000
v 4.363636 4.000000 0.102502 0.000000 0.000000 1.000000 1.000000
v 4.363636 4.000000 0.307506 0.000000 0.000000 1.000000 1.000000
v 4.818181 4.000000 -0.051252 0.000000 0.000000 1.000000 1.000000
v 4.363634 4.000000 -0.307507 0.000000 0.000000 1.000000 1.000000
v 5.090907 4.000000 -0.307507 0.000000 0.000000 1.000000 1.000000
v 5.818179 4.000000 -0.307507 0.000000 0.000000 1.000000 1.000000
v 5.090909 4.000000 0.307506 0.000000 0.000000 1.000000 1.000000
v 6.545452 4.000000 -0.307507 0.000000 0.000000 1.000000 1.000000
v 7.999998 4.000000 -0.103108 0.000000 0.000000 1.000000 1.000000
v 5.818182 4.000000 0.307506 0.000000 0.000000 1.000000 1.000000
v 7.272724 4.000000 -0.307507 0.000000 0.000000 1.000000 1.000000
v 7.999997 4.000000 -0.307507 0.000000 0.000000 1.000000 1.000000
v 6.545454 4.000000 0.307506 0.000000 0.000000 1.000000 1.000000
v 7.272727 4.000000 0.307506 0.000000 0.000000 1.000000 1.000000
v 8.000000 4.000000 0.307506 0.000000 0.000000 1.000000 1.000000
v 7.999999 3.250000 0.102502 0.000000 0.000000 1.000000 1.000000
v 7.272727 3.250000 0.307506 0.000000 0.000000 1.000000 1.000000
v 8.000000 3.250000 0.307506 0.000000 0.000000 1.000000 1.000000
v 6.230112 3.250000 -0.032032 0.000000 0.000000 1.000000 1.000000
v 6.545454 3.250000 0.307506 0.000000 0.000000 1.000000 1.000000
v 5.818182 3.250000 0.307506 0.000000 0.000000 1.000000 1.000000
v 5.090909 3.250000 0.307506 0.000000 0.000000 1.000000 1.000000
v 4.363636 3.250000 0.307506 0.000000 0.000000 1.000000 1.000000
v 3.636364 3.250000 0.307506 0.000000 0.000000 1.000000 1.000000
v 2.909091 3.250000 0.307506 0.000000 0.000000 1.000000 1.000000
v 7.999998 3.250000 -0.102547 1.000000 1.000000 1.000000 1.000000
v 2.181818 3.250000 0.307506 0.000000 0.000000 1.000000 1.000000
v 7.999997 3.250000 -0.307507 1.000000 1.000000 1.000000 1.000000
v 7.272724 3.250000 -0.307507 1.000000 1.000000 1.000000 1.000000
v 6.545452 3.250000 -0.307507 1.000000 1.000000 1.000000 1.000000
v 5.818179 3.250000 -0.307507 0.360784 0.360784 1.000000 1.000000
v 5.090907 3.250000 -0.307507 1.000000 1.000000 1.000000 1.000000
v 4.363634 3.250000 -0.307507 1.000000 1.000000 1.000000 1.000000
v 3.636361 3.250000 -0.307507 1.000000 1.000000 1.000000 1.000000
v 2.909089 3.250000 -0.307507 1.000000 1.000000 1.000000 1.000000
v -0.000001 3.250000 0.140981 0.000000 0.000000 1.000000 1.000000
v 2.181816 3.250000 -0.307507 1.000000 1.000000 1.000000 1.000000
v 1.454545 3.250000 0.307506 0.000000 0.000000 1.000000 1.000000
v 1.454543 3.250000 -0.307507 1.000000 1.000000 1.000000 1.000000
v 0.727273 3.250000 0.307506 0.000000 0.000000 1.000000 1.000000
v -0.000000 3.250000 0.307506 0.000000 0.000000 1.000000 1.000000
v 0.727270 3.250000 -0.307507 1.000000 1.000000 1.000000 1.000000
v -0.000002 3.250000 -0.307507 0.000000 0.000000 1.000000 1.000000
v 8.000000 3.317493 0.375000 0.000000 0.000000 1.000000 1.000000
v 7.272727 3.317493 0.375000 0.000000 0.000000 1.000000 1.000000
v 8.000000 3.564790 0.375000 0.000000 0.000000 1.000000 1.000000
v 6.545454 3.317493 0.375000 0.000000 0.000000 1.000000 1.000000
v 7.272727 3.932506 0.374999 0.000000 0.000000 1.000000 1.000000
v 8.000000 3.932506 0.374999 0.000000 0.000000 1.000000 1.000000
v 6.545454 3.932506 0.374999 0.000000 0.000000 1.000000 1.000000
v 5.818182 3.932506 0.374999 0.000000 0.000000 1.000000 1.000000
v 4.181818 3.605780 0.375000 0.000000 0.000000 1.000000 1.000000
v 5.818182 3.317493 0.375000 0.000000 0.000000 1.000000 1.000000
v 5.090909 3.932506 0.374999 0.000000 0.000000 1.000000 1.000000
v 5.090909 3.317493 0.375000 0.000000 0.000000 1.000000 1.000000
v 4.363636 3.932506 0.374999 0.000000 0.000000 1.000000 1.000000
v 3.636364 3.932506 0.374999 0.000000 0.000000 1.000000 1.000000
v 2.909091 3.932506 0.374999 0.000000 0.000000 1.000000 1.000000
v 2.181818 3.932506 0.374999 0.000000 0.000000 1.000000 1.000000
v -0.000000 3.317493 0.374999 0.000000 0.000000 1.000000 1.000000
v 1.272727 3.727502 0.374999 0.000000 0.000000 1.000000 1.000000
v 1.454545 3.932506 0.374999 0.000000 0.000000 1.000000 1.000000
v 0.727273 3.932506 0.374999 0.000000 0.000000 1.000000 1.000000
v 0.000000 3.932506 0.374999 0.000000 0.000000 1.000000 1.000000
v 1.454545 3.522497 0.375000 0.000000 0.000000 1.000000 1.000000
v 0.000000 3.500001 -0.250000 0.000000 0.000000 1.000000 1.000000
v 0.000000 -0.000000 -0.250000 0.000000 0.000000 1.000000 1.000000
v 3.601686 -0.000000 -0.250000 0.000000 0.411765 0.588235 1.000000
v 5.522324 -0.000000 -0.250000 0.000000 1.000000 0.000000 1.000000
v 8.000000 3.500000 -0.250000 0.000000 0.000000 1.000000 1.000000
v 8.000000 -0.000000 -0.250000 0.000000 0.000000 1.000000 1.000000
v 3.931818 2.868608 -0.250000 1.000000 1.000000 1.000000 1.000000
v 0.727311 3.500001 -0.250000 1.000000 1.000000 1.000000 1.000000
v 7.230608 3.500000 -0.250000 1.000000 1.000000 1.000000 1.000000
v 4.363561 3.500001 -0.250000 0.000000 0.000000 1.000000 1.000000
v 0.000000 3.500001 0.250000 0.000000 0.000000 1.000000 1.000000
v 0.727086 3.500001 0.250000 0.000000 0.000000 1.000000 1.000000
v 0.000000 2.099205 0.250000 0.000000 0.000000 1.000000 1.000000
v 4.388241 3.500001 0.250000 0.000000 0.000000 1.000000 1.000000
v 4.877930 2.301322 0.250000 0.000000 0.000000 1.000000 1.000000
v 7.203934 3.500000 0.250000 0.000000 0.000000 1.000000 1.000000
v 0.000000 0.865384 0.250000 0.000000 0.000000 1.000000 1.000000
v 8.000000 0.000000 0.250000 0.000000 0.000000 1.000000 1.000000
v 8.000000 3.500000 0.250000 0.000000 0.000000 1.000000 1.000000
v 5.383608 0.000000 0.250000 0.000000 0.000000 1.000000 1.000000
v 4.486903 0.000000 0.250000 0.000000 0.000000 1.000000 1.000000
v 3.469244 0.000000 0.250000 0.000000 0.000000 1.000000 1.000000
v 0.000000 0.000000 0.250000 0.000000 0.000000 1.000000 1.000000
vt -0.000000 0.115234
vt 0.090881 0.137695
vt -0.000000 0.137695
vt 0.090881 0.115234
vt 0.181763 0.137695
vt 0.181763 0.115234
vt 0.272705 0.137695
vt 0.272705 0.115234
vt 0.363525 0.137695
vt 0.363525 0.115234
vt 0.454346 0.137695
vt 0.454346 0.115234
vt 0.545410 0.115234
vt 0.545410 0.137695
vt 0.636230 0.115234
vt 0.636230 0.137695
vt 0.727051 0.115234
vt 0.727051 0.137695
vt 0.817871 0.115234
vt 0.817871 0.137695
vt 0.908691 0.115234
vt 0.908691 0.137695
vt 0.999512 0.115234
vt 0.999512 0.137695
vt -0.000000 0.235352
vt 0.090881 0.235352
vt 0.000009 0.256348
vt 0.090881 0.256348
vt 0.181763 0.235352
vt 0.181763 0.256348
vt 0.272705 0.235352
vt 0.272705 0.256348
vt 0.363525 0.235352
vt 0.363525 0.256348
vt 0.454346 0.235352
vt 0.454346 0.256348
vt 0.545410 0.235352
vt 0.545410 0.256348
vt 0.636230 0.235352
vt 0.636230 0.256348
vt 0.727051 0.235352
vt 0.727051 0.256348
vt 0.817871 0.235352
vt 0.817871 0.256348
vt 0.908691 0.235352
vt 0.908691 0.256348
vt 0.999512 0.235352
vt 0.999512 0.256348
vt 0.000009 0.346191
vt 0.090881 0.346191
vt 0.000000 0.365234
vt 0.090881 0.365234
vt 0.181763 0.346191
vt 0.181763 0.365234
vt 0.272705 0.346191
vt 0.272705 0.365234
vt 0.363525 0.346191
vt 0.363525 0.365234
vt 0.454346 0.346191
vt 0.454346 0.365234
vt 0.545410 0.346191
vt 0.545410 0.365234
vt 0.636230 0.346191
vt 0.636230 0.365234
vt 0.727051 0.346191
vt 0.727051 0.365234
vt 0.817871 0.346191
vt 0.817871 0.365234
vt 0.908691 0.346191
vt 0.908691 0.365234
vt 1.000000 0.346191
vt 1.000000 0.365234
vt 1.000000 0.463379
vt 0.908691 0.463379
vt 1.000000 0.453613
vt 0.908691 0.453613
vt 0.817871 0.463379
vt 0.817871 0.453613
vt 0.727051 0.463379
vt 0.727051 0.453613
vt 0.636230 0.463379
vt 0.636230 0.453613
vt 0.545410 0.463379
vt 0.000000 0.453613
vt 0.454346 0.463379
vt 0.363525 0.463379
vt 0.272705 0.463379
vt 0.181763 0.463379
vt 0.090881 0.463379
vt 0.000000 0.463379
vt 0.908691 0.235352
vt 0.999512 0.202637
vt 0.999512 0.235352
vt 0.999512 0.170410
vt 0.817871 0.235352
vt 0.908691 0.137695
vt 0.999512 0.137695
vt 0.817871 0.137695
vt 0.727051 0.137695
vt -0.000000 0.176270
vt 0.727051 0.235352
vt 0.636230 0.137695
vt 0.636230 0.235352
vt 0.545410 0.137695
vt 0.545410 0.235352
vt 0.454346 0.137695
vt 0.454346 0.235352
vt 0.363525 0.137695
vt 0.363525 0.235352
vt 0.272705 0.137695
vt 0.272705 0.235352
vt 0.181763 0.137695
vt 0.181763 0.235352
vt 0.090881 0.137695
vt -0.000000 0.137695
vt 0.090881 0.235352
vt -0.000000 0.235352
vt 0.090881 0.256348
vt 0.000009 0.286133
vt 0.000009 0.256348
vt 0.364990 0.312500
vt 0.181763 0.256348
vt 0.272705 0.256348
vt 0.363525 0.256348
vt 0.000009 0.315918
vt 0.454346 0.256348
vt 0.000009 0.346191
vt 0.090881 0.346191
vt 0.181763 0.346191
vt 0.272705 0.346191
vt 0.363525 0.346191
vt 0.454346 0.346191
vt 0.545410 0.315918
vt 0.545410 0.346191
vt 0.602051 0.293457
vt 0.545410 0.256348
vt 0.636230 0.256348
vt 0.727051 0.256348
vt 0.636230 0.346191
vt 0.817871 0.256348
vt 0.999512 0.286133
vt 0.727051 0.346191
vt 0.908691 0.256348
vt 0.999512 0.256348
vt 0.817871 0.346191
vt 0.908691 0.346191
vt 1.000000 0.346191
vt 0.999512 0.038574
vt 0.908691 0.000488
vt 1.000000 0.000488
vt 0.778320 0.063477
vt 0.817871 0.000488
vt 0.727051 0.000488
vt 0.636230 0.000488
vt 0.545410 0.000000
vt 0.454346 0.000000
vt 0.363525 0.000000
vt 0.999512 0.076660
vt 0.272705 0.000000
vt 0.999512 0.115234
vt 0.908691 0.115234
vt 0.817871 0.115234
vt 0.727051 0.115234
vt 0.636230 0.115234
vt 0.545410 0.115234
vt 0.454346 0.115234
vt 0.363525 0.115234
vt -0.000000 0.031250
vt 0.272705 0.115234
vt 0.181763 0.000000
vt 0.181763 0.115234
vt 0.090881 0.000000
vt 0.000000 0.000000
vt 0.090881 0.115234
vt -0.000000 0.115234
vt 1.000000 0.453613
vt 0.908691 0.453613
vt 1.000000 0.417969
vt 0.817871 0.453613
vt 0.908691 0.365234
vt 1.000000 0.365234
vt 0.817871 0.365234
vt 0.727051 0.365234
vt 0.522461 0.412109
vt 0.727051 0.453613
vt 0.636230 0.365234
vt 0.636230 0.453613
vt 0.545410 0.365234
vt 0.454346 0.365234
vt 0.363525 0.365234
vt 0.272705 0.365234
vt 0.000000 0.453613
vt 0.159058 0.394531
vt 0.181763 0.365234
vt 0.090881 0.365234
vt 0.000000 0.365234
vt 0.181763 0.424316
vt -1.998047 0.960388
vt -1.998047 0.522949
vt -1.547852 0.522949
vt -1.308594 0.522949
vt -0.998535 0.960388
vt -0.998535 0.522949
vt -1.506836 0.881470
vt -1.907227 0.960388
vt -1.094727 0.960388
vt -1.453125 0.960388
vt -2.000000 0.031250
vt -1.909180 0.031250
vt -2.000000 0.206543
vt -1.452148 0.031738
vt -1.390625 0.181152
vt -1.099609 0.031738
vt -2.000000 0.360840
vt -1.000977 0.469238
vt -1.000977 0.031738
vt -1.327148 0.469238
vt -1.439453 0.469238
vt -1.566406 0.468750
vt -2.000000 0.468750
vt1 -0.000000 0.115234
vt1 0.090881 0.137695
vt1 -0.000000 0.137695
vt1 0.090881 0.115234
vt1 0.181763 0.137695
vt1 0.181763 0.115234
vt1 0.272705 0.137695
vt1 0.272705 0.115234
vt1 0.363525 0.137695
vt1 0.363525 0.115234
vt1 0.454346 0.137695
vt1 0.454346 0.115234
vt1 0.545410 0.115234
vt1 0.545410 0.137695
vt1 0.636230 0.115234
vt1 0.636230 0.137695
vt1 0.727051 0.115234
vt1 0.727051 0.137695
vt1 0.817871 0.115234
vt1 0.817871 0.137695
vt1 0.908691 0.115234
vt1 0.908691 0.137695
vt1 0.999512 0.115234
vt1 0.999512 0.137695
vt1 -0.000000 0.235352
vt1 0.090881 0.235352
vt1 0.000009 0.256348
vt1 0.090881 0.256348
vt1 0.181763 0.235352
vt1 0.181763 0.256348
vt1 0.272705 0.235352
vt1 0.272705 0.256348
vt1 0.363525 0.235352
vt1 0.363525 0.256348
vt1 0.454346 0.235352
vt1 0.454346 0.256348
vt1 0.545410 0.235352
vt1 0.545410 0.256348
vt1 0.636230 0.235352
vt1 0.636230 0.256348
vt1 0.727051 0.235352
vt1 0.727051 0.256348
vt1 0.817871 0.235352
vt1 0.817871 0.256348
vt1 0.908691 0.235352
vt1 0.908691 0.256348
vt1 0.999512 0.235352
vt1 0.999512 0.256348
vt1 0.000009 0.346191
vt1 0.090881 0.346191
vt1 0.000000 0.365234
vt1 0.090881 0.365234
vt1 0.181763 0.346191
vt1 0.181763 0.365234
vt1 0.272705 0.346191
vt1 0.272705 0.365234
vt1 0.363525 0.346191
vt1 0.363525 0.365234
vt1 0.454346 0.346191
vt1 0.454346 0.365234
vt1 0.545410 0.346191
vt1 0.545410 0.365234
vt1 0.636230 0.346191
vt1 0.636230 0.365234
vt1 0.727051 0.346191
vt1 0.727051 0.365234
vt1 0.817871 0.346191
vt1 0.817871 0.365234
vt1 0.908691 0.346191
vt1 0.908691 0.365234
vt1 1.000000 0.346191
vt1 1.000000 0.365234
vt1 1.000000 0.463379
vt1 0.908691 0.463379
vt1 1.000000 0.453613
vt1 0.908691 0.453613
vt1 0.817871 0.463379
vt1 0.817871 0.453613
vt1 0.727051 0.463379
vt1 0.727051 0.453613
vt1 0.636230 0.463379
vt1 0.636230 0.453613
vt1 0.545410 0.463379
vt1 0.000000 0.453613
vt1 0.454346 0.463379
vt1 0.363525 0.463379
vt1 0.272705 0.463379
vt1 0.181763 0.463379
vt1 0.090881 0.463379
vt1 0.000000 0.463379
vt1 0.908691 0.235352
vt1 0.999512 0.202637
vt1 0.999512 0.235352
vt1 0.999512 0.170410
vt1 0.817871 0.235352
vt1 0.908691 0.137695
vt1 0.999512 0.137695
vt1 0.817871 0.137695
vt1 0.727051 0.137695
vt1 -0.000000 0.176270
vt1 0.727051 0.235352
vt1 0.636230 0.137695
vt1 0.636230 0.235352
vt1 0.545410 0.137695
vt1 0.545410 0.235352
vt1 0.454346 0.137695
vt1 0.454346 0.235352
vt1 0.363525 0.137695
vt1 0.363525 0.235352
vt1 0.272705 0.137695
vt1 0.272705 0.235352
vt1 0.181763 0.137695
vt1 0.181763 0.235352
vt1 0.090881 0.137695
vt1 -0.000000 0.137695
vt1 0.090881 0.235352
vt1 -0.000000 0.235352
vt1 0.090881 0.256348
vt1 0.000009 0.286133
vt1 0.000009 0.256348
vt1 0.364990 0.312500
vt1 0.181763 0.256348
vt1 0.272705 0.256348
vt1 0.363525 0.256348
vt1 0.000009 0.315918
vt1 0.454346 0.256348
vt1 0.000009 0.346191
vt1 0.090881 0.346191
vt1 0.181763 0.346191
vt1 0.272705 0.346191
vt1 0.363525 0.346191
vt1 0.454346 0.346191
vt1 0.545410 0.315918
vt1 0.545410 0.346191
vt1 0.602051 0.293457
vt1 0.545410 0.256348
vt1 0.636230 0.256348
vt1 0.727051 0.256348
vt1 0.636230 0.346191
vt1 0.817871 0.256348
vt1 0.999512 0.286133
vt1 0.727051 0.346191
vt1 0.908691 0.256348
vt1 0.999512 0.256348
vt1 0.817871 0.346191
vt1 0.908691 0.346191
vt1 1.000000 0.346191
vt1 0.999512 0.038574
vt1 0.908691 0.000488
vt1 1.000000 0.000488
vt1 0.778320 0.063477
vt1 0.817871 0.000488
vt1 0.727051 0.000488
vt1 0.636230 0.000488
vt1 0.545410 0.000000
vt1 0.454346 0.000000
vt1 0.363525 0.000000
vt1 0.999512 0.076660
vt1 0.272705 0.000000
vt1 0.999512 0.115234
vt1 0.908691 0.115234
vt1 0.817871 0.115234
vt1 0.727051 0.115234
vt1 0.636230 0.115234
vt1 0.545410 0.115234
vt1 0.454346 0.115234
vt1 0.363525 0.115234
vt1 -0.000000 0.031250
vt1 0.272705 0.115234
vt1 0.181763 0.000000
vt1 0.181763 0.115234
vt1 0.090881 0.000000
vt1 0.000000 0.000000
vt1 0.090881 0.115234
vt1 -0.000000 0.115234
vt1 1.000000 0.453613
vt1 0.908691 0.453613
vt1 1.000000 0.417969
vt1 0.817871 0.453613
vt1 0.908691 0.365234
vt1 1.000000 0.365234
vt1 0.817871 0.365234
vt1 0.727051 0.365234
vt1 0.522461 0.412109
vt1 0.727051 0.453613
vt1 0.636230 0.365234
vt1 0.636230 0.453613
vt1 0.545410 0.365234
vt1 0.454346 0.365234
vt1 0.363525 0.365234
vt1 0.272705 0.365234
vt1 0.000000 0.453613
vt1 0.159058 0.394531
vt1 0.181763 0.365234
vt1 0.090881 0.365234
vt1 0.000000 0.365234
vt1 0.181763 0.424316
vt1 -1.998047 0.960388
vt1 -1.998047 0.522949
vt1 -1.547852 0.522949
vt1 -1.308594 0.522949
vt1 -0.998535 0.960388
vt1 -0.998535 0.522949
vt1 -1.506836 0.881470
vt1 -1.907227 0.960388
vt1 -1.094727 0.960388
vt1 -1.453125 0.960388
vt1 -2.000000 0.031250
vt1 -1.909180 0.031250
vt1 -2.000000 0.206543
vt1 -1.452148 0.031738
vt1 -1.390625 0.181152
vt1 -1.099609 0.031738
vt1 -2.000000 0.360840
vt1 -1.000977 0.469238
vt1 -1.000977 0.031738
vt1 -1.327148 0.469238
vt1 -1.439453 0.469238
vt1 -1.566406 0.468750
vt1 -2.000000 0.468750
vn 0.000000 -0.708661 -0.708661
vn 0.000000 -0.708661 -0.708661
vn 0.000000 -0.708661 -0.708661
vn 0.000000 -0.708661 -0.708661
vn 0.000000 -0.708661 -0.708661
vn 0.000000 -0.708661 -0.708661
vn 0.000000 -0.708661 -0.708661
vn 0.000000 -0.708661 -0.708661
vn 0.000000 -0.708661 -0.708661
vn 0.000000 -0.708661 -0.708661
vn 0.000000 -0.708661 -0.708661
vn 0.000000 -0.708661 -0.708661
vn 0.000000 -0.708661 -0.708661
vn 0.000000 -0.708661 -0.708661
vn 0.000000 -0.708661 -0.708661
vn 0.000000 -0.708661 -0.708661
vn 0.000000 -0.708661 -0.708661
vn 0.000000 -0.708661 -0.708661
vn 0.000000 -0.708661 -0.708661
vn 0.000000 -0.708661 -0.708661
vn 0.000000 -0.708661 -0.708661
vn 0.000000 -0.708661 -0.708661
vn 0.000000 -0.708661 -0.708661
vn 0.000000 -0.708661 -0.708661
vn 0.000000 0.708661 -0.708661
vn 0.000000 0.708661 -0.708661
vn 0.000000 0.708661 -0.708661
vn 0.000000 0.708661 -0.708661
vn 0.000000 0.708661 -0.708661
vn 0.000000 0.708661 -0.708661
vn 0.000000 0.708661 -0.708661
vn 0.000000 0.708661 -0.708661
vn 0.000000 0.708661 -0.708661
vn 0.000000 0.708661 -0.708661
vn 0.000000 0.708661 -0.708661
vn 0.000000 0.708661 -0.708661
vn 0.000000 0.708661 -0.708661
vn 0.000000 0.708661 -0.708661
vn 0.000000 0.708661 -0.708661
vn 0.000000 0.708661 -0.708661
vn 0.000000 0.708661 -0.708661
vn 0.000000 0.708661 -0.708661
vn 0.000000 0.708661 -0.708661
vn 0.000000 0.708661 -0.708661
vn 0.000000 0.708661 -0.708661
vn 0.000000 0.708661 -0.708661
vn 0.000000 0.708661 -0.708661
vn 0.000000 0.708661 -0.708661
vn 0.000000 0.708661 0.708661
vn 0.000000 0.708661 0.708661
vn 0.000000 0.708661 0.708661
vn 0.000000 0.708661 0.708661
vn 0.000000 0.708661 0.708661
vn 0.000000 0.708661 0.708661
vn 0.000000 0.708661 0.708661
vn 0.000000 0.708661 0.708661
vn 0.000000 0.708661 0.708661
vn 0.000000 0.708661 0.708661
vn 0.000000 0.708661 0.708661
vn 0.000000 0.708661 0.708661
vn 0.000000 0.708661 0.708661
vn 0.000000 0.708661 0.708661
vn 0.000000 0.708661 0.708661
vn 0.000000 0.708661 0.708661
vn 0.000000 0.708661 0.708661
vn 0.000000 0.708661 0.708661
vn 0.000000 0.708661 0.708661
vn 0.000000 0.708661 0.708661
vn 0.000000 0.708661 0.708661
vn 0.000000 0.708661 0.708661
vn 0.000000 0.708661 0.708661
vn 0.000000 0.708661 0.708661
vn 0.000000 -0.708661 0.708661
vn 0.000000 -0.708661 0.708661
vn 0.000000 -0.708661 0.708661
vn 0.000000 -0.708661 0.708661
vn 0.000000 -0.708661 0.708661
vn 0.000000 -0.708661 0.708661
vn 0.000000 -0.708661 0.708661
vn 0.000000 -0.708661 0.708661
vn 0.000000 -0.708661 0.708661
vn 0.000000 -0.708661 0.708661
vn 0.000000 -0.708661 0.708661
vn 0.000000 -0.708661 0.708661
vn 0.000000 -0.708661 0.708661
vn 0.000000 -0.708661 0.708661
vn 0.000000 -0.708661 0.708661
vn 0.000000 -0.708661 0.708661
vn 0.000000 -0.708661 0.708661
vn 0.000000 -0.708661 0.708661
vn 0.000000 -0.000000 -1.000000
vn 0.000000 -0.000000 -1.000000
vn 0.000000 -0.000000 -1.000000
vn 0.000000 -0.000000 -1.000000
vn 0.000000 -0.000000 -1.000000
vn 0.000000 -0.000000 -1.000000
vn 0.000000 -0.000000 -1.000000
vn 0.000000 -0.000000 -1.000000
vn 0.000000 -0.000000 -1.000000
vn 0.000000 -0.000000 -1.000000
vn 0.000000 -0.000000 -1.000000
vn 0.000000 -0.000000 -1.000000
vn 0.000000 -0.000000 -1.000000
vn 0.000000 -0.000000 -1.000000
vn 0.000000 -0.000000 -1.000000
vn 0.000000 -0.000000 -1.000000
vn 0.000000 -0.000000 -1.000000
vn 0.000000 -0.000000 -1.000000
vn 0.000000 -0.000000 -1.000000
vn 0.000000 -0.000000 -1.000000
vn 0.000000 -0.000000 -1.000000
vn 0.000000 -0.000000 -1.000000
vn 0.000000 -0.000000 -1.000000
vn 0.000000 -0.000000 -1.000000
vn 0.000000 -0.000000 -1.000000
vn 0.000000 -0.000000 -1.000000
vn 0.000000 -0.000000 -1.000000
vn 0.000000 1.000000 -0.000000
vn 0.000000 1.000000 -0.000000
vn 0.000000 1.000000 -0.000000
vn 0.000000 1.000000 -0.000000
vn 0.000000 1.000000 -0.000000
vn 0.000000 1.000000 -0.000000
vn 0.000000 1.000000 -0.000000
vn 0.000000 1.000000 -0.000000
vn 0.000000 1.000000 -0.000000
vn 0.000000 1.000000 -0.000000
vn 0.000000 1.000000 -0.000000
vn 0.000000 1.000000 -0.000000
vn 0.000000 1.000000 -0.000000
vn 0.000000 1.000000 -0.000000
vn 0.000000 1.000000 -0.000000
vn 0.000000 1.000000 -0.000000
vn 0.000000 1.000000 -0.000000
vn 0.000000 1.000000 -0.000000
vn 0.000000 1.000000 -0.000000
vn 0.000000 1.000000 -0.000000
vn 0.000000 1.000000 -0.000000
vn 0.000000 1.000000 -0.000000
vn 0.000000 1.000000 -0.000000
vn 0.000000 1.000000 -0.000000
vn 0.000000 1.000000 -0.000000
vn 0.000000 1.000000 -0.000000
vn 0.000000 1.000000 -0.000000
vn 0.000000 1.000000 -0.000000
vn 0.000000 1.000000 -0.000000
vn 0.000000 1.000000 -0.000000
vn 0.000000 -1.000000 0.000000
vn 0.000000 -1.000000 0.000000
vn 0.000000 -1.000000 0.000000
vn 0.000000 -1.000000 0.000000
vn 0.000000 -1.000000 0.000000
vn 0.000000 -1.000000 0.000000
vn 0.000000 -1.000000 0.000000
vn 0.000000 -1.000000 0.000000
vn 0.000000 -1.000000 0.000000
vn 0.000000 -1.000000 0.000000
vn 0.000000 -1.000000 0.000000
vn 0.000000 -1.000000 0.000000
vn 0.000000 -1.000000 0.000000
vn 0.000000 -1.000000 0.000000
vn 0.000000 -1.000000 0.000000
vn 0.000000 -1.000000 0.000000
vn 0.000000 -1.000000 0.000000
vn 0.000000 -1.000000 0.000000
vn 0.000000 -1.000000 0.000000
vn 0.000000 -1.000000 0.000000
vn 0.000000 -1.000000 0.000000
vn 0.000000 -1.000000 0.000000
vn 0.000000 -1.000000 0.000000
vn 0.000000 -1.000000 0.000000
vn 0.000000 -1.000000 0.000000
vn 0.000000 -1.000000 0.000000
vn 0.000000 -1.000000 0.000000
vn 0.000000 -1.000000 0.000000
vn 0.000000 0.000000 1.000000
vn 0.000000 0.000000 1.000000
vn 0.000000 0.000000 1.000000
vn 0.000000 0.000000 1.000000
vn 0.000000 0.000000 1.000000
vn 0.000000 0.000000 1.000000
vn 0.000000 0.000000 1.000000
vn 0.000000 0.000000 1.000000
vn 0.000000 0.000000 1.000000
vn 0.000000 0.000000 1.000000
vn 0.000000 0.000000 1.000000
vn 0.000000 0.000000 1.000000
vn 0.000000 0.000000 1.000000
vn 0.000000 0.000000 1.000000
vn 0.000000 0.000000 1.000000
vn 0.000000 0.000000 1.000000
vn 0.000000 0.000000 1.000000
vn 0.000000 0.000000 1.000000
vn 0.000000 0.000000 1.000000
vn 0.000000 0.000000 1.000000
vn 0.000000 0.000000 1.000000
vn 0.000000 0.000000 1.000000
vn 0.000000 -0.000000 -1.000000
vn 0.000000 -0.000000 -1.000000
vn 0.000000 -0.000000 -1.000000
vn 0.000000 -0.000000 -1.000000
vn 0.000000 -0.000000 -1.000000
vn 0.000000 -0.000000 -1.000000
vn 0.000000 -0.000000 -1.000000
vn 0.000000 -0.000000 -1.000000
vn 0.000000 -0.000000 -1.000000
vn 0.000000 -0.000000 -1.000000
vn 0.000000 0.000000 1.000000
vn 0.000000 0.000000 1.000000
vn 0.000000 0.000000 1.000000
vn 0.000000 0.000000 1.000000
vn 0.000000 0.000000 1.000000
vn 0.000000 0.000000 1.000000
vn 0.000000 0.000000 1.000000
vn 0.000000 0.000000 1.000000
vn 0.000000 0.000000 1.000000
vn 0.000000 0.000000 1.000000
vn 0.000000 0.000000 1.000000
vn 0.000000 0.000000 1.000000
vn 0.000000 0.000000 1.000000
tan 0.000000 -0.708661 0.708661 1.000000
tan 0.000000 -0.708661 0.708661 1.000000
tan 0.000000 -0.708661 0.708661 1.000000
tan 0.000000 -0.708661 0.708661 1.000000
tan 0.000000 -0.708661 0.708661 1.000000
tan 0.000000 -0.708661 0.708661 1.000000
tan 0.000000 -0.708661 0.708661 1.000000
tan 0.000000 -0.708661 0.708661 1.000000
tan 0.000000 -0.708661 0.708661 1.000000
tan 0.000000 -0.708661 0.708661 1.000000
tan 0.000000 -0.708661 0.708661 1.000000
tan 0.000000 -0.708661 0.708661 1.000000
tan 0.000000 -0.708661 0.708661 1.000000
tan 0.000000 -0.708661 0.708661 1.000000
tan 0.000000 -0.708661 0.708661 1.000000
tan 0.000000 -0.708661 0.708661 1.000000
tan 0.000000 -0.708661 0.708661 1.000000
tan 0.000000 -0.708661 0.708661 1.000000
tan 0.000000 -0.708661 0.708661 1.000000
tan 0.000000 -0.708661 0.708661 1.000000
tan 0.000000 -0.708661 0.708661 1.000000
tan 0.000000 -0.708661 0.708661 1.000000
tan 0.000000 -0.708661 0.708661 1.000000
tan 0.000000 -0.708661 0.708661 1.000000
tan 0.000000 -0.708661 -0.708661 1.000000
tan 0.000000 -0.708661 -0.708661 1.000000
tan 0.000000 -0.708661 -0.708661 1.000000
tan 0.000000 -0.708661 -0.708661 1.000000
tan 0.000000 -0.708661 -0.708661 1.000000
tan 0.000000 -0.708661 -0.708661 1.000000
tan 0.000000 -0.708661 -0.708661 1.000000
tan 0.000000 -0.708661 -0.708661 1.000000
tan 0.000000 -0.708661 -0.708661 1.000000
tan 0.000000 -0.708661 -0.708661 1.000000
tan 0.000000 -0.708661 -0.708661 1.000000
tan 0.000000 -0.708661 -0.708661 1.000000
tan 0.000000 -0.708661 -0.708661 1.000000
tan 0.000000 -0.708661 -0.708661 1.000000
tan 0.000000 -0.708661 -0.708661 1.000000
tan 0.000000 -0.708661 -0.708661 1.000000
tan 0.000000 -0.708661 -0.708661 1.000000
tan 0.000000 -0.708661 -0.708661 1.000000
tan 0.000000 -0.708661 -0.708661 1.000000
tan 0.000000 -0.708661 -0.708661 1.000000
tan 0.000000 -0.708661 -0.708661 1.000000
tan 0.000000 -0.708661 -0.708661 1.000000
tan 0.000000 -0.708661 -0.708661 1.000000
tan 0.000000 -0.708661 -0.708661 1.000000
tan 0.000000 0.708661 -0.708661 1.000000
tan 0.000000 0.708661 -0.708661 1.000000
tan 0.000000 0.708661 -0.708661 1.000000
tan 0.000000 0.708661 -0.708661 1.000000
tan 0.000000 0.708661 -0.708661 1.000000
tan 0.000000 0.708661 -0.708661 1.000000
tan 0.000000 0.708661 -0.708661 1.000000
tan 0.000000 0.708661 -0.708661 1.000000
tan 0.000000 0.708661 -0.708661 1.000000
tan 0.000000 0.708661 -0.708661 1.000000
tan 0.000000 0.708661 -0.708661 1.000000
tan 0.000000 0.708661 -0.708661 1.000000
tan 0.000000 0.708661 -0.708661 1.000000
tan 0.000000 0.708661 -0.708661 1.000000
tan 0.000000 0.708661 -0.708661 1.000000
tan 0.000000 0.708661 -0.708661 1.000000
tan 0.000000 0.708661 -0.708661 1.000000
tan 0.000000 0.708661 -0.708661 1.000000
tan 0.000000 0.708661 -0.708661 1.000000
tan 0.000000 0.708661 -0.708661 1.000000
tan 0.000000 0.708661 -0.708661 1.000000
tan 0.000000 0.708661 -0.708661 1.000000
tan 0.000000 0.708661 -0.708661 1.000000
tan 0.000000 0.708661 -0.708661 1.000000
tan 0.000000 0.708661 0.708661 1.000000
tan 0.000000 0.708661 0.708661 1.000000
tan 0.000000 0.708661 0.708661 1.000000
tan 0.000000 0.708661 0.708661 1.000000
tan 0.000000 0.708661 0.708661 1.000000
tan 0.000000 0.708661 0.708661 1.000000
tan 0.000000 0.708661 0.708661 1.000000
tan 0.000000 0.708661 0.708661 1.000000
tan 0.000000 0.708661 0.708661 1.000000
tan 0.000000 0.708661 0.708661 1.000000
tan 0.000000 0.708661 0.708661 1.000000
tan 0.000000 0.708661 0.708661 1.000000
tan 0.000000 0.708661 0.708661 1.000000
tan 0.000000 0.708661 0.708661 1.000000
tan 0.000000 0.708661 0.708661 1.000000
tan 0.000000 0.708661 0.708661 1.000000
tan 0.000000 0.708661 0.708661 1.000000
tan 0.000000 0.708661 0.708661 1.000000
tan 0.000000 -1.000000 0.000000 1.000000
tan 0.000000 -1.000000 0.000000 1.000000
tan 0.000000 -1.000000 0.000000 1.000000
tan 0.000000 -1.000000 0.000000 1.000000
tan 0.000000 -1.000000 0.000000 1.000000
tan 0.000000 -1.000000 0.000000 1.000000
tan 0.000000 -1.000000 0.000000 1.000000
tan 0.000000 -1.000000 0.000000 1.000000
tan 0.000000 -1.000000 0.000000 1.000000
tan 0.000000 -1.000000 0.000000 1.000000
tan 0.000000 -1.000000 0.000000 1.000000
tan 0.000000 -1.000000 0.000000 1.000000
tan 0.000000 -1.000000 0.000000 1.000000
tan 0.000000 -1.000000 0.000000 1.000000
tan 0.000000 -1.000000 0.000000 1.000000
tan 0.000000 -1.000000 0.000000 1.000000
tan 0.000000 -1.000000 0.000000 1.000000
tan 0.000000 -1.000000 0.000000 1.000000
tan 0.000000 -1.000000 0.000000 1.000000
tan 0.000000 -1.000000 0.000000 1.000000
tan 0.000000 -1.000000 0.000000 1.000000
tan 0.000000 -1.000000 0.000000 1.000000
tan 0.000000 -1.000000 0.000000 1.000000
tan 0.000000 -1.000000 0.000000 1.000000
tan 0.000000 -1.000000 0.000000 1.000000
tan 0.000000 -1.000000 0.000000 1.000000
tan 0.000000 -1.000000 0.000000 1.000000
tan 0.000000 -0.000000 -1.000000 1.000000
tan 0.000000 -0.000000 -1.000000 1.000000
tan 0.000000 -0.000000 -1.000000 1.000000
tan 0.000000 -0.000000 -1.000000 1.000000
tan 0.000000 -0.000000 -1.000000 1.000000
tan 0.000000 -0.000000 -1.000000 1.000000
tan 0.000000 -0.000000 -1.000000 1.000000
tan 0.000000 -0.000000 -1.000000 1.000000
tan 0.000000 -0.000000 -1.000000 1.000000
tan 0.000000 -0.000000 -1.000000 1.000000
tan 0.000000 -0.000000 -1.000000 1.000000
tan 0.000000 -0.000000 -1.000000 1.000000
tan 0.000000 -0.000000 -1.000000 1.000000
tan 0.000000 -0.000000 -1.000000 1.000000
tan 0.000000 -0.000000 -1.000000 1.000000
tan 0.000000 -0.000000 -1.000000 1.000000
tan 0.000000 -0.000000 -1.000000 1.000000
tan 0.000000 -0.000000 -1.000000 1.000000
tan 0.000000 -0.000000 -1.000000 1.000000
tan 0.000000 -0.000000 -1.000000 1.000000
tan 0.000000 -0.000000 -1.000000 1.000000
tan 0.000000 -0.000000 -1.000000 1.000000
tan 0.000000 -0.000000 -1.000000 1.000000
tan 0.000000 -0.000000 -1.000000 1.000000
tan 0.000000 -0.000000 -1.000000 1.000000
tan 0.000000 -0.000000 -1.000000 1.000000
tan 0.000000 -0.000000 -1.000000 1.000000
tan 0.000000 -0.000000 -1.000000 1.000000
tan 0.000000 -0.000000 -1.000000 1.000000
tan 0.000000 -0.000000 -1.000000 1.000000
tan 0.000000 0.000000 1.000000 1.000000
tan 0.000000 0.000000 1.000000 1.000000
tan 0.000000 0.000000 1.000000 1.000000
tan 0.000000 0.000000 1.000000 1.000000
tan 0.000000 0.000000 1.000000 1.000000
tan 0.000000 0.000000 1.000000 1.000000
tan 0.000000 0.000000 1.000000 1.000000
tan 0.000000 0.000000 1.000000 1.000000
tan 0.000000 0.000000 1.000000 1.000000
tan 0.000000 0.000000 1.000000 1.000000
tan 0.000000 0.000000 1.000000 1.000000
tan 0.000000 0.000000 1.000000 1.000000
tan 0.000000 0.000000 1.000000 1.000000
tan 0.000000 0.000000 1.000000 1.000000
tan 0.000000 0.000000 1.000000 1.000000
tan 0.000000 0.000000 1.000000 1.000000
tan 0.000000 0.000000 1.000000 1.000000
tan 0.000000 0.000000 1.000000 1.000000
tan 0.000000 0.000000 1.000000 1.000000
tan 0.000000 0.000000 1.000000 1.000000
tan 0.000000 0.000000 1.000000 1.000000
tan 0.000000 0.000000 1.000000 1.000000
tan 0.000000 0.000000 1.000000 1.000000
tan 0.000000 0.000000 1.000000 1.000000
tan 0.000000 0.000000 1.000000 1.000000
tan 0.000000 0.000000 1.000000 1.000000
tan 0.000000 0.000000 1.000000 1.000000
tan 0.000000 0.000000 1.000000 1.000000
tan 0.000000 1.000000 -0.000000 1.000000
tan 0.000000 1.000000 -0.000000 1.000000
tan 0.000000 1.000000 -0.000000 1.000000
tan 0.000000 1.000000 -0.000000 1.000000
tan 0.000000 1.000000 -0.000000 1.000000
tan 0.000000 1.000000 -0.000000 1.000000
tan 0.000000 1.000000 -0.000000 1.000000
tan 0.000000 1.000000 -0.000000 1.000000
tan 0.000000 1.000000 -0.000000 1.000000
tan 0.000000 1.000000 -0.000000 1.000000
tan 0.000000 1.000000 -0.000000 1.000000
tan 0.000000 1.000000 -0.000000 1.000000
tan 0.000000 1.000000 -0.000000 1.000000
tan 0.000000 1.000000 -0.000000 1.000000
tan 0.000000 1.000000 -0.000000 1.000000
tan 0.000000 1.000000 -0.000000 1.000000
tan 0.000000 1.000000 -0.000000 1.000000
tan 0.000000 1.000000 -0.000000 1.000000
tan 0.000000 1.000000 -0.000000 1.000000
tan 0.000000 1.000000 -0.000000 1.000000
tan 0.000000 1.000000 -0.000000 1.000000
tan 0.000000 1.000000 -0.000000 1.000000
tan 0.000000 -1.000000 0.000000 1.000000
tan 0.000000 -1.000000 0.000000 1.000000
tan 0.000000 -1.000000 0.000000 1.000000
tan 0.000000 -1.000000 0.000000 1.000000
tan 0.000000 -1.000000 0.000000 1.000000
tan 0.000000 -1.000000 0.000000 1.000000
tan 0.000000 -1.000000 0.000000 1.000000
tan 0.000000 -1.000000 0.000000 1.000000
tan 0.000000 -1.000000 0.000000 1.000000
tan 0.000000 -1.000000 0.000000 1.000000
tan 0.000000 1.000000 -0.000000 1.000000
tan 0.000000 1.000000 -0.000000 1.000000
tan 0.000000 1.000000 -0.000000 1.000000
tan 0.000000 1.000000 -0.000000 1.000000
tan 0.000000 1.000000 -0.000000 1.000000
tan 0.000000 1.000000 -0.000000 1.000000
tan 0.000000 1.000000 -0.000000 1.000000
tan 0.000000 1.000000 -0.000000 1.000000
tan 0.000000 1.000000 -0.000000 1.000000
tan 0.000000 1.000000 -0.000000 1.000000
tan 0.000000 1.000000 -0.000000 1.000000
tan 0.000000 1.000000 -0.000000 1.000000
tan 0.000000 1.000000 -0.000000 1.000000
f 3/3/3 2/2/2 1/1/1
f 4/4/4 1/1/1 2/2/2
f 2/2/2 5/5/5 4/4/4
f 6/6/6 4/4/4 5/5/5
f 5/5/5 7/7/7 6/6/6
f 8/8/8 6/6/6 7/7/7
f 7/7/7 9/9/9 8/8/8
f 10/10/10 8/8/8 9/9/9
f 9/9/9 11/11/11 10/10/10
f 12/12/12 10/10/10 11/11/11
f 11/11/11 13/13/13 12/12/12
f 13/13/13 11/11/11 14/14/14
f 14/14/14 15/15/15 13/13/13
f 15/15/15 14/14/14 16/16/16
f 16/16/16 17/17/17 15/15/15
f 17/17/17 16/16/16 18/18/18
f 18/18/18 19/19/19 17/17/17
f 19/19/19 18/18/18 20/20/20
f 20/20/20 21/21/21 19/19/19
f 21/21/21 20/20/20 22/22/22
f 22/22/22 23/23/23 21/21/21
f 23/23/23 22/22/22 24/24/24
f 27/27/27 26/26/26 25/25/25
f 26/26/26 27/27/27 28/28/28
f 28/28/28 29/29/29 26/26/26
f 29/29/29 28/28/28 30/30/30
f 30/30/30 31/31/31 29/29/29
f 31/31/31 30/30/30 32/32/32
f 32/32/32 33/33/33 31/31/31
f 33/33/33 32/32/32 34/34/34
f 34/34/34 35/35/35 33/33/33
f 35/35/35 34/34/34 36/36/36
f 36/36/36 37/37/37 35/35/35
f 37/37/37 36/36/36 38/38/38
f 38/38/38 39/39/39 37/37/37
f 39/39/39 38/38/38 40/40/40
f 40/40/40 41/41/41 39/39/39
f 41/41/41 40/40/40 42/42/42
f 42/42/42 43/43/43 41/41/41
f 43/43/43 42/42/42 44/44/44
f 44/44/44 45/45/45 43/43/43
f 45/45/45 44/44/44 46/46/46
f 46/46/46 47/47/47 45/45/45
f 47/47/47 46/46/46 48/48/48
f 51/51/51 50/50/50 49/49/49
f 50/50/50 51/51/51 52/52/52
f 52/52/52 53/53/53 50/50/50
f 53/53/53 52/52/52 54/54/54
f 54/54/54 55/55/55 53/53/53
f 55/55/55 54/54/54 56/56/56
f 56/56/56 57/57/57 55/55/55
f 57/57/57 56/56/56 58/58/58
f 58/58/58 59/59/59 57/57/57
f 59/59/59 58/58/58 60/60/60
f 60/60/60 61/61/61 59/59/59
f 61/61/61 60/60/60 62/62/62
f 62/62/62 63/63/63 61/61/61
f 63/63/63 62/62/62 64/64/64
f 64/64/64 65/65/65 63/63/63
f 65/65/65 64/64/64 66/66/66
f 66/66/66 67/67/67 65/65/65
f 67/67/67 66/66/66 68/68/68
f 68/68/68 69/69/69 67/67/67
f 69/69/69 68/68/68 70/70/70
f 70/70/70 71/71/71 69/69/69
f 71/71/71 70/70/70 72/72/72
f 75/75/75 74/74/74 73/73/73
f 74/74/74 75/75/75 76/76/76
f 76/76/76 77/77/77 74/74/74
f 77/77/77 76/76/76 78/78/78
f 78/78/78 79/79/79 77/77/77
f 79/79/79 78/78/78 80/80/80
f 80/80/80 81/81/81 79/79/79
f 81/81/81 80/80/80 82/82/82
f 82/82/82 83/83/83 81/81/81
f 83/83/83 82/82/82 84/84/84
f 84/84/84 85/85/85 83/83/83
f 84/84/84 86/86/86 85/85/85
f 84/84/84 87/87/87 86/86/86
f 84/84/84 88/88/88 87/87/87
f 89/89/89 88/88/88 84/84/84
f 90/90/90 89/89/89 84/84/84
f 93/93/93 92/92/92 91/91/91
f 94/94/94 91/91/91 92/92/92
f 94/94/94 95/95/95 91/91/91
f 97/97/97 96/96/96 94/94/94
f 96/96/96 98/98/98 94/94/94
f 98/98/98 99/99/99 94/94/94
f 94/94/94 100/100/100 95/95/95
f 94/94/94 99/99/99 100/100/100
f 100/100/100 101/101/101 95/95/95
f 102/102/102 100/100/100 99/99/99
f 103/103/103 101/101/101 100/100/100
f 104/104/104 100/100/100 102/102/102
f 100/100/100 105/105/105 103/103/103
f 104/104/104 106/106/106 100/100/100
f 107/107/107 105/105/105 100/100/100
f 106/106/106 108/108/108 100/100/100
f 100/100/100 109/109/109 107/107/107
f 108/108/108 110/110/110 100/100/100
f 100/100/100 111/111/111 109/109/109
f 110/110/110 112/112/112 100/100/100
f 100/100/100 113/113/113 111/111/111
f 112/112/112 114/114/114 100/100/100
f 114/114/114 115/115/115 100/100/100
f 116/116/116 113/113/113 100/100/100
f 117/117/117 116/116/116 100/100/100
f 120/120/120 119/119/119 118/118/118
f 121/121/121 118/118/118 119/119/119
f 118/118/118 121/121/121 122/122/122
f 122/122/122 121/121/121 123/123/123
f 123/123/123 121/121/121 124/124/124
f 119/119/119 125/125/125 121/121/121
f 124/124/124 121/121/121 126/126/126
f 128/128/128 125/125/125 127/127/127
f 125/125/125 128/128/128 121/121/121
f 129/129/129 121/121/121 128/128/128
f 130/130/130 121/121/121 129/129/129
f 131/131/131 121/121/121 130/130/130
f 132/132/132 121/121/121 131/131/131
f 121/121/121 132/132/132 133/133/133
f 134/134/134 133/133/133 132/132/132
f 133/133/133 135/135/135 121/121/121
f 133/133/133 134/134/134 135/135/135
f 135/135/135 126/126/126 121/121/121
f 126/126/126 135/135/135 136/136/136
f 136/136/136 135/135/135 137/137/137
f 137/137/137 135/135/135 138/138/138
f 139/139/139 135/135/135 134/134/134
f 138/138/138 135/135/135 140/140/140
f 135/135/135 139/139/139 141/141/141
f 141/141/141 140/140/140 135/135/135
f 142/142/142 141/141/141 139/139/139
f 140/140/140 141/141/141 143/143/143
f 143/143/143 141/141/141 144/144/144
f 145/145/145 141/141/141 142/142/142
f 146/146/146 141/141/141 145/145/145
f 147/147/147 141/141/141 146/146/146
f 150/150/150 149/149/149 148/148/148
f 149/149/149 151/151/151 148/148/148
f 149/149/149 152/152/152 151/151/151
f 152/152/152 153/153/153 151/151/151
f 153/153/153 154/154/154 151/151/151
f 154/154/154 155/155/155 151/151/151
f 155/155/155 156/156/156 151/151/151
f 156/156/156 157/157/157 151/151/151
f 148/148/148 151/151/151 158/158/158
f 157/157/157 159/159/159 151/151/151
f 158/158/158 161/161/161 160/160/160
f 158/158/158 151/151/151 161/161/161
f 151/151/151 162/162/162 161/161/161
f 151/151/151 163/163/163 162/162/162
f 151/151/151 164/164/164 163/163/163
f 151/151/151 165/165/165 164/164/164
f 151/151/151 166/166/166 165/165/165
f 151/151/151 167/167/167 166/166/166
f 151/151/151 168/168/168 167/167/167
f 159/159/159 168/168/168 151/151/151
f 168/168/168 169/169/169 167/167/167
f 159/159/159 170/170/170 168/168/168
f 168/168/168 171/171/171 169/169/169
f 170/170/170 172/172/172 168/168/168
f 172/172/172 173/173/173 168/168/168
f 168/168/168 174/174/174 171/171/171
f 168/168/168 175/175/175 174/174/174
f 178/178/178 177/177/177 176/176/176
f 178/178/178 179/179/179 177/177/177
f 181/181/181 180/180/180 178/178/178
f 180/180/180 182/182/182 178/178/178
f 182/182/182 183/183/183 178/178/178
f 178/178/178 184/184/184 179/179/179
f 183/183/183 184/184/184 178/178/178
f 184/184/184 185/185/185 179/179/179
f 183/183/183 186/186/186 184/184/184
f 187/187/187 185/185/185 184/184/184
f 186/186/186 188/188/188 184/184/184
f 188/188/188 189/189/189 184/184/184
f 189/189/189 190/190/190 184/184/184
f 190/190/190 191/191/191 184/184/184
f 192/192/192 187/187/187 184/184/184
f 191/191/191 193/193/193 184/184/184
f 191/191/191 194/194/194 193/193/193
f 194/194/194 195/195/195 193/193/193
f 195/195/195 196/196/196 193/193/193
f 192/192/192 193/193/193 196/196/196
f 193/193/193 197/197/197 184/184/184
f 184/184/184 197/197/197 192/192/192
f 192/192/192 197/197/197 193/193/193
f 200/200/200 199/199/199 198/198/198
f 200/200/200 198/198/198 201/201/201
f 203/203/203 201/201/201 202/202/202
f 198/198/198 204/204/204 201/201/201
f 201/201/201 204/204/204 202/202/202
f 198/198/198 205/205/205 204/204/204
f 202/202/202 204/204/204 206/206/206
f 204/204/204 205/205/205 207/207/207
f 206/206/206 204/204/204 207/207/207
f 210/210/210 209/209/209 208/208/208
f 211/211/211 209/209/209 210/210/210
f 211/211/211 210/210/210 212/212/212
f 211/211/211 212/212/212 213/213/213
f 210/210/210 214/214/214 212/212/212
f 216/216/216 213/213/213 215/215/215
f 215/215/215 213/213/213 212/212/212
f 215/215/215 212/212/212 217/217/217
f 217/217/217 212/212/212 218/218/218
f 212/212/212 219/219/219 218/218/218
f 212/212/212 214/214/214 219/219/219
f 219/219/219 214/214/214 220/220/220
