mtllib SM_Wall_01_LOD3@000002909DC08800.mtl
g SM_Wall_01_LOD3@000002909DC08800
#Vertices 125
#Indices 315
#Section 0 Offset 0 NumIndices 297 MaterialIndex 0 MI_ConcreteTrim_A_02
#Section 1 Offset 297 NumIndices 18 MaterialIndex 1 MI_BrickTile_B_01
v 7.999997 3.317493 -0.375000 1.000000 1.000000 1.000000 1.000000
v 7.272724 3.317493 -0.375000 1.000000 1.000000 1.000000 1.000000
v 7.999996 3.250000 -0.307507 1.000000 1.000000 1.000000 1.000000
v 6.545452 3.317493 -0.375000 1.000000 1.000000 1.000000 1.000000
v 6.545452 3.250000 -0.307507 1.000000 1.000000 1.000000 1.000000
v 5.818179 3.317493 -0.375000 0.000000 0.000000 1.000000 1.000000
v 5.818179 3.250000 -0.307507 0.360784 0.360784 1.000000 1.000000
v 0.063806 3.317493 -0.375000 0.000000 0.000000 1.000000 1.000000
v 5.090907 3.250000 -0.307507 1.000000 1.000000 1.000000 1.000000
v 4.363634 3.250000 -0.307507 1.000000 1.000000 1.000000 1.000000
v 3.636361 3.250000 -0.307507 1.000000 1.000000 1.000000 1.000000
v 2.909089 3.250000 -0.307507 1.000000 1.000000 1.000000 1.000000
v 2.181816 3.250000 -0.307507 1.000000 1.000000 1.000000 1.000000
v -0.000002 3.250000 -0.307508 0.000000 0.000000 1.000000 1.000000
v -0.000002 3.317493 -0.375000 0.000000 0.000000 1.000000 1.000000
v 7.272724 3.932506 -0.375000 0.000000 0.000000 1.000000 1.000000
v 7.999997 3.932506 -0.375000 0.000000 0.000000 1.000000 1.000000
v 7.999996 4.000000 -0.307507 0.000000 0.000000 1.000000 1.000000
v 6.545452 4.000000 -0.307507 0.000000 0.000000 1.000000 1.000000
v 6.545452 3.932506 -0.375000 0.000000 0.000000 1.000000 1.000000
v 5.818179 4.000000 -0.307507 0.000000 0.000000 1.000000 1.000000
v 5.818179 3.932506 -0.375000 0.000000 0.000000 1.000000 1.000000
v 5.090907 4.000000 -0.307507 0.000000 0.000000 1.000000 1.000000
v 5.090907 3.932506 -0.375000 0.000000 0.000000 1.000000 1.000000
v 4.363634 4.000000 -0.307507 0.000000 0.000000 1.000000 1.000000
v 4.363634 3.932506 -0.375000 0.000000 0.000000 1.000000 1.000000
v 0.016058 4.000000 -0.307507 0.000000 0.000000 1.000000 1.000000
v 3.636361 3.932506 -0.375000 0.000000 0.000000 1.000000 1.000000
v 2.909088 3.932506 -0.375000 0.694118 0.694118 1.000000 1.000000
v 2.181816 3.932506 -0.375000 1.000000 1.000000 1.000000 1.000000
v -0.000002 3.932507 -0.375000 0.000000 0.000000 1.000000 1.000000
v -0.000002 4.000000 -0.307507 0.000000 0.000000 1.000000 1.000000
v 7.272727 4.000000 0.307506 0.000000 0.000000 1.000000 1.000000
v 8.000000 4.000000 0.307506 0.000000 0.000000 1.000000 1.000000
v 7.999999 3.932506 0.374999 0.000000 0.000000 1.000000 1.000000
v 6.545454 3.932506 0.374999 0.000000 0.000000 1.000000 1.000000
v 6.545454 4.000000 0.307506 0.000000 0.000000 1.000000 1.000000
v 5.818182 3.932506 0.374999 0.000000 0.000000 1.000000 1.000000
v 5.818182 4.000000 0.307506 0.000000 0.000000 1.000000 1.000000
v 5.090909 3.932506 0.374999 0.000000 0.000000 1.000000 1.000000
v 5.090909 4.000000 0.307506 0.000000 0.000000 1.000000 1.000000
v 4.363636 3.932506 0.374999 0.000000 0.000000 1.000000 1.000000
v 4.363636 4.000000 0.307506 0.000000 0.000000 1.000000 1.000000
v 3.636364 3.932506 0.374999 0.000000 0.000000 1.000000 1.000000
v 3.636364 4.000000 0.307506 0.000000 0.000000 1.000000 1.000000
v 2.909091 3.932506 0.374999 0.000000 0.000000 1.000000 1.000000
v 2.909091 4.000000 0.307506 0.000000 0.000000 1.000000 1.000000
v 2.181818 3.932506 0.374999 0.000000 0.000000 1.000000 1.000000
v 2.181818 4.000000 0.307506 0.000000 0.000000 1.000000 1.000000
v 1.454545 3.932506 0.374999 0.000000 0.000000 1.000000 1.000000
v -0.000000 4.000000 0.307507 0.000000 0.000000 1.000000 1.000000
v -0.000000 3.932506 0.374999 0.000000 0.000000 1.000000 1.000000
v 8.000000 3.250000 0.307506 0.000000 0.000000 1.000000 1.000000
v 7.272727 3.250000 0.307506 0.000000 0.000000 1.000000 1.000000
v 8.000000 3.317493 0.375000 0.000000 0.000000 1.000000 1.000000
v -0.000000 3.317493 0.374999 0.000000 0.000000 1.000000 1.000000
v -0.000000 3.250000 0.307506 0.000000 0.000000 1.000000 1.000000
v 2.181816 3.250000 -0.307507 1.000000 1.000000 1.000000 1.000000
v -0.000002 3.250000 -0.307508 0.000000 0.000000 1.000000 1.000000
v -0.000000 3.250000 0.307506 0.000000 0.000000 1.000000 1.000000
v 2.909089 3.250000 -0.307507 1.000000 1.000000 1.000000 1.000000
v 8.000000 3.250000 0.307506 0.000000 0.000000 1.000000 1.000000
v 7.272727 3.250000 0.307506 0.000000 0.000000 1.000000 1.000000
v 3.636361 3.250000 -0.307507 1.000000 1.000000 1.000000 1.000000
v 4.363634 3.250000 -0.307507 1.000000 1.000000 1.000000 1.000000
v 5.090907 3.250000 -0.307507 1.000000 1.000000 1.000000 1.000000
v 5.818179 3.250000 -0.307507 0.360784 0.360784 1.000000 1.000000
v 6.545452 3.250000 -0.307507 1.000000 1.000000 1.000000 1.000000
v 7.999996 3.250000 -0.307507 1.000000 1.000000 1.000000 1.000000
v 7.999996 3.625000 -0.375000 0.000000 0.000000 1.000000 1.000000
v 7.272724 3.317493 -0.375000 1.000000 1.000000 1.000000 1.000000
v 7.999997 3.317493 -0.375000 1.000000 1.000000 1.000000 1.000000
v 6.545452 3.317493 -0.375000 1.000000 1.000000 1.000000 1.000000
v 5.818179 3.317493 -0.375000 0.000000 0.000000 1.000000 1.000000
v 7.272724 3.932506 -0.375000 0.000000 0.000000 1.000000 1.000000
v 7.999997 3.932506 -0.375000 0.000000 0.000000 1.000000 1.000000
v 6.545452 3.932506 -0.375000 0.000000 0.000000 1.000000 1.000000
v -0.000002 3.317493 -0.375000 0.000000 0.000000 1.000000 1.000000
v 0.063806 3.317493 -0.375000 0.000000 0.000000 1.000000 1.000000
v 5.818179 3.932506 -0.375000 0.000000 0.000000 1.000000 1.000000
v 5.090907 3.932506 -0.375000 0.000000 0.000000 1.000000 1.000000
v 4.363634 3.932506 -0.375000 0.000000 0.000000 1.000000 1.000000
v 3.636361 3.932506 -0.375000 0.000000 0.000000 1.000000 1.000000
v 2.909088 3.932506 -0.375000 0.694118 0.694118 1.000000 1.000000
v 2.181816 3.932506 -0.375000 1.000000 1.000000 1.000000 1.000000
v -0.000002 3.932507 -0.375000 0.000000 0.000000 1.000000 1.000000
v 7.999999 3.932506 0.374999 0.000000 0.000000 1.000000 1.000000
v 5.818182 3.932506 0.374999 0.000000 0.000000 1.000000 1.000000
v 6.545454 3.932506 0.374999 0.000000 0.000000 1.000000 1.000000
v 5.090909 3.932506 0.374999 0.000000 0.000000 1.000000 1.000000
v 4.363636 3.932506 0.374999 0.000000 0.000000 1.000000 1.000000
v 3.636364 3.932506 0.374999 0.000000 0.000000 1.000000 1.000000
v 2.909091 3.932506 0.374999 0.000000 0.000000 1.000000 1.000000
v 2.181818 3.932506 0.374999 0.000000 0.000000 1.000000 1.000000
v 1.454545 3.932506 0.374999 0.000000 0.000000 1.000000 1.000000
v -0.000000 3.932506 0.374999 0.000000 0.000000 1.000000 1.000000
v -0.000000 3.317493 0.374999 0.000000 0.000000 1.000000 1.000000
v 8.000000 3.317493 0.375000 0.000000 0.000000 1.000000 1.000000
v 7.272727 4.000000 0.307506 0.000000 0.000000 1.000000 1.000000
v 7.999996 4.000000 -0.307507 0.000000 0.000000 1.000000 1.000000
v 8.000000 4.000000 0.307506 0.000000 0.000000 1.000000 1.000000
v 6.545454 4.000000 0.307506 0.000000 0.000000 1.000000 1.000000
v 5.818182 4.000000 0.307506 0.000000 0.000000 1.000000 1.000000
v 5.090909 4.000000 0.307506 0.000000 0.000000 1.000000 1.000000
v 4.363636 4.000000 0.307506 0.000000 0.000000 1.000000 1.000000
v 3.636364 4.000000 0.307506 0.000000 0.000000 1.000000 1.000000
v 2.909091 4.000000 0.307506 0.000000 0.000000 1.000000 1.000000
v 2.181818 4.000000 0.307506 0.000000 0.000000 1.000000 1.000000
v -0.000000 4.000000 0.307507 0.000000 0.000000 1.000000 1.000000
v -0.000002 4.000000 -0.307507 0.000000 0.000000 1.000000 1.000000
v 0.016058 4.000000 -0.307507 0.000000 0.000000 1.000000 1.000000
v 4.363634 4.000000 -0.307507 0.000000 0.000000 1.000000 1.000000
v 5.090907 4.000000 -0.307507 0.000000 0.000000 1.000000 1.000000
v 5.818179 4.000000 -0.307507 0.000000 0.000000 1.000000 1.000000
v 6.545452 4.000000 -0.307507 0.000000 0.000000 1.000000 1.000000
v 0.000000 3.500001 -0.250000 0.000000 0.000000 1.000000 1.000000
v 0.000000 -0.000000 -0.250000 0.000000 0.000000 1.000000 1.000000
v 8.000000 -0.000000 -0.250000 0.000000 0.000000 1.000000 1.000000
v 4.363561 3.500001 -0.250000 0.000000 0.000000 1.000000 1.000000
v 8.000000 3.499999 -0.250000 0.000000 0.000000 1.000000 1.000000
v 0.000000 0.000000 0.250000 0.000000 0.000000 1.000000 1.000000
v 0.000000 3.500001 0.250000 0.000000 0.000000 1.000000 1.000000
v 4.388241 3.500001 0.250000 0.000000 0.000000 1.000000 1.000000
v 8.000000 3.499999 0.250000 0.000000 0.000000 1.000000 1.000000
v 8.000000 0.000000 0.250000 0.000000 0.000000 1.000000 1.000000
vt 0.999512 0.137695
vt 0.908691 0.137695
vt 0.999512 0.115234
vt 0.817871 0.137695
vt 0.817871 0.115234
vt 0.727051 0.137695
vt 0.727051 0.115234
vt 0.007973 0.137695
vt 0.636230 0.115234
vt 0.545410 0.115234
vt 0.454346 0.115234
vt 0.363525 0.115234
vt 0.272705 0.115234
vt -0.000000 0.115234
vt -0.000000 0.137695
vt 0.908691 0.235352
vt 0.999512 0.235352
vt 0.999512 0.256348
vt 0.817871 0.256348
vt 0.817871 0.235352
vt 0.727051 0.256348
vt 0.727051 0.235352
vt 0.636230 0.256348
vt 0.636230 0.235352
vt 0.545410 0.256348
vt 0.545410 0.235352
vt 0.002014 0.256348
vt 0.454346 0.235352
vt 0.363525 0.235352
vt 0.272705 0.235352
vt 0.000000 0.235352
vt 0.000009 0.256348
vt 0.908691 0.346191
vt 1.000000 0.346191
vt 0.999512 0.365234
vt 0.817871 0.365234
vt 0.817871 0.346191
vt 0.727051 0.365234
vt 0.727051 0.346191
vt 0.636230 0.365234
vt 0.636230 0.346191
vt 0.545410 0.365234
vt 0.545410 0.346191
vt 0.454346 0.365234
vt 0.454346 0.346191
vt 0.363525 0.365234
vt 0.363525 0.346191
vt 0.272705 0.365234
vt 0.272705 0.346191
vt 0.181763 0.365234
vt 0.000009 0.346191
vt 0.000000 0.365234
vt 1.000000 0.463379
vt 0.908691 0.463379
vt 1.000000 0.453613
vt 0.000000 0.453613
vt 0.000000 0.463379
vt 0.272705 0.115234
vt -0.000000 0.115234
vt -0.000000 0.000000
vt 0.363525 0.115234
vt 1.000000 0.000488
vt 0.908691 0.000488
vt 0.454346 0.115234
vt 0.545410 0.115234
vt 0.636230 0.115234
vt 0.727051 0.115234
vt 0.817871 0.115234
vt 0.999512 0.115234
vt 0.999512 0.186523
vt 0.908691 0.137695
vt 0.999512 0.137695
vt 0.817871 0.137695
vt 0.727051 0.137695
vt 0.908691 0.235352
vt 0.999512 0.235352
vt 0.817871 0.235352
vt -0.000000 0.137695
vt 0.007973 0.137695
vt 0.727051 0.235352
vt 0.636230 0.235352
vt 0.545410 0.235352
vt 0.454346 0.235352
vt 0.363525 0.235352
vt 0.272705 0.235352
vt -0.000000 0.235352
vt 1.000000 0.365234
vt 0.727051 0.365234
vt 0.817871 0.365234
vt 0.636230 0.365234
vt 0.545410 0.365234
vt 0.454346 0.365234
vt 0.363525 0.365234
vt 0.272705 0.365234
vt 0.181763 0.365234
vt 0.000000 0.365234
vt 0.000000 0.453613
vt 1.000000 0.453613
vt 0.908691 0.346191
vt 0.999512 0.256348
vt 1.000000 0.346191
vt 0.817871 0.346191
vt 0.727051 0.346191
vt 0.636230 0.346191
vt 0.545410 0.346191
vt 0.454346 0.346191
vt 0.363525 0.346191
vt 0.272705 0.346191
vt 0.000009 0.346191
vt 0.000009 0.256348
vt 0.002016 0.256348
vt 0.545410 0.256348
vt 0.636230 0.256348
vt 0.727051 0.256348
vt 0.817871 0.256348
vt -1.998047 0.960388
vt -1.998047 0.522949
vt -0.998535 0.522949
vt -1.453125 0.960388
vt -0.998535 0.960388
vt -2.000000 0.468750
vt -2.000000 0.031250
vt -1.452148 0.031738
vt -1.000977 0.031738
vt -1.000977 0.469238
vt1 0.999512 0.137695
vt1 0.908691 0.137695
vt1 0.999512 0.115234
vt1 0.817871 0.137695
vt1 0.817871 0.115234
vt1 0.727051 0.137695
vt1 0.727051 0.115234
vt1 0.007973 0.137695
vt1 0.636230 0.115234
vt1 0.545410 0.115234
vt1 0.454346 0.115234
vt1 0.363525 0.115234
vt1 0.272705 0.115234
vt1 -0.000000 0.115234
vt1 -0.000000 0.137695
vt1 0.908691 0.235352
vt1 0.999512 0.235352
vt1 0.999512 0.256348
vt1 0.817871 0.256348
vt1 0.817871 0.235352
vt1 0.727051 0.256348
vt1 0.727051 0.235352
vt1 0.636230 0.256348
vt1 0.636230 0.235352
vt1 0.545410 0.256348
vt1 0.545410 0.235352
vt1 0.002014 0.256348
vt1 0.454346 0.235352
vt1 0.363525 0.235352
vt1 0.272705 0.235352
vt1 0.000000 0.235352
vt1 0.000009 0.256348
vt1 0.908691 0.346191
vt1 1.000000 0.346191
vt1 0.999512 0.365234
vt1 0.817871 0.365234
vt1 0.817871 0.346191
vt1 0.727051 0.365234
vt1 0.727051 0.346191
vt1 0.636230 0.365234
vt1 0.636230 0.346191
vt1 0.545410 0.365234
vt1 0.545410 0.346191
vt1 0.454346 0.365234
vt1 0.454346 0.346191
vt1 0.363525 0.365234
vt1 0.363525 0.346191
vt1 0.272705 0.365234
vt1 0.272705 0.346191
vt1 0.181763 0.365234
vt1 0.000009 0.346191
vt1 0.000000 0.365234
vt1 1.000000 0.463379
vt1 0.908691 0.463379
vt1 1.000000 0.453613
vt1 0.000000 0.453613
vt1 0.000000 0.463379
vt1 0.272705 0.115234
vt1 -0.000000 0.115234
vt1 -0.000000 0.000000
vt1 0.363525 0.115234
vt1 1.000000 0.000488
vt1 0.908691 0.000488
vt1 0.454346 0.115234
vt1 0.545410 0.115234
vt1 0.636230 0.115234
vt1 0.727051 0.115234
vt1 0.817871 0.115234
vt1 0.999512 0.115234
vt1 0.999512 0.186523
vt1 0.908691 0.137695
vt1 0.999512 0.137695
vt1 0.817871 0.137695
vt1 0.727051 0.137695
vt1 0.908691 0.235352
vt1 0.999512 0.235352
vt1 0.817871 0.235352
vt1 -0.000000 0.137695
vt1 0.007973 0.137695
vt1 0.727051 0.235352
vt1 0.636230 0.235352
vt1 0.545410 0.235352
vt1 0.454346 0.235352
vt1 0.363525 0.235352
vt1 0.272705 0.235352
vt1 -0.000000 0.235352
vt1 1.000000 0.365234
vt1 0.727051 0.365234
vt1 0.817871 0.365234
vt1 0.636230 0.365234
vt1 0.545410 0.365234
vt1 0.454346 0.365234
vt1 0.363525 0.365234
vt1 0.272705 0.365234
vt1 0.181763 0.365234
vt1 0.000000 0.365234
vt1 0.000000 0.453613
vt1 1.000000 0.453613
vt1 0.908691 0.346191
vt1 0.999512 0.256348
vt1 1.000000 0.346191
vt1 0.817871 0.346191
vt1 0.727051 0.346191
vt1 0.636230 0.346191
vt1 0.545410 0.346191
vt1 0.454346 0.346191
vt1 0.363525 0.346191
vt1 0.272705 0.346191
vt1 0.000009 0.346191
vt1 0.000009 0.256348
vt1 0.002016 0.256348
vt1 0.545410 0.256348
vt1 0.636230 0.256348
vt1 0.727051 0.256348
vt1 0.817871 0.256348
vt1 -1.998047 0.960388
vt1 -1.998047 0.522949
vt1 -0.998535 0.522949
vt1 -1.453125 0.960388
vt1 -0.998535 0.960388
vt1 -2.000000 0.468750
vt1 -2.000000 0.031250
vt1 -1.452148 0.031738
vt1 -1.000977 0.031738
vt1 -1.000977 0.469238
vn 0.000000 -0.708661 -0.708661
vn 0.000000 -0.708661 -0.708661
vn 0.000000 -0.708661 -0.708661
vn 0.000000 -0.708661 -0.708661
vn 0.000000 -0.708661 -0.708661
vn 0.000000 -0.708661 -0.708661
vn 0.000000 -0.708661 -0.708661
vn 0.000000 -0.708661 -0.708661
vn 0.000000 -0.708661 -0.708661
vn 0.000000 -0.708661 -0.708661
vn 0.000000 -0.708661 -0.708661
vn 0.000000 -0.708661 -0.708661
vn 0.000000 -0.708661 -0.708661
vn 0.000000 -0.708661 -0.708661
vn 0.000000 -0.708661 -0.708661
vn 0.000000 0.708661 -0.708661
vn 0.000000 0.708661 -0.708661
vn 0.000000 0.708661 -0.708661
vn 0.000000 0.708661 -0.708661
vn 0.000000 0.708661 -0.708661
vn 0.000000 0.708661 -0.708661
vn 0.000000 0.708661 -0.708661
vn 0.000000 0.708661 -0.708661
vn 0.000000 0.708661 -0.708661
vn 0.000000 0.708661 -0.708661
vn 0.000000 0.708661 -0.708661
vn 0.000000 0.708661 -0.708661
vn 0.000000 0.708661 -0.708661
vn 0.000000 0.708661 -0.708661
vn 0.000000 0.708661 -0.708661
vn 0.000000 0.708661 -0.708661
vn 0.000000 0.708661 -0.708661
vn 0.000000 0.708661 0.708661
vn 0.000000 0.708661 0.708661
vn 0.000000 0.708661 0.708661
vn 0.000000 0.708661 0.708661
vn 0.000000 0.708661 0.708661
vn 0.000000 0.708661 0.708661
vn 0.000000 0.708661 0.708661
vn 0.000000 0.708661 0.708661
vn 0.000000 0.708661 0.708661
vn 0.000000 0.708661 0.708661
vn 0.000000 0.708661 0.708661
vn 0.000000 0.708661 0.708661
vn 0.000000 0.708661 0.708661
vn 0.000000 0.708661 0.708661
vn 0.000000 0.708661 0.708661
vn 0.000000 0.708661 0.708661
vn 0.000000 0.708661 0.708661
vn 0.000000 0.708661 0.708661
vn 0.000000 0.708661 0.708661
vn 0.000000 0.708661 0.708661
vn 0.000000 -0.708661 0.708661
vn 0.000000 -0.708661 0.708661
vn 0.000000 -0.708661 0.708661
vn 0.000000 -0.708661 0.708661
vn 0.000000 -0.708661 0.708661
vn 0.000000 -1.000000 0.000000
vn 0.000000 -1.000000 0.000000
vn 0.000000 -1.000000 0.000000
vn 0.000000 -1.000000 0.000000
vn 0.000000 -1.000000 0.000000
vn 0.000000 -1.000000 0.000000
vn 0.000000 -1.000000 0.000000
vn 0.000000 -1.000000 0.000000
vn 0.000000 -1.000000 0.000000
vn 0.000000 -1.000000 0.000000
vn 0.000000 -1.000000 0.000000
vn 0.000000 -1.000000 0.000000
vn 0.000000 -0.000000 -1.000000
vn 0.000000 -0.000000 -1.000000
vn 0.000000 -0.000000 -1.000000
vn 0.000000 -0.000000 -1.000000
vn 0.000000 -0.000000 -1.000000
vn 0.000000 -0.000000 -1.000000
vn 0.000000 -0.000000 -1.000000
vn 0.000000 -0.000000 -1.000000
vn 0.000000 -0.000000 -1.000000
vn 0.000000 -0.000000 -1.000000
vn 0.000000 -0.000000 -1.000000
vn 0.000000 -0.000000 -1.000000
vn 0.000000 -0.000000 -1.000000
vn 0.000000 -0.000000 -1.000000
vn 0.000000 -0.000000 -1.000000
vn 0.000000 -0.000000 -1.000000
vn 0.000000 -0.000000 -1.000000
vn 0.000000 0.000000 1.000000
vn 0.000000 0.000000 1.000000
vn 0.000000 0.000000 1.000000
vn 0.000000 0.000000 1.000000
vn 0.000000 0.000000 1.000000
vn 0.000000 0.000000 1.000000
vn 0.000000 0.000000 1.000000
vn 0.000000 0.000000 1.000000
vn 0.000000 0.000000 1.000000
vn 0.000000 0.000000 1.000000
vn 0.000000 0.000000 1.000000
vn 0.000000 0.000000 1.000000
vn 0.000000 1.000000 -0.000000
vn 0.000000 1.000000 -0.000000
vn 0.000000 1.000000 -0.000000
vn 0.000000 1.000000 -0.000000
vn 0.000000 1.000000 -0.000000
vn 0.000000 1.000000 -0.000000
vn 0.000000 1.000000 -0.000000
vn 0.000000 1.000000 -0.000000
vn 0.000000 1.000000 -0.000000
vn 0.000000 1.000000 -0.000000
vn 0.000000 1.000000 -0.000000
vn 0.000000 1.000000 -0.000000
vn 0.000000 1.000000 -0.000000
vn 0.000000 1.000000 -0.000000
vn 0.000000 1.000000 -0.000000
vn 0.000000 1.000000 -0.000000
vn 0.000000 1.000000 -0.000000
vn 0.000000 -0.000000 -1.000000
vn 0.000000 -0.000000 -1.000000
vn 0.000000 -0.000000 -1.000000
vn 0.000000 -0.000000 -1.000000
vn 0.000000 -0.000000 -1.000000
vn 0.000000 0.000000 1.000000
vn 0.000000 0.000000 1.000000
vn 0.000000 0.000000 1.000000
vn 0.000000 0.000000 1.000000
vn 0.000000 0.000000 1.000000
tan 0.000000 -0.708661 0.708661 1.000000
tan 0.000000 -0.708661 0.708661 1.000000
tan 0.000000 -0.708661 0.708661 1.000000
tan 0.000000 -0.708661 0.708661 1.000000
tan 0.000000 -0.708661 0.708661 1.000000
tan 0.000000 -0.708661 0.708661 1.000000
tan 0.000000 -0.708661 0.708661 1.000000
tan 0.000000 -0.708661 0.708661 1.000000
tan 0.000000 -0.708661 0.708661 1.000000
tan 0.000000 -0.708661 0.708661 1.000000
tan 0.000000 -0.708661 0.708661 1.000000
tan 0.000000 -0.708661 0.708661 1.000000
tan 0.000000 -0.708661 0.708661 1.000000
tan 0.000000 -0.708661 0.708661 1.000000
tan 0.000000 -0.708661 0.708661 1.000000
tan 0.000000 -0.708661 -0.708661 1.000000
tan 0.000000 -0.708661 -0.708661 1.000000
tan 0.000000 -0.708661 -0.708661 1.000000
tan 0.000000 -0.708661 -0.708661 1.000000
tan 0.000000 -0.708661 -0.708661 1.000000
tan 0.000000 -0.708661 -0.708661 1.000000
tan 0.000000 -0.708661 -0.708661 1.000000
tan 0.000000 -0.708661 -0.708661 1.000000
tan 0.000000 -0.708661 -0.708661 1.000000
tan 0.000000 -0.708661 -0.708661 1.000000
tan 0.000000 -0.708661 -0.708661 1.000000
tan 0.000000 -0.708661 -0.708661 1.000000
tan 0.000000 -0.708661 -0.708661 1.000000
tan 0.000000 -0.708661 -0.708661 1.000000
tan 0.000000 -0.708661 -0.708661 1.000000
tan 0.000000 -0.708661 -0.708661 1.000000
tan 0.000000 -0.708661 -0.708661 1.000000
tan 0.000000 0.708661 -0.708661 1.000000
tan 0.000000 0.708661 -0.708661 1.000000
tan 0.000000 0.708661 -0.708661 1.000000
tan 0.000000 0.708661 -0.708661 1.000000
tan 0.000000 0.708661 -0.708661 1.000000
tan 0.000000 0.708661 -0.708661 1.000000
tan 0.000000 0.708661 -0.708661 1.000000
tan 0.000000 0.708661 -0.708661 1.000000
tan 0.000000 0.708661 -0.708661 1.000000
tan 0.000000 0.708661 -0.708661 1.000000
tan 0.000000 0.708661 -0.708661 1.000000
tan 0.000000 0.708661 -0.708661 1.000000
tan 0.000000 0.708661 -0.708661 1.000000
tan 0.000000 0.708661 -0.708661 1.000000
tan 0.000000 0.708661 -0.708661 1.000000
tan 0.000000 0.708661 -0.708661 1.000000
tan 0.000000 0.708661 -0.708661 1.000000
tan 0.000000 0.708661 -0.708661 1.000000
tan 0.000000 0.708661 -0.708661 1.000000
tan 0.000000 0.708661 -0.708661 1.000000
tan 0.000000 0.708661 0.708661 1.000000
tan 0.000000 0.708661 0.708661 1.000000
tan 0.000000 0.708661 0.708661 1.000000
tan 0.000000 0.708661 0.708661 1.000000
tan 0.000000 0.708661 0.708661 1.000000
tan 0.000000 0.000000 1.000000 1.000000
tan 0.000000 0.000000 1.000000 1.000000
tan 0.000000 0.000000 1.000000 1.000000
tan 0.000000 0.000000 1.000000 1.000000
tan 0.000000 0.000000 1.000000 1.000000
tan 0.000000 0.000000 1.000000 1.000000
tan 0.000000 0.000000 1.000000 1.000000
tan 0.000000 0.000000 1.000000 1.000000
tan 0.000000 0.000000 1.000000 1.000000
tan 0.000000 0.000000 1.000000 1.000000
tan 0.000000 0.000000 1.000000 1.000000
tan 0.000000 0.000000 1.000000 1.000000
tan 0.000000 -1.000000 0.000000 1.000000
tan 0.000000 -1.000000 0.000000 1.000000
tan 0.000000 -1.000000 0.000000 1.000000
tan 0.000000 -1.000000 0.000000 1.000000
tan 0.000000 -1.000000 0.000000 1.000000
tan 0.000000 -1.000000 0.000000 1.000000
tan 0.000000 -1.000000 0.000000 1.000000
tan 0.000000 -1.000000 0.000000 1.000000
tan 0.000000 -1.000000 0.000000 1.000000
tan 0.000000 -1.000000 0.000000 1.000000
tan 0.000000 -1.000000 0.000000 1.000000
tan 0.000000 -1.000000 0.000000 1.000000
tan 0.000000 -1.000000 0.000000 1.000000
tan 0.000000 -1.000000 0.000000 1.000000
tan 0.000000 -1.000000 0.000000 1.000000
tan 0.000000 -1.000000 0.000000 1.000000
tan 0.000000 -1.000000 0.000000 1.000000
tan 0.000000 1.000000 -0.000000 1.000000
tan 0.000000 1.000000 -0.000000 1.000000
tan 0.000000 1.000000 -0.000000 1.000000
tan 0.000000 1.000000 -0.000000 1.000000
tan 0.000000 1.000000 -0.000000 1.000000
tan 0.000000 1.000000 -0.000000 1.000000
tan 0.000000 1.000000 -0.000000 1.000000
tan 0.000000 1.000000 -0.000000 1.000000
tan 0.000000 1.000000 -0.000000 1.000000
tan 0.000000 1.000000 -0.000000 1.000000
tan 0.000000 1.000000 -0.000000 1.000000
tan 0.000000 1.000000 -0.000000 1.000000
tan 0.000000 -0.000000 -1.000000 1.000000
tan 0.000000 -0.000000 -1.000000 1.000000
tan 0.000000 -0.000000 -1.000000 1.000000
tan 0.000000 -0.000000 -1.000000 1.000000
tan 0.000000 -0.000000 -1.000000 1.000000
tan 0.000000 -0.000000 -1.000000 1.000000
tan 0.000000 -0.000000 -1.000000 1.000000
tan 0.000000 -0.000000 -1.000000 1.000000
tan 0.000000 -0.000000 -1.000000 1.000000
tan 0.000000 -0.000000 -1.000000 1.000000
tan 0.000000 -0.000000 -1.000000 1.000000
tan 0.000000 -0.000000 -1.000000 1.000000
tan 0.000000 -0.000000 -1.000000 1.000000
tan 0.000000 -0.000000 -1.000000 1.000000
tan 0.000000 -0.000000 -1.000000 1.000000
tan 0.000000 -0.000000 -1.000000 1.000000
tan 0.000000 -0.000000 -1.000000 1.000000
tan 0.000000 -1.000000 0.000000 1.000000
tan 0.000000 -1.000000 0.000000 1.000000
tan 0.000000 -1.000000 0.000000 1.000000
tan 0.000000 -1.000000 0.000000 1.000000
tan 0.000000 -1.000000 0.000000 1.000000
tan 0.000000 1.000000 -0.000000 1.000000
tan 0.000000 1.000000 -0.000000 1.000000
tan 0.000000 1.000000 -0.000000 1.000000
tan 0.000000 1.000000 -0.000000 1.000000
tan 0.000000 1.000000 -0.000000 1.000000
f 3/3/3 2/2/2 1/1/1
f 3/3/3 4/4/4 2/2/2
f 4/4/4 3/3/3 5/5/5
f 5/5/5 6/6/6 4/4/4
f 6/6/6 5/5/5 7/7/7
f 7/7/7 8/8/8 6/6/6
f 8/8/8 7/7/7 9/9/9
f 8/8/8 9/9/9 10/10/10
f 8/8/8 10/10/10 11/11/11
f 11/11/11 12/12/12 8/8/8
f 12/12/12 13/13/13 8/8/8
f 13/13/13 14/14/14 8/8/8
f 15/15/15 8/8/8 14/14/14
f 18/18/18 17/17/17 16/16/16
f 16/16/16 19/19/19 18/18/18
f 19/19/19 16/16/16 20/20/20
f 20/20/20 21/21/21 19/19/19
f 21/21/21 20/20/20 22/22/22
f 22/22/22 23/23/23 21/21/21
f 23/23/23 22/22/22 24/24/24
f 24/24/24 25/25/25 23/23/23
f 25/25/25 24/24/24 26/26/26
f 26/26/26 27/27/27 25/25/25
f 27/27/27 26/26/26 28/28/28
f 27/27/27 28/28/28 29/29/29
f 27/27/27 29/29/29 30/30/30
f 27/27/27 30/30/30 31/31/31
f 31/31/31 32/32/32 27/27/27
f 35/35/35 34/34/34 33/33/33
f 33/33/33 36/36/36 35/35/35
f 36/36/36 33/33/33 37/37/37
f 37/37/37 38/38/38 36/36/36
f 38/38/38 37/37/37 39/39/39
f 39/39/39 40/40/40 38/38/38
f 40/40/40 39/39/39 41/41/41
f 41/41/41 42/42/42 40/40/40
f 42/42/42 41/41/41 43/43/43
f 43/43/43 44/44/44 42/42/42
f 44/44/44 43/43/43 45/45/45
f 45/45/45 46/46/46 44/44/44
f 46/46/46 45/45/45 47/47/47
f 47/47/47 48/48/48 46/46/46
f 48/48/48 47/47/47 49/49/49
f 49/49/49 50/50/50 48/48/48
f 50/50/50 49/49/49 51/51/51
f 51/51/51 52/52/52 50/50/50
f 55/55/55 54/54/54 53/53/53
f 54/54/54 55/55/55 56/56/56
f 56/56/56 57/57/57 54/54/54
f 60/60/60 59/59/59 58/58/58
f 60/60/60 58/58/58 61/61/61
f 62/62/62 60/60/60 61/61/61
f 63/63/63 60/60/60 62/62/62
f 62/62/62 61/61/61 64/64/64
f 62/62/62 64/64/64 65/65/65
f 62/62/62 65/65/65 66/66/66
f 62/62/62 66/66/66 67/67/67
f 62/62/62 67/67/67 68/68/68
f 62/62/62 68/68/68 69/69/69
f 72/72/72 71/71/71 70/70/70
f 71/71/71 73/73/73 70/70/70
f 73/73/73 74/74/74 70/70/70
f 76/76/76 70/70/70 75/75/75
f 70/70/70 77/77/77 75/75/75
f 70/70/70 74/74/74 78/78/78
f 70/70/70 78/78/78 77/77/77
f 79/79/79 78/78/78 74/74/74
f 78/78/78 80/80/80 77/77/77
f 81/81/81 80/80/80 78/78/78
f 78/78/78 82/82/82 81/81/81
f 83/83/83 82/82/82 78/78/78
f 78/78/78 84/84/84 83/83/83
f 78/78/78 85/85/85 84/84/84
f 78/78/78 86/86/86 85/85/85
f 89/89/89 88/88/88 87/87/87
f 88/88/88 90/90/90 87/87/87
f 90/90/90 91/91/91 87/87/87
f 91/91/91 92/92/92 87/87/87
f 92/92/92 93/93/93 87/87/87
f 93/93/93 94/94/94 87/87/87
f 94/94/94 95/95/95 87/87/87
f 95/95/95 96/96/96 87/87/87
f 97/97/97 87/87/87 96/96/96
f 87/87/87 97/97/97 98/98/98
f 101/101/101 100/100/100 99/99/99
f 99/99/99 100/100/100 102/102/102
f 102/102/102 100/100/100 103/103/103
f 103/103/103 100/100/100 104/104/104
f 104/104/104 100/100/100 105/105/105
f 105/105/105 100/100/100 106/106/106
f 106/106/106 100/100/100 107/107/107
f 107/107/107 100/100/100 108/108/108
f 108/108/108 100/100/100 109/109/109
f 100/100/100 110/110/110 109/109/109
f 110/110/110 100/100/100 111/111/111
f 111/111/111 100/100/100 112/112/112
f 112/112/112 100/100/100 113/113/113
f 113/113/113 100/100/100 114/114/114
f 114/114/114 100/100/100 115/115/115
f 118/118/118 117/117/117 116/116/116
f 118/118/118 116/116/116 119/119/119
f 120/120/120 118/118/118 119/119/119
f 123/123/123 122/122/122 121/121/121
f 123/123/123 121/121/121 124/124/124
f 125/125/125 124/124/124 121/121/121
